<?xml version="1.0" encoding="utf-8" standalone="no"?>
<!DOCTYPE svg PUBLIC "-//W3C//DTD SVG 1.1//EN"
  "http://www.w3.org/Graphics/SVG/1.1/DTD/svg11.dtd">
<!-- Created with matplotlib (https://matplotlib.org/) -->
<svg height="488.27625pt" version="1.1" viewBox="0 0 662.2375 488.27625" width="662.2375pt" xmlns="http://www.w3.org/2000/svg" xmlns:xlink="http://www.w3.org/1999/xlink">
 <metadata>
  <rdf:RDF xmlns:cc="http://creativecommons.org/ns#" xmlns:dc="http://purl.org/dc/elements/1.1/" xmlns:rdf="http://www.w3.org/1999/02/22-rdf-syntax-ns#">
   <cc:Work>
    <dc:type rdf:resource="http://purl.org/dc/dcmitype/StillImage"/>
    <dc:date>2021-02-07T18:19:14.609519</dc:date>
    <dc:format>image/svg+xml</dc:format>
    <dc:creator>
     <cc:Agent>
      <dc:title>Matplotlib v3.3.3, https://matplotlib.org/</dc:title>
     </cc:Agent>
    </dc:creator>
   </cc:Work>
  </rdf:RDF>
 </metadata>
 <defs>
  <style type="text/css">*{stroke-linecap:butt;stroke-linejoin:round;}</style>
 </defs>
 <g id="figure_1">
  <g id="patch_1">
   <path d="M 0 488.27625 
L 662.2375 488.27625 
L 662.2375 0 
L 0 0 
z
" style="fill:#ffffff;"/>
  </g>
  <g id="axes_1">
   <g id="patch_2">
    <path d="M 152.8375 450.72 
L 655.0375 450.72 
L 655.0375 7.2 
L 152.8375 7.2 
z
" style="fill:#ffffff;"/>
   </g>
   <g id="patch_3">
    <path clip-path="url(#p1282779b7e)" d="M 152.8375 8.367158 
L 631.123214 8.367158 
L 631.123214 17.704421 
L 152.8375 17.704421 
z
" style="fill:#482f4e;stroke:#cccccc;stroke-linejoin:miter;"/>
   </g>
   <g id="patch_4">
    <path clip-path="url(#p1282779b7e)" d="M 152.8375 20.038737 
L 541.180728 20.038737 
L 541.180728 29.376 
L 152.8375 29.376 
z
" style="fill:#623f60;stroke:#cccccc;stroke-linejoin:miter;"/>
   </g>
   <g id="patch_5">
    <path clip-path="url(#p1282779b7e)" d="M 152.8375 31.710316 
L 503.806932 31.710316 
L 503.806932 41.047579 
L 152.8375 41.047579 
z
" style="fill:#dbb9b8;stroke:#cccccc;stroke-linejoin:miter;"/>
   </g>
   <g id="patch_6">
    <path clip-path="url(#p1282779b7e)" d="M 152.8375 43.381895 
L 407.367521 43.381895 
L 407.367521 52.719158 
L 152.8375 52.719158 
z
" style="fill:#cfa5aa;stroke:#cccccc;stroke-linejoin:miter;"/>
   </g>
   <g id="patch_7">
    <path clip-path="url(#p1282779b7e)" d="M 152.8375 55.053474 
L 405.920911 55.053474 
L 405.920911 64.390737 
L 152.8375 64.390737 
z
" style="fill:#7d5171;stroke:#cccccc;stroke-linejoin:miter;"/>
   </g>
   <g id="patch_8">
    <path clip-path="url(#p1282779b7e)" d="M 152.8375 66.725053 
L 376.223301 66.725053 
L 376.223301 76.062316 
L 152.8375 76.062316 
z
" style="fill:#5c3b5c;stroke:#cccccc;stroke-linejoin:miter;"/>
   </g>
   <g id="patch_9">
    <path clip-path="url(#p1282779b7e)" d="M 152.8375 78.396632 
L 345.232897 78.396632 
L 345.232897 87.733895 
L 152.8375 87.733895 
z
" style="fill:#704869;stroke:#cccccc;stroke-linejoin:miter;"/>
   </g>
   <g id="patch_10">
    <path clip-path="url(#p1282779b7e)" d="M 152.8375 90.068211 
L 334.828296 90.068211 
L 334.828296 99.405474 
L 152.8375 99.405474 
z
" style="fill:#cb9fa5;stroke:#cccccc;stroke-linejoin:miter;"/>
   </g>
   <g id="patch_11">
    <path clip-path="url(#p1282779b7e)" d="M 152.8375 101.739789 
L 283.083625 101.739789 
L 283.083625 111.077053 
L 152.8375 111.077053 
z
" style="fill:#d3d3d3;stroke:#cccccc;stroke-linejoin:miter;"/>
   </g>
   <g id="patch_12">
    <path clip-path="url(#p1282779b7e)" d="M 152.8375 113.411368 
L 269.284069 113.411368 
L 269.284069 122.748632 
L 152.8375 122.748632 
z
" style="fill:#4f3353;stroke:#cccccc;stroke-linejoin:miter;"/>
   </g>
   <g id="patch_13">
    <path clip-path="url(#p1282779b7e)" d="M 152.8375 125.082947 
L 252.953862 125.082947 
L 252.953862 134.420211 
L 152.8375 134.420211 
z
" style="fill:#d3d3d3;stroke:#cccccc;stroke-linejoin:miter;"/>
   </g>
   <g id="patch_14">
    <path clip-path="url(#p1282779b7e)" d="M 152.8375 136.754526 
L 245.186119 136.754526 
L 245.186119 146.091789 
L 152.8375 146.091789 
z
" style="fill:#302139;stroke:#cccccc;stroke-linejoin:miter;"/>
   </g>
   <g id="patch_15">
    <path clip-path="url(#p1282779b7e)" d="M 152.8375 148.426105 
L 233.832981 148.426105 
L 233.832981 157.763368 
L 152.8375 157.763368 
z
" style="fill:#8a5b79;stroke:#cccccc;stroke-linejoin:miter;"/>
   </g>
   <g id="patch_16">
    <path clip-path="url(#p1282779b7e)" d="M 152.8375 160.097684 
L 228.606876 160.097684 
L 228.606876 169.434947 
L 152.8375 169.434947 
z
" style="fill:#b38092;stroke:#cccccc;stroke-linejoin:miter;"/>
   </g>
   <g id="patch_17">
    <path clip-path="url(#p1282779b7e)" d="M 152.8375 171.769263 
L 222.018393 171.769263 
L 222.018393 181.106526 
L 152.8375 181.106526 
z
" style="fill:#3c2844;stroke:#cccccc;stroke-linejoin:miter;"/>
   </g>
   <g id="patch_18">
    <path clip-path="url(#p1282779b7e)" d="M 152.8375 183.440842 
L 219.374211 183.440842 
L 219.374211 192.778105 
L 152.8375 192.778105 
z
" style="fill:#ffffff;stroke:#cccccc;stroke-linejoin:miter;"/>
   </g>
   <g id="patch_19">
    <path clip-path="url(#p1282779b7e)" d="M 152.8375 195.112421 
L 213.261828 195.112421 
L 213.261828 204.449684 
L 152.8375 204.449684 
z
" style="fill:#b88696;stroke:#cccccc;stroke-linejoin:miter;"/>
   </g>
   <g id="patch_20">
    <path clip-path="url(#p1282779b7e)" d="M 152.8375 206.784 
L 211.540546 206.784 
L 211.540546 216.121263 
L 152.8375 216.121263 
z
" style="fill:#36253f;stroke:#cccccc;stroke-linejoin:miter;"/>
   </g>
   <g id="patch_21">
    <path clip-path="url(#p1282779b7e)" d="M 152.8375 218.455579 
L 209.412748 218.455579 
L 209.412748 227.792842 
L 152.8375 227.792842 
z
" style="fill:#e1c6c2;stroke:#cccccc;stroke-linejoin:miter;"/>
   </g>
   <g id="patch_22">
    <path clip-path="url(#p1282779b7e)" d="M 152.8375 230.127158 
L 198.077922 230.127158 
L 198.077922 239.464421 
L 152.8375 239.464421 
z
" style="fill:#2a1e34;stroke:#cccccc;stroke-linejoin:miter;"/>
   </g>
   <g id="patch_23">
    <path clip-path="url(#p1282779b7e)" d="M 152.8375 241.798737 
L 194.375334 241.798737 
L 194.375334 251.136 
L 152.8375 251.136 
z
" style="fill:#d7b2b3;stroke:#cccccc;stroke-linejoin:miter;"/>
   </g>
   <g id="patch_24">
    <path clip-path="url(#p1282779b7e)" d="M 152.8375 253.470316 
L 189.240786 253.470316 
L 189.240786 262.807579 
L 152.8375 262.807579 
z
" style="fill:#553757;stroke:#cccccc;stroke-linejoin:miter;"/>
   </g>
   <g id="patch_25">
    <path clip-path="url(#p1282779b7e)" d="M 152.8375 265.141895 
L 184.336963 265.141895 
L 184.336963 274.479158 
L 152.8375 274.479158 
z
" style="fill:#ffffff;stroke:#cccccc;stroke-linejoin:miter;"/>
   </g>
   <g id="patch_26">
    <path clip-path="url(#p1282779b7e)" d="M 152.8375 276.813474 
L 183.985382 276.813474 
L 183.985382 286.150737 
L 152.8375 286.150737 
z
" style="fill:#cb9fa5;stroke:#cccccc;stroke-linejoin:miter;"/>
   </g>
   <g id="patch_27">
    <path clip-path="url(#p1282779b7e)" d="M 152.8375 288.485053 
L 183.465335 288.485053 
L 183.465335 297.822316 
L 152.8375 297.822316 
z
" style="fill:#d3d3d3;stroke:#cccccc;stroke-linejoin:miter;"/>
   </g>
   <g id="patch_28">
    <path clip-path="url(#p1282779b7e)" d="M 152.8375 300.156632 
L 182.853731 300.156632 
L 182.853731 309.493895 
L 152.8375 309.493895 
z
" style="fill:#d3d3d3;stroke:#cccccc;stroke-linejoin:miter;"/>
   </g>
   <g id="patch_29">
    <path clip-path="url(#p1282779b7e)" d="M 152.8375 311.828211 
L 182.139582 311.828211 
L 182.139582 321.165474 
L 152.8375 321.165474 
z
" style="fill:#9c6984;stroke:#cccccc;stroke-linejoin:miter;"/>
   </g>
   <g id="patch_30">
    <path clip-path="url(#p1282779b7e)" d="M 152.8375 323.499789 
L 177.656924 323.499789 
L 177.656924 332.837053 
L 152.8375 332.837053 
z
" style="fill:#ffffff;stroke:#cccccc;stroke-linejoin:miter;"/>
   </g>
   <g id="patch_31">
    <path clip-path="url(#p1282779b7e)" d="M 152.8375 335.171368 
L 176.430052 335.171368 
L 176.430052 344.508632 
L 152.8375 344.508632 
z
" style="fill:#ffffff;stroke:#cccccc;stroke-linejoin:miter;"/>
   </g>
   <g id="patch_32">
    <path clip-path="url(#p1282779b7e)" d="M 152.8375 346.842947 
L 176.382443 346.842947 
L 176.382443 356.180211 
L 152.8375 356.180211 
z
" style="fill:#d3d3d3;stroke:#cccccc;stroke-linejoin:miter;"/>
   </g>
   <g id="patch_33">
    <path clip-path="url(#p1282779b7e)" d="M 152.8375 358.514526 
L 176.279898 358.514526 
L 176.279898 367.851789 
L 152.8375 367.851789 
z
" style="fill:#ffffff;stroke:#cccccc;stroke-linejoin:miter;"/>
   </g>
   <g id="patch_34">
    <path clip-path="url(#p1282779b7e)" d="M 152.8375 370.186105 
L 175.745202 370.186105 
L 175.745202 379.523368 
L 152.8375 379.523368 
z
" style="fill:#774c6d;stroke:#cccccc;stroke-linejoin:miter;"/>
   </g>
   <g id="patch_35">
    <path clip-path="url(#p1282779b7e)" d="M 152.8375 381.857684 
L 174.573265 381.857684 
L 174.573265 391.194947 
L 152.8375 391.194947 
z
" style="fill:#694365;stroke:#cccccc;stroke-linejoin:miter;"/>
   </g>
   <g id="patch_36">
    <path clip-path="url(#p1282779b7e)" d="M 152.8375 393.529263 
L 174.496357 393.529263 
L 174.496357 402.866526 
L 152.8375 402.866526 
z
" style="fill:#dbb9b8;stroke:#cccccc;stroke-linejoin:miter;"/>
   </g>
   <g id="patch_37">
    <path clip-path="url(#p1282779b7e)" d="M 152.8375 405.200842 
L 173.591768 405.200842 
L 173.591768 414.538105 
L 152.8375 414.538105 
z
" style="fill:#cb9fa5;stroke:#cccccc;stroke-linejoin:miter;"/>
   </g>
   <g id="patch_38">
    <path clip-path="url(#p1282779b7e)" d="M 152.8375 416.872421 
L 173.207226 416.872421 
L 173.207226 426.209684 
L 152.8375 426.209684 
z
" style="fill:#dbb9b8;stroke:#cccccc;stroke-linejoin:miter;"/>
   </g>
   <g id="patch_39">
    <path clip-path="url(#p1282779b7e)" d="M 152.8375 428.544 
L 172.961852 428.544 
L 172.961852 437.881263 
L 152.8375 437.881263 
z
" style="fill:#a26f87;stroke:#cccccc;stroke-linejoin:miter;"/>
   </g>
   <g id="patch_40">
    <path clip-path="url(#p1282779b7e)" d="M 152.8375 440.215579 
L 171.665397 440.215579 
L 171.665397 449.552842 
L 152.8375 449.552842 
z
" style="fill:#d3d3d3;stroke:#cccccc;stroke-linejoin:miter;"/>
   </g>
   <g id="matplotlib.axis_1">
    <g id="xtick_1">
     <g id="line2d_1">
      <defs>
       <path d="M 0 0 
L 0 3.5 
" id="m6ad7d70c64" style="stroke:#000000;stroke-width:0.8;"/>
      </defs>
      <g>
       <use style="stroke:#000000;stroke-width:0.8;" x="152.8375" xlink:href="#m6ad7d70c64" y="450.72"/>
      </g>
     </g>
     <g id="text_1">
      <!-- 0 -->
      <g transform="translate(149.65625 465.318437)scale(0.1 -0.1)">
       <defs>
        <path d="M 31.78125 66.40625 
Q 24.171875 66.40625 20.328125 58.90625 
Q 16.5 51.421875 16.5 36.375 
Q 16.5 21.390625 20.328125 13.890625 
Q 24.171875 6.390625 31.78125 6.390625 
Q 39.453125 6.390625 43.28125 13.890625 
Q 47.125 21.390625 47.125 36.375 
Q 47.125 51.421875 43.28125 58.90625 
Q 39.453125 66.40625 31.78125 66.40625 
z
M 31.78125 74.21875 
Q 44.046875 74.21875 50.515625 64.515625 
Q 56.984375 54.828125 56.984375 36.375 
Q 56.984375 17.96875 50.515625 8.265625 
Q 44.046875 -1.421875 31.78125 -1.421875 
Q 19.53125 -1.421875 13.0625 8.265625 
Q 6.59375 17.96875 6.59375 36.375 
Q 6.59375 54.828125 13.0625 64.515625 
Q 19.53125 74.21875 31.78125 74.21875 
z
" id="DejaVuSans-48"/>
       </defs>
       <use xlink:href="#DejaVuSans-48"/>
      </g>
     </g>
    </g>
    <g id="xtick_2">
     <g id="line2d_2">
      <g>
       <use style="stroke:#000000;stroke-width:0.8;" x="226.083549" xlink:href="#m6ad7d70c64" y="450.72"/>
      </g>
     </g>
     <g id="text_2">
      <!-- 20000 -->
      <g transform="translate(210.177299 465.318437)scale(0.1 -0.1)">
       <defs>
        <path d="M 19.1875 8.296875 
L 53.609375 8.296875 
L 53.609375 0 
L 7.328125 0 
L 7.328125 8.296875 
Q 12.9375 14.109375 22.625 23.890625 
Q 32.328125 33.6875 34.8125 36.53125 
Q 39.546875 41.84375 41.421875 45.53125 
Q 43.3125 49.21875 43.3125 52.78125 
Q 43.3125 58.59375 39.234375 62.25 
Q 35.15625 65.921875 28.609375 65.921875 
Q 23.96875 65.921875 18.8125 64.3125 
Q 13.671875 62.703125 7.8125 59.421875 
L 7.8125 69.390625 
Q 13.765625 71.78125 18.9375 73 
Q 24.125 74.21875 28.421875 74.21875 
Q 39.75 74.21875 46.484375 68.546875 
Q 53.21875 62.890625 53.21875 53.421875 
Q 53.21875 48.921875 51.53125 44.890625 
Q 49.859375 40.875 45.40625 35.40625 
Q 44.1875 33.984375 37.640625 27.21875 
Q 31.109375 20.453125 19.1875 8.296875 
z
" id="DejaVuSans-50"/>
       </defs>
       <use xlink:href="#DejaVuSans-50"/>
       <use x="63.623047" xlink:href="#DejaVuSans-48"/>
       <use x="127.246094" xlink:href="#DejaVuSans-48"/>
       <use x="190.869141" xlink:href="#DejaVuSans-48"/>
       <use x="254.492188" xlink:href="#DejaVuSans-48"/>
      </g>
     </g>
    </g>
    <g id="xtick_3">
     <g id="line2d_3">
      <g>
       <use style="stroke:#000000;stroke-width:0.8;" x="299.329598" xlink:href="#m6ad7d70c64" y="450.72"/>
      </g>
     </g>
     <g id="text_3">
      <!-- 40000 -->
      <g transform="translate(283.423348 465.318437)scale(0.1 -0.1)">
       <defs>
        <path d="M 37.796875 64.3125 
L 12.890625 25.390625 
L 37.796875 25.390625 
z
M 35.203125 72.90625 
L 47.609375 72.90625 
L 47.609375 25.390625 
L 58.015625 25.390625 
L 58.015625 17.1875 
L 47.609375 17.1875 
L 47.609375 0 
L 37.796875 0 
L 37.796875 17.1875 
L 4.890625 17.1875 
L 4.890625 26.703125 
z
" id="DejaVuSans-52"/>
       </defs>
       <use xlink:href="#DejaVuSans-52"/>
       <use x="63.623047" xlink:href="#DejaVuSans-48"/>
       <use x="127.246094" xlink:href="#DejaVuSans-48"/>
       <use x="190.869141" xlink:href="#DejaVuSans-48"/>
       <use x="254.492188" xlink:href="#DejaVuSans-48"/>
      </g>
     </g>
    </g>
    <g id="xtick_4">
     <g id="line2d_4">
      <g>
       <use style="stroke:#000000;stroke-width:0.8;" x="372.575648" xlink:href="#m6ad7d70c64" y="450.72"/>
      </g>
     </g>
     <g id="text_4">
      <!-- 60000 -->
      <g transform="translate(356.669398 465.318437)scale(0.1 -0.1)">
       <defs>
        <path d="M 33.015625 40.375 
Q 26.375 40.375 22.484375 35.828125 
Q 18.609375 31.296875 18.609375 23.390625 
Q 18.609375 15.53125 22.484375 10.953125 
Q 26.375 6.390625 33.015625 6.390625 
Q 39.65625 6.390625 43.53125 10.953125 
Q 47.40625 15.53125 47.40625 23.390625 
Q 47.40625 31.296875 43.53125 35.828125 
Q 39.65625 40.375 33.015625 40.375 
z
M 52.59375 71.296875 
L 52.59375 62.3125 
Q 48.875 64.0625 45.09375 64.984375 
Q 41.3125 65.921875 37.59375 65.921875 
Q 27.828125 65.921875 22.671875 59.328125 
Q 17.53125 52.734375 16.796875 39.40625 
Q 19.671875 43.65625 24.015625 45.921875 
Q 28.375 48.1875 33.59375 48.1875 
Q 44.578125 48.1875 50.953125 41.515625 
Q 57.328125 34.859375 57.328125 23.390625 
Q 57.328125 12.15625 50.6875 5.359375 
Q 44.046875 -1.421875 33.015625 -1.421875 
Q 20.359375 -1.421875 13.671875 8.265625 
Q 6.984375 17.96875 6.984375 36.375 
Q 6.984375 53.65625 15.1875 63.9375 
Q 23.390625 74.21875 37.203125 74.21875 
Q 40.921875 74.21875 44.703125 73.484375 
Q 48.484375 72.75 52.59375 71.296875 
z
" id="DejaVuSans-54"/>
       </defs>
       <use xlink:href="#DejaVuSans-54"/>
       <use x="63.623047" xlink:href="#DejaVuSans-48"/>
       <use x="127.246094" xlink:href="#DejaVuSans-48"/>
       <use x="190.869141" xlink:href="#DejaVuSans-48"/>
       <use x="254.492188" xlink:href="#DejaVuSans-48"/>
      </g>
     </g>
    </g>
    <g id="xtick_5">
     <g id="line2d_5">
      <g>
       <use style="stroke:#000000;stroke-width:0.8;" x="445.821697" xlink:href="#m6ad7d70c64" y="450.72"/>
      </g>
     </g>
     <g id="text_5">
      <!-- 80000 -->
      <g transform="translate(429.915447 465.318437)scale(0.1 -0.1)">
       <defs>
        <path d="M 31.78125 34.625 
Q 24.75 34.625 20.71875 30.859375 
Q 16.703125 27.09375 16.703125 20.515625 
Q 16.703125 13.921875 20.71875 10.15625 
Q 24.75 6.390625 31.78125 6.390625 
Q 38.8125 6.390625 42.859375 10.171875 
Q 46.921875 13.96875 46.921875 20.515625 
Q 46.921875 27.09375 42.890625 30.859375 
Q 38.875 34.625 31.78125 34.625 
z
M 21.921875 38.8125 
Q 15.578125 40.375 12.03125 44.71875 
Q 8.5 49.078125 8.5 55.328125 
Q 8.5 64.0625 14.71875 69.140625 
Q 20.953125 74.21875 31.78125 74.21875 
Q 42.671875 74.21875 48.875 69.140625 
Q 55.078125 64.0625 55.078125 55.328125 
Q 55.078125 49.078125 51.53125 44.71875 
Q 48 40.375 41.703125 38.8125 
Q 48.828125 37.15625 52.796875 32.3125 
Q 56.78125 27.484375 56.78125 20.515625 
Q 56.78125 9.90625 50.3125 4.234375 
Q 43.84375 -1.421875 31.78125 -1.421875 
Q 19.734375 -1.421875 13.25 4.234375 
Q 6.78125 9.90625 6.78125 20.515625 
Q 6.78125 27.484375 10.78125 32.3125 
Q 14.796875 37.15625 21.921875 38.8125 
z
M 18.3125 54.390625 
Q 18.3125 48.734375 21.84375 45.5625 
Q 25.390625 42.390625 31.78125 42.390625 
Q 38.140625 42.390625 41.71875 45.5625 
Q 45.3125 48.734375 45.3125 54.390625 
Q 45.3125 60.0625 41.71875 63.234375 
Q 38.140625 66.40625 31.78125 66.40625 
Q 25.390625 66.40625 21.84375 63.234375 
Q 18.3125 60.0625 18.3125 54.390625 
z
" id="DejaVuSans-56"/>
       </defs>
       <use xlink:href="#DejaVuSans-56"/>
       <use x="63.623047" xlink:href="#DejaVuSans-48"/>
       <use x="127.246094" xlink:href="#DejaVuSans-48"/>
       <use x="190.869141" xlink:href="#DejaVuSans-48"/>
       <use x="254.492188" xlink:href="#DejaVuSans-48"/>
      </g>
     </g>
    </g>
    <g id="xtick_6">
     <g id="line2d_6">
      <g>
       <use style="stroke:#000000;stroke-width:0.8;" x="519.067746" xlink:href="#m6ad7d70c64" y="450.72"/>
      </g>
     </g>
     <g id="text_6">
      <!-- 100000 -->
      <g transform="translate(499.980246 465.318437)scale(0.1 -0.1)">
       <defs>
        <path d="M 12.40625 8.296875 
L 28.515625 8.296875 
L 28.515625 63.921875 
L 10.984375 60.40625 
L 10.984375 69.390625 
L 28.421875 72.90625 
L 38.28125 72.90625 
L 38.28125 8.296875 
L 54.390625 8.296875 
L 54.390625 0 
L 12.40625 0 
z
" id="DejaVuSans-49"/>
       </defs>
       <use xlink:href="#DejaVuSans-49"/>
       <use x="63.623047" xlink:href="#DejaVuSans-48"/>
       <use x="127.246094" xlink:href="#DejaVuSans-48"/>
       <use x="190.869141" xlink:href="#DejaVuSans-48"/>
       <use x="254.492188" xlink:href="#DejaVuSans-48"/>
       <use x="318.115234" xlink:href="#DejaVuSans-48"/>
      </g>
     </g>
    </g>
    <g id="xtick_7">
     <g id="line2d_7">
      <g>
       <use style="stroke:#000000;stroke-width:0.8;" x="592.313795" xlink:href="#m6ad7d70c64" y="450.72"/>
      </g>
     </g>
     <g id="text_7">
      <!-- 120000 -->
      <g transform="translate(573.226295 465.318437)scale(0.1 -0.1)">
       <use xlink:href="#DejaVuSans-49"/>
       <use x="63.623047" xlink:href="#DejaVuSans-50"/>
       <use x="127.246094" xlink:href="#DejaVuSans-48"/>
       <use x="190.869141" xlink:href="#DejaVuSans-48"/>
       <use x="254.492188" xlink:href="#DejaVuSans-48"/>
       <use x="318.115234" xlink:href="#DejaVuSans-48"/>
      </g>
     </g>
    </g>
    <g id="text_8">
     <!-- Total Number of Passengers -->
     <g transform="translate(334.36875 478.996562)scale(0.1 -0.1)">
      <defs>
       <path d="M -0.296875 72.90625 
L 61.375 72.90625 
L 61.375 64.59375 
L 35.5 64.59375 
L 35.5 0 
L 25.59375 0 
L 25.59375 64.59375 
L -0.296875 64.59375 
z
" id="DejaVuSans-84"/>
       <path d="M 30.609375 48.390625 
Q 23.390625 48.390625 19.1875 42.75 
Q 14.984375 37.109375 14.984375 27.296875 
Q 14.984375 17.484375 19.15625 11.84375 
Q 23.34375 6.203125 30.609375 6.203125 
Q 37.796875 6.203125 41.984375 11.859375 
Q 46.1875 17.53125 46.1875 27.296875 
Q 46.1875 37.015625 41.984375 42.703125 
Q 37.796875 48.390625 30.609375 48.390625 
z
M 30.609375 56 
Q 42.328125 56 49.015625 48.375 
Q 55.71875 40.765625 55.71875 27.296875 
Q 55.71875 13.875 49.015625 6.21875 
Q 42.328125 -1.421875 30.609375 -1.421875 
Q 18.84375 -1.421875 12.171875 6.21875 
Q 5.515625 13.875 5.515625 27.296875 
Q 5.515625 40.765625 12.171875 48.375 
Q 18.84375 56 30.609375 56 
z
" id="DejaVuSans-111"/>
       <path d="M 18.3125 70.21875 
L 18.3125 54.6875 
L 36.8125 54.6875 
L 36.8125 47.703125 
L 18.3125 47.703125 
L 18.3125 18.015625 
Q 18.3125 11.328125 20.140625 9.421875 
Q 21.96875 7.515625 27.59375 7.515625 
L 36.8125 7.515625 
L 36.8125 0 
L 27.59375 0 
Q 17.1875 0 13.234375 3.875 
Q 9.28125 7.765625 9.28125 18.015625 
L 9.28125 47.703125 
L 2.6875 47.703125 
L 2.6875 54.6875 
L 9.28125 54.6875 
L 9.28125 70.21875 
z
" id="DejaVuSans-116"/>
       <path d="M 34.28125 27.484375 
Q 23.390625 27.484375 19.1875 25 
Q 14.984375 22.515625 14.984375 16.5 
Q 14.984375 11.71875 18.140625 8.90625 
Q 21.296875 6.109375 26.703125 6.109375 
Q 34.1875 6.109375 38.703125 11.40625 
Q 43.21875 16.703125 43.21875 25.484375 
L 43.21875 27.484375 
z
M 52.203125 31.203125 
L 52.203125 0 
L 43.21875 0 
L 43.21875 8.296875 
Q 40.140625 3.328125 35.546875 0.953125 
Q 30.953125 -1.421875 24.3125 -1.421875 
Q 15.921875 -1.421875 10.953125 3.296875 
Q 6 8.015625 6 15.921875 
Q 6 25.140625 12.171875 29.828125 
Q 18.359375 34.515625 30.609375 34.515625 
L 43.21875 34.515625 
L 43.21875 35.40625 
Q 43.21875 41.609375 39.140625 45 
Q 35.0625 48.390625 27.6875 48.390625 
Q 23 48.390625 18.546875 47.265625 
Q 14.109375 46.140625 10.015625 43.890625 
L 10.015625 52.203125 
Q 14.9375 54.109375 19.578125 55.046875 
Q 24.21875 56 28.609375 56 
Q 40.484375 56 46.34375 49.84375 
Q 52.203125 43.703125 52.203125 31.203125 
z
" id="DejaVuSans-97"/>
       <path d="M 9.421875 75.984375 
L 18.40625 75.984375 
L 18.40625 0 
L 9.421875 0 
z
" id="DejaVuSans-108"/>
       <path id="DejaVuSans-32"/>
       <path d="M 9.8125 72.90625 
L 23.09375 72.90625 
L 55.421875 11.921875 
L 55.421875 72.90625 
L 64.984375 72.90625 
L 64.984375 0 
L 51.703125 0 
L 19.390625 60.984375 
L 19.390625 0 
L 9.8125 0 
z
" id="DejaVuSans-78"/>
       <path d="M 8.5 21.578125 
L 8.5 54.6875 
L 17.484375 54.6875 
L 17.484375 21.921875 
Q 17.484375 14.15625 20.5 10.265625 
Q 23.53125 6.390625 29.59375 6.390625 
Q 36.859375 6.390625 41.078125 11.03125 
Q 45.3125 15.671875 45.3125 23.6875 
L 45.3125 54.6875 
L 54.296875 54.6875 
L 54.296875 0 
L 45.3125 0 
L 45.3125 8.40625 
Q 42.046875 3.421875 37.71875 1 
Q 33.40625 -1.421875 27.6875 -1.421875 
Q 18.265625 -1.421875 13.375 4.4375 
Q 8.5 10.296875 8.5 21.578125 
z
M 31.109375 56 
z
" id="DejaVuSans-117"/>
       <path d="M 52 44.1875 
Q 55.375 50.25 60.0625 53.125 
Q 64.75 56 71.09375 56 
Q 79.640625 56 84.28125 50.015625 
Q 88.921875 44.046875 88.921875 33.015625 
L 88.921875 0 
L 79.890625 0 
L 79.890625 32.71875 
Q 79.890625 40.578125 77.09375 44.375 
Q 74.3125 48.1875 68.609375 48.1875 
Q 61.625 48.1875 57.5625 43.546875 
Q 53.515625 38.921875 53.515625 30.90625 
L 53.515625 0 
L 44.484375 0 
L 44.484375 32.71875 
Q 44.484375 40.625 41.703125 44.40625 
Q 38.921875 48.1875 33.109375 48.1875 
Q 26.21875 48.1875 22.15625 43.53125 
Q 18.109375 38.875 18.109375 30.90625 
L 18.109375 0 
L 9.078125 0 
L 9.078125 54.6875 
L 18.109375 54.6875 
L 18.109375 46.1875 
Q 21.1875 51.21875 25.484375 53.609375 
Q 29.78125 56 35.6875 56 
Q 41.65625 56 45.828125 52.96875 
Q 50 49.953125 52 44.1875 
z
" id="DejaVuSans-109"/>
       <path d="M 48.6875 27.296875 
Q 48.6875 37.203125 44.609375 42.84375 
Q 40.53125 48.484375 33.40625 48.484375 
Q 26.265625 48.484375 22.1875 42.84375 
Q 18.109375 37.203125 18.109375 27.296875 
Q 18.109375 17.390625 22.1875 11.75 
Q 26.265625 6.109375 33.40625 6.109375 
Q 40.53125 6.109375 44.609375 11.75 
Q 48.6875 17.390625 48.6875 27.296875 
z
M 18.109375 46.390625 
Q 20.953125 51.265625 25.265625 53.625 
Q 29.59375 56 35.59375 56 
Q 45.5625 56 51.78125 48.09375 
Q 58.015625 40.1875 58.015625 27.296875 
Q 58.015625 14.40625 51.78125 6.484375 
Q 45.5625 -1.421875 35.59375 -1.421875 
Q 29.59375 -1.421875 25.265625 0.953125 
Q 20.953125 3.328125 18.109375 8.203125 
L 18.109375 0 
L 9.078125 0 
L 9.078125 75.984375 
L 18.109375 75.984375 
z
" id="DejaVuSans-98"/>
       <path d="M 56.203125 29.59375 
L 56.203125 25.203125 
L 14.890625 25.203125 
Q 15.484375 15.921875 20.484375 11.0625 
Q 25.484375 6.203125 34.421875 6.203125 
Q 39.59375 6.203125 44.453125 7.46875 
Q 49.3125 8.734375 54.109375 11.28125 
L 54.109375 2.78125 
Q 49.265625 0.734375 44.1875 -0.34375 
Q 39.109375 -1.421875 33.890625 -1.421875 
Q 20.796875 -1.421875 13.15625 6.1875 
Q 5.515625 13.8125 5.515625 26.8125 
Q 5.515625 40.234375 12.765625 48.109375 
Q 20.015625 56 32.328125 56 
Q 43.359375 56 49.78125 48.890625 
Q 56.203125 41.796875 56.203125 29.59375 
z
M 47.21875 32.234375 
Q 47.125 39.59375 43.09375 43.984375 
Q 39.0625 48.390625 32.421875 48.390625 
Q 24.90625 48.390625 20.390625 44.140625 
Q 15.875 39.890625 15.1875 32.171875 
z
" id="DejaVuSans-101"/>
       <path d="M 41.109375 46.296875 
Q 39.59375 47.171875 37.8125 47.578125 
Q 36.03125 48 33.890625 48 
Q 26.265625 48 22.1875 43.046875 
Q 18.109375 38.09375 18.109375 28.8125 
L 18.109375 0 
L 9.078125 0 
L 9.078125 54.6875 
L 18.109375 54.6875 
L 18.109375 46.1875 
Q 20.953125 51.171875 25.484375 53.578125 
Q 30.03125 56 36.53125 56 
Q 37.453125 56 38.578125 55.875 
Q 39.703125 55.765625 41.0625 55.515625 
z
" id="DejaVuSans-114"/>
       <path d="M 37.109375 75.984375 
L 37.109375 68.5 
L 28.515625 68.5 
Q 23.6875 68.5 21.796875 66.546875 
Q 19.921875 64.59375 19.921875 59.515625 
L 19.921875 54.6875 
L 34.71875 54.6875 
L 34.71875 47.703125 
L 19.921875 47.703125 
L 19.921875 0 
L 10.890625 0 
L 10.890625 47.703125 
L 2.296875 47.703125 
L 2.296875 54.6875 
L 10.890625 54.6875 
L 10.890625 58.5 
Q 10.890625 67.625 15.140625 71.796875 
Q 19.390625 75.984375 28.609375 75.984375 
z
" id="DejaVuSans-102"/>
       <path d="M 19.671875 64.796875 
L 19.671875 37.40625 
L 32.078125 37.40625 
Q 38.96875 37.40625 42.71875 40.96875 
Q 46.484375 44.53125 46.484375 51.125 
Q 46.484375 57.671875 42.71875 61.234375 
Q 38.96875 64.796875 32.078125 64.796875 
z
M 9.8125 72.90625 
L 32.078125 72.90625 
Q 44.34375 72.90625 50.609375 67.359375 
Q 56.890625 61.8125 56.890625 51.125 
Q 56.890625 40.328125 50.609375 34.8125 
Q 44.34375 29.296875 32.078125 29.296875 
L 19.671875 29.296875 
L 19.671875 0 
L 9.8125 0 
z
" id="DejaVuSans-80"/>
       <path d="M 44.28125 53.078125 
L 44.28125 44.578125 
Q 40.484375 46.53125 36.375 47.5 
Q 32.28125 48.484375 27.875 48.484375 
Q 21.1875 48.484375 17.84375 46.4375 
Q 14.5 44.390625 14.5 40.28125 
Q 14.5 37.15625 16.890625 35.375 
Q 19.28125 33.59375 26.515625 31.984375 
L 29.59375 31.296875 
Q 39.15625 29.25 43.1875 25.515625 
Q 47.21875 21.78125 47.21875 15.09375 
Q 47.21875 7.46875 41.1875 3.015625 
Q 35.15625 -1.421875 24.609375 -1.421875 
Q 20.21875 -1.421875 15.453125 -0.5625 
Q 10.6875 0.296875 5.421875 2 
L 5.421875 11.28125 
Q 10.40625 8.6875 15.234375 7.390625 
Q 20.0625 6.109375 24.8125 6.109375 
Q 31.15625 6.109375 34.5625 8.28125 
Q 37.984375 10.453125 37.984375 14.40625 
Q 37.984375 18.0625 35.515625 20.015625 
Q 33.0625 21.96875 24.703125 23.78125 
L 21.578125 24.515625 
Q 13.234375 26.265625 9.515625 29.90625 
Q 5.8125 33.546875 5.8125 39.890625 
Q 5.8125 47.609375 11.28125 51.796875 
Q 16.75 56 26.8125 56 
Q 31.78125 56 36.171875 55.265625 
Q 40.578125 54.546875 44.28125 53.078125 
z
" id="DejaVuSans-115"/>
       <path d="M 54.890625 33.015625 
L 54.890625 0 
L 45.90625 0 
L 45.90625 32.71875 
Q 45.90625 40.484375 42.875 44.328125 
Q 39.84375 48.1875 33.796875 48.1875 
Q 26.515625 48.1875 22.3125 43.546875 
Q 18.109375 38.921875 18.109375 30.90625 
L 18.109375 0 
L 9.078125 0 
L 9.078125 54.6875 
L 18.109375 54.6875 
L 18.109375 46.1875 
Q 21.34375 51.125 25.703125 53.5625 
Q 30.078125 56 35.796875 56 
Q 45.21875 56 50.046875 50.171875 
Q 54.890625 44.34375 54.890625 33.015625 
z
" id="DejaVuSans-110"/>
       <path d="M 45.40625 27.984375 
Q 45.40625 37.75 41.375 43.109375 
Q 37.359375 48.484375 30.078125 48.484375 
Q 22.859375 48.484375 18.828125 43.109375 
Q 14.796875 37.75 14.796875 27.984375 
Q 14.796875 18.265625 18.828125 12.890625 
Q 22.859375 7.515625 30.078125 7.515625 
Q 37.359375 7.515625 41.375 12.890625 
Q 45.40625 18.265625 45.40625 27.984375 
z
M 54.390625 6.78125 
Q 54.390625 -7.171875 48.1875 -13.984375 
Q 42 -20.796875 29.203125 -20.796875 
Q 24.46875 -20.796875 20.265625 -20.09375 
Q 16.0625 -19.390625 12.109375 -17.921875 
L 12.109375 -9.1875 
Q 16.0625 -11.328125 19.921875 -12.34375 
Q 23.78125 -13.375 27.78125 -13.375 
Q 36.625 -13.375 41.015625 -8.765625 
Q 45.40625 -4.15625 45.40625 5.171875 
L 45.40625 9.625 
Q 42.625 4.78125 38.28125 2.390625 
Q 33.9375 0 27.875 0 
Q 17.828125 0 11.671875 7.65625 
Q 5.515625 15.328125 5.515625 27.984375 
Q 5.515625 40.671875 11.671875 48.328125 
Q 17.828125 56 27.875 56 
Q 33.9375 56 38.28125 53.609375 
Q 42.625 51.21875 45.40625 46.390625 
L 45.40625 54.6875 
L 54.390625 54.6875 
z
" id="DejaVuSans-103"/>
      </defs>
      <use xlink:href="#DejaVuSans-84"/>
      <use x="44.083984" xlink:href="#DejaVuSans-111"/>
      <use x="105.265625" xlink:href="#DejaVuSans-116"/>
      <use x="144.474609" xlink:href="#DejaVuSans-97"/>
      <use x="205.753906" xlink:href="#DejaVuSans-108"/>
      <use x="233.537109" xlink:href="#DejaVuSans-32"/>
      <use x="265.324219" xlink:href="#DejaVuSans-78"/>
      <use x="340.128906" xlink:href="#DejaVuSans-117"/>
      <use x="403.507812" xlink:href="#DejaVuSans-109"/>
      <use x="500.919922" xlink:href="#DejaVuSans-98"/>
      <use x="564.396484" xlink:href="#DejaVuSans-101"/>
      <use x="625.919922" xlink:href="#DejaVuSans-114"/>
      <use x="667.033203" xlink:href="#DejaVuSans-32"/>
      <use x="698.820312" xlink:href="#DejaVuSans-111"/>
      <use x="760.001953" xlink:href="#DejaVuSans-102"/>
      <use x="795.207031" xlink:href="#DejaVuSans-32"/>
      <use x="826.994141" xlink:href="#DejaVuSans-80"/>
      <use x="882.796875" xlink:href="#DejaVuSans-97"/>
      <use x="944.076172" xlink:href="#DejaVuSans-115"/>
      <use x="996.175781" xlink:href="#DejaVuSans-115"/>
      <use x="1048.275391" xlink:href="#DejaVuSans-101"/>
      <use x="1109.798828" xlink:href="#DejaVuSans-110"/>
      <use x="1173.177734" xlink:href="#DejaVuSans-103"/>
      <use x="1236.654297" xlink:href="#DejaVuSans-101"/>
      <use x="1298.177734" xlink:href="#DejaVuSans-114"/>
      <use x="1339.291016" xlink:href="#DejaVuSans-115"/>
     </g>
    </g>
   </g>
   <g id="matplotlib.axis_2">
    <g id="ytick_1">
     <g id="line2d_8">
      <defs>
       <path d="M 0 0 
L -3.5 0 
" id="m72dcee1825" style="stroke:#000000;stroke-width:0.8;"/>
      </defs>
      <g>
       <use style="stroke:#000000;stroke-width:0.8;" x="152.8375" xlink:href="#m72dcee1825" y="13.035789"/>
      </g>
     </g>
     <g id="text_9">
      <!-- Spain -->
      <g transform="translate(117.896875 16.835008)scale(0.1 -0.1)">
       <defs>
        <path d="M 53.515625 70.515625 
L 53.515625 60.890625 
Q 47.90625 63.578125 42.921875 64.890625 
Q 37.9375 66.21875 33.296875 66.21875 
Q 25.25 66.21875 20.875 63.09375 
Q 16.5 59.96875 16.5 54.203125 
Q 16.5 49.359375 19.40625 46.890625 
Q 22.3125 44.4375 30.421875 42.921875 
L 36.375 41.703125 
Q 47.40625 39.59375 52.65625 34.296875 
Q 57.90625 29 57.90625 20.125 
Q 57.90625 9.515625 50.796875 4.046875 
Q 43.703125 -1.421875 29.984375 -1.421875 
Q 24.8125 -1.421875 18.96875 -0.25 
Q 13.140625 0.921875 6.890625 3.21875 
L 6.890625 13.375 
Q 12.890625 10.015625 18.65625 8.296875 
Q 24.421875 6.59375 29.984375 6.59375 
Q 38.421875 6.59375 43.015625 9.90625 
Q 47.609375 13.234375 47.609375 19.390625 
Q 47.609375 24.75 44.3125 27.78125 
Q 41.015625 30.8125 33.5 32.328125 
L 27.484375 33.5 
Q 16.453125 35.6875 11.515625 40.375 
Q 6.59375 45.0625 6.59375 53.421875 
Q 6.59375 63.09375 13.40625 68.65625 
Q 20.21875 74.21875 32.171875 74.21875 
Q 37.3125 74.21875 42.625 73.28125 
Q 47.953125 72.359375 53.515625 70.515625 
z
" id="DejaVuSans-83"/>
        <path d="M 18.109375 8.203125 
L 18.109375 -20.796875 
L 9.078125 -20.796875 
L 9.078125 54.6875 
L 18.109375 54.6875 
L 18.109375 46.390625 
Q 20.953125 51.265625 25.265625 53.625 
Q 29.59375 56 35.59375 56 
Q 45.5625 56 51.78125 48.09375 
Q 58.015625 40.1875 58.015625 27.296875 
Q 58.015625 14.40625 51.78125 6.484375 
Q 45.5625 -1.421875 35.59375 -1.421875 
Q 29.59375 -1.421875 25.265625 0.953125 
Q 20.953125 3.328125 18.109375 8.203125 
z
M 48.6875 27.296875 
Q 48.6875 37.203125 44.609375 42.84375 
Q 40.53125 48.484375 33.40625 48.484375 
Q 26.265625 48.484375 22.1875 42.84375 
Q 18.109375 37.203125 18.109375 27.296875 
Q 18.109375 17.390625 22.1875 11.75 
Q 26.265625 6.109375 33.40625 6.109375 
Q 40.53125 6.109375 44.609375 11.75 
Q 48.6875 17.390625 48.6875 27.296875 
z
" id="DejaVuSans-112"/>
        <path d="M 9.421875 54.6875 
L 18.40625 54.6875 
L 18.40625 0 
L 9.421875 0 
z
M 9.421875 75.984375 
L 18.40625 75.984375 
L 18.40625 64.59375 
L 9.421875 64.59375 
z
" id="DejaVuSans-105"/>
       </defs>
       <use xlink:href="#DejaVuSans-83"/>
       <use x="63.476562" xlink:href="#DejaVuSans-112"/>
       <use x="126.953125" xlink:href="#DejaVuSans-97"/>
       <use x="188.232422" xlink:href="#DejaVuSans-105"/>
       <use x="216.015625" xlink:href="#DejaVuSans-110"/>
      </g>
     </g>
    </g>
    <g id="ytick_2">
     <g id="line2d_9">
      <g>
       <use style="stroke:#000000;stroke-width:0.8;" x="152.8375" xlink:href="#m72dcee1825" y="24.707368"/>
      </g>
     </g>
     <g id="text_10">
      <!-- Italy -->
      <g transform="translate(124.142188 28.506587)scale(0.1 -0.1)">
       <defs>
        <path d="M 9.8125 72.90625 
L 19.671875 72.90625 
L 19.671875 0 
L 9.8125 0 
z
" id="DejaVuSans-73"/>
        <path d="M 32.171875 -5.078125 
Q 28.375 -14.84375 24.75 -17.8125 
Q 21.140625 -20.796875 15.09375 -20.796875 
L 7.90625 -20.796875 
L 7.90625 -13.28125 
L 13.1875 -13.28125 
Q 16.890625 -13.28125 18.9375 -11.515625 
Q 21 -9.765625 23.484375 -3.21875 
L 25.09375 0.875 
L 2.984375 54.6875 
L 12.5 54.6875 
L 29.59375 11.921875 
L 46.6875 54.6875 
L 56.203125 54.6875 
z
" id="DejaVuSans-121"/>
       </defs>
       <use xlink:href="#DejaVuSans-73"/>
       <use x="29.492188" xlink:href="#DejaVuSans-116"/>
       <use x="68.701172" xlink:href="#DejaVuSans-97"/>
       <use x="129.980469" xlink:href="#DejaVuSans-108"/>
       <use x="157.763672" xlink:href="#DejaVuSans-121"/>
      </g>
     </g>
    </g>
    <g id="ytick_3">
     <g id="line2d_10">
      <g>
       <use style="stroke:#000000;stroke-width:0.8;" x="152.8375" xlink:href="#m72dcee1825" y="36.378947"/>
      </g>
     </g>
     <g id="text_11">
      <!-- Greece -->
      <g transform="translate(110.245313 40.178166)scale(0.1 -0.1)">
       <defs>
        <path d="M 59.515625 10.40625 
L 59.515625 29.984375 
L 43.40625 29.984375 
L 43.40625 38.09375 
L 69.28125 38.09375 
L 69.28125 6.78125 
Q 63.578125 2.734375 56.6875 0.65625 
Q 49.8125 -1.421875 42 -1.421875 
Q 24.90625 -1.421875 15.25 8.5625 
Q 5.609375 18.5625 5.609375 36.375 
Q 5.609375 54.25 15.25 64.234375 
Q 24.90625 74.21875 42 74.21875 
Q 49.125 74.21875 55.546875 72.453125 
Q 61.96875 70.703125 67.390625 67.28125 
L 67.390625 56.78125 
Q 61.921875 61.421875 55.765625 63.765625 
Q 49.609375 66.109375 42.828125 66.109375 
Q 29.4375 66.109375 22.71875 58.640625 
Q 16.015625 51.171875 16.015625 36.375 
Q 16.015625 21.625 22.71875 14.15625 
Q 29.4375 6.6875 42.828125 6.6875 
Q 48.046875 6.6875 52.140625 7.59375 
Q 56.25 8.5 59.515625 10.40625 
z
" id="DejaVuSans-71"/>
        <path d="M 48.78125 52.59375 
L 48.78125 44.1875 
Q 44.96875 46.296875 41.140625 47.34375 
Q 37.3125 48.390625 33.40625 48.390625 
Q 24.65625 48.390625 19.8125 42.84375 
Q 14.984375 37.3125 14.984375 27.296875 
Q 14.984375 17.28125 19.8125 11.734375 
Q 24.65625 6.203125 33.40625 6.203125 
Q 37.3125 6.203125 41.140625 7.25 
Q 44.96875 8.296875 48.78125 10.40625 
L 48.78125 2.09375 
Q 45.015625 0.34375 40.984375 -0.53125 
Q 36.96875 -1.421875 32.421875 -1.421875 
Q 20.0625 -1.421875 12.78125 6.34375 
Q 5.515625 14.109375 5.515625 27.296875 
Q 5.515625 40.671875 12.859375 48.328125 
Q 20.21875 56 33.015625 56 
Q 37.15625 56 41.109375 55.140625 
Q 45.0625 54.296875 48.78125 52.59375 
z
" id="DejaVuSans-99"/>
       </defs>
       <use xlink:href="#DejaVuSans-71"/>
       <use x="77.490234" xlink:href="#DejaVuSans-114"/>
       <use x="116.353516" xlink:href="#DejaVuSans-101"/>
       <use x="177.876953" xlink:href="#DejaVuSans-101"/>
       <use x="239.400391" xlink:href="#DejaVuSans-99"/>
       <use x="294.380859" xlink:href="#DejaVuSans-101"/>
      </g>
     </g>
    </g>
    <g id="ytick_4">
     <g id="line2d_11">
      <g>
       <use style="stroke:#000000;stroke-width:0.8;" x="152.8375" xlink:href="#m72dcee1825" y="48.050526"/>
      </g>
     </g>
     <g id="text_12">
      <!-- Poland -->
      <g transform="translate(112.459375 51.849745)scale(0.1 -0.1)">
       <defs>
        <path d="M 45.40625 46.390625 
L 45.40625 75.984375 
L 54.390625 75.984375 
L 54.390625 0 
L 45.40625 0 
L 45.40625 8.203125 
Q 42.578125 3.328125 38.25 0.953125 
Q 33.9375 -1.421875 27.875 -1.421875 
Q 17.96875 -1.421875 11.734375 6.484375 
Q 5.515625 14.40625 5.515625 27.296875 
Q 5.515625 40.1875 11.734375 48.09375 
Q 17.96875 56 27.875 56 
Q 33.9375 56 38.25 53.625 
Q 42.578125 51.265625 45.40625 46.390625 
z
M 14.796875 27.296875 
Q 14.796875 17.390625 18.875 11.75 
Q 22.953125 6.109375 30.078125 6.109375 
Q 37.203125 6.109375 41.296875 11.75 
Q 45.40625 17.390625 45.40625 27.296875 
Q 45.40625 37.203125 41.296875 42.84375 
Q 37.203125 48.484375 30.078125 48.484375 
Q 22.953125 48.484375 18.875 42.84375 
Q 14.796875 37.203125 14.796875 27.296875 
z
" id="DejaVuSans-100"/>
       </defs>
       <use xlink:href="#DejaVuSans-80"/>
       <use x="56.677734" xlink:href="#DejaVuSans-111"/>
       <use x="117.859375" xlink:href="#DejaVuSans-108"/>
       <use x="145.642578" xlink:href="#DejaVuSans-97"/>
       <use x="206.921875" xlink:href="#DejaVuSans-110"/>
       <use x="270.300781" xlink:href="#DejaVuSans-100"/>
      </g>
     </g>
    </g>
    <g id="ytick_5">
     <g id="line2d_12">
      <g>
       <use style="stroke:#000000;stroke-width:0.8;" x="152.8375" xlink:href="#m72dcee1825" y="59.722105"/>
      </g>
     </g>
     <g id="text_13">
      <!-- Germany -->
      <g transform="translate(99.875 63.521324)scale(0.1 -0.1)">
       <use xlink:href="#DejaVuSans-71"/>
       <use x="77.490234" xlink:href="#DejaVuSans-101"/>
       <use x="139.013672" xlink:href="#DejaVuSans-114"/>
       <use x="178.376953" xlink:href="#DejaVuSans-109"/>
       <use x="275.789062" xlink:href="#DejaVuSans-97"/>
       <use x="337.068359" xlink:href="#DejaVuSans-110"/>
       <use x="400.447266" xlink:href="#DejaVuSans-121"/>
      </g>
     </g>
    </g>
    <g id="ytick_6">
     <g id="line2d_13">
      <g>
       <use style="stroke:#000000;stroke-width:0.8;" x="152.8375" xlink:href="#m72dcee1825" y="71.393684"/>
      </g>
     </g>
     <g id="text_14">
      <!-- Portugal -->
      <g transform="translate(104.428125 75.192903)scale(0.1 -0.1)">
       <use xlink:href="#DejaVuSans-80"/>
       <use x="56.677734" xlink:href="#DejaVuSans-111"/>
       <use x="117.859375" xlink:href="#DejaVuSans-114"/>
       <use x="158.972656" xlink:href="#DejaVuSans-116"/>
       <use x="198.181641" xlink:href="#DejaVuSans-117"/>
       <use x="261.560547" xlink:href="#DejaVuSans-103"/>
       <use x="325.037109" xlink:href="#DejaVuSans-97"/>
       <use x="386.316406" xlink:href="#DejaVuSans-108"/>
      </g>
     </g>
    </g>
    <g id="ytick_7">
     <g id="line2d_14">
      <g>
       <use style="stroke:#000000;stroke-width:0.8;" x="152.8375" xlink:href="#m72dcee1825" y="83.065263"/>
      </g>
     </g>
     <g id="text_15">
      <!-- Turkey -->
      <g transform="translate(113.29375 86.864482)scale(0.1 -0.1)">
       <defs>
        <path d="M 9.078125 75.984375 
L 18.109375 75.984375 
L 18.109375 31.109375 
L 44.921875 54.6875 
L 56.390625 54.6875 
L 27.390625 29.109375 
L 57.625 0 
L 45.90625 0 
L 18.109375 26.703125 
L 18.109375 0 
L 9.078125 0 
z
" id="DejaVuSans-107"/>
       </defs>
       <use xlink:href="#DejaVuSans-84"/>
       <use x="45.958984" xlink:href="#DejaVuSans-117"/>
       <use x="109.337891" xlink:href="#DejaVuSans-114"/>
       <use x="150.451172" xlink:href="#DejaVuSans-107"/>
       <use x="204.736328" xlink:href="#DejaVuSans-101"/>
       <use x="266.259766" xlink:href="#DejaVuSans-121"/>
      </g>
     </g>
    </g>
    <g id="ytick_8">
     <g id="line2d_15">
      <g>
       <use style="stroke:#000000;stroke-width:0.8;" x="152.8375" xlink:href="#m72dcee1825" y="94.736842"/>
      </g>
     </g>
     <g id="text_16">
      <!-- Romania -->
      <g transform="translate(102.107813 98.536061)scale(0.1 -0.1)">
       <defs>
        <path d="M 44.390625 34.1875 
Q 47.5625 33.109375 50.5625 29.59375 
Q 53.5625 26.078125 56.59375 19.921875 
L 66.609375 0 
L 56 0 
L 46.6875 18.703125 
Q 43.0625 26.03125 39.671875 28.421875 
Q 36.28125 30.8125 30.421875 30.8125 
L 19.671875 30.8125 
L 19.671875 0 
L 9.8125 0 
L 9.8125 72.90625 
L 32.078125 72.90625 
Q 44.578125 72.90625 50.734375 67.671875 
Q 56.890625 62.453125 56.890625 51.90625 
Q 56.890625 45.015625 53.6875 40.46875 
Q 50.484375 35.9375 44.390625 34.1875 
z
M 19.671875 64.796875 
L 19.671875 38.921875 
L 32.078125 38.921875 
Q 39.203125 38.921875 42.84375 42.21875 
Q 46.484375 45.515625 46.484375 51.90625 
Q 46.484375 58.296875 42.84375 61.546875 
Q 39.203125 64.796875 32.078125 64.796875 
z
" id="DejaVuSans-82"/>
       </defs>
       <use xlink:href="#DejaVuSans-82"/>
       <use x="64.982422" xlink:href="#DejaVuSans-111"/>
       <use x="126.164062" xlink:href="#DejaVuSans-109"/>
       <use x="223.576172" xlink:href="#DejaVuSans-97"/>
       <use x="284.855469" xlink:href="#DejaVuSans-110"/>
       <use x="348.234375" xlink:href="#DejaVuSans-105"/>
       <use x="376.017578" xlink:href="#DejaVuSans-97"/>
      </g>
     </g>
    </g>
    <g id="ytick_9">
     <g id="line2d_16">
      <g>
       <use style="stroke:#000000;stroke-width:0.8;" x="152.8375" xlink:href="#m72dcee1825" y="106.408421"/>
      </g>
     </g>
     <g id="text_17">
      <!-- Cyprus -->
      <g transform="translate(110.929688 110.20764)scale(0.1 -0.1)">
       <defs>
        <path d="M 64.40625 67.28125 
L 64.40625 56.890625 
Q 59.421875 61.53125 53.78125 63.8125 
Q 48.140625 66.109375 41.796875 66.109375 
Q 29.296875 66.109375 22.65625 58.46875 
Q 16.015625 50.828125 16.015625 36.375 
Q 16.015625 21.96875 22.65625 14.328125 
Q 29.296875 6.6875 41.796875 6.6875 
Q 48.140625 6.6875 53.78125 8.984375 
Q 59.421875 11.28125 64.40625 15.921875 
L 64.40625 5.609375 
Q 59.234375 2.09375 53.4375 0.328125 
Q 47.65625 -1.421875 41.21875 -1.421875 
Q 24.65625 -1.421875 15.125 8.703125 
Q 5.609375 18.84375 5.609375 36.375 
Q 5.609375 53.953125 15.125 64.078125 
Q 24.65625 74.21875 41.21875 74.21875 
Q 47.75 74.21875 53.53125 72.484375 
Q 59.328125 70.75 64.40625 67.28125 
z
" id="DejaVuSans-67"/>
       </defs>
       <use xlink:href="#DejaVuSans-67"/>
       <use x="69.824219" xlink:href="#DejaVuSans-121"/>
       <use x="129.003906" xlink:href="#DejaVuSans-112"/>
       <use x="192.480469" xlink:href="#DejaVuSans-114"/>
       <use x="233.59375" xlink:href="#DejaVuSans-117"/>
       <use x="296.972656" xlink:href="#DejaVuSans-115"/>
      </g>
     </g>
    </g>
    <g id="ytick_10">
     <g id="line2d_17">
      <g>
       <use style="stroke:#000000;stroke-width:0.8;" x="152.8375" xlink:href="#m72dcee1825" y="118.08"/>
      </g>
     </g>
     <g id="text_18">
      <!-- Ireland -->
      <g transform="translate(111.25625 121.879219)scale(0.1 -0.1)">
       <use xlink:href="#DejaVuSans-73"/>
       <use x="29.492188" xlink:href="#DejaVuSans-114"/>
       <use x="68.355469" xlink:href="#DejaVuSans-101"/>
       <use x="129.878906" xlink:href="#DejaVuSans-108"/>
       <use x="157.662109" xlink:href="#DejaVuSans-97"/>
       <use x="218.941406" xlink:href="#DejaVuSans-110"/>
       <use x="282.320312" xlink:href="#DejaVuSans-100"/>
      </g>
     </g>
    </g>
    <g id="ytick_11">
     <g id="line2d_18">
      <g>
       <use style="stroke:#000000;stroke-width:0.8;" x="152.8375" xlink:href="#m72dcee1825" y="129.751579"/>
      </g>
     </g>
     <g id="text_19">
      <!-- Bulgaria -->
      <g transform="translate(104.367188 133.550798)scale(0.1 -0.1)">
       <defs>
        <path d="M 19.671875 34.8125 
L 19.671875 8.109375 
L 35.5 8.109375 
Q 43.453125 8.109375 47.28125 11.40625 
Q 51.125 14.703125 51.125 21.484375 
Q 51.125 28.328125 47.28125 31.5625 
Q 43.453125 34.8125 35.5 34.8125 
z
M 19.671875 64.796875 
L 19.671875 42.828125 
L 34.28125 42.828125 
Q 41.5 42.828125 45.03125 45.53125 
Q 48.578125 48.25 48.578125 53.8125 
Q 48.578125 59.328125 45.03125 62.0625 
Q 41.5 64.796875 34.28125 64.796875 
z
M 9.8125 72.90625 
L 35.015625 72.90625 
Q 46.296875 72.90625 52.390625 68.21875 
Q 58.5 63.53125 58.5 54.890625 
Q 58.5 48.1875 55.375 44.234375 
Q 52.25 40.28125 46.1875 39.3125 
Q 53.46875 37.75 57.5 32.78125 
Q 61.53125 27.828125 61.53125 20.40625 
Q 61.53125 10.640625 54.890625 5.3125 
Q 48.25 0 35.984375 0 
L 9.8125 0 
z
" id="DejaVuSans-66"/>
       </defs>
       <use xlink:href="#DejaVuSans-66"/>
       <use x="68.603516" xlink:href="#DejaVuSans-117"/>
       <use x="131.982422" xlink:href="#DejaVuSans-108"/>
       <use x="159.765625" xlink:href="#DejaVuSans-103"/>
       <use x="223.242188" xlink:href="#DejaVuSans-97"/>
       <use x="284.521484" xlink:href="#DejaVuSans-114"/>
       <use x="325.634766" xlink:href="#DejaVuSans-105"/>
       <use x="353.417969" xlink:href="#DejaVuSans-97"/>
      </g>
     </g>
    </g>
    <g id="ytick_12">
     <g id="line2d_19">
      <g>
       <use style="stroke:#000000;stroke-width:0.8;" x="152.8375" xlink:href="#m72dcee1825" y="141.423158"/>
      </g>
     </g>
     <g id="text_20">
      <!-- France -->
      <g transform="translate(112.582813 145.222377)scale(0.1 -0.1)">
       <defs>
        <path d="M 9.8125 72.90625 
L 51.703125 72.90625 
L 51.703125 64.59375 
L 19.671875 64.59375 
L 19.671875 43.109375 
L 48.578125 43.109375 
L 48.578125 34.8125 
L 19.671875 34.8125 
L 19.671875 0 
L 9.8125 0 
z
" id="DejaVuSans-70"/>
       </defs>
       <use xlink:href="#DejaVuSans-70"/>
       <use x="50.269531" xlink:href="#DejaVuSans-114"/>
       <use x="91.382812" xlink:href="#DejaVuSans-97"/>
       <use x="152.662109" xlink:href="#DejaVuSans-110"/>
       <use x="216.041016" xlink:href="#DejaVuSans-99"/>
       <use x="271.021484" xlink:href="#DejaVuSans-101"/>
      </g>
     </g>
    </g>
    <g id="ytick_13">
     <g id="line2d_20">
      <g>
       <use style="stroke:#000000;stroke-width:0.8;" x="152.8375" xlink:href="#m72dcee1825" y="153.094737"/>
      </g>
     </g>
     <g id="text_21">
      <!-- Sweden -->
      <g transform="translate(106.31875 156.893956)scale(0.1 -0.1)">
       <defs>
        <path d="M 4.203125 54.6875 
L 13.1875 54.6875 
L 24.421875 12.015625 
L 35.59375 54.6875 
L 46.1875 54.6875 
L 57.421875 12.015625 
L 68.609375 54.6875 
L 77.59375 54.6875 
L 63.28125 0 
L 52.6875 0 
L 40.921875 44.828125 
L 29.109375 0 
L 18.5 0 
z
" id="DejaVuSans-119"/>
       </defs>
       <use xlink:href="#DejaVuSans-83"/>
       <use x="63.476562" xlink:href="#DejaVuSans-119"/>
       <use x="145.263672" xlink:href="#DejaVuSans-101"/>
       <use x="206.787109" xlink:href="#DejaVuSans-100"/>
       <use x="270.263672" xlink:href="#DejaVuSans-101"/>
       <use x="331.787109" xlink:href="#DejaVuSans-110"/>
      </g>
     </g>
    </g>
    <g id="ytick_14">
     <g id="line2d_21">
      <g>
       <use style="stroke:#000000;stroke-width:0.8;" x="152.8375" xlink:href="#m72dcee1825" y="164.766316"/>
      </g>
     </g>
     <g id="text_22">
      <!-- India -->
      <g transform="translate(121.295313 168.565535)scale(0.1 -0.1)">
       <use xlink:href="#DejaVuSans-73"/>
       <use x="29.492188" xlink:href="#DejaVuSans-110"/>
       <use x="92.871094" xlink:href="#DejaVuSans-100"/>
       <use x="156.347656" xlink:href="#DejaVuSans-105"/>
       <use x="184.130859" xlink:href="#DejaVuSans-97"/>
      </g>
     </g>
    </g>
    <g id="ytick_15">
     <g id="line2d_22">
      <g>
       <use style="stroke:#000000;stroke-width:0.8;" x="152.8375" xlink:href="#m72dcee1825" y="176.437895"/>
      </g>
     </g>
     <g id="text_23">
      <!-- United States of America -->
      <g transform="translate(20.878125 180.237113)scale(0.1 -0.1)">
       <defs>
        <path d="M 8.6875 72.90625 
L 18.609375 72.90625 
L 18.609375 28.609375 
Q 18.609375 16.890625 22.84375 11.734375 
Q 27.09375 6.59375 36.625 6.59375 
Q 46.09375 6.59375 50.34375 11.734375 
Q 54.59375 16.890625 54.59375 28.609375 
L 54.59375 72.90625 
L 64.5 72.90625 
L 64.5 27.390625 
Q 64.5 13.140625 57.4375 5.859375 
Q 50.390625 -1.421875 36.625 -1.421875 
Q 22.796875 -1.421875 15.734375 5.859375 
Q 8.6875 13.140625 8.6875 27.390625 
z
" id="DejaVuSans-85"/>
        <path d="M 34.1875 63.1875 
L 20.796875 26.90625 
L 47.609375 26.90625 
z
M 28.609375 72.90625 
L 39.796875 72.90625 
L 67.578125 0 
L 57.328125 0 
L 50.6875 18.703125 
L 17.828125 18.703125 
L 11.1875 0 
L 0.78125 0 
z
" id="DejaVuSans-65"/>
       </defs>
       <use xlink:href="#DejaVuSans-85"/>
       <use x="73.193359" xlink:href="#DejaVuSans-110"/>
       <use x="136.572266" xlink:href="#DejaVuSans-105"/>
       <use x="164.355469" xlink:href="#DejaVuSans-116"/>
       <use x="203.564453" xlink:href="#DejaVuSans-101"/>
       <use x="265.087891" xlink:href="#DejaVuSans-100"/>
       <use x="328.564453" xlink:href="#DejaVuSans-32"/>
       <use x="360.351562" xlink:href="#DejaVuSans-83"/>
       <use x="423.828125" xlink:href="#DejaVuSans-116"/>
       <use x="463.037109" xlink:href="#DejaVuSans-97"/>
       <use x="524.316406" xlink:href="#DejaVuSans-116"/>
       <use x="563.525391" xlink:href="#DejaVuSans-101"/>
       <use x="625.048828" xlink:href="#DejaVuSans-115"/>
       <use x="677.148438" xlink:href="#DejaVuSans-32"/>
       <use x="708.935547" xlink:href="#DejaVuSans-111"/>
       <use x="770.117188" xlink:href="#DejaVuSans-102"/>
       <use x="805.322266" xlink:href="#DejaVuSans-32"/>
       <use x="837.109375" xlink:href="#DejaVuSans-65"/>
       <use x="905.517578" xlink:href="#DejaVuSans-109"/>
       <use x="1002.929688" xlink:href="#DejaVuSans-101"/>
       <use x="1064.453125" xlink:href="#DejaVuSans-114"/>
       <use x="1105.566406" xlink:href="#DejaVuSans-105"/>
       <use x="1133.349609" xlink:href="#DejaVuSans-99"/>
       <use x="1188.330078" xlink:href="#DejaVuSans-97"/>
      </g>
     </g>
    </g>
    <g id="ytick_16">
     <g id="line2d_23">
      <g>
       <use style="stroke:#000000;stroke-width:0.8;" x="152.8375" xlink:href="#m72dcee1825" y="188.109474"/>
      </g>
     </g>
     <g id="text_24">
      <!-- Lithuania -->
      <g transform="translate(99.520313 191.908692)scale(0.1 -0.1)">
       <defs>
        <path d="M 9.8125 72.90625 
L 19.671875 72.90625 
L 19.671875 8.296875 
L 55.171875 8.296875 
L 55.171875 0 
L 9.8125 0 
z
" id="DejaVuSans-76"/>
        <path d="M 54.890625 33.015625 
L 54.890625 0 
L 45.90625 0 
L 45.90625 32.71875 
Q 45.90625 40.484375 42.875 44.328125 
Q 39.84375 48.1875 33.796875 48.1875 
Q 26.515625 48.1875 22.3125 43.546875 
Q 18.109375 38.921875 18.109375 30.90625 
L 18.109375 0 
L 9.078125 0 
L 9.078125 75.984375 
L 18.109375 75.984375 
L 18.109375 46.1875 
Q 21.34375 51.125 25.703125 53.5625 
Q 30.078125 56 35.796875 56 
Q 45.21875 56 50.046875 50.171875 
Q 54.890625 44.34375 54.890625 33.015625 
z
" id="DejaVuSans-104"/>
       </defs>
       <use xlink:href="#DejaVuSans-76"/>
       <use x="55.712891" xlink:href="#DejaVuSans-105"/>
       <use x="83.496094" xlink:href="#DejaVuSans-116"/>
       <use x="122.705078" xlink:href="#DejaVuSans-104"/>
       <use x="186.083984" xlink:href="#DejaVuSans-117"/>
       <use x="249.462891" xlink:href="#DejaVuSans-97"/>
       <use x="310.742188" xlink:href="#DejaVuSans-110"/>
       <use x="374.121094" xlink:href="#DejaVuSans-105"/>
       <use x="401.904297" xlink:href="#DejaVuSans-97"/>
      </g>
     </g>
    </g>
    <g id="ytick_17">
     <g id="line2d_24">
      <g>
       <use style="stroke:#000000;stroke-width:0.8;" x="152.8375" xlink:href="#m72dcee1825" y="199.781053"/>
      </g>
     </g>
     <g id="text_25">
      <!-- United Arab Emirates -->
      <g transform="translate(38.8375 203.580271)scale(0.1 -0.1)">
       <defs>
        <path d="M 9.8125 72.90625 
L 55.90625 72.90625 
L 55.90625 64.59375 
L 19.671875 64.59375 
L 19.671875 43.015625 
L 54.390625 43.015625 
L 54.390625 34.71875 
L 19.671875 34.71875 
L 19.671875 8.296875 
L 56.78125 8.296875 
L 56.78125 0 
L 9.8125 0 
z
" id="DejaVuSans-69"/>
       </defs>
       <use xlink:href="#DejaVuSans-85"/>
       <use x="73.193359" xlink:href="#DejaVuSans-110"/>
       <use x="136.572266" xlink:href="#DejaVuSans-105"/>
       <use x="164.355469" xlink:href="#DejaVuSans-116"/>
       <use x="203.564453" xlink:href="#DejaVuSans-101"/>
       <use x="265.087891" xlink:href="#DejaVuSans-100"/>
       <use x="328.564453" xlink:href="#DejaVuSans-32"/>
       <use x="360.351562" xlink:href="#DejaVuSans-65"/>
       <use x="428.759766" xlink:href="#DejaVuSans-114"/>
       <use x="469.873047" xlink:href="#DejaVuSans-97"/>
       <use x="531.152344" xlink:href="#DejaVuSans-98"/>
       <use x="594.628906" xlink:href="#DejaVuSans-32"/>
       <use x="626.416016" xlink:href="#DejaVuSans-69"/>
       <use x="689.599609" xlink:href="#DejaVuSans-109"/>
       <use x="787.011719" xlink:href="#DejaVuSans-105"/>
       <use x="814.794922" xlink:href="#DejaVuSans-114"/>
       <use x="855.908203" xlink:href="#DejaVuSans-97"/>
       <use x="917.1875" xlink:href="#DejaVuSans-116"/>
       <use x="956.396484" xlink:href="#DejaVuSans-101"/>
       <use x="1017.919922" xlink:href="#DejaVuSans-115"/>
      </g>
     </g>
    </g>
    <g id="ytick_18">
     <g id="line2d_25">
      <g>
       <use style="stroke:#000000;stroke-width:0.8;" x="152.8375" xlink:href="#m72dcee1825" y="211.452632"/>
      </g>
     </g>
     <g id="text_26">
      <!-- Netherlands -->
      <g transform="translate(84.879688 215.25185)scale(0.1 -0.1)">
       <use xlink:href="#DejaVuSans-78"/>
       <use x="74.804688" xlink:href="#DejaVuSans-101"/>
       <use x="136.328125" xlink:href="#DejaVuSans-116"/>
       <use x="175.537109" xlink:href="#DejaVuSans-104"/>
       <use x="238.916016" xlink:href="#DejaVuSans-101"/>
       <use x="300.439453" xlink:href="#DejaVuSans-114"/>
       <use x="341.552734" xlink:href="#DejaVuSans-108"/>
       <use x="369.335938" xlink:href="#DejaVuSans-97"/>
       <use x="430.615234" xlink:href="#DejaVuSans-110"/>
       <use x="493.994141" xlink:href="#DejaVuSans-100"/>
       <use x="557.470703" xlink:href="#DejaVuSans-115"/>
      </g>
     </g>
    </g>
    <g id="ytick_19">
     <g id="line2d_26">
      <g>
       <use style="stroke:#000000;stroke-width:0.8;" x="152.8375" xlink:href="#m72dcee1825" y="223.124211"/>
      </g>
     </g>
     <g id="text_27">
      <!-- Pakistan -->
      <g transform="translate(103.965625 226.923429)scale(0.1 -0.1)">
       <use xlink:href="#DejaVuSans-80"/>
       <use x="55.802734" xlink:href="#DejaVuSans-97"/>
       <use x="117.082031" xlink:href="#DejaVuSans-107"/>
       <use x="174.992188" xlink:href="#DejaVuSans-105"/>
       <use x="202.775391" xlink:href="#DejaVuSans-115"/>
       <use x="254.875" xlink:href="#DejaVuSans-116"/>
       <use x="294.083984" xlink:href="#DejaVuSans-97"/>
       <use x="355.363281" xlink:href="#DejaVuSans-110"/>
      </g>
     </g>
    </g>
    <g id="ytick_20">
     <g id="line2d_27">
      <g>
       <use style="stroke:#000000;stroke-width:0.8;" x="152.8375" xlink:href="#m72dcee1825" y="234.795789"/>
      </g>
     </g>
     <g id="text_28">
      <!-- Denmark -->
      <g transform="translate(99.876563 238.595008)scale(0.1 -0.1)">
       <defs>
        <path d="M 19.671875 64.796875 
L 19.671875 8.109375 
L 31.59375 8.109375 
Q 46.6875 8.109375 53.6875 14.9375 
Q 60.6875 21.78125 60.6875 36.53125 
Q 60.6875 51.171875 53.6875 57.984375 
Q 46.6875 64.796875 31.59375 64.796875 
z
M 9.8125 72.90625 
L 30.078125 72.90625 
Q 51.265625 72.90625 61.171875 64.09375 
Q 71.09375 55.28125 71.09375 36.53125 
Q 71.09375 17.671875 61.125 8.828125 
Q 51.171875 0 30.078125 0 
L 9.8125 0 
z
" id="DejaVuSans-68"/>
       </defs>
       <use xlink:href="#DejaVuSans-68"/>
       <use x="77.001953" xlink:href="#DejaVuSans-101"/>
       <use x="138.525391" xlink:href="#DejaVuSans-110"/>
       <use x="201.904297" xlink:href="#DejaVuSans-109"/>
       <use x="299.316406" xlink:href="#DejaVuSans-97"/>
       <use x="360.595703" xlink:href="#DejaVuSans-114"/>
       <use x="401.708984" xlink:href="#DejaVuSans-107"/>
      </g>
     </g>
    </g>
    <g id="ytick_21">
     <g id="line2d_28">
      <g>
       <use style="stroke:#000000;stroke-width:0.8;" x="152.8375" xlink:href="#m72dcee1825" y="246.467368"/>
      </g>
     </g>
     <g id="text_29">
      <!-- Hungary -->
      <g transform="translate(103.135938 250.266587)scale(0.1 -0.1)">
       <defs>
        <path d="M 9.8125 72.90625 
L 19.671875 72.90625 
L 19.671875 43.015625 
L 55.515625 43.015625 
L 55.515625 72.90625 
L 65.375 72.90625 
L 65.375 0 
L 55.515625 0 
L 55.515625 34.71875 
L 19.671875 34.71875 
L 19.671875 0 
L 9.8125 0 
z
" id="DejaVuSans-72"/>
       </defs>
       <use xlink:href="#DejaVuSans-72"/>
       <use x="75.195312" xlink:href="#DejaVuSans-117"/>
       <use x="138.574219" xlink:href="#DejaVuSans-110"/>
       <use x="201.953125" xlink:href="#DejaVuSans-103"/>
       <use x="265.429688" xlink:href="#DejaVuSans-97"/>
       <use x="326.708984" xlink:href="#DejaVuSans-114"/>
       <use x="367.822266" xlink:href="#DejaVuSans-121"/>
      </g>
     </g>
    </g>
    <g id="ytick_22">
     <g id="line2d_29">
      <g>
       <use style="stroke:#000000;stroke-width:0.8;" x="152.8375" xlink:href="#m72dcee1825" y="258.138947"/>
      </g>
     </g>
     <g id="text_30">
      <!-- Switzerland -->
      <g transform="translate(87.507813 261.938166)scale(0.1 -0.1)">
       <defs>
        <path d="M 5.515625 54.6875 
L 48.1875 54.6875 
L 48.1875 46.484375 
L 14.40625 7.171875 
L 48.1875 7.171875 
L 48.1875 0 
L 4.296875 0 
L 4.296875 8.203125 
L 38.09375 47.515625 
L 5.515625 47.515625 
z
" id="DejaVuSans-122"/>
       </defs>
       <use xlink:href="#DejaVuSans-83"/>
       <use x="63.476562" xlink:href="#DejaVuSans-119"/>
       <use x="145.263672" xlink:href="#DejaVuSans-105"/>
       <use x="173.046875" xlink:href="#DejaVuSans-116"/>
       <use x="212.255859" xlink:href="#DejaVuSans-122"/>
       <use x="264.746094" xlink:href="#DejaVuSans-101"/>
       <use x="326.269531" xlink:href="#DejaVuSans-114"/>
       <use x="367.382812" xlink:href="#DejaVuSans-108"/>
       <use x="395.166016" xlink:href="#DejaVuSans-97"/>
       <use x="456.445312" xlink:href="#DejaVuSans-110"/>
       <use x="519.824219" xlink:href="#DejaVuSans-100"/>
      </g>
     </g>
    </g>
    <g id="ytick_23">
     <g id="line2d_30">
      <g>
       <use style="stroke:#000000;stroke-width:0.8;" x="152.8375" xlink:href="#m72dcee1825" y="269.810526"/>
      </g>
     </g>
     <g id="text_31">
      <!-- Egypt -->
      <g transform="translate(116.982813 273.609745)scale(0.1 -0.1)">
       <use xlink:href="#DejaVuSans-69"/>
       <use x="63.183594" xlink:href="#DejaVuSans-103"/>
       <use x="126.660156" xlink:href="#DejaVuSans-121"/>
       <use x="185.839844" xlink:href="#DejaVuSans-112"/>
       <use x="249.316406" xlink:href="#DejaVuSans-116"/>
      </g>
     </g>
    </g>
    <g id="ytick_24">
     <g id="line2d_31">
      <g>
       <use style="stroke:#000000;stroke-width:0.8;" x="152.8375" xlink:href="#m72dcee1825" y="281.482105"/>
      </g>
     </g>
     <g id="text_32">
      <!-- Nigeria -->
      <g transform="translate(110.059375 285.281324)scale(0.1 -0.1)">
       <use xlink:href="#DejaVuSans-78"/>
       <use x="74.804688" xlink:href="#DejaVuSans-105"/>
       <use x="102.587891" xlink:href="#DejaVuSans-103"/>
       <use x="166.064453" xlink:href="#DejaVuSans-101"/>
       <use x="227.587891" xlink:href="#DejaVuSans-114"/>
       <use x="268.701172" xlink:href="#DejaVuSans-105"/>
       <use x="296.484375" xlink:href="#DejaVuSans-97"/>
      </g>
     </g>
    </g>
    <g id="ytick_25">
     <g id="line2d_32">
      <g>
       <use style="stroke:#000000;stroke-width:0.8;" x="152.8375" xlink:href="#m72dcee1825" y="293.153684"/>
      </g>
     </g>
     <g id="text_33">
      <!-- China -->
      <g transform="translate(117.273438 296.952903)scale(0.1 -0.1)">
       <use xlink:href="#DejaVuSans-67"/>
       <use x="69.824219" xlink:href="#DejaVuSans-104"/>
       <use x="133.203125" xlink:href="#DejaVuSans-105"/>
       <use x="160.986328" xlink:href="#DejaVuSans-110"/>
       <use x="224.365234" xlink:href="#DejaVuSans-97"/>
      </g>
     </g>
    </g>
    <g id="ytick_26">
     <g id="line2d_33">
      <g>
       <use style="stroke:#000000;stroke-width:0.8;" x="152.8375" xlink:href="#m72dcee1825" y="304.825263"/>
      </g>
     </g>
     <g id="text_34">
      <!-- Russia -->
      <g transform="translate(113.676563 308.624482)scale(0.1 -0.1)">
       <use xlink:href="#DejaVuSans-82"/>
       <use x="64.982422" xlink:href="#DejaVuSans-117"/>
       <use x="128.361328" xlink:href="#DejaVuSans-115"/>
       <use x="180.460938" xlink:href="#DejaVuSans-115"/>
       <use x="232.560547" xlink:href="#DejaVuSans-105"/>
       <use x="260.34375" xlink:href="#DejaVuSans-97"/>
      </g>
     </g>
    </g>
    <g id="ytick_27">
     <g id="line2d_34">
      <g>
       <use style="stroke:#000000;stroke-width:0.8;" x="152.8375" xlink:href="#m72dcee1825" y="316.496842"/>
      </g>
     </g>
     <g id="text_35">
      <!-- Slovakia -->
      <g transform="translate(103.848438 320.296061)scale(0.1 -0.1)">
       <defs>
        <path d="M 2.984375 54.6875 
L 12.5 54.6875 
L 29.59375 8.796875 
L 46.6875 54.6875 
L 56.203125 54.6875 
L 35.6875 0 
L 23.484375 0 
z
" id="DejaVuSans-118"/>
       </defs>
       <use xlink:href="#DejaVuSans-83"/>
       <use x="63.476562" xlink:href="#DejaVuSans-108"/>
       <use x="91.259766" xlink:href="#DejaVuSans-111"/>
       <use x="152.441406" xlink:href="#DejaVuSans-118"/>
       <use x="211.621094" xlink:href="#DejaVuSans-97"/>
       <use x="272.900391" xlink:href="#DejaVuSans-107"/>
       <use x="330.810547" xlink:href="#DejaVuSans-105"/>
       <use x="358.59375" xlink:href="#DejaVuSans-97"/>
      </g>
     </g>
    </g>
    <g id="ytick_28">
     <g id="line2d_35">
      <g>
       <use style="stroke:#000000;stroke-width:0.8;" x="152.8375" xlink:href="#m72dcee1825" y="328.168421"/>
      </g>
     </g>
     <g id="text_36">
      <!-- Albania -->
      <g transform="translate(108.498438 331.96764)scale(0.1 -0.1)">
       <use xlink:href="#DejaVuSans-65"/>
       <use x="68.408203" xlink:href="#DejaVuSans-108"/>
       <use x="96.191406" xlink:href="#DejaVuSans-98"/>
       <use x="159.667969" xlink:href="#DejaVuSans-97"/>
       <use x="220.947266" xlink:href="#DejaVuSans-110"/>
       <use x="284.326172" xlink:href="#DejaVuSans-105"/>
       <use x="312.109375" xlink:href="#DejaVuSans-97"/>
      </g>
     </g>
    </g>
    <g id="ytick_29">
     <g id="line2d_36">
      <g>
       <use style="stroke:#000000;stroke-width:0.8;" x="152.8375" xlink:href="#m72dcee1825" y="339.84"/>
      </g>
     </g>
     <g id="text_37">
      <!-- Moldova -->
      <g transform="translate(103.798438 343.639219)scale(0.1 -0.1)">
       <defs>
        <path d="M 9.8125 72.90625 
L 24.515625 72.90625 
L 43.109375 23.296875 
L 61.8125 72.90625 
L 76.515625 72.90625 
L 76.515625 0 
L 66.890625 0 
L 66.890625 64.015625 
L 48.09375 14.015625 
L 38.1875 14.015625 
L 19.390625 64.015625 
L 19.390625 0 
L 9.8125 0 
z
" id="DejaVuSans-77"/>
       </defs>
       <use xlink:href="#DejaVuSans-77"/>
       <use x="86.279297" xlink:href="#DejaVuSans-111"/>
       <use x="147.460938" xlink:href="#DejaVuSans-108"/>
       <use x="175.244141" xlink:href="#DejaVuSans-100"/>
       <use x="238.720703" xlink:href="#DejaVuSans-111"/>
       <use x="299.902344" xlink:href="#DejaVuSans-118"/>
       <use x="359.082031" xlink:href="#DejaVuSans-97"/>
      </g>
     </g>
    </g>
    <g id="ytick_30">
     <g id="line2d_37">
      <g>
       <use style="stroke:#000000;stroke-width:0.8;" x="152.8375" xlink:href="#m72dcee1825" y="351.511579"/>
      </g>
     </g>
     <g id="text_38">
      <!-- Malta -->
      <g transform="translate(118.254688 355.310798)scale(0.1 -0.1)">
       <use xlink:href="#DejaVuSans-77"/>
       <use x="86.279297" xlink:href="#DejaVuSans-97"/>
       <use x="147.558594" xlink:href="#DejaVuSans-108"/>
       <use x="175.341797" xlink:href="#DejaVuSans-116"/>
       <use x="214.550781" xlink:href="#DejaVuSans-97"/>
      </g>
     </g>
    </g>
    <g id="ytick_31">
     <g id="line2d_38">
      <g>
       <use style="stroke:#000000;stroke-width:0.8;" x="152.8375" xlink:href="#m72dcee1825" y="363.183158"/>
      </g>
     </g>
     <g id="text_39">
      <!-- Ukraine -->
      <g transform="translate(107.220313 366.982377)scale(0.1 -0.1)">
       <use xlink:href="#DejaVuSans-85"/>
       <use x="73.193359" xlink:href="#DejaVuSans-107"/>
       <use x="131.103516" xlink:href="#DejaVuSans-114"/>
       <use x="172.216797" xlink:href="#DejaVuSans-97"/>
       <use x="233.496094" xlink:href="#DejaVuSans-105"/>
       <use x="261.279297" xlink:href="#DejaVuSans-110"/>
       <use x="324.658203" xlink:href="#DejaVuSans-101"/>
      </g>
     </g>
    </g>
    <g id="ytick_32">
     <g id="line2d_39">
      <g>
       <use style="stroke:#000000;stroke-width:0.8;" x="152.8375" xlink:href="#m72dcee1825" y="374.854737"/>
      </g>
     </g>
     <g id="text_40">
      <!-- Israel -->
      <g transform="translate(118.507813 378.653956)scale(0.1 -0.1)">
       <use xlink:href="#DejaVuSans-73"/>
       <use x="29.492188" xlink:href="#DejaVuSans-115"/>
       <use x="81.591797" xlink:href="#DejaVuSans-114"/>
       <use x="122.705078" xlink:href="#DejaVuSans-97"/>
       <use x="183.984375" xlink:href="#DejaVuSans-101"/>
       <use x="245.507812" xlink:href="#DejaVuSans-108"/>
      </g>
     </g>
    </g>
    <g id="ytick_33">
     <g id="line2d_40">
      <g>
       <use style="stroke:#000000;stroke-width:0.8;" x="152.8375" xlink:href="#m72dcee1825" y="386.526316"/>
      </g>
     </g>
     <g id="text_41">
      <!-- Austria -->
      <g transform="translate(110.5125 390.325535)scale(0.1 -0.1)">
       <use xlink:href="#DejaVuSans-65"/>
       <use x="68.408203" xlink:href="#DejaVuSans-117"/>
       <use x="131.787109" xlink:href="#DejaVuSans-115"/>
       <use x="183.886719" xlink:href="#DejaVuSans-116"/>
       <use x="223.095703" xlink:href="#DejaVuSans-114"/>
       <use x="264.208984" xlink:href="#DejaVuSans-105"/>
       <use x="291.992188" xlink:href="#DejaVuSans-97"/>
      </g>
     </g>
    </g>
    <g id="ytick_34">
     <g id="line2d_41">
      <g>
       <use style="stroke:#000000;stroke-width:0.8;" x="152.8375" xlink:href="#m72dcee1825" y="398.197895"/>
      </g>
     </g>
     <g id="text_42">
      <!-- Latvia -->
      <g transform="translate(115.392188 401.997113)scale(0.1 -0.1)">
       <use xlink:href="#DejaVuSans-76"/>
       <use x="55.712891" xlink:href="#DejaVuSans-97"/>
       <use x="116.992188" xlink:href="#DejaVuSans-116"/>
       <use x="156.201172" xlink:href="#DejaVuSans-118"/>
       <use x="215.380859" xlink:href="#DejaVuSans-105"/>
       <use x="243.164062" xlink:href="#DejaVuSans-97"/>
      </g>
     </g>
    </g>
    <g id="ytick_35">
     <g id="line2d_42">
      <g>
       <use style="stroke:#000000;stroke-width:0.8;" x="152.8375" xlink:href="#m72dcee1825" y="409.869474"/>
      </g>
     </g>
     <g id="text_43">
      <!-- Czech Republic -->
      <g transform="translate(69.698438 413.668692)scale(0.1 -0.1)">
       <use xlink:href="#DejaVuSans-67"/>
       <use x="69.824219" xlink:href="#DejaVuSans-122"/>
       <use x="122.314453" xlink:href="#DejaVuSans-101"/>
       <use x="183.837891" xlink:href="#DejaVuSans-99"/>
       <use x="238.818359" xlink:href="#DejaVuSans-104"/>
       <use x="302.197266" xlink:href="#DejaVuSans-32"/>
       <use x="333.984375" xlink:href="#DejaVuSans-82"/>
       <use x="398.966797" xlink:href="#DejaVuSans-101"/>
       <use x="460.490234" xlink:href="#DejaVuSans-112"/>
       <use x="523.966797" xlink:href="#DejaVuSans-117"/>
       <use x="587.345703" xlink:href="#DejaVuSans-98"/>
       <use x="650.822266" xlink:href="#DejaVuSans-108"/>
       <use x="678.605469" xlink:href="#DejaVuSans-105"/>
       <use x="706.388672" xlink:href="#DejaVuSans-99"/>
      </g>
     </g>
    </g>
    <g id="ytick_36">
     <g id="line2d_43">
      <g>
       <use style="stroke:#000000;stroke-width:0.8;" x="152.8375" xlink:href="#m72dcee1825" y="421.541053"/>
      </g>
     </g>
     <g id="text_44">
      <!-- Jamaica -->
      <g transform="translate(106.485938 425.340271)scale(0.1 -0.1)">
       <defs>
        <path d="M 9.8125 72.90625 
L 19.671875 72.90625 
L 19.671875 5.078125 
Q 19.671875 -8.109375 14.671875 -14.0625 
Q 9.671875 -20.015625 -1.421875 -20.015625 
L -5.171875 -20.015625 
L -5.171875 -11.71875 
L -2.09375 -11.71875 
Q 4.4375 -11.71875 7.125 -8.046875 
Q 9.8125 -4.390625 9.8125 5.078125 
z
" id="DejaVuSans-74"/>
       </defs>
       <use xlink:href="#DejaVuSans-74"/>
       <use x="29.492188" xlink:href="#DejaVuSans-97"/>
       <use x="90.771484" xlink:href="#DejaVuSans-109"/>
       <use x="188.183594" xlink:href="#DejaVuSans-97"/>
       <use x="249.462891" xlink:href="#DejaVuSans-105"/>
       <use x="277.246094" xlink:href="#DejaVuSans-99"/>
       <use x="332.226562" xlink:href="#DejaVuSans-97"/>
      </g>
     </g>
    </g>
    <g id="ytick_37">
     <g id="line2d_44">
      <g>
       <use style="stroke:#000000;stroke-width:0.8;" x="152.8375" xlink:href="#m72dcee1825" y="433.212632"/>
      </g>
     </g>
     <g id="text_45">
      <!-- Norway -->
      <g transform="translate(107.901563 437.01185)scale(0.1 -0.1)">
       <use xlink:href="#DejaVuSans-78"/>
       <use x="74.804688" xlink:href="#DejaVuSans-111"/>
       <use x="135.986328" xlink:href="#DejaVuSans-114"/>
       <use x="177.099609" xlink:href="#DejaVuSans-119"/>
       <use x="258.886719" xlink:href="#DejaVuSans-97"/>
       <use x="320.166016" xlink:href="#DejaVuSans-121"/>
      </g>
     </g>
    </g>
    <g id="ytick_38">
     <g id="line2d_45">
      <g>
       <use style="stroke:#000000;stroke-width:0.8;" x="152.8375" xlink:href="#m72dcee1825" y="444.884211"/>
      </g>
     </g>
     <g id="text_46">
      <!-- Morocco -->
      <g transform="translate(103.970313 448.683429)scale(0.1 -0.1)">
       <use xlink:href="#DejaVuSans-77"/>
       <use x="86.279297" xlink:href="#DejaVuSans-111"/>
       <use x="147.460938" xlink:href="#DejaVuSans-114"/>
       <use x="186.324219" xlink:href="#DejaVuSans-111"/>
       <use x="247.505859" xlink:href="#DejaVuSans-99"/>
       <use x="302.486328" xlink:href="#DejaVuSans-99"/>
       <use x="357.466797" xlink:href="#DejaVuSans-111"/>
      </g>
     </g>
    </g>
    <g id="text_47">
     <!-- Country -->
     <g transform="translate(14.798438 248.823281)rotate(-90)scale(0.1 -0.1)">
      <use xlink:href="#DejaVuSans-67"/>
      <use x="69.824219" xlink:href="#DejaVuSans-111"/>
      <use x="131.005859" xlink:href="#DejaVuSans-117"/>
      <use x="194.384766" xlink:href="#DejaVuSans-110"/>
      <use x="257.763672" xlink:href="#DejaVuSans-116"/>
      <use x="296.972656" xlink:href="#DejaVuSans-114"/>
      <use x="338.085938" xlink:href="#DejaVuSans-121"/>
     </g>
    </g>
   </g>
   <g id="line2d_46">
    <path clip-path="url(#p1282779b7e)" d="M 0 0 
" style="fill:none;stroke:#424242;stroke-linecap:square;stroke-width:2.7;"/>
   </g>
   <g id="line2d_47">
    <path clip-path="url(#p1282779b7e)" d="M 0 0 
" style="fill:none;stroke:#424242;stroke-linecap:square;stroke-width:2.7;"/>
   </g>
   <g id="line2d_48">
    <path clip-path="url(#p1282779b7e)" d="M 0 0 
" style="fill:none;stroke:#424242;stroke-linecap:square;stroke-width:2.7;"/>
   </g>
   <g id="line2d_49">
    <path clip-path="url(#p1282779b7e)" d="M 0 0 
" style="fill:none;stroke:#424242;stroke-linecap:square;stroke-width:2.7;"/>
   </g>
   <g id="line2d_50">
    <path clip-path="url(#p1282779b7e)" d="M 0 0 
" style="fill:none;stroke:#424242;stroke-linecap:square;stroke-width:2.7;"/>
   </g>
   <g id="line2d_51">
    <path clip-path="url(#p1282779b7e)" d="M 0 0 
" style="fill:none;stroke:#424242;stroke-linecap:square;stroke-width:2.7;"/>
   </g>
   <g id="line2d_52">
    <path clip-path="url(#p1282779b7e)" d="M 0 0 
" style="fill:none;stroke:#424242;stroke-linecap:square;stroke-width:2.7;"/>
   </g>
   <g id="line2d_53">
    <path clip-path="url(#p1282779b7e)" d="M 0 0 
" style="fill:none;stroke:#424242;stroke-linecap:square;stroke-width:2.7;"/>
   </g>
   <g id="line2d_54">
    <path clip-path="url(#p1282779b7e)" d="M 0 0 
" style="fill:none;stroke:#424242;stroke-linecap:square;stroke-width:2.7;"/>
   </g>
   <g id="line2d_55">
    <path clip-path="url(#p1282779b7e)" d="M 0 0 
" style="fill:none;stroke:#424242;stroke-linecap:square;stroke-width:2.7;"/>
   </g>
   <g id="line2d_56">
    <path clip-path="url(#p1282779b7e)" d="M 0 0 
" style="fill:none;stroke:#424242;stroke-linecap:square;stroke-width:2.7;"/>
   </g>
   <g id="line2d_57">
    <path clip-path="url(#p1282779b7e)" d="M 0 0 
" style="fill:none;stroke:#424242;stroke-linecap:square;stroke-width:2.7;"/>
   </g>
   <g id="line2d_58">
    <path clip-path="url(#p1282779b7e)" d="M 0 0 
" style="fill:none;stroke:#424242;stroke-linecap:square;stroke-width:2.7;"/>
   </g>
   <g id="line2d_59">
    <path clip-path="url(#p1282779b7e)" d="M 0 0 
" style="fill:none;stroke:#424242;stroke-linecap:square;stroke-width:2.7;"/>
   </g>
   <g id="line2d_60">
    <path clip-path="url(#p1282779b7e)" d="M 0 0 
" style="fill:none;stroke:#424242;stroke-linecap:square;stroke-width:2.7;"/>
   </g>
   <g id="line2d_61">
    <path clip-path="url(#p1282779b7e)" d="M 0 0 
" style="fill:none;stroke:#424242;stroke-linecap:square;stroke-width:2.7;"/>
   </g>
   <g id="line2d_62">
    <path clip-path="url(#p1282779b7e)" d="M 0 0 
" style="fill:none;stroke:#424242;stroke-linecap:square;stroke-width:2.7;"/>
   </g>
   <g id="line2d_63">
    <path clip-path="url(#p1282779b7e)" d="M 0 0 
" style="fill:none;stroke:#424242;stroke-linecap:square;stroke-width:2.7;"/>
   </g>
   <g id="line2d_64">
    <path clip-path="url(#p1282779b7e)" d="M 0 0 
" style="fill:none;stroke:#424242;stroke-linecap:square;stroke-width:2.7;"/>
   </g>
   <g id="line2d_65">
    <path clip-path="url(#p1282779b7e)" d="M 0 0 
" style="fill:none;stroke:#424242;stroke-linecap:square;stroke-width:2.7;"/>
   </g>
   <g id="line2d_66">
    <path clip-path="url(#p1282779b7e)" d="M 0 0 
" style="fill:none;stroke:#424242;stroke-linecap:square;stroke-width:2.7;"/>
   </g>
   <g id="line2d_67">
    <path clip-path="url(#p1282779b7e)" d="M 0 0 
" style="fill:none;stroke:#424242;stroke-linecap:square;stroke-width:2.7;"/>
   </g>
   <g id="line2d_68">
    <path clip-path="url(#p1282779b7e)" d="M 0 0 
" style="fill:none;stroke:#424242;stroke-linecap:square;stroke-width:2.7;"/>
   </g>
   <g id="line2d_69">
    <path clip-path="url(#p1282779b7e)" d="M 0 0 
" style="fill:none;stroke:#424242;stroke-linecap:square;stroke-width:2.7;"/>
   </g>
   <g id="line2d_70">
    <path clip-path="url(#p1282779b7e)" d="M 0 0 
" style="fill:none;stroke:#424242;stroke-linecap:square;stroke-width:2.7;"/>
   </g>
   <g id="line2d_71">
    <path clip-path="url(#p1282779b7e)" d="M 0 0 
" style="fill:none;stroke:#424242;stroke-linecap:square;stroke-width:2.7;"/>
   </g>
   <g id="line2d_72">
    <path clip-path="url(#p1282779b7e)" d="M 0 0 
" style="fill:none;stroke:#424242;stroke-linecap:square;stroke-width:2.7;"/>
   </g>
   <g id="line2d_73">
    <path clip-path="url(#p1282779b7e)" d="M 0 0 
" style="fill:none;stroke:#424242;stroke-linecap:square;stroke-width:2.7;"/>
   </g>
   <g id="line2d_74">
    <path clip-path="url(#p1282779b7e)" d="M 0 0 
" style="fill:none;stroke:#424242;stroke-linecap:square;stroke-width:2.7;"/>
   </g>
   <g id="line2d_75">
    <path clip-path="url(#p1282779b7e)" d="M 0 0 
" style="fill:none;stroke:#424242;stroke-linecap:square;stroke-width:2.7;"/>
   </g>
   <g id="line2d_76">
    <path clip-path="url(#p1282779b7e)" d="M 0 0 
" style="fill:none;stroke:#424242;stroke-linecap:square;stroke-width:2.7;"/>
   </g>
   <g id="line2d_77">
    <path clip-path="url(#p1282779b7e)" d="M 0 0 
" style="fill:none;stroke:#424242;stroke-linecap:square;stroke-width:2.7;"/>
   </g>
   <g id="line2d_78">
    <path clip-path="url(#p1282779b7e)" d="M 0 0 
" style="fill:none;stroke:#424242;stroke-linecap:square;stroke-width:2.7;"/>
   </g>
   <g id="line2d_79">
    <path clip-path="url(#p1282779b7e)" d="M 0 0 
" style="fill:none;stroke:#424242;stroke-linecap:square;stroke-width:2.7;"/>
   </g>
   <g id="line2d_80">
    <path clip-path="url(#p1282779b7e)" d="M 0 0 
" style="fill:none;stroke:#424242;stroke-linecap:square;stroke-width:2.7;"/>
   </g>
   <g id="line2d_81">
    <path clip-path="url(#p1282779b7e)" d="M 0 0 
" style="fill:none;stroke:#424242;stroke-linecap:square;stroke-width:2.7;"/>
   </g>
   <g id="line2d_82">
    <path clip-path="url(#p1282779b7e)" d="M 0 0 
" style="fill:none;stroke:#424242;stroke-linecap:square;stroke-width:2.7;"/>
   </g>
   <g id="line2d_83">
    <path clip-path="url(#p1282779b7e)" d="M 0 0 
" style="fill:none;stroke:#424242;stroke-linecap:square;stroke-width:2.7;"/>
   </g>
   <g id="patch_41">
    <path d="M 152.8375 450.72 
L 152.8375 7.2 
" style="fill:none;stroke:#000000;stroke-linecap:square;stroke-linejoin:miter;stroke-width:0.8;"/>
   </g>
   <g id="patch_42">
    <path d="M 152.8375 450.72 
L 655.0375 450.72 
" style="fill:none;stroke:#000000;stroke-linecap:square;stroke-linejoin:miter;stroke-width:0.8;"/>
   </g>
   <g id="legend_1">
    <g id="patch_43">
     <path d="M 588.91625 20.47875 
L 604.91625 20.47875 
L 604.91625 14.87875 
L 588.91625 14.87875 
z
" style="fill:#ffffff;stroke:#ffffff;stroke-linejoin:miter;"/>
    </g>
    <g id="text_48">
     <!-- 0 -->
     <g transform="translate(611.31625 20.47875)scale(0.08 -0.08)">
      <use xlink:href="#DejaVuSans-48"/>
     </g>
    </g>
    <g id="patch_44">
     <path d="M 588.91625 32.22125 
L 604.91625 32.22125 
L 604.91625 26.62125 
L 588.91625 26.62125 
z
" style="fill:#eac9c2;stroke:#eac9c2;stroke-linejoin:miter;"/>
    </g>
    <g id="text_49">
     <!-- 1 -->
     <g transform="translate(611.31625 32.22125)scale(0.08 -0.08)">
      <use xlink:href="#DejaVuSans-49"/>
     </g>
    </g>
    <g id="patch_45">
     <path d="M 588.91625 43.96375 
L 604.91625 43.96375 
L 604.91625 38.36375 
L 588.91625 38.36375 
z
" style="fill:#e7c2bc;stroke:#e7c2bc;stroke-linejoin:miter;"/>
    </g>
    <g id="text_50">
     <!-- 2 -->
     <g transform="translate(611.31625 43.96375)scale(0.08 -0.08)">
      <use xlink:href="#DejaVuSans-50"/>
     </g>
    </g>
    <g id="patch_46">
     <path d="M 588.91625 55.70625 
L 604.91625 55.70625 
L 604.91625 50.10625 
L 588.91625 50.10625 
z
" style="fill:#e4bbb7;stroke:#e4bbb7;stroke-linejoin:miter;"/>
    </g>
    <g id="text_51">
     <!-- 3 -->
     <g transform="translate(611.31625 55.70625)scale(0.08 -0.08)">
      <defs>
       <path d="M 40.578125 39.3125 
Q 47.65625 37.796875 51.625 33 
Q 55.609375 28.21875 55.609375 21.1875 
Q 55.609375 10.40625 48.1875 4.484375 
Q 40.765625 -1.421875 27.09375 -1.421875 
Q 22.515625 -1.421875 17.65625 -0.515625 
Q 12.796875 0.390625 7.625 2.203125 
L 7.625 11.71875 
Q 11.71875 9.328125 16.59375 8.109375 
Q 21.484375 6.890625 26.8125 6.890625 
Q 36.078125 6.890625 40.9375 10.546875 
Q 45.796875 14.203125 45.796875 21.1875 
Q 45.796875 27.640625 41.28125 31.265625 
Q 36.765625 34.90625 28.71875 34.90625 
L 20.21875 34.90625 
L 20.21875 43.015625 
L 29.109375 43.015625 
Q 36.375 43.015625 40.234375 45.921875 
Q 44.09375 48.828125 44.09375 54.296875 
Q 44.09375 59.90625 40.109375 62.90625 
Q 36.140625 65.921875 28.71875 65.921875 
Q 24.65625 65.921875 20.015625 65.03125 
Q 15.375 64.15625 9.8125 62.3125 
L 9.8125 71.09375 
Q 15.4375 72.65625 20.34375 73.4375 
Q 25.25 74.21875 29.59375 74.21875 
Q 40.828125 74.21875 47.359375 69.109375 
Q 53.90625 64.015625 53.90625 55.328125 
Q 53.90625 49.265625 50.4375 45.09375 
Q 46.96875 40.921875 40.578125 39.3125 
z
" id="DejaVuSans-51"/>
      </defs>
      <use xlink:href="#DejaVuSans-51"/>
     </g>
    </g>
    <g id="patch_47">
     <path d="M 588.91625 67.44875 
L 604.91625 67.44875 
L 604.91625 61.84875 
L 588.91625 61.84875 
z
" style="fill:#e1b3b2;stroke:#e1b3b2;stroke-linejoin:miter;"/>
    </g>
    <g id="text_52">
     <!-- 4 -->
     <g transform="translate(611.31625 67.44875)scale(0.08 -0.08)">
      <use xlink:href="#DejaVuSans-52"/>
     </g>
    </g>
    <g id="patch_48">
     <path d="M 588.91625 79.19125 
L 604.91625 79.19125 
L 604.91625 73.59125 
L 588.91625 73.59125 
z
" style="fill:#ddacad;stroke:#ddacad;stroke-linejoin:miter;"/>
    </g>
    <g id="text_53">
     <!-- 5 -->
     <g transform="translate(611.31625 79.19125)scale(0.08 -0.08)">
      <defs>
       <path d="M 10.796875 72.90625 
L 49.515625 72.90625 
L 49.515625 64.59375 
L 19.828125 64.59375 
L 19.828125 46.734375 
Q 21.96875 47.46875 24.109375 47.828125 
Q 26.265625 48.1875 28.421875 48.1875 
Q 40.625 48.1875 47.75 41.5 
Q 54.890625 34.8125 54.890625 23.390625 
Q 54.890625 11.625 47.5625 5.09375 
Q 40.234375 -1.421875 26.90625 -1.421875 
Q 22.3125 -1.421875 17.546875 -0.640625 
Q 12.796875 0.140625 7.71875 1.703125 
L 7.71875 11.625 
Q 12.109375 9.234375 16.796875 8.0625 
Q 21.484375 6.890625 26.703125 6.890625 
Q 35.15625 6.890625 40.078125 11.328125 
Q 45.015625 15.765625 45.015625 23.390625 
Q 45.015625 31 40.078125 35.4375 
Q 35.15625 39.890625 26.703125 39.890625 
Q 22.75 39.890625 18.8125 39.015625 
Q 14.890625 38.140625 10.796875 36.28125 
z
" id="DejaVuSans-53"/>
      </defs>
      <use xlink:href="#DejaVuSans-53"/>
     </g>
    </g>
    <g id="patch_49">
     <path d="M 588.91625 90.93375 
L 604.91625 90.93375 
L 604.91625 85.33375 
L 588.91625 85.33375 
z
" style="fill:#daa5a8;stroke:#daa5a8;stroke-linejoin:miter;"/>
    </g>
    <g id="text_54">
     <!-- 6 -->
     <g transform="translate(611.31625 90.93375)scale(0.08 -0.08)">
      <use xlink:href="#DejaVuSans-54"/>
     </g>
    </g>
    <g id="patch_50">
     <path d="M 588.91625 102.67625 
L 604.91625 102.67625 
L 604.91625 97.07625 
L 588.91625 97.07625 
z
" style="fill:#d69ea4;stroke:#d69ea4;stroke-linejoin:miter;"/>
    </g>
    <g id="text_55">
     <!-- 9 -->
     <g transform="translate(611.31625 102.67625)scale(0.08 -0.08)">
      <defs>
       <path d="M 10.984375 1.515625 
L 10.984375 10.5 
Q 14.703125 8.734375 18.5 7.8125 
Q 22.3125 6.890625 25.984375 6.890625 
Q 35.75 6.890625 40.890625 13.453125 
Q 46.046875 20.015625 46.78125 33.40625 
Q 43.953125 29.203125 39.59375 26.953125 
Q 35.25 24.703125 29.984375 24.703125 
Q 19.046875 24.703125 12.671875 31.3125 
Q 6.296875 37.9375 6.296875 49.421875 
Q 6.296875 60.640625 12.9375 67.421875 
Q 19.578125 74.21875 30.609375 74.21875 
Q 43.265625 74.21875 49.921875 64.515625 
Q 56.59375 54.828125 56.59375 36.375 
Q 56.59375 19.140625 48.40625 8.859375 
Q 40.234375 -1.421875 26.421875 -1.421875 
Q 22.703125 -1.421875 18.890625 -0.6875 
Q 15.09375 0.046875 10.984375 1.515625 
z
M 30.609375 32.421875 
Q 37.25 32.421875 41.125 36.953125 
Q 45.015625 41.5 45.015625 49.421875 
Q 45.015625 57.28125 41.125 61.84375 
Q 37.25 66.40625 30.609375 66.40625 
Q 23.96875 66.40625 20.09375 61.84375 
Q 16.21875 57.28125 16.21875 49.421875 
Q 16.21875 41.5 20.09375 36.953125 
Q 23.96875 32.421875 30.609375 32.421875 
z
" id="DejaVuSans-57"/>
      </defs>
      <use xlink:href="#DejaVuSans-57"/>
     </g>
    </g>
    <g id="patch_51">
     <path d="M 588.91625 114.41875 
L 604.91625 114.41875 
L 604.91625 108.81875 
L 588.91625 108.81875 
z
" style="fill:#d298a0;stroke:#d298a0;stroke-linejoin:miter;"/>
    </g>
    <g id="text_56">
     <!-- 13 -->
     <g transform="translate(611.31625 114.41875)scale(0.08 -0.08)">
      <use xlink:href="#DejaVuSans-49"/>
      <use x="63.623047" xlink:href="#DejaVuSans-51"/>
     </g>
    </g>
    <g id="patch_52">
     <path d="M 588.91625 126.16125 
L 604.91625 126.16125 
L 604.91625 120.56125 
L 588.91625 120.56125 
z
" style="fill:#ce919d;stroke:#ce919d;stroke-linejoin:miter;"/>
    </g>
    <g id="text_57">
     <!-- 18 -->
     <g transform="translate(611.31625 126.16125)scale(0.08 -0.08)">
      <use xlink:href="#DejaVuSans-49"/>
      <use x="63.623047" xlink:href="#DejaVuSans-56"/>
     </g>
    </g>
    <g id="patch_53">
     <path d="M 588.91625 137.90375 
L 604.91625 137.90375 
L 604.91625 132.30375 
L 588.91625 132.30375 
z
" style="fill:#ca8a99;stroke:#ca8a99;stroke-linejoin:miter;"/>
    </g>
    <g id="text_58">
     <!-- 19 -->
     <g transform="translate(611.31625 137.90375)scale(0.08 -0.08)">
      <use xlink:href="#DejaVuSans-49"/>
      <use x="63.623047" xlink:href="#DejaVuSans-57"/>
     </g>
    </g>
    <g id="patch_54">
     <path d="M 588.91625 149.64625 
L 604.91625 149.64625 
L 604.91625 144.04625 
L 588.91625 144.04625 
z
" style="fill:#c58496;stroke:#c58496;stroke-linejoin:miter;"/>
    </g>
    <g id="text_59">
     <!-- 20 -->
     <g transform="translate(611.31625 149.64625)scale(0.08 -0.08)">
      <use xlink:href="#DejaVuSans-50"/>
      <use x="63.623047" xlink:href="#DejaVuSans-48"/>
     </g>
    </g>
    <g id="patch_55">
     <path d="M 588.91625 161.38875 
L 604.91625 161.38875 
L 604.91625 155.78875 
L 588.91625 155.78875 
z
" style="fill:#c07e93;stroke:#c07e93;stroke-linejoin:miter;"/>
    </g>
    <g id="text_60">
     <!-- 21 -->
     <g transform="translate(611.31625 161.38875)scale(0.08 -0.08)">
      <use xlink:href="#DejaVuSans-50"/>
      <use x="63.623047" xlink:href="#DejaVuSans-49"/>
     </g>
    </g>
    <g id="patch_56">
     <path d="M 588.91625 173.13125 
L 604.91625 173.13125 
L 604.91625 167.53125 
L 588.91625 167.53125 
z
" style="fill:#bb7890;stroke:#bb7890;stroke-linejoin:miter;"/>
    </g>
    <g id="text_61">
     <!-- 22 -->
     <g transform="translate(611.31625 173.13125)scale(0.08 -0.08)">
      <use xlink:href="#DejaVuSans-50"/>
      <use x="63.623047" xlink:href="#DejaVuSans-50"/>
     </g>
    </g>
    <g id="patch_57">
     <path d="M 588.91625 184.87375 
L 604.91625 184.87375 
L 604.91625 179.27375 
L 588.91625 179.27375 
z
" style="fill:#b6728d;stroke:#b6728d;stroke-linejoin:miter;"/>
    </g>
    <g id="text_62">
     <!-- 26 -->
     <g transform="translate(611.31625 184.87375)scale(0.08 -0.08)">
      <use xlink:href="#DejaVuSans-50"/>
      <use x="63.623047" xlink:href="#DejaVuSans-54"/>
     </g>
    </g>
    <g id="patch_58">
     <path d="M 588.91625 196.61625 
L 604.91625 196.61625 
L 604.91625 191.01625 
L 588.91625 191.01625 
z
" style="fill:#b06c8a;stroke:#b06c8a;stroke-linejoin:miter;"/>
    </g>
    <g id="text_63">
     <!-- 32 -->
     <g transform="translate(611.31625 196.61625)scale(0.08 -0.08)">
      <use xlink:href="#DejaVuSans-51"/>
      <use x="63.623047" xlink:href="#DejaVuSans-50"/>
     </g>
    </g>
    <g id="patch_59">
     <path d="M 588.91625 208.35875 
L 604.91625 208.35875 
L 604.91625 202.75875 
L 588.91625 202.75875 
z
" style="fill:#aa6687;stroke:#aa6687;stroke-linejoin:miter;"/>
    </g>
    <g id="text_64">
     <!-- 33 -->
     <g transform="translate(611.31625 208.35875)scale(0.08 -0.08)">
      <use xlink:href="#DejaVuSans-51"/>
      <use x="63.623047" xlink:href="#DejaVuSans-51"/>
     </g>
    </g>
    <g id="patch_60">
     <path d="M 588.91625 220.10125 
L 604.91625 220.10125 
L 604.91625 214.50125 
L 588.91625 214.50125 
z
" style="fill:#a46184;stroke:#a46184;stroke-linejoin:miter;"/>
    </g>
    <g id="text_65">
     <!-- 37 -->
     <g transform="translate(611.31625 220.10125)scale(0.08 -0.08)">
      <defs>
       <path d="M 8.203125 72.90625 
L 55.078125 72.90625 
L 55.078125 68.703125 
L 28.609375 0 
L 18.3125 0 
L 43.21875 64.59375 
L 8.203125 64.59375 
z
" id="DejaVuSans-55"/>
      </defs>
      <use xlink:href="#DejaVuSans-51"/>
      <use x="63.623047" xlink:href="#DejaVuSans-55"/>
     </g>
    </g>
    <g id="patch_61">
     <path d="M 588.91625 231.84375 
L 604.91625 231.84375 
L 604.91625 226.24375 
L 588.91625 226.24375 
z
" style="fill:#9e5c81;stroke:#9e5c81;stroke-linejoin:miter;"/>
    </g>
    <g id="text_66">
     <!-- 40 -->
     <g transform="translate(611.31625 231.84375)scale(0.08 -0.08)">
      <use xlink:href="#DejaVuSans-52"/>
      <use x="63.623047" xlink:href="#DejaVuSans-48"/>
     </g>
    </g>
    <g id="patch_62">
     <path d="M 588.91625 243.58625 
L 604.91625 243.58625 
L 604.91625 237.98625 
L 588.91625 237.98625 
z
" style="fill:#99587f;stroke:#99587f;stroke-linejoin:miter;"/>
    </g>
    <g id="text_67">
     <!-- 42 -->
     <g transform="translate(611.31625 243.58625)scale(0.08 -0.08)">
      <use xlink:href="#DejaVuSans-52"/>
      <use x="63.623047" xlink:href="#DejaVuSans-50"/>
     </g>
    </g>
    <g id="patch_63">
     <path d="M 588.91625 255.32875 
L 604.91625 255.32875 
L 604.91625 249.72875 
L 588.91625 249.72875 
z
" style="fill:#92537b;stroke:#92537b;stroke-linejoin:miter;"/>
    </g>
    <g id="text_68">
     <!-- 66 -->
     <g transform="translate(611.31625 255.32875)scale(0.08 -0.08)">
      <use xlink:href="#DejaVuSans-54"/>
      <use x="63.623047" xlink:href="#DejaVuSans-54"/>
     </g>
    </g>
    <g id="patch_64">
     <path d="M 588.91625 267.07125 
L 604.91625 267.07125 
L 604.91625 261.47125 
L 588.91625 261.47125 
z
" style="fill:#8c4e78;stroke:#8c4e78;stroke-linejoin:miter;"/>
    </g>
    <g id="text_69">
     <!-- 71 -->
     <g transform="translate(611.31625 267.07125)scale(0.08 -0.08)">
      <use xlink:href="#DejaVuSans-55"/>
      <use x="63.623047" xlink:href="#DejaVuSans-49"/>
     </g>
    </g>
    <g id="patch_65">
     <path d="M 588.91625 278.81375 
L 604.91625 278.81375 
L 604.91625 273.21375 
L 588.91625 273.21375 
z
" style="fill:#854975;stroke:#854975;stroke-linejoin:miter;"/>
    </g>
    <g id="text_70">
     <!-- 77 -->
     <g transform="translate(611.31625 278.81375)scale(0.08 -0.08)">
      <use xlink:href="#DejaVuSans-55"/>
      <use x="63.623047" xlink:href="#DejaVuSans-55"/>
     </g>
    </g>
    <g id="patch_66">
     <path d="M 588.91625 290.55625 
L 604.91625 290.55625 
L 604.91625 284.95625 
L 588.91625 284.95625 
z
" style="fill:#7e4571;stroke:#7e4571;stroke-linejoin:miter;"/>
    </g>
    <g id="text_71">
     <!-- 78 -->
     <g transform="translate(611.31625 290.55625)scale(0.08 -0.08)">
      <use xlink:href="#DejaVuSans-55"/>
      <use x="63.623047" xlink:href="#DejaVuSans-56"/>
     </g>
    </g>
    <g id="patch_67">
     <path d="M 588.91625 302.29875 
L 604.91625 302.29875 
L 604.91625 296.69875 
L 588.91625 296.69875 
z
" style="fill:#77416e;stroke:#77416e;stroke-linejoin:miter;"/>
    </g>
    <g id="text_72">
     <!-- 116 -->
     <g transform="translate(611.31625 302.29875)scale(0.08 -0.08)">
      <use xlink:href="#DejaVuSans-49"/>
      <use x="63.623047" xlink:href="#DejaVuSans-49"/>
      <use x="127.246094" xlink:href="#DejaVuSans-54"/>
     </g>
    </g>
    <g id="patch_68">
     <path d="M 588.91625 314.04125 
L 604.91625 314.04125 
L 604.91625 308.44125 
L 588.91625 308.44125 
z
" style="fill:#6f3d6a;stroke:#6f3d6a;stroke-linejoin:miter;"/>
    </g>
    <g id="text_73">
     <!-- 140 -->
     <g transform="translate(611.31625 314.04125)scale(0.08 -0.08)">
      <use xlink:href="#DejaVuSans-49"/>
      <use x="63.623047" xlink:href="#DejaVuSans-52"/>
      <use x="127.246094" xlink:href="#DejaVuSans-48"/>
     </g>
    </g>
    <g id="patch_69">
     <path d="M 588.91625 325.78375 
L 604.91625 325.78375 
L 604.91625 320.18375 
L 588.91625 320.18375 
z
" style="fill:#683966;stroke:#683966;stroke-linejoin:miter;"/>
    </g>
    <g id="text_74">
     <!-- 169 -->
     <g transform="translate(611.31625 325.78375)scale(0.08 -0.08)">
      <use xlink:href="#DejaVuSans-49"/>
      <use x="63.623047" xlink:href="#DejaVuSans-54"/>
      <use x="127.246094" xlink:href="#DejaVuSans-57"/>
     </g>
    </g>
    <g id="patch_70">
     <path d="M 588.91625 337.52625 
L 604.91625 337.52625 
L 604.91625 331.92625 
L 588.91625 331.92625 
z
" style="fill:#613561;stroke:#613561;stroke-linejoin:miter;"/>
    </g>
    <g id="text_75">
     <!-- 201 -->
     <g transform="translate(611.31625 337.52625)scale(0.08 -0.08)">
      <use xlink:href="#DejaVuSans-50"/>
      <use x="63.623047" xlink:href="#DejaVuSans-48"/>
      <use x="127.246094" xlink:href="#DejaVuSans-49"/>
     </g>
    </g>
    <g id="patch_71">
     <path d="M 588.91625 349.26875 
L 604.91625 349.26875 
L 604.91625 343.66875 
L 588.91625 343.66875 
z
" style="fill:#5a315d;stroke:#5a315d;stroke-linejoin:miter;"/>
    </g>
    <g id="text_76">
     <!-- 211 -->
     <g transform="translate(611.31625 349.26875)scale(0.08 -0.08)">
      <use xlink:href="#DejaVuSans-50"/>
      <use x="63.623047" xlink:href="#DejaVuSans-49"/>
      <use x="127.246094" xlink:href="#DejaVuSans-49"/>
     </g>
    </g>
    <g id="patch_72">
     <path d="M 588.91625 361.01125 
L 604.91625 361.01125 
L 604.91625 355.41125 
L 588.91625 355.41125 
z
" style="fill:#532e58;stroke:#532e58;stroke-linejoin:miter;"/>
    </g>
    <g id="text_77">
     <!-- 276 -->
     <g transform="translate(611.31625 361.01125)scale(0.08 -0.08)">
      <use xlink:href="#DejaVuSans-50"/>
      <use x="63.623047" xlink:href="#DejaVuSans-55"/>
      <use x="127.246094" xlink:href="#DejaVuSans-54"/>
     </g>
    </g>
    <g id="patch_73">
     <path d="M 588.91625 372.75375 
L 604.91625 372.75375 
L 604.91625 367.15375 
L 588.91625 367.15375 
z
" style="fill:#4c2a53;stroke:#4c2a53;stroke-linejoin:miter;"/>
    </g>
    <g id="text_78">
     <!-- 350 -->
     <g transform="translate(611.31625 372.75375)scale(0.08 -0.08)">
      <use xlink:href="#DejaVuSans-51"/>
      <use x="63.623047" xlink:href="#DejaVuSans-53"/>
      <use x="127.246094" xlink:href="#DejaVuSans-48"/>
     </g>
    </g>
    <g id="patch_74">
     <path d="M 588.91625 384.49625 
L 604.91625 384.49625 
L 604.91625 378.89625 
L 588.91625 378.89625 
z
" style="fill:#45274e;stroke:#45274e;stroke-linejoin:miter;"/>
    </g>
    <g id="text_79">
     <!-- 402 -->
     <g transform="translate(611.31625 384.49625)scale(0.08 -0.08)">
      <use xlink:href="#DejaVuSans-52"/>
      <use x="63.623047" xlink:href="#DejaVuSans-48"/>
      <use x="127.246094" xlink:href="#DejaVuSans-50"/>
     </g>
    </g>
    <g id="patch_75">
     <path d="M 588.91625 396.23875 
L 604.91625 396.23875 
L 604.91625 390.63875 
L 588.91625 390.63875 
z
" style="fill:#3e2448;stroke:#3e2448;stroke-linejoin:miter;"/>
    </g>
    <g id="text_80">
     <!-- 404 -->
     <g transform="translate(611.31625 396.23875)scale(0.08 -0.08)">
      <use xlink:href="#DejaVuSans-52"/>
      <use x="63.623047" xlink:href="#DejaVuSans-48"/>
      <use x="127.246094" xlink:href="#DejaVuSans-52"/>
     </g>
    </g>
    <g id="patch_76">
     <path d="M 588.91625 407.98125 
L 604.91625 407.98125 
L 604.91625 402.38125 
L 588.91625 402.38125 
z
" style="fill:#372143;stroke:#372143;stroke-linejoin:miter;"/>
    </g>
    <g id="text_81">
     <!-- 466 -->
     <g transform="translate(611.31625 407.98125)scale(0.08 -0.08)">
      <use xlink:href="#DejaVuSans-52"/>
      <use x="63.623047" xlink:href="#DejaVuSans-54"/>
      <use x="127.246094" xlink:href="#DejaVuSans-54"/>
     </g>
    </g>
    <g id="patch_77">
     <path d="M 588.91625 419.72375 
L 604.91625 419.72375 
L 604.91625 414.12375 
L 588.91625 414.12375 
z
" style="fill:#311d3d;stroke:#311d3d;stroke-linejoin:miter;"/>
    </g>
    <g id="text_82">
     <!-- 472 -->
     <g transform="translate(611.31625 419.72375)scale(0.08 -0.08)">
      <use xlink:href="#DejaVuSans-52"/>
      <use x="63.623047" xlink:href="#DejaVuSans-55"/>
      <use x="127.246094" xlink:href="#DejaVuSans-50"/>
     </g>
    </g>
    <g id="patch_78">
     <path d="M 588.91625 431.46625 
L 604.91625 431.46625 
L 604.91625 425.86625 
L 588.91625 425.86625 
z
" style="fill:#2a1a37;stroke:#2a1a37;stroke-linejoin:miter;"/>
    </g>
    <g id="text_83">
     <!-- 1076 -->
     <g transform="translate(611.31625 431.46625)scale(0.08 -0.08)">
      <use xlink:href="#DejaVuSans-49"/>
      <use x="63.623047" xlink:href="#DejaVuSans-48"/>
      <use x="127.246094" xlink:href="#DejaVuSans-55"/>
      <use x="190.869141" xlink:href="#DejaVuSans-54"/>
     </g>
    </g>
    <g id="patch_79">
     <path d="M 588.91625 443.20875 
L 604.91625 443.20875 
L 604.91625 437.60875 
L 588.91625 437.60875 
z
" style="fill:#d3d3d3;stroke:#d3d3d3;stroke-linejoin:miter;"/>
    </g>
    <g id="text_84">
     <!-- Reported -->
     <g transform="translate(611.31625 443.20875)scale(0.08 -0.08)">
      <use xlink:href="#DejaVuSans-82"/>
      <use x="64.982422" xlink:href="#DejaVuSans-101"/>
      <use x="126.505859" xlink:href="#DejaVuSans-112"/>
      <use x="189.982422" xlink:href="#DejaVuSans-111"/>
      <use x="251.164062" xlink:href="#DejaVuSans-114"/>
      <use x="292.277344" xlink:href="#DejaVuSans-116"/>
      <use x="331.486328" xlink:href="#DejaVuSans-101"/>
      <use x="393.009766" xlink:href="#DejaVuSans-100"/>
     </g>
    </g>
   </g>
  </g>
 </g>
 <defs>
  <clipPath id="p1282779b7e">
   <rect height="443.52" width="502.2" x="152.8375" y="7.2"/>
  </clipPath>
 </defs>
</svg>
