<?xml version="1.0" encoding="utf-8" standalone="no"?>
<!DOCTYPE svg PUBLIC "-//W3C//DTD SVG 1.1//EN"
  "http://www.w3.org/Graphics/SVG/1.1/DTD/svg11.dtd">
<!-- Created with matplotlib (https://matplotlib.org/) -->
<svg height="298.620937pt" version="1.1" viewBox="0 0 1009.128125 298.620937" width="1009.128125pt" xmlns="http://www.w3.org/2000/svg" xmlns:xlink="http://www.w3.org/1999/xlink">
 <metadata>
  <rdf:RDF xmlns:cc="http://creativecommons.org/ns#" xmlns:dc="http://purl.org/dc/elements/1.1/" xmlns:rdf="http://www.w3.org/1999/02/22-rdf-syntax-ns#">
   <cc:Work>
    <dc:type rdf:resource="http://purl.org/dc/dcmitype/StillImage"/>
    <dc:date>2021-05-16T22:50:56.718730</dc:date>
    <dc:format>image/svg+xml</dc:format>
    <dc:creator>
     <cc:Agent>
      <dc:title>Matplotlib v3.3.3, https://matplotlib.org/</dc:title>
     </cc:Agent>
    </dc:creator>
   </cc:Work>
  </rdf:RDF>
 </metadata>
 <defs>
  <style type="text/css">*{stroke-linecap:butt;stroke-linejoin:round;}</style>
 </defs>
 <g id="figure_1">
  <g id="patch_1">
   <path d="M 0 298.620937 
L 1009.128125 298.620937 
L 1009.128125 0 
L 0 0 
z
" style="fill:#ffffff;"/>
  </g>
  <g id="axes_1">
   <g id="patch_2">
    <path d="M 53.328125 228.96 
L 1001.928125 228.96 
L 1001.928125 7.2 
L 53.328125 7.2 
z
" style="fill:#ffffff;"/>
   </g>
   <g id="matplotlib.axis_1">
    <g id="xtick_1">
     <g id="line2d_1">
      <defs>
       <path d="M 0 0 
L 0 3.5 
" id="me819a5a8a5" style="stroke:#000000;stroke-width:0.8;"/>
      </defs>
      <g>
       <use style="stroke:#000000;stroke-width:0.8;" x="115.275207" xlink:href="#me819a5a8a5" y="228.96"/>
      </g>
     </g>
     <g id="text_1">
      <!-- 2020-10 -->
      <g transform="translate(118.034582 277.742812)rotate(-90)scale(0.1 -0.1)">
       <defs>
        <path d="M 19.1875 8.296875 
L 53.609375 8.296875 
L 53.609375 0 
L 7.328125 0 
L 7.328125 8.296875 
Q 12.9375 14.109375 22.625 23.890625 
Q 32.328125 33.6875 34.8125 36.53125 
Q 39.546875 41.84375 41.421875 45.53125 
Q 43.3125 49.21875 43.3125 52.78125 
Q 43.3125 58.59375 39.234375 62.25 
Q 35.15625 65.921875 28.609375 65.921875 
Q 23.96875 65.921875 18.8125 64.3125 
Q 13.671875 62.703125 7.8125 59.421875 
L 7.8125 69.390625 
Q 13.765625 71.78125 18.9375 73 
Q 24.125 74.21875 28.421875 74.21875 
Q 39.75 74.21875 46.484375 68.546875 
Q 53.21875 62.890625 53.21875 53.421875 
Q 53.21875 48.921875 51.53125 44.890625 
Q 49.859375 40.875 45.40625 35.40625 
Q 44.1875 33.984375 37.640625 27.21875 
Q 31.109375 20.453125 19.1875 8.296875 
z
" id="DejaVuSans-50"/>
        <path d="M 31.78125 66.40625 
Q 24.171875 66.40625 20.328125 58.90625 
Q 16.5 51.421875 16.5 36.375 
Q 16.5 21.390625 20.328125 13.890625 
Q 24.171875 6.390625 31.78125 6.390625 
Q 39.453125 6.390625 43.28125 13.890625 
Q 47.125 21.390625 47.125 36.375 
Q 47.125 51.421875 43.28125 58.90625 
Q 39.453125 66.40625 31.78125 66.40625 
z
M 31.78125 74.21875 
Q 44.046875 74.21875 50.515625 64.515625 
Q 56.984375 54.828125 56.984375 36.375 
Q 56.984375 17.96875 50.515625 8.265625 
Q 44.046875 -1.421875 31.78125 -1.421875 
Q 19.53125 -1.421875 13.0625 8.265625 
Q 6.59375 17.96875 6.59375 36.375 
Q 6.59375 54.828125 13.0625 64.515625 
Q 19.53125 74.21875 31.78125 74.21875 
z
" id="DejaVuSans-48"/>
        <path d="M 4.890625 31.390625 
L 31.203125 31.390625 
L 31.203125 23.390625 
L 4.890625 23.390625 
z
" id="DejaVuSans-45"/>
        <path d="M 12.40625 8.296875 
L 28.515625 8.296875 
L 28.515625 63.921875 
L 10.984375 60.40625 
L 10.984375 69.390625 
L 28.421875 72.90625 
L 38.28125 72.90625 
L 38.28125 8.296875 
L 54.390625 8.296875 
L 54.390625 0 
L 12.40625 0 
z
" id="DejaVuSans-49"/>
       </defs>
       <use xlink:href="#DejaVuSans-50"/>
       <use x="63.623047" xlink:href="#DejaVuSans-48"/>
       <use x="127.246094" xlink:href="#DejaVuSans-50"/>
       <use x="190.869141" xlink:href="#DejaVuSans-48"/>
       <use x="254.492188" xlink:href="#DejaVuSans-45"/>
       <use x="290.576172" xlink:href="#DejaVuSans-49"/>
       <use x="354.199219" xlink:href="#DejaVuSans-48"/>
      </g>
     </g>
    </g>
    <g id="xtick_2">
     <g id="line2d_2">
      <g>
       <use style="stroke:#000000;stroke-width:0.8;" x="232.014389" xlink:href="#me819a5a8a5" y="228.96"/>
      </g>
     </g>
     <g id="text_2">
      <!-- 2020-11 -->
      <g transform="translate(234.773764 277.742812)rotate(-90)scale(0.1 -0.1)">
       <use xlink:href="#DejaVuSans-50"/>
       <use x="63.623047" xlink:href="#DejaVuSans-48"/>
       <use x="127.246094" xlink:href="#DejaVuSans-50"/>
       <use x="190.869141" xlink:href="#DejaVuSans-48"/>
       <use x="254.492188" xlink:href="#DejaVuSans-45"/>
       <use x="290.576172" xlink:href="#DejaVuSans-49"/>
       <use x="354.199219" xlink:href="#DejaVuSans-49"/>
      </g>
     </g>
    </g>
    <g id="xtick_3">
     <g id="line2d_3">
      <g>
       <use style="stroke:#000000;stroke-width:0.8;" x="344.987792" xlink:href="#me819a5a8a5" y="228.96"/>
      </g>
     </g>
     <g id="text_3">
      <!-- 2020-12 -->
      <g transform="translate(347.747167 277.742812)rotate(-90)scale(0.1 -0.1)">
       <use xlink:href="#DejaVuSans-50"/>
       <use x="63.623047" xlink:href="#DejaVuSans-48"/>
       <use x="127.246094" xlink:href="#DejaVuSans-50"/>
       <use x="190.869141" xlink:href="#DejaVuSans-48"/>
       <use x="254.492188" xlink:href="#DejaVuSans-45"/>
       <use x="290.576172" xlink:href="#DejaVuSans-49"/>
       <use x="354.199219" xlink:href="#DejaVuSans-50"/>
      </g>
     </g>
    </g>
    <g id="xtick_4">
     <g id="line2d_4">
      <g>
       <use style="stroke:#000000;stroke-width:0.8;" x="461.726974" xlink:href="#me819a5a8a5" y="228.96"/>
      </g>
     </g>
     <g id="text_4">
      <!-- 2021-01 -->
      <g transform="translate(464.486349 277.742812)rotate(-90)scale(0.1 -0.1)">
       <use xlink:href="#DejaVuSans-50"/>
       <use x="63.623047" xlink:href="#DejaVuSans-48"/>
       <use x="127.246094" xlink:href="#DejaVuSans-50"/>
       <use x="190.869141" xlink:href="#DejaVuSans-49"/>
       <use x="254.492188" xlink:href="#DejaVuSans-45"/>
       <use x="290.576172" xlink:href="#DejaVuSans-48"/>
       <use x="354.199219" xlink:href="#DejaVuSans-49"/>
      </g>
     </g>
    </g>
    <g id="xtick_5">
     <g id="line2d_5">
      <g>
       <use style="stroke:#000000;stroke-width:0.8;" x="578.466156" xlink:href="#me819a5a8a5" y="228.96"/>
      </g>
     </g>
     <g id="text_5">
      <!-- 2021-02 -->
      <g transform="translate(581.225531 277.742812)rotate(-90)scale(0.1 -0.1)">
       <use xlink:href="#DejaVuSans-50"/>
       <use x="63.623047" xlink:href="#DejaVuSans-48"/>
       <use x="127.246094" xlink:href="#DejaVuSans-50"/>
       <use x="190.869141" xlink:href="#DejaVuSans-49"/>
       <use x="254.492188" xlink:href="#DejaVuSans-45"/>
       <use x="290.576172" xlink:href="#DejaVuSans-48"/>
       <use x="354.199219" xlink:href="#DejaVuSans-50"/>
      </g>
     </g>
    </g>
    <g id="xtick_6">
     <g id="line2d_6">
      <g>
       <use style="stroke:#000000;stroke-width:0.8;" x="683.907998" xlink:href="#me819a5a8a5" y="228.96"/>
      </g>
     </g>
     <g id="text_6">
      <!-- 2021-03 -->
      <g transform="translate(686.667373 277.742812)rotate(-90)scale(0.1 -0.1)">
       <defs>
        <path d="M 40.578125 39.3125 
Q 47.65625 37.796875 51.625 33 
Q 55.609375 28.21875 55.609375 21.1875 
Q 55.609375 10.40625 48.1875 4.484375 
Q 40.765625 -1.421875 27.09375 -1.421875 
Q 22.515625 -1.421875 17.65625 -0.515625 
Q 12.796875 0.390625 7.625 2.203125 
L 7.625 11.71875 
Q 11.71875 9.328125 16.59375 8.109375 
Q 21.484375 6.890625 26.8125 6.890625 
Q 36.078125 6.890625 40.9375 10.546875 
Q 45.796875 14.203125 45.796875 21.1875 
Q 45.796875 27.640625 41.28125 31.265625 
Q 36.765625 34.90625 28.71875 34.90625 
L 20.21875 34.90625 
L 20.21875 43.015625 
L 29.109375 43.015625 
Q 36.375 43.015625 40.234375 45.921875 
Q 44.09375 48.828125 44.09375 54.296875 
Q 44.09375 59.90625 40.109375 62.90625 
Q 36.140625 65.921875 28.71875 65.921875 
Q 24.65625 65.921875 20.015625 65.03125 
Q 15.375 64.15625 9.8125 62.3125 
L 9.8125 71.09375 
Q 15.4375 72.65625 20.34375 73.4375 
Q 25.25 74.21875 29.59375 74.21875 
Q 40.828125 74.21875 47.359375 69.109375 
Q 53.90625 64.015625 53.90625 55.328125 
Q 53.90625 49.265625 50.4375 45.09375 
Q 46.96875 40.921875 40.578125 39.3125 
z
" id="DejaVuSans-51"/>
       </defs>
       <use xlink:href="#DejaVuSans-50"/>
       <use x="63.623047" xlink:href="#DejaVuSans-48"/>
       <use x="127.246094" xlink:href="#DejaVuSans-50"/>
       <use x="190.869141" xlink:href="#DejaVuSans-49"/>
       <use x="254.492188" xlink:href="#DejaVuSans-45"/>
       <use x="290.576172" xlink:href="#DejaVuSans-48"/>
       <use x="354.199219" xlink:href="#DejaVuSans-51"/>
      </g>
     </g>
    </g>
    <g id="xtick_7">
     <g id="line2d_7">
      <g>
       <use style="stroke:#000000;stroke-width:0.8;" x="800.64718" xlink:href="#me819a5a8a5" y="228.96"/>
      </g>
     </g>
     <g id="text_7">
      <!-- 2021-04 -->
      <g transform="translate(803.406555 277.742812)rotate(-90)scale(0.1 -0.1)">
       <defs>
        <path d="M 37.796875 64.3125 
L 12.890625 25.390625 
L 37.796875 25.390625 
z
M 35.203125 72.90625 
L 47.609375 72.90625 
L 47.609375 25.390625 
L 58.015625 25.390625 
L 58.015625 17.1875 
L 47.609375 17.1875 
L 47.609375 0 
L 37.796875 0 
L 37.796875 17.1875 
L 4.890625 17.1875 
L 4.890625 26.703125 
z
" id="DejaVuSans-52"/>
       </defs>
       <use xlink:href="#DejaVuSans-50"/>
       <use x="63.623047" xlink:href="#DejaVuSans-48"/>
       <use x="127.246094" xlink:href="#DejaVuSans-50"/>
       <use x="190.869141" xlink:href="#DejaVuSans-49"/>
       <use x="254.492188" xlink:href="#DejaVuSans-45"/>
       <use x="290.576172" xlink:href="#DejaVuSans-48"/>
       <use x="354.199219" xlink:href="#DejaVuSans-52"/>
      </g>
     </g>
    </g>
    <g id="xtick_8">
     <g id="line2d_8">
      <g>
       <use style="stroke:#000000;stroke-width:0.8;" x="913.620582" xlink:href="#me819a5a8a5" y="228.96"/>
      </g>
     </g>
     <g id="text_8">
      <!-- 2021-05 -->
      <g transform="translate(916.379957 277.742812)rotate(-90)scale(0.1 -0.1)">
       <defs>
        <path d="M 10.796875 72.90625 
L 49.515625 72.90625 
L 49.515625 64.59375 
L 19.828125 64.59375 
L 19.828125 46.734375 
Q 21.96875 47.46875 24.109375 47.828125 
Q 26.265625 48.1875 28.421875 48.1875 
Q 40.625 48.1875 47.75 41.5 
Q 54.890625 34.8125 54.890625 23.390625 
Q 54.890625 11.625 47.5625 5.09375 
Q 40.234375 -1.421875 26.90625 -1.421875 
Q 22.3125 -1.421875 17.546875 -0.640625 
Q 12.796875 0.140625 7.71875 1.703125 
L 7.71875 11.625 
Q 12.109375 9.234375 16.796875 8.0625 
Q 21.484375 6.890625 26.703125 6.890625 
Q 35.15625 6.890625 40.078125 11.328125 
Q 45.015625 15.765625 45.015625 23.390625 
Q 45.015625 31 40.078125 35.4375 
Q 35.15625 39.890625 26.703125 39.890625 
Q 22.75 39.890625 18.8125 39.015625 
Q 14.890625 38.140625 10.796875 36.28125 
z
" id="DejaVuSans-53"/>
       </defs>
       <use xlink:href="#DejaVuSans-50"/>
       <use x="63.623047" xlink:href="#DejaVuSans-48"/>
       <use x="127.246094" xlink:href="#DejaVuSans-50"/>
       <use x="190.869141" xlink:href="#DejaVuSans-49"/>
       <use x="254.492188" xlink:href="#DejaVuSans-45"/>
       <use x="290.576172" xlink:href="#DejaVuSans-48"/>
       <use x="354.199219" xlink:href="#DejaVuSans-53"/>
      </g>
     </g>
    </g>
    <g id="text_9">
     <!-- Date -->
     <g transform="translate(515.677344 289.34125)scale(0.1 -0.1)">
      <defs>
       <path d="M 19.671875 64.796875 
L 19.671875 8.109375 
L 31.59375 8.109375 
Q 46.6875 8.109375 53.6875 14.9375 
Q 60.6875 21.78125 60.6875 36.53125 
Q 60.6875 51.171875 53.6875 57.984375 
Q 46.6875 64.796875 31.59375 64.796875 
z
M 9.8125 72.90625 
L 30.078125 72.90625 
Q 51.265625 72.90625 61.171875 64.09375 
Q 71.09375 55.28125 71.09375 36.53125 
Q 71.09375 17.671875 61.125 8.828125 
Q 51.171875 0 30.078125 0 
L 9.8125 0 
z
" id="DejaVuSans-68"/>
       <path d="M 34.28125 27.484375 
Q 23.390625 27.484375 19.1875 25 
Q 14.984375 22.515625 14.984375 16.5 
Q 14.984375 11.71875 18.140625 8.90625 
Q 21.296875 6.109375 26.703125 6.109375 
Q 34.1875 6.109375 38.703125 11.40625 
Q 43.21875 16.703125 43.21875 25.484375 
L 43.21875 27.484375 
z
M 52.203125 31.203125 
L 52.203125 0 
L 43.21875 0 
L 43.21875 8.296875 
Q 40.140625 3.328125 35.546875 0.953125 
Q 30.953125 -1.421875 24.3125 -1.421875 
Q 15.921875 -1.421875 10.953125 3.296875 
Q 6 8.015625 6 15.921875 
Q 6 25.140625 12.171875 29.828125 
Q 18.359375 34.515625 30.609375 34.515625 
L 43.21875 34.515625 
L 43.21875 35.40625 
Q 43.21875 41.609375 39.140625 45 
Q 35.0625 48.390625 27.6875 48.390625 
Q 23 48.390625 18.546875 47.265625 
Q 14.109375 46.140625 10.015625 43.890625 
L 10.015625 52.203125 
Q 14.9375 54.109375 19.578125 55.046875 
Q 24.21875 56 28.609375 56 
Q 40.484375 56 46.34375 49.84375 
Q 52.203125 43.703125 52.203125 31.203125 
z
" id="DejaVuSans-97"/>
       <path d="M 18.3125 70.21875 
L 18.3125 54.6875 
L 36.8125 54.6875 
L 36.8125 47.703125 
L 18.3125 47.703125 
L 18.3125 18.015625 
Q 18.3125 11.328125 20.140625 9.421875 
Q 21.96875 7.515625 27.59375 7.515625 
L 36.8125 7.515625 
L 36.8125 0 
L 27.59375 0 
Q 17.1875 0 13.234375 3.875 
Q 9.28125 7.765625 9.28125 18.015625 
L 9.28125 47.703125 
L 2.6875 47.703125 
L 2.6875 54.6875 
L 9.28125 54.6875 
L 9.28125 70.21875 
z
" id="DejaVuSans-116"/>
       <path d="M 56.203125 29.59375 
L 56.203125 25.203125 
L 14.890625 25.203125 
Q 15.484375 15.921875 20.484375 11.0625 
Q 25.484375 6.203125 34.421875 6.203125 
Q 39.59375 6.203125 44.453125 7.46875 
Q 49.3125 8.734375 54.109375 11.28125 
L 54.109375 2.78125 
Q 49.265625 0.734375 44.1875 -0.34375 
Q 39.109375 -1.421875 33.890625 -1.421875 
Q 20.796875 -1.421875 13.15625 6.1875 
Q 5.515625 13.8125 5.515625 26.8125 
Q 5.515625 40.234375 12.765625 48.109375 
Q 20.015625 56 32.328125 56 
Q 43.359375 56 49.78125 48.890625 
Q 56.203125 41.796875 56.203125 29.59375 
z
M 47.21875 32.234375 
Q 47.125 39.59375 43.09375 43.984375 
Q 39.0625 48.390625 32.421875 48.390625 
Q 24.90625 48.390625 20.390625 44.140625 
Q 15.875 39.890625 15.1875 32.171875 
z
" id="DejaVuSans-101"/>
      </defs>
      <use xlink:href="#DejaVuSans-68"/>
      <use x="77.001953" xlink:href="#DejaVuSans-97"/>
      <use x="138.28125" xlink:href="#DejaVuSans-116"/>
      <use x="177.490234" xlink:href="#DejaVuSans-101"/>
     </g>
    </g>
   </g>
   <g id="matplotlib.axis_2">
    <g id="ytick_1">
     <g id="line2d_9">
      <defs>
       <path d="M 0 0 
L -3.5 0 
" id="mbe8d93dde0" style="stroke:#000000;stroke-width:0.8;"/>
      </defs>
      <g>
       <use style="stroke:#000000;stroke-width:0.8;" x="53.328125" xlink:href="#mbe8d93dde0" y="228.96"/>
      </g>
     </g>
     <g id="text_10">
      <!-- 1 -->
      <g transform="translate(39.965625 232.759219)scale(0.1 -0.1)">
       <use xlink:href="#DejaVuSans-49"/>
      </g>
     </g>
    </g>
    <g id="ytick_2">
     <g id="line2d_10">
      <g>
       <use style="stroke:#000000;stroke-width:0.8;" x="53.328125" xlink:href="#mbe8d93dde0" y="199.617445"/>
      </g>
     </g>
     <g id="text_11">
      <!-- 3 -->
      <g transform="translate(39.965625 203.416664)scale(0.1 -0.1)">
       <use xlink:href="#DejaVuSans-51"/>
      </g>
     </g>
    </g>
    <g id="ytick_3">
     <g id="line2d_11">
      <g>
       <use style="stroke:#000000;stroke-width:0.8;" x="53.328125" xlink:href="#mbe8d93dde0" y="170.274891"/>
      </g>
     </g>
     <g id="text_12">
      <!-- 10 -->
      <g transform="translate(33.603125 174.074109)scale(0.1 -0.1)">
       <use xlink:href="#DejaVuSans-49"/>
       <use x="63.623047" xlink:href="#DejaVuSans-48"/>
      </g>
     </g>
    </g>
    <g id="ytick_4">
     <g id="line2d_12">
      <g>
       <use style="stroke:#000000;stroke-width:0.8;" x="53.328125" xlink:href="#mbe8d93dde0" y="140.932336"/>
      </g>
     </g>
     <g id="text_13">
      <!-- 31 -->
      <g transform="translate(33.603125 144.731555)scale(0.1 -0.1)">
       <use xlink:href="#DejaVuSans-51"/>
       <use x="63.623047" xlink:href="#DejaVuSans-49"/>
      </g>
     </g>
    </g>
    <g id="ytick_5">
     <g id="line2d_13">
      <g>
       <use style="stroke:#000000;stroke-width:0.8;" x="53.328125" xlink:href="#mbe8d93dde0" y="111.589781"/>
      </g>
     </g>
     <g id="text_14">
      <!-- 100 -->
      <g transform="translate(27.240625 115.389)scale(0.1 -0.1)">
       <use xlink:href="#DejaVuSans-49"/>
       <use x="63.623047" xlink:href="#DejaVuSans-48"/>
       <use x="127.246094" xlink:href="#DejaVuSans-48"/>
      </g>
     </g>
    </g>
    <g id="ytick_6">
     <g id="line2d_14">
      <g>
       <use style="stroke:#000000;stroke-width:0.8;" x="53.328125" xlink:href="#mbe8d93dde0" y="82.247226"/>
      </g>
     </g>
     <g id="text_15">
      <!-- 316 -->
      <g transform="translate(27.240625 86.046445)scale(0.1 -0.1)">
       <defs>
        <path d="M 33.015625 40.375 
Q 26.375 40.375 22.484375 35.828125 
Q 18.609375 31.296875 18.609375 23.390625 
Q 18.609375 15.53125 22.484375 10.953125 
Q 26.375 6.390625 33.015625 6.390625 
Q 39.65625 6.390625 43.53125 10.953125 
Q 47.40625 15.53125 47.40625 23.390625 
Q 47.40625 31.296875 43.53125 35.828125 
Q 39.65625 40.375 33.015625 40.375 
z
M 52.59375 71.296875 
L 52.59375 62.3125 
Q 48.875 64.0625 45.09375 64.984375 
Q 41.3125 65.921875 37.59375 65.921875 
Q 27.828125 65.921875 22.671875 59.328125 
Q 17.53125 52.734375 16.796875 39.40625 
Q 19.671875 43.65625 24.015625 45.921875 
Q 28.375 48.1875 33.59375 48.1875 
Q 44.578125 48.1875 50.953125 41.515625 
Q 57.328125 34.859375 57.328125 23.390625 
Q 57.328125 12.15625 50.6875 5.359375 
Q 44.046875 -1.421875 33.015625 -1.421875 
Q 20.359375 -1.421875 13.671875 8.265625 
Q 6.984375 17.96875 6.984375 36.375 
Q 6.984375 53.65625 15.1875 63.9375 
Q 23.390625 74.21875 37.203125 74.21875 
Q 40.921875 74.21875 44.703125 73.484375 
Q 48.484375 72.75 52.59375 71.296875 
z
" id="DejaVuSans-54"/>
       </defs>
       <use xlink:href="#DejaVuSans-51"/>
       <use x="63.623047" xlink:href="#DejaVuSans-49"/>
       <use x="127.246094" xlink:href="#DejaVuSans-54"/>
      </g>
     </g>
    </g>
    <g id="ytick_7">
     <g id="line2d_15">
      <g>
       <use style="stroke:#000000;stroke-width:0.8;" x="53.328125" xlink:href="#mbe8d93dde0" y="52.904672"/>
      </g>
     </g>
     <g id="text_16">
      <!-- 1000 -->
      <g transform="translate(20.878125 56.70389)scale(0.1 -0.1)">
       <use xlink:href="#DejaVuSans-49"/>
       <use x="63.623047" xlink:href="#DejaVuSans-48"/>
       <use x="127.246094" xlink:href="#DejaVuSans-48"/>
       <use x="190.869141" xlink:href="#DejaVuSans-48"/>
      </g>
     </g>
    </g>
    <g id="ytick_8">
     <g id="line2d_16">
      <g>
       <use style="stroke:#000000;stroke-width:0.8;" x="53.328125" xlink:href="#mbe8d93dde0" y="23.562117"/>
      </g>
     </g>
     <g id="text_17">
      <!-- 3162 -->
      <g transform="translate(20.878125 27.361336)scale(0.1 -0.1)">
       <use xlink:href="#DejaVuSans-51"/>
       <use x="63.623047" xlink:href="#DejaVuSans-49"/>
       <use x="127.246094" xlink:href="#DejaVuSans-54"/>
       <use x="190.869141" xlink:href="#DejaVuSans-50"/>
      </g>
     </g>
    </g>
    <g id="text_18">
     <!-- Count (7 day rolling average) -->
     <g transform="translate(14.798438 191.547969)rotate(-90)scale(0.1 -0.1)">
      <defs>
       <path d="M 64.40625 67.28125 
L 64.40625 56.890625 
Q 59.421875 61.53125 53.78125 63.8125 
Q 48.140625 66.109375 41.796875 66.109375 
Q 29.296875 66.109375 22.65625 58.46875 
Q 16.015625 50.828125 16.015625 36.375 
Q 16.015625 21.96875 22.65625 14.328125 
Q 29.296875 6.6875 41.796875 6.6875 
Q 48.140625 6.6875 53.78125 8.984375 
Q 59.421875 11.28125 64.40625 15.921875 
L 64.40625 5.609375 
Q 59.234375 2.09375 53.4375 0.328125 
Q 47.65625 -1.421875 41.21875 -1.421875 
Q 24.65625 -1.421875 15.125 8.703125 
Q 5.609375 18.84375 5.609375 36.375 
Q 5.609375 53.953125 15.125 64.078125 
Q 24.65625 74.21875 41.21875 74.21875 
Q 47.75 74.21875 53.53125 72.484375 
Q 59.328125 70.75 64.40625 67.28125 
z
" id="DejaVuSans-67"/>
       <path d="M 30.609375 48.390625 
Q 23.390625 48.390625 19.1875 42.75 
Q 14.984375 37.109375 14.984375 27.296875 
Q 14.984375 17.484375 19.15625 11.84375 
Q 23.34375 6.203125 30.609375 6.203125 
Q 37.796875 6.203125 41.984375 11.859375 
Q 46.1875 17.53125 46.1875 27.296875 
Q 46.1875 37.015625 41.984375 42.703125 
Q 37.796875 48.390625 30.609375 48.390625 
z
M 30.609375 56 
Q 42.328125 56 49.015625 48.375 
Q 55.71875 40.765625 55.71875 27.296875 
Q 55.71875 13.875 49.015625 6.21875 
Q 42.328125 -1.421875 30.609375 -1.421875 
Q 18.84375 -1.421875 12.171875 6.21875 
Q 5.515625 13.875 5.515625 27.296875 
Q 5.515625 40.765625 12.171875 48.375 
Q 18.84375 56 30.609375 56 
z
" id="DejaVuSans-111"/>
       <path d="M 8.5 21.578125 
L 8.5 54.6875 
L 17.484375 54.6875 
L 17.484375 21.921875 
Q 17.484375 14.15625 20.5 10.265625 
Q 23.53125 6.390625 29.59375 6.390625 
Q 36.859375 6.390625 41.078125 11.03125 
Q 45.3125 15.671875 45.3125 23.6875 
L 45.3125 54.6875 
L 54.296875 54.6875 
L 54.296875 0 
L 45.3125 0 
L 45.3125 8.40625 
Q 42.046875 3.421875 37.71875 1 
Q 33.40625 -1.421875 27.6875 -1.421875 
Q 18.265625 -1.421875 13.375 4.4375 
Q 8.5 10.296875 8.5 21.578125 
z
M 31.109375 56 
z
" id="DejaVuSans-117"/>
       <path d="M 54.890625 33.015625 
L 54.890625 0 
L 45.90625 0 
L 45.90625 32.71875 
Q 45.90625 40.484375 42.875 44.328125 
Q 39.84375 48.1875 33.796875 48.1875 
Q 26.515625 48.1875 22.3125 43.546875 
Q 18.109375 38.921875 18.109375 30.90625 
L 18.109375 0 
L 9.078125 0 
L 9.078125 54.6875 
L 18.109375 54.6875 
L 18.109375 46.1875 
Q 21.34375 51.125 25.703125 53.5625 
Q 30.078125 56 35.796875 56 
Q 45.21875 56 50.046875 50.171875 
Q 54.890625 44.34375 54.890625 33.015625 
z
" id="DejaVuSans-110"/>
       <path id="DejaVuSans-32"/>
       <path d="M 31 75.875 
Q 24.46875 64.65625 21.28125 53.65625 
Q 18.109375 42.671875 18.109375 31.390625 
Q 18.109375 20.125 21.3125 9.0625 
Q 24.515625 -2 31 -13.1875 
L 23.1875 -13.1875 
Q 15.875 -1.703125 12.234375 9.375 
Q 8.59375 20.453125 8.59375 31.390625 
Q 8.59375 42.28125 12.203125 53.3125 
Q 15.828125 64.359375 23.1875 75.875 
z
" id="DejaVuSans-40"/>
       <path d="M 8.203125 72.90625 
L 55.078125 72.90625 
L 55.078125 68.703125 
L 28.609375 0 
L 18.3125 0 
L 43.21875 64.59375 
L 8.203125 64.59375 
z
" id="DejaVuSans-55"/>
       <path d="M 45.40625 46.390625 
L 45.40625 75.984375 
L 54.390625 75.984375 
L 54.390625 0 
L 45.40625 0 
L 45.40625 8.203125 
Q 42.578125 3.328125 38.25 0.953125 
Q 33.9375 -1.421875 27.875 -1.421875 
Q 17.96875 -1.421875 11.734375 6.484375 
Q 5.515625 14.40625 5.515625 27.296875 
Q 5.515625 40.1875 11.734375 48.09375 
Q 17.96875 56 27.875 56 
Q 33.9375 56 38.25 53.625 
Q 42.578125 51.265625 45.40625 46.390625 
z
M 14.796875 27.296875 
Q 14.796875 17.390625 18.875 11.75 
Q 22.953125 6.109375 30.078125 6.109375 
Q 37.203125 6.109375 41.296875 11.75 
Q 45.40625 17.390625 45.40625 27.296875 
Q 45.40625 37.203125 41.296875 42.84375 
Q 37.203125 48.484375 30.078125 48.484375 
Q 22.953125 48.484375 18.875 42.84375 
Q 14.796875 37.203125 14.796875 27.296875 
z
" id="DejaVuSans-100"/>
       <path d="M 32.171875 -5.078125 
Q 28.375 -14.84375 24.75 -17.8125 
Q 21.140625 -20.796875 15.09375 -20.796875 
L 7.90625 -20.796875 
L 7.90625 -13.28125 
L 13.1875 -13.28125 
Q 16.890625 -13.28125 18.9375 -11.515625 
Q 21 -9.765625 23.484375 -3.21875 
L 25.09375 0.875 
L 2.984375 54.6875 
L 12.5 54.6875 
L 29.59375 11.921875 
L 46.6875 54.6875 
L 56.203125 54.6875 
z
" id="DejaVuSans-121"/>
       <path d="M 41.109375 46.296875 
Q 39.59375 47.171875 37.8125 47.578125 
Q 36.03125 48 33.890625 48 
Q 26.265625 48 22.1875 43.046875 
Q 18.109375 38.09375 18.109375 28.8125 
L 18.109375 0 
L 9.078125 0 
L 9.078125 54.6875 
L 18.109375 54.6875 
L 18.109375 46.1875 
Q 20.953125 51.171875 25.484375 53.578125 
Q 30.03125 56 36.53125 56 
Q 37.453125 56 38.578125 55.875 
Q 39.703125 55.765625 41.0625 55.515625 
z
" id="DejaVuSans-114"/>
       <path d="M 9.421875 75.984375 
L 18.40625 75.984375 
L 18.40625 0 
L 9.421875 0 
z
" id="DejaVuSans-108"/>
       <path d="M 9.421875 54.6875 
L 18.40625 54.6875 
L 18.40625 0 
L 9.421875 0 
z
M 9.421875 75.984375 
L 18.40625 75.984375 
L 18.40625 64.59375 
L 9.421875 64.59375 
z
" id="DejaVuSans-105"/>
       <path d="M 45.40625 27.984375 
Q 45.40625 37.75 41.375 43.109375 
Q 37.359375 48.484375 30.078125 48.484375 
Q 22.859375 48.484375 18.828125 43.109375 
Q 14.796875 37.75 14.796875 27.984375 
Q 14.796875 18.265625 18.828125 12.890625 
Q 22.859375 7.515625 30.078125 7.515625 
Q 37.359375 7.515625 41.375 12.890625 
Q 45.40625 18.265625 45.40625 27.984375 
z
M 54.390625 6.78125 
Q 54.390625 -7.171875 48.1875 -13.984375 
Q 42 -20.796875 29.203125 -20.796875 
Q 24.46875 -20.796875 20.265625 -20.09375 
Q 16.0625 -19.390625 12.109375 -17.921875 
L 12.109375 -9.1875 
Q 16.0625 -11.328125 19.921875 -12.34375 
Q 23.78125 -13.375 27.78125 -13.375 
Q 36.625 -13.375 41.015625 -8.765625 
Q 45.40625 -4.15625 45.40625 5.171875 
L 45.40625 9.625 
Q 42.625 4.78125 38.28125 2.390625 
Q 33.9375 0 27.875 0 
Q 17.828125 0 11.671875 7.65625 
Q 5.515625 15.328125 5.515625 27.984375 
Q 5.515625 40.671875 11.671875 48.328125 
Q 17.828125 56 27.875 56 
Q 33.9375 56 38.28125 53.609375 
Q 42.625 51.21875 45.40625 46.390625 
L 45.40625 54.6875 
L 54.390625 54.6875 
z
" id="DejaVuSans-103"/>
       <path d="M 2.984375 54.6875 
L 12.5 54.6875 
L 29.59375 8.796875 
L 46.6875 54.6875 
L 56.203125 54.6875 
L 35.6875 0 
L 23.484375 0 
z
" id="DejaVuSans-118"/>
       <path d="M 8.015625 75.875 
L 15.828125 75.875 
Q 23.140625 64.359375 26.78125 53.3125 
Q 30.421875 42.28125 30.421875 31.390625 
Q 30.421875 20.453125 26.78125 9.375 
Q 23.140625 -1.703125 15.828125 -13.1875 
L 8.015625 -13.1875 
Q 14.5 -2 17.703125 9.0625 
Q 20.90625 20.125 20.90625 31.390625 
Q 20.90625 42.671875 17.703125 53.65625 
Q 14.5 64.65625 8.015625 75.875 
z
" id="DejaVuSans-41"/>
      </defs>
      <use xlink:href="#DejaVuSans-67"/>
      <use x="69.824219" xlink:href="#DejaVuSans-111"/>
      <use x="131.005859" xlink:href="#DejaVuSans-117"/>
      <use x="194.384766" xlink:href="#DejaVuSans-110"/>
      <use x="257.763672" xlink:href="#DejaVuSans-116"/>
      <use x="296.972656" xlink:href="#DejaVuSans-32"/>
      <use x="328.759766" xlink:href="#DejaVuSans-40"/>
      <use x="367.773438" xlink:href="#DejaVuSans-55"/>
      <use x="431.396484" xlink:href="#DejaVuSans-32"/>
      <use x="463.183594" xlink:href="#DejaVuSans-100"/>
      <use x="526.660156" xlink:href="#DejaVuSans-97"/>
      <use x="587.939453" xlink:href="#DejaVuSans-121"/>
      <use x="647.119141" xlink:href="#DejaVuSans-32"/>
      <use x="678.90625" xlink:href="#DejaVuSans-114"/>
      <use x="717.769531" xlink:href="#DejaVuSans-111"/>
      <use x="778.951172" xlink:href="#DejaVuSans-108"/>
      <use x="806.734375" xlink:href="#DejaVuSans-108"/>
      <use x="834.517578" xlink:href="#DejaVuSans-105"/>
      <use x="862.300781" xlink:href="#DejaVuSans-110"/>
      <use x="925.679688" xlink:href="#DejaVuSans-103"/>
      <use x="989.15625" xlink:href="#DejaVuSans-32"/>
      <use x="1020.943359" xlink:href="#DejaVuSans-97"/>
      <use x="1082.222656" xlink:href="#DejaVuSans-118"/>
      <use x="1141.402344" xlink:href="#DejaVuSans-101"/>
      <use x="1202.925781" xlink:href="#DejaVuSans-114"/>
      <use x="1244.039062" xlink:href="#DejaVuSans-97"/>
      <use x="1305.318359" xlink:href="#DejaVuSans-103"/>
      <use x="1368.794922" xlink:href="#DejaVuSans-101"/>
      <use x="1430.318359" xlink:href="#DejaVuSans-41"/>
     </g>
    </g>
   </g>
   <g id="line2d_17">
    <path clip-path="url(#pe9d56412ce)" d="M 265.90641 219.869562 
L 269.67219 222.554845 
L 280.96953 222.554845 
L 284.73531 228.96 
L 296.032651 228.96 
L 299.798431 225.556736 
L 314.861551 225.556736 
L 318.627331 222.554845 
L 322.393111 222.554845 
L 326.158891 225.556736 
L 341.222011 225.556736 
L 344.987792 228.96 
L 375.114032 228.96 
L 378.879812 225.556736 
L 382.645592 222.554845 
L 393.942932 222.554845 
L 397.708713 217.440427 
L 401.474493 217.440427 
L 405.240273 213.182783 
L 409.006053 211.294022 
L 412.771833 209.535627 
L 416.537613 202.203583 
L 420.303393 195.516805 
L 424.069173 196.516409 
L 427.834953 192.733684 
L 431.600733 192.733684 
L 435.366513 194.554932 
L 439.132293 182.694396 
L 442.898073 182.108471 
L 446.663853 177.850827 
L 450.429634 168.516495 
L 454.195414 163.869735 
L 457.961194 158.069538 
L 461.726974 156.326184 
L 465.492754 156.966049 
L 469.258534 153.916205 
L 473.024314 151.890932 
L 476.790094 149.68806 
L 480.555874 148.732199 
L 484.321654 147.51105 
L 488.087434 145.231398 
L 491.853214 145.368055 
L 495.618994 146.345744 
L 499.384774 144.294776 
L 503.150555 144.42649 
L 506.916335 144.294776 
L 510.682115 142.274977 
L 514.447895 141.675265 
L 518.213675 138.138988 
L 521.979455 136.92991 
L 525.745235 135.495012 
L 529.511015 133.786275 
L 533.276795 129.548712 
L 537.042575 128.751057 
L 540.808355 127.497364 
L 548.339915 127.159788 
L 552.105695 125.852496 
L 555.871476 123.656117 
L 559.637256 121.152694 
L 563.403036 118.824917 
L 567.168816 117.050407 
L 570.934596 116.781179 
L 574.700376 115.476118 
L 578.466156 112.706162 
L 582.231936 111.1208 
L 585.997716 111.049408 
L 589.763496 109.797426 
L 593.529276 108.410507 
L 597.295056 107.557186 
L 601.060836 106.372961 
L 604.826616 104.735511 
L 608.592397 99.908535 
L 612.358177 96.791787 
L 616.123957 96.009373 
L 619.889737 94.014989 
L 623.655517 92.284624 
L 627.421297 91.395563 
L 631.187077 90.031459 
L 638.718637 90.266939 
L 646.250197 89.140872 
L 650.015977 88.990419 
L 653.781757 87.632174 
L 661.313318 83.120887 
L 665.079098 80.421309 
L 668.844878 78.313777 
L 672.610658 76.541572 
L 676.376438 75.066395 
L 680.142218 74.44003 
L 683.907998 73.27212 
L 687.673778 72.982314 
L 691.439558 71.725099 
L 698.971118 68.893943 
L 702.736898 68.454566 
L 706.502678 67.243961 
L 710.268458 64.76723 
L 714.034239 63.24771 
L 717.800019 62.531248 
L 721.565799 61.444555 
L 725.331579 59.476292 
L 729.097359 57.829657 
L 732.863139 57.14544 
L 736.628919 55.952571 
L 740.394699 53.427002 
L 744.160479 51.807231 
L 747.926259 49.425062 
L 751.692039 48.612322 
L 755.457819 48.007315 
L 759.223599 47.217497 
L 762.989379 45.947661 
L 766.75516 45.118843 
L 770.52094 42.539201 
L 774.28672 41.257983 
L 778.0525 40.47253 
L 781.81828 39.397891 
L 785.58406 38.581693 
L 789.34984 37.01595 
L 793.11562 35.677543 
L 796.8814 34.721501 
L 800.64718 32.998928 
L 804.41296 31.883262 
L 808.17874 31.657645 
L 811.94452 31.657645 
L 815.7103 30.601037 
L 819.476081 29.73862 
L 823.241861 29.414985 
L 827.007641 29.433824 
L 834.539201 27.351132 
L 838.304981 26.600814 
L 842.070761 26.573588 
L 845.836541 26.40183 
L 849.602321 26.403117 
L 853.368101 27.491791 
L 857.133881 28.927161 
L 868.431221 31.942379 
L 872.197002 33.444642 
L 875.962782 35.08985 
L 883.494342 36.663148 
L 887.260122 37.780765 
L 891.025902 38.182169 
L 894.791682 39.732267 
L 902.323242 43.028732 
L 906.089022 44.714327 
L 909.854802 47.3138 
L 913.620582 49.613156 
L 917.386362 52.328678 
L 921.152142 57.763486 
L 924.917923 64.086326 
L 928.683703 72.97431 
L 932.449483 83.577734 
L 936.215263 93.294472 
L 939.981043 101.353124 
L 943.746823 106.821944 
L 947.512603 125.161078 
L 951.278383 144.691978 
L 955.044163 156.966049 
L 958.809943 167.845756 
L 958.809943 167.845756 
" style="fill:none;stroke:#947383;stroke-linecap:square;stroke-width:2;"/>
   </g>
   <g id="line2d_18">
    <path clip-path="url(#pe9d56412ce)" d="M 126.572547 225.556736 
L 130.338327 228.96 
L 213.185489 228.96 
L 216.951269 225.556736 
L 239.54595 225.556736 
L 243.31173 228.96 
L 254.60907 228.96 
L 258.37485 215.222801 
L 262.14063 193.628044 
L 269.67219 193.628044 
L 273.43797 190.22478 
L 280.96953 190.22478 
L 284.73531 194.554932 
L 288.50109 215.222801 
L 292.266871 213.182783 
L 296.032651 213.182783 
L 299.798431 219.869562 
L 311.095771 219.869562 
L 314.861551 215.222801 
L 318.627331 217.440427 
L 322.393111 217.440427 
L 326.158891 219.869562 
L 329.924671 219.869562 
L 333.690451 215.222801 
L 337.456231 213.182783 
L 341.222011 196.516409 
L 344.987792 195.516805 
L 348.753572 193.628044 
L 356.285132 193.628044 
L 363.816692 195.516805 
L 367.582472 191.033947 
L 371.348252 190.22478 
L 375.114032 190.22478 
L 378.879812 184.537605 
L 382.645592 183.908274 
L 386.411372 182.694396 
L 390.177152 178.85043 
L 393.942932 168.516495 
L 397.708713 161.440601 
L 401.474493 158.755318 
L 405.240273 157.622393 
L 409.006053 153.725293 
L 412.771833 150.850517 
L 416.537613 147.810896 
L 420.303393 136.442579 
L 424.069173 132.184936 
L 427.834953 128.751057 
L 431.600733 127.294283 
L 435.366513 127.159788 
L 439.132293 125.72538 
L 442.898073 125.037356 
L 446.663853 120.628259 
L 450.429634 118.109624 
L 454.195414 115.433747 
L 457.961194 113.557084 
L 461.726974 112.820537 
L 465.492754 111.956501 
L 469.258534 110.450525 
L 473.024314 107.156299 
L 476.790094 105.440775 
L 480.555874 105.184626 
L 488.087434 97.161164 
L 491.853214 95.832177 
L 495.618994 94.272061 
L 499.384774 89.368229 
L 503.150555 88.559062 
L 506.916335 86.614525 
L 510.682115 86.180931 
L 514.447895 84.757019 
L 518.213675 83.846017 
L 521.979455 83.895101 
L 525.745235 80.614961 
L 529.511015 79.392043 
L 533.276795 78.038986 
L 537.042575 77.024745 
L 540.808355 76.303377 
L 544.574135 76.067388 
L 548.339915 75.477973 
L 555.871476 71.452269 
L 559.637256 69.80316 
L 563.403036 68.354238 
L 567.168816 66.643951 
L 570.934596 66.015076 
L 574.700376 65.978563 
L 578.466156 62.125477 
L 582.231936 59.092817 
L 585.997716 56.588264 
L 589.763496 54.766001 
L 593.529276 53.899615 
L 597.295056 53.286171 
L 601.060836 52.503697 
L 604.826616 49.197389 
L 608.592397 48.203356 
L 616.123957 47.173843 
L 619.889737 45.644638 
L 623.655517 45.065249 
L 627.421297 45.05722 
L 631.187077 42.546475 
L 638.718637 40.721883 
L 642.484417 39.417187 
L 646.250197 39.031906 
L 650.015977 38.953858 
L 653.781757 38.602457 
L 657.547537 36.6516 
L 661.313318 36.284798 
L 665.079098 34.94727 
L 668.844878 34.508327 
L 672.610658 33.881023 
L 676.376438 33.635388 
L 680.142218 33.07574 
L 683.907998 32.086752 
L 687.673778 29.998148 
L 691.439558 29.042534 
L 695.205338 28.557517 
L 698.971118 27.866631 
L 702.736898 27.060233 
L 706.502678 26.794827 
L 710.268458 24.882922 
L 714.034239 24.649957 
L 717.800019 23.979951 
L 721.565799 23.16336 
L 732.863139 22.186 
L 736.628919 21.038472 
L 740.394699 19.712676 
L 744.160479 19.699809 
L 747.926259 18.9318 
L 751.692039 18.901096 
L 755.457819 19.220497 
L 759.223599 19.151647 
L 762.989379 19.206906 
L 766.75516 20.403037 
L 770.52094 20.636008 
L 774.28672 20.546859 
L 778.0525 19.662237 
L 781.81828 19.477166 
L 785.58406 19.76123 
L 789.34984 19.390018 
L 793.11562 18.403502 
L 796.8814 18.71193 
L 800.64718 19.245756 
L 804.41296 20.528454 
L 811.94452 20.608307 
L 815.7103 23.733026 
L 819.476081 25.028852 
L 827.007641 23.814294 
L 830.773421 22.374321 
L 834.539201 21.395521 
L 838.304981 21.224774 
L 842.070761 19.119709 
L 845.836541 17.76 
L 849.602321 17.84818 
L 853.368101 18.476959 
L 857.133881 18.514711 
L 860.899661 19.179746 
L 864.665441 19.384154 
L 868.431221 20.362383 
L 872.197002 21.623912 
L 875.962782 22.202368 
L 879.728562 22.612804 
L 883.494342 23.149762 
L 891.025902 23.720279 
L 894.791682 25.085014 
L 898.557462 26.691777 
L 902.323242 28.912954 
L 906.089022 30.278322 
L 909.854802 32.94563 
L 913.620582 34.598708 
L 917.386362 35.575881 
L 921.152142 41.60383 
L 924.917923 45.72143 
L 928.683703 49.437771 
L 932.449483 56.183408 
L 936.215263 62.696452 
L 939.981043 66.137168 
L 943.746823 68.360914 
L 947.512603 90.251172 
L 951.278383 116.870606 
L 951.278383 116.870606 
" style="fill:none;stroke:#96c6ad;stroke-linecap:square;stroke-width:2;"/>
   </g>
   <g id="line2d_19">
    <path clip-path="url(#pe9d56412ce)" d="M 235.780169 225.556736 
L 239.54595 228.96 
L 280.96953 228.96 
L 284.73531 225.556736 
L 288.50109 222.554845 
L 299.798431 222.554845 
L 303.564211 219.869562 
L 307.329991 219.869562 
L 311.095771 222.554845 
L 314.861551 225.556736 
L 318.627331 222.554845 
L 322.393111 222.554845 
L 326.158891 219.869562 
L 329.924671 217.440427 
L 333.690451 215.222801 
L 344.987792 215.222801 
L 348.753572 211.294022 
L 352.519352 213.182783 
L 356.285132 217.440427 
L 360.050912 219.869562 
L 363.816692 217.440427 
L 367.582472 215.222801 
L 371.348252 213.182783 
L 375.114032 217.440427 
L 378.879812 213.182783 
L 386.411372 213.182783 
L 390.177152 211.294022 
L 397.708713 211.294022 
L 401.474493 209.535627 
L 405.240273 206.345641 
L 409.006053 204.888867 
L 412.771833 199.774449 
L 416.537613 193.628044 
L 420.303393 186.524581 
L 424.069173 178.345728 
L 427.834953 175.510963 
L 431.600733 155.70199 
L 435.366513 153.160991 
L 439.132293 149.850914 
L 442.898073 145.643589 
L 446.663853 142.274977 
L 450.429634 140.067467 
L 454.195414 139.845843 
L 457.961194 144.558888 
L 461.726974 143.391358 
L 465.492754 139.845843 
L 469.258534 131.301846 
L 473.024314 123.365503 
L 476.790094 120.370034 
L 480.555874 118.970417 
L 484.321654 115.180985 
L 488.087434 114.315552 
L 491.853214 115.603658 
L 495.618994 120.83674 
L 499.384774 124.187723 
L 503.150555 124.669754 
L 506.916335 124.852892 
L 510.682115 129.328682 
L 514.447895 129.328682 
L 518.213675 128.186234 
L 521.979455 124.975719 
L 525.745235 125.980248 
L 529.511015 124.914232 
L 533.276795 120.994227 
L 537.042575 116.647625 
L 540.808355 115.77471 
L 544.574135 116.692065 
L 548.339915 118.536386 
L 552.105695 120.063578 
L 555.871476 114.033483 
L 559.637256 110.485366 
L 563.403036 106.462127 
L 567.168816 105.071603 
L 570.934596 104.875011 
L 574.700376 101.183131 
L 578.466156 99.115201 
L 582.231936 94.775287 
L 585.997716 97.223251 
L 589.763496 101.82033 
L 593.529276 103.94113 
L 597.295056 103.860348 
L 601.060836 101.086499 
L 604.826616 100.774952 
L 608.592397 111.662704 
L 612.358177 112.030483 
L 616.123957 107.744359 
L 619.889737 107.371378 
L 623.655517 107.217565 
L 627.421297 114.641785 
L 631.187077 117.922221 
L 634.952857 116.251109 
L 638.718637 116.692065 
L 642.484417 121.634092 
L 646.250197 121.099762 
L 653.781757 115.990152 
L 657.547537 107.996081 
L 661.313318 105.156323 
L 665.079098 102.858677 
L 668.844878 101.845158 
L 672.610658 101.671864 
L 676.376438 101.353124 
L 680.142218 96.934798 
L 683.907998 99.406993 
L 687.673778 99.182242 
L 691.439558 98.563282 
L 695.205338 98.65079 
L 698.971118 97.119857 
L 702.736898 97.641074 
L 706.502678 102.094785 
L 710.268458 104.791219 
L 714.034239 109.260139 
L 717.800019 113.205539 
L 721.565799 115.307052 
L 725.331579 114.4374 
L 729.097359 116.076841 
L 732.863139 112.782355 
L 736.628919 111.919591 
L 740.394699 107.495099 
L 744.160479 105.728437 
L 747.926259 105.043425 
L 751.692039 106.43237 
L 755.457819 104.76335 
L 759.223599 103.249383 
L 762.989379 101.573365 
L 766.75516 104.403793 
L 770.52094 103.328249 
L 774.28672 102.832841 
L 778.0525 102.499343 
L 781.81828 102.044663 
L 785.58406 106.882411 
L 789.34984 107.156299 
L 793.11562 104.707702 
L 796.8814 104.431272 
L 800.64718 102.910426 
L 804.41296 100.632436 
L 808.17874 100.047049 
L 811.94452 94.756471 
L 815.7103 96.893856 
L 819.476081 99.565506 
L 823.241861 102.884538 
L 827.007641 106.852159 
L 830.773421 112.478939 
L 834.539201 116.251109 
L 838.304981 135.964392 
L 842.070761 138.871714 
L 845.836541 142.76512 
L 849.602321 144.691978 
L 853.368101 146.921738 
L 860.899661 157.401728 
L 864.665441 160.431098 
L 868.431221 157.182957 
L 872.197002 157.622393 
L 875.962782 155.908361 
L 879.728562 152.791613 
L 883.494342 151.539387 
L 887.260122 152.427512 
L 891.025902 153.535801 
L 894.791682 157.182957 
L 898.557462 154.302373 
L 902.323242 154.892823 
L 906.089022 159.940956 
L 909.854802 164.154505 
L 913.620582 165.933363 
L 917.386362 169.205365 
L 921.152142 173.367968 
L 921.152142 173.367968 
" style="fill:none;stroke:#525886;stroke-linecap:square;stroke-width:2;"/>
   </g>
   <g id="line2d_20">
    <path clip-path="url(#pe9d56412ce)" d="M 442.898073 211.294022 
L 446.663853 217.440427 
L 450.429634 222.554845 
L 454.195414 209.535627 
L 457.961194 204.888867 
L 469.258534 204.888867 
L 473.024314 200.960087 
L 476.790094 198.641524 
L 480.555874 199.774449 
L 484.321654 198.641524 
L 488.087434 192.733684 
L 491.853214 191.033947 
L 495.618994 191.869648 
L 499.384774 191.869648 
L 503.150555 187.940869 
L 506.916335 190.22478 
L 510.682115 191.033947 
L 514.447895 193.628044 
L 518.213675 195.516805 
L 521.979455 194.554932 
L 525.745235 196.516409 
L 529.511015 202.203583 
L 533.276795 202.203583 
L 540.808355 199.774449 
L 544.574135 198.641524 
L 552.105695 198.641524 
L 555.871476 200.960087 
L 563.403036 200.960087 
L 567.168816 206.345641 
L 574.700376 209.535627 
L 578.466156 203.510876 
L 582.231936 203.510876 
L 585.997716 204.888867 
L 589.763496 209.535627 
L 601.060836 209.535627 
L 604.826616 211.294022 
L 608.592397 207.890758 
L 612.358177 204.888867 
L 616.123957 206.345641 
L 619.889737 199.774449 
L 627.421297 199.774449 
L 634.952857 197.556823 
L 638.718637 196.516409 
L 642.484417 188.679663 
L 646.250197 175.067706 
L 650.015977 174.632027 
L 653.781757 171.391271 
L 657.547537 171.391271 
L 661.313318 169.913372 
L 665.079098 170.641611 
L 668.844878 169.55691 
L 672.610658 176.888954 
L 676.376438 171.774536 
L 680.142218 172.558801 
L 683.907998 169.55691 
L 687.673778 169.913372 
L 691.439558 167.845756 
L 695.205338 168.858603 
L 698.971118 164.442493 
L 702.736898 166.871627 
L 706.502678 165.32651 
L 710.268458 160.67975 
L 714.034239 159.460062 
L 717.800019 155.70199 
L 721.565799 156.537692 
L 725.331579 161.184452 
L 729.097359 161.440601 
L 732.863139 162.491745 
L 736.628919 165.32651 
L 740.394699 164.154505 
L 744.160479 166.871627 
L 747.926259 165.028418 
L 751.692039 165.028418 
L 755.457819 163.309567 
L 759.223599 159.940956 
L 762.989379 156.966049 
L 766.75516 156.966049 
L 770.52094 158.755318 
L 774.28672 157.844985 
L 778.0525 157.844985 
L 781.81828 158.296087 
L 785.58406 162.491745 
L 789.34984 159.699375 
L 793.11562 154.302373 
L 796.8814 154.302373 
L 800.64718 155.294196 
L 804.41296 154.892823 
L 808.17874 154.892823 
L 811.94452 152.608912 
L 815.7103 155.294196 
L 819.476081 156.75097 
L 823.241861 156.966049 
L 827.007641 157.622393 
L 830.773421 156.326184 
L 834.539201 151.890932 
L 838.304981 151.365416 
L 842.070761 153.916205 
L 845.836541 156.116416 
L 849.602321 154.497674 
L 853.368101 153.347707 
L 857.133881 153.725293 
L 860.899661 158.296087 
L 864.665441 158.524668 
L 868.431221 157.844985 
L 872.197002 158.069538 
L 875.962782 157.182957 
L 879.728562 156.537692 
L 883.494342 156.537692 
L 887.260122 157.182957 
L 891.025902 159.699375 
L 894.791682 161.699351 
L 898.557462 165.933363 
L 902.323242 172.558801 
L 906.089022 176.421296 
L 909.854802 178.345728 
L 913.620582 178.85043 
L 917.386362 179.890845 
L 921.152142 186.524581 
L 924.917923 191.033947 
L 928.683703 191.033947 
L 932.449483 195.516805 
L 932.449483 195.516805 
" style="fill:none;stroke:#937252;stroke-linecap:square;stroke-width:2;"/>
   </g>
   <g id="line2d_21">
    <path clip-path="url(#pe9d56412ce)" d="M 96.446307 219.869562 
L 100.212087 222.554845 
L 103.977867 225.556736 
L 107.743647 225.556736 
L 111.509427 222.554845 
L 115.275207 219.869562 
L 134.104108 219.869562 
L 137.869888 225.556736 
L 149.167228 225.556736 
L 152.933008 217.440427 
L 164.230348 217.440427 
L 167.996128 213.182783 
L 175.527688 213.182783 
L 179.293468 219.869562 
L 186.825029 219.869562 
L 190.590809 197.556823 
L 194.356589 193.628044 
L 198.122369 191.033947 
L 201.888149 187.222888 
L 205.653929 186.524581 
L 209.419709 185.18287 
L 213.185489 185.18287 
L 216.951269 196.516409 
L 220.717049 187.222888 
L 224.482829 183.908274 
L 228.248609 184.537605 
L 232.014389 167.516892 
L 235.780169 155.70199 
L 239.54595 154.302373 
L 243.31173 153.535801 
L 247.07751 143.139013 
L 250.84329 140.85869 
L 254.60907 141.322096 
L 258.37485 134.761534 
L 262.14063 135.309654 
L 265.90641 134.313603 
L 269.67219 130.910339 
L 273.43797 126.367394 
L 277.20375 117.875585 
L 280.96953 112.291123 
L 284.73531 112.782355 
L 288.50109 113.873692 
L 292.266871 110.625211 
L 296.032651 108.799128 
L 299.798431 111.553398 
L 303.564211 117.368142 
L 307.329991 117.875585 
L 311.095771 110.7306 
L 314.861551 109.899441 
L 318.627331 112.441265 
L 322.393111 115.731839 
L 326.158891 114.194283 
L 329.924671 111.956501 
L 333.690451 113.675352 
L 337.456231 123.481351 
L 341.222011 123.192712 
L 344.987792 123.021084 
L 348.753572 120.114399 
L 352.519352 122.457198 
L 356.285132 118.01575 
L 360.050912 116.915437 
L 363.816692 116.603261 
L 367.582472 106.882411 
L 371.348252 101.450774 
L 375.114032 98.454318 
L 378.879812 83.312246 
L 382.645592 80.593371 
L 386.411372 78.392836 
L 390.177152 73.803878 
L 393.942932 70.658183 
L 401.474493 63.549981 
L 405.240273 63.633045 
L 409.006053 60.353492 
L 412.771833 59.092817 
L 416.537613 59.386923 
L 420.303393 59.448037 
L 424.069173 60.905642 
L 427.834953 62.776775 
L 431.600733 65.990728 
L 435.366513 71.264507 
L 439.132293 69.113066 
L 442.898073 68.101827 
L 446.663853 69.030674 
L 450.429634 63.242248 
L 457.961194 58.293225 
L 461.726974 56.952667 
L 465.492754 53.722296 
L 469.258534 51.368123 
L 473.024314 48.458954 
L 476.790094 48.738776 
L 480.555874 49.292006 
L 484.321654 49.150212 
L 488.087434 46.870341 
L 491.853214 46.738509 
L 495.618994 46.976878 
L 499.384774 46.24872 
L 503.150555 44.013808 
L 506.916335 42.485923 
L 510.682115 40.810076 
L 514.447895 39.496668 
L 518.213675 40.179143 
L 521.979455 39.282422 
L 525.745235 39.382893 
L 529.511015 39.873805 
L 533.276795 39.091128 
L 537.042575 39.410753 
L 544.574135 38.677351 
L 548.339915 39.402178 
L 552.105695 35.80752 
L 555.871476 34.374233 
L 559.637256 32.608448 
L 563.403036 31.248093 
L 567.168816 29.712226 
L 570.934596 28.330224 
L 574.700376 28.037605 
L 578.466156 30.77769 
L 585.997716 35.267838 
L 589.763496 36.630442 
L 593.529276 40.0909 
L 597.295056 42.807279 
L 601.060836 43.001562 
L 604.826616 41.496557 
L 608.592397 40.312082 
L 612.358177 38.804758 
L 616.123957 38.276337 
L 619.889737 36.869973 
L 623.655517 36.501949 
L 627.421297 35.238693 
L 631.187077 33.662754 
L 634.952857 32.492134 
L 638.718637 32.915698 
L 646.250197 33.181317 
L 653.781757 32.00484 
L 657.547537 32.970599 
L 661.313318 33.71586 
L 665.079098 33.551761 
L 668.844878 31.111476 
L 672.610658 31.182798 
L 676.376438 31.809956 
L 680.142218 33.030627 
L 683.907998 33.221652 
L 687.673778 32.985593 
L 691.439558 32.595315 
L 695.205338 35.540855 
L 698.971118 35.540855 
L 702.736898 35.677543 
L 706.502678 36.889388 
L 710.268458 37.111776 
L 714.034239 36.848633 
L 717.800019 35.247797 
L 721.565799 32.879163 
L 725.331579 32.159247 
L 729.097359 30.932503 
L 736.628919 27.962235 
L 740.394699 27.424714 
L 747.926259 30.601037 
L 751.692039 31.875284 
L 755.457819 31.770204 
L 762.989379 31.308873 
L 766.75516 31.605497 
L 770.52094 31.318237 
L 774.28672 30.535864 
L 778.0525 29.552975 
L 781.81828 30.221442 
L 785.58406 31.006409 
L 789.34984 32.900746 
L 793.11562 33.726152 
L 796.8814 34.270618 
L 804.41296 37.538538 
L 808.17874 38.453328 
L 811.94452 39.60231 
L 815.7103 41.589812 
L 819.476081 43.063354 
L 823.241861 44.287555 
L 827.007641 46.005922 
L 830.773421 47.101252 
L 834.539201 49.162784 
L 838.304981 50.172827 
L 842.070761 50.76849 
L 845.836541 51.779346 
L 849.602321 52.229204 
L 853.368101 52.186691 
L 857.133881 52.665495 
L 860.899661 52.49653 
L 864.665441 53.230793 
L 868.431221 53.25293 
L 872.197002 54.081989 
L 875.962782 54.269518 
L 879.728562 53.839113 
L 883.494342 54.269518 
L 891.025902 56.249747 
L 894.791682 56.584057 
L 898.557462 56.706336 
L 902.323242 58.628282 
L 906.089022 60.905642 
L 909.854802 61.577245 
L 913.620582 61.808546 
L 917.386362 62.246006 
L 921.152142 65.472787 
L 924.917923 68.274259 
L 928.683703 71.717481 
L 932.449483 74.567485 
L 936.215263 80.378474 
L 936.215263 80.378474 
" style="fill:none;stroke:#d18cad;stroke-linecap:square;stroke-width:2;"/>
   </g>
   <g id="line2d_22">
    <path clip-path="url(#pe9d56412ce)" d="M 363.816692 225.556736 
L 367.582472 228.96 
L 371.348252 228.96 
L 375.114032 222.554845 
L 378.879812 222.554845 
L 382.645592 215.222801 
L 397.708713 215.222801 
L 401.474493 217.440427 
L 405.240273 217.440427 
L 409.006053 225.556736 
L 412.771833 217.440427 
L 416.537613 213.182783 
L 420.303393 211.294022 
L 424.069173 209.535627 
L 427.834953 206.345641 
L 435.366513 203.510876 
L 442.898073 206.345641 
L 446.663853 206.345641 
L 450.429634 207.890758 
L 454.195414 211.294022 
L 457.961194 207.890758 
L 461.726974 196.516409 
L 465.492754 194.554932 
L 469.258534 195.516805 
L 476.790094 193.628044 
L 480.555874 189.440514 
L 484.321654 191.033947 
L 491.853214 191.033947 
L 495.618994 189.440514 
L 499.384774 188.679663 
L 503.150555 188.679663 
L 506.916335 191.033947 
L 510.682115 188.679663 
L 514.447895 193.628044 
L 518.213675 192.733684 
L 521.979455 193.628044 
L 525.745235 191.869648 
L 529.511015 191.869648 
L 533.276795 191.033947 
L 537.042575 191.033947 
L 540.808355 189.440514 
L 548.339915 189.440514 
L 552.105695 192.733684 
L 555.871476 191.869648 
L 559.637256 193.628044 
L 563.403036 194.554932 
L 567.168816 198.641524 
L 570.934596 200.960087 
L 578.466156 200.960087 
L 582.231936 202.203583 
L 585.997716 196.516409 
L 589.763496 199.774449 
L 593.529276 199.774449 
L 597.295056 203.510876 
L 601.060836 204.888867 
L 604.826616 202.203583 
L 608.592397 198.641524 
L 612.358177 207.890758 
L 616.123957 199.774449 
L 619.889737 196.516409 
L 623.655517 194.554932 
L 627.421297 193.628044 
L 631.187077 193.628044 
L 634.952857 194.554932 
L 638.718637 193.628044 
L 642.484417 198.641524 
L 646.250197 200.960087 
L 650.015977 202.203583 
L 653.781757 197.556823 
L 657.547537 199.774449 
L 661.313318 198.641524 
L 665.079098 196.516409 
L 668.844878 195.516805 
L 672.610658 196.516409 
L 676.376438 191.869648 
L 680.142218 195.516805 
L 683.907998 194.554932 
L 687.673778 195.516805 
L 691.439558 191.869648 
L 695.205338 188.679663 
L 698.971118 189.440514 
L 702.736898 191.033947 
L 706.502678 188.679663 
L 710.268458 186.524581 
L 714.034239 185.18287 
L 717.800019 188.679663 
L 721.565799 190.22478 
L 725.331579 185.18287 
L 729.097359 180.975546 
L 732.863139 181.535714 
L 736.628919 182.694396 
L 740.394699 182.108471 
L 744.160479 182.694396 
L 747.926259 180.975546 
L 751.692039 183.908274 
L 755.457819 189.440514 
L 759.223599 187.940869 
L 762.989379 184.537605 
L 766.75516 187.222888 
L 770.52094 184.537605 
L 774.28672 187.222888 
L 778.0525 188.679663 
L 781.81828 183.294109 
L 785.58406 184.537605 
L 789.34984 180.975546 
L 793.11562 179.890845 
L 796.8814 177.850827 
L 800.64718 177.850827 
L 804.41296 175.510963 
L 808.17874 176.888954 
L 811.94452 176.888954 
L 815.7103 179.890845 
L 819.476081 179.365329 
L 823.241861 182.108471 
L 827.007641 182.694396 
L 830.773421 185.18287 
L 834.539201 185.844898 
L 838.304981 183.908274 
L 842.070761 185.18287 
L 845.836541 181.535714 
L 849.602321 182.108471 
L 853.368101 180.427425 
L 857.133881 177.850827 
L 860.899661 176.888954 
L 864.665441 178.345728 
L 868.431221 180.427425 
L 875.962782 182.694396 
L 879.728562 183.908274 
L 883.494342 186.524581 
L 891.025902 187.940869 
L 894.791682 185.18287 
L 898.557462 188.679663 
L 902.323242 189.440514 
L 906.089022 191.033947 
L 909.854802 191.033947 
L 913.620582 197.556823 
L 917.386362 198.641524 
L 924.917923 211.294022 
L 928.683703 211.294022 
L 932.449483 213.182783 
L 936.215263 217.440427 
L 936.215263 217.440427 
" style="fill:none;stroke:#a4a86f;stroke-linecap:square;stroke-width:2;"/>
   </g>
   <g id="line2d_23">
    <path clip-path="url(#pe9d56412ce)" d="M 344.987792 225.556736 
L 348.753572 228.96 
L 375.114032 228.96 
L 378.879812 225.556736 
L 390.177152 225.556736 
L 393.942932 222.554845 
L 416.537613 222.554845 
L 420.303393 219.869562 
L 424.069173 219.869562 
L 427.834953 217.440427 
L 431.600733 219.869562 
L 439.132293 219.869562 
L 442.898073 217.440427 
L 446.663853 215.222801 
L 450.429634 207.890758 
L 454.195414 206.345641 
L 457.961194 206.345641 
L 465.492754 195.516805 
L 469.258534 191.033947 
L 473.024314 190.22478 
L 476.790094 190.22478 
L 480.555874 175.067706 
L 484.321654 163.869735 
L 488.087434 158.524668 
L 491.853214 157.844985 
L 495.618994 156.116416 
L 499.384774 152.427512 
L 503.150555 151.020997 
L 506.916335 152.247394 
L 510.682115 157.182957 
L 514.447895 157.182957 
L 518.213675 158.069538 
L 521.979455 161.440601 
L 525.745235 167.192217 
L 529.511015 170.274891 
L 533.276795 178.85043 
L 537.042575 182.694396 
L 540.808355 200.960087 
L 544.574135 202.203583 
L 548.339915 199.774449 
L 552.105695 200.960087 
L 555.871476 199.774449 
L 563.403036 189.440514 
L 567.168816 189.440514 
L 570.934596 190.22478 
L 574.700376 184.537605 
L 578.466156 185.844898 
L 582.231936 184.537605 
L 585.997716 185.18287 
L 589.763496 184.537605 
L 593.529276 181.535714 
L 597.295056 181.535714 
L 601.060836 187.940869 
L 604.826616 182.694396 
L 612.358177 185.18287 
L 616.123957 187.940869 
L 619.889737 187.940869 
L 623.655517 189.440514 
L 627.421297 189.440514 
L 631.187077 191.869648 
L 634.952857 193.628044 
L 638.718637 191.033947 
L 642.484417 191.033947 
L 646.250197 192.733684 
L 653.781757 189.440514 
L 657.547537 189.440514 
L 661.313318 190.22478 
L 665.079098 192.733684 
L 668.844878 191.033947 
L 672.610658 191.869648 
L 676.376438 190.22478 
L 680.142218 191.869648 
L 683.907998 191.869648 
L 687.673778 185.844898 
L 691.439558 183.294109 
L 695.205338 183.294109 
L 698.971118 181.535714 
L 702.736898 182.108471 
L 706.502678 179.365329 
L 710.268458 177.850827 
L 714.034239 176.888954 
L 717.800019 172.960174 
L 721.565799 172.163652 
L 725.331579 175.067706 
L 732.863139 175.067706 
L 736.628919 172.163652 
L 740.394699 171.013685 
L 744.160479 172.960174 
L 747.926259 174.20367 
L 751.692039 169.913372 
L 755.457819 169.55691 
L 759.223599 170.641611 
L 762.989379 172.960174 
L 766.75516 173.367968 
L 770.52094 174.632027 
L 774.28672 171.391271 
L 778.0525 176.421296 
L 781.81828 173.782394 
L 785.58406 173.367968 
L 789.34984 176.888954 
L 796.8814 187.222888 
L 800.64718 197.556823 
L 804.41296 195.516805 
L 808.17874 203.510876 
L 811.94452 200.960087 
L 819.476081 203.510876 
L 823.241861 198.641524 
L 827.007641 194.554932 
L 830.773421 191.869648 
L 834.539201 193.628044 
L 838.304981 198.641524 
L 842.070761 198.641524 
L 845.836541 197.556823 
L 849.602321 202.203583 
L 853.368101 207.890758 
L 857.133881 209.535627 
L 868.431221 209.535627 
L 872.197002 215.222801 
L 875.962782 211.294022 
L 879.728562 207.890758 
L 883.494342 215.222801 
L 887.260122 213.182783 
L 894.791682 213.182783 
L 898.557462 209.535627 
L 902.323242 209.535627 
L 906.089022 207.890758 
L 909.854802 207.890758 
L 913.620582 211.294022 
L 917.386362 204.888867 
L 921.152142 203.510876 
L 924.917923 206.345641 
L 928.683703 206.345641 
L 928.683703 206.345641 
" style="fill:none;stroke:#d3d3d3;stroke-linecap:square;stroke-width:2;"/>
   </g>
   <g id="patch_3">
    <path d="M 53.328125 228.96 
L 53.328125 7.2 
" style="fill:none;stroke:#000000;stroke-linecap:square;stroke-linejoin:miter;stroke-width:0.8;"/>
   </g>
   <g id="patch_4">
    <path d="M 53.328125 228.96 
L 1001.928125 228.96 
" style="fill:none;stroke:#000000;stroke-linecap:square;stroke-linejoin:miter;stroke-width:0.8;"/>
   </g>
   <g id="legend_1">
    <g id="line2d_24">
     <path d="M 60.528125 17.67875 
L 76.528125 17.67875 
" style="fill:none;stroke:#947383;stroke-linecap:square;stroke-width:2;"/>
    </g>
    <g id="line2d_25"/>
    <g id="text_19">
     <!-- North America -->
     <g transform="translate(82.928125 20.47875)scale(0.08 -0.08)">
      <defs>
       <path d="M 9.8125 72.90625 
L 23.09375 72.90625 
L 55.421875 11.921875 
L 55.421875 72.90625 
L 64.984375 72.90625 
L 64.984375 0 
L 51.703125 0 
L 19.390625 60.984375 
L 19.390625 0 
L 9.8125 0 
z
" id="DejaVuSans-78"/>
       <path d="M 54.890625 33.015625 
L 54.890625 0 
L 45.90625 0 
L 45.90625 32.71875 
Q 45.90625 40.484375 42.875 44.328125 
Q 39.84375 48.1875 33.796875 48.1875 
Q 26.515625 48.1875 22.3125 43.546875 
Q 18.109375 38.921875 18.109375 30.90625 
L 18.109375 0 
L 9.078125 0 
L 9.078125 75.984375 
L 18.109375 75.984375 
L 18.109375 46.1875 
Q 21.34375 51.125 25.703125 53.5625 
Q 30.078125 56 35.796875 56 
Q 45.21875 56 50.046875 50.171875 
Q 54.890625 44.34375 54.890625 33.015625 
z
" id="DejaVuSans-104"/>
       <path d="M 34.1875 63.1875 
L 20.796875 26.90625 
L 47.609375 26.90625 
z
M 28.609375 72.90625 
L 39.796875 72.90625 
L 67.578125 0 
L 57.328125 0 
L 50.6875 18.703125 
L 17.828125 18.703125 
L 11.1875 0 
L 0.78125 0 
z
" id="DejaVuSans-65"/>
       <path d="M 52 44.1875 
Q 55.375 50.25 60.0625 53.125 
Q 64.75 56 71.09375 56 
Q 79.640625 56 84.28125 50.015625 
Q 88.921875 44.046875 88.921875 33.015625 
L 88.921875 0 
L 79.890625 0 
L 79.890625 32.71875 
Q 79.890625 40.578125 77.09375 44.375 
Q 74.3125 48.1875 68.609375 48.1875 
Q 61.625 48.1875 57.5625 43.546875 
Q 53.515625 38.921875 53.515625 30.90625 
L 53.515625 0 
L 44.484375 0 
L 44.484375 32.71875 
Q 44.484375 40.625 41.703125 44.40625 
Q 38.921875 48.1875 33.109375 48.1875 
Q 26.21875 48.1875 22.15625 43.53125 
Q 18.109375 38.875 18.109375 30.90625 
L 18.109375 0 
L 9.078125 0 
L 9.078125 54.6875 
L 18.109375 54.6875 
L 18.109375 46.1875 
Q 21.1875 51.21875 25.484375 53.609375 
Q 29.78125 56 35.6875 56 
Q 41.65625 56 45.828125 52.96875 
Q 50 49.953125 52 44.1875 
z
" id="DejaVuSans-109"/>
       <path d="M 48.78125 52.59375 
L 48.78125 44.1875 
Q 44.96875 46.296875 41.140625 47.34375 
Q 37.3125 48.390625 33.40625 48.390625 
Q 24.65625 48.390625 19.8125 42.84375 
Q 14.984375 37.3125 14.984375 27.296875 
Q 14.984375 17.28125 19.8125 11.734375 
Q 24.65625 6.203125 33.40625 6.203125 
Q 37.3125 6.203125 41.140625 7.25 
Q 44.96875 8.296875 48.78125 10.40625 
L 48.78125 2.09375 
Q 45.015625 0.34375 40.984375 -0.53125 
Q 36.96875 -1.421875 32.421875 -1.421875 
Q 20.0625 -1.421875 12.78125 6.34375 
Q 5.515625 14.109375 5.515625 27.296875 
Q 5.515625 40.671875 12.859375 48.328125 
Q 20.21875 56 33.015625 56 
Q 37.15625 56 41.109375 55.140625 
Q 45.0625 54.296875 48.78125 52.59375 
z
" id="DejaVuSans-99"/>
      </defs>
      <use xlink:href="#DejaVuSans-78"/>
      <use x="74.804688" xlink:href="#DejaVuSans-111"/>
      <use x="135.986328" xlink:href="#DejaVuSans-114"/>
      <use x="177.099609" xlink:href="#DejaVuSans-116"/>
      <use x="216.308594" xlink:href="#DejaVuSans-104"/>
      <use x="279.6875" xlink:href="#DejaVuSans-32"/>
      <use x="311.474609" xlink:href="#DejaVuSans-65"/>
      <use x="379.882812" xlink:href="#DejaVuSans-109"/>
      <use x="477.294922" xlink:href="#DejaVuSans-101"/>
      <use x="538.818359" xlink:href="#DejaVuSans-114"/>
      <use x="579.931641" xlink:href="#DejaVuSans-105"/>
      <use x="607.714844" xlink:href="#DejaVuSans-99"/>
      <use x="662.695312" xlink:href="#DejaVuSans-97"/>
     </g>
    </g>
    <g id="line2d_26">
     <path d="M 60.528125 29.42125 
L 76.528125 29.42125 
" style="fill:none;stroke:#96c6ad;stroke-linecap:square;stroke-width:2;"/>
    </g>
    <g id="line2d_27"/>
    <g id="text_20">
     <!-- Europe -->
     <g transform="translate(82.928125 32.22125)scale(0.08 -0.08)">
      <defs>
       <path d="M 9.8125 72.90625 
L 55.90625 72.90625 
L 55.90625 64.59375 
L 19.671875 64.59375 
L 19.671875 43.015625 
L 54.390625 43.015625 
L 54.390625 34.71875 
L 19.671875 34.71875 
L 19.671875 8.296875 
L 56.78125 8.296875 
L 56.78125 0 
L 9.8125 0 
z
" id="DejaVuSans-69"/>
       <path d="M 18.109375 8.203125 
L 18.109375 -20.796875 
L 9.078125 -20.796875 
L 9.078125 54.6875 
L 18.109375 54.6875 
L 18.109375 46.390625 
Q 20.953125 51.265625 25.265625 53.625 
Q 29.59375 56 35.59375 56 
Q 45.5625 56 51.78125 48.09375 
Q 58.015625 40.1875 58.015625 27.296875 
Q 58.015625 14.40625 51.78125 6.484375 
Q 45.5625 -1.421875 35.59375 -1.421875 
Q 29.59375 -1.421875 25.265625 0.953125 
Q 20.953125 3.328125 18.109375 8.203125 
z
M 48.6875 27.296875 
Q 48.6875 37.203125 44.609375 42.84375 
Q 40.53125 48.484375 33.40625 48.484375 
Q 26.265625 48.484375 22.1875 42.84375 
Q 18.109375 37.203125 18.109375 27.296875 
Q 18.109375 17.390625 22.1875 11.75 
Q 26.265625 6.109375 33.40625 6.109375 
Q 40.53125 6.109375 44.609375 11.75 
Q 48.6875 17.390625 48.6875 27.296875 
z
" id="DejaVuSans-112"/>
      </defs>
      <use xlink:href="#DejaVuSans-69"/>
      <use x="63.183594" xlink:href="#DejaVuSans-117"/>
      <use x="126.5625" xlink:href="#DejaVuSans-114"/>
      <use x="165.425781" xlink:href="#DejaVuSans-111"/>
      <use x="226.607422" xlink:href="#DejaVuSans-112"/>
      <use x="290.083984" xlink:href="#DejaVuSans-101"/>
     </g>
    </g>
    <g id="line2d_28">
     <path d="M 60.528125 41.16375 
L 76.528125 41.16375 
" style="fill:none;stroke:#525886;stroke-linecap:square;stroke-width:2;"/>
    </g>
    <g id="line2d_29"/>
    <g id="text_21">
     <!-- Asia -->
     <g transform="translate(82.928125 43.96375)scale(0.08 -0.08)">
      <defs>
       <path d="M 44.28125 53.078125 
L 44.28125 44.578125 
Q 40.484375 46.53125 36.375 47.5 
Q 32.28125 48.484375 27.875 48.484375 
Q 21.1875 48.484375 17.84375 46.4375 
Q 14.5 44.390625 14.5 40.28125 
Q 14.5 37.15625 16.890625 35.375 
Q 19.28125 33.59375 26.515625 31.984375 
L 29.59375 31.296875 
Q 39.15625 29.25 43.1875 25.515625 
Q 47.21875 21.78125 47.21875 15.09375 
Q 47.21875 7.46875 41.1875 3.015625 
Q 35.15625 -1.421875 24.609375 -1.421875 
Q 20.21875 -1.421875 15.453125 -0.5625 
Q 10.6875 0.296875 5.421875 2 
L 5.421875 11.28125 
Q 10.40625 8.6875 15.234375 7.390625 
Q 20.0625 6.109375 24.8125 6.109375 
Q 31.15625 6.109375 34.5625 8.28125 
Q 37.984375 10.453125 37.984375 14.40625 
Q 37.984375 18.0625 35.515625 20.015625 
Q 33.0625 21.96875 24.703125 23.78125 
L 21.578125 24.515625 
Q 13.234375 26.265625 9.515625 29.90625 
Q 5.8125 33.546875 5.8125 39.890625 
Q 5.8125 47.609375 11.28125 51.796875 
Q 16.75 56 26.8125 56 
Q 31.78125 56 36.171875 55.265625 
Q 40.578125 54.546875 44.28125 53.078125 
z
" id="DejaVuSans-115"/>
      </defs>
      <use xlink:href="#DejaVuSans-65"/>
      <use x="68.408203" xlink:href="#DejaVuSans-115"/>
      <use x="120.507812" xlink:href="#DejaVuSans-105"/>
      <use x="148.291016" xlink:href="#DejaVuSans-97"/>
     </g>
    </g>
    <g id="line2d_30">
     <path d="M 60.528125 52.90625 
L 76.528125 52.90625 
" style="fill:none;stroke:#937252;stroke-linecap:square;stroke-width:2;"/>
    </g>
    <g id="line2d_31"/>
    <g id="text_22">
     <!-- South America -->
     <g transform="translate(82.928125 55.70625)scale(0.08 -0.08)">
      <defs>
       <path d="M 53.515625 70.515625 
L 53.515625 60.890625 
Q 47.90625 63.578125 42.921875 64.890625 
Q 37.9375 66.21875 33.296875 66.21875 
Q 25.25 66.21875 20.875 63.09375 
Q 16.5 59.96875 16.5 54.203125 
Q 16.5 49.359375 19.40625 46.890625 
Q 22.3125 44.4375 30.421875 42.921875 
L 36.375 41.703125 
Q 47.40625 39.59375 52.65625 34.296875 
Q 57.90625 29 57.90625 20.125 
Q 57.90625 9.515625 50.796875 4.046875 
Q 43.703125 -1.421875 29.984375 -1.421875 
Q 24.8125 -1.421875 18.96875 -0.25 
Q 13.140625 0.921875 6.890625 3.21875 
L 6.890625 13.375 
Q 12.890625 10.015625 18.65625 8.296875 
Q 24.421875 6.59375 29.984375 6.59375 
Q 38.421875 6.59375 43.015625 9.90625 
Q 47.609375 13.234375 47.609375 19.390625 
Q 47.609375 24.75 44.3125 27.78125 
Q 41.015625 30.8125 33.5 32.328125 
L 27.484375 33.5 
Q 16.453125 35.6875 11.515625 40.375 
Q 6.59375 45.0625 6.59375 53.421875 
Q 6.59375 63.09375 13.40625 68.65625 
Q 20.21875 74.21875 32.171875 74.21875 
Q 37.3125 74.21875 42.625 73.28125 
Q 47.953125 72.359375 53.515625 70.515625 
z
" id="DejaVuSans-83"/>
      </defs>
      <use xlink:href="#DejaVuSans-83"/>
      <use x="63.476562" xlink:href="#DejaVuSans-111"/>
      <use x="124.658203" xlink:href="#DejaVuSans-117"/>
      <use x="188.037109" xlink:href="#DejaVuSans-116"/>
      <use x="227.246094" xlink:href="#DejaVuSans-104"/>
      <use x="290.625" xlink:href="#DejaVuSans-32"/>
      <use x="322.412109" xlink:href="#DejaVuSans-65"/>
      <use x="390.820312" xlink:href="#DejaVuSans-109"/>
      <use x="488.232422" xlink:href="#DejaVuSans-101"/>
      <use x="549.755859" xlink:href="#DejaVuSans-114"/>
      <use x="590.869141" xlink:href="#DejaVuSans-105"/>
      <use x="618.652344" xlink:href="#DejaVuSans-99"/>
      <use x="673.632812" xlink:href="#DejaVuSans-97"/>
     </g>
    </g>
    <g id="line2d_32">
     <path d="M 60.528125 64.64875 
L 76.528125 64.64875 
" style="fill:none;stroke:#d18cad;stroke-linecap:square;stroke-width:2;"/>
    </g>
    <g id="line2d_33"/>
    <g id="text_23">
     <!-- United Kingdom -->
     <g transform="translate(82.928125 67.44875)scale(0.08 -0.08)">
      <defs>
       <path d="M 8.6875 72.90625 
L 18.609375 72.90625 
L 18.609375 28.609375 
Q 18.609375 16.890625 22.84375 11.734375 
Q 27.09375 6.59375 36.625 6.59375 
Q 46.09375 6.59375 50.34375 11.734375 
Q 54.59375 16.890625 54.59375 28.609375 
L 54.59375 72.90625 
L 64.5 72.90625 
L 64.5 27.390625 
Q 64.5 13.140625 57.4375 5.859375 
Q 50.390625 -1.421875 36.625 -1.421875 
Q 22.796875 -1.421875 15.734375 5.859375 
Q 8.6875 13.140625 8.6875 27.390625 
z
" id="DejaVuSans-85"/>
       <path d="M 9.8125 72.90625 
L 19.671875 72.90625 
L 19.671875 42.09375 
L 52.390625 72.90625 
L 65.09375 72.90625 
L 28.90625 38.921875 
L 67.671875 0 
L 54.6875 0 
L 19.671875 35.109375 
L 19.671875 0 
L 9.8125 0 
z
" id="DejaVuSans-75"/>
      </defs>
      <use xlink:href="#DejaVuSans-85"/>
      <use x="73.193359" xlink:href="#DejaVuSans-110"/>
      <use x="136.572266" xlink:href="#DejaVuSans-105"/>
      <use x="164.355469" xlink:href="#DejaVuSans-116"/>
      <use x="203.564453" xlink:href="#DejaVuSans-101"/>
      <use x="265.087891" xlink:href="#DejaVuSans-100"/>
      <use x="328.564453" xlink:href="#DejaVuSans-32"/>
      <use x="360.351562" xlink:href="#DejaVuSans-75"/>
      <use x="425.927734" xlink:href="#DejaVuSans-105"/>
      <use x="453.710938" xlink:href="#DejaVuSans-110"/>
      <use x="517.089844" xlink:href="#DejaVuSans-103"/>
      <use x="580.566406" xlink:href="#DejaVuSans-100"/>
      <use x="644.042969" xlink:href="#DejaVuSans-111"/>
      <use x="705.224609" xlink:href="#DejaVuSans-109"/>
     </g>
    </g>
    <g id="line2d_34">
     <path d="M 60.528125 76.39125 
L 76.528125 76.39125 
" style="fill:none;stroke:#a4a86f;stroke-linecap:square;stroke-width:2;"/>
    </g>
    <g id="line2d_35"/>
    <g id="text_24">
     <!-- Oceania -->
     <g transform="translate(82.928125 79.19125)scale(0.08 -0.08)">
      <defs>
       <path d="M 39.40625 66.21875 
Q 28.65625 66.21875 22.328125 58.203125 
Q 16.015625 50.203125 16.015625 36.375 
Q 16.015625 22.609375 22.328125 14.59375 
Q 28.65625 6.59375 39.40625 6.59375 
Q 50.140625 6.59375 56.421875 14.59375 
Q 62.703125 22.609375 62.703125 36.375 
Q 62.703125 50.203125 56.421875 58.203125 
Q 50.140625 66.21875 39.40625 66.21875 
z
M 39.40625 74.21875 
Q 54.734375 74.21875 63.90625 63.9375 
Q 73.09375 53.65625 73.09375 36.375 
Q 73.09375 19.140625 63.90625 8.859375 
Q 54.734375 -1.421875 39.40625 -1.421875 
Q 24.03125 -1.421875 14.8125 8.828125 
Q 5.609375 19.09375 5.609375 36.375 
Q 5.609375 53.65625 14.8125 63.9375 
Q 24.03125 74.21875 39.40625 74.21875 
z
" id="DejaVuSans-79"/>
      </defs>
      <use xlink:href="#DejaVuSans-79"/>
      <use x="78.710938" xlink:href="#DejaVuSans-99"/>
      <use x="133.691406" xlink:href="#DejaVuSans-101"/>
      <use x="195.214844" xlink:href="#DejaVuSans-97"/>
      <use x="256.494141" xlink:href="#DejaVuSans-110"/>
      <use x="319.873047" xlink:href="#DejaVuSans-105"/>
      <use x="347.65625" xlink:href="#DejaVuSans-97"/>
     </g>
    </g>
    <g id="line2d_36">
     <path d="M 60.528125 88.13375 
L 76.528125 88.13375 
" style="fill:none;stroke:#d3d3d3;stroke-linecap:square;stroke-width:2;"/>
    </g>
    <g id="line2d_37"/>
    <g id="text_25">
     <!-- Africa -->
     <g transform="translate(82.928125 90.93375)scale(0.08 -0.08)">
      <defs>
       <path d="M 37.109375 75.984375 
L 37.109375 68.5 
L 28.515625 68.5 
Q 23.6875 68.5 21.796875 66.546875 
Q 19.921875 64.59375 19.921875 59.515625 
L 19.921875 54.6875 
L 34.71875 54.6875 
L 34.71875 47.703125 
L 19.921875 47.703125 
L 19.921875 0 
L 10.890625 0 
L 10.890625 47.703125 
L 2.296875 47.703125 
L 2.296875 54.6875 
L 10.890625 54.6875 
L 10.890625 58.5 
Q 10.890625 67.625 15.140625 71.796875 
Q 19.390625 75.984375 28.609375 75.984375 
z
" id="DejaVuSans-102"/>
      </defs>
      <use xlink:href="#DejaVuSans-65"/>
      <use x="64.783203" xlink:href="#DejaVuSans-102"/>
      <use x="99.988281" xlink:href="#DejaVuSans-114"/>
      <use x="141.101562" xlink:href="#DejaVuSans-105"/>
      <use x="168.884766" xlink:href="#DejaVuSans-99"/>
      <use x="223.865234" xlink:href="#DejaVuSans-97"/>
     </g>
    </g>
   </g>
  </g>
 </g>
 <defs>
  <clipPath id="pe9d56412ce">
   <rect height="221.76" width="948.6" x="53.328125" y="7.2"/>
  </clipPath>
 </defs>
</svg>
