<?xml version="1.0" encoding="utf-8" standalone="no"?>
<!DOCTYPE svg PUBLIC "-//W3C//DTD SVG 1.1//EN"
  "http://www.w3.org/Graphics/SVG/1.1/DTD/svg11.dtd">
<svg height="298.620937pt" version="1.1" viewBox="0 0 1176.528125 298.620937" width="1176.528125pt" xmlns="http://www.w3.org/2000/svg" xmlns:xlink="http://www.w3.org/1999/xlink">
 <metadata>
  <rdf:RDF xmlns:cc="http://creativecommons.org/ns#" xmlns:dc="http://purl.org/dc/elements/1.1/" xmlns:rdf="http://www.w3.org/1999/02/22-rdf-syntax-ns#">
   <cc:Work>
    <dc:type rdf:resource="http://purl.org/dc/dcmitype/StillImage"/>
    <dc:date>2021-06-20T15:40:02.884942</dc:date>
    <dc:format>image/svg+xml</dc:format>
    <dc:creator>
     <cc:Agent>
      <dc:title>Matplotlib v3.4.2, https://matplotlib.org/</dc:title>
     </cc:Agent>
    </dc:creator>
   </cc:Work>
  </rdf:RDF>
 </metadata>
 <defs>
  <style type="text/css">*{stroke-linecap:butt;stroke-linejoin:round;}</style>
 </defs>
 <g id="figure_1">
  <g id="patch_1">
   <path d="M 0 298.620937 
L 1176.528125 298.620937 
L 1176.528125 0 
L 0 0 
z
" style="fill:#ffffff;"/>
  </g>
  <g id="axes_1">
   <g id="patch_2">
    <path d="M 53.328125 228.96 
L 1169.328125 228.96 
L 1169.328125 7.2 
L 53.328125 7.2 
z
" style="fill:#ffffff;"/>
   </g>
   <g id="matplotlib.axis_1">
    <g id="xtick_1">
     <g id="line2d_1">
      <defs>
       <path d="M 0 0 
L 0 3.5 
" id="m40d0ccf5b7" style="stroke:#000000;stroke-width:0.8;"/>
      </defs>
      <g>
       <use style="stroke:#000000;stroke-width:0.8;" x="123.343334" xlink:href="#m40d0ccf5b7" y="228.96"/>
      </g>
     </g>
     <g id="text_1">
      <!-- 2020-10 -->
      <g transform="translate(126.102709 277.742812)rotate(-90)scale(0.1 -0.1)">
       <defs>
        <path d="M 1228 531 
L 3431 531 
L 3431 0 
L 469 0 
L 469 531 
Q 828 903 1448 1529 
Q 2069 2156 2228 2338 
Q 2531 2678 2651 2914 
Q 2772 3150 2772 3378 
Q 2772 3750 2511 3984 
Q 2250 4219 1831 4219 
Q 1534 4219 1204 4116 
Q 875 4013 500 3803 
L 500 4441 
Q 881 4594 1212 4672 
Q 1544 4750 1819 4750 
Q 2544 4750 2975 4387 
Q 3406 4025 3406 3419 
Q 3406 3131 3298 2873 
Q 3191 2616 2906 2266 
Q 2828 2175 2409 1742 
Q 1991 1309 1228 531 
z
" id="DejaVuSans-32" transform="scale(0.015625)"/>
        <path d="M 2034 4250 
Q 1547 4250 1301 3770 
Q 1056 3291 1056 2328 
Q 1056 1369 1301 889 
Q 1547 409 2034 409 
Q 2525 409 2770 889 
Q 3016 1369 3016 2328 
Q 3016 3291 2770 3770 
Q 2525 4250 2034 4250 
z
M 2034 4750 
Q 2819 4750 3233 4129 
Q 3647 3509 3647 2328 
Q 3647 1150 3233 529 
Q 2819 -91 2034 -91 
Q 1250 -91 836 529 
Q 422 1150 422 2328 
Q 422 3509 836 4129 
Q 1250 4750 2034 4750 
z
" id="DejaVuSans-30" transform="scale(0.015625)"/>
        <path d="M 313 2009 
L 1997 2009 
L 1997 1497 
L 313 1497 
L 313 2009 
z
" id="DejaVuSans-2d" transform="scale(0.015625)"/>
        <path d="M 794 531 
L 1825 531 
L 1825 4091 
L 703 3866 
L 703 4441 
L 1819 4666 
L 2450 4666 
L 2450 531 
L 3481 531 
L 3481 0 
L 794 0 
L 794 531 
z
" id="DejaVuSans-31" transform="scale(0.015625)"/>
       </defs>
       <use xlink:href="#DejaVuSans-32"/>
       <use x="63.623047" xlink:href="#DejaVuSans-30"/>
       <use x="127.246094" xlink:href="#DejaVuSans-32"/>
       <use x="190.869141" xlink:href="#DejaVuSans-30"/>
       <use x="254.492188" xlink:href="#DejaVuSans-2d"/>
       <use x="290.576172" xlink:href="#DejaVuSans-31"/>
       <use x="354.199219" xlink:href="#DejaVuSans-30"/>
      </g>
     </g>
    </g>
    <g id="xtick_2">
     <g id="line2d_2">
      <g>
       <use style="stroke:#000000;stroke-width:0.8;" x="242.92854" xlink:href="#m40d0ccf5b7" y="228.96"/>
      </g>
     </g>
     <g id="text_2">
      <!-- 2020-11 -->
      <g transform="translate(245.687915 277.742812)rotate(-90)scale(0.1 -0.1)">
       <use xlink:href="#DejaVuSans-32"/>
       <use x="63.623047" xlink:href="#DejaVuSans-30"/>
       <use x="127.246094" xlink:href="#DejaVuSans-32"/>
       <use x="190.869141" xlink:href="#DejaVuSans-30"/>
       <use x="254.492188" xlink:href="#DejaVuSans-2d"/>
       <use x="290.576172" xlink:href="#DejaVuSans-31"/>
       <use x="354.199219" xlink:href="#DejaVuSans-31"/>
      </g>
     </g>
    </g>
    <g id="xtick_3">
     <g id="line2d_3">
      <g>
       <use style="stroke:#000000;stroke-width:0.8;" x="358.656158" xlink:href="#m40d0ccf5b7" y="228.96"/>
      </g>
     </g>
     <g id="text_3">
      <!-- 2020-12 -->
      <g transform="translate(361.415533 277.742812)rotate(-90)scale(0.1 -0.1)">
       <use xlink:href="#DejaVuSans-32"/>
       <use x="63.623047" xlink:href="#DejaVuSans-30"/>
       <use x="127.246094" xlink:href="#DejaVuSans-32"/>
       <use x="190.869141" xlink:href="#DejaVuSans-30"/>
       <use x="254.492188" xlink:href="#DejaVuSans-2d"/>
       <use x="290.576172" xlink:href="#DejaVuSans-31"/>
       <use x="354.199219" xlink:href="#DejaVuSans-32"/>
      </g>
     </g>
    </g>
    <g id="xtick_4">
     <g id="line2d_4">
      <g>
       <use style="stroke:#000000;stroke-width:0.8;" x="478.241364" xlink:href="#m40d0ccf5b7" y="228.96"/>
      </g>
     </g>
     <g id="text_4">
      <!-- 2021-01 -->
      <g transform="translate(481.000739 277.742812)rotate(-90)scale(0.1 -0.1)">
       <use xlink:href="#DejaVuSans-32"/>
       <use x="63.623047" xlink:href="#DejaVuSans-30"/>
       <use x="127.246094" xlink:href="#DejaVuSans-32"/>
       <use x="190.869141" xlink:href="#DejaVuSans-31"/>
       <use x="254.492188" xlink:href="#DejaVuSans-2d"/>
       <use x="290.576172" xlink:href="#DejaVuSans-30"/>
       <use x="354.199219" xlink:href="#DejaVuSans-31"/>
      </g>
     </g>
    </g>
    <g id="xtick_5">
     <g id="line2d_5">
      <g>
       <use style="stroke:#000000;stroke-width:0.8;" x="597.82657" xlink:href="#m40d0ccf5b7" y="228.96"/>
      </g>
     </g>
     <g id="text_5">
      <!-- 2021-02 -->
      <g transform="translate(600.585945 277.742812)rotate(-90)scale(0.1 -0.1)">
       <use xlink:href="#DejaVuSans-32"/>
       <use x="63.623047" xlink:href="#DejaVuSans-30"/>
       <use x="127.246094" xlink:href="#DejaVuSans-32"/>
       <use x="190.869141" xlink:href="#DejaVuSans-31"/>
       <use x="254.492188" xlink:href="#DejaVuSans-2d"/>
       <use x="290.576172" xlink:href="#DejaVuSans-30"/>
       <use x="354.199219" xlink:href="#DejaVuSans-32"/>
      </g>
     </g>
    </g>
    <g id="xtick_6">
     <g id="line2d_6">
      <g>
       <use style="stroke:#000000;stroke-width:0.8;" x="705.839013" xlink:href="#m40d0ccf5b7" y="228.96"/>
      </g>
     </g>
     <g id="text_6">
      <!-- 2021-03 -->
      <g transform="translate(708.598388 277.742812)rotate(-90)scale(0.1 -0.1)">
       <defs>
        <path d="M 2597 2516 
Q 3050 2419 3304 2112 
Q 3559 1806 3559 1356 
Q 3559 666 3084 287 
Q 2609 -91 1734 -91 
Q 1441 -91 1130 -33 
Q 819 25 488 141 
L 488 750 
Q 750 597 1062 519 
Q 1375 441 1716 441 
Q 2309 441 2620 675 
Q 2931 909 2931 1356 
Q 2931 1769 2642 2001 
Q 2353 2234 1838 2234 
L 1294 2234 
L 1294 2753 
L 1863 2753 
Q 2328 2753 2575 2939 
Q 2822 3125 2822 3475 
Q 2822 3834 2567 4026 
Q 2313 4219 1838 4219 
Q 1578 4219 1281 4162 
Q 984 4106 628 3988 
L 628 4550 
Q 988 4650 1302 4700 
Q 1616 4750 1894 4750 
Q 2613 4750 3031 4423 
Q 3450 4097 3450 3541 
Q 3450 3153 3228 2886 
Q 3006 2619 2597 2516 
z
" id="DejaVuSans-33" transform="scale(0.015625)"/>
       </defs>
       <use xlink:href="#DejaVuSans-32"/>
       <use x="63.623047" xlink:href="#DejaVuSans-30"/>
       <use x="127.246094" xlink:href="#DejaVuSans-32"/>
       <use x="190.869141" xlink:href="#DejaVuSans-31"/>
       <use x="254.492188" xlink:href="#DejaVuSans-2d"/>
       <use x="290.576172" xlink:href="#DejaVuSans-30"/>
       <use x="354.199219" xlink:href="#DejaVuSans-33"/>
      </g>
     </g>
    </g>
    <g id="xtick_7">
     <g id="line2d_7">
      <g>
       <use style="stroke:#000000;stroke-width:0.8;" x="825.424219" xlink:href="#m40d0ccf5b7" y="228.96"/>
      </g>
     </g>
     <g id="text_7">
      <!-- 2021-04 -->
      <g transform="translate(828.183594 277.742812)rotate(-90)scale(0.1 -0.1)">
       <defs>
        <path d="M 2419 4116 
L 825 1625 
L 2419 1625 
L 2419 4116 
z
M 2253 4666 
L 3047 4666 
L 3047 1625 
L 3713 1625 
L 3713 1100 
L 3047 1100 
L 3047 0 
L 2419 0 
L 2419 1100 
L 313 1100 
L 313 1709 
L 2253 4666 
z
" id="DejaVuSans-34" transform="scale(0.015625)"/>
       </defs>
       <use xlink:href="#DejaVuSans-32"/>
       <use x="63.623047" xlink:href="#DejaVuSans-30"/>
       <use x="127.246094" xlink:href="#DejaVuSans-32"/>
       <use x="190.869141" xlink:href="#DejaVuSans-31"/>
       <use x="254.492188" xlink:href="#DejaVuSans-2d"/>
       <use x="290.576172" xlink:href="#DejaVuSans-30"/>
       <use x="354.199219" xlink:href="#DejaVuSans-34"/>
      </g>
     </g>
    </g>
    <g id="xtick_8">
     <g id="line2d_8">
      <g>
       <use style="stroke:#000000;stroke-width:0.8;" x="941.151837" xlink:href="#m40d0ccf5b7" y="228.96"/>
      </g>
     </g>
     <g id="text_8">
      <!-- 2021-05 -->
      <g transform="translate(943.911212 277.742812)rotate(-90)scale(0.1 -0.1)">
       <defs>
        <path d="M 691 4666 
L 3169 4666 
L 3169 4134 
L 1269 4134 
L 1269 2991 
Q 1406 3038 1543 3061 
Q 1681 3084 1819 3084 
Q 2600 3084 3056 2656 
Q 3513 2228 3513 1497 
Q 3513 744 3044 326 
Q 2575 -91 1722 -91 
Q 1428 -91 1123 -41 
Q 819 9 494 109 
L 494 744 
Q 775 591 1075 516 
Q 1375 441 1709 441 
Q 2250 441 2565 725 
Q 2881 1009 2881 1497 
Q 2881 1984 2565 2268 
Q 2250 2553 1709 2553 
Q 1456 2553 1204 2497 
Q 953 2441 691 2322 
L 691 4666 
z
" id="DejaVuSans-35" transform="scale(0.015625)"/>
       </defs>
       <use xlink:href="#DejaVuSans-32"/>
       <use x="63.623047" xlink:href="#DejaVuSans-30"/>
       <use x="127.246094" xlink:href="#DejaVuSans-32"/>
       <use x="190.869141" xlink:href="#DejaVuSans-31"/>
       <use x="254.492188" xlink:href="#DejaVuSans-2d"/>
       <use x="290.576172" xlink:href="#DejaVuSans-30"/>
       <use x="354.199219" xlink:href="#DejaVuSans-35"/>
      </g>
     </g>
    </g>
    <g id="xtick_9">
     <g id="line2d_9">
      <g>
       <use style="stroke:#000000;stroke-width:0.8;" x="1060.737043" xlink:href="#m40d0ccf5b7" y="228.96"/>
      </g>
     </g>
     <g id="text_9">
      <!-- 2021-06 -->
      <g transform="translate(1063.496418 277.742812)rotate(-90)scale(0.1 -0.1)">
       <defs>
        <path d="M 2113 2584 
Q 1688 2584 1439 2293 
Q 1191 2003 1191 1497 
Q 1191 994 1439 701 
Q 1688 409 2113 409 
Q 2538 409 2786 701 
Q 3034 994 3034 1497 
Q 3034 2003 2786 2293 
Q 2538 2584 2113 2584 
z
M 3366 4563 
L 3366 3988 
Q 3128 4100 2886 4159 
Q 2644 4219 2406 4219 
Q 1781 4219 1451 3797 
Q 1122 3375 1075 2522 
Q 1259 2794 1537 2939 
Q 1816 3084 2150 3084 
Q 2853 3084 3261 2657 
Q 3669 2231 3669 1497 
Q 3669 778 3244 343 
Q 2819 -91 2113 -91 
Q 1303 -91 875 529 
Q 447 1150 447 2328 
Q 447 3434 972 4092 
Q 1497 4750 2381 4750 
Q 2619 4750 2861 4703 
Q 3103 4656 3366 4563 
z
" id="DejaVuSans-36" transform="scale(0.015625)"/>
       </defs>
       <use xlink:href="#DejaVuSans-32"/>
       <use x="63.623047" xlink:href="#DejaVuSans-30"/>
       <use x="127.246094" xlink:href="#DejaVuSans-32"/>
       <use x="190.869141" xlink:href="#DejaVuSans-31"/>
       <use x="254.492188" xlink:href="#DejaVuSans-2d"/>
       <use x="290.576172" xlink:href="#DejaVuSans-30"/>
       <use x="354.199219" xlink:href="#DejaVuSans-36"/>
      </g>
     </g>
    </g>
    <g id="text_10">
     <!-- Date -->
     <g transform="translate(599.377344 289.34125)scale(0.1 -0.1)">
      <defs>
       <path d="M 1259 4147 
L 1259 519 
L 2022 519 
Q 2988 519 3436 956 
Q 3884 1394 3884 2338 
Q 3884 3275 3436 3711 
Q 2988 4147 2022 4147 
L 1259 4147 
z
M 628 4666 
L 1925 4666 
Q 3281 4666 3915 4102 
Q 4550 3538 4550 2338 
Q 4550 1131 3912 565 
Q 3275 0 1925 0 
L 628 0 
L 628 4666 
z
" id="DejaVuSans-44" transform="scale(0.015625)"/>
       <path d="M 2194 1759 
Q 1497 1759 1228 1600 
Q 959 1441 959 1056 
Q 959 750 1161 570 
Q 1363 391 1709 391 
Q 2188 391 2477 730 
Q 2766 1069 2766 1631 
L 2766 1759 
L 2194 1759 
z
M 3341 1997 
L 3341 0 
L 2766 0 
L 2766 531 
Q 2569 213 2275 61 
Q 1981 -91 1556 -91 
Q 1019 -91 701 211 
Q 384 513 384 1019 
Q 384 1609 779 1909 
Q 1175 2209 1959 2209 
L 2766 2209 
L 2766 2266 
Q 2766 2663 2505 2880 
Q 2244 3097 1772 3097 
Q 1472 3097 1187 3025 
Q 903 2953 641 2809 
L 641 3341 
Q 956 3463 1253 3523 
Q 1550 3584 1831 3584 
Q 2591 3584 2966 3190 
Q 3341 2797 3341 1997 
z
" id="DejaVuSans-61" transform="scale(0.015625)"/>
       <path d="M 1172 4494 
L 1172 3500 
L 2356 3500 
L 2356 3053 
L 1172 3053 
L 1172 1153 
Q 1172 725 1289 603 
Q 1406 481 1766 481 
L 2356 481 
L 2356 0 
L 1766 0 
Q 1100 0 847 248 
Q 594 497 594 1153 
L 594 3053 
L 172 3053 
L 172 3500 
L 594 3500 
L 594 4494 
L 1172 4494 
z
" id="DejaVuSans-74" transform="scale(0.015625)"/>
       <path d="M 3597 1894 
L 3597 1613 
L 953 1613 
Q 991 1019 1311 708 
Q 1631 397 2203 397 
Q 2534 397 2845 478 
Q 3156 559 3463 722 
L 3463 178 
Q 3153 47 2828 -22 
Q 2503 -91 2169 -91 
Q 1331 -91 842 396 
Q 353 884 353 1716 
Q 353 2575 817 3079 
Q 1281 3584 2069 3584 
Q 2775 3584 3186 3129 
Q 3597 2675 3597 1894 
z
M 3022 2063 
Q 3016 2534 2758 2815 
Q 2500 3097 2075 3097 
Q 1594 3097 1305 2825 
Q 1016 2553 972 2059 
L 3022 2063 
z
" id="DejaVuSans-65" transform="scale(0.015625)"/>
      </defs>
      <use xlink:href="#DejaVuSans-44"/>
      <use x="77.001953" xlink:href="#DejaVuSans-61"/>
      <use x="138.28125" xlink:href="#DejaVuSans-74"/>
      <use x="177.490234" xlink:href="#DejaVuSans-65"/>
     </g>
    </g>
   </g>
   <g id="matplotlib.axis_2">
    <g id="ytick_1">
     <g id="line2d_10">
      <defs>
       <path d="M 0 0 
L -3.5 0 
" id="m7644bbf3fe" style="stroke:#000000;stroke-width:0.8;"/>
      </defs>
      <g>
       <use style="stroke:#000000;stroke-width:0.8;" x="53.328125" xlink:href="#m7644bbf3fe" y="228.96"/>
      </g>
     </g>
     <g id="text_11">
      <!-- 1 -->
      <g transform="translate(39.965625 232.759219)scale(0.1 -0.1)">
       <use xlink:href="#DejaVuSans-31"/>
      </g>
     </g>
    </g>
    <g id="ytick_2">
     <g id="line2d_11">
      <g>
       <use style="stroke:#000000;stroke-width:0.8;" x="53.328125" xlink:href="#m7644bbf3fe" y="200.023992"/>
      </g>
     </g>
     <g id="text_12">
      <!-- 3 -->
      <g transform="translate(39.965625 203.823211)scale(0.1 -0.1)">
       <use xlink:href="#DejaVuSans-33"/>
      </g>
     </g>
    </g>
    <g id="ytick_3">
     <g id="line2d_12">
      <g>
       <use style="stroke:#000000;stroke-width:0.8;" x="53.328125" xlink:href="#m7644bbf3fe" y="171.087984"/>
      </g>
     </g>
     <g id="text_13">
      <!-- 10 -->
      <g transform="translate(33.603125 174.887203)scale(0.1 -0.1)">
       <use xlink:href="#DejaVuSans-31"/>
       <use x="63.623047" xlink:href="#DejaVuSans-30"/>
      </g>
     </g>
    </g>
    <g id="ytick_4">
     <g id="line2d_13">
      <g>
       <use style="stroke:#000000;stroke-width:0.8;" x="53.328125" xlink:href="#m7644bbf3fe" y="142.151976"/>
      </g>
     </g>
     <g id="text_14">
      <!-- 31 -->
      <g transform="translate(33.603125 145.951195)scale(0.1 -0.1)">
       <use xlink:href="#DejaVuSans-33"/>
       <use x="63.623047" xlink:href="#DejaVuSans-31"/>
      </g>
     </g>
    </g>
    <g id="ytick_5">
     <g id="line2d_14">
      <g>
       <use style="stroke:#000000;stroke-width:0.8;" x="53.328125" xlink:href="#m7644bbf3fe" y="113.215968"/>
      </g>
     </g>
     <g id="text_15">
      <!-- 100 -->
      <g transform="translate(27.240625 117.015187)scale(0.1 -0.1)">
       <use xlink:href="#DejaVuSans-31"/>
       <use x="63.623047" xlink:href="#DejaVuSans-30"/>
       <use x="127.246094" xlink:href="#DejaVuSans-30"/>
      </g>
     </g>
    </g>
    <g id="ytick_6">
     <g id="line2d_15">
      <g>
       <use style="stroke:#000000;stroke-width:0.8;" x="53.328125" xlink:href="#m7644bbf3fe" y="84.27996"/>
      </g>
     </g>
     <g id="text_16">
      <!-- 316 -->
      <g transform="translate(27.240625 88.079179)scale(0.1 -0.1)">
       <use xlink:href="#DejaVuSans-33"/>
       <use x="63.623047" xlink:href="#DejaVuSans-31"/>
       <use x="127.246094" xlink:href="#DejaVuSans-36"/>
      </g>
     </g>
    </g>
    <g id="ytick_7">
     <g id="line2d_16">
      <g>
       <use style="stroke:#000000;stroke-width:0.8;" x="53.328125" xlink:href="#m7644bbf3fe" y="55.343952"/>
      </g>
     </g>
     <g id="text_17">
      <!-- 1000 -->
      <g transform="translate(20.878125 59.143171)scale(0.1 -0.1)">
       <use xlink:href="#DejaVuSans-31"/>
       <use x="63.623047" xlink:href="#DejaVuSans-30"/>
       <use x="127.246094" xlink:href="#DejaVuSans-30"/>
       <use x="190.869141" xlink:href="#DejaVuSans-30"/>
      </g>
     </g>
    </g>
    <g id="ytick_8">
     <g id="line2d_17">
      <g>
       <use style="stroke:#000000;stroke-width:0.8;" x="53.328125" xlink:href="#m7644bbf3fe" y="26.407944"/>
      </g>
     </g>
     <g id="text_18">
      <!-- 3162 -->
      <g transform="translate(20.878125 30.207163)scale(0.1 -0.1)">
       <use xlink:href="#DejaVuSans-33"/>
       <use x="63.623047" xlink:href="#DejaVuSans-31"/>
       <use x="127.246094" xlink:href="#DejaVuSans-36"/>
       <use x="190.869141" xlink:href="#DejaVuSans-32"/>
      </g>
     </g>
    </g>
    <g id="text_19">
     <!-- Count (7 day rolling average) -->
     <g transform="translate(14.798437 191.547969)rotate(-90)scale(0.1 -0.1)">
      <defs>
       <path d="M 4122 4306 
L 4122 3641 
Q 3803 3938 3442 4084 
Q 3081 4231 2675 4231 
Q 1875 4231 1450 3742 
Q 1025 3253 1025 2328 
Q 1025 1406 1450 917 
Q 1875 428 2675 428 
Q 3081 428 3442 575 
Q 3803 722 4122 1019 
L 4122 359 
Q 3791 134 3420 21 
Q 3050 -91 2638 -91 
Q 1578 -91 968 557 
Q 359 1206 359 2328 
Q 359 3453 968 4101 
Q 1578 4750 2638 4750 
Q 3056 4750 3426 4639 
Q 3797 4528 4122 4306 
z
" id="DejaVuSans-43" transform="scale(0.015625)"/>
       <path d="M 1959 3097 
Q 1497 3097 1228 2736 
Q 959 2375 959 1747 
Q 959 1119 1226 758 
Q 1494 397 1959 397 
Q 2419 397 2687 759 
Q 2956 1122 2956 1747 
Q 2956 2369 2687 2733 
Q 2419 3097 1959 3097 
z
M 1959 3584 
Q 2709 3584 3137 3096 
Q 3566 2609 3566 1747 
Q 3566 888 3137 398 
Q 2709 -91 1959 -91 
Q 1206 -91 779 398 
Q 353 888 353 1747 
Q 353 2609 779 3096 
Q 1206 3584 1959 3584 
z
" id="DejaVuSans-6f" transform="scale(0.015625)"/>
       <path d="M 544 1381 
L 544 3500 
L 1119 3500 
L 1119 1403 
Q 1119 906 1312 657 
Q 1506 409 1894 409 
Q 2359 409 2629 706 
Q 2900 1003 2900 1516 
L 2900 3500 
L 3475 3500 
L 3475 0 
L 2900 0 
L 2900 538 
Q 2691 219 2414 64 
Q 2138 -91 1772 -91 
Q 1169 -91 856 284 
Q 544 659 544 1381 
z
M 1991 3584 
L 1991 3584 
z
" id="DejaVuSans-75" transform="scale(0.015625)"/>
       <path d="M 3513 2113 
L 3513 0 
L 2938 0 
L 2938 2094 
Q 2938 2591 2744 2837 
Q 2550 3084 2163 3084 
Q 1697 3084 1428 2787 
Q 1159 2491 1159 1978 
L 1159 0 
L 581 0 
L 581 3500 
L 1159 3500 
L 1159 2956 
Q 1366 3272 1645 3428 
Q 1925 3584 2291 3584 
Q 2894 3584 3203 3211 
Q 3513 2838 3513 2113 
z
" id="DejaVuSans-6e" transform="scale(0.015625)"/>
       <path id="DejaVuSans-20" transform="scale(0.015625)"/>
       <path d="M 1984 4856 
Q 1566 4138 1362 3434 
Q 1159 2731 1159 2009 
Q 1159 1288 1364 580 
Q 1569 -128 1984 -844 
L 1484 -844 
Q 1016 -109 783 600 
Q 550 1309 550 2009 
Q 550 2706 781 3412 
Q 1013 4119 1484 4856 
L 1984 4856 
z
" id="DejaVuSans-28" transform="scale(0.015625)"/>
       <path d="M 525 4666 
L 3525 4666 
L 3525 4397 
L 1831 0 
L 1172 0 
L 2766 4134 
L 525 4134 
L 525 4666 
z
" id="DejaVuSans-37" transform="scale(0.015625)"/>
       <path d="M 2906 2969 
L 2906 4863 
L 3481 4863 
L 3481 0 
L 2906 0 
L 2906 525 
Q 2725 213 2448 61 
Q 2172 -91 1784 -91 
Q 1150 -91 751 415 
Q 353 922 353 1747 
Q 353 2572 751 3078 
Q 1150 3584 1784 3584 
Q 2172 3584 2448 3432 
Q 2725 3281 2906 2969 
z
M 947 1747 
Q 947 1113 1208 752 
Q 1469 391 1925 391 
Q 2381 391 2643 752 
Q 2906 1113 2906 1747 
Q 2906 2381 2643 2742 
Q 2381 3103 1925 3103 
Q 1469 3103 1208 2742 
Q 947 2381 947 1747 
z
" id="DejaVuSans-64" transform="scale(0.015625)"/>
       <path d="M 2059 -325 
Q 1816 -950 1584 -1140 
Q 1353 -1331 966 -1331 
L 506 -1331 
L 506 -850 
L 844 -850 
Q 1081 -850 1212 -737 
Q 1344 -625 1503 -206 
L 1606 56 
L 191 3500 
L 800 3500 
L 1894 763 
L 2988 3500 
L 3597 3500 
L 2059 -325 
z
" id="DejaVuSans-79" transform="scale(0.015625)"/>
       <path d="M 2631 2963 
Q 2534 3019 2420 3045 
Q 2306 3072 2169 3072 
Q 1681 3072 1420 2755 
Q 1159 2438 1159 1844 
L 1159 0 
L 581 0 
L 581 3500 
L 1159 3500 
L 1159 2956 
Q 1341 3275 1631 3429 
Q 1922 3584 2338 3584 
Q 2397 3584 2469 3576 
Q 2541 3569 2628 3553 
L 2631 2963 
z
" id="DejaVuSans-72" transform="scale(0.015625)"/>
       <path d="M 603 4863 
L 1178 4863 
L 1178 0 
L 603 0 
L 603 4863 
z
" id="DejaVuSans-6c" transform="scale(0.015625)"/>
       <path d="M 603 3500 
L 1178 3500 
L 1178 0 
L 603 0 
L 603 3500 
z
M 603 4863 
L 1178 4863 
L 1178 4134 
L 603 4134 
L 603 4863 
z
" id="DejaVuSans-69" transform="scale(0.015625)"/>
       <path d="M 2906 1791 
Q 2906 2416 2648 2759 
Q 2391 3103 1925 3103 
Q 1463 3103 1205 2759 
Q 947 2416 947 1791 
Q 947 1169 1205 825 
Q 1463 481 1925 481 
Q 2391 481 2648 825 
Q 2906 1169 2906 1791 
z
M 3481 434 
Q 3481 -459 3084 -895 
Q 2688 -1331 1869 -1331 
Q 1566 -1331 1297 -1286 
Q 1028 -1241 775 -1147 
L 775 -588 
Q 1028 -725 1275 -790 
Q 1522 -856 1778 -856 
Q 2344 -856 2625 -561 
Q 2906 -266 2906 331 
L 2906 616 
Q 2728 306 2450 153 
Q 2172 0 1784 0 
Q 1141 0 747 490 
Q 353 981 353 1791 
Q 353 2603 747 3093 
Q 1141 3584 1784 3584 
Q 2172 3584 2450 3431 
Q 2728 3278 2906 2969 
L 2906 3500 
L 3481 3500 
L 3481 434 
z
" id="DejaVuSans-67" transform="scale(0.015625)"/>
       <path d="M 191 3500 
L 800 3500 
L 1894 563 
L 2988 3500 
L 3597 3500 
L 2284 0 
L 1503 0 
L 191 3500 
z
" id="DejaVuSans-76" transform="scale(0.015625)"/>
       <path d="M 513 4856 
L 1013 4856 
Q 1481 4119 1714 3412 
Q 1947 2706 1947 2009 
Q 1947 1309 1714 600 
Q 1481 -109 1013 -844 
L 513 -844 
Q 928 -128 1133 580 
Q 1338 1288 1338 2009 
Q 1338 2731 1133 3434 
Q 928 4138 513 4856 
z
" id="DejaVuSans-29" transform="scale(0.015625)"/>
      </defs>
      <use xlink:href="#DejaVuSans-43"/>
      <use x="69.824219" xlink:href="#DejaVuSans-6f"/>
      <use x="131.005859" xlink:href="#DejaVuSans-75"/>
      <use x="194.384766" xlink:href="#DejaVuSans-6e"/>
      <use x="257.763672" xlink:href="#DejaVuSans-74"/>
      <use x="296.972656" xlink:href="#DejaVuSans-20"/>
      <use x="328.759766" xlink:href="#DejaVuSans-28"/>
      <use x="367.773438" xlink:href="#DejaVuSans-37"/>
      <use x="431.396484" xlink:href="#DejaVuSans-20"/>
      <use x="463.183594" xlink:href="#DejaVuSans-64"/>
      <use x="526.660156" xlink:href="#DejaVuSans-61"/>
      <use x="587.939453" xlink:href="#DejaVuSans-79"/>
      <use x="647.119141" xlink:href="#DejaVuSans-20"/>
      <use x="678.90625" xlink:href="#DejaVuSans-72"/>
      <use x="717.769531" xlink:href="#DejaVuSans-6f"/>
      <use x="778.951172" xlink:href="#DejaVuSans-6c"/>
      <use x="806.734375" xlink:href="#DejaVuSans-6c"/>
      <use x="834.517578" xlink:href="#DejaVuSans-69"/>
      <use x="862.300781" xlink:href="#DejaVuSans-6e"/>
      <use x="925.679688" xlink:href="#DejaVuSans-67"/>
      <use x="989.15625" xlink:href="#DejaVuSans-20"/>
      <use x="1020.943359" xlink:href="#DejaVuSans-61"/>
      <use x="1082.222656" xlink:href="#DejaVuSans-76"/>
      <use x="1141.402344" xlink:href="#DejaVuSans-65"/>
      <use x="1202.925781" xlink:href="#DejaVuSans-72"/>
      <use x="1244.039062" xlink:href="#DejaVuSans-61"/>
      <use x="1305.318359" xlink:href="#DejaVuSans-67"/>
      <use x="1368.794922" xlink:href="#DejaVuSans-65"/>
      <use x="1430.318359" xlink:href="#DejaVuSans-29"/>
     </g>
    </g>
   </g>
   <g id="line2d_18">
    <path clip-path="url(#pf961d0c57e)" d="M 134.916096 225.603889 
L 138.773683 228.96 
L 142.631271 225.603889 
L 146.488858 225.603889 
L 150.346445 222.64359 
L 154.204032 219.995511 
L 165.776794 219.995511 
L 169.634381 222.64359 
L 173.491969 219.995511 
L 177.349556 222.64359 
L 181.207143 225.603889 
L 188.922318 225.603889 
L 192.779905 222.64359 
L 196.637492 222.64359 
L 200.49508 225.603889 
L 208.210254 225.603889 
L 212.067842 219.995511 
L 215.925429 219.995511 
L 219.783016 222.64359 
L 223.640603 219.995511 
L 227.498191 217.600033 
L 235.213365 217.600033 
L 239.070953 222.64359 
L 242.92854 222.64359 
L 246.786127 219.995511 
L 250.643714 215.413133 
L 258.358889 215.413133 
L 262.216476 209.804755 
L 266.074063 209.804755 
L 269.931651 202.574299 
L 273.789238 188.509197 
L 277.646825 190.761464 
L 281.504413 191.559419 
L 285.362 189.237755 
L 289.219587 189.988064 
L 293.077174 189.988064 
L 296.934762 194.117575 
L 300.792349 211.538787 
L 304.649936 209.804755 
L 308.507524 209.804755 
L 312.365111 211.538787 
L 316.222698 213.40138 
L 323.937873 213.40138 
L 327.79546 209.804755 
L 331.653047 208.182676 
L 335.510635 203.863478 
L 339.368222 206.658968 
L 343.225809 208.182676 
L 350.940984 205.222377 
L 354.798571 191.559419 
L 358.656158 192.383542 
L 366.371333 192.383542 
L 370.22892 191.559419 
L 374.086507 191.559419 
L 377.944095 192.383542 
L 381.801682 189.988064 
L 385.659269 189.988064 
L 389.516856 190.761464 
L 393.374444 185.153086 
L 397.232031 183.926818 
L 401.089618 181.640379 
L 404.947206 178.080207 
L 408.804793 168.048022 
L 412.66238 160.422997 
L 416.519967 156.31485 
L 420.377555 155.145639 
L 424.235142 151.765739 
L 428.092729 149.690049 
L 431.950316 146.391473 
L 435.807904 135.800706 
L 439.665491 132.192326 
L 443.523078 129.445132 
L 447.380666 128.111477 
L 451.238253 128.307069 
L 455.09584 126.599232 
L 458.953427 126.295316 
L 462.811015 122.283252 
L 470.526189 116.757415 
L 474.383777 114.809339 
L 478.241364 113.907592 
L 482.098951 113.14426 
L 485.956538 111.650054 
L 489.814126 108.130014 
L 493.671713 106.429242 
L 497.5293 105.726539 
L 505.244475 97.580133 
L 509.102062 96.4495 
L 512.959649 95.017004 
L 516.817237 90.37378 
L 520.674824 89.63241 
L 524.532411 88.000674 
L 528.389998 87.350858 
L 532.247586 85.965638 
L 536.105173 84.965879 
L 539.96276 84.73359 
L 543.820348 81.171672 
L 551.535522 78.20357 
L 555.393109 77.439628 
L 559.250697 76.799195 
L 563.108284 76.63951 
L 566.965871 76.182903 
L 574.681046 72.155064 
L 578.538633 70.389279 
L 582.39622 68.843674 
L 586.253808 66.95082 
L 590.111395 66.242946 
L 593.968982 66.143429 
L 597.82657 62.569622 
L 605.541744 56.929673 
L 609.399331 55.012234 
L 613.256919 54.042567 
L 617.114506 53.452908 
L 620.972093 52.643507 
L 624.82968 49.097454 
L 628.687268 48.063279 
L 632.544855 47.798615 
L 636.402442 47.280108 
L 640.26003 45.8719 
L 644.117617 45.374384 
L 647.975204 45.405796 
L 651.832791 43.112735 
L 655.690379 42.051801 
L 659.547966 41.205097 
L 663.405553 39.862785 
L 667.263141 39.445438 
L 671.120728 39.397799 
L 674.978315 39.061193 
L 678.835902 37.042505 
L 682.69349 36.517585 
L 686.551077 34.751092 
L 690.408664 34.220298 
L 694.266252 33.395776 
L 698.123839 33.019276 
L 701.981426 32.44684 
L 705.839013 31.33137 
L 709.696601 29.419894 
L 713.554188 28.709408 
L 717.411775 28.210455 
L 725.12695 26.715177 
L 728.984537 26.466991 
L 732.842124 24.637994 
L 736.699712 24.336109 
L 740.557299 23.603488 
L 744.414886 22.657763 
L 748.272473 22.174402 
L 755.987648 21.668173 
L 759.845235 20.784973 
L 763.702823 19.724646 
L 767.56041 19.629961 
L 771.417997 18.808579 
L 775.275584 18.766657 
L 779.133172 18.8859 
L 782.990759 18.796834 
L 786.848346 18.504139 
L 790.705934 19.212077 
L 794.563521 19.518362 
L 798.421108 19.569342 
L 802.278695 18.896845 
L 806.136283 18.86823 
L 813.851457 19.203552 
L 817.709044 18.478452 
L 821.566632 18.841328 
L 825.424219 19.568477 
L 829.281806 21.001965 
L 836.996981 20.934296 
L 840.854568 24.039873 
L 844.712155 25.256119 
L 848.569743 24.624241 
L 852.42733 24.110238 
L 856.284917 22.725338 
L 860.142505 21.928087 
L 864.000092 21.916689 
L 867.857679 19.204404 
L 871.715266 17.847884 
L 875.572854 17.76 
L 879.430441 18.095442 
L 883.288028 17.878594 
L 887.145615 18.098705 
L 891.003203 18.096258 
L 894.86079 18.808579 
L 898.718377 19.390075 
L 902.575965 19.496792 
L 910.291139 19.172031 
L 914.148726 19.104013 
L 918.006314 19.157562 
L 921.863901 18.862343 
L 925.721488 18.842168 
L 929.579076 19.439935 
L 933.436663 19.244502 
L 941.151837 20.39136 
L 945.009425 20.385105 
L 948.867012 19.294074 
L 952.724599 20.189305 
L 956.582187 20.044331 
L 960.439774 20.789513 
L 964.297361 21.035868 
L 968.154948 20.899618 
L 972.012536 21.101053 
L 975.870123 21.981346 
L 979.72771 22.35832 
L 983.585297 23.072925 
L 987.442885 24.606268 
L 991.300472 25.533117 
L 999.015647 25.742335 
L 1002.873234 27.480712 
L 1006.730821 28.052374 
L 1010.588408 28.811648 
L 1014.445996 28.659686 
L 1022.16117 30.419987 
L 1026.018758 31.174414 
L 1029.876345 38.175339 
L 1033.733932 39.449253 
L 1037.591519 39.111962 
L 1045.306694 41.740598 
L 1049.164281 42.23229 
L 1053.021869 42.599365 
L 1056.879456 46.364388 
L 1060.737043 51.123213 
L 1064.59463 57.604074 
L 1068.452218 61.898978 
L 1072.309805 67.341296 
L 1076.167392 72.204173 
L 1080.024979 74.419818 
L 1083.882567 79.861932 
L 1095.455329 103.025212 
L 1099.312916 108.603687 
L 1103.170503 115.078561 
L 1107.02809 119.552904 
L 1110.885678 129.037553 
L 1114.743265 151.765739 
L 1118.600852 158.393182 
L 1118.600852 158.393182 
" style="fill:none;stroke:#947383;stroke-linecap:square;stroke-width:2;"/>
   </g>
   <g id="line2d_19">
    <path clip-path="url(#pf961d0c57e)" d="M 277.646825 217.600033 
L 293.077174 217.600033 
L 296.934762 222.64359 
L 304.649936 222.64359 
L 308.507524 225.603889 
L 312.365111 222.64359 
L 316.222698 222.64359 
L 320.080285 219.995511 
L 323.937873 219.995511 
L 327.79546 215.413133 
L 331.653047 211.538787 
L 335.510635 213.40138 
L 343.225809 213.40138 
L 347.083396 215.413133 
L 350.940984 215.413133 
L 354.798571 219.995511 
L 358.656158 222.64359 
L 362.513745 219.995511 
L 366.371333 219.995511 
L 370.22892 217.600033 
L 377.944095 217.600033 
L 381.801682 213.40138 
L 385.659269 215.413133 
L 389.516856 217.600033 
L 393.374444 215.413133 
L 397.232031 217.600033 
L 401.089618 217.600033 
L 404.947206 215.413133 
L 408.804793 215.413133 
L 412.66238 208.182676 
L 416.519967 208.182676 
L 420.377555 205.222377 
L 424.235142 202.574299 
L 428.092729 201.348031 
L 431.950316 197.99192 
L 435.807904 197.99192 
L 439.665491 201.348031 
L 443.523078 196.965921 
L 447.380666 197.99192 
L 451.238253 200.17882 
L 455.09584 186.442266 
L 458.953427 184.532474 
L 462.811015 178.080207 
L 466.668602 169.353952 
L 470.526189 165.052398 
L 474.383777 159.051739 
L 478.241364 157.963539 
L 482.098951 158.610789 
L 485.956538 155.723446 
L 489.814126 153.487884 
L 493.671713 150.786387 
L 497.5293 149.385397 
L 501.386888 147.772782 
L 505.244475 145.338608 
L 509.102062 145.338608 
L 512.959649 146.257428 
L 516.817237 143.716529 
L 520.674824 143.837654 
L 524.532411 143.476015 
L 528.389998 142.07935 
L 532.247586 141.519561 
L 536.105173 137.724426 
L 539.96276 136.516299 
L 543.820348 136.155956 
L 547.677935 135.019291 
L 551.535522 130.853539 
L 555.393109 129.99906 
L 559.250697 128.636478 
L 563.108284 128.836215 
L 566.965871 128.57025 
L 570.823459 127.030983 
L 574.681046 124.885592 
L 578.538633 122.909015 
L 582.39622 120.735319 
L 586.253808 119.04976 
L 590.111395 118.600935 
L 593.968982 117.512735 
L 597.82657 114.542971 
L 601.684157 113.36 
L 605.541744 113.14426 
L 609.399331 111.819303 
L 613.256919 110.239716 
L 617.114506 109.300622 
L 620.972093 107.780528 
L 624.82968 106.021442 
L 628.687268 102.293918 
L 632.544855 99.150866 
L 636.402442 98.027394 
L 640.26003 96.083649 
L 644.117617 94.50019 
L 647.975204 93.612344 
L 655.690379 91.558844 
L 659.547966 91.54368 
L 667.263141 90.15767 
L 671.120728 89.646462 
L 674.978315 88.265379 
L 678.835902 85.675912 
L 682.69349 83.350364 
L 686.551077 80.882377 
L 690.408664 78.899633 
L 694.266252 77.044898 
L 698.123839 75.421223 
L 701.981426 74.58912 
L 705.839013 73.302257 
L 709.696601 72.815482 
L 713.554188 70.997644 
L 717.411775 69.327502 
L 721.269362 67.885345 
L 725.12695 67.393434 
L 728.984537 66.077303 
L 732.842124 62.887528 
L 736.699712 61.114424 
L 740.557299 59.957947 
L 744.414886 58.654966 
L 748.272473 56.591592 
L 752.130061 54.948533 
L 759.845235 52.857245 
L 763.702823 50.582687 
L 767.56041 49.159138 
L 771.417997 47.26969 
L 775.275584 46.196655 
L 779.133172 45.253931 
L 782.990759 44.580503 
L 786.848346 43.287697 
L 790.705934 42.334788 
L 794.563521 40.141648 
L 798.421108 39.104434 
L 802.278695 38.568272 
L 809.99387 37.323154 
L 813.851457 36.277669 
L 817.709044 35.587719 
L 821.566632 35.011958 
L 825.424219 33.525051 
L 829.281806 32.705158 
L 833.139394 32.617788 
L 836.996981 32.728508 
L 844.712155 30.813304 
L 848.569743 30.400016 
L 852.42733 30.326925 
L 856.284917 29.224818 
L 860.142505 28.314355 
L 864.000092 27.657889 
L 867.857679 27.229581 
L 875.572854 26.716326 
L 879.430441 26.824606 
L 898.718377 29.694017 
L 902.575965 30.411997 
L 914.148726 31.98477 
L 918.006314 31.884329 
L 929.579076 31.938036 
L 941.151837 31.525473 
L 948.867012 31.9621 
L 952.724599 32.659979 
L 956.582187 33.142171 
L 960.439774 34.135228 
L 964.297361 35.327317 
L 968.154948 36.185356 
L 972.012536 36.752957 
L 975.870123 38.309889 
L 979.72771 39.196806 
L 983.585297 40.596762 
L 987.442885 41.655064 
L 991.300472 43.035608 
L 995.158059 43.677406 
L 999.015647 44.678965 
L 1002.873234 46.264114 
L 1010.588408 50.806495 
L 1014.445996 53.059699 
L 1022.16117 56.414873 
L 1026.018758 57.596219 
L 1029.876345 61.368667 
L 1033.733932 63.790625 
L 1037.591519 66.033315 
L 1041.449107 68.580877 
L 1045.306694 70.526853 
L 1049.164281 71.738016 
L 1053.021869 72.707782 
L 1056.879456 78.132345 
L 1060.737043 80.22647 
L 1064.59463 82.970287 
L 1068.452218 86.062961 
L 1076.167392 91.680482 
L 1080.024979 93.350363 
L 1083.882567 93.301545 
L 1087.740154 101.425584 
L 1091.597741 110.144211 
L 1095.455329 120.542354 
L 1099.312916 133.126186 
L 1107.02809 145.082141 
L 1110.885678 163.678641 
L 1110.885678 163.678641 
" style="fill:none;stroke:#96c6ad;stroke-linecap:square;stroke-width:2;"/>
   </g>
   <g id="line2d_20">
    <path clip-path="url(#pf961d0c57e)" d="M 104.055398 219.995511 
L 107.912985 222.64359 
L 111.770572 225.603889 
L 115.62816 225.603889 
L 119.485747 222.64359 
L 123.343334 219.995511 
L 142.631271 219.995511 
L 146.488858 225.603889 
L 158.06162 225.603889 
L 161.919207 217.600033 
L 173.491969 217.600033 
L 177.349556 213.40138 
L 185.064731 213.40138 
L 188.922318 219.995511 
L 196.637492 219.995511 
L 200.49508 199.061592 
L 204.352667 195.031621 
L 208.210254 192.383542 
L 212.067842 188.509197 
L 215.925429 187.801164 
L 219.783016 186.442266 
L 223.640603 186.442266 
L 227.498191 196.965921 
L 231.355778 187.801164 
L 235.213365 184.532474 
L 239.070953 185.153086 
L 242.92854 168.368198 
L 246.786127 156.716994 
L 250.643714 155.336769 
L 254.501302 154.580817 
L 258.358889 144.32808 
L 262.216476 141.966391 
L 266.074063 142.421308 
L 269.931651 136.245559 
L 273.789238 136.789988 
L 277.646825 135.889049 
L 281.504413 132.577226 
L 285.362 128.372607 
L 289.219587 119.972194 
L 293.077174 114.505148 
L 296.934762 114.885966 
L 300.792349 115.984015 
L 304.649936 112.788759 
L 308.507524 110.951394 
L 312.365111 113.577607 
L 316.222698 119.322953 
L 320.080285 119.784979 
L 323.937873 112.824084 
L 327.79546 112.023919 
L 331.653047 114.542971 
L 335.510635 117.769639 
L 339.368222 116.306761 
L 343.225809 114.167277 
L 347.083396 115.903972 
L 350.940984 125.639363 
L 354.798571 125.230679 
L 358.656158 124.942778 
L 362.513745 122.129216 
L 366.371333 124.545178 
L 370.22892 120.160814 
L 374.086507 118.869267 
L 377.944095 118.690061 
L 381.801682 109.086458 
L 385.659269 103.6554 
L 389.516856 100.564537 
L 393.374444 85.532292 
L 397.232031 82.798433 
L 401.089618 80.615994 
L 404.947206 76.092568 
L 408.804793 73.010512 
L 416.519967 66.126881 
L 420.377555 66.18761 
L 424.235142 62.979796 
L 428.092729 61.801299 
L 431.950316 62.09548 
L 435.807904 62.109575 
L 439.665491 63.53069 
L 443.523078 65.355821 
L 447.380666 68.550497 
L 451.238253 73.723932 
L 455.09584 71.395686 
L 458.953427 70.232967 
L 462.811015 71.19925 
L 466.668602 65.522145 
L 474.383777 60.768987 
L 478.241364 59.496298 
L 482.098951 56.384916 
L 485.956538 54.121104 
L 489.814126 51.214442 
L 493.671713 51.471658 
L 497.5293 52.028716 
L 501.386888 51.915686 
L 505.244475 49.655275 
L 509.102062 49.532457 
L 512.959649 49.787331 
L 516.817237 49.091854 
L 520.674824 46.918023 
L 524.532411 45.396126 
L 528.389998 43.733899 
L 532.247586 42.369048 
L 536.105173 43.013615 
L 539.96276 42.117476 
L 543.820348 42.23229 
L 547.677935 42.740315 
L 551.535522 41.994739 
L 555.393109 42.315538 
L 563.108284 41.680068 
L 566.965871 42.444153 
L 570.823459 38.874048 
L 574.681046 37.417991 
L 578.538633 35.630291 
L 582.39622 34.27769 
L 586.253808 32.765036 
L 590.111395 31.390828 
L 593.968982 31.09767 
L 597.82657 33.848126 
L 605.541744 38.337251 
L 609.399331 39.681147 
L 613.256919 43.130397 
L 617.114506 45.859587 
L 620.972093 46.027556 
L 624.82968 44.484756 
L 628.687268 43.312156 
L 632.544855 41.832716 
L 636.402442 41.299376 
L 640.26003 39.905486 
L 644.117617 39.548648 
L 647.975204 38.308066 
L 651.832791 36.735827 
L 655.690379 35.581176 
L 659.547966 35.973483 
L 667.263141 36.212176 
L 674.978315 35.026352 
L 678.835902 35.993426 
L 682.69349 36.728978 
L 686.551077 36.553261 
L 690.408664 34.129053 
L 694.266252 34.183141 
L 698.123839 34.703665 
L 701.981426 35.748559 
L 705.839013 35.903806 
L 709.696601 35.618822 
L 713.554188 35.194899 
L 717.411775 38.079413 
L 721.269362 38.097485 
L 725.12695 38.35003 
L 728.984537 39.594656 
L 732.842124 39.839524 
L 736.699712 39.638825 
L 740.557299 38.111951 
L 744.414886 35.786456 
L 748.272473 35.06638 
L 752.130061 33.857287 
L 759.845235 30.968014 
L 763.702823 30.413329 
L 771.417997 33.534095 
L 775.275584 34.787514 
L 779.133172 34.676829 
L 786.848346 34.226496 
L 790.705934 34.524251 
L 794.563521 34.238897 
L 798.421108 33.470855 
L 802.278695 32.498871 
L 806.136283 33.146624 
L 809.99387 33.919977 
L 813.851457 35.774916 
L 817.709044 36.568566 
L 821.566632 37.082406 
L 825.424219 38.627284 
L 829.281806 40.295069 
L 833.139394 41.205097 
L 836.996981 42.34763 
L 840.854568 44.315178 
L 844.712155 45.795659 
L 848.569743 47.013211 
L 852.42733 48.722216 
L 856.284917 49.810368 
L 860.142505 51.831246 
L 864.000092 52.815001 
L 867.857679 53.409652 
L 871.715266 54.406579 
L 875.572854 54.863849 
L 879.430441 54.839204 
L 883.288028 55.308073 
L 887.145615 54.959139 
L 891.003203 55.600179 
L 894.86079 55.524121 
L 898.718377 56.276622 
L 902.575965 56.433614 
L 906.433552 55.976595 
L 910.291139 56.161374 
L 918.006314 57.745894 
L 921.863901 57.908391 
L 925.721488 57.856754 
L 929.579076 58.856479 
L 933.436663 59.679088 
L 941.151837 59.945008 
L 945.009425 60.322962 
L 948.867012 62.54092 
L 960.439774 63.03337 
L 964.297361 63.775555 
L 968.154948 64.00762 
L 972.012536 63.911507 
L 975.870123 63.347359 
L 983.585297 65.711261 
L 987.442885 67.422447 
L 991.300472 68.678341 
L 995.158059 69.572955 
L 999.015647 70.07117 
L 1002.873234 71.388887 
L 1006.730821 73.316933 
L 1014.445996 74.366188 
L 1018.303583 75.198731 
L 1022.16117 75.637651 
L 1026.018758 76.207596 
L 1029.876345 77.267244 
L 1033.733932 77.902248 
L 1037.591519 78.808138 
L 1041.449107 79.157604 
L 1045.306694 78.409473 
L 1053.021869 78.671518 
L 1056.879456 80.053135 
L 1060.737043 79.52139 
L 1072.309805 83.143324 
L 1076.167392 83.230291 
L 1080.024979 84.071844 
L 1083.882567 84.756722 
L 1087.740154 88.331993 
L 1091.597741 91.362428 
L 1095.455329 96.211092 
L 1099.312916 102.433808 
L 1099.312916 102.433808 
" style="fill:none;stroke:#525886;stroke-linecap:square;stroke-width:2;"/>
   </g>
   <g id="line2d_21">
    <path clip-path="url(#pf961d0c57e)" d="M 377.944095 225.603889 
L 381.801682 228.96 
L 385.659269 228.96 
L 389.516856 222.64359 
L 393.374444 222.64359 
L 397.232031 215.413133 
L 412.66238 215.413133 
L 416.519967 217.600033 
L 420.377555 217.600033 
L 424.235142 225.603889 
L 428.092729 217.600033 
L 431.950316 213.40138 
L 439.665491 213.40138 
L 443.523078 211.538787 
L 447.380666 211.538787 
L 451.238253 209.804755 
L 455.09584 211.538787 
L 458.953427 213.40138 
L 462.811015 211.538787 
L 466.668602 211.538787 
L 470.526189 213.40138 
L 474.383777 209.804755 
L 478.241364 199.061592 
L 482.098951 196.965921 
L 485.956538 197.99192 
L 489.814126 197.99192 
L 493.671713 196.965921 
L 497.5293 192.383542 
L 505.244475 194.117575 
L 509.102062 194.117575 
L 516.817237 190.761464 
L 520.674824 190.761464 
L 524.532411 193.235607 
L 528.389998 190.761464 
L 532.247586 194.117575 
L 536.105173 193.235607 
L 539.96276 194.117575 
L 543.820348 192.383542 
L 547.677935 192.383542 
L 551.535522 191.559419 
L 555.393109 191.559419 
L 559.250697 189.988064 
L 566.965871 189.988064 
L 570.823459 193.235607 
L 574.681046 193.235607 
L 578.538633 194.117575 
L 582.39622 195.980167 
L 586.253808 200.17882 
L 590.111395 202.574299 
L 597.82657 202.574299 
L 601.684157 201.348031 
L 605.541744 196.965921 
L 609.399331 199.061592 
L 613.256919 199.061592 
L 617.114506 202.574299 
L 620.972093 202.574299 
L 624.82968 200.17882 
L 628.687268 197.99192 
L 632.544855 206.658968 
L 636.402442 199.061592 
L 640.26003 195.980167 
L 644.117617 193.235607 
L 651.832791 193.235607 
L 655.690379 194.117575 
L 659.547966 193.235607 
L 663.405553 196.965921 
L 667.263141 199.061592 
L 671.120728 201.348031 
L 674.978315 195.980167 
L 678.835902 197.99192 
L 686.551077 195.980167 
L 690.408664 195.980167 
L 694.266252 196.965921 
L 698.123839 193.235607 
L 701.981426 197.99192 
L 705.839013 196.965921 
L 709.696601 197.99192 
L 713.554188 193.235607 
L 717.411775 190.761464 
L 725.12695 192.383542 
L 728.984537 190.761464 
L 732.842124 188.509197 
L 736.699712 187.112532 
L 740.557299 190.761464 
L 744.414886 192.383542 
L 748.272473 187.112532 
L 752.130061 182.757608 
L 755.987648 181.640379 
L 759.845235 182.757608 
L 763.702823 184.532474 
L 767.56041 185.153086 
L 771.417997 182.757608 
L 775.275584 185.789411 
L 779.133172 191.559419 
L 782.990759 193.235607 
L 786.848346 189.988064 
L 790.705934 189.988064 
L 794.563521 187.112532 
L 798.421108 189.988064 
L 802.278695 191.559419 
L 806.136283 185.789411 
L 809.99387 185.789411 
L 813.851457 181.640379 
L 817.709044 180.570708 
L 821.566632 179.046999 
L 825.424219 178.080207 
L 829.281806 175.384751 
L 833.139394 176.696362 
L 836.996981 177.14923 
L 840.854568 180.052473 
L 844.712155 179.544708 
L 848.569743 182.192786 
L 852.42733 183.335415 
L 856.284917 186.442266 
L 860.142505 187.112532 
L 864.000092 183.926818 
L 867.857679 185.153086 
L 871.715266 181.640379 
L 875.572854 181.099853 
L 879.430441 180.052473 
L 883.288028 176.696362 
L 887.145615 174.138207 
L 894.86079 177.610408 
L 898.718377 174.96233 
L 906.433552 174.138207 
L 910.291139 176.696362 
L 914.148726 178.558954 
L 918.006314 176.696362 
L 921.863901 173.736062 
L 925.721488 179.544708 
L 929.579076 182.192786 
L 933.436663 184.532474 
L 937.29425 183.926818 
L 941.151837 187.801164 
L 945.009425 189.988064 
L 948.867012 193.235607 
L 952.724599 193.235607 
L 956.582187 189.237755 
L 960.439774 188.509197 
L 968.154948 191.559419 
L 972.012536 195.031621 
L 975.870123 195.980167 
L 979.72771 195.980167 
L 983.585297 201.348031 
L 987.442885 201.348031 
L 991.300472 199.061592 
L 999.015647 199.061592 
L 1002.873234 203.863478 
L 1006.730821 208.182676 
L 1010.588408 208.182676 
L 1014.445996 213.40138 
L 1018.303583 219.995511 
L 1022.16117 219.995511 
L 1026.018758 217.600033 
L 1029.876345 217.600033 
L 1033.733932 219.995511 
L 1037.591519 215.413133 
L 1049.164281 215.413133 
L 1053.021869 217.600033 
L 1056.879456 215.413133 
L 1060.737043 213.40138 
L 1064.59463 215.413133 
L 1072.309805 215.413133 
L 1076.167392 213.40138 
L 1076.167392 213.40138 
" style="fill:none;stroke:#937252;stroke-linecap:square;stroke-width:2;"/>
   </g>
   <g id="line2d_22">
    <path clip-path="url(#pf961d0c57e)" d="M 458.953427 215.413133 
L 462.811015 219.995511 
L 466.668602 222.64359 
L 470.526189 213.40138 
L 474.383777 208.182676 
L 478.241364 208.182676 
L 482.098951 206.658968 
L 485.956538 206.658968 
L 489.814126 202.574299 
L 497.5293 200.17882 
L 501.386888 200.17882 
L 505.244475 193.235607 
L 509.102062 192.383542 
L 512.959649 193.235607 
L 516.817237 193.235607 
L 520.674824 188.509197 
L 524.532411 191.559419 
L 528.389998 191.559419 
L 532.247586 195.031621 
L 536.105173 196.965921 
L 539.96276 195.980167 
L 543.820348 197.99192 
L 547.677935 202.574299 
L 551.535522 201.348031 
L 555.393109 199.061592 
L 563.108284 196.965921 
L 566.965871 197.99192 
L 570.823459 196.965921 
L 574.681046 200.17882 
L 578.538633 200.17882 
L 582.39622 201.348031 
L 586.253808 205.222377 
L 590.111395 206.658968 
L 593.968982 206.658968 
L 597.82657 202.574299 
L 605.541744 202.574299 
L 609.399331 205.222377 
L 620.972093 205.222377 
L 624.82968 202.574299 
L 628.687268 200.17882 
L 632.544855 197.99192 
L 636.402442 199.061592 
L 640.26003 195.980167 
L 644.117617 195.980167 
L 647.975204 195.031621 
L 651.832791 197.99192 
L 655.690379 195.980167 
L 659.547966 195.031621 
L 663.405553 185.789411 
L 667.263141 173.340251 
L 671.120728 172.950577 
L 674.978315 170.379951 
L 682.69349 168.368198 
L 686.551077 169.021053 
L 690.408664 168.048022 
L 694.266252 174.546891 
L 698.123839 169.353952 
L 701.981426 169.353952 
L 705.839013 166.208164 
L 709.696601 166.208164 
L 713.554188 163.947451 
L 717.411775 166.208164 
L 721.269362 162.376095 
L 725.12695 164.771574 
L 728.984537 163.947451 
L 732.842124 160.422997 
L 736.699712 159.051739 
L 740.557299 155.919038 
L 744.414886 156.31485 
L 748.272473 160.658994 
L 752.130061 161.137742 
L 755.987648 162.123495 
L 759.845235 165.336395 
L 763.702823 163.678641 
L 767.56041 166.208164 
L 771.417997 164.219167 
L 775.275584 164.219167 
L 779.133172 162.63126 
L 782.990759 158.393182 
L 786.848346 152.784804 
L 790.705934 152.958739 
L 794.563521 153.84694 
L 798.421108 152.612064 
L 802.278695 152.270107 
L 806.136283 152.270107 
L 809.99387 156.31485 
L 813.851457 156.31485 
L 817.709044 151.43503 
L 821.566632 151.108616 
L 825.424219 152.612064 
L 829.281806 152.270107 
L 833.139394 151.765739 
L 836.996981 149.690049 
L 840.854568 151.271293 
L 844.712155 152.100857 
L 848.569743 152.270107 
L 852.42733 151.59984 
L 856.284917 150.154065 
L 860.142505 147.350361 
L 864.000092 147.07264 
L 867.857679 147.915182 
L 871.715266 147.915182 
L 875.572854 146.257428 
L 879.430441 145.597718 
L 883.288028 145.728282 
L 887.145615 148.786952 
L 891.003203 148.347287 
L 894.86079 149.385397 
L 898.718377 149.843771 
L 902.575965 150.626809 
L 906.433552 150.31066 
L 910.291139 150.154065 
L 914.148726 150.31066 
L 918.006314 152.100857 
L 921.863901 151.932739 
L 925.721488 155.919038 
L 929.579076 158.177442 
L 933.436663 160.658994 
L 937.29425 161.625786 
L 941.151837 162.889042 
L 945.009425 163.947451 
L 948.867012 163.678641 
L 952.724599 165.914202 
L 956.582187 164.771574 
L 960.439774 163.412675 
L 964.297361 162.889042 
L 972.012536 161.380579 
L 975.870123 164.219167 
L 979.72771 162.63126 
L 983.585297 162.123495 
L 987.442885 164.219167 
L 991.300472 168.368198 
L 995.158059 168.692506 
L 999.015647 167.111261 
L 1002.873234 166.505606 
L 1006.730821 166.505606 
L 1010.588408 165.052398 
L 1014.445996 163.947451 
L 1018.303583 164.493852 
L 1022.16117 165.336395 
L 1026.018758 168.692506 
L 1029.876345 172.566852 
L 1033.733932 167.731873 
L 1037.591519 172.950577 
L 1041.449107 174.96233 
L 1045.306694 174.138207 
L 1049.164281 175.384751 
L 1053.021869 176.25151 
L 1056.879456 179.046999 
L 1060.737043 197.99192 
L 1064.59463 203.863478 
L 1068.452218 215.413133 
L 1072.309805 217.600033 
L 1076.167392 215.413133 
L 1080.024979 217.600033 
L 1083.882567 219.995511 
L 1087.740154 219.995511 
L 1091.597741 215.413133 
L 1091.597741 215.413133 
" style="fill:none;stroke:#d18cad;stroke-linecap:square;stroke-width:2;"/>
   </g>
   <g id="line2d_23">
    <path clip-path="url(#pf961d0c57e)" d="M 246.786127 225.603889 
L 250.643714 228.96 
L 296.934762 228.96 
L 300.792349 225.603889 
L 312.365111 225.603889 
L 316.222698 222.64359 
L 323.937873 222.64359 
L 327.79546 225.603889 
L 331.653047 222.64359 
L 339.368222 222.64359 
L 343.225809 215.413133 
L 347.083396 211.538787 
L 350.940984 209.804755 
L 366.371333 209.804755 
L 370.22892 215.413133 
L 374.086507 219.995511 
L 377.944095 217.600033 
L 381.801682 215.413133 
L 385.659269 209.804755 
L 389.516856 209.804755 
L 393.374444 205.222377 
L 397.232031 206.658968 
L 401.089618 206.658968 
L 404.947206 205.222377 
L 408.804793 202.574299 
L 412.66238 203.863478 
L 420.377555 201.348031 
L 424.235142 199.061592 
L 428.092729 193.235607 
L 431.950316 189.988064 
L 435.807904 185.153086 
L 439.665491 178.080207 
L 443.523078 175.384751 
L 447.380666 154.395329 
L 451.238253 152.100857 
L 455.09584 149.385397 
L 458.953427 144.576928 
L 462.811015 141.519561 
L 466.668602 139.704465 
L 470.526189 139.397331 
L 474.383777 145.338608 
L 478.241364 144.702283 
L 482.098951 141.409084 
L 485.956538 134.933948 
L 489.814126 127.981923 
L 493.671713 125.115123 
L 497.5293 123.768363 
L 501.386888 120.160814 
L 505.244475 119.552904 
L 509.102062 121.522342 
L 512.959649 126.968848 
L 516.817237 129.789904 
L 520.674824 130.709094 
L 524.532411 131.144945 
L 528.389998 135.537526 
L 532.247586 135.363591 
L 536.105173 133.205596 
L 539.96276 130.781213 
L 543.820348 133.525773 
L 547.677935 131.66318 
L 551.535522 127.53367 
L 555.393109 122.180457 
L 559.250697 120.978626 
L 566.965871 122.909015 
L 570.823459 122.961872 
L 574.681046 116.674875 
L 578.538633 112.965881 
L 582.39622 110.657813 
L 586.253808 109.454721 
L 590.111395 109.331366 
L 593.968982 105.540659 
L 597.82657 103.532977 
L 601.684157 98.987263 
L 605.541744 101.515587 
L 609.399331 105.017026 
L 613.256919 106.899558 
L 617.114506 106.732557 
L 620.972093 104.101129 
L 624.82968 103.411146 
L 628.687268 114.018557 
L 632.544855 113.981514 
L 636.402442 109.797102 
L 640.26003 109.331366 
L 644.117617 109.178019 
L 647.975204 115.625812 
L 651.832791 118.914269 
L 655.690379 117.090314 
L 659.547966 117.427681 
L 663.405553 122.38647 
L 667.263141 121.622475 
L 671.120728 118.467836 
L 674.978315 116.592604 
L 678.835902 111.448447 
L 682.69349 109.859857 
L 686.551077 107.464379 
L 690.408664 106.102474 
L 698.123839 105.967565 
L 701.981426 101.493056 
L 705.839013 102.177935 
L 709.696601 101.046624 
L 713.554188 100.348426 
L 717.411775 99.98525 
L 721.269362 97.890427 
L 725.12695 97.715415 
L 728.984537 100.629734 
L 732.842124 101.425584 
L 736.699712 101.696567 
L 744.414886 103.097125 
L 748.272473 102.062485 
L 752.130061 102.953504 
L 755.987648 101.470545 
L 759.845235 101.113085 
L 763.702823 98.703494 
L 767.56041 98.263947 
L 771.417997 97.083935 
L 775.275584 97.773617 
L 779.133172 96.708801 
L 786.848346 94.161459 
L 790.705934 96.708801 
L 794.563521 95.349903 
L 798.421108 95.156635 
L 802.278695 94.245715 
L 806.136283 92.328925 
L 809.99387 95.069275 
L 813.851457 94.878145 
L 821.566632 92.485814 
L 829.281806 88.857733 
L 833.139394 88.884993 
L 836.996981 81.262135 
L 840.854568 80.091551 
L 844.712155 79.947794 
L 848.569743 79.966914 
L 852.42733 79.672173 
L 856.284917 80.527823 
L 860.142505 80.932018 
L 864.000092 87.895568 
L 871.715266 85.544229 
L 875.572854 85.592034 
L 879.430441 85.820358 
L 883.288028 84.895966 
L 887.145615 84.252661 
L 891.003203 83.791895 
L 894.86079 83.482011 
L 898.718377 82.916456 
L 902.575965 81.801566 
L 906.433552 81.454187 
L 910.291139 80.645453 
L 914.148726 80.537605 
L 918.006314 80.15892 
L 921.863901 81.262135 
L 925.721488 82.080888 
L 929.579076 82.680962 
L 933.436663 84.060586 
L 937.29425 85.223901 
L 941.151837 85.784168 
L 945.009425 86.160662 
L 948.867012 87.88246 
L 952.724599 89.478345 
L 956.582187 91.27229 
L 960.439774 89.63241 
L 964.297361 90.186377 
L 968.154948 89.492312 
L 972.012536 92.04897 
L 975.870123 95.332272 
L 979.72771 98.086324 
L 983.585297 101.425584 
L 991.300472 116.633706 
L 995.158059 127.917395 
L 999.015647 126.906867 
L 1002.873234 127.917395 
L 1006.730821 129.240516 
L 1010.588408 132.192326 
L 1014.445996 132.268836 
L 1018.303583 134.344526 
L 1022.16117 137.724426 
L 1026.018758 141.966391 
L 1029.876345 143.001784 
L 1037.591519 149.234444 
L 1041.449107 155.723446 
L 1045.306694 163.149495 
L 1053.021869 162.123495 
L 1056.879456 167.111261 
L 1060.737043 169.021053 
L 1064.59463 169.021053 
L 1068.452218 169.691319 
L 1072.309805 167.731873 
L 1076.167392 170.033277 
L 1080.024979 172.950577 
L 1083.882567 173.340251 
L 1087.740154 177.14923 
L 1091.597741 177.610408 
L 1095.455329 177.14923 
L 1099.312916 180.052473 
L 1103.170503 181.640379 
L 1107.02809 184.532474 
L 1110.885678 185.153086 
L 1110.885678 185.153086 
" style="fill:none;stroke:#a4a86f;stroke-linecap:square;stroke-width:2;"/>
   </g>
   <g id="line2d_24">
    <path clip-path="url(#pf961d0c57e)" d="M 358.656158 225.603889 
L 362.513745 228.96 
L 389.516856 228.96 
L 393.374444 225.603889 
L 416.519967 225.603889 
L 420.377555 228.96 
L 431.950316 228.96 
L 435.807904 222.64359 
L 439.665491 222.64359 
L 443.523078 219.995511 
L 455.09584 219.995511 
L 458.953427 217.600033 
L 462.811015 217.600033 
L 466.668602 211.538787 
L 474.383777 211.538787 
L 478.241364 205.222377 
L 482.098951 201.348031 
L 485.956538 196.965921 
L 489.814126 195.031621 
L 493.671713 193.235607 
L 497.5293 176.25151 
L 501.386888 165.052398 
L 505.244475 159.728017 
L 509.102062 158.830297 
L 512.959649 157.541117 
L 516.817237 154.028411 
L 520.674824 152.612064 
L 524.532411 154.028411 
L 528.389998 159.275149 
L 532.247586 159.275149 
L 536.105173 159.500563 
L 539.96276 162.123495 
L 543.820348 166.505606 
L 547.677935 170.033277 
L 551.535522 177.610408 
L 555.393109 180.570708 
L 559.250697 192.383542 
L 563.108284 195.980167 
L 566.965871 194.117575 
L 570.823459 196.965921 
L 574.681046 194.117575 
L 578.538633 189.237755 
L 582.39622 181.099853 
L 586.253808 182.192786 
L 590.111395 182.192786 
L 593.968982 179.046999 
L 597.82657 177.610408 
L 601.684157 176.696362 
L 605.541744 176.25151 
L 609.399331 177.14923 
L 613.256919 173.736062 
L 617.114506 174.138207 
L 620.972093 177.610408 
L 624.82968 176.25151 
L 628.687268 173.736062 
L 632.544855 174.138207 
L 636.402442 176.696362 
L 640.26003 175.814394 
L 644.117617 176.25151 
L 647.975204 176.25151 
L 651.832791 176.696362 
L 655.690379 181.640379 
L 663.405553 181.640379 
L 667.263141 179.544708 
L 674.978315 177.610408 
L 678.835902 179.544708 
L 682.69349 180.570708 
L 686.551077 179.544708 
L 690.408664 179.046999 
L 694.266252 182.757608 
L 698.123839 181.640379 
L 701.981426 181.099853 
L 705.839013 175.384751 
L 709.696601 169.353952 
L 713.554188 170.033277 
L 717.411775 169.021053 
L 721.269362 166.806609 
L 725.12695 165.052398 
L 728.984537 163.947451 
L 736.699712 165.052398 
L 740.557299 162.63126 
L 744.414886 162.889042 
L 748.272473 165.336395 
L 752.130061 167.111261 
L 755.987648 166.806609 
L 759.845235 165.623638 
L 763.702823 165.336395 
L 767.56041 163.149495 
L 775.275584 161.137742 
L 779.133172 159.500563 
L 782.990759 160.897228 
L 786.848346 162.889042 
L 790.705934 162.889042 
L 794.563521 166.806609 
L 798.421108 165.052398 
L 802.278695 165.914202 
L 806.136283 166.208164 
L 809.99387 163.678641 
L 817.709044 165.914202 
L 821.566632 167.731873 
L 825.424219 168.692506 
L 829.281806 171.816542 
L 833.139394 174.138207 
L 836.996981 177.14923 
L 840.854568 179.046999 
L 844.712155 176.696362 
L 848.569743 175.814394 
L 852.42733 179.544708 
L 856.284917 173.736062 
L 860.142505 174.546891 
L 864.000092 172.950577 
L 867.857679 169.021053 
L 871.715266 172.188897 
L 875.572854 170.033277 
L 879.430441 166.806609 
L 883.288028 168.692506 
L 887.145615 167.419652 
L 891.003203 169.691319 
L 894.86079 172.566852 
L 898.718377 172.188897 
L 902.575965 176.25151 
L 906.433552 181.640379 
L 910.291139 184.532474 
L 914.148726 183.335415 
L 918.006314 183.926818 
L 921.863901 181.099853 
L 925.721488 182.192786 
L 929.579076 178.558954 
L 933.436663 179.544708 
L 937.29425 178.558954 
L 941.151837 182.192786 
L 945.009425 181.640379 
L 948.867012 185.153086 
L 952.724599 183.335415 
L 956.582187 185.153086 
L 960.439774 182.192786 
L 964.297361 184.532474 
L 968.154948 183.335415 
L 972.012536 180.570708 
L 975.870123 177.14923 
L 979.72771 178.558954 
L 983.585297 180.570708 
L 987.442885 182.192786 
L 991.300472 182.757608 
L 995.158059 183.926818 
L 999.015647 187.801164 
L 1002.873234 194.117575 
L 1006.730821 194.117575 
L 1010.588408 195.031621 
L 1014.445996 197.99192 
L 1018.303583 195.031621 
L 1022.16117 195.980167 
L 1029.876345 195.980167 
L 1033.733932 202.574299 
L 1037.591519 201.348031 
L 1041.449107 199.061592 
L 1045.306694 203.863478 
L 1056.879456 203.863478 
L 1056.879456 203.863478 
" style="fill:none;stroke:#d3d3d3;stroke-linecap:square;stroke-width:2;"/>
   </g>
   <g id="patch_3">
    <path d="M 53.328125 228.96 
L 53.328125 7.2 
" style="fill:none;stroke:#000000;stroke-linecap:square;stroke-linejoin:miter;stroke-width:0.8;"/>
   </g>
   <g id="patch_4">
    <path d="M 53.328125 228.96 
L 1169.328125 228.96 
" style="fill:none;stroke:#000000;stroke-linecap:square;stroke-linejoin:miter;stroke-width:0.8;"/>
   </g>
   <g id="legend_1">
    <g id="line2d_25">
     <path d="M 60.528125 17.67875 
L 76.528125 17.67875 
" style="fill:none;stroke:#947383;stroke-linecap:square;stroke-width:2;"/>
    </g>
    <g id="line2d_26"/>
    <g id="text_20">
     <!-- Europe -->
     <g transform="translate(82.928125 20.47875)scale(0.08 -0.08)">
      <defs>
       <path d="M 628 4666 
L 3578 4666 
L 3578 4134 
L 1259 4134 
L 1259 2753 
L 3481 2753 
L 3481 2222 
L 1259 2222 
L 1259 531 
L 3634 531 
L 3634 0 
L 628 0 
L 628 4666 
z
" id="DejaVuSans-45" transform="scale(0.015625)"/>
       <path d="M 1159 525 
L 1159 -1331 
L 581 -1331 
L 581 3500 
L 1159 3500 
L 1159 2969 
Q 1341 3281 1617 3432 
Q 1894 3584 2278 3584 
Q 2916 3584 3314 3078 
Q 3713 2572 3713 1747 
Q 3713 922 3314 415 
Q 2916 -91 2278 -91 
Q 1894 -91 1617 61 
Q 1341 213 1159 525 
z
M 3116 1747 
Q 3116 2381 2855 2742 
Q 2594 3103 2138 3103 
Q 1681 3103 1420 2742 
Q 1159 2381 1159 1747 
Q 1159 1113 1420 752 
Q 1681 391 2138 391 
Q 2594 391 2855 752 
Q 3116 1113 3116 1747 
z
" id="DejaVuSans-70" transform="scale(0.015625)"/>
      </defs>
      <use xlink:href="#DejaVuSans-45"/>
      <use x="63.183594" xlink:href="#DejaVuSans-75"/>
      <use x="126.5625" xlink:href="#DejaVuSans-72"/>
      <use x="165.425781" xlink:href="#DejaVuSans-6f"/>
      <use x="226.607422" xlink:href="#DejaVuSans-70"/>
      <use x="290.083984" xlink:href="#DejaVuSans-65"/>
     </g>
    </g>
    <g id="line2d_27">
     <path d="M 60.528125 29.42125 
L 76.528125 29.42125 
" style="fill:none;stroke:#96c6ad;stroke-linecap:square;stroke-width:2;"/>
    </g>
    <g id="line2d_28"/>
    <g id="text_21">
     <!-- North America -->
     <g transform="translate(82.928125 32.22125)scale(0.08 -0.08)">
      <defs>
       <path d="M 628 4666 
L 1478 4666 
L 3547 763 
L 3547 4666 
L 4159 4666 
L 4159 0 
L 3309 0 
L 1241 3903 
L 1241 0 
L 628 0 
L 628 4666 
z
" id="DejaVuSans-4e" transform="scale(0.015625)"/>
       <path d="M 3513 2113 
L 3513 0 
L 2938 0 
L 2938 2094 
Q 2938 2591 2744 2837 
Q 2550 3084 2163 3084 
Q 1697 3084 1428 2787 
Q 1159 2491 1159 1978 
L 1159 0 
L 581 0 
L 581 4863 
L 1159 4863 
L 1159 2956 
Q 1366 3272 1645 3428 
Q 1925 3584 2291 3584 
Q 2894 3584 3203 3211 
Q 3513 2838 3513 2113 
z
" id="DejaVuSans-68" transform="scale(0.015625)"/>
       <path d="M 2188 4044 
L 1331 1722 
L 3047 1722 
L 2188 4044 
z
M 1831 4666 
L 2547 4666 
L 4325 0 
L 3669 0 
L 3244 1197 
L 1141 1197 
L 716 0 
L 50 0 
L 1831 4666 
z
" id="DejaVuSans-41" transform="scale(0.015625)"/>
       <path d="M 3328 2828 
Q 3544 3216 3844 3400 
Q 4144 3584 4550 3584 
Q 5097 3584 5394 3201 
Q 5691 2819 5691 2113 
L 5691 0 
L 5113 0 
L 5113 2094 
Q 5113 2597 4934 2840 
Q 4756 3084 4391 3084 
Q 3944 3084 3684 2787 
Q 3425 2491 3425 1978 
L 3425 0 
L 2847 0 
L 2847 2094 
Q 2847 2600 2669 2842 
Q 2491 3084 2119 3084 
Q 1678 3084 1418 2786 
Q 1159 2488 1159 1978 
L 1159 0 
L 581 0 
L 581 3500 
L 1159 3500 
L 1159 2956 
Q 1356 3278 1631 3431 
Q 1906 3584 2284 3584 
Q 2666 3584 2933 3390 
Q 3200 3197 3328 2828 
z
" id="DejaVuSans-6d" transform="scale(0.015625)"/>
       <path d="M 3122 3366 
L 3122 2828 
Q 2878 2963 2633 3030 
Q 2388 3097 2138 3097 
Q 1578 3097 1268 2742 
Q 959 2388 959 1747 
Q 959 1106 1268 751 
Q 1578 397 2138 397 
Q 2388 397 2633 464 
Q 2878 531 3122 666 
L 3122 134 
Q 2881 22 2623 -34 
Q 2366 -91 2075 -91 
Q 1284 -91 818 406 
Q 353 903 353 1747 
Q 353 2603 823 3093 
Q 1294 3584 2113 3584 
Q 2378 3584 2631 3529 
Q 2884 3475 3122 3366 
z
" id="DejaVuSans-63" transform="scale(0.015625)"/>
      </defs>
      <use xlink:href="#DejaVuSans-4e"/>
      <use x="74.804688" xlink:href="#DejaVuSans-6f"/>
      <use x="135.986328" xlink:href="#DejaVuSans-72"/>
      <use x="177.099609" xlink:href="#DejaVuSans-74"/>
      <use x="216.308594" xlink:href="#DejaVuSans-68"/>
      <use x="279.6875" xlink:href="#DejaVuSans-20"/>
      <use x="311.474609" xlink:href="#DejaVuSans-41"/>
      <use x="379.882812" xlink:href="#DejaVuSans-6d"/>
      <use x="477.294922" xlink:href="#DejaVuSans-65"/>
      <use x="538.818359" xlink:href="#DejaVuSans-72"/>
      <use x="579.931641" xlink:href="#DejaVuSans-69"/>
      <use x="607.714844" xlink:href="#DejaVuSans-63"/>
      <use x="662.695312" xlink:href="#DejaVuSans-61"/>
     </g>
    </g>
    <g id="line2d_29">
     <path d="M 60.528125 41.16375 
L 76.528125 41.16375 
" style="fill:none;stroke:#525886;stroke-linecap:square;stroke-width:2;"/>
    </g>
    <g id="line2d_30"/>
    <g id="text_22">
     <!-- United Kingdom -->
     <g transform="translate(82.928125 43.96375)scale(0.08 -0.08)">
      <defs>
       <path d="M 556 4666 
L 1191 4666 
L 1191 1831 
Q 1191 1081 1462 751 
Q 1734 422 2344 422 
Q 2950 422 3222 751 
Q 3494 1081 3494 1831 
L 3494 4666 
L 4128 4666 
L 4128 1753 
Q 4128 841 3676 375 
Q 3225 -91 2344 -91 
Q 1459 -91 1007 375 
Q 556 841 556 1753 
L 556 4666 
z
" id="DejaVuSans-55" transform="scale(0.015625)"/>
       <path d="M 628 4666 
L 1259 4666 
L 1259 2694 
L 3353 4666 
L 4166 4666 
L 1850 2491 
L 4331 0 
L 3500 0 
L 1259 2247 
L 1259 0 
L 628 0 
L 628 4666 
z
" id="DejaVuSans-4b" transform="scale(0.015625)"/>
      </defs>
      <use xlink:href="#DejaVuSans-55"/>
      <use x="73.193359" xlink:href="#DejaVuSans-6e"/>
      <use x="136.572266" xlink:href="#DejaVuSans-69"/>
      <use x="164.355469" xlink:href="#DejaVuSans-74"/>
      <use x="203.564453" xlink:href="#DejaVuSans-65"/>
      <use x="265.087891" xlink:href="#DejaVuSans-64"/>
      <use x="328.564453" xlink:href="#DejaVuSans-20"/>
      <use x="360.351562" xlink:href="#DejaVuSans-4b"/>
      <use x="425.927734" xlink:href="#DejaVuSans-69"/>
      <use x="453.710938" xlink:href="#DejaVuSans-6e"/>
      <use x="517.089844" xlink:href="#DejaVuSans-67"/>
      <use x="580.566406" xlink:href="#DejaVuSans-64"/>
      <use x="644.042969" xlink:href="#DejaVuSans-6f"/>
      <use x="705.224609" xlink:href="#DejaVuSans-6d"/>
     </g>
    </g>
    <g id="line2d_31">
     <path d="M 60.528125 52.90625 
L 76.528125 52.90625 
" style="fill:none;stroke:#937252;stroke-linecap:square;stroke-width:2;"/>
    </g>
    <g id="line2d_32"/>
    <g id="text_23">
     <!-- Oceania -->
     <g transform="translate(82.928125 55.70625)scale(0.08 -0.08)">
      <defs>
       <path d="M 2522 4238 
Q 1834 4238 1429 3725 
Q 1025 3213 1025 2328 
Q 1025 1447 1429 934 
Q 1834 422 2522 422 
Q 3209 422 3611 934 
Q 4013 1447 4013 2328 
Q 4013 3213 3611 3725 
Q 3209 4238 2522 4238 
z
M 2522 4750 
Q 3503 4750 4090 4092 
Q 4678 3434 4678 2328 
Q 4678 1225 4090 567 
Q 3503 -91 2522 -91 
Q 1538 -91 948 565 
Q 359 1222 359 2328 
Q 359 3434 948 4092 
Q 1538 4750 2522 4750 
z
" id="DejaVuSans-4f" transform="scale(0.015625)"/>
      </defs>
      <use xlink:href="#DejaVuSans-4f"/>
      <use x="78.710938" xlink:href="#DejaVuSans-63"/>
      <use x="133.691406" xlink:href="#DejaVuSans-65"/>
      <use x="195.214844" xlink:href="#DejaVuSans-61"/>
      <use x="256.494141" xlink:href="#DejaVuSans-6e"/>
      <use x="319.873047" xlink:href="#DejaVuSans-69"/>
      <use x="347.65625" xlink:href="#DejaVuSans-61"/>
     </g>
    </g>
    <g id="line2d_33">
     <path d="M 60.528125 64.64875 
L 76.528125 64.64875 
" style="fill:none;stroke:#d18cad;stroke-linecap:square;stroke-width:2;"/>
    </g>
    <g id="line2d_34"/>
    <g id="text_24">
     <!-- South America -->
     <g transform="translate(82.928125 67.44875)scale(0.08 -0.08)">
      <defs>
       <path d="M 3425 4513 
L 3425 3897 
Q 3066 4069 2747 4153 
Q 2428 4238 2131 4238 
Q 1616 4238 1336 4038 
Q 1056 3838 1056 3469 
Q 1056 3159 1242 3001 
Q 1428 2844 1947 2747 
L 2328 2669 
Q 3034 2534 3370 2195 
Q 3706 1856 3706 1288 
Q 3706 609 3251 259 
Q 2797 -91 1919 -91 
Q 1588 -91 1214 -16 
Q 841 59 441 206 
L 441 856 
Q 825 641 1194 531 
Q 1563 422 1919 422 
Q 2459 422 2753 634 
Q 3047 847 3047 1241 
Q 3047 1584 2836 1778 
Q 2625 1972 2144 2069 
L 1759 2144 
Q 1053 2284 737 2584 
Q 422 2884 422 3419 
Q 422 4038 858 4394 
Q 1294 4750 2059 4750 
Q 2388 4750 2728 4690 
Q 3069 4631 3425 4513 
z
" id="DejaVuSans-53" transform="scale(0.015625)"/>
      </defs>
      <use xlink:href="#DejaVuSans-53"/>
      <use x="63.476562" xlink:href="#DejaVuSans-6f"/>
      <use x="124.658203" xlink:href="#DejaVuSans-75"/>
      <use x="188.037109" xlink:href="#DejaVuSans-74"/>
      <use x="227.246094" xlink:href="#DejaVuSans-68"/>
      <use x="290.625" xlink:href="#DejaVuSans-20"/>
      <use x="322.412109" xlink:href="#DejaVuSans-41"/>
      <use x="390.820312" xlink:href="#DejaVuSans-6d"/>
      <use x="488.232422" xlink:href="#DejaVuSans-65"/>
      <use x="549.755859" xlink:href="#DejaVuSans-72"/>
      <use x="590.869141" xlink:href="#DejaVuSans-69"/>
      <use x="618.652344" xlink:href="#DejaVuSans-63"/>
      <use x="673.632812" xlink:href="#DejaVuSans-61"/>
     </g>
    </g>
    <g id="line2d_35">
     <path d="M 60.528125 76.39125 
L 76.528125 76.39125 
" style="fill:none;stroke:#a4a86f;stroke-linecap:square;stroke-width:2;"/>
    </g>
    <g id="line2d_36"/>
    <g id="text_25">
     <!-- Asia -->
     <g transform="translate(82.928125 79.19125)scale(0.08 -0.08)">
      <defs>
       <path d="M 2834 3397 
L 2834 2853 
Q 2591 2978 2328 3040 
Q 2066 3103 1784 3103 
Q 1356 3103 1142 2972 
Q 928 2841 928 2578 
Q 928 2378 1081 2264 
Q 1234 2150 1697 2047 
L 1894 2003 
Q 2506 1872 2764 1633 
Q 3022 1394 3022 966 
Q 3022 478 2636 193 
Q 2250 -91 1575 -91 
Q 1294 -91 989 -36 
Q 684 19 347 128 
L 347 722 
Q 666 556 975 473 
Q 1284 391 1588 391 
Q 1994 391 2212 530 
Q 2431 669 2431 922 
Q 2431 1156 2273 1281 
Q 2116 1406 1581 1522 
L 1381 1569 
Q 847 1681 609 1914 
Q 372 2147 372 2553 
Q 372 3047 722 3315 
Q 1072 3584 1716 3584 
Q 2034 3584 2315 3537 
Q 2597 3491 2834 3397 
z
" id="DejaVuSans-73" transform="scale(0.015625)"/>
      </defs>
      <use xlink:href="#DejaVuSans-41"/>
      <use x="68.408203" xlink:href="#DejaVuSans-73"/>
      <use x="120.507812" xlink:href="#DejaVuSans-69"/>
      <use x="148.291016" xlink:href="#DejaVuSans-61"/>
     </g>
    </g>
    <g id="line2d_37">
     <path d="M 60.528125 88.13375 
L 76.528125 88.13375 
" style="fill:none;stroke:#d3d3d3;stroke-linecap:square;stroke-width:2;"/>
    </g>
    <g id="line2d_38"/>
    <g id="text_26">
     <!-- Africa -->
     <g transform="translate(82.928125 90.93375)scale(0.08 -0.08)">
      <defs>
       <path d="M 2375 4863 
L 2375 4384 
L 1825 4384 
Q 1516 4384 1395 4259 
Q 1275 4134 1275 3809 
L 1275 3500 
L 2222 3500 
L 2222 3053 
L 1275 3053 
L 1275 0 
L 697 0 
L 697 3053 
L 147 3053 
L 147 3500 
L 697 3500 
L 697 3744 
Q 697 4328 969 4595 
Q 1241 4863 1831 4863 
L 2375 4863 
z
" id="DejaVuSans-66" transform="scale(0.015625)"/>
      </defs>
      <use xlink:href="#DejaVuSans-41"/>
      <use x="64.783203" xlink:href="#DejaVuSans-66"/>
      <use x="99.988281" xlink:href="#DejaVuSans-72"/>
      <use x="141.101562" xlink:href="#DejaVuSans-69"/>
      <use x="168.884766" xlink:href="#DejaVuSans-63"/>
      <use x="223.865234" xlink:href="#DejaVuSans-61"/>
     </g>
    </g>
   </g>
  </g>
 </g>
 <defs>
  <clipPath id="pf961d0c57e">
   <rect height="221.76" width="1116" x="53.328125" y="7.2"/>
  </clipPath>
 </defs>
</svg>
