<?xml version="1.0" encoding="utf-8" standalone="no"?>
<!DOCTYPE svg PUBLIC "-//W3C//DTD SVG 1.1//EN"
  "http://www.w3.org/Graphics/SVG/1.1/DTD/svg11.dtd">
<!-- Created with matplotlib (https://matplotlib.org/) -->
<svg height="298.620937pt" version="1.1" viewBox="0 0 1002.765625 298.620937" width="1002.765625pt" xmlns="http://www.w3.org/2000/svg" xmlns:xlink="http://www.w3.org/1999/xlink">
 <metadata>
  <rdf:RDF xmlns:cc="http://creativecommons.org/ns#" xmlns:dc="http://purl.org/dc/elements/1.1/" xmlns:rdf="http://www.w3.org/1999/02/22-rdf-syntax-ns#">
   <cc:Work>
    <dc:type rdf:resource="http://purl.org/dc/dcmitype/StillImage"/>
    <dc:date>2021-06-04T16:05:50.571800</dc:date>
    <dc:format>image/svg+xml</dc:format>
    <dc:creator>
     <cc:Agent>
      <dc:title>Matplotlib v3.3.3, https://matplotlib.org/</dc:title>
     </cc:Agent>
    </dc:creator>
   </cc:Work>
  </rdf:RDF>
 </metadata>
 <defs>
  <style type="text/css">*{stroke-linecap:butt;stroke-linejoin:round;}</style>
 </defs>
 <g id="figure_1">
  <g id="patch_1">
   <path d="M 0 298.620937 
L 1002.765625 298.620937 
L 1002.765625 0 
L 0 0 
z
" style="fill:#ffffff;"/>
  </g>
  <g id="axes_1">
   <g id="patch_2">
    <path d="M 46.965625 228.96 
L 995.565625 228.96 
L 995.565625 7.2 
L 46.965625 7.2 
z
" style="fill:#ffffff;"/>
   </g>
   <g id="matplotlib.axis_1">
    <g id="xtick_1">
     <g id="line2d_1">
      <defs>
       <path d="M 0 0 
L 0 3.5 
" id="m3f50384f41" style="stroke:#000000;stroke-width:0.8;"/>
      </defs>
      <g>
       <use style="stroke:#000000;stroke-width:0.8;" x="70.484633" xlink:href="#m3f50384f41" y="228.96"/>
      </g>
     </g>
     <g id="text_1">
      <!-- 2020-09 -->
      <g transform="translate(73.244008 277.742812)rotate(-90)scale(0.1 -0.1)">
       <defs>
        <path d="M 19.1875 8.296875 
L 53.609375 8.296875 
L 53.609375 0 
L 7.328125 0 
L 7.328125 8.296875 
Q 12.9375 14.109375 22.625 23.890625 
Q 32.328125 33.6875 34.8125 36.53125 
Q 39.546875 41.84375 41.421875 45.53125 
Q 43.3125 49.21875 43.3125 52.78125 
Q 43.3125 58.59375 39.234375 62.25 
Q 35.15625 65.921875 28.609375 65.921875 
Q 23.96875 65.921875 18.8125 64.3125 
Q 13.671875 62.703125 7.8125 59.421875 
L 7.8125 69.390625 
Q 13.765625 71.78125 18.9375 73 
Q 24.125 74.21875 28.421875 74.21875 
Q 39.75 74.21875 46.484375 68.546875 
Q 53.21875 62.890625 53.21875 53.421875 
Q 53.21875 48.921875 51.53125 44.890625 
Q 49.859375 40.875 45.40625 35.40625 
Q 44.1875 33.984375 37.640625 27.21875 
Q 31.109375 20.453125 19.1875 8.296875 
z
" id="DejaVuSans-50"/>
        <path d="M 31.78125 66.40625 
Q 24.171875 66.40625 20.328125 58.90625 
Q 16.5 51.421875 16.5 36.375 
Q 16.5 21.390625 20.328125 13.890625 
Q 24.171875 6.390625 31.78125 6.390625 
Q 39.453125 6.390625 43.28125 13.890625 
Q 47.125 21.390625 47.125 36.375 
Q 47.125 51.421875 43.28125 58.90625 
Q 39.453125 66.40625 31.78125 66.40625 
z
M 31.78125 74.21875 
Q 44.046875 74.21875 50.515625 64.515625 
Q 56.984375 54.828125 56.984375 36.375 
Q 56.984375 17.96875 50.515625 8.265625 
Q 44.046875 -1.421875 31.78125 -1.421875 
Q 19.53125 -1.421875 13.0625 8.265625 
Q 6.59375 17.96875 6.59375 36.375 
Q 6.59375 54.828125 13.0625 64.515625 
Q 19.53125 74.21875 31.78125 74.21875 
z
" id="DejaVuSans-48"/>
        <path d="M 4.890625 31.390625 
L 31.203125 31.390625 
L 31.203125 23.390625 
L 4.890625 23.390625 
z
" id="DejaVuSans-45"/>
        <path d="M 10.984375 1.515625 
L 10.984375 10.5 
Q 14.703125 8.734375 18.5 7.8125 
Q 22.3125 6.890625 25.984375 6.890625 
Q 35.75 6.890625 40.890625 13.453125 
Q 46.046875 20.015625 46.78125 33.40625 
Q 43.953125 29.203125 39.59375 26.953125 
Q 35.25 24.703125 29.984375 24.703125 
Q 19.046875 24.703125 12.671875 31.3125 
Q 6.296875 37.9375 6.296875 49.421875 
Q 6.296875 60.640625 12.9375 67.421875 
Q 19.578125 74.21875 30.609375 74.21875 
Q 43.265625 74.21875 49.921875 64.515625 
Q 56.59375 54.828125 56.59375 36.375 
Q 56.59375 19.140625 48.40625 8.859375 
Q 40.234375 -1.421875 26.421875 -1.421875 
Q 22.703125 -1.421875 18.890625 -0.6875 
Q 15.09375 0.046875 10.984375 1.515625 
z
M 30.609375 32.421875 
Q 37.25 32.421875 41.125 36.953125 
Q 45.015625 41.5 45.015625 49.421875 
Q 45.015625 57.28125 41.125 61.84375 
Q 37.25 66.40625 30.609375 66.40625 
Q 23.96875 66.40625 20.09375 61.84375 
Q 16.21875 57.28125 16.21875 49.421875 
Q 16.21875 41.5 20.09375 36.953125 
Q 23.96875 32.421875 30.609375 32.421875 
z
" id="DejaVuSans-57"/>
       </defs>
       <use xlink:href="#DejaVuSans-50"/>
       <use x="63.623047" xlink:href="#DejaVuSans-48"/>
       <use x="127.246094" xlink:href="#DejaVuSans-50"/>
       <use x="190.869141" xlink:href="#DejaVuSans-48"/>
       <use x="254.492188" xlink:href="#DejaVuSans-45"/>
       <use x="290.576172" xlink:href="#DejaVuSans-48"/>
       <use x="354.199219" xlink:href="#DejaVuSans-57"/>
      </g>
     </g>
    </g>
    <g id="xtick_2">
     <g id="line2d_2">
      <g>
       <use style="stroke:#000000;stroke-width:0.8;" x="168.480501" xlink:href="#m3f50384f41" y="228.96"/>
      </g>
     </g>
     <g id="text_2">
      <!-- 2020-10 -->
      <g transform="translate(171.239876 277.742812)rotate(-90)scale(0.1 -0.1)">
       <defs>
        <path d="M 12.40625 8.296875 
L 28.515625 8.296875 
L 28.515625 63.921875 
L 10.984375 60.40625 
L 10.984375 69.390625 
L 28.421875 72.90625 
L 38.28125 72.90625 
L 38.28125 8.296875 
L 54.390625 8.296875 
L 54.390625 0 
L 12.40625 0 
z
" id="DejaVuSans-49"/>
       </defs>
       <use xlink:href="#DejaVuSans-50"/>
       <use x="63.623047" xlink:href="#DejaVuSans-48"/>
       <use x="127.246094" xlink:href="#DejaVuSans-50"/>
       <use x="190.869141" xlink:href="#DejaVuSans-48"/>
       <use x="254.492188" xlink:href="#DejaVuSans-45"/>
       <use x="290.576172" xlink:href="#DejaVuSans-49"/>
       <use x="354.199219" xlink:href="#DejaVuSans-48"/>
      </g>
     </g>
    </g>
    <g id="xtick_3">
     <g id="line2d_3">
      <g>
       <use style="stroke:#000000;stroke-width:0.8;" x="269.742898" xlink:href="#m3f50384f41" y="228.96"/>
      </g>
     </g>
     <g id="text_3">
      <!-- 2020-11 -->
      <g transform="translate(272.502273 277.742812)rotate(-90)scale(0.1 -0.1)">
       <use xlink:href="#DejaVuSans-50"/>
       <use x="63.623047" xlink:href="#DejaVuSans-48"/>
       <use x="127.246094" xlink:href="#DejaVuSans-50"/>
       <use x="190.869141" xlink:href="#DejaVuSans-48"/>
       <use x="254.492188" xlink:href="#DejaVuSans-45"/>
       <use x="290.576172" xlink:href="#DejaVuSans-49"/>
       <use x="354.199219" xlink:href="#DejaVuSans-49"/>
      </g>
     </g>
    </g>
    <g id="xtick_4">
     <g id="line2d_4">
      <g>
       <use style="stroke:#000000;stroke-width:0.8;" x="367.738765" xlink:href="#m3f50384f41" y="228.96"/>
      </g>
     </g>
     <g id="text_4">
      <!-- 2020-12 -->
      <g transform="translate(370.49814 277.742812)rotate(-90)scale(0.1 -0.1)">
       <use xlink:href="#DejaVuSans-50"/>
       <use x="63.623047" xlink:href="#DejaVuSans-48"/>
       <use x="127.246094" xlink:href="#DejaVuSans-50"/>
       <use x="190.869141" xlink:href="#DejaVuSans-48"/>
       <use x="254.492188" xlink:href="#DejaVuSans-45"/>
       <use x="290.576172" xlink:href="#DejaVuSans-49"/>
       <use x="354.199219" xlink:href="#DejaVuSans-50"/>
      </g>
     </g>
    </g>
    <g id="xtick_5">
     <g id="line2d_5">
      <g>
       <use style="stroke:#000000;stroke-width:0.8;" x="469.001162" xlink:href="#m3f50384f41" y="228.96"/>
      </g>
     </g>
     <g id="text_5">
      <!-- 2021-01 -->
      <g transform="translate(471.760537 277.742812)rotate(-90)scale(0.1 -0.1)">
       <use xlink:href="#DejaVuSans-50"/>
       <use x="63.623047" xlink:href="#DejaVuSans-48"/>
       <use x="127.246094" xlink:href="#DejaVuSans-50"/>
       <use x="190.869141" xlink:href="#DejaVuSans-49"/>
       <use x="254.492188" xlink:href="#DejaVuSans-45"/>
       <use x="290.576172" xlink:href="#DejaVuSans-48"/>
       <use x="354.199219" xlink:href="#DejaVuSans-49"/>
      </g>
     </g>
    </g>
    <g id="xtick_6">
     <g id="line2d_6">
      <g>
       <use style="stroke:#000000;stroke-width:0.8;" x="570.263559" xlink:href="#m3f50384f41" y="228.96"/>
      </g>
     </g>
     <g id="text_6">
      <!-- 2021-02 -->
      <g transform="translate(573.022934 277.742812)rotate(-90)scale(0.1 -0.1)">
       <use xlink:href="#DejaVuSans-50"/>
       <use x="63.623047" xlink:href="#DejaVuSans-48"/>
       <use x="127.246094" xlink:href="#DejaVuSans-50"/>
       <use x="190.869141" xlink:href="#DejaVuSans-49"/>
       <use x="254.492188" xlink:href="#DejaVuSans-45"/>
       <use x="290.576172" xlink:href="#DejaVuSans-48"/>
       <use x="354.199219" xlink:href="#DejaVuSans-50"/>
      </g>
     </g>
    </g>
    <g id="xtick_7">
     <g id="line2d_7">
      <g>
       <use style="stroke:#000000;stroke-width:0.8;" x="661.726369" xlink:href="#m3f50384f41" y="228.96"/>
      </g>
     </g>
     <g id="text_7">
      <!-- 2021-03 -->
      <g transform="translate(664.485744 277.742812)rotate(-90)scale(0.1 -0.1)">
       <defs>
        <path d="M 40.578125 39.3125 
Q 47.65625 37.796875 51.625 33 
Q 55.609375 28.21875 55.609375 21.1875 
Q 55.609375 10.40625 48.1875 4.484375 
Q 40.765625 -1.421875 27.09375 -1.421875 
Q 22.515625 -1.421875 17.65625 -0.515625 
Q 12.796875 0.390625 7.625 2.203125 
L 7.625 11.71875 
Q 11.71875 9.328125 16.59375 8.109375 
Q 21.484375 6.890625 26.8125 6.890625 
Q 36.078125 6.890625 40.9375 10.546875 
Q 45.796875 14.203125 45.796875 21.1875 
Q 45.796875 27.640625 41.28125 31.265625 
Q 36.765625 34.90625 28.71875 34.90625 
L 20.21875 34.90625 
L 20.21875 43.015625 
L 29.109375 43.015625 
Q 36.375 43.015625 40.234375 45.921875 
Q 44.09375 48.828125 44.09375 54.296875 
Q 44.09375 59.90625 40.109375 62.90625 
Q 36.140625 65.921875 28.71875 65.921875 
Q 24.65625 65.921875 20.015625 65.03125 
Q 15.375 64.15625 9.8125 62.3125 
L 9.8125 71.09375 
Q 15.4375 72.65625 20.34375 73.4375 
Q 25.25 74.21875 29.59375 74.21875 
Q 40.828125 74.21875 47.359375 69.109375 
Q 53.90625 64.015625 53.90625 55.328125 
Q 53.90625 49.265625 50.4375 45.09375 
Q 46.96875 40.921875 40.578125 39.3125 
z
" id="DejaVuSans-51"/>
       </defs>
       <use xlink:href="#DejaVuSans-50"/>
       <use x="63.623047" xlink:href="#DejaVuSans-48"/>
       <use x="127.246094" xlink:href="#DejaVuSans-50"/>
       <use x="190.869141" xlink:href="#DejaVuSans-49"/>
       <use x="254.492188" xlink:href="#DejaVuSans-45"/>
       <use x="290.576172" xlink:href="#DejaVuSans-48"/>
       <use x="354.199219" xlink:href="#DejaVuSans-51"/>
      </g>
     </g>
    </g>
    <g id="xtick_8">
     <g id="line2d_8">
      <g>
       <use style="stroke:#000000;stroke-width:0.8;" x="762.988765" xlink:href="#m3f50384f41" y="228.96"/>
      </g>
     </g>
     <g id="text_8">
      <!-- 2021-04 -->
      <g transform="translate(765.74814 277.742812)rotate(-90)scale(0.1 -0.1)">
       <defs>
        <path d="M 37.796875 64.3125 
L 12.890625 25.390625 
L 37.796875 25.390625 
z
M 35.203125 72.90625 
L 47.609375 72.90625 
L 47.609375 25.390625 
L 58.015625 25.390625 
L 58.015625 17.1875 
L 47.609375 17.1875 
L 47.609375 0 
L 37.796875 0 
L 37.796875 17.1875 
L 4.890625 17.1875 
L 4.890625 26.703125 
z
" id="DejaVuSans-52"/>
       </defs>
       <use xlink:href="#DejaVuSans-50"/>
       <use x="63.623047" xlink:href="#DejaVuSans-48"/>
       <use x="127.246094" xlink:href="#DejaVuSans-50"/>
       <use x="190.869141" xlink:href="#DejaVuSans-49"/>
       <use x="254.492188" xlink:href="#DejaVuSans-45"/>
       <use x="290.576172" xlink:href="#DejaVuSans-48"/>
       <use x="354.199219" xlink:href="#DejaVuSans-52"/>
      </g>
     </g>
    </g>
    <g id="xtick_9">
     <g id="line2d_9">
      <g>
       <use style="stroke:#000000;stroke-width:0.8;" x="860.984633" xlink:href="#m3f50384f41" y="228.96"/>
      </g>
     </g>
     <g id="text_9">
      <!-- 2021-05 -->
      <g transform="translate(863.744008 277.742812)rotate(-90)scale(0.1 -0.1)">
       <defs>
        <path d="M 10.796875 72.90625 
L 49.515625 72.90625 
L 49.515625 64.59375 
L 19.828125 64.59375 
L 19.828125 46.734375 
Q 21.96875 47.46875 24.109375 47.828125 
Q 26.265625 48.1875 28.421875 48.1875 
Q 40.625 48.1875 47.75 41.5 
Q 54.890625 34.8125 54.890625 23.390625 
Q 54.890625 11.625 47.5625 5.09375 
Q 40.234375 -1.421875 26.90625 -1.421875 
Q 22.3125 -1.421875 17.546875 -0.640625 
Q 12.796875 0.140625 7.71875 1.703125 
L 7.71875 11.625 
Q 12.109375 9.234375 16.796875 8.0625 
Q 21.484375 6.890625 26.703125 6.890625 
Q 35.15625 6.890625 40.078125 11.328125 
Q 45.015625 15.765625 45.015625 23.390625 
Q 45.015625 31 40.078125 35.4375 
Q 35.15625 39.890625 26.703125 39.890625 
Q 22.75 39.890625 18.8125 39.015625 
Q 14.890625 38.140625 10.796875 36.28125 
z
" id="DejaVuSans-53"/>
       </defs>
       <use xlink:href="#DejaVuSans-50"/>
       <use x="63.623047" xlink:href="#DejaVuSans-48"/>
       <use x="127.246094" xlink:href="#DejaVuSans-50"/>
       <use x="190.869141" xlink:href="#DejaVuSans-49"/>
       <use x="254.492188" xlink:href="#DejaVuSans-45"/>
       <use x="290.576172" xlink:href="#DejaVuSans-48"/>
       <use x="354.199219" xlink:href="#DejaVuSans-53"/>
      </g>
     </g>
    </g>
    <g id="xtick_10">
     <g id="line2d_10">
      <g>
       <use style="stroke:#000000;stroke-width:0.8;" x="962.24703" xlink:href="#m3f50384f41" y="228.96"/>
      </g>
     </g>
     <g id="text_10">
      <!-- 2021-06 -->
      <g transform="translate(965.006405 277.742812)rotate(-90)scale(0.1 -0.1)">
       <defs>
        <path d="M 33.015625 40.375 
Q 26.375 40.375 22.484375 35.828125 
Q 18.609375 31.296875 18.609375 23.390625 
Q 18.609375 15.53125 22.484375 10.953125 
Q 26.375 6.390625 33.015625 6.390625 
Q 39.65625 6.390625 43.53125 10.953125 
Q 47.40625 15.53125 47.40625 23.390625 
Q 47.40625 31.296875 43.53125 35.828125 
Q 39.65625 40.375 33.015625 40.375 
z
M 52.59375 71.296875 
L 52.59375 62.3125 
Q 48.875 64.0625 45.09375 64.984375 
Q 41.3125 65.921875 37.59375 65.921875 
Q 27.828125 65.921875 22.671875 59.328125 
Q 17.53125 52.734375 16.796875 39.40625 
Q 19.671875 43.65625 24.015625 45.921875 
Q 28.375 48.1875 33.59375 48.1875 
Q 44.578125 48.1875 50.953125 41.515625 
Q 57.328125 34.859375 57.328125 23.390625 
Q 57.328125 12.15625 50.6875 5.359375 
Q 44.046875 -1.421875 33.015625 -1.421875 
Q 20.359375 -1.421875 13.671875 8.265625 
Q 6.984375 17.96875 6.984375 36.375 
Q 6.984375 53.65625 15.1875 63.9375 
Q 23.390625 74.21875 37.203125 74.21875 
Q 40.921875 74.21875 44.703125 73.484375 
Q 48.484375 72.75 52.59375 71.296875 
z
" id="DejaVuSans-54"/>
       </defs>
       <use xlink:href="#DejaVuSans-50"/>
       <use x="63.623047" xlink:href="#DejaVuSans-48"/>
       <use x="127.246094" xlink:href="#DejaVuSans-50"/>
       <use x="190.869141" xlink:href="#DejaVuSans-49"/>
       <use x="254.492188" xlink:href="#DejaVuSans-45"/>
       <use x="290.576172" xlink:href="#DejaVuSans-48"/>
       <use x="354.199219" xlink:href="#DejaVuSans-54"/>
      </g>
     </g>
    </g>
    <g id="text_11">
     <!-- Date -->
     <g transform="translate(509.314844 289.34125)scale(0.1 -0.1)">
      <defs>
       <path d="M 19.671875 64.796875 
L 19.671875 8.109375 
L 31.59375 8.109375 
Q 46.6875 8.109375 53.6875 14.9375 
Q 60.6875 21.78125 60.6875 36.53125 
Q 60.6875 51.171875 53.6875 57.984375 
Q 46.6875 64.796875 31.59375 64.796875 
z
M 9.8125 72.90625 
L 30.078125 72.90625 
Q 51.265625 72.90625 61.171875 64.09375 
Q 71.09375 55.28125 71.09375 36.53125 
Q 71.09375 17.671875 61.125 8.828125 
Q 51.171875 0 30.078125 0 
L 9.8125 0 
z
" id="DejaVuSans-68"/>
       <path d="M 34.28125 27.484375 
Q 23.390625 27.484375 19.1875 25 
Q 14.984375 22.515625 14.984375 16.5 
Q 14.984375 11.71875 18.140625 8.90625 
Q 21.296875 6.109375 26.703125 6.109375 
Q 34.1875 6.109375 38.703125 11.40625 
Q 43.21875 16.703125 43.21875 25.484375 
L 43.21875 27.484375 
z
M 52.203125 31.203125 
L 52.203125 0 
L 43.21875 0 
L 43.21875 8.296875 
Q 40.140625 3.328125 35.546875 0.953125 
Q 30.953125 -1.421875 24.3125 -1.421875 
Q 15.921875 -1.421875 10.953125 3.296875 
Q 6 8.015625 6 15.921875 
Q 6 25.140625 12.171875 29.828125 
Q 18.359375 34.515625 30.609375 34.515625 
L 43.21875 34.515625 
L 43.21875 35.40625 
Q 43.21875 41.609375 39.140625 45 
Q 35.0625 48.390625 27.6875 48.390625 
Q 23 48.390625 18.546875 47.265625 
Q 14.109375 46.140625 10.015625 43.890625 
L 10.015625 52.203125 
Q 14.9375 54.109375 19.578125 55.046875 
Q 24.21875 56 28.609375 56 
Q 40.484375 56 46.34375 49.84375 
Q 52.203125 43.703125 52.203125 31.203125 
z
" id="DejaVuSans-97"/>
       <path d="M 18.3125 70.21875 
L 18.3125 54.6875 
L 36.8125 54.6875 
L 36.8125 47.703125 
L 18.3125 47.703125 
L 18.3125 18.015625 
Q 18.3125 11.328125 20.140625 9.421875 
Q 21.96875 7.515625 27.59375 7.515625 
L 36.8125 7.515625 
L 36.8125 0 
L 27.59375 0 
Q 17.1875 0 13.234375 3.875 
Q 9.28125 7.765625 9.28125 18.015625 
L 9.28125 47.703125 
L 2.6875 47.703125 
L 2.6875 54.6875 
L 9.28125 54.6875 
L 9.28125 70.21875 
z
" id="DejaVuSans-116"/>
       <path d="M 56.203125 29.59375 
L 56.203125 25.203125 
L 14.890625 25.203125 
Q 15.484375 15.921875 20.484375 11.0625 
Q 25.484375 6.203125 34.421875 6.203125 
Q 39.59375 6.203125 44.453125 7.46875 
Q 49.3125 8.734375 54.109375 11.28125 
L 54.109375 2.78125 
Q 49.265625 0.734375 44.1875 -0.34375 
Q 39.109375 -1.421875 33.890625 -1.421875 
Q 20.796875 -1.421875 13.15625 6.1875 
Q 5.515625 13.8125 5.515625 26.8125 
Q 5.515625 40.234375 12.765625 48.109375 
Q 20.015625 56 32.328125 56 
Q 43.359375 56 49.78125 48.890625 
Q 56.203125 41.796875 56.203125 29.59375 
z
M 47.21875 32.234375 
Q 47.125 39.59375 43.09375 43.984375 
Q 39.0625 48.390625 32.421875 48.390625 
Q 24.90625 48.390625 20.390625 44.140625 
Q 15.875 39.890625 15.1875 32.171875 
z
" id="DejaVuSans-101"/>
      </defs>
      <use xlink:href="#DejaVuSans-68"/>
      <use x="77.001953" xlink:href="#DejaVuSans-97"/>
      <use x="138.28125" xlink:href="#DejaVuSans-116"/>
      <use x="177.490234" xlink:href="#DejaVuSans-101"/>
     </g>
    </g>
   </g>
   <g id="matplotlib.axis_2">
    <g id="ytick_1">
     <g id="line2d_11">
      <defs>
       <path d="M 0 0 
L -3.5 0 
" id="m5417992a5c" style="stroke:#000000;stroke-width:0.8;"/>
      </defs>
      <g>
       <use style="stroke:#000000;stroke-width:0.8;" x="46.965625" xlink:href="#m5417992a5c" y="228.96"/>
      </g>
     </g>
     <g id="text_12">
      <!-- 1 -->
      <g transform="translate(33.603125 232.759219)scale(0.1 -0.1)">
       <use xlink:href="#DejaVuSans-49"/>
      </g>
     </g>
    </g>
    <g id="ytick_2">
     <g id="line2d_12">
      <g>
       <use style="stroke:#000000;stroke-width:0.8;" x="46.965625" xlink:href="#m5417992a5c" y="179.95545"/>
      </g>
     </g>
     <g id="text_13">
      <!-- 3 -->
      <g transform="translate(33.603125 183.754669)scale(0.1 -0.1)">
       <use xlink:href="#DejaVuSans-51"/>
      </g>
     </g>
    </g>
    <g id="ytick_3">
     <g id="line2d_13">
      <g>
       <use style="stroke:#000000;stroke-width:0.8;" x="46.965625" xlink:href="#m5417992a5c" y="130.950901"/>
      </g>
     </g>
     <g id="text_14">
      <!-- 10 -->
      <g transform="translate(27.240625 134.75012)scale(0.1 -0.1)">
       <use xlink:href="#DejaVuSans-49"/>
       <use x="63.623047" xlink:href="#DejaVuSans-48"/>
      </g>
     </g>
    </g>
    <g id="ytick_4">
     <g id="line2d_14">
      <g>
       <use style="stroke:#000000;stroke-width:0.8;" x="46.965625" xlink:href="#m5417992a5c" y="81.946351"/>
      </g>
     </g>
     <g id="text_15">
      <!-- 31 -->
      <g transform="translate(27.240625 85.74557)scale(0.1 -0.1)">
       <use xlink:href="#DejaVuSans-51"/>
       <use x="63.623047" xlink:href="#DejaVuSans-49"/>
      </g>
     </g>
    </g>
    <g id="ytick_5">
     <g id="line2d_15">
      <g>
       <use style="stroke:#000000;stroke-width:0.8;" x="46.965625" xlink:href="#m5417992a5c" y="32.941802"/>
      </g>
     </g>
     <g id="text_16">
      <!-- 100 -->
      <g transform="translate(20.878125 36.74102)scale(0.1 -0.1)">
       <use xlink:href="#DejaVuSans-49"/>
       <use x="63.623047" xlink:href="#DejaVuSans-48"/>
       <use x="127.246094" xlink:href="#DejaVuSans-48"/>
      </g>
     </g>
    </g>
    <g id="text_17">
     <!-- Count (7 day rolling average) -->
     <g transform="translate(14.798438 191.547969)rotate(-90)scale(0.1 -0.1)">
      <defs>
       <path d="M 64.40625 67.28125 
L 64.40625 56.890625 
Q 59.421875 61.53125 53.78125 63.8125 
Q 48.140625 66.109375 41.796875 66.109375 
Q 29.296875 66.109375 22.65625 58.46875 
Q 16.015625 50.828125 16.015625 36.375 
Q 16.015625 21.96875 22.65625 14.328125 
Q 29.296875 6.6875 41.796875 6.6875 
Q 48.140625 6.6875 53.78125 8.984375 
Q 59.421875 11.28125 64.40625 15.921875 
L 64.40625 5.609375 
Q 59.234375 2.09375 53.4375 0.328125 
Q 47.65625 -1.421875 41.21875 -1.421875 
Q 24.65625 -1.421875 15.125 8.703125 
Q 5.609375 18.84375 5.609375 36.375 
Q 5.609375 53.953125 15.125 64.078125 
Q 24.65625 74.21875 41.21875 74.21875 
Q 47.75 74.21875 53.53125 72.484375 
Q 59.328125 70.75 64.40625 67.28125 
z
" id="DejaVuSans-67"/>
       <path d="M 30.609375 48.390625 
Q 23.390625 48.390625 19.1875 42.75 
Q 14.984375 37.109375 14.984375 27.296875 
Q 14.984375 17.484375 19.15625 11.84375 
Q 23.34375 6.203125 30.609375 6.203125 
Q 37.796875 6.203125 41.984375 11.859375 
Q 46.1875 17.53125 46.1875 27.296875 
Q 46.1875 37.015625 41.984375 42.703125 
Q 37.796875 48.390625 30.609375 48.390625 
z
M 30.609375 56 
Q 42.328125 56 49.015625 48.375 
Q 55.71875 40.765625 55.71875 27.296875 
Q 55.71875 13.875 49.015625 6.21875 
Q 42.328125 -1.421875 30.609375 -1.421875 
Q 18.84375 -1.421875 12.171875 6.21875 
Q 5.515625 13.875 5.515625 27.296875 
Q 5.515625 40.765625 12.171875 48.375 
Q 18.84375 56 30.609375 56 
z
" id="DejaVuSans-111"/>
       <path d="M 8.5 21.578125 
L 8.5 54.6875 
L 17.484375 54.6875 
L 17.484375 21.921875 
Q 17.484375 14.15625 20.5 10.265625 
Q 23.53125 6.390625 29.59375 6.390625 
Q 36.859375 6.390625 41.078125 11.03125 
Q 45.3125 15.671875 45.3125 23.6875 
L 45.3125 54.6875 
L 54.296875 54.6875 
L 54.296875 0 
L 45.3125 0 
L 45.3125 8.40625 
Q 42.046875 3.421875 37.71875 1 
Q 33.40625 -1.421875 27.6875 -1.421875 
Q 18.265625 -1.421875 13.375 4.4375 
Q 8.5 10.296875 8.5 21.578125 
z
M 31.109375 56 
z
" id="DejaVuSans-117"/>
       <path d="M 54.890625 33.015625 
L 54.890625 0 
L 45.90625 0 
L 45.90625 32.71875 
Q 45.90625 40.484375 42.875 44.328125 
Q 39.84375 48.1875 33.796875 48.1875 
Q 26.515625 48.1875 22.3125 43.546875 
Q 18.109375 38.921875 18.109375 30.90625 
L 18.109375 0 
L 9.078125 0 
L 9.078125 54.6875 
L 18.109375 54.6875 
L 18.109375 46.1875 
Q 21.34375 51.125 25.703125 53.5625 
Q 30.078125 56 35.796875 56 
Q 45.21875 56 50.046875 50.171875 
Q 54.890625 44.34375 54.890625 33.015625 
z
" id="DejaVuSans-110"/>
       <path id="DejaVuSans-32"/>
       <path d="M 31 75.875 
Q 24.46875 64.65625 21.28125 53.65625 
Q 18.109375 42.671875 18.109375 31.390625 
Q 18.109375 20.125 21.3125 9.0625 
Q 24.515625 -2 31 -13.1875 
L 23.1875 -13.1875 
Q 15.875 -1.703125 12.234375 9.375 
Q 8.59375 20.453125 8.59375 31.390625 
Q 8.59375 42.28125 12.203125 53.3125 
Q 15.828125 64.359375 23.1875 75.875 
z
" id="DejaVuSans-40"/>
       <path d="M 8.203125 72.90625 
L 55.078125 72.90625 
L 55.078125 68.703125 
L 28.609375 0 
L 18.3125 0 
L 43.21875 64.59375 
L 8.203125 64.59375 
z
" id="DejaVuSans-55"/>
       <path d="M 45.40625 46.390625 
L 45.40625 75.984375 
L 54.390625 75.984375 
L 54.390625 0 
L 45.40625 0 
L 45.40625 8.203125 
Q 42.578125 3.328125 38.25 0.953125 
Q 33.9375 -1.421875 27.875 -1.421875 
Q 17.96875 -1.421875 11.734375 6.484375 
Q 5.515625 14.40625 5.515625 27.296875 
Q 5.515625 40.1875 11.734375 48.09375 
Q 17.96875 56 27.875 56 
Q 33.9375 56 38.25 53.625 
Q 42.578125 51.265625 45.40625 46.390625 
z
M 14.796875 27.296875 
Q 14.796875 17.390625 18.875 11.75 
Q 22.953125 6.109375 30.078125 6.109375 
Q 37.203125 6.109375 41.296875 11.75 
Q 45.40625 17.390625 45.40625 27.296875 
Q 45.40625 37.203125 41.296875 42.84375 
Q 37.203125 48.484375 30.078125 48.484375 
Q 22.953125 48.484375 18.875 42.84375 
Q 14.796875 37.203125 14.796875 27.296875 
z
" id="DejaVuSans-100"/>
       <path d="M 32.171875 -5.078125 
Q 28.375 -14.84375 24.75 -17.8125 
Q 21.140625 -20.796875 15.09375 -20.796875 
L 7.90625 -20.796875 
L 7.90625 -13.28125 
L 13.1875 -13.28125 
Q 16.890625 -13.28125 18.9375 -11.515625 
Q 21 -9.765625 23.484375 -3.21875 
L 25.09375 0.875 
L 2.984375 54.6875 
L 12.5 54.6875 
L 29.59375 11.921875 
L 46.6875 54.6875 
L 56.203125 54.6875 
z
" id="DejaVuSans-121"/>
       <path d="M 41.109375 46.296875 
Q 39.59375 47.171875 37.8125 47.578125 
Q 36.03125 48 33.890625 48 
Q 26.265625 48 22.1875 43.046875 
Q 18.109375 38.09375 18.109375 28.8125 
L 18.109375 0 
L 9.078125 0 
L 9.078125 54.6875 
L 18.109375 54.6875 
L 18.109375 46.1875 
Q 20.953125 51.171875 25.484375 53.578125 
Q 30.03125 56 36.53125 56 
Q 37.453125 56 38.578125 55.875 
Q 39.703125 55.765625 41.0625 55.515625 
z
" id="DejaVuSans-114"/>
       <path d="M 9.421875 75.984375 
L 18.40625 75.984375 
L 18.40625 0 
L 9.421875 0 
z
" id="DejaVuSans-108"/>
       <path d="M 9.421875 54.6875 
L 18.40625 54.6875 
L 18.40625 0 
L 9.421875 0 
z
M 9.421875 75.984375 
L 18.40625 75.984375 
L 18.40625 64.59375 
L 9.421875 64.59375 
z
" id="DejaVuSans-105"/>
       <path d="M 45.40625 27.984375 
Q 45.40625 37.75 41.375 43.109375 
Q 37.359375 48.484375 30.078125 48.484375 
Q 22.859375 48.484375 18.828125 43.109375 
Q 14.796875 37.75 14.796875 27.984375 
Q 14.796875 18.265625 18.828125 12.890625 
Q 22.859375 7.515625 30.078125 7.515625 
Q 37.359375 7.515625 41.375 12.890625 
Q 45.40625 18.265625 45.40625 27.984375 
z
M 54.390625 6.78125 
Q 54.390625 -7.171875 48.1875 -13.984375 
Q 42 -20.796875 29.203125 -20.796875 
Q 24.46875 -20.796875 20.265625 -20.09375 
Q 16.0625 -19.390625 12.109375 -17.921875 
L 12.109375 -9.1875 
Q 16.0625 -11.328125 19.921875 -12.34375 
Q 23.78125 -13.375 27.78125 -13.375 
Q 36.625 -13.375 41.015625 -8.765625 
Q 45.40625 -4.15625 45.40625 5.171875 
L 45.40625 9.625 
Q 42.625 4.78125 38.28125 2.390625 
Q 33.9375 0 27.875 0 
Q 17.828125 0 11.671875 7.65625 
Q 5.515625 15.328125 5.515625 27.984375 
Q 5.515625 40.671875 11.671875 48.328125 
Q 17.828125 56 27.875 56 
Q 33.9375 56 38.28125 53.609375 
Q 42.625 51.21875 45.40625 46.390625 
L 45.40625 54.6875 
L 54.390625 54.6875 
z
" id="DejaVuSans-103"/>
       <path d="M 2.984375 54.6875 
L 12.5 54.6875 
L 29.59375 8.796875 
L 46.6875 54.6875 
L 56.203125 54.6875 
L 35.6875 0 
L 23.484375 0 
z
" id="DejaVuSans-118"/>
       <path d="M 8.015625 75.875 
L 15.828125 75.875 
Q 23.140625 64.359375 26.78125 53.3125 
Q 30.421875 42.28125 30.421875 31.390625 
Q 30.421875 20.453125 26.78125 9.375 
Q 23.140625 -1.703125 15.828125 -13.1875 
L 8.015625 -13.1875 
Q 14.5 -2 17.703125 9.0625 
Q 20.90625 20.125 20.90625 31.390625 
Q 20.90625 42.671875 17.703125 53.65625 
Q 14.5 64.65625 8.015625 75.875 
z
" id="DejaVuSans-41"/>
      </defs>
      <use xlink:href="#DejaVuSans-67"/>
      <use x="69.824219" xlink:href="#DejaVuSans-111"/>
      <use x="131.005859" xlink:href="#DejaVuSans-117"/>
      <use x="194.384766" xlink:href="#DejaVuSans-110"/>
      <use x="257.763672" xlink:href="#DejaVuSans-116"/>
      <use x="296.972656" xlink:href="#DejaVuSans-32"/>
      <use x="328.759766" xlink:href="#DejaVuSans-40"/>
      <use x="367.773438" xlink:href="#DejaVuSans-55"/>
      <use x="431.396484" xlink:href="#DejaVuSans-32"/>
      <use x="463.183594" xlink:href="#DejaVuSans-100"/>
      <use x="526.660156" xlink:href="#DejaVuSans-97"/>
      <use x="587.939453" xlink:href="#DejaVuSans-121"/>
      <use x="647.119141" xlink:href="#DejaVuSans-32"/>
      <use x="678.90625" xlink:href="#DejaVuSans-114"/>
      <use x="717.769531" xlink:href="#DejaVuSans-111"/>
      <use x="778.951172" xlink:href="#DejaVuSans-108"/>
      <use x="806.734375" xlink:href="#DejaVuSans-108"/>
      <use x="834.517578" xlink:href="#DejaVuSans-105"/>
      <use x="862.300781" xlink:href="#DejaVuSans-110"/>
      <use x="925.679688" xlink:href="#DejaVuSans-103"/>
      <use x="989.15625" xlink:href="#DejaVuSans-32"/>
      <use x="1020.943359" xlink:href="#DejaVuSans-97"/>
      <use x="1082.222656" xlink:href="#DejaVuSans-118"/>
      <use x="1141.402344" xlink:href="#DejaVuSans-101"/>
      <use x="1202.925781" xlink:href="#DejaVuSans-114"/>
      <use x="1244.039062" xlink:href="#DejaVuSans-97"/>
      <use x="1305.318359" xlink:href="#DejaVuSans-103"/>
      <use x="1368.794922" xlink:href="#DejaVuSans-101"/>
      <use x="1430.318359" xlink:href="#DejaVuSans-41"/>
     </g>
    </g>
   </g>
   <g id="line2d_16">
    <path clip-path="url(#p9720019177)" d="M 465.734633 223.276262 
L 472.267691 223.276262 
L 475.53422 218.262849 
L 482.067278 218.262849 
L 485.333807 209.721339 
L 488.600336 209.721339 
L 491.866865 206.017716 
L 495.133394 202.610713 
L 498.399923 206.017716 
L 501.666451 202.610713 
L 504.93298 196.519653 
L 508.199509 193.772583 
L 511.466038 188.75917 
L 517.999096 184.27452 
L 521.265625 184.27452 
L 527.798683 188.75917 
L 531.065212 191.192107 
L 534.331741 186.457809 
L 537.59827 193.772583 
L 540.864799 199.456321 
L 544.131327 199.456321 
L 547.397856 193.772583 
L 550.664385 184.27452 
L 553.930914 176.514037 
L 557.197443 182.197776 
L 560.463972 174.776457 
L 563.730501 171.500624 
L 566.99703 171.500624 
L 570.263559 162.959114 
L 573.530088 160.454579 
L 576.796617 161.688429 
L 580.063146 160.454579 
L 583.329675 160.454579 
L 586.596204 162.959114 
L 589.862732 159.255491 
L 593.129261 162.959114 
L 596.39579 164.268904 
L 599.662319 155.848489 
L 606.195377 139.695585 
L 609.461906 135.435551 
L 612.728435 134.765225 
L 615.994964 134.765225 
L 619.261493 130.950901 
L 622.528022 134.105293 
L 625.794551 138.227687 
L 629.06108 141.215918 
L 632.327608 139.695585 
L 635.594137 141.215918 
L 638.860666 134.105293 
L 642.127195 135.435551 
L 645.393724 136.116603 
L 648.660253 132.18475 
L 651.926782 130.950901 
L 655.193311 130.347134 
L 658.45984 126.894041 
L 661.726369 125.802576 
L 664.992898 124.216126 
L 668.259427 122.188847 
L 671.525956 122.686687 
L 674.792485 125.802576 
L 678.059013 123.190418 
L 681.325542 122.188847 
L 684.592071 120.729339 
L 687.8586 118.858057 
L 691.125129 118.402814 
L 694.391658 118.402814 
L 697.658187 114.510934 
L 700.924716 113.288894 
L 704.191245 114.510934 
L 707.457774 117.06559 
L 710.724303 114.099677 
L 713.990832 112.100962 
L 717.257361 106.271036 
L 720.523889 102.36924 
L 723.790418 102.059676 
L 727.056947 99.370478 
L 730.323476 94.453694 
L 733.590005 95.234721 
L 736.856534 90.750071 
L 740.123063 90.514254 
L 743.389592 89.814543 
L 746.656121 88.225272 
L 749.92265 87.781885 
L 753.189179 85.214384 
L 756.455708 82.989588 
L 759.722237 82.402478 
L 762.988765 78.861131 
L 766.255294 79.764876 
L 769.521823 80.31648 
L 772.788352 82.792984 
L 776.054881 84.595998 
L 779.32141 85.841887 
L 782.587939 83.785215 
L 785.854468 82.989588 
L 792.387526 79.401072 
L 795.654055 75.924462 
L 798.920584 73.491525 
L 802.187113 72.248669 
L 805.453642 73.807994 
L 808.72017 74.771766 
L 811.986699 74.609615 
L 815.253228 75.426623 
L 818.519757 78.151701 
L 821.786286 79.401072 
L 825.052815 81.632053 
L 828.319344 83.58491 
L 831.585873 88.003001 
L 834.852402 90.514254 
L 838.118931 94.972783 
L 841.38546 95.234721 
L 844.651989 99.081902 
L 847.918518 99.370478 
L 851.185046 99.370478 
L 854.451575 98.22773 
L 857.718104 96.841131 
L 860.984633 94.712447 
L 864.251162 94.196504 
L 867.517691 94.196504 
L 870.78422 94.712447 
L 874.050749 96.030348 
L 877.317278 96.298897 
L 880.583807 100.843456 
L 883.850336 103.630511 
L 887.116865 104.930301 
L 890.383394 110.566929 
L 893.649923 116.629024 
L 896.916451 120.25375 
L 900.18298 129.751813 
L 906.716038 133.455436 
L 909.982567 136.808729 
L 913.249096 141.215918 
L 916.515625 141.215918 
L 919.782154 147.906493 
L 923.048683 152.694097 
L 926.315212 164.268904 
L 929.581741 171.500624 
L 932.84827 173.107034 
L 936.114799 184.27452 
L 939.381327 191.192107 
L 942.647856 206.017716 
L 942.647856 206.017716 
" style="fill:none;stroke:#947383;stroke-linecap:square;stroke-width:2;"/>
   </g>
   <g id="line2d_17">
    <path clip-path="url(#p9720019177)" d="M 312.207774 218.262849 
L 315.474303 223.276262 
L 325.273889 223.276262 
L 328.540418 228.96 
L 406.937113 228.96 
L 410.203642 223.276262 
L 413.47017 218.262849 
L 423.269757 218.262849 
L 426.536286 213.778198 
L 429.802815 206.017716 
L 433.069344 202.610713 
L 436.335873 191.192107 
L 439.602402 186.457809 
L 442.868931 180.21766 
L 449.401989 180.21766 
L 452.668518 178.325579 
L 455.935046 169.952643 
L 459.201575 165.620281 
L 462.468104 165.620281 
L 465.734633 169.952643 
L 469.001162 168.458987 
L 472.267691 161.688429 
L 475.53422 159.255491 
L 478.800749 161.688429 
L 482.067278 168.458987 
L 485.333807 161.688429 
L 488.600336 158.089259 
L 491.866865 154.770841 
L 495.133394 156.95413 
L 498.399923 155.848489 
L 501.666451 149.757428 
L 504.93298 141.996946 
L 508.199509 124.216126 
L 511.466038 109.820159 
L 514.732567 106.271036 
L 517.999096 102.059676 
L 521.265625 100.843456 
L 524.532154 95.234721 
L 527.798683 93.434129 
L 531.065212 94.196504 
L 534.331741 100.544754 
L 537.59827 98.22773 
L 540.864799 101.144268 
L 544.131327 101.752347 
L 550.664385 92.93336 
L 553.930914 86.90873 
L 557.197443 84.80113 
L 560.463972 80.131817 
L 563.730501 76.25962 
L 566.99703 75.426623 
L 570.263559 76.937958 
L 573.530088 75.426623 
L 576.796617 74.448078 
L 580.063146 69.434665 
L 583.329675 68.583341 
L 586.596204 67.886684 
L 589.862732 67.74871 
L 593.129261 59.965275 
L 596.39579 54.684998 
L 599.662319 53.387494 
L 602.928848 51.277995 
L 606.195377 48.385005 
L 609.461906 47.348894 
L 612.728435 47.263679 
L 615.994964 44.066743 
L 619.261493 43.987847 
L 622.528022 42.592154 
L 625.794551 40.653666 
L 629.06108 40.290793 
L 632.327608 41.240777 
L 635.594137 40.146505 
L 638.860666 38.176212 
L 642.127195 38.245031 
L 645.393724 35.253298 
L 648.660253 34.426771 
L 651.926782 32.518268 
L 655.193311 31.742714 
L 658.45984 30.749392 
L 661.726369 28.554553 
L 664.992898 24.130283 
L 668.259427 24.677588 
L 671.525956 26.15515 
L 674.792485 26.31097 
L 678.059013 27.151784 
L 681.325542 27.045769 
L 684.592071 26.415168 
L 687.8586 26.834529 
L 691.125129 26.051586 
L 694.391658 23.982231 
L 697.658187 22.529366 
L 700.924716 19.764445 
L 704.191245 19.541942 
L 707.457774 20.167906 
L 710.724303 18.316971 
L 713.990832 17.76 
L 717.257361 18.533146 
L 720.523889 19.144344 
L 723.790418 20.077917 
L 727.056947 19.853773 
L 730.323476 19.943289 
L 733.590005 21.914872 
L 736.856534 23.2496 
L 740.123063 22.055893 
L 746.656121 24.828082 
L 749.92265 25.948273 
L 756.455708 23.201203 
L 759.722237 23.883815 
L 762.988765 26.051586 
L 766.255294 27.685854 
L 769.521823 27.739631 
L 772.788352 27.632144 
L 776.054881 35.965426 
L 779.32141 42.439865 
L 782.587939 43.909096 
L 785.854468 45.105936 
L 789.120997 45.349396 
L 792.387526 45.268088 
L 795.654055 45.758283 
L 798.920584 43.129499 
L 802.187113 39.220372 
L 808.72017 41.686485 
L 811.986699 41.761226 
L 815.253228 41.537397 
L 818.519757 42.668503 
L 821.786286 42.136911 
L 825.052815 49.897394 
L 831.585873 49.897394 
L 834.852402 51.559571 
L 838.118931 52.319677 
L 841.38546 50.628138 
L 844.651989 53.093604 
L 847.918518 50.998269 
L 851.185046 53.387494 
L 854.451575 52.511844 
L 857.718104 53.191342 
L 860.984633 54.382044 
L 864.251162 56.443697 
L 867.517691 58.168077 
L 874.050749 58.058232 
L 877.317278 62.934736 
L 880.583807 64.43718 
L 883.850336 65.079195 
L 887.116865 65.862619 
L 890.383394 68.865228 
L 893.649923 67.474097 
L 896.916451 70.892507 
L 900.18298 72.555997 
L 903.449509 75.757868 
L 906.716038 76.091711 
L 909.982567 76.597438 
L 913.249096 86.478778 
L 916.515625 108.008617 
L 919.782154 114.510934 
L 923.048683 120.25375 
L 926.315212 120.25375 
L 929.581741 128.014232 
L 932.84827 132.18475 
L 936.114799 138.955308 
L 939.381327 153.719805 
L 942.647856 159.255491 
L 945.914385 161.688429 
L 949.180914 180.21766 
L 952.447443 182.197776 
L 952.447443 182.197776 
" style="fill:none;stroke:#96c6ad;stroke-linecap:square;stroke-width:2;"/>
   </g>
   <g id="line2d_18">
    <path clip-path="url(#p9720019177)" d="M 90.083807 158.089259 
L 96.616865 160.454579 
L 99.883394 167.015974 
L 103.149923 199.456321 
L 106.416451 218.262849 
L 109.68298 223.276262 
L 112.949509 228.96 
L 155.414385 228.96 
L 158.680914 223.276262 
L 178.280088 223.276262 
L 181.546617 228.96 
L 266.476369 228.96 
L 269.742898 223.276262 
L 289.342071 223.276262 
L 292.6086 228.96 
L 416.736699 228.96 
L 420.003228 223.276262 
L 423.269757 223.276262 
L 426.536286 218.262849 
L 429.802815 218.262849 
L 433.069344 209.721339 
L 439.602402 209.721339 
L 442.868931 213.778198 
L 446.13546 213.778198 
L 449.401989 209.721339 
L 452.668518 196.519653 
L 455.935046 199.456321 
L 459.201575 180.21766 
L 462.468104 176.514037 
L 465.734633 173.107034 
L 469.001162 167.015974 
L 472.267691 164.268904 
L 475.53422 165.620281 
L 478.800749 162.959114 
L 482.067278 173.107034 
L 485.333807 176.514037 
L 488.600336 162.959114 
L 491.866865 161.688429 
L 495.133394 164.268904 
L 498.399923 168.458987 
L 501.666451 164.268904 
L 504.93298 162.959114 
L 508.199509 149.757428 
L 511.466038 161.688429 
L 514.732567 156.95413 
L 517.999096 154.770841 
L 521.265625 153.719805 
L 524.532154 159.255491 
L 527.798683 158.089259 
L 531.065212 162.959114 
L 534.331741 161.688429 
L 537.59827 171.500624 
L 540.864799 176.514037 
L 544.131327 178.325579 
L 547.397856 176.514037 
L 550.664385 171.500624 
L 553.930914 174.776457 
L 557.197443 150.713981 
L 560.463972 140.448964 
L 563.730501 138.955308 
L 566.99703 135.435551 
L 570.263559 129.751813 
L 573.530088 111.327035 
L 576.796617 110.945285 
L 580.063146 118.402814 
L 583.329675 123.700182 
L 586.596204 123.700182 
L 589.862732 118.402814 
L 593.129261 88.44871 
L 596.39579 99.081902 
L 599.662319 98.795269 
L 602.928848 69.578223 
L 606.195377 68.303308 
L 609.461906 68.025106 
L 612.728435 69.866799 
L 615.994964 84.80113 
L 619.261493 80.31648 
L 622.528022 79.401072 
L 625.794551 117.50668 
L 629.06108 118.858057 
L 632.327608 117.952389 
L 635.594137 111.327035 
L 638.860666 105.261547 
L 642.127195 106.271036 
L 645.393724 103.311672 
L 648.660253 99.953567 
L 651.926782 96.841131 
L 655.193311 96.841131 
L 658.45984 99.953567 
L 661.726369 104.601614 
L 664.992898 106.271036 
L 668.259427 98.510554 
L 671.525956 97.946773 
L 674.792485 96.298897 
L 678.059013 92.438415 
L 681.325542 93.434129 
L 684.592071 86.478778 
L 687.8586 80.501948 
L 691.125129 80.875326 
L 694.391658 77.801371 
L 697.658187 72.710498 
L 700.924716 70.892507 
L 704.191245 68.303308 
L 707.457774 70.892507 
L 710.724303 69.722267 
L 713.990832 74.126833 
L 717.257361 71.943543 
L 720.523889 72.555997 
L 723.790418 72.710498 
L 727.056947 70.744455 
L 730.323476 64.056568 
L 733.590005 61.128321 
L 736.856534 54.786463 
L 740.123063 55.400389 
L 743.389592 59.736432 
L 746.656121 62.082194 
L 749.92265 65.469105 
L 753.189179 71.041075 
L 756.455708 82.402478 
L 759.722237 95.498281 
L 762.988765 107.30505 
L 766.255294 109.086264 
L 769.521823 109.45163 
L 772.788352 110.566929 
L 776.054881 124.7384 
L 779.32141 127.450452 
L 782.587939 130.347134 
L 785.854468 125.802576 
L 789.120997 124.216126 
L 792.387526 125.267162 
L 795.654055 125.267162 
L 798.920584 118.858057 
L 802.187113 111.712239 
L 805.453642 107.65538 
L 808.72017 104.601614 
L 811.986699 106.95758 
L 815.253228 98.510554 
L 818.519757 96.298897 
L 821.786286 98.795269 
L 825.052815 103.630511 
L 828.319344 109.45163 
L 831.585873 119.318222 
L 834.852402 118.858057 
L 838.118931 137.512295 
L 841.38546 145.272778 
L 844.651989 141.996946 
L 847.918518 147.010358 
L 851.185046 147.906493 
L 857.718104 144.429883 
L 860.984633 145.272778 
L 864.251162 147.010358 
L 867.517691 162.959114 
L 870.78422 164.268904 
L 874.050749 151.692526 
L 877.317278 154.770841 
L 880.583807 147.010358 
L 883.850336 147.010358 
L 887.116865 146.132702 
L 890.383394 149.757428 
L 893.649923 149.757428 
L 896.916451 162.959114 
L 900.18298 152.694097 
L 903.449509 169.952643 
L 906.716038 167.015974 
L 909.982567 165.620281 
L 909.982567 165.620281 
" style="fill:none;stroke:#525886;stroke-linecap:square;stroke-width:2;"/>
   </g>
   <g id="line2d_19">
    <path clip-path="url(#p9720019177)" d="M 410.203642 199.456321 
L 413.47017 196.519653 
L 416.736699 188.75917 
L 420.003228 186.457809 
L 423.269757 182.197776 
L 426.536286 184.27452 
L 429.802815 184.27452 
L 433.069344 186.457809 
L 436.335873 184.27452 
L 439.602402 188.75917 
L 442.868931 186.457809 
L 446.13546 188.75917 
L 449.401989 180.21766 
L 452.668518 176.514037 
L 455.935046 167.015974 
L 459.201575 162.959114 
L 462.468104 164.268904 
L 465.734633 164.268904 
L 469.001162 158.089259 
L 472.267691 161.688429 
L 475.53422 160.454579 
L 478.800749 161.688429 
L 482.067278 164.268904 
L 485.333807 162.959114 
L 488.600336 165.620281 
L 491.866865 167.015974 
L 495.133394 164.268904 
L 498.399923 167.015974 
L 501.666451 164.268904 
L 504.93298 161.688429 
L 508.199509 154.770841 
L 511.466038 150.713981 
L 514.732567 149.757428 
L 517.999096 151.692526 
L 521.265625 150.713981 
L 524.532154 156.95413 
L 527.798683 161.688429 
L 531.065212 167.015974 
L 534.331741 169.952643 
L 537.59827 176.514037 
L 540.864799 178.325579 
L 544.131327 178.325579 
L 547.397856 180.21766 
L 553.930914 180.21766 
L 557.197443 178.325579 
L 560.463972 173.107034 
L 566.99703 176.514037 
L 570.263559 173.107034 
L 573.530088 176.514037 
L 576.796617 173.107034 
L 580.063146 176.514037 
L 583.329675 182.197776 
L 586.596204 182.197776 
L 589.862732 176.514037 
L 593.129261 171.500624 
L 596.39579 167.015974 
L 602.928848 164.268904 
L 609.461906 161.688429 
L 612.728435 164.268904 
L 619.261493 167.015974 
L 622.528022 171.500624 
L 625.794551 174.776457 
L 632.327608 178.325579 
L 635.594137 176.514037 
L 638.860666 184.27452 
L 642.127195 180.21766 
L 645.393724 173.107034 
L 648.660253 171.500624 
L 651.926782 167.015974 
L 655.193311 164.268904 
L 658.45984 167.015974 
L 661.726369 159.255491 
L 664.992898 160.454579 
L 668.259427 152.694097 
L 671.525956 148.8219 
L 674.792485 152.694097 
L 681.325542 150.713981 
L 684.592071 156.95413 
L 687.8586 158.089259 
L 691.125129 173.107034 
L 694.391658 167.015974 
L 697.658187 161.688429 
L 700.924716 158.089259 
L 704.191245 153.719805 
L 707.457774 141.996946 
L 710.724303 141.996946 
L 713.990832 138.227687 
L 717.257361 142.792573 
L 720.523889 143.603356 
L 723.790418 137.512295 
L 727.056947 138.227687 
L 730.323476 141.996946 
L 733.590005 140.448964 
L 736.856534 138.227687 
L 740.123063 138.955308 
L 743.389592 138.955308 
L 746.656121 149.757428 
L 749.92265 148.8219 
L 753.189179 151.692526 
L 756.455708 151.692526 
L 759.722237 160.454579 
L 766.255294 158.089259 
L 769.521823 148.8219 
L 772.788352 147.906493 
L 776.054881 151.692526 
L 779.32141 153.719805 
L 782.587939 143.603356 
L 789.120997 140.448964 
L 792.387526 145.272778 
L 795.654055 151.692526 
L 798.920584 150.713981 
L 802.187113 148.8219 
L 805.453642 158.089259 
L 808.72017 164.268904 
L 811.986699 158.089259 
L 815.253228 158.089259 
L 818.519757 150.713981 
L 821.786286 152.694097 
L 825.052815 151.692526 
L 831.585873 153.719805 
L 834.852402 164.268904 
L 838.118931 167.015974 
L 841.38546 174.776457 
L 844.651989 167.015974 
L 847.918518 158.089259 
L 851.185046 160.454579 
L 854.451575 153.719805 
L 860.984633 155.848489 
L 864.251162 152.694097 
L 867.517691 154.770841 
L 870.78422 164.268904 
L 874.050749 159.255491 
L 877.317278 161.688429 
L 880.583807 161.688429 
L 883.850336 153.719805 
L 890.383394 158.089259 
L 893.649923 159.255491 
L 896.916451 161.688429 
L 900.18298 167.015974 
L 903.449509 169.952643 
L 906.716038 184.27452 
L 909.982567 191.192107 
L 913.249096 193.772583 
L 916.515625 202.610713 
L 919.782154 213.778198 
L 923.048683 213.778198 
L 926.315212 218.262849 
L 929.581741 213.778198 
L 932.84827 209.721339 
L 936.114799 209.721339 
L 939.381327 196.519653 
L 942.647856 199.456321 
L 952.447443 199.456321 
L 952.447443 199.456321 
" style="fill:none;stroke:#937252;stroke-linecap:square;stroke-width:2;"/>
   </g>
   <g id="line2d_20">
    <path clip-path="url(#p9720019177)" d="M 90.083807 223.276262 
L 93.350336 228.96 
L 96.616865 223.276262 
L 116.216038 223.276262 
L 119.482567 228.96 
L 122.749096 223.276262 
L 126.015625 209.721339 
L 135.815212 209.721339 
L 139.081741 206.017716 
L 142.34827 199.456321 
L 145.614799 202.610713 
L 148.881327 209.721339 
L 152.147856 209.721339 
L 155.414385 206.017716 
L 158.680914 182.197776 
L 161.947443 165.620281 
L 165.213972 165.620281 
L 168.480501 161.688429 
L 171.74703 156.95413 
L 175.013559 156.95413 
L 178.280088 158.089259 
L 181.546617 168.458987 
L 184.813146 188.75917 
L 191.346204 188.75917 
L 194.612732 191.192107 
L 197.879261 182.197776 
L 201.14579 182.197776 
L 204.412319 173.107034 
L 207.678848 171.500624 
L 210.945377 168.458987 
L 214.211906 164.268904 
L 217.478435 164.268904 
L 220.744964 169.952643 
L 224.011493 168.458987 
L 227.278022 173.107034 
L 230.544551 167.015974 
L 233.81108 158.089259 
L 237.077608 152.694097 
L 240.344137 142.792573 
L 243.610666 141.215918 
L 246.877195 141.996946 
L 250.143724 136.116603 
L 253.410253 135.435551 
L 256.676782 133.455436 
L 259.943311 136.808729 
L 263.20984 141.215918 
L 266.476369 133.455436 
L 269.742898 132.18475 
L 273.009427 130.347134 
L 276.275956 125.802576 
L 279.542485 119.783415 
L 282.809013 114.510934 
L 286.075542 111.712239 
L 289.342071 116.19689 
L 292.6086 117.06559 
L 295.875129 121.696763 
L 299.141658 126.894041 
L 302.408187 134.765225 
L 305.674716 128.014232 
L 308.941245 123.700182 
L 312.207774 124.7384 
L 315.474303 122.686687 
L 318.740832 121.696763 
L 322.007361 118.402814 
L 325.273889 109.086264 
L 328.540418 104.930301 
L 331.806947 101.447222 
L 335.073476 99.081902 
L 338.340005 99.661024 
L 341.606534 92.93336 
L 344.873063 82.015523 
L 348.139592 83.385543 
L 351.406121 88.899135 
L 354.67265 94.712447 
L 357.939179 95.498281 
L 361.205708 94.712447 
L 364.472237 97.667658 
L 367.738765 109.45163 
L 371.005294 114.099677 
L 374.271823 111.327035 
L 377.538352 107.65538 
L 380.804881 104.930301 
L 384.07141 101.447222 
L 387.337939 93.434129 
L 390.604468 96.030348 
L 393.870997 93.434129 
L 397.137526 91.706624 
L 400.404055 90.987201 
L 403.670584 91.706624 
L 406.937113 94.196504 
L 410.203642 93.940858 
L 413.47017 83.785215 
L 416.736699 85.63169 
L 420.003228 81.823356 
L 423.269757 74.448078 
L 426.536286 74.934538 
L 429.802815 73.491525 
L 433.069344 66.795218 
L 436.335873 66.795218 
L 439.602402 61.721982 
L 442.868931 60.542826 
L 446.13546 65.862619 
L 449.401989 64.183061 
L 452.668518 63.429682 
L 455.935046 64.43718 
L 459.201575 58.499322 
L 462.468104 57.513221 
L 465.734633 59.508812 
L 469.001162 60.08016 
L 472.267691 57.94867 
L 475.53422 57.94867 
L 478.800749 49.178983 
L 482.067278 47.519837 
L 488.600336 43.595541 
L 491.866865 40.946209 
L 495.133394 42.439865 
L 498.399923 42.439865 
L 501.666451 47.777546 
L 504.93298 51.465505 
L 508.199509 53.981431 
L 511.466038 56.338208 
L 514.732567 57.189532 
L 517.999096 56.9751 
L 521.265625 58.278206 
L 524.532154 63.305405 
L 527.798683 71.64059 
L 531.065212 79.582586 
L 534.331741 73.491525 
L 537.59827 68.865228 
L 540.864799 70.011824 
L 544.131327 67.337453 
L 547.397856 70.011824 
L 550.664385 68.865228 
L 553.930914 65.994603 
L 557.197443 71.041075 
L 560.463972 79.22033 
L 563.730501 79.401072 
L 566.99703 82.597283 
L 570.263559 81.06325 
L 573.530088 81.632053 
L 576.796617 84.188676 
L 580.063146 88.225272 
L 583.329675 82.597283 
L 586.596204 82.792984 
L 589.862732 83.58491 
L 593.129261 84.595998 
L 596.39579 83.58491 
L 599.662319 85.007256 
L 602.928848 83.986468 
L 606.195377 90.750071 
L 609.461906 91.706624 
L 612.728435 88.003001 
L 615.994964 90.987201 
L 619.261493 90.279737 
L 622.528022 84.39185 
L 625.794551 83.187105 
L 629.06108 82.597283 
L 632.327608 80.688227 
L 635.594137 82.015523 
L 642.127195 86.053127 
L 645.393724 94.196504 
L 648.660253 98.795269 
L 651.926782 103.630511 
L 655.193311 106.95758 
L 658.45984 110.945285 
L 661.726369 109.45163 
L 664.992898 109.45163 
L 668.259427 105.931873 
L 671.525956 105.59539 
L 674.792485 102.681071 
L 678.059013 98.795269 
L 681.325542 96.841131 
L 684.592071 90.987201 
L 687.8586 90.514254 
L 691.125129 84.80113 
L 694.391658 81.632053 
L 697.658187 80.688227 
L 700.924716 81.823356 
L 704.191245 81.632053 
L 707.457774 85.841887 
L 710.724303 83.785215 
L 713.990832 88.899135 
L 717.257361 91.706624 
L 720.523889 91.465463 
L 723.790418 92.685168 
L 727.056947 95.498281 
L 730.323476 100.544754 
L 733.590005 103.951757 
L 736.856534 106.612924 
L 740.123063 110.945285 
L 743.389592 117.952389 
L 746.656121 118.402814 
L 749.92265 116.629024 
L 753.189179 117.06559 
L 756.455708 122.686687 
L 759.722237 123.700182 
L 762.988765 122.686687 
L 766.255294 118.858057 
L 769.521823 120.25375 
L 772.788352 121.210303 
L 776.054881 126.894041 
L 779.32141 126.34481 
L 782.587939 125.267162 
L 785.854468 125.267162 
L 789.120997 128.014232 
L 792.387526 129.164703 
L 795.654055 125.802576 
L 798.920584 119.318222 
L 802.187113 116.629024 
L 805.453642 113.692355 
L 808.72017 117.06559 
L 811.986699 120.729339 
L 815.253228 119.318222 
L 818.519757 123.700182 
L 821.786286 132.815351 
L 825.052815 139.695585 
L 828.319344 146.132702 
L 831.585873 134.105293 
L 834.852402 124.7384 
L 838.118931 120.729339 
L 841.38546 118.858057 
L 844.651989 112.889222 
L 847.918518 116.19689 
L 851.185046 114.926204 
L 854.451575 121.696763 
L 857.718104 123.700182 
L 860.984633 126.34481 
L 864.251162 125.267162 
L 867.517691 119.783415 
L 870.78422 112.493267 
L 874.050749 110.566929 
L 877.317278 107.30505 
L 880.583807 109.820159 
L 883.850336 112.889222 
L 887.116865 114.099677 
L 890.383394 126.34481 
L 893.649923 133.455436 
L 896.916451 149.757428 
L 900.18298 164.268904 
L 903.449509 173.107034 
L 906.716038 174.776457 
L 909.982567 180.21766 
L 913.249096 173.107034 
L 916.515625 184.27452 
L 919.782154 182.197776 
L 923.048683 176.514037 
L 926.315212 151.692526 
L 929.581741 146.132702 
L 932.84827 147.010358 
L 936.114799 150.713981 
L 939.381327 155.848489 
L 939.381327 155.848489 
" style="fill:none;stroke:#d18cad;stroke-linecap:square;stroke-width:2;"/>
   </g>
   <g id="line2d_21">
    <path clip-path="url(#p9720019177)" d="M 416.736699 223.276262 
L 420.003228 228.96 
L 423.269757 223.276262 
L 439.602402 223.276262 
L 442.868931 213.778198 
L 446.13546 213.778198 
L 449.401989 206.017716 
L 455.935046 206.017716 
L 459.201575 196.519653 
L 462.468104 196.519653 
L 465.734633 199.456321 
L 469.001162 202.610713 
L 472.267691 209.721339 
L 475.53422 209.721339 
L 478.800749 202.610713 
L 482.067278 213.778198 
L 485.333807 202.610713 
L 488.600336 206.017716 
L 491.866865 199.456321 
L 495.133394 196.519653 
L 498.399923 196.519653 
L 501.666451 199.456321 
L 504.93298 191.192107 
L 508.199509 199.456321 
L 511.466038 193.772583 
L 514.732567 191.192107 
L 517.999096 193.772583 
L 521.265625 188.75917 
L 524.532154 188.75917 
L 527.798683 196.519653 
L 531.065212 196.519653 
L 534.331741 202.610713 
L 537.59827 209.721339 
L 540.864799 209.721339 
L 544.131327 213.778198 
L 547.397856 213.778198 
L 550.664385 206.017716 
L 553.930914 202.610713 
L 557.197443 199.456321 
L 560.463972 202.610713 
L 563.730501 202.610713 
L 566.99703 206.017716 
L 570.263559 209.721339 
L 573.530088 218.262849 
L 576.796617 218.262849 
L 580.063146 223.276262 
L 583.329675 218.262849 
L 586.596204 218.262849 
L 589.862732 213.778198 
L 602.928848 213.778198 
L 606.195377 218.262849 
L 609.461906 218.262849 
L 612.728435 223.276262 
L 619.261493 223.276262 
L 622.528022 228.96 
L 629.06108 228.96 
L 632.327608 223.276262 
L 635.594137 223.276262 
L 638.860666 218.262849 
L 651.926782 218.262849 
L 655.193311 223.276262 
L 658.45984 223.276262 
L 661.726369 228.96 
L 664.992898 223.276262 
L 668.259427 213.778198 
L 674.792485 213.778198 
L 678.059013 206.017716 
L 681.325542 206.017716 
L 684.592071 202.610713 
L 687.8586 199.456321 
L 691.125129 206.017716 
L 697.658187 206.017716 
L 700.924716 213.778198 
L 707.457774 213.778198 
L 710.724303 223.276262 
L 713.990832 223.276262 
L 717.257361 218.262849 
L 720.523889 209.721339 
L 727.056947 209.721339 
L 730.323476 213.778198 
L 733.590005 209.721339 
L 736.856534 206.017716 
L 740.123063 209.721339 
L 743.389592 213.778198 
L 746.656121 209.721339 
L 753.189179 209.721339 
L 756.455708 213.778198 
L 759.722237 218.262849 
L 762.988765 218.262849 
L 766.255294 223.276262 
L 769.521823 228.96 
L 772.788352 223.276262 
L 776.054881 218.262849 
L 779.32141 213.778198 
L 785.854468 213.778198 
L 789.120997 209.721339 
L 792.387526 206.017716 
L 795.654055 206.017716 
L 798.920584 209.721339 
L 808.72017 209.721339 
L 811.986699 213.778198 
L 815.253228 209.721339 
L 831.585873 209.721339 
L 834.852402 199.456321 
L 838.118931 206.017716 
L 854.451575 206.017716 
L 857.718104 218.262849 
L 860.984633 213.778198 
L 864.251162 218.262849 
L 867.517691 218.262849 
L 870.78422 223.276262 
L 880.583807 223.276262 
L 883.850336 228.96 
L 887.116865 228.96 
L 890.383394 218.262849 
L 909.982567 218.262849 
L 913.249096 228.96 
L 916.515625 223.276262 
L 926.315212 223.276262 
L 929.581741 218.262849 
L 929.581741 218.262849 
" style="fill:none;stroke:#a4a86f;stroke-linecap:square;stroke-width:2;"/>
   </g>
   <g id="line2d_22">
    <path clip-path="url(#p9720019177)" d="M 668.259427 218.262849 
L 671.525956 223.276262 
L 674.792485 228.96 
L 678.059013 228.96 
L 681.325542 223.276262 
L 684.592071 223.276262 
L 687.8586 218.262849 
L 691.125129 213.778198 
L 694.391658 213.778198 
L 697.658187 213.778198 
L 700.924716 213.778198 
L 704.191245 218.262849 
L 707.457774 218.262849 
L 710.724303 223.276262 
L 713.990832 228.96 
L 717.257361 228.96 
L 720.523889 223.276262 
L 723.790418 218.262849 
L 727.056947 218.262849 
L 730.323476 209.721339 
L 733.590005 209.721339 
L 736.856534 209.721339 
L 740.123063 209.721339 
L 743.389592 213.778198 
L 746.656121 218.262849 
L 749.92265 218.262849 
L 753.189179 228.96 
L 756.455708 228.96 
L 759.722237 228.96 
L 762.988765 228.96 
L 766.255294 228.96 
L 769.521823 228.96 
L 772.788352 228.96 
L 776.054881 218.262849 
L 779.32141 213.778198 
L 782.587939 213.778198 
L 785.854468 213.778198 
L 789.120997 213.778198 
L 792.387526 206.017716 
L 795.654055 206.017716 
L 798.920584 213.778198 
L 802.187113 218.262849 
L 805.453642 218.262849 
L 808.72017 218.262849 
L 811.986699 218.262849 
L 815.253228 228.96 
L 818.519757 228.96 
L 821.786286 228.96 
L 825.052815 228.96 
L 828.319344 228.96 
L 831.585873 228.96 
L 834.852402 228.96 
L 838.118931 223.276262 
" style="fill:none;stroke:#d3d3d3;stroke-linecap:square;stroke-width:2;"/>
   </g>
   <g id="patch_3">
    <path d="M 46.965625 228.96 
L 46.965625 7.2 
" style="fill:none;stroke:#000000;stroke-linecap:square;stroke-linejoin:miter;stroke-width:0.8;"/>
   </g>
   <g id="patch_4">
    <path d="M 46.965625 228.96 
L 995.565625 228.96 
" style="fill:none;stroke:#000000;stroke-linecap:square;stroke-linejoin:miter;stroke-width:0.8;"/>
   </g>
   <g id="legend_1">
    <g id="line2d_23">
     <path d="M 54.165625 17.67875 
L 70.165625 17.67875 
" style="fill:none;stroke:#947383;stroke-linecap:square;stroke-width:2;"/>
    </g>
    <g id="line2d_24"/>
    <g id="text_18">
     <!-- North America -->
     <g transform="translate(76.565625 20.47875)scale(0.08 -0.08)">
      <defs>
       <path d="M 9.8125 72.90625 
L 23.09375 72.90625 
L 55.421875 11.921875 
L 55.421875 72.90625 
L 64.984375 72.90625 
L 64.984375 0 
L 51.703125 0 
L 19.390625 60.984375 
L 19.390625 0 
L 9.8125 0 
z
" id="DejaVuSans-78"/>
       <path d="M 54.890625 33.015625 
L 54.890625 0 
L 45.90625 0 
L 45.90625 32.71875 
Q 45.90625 40.484375 42.875 44.328125 
Q 39.84375 48.1875 33.796875 48.1875 
Q 26.515625 48.1875 22.3125 43.546875 
Q 18.109375 38.921875 18.109375 30.90625 
L 18.109375 0 
L 9.078125 0 
L 9.078125 75.984375 
L 18.109375 75.984375 
L 18.109375 46.1875 
Q 21.34375 51.125 25.703125 53.5625 
Q 30.078125 56 35.796875 56 
Q 45.21875 56 50.046875 50.171875 
Q 54.890625 44.34375 54.890625 33.015625 
z
" id="DejaVuSans-104"/>
       <path d="M 34.1875 63.1875 
L 20.796875 26.90625 
L 47.609375 26.90625 
z
M 28.609375 72.90625 
L 39.796875 72.90625 
L 67.578125 0 
L 57.328125 0 
L 50.6875 18.703125 
L 17.828125 18.703125 
L 11.1875 0 
L 0.78125 0 
z
" id="DejaVuSans-65"/>
       <path d="M 52 44.1875 
Q 55.375 50.25 60.0625 53.125 
Q 64.75 56 71.09375 56 
Q 79.640625 56 84.28125 50.015625 
Q 88.921875 44.046875 88.921875 33.015625 
L 88.921875 0 
L 79.890625 0 
L 79.890625 32.71875 
Q 79.890625 40.578125 77.09375 44.375 
Q 74.3125 48.1875 68.609375 48.1875 
Q 61.625 48.1875 57.5625 43.546875 
Q 53.515625 38.921875 53.515625 30.90625 
L 53.515625 0 
L 44.484375 0 
L 44.484375 32.71875 
Q 44.484375 40.625 41.703125 44.40625 
Q 38.921875 48.1875 33.109375 48.1875 
Q 26.21875 48.1875 22.15625 43.53125 
Q 18.109375 38.875 18.109375 30.90625 
L 18.109375 0 
L 9.078125 0 
L 9.078125 54.6875 
L 18.109375 54.6875 
L 18.109375 46.1875 
Q 21.1875 51.21875 25.484375 53.609375 
Q 29.78125 56 35.6875 56 
Q 41.65625 56 45.828125 52.96875 
Q 50 49.953125 52 44.1875 
z
" id="DejaVuSans-109"/>
       <path d="M 48.78125 52.59375 
L 48.78125 44.1875 
Q 44.96875 46.296875 41.140625 47.34375 
Q 37.3125 48.390625 33.40625 48.390625 
Q 24.65625 48.390625 19.8125 42.84375 
Q 14.984375 37.3125 14.984375 27.296875 
Q 14.984375 17.28125 19.8125 11.734375 
Q 24.65625 6.203125 33.40625 6.203125 
Q 37.3125 6.203125 41.140625 7.25 
Q 44.96875 8.296875 48.78125 10.40625 
L 48.78125 2.09375 
Q 45.015625 0.34375 40.984375 -0.53125 
Q 36.96875 -1.421875 32.421875 -1.421875 
Q 20.0625 -1.421875 12.78125 6.34375 
Q 5.515625 14.109375 5.515625 27.296875 
Q 5.515625 40.671875 12.859375 48.328125 
Q 20.21875 56 33.015625 56 
Q 37.15625 56 41.109375 55.140625 
Q 45.0625 54.296875 48.78125 52.59375 
z
" id="DejaVuSans-99"/>
      </defs>
      <use xlink:href="#DejaVuSans-78"/>
      <use x="74.804688" xlink:href="#DejaVuSans-111"/>
      <use x="135.986328" xlink:href="#DejaVuSans-114"/>
      <use x="177.099609" xlink:href="#DejaVuSans-116"/>
      <use x="216.308594" xlink:href="#DejaVuSans-104"/>
      <use x="279.6875" xlink:href="#DejaVuSans-32"/>
      <use x="311.474609" xlink:href="#DejaVuSans-65"/>
      <use x="379.882812" xlink:href="#DejaVuSans-109"/>
      <use x="477.294922" xlink:href="#DejaVuSans-101"/>
      <use x="538.818359" xlink:href="#DejaVuSans-114"/>
      <use x="579.931641" xlink:href="#DejaVuSans-105"/>
      <use x="607.714844" xlink:href="#DejaVuSans-99"/>
      <use x="662.695312" xlink:href="#DejaVuSans-97"/>
     </g>
    </g>
    <g id="line2d_25">
     <path d="M 54.165625 29.42125 
L 70.165625 29.42125 
" style="fill:none;stroke:#96c6ad;stroke-linecap:square;stroke-width:2;"/>
    </g>
    <g id="line2d_26"/>
    <g id="text_19">
     <!-- Europe -->
     <g transform="translate(76.565625 32.22125)scale(0.08 -0.08)">
      <defs>
       <path d="M 9.8125 72.90625 
L 55.90625 72.90625 
L 55.90625 64.59375 
L 19.671875 64.59375 
L 19.671875 43.015625 
L 54.390625 43.015625 
L 54.390625 34.71875 
L 19.671875 34.71875 
L 19.671875 8.296875 
L 56.78125 8.296875 
L 56.78125 0 
L 9.8125 0 
z
" id="DejaVuSans-69"/>
       <path d="M 18.109375 8.203125 
L 18.109375 -20.796875 
L 9.078125 -20.796875 
L 9.078125 54.6875 
L 18.109375 54.6875 
L 18.109375 46.390625 
Q 20.953125 51.265625 25.265625 53.625 
Q 29.59375 56 35.59375 56 
Q 45.5625 56 51.78125 48.09375 
Q 58.015625 40.1875 58.015625 27.296875 
Q 58.015625 14.40625 51.78125 6.484375 
Q 45.5625 -1.421875 35.59375 -1.421875 
Q 29.59375 -1.421875 25.265625 0.953125 
Q 20.953125 3.328125 18.109375 8.203125 
z
M 48.6875 27.296875 
Q 48.6875 37.203125 44.609375 42.84375 
Q 40.53125 48.484375 33.40625 48.484375 
Q 26.265625 48.484375 22.1875 42.84375 
Q 18.109375 37.203125 18.109375 27.296875 
Q 18.109375 17.390625 22.1875 11.75 
Q 26.265625 6.109375 33.40625 6.109375 
Q 40.53125 6.109375 44.609375 11.75 
Q 48.6875 17.390625 48.6875 27.296875 
z
" id="DejaVuSans-112"/>
      </defs>
      <use xlink:href="#DejaVuSans-69"/>
      <use x="63.183594" xlink:href="#DejaVuSans-117"/>
      <use x="126.5625" xlink:href="#DejaVuSans-114"/>
      <use x="165.425781" xlink:href="#DejaVuSans-111"/>
      <use x="226.607422" xlink:href="#DejaVuSans-112"/>
      <use x="290.083984" xlink:href="#DejaVuSans-101"/>
     </g>
    </g>
    <g id="line2d_27">
     <path d="M 54.165625 41.16375 
L 70.165625 41.16375 
" style="fill:none;stroke:#525886;stroke-linecap:square;stroke-width:2;"/>
    </g>
    <g id="line2d_28"/>
    <g id="text_20">
     <!-- Asia -->
     <g transform="translate(76.565625 43.96375)scale(0.08 -0.08)">
      <defs>
       <path d="M 44.28125 53.078125 
L 44.28125 44.578125 
Q 40.484375 46.53125 36.375 47.5 
Q 32.28125 48.484375 27.875 48.484375 
Q 21.1875 48.484375 17.84375 46.4375 
Q 14.5 44.390625 14.5 40.28125 
Q 14.5 37.15625 16.890625 35.375 
Q 19.28125 33.59375 26.515625 31.984375 
L 29.59375 31.296875 
Q 39.15625 29.25 43.1875 25.515625 
Q 47.21875 21.78125 47.21875 15.09375 
Q 47.21875 7.46875 41.1875 3.015625 
Q 35.15625 -1.421875 24.609375 -1.421875 
Q 20.21875 -1.421875 15.453125 -0.5625 
Q 10.6875 0.296875 5.421875 2 
L 5.421875 11.28125 
Q 10.40625 8.6875 15.234375 7.390625 
Q 20.0625 6.109375 24.8125 6.109375 
Q 31.15625 6.109375 34.5625 8.28125 
Q 37.984375 10.453125 37.984375 14.40625 
Q 37.984375 18.0625 35.515625 20.015625 
Q 33.0625 21.96875 24.703125 23.78125 
L 21.578125 24.515625 
Q 13.234375 26.265625 9.515625 29.90625 
Q 5.8125 33.546875 5.8125 39.890625 
Q 5.8125 47.609375 11.28125 51.796875 
Q 16.75 56 26.8125 56 
Q 31.78125 56 36.171875 55.265625 
Q 40.578125 54.546875 44.28125 53.078125 
z
" id="DejaVuSans-115"/>
      </defs>
      <use xlink:href="#DejaVuSans-65"/>
      <use x="68.408203" xlink:href="#DejaVuSans-115"/>
      <use x="120.507812" xlink:href="#DejaVuSans-105"/>
      <use x="148.291016" xlink:href="#DejaVuSans-97"/>
     </g>
    </g>
    <g id="line2d_29">
     <path d="M 54.165625 52.90625 
L 70.165625 52.90625 
" style="fill:none;stroke:#937252;stroke-linecap:square;stroke-width:2;"/>
    </g>
    <g id="line2d_30"/>
    <g id="text_21">
     <!-- United Kingdom -->
     <g transform="translate(76.565625 55.70625)scale(0.08 -0.08)">
      <defs>
       <path d="M 8.6875 72.90625 
L 18.609375 72.90625 
L 18.609375 28.609375 
Q 18.609375 16.890625 22.84375 11.734375 
Q 27.09375 6.59375 36.625 6.59375 
Q 46.09375 6.59375 50.34375 11.734375 
Q 54.59375 16.890625 54.59375 28.609375 
L 54.59375 72.90625 
L 64.5 72.90625 
L 64.5 27.390625 
Q 64.5 13.140625 57.4375 5.859375 
Q 50.390625 -1.421875 36.625 -1.421875 
Q 22.796875 -1.421875 15.734375 5.859375 
Q 8.6875 13.140625 8.6875 27.390625 
z
" id="DejaVuSans-85"/>
       <path d="M 9.8125 72.90625 
L 19.671875 72.90625 
L 19.671875 42.09375 
L 52.390625 72.90625 
L 65.09375 72.90625 
L 28.90625 38.921875 
L 67.671875 0 
L 54.6875 0 
L 19.671875 35.109375 
L 19.671875 0 
L 9.8125 0 
z
" id="DejaVuSans-75"/>
      </defs>
      <use xlink:href="#DejaVuSans-85"/>
      <use x="73.193359" xlink:href="#DejaVuSans-110"/>
      <use x="136.572266" xlink:href="#DejaVuSans-105"/>
      <use x="164.355469" xlink:href="#DejaVuSans-116"/>
      <use x="203.564453" xlink:href="#DejaVuSans-101"/>
      <use x="265.087891" xlink:href="#DejaVuSans-100"/>
      <use x="328.564453" xlink:href="#DejaVuSans-32"/>
      <use x="360.351562" xlink:href="#DejaVuSans-75"/>
      <use x="425.927734" xlink:href="#DejaVuSans-105"/>
      <use x="453.710938" xlink:href="#DejaVuSans-110"/>
      <use x="517.089844" xlink:href="#DejaVuSans-103"/>
      <use x="580.566406" xlink:href="#DejaVuSans-100"/>
      <use x="644.042969" xlink:href="#DejaVuSans-111"/>
      <use x="705.224609" xlink:href="#DejaVuSans-109"/>
     </g>
    </g>
    <g id="line2d_31">
     <path d="M 54.165625 64.64875 
L 70.165625 64.64875 
" style="fill:none;stroke:#d18cad;stroke-linecap:square;stroke-width:2;"/>
    </g>
    <g id="line2d_32"/>
    <g id="text_22">
     <!-- Africa -->
     <g transform="translate(76.565625 67.44875)scale(0.08 -0.08)">
      <defs>
       <path d="M 37.109375 75.984375 
L 37.109375 68.5 
L 28.515625 68.5 
Q 23.6875 68.5 21.796875 66.546875 
Q 19.921875 64.59375 19.921875 59.515625 
L 19.921875 54.6875 
L 34.71875 54.6875 
L 34.71875 47.703125 
L 19.921875 47.703125 
L 19.921875 0 
L 10.890625 0 
L 10.890625 47.703125 
L 2.296875 47.703125 
L 2.296875 54.6875 
L 10.890625 54.6875 
L 10.890625 58.5 
Q 10.890625 67.625 15.140625 71.796875 
Q 19.390625 75.984375 28.609375 75.984375 
z
" id="DejaVuSans-102"/>
      </defs>
      <use xlink:href="#DejaVuSans-65"/>
      <use x="64.783203" xlink:href="#DejaVuSans-102"/>
      <use x="99.988281" xlink:href="#DejaVuSans-114"/>
      <use x="141.101562" xlink:href="#DejaVuSans-105"/>
      <use x="168.884766" xlink:href="#DejaVuSans-99"/>
      <use x="223.865234" xlink:href="#DejaVuSans-97"/>
     </g>
    </g>
    <g id="line2d_33">
     <path d="M 54.165625 76.39125 
L 70.165625 76.39125 
" style="fill:none;stroke:#a4a86f;stroke-linecap:square;stroke-width:2;"/>
    </g>
    <g id="line2d_34"/>
    <g id="text_23">
     <!-- Oceania -->
     <g transform="translate(76.565625 79.19125)scale(0.08 -0.08)">
      <defs>
       <path d="M 39.40625 66.21875 
Q 28.65625 66.21875 22.328125 58.203125 
Q 16.015625 50.203125 16.015625 36.375 
Q 16.015625 22.609375 22.328125 14.59375 
Q 28.65625 6.59375 39.40625 6.59375 
Q 50.140625 6.59375 56.421875 14.59375 
Q 62.703125 22.609375 62.703125 36.375 
Q 62.703125 50.203125 56.421875 58.203125 
Q 50.140625 66.21875 39.40625 66.21875 
z
M 39.40625 74.21875 
Q 54.734375 74.21875 63.90625 63.9375 
Q 73.09375 53.65625 73.09375 36.375 
Q 73.09375 19.140625 63.90625 8.859375 
Q 54.734375 -1.421875 39.40625 -1.421875 
Q 24.03125 -1.421875 14.8125 8.828125 
Q 5.609375 19.09375 5.609375 36.375 
Q 5.609375 53.65625 14.8125 63.9375 
Q 24.03125 74.21875 39.40625 74.21875 
z
" id="DejaVuSans-79"/>
      </defs>
      <use xlink:href="#DejaVuSans-79"/>
      <use x="78.710938" xlink:href="#DejaVuSans-99"/>
      <use x="133.691406" xlink:href="#DejaVuSans-101"/>
      <use x="195.214844" xlink:href="#DejaVuSans-97"/>
      <use x="256.494141" xlink:href="#DejaVuSans-110"/>
      <use x="319.873047" xlink:href="#DejaVuSans-105"/>
      <use x="347.65625" xlink:href="#DejaVuSans-97"/>
     </g>
    </g>
    <g id="line2d_35">
     <path d="M 54.165625 88.13375 
L 70.165625 88.13375 
" style="fill:none;stroke:#d3d3d3;stroke-linecap:square;stroke-width:2;"/>
    </g>
    <g id="line2d_36"/>
    <g id="text_24">
     <!-- South America -->
     <g transform="translate(76.565625 90.93375)scale(0.08 -0.08)">
      <defs>
       <path d="M 53.515625 70.515625 
L 53.515625 60.890625 
Q 47.90625 63.578125 42.921875 64.890625 
Q 37.9375 66.21875 33.296875 66.21875 
Q 25.25 66.21875 20.875 63.09375 
Q 16.5 59.96875 16.5 54.203125 
Q 16.5 49.359375 19.40625 46.890625 
Q 22.3125 44.4375 30.421875 42.921875 
L 36.375 41.703125 
Q 47.40625 39.59375 52.65625 34.296875 
Q 57.90625 29 57.90625 20.125 
Q 57.90625 9.515625 50.796875 4.046875 
Q 43.703125 -1.421875 29.984375 -1.421875 
Q 24.8125 -1.421875 18.96875 -0.25 
Q 13.140625 0.921875 6.890625 3.21875 
L 6.890625 13.375 
Q 12.890625 10.015625 18.65625 8.296875 
Q 24.421875 6.59375 29.984375 6.59375 
Q 38.421875 6.59375 43.015625 9.90625 
Q 47.609375 13.234375 47.609375 19.390625 
Q 47.609375 24.75 44.3125 27.78125 
Q 41.015625 30.8125 33.5 32.328125 
L 27.484375 33.5 
Q 16.453125 35.6875 11.515625 40.375 
Q 6.59375 45.0625 6.59375 53.421875 
Q 6.59375 63.09375 13.40625 68.65625 
Q 20.21875 74.21875 32.171875 74.21875 
Q 37.3125 74.21875 42.625 73.28125 
Q 47.953125 72.359375 53.515625 70.515625 
z
" id="DejaVuSans-83"/>
      </defs>
      <use xlink:href="#DejaVuSans-83"/>
      <use x="63.476562" xlink:href="#DejaVuSans-111"/>
      <use x="124.658203" xlink:href="#DejaVuSans-117"/>
      <use x="188.037109" xlink:href="#DejaVuSans-116"/>
      <use x="227.246094" xlink:href="#DejaVuSans-104"/>
      <use x="290.625" xlink:href="#DejaVuSans-32"/>
      <use x="322.412109" xlink:href="#DejaVuSans-65"/>
      <use x="390.820312" xlink:href="#DejaVuSans-109"/>
      <use x="488.232422" xlink:href="#DejaVuSans-101"/>
      <use x="549.755859" xlink:href="#DejaVuSans-114"/>
      <use x="590.869141" xlink:href="#DejaVuSans-105"/>
      <use x="618.652344" xlink:href="#DejaVuSans-99"/>
      <use x="673.632812" xlink:href="#DejaVuSans-97"/>
     </g>
    </g>
   </g>
  </g>
 </g>
 <defs>
  <clipPath id="p9720019177">
   <rect height="221.76" width="948.6" x="46.965625" y="7.2"/>
  </clipPath>
 </defs>
</svg>
