<?xml version="1.0" encoding="utf-8" standalone="no"?>
<!DOCTYPE svg PUBLIC "-//W3C//DTD SVG 1.1//EN"
  "http://www.w3.org/Graphics/SVG/1.1/DTD/svg11.dtd">
<!-- Created with matplotlib (https://matplotlib.org/) -->
<svg height="298.620937pt" version="1.1" viewBox="0 0 1009.128125 298.620937" width="1009.128125pt" xmlns="http://www.w3.org/2000/svg" xmlns:xlink="http://www.w3.org/1999/xlink">
 <metadata>
  <rdf:RDF xmlns:cc="http://creativecommons.org/ns#" xmlns:dc="http://purl.org/dc/elements/1.1/" xmlns:rdf="http://www.w3.org/1999/02/22-rdf-syntax-ns#">
   <cc:Work>
    <dc:type rdf:resource="http://purl.org/dc/dcmitype/StillImage"/>
    <dc:date>2021-05-01T02:17:14.489151</dc:date>
    <dc:format>image/svg+xml</dc:format>
    <dc:creator>
     <cc:Agent>
      <dc:title>Matplotlib v3.3.3, https://matplotlib.org/</dc:title>
     </cc:Agent>
    </dc:creator>
   </cc:Work>
  </rdf:RDF>
 </metadata>
 <defs>
  <style type="text/css">*{stroke-linecap:butt;stroke-linejoin:round;}</style>
 </defs>
 <g id="figure_1">
  <g id="patch_1">
   <path d="M 0 298.620937 
L 1009.128125 298.620937 
L 1009.128125 0 
L 0 0 
z
" style="fill:#ffffff;"/>
  </g>
  <g id="axes_1">
   <g id="patch_2">
    <path d="M 53.328125 228.96 
L 1001.928125 228.96 
L 1001.928125 7.2 
L 53.328125 7.2 
z
" style="fill:#ffffff;"/>
   </g>
   <g id="matplotlib.axis_1">
    <g id="xtick_1">
     <g id="line2d_1">
      <defs>
       <path d="M 0 0 
L 0 3.5 
" id="mf6b35085a5" style="stroke:#000000;stroke-width:0.8;"/>
      </defs>
      <g>
       <use style="stroke:#000000;stroke-width:0.8;" x="116.59499" xlink:href="#mf6b35085a5" y="228.96"/>
      </g>
     </g>
     <g id="text_1">
      <!-- 2020-10 -->
      <g transform="translate(119.354365 277.742812)rotate(-90)scale(0.1 -0.1)">
       <defs>
        <path d="M 19.1875 8.296875 
L 53.609375 8.296875 
L 53.609375 0 
L 7.328125 0 
L 7.328125 8.296875 
Q 12.9375 14.109375 22.625 23.890625 
Q 32.328125 33.6875 34.8125 36.53125 
Q 39.546875 41.84375 41.421875 45.53125 
Q 43.3125 49.21875 43.3125 52.78125 
Q 43.3125 58.59375 39.234375 62.25 
Q 35.15625 65.921875 28.609375 65.921875 
Q 23.96875 65.921875 18.8125 64.3125 
Q 13.671875 62.703125 7.8125 59.421875 
L 7.8125 69.390625 
Q 13.765625 71.78125 18.9375 73 
Q 24.125 74.21875 28.421875 74.21875 
Q 39.75 74.21875 46.484375 68.546875 
Q 53.21875 62.890625 53.21875 53.421875 
Q 53.21875 48.921875 51.53125 44.890625 
Q 49.859375 40.875 45.40625 35.40625 
Q 44.1875 33.984375 37.640625 27.21875 
Q 31.109375 20.453125 19.1875 8.296875 
z
" id="DejaVuSans-50"/>
        <path d="M 31.78125 66.40625 
Q 24.171875 66.40625 20.328125 58.90625 
Q 16.5 51.421875 16.5 36.375 
Q 16.5 21.390625 20.328125 13.890625 
Q 24.171875 6.390625 31.78125 6.390625 
Q 39.453125 6.390625 43.28125 13.890625 
Q 47.125 21.390625 47.125 36.375 
Q 47.125 51.421875 43.28125 58.90625 
Q 39.453125 66.40625 31.78125 66.40625 
z
M 31.78125 74.21875 
Q 44.046875 74.21875 50.515625 64.515625 
Q 56.984375 54.828125 56.984375 36.375 
Q 56.984375 17.96875 50.515625 8.265625 
Q 44.046875 -1.421875 31.78125 -1.421875 
Q 19.53125 -1.421875 13.0625 8.265625 
Q 6.59375 17.96875 6.59375 36.375 
Q 6.59375 54.828125 13.0625 64.515625 
Q 19.53125 74.21875 31.78125 74.21875 
z
" id="DejaVuSans-48"/>
        <path d="M 4.890625 31.390625 
L 31.203125 31.390625 
L 31.203125 23.390625 
L 4.890625 23.390625 
z
" id="DejaVuSans-45"/>
        <path d="M 12.40625 8.296875 
L 28.515625 8.296875 
L 28.515625 63.921875 
L 10.984375 60.40625 
L 10.984375 69.390625 
L 28.421875 72.90625 
L 38.28125 72.90625 
L 38.28125 8.296875 
L 54.390625 8.296875 
L 54.390625 0 
L 12.40625 0 
z
" id="DejaVuSans-49"/>
       </defs>
       <use xlink:href="#DejaVuSans-50"/>
       <use x="63.623047" xlink:href="#DejaVuSans-48"/>
       <use x="127.246094" xlink:href="#DejaVuSans-50"/>
       <use x="190.869141" xlink:href="#DejaVuSans-48"/>
       <use x="254.492188" xlink:href="#DejaVuSans-45"/>
       <use x="290.576172" xlink:href="#DejaVuSans-49"/>
       <use x="354.199219" xlink:href="#DejaVuSans-48"/>
      </g>
     </g>
    </g>
    <g id="xtick_2">
     <g id="line2d_2">
      <g>
       <use style="stroke:#000000;stroke-width:0.8;" x="241.516825" xlink:href="#mf6b35085a5" y="228.96"/>
      </g>
     </g>
     <g id="text_2">
      <!-- 2020-11 -->
      <g transform="translate(244.2762 277.742812)rotate(-90)scale(0.1 -0.1)">
       <use xlink:href="#DejaVuSans-50"/>
       <use x="63.623047" xlink:href="#DejaVuSans-48"/>
       <use x="127.246094" xlink:href="#DejaVuSans-50"/>
       <use x="190.869141" xlink:href="#DejaVuSans-48"/>
       <use x="254.492188" xlink:href="#DejaVuSans-45"/>
       <use x="290.576172" xlink:href="#DejaVuSans-49"/>
       <use x="354.199219" xlink:href="#DejaVuSans-49"/>
      </g>
     </g>
    </g>
    <g id="xtick_3">
     <g id="line2d_3">
      <g>
       <use style="stroke:#000000;stroke-width:0.8;" x="362.408924" xlink:href="#mf6b35085a5" y="228.96"/>
      </g>
     </g>
     <g id="text_3">
      <!-- 2020-12 -->
      <g transform="translate(365.168299 277.742812)rotate(-90)scale(0.1 -0.1)">
       <use xlink:href="#DejaVuSans-50"/>
       <use x="63.623047" xlink:href="#DejaVuSans-48"/>
       <use x="127.246094" xlink:href="#DejaVuSans-50"/>
       <use x="190.869141" xlink:href="#DejaVuSans-48"/>
       <use x="254.492188" xlink:href="#DejaVuSans-45"/>
       <use x="290.576172" xlink:href="#DejaVuSans-49"/>
       <use x="354.199219" xlink:href="#DejaVuSans-50"/>
      </g>
     </g>
    </g>
    <g id="xtick_4">
     <g id="line2d_4">
      <g>
       <use style="stroke:#000000;stroke-width:0.8;" x="487.330759" xlink:href="#mf6b35085a5" y="228.96"/>
      </g>
     </g>
     <g id="text_4">
      <!-- 2021-01 -->
      <g transform="translate(490.090134 277.742812)rotate(-90)scale(0.1 -0.1)">
       <use xlink:href="#DejaVuSans-50"/>
       <use x="63.623047" xlink:href="#DejaVuSans-48"/>
       <use x="127.246094" xlink:href="#DejaVuSans-50"/>
       <use x="190.869141" xlink:href="#DejaVuSans-49"/>
       <use x="254.492188" xlink:href="#DejaVuSans-45"/>
       <use x="290.576172" xlink:href="#DejaVuSans-48"/>
       <use x="354.199219" xlink:href="#DejaVuSans-49"/>
      </g>
     </g>
    </g>
    <g id="xtick_5">
     <g id="line2d_5">
      <g>
       <use style="stroke:#000000;stroke-width:0.8;" x="612.252594" xlink:href="#mf6b35085a5" y="228.96"/>
      </g>
     </g>
     <g id="text_5">
      <!-- 2021-02 -->
      <g transform="translate(615.011969 277.742812)rotate(-90)scale(0.1 -0.1)">
       <use xlink:href="#DejaVuSans-50"/>
       <use x="63.623047" xlink:href="#DejaVuSans-48"/>
       <use x="127.246094" xlink:href="#DejaVuSans-50"/>
       <use x="190.869141" xlink:href="#DejaVuSans-49"/>
       <use x="254.492188" xlink:href="#DejaVuSans-45"/>
       <use x="290.576172" xlink:href="#DejaVuSans-48"/>
       <use x="354.199219" xlink:href="#DejaVuSans-50"/>
      </g>
     </g>
    </g>
    <g id="xtick_6">
     <g id="line2d_6">
      <g>
       <use style="stroke:#000000;stroke-width:0.8;" x="725.085219" xlink:href="#mf6b35085a5" y="228.96"/>
      </g>
     </g>
     <g id="text_6">
      <!-- 2021-03 -->
      <g transform="translate(727.844594 277.742812)rotate(-90)scale(0.1 -0.1)">
       <defs>
        <path d="M 40.578125 39.3125 
Q 47.65625 37.796875 51.625 33 
Q 55.609375 28.21875 55.609375 21.1875 
Q 55.609375 10.40625 48.1875 4.484375 
Q 40.765625 -1.421875 27.09375 -1.421875 
Q 22.515625 -1.421875 17.65625 -0.515625 
Q 12.796875 0.390625 7.625 2.203125 
L 7.625 11.71875 
Q 11.71875 9.328125 16.59375 8.109375 
Q 21.484375 6.890625 26.8125 6.890625 
Q 36.078125 6.890625 40.9375 10.546875 
Q 45.796875 14.203125 45.796875 21.1875 
Q 45.796875 27.640625 41.28125 31.265625 
Q 36.765625 34.90625 28.71875 34.90625 
L 20.21875 34.90625 
L 20.21875 43.015625 
L 29.109375 43.015625 
Q 36.375 43.015625 40.234375 45.921875 
Q 44.09375 48.828125 44.09375 54.296875 
Q 44.09375 59.90625 40.109375 62.90625 
Q 36.140625 65.921875 28.71875 65.921875 
Q 24.65625 65.921875 20.015625 65.03125 
Q 15.375 64.15625 9.8125 62.3125 
L 9.8125 71.09375 
Q 15.4375 72.65625 20.34375 73.4375 
Q 25.25 74.21875 29.59375 74.21875 
Q 40.828125 74.21875 47.359375 69.109375 
Q 53.90625 64.015625 53.90625 55.328125 
Q 53.90625 49.265625 50.4375 45.09375 
Q 46.96875 40.921875 40.578125 39.3125 
z
" id="DejaVuSans-51"/>
       </defs>
       <use xlink:href="#DejaVuSans-50"/>
       <use x="63.623047" xlink:href="#DejaVuSans-48"/>
       <use x="127.246094" xlink:href="#DejaVuSans-50"/>
       <use x="190.869141" xlink:href="#DejaVuSans-49"/>
       <use x="254.492188" xlink:href="#DejaVuSans-45"/>
       <use x="290.576172" xlink:href="#DejaVuSans-48"/>
       <use x="354.199219" xlink:href="#DejaVuSans-51"/>
      </g>
     </g>
    </g>
    <g id="xtick_7">
     <g id="line2d_7">
      <g>
       <use style="stroke:#000000;stroke-width:0.8;" x="850.007054" xlink:href="#mf6b35085a5" y="228.96"/>
      </g>
     </g>
     <g id="text_7">
      <!-- 2021-04 -->
      <g transform="translate(852.766429 277.742812)rotate(-90)scale(0.1 -0.1)">
       <defs>
        <path d="M 37.796875 64.3125 
L 12.890625 25.390625 
L 37.796875 25.390625 
z
M 35.203125 72.90625 
L 47.609375 72.90625 
L 47.609375 25.390625 
L 58.015625 25.390625 
L 58.015625 17.1875 
L 47.609375 17.1875 
L 47.609375 0 
L 37.796875 0 
L 37.796875 17.1875 
L 4.890625 17.1875 
L 4.890625 26.703125 
z
" id="DejaVuSans-52"/>
       </defs>
       <use xlink:href="#DejaVuSans-50"/>
       <use x="63.623047" xlink:href="#DejaVuSans-48"/>
       <use x="127.246094" xlink:href="#DejaVuSans-50"/>
       <use x="190.869141" xlink:href="#DejaVuSans-49"/>
       <use x="254.492188" xlink:href="#DejaVuSans-45"/>
       <use x="290.576172" xlink:href="#DejaVuSans-48"/>
       <use x="354.199219" xlink:href="#DejaVuSans-52"/>
      </g>
     </g>
    </g>
    <g id="xtick_8">
     <g id="line2d_8">
      <g>
       <use style="stroke:#000000;stroke-width:0.8;" x="970.899153" xlink:href="#mf6b35085a5" y="228.96"/>
      </g>
     </g>
     <g id="text_8">
      <!-- 2021-05 -->
      <g transform="translate(973.658528 277.742812)rotate(-90)scale(0.1 -0.1)">
       <defs>
        <path d="M 10.796875 72.90625 
L 49.515625 72.90625 
L 49.515625 64.59375 
L 19.828125 64.59375 
L 19.828125 46.734375 
Q 21.96875 47.46875 24.109375 47.828125 
Q 26.265625 48.1875 28.421875 48.1875 
Q 40.625 48.1875 47.75 41.5 
Q 54.890625 34.8125 54.890625 23.390625 
Q 54.890625 11.625 47.5625 5.09375 
Q 40.234375 -1.421875 26.90625 -1.421875 
Q 22.3125 -1.421875 17.546875 -0.640625 
Q 12.796875 0.140625 7.71875 1.703125 
L 7.71875 11.625 
Q 12.109375 9.234375 16.796875 8.0625 
Q 21.484375 6.890625 26.703125 6.890625 
Q 35.15625 6.890625 40.078125 11.328125 
Q 45.015625 15.765625 45.015625 23.390625 
Q 45.015625 31 40.078125 35.4375 
Q 35.15625 39.890625 26.703125 39.890625 
Q 22.75 39.890625 18.8125 39.015625 
Q 14.890625 38.140625 10.796875 36.28125 
z
" id="DejaVuSans-53"/>
       </defs>
       <use xlink:href="#DejaVuSans-50"/>
       <use x="63.623047" xlink:href="#DejaVuSans-48"/>
       <use x="127.246094" xlink:href="#DejaVuSans-50"/>
       <use x="190.869141" xlink:href="#DejaVuSans-49"/>
       <use x="254.492188" xlink:href="#DejaVuSans-45"/>
       <use x="290.576172" xlink:href="#DejaVuSans-48"/>
       <use x="354.199219" xlink:href="#DejaVuSans-53"/>
      </g>
     </g>
    </g>
    <g id="text_9">
     <!-- Date -->
     <g transform="translate(515.677344 289.34125)scale(0.1 -0.1)">
      <defs>
       <path d="M 19.671875 64.796875 
L 19.671875 8.109375 
L 31.59375 8.109375 
Q 46.6875 8.109375 53.6875 14.9375 
Q 60.6875 21.78125 60.6875 36.53125 
Q 60.6875 51.171875 53.6875 57.984375 
Q 46.6875 64.796875 31.59375 64.796875 
z
M 9.8125 72.90625 
L 30.078125 72.90625 
Q 51.265625 72.90625 61.171875 64.09375 
Q 71.09375 55.28125 71.09375 36.53125 
Q 71.09375 17.671875 61.125 8.828125 
Q 51.171875 0 30.078125 0 
L 9.8125 0 
z
" id="DejaVuSans-68"/>
       <path d="M 34.28125 27.484375 
Q 23.390625 27.484375 19.1875 25 
Q 14.984375 22.515625 14.984375 16.5 
Q 14.984375 11.71875 18.140625 8.90625 
Q 21.296875 6.109375 26.703125 6.109375 
Q 34.1875 6.109375 38.703125 11.40625 
Q 43.21875 16.703125 43.21875 25.484375 
L 43.21875 27.484375 
z
M 52.203125 31.203125 
L 52.203125 0 
L 43.21875 0 
L 43.21875 8.296875 
Q 40.140625 3.328125 35.546875 0.953125 
Q 30.953125 -1.421875 24.3125 -1.421875 
Q 15.921875 -1.421875 10.953125 3.296875 
Q 6 8.015625 6 15.921875 
Q 6 25.140625 12.171875 29.828125 
Q 18.359375 34.515625 30.609375 34.515625 
L 43.21875 34.515625 
L 43.21875 35.40625 
Q 43.21875 41.609375 39.140625 45 
Q 35.0625 48.390625 27.6875 48.390625 
Q 23 48.390625 18.546875 47.265625 
Q 14.109375 46.140625 10.015625 43.890625 
L 10.015625 52.203125 
Q 14.9375 54.109375 19.578125 55.046875 
Q 24.21875 56 28.609375 56 
Q 40.484375 56 46.34375 49.84375 
Q 52.203125 43.703125 52.203125 31.203125 
z
" id="DejaVuSans-97"/>
       <path d="M 18.3125 70.21875 
L 18.3125 54.6875 
L 36.8125 54.6875 
L 36.8125 47.703125 
L 18.3125 47.703125 
L 18.3125 18.015625 
Q 18.3125 11.328125 20.140625 9.421875 
Q 21.96875 7.515625 27.59375 7.515625 
L 36.8125 7.515625 
L 36.8125 0 
L 27.59375 0 
Q 17.1875 0 13.234375 3.875 
Q 9.28125 7.765625 9.28125 18.015625 
L 9.28125 47.703125 
L 2.6875 47.703125 
L 2.6875 54.6875 
L 9.28125 54.6875 
L 9.28125 70.21875 
z
" id="DejaVuSans-116"/>
       <path d="M 56.203125 29.59375 
L 56.203125 25.203125 
L 14.890625 25.203125 
Q 15.484375 15.921875 20.484375 11.0625 
Q 25.484375 6.203125 34.421875 6.203125 
Q 39.59375 6.203125 44.453125 7.46875 
Q 49.3125 8.734375 54.109375 11.28125 
L 54.109375 2.78125 
Q 49.265625 0.734375 44.1875 -0.34375 
Q 39.109375 -1.421875 33.890625 -1.421875 
Q 20.796875 -1.421875 13.15625 6.1875 
Q 5.515625 13.8125 5.515625 26.8125 
Q 5.515625 40.234375 12.765625 48.109375 
Q 20.015625 56 32.328125 56 
Q 43.359375 56 49.78125 48.890625 
Q 56.203125 41.796875 56.203125 29.59375 
z
M 47.21875 32.234375 
Q 47.125 39.59375 43.09375 43.984375 
Q 39.0625 48.390625 32.421875 48.390625 
Q 24.90625 48.390625 20.390625 44.140625 
Q 15.875 39.890625 15.1875 32.171875 
z
" id="DejaVuSans-101"/>
      </defs>
      <use xlink:href="#DejaVuSans-68"/>
      <use x="77.001953" xlink:href="#DejaVuSans-97"/>
      <use x="138.28125" xlink:href="#DejaVuSans-116"/>
      <use x="177.490234" xlink:href="#DejaVuSans-101"/>
     </g>
    </g>
   </g>
   <g id="matplotlib.axis_2">
    <g id="ytick_1">
     <g id="line2d_9">
      <defs>
       <path d="M 0 0 
L -3.5 0 
" id="m93dd0faedb" style="stroke:#000000;stroke-width:0.8;"/>
      </defs>
      <g>
       <use style="stroke:#000000;stroke-width:0.8;" x="53.328125" xlink:href="#m93dd0faedb" y="228.96"/>
      </g>
     </g>
     <g id="text_10">
      <!-- 1 -->
      <g transform="translate(39.965625 232.759219)scale(0.1 -0.1)">
       <use xlink:href="#DejaVuSans-49"/>
      </g>
     </g>
    </g>
    <g id="ytick_2">
     <g id="line2d_10">
      <g>
       <use style="stroke:#000000;stroke-width:0.8;" x="53.328125" xlink:href="#m93dd0faedb" y="198.639853"/>
      </g>
     </g>
     <g id="text_11">
      <!-- 3 -->
      <g transform="translate(39.965625 202.439072)scale(0.1 -0.1)">
       <use xlink:href="#DejaVuSans-51"/>
      </g>
     </g>
    </g>
    <g id="ytick_3">
     <g id="line2d_11">
      <g>
       <use style="stroke:#000000;stroke-width:0.8;" x="53.328125" xlink:href="#m93dd0faedb" y="168.319707"/>
      </g>
     </g>
     <g id="text_12">
      <!-- 10 -->
      <g transform="translate(33.603125 172.118926)scale(0.1 -0.1)">
       <use xlink:href="#DejaVuSans-49"/>
       <use x="63.623047" xlink:href="#DejaVuSans-48"/>
      </g>
     </g>
    </g>
    <g id="ytick_4">
     <g id="line2d_12">
      <g>
       <use style="stroke:#000000;stroke-width:0.8;" x="53.328125" xlink:href="#m93dd0faedb" y="137.99956"/>
      </g>
     </g>
     <g id="text_13">
      <!-- 31 -->
      <g transform="translate(33.603125 141.798779)scale(0.1 -0.1)">
       <use xlink:href="#DejaVuSans-51"/>
       <use x="63.623047" xlink:href="#DejaVuSans-49"/>
      </g>
     </g>
    </g>
    <g id="ytick_5">
     <g id="line2d_13">
      <g>
       <use style="stroke:#000000;stroke-width:0.8;" x="53.328125" xlink:href="#m93dd0faedb" y="107.679414"/>
      </g>
     </g>
     <g id="text_14">
      <!-- 100 -->
      <g transform="translate(27.240625 111.478632)scale(0.1 -0.1)">
       <use xlink:href="#DejaVuSans-49"/>
       <use x="63.623047" xlink:href="#DejaVuSans-48"/>
       <use x="127.246094" xlink:href="#DejaVuSans-48"/>
      </g>
     </g>
    </g>
    <g id="ytick_6">
     <g id="line2d_14">
      <g>
       <use style="stroke:#000000;stroke-width:0.8;" x="53.328125" xlink:href="#m93dd0faedb" y="77.359267"/>
      </g>
     </g>
     <g id="text_15">
      <!-- 316 -->
      <g transform="translate(27.240625 81.158486)scale(0.1 -0.1)">
       <defs>
        <path d="M 33.015625 40.375 
Q 26.375 40.375 22.484375 35.828125 
Q 18.609375 31.296875 18.609375 23.390625 
Q 18.609375 15.53125 22.484375 10.953125 
Q 26.375 6.390625 33.015625 6.390625 
Q 39.65625 6.390625 43.53125 10.953125 
Q 47.40625 15.53125 47.40625 23.390625 
Q 47.40625 31.296875 43.53125 35.828125 
Q 39.65625 40.375 33.015625 40.375 
z
M 52.59375 71.296875 
L 52.59375 62.3125 
Q 48.875 64.0625 45.09375 64.984375 
Q 41.3125 65.921875 37.59375 65.921875 
Q 27.828125 65.921875 22.671875 59.328125 
Q 17.53125 52.734375 16.796875 39.40625 
Q 19.671875 43.65625 24.015625 45.921875 
Q 28.375 48.1875 33.59375 48.1875 
Q 44.578125 48.1875 50.953125 41.515625 
Q 57.328125 34.859375 57.328125 23.390625 
Q 57.328125 12.15625 50.6875 5.359375 
Q 44.046875 -1.421875 33.015625 -1.421875 
Q 20.359375 -1.421875 13.671875 8.265625 
Q 6.984375 17.96875 6.984375 36.375 
Q 6.984375 53.65625 15.1875 63.9375 
Q 23.390625 74.21875 37.203125 74.21875 
Q 40.921875 74.21875 44.703125 73.484375 
Q 48.484375 72.75 52.59375 71.296875 
z
" id="DejaVuSans-54"/>
       </defs>
       <use xlink:href="#DejaVuSans-51"/>
       <use x="63.623047" xlink:href="#DejaVuSans-49"/>
       <use x="127.246094" xlink:href="#DejaVuSans-54"/>
      </g>
     </g>
    </g>
    <g id="ytick_7">
     <g id="line2d_15">
      <g>
       <use style="stroke:#000000;stroke-width:0.8;" x="53.328125" xlink:href="#m93dd0faedb" y="47.03912"/>
      </g>
     </g>
     <g id="text_16">
      <!-- 1000 -->
      <g transform="translate(20.878125 50.838339)scale(0.1 -0.1)">
       <use xlink:href="#DejaVuSans-49"/>
       <use x="63.623047" xlink:href="#DejaVuSans-48"/>
       <use x="127.246094" xlink:href="#DejaVuSans-48"/>
       <use x="190.869141" xlink:href="#DejaVuSans-48"/>
      </g>
     </g>
    </g>
    <g id="ytick_8">
     <g id="line2d_16">
      <g>
       <use style="stroke:#000000;stroke-width:0.8;" x="53.328125" xlink:href="#m93dd0faedb" y="16.718974"/>
      </g>
     </g>
     <g id="text_17">
      <!-- 3162 -->
      <g transform="translate(20.878125 20.518193)scale(0.1 -0.1)">
       <use xlink:href="#DejaVuSans-51"/>
       <use x="63.623047" xlink:href="#DejaVuSans-49"/>
       <use x="127.246094" xlink:href="#DejaVuSans-54"/>
       <use x="190.869141" xlink:href="#DejaVuSans-50"/>
      </g>
     </g>
    </g>
    <g id="text_18">
     <!-- Count (7 day rolling average) -->
     <g transform="translate(14.798438 191.547969)rotate(-90)scale(0.1 -0.1)">
      <defs>
       <path d="M 64.40625 67.28125 
L 64.40625 56.890625 
Q 59.421875 61.53125 53.78125 63.8125 
Q 48.140625 66.109375 41.796875 66.109375 
Q 29.296875 66.109375 22.65625 58.46875 
Q 16.015625 50.828125 16.015625 36.375 
Q 16.015625 21.96875 22.65625 14.328125 
Q 29.296875 6.6875 41.796875 6.6875 
Q 48.140625 6.6875 53.78125 8.984375 
Q 59.421875 11.28125 64.40625 15.921875 
L 64.40625 5.609375 
Q 59.234375 2.09375 53.4375 0.328125 
Q 47.65625 -1.421875 41.21875 -1.421875 
Q 24.65625 -1.421875 15.125 8.703125 
Q 5.609375 18.84375 5.609375 36.375 
Q 5.609375 53.953125 15.125 64.078125 
Q 24.65625 74.21875 41.21875 74.21875 
Q 47.75 74.21875 53.53125 72.484375 
Q 59.328125 70.75 64.40625 67.28125 
z
" id="DejaVuSans-67"/>
       <path d="M 30.609375 48.390625 
Q 23.390625 48.390625 19.1875 42.75 
Q 14.984375 37.109375 14.984375 27.296875 
Q 14.984375 17.484375 19.15625 11.84375 
Q 23.34375 6.203125 30.609375 6.203125 
Q 37.796875 6.203125 41.984375 11.859375 
Q 46.1875 17.53125 46.1875 27.296875 
Q 46.1875 37.015625 41.984375 42.703125 
Q 37.796875 48.390625 30.609375 48.390625 
z
M 30.609375 56 
Q 42.328125 56 49.015625 48.375 
Q 55.71875 40.765625 55.71875 27.296875 
Q 55.71875 13.875 49.015625 6.21875 
Q 42.328125 -1.421875 30.609375 -1.421875 
Q 18.84375 -1.421875 12.171875 6.21875 
Q 5.515625 13.875 5.515625 27.296875 
Q 5.515625 40.765625 12.171875 48.375 
Q 18.84375 56 30.609375 56 
z
" id="DejaVuSans-111"/>
       <path d="M 8.5 21.578125 
L 8.5 54.6875 
L 17.484375 54.6875 
L 17.484375 21.921875 
Q 17.484375 14.15625 20.5 10.265625 
Q 23.53125 6.390625 29.59375 6.390625 
Q 36.859375 6.390625 41.078125 11.03125 
Q 45.3125 15.671875 45.3125 23.6875 
L 45.3125 54.6875 
L 54.296875 54.6875 
L 54.296875 0 
L 45.3125 0 
L 45.3125 8.40625 
Q 42.046875 3.421875 37.71875 1 
Q 33.40625 -1.421875 27.6875 -1.421875 
Q 18.265625 -1.421875 13.375 4.4375 
Q 8.5 10.296875 8.5 21.578125 
z
M 31.109375 56 
z
" id="DejaVuSans-117"/>
       <path d="M 54.890625 33.015625 
L 54.890625 0 
L 45.90625 0 
L 45.90625 32.71875 
Q 45.90625 40.484375 42.875 44.328125 
Q 39.84375 48.1875 33.796875 48.1875 
Q 26.515625 48.1875 22.3125 43.546875 
Q 18.109375 38.921875 18.109375 30.90625 
L 18.109375 0 
L 9.078125 0 
L 9.078125 54.6875 
L 18.109375 54.6875 
L 18.109375 46.1875 
Q 21.34375 51.125 25.703125 53.5625 
Q 30.078125 56 35.796875 56 
Q 45.21875 56 50.046875 50.171875 
Q 54.890625 44.34375 54.890625 33.015625 
z
" id="DejaVuSans-110"/>
       <path id="DejaVuSans-32"/>
       <path d="M 31 75.875 
Q 24.46875 64.65625 21.28125 53.65625 
Q 18.109375 42.671875 18.109375 31.390625 
Q 18.109375 20.125 21.3125 9.0625 
Q 24.515625 -2 31 -13.1875 
L 23.1875 -13.1875 
Q 15.875 -1.703125 12.234375 9.375 
Q 8.59375 20.453125 8.59375 31.390625 
Q 8.59375 42.28125 12.203125 53.3125 
Q 15.828125 64.359375 23.1875 75.875 
z
" id="DejaVuSans-40"/>
       <path d="M 8.203125 72.90625 
L 55.078125 72.90625 
L 55.078125 68.703125 
L 28.609375 0 
L 18.3125 0 
L 43.21875 64.59375 
L 8.203125 64.59375 
z
" id="DejaVuSans-55"/>
       <path d="M 45.40625 46.390625 
L 45.40625 75.984375 
L 54.390625 75.984375 
L 54.390625 0 
L 45.40625 0 
L 45.40625 8.203125 
Q 42.578125 3.328125 38.25 0.953125 
Q 33.9375 -1.421875 27.875 -1.421875 
Q 17.96875 -1.421875 11.734375 6.484375 
Q 5.515625 14.40625 5.515625 27.296875 
Q 5.515625 40.1875 11.734375 48.09375 
Q 17.96875 56 27.875 56 
Q 33.9375 56 38.25 53.625 
Q 42.578125 51.265625 45.40625 46.390625 
z
M 14.796875 27.296875 
Q 14.796875 17.390625 18.875 11.75 
Q 22.953125 6.109375 30.078125 6.109375 
Q 37.203125 6.109375 41.296875 11.75 
Q 45.40625 17.390625 45.40625 27.296875 
Q 45.40625 37.203125 41.296875 42.84375 
Q 37.203125 48.484375 30.078125 48.484375 
Q 22.953125 48.484375 18.875 42.84375 
Q 14.796875 37.203125 14.796875 27.296875 
z
" id="DejaVuSans-100"/>
       <path d="M 32.171875 -5.078125 
Q 28.375 -14.84375 24.75 -17.8125 
Q 21.140625 -20.796875 15.09375 -20.796875 
L 7.90625 -20.796875 
L 7.90625 -13.28125 
L 13.1875 -13.28125 
Q 16.890625 -13.28125 18.9375 -11.515625 
Q 21 -9.765625 23.484375 -3.21875 
L 25.09375 0.875 
L 2.984375 54.6875 
L 12.5 54.6875 
L 29.59375 11.921875 
L 46.6875 54.6875 
L 56.203125 54.6875 
z
" id="DejaVuSans-121"/>
       <path d="M 41.109375 46.296875 
Q 39.59375 47.171875 37.8125 47.578125 
Q 36.03125 48 33.890625 48 
Q 26.265625 48 22.1875 43.046875 
Q 18.109375 38.09375 18.109375 28.8125 
L 18.109375 0 
L 9.078125 0 
L 9.078125 54.6875 
L 18.109375 54.6875 
L 18.109375 46.1875 
Q 20.953125 51.171875 25.484375 53.578125 
Q 30.03125 56 36.53125 56 
Q 37.453125 56 38.578125 55.875 
Q 39.703125 55.765625 41.0625 55.515625 
z
" id="DejaVuSans-114"/>
       <path d="M 9.421875 75.984375 
L 18.40625 75.984375 
L 18.40625 0 
L 9.421875 0 
z
" id="DejaVuSans-108"/>
       <path d="M 9.421875 54.6875 
L 18.40625 54.6875 
L 18.40625 0 
L 9.421875 0 
z
M 9.421875 75.984375 
L 18.40625 75.984375 
L 18.40625 64.59375 
L 9.421875 64.59375 
z
" id="DejaVuSans-105"/>
       <path d="M 45.40625 27.984375 
Q 45.40625 37.75 41.375 43.109375 
Q 37.359375 48.484375 30.078125 48.484375 
Q 22.859375 48.484375 18.828125 43.109375 
Q 14.796875 37.75 14.796875 27.984375 
Q 14.796875 18.265625 18.828125 12.890625 
Q 22.859375 7.515625 30.078125 7.515625 
Q 37.359375 7.515625 41.375 12.890625 
Q 45.40625 18.265625 45.40625 27.984375 
z
M 54.390625 6.78125 
Q 54.390625 -7.171875 48.1875 -13.984375 
Q 42 -20.796875 29.203125 -20.796875 
Q 24.46875 -20.796875 20.265625 -20.09375 
Q 16.0625 -19.390625 12.109375 -17.921875 
L 12.109375 -9.1875 
Q 16.0625 -11.328125 19.921875 -12.34375 
Q 23.78125 -13.375 27.78125 -13.375 
Q 36.625 -13.375 41.015625 -8.765625 
Q 45.40625 -4.15625 45.40625 5.171875 
L 45.40625 9.625 
Q 42.625 4.78125 38.28125 2.390625 
Q 33.9375 0 27.875 0 
Q 17.828125 0 11.671875 7.65625 
Q 5.515625 15.328125 5.515625 27.984375 
Q 5.515625 40.671875 11.671875 48.328125 
Q 17.828125 56 27.875 56 
Q 33.9375 56 38.28125 53.609375 
Q 42.625 51.21875 45.40625 46.390625 
L 45.40625 54.6875 
L 54.390625 54.6875 
z
" id="DejaVuSans-103"/>
       <path d="M 2.984375 54.6875 
L 12.5 54.6875 
L 29.59375 8.796875 
L 46.6875 54.6875 
L 56.203125 54.6875 
L 35.6875 0 
L 23.484375 0 
z
" id="DejaVuSans-118"/>
       <path d="M 8.015625 75.875 
L 15.828125 75.875 
Q 23.140625 64.359375 26.78125 53.3125 
Q 30.421875 42.28125 30.421875 31.390625 
Q 30.421875 20.453125 26.78125 9.375 
Q 23.140625 -1.703125 15.828125 -13.1875 
L 8.015625 -13.1875 
Q 14.5 -2 17.703125 9.0625 
Q 20.90625 20.125 20.90625 31.390625 
Q 20.90625 42.671875 17.703125 53.65625 
Q 14.5 64.65625 8.015625 75.875 
z
" id="DejaVuSans-41"/>
      </defs>
      <use xlink:href="#DejaVuSans-67"/>
      <use x="69.824219" xlink:href="#DejaVuSans-111"/>
      <use x="131.005859" xlink:href="#DejaVuSans-117"/>
      <use x="194.384766" xlink:href="#DejaVuSans-110"/>
      <use x="257.763672" xlink:href="#DejaVuSans-116"/>
      <use x="296.972656" xlink:href="#DejaVuSans-32"/>
      <use x="328.759766" xlink:href="#DejaVuSans-40"/>
      <use x="367.773438" xlink:href="#DejaVuSans-55"/>
      <use x="431.396484" xlink:href="#DejaVuSans-32"/>
      <use x="463.183594" xlink:href="#DejaVuSans-100"/>
      <use x="526.660156" xlink:href="#DejaVuSans-97"/>
      <use x="587.939453" xlink:href="#DejaVuSans-121"/>
      <use x="647.119141" xlink:href="#DejaVuSans-32"/>
      <use x="678.90625" xlink:href="#DejaVuSans-114"/>
      <use x="717.769531" xlink:href="#DejaVuSans-111"/>
      <use x="778.951172" xlink:href="#DejaVuSans-108"/>
      <use x="806.734375" xlink:href="#DejaVuSans-108"/>
      <use x="834.517578" xlink:href="#DejaVuSans-105"/>
      <use x="862.300781" xlink:href="#DejaVuSans-110"/>
      <use x="925.679688" xlink:href="#DejaVuSans-103"/>
      <use x="989.15625" xlink:href="#DejaVuSans-32"/>
      <use x="1020.943359" xlink:href="#DejaVuSans-97"/>
      <use x="1082.222656" xlink:href="#DejaVuSans-118"/>
      <use x="1141.402344" xlink:href="#DejaVuSans-101"/>
      <use x="1202.925781" xlink:href="#DejaVuSans-114"/>
      <use x="1244.039062" xlink:href="#DejaVuSans-97"/>
      <use x="1305.318359" xlink:href="#DejaVuSans-103"/>
      <use x="1368.794922" xlink:href="#DejaVuSans-101"/>
      <use x="1430.318359" xlink:href="#DejaVuSans-41"/>
     </g>
    </g>
   </g>
   <g id="line2d_17">
    <path clip-path="url(#pd250a362e5)" d="M 128.6842 225.443351 
L 132.713936 228.96 
L 221.368142 228.96 
L 225.397879 225.443351 
L 249.576298 225.443351 
L 253.606035 228.96 
L 265.695245 228.96 
L 269.724981 214.765126 
L 273.754718 192.450906 
L 281.814191 192.450906 
L 285.843928 188.934257 
L 293.903401 188.934257 
L 297.933138 193.408675 
L 301.962874 217.056635 
L 305.992611 214.765126 
L 310.022348 214.765126 
L 314.052084 222.341447 
L 326.141294 222.341447 
L 330.171031 214.765126 
L 334.200767 217.056635 
L 338.230504 217.056635 
L 342.260241 219.5667 
L 346.289977 219.5667 
L 350.319714 214.765126 
L 354.34945 212.657141 
L 358.379187 200.027227 
L 362.408924 198.802088 
L 366.43866 196.510579 
L 374.498133 196.510579 
L 382.557607 198.802088 
L 386.587343 193.408675 
L 394.646817 193.408675 
L 398.676553 190.633927 
L 402.70629 189.770383 
L 406.736026 188.123862 
L 410.765763 183.057605 
L 414.7955 171.515835 
L 418.825236 164.15276 
L 422.854973 161.122323 
L 426.88471 158.40489 
L 430.914446 153.906277 
L 434.944183 150.635631 
L 438.973919 147.215274 
L 443.003656 134.067942 
L 447.033393 129.130089 
L 451.063129 125.486317 
L 455.092866 123.976898 
L 459.122602 123.837555 
L 463.152339 122.351555 
L 467.182076 121.638859 
L 471.211812 117.615738 
L 475.241549 115.006105 
L 479.271286 112.226389 
L 483.301022 110.287479 
L 487.330759 109.71226 
L 491.360495 108.793711 
L 495.390232 107.23177 
L 499.419969 103.998679 
L 503.449705 102.473384 
L 507.479442 102.196972 
L 515.538915 93.660699 
L 519.568652 92.325322 
L 523.598388 90.676893 
L 527.628125 85.826047 
L 531.657862 84.859489 
L 535.687598 82.777068 
L 539.717335 82.674963 
L 543.747071 81.106644 
L 547.776808 80.097488 
L 551.806545 80.176813 
L 555.836281 76.847856 
L 559.866018 75.739661 
L 563.895755 74.345218 
L 567.925491 73.071411 
L 571.955228 72.373074 
L 575.984964 72.137844 
L 580.014701 71.53018 
L 584.044438 69.082601 
L 588.074174 66.875217 
L 600.163384 62.048353 
L 604.193121 61.423865 
L 608.222857 61.391404 
L 612.252594 57.659096 
L 616.282331 54.640536 
L 620.312067 51.932654 
L 624.341804 50.057447 
L 628.37154 49.100432 
L 632.401277 48.44547 
L 636.431014 47.605748 
L 640.46075 44.108326 
L 644.490487 43.052644 
L 652.54996 42.228142 
L 656.579697 40.949635 
L 660.609433 40.593782 
L 664.63917 40.780005 
L 668.668907 38.175186 
L 672.698643 37.093338 
L 676.72838 36.136122 
L 680.758117 34.736577 
L 684.787853 34.192783 
L 688.81759 33.976538 
L 692.847326 33.533528 
L 696.877063 35.780428 
L 700.9068 35.528924 
L 704.936536 34.167386 
L 708.966273 33.891905 
L 712.996009 33.195527 
L 717.025746 32.817924 
L 721.055483 32.059402 
L 725.085219 31.578139 
L 729.114956 28.950635 
L 733.144693 27.805986 
L 741.204166 26.319009 
L 745.233902 25.565881 
L 749.263639 25.307458 
L 753.293376 24.403318 
L 757.323112 24.804565 
L 765.382585 23.936013 
L 769.412322 23.541521 
L 773.442059 22.897389 
L 777.471795 22.537326 
L 781.501532 21.564299 
L 785.531269 19.474361 
L 789.561005 19.233731 
L 793.590742 17.902721 
L 797.620478 17.809555 
L 801.650215 18.326732 
L 805.679952 18.363431 
L 809.709688 18.532401 
L 813.739425 19.987901 
L 817.769162 20.129713 
L 821.798898 19.995984 
L 825.828635 19.160532 
L 829.858371 18.860721 
L 833.888108 19.165754 
L 837.917845 18.534951 
L 841.947581 17.76 
L 845.977318 18.519659 
L 850.007054 19.68124 
L 854.036791 21.367688 
L 858.066528 21.792664 
L 862.096264 22.063802 
L 866.126001 27.264219 
L 870.155738 30.697799 
L 874.185474 30.80523 
L 878.215211 31.121954 
L 886.274684 29.892984 
L 890.304421 29.840063 
L 894.334157 28.31105 
L 898.363894 26.565115 
L 902.393631 28.169168 
L 906.423367 31.779705 
L 910.453104 33.580881 
L 914.48284 35.900924 
L 918.512577 37.732872 
L 922.542314 43.017097 
L 926.57205 51.788075 
L 930.601787 59.604288 
L 934.631523 65.08382 
L 938.66126 75.197093 
L 942.690997 82.184579 
L 946.720733 84.435849 
L 950.75047 88.265649 
L 954.780207 115.762207 
L 958.809943 122.285962 
L 958.809943 122.285962 
" style="fill:none;stroke:#947383;stroke-linecap:square;stroke-width:2;"/>
   </g>
   <g id="line2d_18">
    <path clip-path="url(#pd250a362e5)" d="M 156.892356 225.443351 
L 160.922093 228.96 
L 217.338405 228.96 
L 221.368142 225.443351 
L 245.546562 225.443351 
L 249.576298 228.96 
L 297.933138 228.96 
L 301.962874 225.443351 
L 314.052084 225.443351 
L 318.081821 222.341447 
L 326.141294 222.341447 
L 330.171031 225.443351 
L 334.200767 222.341447 
L 342.260241 222.341447 
L 346.289977 219.5667 
L 350.319714 217.056635 
L 370.468397 217.056635 
L 374.498133 222.341447 
L 378.52787 225.443351 
L 382.557607 222.341447 
L 386.587343 219.5667 
L 390.61708 217.056635 
L 394.646817 217.056635 
L 398.676553 212.657141 
L 406.736026 212.657141 
L 410.765763 210.705453 
L 414.7955 210.705453 
L 418.825236 214.765126 
L 422.854973 212.657141 
L 426.88471 208.888474 
L 430.914446 207.188804 
L 438.973919 195.435501 
L 443.003656 187.337662 
L 447.033393 177.180954 
L 451.063129 174.670889 
L 455.092866 153.689521 
L 459.122602 151.022929 
L 463.152339 147.555095 
L 467.182076 143.155601 
L 471.211812 139.638953 
L 475.241549 137.336894 
L 479.271286 136.991124 
L 483.301022 142.022706 
L 487.330759 140.803868 
L 491.360495 137.221132 
L 495.390232 128.293964 
L 499.419969 120.027228 
L 503.449705 116.911966 
L 507.479442 115.457157 
L 511.509179 111.520531 
L 515.538915 110.621905 
L 519.568652 111.915246 
L 523.598388 117.288582 
L 527.628125 120.820718 
L 531.657862 121.321174 
L 535.687598 121.638859 
L 539.717335 126.236674 
L 543.747071 126.312899 
L 547.776808 125.265316 
L 551.806545 122.351555 
L 555.836281 123.907134 
L 559.866018 124.399406 
L 563.895755 119.96717 
L 567.925491 115.255735 
L 571.955228 114.319474 
L 575.984964 115.305946 
L 580.014701 117.288582 
L 584.044438 118.679388 
L 588.074174 111.003282 
L 592.103911 107.121038 
L 596.133648 102.90921 
L 600.163384 101.414366 
L 604.193121 101.17817 
L 608.222857 97.253207 
L 612.252594 95.184209 
L 616.282331 90.676893 
L 620.312067 93.179067 
L 624.341804 97.998002 
L 628.37154 100.339289 
L 632.401277 100.282408 
L 636.431014 97.50766 
L 640.46075 97.456572 
L 644.490487 109.550194 
L 648.520224 110.287479 
L 652.54996 105.897573 
L 656.579697 105.652587 
L 660.609433 105.722351 
L 664.63917 114.319474 
L 668.668907 117.94701 
L 672.698643 115.660131 
L 676.72838 116.330813 
L 680.758117 122.025209 
L 684.787853 121.384405 
L 688.81759 119.787811 
L 692.847326 119.907248 
L 696.877063 111.21757 
L 700.9068 110.748418 
L 704.936536 110.790725 
L 708.966273 112.541252 
L 712.996009 113.182502 
L 717.025746 114.70964 
L 721.055483 115.813395 
L 725.085219 127.804741 
L 729.114956 134.690075 
L 733.144693 136.424743 
L 737.174429 136.537049 
L 741.204166 135.65173 
L 745.233902 135.327261 
L 749.263639 137.336894 
L 753.293376 138.52339 
L 757.323112 141.338623 
L 761.352849 143.011296 
L 765.382585 145.898213 
L 769.412322 148.073192 
L 773.442059 150.06516 
L 777.471795 151.022929 
L 781.501532 156.89958 
L 785.531269 156.656853 
L 789.561005 158.664357 
L 793.590742 157.144566 
L 797.620478 158.40489 
L 801.650215 157.391851 
L 805.679952 157.641481 
L 809.709688 156.656853 
L 813.739425 159.728572 
L 817.769162 159.45846 
L 821.798898 162.292994 
L 825.828635 166.502728 
L 829.858371 168.319707 
L 837.917845 170.67971 
L 841.947581 172.822008 
L 845.977318 173.730227 
L 850.007054 176.659437 
L 854.036791 176.659437 
L 858.066528 172.37938 
L 862.096264 170.271395 
L 870.155738 164.15276 
L 874.185474 165.809642 
L 878.215211 164.475902 
L 882.244947 163.518133 
L 886.274684 169.083115 
L 890.304421 171.515835 
L 898.363894 178.810489 
L 902.393631 177.713007 
L 906.423367 179.955701 
L 910.453104 183.057605 
L 914.48284 180.547541 
L 918.512577 180.547541 
L 922.542314 185.832353 
L 926.57205 185.832353 
L 930.601787 188.934257 
L 934.631523 190.633927 
L 938.66126 191.52675 
L 942.690997 195.435501 
L 942.690997 195.435501 
" style="fill:none;stroke:#96c6ad;stroke-linecap:square;stroke-width:2;"/>
   </g>
   <g id="line2d_19">
    <path clip-path="url(#pd250a362e5)" d="M 467.182076 210.705453 
L 471.211812 217.056635 
L 475.241549 222.341447 
L 479.271286 208.888474 
L 483.301022 204.0869 
L 487.330759 204.0869 
L 491.360495 204.0869 
L 495.390232 204.0869 
L 499.419969 200.027227 
L 503.449705 197.631418 
L 507.479442 198.802088 
L 511.509179 197.631418 
L 515.538915 191.52675 
L 519.568652 189.770383 
L 523.598388 190.633927 
L 527.628125 190.633927 
L 531.657862 186.574254 
L 535.687598 188.934257 
L 539.717335 189.770383 
L 543.747071 192.450906 
L 547.776808 194.402594 
L 551.806545 193.408675 
L 555.836281 195.435501 
L 559.866018 201.312153 
L 563.895755 201.312153 
L 567.925491 200.027227 
L 571.955228 198.802088 
L 575.984964 197.631418 
L 580.014701 197.631418 
L 584.044438 197.631418 
L 588.074174 200.027227 
L 592.103911 200.027227 
L 596.133648 200.027227 
L 600.163384 205.59221 
L 604.193121 207.188804 
L 608.222857 208.888474 
L 612.252594 202.663 
L 616.282331 202.663 
L 620.312067 204.0869 
L 624.341804 208.888474 
L 628.37154 208.888474 
L 632.401277 208.888474 
L 636.431014 208.888474 
L 640.46075 210.705453 
L 644.490487 207.188804 
L 648.520224 204.0869 
L 652.54996 205.59221 
L 656.579697 198.802088 
L 660.609433 198.802088 
L 664.63917 198.802088 
L 668.668907 197.631418 
L 672.698643 196.510579 
L 676.72838 195.435501 
L 680.758117 187.337662 
L 684.787853 173.272202 
L 688.81759 172.822008 
L 692.847326 169.473281 
L 696.877063 169.473281 
L 700.9068 167.946144 
L 704.936536 168.698645 
L 708.966273 167.577806 
L 712.996009 175.154127 
L 717.025746 170.271395 
L 721.055483 171.515835 
L 725.085219 168.319707 
L 729.114956 169.083115 
L 733.144693 167.214548 
L 737.174429 168.319707 
L 741.204166 163.518133 
L 745.233902 165.809642 
L 749.263639 164.15276 
L 753.293376 160.001484 
L 757.323112 159.19109 
L 761.352849 155.941811 
L 765.382585 156.89958 
L 769.412322 162.292994 
L 773.442059 162.593977 
L 777.471795 164.475902 
L 781.501532 168.698645 
L 785.531269 166.856233 
L 789.561005 169.083115 
L 793.590742 167.577806 
L 797.620478 167.577806 
L 801.650215 166.856233 
L 805.679952 162.292994 
L 809.709688 157.641481 
L 813.739425 157.391851 
L 817.769162 160.001484 
L 821.798898 160.277254 
L 825.828635 161.410149 
L 829.858371 161.410149 
L 833.888108 166.153905 
L 837.917845 167.214548 
L 841.947581 160.277254 
L 845.977318 159.19109 
L 850.007054 159.19109 
L 854.036791 158.147953 
L 858.066528 157.641481 
L 862.096264 156.178008 
L 866.126001 160.001484 
L 870.155738 163.518133 
L 874.185474 164.803058 
L 878.215211 165.809642 
L 882.244947 164.475902 
L 886.274684 160.83761 
L 890.304421 159.19109 
L 894.334157 159.728572 
L 898.363894 162.292994 
L 902.393631 161.122323 
L 906.423367 160.555941 
L 910.453104 161.701154 
L 914.48284 168.319707 
L 918.512577 170.67971 
" style="fill:none;stroke:#525886;stroke-linecap:square;stroke-width:2;"/>
   </g>
   <g id="line2d_20">
    <path clip-path="url(#pd250a362e5)" d="M 277.784455 222.341447 
L 281.814191 225.443351 
L 293.903401 225.443351 
L 297.933138 228.96 
L 310.022348 228.96 
L 314.052084 225.443351 
L 338.230504 225.443351 
L 342.260241 228.96 
L 394.646817 228.96 
L 398.676553 225.443351 
L 402.70629 222.341447 
L 414.7955 222.341447 
L 418.825236 217.056635 
L 422.854973 217.056635 
L 426.88471 214.765126 
L 430.914446 212.657141 
L 434.944183 210.705453 
L 438.973919 202.663 
L 443.003656 195.435501 
L 447.033393 196.510579 
L 451.063129 192.450906 
L 455.092866 191.52675 
L 459.122602 193.408675 
L 463.152339 181.152987 
L 467.182076 180.547541 
L 471.211812 176.659437 
L 475.241549 166.856233 
L 479.271286 161.995411 
L 483.301022 156.416342 
L 487.330759 154.567461 
L 491.360495 155.245672 
L 495.390232 152.016848 
L 503.449705 147.384637 
L 507.479442 146.384425 
L 511.509179 144.797454 
L 515.538915 142.583063 
L 519.568652 142.725035 
L 523.598388 143.740864 
L 527.628125 141.746937 
L 531.657862 142.022706 
L 535.687598 142.022706 
L 539.717335 140.021561 
L 543.747071 139.386934 
L 547.776808 135.65173 
L 551.806545 134.377171 
L 559.866018 131.068711 
L 563.895755 126.620025 
L 567.925491 126.852743 
L 571.955228 125.783899 
L 575.984964 125.933961 
L 580.014701 126.236674 
L 584.044438 124.973505 
L 588.074174 122.748584 
L 592.103911 120.268842 
L 596.133648 117.180427 
L 600.163384 115.105674 
L 604.193121 114.70964 
L 608.222857 113.136177 
L 612.252594 110.245972 
L 616.282331 108.91172 
L 620.312067 109.109585 
L 624.341804 108.058352 
L 628.37154 106.718957 
L 632.401277 106.038594 
L 636.431014 104.661248 
L 640.46075 103.098224 
L 644.490487 97.558847 
L 648.520224 94.06142 
L 652.54996 93.157383 
L 656.579697 90.974475 
L 660.609433 89.125593 
L 664.63917 88.229671 
L 668.668907 86.69342 
L 676.72838 87.13806 
L 684.787853 85.97414 
L 688.81759 85.776867 
L 692.847326 84.482585 
L 696.877063 82.227483 
L 700.9068 80.123903 
L 704.936536 77.152997 
L 708.966273 74.967943 
L 712.996009 73.132139 
L 717.025746 71.53018 
L 721.055483 70.815309 
L 725.085219 69.858534 
L 729.114956 69.414862 
L 741.204166 65.316251 
L 745.233902 64.920105 
L 749.263639 63.638712 
L 753.293376 61.088209 
L 757.323112 59.537684 
L 761.352849 58.927978 
L 765.382585 57.687265 
L 769.412322 55.384015 
L 773.442059 53.59701 
L 777.471795 52.854706 
L 781.501532 51.465648 
L 785.531269 48.922021 
L 789.561005 47.125795 
L 793.590742 44.631863 
L 797.620478 43.767211 
L 801.650215 43.140101 
L 805.679952 42.328625 
L 809.709688 41.268023 
L 813.739425 40.593782 
L 817.769162 38.129546 
L 821.798898 36.959576 
L 825.828635 36.418646 
L 829.858371 35.482791 
L 833.888108 34.94967 
L 837.917845 33.7666 
L 841.947581 32.467283 
L 845.977318 31.682929 
L 850.007054 30.384107 
L 854.036791 29.280181 
L 862.096264 28.973361 
L 866.126001 28.381353 
L 870.155738 29.043557 
L 874.185474 30.87438 
L 878.215211 33.035876 
L 886.274684 35.306292 
L 890.304421 37.381163 
L 894.334157 42.034542 
L 902.393631 49.772098 
L 906.423367 55.674848 
L 910.453104 64.217386 
L 914.48284 70.002103 
L 918.512577 72.432211 
L 922.542314 78.534305 
L 926.57205 86.966155 
L 930.601787 95.847972 
L 938.66126 108.832988 
L 942.690997 118.451864 
L 946.720733 123.49239 
L 950.75047 141.884461 
L 950.75047 141.884461 
" style="fill:none;stroke:#937252;stroke-linecap:square;stroke-width:2;"/>
   </g>
   <g id="line2d_21">
    <path clip-path="url(#pd250a362e5)" d="M 96.446307 219.5667 
L 100.476043 222.341447 
L 104.50578 225.443351 
L 108.535517 225.443351 
L 112.565253 222.341447 
L 116.59499 219.5667 
L 136.743673 219.5667 
L 140.77341 225.443351 
L 152.862619 225.443351 
L 156.892356 217.056635 
L 168.981566 217.056635 
L 173.011303 212.657141 
L 181.070776 212.657141 
L 185.100512 219.5667 
L 193.159986 219.5667 
L 197.189722 196.510579 
L 201.219459 192.450906 
L 205.249196 189.770383 
L 209.278932 185.832353 
L 213.308669 185.110781 
L 217.338405 183.724369 
L 221.368142 183.724369 
L 225.397879 195.435501 
L 229.427615 185.832353 
L 233.457352 182.407307 
L 237.487088 183.057605 
L 241.516825 165.469821 
L 245.546562 153.261288 
L 249.576298 151.815041 
L 253.606035 151.022929 
L 257.635772 140.279757 
L 261.665508 137.923461 
L 265.695245 138.402306 
L 269.724981 131.623169 
L 273.754718 132.189551 
L 277.784455 131.160314 
L 281.814191 127.643665 
L 285.843928 122.949365 
L 289.873665 114.174639 
L 293.903401 108.404121 
L 297.933138 108.91172 
L 301.962874 110.039417 
L 305.992611 106.682707 
L 310.022348 104.795786 
L 314.052084 107.641818 
L 318.081821 113.65029 
L 322.111557 114.174639 
L 326.141294 106.791608 
L 330.171031 105.932757 
L 334.200767 108.559266 
L 338.230504 112.00377 
L 342.260241 110.412392 
L 346.289977 108.096547 
L 350.319714 109.87533 
L 354.34945 120.027228 
L 358.379187 119.728295 
L 362.408924 119.55055 
L 366.43866 116.593385 
L 370.468397 119.024403 
L 374.498133 114.465109 
L 378.52787 113.321968 
L 382.557607 112.997689 
L 386.587343 102.90921 
L 390.61708 97.278542 
L 394.646817 94.128803 
L 398.676553 78.472178 
L 402.70629 75.650311 
L 406.736026 73.376461 
L 410.765763 68.634615 
L 414.7955 65.384117 
L 422.854973 58.039095 
L 426.88471 58.124925 
L 430.914446 54.73611 
L 434.944183 53.43823 
L 438.973919 53.74219 
L 443.003656 53.805352 
L 447.033393 55.311805 
L 451.063129 57.251214 
L 455.092866 60.586318 
L 459.122602 66.072572 
L 463.152339 63.872935 
L 467.182076 62.824678 
L 471.211812 63.858681 
L 475.241549 57.885301 
L 483.301022 52.775064 
L 487.330759 51.385654 
L 491.360495 48.024215 
L 495.390232 45.629084 
L 499.419969 42.619665 
L 503.449705 42.933266 
L 507.479442 43.525764 
L 511.509179 43.420618 
L 515.538915 41.090333 
L 519.568652 41.012407 
L 523.598388 41.283137 
L 527.628125 40.555518 
L 531.657862 38.237061 
L 535.687598 36.678835 
L 539.717335 34.971075 
L 543.747071 33.605718 
L 547.776808 34.324781 
L 551.806545 33.362866 
L 555.836281 33.430101 
L 559.866018 33.92161 
L 563.895755 33.06463 
L 567.925491 33.318138 
L 575.984964 32.454306 
L 580.014701 33.193303 
L 584.044438 29.451337 
L 588.074174 27.947742 
L 592.103911 26.105749 
L 596.133648 24.709318 
L 600.163384 23.148294 
L 604.193121 21.726392 
L 608.222857 21.421681 
L 612.252594 24.299988 
L 620.312067 29.030262 
L 624.341804 30.474212 
L 628.37154 34.07064 
L 632.401277 36.908309 
L 636.431014 37.124303 
L 640.46075 35.514347 
L 644.490487 34.262173 
L 648.520224 32.654001 
L 652.54996 32.09564 
L 656.579697 30.606927 
L 660.609433 30.214745 
L 664.63917 28.884462 
L 668.668907 27.230504 
L 672.698643 25.998917 
L 676.72838 26.42715 
L 684.787853 26.691642 
L 692.847326 25.476139 
L 696.877063 26.487421 
L 700.9068 27.281981 
L 704.936536 27.180898 
L 708.966273 25.187395 
L 712.996009 25.423103 
L 717.025746 26.13295 
L 721.055483 27.470999 
L 725.085219 27.686631 
L 729.114956 27.59657 
L 733.144693 27.154361 
L 737.174429 29.678044 
L 741.204166 29.493817 
L 745.233902 29.604199 
L 749.263639 30.864199 
L 753.293376 31.245586 
L 757.323112 30.854023 
L 761.352849 29.134901 
L 765.382585 26.735113 
L 769.412322 26.071787 
L 773.442059 24.900158 
L 781.501532 21.766711 
L 785.531269 21.214836 
L 793.590742 24.63851 
L 797.620478 25.961713 
L 801.650215 25.803337 
L 805.679952 25.467846 
L 809.709688 25.25805 
L 813.739425 25.612534 
L 817.769162 25.408206 
L 821.798898 24.561482 
L 825.828635 23.521488 
L 829.858371 24.219196 
L 833.888108 25.043385 
L 837.917845 27.043199 
L 841.947581 27.802361 
L 845.977318 28.259368 
L 850.007054 29.82049 
L 854.036791 31.513378 
L 858.066528 32.389514 
L 862.096264 33.538034 
L 866.126001 35.609242 
L 874.185474 38.863937 
L 878.215211 40.782972 
L 882.244947 42.388468 
L 886.274684 44.845612 
L 890.304421 46.046037 
L 894.334157 46.922748 
L 898.363894 48.106361 
L 902.393631 48.564798 
L 910.453104 48.91394 
L 914.48284 48.712718 
L 922.542314 51.44785 
L 926.57205 54.460393 
L 930.601787 59.356889 
L 934.631523 65.36902 
L 934.631523 65.36902 
" style="fill:none;stroke:#d18cad;stroke-linecap:square;stroke-width:2;"/>
   </g>
   <g id="line2d_22">
    <path clip-path="url(#pd250a362e5)" d="M 382.557607 225.443351 
L 386.587343 228.96 
L 390.61708 228.96 
L 394.646817 222.341447 
L 398.676553 222.341447 
L 402.70629 214.765126 
L 418.825236 214.765126 
L 422.854973 217.056635 
L 426.88471 217.056635 
L 430.914446 225.443351 
L 434.944183 217.056635 
L 438.973919 212.657141 
L 443.003656 210.705453 
L 447.033393 208.888474 
L 451.063129 205.59221 
L 459.122602 202.663 
L 467.182076 205.59221 
L 471.211812 205.59221 
L 475.241549 207.188804 
L 479.271286 210.705453 
L 483.301022 207.188804 
L 487.330759 195.435501 
L 491.360495 193.408675 
L 495.390232 194.402594 
L 503.449705 192.450906 
L 507.479442 188.934257 
L 511.509179 190.633927 
L 519.568652 190.633927 
L 523.598388 188.934257 
L 527.628125 188.123862 
L 531.657862 188.123862 
L 535.687598 189.770383 
L 539.717335 187.337662 
L 543.747071 192.450906 
L 547.776808 191.52675 
L 551.806545 192.450906 
L 555.836281 190.633927 
L 559.866018 190.633927 
L 563.895755 189.770383 
L 567.925491 189.770383 
L 571.955228 188.123862 
L 580.014701 188.123862 
L 584.044438 191.52675 
L 588.074174 190.633927 
L 592.103911 192.450906 
L 596.133648 193.408675 
L 600.163384 197.631418 
L 604.193121 200.027227 
L 612.252594 200.027227 
L 616.282331 201.312153 
L 620.312067 195.435501 
L 624.341804 198.802088 
L 628.37154 198.802088 
L 632.401277 202.663 
L 636.431014 204.0869 
L 640.46075 201.312153 
L 644.490487 197.631418 
L 648.520224 207.188804 
L 652.54996 198.802088 
L 656.579697 195.435501 
L 660.609433 193.408675 
L 664.63917 192.450906 
L 668.668907 192.450906 
L 672.698643 193.408675 
L 676.72838 192.450906 
L 680.758117 197.631418 
L 684.787853 200.027227 
L 688.81759 201.312153 
L 692.847326 196.510579 
L 696.877063 198.802088 
L 700.9068 197.631418 
L 704.936536 195.435501 
L 708.966273 194.402594 
L 712.996009 195.435501 
L 717.025746 190.633927 
L 721.055483 194.402594 
L 725.085219 193.408675 
L 729.114956 194.402594 
L 733.144693 190.633927 
L 737.174429 187.337662 
L 741.204166 188.123862 
L 745.233902 189.770383 
L 749.263639 187.337662 
L 753.293376 185.110781 
L 757.323112 183.724369 
L 761.352849 187.337662 
L 765.382585 188.934257 
L 769.412322 183.724369 
L 773.442059 179.37687 
L 777.471795 179.955701 
L 781.501532 181.152987 
L 785.531269 180.547541 
L 789.561005 181.152987 
L 793.590742 179.37687 
L 797.620478 182.407307 
L 801.650215 188.123862 
L 805.679952 186.574254 
L 809.709688 183.057605 
L 813.739425 185.832353 
L 817.769162 183.057605 
L 821.798898 185.832353 
L 825.828635 187.337662 
L 829.858371 181.77268 
L 833.888108 183.057605 
L 837.917845 179.37687 
L 841.947581 178.256031 
L 845.977318 176.659437 
L 850.007054 176.659437 
L 854.036791 174.196358 
L 858.066528 176.148047 
L 862.096264 176.148047 
L 866.126001 179.955701 
L 870.155738 179.37687 
L 874.185474 181.77268 
L 878.215211 182.407307 
L 882.244947 185.110781 
L 886.274684 185.832353 
L 890.304421 183.724369 
L 894.334157 185.110781 
L 902.393631 186.574254 
L 906.423367 185.832353 
L 910.453104 183.057605 
L 914.48284 181.77268 
L 918.512577 184.408452 
L 922.542314 187.337662 
L 926.57205 187.337662 
L 930.601787 189.770383 
L 934.631523 191.52675 
L 938.66126 194.402594 
L 942.690997 201.312153 
L 942.690997 201.312153 
" style="fill:none;stroke:#a4a86f;stroke-linecap:square;stroke-width:2;"/>
   </g>
   <g id="line2d_23">
    <path clip-path="url(#pd250a362e5)" d="M 362.408924 225.443351 
L 366.43866 228.96 
L 394.646817 228.96 
L 398.676553 225.443351 
L 410.765763 225.443351 
L 414.7955 222.341447 
L 438.973919 222.341447 
L 443.003656 219.5667 
L 447.033393 219.5667 
L 451.063129 217.056635 
L 455.092866 219.5667 
L 463.152339 219.5667 
L 467.182076 217.056635 
L 471.211812 214.765126 
L 475.241549 207.188804 
L 479.271286 205.59221 
L 483.301022 205.59221 
L 491.360495 194.402594 
L 495.390232 189.770383 
L 499.419969 188.934257 
L 503.449705 188.934257 
L 507.479442 173.272202 
L 511.509179 161.701154 
L 515.538915 156.178008 
L 519.568652 155.47568 
L 523.598388 153.689521 
L 527.628125 149.877716 
L 531.657862 148.601686 
L 535.687598 149.877716 
L 539.717335 155.017655 
L 543.747071 155.245672 
L 547.776808 156.178008 
L 551.806545 159.728572 
L 555.836281 165.809642 
L 559.866018 168.698645 
L 563.895755 177.713007 
L 567.925491 181.77268 
L 571.955228 200.027227 
L 575.984964 204.0869 
L 580.014701 201.312153 
L 584.044438 202.663 
L 588.074174 201.312153 
L 592.103911 195.435501 
L 596.133648 189.770383 
L 604.193121 189.770383 
L 608.222857 190.633927 
L 612.252594 192.450906 
L 616.282331 192.450906 
L 620.312067 195.435501 
L 624.341804 197.631418 
L 628.37154 193.408675 
L 636.431014 195.435501 
L 640.46075 188.123862 
L 648.520224 188.123862 
L 652.54996 188.934257 
L 656.579697 188.123862 
L 664.63917 188.123862 
L 668.668907 192.450906 
L 672.698643 194.402594 
L 676.72838 192.450906 
L 680.758117 192.450906 
L 684.787853 194.402594 
L 688.81759 192.450906 
L 696.877063 190.633927 
L 700.9068 192.450906 
L 704.936536 197.631418 
L 708.966273 200.027227 
L 712.996009 207.188804 
L 717.025746 207.188804 
L 721.055483 208.888474 
L 725.085219 214.765126 
L 729.114956 205.59221 
L 733.144693 201.312153 
L 737.174429 197.631418 
L 741.204166 194.402594 
L 745.233902 193.408675 
L 749.263639 188.934257 
L 753.293376 186.574254 
L 757.323112 183.057605 
L 761.352849 177.180954 
L 765.382585 177.713007 
L 769.412322 179.37687 
L 773.442059 179.37687 
L 777.471795 182.407307 
L 781.501532 180.547541 
L 785.531269 183.057605 
L 789.561005 187.337662 
L 793.590742 187.337662 
L 797.620478 185.110781 
L 801.650215 186.574254 
L 805.679952 185.110781 
L 809.709688 186.574254 
L 813.739425 185.110781 
L 817.769162 184.408452 
L 821.798898 185.110781 
L 825.828635 188.123862 
L 829.858371 187.337662 
L 833.888108 188.934257 
L 837.917845 193.408675 
L 841.947581 200.027227 
L 845.977318 212.657141 
L 850.007054 217.056635 
L 854.036791 217.056635 
L 858.066528 222.341447 
L 866.126001 222.341447 
L 870.155738 225.443351 
L 870.155738 225.443351 
" style="fill:none;stroke:#d3d3d3;stroke-linecap:square;stroke-width:2;"/>
   </g>
   <g id="patch_3">
    <path d="M 53.328125 228.96 
L 53.328125 7.2 
" style="fill:none;stroke:#000000;stroke-linecap:square;stroke-linejoin:miter;stroke-width:0.8;"/>
   </g>
   <g id="patch_4">
    <path d="M 53.328125 228.96 
L 1001.928125 228.96 
" style="fill:none;stroke:#000000;stroke-linecap:square;stroke-linejoin:miter;stroke-width:0.8;"/>
   </g>
   <g id="legend_1">
    <g id="line2d_24">
     <path d="M 60.528125 17.67875 
L 76.528125 17.67875 
" style="fill:none;stroke:#947383;stroke-linecap:square;stroke-width:2;"/>
    </g>
    <g id="line2d_25"/>
    <g id="text_19">
     <!-- Europe -->
     <g transform="translate(82.928125 20.47875)scale(0.08 -0.08)">
      <defs>
       <path d="M 9.8125 72.90625 
L 55.90625 72.90625 
L 55.90625 64.59375 
L 19.671875 64.59375 
L 19.671875 43.015625 
L 54.390625 43.015625 
L 54.390625 34.71875 
L 19.671875 34.71875 
L 19.671875 8.296875 
L 56.78125 8.296875 
L 56.78125 0 
L 9.8125 0 
z
" id="DejaVuSans-69"/>
       <path d="M 18.109375 8.203125 
L 18.109375 -20.796875 
L 9.078125 -20.796875 
L 9.078125 54.6875 
L 18.109375 54.6875 
L 18.109375 46.390625 
Q 20.953125 51.265625 25.265625 53.625 
Q 29.59375 56 35.59375 56 
Q 45.5625 56 51.78125 48.09375 
Q 58.015625 40.1875 58.015625 27.296875 
Q 58.015625 14.40625 51.78125 6.484375 
Q 45.5625 -1.421875 35.59375 -1.421875 
Q 29.59375 -1.421875 25.265625 0.953125 
Q 20.953125 3.328125 18.109375 8.203125 
z
M 48.6875 27.296875 
Q 48.6875 37.203125 44.609375 42.84375 
Q 40.53125 48.484375 33.40625 48.484375 
Q 26.265625 48.484375 22.1875 42.84375 
Q 18.109375 37.203125 18.109375 27.296875 
Q 18.109375 17.390625 22.1875 11.75 
Q 26.265625 6.109375 33.40625 6.109375 
Q 40.53125 6.109375 44.609375 11.75 
Q 48.6875 17.390625 48.6875 27.296875 
z
" id="DejaVuSans-112"/>
      </defs>
      <use xlink:href="#DejaVuSans-69"/>
      <use x="63.183594" xlink:href="#DejaVuSans-117"/>
      <use x="126.5625" xlink:href="#DejaVuSans-114"/>
      <use x="165.425781" xlink:href="#DejaVuSans-111"/>
      <use x="226.607422" xlink:href="#DejaVuSans-112"/>
      <use x="290.083984" xlink:href="#DejaVuSans-101"/>
     </g>
    </g>
    <g id="line2d_26">
     <path d="M 60.528125 29.42125 
L 76.528125 29.42125 
" style="fill:none;stroke:#96c6ad;stroke-linecap:square;stroke-width:2;"/>
    </g>
    <g id="line2d_27"/>
    <g id="text_20">
     <!-- Asia -->
     <g transform="translate(82.928125 32.22125)scale(0.08 -0.08)">
      <defs>
       <path d="M 34.1875 63.1875 
L 20.796875 26.90625 
L 47.609375 26.90625 
z
M 28.609375 72.90625 
L 39.796875 72.90625 
L 67.578125 0 
L 57.328125 0 
L 50.6875 18.703125 
L 17.828125 18.703125 
L 11.1875 0 
L 0.78125 0 
z
" id="DejaVuSans-65"/>
       <path d="M 44.28125 53.078125 
L 44.28125 44.578125 
Q 40.484375 46.53125 36.375 47.5 
Q 32.28125 48.484375 27.875 48.484375 
Q 21.1875 48.484375 17.84375 46.4375 
Q 14.5 44.390625 14.5 40.28125 
Q 14.5 37.15625 16.890625 35.375 
Q 19.28125 33.59375 26.515625 31.984375 
L 29.59375 31.296875 
Q 39.15625 29.25 43.1875 25.515625 
Q 47.21875 21.78125 47.21875 15.09375 
Q 47.21875 7.46875 41.1875 3.015625 
Q 35.15625 -1.421875 24.609375 -1.421875 
Q 20.21875 -1.421875 15.453125 -0.5625 
Q 10.6875 0.296875 5.421875 2 
L 5.421875 11.28125 
Q 10.40625 8.6875 15.234375 7.390625 
Q 20.0625 6.109375 24.8125 6.109375 
Q 31.15625 6.109375 34.5625 8.28125 
Q 37.984375 10.453125 37.984375 14.40625 
Q 37.984375 18.0625 35.515625 20.015625 
Q 33.0625 21.96875 24.703125 23.78125 
L 21.578125 24.515625 
Q 13.234375 26.265625 9.515625 29.90625 
Q 5.8125 33.546875 5.8125 39.890625 
Q 5.8125 47.609375 11.28125 51.796875 
Q 16.75 56 26.8125 56 
Q 31.78125 56 36.171875 55.265625 
Q 40.578125 54.546875 44.28125 53.078125 
z
" id="DejaVuSans-115"/>
      </defs>
      <use xlink:href="#DejaVuSans-65"/>
      <use x="68.408203" xlink:href="#DejaVuSans-115"/>
      <use x="120.507812" xlink:href="#DejaVuSans-105"/>
      <use x="148.291016" xlink:href="#DejaVuSans-97"/>
     </g>
    </g>
    <g id="line2d_28">
     <path d="M 60.528125 41.16375 
L 76.528125 41.16375 
" style="fill:none;stroke:#525886;stroke-linecap:square;stroke-width:2;"/>
    </g>
    <g id="line2d_29"/>
    <g id="text_21">
     <!-- South America -->
     <g transform="translate(82.928125 43.96375)scale(0.08 -0.08)">
      <defs>
       <path d="M 53.515625 70.515625 
L 53.515625 60.890625 
Q 47.90625 63.578125 42.921875 64.890625 
Q 37.9375 66.21875 33.296875 66.21875 
Q 25.25 66.21875 20.875 63.09375 
Q 16.5 59.96875 16.5 54.203125 
Q 16.5 49.359375 19.40625 46.890625 
Q 22.3125 44.4375 30.421875 42.921875 
L 36.375 41.703125 
Q 47.40625 39.59375 52.65625 34.296875 
Q 57.90625 29 57.90625 20.125 
Q 57.90625 9.515625 50.796875 4.046875 
Q 43.703125 -1.421875 29.984375 -1.421875 
Q 24.8125 -1.421875 18.96875 -0.25 
Q 13.140625 0.921875 6.890625 3.21875 
L 6.890625 13.375 
Q 12.890625 10.015625 18.65625 8.296875 
Q 24.421875 6.59375 29.984375 6.59375 
Q 38.421875 6.59375 43.015625 9.90625 
Q 47.609375 13.234375 47.609375 19.390625 
Q 47.609375 24.75 44.3125 27.78125 
Q 41.015625 30.8125 33.5 32.328125 
L 27.484375 33.5 
Q 16.453125 35.6875 11.515625 40.375 
Q 6.59375 45.0625 6.59375 53.421875 
Q 6.59375 63.09375 13.40625 68.65625 
Q 20.21875 74.21875 32.171875 74.21875 
Q 37.3125 74.21875 42.625 73.28125 
Q 47.953125 72.359375 53.515625 70.515625 
z
" id="DejaVuSans-83"/>
       <path d="M 54.890625 33.015625 
L 54.890625 0 
L 45.90625 0 
L 45.90625 32.71875 
Q 45.90625 40.484375 42.875 44.328125 
Q 39.84375 48.1875 33.796875 48.1875 
Q 26.515625 48.1875 22.3125 43.546875 
Q 18.109375 38.921875 18.109375 30.90625 
L 18.109375 0 
L 9.078125 0 
L 9.078125 75.984375 
L 18.109375 75.984375 
L 18.109375 46.1875 
Q 21.34375 51.125 25.703125 53.5625 
Q 30.078125 56 35.796875 56 
Q 45.21875 56 50.046875 50.171875 
Q 54.890625 44.34375 54.890625 33.015625 
z
" id="DejaVuSans-104"/>
       <path d="M 52 44.1875 
Q 55.375 50.25 60.0625 53.125 
Q 64.75 56 71.09375 56 
Q 79.640625 56 84.28125 50.015625 
Q 88.921875 44.046875 88.921875 33.015625 
L 88.921875 0 
L 79.890625 0 
L 79.890625 32.71875 
Q 79.890625 40.578125 77.09375 44.375 
Q 74.3125 48.1875 68.609375 48.1875 
Q 61.625 48.1875 57.5625 43.546875 
Q 53.515625 38.921875 53.515625 30.90625 
L 53.515625 0 
L 44.484375 0 
L 44.484375 32.71875 
Q 44.484375 40.625 41.703125 44.40625 
Q 38.921875 48.1875 33.109375 48.1875 
Q 26.21875 48.1875 22.15625 43.53125 
Q 18.109375 38.875 18.109375 30.90625 
L 18.109375 0 
L 9.078125 0 
L 9.078125 54.6875 
L 18.109375 54.6875 
L 18.109375 46.1875 
Q 21.1875 51.21875 25.484375 53.609375 
Q 29.78125 56 35.6875 56 
Q 41.65625 56 45.828125 52.96875 
Q 50 49.953125 52 44.1875 
z
" id="DejaVuSans-109"/>
       <path d="M 48.78125 52.59375 
L 48.78125 44.1875 
Q 44.96875 46.296875 41.140625 47.34375 
Q 37.3125 48.390625 33.40625 48.390625 
Q 24.65625 48.390625 19.8125 42.84375 
Q 14.984375 37.3125 14.984375 27.296875 
Q 14.984375 17.28125 19.8125 11.734375 
Q 24.65625 6.203125 33.40625 6.203125 
Q 37.3125 6.203125 41.140625 7.25 
Q 44.96875 8.296875 48.78125 10.40625 
L 48.78125 2.09375 
Q 45.015625 0.34375 40.984375 -0.53125 
Q 36.96875 -1.421875 32.421875 -1.421875 
Q 20.0625 -1.421875 12.78125 6.34375 
Q 5.515625 14.109375 5.515625 27.296875 
Q 5.515625 40.671875 12.859375 48.328125 
Q 20.21875 56 33.015625 56 
Q 37.15625 56 41.109375 55.140625 
Q 45.0625 54.296875 48.78125 52.59375 
z
" id="DejaVuSans-99"/>
      </defs>
      <use xlink:href="#DejaVuSans-83"/>
      <use x="63.476562" xlink:href="#DejaVuSans-111"/>
      <use x="124.658203" xlink:href="#DejaVuSans-117"/>
      <use x="188.037109" xlink:href="#DejaVuSans-116"/>
      <use x="227.246094" xlink:href="#DejaVuSans-104"/>
      <use x="290.625" xlink:href="#DejaVuSans-32"/>
      <use x="322.412109" xlink:href="#DejaVuSans-65"/>
      <use x="390.820312" xlink:href="#DejaVuSans-109"/>
      <use x="488.232422" xlink:href="#DejaVuSans-101"/>
      <use x="549.755859" xlink:href="#DejaVuSans-114"/>
      <use x="590.869141" xlink:href="#DejaVuSans-105"/>
      <use x="618.652344" xlink:href="#DejaVuSans-99"/>
      <use x="673.632812" xlink:href="#DejaVuSans-97"/>
     </g>
    </g>
    <g id="line2d_30">
     <path d="M 60.528125 52.90625 
L 76.528125 52.90625 
" style="fill:none;stroke:#937252;stroke-linecap:square;stroke-width:2;"/>
    </g>
    <g id="line2d_31"/>
    <g id="text_22">
     <!-- North America -->
     <g transform="translate(82.928125 55.70625)scale(0.08 -0.08)">
      <defs>
       <path d="M 9.8125 72.90625 
L 23.09375 72.90625 
L 55.421875 11.921875 
L 55.421875 72.90625 
L 64.984375 72.90625 
L 64.984375 0 
L 51.703125 0 
L 19.390625 60.984375 
L 19.390625 0 
L 9.8125 0 
z
" id="DejaVuSans-78"/>
      </defs>
      <use xlink:href="#DejaVuSans-78"/>
      <use x="74.804688" xlink:href="#DejaVuSans-111"/>
      <use x="135.986328" xlink:href="#DejaVuSans-114"/>
      <use x="177.099609" xlink:href="#DejaVuSans-116"/>
      <use x="216.308594" xlink:href="#DejaVuSans-104"/>
      <use x="279.6875" xlink:href="#DejaVuSans-32"/>
      <use x="311.474609" xlink:href="#DejaVuSans-65"/>
      <use x="379.882812" xlink:href="#DejaVuSans-109"/>
      <use x="477.294922" xlink:href="#DejaVuSans-101"/>
      <use x="538.818359" xlink:href="#DejaVuSans-114"/>
      <use x="579.931641" xlink:href="#DejaVuSans-105"/>
      <use x="607.714844" xlink:href="#DejaVuSans-99"/>
      <use x="662.695312" xlink:href="#DejaVuSans-97"/>
     </g>
    </g>
    <g id="line2d_32">
     <path d="M 60.528125 64.64875 
L 76.528125 64.64875 
" style="fill:none;stroke:#d18cad;stroke-linecap:square;stroke-width:2;"/>
    </g>
    <g id="line2d_33"/>
    <g id="text_23">
     <!-- United Kingdom -->
     <g transform="translate(82.928125 67.44875)scale(0.08 -0.08)">
      <defs>
       <path d="M 8.6875 72.90625 
L 18.609375 72.90625 
L 18.609375 28.609375 
Q 18.609375 16.890625 22.84375 11.734375 
Q 27.09375 6.59375 36.625 6.59375 
Q 46.09375 6.59375 50.34375 11.734375 
Q 54.59375 16.890625 54.59375 28.609375 
L 54.59375 72.90625 
L 64.5 72.90625 
L 64.5 27.390625 
Q 64.5 13.140625 57.4375 5.859375 
Q 50.390625 -1.421875 36.625 -1.421875 
Q 22.796875 -1.421875 15.734375 5.859375 
Q 8.6875 13.140625 8.6875 27.390625 
z
" id="DejaVuSans-85"/>
       <path d="M 9.8125 72.90625 
L 19.671875 72.90625 
L 19.671875 42.09375 
L 52.390625 72.90625 
L 65.09375 72.90625 
L 28.90625 38.921875 
L 67.671875 0 
L 54.6875 0 
L 19.671875 35.109375 
L 19.671875 0 
L 9.8125 0 
z
" id="DejaVuSans-75"/>
      </defs>
      <use xlink:href="#DejaVuSans-85"/>
      <use x="73.193359" xlink:href="#DejaVuSans-110"/>
      <use x="136.572266" xlink:href="#DejaVuSans-105"/>
      <use x="164.355469" xlink:href="#DejaVuSans-116"/>
      <use x="203.564453" xlink:href="#DejaVuSans-101"/>
      <use x="265.087891" xlink:href="#DejaVuSans-100"/>
      <use x="328.564453" xlink:href="#DejaVuSans-32"/>
      <use x="360.351562" xlink:href="#DejaVuSans-75"/>
      <use x="425.927734" xlink:href="#DejaVuSans-105"/>
      <use x="453.710938" xlink:href="#DejaVuSans-110"/>
      <use x="517.089844" xlink:href="#DejaVuSans-103"/>
      <use x="580.566406" xlink:href="#DejaVuSans-100"/>
      <use x="644.042969" xlink:href="#DejaVuSans-111"/>
      <use x="705.224609" xlink:href="#DejaVuSans-109"/>
     </g>
    </g>
    <g id="line2d_34">
     <path d="M 60.528125 76.39125 
L 76.528125 76.39125 
" style="fill:none;stroke:#a4a86f;stroke-linecap:square;stroke-width:2;"/>
    </g>
    <g id="line2d_35"/>
    <g id="text_24">
     <!-- Oceania -->
     <g transform="translate(82.928125 79.19125)scale(0.08 -0.08)">
      <defs>
       <path d="M 39.40625 66.21875 
Q 28.65625 66.21875 22.328125 58.203125 
Q 16.015625 50.203125 16.015625 36.375 
Q 16.015625 22.609375 22.328125 14.59375 
Q 28.65625 6.59375 39.40625 6.59375 
Q 50.140625 6.59375 56.421875 14.59375 
Q 62.703125 22.609375 62.703125 36.375 
Q 62.703125 50.203125 56.421875 58.203125 
Q 50.140625 66.21875 39.40625 66.21875 
z
M 39.40625 74.21875 
Q 54.734375 74.21875 63.90625 63.9375 
Q 73.09375 53.65625 73.09375 36.375 
Q 73.09375 19.140625 63.90625 8.859375 
Q 54.734375 -1.421875 39.40625 -1.421875 
Q 24.03125 -1.421875 14.8125 8.828125 
Q 5.609375 19.09375 5.609375 36.375 
Q 5.609375 53.65625 14.8125 63.9375 
Q 24.03125 74.21875 39.40625 74.21875 
z
" id="DejaVuSans-79"/>
      </defs>
      <use xlink:href="#DejaVuSans-79"/>
      <use x="78.710938" xlink:href="#DejaVuSans-99"/>
      <use x="133.691406" xlink:href="#DejaVuSans-101"/>
      <use x="195.214844" xlink:href="#DejaVuSans-97"/>
      <use x="256.494141" xlink:href="#DejaVuSans-110"/>
      <use x="319.873047" xlink:href="#DejaVuSans-105"/>
      <use x="347.65625" xlink:href="#DejaVuSans-97"/>
     </g>
    </g>
    <g id="line2d_36">
     <path d="M 60.528125 88.13375 
L 76.528125 88.13375 
" style="fill:none;stroke:#d3d3d3;stroke-linecap:square;stroke-width:2;"/>
    </g>
    <g id="line2d_37"/>
    <g id="text_25">
     <!-- Africa -->
     <g transform="translate(82.928125 90.93375)scale(0.08 -0.08)">
      <defs>
       <path d="M 37.109375 75.984375 
L 37.109375 68.5 
L 28.515625 68.5 
Q 23.6875 68.5 21.796875 66.546875 
Q 19.921875 64.59375 19.921875 59.515625 
L 19.921875 54.6875 
L 34.71875 54.6875 
L 34.71875 47.703125 
L 19.921875 47.703125 
L 19.921875 0 
L 10.890625 0 
L 10.890625 47.703125 
L 2.296875 47.703125 
L 2.296875 54.6875 
L 10.890625 54.6875 
L 10.890625 58.5 
Q 10.890625 67.625 15.140625 71.796875 
Q 19.390625 75.984375 28.609375 75.984375 
z
" id="DejaVuSans-102"/>
      </defs>
      <use xlink:href="#DejaVuSans-65"/>
      <use x="64.783203" xlink:href="#DejaVuSans-102"/>
      <use x="99.988281" xlink:href="#DejaVuSans-114"/>
      <use x="141.101562" xlink:href="#DejaVuSans-105"/>
      <use x="168.884766" xlink:href="#DejaVuSans-99"/>
      <use x="223.865234" xlink:href="#DejaVuSans-97"/>
     </g>
    </g>
   </g>
  </g>
 </g>
 <defs>
  <clipPath id="pd250a362e5">
   <rect height="221.76" width="948.6" x="53.328125" y="7.2"/>
  </clipPath>
 </defs>
</svg>
