<?xml version="1.0" encoding="utf-8" standalone="no"?>
<!DOCTYPE svg PUBLIC "-//W3C//DTD SVG 1.1//EN"
  "http://www.w3.org/Graphics/SVG/1.1/DTD/svg11.dtd">
<svg height="298.620937pt" version="1.1" viewBox="0 0 1176.528125 298.620937" width="1176.528125pt" xmlns="http://www.w3.org/2000/svg" xmlns:xlink="http://www.w3.org/1999/xlink">
 <metadata>
  <rdf:RDF xmlns:cc="http://creativecommons.org/ns#" xmlns:dc="http://purl.org/dc/elements/1.1/" xmlns:rdf="http://www.w3.org/1999/02/22-rdf-syntax-ns#">
   <cc:Work>
    <dc:type rdf:resource="http://purl.org/dc/dcmitype/StillImage"/>
    <dc:date>2021-06-21T15:46:56.832408</dc:date>
    <dc:format>image/svg+xml</dc:format>
    <dc:creator>
     <cc:Agent>
      <dc:title>Matplotlib v3.4.2, https://matplotlib.org/</dc:title>
     </cc:Agent>
    </dc:creator>
   </cc:Work>
  </rdf:RDF>
 </metadata>
 <defs>
  <style type="text/css">*{stroke-linecap:butt;stroke-linejoin:round;}</style>
 </defs>
 <g id="figure_1">
  <g id="patch_1">
   <path d="M 0 298.620937 
L 1176.528125 298.620937 
L 1176.528125 0 
L 0 0 
z
" style="fill:#ffffff;"/>
  </g>
  <g id="axes_1">
   <g id="patch_2">
    <path d="M 53.328125 228.96 
L 1169.328125 228.96 
L 1169.328125 7.2 
L 53.328125 7.2 
z
" style="fill:#ffffff;"/>
   </g>
   <g id="matplotlib.axis_1">
    <g id="xtick_1">
     <g id="line2d_1">
      <defs>
       <path d="M 0 0 
L 0 3.5 
" id="ma832393e1d" style="stroke:#000000;stroke-width:0.8;"/>
      </defs>
      <g>
       <use style="stroke:#000000;stroke-width:0.8;" x="123.343334" xlink:href="#ma832393e1d" y="228.96"/>
      </g>
     </g>
     <g id="text_1">
      <!-- 2020-10 -->
      <g transform="translate(126.102709 277.742812)rotate(-90)scale(0.1 -0.1)">
       <defs>
        <path d="M 1228 531 
L 3431 531 
L 3431 0 
L 469 0 
L 469 531 
Q 828 903 1448 1529 
Q 2069 2156 2228 2338 
Q 2531 2678 2651 2914 
Q 2772 3150 2772 3378 
Q 2772 3750 2511 3984 
Q 2250 4219 1831 4219 
Q 1534 4219 1204 4116 
Q 875 4013 500 3803 
L 500 4441 
Q 881 4594 1212 4672 
Q 1544 4750 1819 4750 
Q 2544 4750 2975 4387 
Q 3406 4025 3406 3419 
Q 3406 3131 3298 2873 
Q 3191 2616 2906 2266 
Q 2828 2175 2409 1742 
Q 1991 1309 1228 531 
z
" id="DejaVuSans-32" transform="scale(0.015625)"/>
        <path d="M 2034 4250 
Q 1547 4250 1301 3770 
Q 1056 3291 1056 2328 
Q 1056 1369 1301 889 
Q 1547 409 2034 409 
Q 2525 409 2770 889 
Q 3016 1369 3016 2328 
Q 3016 3291 2770 3770 
Q 2525 4250 2034 4250 
z
M 2034 4750 
Q 2819 4750 3233 4129 
Q 3647 3509 3647 2328 
Q 3647 1150 3233 529 
Q 2819 -91 2034 -91 
Q 1250 -91 836 529 
Q 422 1150 422 2328 
Q 422 3509 836 4129 
Q 1250 4750 2034 4750 
z
" id="DejaVuSans-30" transform="scale(0.015625)"/>
        <path d="M 313 2009 
L 1997 2009 
L 1997 1497 
L 313 1497 
L 313 2009 
z
" id="DejaVuSans-2d" transform="scale(0.015625)"/>
        <path d="M 794 531 
L 1825 531 
L 1825 4091 
L 703 3866 
L 703 4441 
L 1819 4666 
L 2450 4666 
L 2450 531 
L 3481 531 
L 3481 0 
L 794 0 
L 794 531 
z
" id="DejaVuSans-31" transform="scale(0.015625)"/>
       </defs>
       <use xlink:href="#DejaVuSans-32"/>
       <use x="63.623047" xlink:href="#DejaVuSans-30"/>
       <use x="127.246094" xlink:href="#DejaVuSans-32"/>
       <use x="190.869141" xlink:href="#DejaVuSans-30"/>
       <use x="254.492188" xlink:href="#DejaVuSans-2d"/>
       <use x="290.576172" xlink:href="#DejaVuSans-31"/>
       <use x="354.199219" xlink:href="#DejaVuSans-30"/>
      </g>
     </g>
    </g>
    <g id="xtick_2">
     <g id="line2d_2">
      <g>
       <use style="stroke:#000000;stroke-width:0.8;" x="242.92854" xlink:href="#ma832393e1d" y="228.96"/>
      </g>
     </g>
     <g id="text_2">
      <!-- 2020-11 -->
      <g transform="translate(245.687915 277.742812)rotate(-90)scale(0.1 -0.1)">
       <use xlink:href="#DejaVuSans-32"/>
       <use x="63.623047" xlink:href="#DejaVuSans-30"/>
       <use x="127.246094" xlink:href="#DejaVuSans-32"/>
       <use x="190.869141" xlink:href="#DejaVuSans-30"/>
       <use x="254.492188" xlink:href="#DejaVuSans-2d"/>
       <use x="290.576172" xlink:href="#DejaVuSans-31"/>
       <use x="354.199219" xlink:href="#DejaVuSans-31"/>
      </g>
     </g>
    </g>
    <g id="xtick_3">
     <g id="line2d_3">
      <g>
       <use style="stroke:#000000;stroke-width:0.8;" x="358.656158" xlink:href="#ma832393e1d" y="228.96"/>
      </g>
     </g>
     <g id="text_3">
      <!-- 2020-12 -->
      <g transform="translate(361.415533 277.742812)rotate(-90)scale(0.1 -0.1)">
       <use xlink:href="#DejaVuSans-32"/>
       <use x="63.623047" xlink:href="#DejaVuSans-30"/>
       <use x="127.246094" xlink:href="#DejaVuSans-32"/>
       <use x="190.869141" xlink:href="#DejaVuSans-30"/>
       <use x="254.492188" xlink:href="#DejaVuSans-2d"/>
       <use x="290.576172" xlink:href="#DejaVuSans-31"/>
       <use x="354.199219" xlink:href="#DejaVuSans-32"/>
      </g>
     </g>
    </g>
    <g id="xtick_4">
     <g id="line2d_4">
      <g>
       <use style="stroke:#000000;stroke-width:0.8;" x="478.241364" xlink:href="#ma832393e1d" y="228.96"/>
      </g>
     </g>
     <g id="text_4">
      <!-- 2021-01 -->
      <g transform="translate(481.000739 277.742812)rotate(-90)scale(0.1 -0.1)">
       <use xlink:href="#DejaVuSans-32"/>
       <use x="63.623047" xlink:href="#DejaVuSans-30"/>
       <use x="127.246094" xlink:href="#DejaVuSans-32"/>
       <use x="190.869141" xlink:href="#DejaVuSans-31"/>
       <use x="254.492188" xlink:href="#DejaVuSans-2d"/>
       <use x="290.576172" xlink:href="#DejaVuSans-30"/>
       <use x="354.199219" xlink:href="#DejaVuSans-31"/>
      </g>
     </g>
    </g>
    <g id="xtick_5">
     <g id="line2d_5">
      <g>
       <use style="stroke:#000000;stroke-width:0.8;" x="597.82657" xlink:href="#ma832393e1d" y="228.96"/>
      </g>
     </g>
     <g id="text_5">
      <!-- 2021-02 -->
      <g transform="translate(600.585945 277.742812)rotate(-90)scale(0.1 -0.1)">
       <use xlink:href="#DejaVuSans-32"/>
       <use x="63.623047" xlink:href="#DejaVuSans-30"/>
       <use x="127.246094" xlink:href="#DejaVuSans-32"/>
       <use x="190.869141" xlink:href="#DejaVuSans-31"/>
       <use x="254.492188" xlink:href="#DejaVuSans-2d"/>
       <use x="290.576172" xlink:href="#DejaVuSans-30"/>
       <use x="354.199219" xlink:href="#DejaVuSans-32"/>
      </g>
     </g>
    </g>
    <g id="xtick_6">
     <g id="line2d_6">
      <g>
       <use style="stroke:#000000;stroke-width:0.8;" x="705.839013" xlink:href="#ma832393e1d" y="228.96"/>
      </g>
     </g>
     <g id="text_6">
      <!-- 2021-03 -->
      <g transform="translate(708.598388 277.742812)rotate(-90)scale(0.1 -0.1)">
       <defs>
        <path d="M 2597 2516 
Q 3050 2419 3304 2112 
Q 3559 1806 3559 1356 
Q 3559 666 3084 287 
Q 2609 -91 1734 -91 
Q 1441 -91 1130 -33 
Q 819 25 488 141 
L 488 750 
Q 750 597 1062 519 
Q 1375 441 1716 441 
Q 2309 441 2620 675 
Q 2931 909 2931 1356 
Q 2931 1769 2642 2001 
Q 2353 2234 1838 2234 
L 1294 2234 
L 1294 2753 
L 1863 2753 
Q 2328 2753 2575 2939 
Q 2822 3125 2822 3475 
Q 2822 3834 2567 4026 
Q 2313 4219 1838 4219 
Q 1578 4219 1281 4162 
Q 984 4106 628 3988 
L 628 4550 
Q 988 4650 1302 4700 
Q 1616 4750 1894 4750 
Q 2613 4750 3031 4423 
Q 3450 4097 3450 3541 
Q 3450 3153 3228 2886 
Q 3006 2619 2597 2516 
z
" id="DejaVuSans-33" transform="scale(0.015625)"/>
       </defs>
       <use xlink:href="#DejaVuSans-32"/>
       <use x="63.623047" xlink:href="#DejaVuSans-30"/>
       <use x="127.246094" xlink:href="#DejaVuSans-32"/>
       <use x="190.869141" xlink:href="#DejaVuSans-31"/>
       <use x="254.492188" xlink:href="#DejaVuSans-2d"/>
       <use x="290.576172" xlink:href="#DejaVuSans-30"/>
       <use x="354.199219" xlink:href="#DejaVuSans-33"/>
      </g>
     </g>
    </g>
    <g id="xtick_7">
     <g id="line2d_7">
      <g>
       <use style="stroke:#000000;stroke-width:0.8;" x="825.424219" xlink:href="#ma832393e1d" y="228.96"/>
      </g>
     </g>
     <g id="text_7">
      <!-- 2021-04 -->
      <g transform="translate(828.183594 277.742812)rotate(-90)scale(0.1 -0.1)">
       <defs>
        <path d="M 2419 4116 
L 825 1625 
L 2419 1625 
L 2419 4116 
z
M 2253 4666 
L 3047 4666 
L 3047 1625 
L 3713 1625 
L 3713 1100 
L 3047 1100 
L 3047 0 
L 2419 0 
L 2419 1100 
L 313 1100 
L 313 1709 
L 2253 4666 
z
" id="DejaVuSans-34" transform="scale(0.015625)"/>
       </defs>
       <use xlink:href="#DejaVuSans-32"/>
       <use x="63.623047" xlink:href="#DejaVuSans-30"/>
       <use x="127.246094" xlink:href="#DejaVuSans-32"/>
       <use x="190.869141" xlink:href="#DejaVuSans-31"/>
       <use x="254.492188" xlink:href="#DejaVuSans-2d"/>
       <use x="290.576172" xlink:href="#DejaVuSans-30"/>
       <use x="354.199219" xlink:href="#DejaVuSans-34"/>
      </g>
     </g>
    </g>
    <g id="xtick_8">
     <g id="line2d_8">
      <g>
       <use style="stroke:#000000;stroke-width:0.8;" x="941.151837" xlink:href="#ma832393e1d" y="228.96"/>
      </g>
     </g>
     <g id="text_8">
      <!-- 2021-05 -->
      <g transform="translate(943.911212 277.742812)rotate(-90)scale(0.1 -0.1)">
       <defs>
        <path d="M 691 4666 
L 3169 4666 
L 3169 4134 
L 1269 4134 
L 1269 2991 
Q 1406 3038 1543 3061 
Q 1681 3084 1819 3084 
Q 2600 3084 3056 2656 
Q 3513 2228 3513 1497 
Q 3513 744 3044 326 
Q 2575 -91 1722 -91 
Q 1428 -91 1123 -41 
Q 819 9 494 109 
L 494 744 
Q 775 591 1075 516 
Q 1375 441 1709 441 
Q 2250 441 2565 725 
Q 2881 1009 2881 1497 
Q 2881 1984 2565 2268 
Q 2250 2553 1709 2553 
Q 1456 2553 1204 2497 
Q 953 2441 691 2322 
L 691 4666 
z
" id="DejaVuSans-35" transform="scale(0.015625)"/>
       </defs>
       <use xlink:href="#DejaVuSans-32"/>
       <use x="63.623047" xlink:href="#DejaVuSans-30"/>
       <use x="127.246094" xlink:href="#DejaVuSans-32"/>
       <use x="190.869141" xlink:href="#DejaVuSans-31"/>
       <use x="254.492188" xlink:href="#DejaVuSans-2d"/>
       <use x="290.576172" xlink:href="#DejaVuSans-30"/>
       <use x="354.199219" xlink:href="#DejaVuSans-35"/>
      </g>
     </g>
    </g>
    <g id="xtick_9">
     <g id="line2d_9">
      <g>
       <use style="stroke:#000000;stroke-width:0.8;" x="1060.737043" xlink:href="#ma832393e1d" y="228.96"/>
      </g>
     </g>
     <g id="text_9">
      <!-- 2021-06 -->
      <g transform="translate(1063.496418 277.742812)rotate(-90)scale(0.1 -0.1)">
       <defs>
        <path d="M 2113 2584 
Q 1688 2584 1439 2293 
Q 1191 2003 1191 1497 
Q 1191 994 1439 701 
Q 1688 409 2113 409 
Q 2538 409 2786 701 
Q 3034 994 3034 1497 
Q 3034 2003 2786 2293 
Q 2538 2584 2113 2584 
z
M 3366 4563 
L 3366 3988 
Q 3128 4100 2886 4159 
Q 2644 4219 2406 4219 
Q 1781 4219 1451 3797 
Q 1122 3375 1075 2522 
Q 1259 2794 1537 2939 
Q 1816 3084 2150 3084 
Q 2853 3084 3261 2657 
Q 3669 2231 3669 1497 
Q 3669 778 3244 343 
Q 2819 -91 2113 -91 
Q 1303 -91 875 529 
Q 447 1150 447 2328 
Q 447 3434 972 4092 
Q 1497 4750 2381 4750 
Q 2619 4750 2861 4703 
Q 3103 4656 3366 4563 
z
" id="DejaVuSans-36" transform="scale(0.015625)"/>
       </defs>
       <use xlink:href="#DejaVuSans-32"/>
       <use x="63.623047" xlink:href="#DejaVuSans-30"/>
       <use x="127.246094" xlink:href="#DejaVuSans-32"/>
       <use x="190.869141" xlink:href="#DejaVuSans-31"/>
       <use x="254.492188" xlink:href="#DejaVuSans-2d"/>
       <use x="290.576172" xlink:href="#DejaVuSans-30"/>
       <use x="354.199219" xlink:href="#DejaVuSans-36"/>
      </g>
     </g>
    </g>
    <g id="text_10">
     <!-- Date -->
     <g transform="translate(599.377344 289.34125)scale(0.1 -0.1)">
      <defs>
       <path d="M 1259 4147 
L 1259 519 
L 2022 519 
Q 2988 519 3436 956 
Q 3884 1394 3884 2338 
Q 3884 3275 3436 3711 
Q 2988 4147 2022 4147 
L 1259 4147 
z
M 628 4666 
L 1925 4666 
Q 3281 4666 3915 4102 
Q 4550 3538 4550 2338 
Q 4550 1131 3912 565 
Q 3275 0 1925 0 
L 628 0 
L 628 4666 
z
" id="DejaVuSans-44" transform="scale(0.015625)"/>
       <path d="M 2194 1759 
Q 1497 1759 1228 1600 
Q 959 1441 959 1056 
Q 959 750 1161 570 
Q 1363 391 1709 391 
Q 2188 391 2477 730 
Q 2766 1069 2766 1631 
L 2766 1759 
L 2194 1759 
z
M 3341 1997 
L 3341 0 
L 2766 0 
L 2766 531 
Q 2569 213 2275 61 
Q 1981 -91 1556 -91 
Q 1019 -91 701 211 
Q 384 513 384 1019 
Q 384 1609 779 1909 
Q 1175 2209 1959 2209 
L 2766 2209 
L 2766 2266 
Q 2766 2663 2505 2880 
Q 2244 3097 1772 3097 
Q 1472 3097 1187 3025 
Q 903 2953 641 2809 
L 641 3341 
Q 956 3463 1253 3523 
Q 1550 3584 1831 3584 
Q 2591 3584 2966 3190 
Q 3341 2797 3341 1997 
z
" id="DejaVuSans-61" transform="scale(0.015625)"/>
       <path d="M 1172 4494 
L 1172 3500 
L 2356 3500 
L 2356 3053 
L 1172 3053 
L 1172 1153 
Q 1172 725 1289 603 
Q 1406 481 1766 481 
L 2356 481 
L 2356 0 
L 1766 0 
Q 1100 0 847 248 
Q 594 497 594 1153 
L 594 3053 
L 172 3053 
L 172 3500 
L 594 3500 
L 594 4494 
L 1172 4494 
z
" id="DejaVuSans-74" transform="scale(0.015625)"/>
       <path d="M 3597 1894 
L 3597 1613 
L 953 1613 
Q 991 1019 1311 708 
Q 1631 397 2203 397 
Q 2534 397 2845 478 
Q 3156 559 3463 722 
L 3463 178 
Q 3153 47 2828 -22 
Q 2503 -91 2169 -91 
Q 1331 -91 842 396 
Q 353 884 353 1716 
Q 353 2575 817 3079 
Q 1281 3584 2069 3584 
Q 2775 3584 3186 3129 
Q 3597 2675 3597 1894 
z
M 3022 2063 
Q 3016 2534 2758 2815 
Q 2500 3097 2075 3097 
Q 1594 3097 1305 2825 
Q 1016 2553 972 2059 
L 3022 2063 
z
" id="DejaVuSans-65" transform="scale(0.015625)"/>
      </defs>
      <use xlink:href="#DejaVuSans-44"/>
      <use x="77.001953" xlink:href="#DejaVuSans-61"/>
      <use x="138.28125" xlink:href="#DejaVuSans-74"/>
      <use x="177.490234" xlink:href="#DejaVuSans-65"/>
     </g>
    </g>
   </g>
   <g id="matplotlib.axis_2">
    <g id="ytick_1">
     <g id="line2d_10">
      <defs>
       <path d="M 0 0 
L -3.5 0 
" id="m0a3dab7ab8" style="stroke:#000000;stroke-width:0.8;"/>
      </defs>
      <g>
       <use style="stroke:#000000;stroke-width:0.8;" x="53.328125" xlink:href="#m0a3dab7ab8" y="228.96"/>
      </g>
     </g>
     <g id="text_11">
      <!-- 1 -->
      <g transform="translate(39.965625 232.759219)scale(0.1 -0.1)">
       <use xlink:href="#DejaVuSans-31"/>
      </g>
     </g>
    </g>
    <g id="ytick_2">
     <g id="line2d_11">
      <g>
       <use style="stroke:#000000;stroke-width:0.8;" x="53.328125" xlink:href="#m0a3dab7ab8" y="200.065691"/>
      </g>
     </g>
     <g id="text_12">
      <!-- 3 -->
      <g transform="translate(39.965625 203.86491)scale(0.1 -0.1)">
       <use xlink:href="#DejaVuSans-33"/>
      </g>
     </g>
    </g>
    <g id="ytick_3">
     <g id="line2d_12">
      <g>
       <use style="stroke:#000000;stroke-width:0.8;" x="53.328125" xlink:href="#m0a3dab7ab8" y="171.171383"/>
      </g>
     </g>
     <g id="text_13">
      <!-- 10 -->
      <g transform="translate(33.603125 174.970602)scale(0.1 -0.1)">
       <use xlink:href="#DejaVuSans-31"/>
       <use x="63.623047" xlink:href="#DejaVuSans-30"/>
      </g>
     </g>
    </g>
    <g id="ytick_4">
     <g id="line2d_13">
      <g>
       <use style="stroke:#000000;stroke-width:0.8;" x="53.328125" xlink:href="#m0a3dab7ab8" y="142.277074"/>
      </g>
     </g>
     <g id="text_14">
      <!-- 31 -->
      <g transform="translate(33.603125 146.076293)scale(0.1 -0.1)">
       <use xlink:href="#DejaVuSans-33"/>
       <use x="63.623047" xlink:href="#DejaVuSans-31"/>
      </g>
     </g>
    </g>
    <g id="ytick_5">
     <g id="line2d_14">
      <g>
       <use style="stroke:#000000;stroke-width:0.8;" x="53.328125" xlink:href="#m0a3dab7ab8" y="113.382766"/>
      </g>
     </g>
     <g id="text_15">
      <!-- 100 -->
      <g transform="translate(27.240625 117.181984)scale(0.1 -0.1)">
       <use xlink:href="#DejaVuSans-31"/>
       <use x="63.623047" xlink:href="#DejaVuSans-30"/>
       <use x="127.246094" xlink:href="#DejaVuSans-30"/>
      </g>
     </g>
    </g>
    <g id="ytick_6">
     <g id="line2d_15">
      <g>
       <use style="stroke:#000000;stroke-width:0.8;" x="53.328125" xlink:href="#m0a3dab7ab8" y="84.488457"/>
      </g>
     </g>
     <g id="text_16">
      <!-- 316 -->
      <g transform="translate(27.240625 88.287676)scale(0.1 -0.1)">
       <use xlink:href="#DejaVuSans-33"/>
       <use x="63.623047" xlink:href="#DejaVuSans-31"/>
       <use x="127.246094" xlink:href="#DejaVuSans-36"/>
      </g>
     </g>
    </g>
    <g id="ytick_7">
     <g id="line2d_16">
      <g>
       <use style="stroke:#000000;stroke-width:0.8;" x="53.328125" xlink:href="#m0a3dab7ab8" y="55.594149"/>
      </g>
     </g>
     <g id="text_17">
      <!-- 1000 -->
      <g transform="translate(20.878125 59.393367)scale(0.1 -0.1)">
       <use xlink:href="#DejaVuSans-31"/>
       <use x="63.623047" xlink:href="#DejaVuSans-30"/>
       <use x="127.246094" xlink:href="#DejaVuSans-30"/>
       <use x="190.869141" xlink:href="#DejaVuSans-30"/>
      </g>
     </g>
    </g>
    <g id="ytick_8">
     <g id="line2d_17">
      <g>
       <use style="stroke:#000000;stroke-width:0.8;" x="53.328125" xlink:href="#m0a3dab7ab8" y="26.69984"/>
      </g>
     </g>
     <g id="text_18">
      <!-- 3162 -->
      <g transform="translate(20.878125 30.499059)scale(0.1 -0.1)">
       <use xlink:href="#DejaVuSans-33"/>
       <use x="63.623047" xlink:href="#DejaVuSans-31"/>
       <use x="127.246094" xlink:href="#DejaVuSans-36"/>
       <use x="190.869141" xlink:href="#DejaVuSans-32"/>
      </g>
     </g>
    </g>
    <g id="text_19">
     <!-- Count (7 day rolling average) -->
     <g transform="translate(14.798437 191.547969)rotate(-90)scale(0.1 -0.1)">
      <defs>
       <path d="M 4122 4306 
L 4122 3641 
Q 3803 3938 3442 4084 
Q 3081 4231 2675 4231 
Q 1875 4231 1450 3742 
Q 1025 3253 1025 2328 
Q 1025 1406 1450 917 
Q 1875 428 2675 428 
Q 3081 428 3442 575 
Q 3803 722 4122 1019 
L 4122 359 
Q 3791 134 3420 21 
Q 3050 -91 2638 -91 
Q 1578 -91 968 557 
Q 359 1206 359 2328 
Q 359 3453 968 4101 
Q 1578 4750 2638 4750 
Q 3056 4750 3426 4639 
Q 3797 4528 4122 4306 
z
" id="DejaVuSans-43" transform="scale(0.015625)"/>
       <path d="M 1959 3097 
Q 1497 3097 1228 2736 
Q 959 2375 959 1747 
Q 959 1119 1226 758 
Q 1494 397 1959 397 
Q 2419 397 2687 759 
Q 2956 1122 2956 1747 
Q 2956 2369 2687 2733 
Q 2419 3097 1959 3097 
z
M 1959 3584 
Q 2709 3584 3137 3096 
Q 3566 2609 3566 1747 
Q 3566 888 3137 398 
Q 2709 -91 1959 -91 
Q 1206 -91 779 398 
Q 353 888 353 1747 
Q 353 2609 779 3096 
Q 1206 3584 1959 3584 
z
" id="DejaVuSans-6f" transform="scale(0.015625)"/>
       <path d="M 544 1381 
L 544 3500 
L 1119 3500 
L 1119 1403 
Q 1119 906 1312 657 
Q 1506 409 1894 409 
Q 2359 409 2629 706 
Q 2900 1003 2900 1516 
L 2900 3500 
L 3475 3500 
L 3475 0 
L 2900 0 
L 2900 538 
Q 2691 219 2414 64 
Q 2138 -91 1772 -91 
Q 1169 -91 856 284 
Q 544 659 544 1381 
z
M 1991 3584 
L 1991 3584 
z
" id="DejaVuSans-75" transform="scale(0.015625)"/>
       <path d="M 3513 2113 
L 3513 0 
L 2938 0 
L 2938 2094 
Q 2938 2591 2744 2837 
Q 2550 3084 2163 3084 
Q 1697 3084 1428 2787 
Q 1159 2491 1159 1978 
L 1159 0 
L 581 0 
L 581 3500 
L 1159 3500 
L 1159 2956 
Q 1366 3272 1645 3428 
Q 1925 3584 2291 3584 
Q 2894 3584 3203 3211 
Q 3513 2838 3513 2113 
z
" id="DejaVuSans-6e" transform="scale(0.015625)"/>
       <path id="DejaVuSans-20" transform="scale(0.015625)"/>
       <path d="M 1984 4856 
Q 1566 4138 1362 3434 
Q 1159 2731 1159 2009 
Q 1159 1288 1364 580 
Q 1569 -128 1984 -844 
L 1484 -844 
Q 1016 -109 783 600 
Q 550 1309 550 2009 
Q 550 2706 781 3412 
Q 1013 4119 1484 4856 
L 1984 4856 
z
" id="DejaVuSans-28" transform="scale(0.015625)"/>
       <path d="M 525 4666 
L 3525 4666 
L 3525 4397 
L 1831 0 
L 1172 0 
L 2766 4134 
L 525 4134 
L 525 4666 
z
" id="DejaVuSans-37" transform="scale(0.015625)"/>
       <path d="M 2906 2969 
L 2906 4863 
L 3481 4863 
L 3481 0 
L 2906 0 
L 2906 525 
Q 2725 213 2448 61 
Q 2172 -91 1784 -91 
Q 1150 -91 751 415 
Q 353 922 353 1747 
Q 353 2572 751 3078 
Q 1150 3584 1784 3584 
Q 2172 3584 2448 3432 
Q 2725 3281 2906 2969 
z
M 947 1747 
Q 947 1113 1208 752 
Q 1469 391 1925 391 
Q 2381 391 2643 752 
Q 2906 1113 2906 1747 
Q 2906 2381 2643 2742 
Q 2381 3103 1925 3103 
Q 1469 3103 1208 2742 
Q 947 2381 947 1747 
z
" id="DejaVuSans-64" transform="scale(0.015625)"/>
       <path d="M 2059 -325 
Q 1816 -950 1584 -1140 
Q 1353 -1331 966 -1331 
L 506 -1331 
L 506 -850 
L 844 -850 
Q 1081 -850 1212 -737 
Q 1344 -625 1503 -206 
L 1606 56 
L 191 3500 
L 800 3500 
L 1894 763 
L 2988 3500 
L 3597 3500 
L 2059 -325 
z
" id="DejaVuSans-79" transform="scale(0.015625)"/>
       <path d="M 2631 2963 
Q 2534 3019 2420 3045 
Q 2306 3072 2169 3072 
Q 1681 3072 1420 2755 
Q 1159 2438 1159 1844 
L 1159 0 
L 581 0 
L 581 3500 
L 1159 3500 
L 1159 2956 
Q 1341 3275 1631 3429 
Q 1922 3584 2338 3584 
Q 2397 3584 2469 3576 
Q 2541 3569 2628 3553 
L 2631 2963 
z
" id="DejaVuSans-72" transform="scale(0.015625)"/>
       <path d="M 603 4863 
L 1178 4863 
L 1178 0 
L 603 0 
L 603 4863 
z
" id="DejaVuSans-6c" transform="scale(0.015625)"/>
       <path d="M 603 3500 
L 1178 3500 
L 1178 0 
L 603 0 
L 603 3500 
z
M 603 4863 
L 1178 4863 
L 1178 4134 
L 603 4134 
L 603 4863 
z
" id="DejaVuSans-69" transform="scale(0.015625)"/>
       <path d="M 2906 1791 
Q 2906 2416 2648 2759 
Q 2391 3103 1925 3103 
Q 1463 3103 1205 2759 
Q 947 2416 947 1791 
Q 947 1169 1205 825 
Q 1463 481 1925 481 
Q 2391 481 2648 825 
Q 2906 1169 2906 1791 
z
M 3481 434 
Q 3481 -459 3084 -895 
Q 2688 -1331 1869 -1331 
Q 1566 -1331 1297 -1286 
Q 1028 -1241 775 -1147 
L 775 -588 
Q 1028 -725 1275 -790 
Q 1522 -856 1778 -856 
Q 2344 -856 2625 -561 
Q 2906 -266 2906 331 
L 2906 616 
Q 2728 306 2450 153 
Q 2172 0 1784 0 
Q 1141 0 747 490 
Q 353 981 353 1791 
Q 353 2603 747 3093 
Q 1141 3584 1784 3584 
Q 2172 3584 2450 3431 
Q 2728 3278 2906 2969 
L 2906 3500 
L 3481 3500 
L 3481 434 
z
" id="DejaVuSans-67" transform="scale(0.015625)"/>
       <path d="M 191 3500 
L 800 3500 
L 1894 563 
L 2988 3500 
L 3597 3500 
L 2284 0 
L 1503 0 
L 191 3500 
z
" id="DejaVuSans-76" transform="scale(0.015625)"/>
       <path d="M 513 4856 
L 1013 4856 
Q 1481 4119 1714 3412 
Q 1947 2706 1947 2009 
Q 1947 1309 1714 600 
Q 1481 -109 1013 -844 
L 513 -844 
Q 928 -128 1133 580 
Q 1338 1288 1338 2009 
Q 1338 2731 1133 3434 
Q 928 4138 513 4856 
z
" id="DejaVuSans-29" transform="scale(0.015625)"/>
      </defs>
      <use xlink:href="#DejaVuSans-43"/>
      <use x="69.824219" xlink:href="#DejaVuSans-6f"/>
      <use x="131.005859" xlink:href="#DejaVuSans-75"/>
      <use x="194.384766" xlink:href="#DejaVuSans-6e"/>
      <use x="257.763672" xlink:href="#DejaVuSans-74"/>
      <use x="296.972656" xlink:href="#DejaVuSans-20"/>
      <use x="328.759766" xlink:href="#DejaVuSans-28"/>
      <use x="367.773438" xlink:href="#DejaVuSans-37"/>
      <use x="431.396484" xlink:href="#DejaVuSans-20"/>
      <use x="463.183594" xlink:href="#DejaVuSans-64"/>
      <use x="526.660156" xlink:href="#DejaVuSans-61"/>
      <use x="587.939453" xlink:href="#DejaVuSans-79"/>
      <use x="647.119141" xlink:href="#DejaVuSans-20"/>
      <use x="678.90625" xlink:href="#DejaVuSans-72"/>
      <use x="717.769531" xlink:href="#DejaVuSans-6f"/>
      <use x="778.951172" xlink:href="#DejaVuSans-6c"/>
      <use x="806.734375" xlink:href="#DejaVuSans-6c"/>
      <use x="834.517578" xlink:href="#DejaVuSans-69"/>
      <use x="862.300781" xlink:href="#DejaVuSans-6e"/>
      <use x="925.679688" xlink:href="#DejaVuSans-67"/>
      <use x="989.15625" xlink:href="#DejaVuSans-20"/>
      <use x="1020.943359" xlink:href="#DejaVuSans-61"/>
      <use x="1082.222656" xlink:href="#DejaVuSans-76"/>
      <use x="1141.402344" xlink:href="#DejaVuSans-65"/>
      <use x="1202.925781" xlink:href="#DejaVuSans-72"/>
      <use x="1244.039062" xlink:href="#DejaVuSans-61"/>
      <use x="1305.318359" xlink:href="#DejaVuSans-67"/>
      <use x="1368.794922" xlink:href="#DejaVuSans-65"/>
      <use x="1430.318359" xlink:href="#DejaVuSans-29"/>
     </g>
    </g>
   </g>
   <g id="line2d_18">
    <path clip-path="url(#pa2272c530e)" d="M 104.055398 220.00843 
L 107.912985 222.652692 
L 111.770572 225.608726 
L 115.62816 225.608726 
L 119.485747 222.652692 
L 123.343334 220.00843 
L 142.631271 220.00843 
L 146.488858 225.608726 
L 158.06162 225.608726 
L 161.919207 217.616404 
L 173.491969 217.616404 
L 177.349556 213.423801 
L 185.064731 213.423801 
L 188.922318 220.00843 
L 196.637492 220.00843 
L 200.49508 199.104679 
L 204.352667 195.080515 
L 208.210254 192.436252 
L 212.067842 188.56749 
L 215.925429 187.860478 
L 219.783016 186.503538 
L 223.640603 186.503538 
L 227.498191 197.012027 
L 231.355778 187.860478 
L 235.213365 184.596498 
L 239.070953 185.216216 
L 242.92854 168.455516 
L 246.786127 156.821103 
L 250.643714 155.442867 
L 254.501302 154.688005 
L 258.358889 144.450042 
L 262.216476 142.091756 
L 266.074063 142.546018 
L 269.931651 136.379168 
L 273.789238 136.922813 
L 277.646825 136.023173 
L 281.504413 132.716123 
L 285.362 128.517562 
L 289.219587 120.129255 
L 293.077174 114.670088 
L 296.934762 115.050357 
L 300.792349 116.146824 
L 304.649936 112.956173 
L 308.507524 111.121455 
L 312.365111 113.743884 
L 316.222698 119.48095 
L 320.080285 119.94231 
L 323.937873 112.991447 
L 327.79546 112.192435 
L 331.653047 114.707856 
L 335.510635 117.929874 
L 339.368222 116.469105 
L 343.225809 114.332703 
L 347.083396 116.066896 
L 350.940984 125.788258 
L 354.798571 125.380163 
L 358.656158 125.092677 
L 362.513745 122.283169 
L 366.371333 124.695649 
L 370.22892 120.317603 
L 374.086507 119.027918 
L 377.944095 118.84897 
L 381.801682 109.259206 
L 385.659269 103.835975 
L 389.516856 100.749566 
L 393.374444 85.738984 
L 397.232031 83.009065 
L 401.089618 80.829771 
L 404.947206 76.312864 
L 408.804793 73.23525 
L 416.519967 66.361539 
L 420.377555 66.42218 
L 424.235142 63.218989 
L 428.092729 62.04219 
L 431.950316 62.335947 
L 435.807904 62.350022 
L 439.665491 63.769088 
L 443.523078 65.59159 
L 447.380666 68.781662 
L 451.238253 73.947642 
L 455.09584 71.622751 
L 458.953427 70.461707 
L 462.811015 71.426598 
L 466.668602 65.757673 
L 474.383777 61.011366 
L 478.241364 59.740511 
L 482.098951 56.633613 
L 485.956538 54.373063 
L 489.814126 51.470589 
L 493.671713 51.727435 
L 497.5293 52.28369 
L 501.386888 52.170823 
L 505.244475 49.91367 
L 509.102062 49.791028 
L 512.959649 50.045535 
L 516.817237 49.35106 
L 520.674824 47.180362 
L 524.532411 45.660659 
L 528.389998 44.000826 
L 532.247586 42.637942 
L 536.105173 43.281581 
L 539.96276 42.386733 
L 543.820348 42.501381 
L 547.677935 43.008675 
L 551.535522 42.264173 
L 555.393109 42.58451 
L 563.108284 41.949956 
L 566.965871 42.712939 
L 570.823459 39.147979 
L 574.681046 37.69402 
L 578.538633 35.908897 
L 582.39622 34.558244 
L 586.253808 33.047771 
L 590.111395 31.675543 
L 593.968982 31.382808 
L 597.82657 34.1293 
L 605.541744 38.611956 
L 609.399331 39.951993 
L 613.256919 43.395989 
L 617.114506 46.120993 
L 620.972093 46.288704 
L 624.82968 44.748275 
L 628.687268 43.57747 
L 632.544855 42.100289 
L 636.402442 41.569812 
L 640.26003 40.177931 
L 644.117617 39.821607 
L 647.975204 38.582813 
L 651.832791 37.01284 
L 655.690379 35.859853 
L 659.547966 36.251594 
L 667.263141 36.489943 
L 674.978315 35.305828 
L 678.835902 36.271509 
L 682.69349 37.006001 
L 686.551077 36.830536 
L 690.408664 34.409822 
L 694.266252 34.463833 
L 698.123839 34.983606 
L 701.981426 36.026994 
L 705.839013 36.182018 
L 709.696601 35.897444 
L 713.554188 35.474132 
L 717.411775 38.35449 
L 721.269362 38.372535 
L 725.12695 38.624716 
L 728.984537 39.867548 
L 732.842124 40.112064 
L 736.699712 39.911654 
L 740.557299 38.38698 
L 744.414886 36.064837 
L 748.272473 35.345798 
L 752.130061 34.138447 
L 759.845235 31.253339 
L 763.702823 30.699453 
L 771.417997 33.814216 
L 775.275584 35.065752 
L 779.133172 34.955233 
L 786.848346 34.505578 
L 790.705934 34.802885 
L 794.563521 34.519508 
L 798.421108 33.752572 
L 802.278695 32.781989 
L 806.136283 33.428809 
L 809.99387 34.201048 
L 813.851457 36.053313 
L 817.709044 36.845819 
L 821.566632 37.358919 
L 825.424219 38.901571 
L 829.281806 40.566953 
L 833.139394 41.475669 
L 836.996981 42.616555 
L 840.854568 44.578956 
L 844.712155 46.057164 
L 848.569743 47.272839 
L 852.42733 48.979201 
L 856.284917 50.065662 
L 860.142505 52.083387 
L 864.000092 53.0656 
L 867.857679 53.662636 
L 871.715266 54.658126 
L 875.572854 55.114738 
L 879.430441 55.090127 
L 883.288028 55.558321 
L 887.145615 55.20989 
L 891.003203 55.850006 
L 894.86079 55.774058 
L 898.718377 56.525475 
L 902.575965 56.68224 
L 906.433552 56.22588 
L 910.291139 56.410392 
L 918.006314 57.992629 
L 921.863901 58.154892 
L 925.721488 58.103329 
L 929.579076 59.101614 
L 933.436663 59.923037 
L 941.151837 60.188574 
L 945.009425 60.565984 
L 948.867012 62.780745 
L 960.439774 63.272486 
L 964.297361 64.013601 
L 968.154948 64.245332 
L 972.012536 64.149357 
L 975.870123 63.586022 
L 983.585297 65.946518 
L 987.442885 67.655237 
L 991.300472 68.909322 
L 995.158059 69.802646 
L 999.015647 70.300143 
L 1002.873234 71.615961 
L 1006.730821 73.541229 
L 1014.445996 74.588972 
L 1018.303583 75.420315 
L 1022.16117 75.858602 
L 1026.018758 76.427726 
L 1029.876345 77.485847 
L 1033.733932 78.119936 
L 1037.591519 79.024521 
L 1041.449107 79.373482 
L 1045.306694 78.62643 
L 1053.021869 78.888098 
L 1056.879456 80.267723 
L 1060.737043 79.736745 
L 1072.309805 83.353459 
L 1076.167392 83.440301 
L 1080.024979 84.280641 
L 1083.882567 84.964532 
L 1087.740154 88.534651 
L 1091.597741 91.560719 
L 1095.455329 96.402395 
L 1099.312916 102.616144 
L 1099.312916 102.616144 
" style="fill:none;stroke:#947383;stroke-linecap:square;stroke-width:2;"/>
   </g>
   <g id="line2d_19">
    <path clip-path="url(#pa2272c530e)" d="M 134.916096 225.608726 
L 138.773683 228.96 
L 142.631271 225.608726 
L 146.488858 225.608726 
L 150.346445 222.652692 
L 154.204032 220.00843 
L 165.776794 220.00843 
L 169.634381 222.652692 
L 173.491969 220.00843 
L 177.349556 222.652692 
L 181.207143 225.608726 
L 188.922318 225.608726 
L 192.779905 222.652692 
L 196.637492 222.652692 
L 200.49508 225.608726 
L 208.210254 225.608726 
L 212.067842 220.00843 
L 215.925429 220.00843 
L 219.783016 222.652692 
L 223.640603 220.00843 
L 227.498191 217.616404 
L 235.213365 217.616404 
L 239.070953 222.652692 
L 242.92854 222.652692 
L 246.786127 220.00843 
L 250.643714 215.432655 
L 258.358889 215.432655 
L 262.216476 209.83236 
L 266.074063 209.83236 
L 269.931651 202.612323 
L 273.789238 188.56749 
L 277.646825 190.816511 
L 281.504413 191.613317 
L 285.362 189.294998 
L 289.219587 190.044226 
L 293.077174 190.044226 
L 296.934762 194.167786 
L 300.792349 211.563893 
L 304.649936 209.83236 
L 308.507524 209.83236 
L 312.365111 211.563893 
L 316.222698 213.423801 
L 323.937873 213.423801 
L 327.79546 209.83236 
L 331.653047 208.212618 
L 335.510635 203.899645 
L 339.368222 206.691105 
L 343.225809 208.212618 
L 350.940984 205.256585 
L 354.798571 191.613317 
L 358.656158 192.436252 
L 366.371333 192.436252 
L 370.22892 191.613317 
L 374.086507 191.613317 
L 377.944095 192.436252 
L 381.801682 190.044226 
L 385.659269 190.044226 
L 389.516856 190.816511 
L 393.374444 185.216216 
L 397.232031 183.991715 
L 401.089618 181.708571 
L 404.947206 178.153529 
L 408.804793 168.135802 
L 412.66238 160.521765 
L 416.519967 156.419538 
L 420.377555 155.252012 
L 424.235142 151.876982 
L 428.092729 149.804284 
L 431.950316 146.510462 
L 435.807904 135.934957 
L 439.665491 132.331777 
L 443.523078 129.588542 
L 447.380666 128.256809 
L 451.238253 128.452119 
L 455.09584 126.746743 
L 458.953427 126.443265 
L 462.811015 122.436983 
L 470.526189 116.919109 
L 474.383777 114.973841 
L 478.241364 114.073393 
L 482.098951 113.311161 
L 485.956538 111.819108 
L 489.814126 108.304141 
L 493.671713 106.60582 
L 497.5293 105.90413 
L 505.244475 97.769463 
L 509.102062 96.64046 
L 512.959649 95.210028 
L 516.817237 90.573496 
L 520.674824 89.833193 
L 524.532411 88.203809 
L 528.389998 87.554929 
L 532.247586 86.171706 
L 536.105173 85.173387 
L 539.96276 84.941433 
L 543.820348 81.384648 
L 551.535522 78.420824 
L 555.393109 77.657983 
L 559.250697 77.018473 
L 563.108284 76.859018 
L 566.965871 76.403068 
L 574.681046 72.381034 
L 578.538633 70.617794 
L 582.39622 69.074416 
L 586.253808 67.18429 
L 590.111395 66.477436 
L 593.968982 66.378063 
L 597.82657 62.809405 
L 605.541744 57.177585 
L 609.399331 55.262909 
L 613.256919 54.294639 
L 617.114506 53.70583 
L 620.972093 52.897595 
L 624.82968 49.353856 
L 628.687268 48.318601 
L 632.544855 48.051719 
L 636.402442 47.534123 
L 640.26003 46.128369 
L 644.117617 45.631714 
L 647.975204 45.660659 
L 651.832791 43.367338 
L 655.690379 42.310591 
L 659.547966 41.467499 
L 663.405553 40.127546 
L 667.263141 39.709025 
L 671.120728 39.661472 
L 674.978315 39.327353 
L 678.835902 37.315614 
L 682.69349 36.791522 
L 686.551077 35.027805 
L 690.408664 34.496295 
L 694.266252 33.674607 
L 698.123839 33.298694 
L 701.981426 32.72715 
L 705.839013 31.614792 
L 709.696601 29.706171 
L 713.554188 28.996745 
L 717.411775 28.499753 
L 725.12695 27.005482 
L 728.984537 26.757665 
L 732.842124 24.931384 
L 736.699712 24.627859 
L 740.557299 23.896384 
L 744.414886 22.952134 
L 748.272473 22.469525 
L 755.987648 21.965021 
L 759.845235 21.083159 
L 763.702823 20.026173 
L 767.56041 19.930759 
L 771.417997 19.109751 
L 775.275584 19.067891 
L 779.133172 19.186955 
L 782.990759 19.098023 
L 786.848346 18.804942 
L 790.705934 19.511789 
L 794.563521 19.815877 
L 798.421108 19.867639 
L 802.278695 19.196202 
L 806.136283 19.167632 
L 813.851457 19.502425 
L 817.709044 18.771853 
L 821.566632 19.135739 
L 825.424219 19.861594 
L 829.281806 21.291595 
L 836.996981 21.224051 
L 840.854568 24.322803 
L 844.712155 25.27502 
L 852.42733 24.005112 
L 856.284917 22.607845 
L 860.142505 21.818987 
L 864.000092 21.797528 
L 867.857679 18.962714 
L 871.715266 17.809277 
L 875.572854 17.76 
L 879.430441 18.160182 
L 883.288028 17.976106 
L 887.145615 18.198129 
L 891.003203 18.203786 
L 894.86079 19.057019 
L 898.718377 19.613313 
L 902.575965 19.649243 
L 910.291139 19.250912 
L 914.148726 19.172671 
L 918.006314 19.218072 
L 921.863901 18.880383 
L 925.721488 18.879553 
L 929.579076 19.526267 
L 933.436663 19.376777 
L 941.151837 20.525598 
L 945.009425 20.52028 
L 948.867012 19.496468 
L 952.724599 20.41591 
L 956.582187 20.269816 
L 960.439774 21.021598 
L 964.297361 21.260539 
L 968.154948 21.12489 
L 972.012536 21.32269 
L 975.870123 22.204629 
L 979.72771 22.582814 
L 983.585297 23.312105 
L 987.442885 24.850155 
L 991.300472 25.795633 
L 999.015647 26.018633 
L 1002.873234 27.733227 
L 1006.730821 28.276622 
L 1010.588408 29.012902 
L 1014.445996 28.85427 
L 1022.16117 30.561548 
L 1026.018758 31.311858 
L 1029.876345 38.259066 
L 1033.733932 39.428817 
L 1037.591519 39.069904 
L 1045.306694 41.573913 
L 1049.164281 42.079356 
L 1053.021869 42.380379 
L 1056.879456 45.389412 
L 1060.737043 49.691644 
L 1064.59463 55.554741 
L 1068.452218 59.371056 
L 1072.309805 64.129199 
L 1076.167392 68.200278 
L 1080.024979 70.248662 
L 1083.882567 77.145078 
L 1091.597741 93.545789 
L 1095.455329 101.386086 
L 1099.312916 108.04195 
L 1103.170503 115.127107 
L 1107.02809 119.664477 
L 1110.885678 129.114355 
L 1114.743265 151.876982 
L 1118.600852 158.494875 
L 1118.600852 158.494875 
" style="fill:none;stroke:#96c6ad;stroke-linecap:square;stroke-width:2;"/>
   </g>
   <g id="line2d_20">
    <path clip-path="url(#pa2272c530e)" d="M 246.786127 225.608726 
L 250.643714 228.96 
L 296.934762 228.96 
L 300.792349 225.608726 
L 312.365111 225.608726 
L 316.222698 222.652692 
L 323.937873 222.652692 
L 327.79546 225.608726 
L 331.653047 222.652692 
L 339.368222 222.652692 
L 343.225809 215.432655 
L 347.083396 211.563893 
L 350.940984 209.83236 
L 366.371333 209.83236 
L 370.22892 215.432655 
L 374.086507 220.00843 
L 377.944095 217.616404 
L 381.801682 215.432655 
L 385.659269 209.83236 
L 389.516856 209.83236 
L 393.374444 205.256585 
L 397.232031 206.691105 
L 401.089618 206.691105 
L 404.947206 205.256585 
L 408.804793 202.612323 
L 412.66238 203.899645 
L 420.377555 201.387822 
L 424.235142 199.104679 
L 428.092729 193.287089 
L 431.950316 190.044226 
L 435.807904 185.216216 
L 439.665491 178.153529 
L 443.523078 175.461958 
L 447.380666 154.502784 
L 451.238253 152.211618 
L 455.09584 149.500071 
L 458.953427 144.698532 
L 462.811015 141.645571 
L 466.668602 139.83309 
L 470.526189 139.526399 
L 474.383777 145.459114 
L 478.241364 144.823706 
L 482.098951 141.535253 
L 485.956538 135.069448 
L 489.814126 128.127441 
L 493.671713 125.264773 
L 497.5293 123.919954 
L 501.386888 120.317603 
L 505.244475 119.71057 
L 509.102062 121.677169 
L 512.959649 127.115827 
L 516.817237 129.932817 
L 520.674824 130.850682 
L 524.532411 131.285906 
L 528.389998 135.672156 
L 532.247586 135.498472 
L 536.105173 133.343587 
L 539.96276 130.922697 
L 543.820348 133.663302 
L 547.677935 131.803394 
L 551.535522 127.679834 
L 555.393109 122.283169 
L 559.250697 121.085457 
L 566.965871 122.956614 
L 570.823459 123.009174 
L 574.681046 116.713561 
L 578.538633 112.956173 
L 582.39622 110.699096 
L 586.253808 109.473062 
L 590.111395 109.381186 
L 593.968982 105.613067 
L 597.82657 103.616358 
L 601.684157 99.113575 
L 605.541744 101.676748 
L 609.399331 105.169779 
L 613.256919 107.075458 
L 617.114506 106.908698 
L 620.972093 104.281062 
L 624.82968 103.592074 
L 628.687268 114.147209 
L 632.544855 114.110274 
L 636.402442 109.937552 
L 640.26003 109.442399 
L 644.117617 109.289646 
L 647.975204 115.671032 
L 651.832791 118.938285 
L 655.690379 117.16801 
L 659.547966 117.503764 
L 663.405553 122.436983 
L 667.263141 121.727114 
L 671.120728 118.582919 
L 674.978315 116.754536 
L 678.835902 111.617792 
L 682.69349 110.031491 
L 686.551077 107.639465 
L 690.408664 106.279523 
L 698.123839 106.144809 
L 701.981426 101.676748 
L 705.839013 102.36064 
L 709.696601 101.230958 
L 713.554188 100.533767 
L 717.411775 100.171114 
L 721.269362 98.07931 
L 725.12695 97.904551 
L 728.984537 100.814669 
L 732.842124 101.609372 
L 736.699712 101.879966 
L 744.414886 103.278504 
L 748.272473 102.245356 
L 752.130061 103.135091 
L 755.987648 101.654269 
L 759.845235 101.297324 
L 763.702823 98.891206 
L 767.56041 98.452292 
L 771.417997 97.273981 
L 775.275584 97.962669 
L 779.133172 96.899387 
L 786.848346 94.355716 
L 790.705934 96.899387 
L 794.563521 95.542447 
L 798.421108 95.349458 
L 802.278695 94.43985 
L 806.136283 92.525823 
L 809.99387 95.262224 
L 813.851457 95.071369 
L 821.566632 92.682486 
L 829.281806 89.059633 
L 833.139394 89.086854 
L 836.996981 81.474981 
L 840.854568 80.306084 
L 844.712155 80.162534 
L 848.569743 80.181626 
L 852.42733 79.88731 
L 856.284917 80.741727 
L 860.142505 81.14534 
L 864.000092 88.098855 
L 871.715266 85.750904 
L 875.572854 85.79864 
L 879.430441 86.026635 
L 883.288028 85.103576 
L 887.145615 84.461197 
L 891.003203 84.001096 
L 894.86079 83.691658 
L 898.718377 83.126918 
L 902.575965 82.013635 
L 906.433552 81.656626 
L 910.291139 80.849378 
L 914.148726 80.741727 
L 918.006314 80.363735 
L 921.863901 81.464928 
L 925.721488 82.282168 
L 929.579076 82.881127 
L 933.436663 84.269399 
L 937.29425 85.431038 
L 941.151837 85.990498 
L 945.009425 86.366449 
L 948.867012 88.085766 
L 952.724599 89.679351 
L 956.582187 91.47071 
L 960.439774 89.833193 
L 964.297361 90.386363 
L 968.154948 89.693297 
L 972.012536 92.246271 
L 975.870123 95.524841 
L 979.72771 98.274925 
L 983.585297 101.609372 
L 991.300472 116.795578 
L 995.158059 128.063006 
L 999.015647 127.053935 
L 1002.873234 128.063006 
L 1006.730821 129.384221 
L 1010.588408 132.331777 
L 1014.445996 132.331777 
L 1018.303583 134.397909 
L 1022.16117 137.761019 
L 1026.018758 141.979464 
L 1029.876345 143.008654 
L 1037.591519 149.199501 
L 1041.449107 155.828986 
L 1045.306694 163.244334 
L 1053.021869 162.219813 
L 1056.879456 167.200391 
L 1060.737043 169.10743 
L 1064.59463 169.10743 
L 1068.452218 169.776731 
L 1072.309805 167.820108 
L 1076.167392 170.118196 
L 1080.024979 173.031291 
L 1083.882567 173.420404 
L 1087.740154 177.223894 
L 1091.597741 177.684407 
L 1095.455329 177.223894 
L 1099.312916 180.122953 
L 1103.170503 181.708571 
L 1107.02809 184.596498 
L 1110.885678 185.216216 
L 1110.885678 185.216216 
" style="fill:none;stroke:#525886;stroke-linecap:square;stroke-width:2;"/>
   </g>
   <g id="line2d_21">
    <path clip-path="url(#pa2272c530e)" d="M 277.646825 217.616404 
L 293.077174 217.616404 
L 296.934762 222.652692 
L 304.649936 222.652692 
L 308.507524 225.608726 
L 312.365111 222.652692 
L 316.222698 222.652692 
L 320.080285 220.00843 
L 323.937873 220.00843 
L 327.79546 215.432655 
L 331.653047 211.563893 
L 335.510635 213.423801 
L 343.225809 213.423801 
L 347.083396 215.432655 
L 350.940984 215.432655 
L 354.798571 220.00843 
L 358.656158 222.652692 
L 362.513745 220.00843 
L 366.371333 220.00843 
L 370.22892 217.616404 
L 377.944095 217.616404 
L 381.801682 213.423801 
L 385.659269 215.432655 
L 389.516856 217.616404 
L 393.374444 215.432655 
L 397.232031 217.616404 
L 401.089618 217.616404 
L 404.947206 215.432655 
L 408.804793 215.432655 
L 412.66238 208.212618 
L 416.519967 208.212618 
L 420.377555 205.256585 
L 424.235142 202.612323 
L 428.092729 201.387822 
L 431.950316 198.036548 
L 435.807904 198.036548 
L 439.665491 201.387822 
L 443.523078 197.012027 
L 447.380666 198.036548 
L 451.238253 200.220297 
L 455.09584 186.503538 
L 458.953427 184.596498 
L 462.811015 178.153529 
L 466.668602 169.43985 
L 470.526189 165.144494 
L 474.383777 159.152483 
L 478.241364 158.065851 
L 482.098951 158.712169 
L 485.956538 155.828986 
L 489.814126 153.596647 
L 493.671713 150.899043 
L 497.5293 149.500071 
L 501.386888 147.889781 
L 505.244475 145.459114 
L 509.102062 145.459114 
L 512.959649 146.37661 
L 516.817237 143.839372 
L 520.674824 143.960323 
L 524.532411 143.599205 
L 528.389998 142.204553 
L 532.247586 141.645571 
L 536.105173 137.855905 
L 539.96276 136.649519 
L 543.820348 136.289695 
L 547.677935 135.154668 
L 551.535522 130.99492 
L 555.393109 130.141672 
L 559.250697 128.781053 
L 563.108284 128.980503 
L 566.965871 128.71492 
L 570.823459 127.177872 
L 574.681046 125.035572 
L 578.538633 123.061844 
L 582.39622 120.89128 
L 586.253808 119.208151 
L 590.111395 118.759973 
L 593.968982 117.673341 
L 597.82657 114.707856 
L 601.684157 113.52659 
L 605.541744 113.311161 
L 609.399331 111.988114 
L 613.256919 110.410802 
L 617.114506 109.473062 
L 620.972093 107.955158 
L 624.82968 106.198608 
L 628.687268 102.476456 
L 632.544855 99.337933 
L 636.402442 98.21608 
L 640.26003 96.275136 
L 644.117617 94.693959 
L 647.975204 93.807392 
L 655.690379 91.756851 
L 659.547966 91.726577 
L 667.263141 90.343376 
L 671.120728 89.833193 
L 674.978315 88.45485 
L 678.835902 85.870415 
L 682.69349 83.549277 
L 686.551077 81.09577 
L 690.408664 79.115883 
L 694.266252 77.263822 
L 698.123839 75.642486 
L 701.981426 74.811583 
L 705.839013 73.526574 
L 709.696601 73.040501 
L 713.554188 71.225282 
L 717.411775 69.557547 
L 721.269362 68.111564 
L 725.12695 67.620476 
L 728.984537 66.306537 
L 732.842124 63.117174 
L 736.699712 61.347285 
L 740.557299 60.19288 
L 744.414886 58.892212 
L 748.272473 56.836223 
L 752.130061 55.195771 
L 759.845235 53.111025 
L 763.702823 50.836778 
L 767.56041 49.415444 
L 771.417997 47.526323 
L 775.275584 46.45007 
L 779.133172 45.509071 
L 782.990759 44.836867 
L 786.848346 43.546392 
L 790.705934 42.590915 
L 794.563521 40.398092 
L 798.421108 39.361129 
L 802.278695 38.827934 
L 809.99387 37.580073 
L 813.851457 36.533524 
L 821.566632 35.269112 
L 825.424219 33.784127 
L 829.281806 32.964684 
L 833.139394 32.880421 
L 836.996981 32.990892 
L 844.712155 31.081295 
L 848.569743 30.666233 
L 852.42733 30.590657 
L 856.284917 29.487302 
L 860.142505 28.57661 
L 864.000092 27.920592 
L 867.857679 27.495704 
L 875.572854 26.980246 
L 879.430441 27.090554 
L 898.718377 29.95793 
L 902.575965 30.676859 
L 914.148726 32.257308 
L 921.863901 32.166923 
L 933.436663 31.847547 
L 937.29425 31.460812 
L 941.151837 31.351402 
L 948.867012 31.743372 
L 952.724599 32.467578 
L 956.582187 33.011295 
L 960.439774 34.141498 
L 964.297361 35.52565 
L 968.154948 36.399671 
L 972.012536 36.96842 
L 975.870123 38.571893 
L 979.72771 39.4307 
L 983.585297 40.816423 
L 987.442885 41.839866 
L 991.300472 43.200491 
L 995.158059 43.834216 
L 999.015647 44.829861 
L 1002.873234 46.40528 
L 1010.588408 50.98553 
L 1014.445996 53.277201 
L 1022.16117 56.652304 
L 1026.018758 57.827489 
L 1029.876345 61.578306 
L 1033.733932 63.993551 
L 1037.591519 66.235214 
L 1041.449107 68.781662 
L 1045.306694 70.728945 
L 1049.164281 71.937069 
L 1053.021869 72.911502 
L 1056.879456 78.349701 
L 1060.737043 80.431162 
L 1064.59463 83.169912 
L 1068.452218 86.25672 
L 1072.309805 89.100475 
L 1076.167392 91.802331 
L 1080.024979 93.399827 
L 1083.882567 93.286885 
L 1087.740154 101.341666 
L 1091.597741 109.937552 
L 1095.455329 119.298755 
L 1099.312916 129.79454 
L 1103.170503 135.325981 
L 1107.02809 140.352721 
L 1110.885678 153.41928 
L 1110.885678 153.41928 
" style="fill:none;stroke:#937252;stroke-linecap:square;stroke-width:2;"/>
   </g>
   <g id="line2d_22">
    <path clip-path="url(#pa2272c530e)" d="M 377.944095 225.608726 
L 381.801682 228.96 
L 385.659269 228.96 
L 389.516856 222.652692 
L 393.374444 222.652692 
L 397.232031 215.432655 
L 412.66238 215.432655 
L 416.519967 217.616404 
L 420.377555 217.616404 
L 424.235142 225.608726 
L 428.092729 217.616404 
L 431.950316 213.423801 
L 439.665491 213.423801 
L 443.523078 211.563893 
L 447.380666 211.563893 
L 451.238253 209.83236 
L 455.09584 211.563893 
L 458.953427 213.423801 
L 462.811015 211.563893 
L 466.668602 211.563893 
L 470.526189 213.423801 
L 474.383777 209.83236 
L 478.241364 199.104679 
L 482.098951 197.012027 
L 485.956538 198.036548 
L 489.814126 198.036548 
L 493.671713 197.012027 
L 497.5293 192.436252 
L 505.244475 194.167786 
L 509.102062 194.167786 
L 516.817237 190.816511 
L 520.674824 190.816511 
L 524.532411 193.287089 
L 528.389998 190.816511 
L 532.247586 194.167786 
L 536.105173 193.287089 
L 539.96276 194.167786 
L 543.820348 192.436252 
L 547.677935 192.436252 
L 551.535522 191.613317 
L 555.393109 191.613317 
L 559.250697 190.044226 
L 566.965871 190.044226 
L 570.823459 193.287089 
L 574.681046 193.287089 
L 578.538633 194.167786 
L 582.39622 196.027694 
L 586.253808 200.220297 
L 590.111395 202.612323 
L 597.82657 202.612323 
L 601.684157 201.387822 
L 605.541744 197.012027 
L 609.399331 199.104679 
L 613.256919 199.104679 
L 617.114506 202.612323 
L 620.972093 202.612323 
L 624.82968 200.220297 
L 628.687268 198.036548 
L 632.544855 206.691105 
L 636.402442 199.104679 
L 640.26003 196.027694 
L 644.117617 193.287089 
L 651.832791 193.287089 
L 655.690379 194.167786 
L 659.547966 193.287089 
L 663.405553 197.012027 
L 667.263141 199.104679 
L 671.120728 201.387822 
L 674.978315 196.027694 
L 678.835902 198.036548 
L 686.551077 196.027694 
L 690.408664 196.027694 
L 694.266252 197.012027 
L 698.123839 193.287089 
L 701.981426 198.036548 
L 705.839013 197.012027 
L 709.696601 198.036548 
L 713.554188 193.287089 
L 717.411775 190.816511 
L 725.12695 192.436252 
L 728.984537 190.816511 
L 732.842124 188.56749 
L 736.699712 187.172838 
L 740.557299 190.816511 
L 744.414886 192.436252 
L 748.272473 187.172838 
L 752.130061 182.82419 
L 755.987648 181.708571 
L 759.845235 182.82419 
L 763.702823 184.596498 
L 767.56041 185.216216 
L 771.417997 182.82419 
L 775.275584 185.851624 
L 779.133172 191.613317 
L 782.990759 193.287089 
L 786.848346 190.044226 
L 790.705934 190.044226 
L 794.563521 187.172838 
L 798.421108 190.044226 
L 802.278695 191.613317 
L 806.136283 185.851624 
L 809.99387 185.851624 
L 813.851457 181.708571 
L 817.709044 180.640441 
L 821.566632 179.118928 
L 825.424219 178.153529 
L 829.281806 175.461958 
L 833.139394 176.771678 
L 836.996981 177.223894 
L 840.854568 180.122953 
L 844.712155 179.61592 
L 848.569743 182.260182 
L 852.42733 183.401164 
L 856.284917 186.503538 
L 860.142505 187.172838 
L 864.000092 183.991715 
L 867.857679 185.216216 
L 871.715266 181.708571 
L 875.572854 181.168824 
L 879.430441 180.122953 
L 883.288028 176.771678 
L 887.145615 174.21721 
L 894.86079 177.684407 
L 898.718377 175.040145 
L 906.433552 174.21721 
L 910.291139 176.771678 
L 914.148726 178.631587 
L 918.006314 176.771678 
L 921.863901 173.815645 
L 925.721488 179.61592 
L 929.579076 182.260182 
L 933.436663 184.596498 
L 937.29425 183.991715 
L 941.151837 187.860478 
L 945.009425 190.044226 
L 948.867012 193.287089 
L 952.724599 193.287089 
L 956.582187 189.294998 
L 960.439774 188.56749 
L 968.154948 191.613317 
L 972.012536 195.080515 
L 975.870123 196.027694 
L 979.72771 196.027694 
L 983.585297 201.387822 
L 987.442885 201.387822 
L 991.300472 199.104679 
L 999.015647 199.104679 
L 1002.873234 203.899645 
L 1006.730821 208.212618 
L 1010.588408 208.212618 
L 1014.445996 213.423801 
L 1018.303583 220.00843 
L 1022.16117 220.00843 
L 1026.018758 217.616404 
L 1029.876345 217.616404 
L 1033.733932 220.00843 
L 1037.591519 215.432655 
L 1049.164281 215.432655 
L 1053.021869 217.616404 
L 1056.879456 215.432655 
L 1060.737043 213.423801 
L 1064.59463 215.432655 
L 1072.309805 215.432655 
L 1076.167392 213.423801 
L 1076.167392 213.423801 
" style="fill:none;stroke:#d18cad;stroke-linecap:square;stroke-width:2;"/>
   </g>
   <g id="line2d_23">
    <path clip-path="url(#pa2272c530e)" d="M 458.953427 215.432655 
L 462.811015 220.00843 
L 466.668602 222.652692 
L 470.526189 213.423801 
L 474.383777 208.212618 
L 478.241364 208.212618 
L 482.098951 206.691105 
L 485.956538 206.691105 
L 489.814126 202.612323 
L 497.5293 200.220297 
L 501.386888 200.220297 
L 505.244475 193.287089 
L 509.102062 192.436252 
L 512.959649 193.287089 
L 516.817237 193.287089 
L 520.674824 188.56749 
L 524.532411 191.613317 
L 528.389998 191.613317 
L 532.247586 195.080515 
L 536.105173 197.012027 
L 539.96276 196.027694 
L 543.820348 198.036548 
L 547.677935 202.612323 
L 551.535522 201.387822 
L 555.393109 199.104679 
L 563.108284 197.012027 
L 566.965871 198.036548 
L 570.823459 197.012027 
L 574.681046 200.220297 
L 578.538633 200.220297 
L 582.39622 201.387822 
L 586.253808 205.256585 
L 590.111395 206.691105 
L 593.968982 206.691105 
L 597.82657 202.612323 
L 605.541744 202.612323 
L 609.399331 205.256585 
L 620.972093 205.256585 
L 624.82968 202.612323 
L 628.687268 200.220297 
L 632.544855 198.036548 
L 636.402442 199.104679 
L 640.26003 196.027694 
L 644.117617 196.027694 
L 647.975204 195.080515 
L 651.832791 198.036548 
L 655.690379 196.027694 
L 659.547966 195.080515 
L 663.405553 185.851624 
L 667.263141 173.420404 
L 671.120728 173.031291 
L 674.978315 170.464371 
L 682.69349 168.455516 
L 686.551077 169.10743 
L 690.408664 168.135802 
L 694.266252 174.625305 
L 698.123839 169.43985 
L 701.981426 169.43985 
L 705.839013 166.298595 
L 709.696601 166.298595 
L 713.554188 164.04114 
L 717.411775 166.298595 
L 721.269362 162.472049 
L 725.12695 164.864075 
L 728.984537 164.04114 
L 732.842124 160.521765 
L 736.699712 159.152483 
L 740.557299 156.024297 
L 744.414886 156.419538 
L 748.272473 160.757422 
L 752.130061 161.23548 
L 755.987648 162.219813 
L 759.845235 165.428082 
L 763.702823 163.772717 
L 767.56041 166.298595 
L 771.417997 164.312464 
L 775.275584 164.312464 
L 779.133172 162.726846 
L 782.990759 158.494875 
L 786.848346 152.894579 
L 790.705934 153.068263 
L 794.563521 153.955185 
L 798.421108 152.722089 
L 802.278695 152.380624 
L 806.136283 152.380624 
L 809.99387 156.419538 
L 813.851457 156.419538 
L 817.709044 151.54675 
L 821.566632 151.220807 
L 825.424219 152.722089 
L 829.281806 152.380624 
L 833.139394 151.876982 
L 836.996981 149.804284 
L 840.854568 151.38325 
L 844.712155 152.211618 
L 848.569743 152.380624 
L 852.42733 151.711323 
L 856.284917 150.267631 
L 860.142505 147.467968 
L 864.000092 147.190647 
L 867.857679 148.031975 
L 871.715266 148.031975 
L 875.572854 146.37661 
L 879.430441 145.717851 
L 883.288028 145.848227 
L 887.145615 148.902488 
L 891.003203 148.463458 
L 894.86079 149.500071 
L 898.718377 149.957785 
L 902.575965 150.739694 
L 906.433552 150.424001 
L 910.291139 150.267631 
L 914.148726 150.424001 
L 918.006314 152.211618 
L 921.863901 152.043742 
L 925.721488 156.024297 
L 929.579076 158.279446 
L 933.436663 160.757422 
L 937.29425 161.722821 
L 941.151837 162.984256 
L 945.009425 164.04114 
L 948.867012 163.772717 
L 952.724599 166.005057 
L 956.582187 164.864075 
L 960.439774 163.507135 
L 964.297361 162.984256 
L 972.012536 161.477967 
L 975.870123 164.312464 
L 979.72771 162.726846 
L 983.585297 162.219813 
L 987.442885 164.312464 
L 991.300472 168.455516 
L 995.158059 168.779357 
L 999.015647 167.200391 
L 1002.873234 166.595608 
L 1006.730821 166.595608 
L 1010.588408 164.864075 
L 1014.445996 163.772717 
L 1018.303583 164.312464 
L 1022.16117 165.144494 
L 1026.018758 168.455516 
L 1029.876345 172.270709 
L 1033.733932 167.200391 
L 1037.591519 172.270709 
L 1041.449107 174.21721 
L 1045.306694 173.420404 
L 1049.164281 174.625305 
L 1053.021869 175.461958 
L 1056.879456 178.153529 
L 1060.737043 197.012027 
L 1064.59463 203.899645 
L 1068.452218 215.432655 
L 1072.309805 217.616404 
L 1076.167392 215.432655 
L 1080.024979 217.616404 
L 1083.882567 220.00843 
L 1087.740154 220.00843 
L 1091.597741 215.432655 
L 1091.597741 215.432655 
" style="fill:none;stroke:#a4a86f;stroke-linecap:square;stroke-width:2;"/>
   </g>
   <g id="line2d_24">
    <path clip-path="url(#pa2272c530e)" d="M 358.656158 225.608726 
L 362.513745 228.96 
L 389.516856 228.96 
L 393.374444 225.608726 
L 416.519967 225.608726 
L 420.377555 228.96 
L 431.950316 228.96 
L 435.807904 222.652692 
L 439.665491 222.652692 
L 443.523078 220.00843 
L 455.09584 220.00843 
L 458.953427 217.616404 
L 462.811015 217.616404 
L 466.668602 211.563893 
L 474.383777 211.563893 
L 478.241364 205.256585 
L 482.098951 201.387822 
L 485.956538 197.012027 
L 489.814126 195.080515 
L 493.671713 193.287089 
L 497.5293 176.327467 
L 501.386888 165.144494 
L 505.244475 159.827787 
L 509.102062 158.93136 
L 512.959649 157.644038 
L 516.817237 154.136394 
L 520.674824 152.722089 
L 524.532411 154.136394 
L 528.389998 159.375571 
L 532.247586 159.375571 
L 536.105173 159.600661 
L 539.96276 162.219813 
L 543.820348 166.595608 
L 547.677935 170.118196 
L 551.535522 177.684407 
L 555.393109 180.640441 
L 559.250697 192.436252 
L 563.108284 196.027694 
L 566.965871 194.167786 
L 570.823459 197.012027 
L 574.681046 194.167786 
L 578.538633 189.294998 
L 582.39622 181.168824 
L 586.253808 182.260182 
L 590.111395 182.260182 
L 593.968982 179.118928 
L 597.82657 177.684407 
L 601.684157 176.771678 
L 605.541744 176.327467 
L 609.399331 177.223894 
L 613.256919 173.815645 
L 617.114506 174.21721 
L 620.972093 177.684407 
L 624.82968 176.327467 
L 628.687268 173.815645 
L 632.544855 174.21721 
L 636.402442 176.771678 
L 640.26003 175.890982 
L 644.117617 176.327467 
L 647.975204 176.327467 
L 651.832791 176.771678 
L 655.690379 181.708571 
L 663.405553 181.708571 
L 667.263141 179.61592 
L 674.978315 177.684407 
L 678.835902 179.61592 
L 682.69349 180.640441 
L 686.551077 179.61592 
L 690.408664 179.118928 
L 694.266252 182.82419 
L 698.123839 181.708571 
L 701.981426 181.168824 
L 705.839013 175.461958 
L 709.696601 169.43985 
L 713.554188 170.118196 
L 717.411775 169.10743 
L 721.269362 166.896178 
L 725.12695 165.144494 
L 728.984537 164.04114 
L 736.699712 165.144494 
L 740.557299 162.726846 
L 744.414886 162.984256 
L 748.272473 165.428082 
L 752.130061 167.200391 
L 755.987648 166.896178 
L 759.845235 165.714912 
L 763.702823 165.428082 
L 767.56041 163.244334 
L 775.275584 161.23548 
L 779.133172 159.600661 
L 782.990759 160.995312 
L 786.848346 162.984256 
L 790.705934 162.984256 
L 794.563521 166.896178 
L 798.421108 165.144494 
L 802.278695 166.005057 
L 806.136283 166.298595 
L 809.99387 163.772717 
L 817.709044 166.005057 
L 821.566632 167.820108 
L 825.424219 168.779357 
L 829.281806 171.898891 
L 833.139394 174.21721 
L 836.996981 177.223894 
L 840.854568 179.118928 
L 844.712155 176.771678 
L 848.569743 175.890982 
L 852.42733 179.61592 
L 856.284917 173.815645 
L 860.142505 174.625305 
L 864.000092 173.031291 
L 867.857679 169.10743 
L 871.715266 172.270709 
L 875.572854 170.118196 
L 879.430441 166.896178 
L 883.288028 168.779357 
L 887.145615 167.508337 
L 891.003203 169.776731 
L 894.86079 172.648119 
L 898.718377 172.270709 
L 902.575965 176.327467 
L 906.433552 181.708571 
L 910.291139 184.596498 
L 914.148726 183.401164 
L 918.006314 183.991715 
L 921.863901 181.168824 
L 925.721488 182.260182 
L 929.579076 178.631587 
L 933.436663 179.61592 
L 937.29425 178.631587 
L 941.151837 182.260182 
L 945.009425 181.708571 
L 948.867012 185.216216 
L 952.724599 183.401164 
L 956.582187 185.216216 
L 960.439774 182.260182 
L 964.297361 184.596498 
L 968.154948 183.401164 
L 972.012536 180.640441 
L 975.870123 177.223894 
L 979.72771 178.631587 
L 983.585297 180.640441 
L 987.442885 182.260182 
L 991.300472 182.82419 
L 995.158059 183.991715 
L 999.015647 187.860478 
L 1002.873234 194.167786 
L 1006.730821 194.167786 
L 1010.588408 195.080515 
L 1014.445996 198.036548 
L 1018.303583 195.080515 
L 1022.16117 196.027694 
L 1029.876345 196.027694 
L 1033.733932 202.612323 
L 1037.591519 201.387822 
L 1041.449107 199.104679 
L 1045.306694 203.899645 
L 1056.879456 203.899645 
L 1056.879456 203.899645 
" style="fill:none;stroke:#d3d3d3;stroke-linecap:square;stroke-width:2;"/>
   </g>
   <g id="patch_3">
    <path d="M 53.328125 228.96 
L 53.328125 7.2 
" style="fill:none;stroke:#000000;stroke-linecap:square;stroke-linejoin:miter;stroke-width:0.8;"/>
   </g>
   <g id="patch_4">
    <path d="M 53.328125 228.96 
L 1169.328125 228.96 
" style="fill:none;stroke:#000000;stroke-linecap:square;stroke-linejoin:miter;stroke-width:0.8;"/>
   </g>
   <g id="legend_1">
    <g id="line2d_25">
     <path d="M 60.528125 17.67875 
L 76.528125 17.67875 
" style="fill:none;stroke:#947383;stroke-linecap:square;stroke-width:2;"/>
    </g>
    <g id="line2d_26"/>
    <g id="text_20">
     <!-- United Kingdom -->
     <g transform="translate(82.928125 20.47875)scale(0.08 -0.08)">
      <defs>
       <path d="M 556 4666 
L 1191 4666 
L 1191 1831 
Q 1191 1081 1462 751 
Q 1734 422 2344 422 
Q 2950 422 3222 751 
Q 3494 1081 3494 1831 
L 3494 4666 
L 4128 4666 
L 4128 1753 
Q 4128 841 3676 375 
Q 3225 -91 2344 -91 
Q 1459 -91 1007 375 
Q 556 841 556 1753 
L 556 4666 
z
" id="DejaVuSans-55" transform="scale(0.015625)"/>
       <path d="M 628 4666 
L 1259 4666 
L 1259 2694 
L 3353 4666 
L 4166 4666 
L 1850 2491 
L 4331 0 
L 3500 0 
L 1259 2247 
L 1259 0 
L 628 0 
L 628 4666 
z
" id="DejaVuSans-4b" transform="scale(0.015625)"/>
       <path d="M 3328 2828 
Q 3544 3216 3844 3400 
Q 4144 3584 4550 3584 
Q 5097 3584 5394 3201 
Q 5691 2819 5691 2113 
L 5691 0 
L 5113 0 
L 5113 2094 
Q 5113 2597 4934 2840 
Q 4756 3084 4391 3084 
Q 3944 3084 3684 2787 
Q 3425 2491 3425 1978 
L 3425 0 
L 2847 0 
L 2847 2094 
Q 2847 2600 2669 2842 
Q 2491 3084 2119 3084 
Q 1678 3084 1418 2786 
Q 1159 2488 1159 1978 
L 1159 0 
L 581 0 
L 581 3500 
L 1159 3500 
L 1159 2956 
Q 1356 3278 1631 3431 
Q 1906 3584 2284 3584 
Q 2666 3584 2933 3390 
Q 3200 3197 3328 2828 
z
" id="DejaVuSans-6d" transform="scale(0.015625)"/>
      </defs>
      <use xlink:href="#DejaVuSans-55"/>
      <use x="73.193359" xlink:href="#DejaVuSans-6e"/>
      <use x="136.572266" xlink:href="#DejaVuSans-69"/>
      <use x="164.355469" xlink:href="#DejaVuSans-74"/>
      <use x="203.564453" xlink:href="#DejaVuSans-65"/>
      <use x="265.087891" xlink:href="#DejaVuSans-64"/>
      <use x="328.564453" xlink:href="#DejaVuSans-20"/>
      <use x="360.351562" xlink:href="#DejaVuSans-4b"/>
      <use x="425.927734" xlink:href="#DejaVuSans-69"/>
      <use x="453.710938" xlink:href="#DejaVuSans-6e"/>
      <use x="517.089844" xlink:href="#DejaVuSans-67"/>
      <use x="580.566406" xlink:href="#DejaVuSans-64"/>
      <use x="644.042969" xlink:href="#DejaVuSans-6f"/>
      <use x="705.224609" xlink:href="#DejaVuSans-6d"/>
     </g>
    </g>
    <g id="line2d_27">
     <path d="M 60.528125 29.42125 
L 76.528125 29.42125 
" style="fill:none;stroke:#96c6ad;stroke-linecap:square;stroke-width:2;"/>
    </g>
    <g id="line2d_28"/>
    <g id="text_21">
     <!-- Europe -->
     <g transform="translate(82.928125 32.22125)scale(0.08 -0.08)">
      <defs>
       <path d="M 628 4666 
L 3578 4666 
L 3578 4134 
L 1259 4134 
L 1259 2753 
L 3481 2753 
L 3481 2222 
L 1259 2222 
L 1259 531 
L 3634 531 
L 3634 0 
L 628 0 
L 628 4666 
z
" id="DejaVuSans-45" transform="scale(0.015625)"/>
       <path d="M 1159 525 
L 1159 -1331 
L 581 -1331 
L 581 3500 
L 1159 3500 
L 1159 2969 
Q 1341 3281 1617 3432 
Q 1894 3584 2278 3584 
Q 2916 3584 3314 3078 
Q 3713 2572 3713 1747 
Q 3713 922 3314 415 
Q 2916 -91 2278 -91 
Q 1894 -91 1617 61 
Q 1341 213 1159 525 
z
M 3116 1747 
Q 3116 2381 2855 2742 
Q 2594 3103 2138 3103 
Q 1681 3103 1420 2742 
Q 1159 2381 1159 1747 
Q 1159 1113 1420 752 
Q 1681 391 2138 391 
Q 2594 391 2855 752 
Q 3116 1113 3116 1747 
z
" id="DejaVuSans-70" transform="scale(0.015625)"/>
      </defs>
      <use xlink:href="#DejaVuSans-45"/>
      <use x="63.183594" xlink:href="#DejaVuSans-75"/>
      <use x="126.5625" xlink:href="#DejaVuSans-72"/>
      <use x="165.425781" xlink:href="#DejaVuSans-6f"/>
      <use x="226.607422" xlink:href="#DejaVuSans-70"/>
      <use x="290.083984" xlink:href="#DejaVuSans-65"/>
     </g>
    </g>
    <g id="line2d_29">
     <path d="M 60.528125 41.16375 
L 76.528125 41.16375 
" style="fill:none;stroke:#525886;stroke-linecap:square;stroke-width:2;"/>
    </g>
    <g id="line2d_30"/>
    <g id="text_22">
     <!-- Asia -->
     <g transform="translate(82.928125 43.96375)scale(0.08 -0.08)">
      <defs>
       <path d="M 2188 4044 
L 1331 1722 
L 3047 1722 
L 2188 4044 
z
M 1831 4666 
L 2547 4666 
L 4325 0 
L 3669 0 
L 3244 1197 
L 1141 1197 
L 716 0 
L 50 0 
L 1831 4666 
z
" id="DejaVuSans-41" transform="scale(0.015625)"/>
       <path d="M 2834 3397 
L 2834 2853 
Q 2591 2978 2328 3040 
Q 2066 3103 1784 3103 
Q 1356 3103 1142 2972 
Q 928 2841 928 2578 
Q 928 2378 1081 2264 
Q 1234 2150 1697 2047 
L 1894 2003 
Q 2506 1872 2764 1633 
Q 3022 1394 3022 966 
Q 3022 478 2636 193 
Q 2250 -91 1575 -91 
Q 1294 -91 989 -36 
Q 684 19 347 128 
L 347 722 
Q 666 556 975 473 
Q 1284 391 1588 391 
Q 1994 391 2212 530 
Q 2431 669 2431 922 
Q 2431 1156 2273 1281 
Q 2116 1406 1581 1522 
L 1381 1569 
Q 847 1681 609 1914 
Q 372 2147 372 2553 
Q 372 3047 722 3315 
Q 1072 3584 1716 3584 
Q 2034 3584 2315 3537 
Q 2597 3491 2834 3397 
z
" id="DejaVuSans-73" transform="scale(0.015625)"/>
      </defs>
      <use xlink:href="#DejaVuSans-41"/>
      <use x="68.408203" xlink:href="#DejaVuSans-73"/>
      <use x="120.507812" xlink:href="#DejaVuSans-69"/>
      <use x="148.291016" xlink:href="#DejaVuSans-61"/>
     </g>
    </g>
    <g id="line2d_31">
     <path d="M 60.528125 52.90625 
L 76.528125 52.90625 
" style="fill:none;stroke:#937252;stroke-linecap:square;stroke-width:2;"/>
    </g>
    <g id="line2d_32"/>
    <g id="text_23">
     <!-- North America -->
     <g transform="translate(82.928125 55.70625)scale(0.08 -0.08)">
      <defs>
       <path d="M 628 4666 
L 1478 4666 
L 3547 763 
L 3547 4666 
L 4159 4666 
L 4159 0 
L 3309 0 
L 1241 3903 
L 1241 0 
L 628 0 
L 628 4666 
z
" id="DejaVuSans-4e" transform="scale(0.015625)"/>
       <path d="M 3513 2113 
L 3513 0 
L 2938 0 
L 2938 2094 
Q 2938 2591 2744 2837 
Q 2550 3084 2163 3084 
Q 1697 3084 1428 2787 
Q 1159 2491 1159 1978 
L 1159 0 
L 581 0 
L 581 4863 
L 1159 4863 
L 1159 2956 
Q 1366 3272 1645 3428 
Q 1925 3584 2291 3584 
Q 2894 3584 3203 3211 
Q 3513 2838 3513 2113 
z
" id="DejaVuSans-68" transform="scale(0.015625)"/>
       <path d="M 3122 3366 
L 3122 2828 
Q 2878 2963 2633 3030 
Q 2388 3097 2138 3097 
Q 1578 3097 1268 2742 
Q 959 2388 959 1747 
Q 959 1106 1268 751 
Q 1578 397 2138 397 
Q 2388 397 2633 464 
Q 2878 531 3122 666 
L 3122 134 
Q 2881 22 2623 -34 
Q 2366 -91 2075 -91 
Q 1284 -91 818 406 
Q 353 903 353 1747 
Q 353 2603 823 3093 
Q 1294 3584 2113 3584 
Q 2378 3584 2631 3529 
Q 2884 3475 3122 3366 
z
" id="DejaVuSans-63" transform="scale(0.015625)"/>
      </defs>
      <use xlink:href="#DejaVuSans-4e"/>
      <use x="74.804688" xlink:href="#DejaVuSans-6f"/>
      <use x="135.986328" xlink:href="#DejaVuSans-72"/>
      <use x="177.099609" xlink:href="#DejaVuSans-74"/>
      <use x="216.308594" xlink:href="#DejaVuSans-68"/>
      <use x="279.6875" xlink:href="#DejaVuSans-20"/>
      <use x="311.474609" xlink:href="#DejaVuSans-41"/>
      <use x="379.882812" xlink:href="#DejaVuSans-6d"/>
      <use x="477.294922" xlink:href="#DejaVuSans-65"/>
      <use x="538.818359" xlink:href="#DejaVuSans-72"/>
      <use x="579.931641" xlink:href="#DejaVuSans-69"/>
      <use x="607.714844" xlink:href="#DejaVuSans-63"/>
      <use x="662.695312" xlink:href="#DejaVuSans-61"/>
     </g>
    </g>
    <g id="line2d_33">
     <path d="M 60.528125 64.64875 
L 76.528125 64.64875 
" style="fill:none;stroke:#d18cad;stroke-linecap:square;stroke-width:2;"/>
    </g>
    <g id="line2d_34"/>
    <g id="text_24">
     <!-- Oceania -->
     <g transform="translate(82.928125 67.44875)scale(0.08 -0.08)">
      <defs>
       <path d="M 2522 4238 
Q 1834 4238 1429 3725 
Q 1025 3213 1025 2328 
Q 1025 1447 1429 934 
Q 1834 422 2522 422 
Q 3209 422 3611 934 
Q 4013 1447 4013 2328 
Q 4013 3213 3611 3725 
Q 3209 4238 2522 4238 
z
M 2522 4750 
Q 3503 4750 4090 4092 
Q 4678 3434 4678 2328 
Q 4678 1225 4090 567 
Q 3503 -91 2522 -91 
Q 1538 -91 948 565 
Q 359 1222 359 2328 
Q 359 3434 948 4092 
Q 1538 4750 2522 4750 
z
" id="DejaVuSans-4f" transform="scale(0.015625)"/>
      </defs>
      <use xlink:href="#DejaVuSans-4f"/>
      <use x="78.710938" xlink:href="#DejaVuSans-63"/>
      <use x="133.691406" xlink:href="#DejaVuSans-65"/>
      <use x="195.214844" xlink:href="#DejaVuSans-61"/>
      <use x="256.494141" xlink:href="#DejaVuSans-6e"/>
      <use x="319.873047" xlink:href="#DejaVuSans-69"/>
      <use x="347.65625" xlink:href="#DejaVuSans-61"/>
     </g>
    </g>
    <g id="line2d_35">
     <path d="M 60.528125 76.39125 
L 76.528125 76.39125 
" style="fill:none;stroke:#a4a86f;stroke-linecap:square;stroke-width:2;"/>
    </g>
    <g id="line2d_36"/>
    <g id="text_25">
     <!-- South America -->
     <g transform="translate(82.928125 79.19125)scale(0.08 -0.08)">
      <defs>
       <path d="M 3425 4513 
L 3425 3897 
Q 3066 4069 2747 4153 
Q 2428 4238 2131 4238 
Q 1616 4238 1336 4038 
Q 1056 3838 1056 3469 
Q 1056 3159 1242 3001 
Q 1428 2844 1947 2747 
L 2328 2669 
Q 3034 2534 3370 2195 
Q 3706 1856 3706 1288 
Q 3706 609 3251 259 
Q 2797 -91 1919 -91 
Q 1588 -91 1214 -16 
Q 841 59 441 206 
L 441 856 
Q 825 641 1194 531 
Q 1563 422 1919 422 
Q 2459 422 2753 634 
Q 3047 847 3047 1241 
Q 3047 1584 2836 1778 
Q 2625 1972 2144 2069 
L 1759 2144 
Q 1053 2284 737 2584 
Q 422 2884 422 3419 
Q 422 4038 858 4394 
Q 1294 4750 2059 4750 
Q 2388 4750 2728 4690 
Q 3069 4631 3425 4513 
z
" id="DejaVuSans-53" transform="scale(0.015625)"/>
      </defs>
      <use xlink:href="#DejaVuSans-53"/>
      <use x="63.476562" xlink:href="#DejaVuSans-6f"/>
      <use x="124.658203" xlink:href="#DejaVuSans-75"/>
      <use x="188.037109" xlink:href="#DejaVuSans-74"/>
      <use x="227.246094" xlink:href="#DejaVuSans-68"/>
      <use x="290.625" xlink:href="#DejaVuSans-20"/>
      <use x="322.412109" xlink:href="#DejaVuSans-41"/>
      <use x="390.820312" xlink:href="#DejaVuSans-6d"/>
      <use x="488.232422" xlink:href="#DejaVuSans-65"/>
      <use x="549.755859" xlink:href="#DejaVuSans-72"/>
      <use x="590.869141" xlink:href="#DejaVuSans-69"/>
      <use x="618.652344" xlink:href="#DejaVuSans-63"/>
      <use x="673.632812" xlink:href="#DejaVuSans-61"/>
     </g>
    </g>
    <g id="line2d_37">
     <path d="M 60.528125 88.13375 
L 76.528125 88.13375 
" style="fill:none;stroke:#d3d3d3;stroke-linecap:square;stroke-width:2;"/>
    </g>
    <g id="line2d_38"/>
    <g id="text_26">
     <!-- Africa -->
     <g transform="translate(82.928125 90.93375)scale(0.08 -0.08)">
      <defs>
       <path d="M 2375 4863 
L 2375 4384 
L 1825 4384 
Q 1516 4384 1395 4259 
Q 1275 4134 1275 3809 
L 1275 3500 
L 2222 3500 
L 2222 3053 
L 1275 3053 
L 1275 0 
L 697 0 
L 697 3053 
L 147 3053 
L 147 3500 
L 697 3500 
L 697 3744 
Q 697 4328 969 4595 
Q 1241 4863 1831 4863 
L 2375 4863 
z
" id="DejaVuSans-66" transform="scale(0.015625)"/>
      </defs>
      <use xlink:href="#DejaVuSans-41"/>
      <use x="64.783203" xlink:href="#DejaVuSans-66"/>
      <use x="99.988281" xlink:href="#DejaVuSans-72"/>
      <use x="141.101562" xlink:href="#DejaVuSans-69"/>
      <use x="168.884766" xlink:href="#DejaVuSans-63"/>
      <use x="223.865234" xlink:href="#DejaVuSans-61"/>
     </g>
    </g>
   </g>
  </g>
 </g>
 <defs>
  <clipPath id="pa2272c530e">
   <rect height="221.76" width="1116" x="53.328125" y="7.2"/>
  </clipPath>
 </defs>
</svg>
