<?xml version="1.0" encoding="utf-8" standalone="no"?>
<!DOCTYPE svg PUBLIC "-//W3C//DTD SVG 1.1//EN"
  "http://www.w3.org/Graphics/SVG/1.1/DTD/svg11.dtd">
<svg height="298.620937pt" version="1.1" viewBox="0 0 1170.165625 298.620937" width="1170.165625pt" xmlns="http://www.w3.org/2000/svg" xmlns:xlink="http://www.w3.org/1999/xlink">
 <metadata>
  <rdf:RDF xmlns:cc="http://creativecommons.org/ns#" xmlns:dc="http://purl.org/dc/elements/1.1/" xmlns:rdf="http://www.w3.org/1999/02/22-rdf-syntax-ns#">
   <cc:Work>
    <dc:type rdf:resource="http://purl.org/dc/dcmitype/StillImage"/>
    <dc:date>2021-07-04T16:15:32.724924</dc:date>
    <dc:format>image/svg+xml</dc:format>
    <dc:creator>
     <cc:Agent>
      <dc:title>Matplotlib v3.4.2, https://matplotlib.org/</dc:title>
     </cc:Agent>
    </dc:creator>
   </cc:Work>
  </rdf:RDF>
 </metadata>
 <defs>
  <style type="text/css">*{stroke-linecap:butt;stroke-linejoin:round;}</style>
 </defs>
 <g id="figure_1">
  <g id="patch_1">
   <path d="M 0 298.620937 
L 1170.165625 298.620937 
L 1170.165625 0 
L 0 0 
z
" style="fill:#ffffff;"/>
  </g>
  <g id="axes_1">
   <g id="patch_2">
    <path d="M 46.965625 228.96 
L 1162.965625 228.96 
L 1162.965625 7.2 
L 46.965625 7.2 
z
" style="fill:#ffffff;"/>
   </g>
   <g id="matplotlib.axis_1">
    <g id="xtick_1">
     <g id="line2d_1">
      <defs>
       <path d="M 0 0 
L 0 3.5 
" id="m830e0a15ec" style="stroke:#000000;stroke-width:0.8;"/>
      </defs>
      <g>
       <use style="stroke:#000000;stroke-width:0.8;" x="76.846073" xlink:href="#m830e0a15ec" y="228.96"/>
      </g>
     </g>
     <g id="text_1">
      <!-- 2020-09 -->
      <g transform="translate(79.605448 277.742812)rotate(-90)scale(0.1 -0.1)">
       <defs>
        <path d="M 1228 531 
L 3431 531 
L 3431 0 
L 469 0 
L 469 531 
Q 828 903 1448 1529 
Q 2069 2156 2228 2338 
Q 2531 2678 2651 2914 
Q 2772 3150 2772 3378 
Q 2772 3750 2511 3984 
Q 2250 4219 1831 4219 
Q 1534 4219 1204 4116 
Q 875 4013 500 3803 
L 500 4441 
Q 881 4594 1212 4672 
Q 1544 4750 1819 4750 
Q 2544 4750 2975 4387 
Q 3406 4025 3406 3419 
Q 3406 3131 3298 2873 
Q 3191 2616 2906 2266 
Q 2828 2175 2409 1742 
Q 1991 1309 1228 531 
z
" id="DejaVuSans-32" transform="scale(0.015625)"/>
        <path d="M 2034 4250 
Q 1547 4250 1301 3770 
Q 1056 3291 1056 2328 
Q 1056 1369 1301 889 
Q 1547 409 2034 409 
Q 2525 409 2770 889 
Q 3016 1369 3016 2328 
Q 3016 3291 2770 3770 
Q 2525 4250 2034 4250 
z
M 2034 4750 
Q 2819 4750 3233 4129 
Q 3647 3509 3647 2328 
Q 3647 1150 3233 529 
Q 2819 -91 2034 -91 
Q 1250 -91 836 529 
Q 422 1150 422 2328 
Q 422 3509 836 4129 
Q 1250 4750 2034 4750 
z
" id="DejaVuSans-30" transform="scale(0.015625)"/>
        <path d="M 313 2009 
L 1997 2009 
L 1997 1497 
L 313 1497 
L 313 2009 
z
" id="DejaVuSans-2d" transform="scale(0.015625)"/>
        <path d="M 703 97 
L 703 672 
Q 941 559 1184 500 
Q 1428 441 1663 441 
Q 2288 441 2617 861 
Q 2947 1281 2994 2138 
Q 2813 1869 2534 1725 
Q 2256 1581 1919 1581 
Q 1219 1581 811 2004 
Q 403 2428 403 3163 
Q 403 3881 828 4315 
Q 1253 4750 1959 4750 
Q 2769 4750 3195 4129 
Q 3622 3509 3622 2328 
Q 3622 1225 3098 567 
Q 2575 -91 1691 -91 
Q 1453 -91 1209 -44 
Q 966 3 703 97 
z
M 1959 2075 
Q 2384 2075 2632 2365 
Q 2881 2656 2881 3163 
Q 2881 3666 2632 3958 
Q 2384 4250 1959 4250 
Q 1534 4250 1286 3958 
Q 1038 3666 1038 3163 
Q 1038 2656 1286 2365 
Q 1534 2075 1959 2075 
z
" id="DejaVuSans-39" transform="scale(0.015625)"/>
       </defs>
       <use xlink:href="#DejaVuSans-32"/>
       <use x="63.623047" xlink:href="#DejaVuSans-30"/>
       <use x="127.246094" xlink:href="#DejaVuSans-32"/>
       <use x="190.869141" xlink:href="#DejaVuSans-30"/>
       <use x="254.492188" xlink:href="#DejaVuSans-2d"/>
       <use x="290.576172" xlink:href="#DejaVuSans-30"/>
       <use x="354.199219" xlink:href="#DejaVuSans-39"/>
      </g>
     </g>
    </g>
    <g id="xtick_2">
     <g id="line2d_2">
      <g>
       <use style="stroke:#000000;stroke-width:0.8;" x="181.080195" xlink:href="#m830e0a15ec" y="228.96"/>
      </g>
     </g>
     <g id="text_2">
      <!-- 2020-10 -->
      <g transform="translate(183.83957 277.742812)rotate(-90)scale(0.1 -0.1)">
       <defs>
        <path d="M 794 531 
L 1825 531 
L 1825 4091 
L 703 3866 
L 703 4441 
L 1819 4666 
L 2450 4666 
L 2450 531 
L 3481 531 
L 3481 0 
L 794 0 
L 794 531 
z
" id="DejaVuSans-31" transform="scale(0.015625)"/>
       </defs>
       <use xlink:href="#DejaVuSans-32"/>
       <use x="63.623047" xlink:href="#DejaVuSans-30"/>
       <use x="127.246094" xlink:href="#DejaVuSans-32"/>
       <use x="190.869141" xlink:href="#DejaVuSans-30"/>
       <use x="254.492188" xlink:href="#DejaVuSans-2d"/>
       <use x="290.576172" xlink:href="#DejaVuSans-31"/>
       <use x="354.199219" xlink:href="#DejaVuSans-30"/>
      </g>
     </g>
    </g>
    <g id="xtick_3">
     <g id="line2d_3">
      <g>
       <use style="stroke:#000000;stroke-width:0.8;" x="288.788788" xlink:href="#m830e0a15ec" y="228.96"/>
      </g>
     </g>
     <g id="text_3">
      <!-- 2020-11 -->
      <g transform="translate(291.548163 277.742812)rotate(-90)scale(0.1 -0.1)">
       <use xlink:href="#DejaVuSans-32"/>
       <use x="63.623047" xlink:href="#DejaVuSans-30"/>
       <use x="127.246094" xlink:href="#DejaVuSans-32"/>
       <use x="190.869141" xlink:href="#DejaVuSans-30"/>
       <use x="254.492188" xlink:href="#DejaVuSans-2d"/>
       <use x="290.576172" xlink:href="#DejaVuSans-31"/>
       <use x="354.199219" xlink:href="#DejaVuSans-31"/>
      </g>
     </g>
    </g>
    <g id="xtick_4">
     <g id="line2d_4">
      <g>
       <use style="stroke:#000000;stroke-width:0.8;" x="393.02291" xlink:href="#m830e0a15ec" y="228.96"/>
      </g>
     </g>
     <g id="text_4">
      <!-- 2020-12 -->
      <g transform="translate(395.782285 277.742812)rotate(-90)scale(0.1 -0.1)">
       <use xlink:href="#DejaVuSans-32"/>
       <use x="63.623047" xlink:href="#DejaVuSans-30"/>
       <use x="127.246094" xlink:href="#DejaVuSans-32"/>
       <use x="190.869141" xlink:href="#DejaVuSans-30"/>
       <use x="254.492188" xlink:href="#DejaVuSans-2d"/>
       <use x="290.576172" xlink:href="#DejaVuSans-31"/>
       <use x="354.199219" xlink:href="#DejaVuSans-32"/>
      </g>
     </g>
    </g>
    <g id="xtick_5">
     <g id="line2d_5">
      <g>
       <use style="stroke:#000000;stroke-width:0.8;" x="500.731503" xlink:href="#m830e0a15ec" y="228.96"/>
      </g>
     </g>
     <g id="text_5">
      <!-- 2021-01 -->
      <g transform="translate(503.490878 277.742812)rotate(-90)scale(0.1 -0.1)">
       <use xlink:href="#DejaVuSans-32"/>
       <use x="63.623047" xlink:href="#DejaVuSans-30"/>
       <use x="127.246094" xlink:href="#DejaVuSans-32"/>
       <use x="190.869141" xlink:href="#DejaVuSans-31"/>
       <use x="254.492188" xlink:href="#DejaVuSans-2d"/>
       <use x="290.576172" xlink:href="#DejaVuSans-30"/>
       <use x="354.199219" xlink:href="#DejaVuSans-31"/>
      </g>
     </g>
    </g>
    <g id="xtick_6">
     <g id="line2d_6">
      <g>
       <use style="stroke:#000000;stroke-width:0.8;" x="608.440096" xlink:href="#m830e0a15ec" y="228.96"/>
      </g>
     </g>
     <g id="text_6">
      <!-- 2021-02 -->
      <g transform="translate(611.199471 277.742812)rotate(-90)scale(0.1 -0.1)">
       <use xlink:href="#DejaVuSans-32"/>
       <use x="63.623047" xlink:href="#DejaVuSans-30"/>
       <use x="127.246094" xlink:href="#DejaVuSans-32"/>
       <use x="190.869141" xlink:href="#DejaVuSans-31"/>
       <use x="254.492188" xlink:href="#DejaVuSans-2d"/>
       <use x="290.576172" xlink:href="#DejaVuSans-30"/>
       <use x="354.199219" xlink:href="#DejaVuSans-32"/>
      </g>
     </g>
    </g>
    <g id="xtick_7">
     <g id="line2d_7">
      <g>
       <use style="stroke:#000000;stroke-width:0.8;" x="705.725276" xlink:href="#m830e0a15ec" y="228.96"/>
      </g>
     </g>
     <g id="text_7">
      <!-- 2021-03 -->
      <g transform="translate(708.484651 277.742812)rotate(-90)scale(0.1 -0.1)">
       <defs>
        <path d="M 2597 2516 
Q 3050 2419 3304 2112 
Q 3559 1806 3559 1356 
Q 3559 666 3084 287 
Q 2609 -91 1734 -91 
Q 1441 -91 1130 -33 
Q 819 25 488 141 
L 488 750 
Q 750 597 1062 519 
Q 1375 441 1716 441 
Q 2309 441 2620 675 
Q 2931 909 2931 1356 
Q 2931 1769 2642 2001 
Q 2353 2234 1838 2234 
L 1294 2234 
L 1294 2753 
L 1863 2753 
Q 2328 2753 2575 2939 
Q 2822 3125 2822 3475 
Q 2822 3834 2567 4026 
Q 2313 4219 1838 4219 
Q 1578 4219 1281 4162 
Q 984 4106 628 3988 
L 628 4550 
Q 988 4650 1302 4700 
Q 1616 4750 1894 4750 
Q 2613 4750 3031 4423 
Q 3450 4097 3450 3541 
Q 3450 3153 3228 2886 
Q 3006 2619 2597 2516 
z
" id="DejaVuSans-33" transform="scale(0.015625)"/>
       </defs>
       <use xlink:href="#DejaVuSans-32"/>
       <use x="63.623047" xlink:href="#DejaVuSans-30"/>
       <use x="127.246094" xlink:href="#DejaVuSans-32"/>
       <use x="190.869141" xlink:href="#DejaVuSans-31"/>
       <use x="254.492188" xlink:href="#DejaVuSans-2d"/>
       <use x="290.576172" xlink:href="#DejaVuSans-30"/>
       <use x="354.199219" xlink:href="#DejaVuSans-33"/>
      </g>
     </g>
    </g>
    <g id="xtick_8">
     <g id="line2d_8">
      <g>
       <use style="stroke:#000000;stroke-width:0.8;" x="813.433869" xlink:href="#m830e0a15ec" y="228.96"/>
      </g>
     </g>
     <g id="text_8">
      <!-- 2021-04 -->
      <g transform="translate(816.193244 277.742812)rotate(-90)scale(0.1 -0.1)">
       <defs>
        <path d="M 2419 4116 
L 825 1625 
L 2419 1625 
L 2419 4116 
z
M 2253 4666 
L 3047 4666 
L 3047 1625 
L 3713 1625 
L 3713 1100 
L 3047 1100 
L 3047 0 
L 2419 0 
L 2419 1100 
L 313 1100 
L 313 1709 
L 2253 4666 
z
" id="DejaVuSans-34" transform="scale(0.015625)"/>
       </defs>
       <use xlink:href="#DejaVuSans-32"/>
       <use x="63.623047" xlink:href="#DejaVuSans-30"/>
       <use x="127.246094" xlink:href="#DejaVuSans-32"/>
       <use x="190.869141" xlink:href="#DejaVuSans-31"/>
       <use x="254.492188" xlink:href="#DejaVuSans-2d"/>
       <use x="290.576172" xlink:href="#DejaVuSans-30"/>
       <use x="354.199219" xlink:href="#DejaVuSans-34"/>
      </g>
     </g>
    </g>
    <g id="xtick_9">
     <g id="line2d_9">
      <g>
       <use style="stroke:#000000;stroke-width:0.8;" x="917.667991" xlink:href="#m830e0a15ec" y="228.96"/>
      </g>
     </g>
     <g id="text_9">
      <!-- 2021-05 -->
      <g transform="translate(920.427366 277.742812)rotate(-90)scale(0.1 -0.1)">
       <defs>
        <path d="M 691 4666 
L 3169 4666 
L 3169 4134 
L 1269 4134 
L 1269 2991 
Q 1406 3038 1543 3061 
Q 1681 3084 1819 3084 
Q 2600 3084 3056 2656 
Q 3513 2228 3513 1497 
Q 3513 744 3044 326 
Q 2575 -91 1722 -91 
Q 1428 -91 1123 -41 
Q 819 9 494 109 
L 494 744 
Q 775 591 1075 516 
Q 1375 441 1709 441 
Q 2250 441 2565 725 
Q 2881 1009 2881 1497 
Q 2881 1984 2565 2268 
Q 2250 2553 1709 2553 
Q 1456 2553 1204 2497 
Q 953 2441 691 2322 
L 691 4666 
z
" id="DejaVuSans-35" transform="scale(0.015625)"/>
       </defs>
       <use xlink:href="#DejaVuSans-32"/>
       <use x="63.623047" xlink:href="#DejaVuSans-30"/>
       <use x="127.246094" xlink:href="#DejaVuSans-32"/>
       <use x="190.869141" xlink:href="#DejaVuSans-31"/>
       <use x="254.492188" xlink:href="#DejaVuSans-2d"/>
       <use x="290.576172" xlink:href="#DejaVuSans-30"/>
       <use x="354.199219" xlink:href="#DejaVuSans-35"/>
      </g>
     </g>
    </g>
    <g id="xtick_10">
     <g id="line2d_10">
      <g>
       <use style="stroke:#000000;stroke-width:0.8;" x="1025.376584" xlink:href="#m830e0a15ec" y="228.96"/>
      </g>
     </g>
     <g id="text_10">
      <!-- 2021-06 -->
      <g transform="translate(1028.135959 277.742812)rotate(-90)scale(0.1 -0.1)">
       <defs>
        <path d="M 2113 2584 
Q 1688 2584 1439 2293 
Q 1191 2003 1191 1497 
Q 1191 994 1439 701 
Q 1688 409 2113 409 
Q 2538 409 2786 701 
Q 3034 994 3034 1497 
Q 3034 2003 2786 2293 
Q 2538 2584 2113 2584 
z
M 3366 4563 
L 3366 3988 
Q 3128 4100 2886 4159 
Q 2644 4219 2406 4219 
Q 1781 4219 1451 3797 
Q 1122 3375 1075 2522 
Q 1259 2794 1537 2939 
Q 1816 3084 2150 3084 
Q 2853 3084 3261 2657 
Q 3669 2231 3669 1497 
Q 3669 778 3244 343 
Q 2819 -91 2113 -91 
Q 1303 -91 875 529 
Q 447 1150 447 2328 
Q 447 3434 972 4092 
Q 1497 4750 2381 4750 
Q 2619 4750 2861 4703 
Q 3103 4656 3366 4563 
z
" id="DejaVuSans-36" transform="scale(0.015625)"/>
       </defs>
       <use xlink:href="#DejaVuSans-32"/>
       <use x="63.623047" xlink:href="#DejaVuSans-30"/>
       <use x="127.246094" xlink:href="#DejaVuSans-32"/>
       <use x="190.869141" xlink:href="#DejaVuSans-31"/>
       <use x="254.492188" xlink:href="#DejaVuSans-2d"/>
       <use x="290.576172" xlink:href="#DejaVuSans-30"/>
       <use x="354.199219" xlink:href="#DejaVuSans-36"/>
      </g>
     </g>
    </g>
    <g id="xtick_11">
     <g id="line2d_11">
      <g>
       <use style="stroke:#000000;stroke-width:0.8;" x="1129.610706" xlink:href="#m830e0a15ec" y="228.96"/>
      </g>
     </g>
     <g id="text_11">
      <!-- 2021-07 -->
      <g transform="translate(1132.370081 277.742812)rotate(-90)scale(0.1 -0.1)">
       <defs>
        <path d="M 525 4666 
L 3525 4666 
L 3525 4397 
L 1831 0 
L 1172 0 
L 2766 4134 
L 525 4134 
L 525 4666 
z
" id="DejaVuSans-37" transform="scale(0.015625)"/>
       </defs>
       <use xlink:href="#DejaVuSans-32"/>
       <use x="63.623047" xlink:href="#DejaVuSans-30"/>
       <use x="127.246094" xlink:href="#DejaVuSans-32"/>
       <use x="190.869141" xlink:href="#DejaVuSans-31"/>
       <use x="254.492188" xlink:href="#DejaVuSans-2d"/>
       <use x="290.576172" xlink:href="#DejaVuSans-30"/>
       <use x="354.199219" xlink:href="#DejaVuSans-37"/>
      </g>
     </g>
    </g>
    <g id="text_12">
     <!-- Date -->
     <g transform="translate(593.014844 289.34125)scale(0.1 -0.1)">
      <defs>
       <path d="M 1259 4147 
L 1259 519 
L 2022 519 
Q 2988 519 3436 956 
Q 3884 1394 3884 2338 
Q 3884 3275 3436 3711 
Q 2988 4147 2022 4147 
L 1259 4147 
z
M 628 4666 
L 1925 4666 
Q 3281 4666 3915 4102 
Q 4550 3538 4550 2338 
Q 4550 1131 3912 565 
Q 3275 0 1925 0 
L 628 0 
L 628 4666 
z
" id="DejaVuSans-44" transform="scale(0.015625)"/>
       <path d="M 2194 1759 
Q 1497 1759 1228 1600 
Q 959 1441 959 1056 
Q 959 750 1161 570 
Q 1363 391 1709 391 
Q 2188 391 2477 730 
Q 2766 1069 2766 1631 
L 2766 1759 
L 2194 1759 
z
M 3341 1997 
L 3341 0 
L 2766 0 
L 2766 531 
Q 2569 213 2275 61 
Q 1981 -91 1556 -91 
Q 1019 -91 701 211 
Q 384 513 384 1019 
Q 384 1609 779 1909 
Q 1175 2209 1959 2209 
L 2766 2209 
L 2766 2266 
Q 2766 2663 2505 2880 
Q 2244 3097 1772 3097 
Q 1472 3097 1187 3025 
Q 903 2953 641 2809 
L 641 3341 
Q 956 3463 1253 3523 
Q 1550 3584 1831 3584 
Q 2591 3584 2966 3190 
Q 3341 2797 3341 1997 
z
" id="DejaVuSans-61" transform="scale(0.015625)"/>
       <path d="M 1172 4494 
L 1172 3500 
L 2356 3500 
L 2356 3053 
L 1172 3053 
L 1172 1153 
Q 1172 725 1289 603 
Q 1406 481 1766 481 
L 2356 481 
L 2356 0 
L 1766 0 
Q 1100 0 847 248 
Q 594 497 594 1153 
L 594 3053 
L 172 3053 
L 172 3500 
L 594 3500 
L 594 4494 
L 1172 4494 
z
" id="DejaVuSans-74" transform="scale(0.015625)"/>
       <path d="M 3597 1894 
L 3597 1613 
L 953 1613 
Q 991 1019 1311 708 
Q 1631 397 2203 397 
Q 2534 397 2845 478 
Q 3156 559 3463 722 
L 3463 178 
Q 3153 47 2828 -22 
Q 2503 -91 2169 -91 
Q 1331 -91 842 396 
Q 353 884 353 1716 
Q 353 2575 817 3079 
Q 1281 3584 2069 3584 
Q 2775 3584 3186 3129 
Q 3597 2675 3597 1894 
z
M 3022 2063 
Q 3016 2534 2758 2815 
Q 2500 3097 2075 3097 
Q 1594 3097 1305 2825 
Q 1016 2553 972 2059 
L 3022 2063 
z
" id="DejaVuSans-65" transform="scale(0.015625)"/>
      </defs>
      <use xlink:href="#DejaVuSans-44"/>
      <use x="77.001953" xlink:href="#DejaVuSans-61"/>
      <use x="138.28125" xlink:href="#DejaVuSans-74"/>
      <use x="177.490234" xlink:href="#DejaVuSans-65"/>
     </g>
    </g>
   </g>
   <g id="matplotlib.axis_2">
    <g id="ytick_1">
     <g id="line2d_12">
      <defs>
       <path d="M 0 0 
L -3.5 0 
" id="m70359bac3d" style="stroke:#000000;stroke-width:0.8;"/>
      </defs>
      <g>
       <use style="stroke:#000000;stroke-width:0.8;" x="46.965625" xlink:href="#m70359bac3d" y="228.96"/>
      </g>
     </g>
     <g id="text_13">
      <!-- 1 -->
      <g transform="translate(33.603125 232.759219)scale(0.1 -0.1)">
       <use xlink:href="#DejaVuSans-31"/>
      </g>
     </g>
    </g>
    <g id="ytick_2">
     <g id="line2d_13">
      <g>
       <use style="stroke:#000000;stroke-width:0.8;" x="46.965625" xlink:href="#m70359bac3d" y="181.232655"/>
      </g>
     </g>
     <g id="text_14">
      <!-- 3 -->
      <g transform="translate(33.603125 185.031873)scale(0.1 -0.1)">
       <use xlink:href="#DejaVuSans-33"/>
      </g>
     </g>
    </g>
    <g id="ytick_3">
     <g id="line2d_14">
      <g>
       <use style="stroke:#000000;stroke-width:0.8;" x="46.965625" xlink:href="#m70359bac3d" y="133.505309"/>
      </g>
     </g>
     <g id="text_15">
      <!-- 10 -->
      <g transform="translate(27.240625 137.304528)scale(0.1 -0.1)">
       <use xlink:href="#DejaVuSans-31"/>
       <use x="63.623047" xlink:href="#DejaVuSans-30"/>
      </g>
     </g>
    </g>
    <g id="ytick_4">
     <g id="line2d_15">
      <g>
       <use style="stroke:#000000;stroke-width:0.8;" x="46.965625" xlink:href="#m70359bac3d" y="85.777964"/>
      </g>
     </g>
     <g id="text_16">
      <!-- 31 -->
      <g transform="translate(27.240625 89.577183)scale(0.1 -0.1)">
       <use xlink:href="#DejaVuSans-33"/>
       <use x="63.623047" xlink:href="#DejaVuSans-31"/>
      </g>
     </g>
    </g>
    <g id="ytick_5">
     <g id="line2d_16">
      <g>
       <use style="stroke:#000000;stroke-width:0.8;" x="46.965625" xlink:href="#m70359bac3d" y="38.050619"/>
      </g>
     </g>
     <g id="text_17">
      <!-- 100 -->
      <g transform="translate(20.878125 41.849838)scale(0.1 -0.1)">
       <use xlink:href="#DejaVuSans-31"/>
       <use x="63.623047" xlink:href="#DejaVuSans-30"/>
       <use x="127.246094" xlink:href="#DejaVuSans-30"/>
      </g>
     </g>
    </g>
    <g id="text_18">
     <!-- Count (7 day rolling average) -->
     <g transform="translate(14.798438 191.547969)rotate(-90)scale(0.1 -0.1)">
      <defs>
       <path d="M 4122 4306 
L 4122 3641 
Q 3803 3938 3442 4084 
Q 3081 4231 2675 4231 
Q 1875 4231 1450 3742 
Q 1025 3253 1025 2328 
Q 1025 1406 1450 917 
Q 1875 428 2675 428 
Q 3081 428 3442 575 
Q 3803 722 4122 1019 
L 4122 359 
Q 3791 134 3420 21 
Q 3050 -91 2638 -91 
Q 1578 -91 968 557 
Q 359 1206 359 2328 
Q 359 3453 968 4101 
Q 1578 4750 2638 4750 
Q 3056 4750 3426 4639 
Q 3797 4528 4122 4306 
z
" id="DejaVuSans-43" transform="scale(0.015625)"/>
       <path d="M 1959 3097 
Q 1497 3097 1228 2736 
Q 959 2375 959 1747 
Q 959 1119 1226 758 
Q 1494 397 1959 397 
Q 2419 397 2687 759 
Q 2956 1122 2956 1747 
Q 2956 2369 2687 2733 
Q 2419 3097 1959 3097 
z
M 1959 3584 
Q 2709 3584 3137 3096 
Q 3566 2609 3566 1747 
Q 3566 888 3137 398 
Q 2709 -91 1959 -91 
Q 1206 -91 779 398 
Q 353 888 353 1747 
Q 353 2609 779 3096 
Q 1206 3584 1959 3584 
z
" id="DejaVuSans-6f" transform="scale(0.015625)"/>
       <path d="M 544 1381 
L 544 3500 
L 1119 3500 
L 1119 1403 
Q 1119 906 1312 657 
Q 1506 409 1894 409 
Q 2359 409 2629 706 
Q 2900 1003 2900 1516 
L 2900 3500 
L 3475 3500 
L 3475 0 
L 2900 0 
L 2900 538 
Q 2691 219 2414 64 
Q 2138 -91 1772 -91 
Q 1169 -91 856 284 
Q 544 659 544 1381 
z
M 1991 3584 
L 1991 3584 
z
" id="DejaVuSans-75" transform="scale(0.015625)"/>
       <path d="M 3513 2113 
L 3513 0 
L 2938 0 
L 2938 2094 
Q 2938 2591 2744 2837 
Q 2550 3084 2163 3084 
Q 1697 3084 1428 2787 
Q 1159 2491 1159 1978 
L 1159 0 
L 581 0 
L 581 3500 
L 1159 3500 
L 1159 2956 
Q 1366 3272 1645 3428 
Q 1925 3584 2291 3584 
Q 2894 3584 3203 3211 
Q 3513 2838 3513 2113 
z
" id="DejaVuSans-6e" transform="scale(0.015625)"/>
       <path id="DejaVuSans-20" transform="scale(0.015625)"/>
       <path d="M 1984 4856 
Q 1566 4138 1362 3434 
Q 1159 2731 1159 2009 
Q 1159 1288 1364 580 
Q 1569 -128 1984 -844 
L 1484 -844 
Q 1016 -109 783 600 
Q 550 1309 550 2009 
Q 550 2706 781 3412 
Q 1013 4119 1484 4856 
L 1984 4856 
z
" id="DejaVuSans-28" transform="scale(0.015625)"/>
       <path d="M 2906 2969 
L 2906 4863 
L 3481 4863 
L 3481 0 
L 2906 0 
L 2906 525 
Q 2725 213 2448 61 
Q 2172 -91 1784 -91 
Q 1150 -91 751 415 
Q 353 922 353 1747 
Q 353 2572 751 3078 
Q 1150 3584 1784 3584 
Q 2172 3584 2448 3432 
Q 2725 3281 2906 2969 
z
M 947 1747 
Q 947 1113 1208 752 
Q 1469 391 1925 391 
Q 2381 391 2643 752 
Q 2906 1113 2906 1747 
Q 2906 2381 2643 2742 
Q 2381 3103 1925 3103 
Q 1469 3103 1208 2742 
Q 947 2381 947 1747 
z
" id="DejaVuSans-64" transform="scale(0.015625)"/>
       <path d="M 2059 -325 
Q 1816 -950 1584 -1140 
Q 1353 -1331 966 -1331 
L 506 -1331 
L 506 -850 
L 844 -850 
Q 1081 -850 1212 -737 
Q 1344 -625 1503 -206 
L 1606 56 
L 191 3500 
L 800 3500 
L 1894 763 
L 2988 3500 
L 3597 3500 
L 2059 -325 
z
" id="DejaVuSans-79" transform="scale(0.015625)"/>
       <path d="M 2631 2963 
Q 2534 3019 2420 3045 
Q 2306 3072 2169 3072 
Q 1681 3072 1420 2755 
Q 1159 2438 1159 1844 
L 1159 0 
L 581 0 
L 581 3500 
L 1159 3500 
L 1159 2956 
Q 1341 3275 1631 3429 
Q 1922 3584 2338 3584 
Q 2397 3584 2469 3576 
Q 2541 3569 2628 3553 
L 2631 2963 
z
" id="DejaVuSans-72" transform="scale(0.015625)"/>
       <path d="M 603 4863 
L 1178 4863 
L 1178 0 
L 603 0 
L 603 4863 
z
" id="DejaVuSans-6c" transform="scale(0.015625)"/>
       <path d="M 603 3500 
L 1178 3500 
L 1178 0 
L 603 0 
L 603 3500 
z
M 603 4863 
L 1178 4863 
L 1178 4134 
L 603 4134 
L 603 4863 
z
" id="DejaVuSans-69" transform="scale(0.015625)"/>
       <path d="M 2906 1791 
Q 2906 2416 2648 2759 
Q 2391 3103 1925 3103 
Q 1463 3103 1205 2759 
Q 947 2416 947 1791 
Q 947 1169 1205 825 
Q 1463 481 1925 481 
Q 2391 481 2648 825 
Q 2906 1169 2906 1791 
z
M 3481 434 
Q 3481 -459 3084 -895 
Q 2688 -1331 1869 -1331 
Q 1566 -1331 1297 -1286 
Q 1028 -1241 775 -1147 
L 775 -588 
Q 1028 -725 1275 -790 
Q 1522 -856 1778 -856 
Q 2344 -856 2625 -561 
Q 2906 -266 2906 331 
L 2906 616 
Q 2728 306 2450 153 
Q 2172 0 1784 0 
Q 1141 0 747 490 
Q 353 981 353 1791 
Q 353 2603 747 3093 
Q 1141 3584 1784 3584 
Q 2172 3584 2450 3431 
Q 2728 3278 2906 2969 
L 2906 3500 
L 3481 3500 
L 3481 434 
z
" id="DejaVuSans-67" transform="scale(0.015625)"/>
       <path d="M 191 3500 
L 800 3500 
L 1894 563 
L 2988 3500 
L 3597 3500 
L 2284 0 
L 1503 0 
L 191 3500 
z
" id="DejaVuSans-76" transform="scale(0.015625)"/>
       <path d="M 513 4856 
L 1013 4856 
Q 1481 4119 1714 3412 
Q 1947 2706 1947 2009 
Q 1947 1309 1714 600 
Q 1481 -109 1013 -844 
L 513 -844 
Q 928 -128 1133 580 
Q 1338 1288 1338 2009 
Q 1338 2731 1133 3434 
Q 928 4138 513 4856 
z
" id="DejaVuSans-29" transform="scale(0.015625)"/>
      </defs>
      <use xlink:href="#DejaVuSans-43"/>
      <use x="69.824219" xlink:href="#DejaVuSans-6f"/>
      <use x="131.005859" xlink:href="#DejaVuSans-75"/>
      <use x="194.384766" xlink:href="#DejaVuSans-6e"/>
      <use x="257.763672" xlink:href="#DejaVuSans-74"/>
      <use x="296.972656" xlink:href="#DejaVuSans-20"/>
      <use x="328.759766" xlink:href="#DejaVuSans-28"/>
      <use x="367.773438" xlink:href="#DejaVuSans-37"/>
      <use x="431.396484" xlink:href="#DejaVuSans-20"/>
      <use x="463.183594" xlink:href="#DejaVuSans-64"/>
      <use x="526.660156" xlink:href="#DejaVuSans-61"/>
      <use x="587.939453" xlink:href="#DejaVuSans-79"/>
      <use x="647.119141" xlink:href="#DejaVuSans-20"/>
      <use x="678.90625" xlink:href="#DejaVuSans-72"/>
      <use x="717.769531" xlink:href="#DejaVuSans-6f"/>
      <use x="778.951172" xlink:href="#DejaVuSans-6c"/>
      <use x="806.734375" xlink:href="#DejaVuSans-6c"/>
      <use x="834.517578" xlink:href="#DejaVuSans-69"/>
      <use x="862.300781" xlink:href="#DejaVuSans-6e"/>
      <use x="925.679688" xlink:href="#DejaVuSans-67"/>
      <use x="989.15625" xlink:href="#DejaVuSans-20"/>
      <use x="1020.943359" xlink:href="#DejaVuSans-61"/>
      <use x="1082.222656" xlink:href="#DejaVuSans-76"/>
      <use x="1141.402344" xlink:href="#DejaVuSans-65"/>
      <use x="1202.925781" xlink:href="#DejaVuSans-72"/>
      <use x="1244.039062" xlink:href="#DejaVuSans-61"/>
      <use x="1305.318359" xlink:href="#DejaVuSans-67"/>
      <use x="1368.794922" xlink:href="#DejaVuSans-65"/>
      <use x="1430.318359" xlink:href="#DejaVuSans-29"/>
     </g>
    </g>
   </g>
   <g id="line2d_17">
    <path clip-path="url(#p0fca96aac9)" d="M 309.635613 218.541648 
L 313.110083 223.424397 
L 320.059025 223.424397 
L 323.533495 228.96 
L 445.139971 228.96 
L 448.614442 223.424397 
L 452.088913 223.424397 
L 455.563383 218.541648 
L 469.461266 218.541648 
L 472.935737 223.424397 
L 476.410208 223.424397 
L 479.884679 218.541648 
L 483.359149 203.297454 
L 486.83362 200.225275 
L 490.308091 183.416538 
L 493.782561 179.645263 
L 497.257032 174.562729 
L 500.731503 171.49055 
L 507.680444 174.562729 
L 511.154915 171.49055 
L 514.629386 181.48803 
L 518.103857 185.439156 
L 521.578327 172.998187 
L 525.052798 168.63042 
L 528.527269 168.63042 
L 532.00174 172.998187 
L 535.47621 170.035824 
L 538.950681 170.035824 
L 542.425152 155.680788 
L 545.899623 167.271103 
L 549.374093 167.271103 
L 552.848564 164.679294 
L 556.323035 163.441726 
L 559.797505 168.63042 
L 563.271976 165.954946 
L 566.746447 172.998187 
L 570.220918 171.49055 
L 573.695388 176.188641 
L 577.169859 181.48803 
L 580.64433 183.416538 
L 584.118801 181.48803 
L 587.593271 176.188641 
L 591.067742 181.48803 
L 594.542213 161.072198 
L 598.016684 149.14621 
L 604.965625 145.828004 
L 608.440096 139.210465 
L 611.914566 119.556703 
L 615.389037 118.719191 
L 622.337979 130.096092 
L 625.812449 128.491165 
L 629.28692 123.550152 
L 632.761391 101.910454 
L 636.235862 114.768065 
L 639.710332 114.3929 
L 643.184803 91.893238 
L 646.659274 90.611008 
L 650.133745 91.247166 
L 653.608215 93.441087 
L 657.082686 107.209843 
L 660.557157 103.315858 
L 664.031627 101.910454 
L 667.506098 130.096092 
L 670.980569 130.645179 
L 674.45504 128.491165 
L 677.92951 120.411485 
L 681.403981 116.303627 
L 684.878452 115.146656 
L 688.352923 112.566373 
L 691.827393 108.485496 
L 695.301864 103.891637 
L 698.776335 102.747966 
L 702.250806 106.278221 
L 705.725276 108.810639 
L 709.199747 109.138351 
L 712.674218 96.966336 
L 716.148689 96.236896 
L 719.623159 96.236896 
L 723.09763 93.216396 
L 726.572101 94.122562 
L 730.046571 87.764909 
L 733.521042 82.082214 
L 736.995513 84.917879 
L 740.469984 82.082214 
L 743.944454 76.184179 
L 747.418925 74.013241 
L 750.893396 71.417159 
L 754.367867 74.154486 
L 757.842337 73.314145 
L 761.316808 77.69732 
L 764.791279 75.156912 
L 768.26575 76.482421 
L 771.74022 76.782824 
L 775.214691 76.333032 
L 778.689162 69.985275 
L 782.163632 66.667069 
L 785.638103 60.024367 
L 789.112574 60.734759 
L 792.587045 64.593864 
L 796.061515 67.381835 
L 799.535986 69.476613 
L 803.010457 73.872476 
L 806.484928 85.845333 
L 809.959398 99.234981 
L 813.433869 110.47574 
L 816.90834 112.566373 
L 820.382811 111.857716 
L 823.857281 112.21053 
L 827.331752 126.946063 
L 830.806223 125.947088 
L 834.280693 126.443566 
L 837.755164 122.175812 
L 841.229635 120.845577 
L 844.704106 122.175812 
L 848.178576 121.284263 
L 855.127518 109.801653 
L 858.601989 107.525095 
L 862.076459 106.586442 
L 865.55093 109.138351 
L 869.025401 101.089527 
L 872.499872 99.75644 
L 875.974342 102.187749 
L 879.448813 107.842763 
L 882.923284 111.857716 
L 886.397755 116.696573 
L 889.872225 115.914371 
L 893.346696 127.969706 
L 896.821167 130.096092 
L 900.295637 128.491165 
L 903.770108 129.019267 
L 907.244579 127.454725 
L 910.71905 128.491165 
L 914.19352 124.01858 
L 917.667991 127.454725 
L 921.142462 130.645179 
L 924.616933 136.577488 
L 928.091403 137.220221 
L 931.565874 135.944569 
L 938.514816 139.895694 
L 941.989286 139.210465 
L 945.463757 136.577488 
L 948.938228 142.022081 
L 952.412698 144.263462 
L 955.887169 150.910538 
L 959.36164 144.263462 
L 962.836111 150.018988 
L 966.310581 150.910538 
L 969.785052 152.753305 
L 973.259523 146.632989 
L 976.733994 138.536378 
L 980.208464 135.944569 
L 983.682935 138.536378 
L 987.157406 140.592441 
L 990.631877 141.301098 
L 994.106347 145.828004 
L 997.580818 147.453916 
L 1001.055289 153.706346 
L 1004.529759 161.072198 
L 1008.00423 162.240034 
L 1011.478701 157.753992 
L 1014.953172 157.753992 
L 1018.427642 155.680788 
L 1021.902113 155.680788 
L 1025.376584 158.830817 
L 1028.851055 162.240034 
L 1032.325525 172.998187 
L 1035.799996 181.48803 
L 1039.274467 183.416538 
L 1042.748938 187.565543 
L 1046.223408 192.176451 
L 1049.697879 194.689672 
L 1053.17235 197.365145 
L 1056.646821 194.689672 
L 1060.121291 197.365145 
L 1063.595762 203.297454 
L 1067.070233 200.225275 
L 1070.544703 203.297454 
L 1074.019174 206.61566 
L 1077.493645 203.297454 
L 1080.968116 206.61566 
L 1087.917057 206.61566 
L 1091.391528 210.222755 
L 1094.865999 218.541648 
L 1098.340469 223.424397 
L 1101.81494 228.96 
L 1105.289411 228.96 
L 1108.763882 223.424397 
L 1108.763882 223.424397 
" style="fill:none;stroke:#947383;stroke-linecap:square;stroke-width:2;"/>
   </g>
   <g id="line2d_18">
    <path clip-path="url(#p0fca96aac9)" d="M 438.19103 200.225275 
L 441.6655 197.365145 
L 445.139971 189.806923 
L 448.614442 187.565543 
L 452.088913 183.416538 
L 455.563383 185.439156 
L 459.037854 185.439156 
L 462.512325 187.565543 
L 465.986796 185.439156 
L 469.461266 189.806923 
L 472.935737 187.565543 
L 476.410208 192.176451 
L 479.884679 183.416538 
L 483.359149 179.645263 
L 486.83362 171.49055 
L 490.308091 167.271103 
L 493.782561 168.63042 
L 497.257032 168.63042 
L 500.731503 161.072198 
L 504.205974 164.679294 
L 507.680444 163.441726 
L 511.154915 163.441726 
L 514.629386 165.954946 
L 518.103857 164.679294 
L 521.578327 167.271103 
L 525.052798 170.035824 
L 528.527269 170.035824 
L 532.00174 172.998187 
L 535.47621 171.49055 
L 538.950681 168.63042 
L 542.425152 161.072198 
L 545.899623 156.704431 
L 549.374093 155.680788 
L 556.323035 151.821683 
L 563.271976 151.821683 
L 566.746447 154.681813 
L 573.695388 158.830817 
L 577.169859 158.830817 
L 580.64433 159.936362 
L 584.118801 167.271103 
L 587.593271 167.271103 
L 591.067742 168.63042 
L 594.542213 167.271103 
L 598.016684 164.679294 
L 601.491154 170.035824 
L 604.965625 171.49055 
L 608.440096 167.271103 
L 611.914566 176.188641 
L 615.389037 172.998187 
L 618.863508 176.188641 
L 622.337979 179.645263 
L 625.812449 179.645263 
L 629.28692 174.562729 
L 632.761391 171.49055 
L 636.235862 167.271103 
L 639.710332 165.954946 
L 643.184803 163.441726 
L 646.659274 164.679294 
L 650.133745 163.441726 
L 653.608215 165.954946 
L 660.557157 168.63042 
L 664.031627 172.998187 
L 667.506098 177.880935 
L 670.980569 177.880935 
L 674.45504 179.645263 
L 677.92951 177.880935 
L 681.403981 185.439156 
L 684.878452 181.48803 
L 688.352923 174.562729 
L 691.827393 172.998187 
L 695.301864 168.63042 
L 698.776335 165.954946 
L 702.250806 168.63042 
L 705.725276 161.072198 
L 709.199747 162.240034 
L 712.674218 153.706346 
L 716.148689 150.018988 
L 719.623159 153.706346 
L 726.572101 151.821683 
L 730.046571 157.753992 
L 733.521042 158.830817 
L 736.995513 174.562729 
L 740.469984 170.035824 
L 743.944454 164.679294 
L 747.418925 161.072198 
L 750.893396 156.704431 
L 754.367867 145.038352 
L 757.842337 145.038352 
L 761.316808 142.022081 
L 764.791279 145.828004 
L 768.26575 146.632989 
L 771.74022 140.592441 
L 775.214691 141.301098 
L 778.689162 145.038352 
L 782.163632 143.50279 
L 785.638103 140.592441 
L 789.112574 137.873076 
L 792.587045 137.220221 
L 796.061515 145.828004 
L 799.535986 145.038352 
L 803.010457 147.453916 
L 806.484928 146.632989 
L 809.959398 153.706346 
L 813.433869 157.753992 
L 816.90834 157.753992 
L 820.382811 150.910538 
L 823.857281 150.018988 
L 827.331752 153.706346 
L 830.806223 156.704431 
L 834.280693 145.828004 
L 837.755164 143.50279 
L 841.229635 142.755825 
L 844.704106 145.828004 
L 848.178576 151.821683 
L 851.653047 150.910538 
L 855.127518 146.632989 
L 858.601989 154.681813 
L 862.076459 161.072198 
L 865.55093 154.681813 
L 869.025401 155.680788 
L 872.499872 149.14621 
L 879.448813 152.753305 
L 882.923284 154.681813 
L 886.397755 154.681813 
L 889.872225 163.441726 
L 893.346696 164.679294 
L 896.821167 172.998187 
L 900.295637 165.954946 
L 903.770108 157.753992 
L 907.244579 159.936362 
L 910.71905 154.681813 
L 917.667991 158.830817 
L 921.142462 154.681813 
L 924.616933 156.704431 
L 928.091403 167.271103 
L 931.565874 163.441726 
L 935.040345 165.954946 
L 938.514816 165.954946 
L 941.989286 157.753992 
L 948.938228 162.240034 
L 952.412698 162.240034 
L 955.887169 164.679294 
L 959.36164 168.63042 
L 962.836111 171.49055 
L 966.310581 185.439156 
L 969.785052 192.176451 
L 973.259523 194.689672 
L 976.733994 203.297454 
L 980.208464 210.222755 
L 983.682935 214.173881 
L 987.157406 218.541648 
L 990.631877 214.173881 
L 994.106347 210.222755 
L 997.580818 206.61566 
L 1001.055289 192.176451 
L 1004.529759 194.689672 
L 1008.00423 192.176451 
L 1014.953172 192.176451 
L 1018.427642 194.689672 
L 1021.902113 197.365145 
L 1025.376584 210.222755 
L 1028.851055 203.297454 
L 1032.325525 203.297454 
L 1035.799996 197.365145 
L 1039.274467 194.689672 
L 1042.748938 192.176451 
L 1049.697879 187.565543 
L 1053.17235 187.565543 
L 1056.646821 185.439156 
L 1060.121291 187.565543 
L 1063.595762 192.176451 
L 1067.070233 194.689672 
L 1070.544703 200.225275 
L 1074.019174 206.61566 
L 1077.493645 214.173881 
L 1080.968116 223.424397 
L 1084.442586 228.96 
L 1094.865999 228.96 
L 1098.340469 218.541648 
L 1101.81494 214.173881 
L 1105.289411 210.222755 
L 1105.289411 210.222755 
" style="fill:none;stroke:#96c6ad;stroke-linecap:square;stroke-width:2;"/>
   </g>
   <g id="line2d_19">
    <path clip-path="url(#p0fca96aac9)" d="M 333.956908 218.541648 
L 337.431378 223.424397 
L 347.854791 223.424397 
L 351.329261 228.96 
L 434.716559 228.96 
L 438.19103 223.424397 
L 441.6655 218.541648 
L 452.088913 218.541648 
L 455.563383 214.173881 
L 459.037854 206.61566 
L 462.512325 203.297454 
L 465.986796 194.689672 
L 469.461266 192.176451 
L 472.935737 185.439156 
L 479.884679 185.439156 
L 483.359149 183.416538 
L 486.83362 174.562729 
L 490.308091 168.63042 
L 493.782561 167.271103 
L 497.257032 171.49055 
L 500.731503 170.035824 
L 504.205974 163.441726 
L 507.680444 161.072198 
L 511.154915 162.240034 
L 514.629386 168.63042 
L 518.103857 162.240034 
L 521.578327 158.830817 
L 525.052798 155.680788 
L 528.527269 157.753992 
L 532.00174 156.704431 
L 535.47621 150.910538 
L 538.950681 142.755825 
L 542.425152 126.946063 
L 545.899623 113.652604 
L 549.374093 110.47574 
L 552.848564 106.278221 
L 556.323035 105.067757 
L 559.797505 99.75644 
L 563.271976 98.211338 
L 566.746447 98.464889 
L 570.220918 104.182554 
L 573.695388 101.635002 
L 577.169859 104.182554 
L 580.64433 104.770584 
L 587.593271 96.478619 
L 591.067742 90.821978 
L 594.542213 88.358553 
L 598.016684 83.475805 
L 601.491154 79.428159 
L 604.965625 78.475118 
L 608.440096 79.589151 
L 615.389037 76.333032 
L 618.863508 70.890734 
L 622.337979 68.477638 
L 625.812449 67.987035 
L 629.28692 67.743894 
L 632.761391 60.734759 
L 636.235862 55.275997 
L 639.710332 54.125612 
L 643.184803 52.836737 
L 646.659274 51.016046 
L 650.133745 50.373313 
L 653.608215 50.453112 
L 657.082686 47.301134 
L 660.557157 47.598307 
L 664.031627 47.079644 
L 667.506098 45.278516 
L 670.980569 45.278516 
L 674.45504 45.989605 
L 677.92951 44.787913 
L 681.403981 43.417361 
L 684.878452 43.148605 
L 688.352923 39.804648 
L 691.827393 38.707234 
L 695.301864 36.424707 
L 702.250806 34.860165 
L 705.725276 32.20526 
L 709.199747 27.632267 
L 712.674218 27.586231 
L 716.148689 28.705456 
L 723.09763 29.324561 
L 726.572101 28.847508 
L 730.046571 28.095461 
L 733.521042 29.037671 
L 736.995513 29.133081 
L 740.469984 26.992369 
L 743.944454 25.303704 
L 747.418925 22.975323 
L 750.893396 22.729052 
L 754.367867 22.606463 
L 757.842337 19.882565 
L 761.316808 18.197914 
L 764.791279 18.124606 
L 768.26575 17.76 
L 771.74022 18.381752 
L 775.214691 18.014887 
L 778.689162 18.529412 
L 782.163632 21.281382 
L 785.638103 22.769996 
L 789.112574 22.647286 
L 792.587045 24.56996 
L 796.061515 25.260181 
L 799.535986 26.362198 
L 803.010457 25.609649 
L 806.484928 23.639288 
L 809.959398 24.399185 
L 816.90834 27.909562 
L 820.382811 28.002408 
L 823.857281 27.816924 
L 827.331752 34.695984 
L 830.806223 39.496886 
L 834.280693 41.059069 
L 837.755164 42.090673 
L 841.229635 41.895282 
L 844.704106 42.352636 
L 848.178576 43.282765 
L 851.653047 39.130561 
L 855.127518 36.9404 
L 858.601989 37.229692 
L 862.076459 38.288186 
L 869.025401 38.827744 
L 872.499872 39.866476 
L 875.974342 41.122798 
L 879.448813 46.494725 
L 882.923284 46.932639 
L 886.397755 47.822593 
L 889.872225 49.89772 
L 893.346696 50.055645 
L 896.821167 48.5791 
L 900.295637 48.962595 
L 903.770108 47.822593 
L 907.244579 49.34967 
L 910.71905 48.502825 
L 914.19352 49.039721 
L 921.142462 51.751236 
L 924.616933 53.691519 
L 928.091403 53.691519 
L 931.565874 53.261925 
L 935.040345 55.546066 
L 938.514816 55.186363 
L 941.989286 55.096923 
L 945.463757 55.727094 
L 948.938228 59.030184 
L 952.412698 57.677206 
L 955.887169 60.226097 
L 959.36164 61.981634 
L 962.836111 63.376127 
L 966.310581 63.376127 
L 969.785052 63.59489 
L 973.259523 67.865286 
L 976.733994 78.79037 
L 980.208464 82.253872 
L 983.682935 85.471858 
L 987.157406 88.960822 
L 990.631877 93.441087 
L 994.106347 95.520069 
L 997.580818 101.635002 
L 1001.055289 98.211338 
L 1004.529759 98.976691 
L 1008.00423 97.212363 
L 1011.478701 98.976691 
L 1014.953172 99.494891 
L 1018.427642 97.959328 
L 1021.902113 95.996574 
L 1025.376584 106.896971 
L 1028.851055 112.566373 
L 1032.325525 117.093279 
L 1035.799996 118.719191 
L 1039.274467 119.135832 
L 1042.748938 122.175812 
L 1046.223408 122.175812 
L 1049.697879 117.493817 
L 1053.17235 118.719191 
L 1056.646821 116.696573 
L 1060.121291 119.556703 
L 1063.595762 120.845577 
L 1067.070233 122.628882 
L 1070.544703 129.019267 
L 1074.019174 145.828004 
L 1077.493645 150.018988 
L 1080.968116 156.704431 
L 1084.442586 156.704431 
L 1087.917057 159.936362 
L 1091.391528 159.936362 
L 1094.865999 177.880935 
L 1098.340469 165.954946 
L 1101.81494 168.63042 
L 1105.289411 176.188641 
L 1108.763882 185.439156 
L 1112.238352 183.416538 
L 1112.238352 183.416538 
" style="fill:none;stroke:#525886;stroke-linecap:square;stroke-width:2;"/>
   </g>
   <g id="line2d_20">
    <path clip-path="url(#p0fca96aac9)" d="M 476.410208 200.225275 
L 479.884679 203.297454 
L 483.359149 203.297454 
L 486.83362 206.61566 
L 490.308091 210.222755 
L 493.782561 210.222755 
L 497.257032 218.541648 
L 500.731503 214.173881 
L 504.205974 210.222755 
L 507.680444 206.61566 
L 511.154915 210.222755 
L 514.629386 206.61566 
L 518.103857 197.365145 
L 525.052798 197.365145 
L 528.527269 194.689672 
L 532.00174 192.176451 
L 535.47621 192.176451 
L 542.425152 187.565543 
L 545.899623 181.48803 
L 549.374093 179.645263 
L 552.848564 181.48803 
L 556.323035 185.439156 
L 559.797505 185.439156 
L 563.271976 183.416538 
L 566.746447 179.645263 
L 570.220918 176.188641 
L 573.695388 181.48803 
L 577.169859 183.416538 
L 580.64433 181.48803 
L 584.118801 176.188641 
L 587.593271 168.63042 
L 591.067742 168.63042 
L 594.542213 170.035824 
L 598.016684 164.679294 
L 601.491154 158.830817 
L 604.965625 159.936362 
L 608.440096 155.680788 
L 611.914566 157.753992 
L 615.389037 158.830817 
L 618.863508 161.072198 
L 622.337979 161.072198 
L 625.812449 167.271103 
L 629.28692 163.441726 
L 632.761391 165.954946 
L 636.235862 165.954946 
L 639.710332 161.072198 
L 643.184803 152.753305 
L 646.659274 145.038352 
L 650.133745 140.592441 
L 657.082686 140.592441 
L 660.557157 138.536378 
L 664.031627 142.022081 
L 670.980569 152.753305 
L 674.45504 152.753305 
L 677.92951 153.706346 
L 681.403981 146.632989 
L 684.878452 147.453916 
L 688.352923 145.828004 
L 691.827393 142.022081 
L 695.301864 138.536378 
L 698.776335 137.220221 
L 702.250806 133.505309 
L 705.725276 131.201636 
L 709.199747 128.491165 
L 712.674218 126.443566 
L 716.148689 126.443566 
L 719.623159 128.491165 
L 723.09763 126.946063 
L 726.572101 126.443566 
L 730.046571 126.443566 
L 733.521042 122.628882 
L 740.469984 121.727641 
L 743.944454 118.306695 
L 747.418925 116.696573 
L 754.367867 118.306695 
L 761.316808 116.696573 
L 764.791279 111.160969 
L 768.26575 107.525095 
L 771.74022 106.278221 
L 775.214691 103.315858 
L 778.689162 98.464889 
L 782.163632 100.01965 
L 785.638103 95.283855 
L 789.112574 94.583183 
L 792.587045 93.441087 
L 796.061515 91.893238 
L 799.535986 90.821978 
L 803.010457 87.568902 
L 806.484928 85.286374 
L 809.959398 84.371206 
L 813.433869 81.402601 
L 820.382811 83.122991 
L 823.857281 85.471858 
L 827.331752 88.759092 
L 830.806223 89.163539 
L 834.280693 87.373817 
L 837.755164 86.602531 
L 841.229635 85.471858 
L 848.178576 79.750771 
L 851.653047 76.632351 
L 855.127518 75.156912 
L 858.601989 76.035859 
L 862.076459 76.632351 
L 865.55093 76.632351 
L 869.025401 77.23755 
L 872.499872 78.9489 
L 875.974342 79.428159 
L 879.448813 80.403626 
L 882.923284 80.568459 
L 886.397755 83.299023 
L 889.872225 84.371206 
L 893.346696 88.960822 
L 896.821167 89.57197 
L 900.295637 91.247166 
L 903.770108 90.611008 
L 907.244579 91.67676 
L 914.19352 87.961848 
L 917.667991 84.734853 
L 921.142462 84.552631 
L 924.616933 83.831648 
L 928.091403 85.286374 
L 931.565874 85.845333 
L 935.040345 87.961848 
L 938.514816 89.367252 
L 941.989286 92.549538 
L 945.463757 93.667003 
L 948.938228 100.01965 
L 955.887169 108.810639 
L 959.36164 112.566373 
L 962.836111 117.898264 
L 966.310581 115.914371 
L 969.785052 116.696573 
L 973.259523 118.306695 
L 976.733994 117.898264 
L 980.208464 118.719191 
L 983.682935 119.135832 
L 987.157406 121.727641 
L 990.631877 124.01858 
L 994.106347 126.946063 
L 997.580818 127.454725 
L 1001.055289 129.019267 
L 1004.529759 135.944569 
L 1008.00423 142.022081 
L 1011.478701 145.828004 
L 1014.953172 149.14621 
L 1018.427642 149.14621 
L 1021.902113 161.072198 
L 1025.376584 165.954946 
L 1028.851055 165.954946 
L 1032.325525 172.998187 
L 1035.799996 172.998187 
L 1039.274467 183.416538 
L 1042.748938 181.48803 
L 1046.223408 185.439156 
L 1053.17235 189.806923 
L 1056.646821 189.806923 
L 1060.121291 200.225275 
L 1063.595762 203.297454 
L 1067.070233 206.61566 
L 1070.544703 203.297454 
L 1074.019174 214.173881 
L 1077.493645 223.424397 
L 1080.968116 218.541648 
L 1091.391528 218.541648 
L 1094.865999 223.424397 
L 1105.289411 223.424397 
L 1105.289411 223.424397 
" style="fill:none;stroke:#937252;stroke-linecap:square;stroke-width:2;"/>
   </g>
   <g id="line2d_21">
    <path clip-path="url(#p0fca96aac9)" d="M 500.731503 210.222755 
L 504.205974 214.173881 
L 507.680444 214.173881 
L 511.154915 206.61566 
L 514.629386 214.173881 
L 518.103857 203.297454 
L 521.578327 206.61566 
L 525.052798 200.225275 
L 528.527269 197.365145 
L 532.00174 197.365145 
L 535.47621 200.225275 
L 538.950681 194.689672 
L 542.425152 203.297454 
L 545.899623 197.365145 
L 549.374093 197.365145 
L 552.848564 200.225275 
L 556.323035 194.689672 
L 559.797505 194.689672 
L 563.271976 200.225275 
L 566.746447 200.225275 
L 570.220918 206.61566 
L 573.695388 210.222755 
L 577.169859 210.222755 
L 580.64433 214.173881 
L 584.118801 214.173881 
L 587.593271 206.61566 
L 591.067742 203.297454 
L 594.542213 200.225275 
L 598.016684 203.297454 
L 601.491154 203.297454 
L 604.965625 206.61566 
L 608.440096 210.222755 
L 611.914566 218.541648 
L 615.389037 218.541648 
L 618.863508 223.424397 
L 622.337979 218.541648 
L 625.812449 218.541648 
L 629.28692 214.173881 
L 643.184803 214.173881 
L 646.659274 218.541648 
L 650.133745 218.541648 
L 653.608215 223.424397 
L 660.557157 223.424397 
L 664.031627 228.96 
L 670.980569 228.96 
L 674.45504 223.424397 
L 677.92951 223.424397 
L 681.403981 218.541648 
L 695.301864 218.541648 
L 698.776335 223.424397 
L 702.250806 223.424397 
L 705.725276 228.96 
L 709.199747 223.424397 
L 712.674218 214.173881 
L 719.623159 214.173881 
L 723.09763 206.61566 
L 726.572101 206.61566 
L 730.046571 203.297454 
L 733.521042 200.225275 
L 736.995513 206.61566 
L 743.944454 206.61566 
L 747.418925 214.173881 
L 754.367867 214.173881 
L 757.842337 223.424397 
L 761.316808 223.424397 
L 764.791279 218.541648 
L 768.26575 210.222755 
L 775.214691 210.222755 
L 778.689162 214.173881 
L 782.163632 210.222755 
L 785.638103 206.61566 
L 789.112574 210.222755 
L 792.587045 214.173881 
L 796.061515 210.222755 
L 803.010457 210.222755 
L 806.484928 214.173881 
L 809.959398 218.541648 
L 813.433869 218.541648 
L 816.90834 223.424397 
L 820.382811 228.96 
L 823.857281 223.424397 
L 827.331752 218.541648 
L 830.806223 214.173881 
L 837.755164 214.173881 
L 841.229635 210.222755 
L 844.704106 206.61566 
L 848.178576 206.61566 
L 851.653047 210.222755 
L 862.076459 210.222755 
L 865.55093 214.173881 
L 879.448813 214.173881 
L 882.923284 210.222755 
L 886.397755 210.222755 
L 889.872225 203.297454 
L 893.346696 206.61566 
L 910.71905 206.61566 
L 914.19352 214.173881 
L 917.667991 210.222755 
L 921.142462 214.173881 
L 924.616933 214.173881 
L 928.091403 218.541648 
L 931.565874 223.424397 
L 938.514816 223.424397 
L 941.989286 228.96 
L 945.463757 228.96 
L 948.938228 218.541648 
L 969.785052 218.541648 
L 973.259523 223.424397 
L 976.733994 218.541648 
L 980.208464 218.541648 
L 983.682935 214.173881 
L 990.631877 214.173881 
L 994.106347 210.222755 
L 997.580818 214.173881 
L 1001.055289 218.541648 
L 1004.529759 218.541648 
L 1008.00423 223.424397 
L 1014.953172 223.424397 
L 1018.427642 228.96 
L 1035.799996 228.96 
L 1039.274467 223.424397 
L 1042.748938 223.424397 
L 1046.223408 218.541648 
L 1049.697879 210.222755 
L 1063.595762 210.222755 
L 1067.070233 206.61566 
L 1070.544703 210.222755 
L 1074.019174 218.541648 
L 1077.493645 214.173881 
L 1080.968116 210.222755 
L 1080.968116 210.222755 
" style="fill:none;stroke:#d18cad;stroke-linecap:square;stroke-width:2;"/>
   </g>
   <g id="line2d_22">
    <path clip-path="url(#p0fca96aac9)" d="M 97.692898 172.998187 
L 101.167368 176.188641 
L 104.641839 171.49055 
L 108.11631 168.63042 
L 115.065251 165.954946 
L 118.539722 165.954946 
L 122.014193 167.271103 
L 125.488664 162.240034 
L 128.963134 162.240034 
L 132.437605 159.936362 
L 135.912076 155.680788 
L 139.386547 154.681813 
L 142.861017 154.681813 
L 146.335488 151.821683 
L 149.809959 156.704431 
L 153.284429 158.830817 
L 160.233371 172.998187 
L 167.182312 170.035824 
L 170.656783 161.072198 
L 174.131254 154.681813 
L 177.605725 155.680788 
L 181.080195 151.821683 
L 184.554666 150.910538 
L 188.029137 153.706346 
L 191.503608 153.706346 
L 194.978078 164.679294 
L 198.452549 177.880935 
L 201.92702 181.48803 
L 205.401491 181.48803 
L 208.875961 189.806923 
L 212.350432 183.416538 
L 215.824903 185.439156 
L 219.299373 177.880935 
L 222.773844 172.998187 
L 226.248315 167.271103 
L 229.722786 164.679294 
L 233.197256 164.679294 
L 236.671727 168.63042 
L 240.146198 165.954946 
L 243.620669 165.954946 
L 247.095139 161.072198 
L 250.56961 154.681813 
L 254.044081 145.038352 
L 257.518552 132.337473 
L 260.993022 129.019267 
L 264.467493 130.096092 
L 267.941964 126.946063 
L 271.416434 125.456485 
L 274.890905 122.175812 
L 278.365376 121.727641 
L 281.839847 127.454725 
L 285.314317 127.969706 
L 288.788788 127.454725 
L 292.263259 119.135832 
L 295.73773 117.093279 
L 299.2122 115.914371 
L 302.686671 115.528736 
L 306.161142 110.816939 
L 309.635613 110.137326 
L 313.110083 110.47574 
L 316.584554 120.845577 
L 320.059025 124.971621 
L 323.533495 125.947088 
L 327.007966 120.845577 
L 330.482437 119.556703 
L 333.956908 122.628882 
L 340.905849 119.135832 
L 344.38032 118.719191 
L 347.854791 112.21053 
L 351.329261 108.485496 
L 354.803732 105.972276 
L 358.278203 103.891637 
L 361.752674 104.475526 
L 365.227144 99.234981 
L 368.701615 87.568902 
L 372.176086 89.57197 
L 375.650557 95.996574 
L 379.125027 101.910454 
L 382.599498 102.466911 
L 386.073969 101.635002 
L 389.548439 101.910454 
L 393.02291 108.485496 
L 396.497381 110.137326 
L 399.971852 108.162884 
L 403.446322 104.770584 
L 406.920793 101.910454 
L 410.395264 98.464889 
L 413.869735 90.611008 
L 417.344205 93.441087 
L 420.818676 88.159726 
L 424.293147 85.286374 
L 427.767618 85.471858 
L 431.242088 86.411931 
L 434.716559 88.558339 
L 438.19103 90.192263 
L 441.6655 82.426244 
L 445.139971 87.961848 
L 448.614442 86.602531 
L 452.088913 80.403626 
L 455.563383 81.066928 
L 459.037854 80.075914 
L 462.512325 75.594056 
L 465.986796 76.933846 
L 469.461266 72.763234 
L 472.935737 71.950356 
L 476.410208 76.782824 
L 479.884679 74.72433 
L 483.359149 73.175729 
L 486.83362 71.284925 
L 490.308091 66.080702 
L 493.782561 64.146901 
L 497.257032 63.814813 
L 500.731503 64.481671 
L 504.205974 62.193142 
L 507.680444 62.512441 
L 511.154915 54.91862 
L 514.629386 53.261925 
L 518.103857 50.533065 
L 521.578327 50.533065 
L 525.052798 47.079644 
L 528.527269 48.048099 
L 532.00174 47.598307 
L 535.47621 52.082219 
L 538.950681 55.275997 
L 542.425152 58.932065 
L 545.899623 59.623828 
L 549.374093 62.619422 
L 552.848564 63.267177 
L 556.323035 65.502513 
L 559.797505 73.314145 
L 563.271976 80.239446 
L 566.746447 87.764909 
L 570.220918 83.122991 
L 573.695388 76.933846 
L 577.169859 77.543496 
L 580.64433 73.037774 
L 584.118801 70.241966 
L 587.593271 69.09917 
L 591.067742 66.431526 
L 594.542213 69.857523 
L 598.016684 75.888068 
L 601.491154 76.933846 
L 604.965625 81.402601 
L 608.440096 83.831648 
L 611.914566 82.082214 
L 615.389037 82.773154 
L 618.863508 86.602531 
L 622.337979 83.831648 
L 625.812449 84.734853 
L 629.28692 86.03334 
L 632.761391 92.110852 
L 636.235862 96.966336 
L 639.710332 101.089527 
L 643.184803 99.494891 
L 646.659274 105.668571 
L 650.133745 105.972276 
L 653.608215 101.635002 
L 657.082686 102.187749 
L 660.557157 100.284542 
L 664.031627 93.894157 
L 667.506098 91.461406 
L 670.980569 90.401107 
L 674.45504 88.558339 
L 677.92951 89.777705 
L 681.403981 89.984466 
L 684.878452 91.247166 
L 688.352923 94.583183 
L 691.827393 99.234981 
L 695.301864 99.494891 
L 698.776335 100.01965 
L 702.250806 101.910454 
L 705.725276 98.72 
L 709.199747 98.72 
L 712.674218 101.089527 
L 716.148689 100.284542 
L 719.623159 101.910454 
L 723.09763 100.551137 
L 726.572101 98.72 
L 730.046571 97.708841 
L 733.521042 98.976691 
L 736.995513 92.110852 
L 740.469984 84.552631 
L 743.944454 80.239446 
L 747.418925 80.239446 
L 750.893396 79.913024 
L 754.367867 81.571463 
L 757.842337 80.075914 
L 761.316808 82.082214 
L 764.791279 86.03334 
L 768.26575 90.611008 
L 771.74022 90.821978 
L 775.214691 92.110852 
L 778.689162 93.894157 
L 782.163632 94.815427 
L 785.638103 98.464889 
L 789.112574 102.747966 
L 792.587045 102.466911 
L 796.061515 104.770584 
L 799.535986 105.067757 
L 803.010457 103.891637 
L 806.484928 106.896971 
L 809.959398 108.810639 
L 813.433869 111.507879 
L 820.382811 115.914371 
L 823.857281 117.493817 
L 827.331752 129.554183 
L 830.806223 133.505309 
L 837.755164 124.492362 
L 841.229635 120.845577 
L 851.653047 105.972276 
L 855.127518 100.819458 
L 858.601989 100.284542 
L 862.076459 103.315858 
L 865.55093 107.209843 
L 872.499872 109.801653 
L 875.974342 114.3929 
L 879.448813 117.493817 
L 882.923284 117.898264 
L 886.397755 111.857716 
L 889.872225 103.891637 
L 893.346696 101.910454 
L 896.821167 100.819458 
L 900.295637 96.72176 
L 903.770108 97.708841 
L 907.244579 96.72176 
L 910.71905 101.089527 
L 914.19352 103.602748 
L 917.667991 104.770584 
L 921.142462 106.586442 
L 924.616933 101.361367 
L 928.091403 95.757637 
L 931.565874 94.583183 
L 935.040345 90.611008 
L 938.514816 91.67676 
L 941.989286 89.777705 
L 945.463757 88.358553 
L 948.938228 92.329615 
L 952.412698 97.459859 
L 955.887169 96.478619 
L 959.36164 97.459859 
L 962.836111 97.708841 
L 966.310581 103.03094 
L 969.785052 107.209843 
L 973.259523 105.367076 
L 976.733994 105.972276 
L 980.208464 114.3929 
L 983.682935 115.914371 
L 987.157406 120.411485 
L 990.631877 120.411485 
L 994.106347 120.845577 
L 997.580818 128.491165 
L 1001.055289 129.019267 
L 1004.529759 133.505309 
L 1008.00423 130.096092 
L 1011.478701 124.971621 
L 1014.953172 120.845577 
L 1018.427642 117.898264 
L 1021.902113 112.566373 
L 1025.376584 103.602748 
L 1028.851055 95.048979 
L 1032.325525 94.815427 
L 1035.799996 91.247166 
L 1039.274467 88.558339 
L 1042.748938 87.179646 
L 1046.223408 87.961848 
L 1049.697879 89.163539 
L 1053.17235 94.583183 
L 1056.646821 100.284542 
L 1060.121291 110.137326 
L 1063.595762 119.135832 
L 1067.070233 124.971621 
L 1070.544703 135.944569 
L 1074.019174 172.998187 
L 1077.493645 179.645263 
L 1080.968116 172.998187 
L 1084.442586 170.035824 
L 1087.917057 168.63042 
L 1091.391528 172.998187 
L 1094.865999 174.562729 
L 1094.865999 174.562729 
" style="fill:none;stroke:#a4a86f;stroke-linecap:square;stroke-width:2;"/>
   </g>
   <g id="line2d_23">
    <path clip-path="url(#p0fca96aac9)" d="M 712.674218 218.541648 
L 716.148689 223.424397 
L 719.623159 228.96 
L 723.09763 228.96 
L 726.572101 223.424397 
L 730.046571 223.424397 
L 733.521042 218.541648 
L 736.995513 214.173881 
L 740.469984 214.173881 
L 743.944454 214.173881 
L 747.418925 214.173881 
L 750.893396 218.541648 
L 754.367867 218.541648 
L 757.842337 223.424397 
L 761.316808 228.96 
L 764.791279 228.96 
L 768.26575 223.424397 
L 771.74022 218.541648 
L 775.214691 218.541648 
L 778.689162 210.222755 
L 782.163632 210.222755 
L 785.638103 210.222755 
L 789.112574 210.222755 
L 792.587045 214.173881 
L 796.061515 218.541648 
L 799.535986 218.541648 
L 803.010457 228.96 
L 806.484928 228.96 
L 809.959398 223.424397 
L 813.433869 223.424397 
L 816.90834 223.424397 
L 820.382811 223.424397 
L 823.857281 223.424397 
L 827.331752 214.173881 
L 830.806223 206.61566 
L 834.280693 210.222755 
L 837.755164 210.222755 
L 841.229635 210.222755 
L 844.704106 203.297454 
L 848.178576 203.297454 
L 851.653047 210.222755 
L 855.127518 218.541648 
L 858.601989 218.541648 
L 862.076459 218.541648 
L 865.55093 218.541648 
L 869.025401 228.96 
L 872.499872 228.96 
L 875.974342 228.96 
L 879.448813 228.96 
L 882.923284 228.96 
L 886.397755 228.96 
L 889.872225 228.96 
L 893.346696 223.424397 
L 896.821167 223.424397 
L 900.295637 223.424397 
L 903.770108 223.424397 
L 907.244579 223.424397 
L 910.71905 223.424397 
L 914.19352 223.424397 
L 917.667991 228.96 
L 921.142462 228.96 
L 924.616933 228.96 
L 928.091403 228.96 
L 931.565874 228.96 
L 935.040345 228.96 
L 938.514816 228.96 
L 941.989286 228.96 
L 945.463757 228.96 
L 948.938228 228.96 
L 952.412698 228.96 
L 955.887169 228.96 
L 959.36164 228.96 
L 962.836111 228.96 
L 966.310581 228.96 
L 969.785052 228.96 
L 973.259523 228.96 
L 976.733994 228.96 
L 980.208464 228.96 
L 983.682935 228.96 
L 987.157406 228.96 
L 990.631877 223.424397 
" style="fill:none;stroke:#d3d3d3;stroke-linecap:square;stroke-width:2;"/>
   </g>
   <g id="patch_3">
    <path d="M 46.965625 228.96 
L 46.965625 7.2 
" style="fill:none;stroke:#000000;stroke-linecap:square;stroke-linejoin:miter;stroke-width:0.8;"/>
   </g>
   <g id="patch_4">
    <path d="M 46.965625 228.96 
L 1162.965625 228.96 
" style="fill:none;stroke:#000000;stroke-linecap:square;stroke-linejoin:miter;stroke-width:0.8;"/>
   </g>
   <g id="legend_1">
    <g id="line2d_24">
     <path d="M 1069.154375 17.67875 
L 1085.154375 17.67875 
" style="fill:none;stroke:#947383;stroke-linecap:square;stroke-width:2;"/>
    </g>
    <g id="line2d_25"/>
    <g id="text_19">
     <!-- Asia -->
     <g transform="translate(1091.554375 20.47875)scale(0.08 -0.08)">
      <defs>
       <path d="M 2188 4044 
L 1331 1722 
L 3047 1722 
L 2188 4044 
z
M 1831 4666 
L 2547 4666 
L 4325 0 
L 3669 0 
L 3244 1197 
L 1141 1197 
L 716 0 
L 50 0 
L 1831 4666 
z
" id="DejaVuSans-41" transform="scale(0.015625)"/>
       <path d="M 2834 3397 
L 2834 2853 
Q 2591 2978 2328 3040 
Q 2066 3103 1784 3103 
Q 1356 3103 1142 2972 
Q 928 2841 928 2578 
Q 928 2378 1081 2264 
Q 1234 2150 1697 2047 
L 1894 2003 
Q 2506 1872 2764 1633 
Q 3022 1394 3022 966 
Q 3022 478 2636 193 
Q 2250 -91 1575 -91 
Q 1294 -91 989 -36 
Q 684 19 347 128 
L 347 722 
Q 666 556 975 473 
Q 1284 391 1588 391 
Q 1994 391 2212 530 
Q 2431 669 2431 922 
Q 2431 1156 2273 1281 
Q 2116 1406 1581 1522 
L 1381 1569 
Q 847 1681 609 1914 
Q 372 2147 372 2553 
Q 372 3047 722 3315 
Q 1072 3584 1716 3584 
Q 2034 3584 2315 3537 
Q 2597 3491 2834 3397 
z
" id="DejaVuSans-73" transform="scale(0.015625)"/>
      </defs>
      <use xlink:href="#DejaVuSans-41"/>
      <use x="68.408203" xlink:href="#DejaVuSans-73"/>
      <use x="120.507812" xlink:href="#DejaVuSans-69"/>
      <use x="148.291016" xlink:href="#DejaVuSans-61"/>
     </g>
    </g>
    <g id="line2d_26">
     <path d="M 1069.154375 29.42125 
L 1085.154375 29.42125 
" style="fill:none;stroke:#96c6ad;stroke-linecap:square;stroke-width:2;"/>
    </g>
    <g id="line2d_27"/>
    <g id="text_20">
     <!-- United Kingdom -->
     <g transform="translate(1091.554375 32.22125)scale(0.08 -0.08)">
      <defs>
       <path d="M 556 4666 
L 1191 4666 
L 1191 1831 
Q 1191 1081 1462 751 
Q 1734 422 2344 422 
Q 2950 422 3222 751 
Q 3494 1081 3494 1831 
L 3494 4666 
L 4128 4666 
L 4128 1753 
Q 4128 841 3676 375 
Q 3225 -91 2344 -91 
Q 1459 -91 1007 375 
Q 556 841 556 1753 
L 556 4666 
z
" id="DejaVuSans-55" transform="scale(0.015625)"/>
       <path d="M 628 4666 
L 1259 4666 
L 1259 2694 
L 3353 4666 
L 4166 4666 
L 1850 2491 
L 4331 0 
L 3500 0 
L 1259 2247 
L 1259 0 
L 628 0 
L 628 4666 
z
" id="DejaVuSans-4b" transform="scale(0.015625)"/>
       <path d="M 3328 2828 
Q 3544 3216 3844 3400 
Q 4144 3584 4550 3584 
Q 5097 3584 5394 3201 
Q 5691 2819 5691 2113 
L 5691 0 
L 5113 0 
L 5113 2094 
Q 5113 2597 4934 2840 
Q 4756 3084 4391 3084 
Q 3944 3084 3684 2787 
Q 3425 2491 3425 1978 
L 3425 0 
L 2847 0 
L 2847 2094 
Q 2847 2600 2669 2842 
Q 2491 3084 2119 3084 
Q 1678 3084 1418 2786 
Q 1159 2488 1159 1978 
L 1159 0 
L 581 0 
L 581 3500 
L 1159 3500 
L 1159 2956 
Q 1356 3278 1631 3431 
Q 1906 3584 2284 3584 
Q 2666 3584 2933 3390 
Q 3200 3197 3328 2828 
z
" id="DejaVuSans-6d" transform="scale(0.015625)"/>
      </defs>
      <use xlink:href="#DejaVuSans-55"/>
      <use x="73.193359" xlink:href="#DejaVuSans-6e"/>
      <use x="136.572266" xlink:href="#DejaVuSans-69"/>
      <use x="164.355469" xlink:href="#DejaVuSans-74"/>
      <use x="203.564453" xlink:href="#DejaVuSans-65"/>
      <use x="265.087891" xlink:href="#DejaVuSans-64"/>
      <use x="328.564453" xlink:href="#DejaVuSans-20"/>
      <use x="360.351562" xlink:href="#DejaVuSans-4b"/>
      <use x="425.927734" xlink:href="#DejaVuSans-69"/>
      <use x="453.710938" xlink:href="#DejaVuSans-6e"/>
      <use x="517.089844" xlink:href="#DejaVuSans-67"/>
      <use x="580.566406" xlink:href="#DejaVuSans-64"/>
      <use x="644.042969" xlink:href="#DejaVuSans-6f"/>
      <use x="705.224609" xlink:href="#DejaVuSans-6d"/>
     </g>
    </g>
    <g id="line2d_28">
     <path d="M 1069.154375 41.16375 
L 1085.154375 41.16375 
" style="fill:none;stroke:#525886;stroke-linecap:square;stroke-width:2;"/>
    </g>
    <g id="line2d_29"/>
    <g id="text_21">
     <!-- Europe -->
     <g transform="translate(1091.554375 43.96375)scale(0.08 -0.08)">
      <defs>
       <path d="M 628 4666 
L 3578 4666 
L 3578 4134 
L 1259 4134 
L 1259 2753 
L 3481 2753 
L 3481 2222 
L 1259 2222 
L 1259 531 
L 3634 531 
L 3634 0 
L 628 0 
L 628 4666 
z
" id="DejaVuSans-45" transform="scale(0.015625)"/>
       <path d="M 1159 525 
L 1159 -1331 
L 581 -1331 
L 581 3500 
L 1159 3500 
L 1159 2969 
Q 1341 3281 1617 3432 
Q 1894 3584 2278 3584 
Q 2916 3584 3314 3078 
Q 3713 2572 3713 1747 
Q 3713 922 3314 415 
Q 2916 -91 2278 -91 
Q 1894 -91 1617 61 
Q 1341 213 1159 525 
z
M 3116 1747 
Q 3116 2381 2855 2742 
Q 2594 3103 2138 3103 
Q 1681 3103 1420 2742 
Q 1159 2381 1159 1747 
Q 1159 1113 1420 752 
Q 1681 391 2138 391 
Q 2594 391 2855 752 
Q 3116 1113 3116 1747 
z
" id="DejaVuSans-70" transform="scale(0.015625)"/>
      </defs>
      <use xlink:href="#DejaVuSans-45"/>
      <use x="63.183594" xlink:href="#DejaVuSans-75"/>
      <use x="126.5625" xlink:href="#DejaVuSans-72"/>
      <use x="165.425781" xlink:href="#DejaVuSans-6f"/>
      <use x="226.607422" xlink:href="#DejaVuSans-70"/>
      <use x="290.083984" xlink:href="#DejaVuSans-65"/>
     </g>
    </g>
    <g id="line2d_30">
     <path d="M 1069.154375 52.90625 
L 1085.154375 52.90625 
" style="fill:none;stroke:#937252;stroke-linecap:square;stroke-width:2;"/>
    </g>
    <g id="line2d_31"/>
    <g id="text_22">
     <!-- North America -->
     <g transform="translate(1091.554375 55.70625)scale(0.08 -0.08)">
      <defs>
       <path d="M 628 4666 
L 1478 4666 
L 3547 763 
L 3547 4666 
L 4159 4666 
L 4159 0 
L 3309 0 
L 1241 3903 
L 1241 0 
L 628 0 
L 628 4666 
z
" id="DejaVuSans-4e" transform="scale(0.015625)"/>
       <path d="M 3513 2113 
L 3513 0 
L 2938 0 
L 2938 2094 
Q 2938 2591 2744 2837 
Q 2550 3084 2163 3084 
Q 1697 3084 1428 2787 
Q 1159 2491 1159 1978 
L 1159 0 
L 581 0 
L 581 4863 
L 1159 4863 
L 1159 2956 
Q 1366 3272 1645 3428 
Q 1925 3584 2291 3584 
Q 2894 3584 3203 3211 
Q 3513 2838 3513 2113 
z
" id="DejaVuSans-68" transform="scale(0.015625)"/>
       <path d="M 3122 3366 
L 3122 2828 
Q 2878 2963 2633 3030 
Q 2388 3097 2138 3097 
Q 1578 3097 1268 2742 
Q 959 2388 959 1747 
Q 959 1106 1268 751 
Q 1578 397 2138 397 
Q 2388 397 2633 464 
Q 2878 531 3122 666 
L 3122 134 
Q 2881 22 2623 -34 
Q 2366 -91 2075 -91 
Q 1284 -91 818 406 
Q 353 903 353 1747 
Q 353 2603 823 3093 
Q 1294 3584 2113 3584 
Q 2378 3584 2631 3529 
Q 2884 3475 3122 3366 
z
" id="DejaVuSans-63" transform="scale(0.015625)"/>
      </defs>
      <use xlink:href="#DejaVuSans-4e"/>
      <use x="74.804688" xlink:href="#DejaVuSans-6f"/>
      <use x="135.986328" xlink:href="#DejaVuSans-72"/>
      <use x="177.099609" xlink:href="#DejaVuSans-74"/>
      <use x="216.308594" xlink:href="#DejaVuSans-68"/>
      <use x="279.6875" xlink:href="#DejaVuSans-20"/>
      <use x="311.474609" xlink:href="#DejaVuSans-41"/>
      <use x="379.882812" xlink:href="#DejaVuSans-6d"/>
      <use x="477.294922" xlink:href="#DejaVuSans-65"/>
      <use x="538.818359" xlink:href="#DejaVuSans-72"/>
      <use x="579.931641" xlink:href="#DejaVuSans-69"/>
      <use x="607.714844" xlink:href="#DejaVuSans-63"/>
      <use x="662.695312" xlink:href="#DejaVuSans-61"/>
     </g>
    </g>
    <g id="line2d_32">
     <path d="M 1069.154375 64.64875 
L 1085.154375 64.64875 
" style="fill:none;stroke:#d18cad;stroke-linecap:square;stroke-width:2;"/>
    </g>
    <g id="line2d_33"/>
    <g id="text_23">
     <!-- Oceania -->
     <g transform="translate(1091.554375 67.44875)scale(0.08 -0.08)">
      <defs>
       <path d="M 2522 4238 
Q 1834 4238 1429 3725 
Q 1025 3213 1025 2328 
Q 1025 1447 1429 934 
Q 1834 422 2522 422 
Q 3209 422 3611 934 
Q 4013 1447 4013 2328 
Q 4013 3213 3611 3725 
Q 3209 4238 2522 4238 
z
M 2522 4750 
Q 3503 4750 4090 4092 
Q 4678 3434 4678 2328 
Q 4678 1225 4090 567 
Q 3503 -91 2522 -91 
Q 1538 -91 948 565 
Q 359 1222 359 2328 
Q 359 3434 948 4092 
Q 1538 4750 2522 4750 
z
" id="DejaVuSans-4f" transform="scale(0.015625)"/>
      </defs>
      <use xlink:href="#DejaVuSans-4f"/>
      <use x="78.710938" xlink:href="#DejaVuSans-63"/>
      <use x="133.691406" xlink:href="#DejaVuSans-65"/>
      <use x="195.214844" xlink:href="#DejaVuSans-61"/>
      <use x="256.494141" xlink:href="#DejaVuSans-6e"/>
      <use x="319.873047" xlink:href="#DejaVuSans-69"/>
      <use x="347.65625" xlink:href="#DejaVuSans-61"/>
     </g>
    </g>
    <g id="line2d_34">
     <path d="M 1069.154375 76.39125 
L 1085.154375 76.39125 
" style="fill:none;stroke:#a4a86f;stroke-linecap:square;stroke-width:2;"/>
    </g>
    <g id="line2d_35"/>
    <g id="text_24">
     <!-- Africa -->
     <g transform="translate(1091.554375 79.19125)scale(0.08 -0.08)">
      <defs>
       <path d="M 2375 4863 
L 2375 4384 
L 1825 4384 
Q 1516 4384 1395 4259 
Q 1275 4134 1275 3809 
L 1275 3500 
L 2222 3500 
L 2222 3053 
L 1275 3053 
L 1275 0 
L 697 0 
L 697 3053 
L 147 3053 
L 147 3500 
L 697 3500 
L 697 3744 
Q 697 4328 969 4595 
Q 1241 4863 1831 4863 
L 2375 4863 
z
" id="DejaVuSans-66" transform="scale(0.015625)"/>
      </defs>
      <use xlink:href="#DejaVuSans-41"/>
      <use x="64.783203" xlink:href="#DejaVuSans-66"/>
      <use x="99.988281" xlink:href="#DejaVuSans-72"/>
      <use x="141.101562" xlink:href="#DejaVuSans-69"/>
      <use x="168.884766" xlink:href="#DejaVuSans-63"/>
      <use x="223.865234" xlink:href="#DejaVuSans-61"/>
     </g>
    </g>
    <g id="line2d_36">
     <path d="M 1069.154375 88.13375 
L 1085.154375 88.13375 
" style="fill:none;stroke:#d3d3d3;stroke-linecap:square;stroke-width:2;"/>
    </g>
    <g id="line2d_37"/>
    <g id="text_25">
     <!-- South America -->
     <g transform="translate(1091.554375 90.93375)scale(0.08 -0.08)">
      <defs>
       <path d="M 3425 4513 
L 3425 3897 
Q 3066 4069 2747 4153 
Q 2428 4238 2131 4238 
Q 1616 4238 1336 4038 
Q 1056 3838 1056 3469 
Q 1056 3159 1242 3001 
Q 1428 2844 1947 2747 
L 2328 2669 
Q 3034 2534 3370 2195 
Q 3706 1856 3706 1288 
Q 3706 609 3251 259 
Q 2797 -91 1919 -91 
Q 1588 -91 1214 -16 
Q 841 59 441 206 
L 441 856 
Q 825 641 1194 531 
Q 1563 422 1919 422 
Q 2459 422 2753 634 
Q 3047 847 3047 1241 
Q 3047 1584 2836 1778 
Q 2625 1972 2144 2069 
L 1759 2144 
Q 1053 2284 737 2584 
Q 422 2884 422 3419 
Q 422 4038 858 4394 
Q 1294 4750 2059 4750 
Q 2388 4750 2728 4690 
Q 3069 4631 3425 4513 
z
" id="DejaVuSans-53" transform="scale(0.015625)"/>
      </defs>
      <use xlink:href="#DejaVuSans-53"/>
      <use x="63.476562" xlink:href="#DejaVuSans-6f"/>
      <use x="124.658203" xlink:href="#DejaVuSans-75"/>
      <use x="188.037109" xlink:href="#DejaVuSans-74"/>
      <use x="227.246094" xlink:href="#DejaVuSans-68"/>
      <use x="290.625" xlink:href="#DejaVuSans-20"/>
      <use x="322.412109" xlink:href="#DejaVuSans-41"/>
      <use x="390.820312" xlink:href="#DejaVuSans-6d"/>
      <use x="488.232422" xlink:href="#DejaVuSans-65"/>
      <use x="549.755859" xlink:href="#DejaVuSans-72"/>
      <use x="590.869141" xlink:href="#DejaVuSans-69"/>
      <use x="618.652344" xlink:href="#DejaVuSans-63"/>
      <use x="673.632812" xlink:href="#DejaVuSans-61"/>
     </g>
    </g>
   </g>
  </g>
 </g>
 <defs>
  <clipPath id="p0fca96aac9">
   <rect height="221.76" width="1116" x="46.965625" y="7.2"/>
  </clipPath>
 </defs>
</svg>
