<?xml version="1.0" encoding="utf-8" standalone="no"?>
<!DOCTYPE svg PUBLIC "-//W3C//DTD SVG 1.1//EN"
  "http://www.w3.org/Graphics/SVG/1.1/DTD/svg11.dtd">
<!-- Created with matplotlib (https://matplotlib.org/) -->
<svg height="298.620937pt" version="1.1" viewBox="0 0 996.403125 298.620937" width="996.403125pt" xmlns="http://www.w3.org/2000/svg" xmlns:xlink="http://www.w3.org/1999/xlink">
 <metadata>
  <rdf:RDF xmlns:cc="http://creativecommons.org/ns#" xmlns:dc="http://purl.org/dc/elements/1.1/" xmlns:rdf="http://www.w3.org/1999/02/22-rdf-syntax-ns#">
   <cc:Work>
    <dc:type rdf:resource="http://purl.org/dc/dcmitype/StillImage"/>
    <dc:date>2021-06-06T16:07:58.425817</dc:date>
    <dc:format>image/svg+xml</dc:format>
    <dc:creator>
     <cc:Agent>
      <dc:title>Matplotlib v3.3.3, https://matplotlib.org/</dc:title>
     </cc:Agent>
    </dc:creator>
   </cc:Work>
  </rdf:RDF>
 </metadata>
 <defs>
  <style type="text/css">*{stroke-linecap:butt;stroke-linejoin:round;}</style>
 </defs>
 <g id="figure_1">
  <g id="patch_1">
   <path d="M 0 298.620937 
L 996.403125 298.620937 
L 996.403125 0 
L 0 0 
z
" style="fill:#ffffff;"/>
  </g>
  <g id="axes_1">
   <g id="patch_2">
    <path d="M 40.603125 228.96 
L 989.203125 228.96 
L 989.203125 7.2 
L 40.603125 7.2 
z
" style="fill:#ffffff;"/>
   </g>
   <g id="matplotlib.axis_1">
    <g id="xtick_1">
     <g id="line2d_1">
      <defs>
       <path d="M 0 0 
L 0 3.5 
" id="m55fe27b1e1" style="stroke:#000000;stroke-width:0.8;"/>
      </defs>
      <g>
       <use style="stroke:#000000;stroke-width:0.8;" x="164.567898" xlink:href="#m55fe27b1e1" y="228.96"/>
      </g>
     </g>
     <g id="text_1">
      <!-- 2021-01 -->
      <g transform="translate(167.327273 277.742812)rotate(-90)scale(0.1 -0.1)">
       <defs>
        <path d="M 19.1875 8.296875 
L 53.609375 8.296875 
L 53.609375 0 
L 7.328125 0 
L 7.328125 8.296875 
Q 12.9375 14.109375 22.625 23.890625 
Q 32.328125 33.6875 34.8125 36.53125 
Q 39.546875 41.84375 41.421875 45.53125 
Q 43.3125 49.21875 43.3125 52.78125 
Q 43.3125 58.59375 39.234375 62.25 
Q 35.15625 65.921875 28.609375 65.921875 
Q 23.96875 65.921875 18.8125 64.3125 
Q 13.671875 62.703125 7.8125 59.421875 
L 7.8125 69.390625 
Q 13.765625 71.78125 18.9375 73 
Q 24.125 74.21875 28.421875 74.21875 
Q 39.75 74.21875 46.484375 68.546875 
Q 53.21875 62.890625 53.21875 53.421875 
Q 53.21875 48.921875 51.53125 44.890625 
Q 49.859375 40.875 45.40625 35.40625 
Q 44.1875 33.984375 37.640625 27.21875 
Q 31.109375 20.453125 19.1875 8.296875 
z
" id="DejaVuSans-50"/>
        <path d="M 31.78125 66.40625 
Q 24.171875 66.40625 20.328125 58.90625 
Q 16.5 51.421875 16.5 36.375 
Q 16.5 21.390625 20.328125 13.890625 
Q 24.171875 6.390625 31.78125 6.390625 
Q 39.453125 6.390625 43.28125 13.890625 
Q 47.125 21.390625 47.125 36.375 
Q 47.125 51.421875 43.28125 58.90625 
Q 39.453125 66.40625 31.78125 66.40625 
z
M 31.78125 74.21875 
Q 44.046875 74.21875 50.515625 64.515625 
Q 56.984375 54.828125 56.984375 36.375 
Q 56.984375 17.96875 50.515625 8.265625 
Q 44.046875 -1.421875 31.78125 -1.421875 
Q 19.53125 -1.421875 13.0625 8.265625 
Q 6.59375 17.96875 6.59375 36.375 
Q 6.59375 54.828125 13.0625 64.515625 
Q 19.53125 74.21875 31.78125 74.21875 
z
" id="DejaVuSans-48"/>
        <path d="M 12.40625 8.296875 
L 28.515625 8.296875 
L 28.515625 63.921875 
L 10.984375 60.40625 
L 10.984375 69.390625 
L 28.421875 72.90625 
L 38.28125 72.90625 
L 38.28125 8.296875 
L 54.390625 8.296875 
L 54.390625 0 
L 12.40625 0 
z
" id="DejaVuSans-49"/>
        <path d="M 4.890625 31.390625 
L 31.203125 31.390625 
L 31.203125 23.390625 
L 4.890625 23.390625 
z
" id="DejaVuSans-45"/>
       </defs>
       <use xlink:href="#DejaVuSans-50"/>
       <use x="63.623047" xlink:href="#DejaVuSans-48"/>
       <use x="127.246094" xlink:href="#DejaVuSans-50"/>
       <use x="190.869141" xlink:href="#DejaVuSans-49"/>
       <use x="254.492188" xlink:href="#DejaVuSans-45"/>
       <use x="290.576172" xlink:href="#DejaVuSans-48"/>
       <use x="354.199219" xlink:href="#DejaVuSans-49"/>
      </g>
     </g>
    </g>
    <g id="xtick_2">
     <g id="line2d_2">
      <g>
       <use style="stroke:#000000;stroke-width:0.8;" x="331.650852" xlink:href="#m55fe27b1e1" y="228.96"/>
      </g>
     </g>
     <g id="text_2">
      <!-- 2021-02 -->
      <g transform="translate(334.410227 277.742812)rotate(-90)scale(0.1 -0.1)">
       <use xlink:href="#DejaVuSans-50"/>
       <use x="63.623047" xlink:href="#DejaVuSans-48"/>
       <use x="127.246094" xlink:href="#DejaVuSans-50"/>
       <use x="190.869141" xlink:href="#DejaVuSans-49"/>
       <use x="254.492188" xlink:href="#DejaVuSans-45"/>
       <use x="290.576172" xlink:href="#DejaVuSans-48"/>
       <use x="354.199219" xlink:href="#DejaVuSans-50"/>
      </g>
     </g>
    </g>
    <g id="xtick_3">
     <g id="line2d_3">
      <g>
       <use style="stroke:#000000;stroke-width:0.8;" x="482.564489" xlink:href="#m55fe27b1e1" y="228.96"/>
      </g>
     </g>
     <g id="text_3">
      <!-- 2021-03 -->
      <g transform="translate(485.323864 277.742812)rotate(-90)scale(0.1 -0.1)">
       <defs>
        <path d="M 40.578125 39.3125 
Q 47.65625 37.796875 51.625 33 
Q 55.609375 28.21875 55.609375 21.1875 
Q 55.609375 10.40625 48.1875 4.484375 
Q 40.765625 -1.421875 27.09375 -1.421875 
Q 22.515625 -1.421875 17.65625 -0.515625 
Q 12.796875 0.390625 7.625 2.203125 
L 7.625 11.71875 
Q 11.71875 9.328125 16.59375 8.109375 
Q 21.484375 6.890625 26.8125 6.890625 
Q 36.078125 6.890625 40.9375 10.546875 
Q 45.796875 14.203125 45.796875 21.1875 
Q 45.796875 27.640625 41.28125 31.265625 
Q 36.765625 34.90625 28.71875 34.90625 
L 20.21875 34.90625 
L 20.21875 43.015625 
L 29.109375 43.015625 
Q 36.375 43.015625 40.234375 45.921875 
Q 44.09375 48.828125 44.09375 54.296875 
Q 44.09375 59.90625 40.109375 62.90625 
Q 36.140625 65.921875 28.71875 65.921875 
Q 24.65625 65.921875 20.015625 65.03125 
Q 15.375 64.15625 9.8125 62.3125 
L 9.8125 71.09375 
Q 15.4375 72.65625 20.34375 73.4375 
Q 25.25 74.21875 29.59375 74.21875 
Q 40.828125 74.21875 47.359375 69.109375 
Q 53.90625 64.015625 53.90625 55.328125 
Q 53.90625 49.265625 50.4375 45.09375 
Q 46.96875 40.921875 40.578125 39.3125 
z
" id="DejaVuSans-51"/>
       </defs>
       <use xlink:href="#DejaVuSans-50"/>
       <use x="63.623047" xlink:href="#DejaVuSans-48"/>
       <use x="127.246094" xlink:href="#DejaVuSans-50"/>
       <use x="190.869141" xlink:href="#DejaVuSans-49"/>
       <use x="254.492188" xlink:href="#DejaVuSans-45"/>
       <use x="290.576172" xlink:href="#DejaVuSans-48"/>
       <use x="354.199219" xlink:href="#DejaVuSans-51"/>
      </g>
     </g>
    </g>
    <g id="xtick_4">
     <g id="line2d_4">
      <g>
       <use style="stroke:#000000;stroke-width:0.8;" x="649.647443" xlink:href="#m55fe27b1e1" y="228.96"/>
      </g>
     </g>
     <g id="text_4">
      <!-- 2021-04 -->
      <g transform="translate(652.406818 277.742812)rotate(-90)scale(0.1 -0.1)">
       <defs>
        <path d="M 37.796875 64.3125 
L 12.890625 25.390625 
L 37.796875 25.390625 
z
M 35.203125 72.90625 
L 47.609375 72.90625 
L 47.609375 25.390625 
L 58.015625 25.390625 
L 58.015625 17.1875 
L 47.609375 17.1875 
L 47.609375 0 
L 37.796875 0 
L 37.796875 17.1875 
L 4.890625 17.1875 
L 4.890625 26.703125 
z
" id="DejaVuSans-52"/>
       </defs>
       <use xlink:href="#DejaVuSans-50"/>
       <use x="63.623047" xlink:href="#DejaVuSans-48"/>
       <use x="127.246094" xlink:href="#DejaVuSans-50"/>
       <use x="190.869141" xlink:href="#DejaVuSans-49"/>
       <use x="254.492188" xlink:href="#DejaVuSans-45"/>
       <use x="290.576172" xlink:href="#DejaVuSans-48"/>
       <use x="354.199219" xlink:href="#DejaVuSans-52"/>
      </g>
     </g>
    </g>
    <g id="xtick_5">
     <g id="line2d_5">
      <g>
       <use style="stroke:#000000;stroke-width:0.8;" x="811.340625" xlink:href="#m55fe27b1e1" y="228.96"/>
      </g>
     </g>
     <g id="text_5">
      <!-- 2021-05 -->
      <g transform="translate(814.1 277.742812)rotate(-90)scale(0.1 -0.1)">
       <defs>
        <path d="M 10.796875 72.90625 
L 49.515625 72.90625 
L 49.515625 64.59375 
L 19.828125 64.59375 
L 19.828125 46.734375 
Q 21.96875 47.46875 24.109375 47.828125 
Q 26.265625 48.1875 28.421875 48.1875 
Q 40.625 48.1875 47.75 41.5 
Q 54.890625 34.8125 54.890625 23.390625 
Q 54.890625 11.625 47.5625 5.09375 
Q 40.234375 -1.421875 26.90625 -1.421875 
Q 22.3125 -1.421875 17.546875 -0.640625 
Q 12.796875 0.140625 7.71875 1.703125 
L 7.71875 11.625 
Q 12.109375 9.234375 16.796875 8.0625 
Q 21.484375 6.890625 26.703125 6.890625 
Q 35.15625 6.890625 40.078125 11.328125 
Q 45.015625 15.765625 45.015625 23.390625 
Q 45.015625 31 40.078125 35.4375 
Q 35.15625 39.890625 26.703125 39.890625 
Q 22.75 39.890625 18.8125 39.015625 
Q 14.890625 38.140625 10.796875 36.28125 
z
" id="DejaVuSans-53"/>
       </defs>
       <use xlink:href="#DejaVuSans-50"/>
       <use x="63.623047" xlink:href="#DejaVuSans-48"/>
       <use x="127.246094" xlink:href="#DejaVuSans-50"/>
       <use x="190.869141" xlink:href="#DejaVuSans-49"/>
       <use x="254.492188" xlink:href="#DejaVuSans-45"/>
       <use x="290.576172" xlink:href="#DejaVuSans-48"/>
       <use x="354.199219" xlink:href="#DejaVuSans-53"/>
      </g>
     </g>
    </g>
    <g id="xtick_6">
     <g id="line2d_6">
      <g>
       <use style="stroke:#000000;stroke-width:0.8;" x="978.42358" xlink:href="#m55fe27b1e1" y="228.96"/>
      </g>
     </g>
     <g id="text_6">
      <!-- 2021-06 -->
      <g transform="translate(981.182955 277.742812)rotate(-90)scale(0.1 -0.1)">
       <defs>
        <path d="M 33.015625 40.375 
Q 26.375 40.375 22.484375 35.828125 
Q 18.609375 31.296875 18.609375 23.390625 
Q 18.609375 15.53125 22.484375 10.953125 
Q 26.375 6.390625 33.015625 6.390625 
Q 39.65625 6.390625 43.53125 10.953125 
Q 47.40625 15.53125 47.40625 23.390625 
Q 47.40625 31.296875 43.53125 35.828125 
Q 39.65625 40.375 33.015625 40.375 
z
M 52.59375 71.296875 
L 52.59375 62.3125 
Q 48.875 64.0625 45.09375 64.984375 
Q 41.3125 65.921875 37.59375 65.921875 
Q 27.828125 65.921875 22.671875 59.328125 
Q 17.53125 52.734375 16.796875 39.40625 
Q 19.671875 43.65625 24.015625 45.921875 
Q 28.375 48.1875 33.59375 48.1875 
Q 44.578125 48.1875 50.953125 41.515625 
Q 57.328125 34.859375 57.328125 23.390625 
Q 57.328125 12.15625 50.6875 5.359375 
Q 44.046875 -1.421875 33.015625 -1.421875 
Q 20.359375 -1.421875 13.671875 8.265625 
Q 6.984375 17.96875 6.984375 36.375 
Q 6.984375 53.65625 15.1875 63.9375 
Q 23.390625 74.21875 37.203125 74.21875 
Q 40.921875 74.21875 44.703125 73.484375 
Q 48.484375 72.75 52.59375 71.296875 
z
" id="DejaVuSans-54"/>
       </defs>
       <use xlink:href="#DejaVuSans-50"/>
       <use x="63.623047" xlink:href="#DejaVuSans-48"/>
       <use x="127.246094" xlink:href="#DejaVuSans-50"/>
       <use x="190.869141" xlink:href="#DejaVuSans-49"/>
       <use x="254.492188" xlink:href="#DejaVuSans-45"/>
       <use x="290.576172" xlink:href="#DejaVuSans-48"/>
       <use x="354.199219" xlink:href="#DejaVuSans-54"/>
      </g>
     </g>
    </g>
    <g id="text_7">
     <!-- Date -->
     <g transform="translate(502.952344 289.34125)scale(0.1 -0.1)">
      <defs>
       <path d="M 19.671875 64.796875 
L 19.671875 8.109375 
L 31.59375 8.109375 
Q 46.6875 8.109375 53.6875 14.9375 
Q 60.6875 21.78125 60.6875 36.53125 
Q 60.6875 51.171875 53.6875 57.984375 
Q 46.6875 64.796875 31.59375 64.796875 
z
M 9.8125 72.90625 
L 30.078125 72.90625 
Q 51.265625 72.90625 61.171875 64.09375 
Q 71.09375 55.28125 71.09375 36.53125 
Q 71.09375 17.671875 61.125 8.828125 
Q 51.171875 0 30.078125 0 
L 9.8125 0 
z
" id="DejaVuSans-68"/>
       <path d="M 34.28125 27.484375 
Q 23.390625 27.484375 19.1875 25 
Q 14.984375 22.515625 14.984375 16.5 
Q 14.984375 11.71875 18.140625 8.90625 
Q 21.296875 6.109375 26.703125 6.109375 
Q 34.1875 6.109375 38.703125 11.40625 
Q 43.21875 16.703125 43.21875 25.484375 
L 43.21875 27.484375 
z
M 52.203125 31.203125 
L 52.203125 0 
L 43.21875 0 
L 43.21875 8.296875 
Q 40.140625 3.328125 35.546875 0.953125 
Q 30.953125 -1.421875 24.3125 -1.421875 
Q 15.921875 -1.421875 10.953125 3.296875 
Q 6 8.015625 6 15.921875 
Q 6 25.140625 12.171875 29.828125 
Q 18.359375 34.515625 30.609375 34.515625 
L 43.21875 34.515625 
L 43.21875 35.40625 
Q 43.21875 41.609375 39.140625 45 
Q 35.0625 48.390625 27.6875 48.390625 
Q 23 48.390625 18.546875 47.265625 
Q 14.109375 46.140625 10.015625 43.890625 
L 10.015625 52.203125 
Q 14.9375 54.109375 19.578125 55.046875 
Q 24.21875 56 28.609375 56 
Q 40.484375 56 46.34375 49.84375 
Q 52.203125 43.703125 52.203125 31.203125 
z
" id="DejaVuSans-97"/>
       <path d="M 18.3125 70.21875 
L 18.3125 54.6875 
L 36.8125 54.6875 
L 36.8125 47.703125 
L 18.3125 47.703125 
L 18.3125 18.015625 
Q 18.3125 11.328125 20.140625 9.421875 
Q 21.96875 7.515625 27.59375 7.515625 
L 36.8125 7.515625 
L 36.8125 0 
L 27.59375 0 
Q 17.1875 0 13.234375 3.875 
Q 9.28125 7.765625 9.28125 18.015625 
L 9.28125 47.703125 
L 2.6875 47.703125 
L 2.6875 54.6875 
L 9.28125 54.6875 
L 9.28125 70.21875 
z
" id="DejaVuSans-116"/>
       <path d="M 56.203125 29.59375 
L 56.203125 25.203125 
L 14.890625 25.203125 
Q 15.484375 15.921875 20.484375 11.0625 
Q 25.484375 6.203125 34.421875 6.203125 
Q 39.59375 6.203125 44.453125 7.46875 
Q 49.3125 8.734375 54.109375 11.28125 
L 54.109375 2.78125 
Q 49.265625 0.734375 44.1875 -0.34375 
Q 39.109375 -1.421875 33.890625 -1.421875 
Q 20.796875 -1.421875 13.15625 6.1875 
Q 5.515625 13.8125 5.515625 26.8125 
Q 5.515625 40.234375 12.765625 48.109375 
Q 20.015625 56 32.328125 56 
Q 43.359375 56 49.78125 48.890625 
Q 56.203125 41.796875 56.203125 29.59375 
z
M 47.21875 32.234375 
Q 47.125 39.59375 43.09375 43.984375 
Q 39.0625 48.390625 32.421875 48.390625 
Q 24.90625 48.390625 20.390625 44.140625 
Q 15.875 39.890625 15.1875 32.171875 
z
" id="DejaVuSans-101"/>
      </defs>
      <use xlink:href="#DejaVuSans-68"/>
      <use x="77.001953" xlink:href="#DejaVuSans-97"/>
      <use x="138.28125" xlink:href="#DejaVuSans-116"/>
      <use x="177.490234" xlink:href="#DejaVuSans-101"/>
     </g>
    </g>
   </g>
   <g id="matplotlib.axis_2">
    <g id="ytick_1">
     <g id="line2d_7">
      <defs>
       <path d="M 0 0 
L -3.5 0 
" id="m7ee3751e9c" style="stroke:#000000;stroke-width:0.8;"/>
      </defs>
      <g>
       <use style="stroke:#000000;stroke-width:0.8;" x="40.603125" xlink:href="#m7ee3751e9c" y="228.96"/>
      </g>
     </g>
     <g id="text_8">
      <!-- 1 -->
      <g transform="translate(27.240625 232.759219)scale(0.1 -0.1)">
       <use xlink:href="#DejaVuSans-49"/>
      </g>
     </g>
    </g>
    <g id="ytick_2">
     <g id="line2d_8">
      <g>
       <use style="stroke:#000000;stroke-width:0.8;" x="40.603125" xlink:href="#m7ee3751e9c" y="203.638074"/>
      </g>
     </g>
     <g id="text_9">
      <!-- 1 -->
      <g transform="translate(27.240625 207.437293)scale(0.1 -0.1)">
       <use xlink:href="#DejaVuSans-49"/>
      </g>
     </g>
    </g>
    <g id="ytick_3">
     <g id="line2d_9">
      <g>
       <use style="stroke:#000000;stroke-width:0.8;" x="40.603125" xlink:href="#m7ee3751e9c" y="178.316148"/>
      </g>
     </g>
     <g id="text_10">
      <!-- 2 -->
      <g transform="translate(27.240625 182.115367)scale(0.1 -0.1)">
       <use xlink:href="#DejaVuSans-50"/>
      </g>
     </g>
    </g>
    <g id="ytick_4">
     <g id="line2d_10">
      <g>
       <use style="stroke:#000000;stroke-width:0.8;" x="40.603125" xlink:href="#m7ee3751e9c" y="152.994222"/>
      </g>
     </g>
     <g id="text_11">
      <!-- 3 -->
      <g transform="translate(27.240625 156.793441)scale(0.1 -0.1)">
       <use xlink:href="#DejaVuSans-51"/>
      </g>
     </g>
    </g>
    <g id="ytick_5">
     <g id="line2d_11">
      <g>
       <use style="stroke:#000000;stroke-width:0.8;" x="40.603125" xlink:href="#m7ee3751e9c" y="127.672296"/>
      </g>
     </g>
     <g id="text_12">
      <!-- 6 -->
      <g transform="translate(27.240625 131.471515)scale(0.1 -0.1)">
       <use xlink:href="#DejaVuSans-54"/>
      </g>
     </g>
    </g>
    <g id="ytick_6">
     <g id="line2d_12">
      <g>
       <use style="stroke:#000000;stroke-width:0.8;" x="40.603125" xlink:href="#m7ee3751e9c" y="102.35037"/>
      </g>
     </g>
     <g id="text_13">
      <!-- 10 -->
      <g transform="translate(20.878125 106.149589)scale(0.1 -0.1)">
       <use xlink:href="#DejaVuSans-49"/>
       <use x="63.623047" xlink:href="#DejaVuSans-48"/>
      </g>
     </g>
    </g>
    <g id="ytick_7">
     <g id="line2d_13">
      <g>
       <use style="stroke:#000000;stroke-width:0.8;" x="40.603125" xlink:href="#m7ee3751e9c" y="77.028444"/>
      </g>
     </g>
     <g id="text_14">
      <!-- 15 -->
      <g transform="translate(20.878125 80.827663)scale(0.1 -0.1)">
       <use xlink:href="#DejaVuSans-49"/>
       <use x="63.623047" xlink:href="#DejaVuSans-53"/>
      </g>
     </g>
    </g>
    <g id="ytick_8">
     <g id="line2d_14">
      <g>
       <use style="stroke:#000000;stroke-width:0.8;" x="40.603125" xlink:href="#m7ee3751e9c" y="51.706518"/>
      </g>
     </g>
     <g id="text_15">
      <!-- 25 -->
      <g transform="translate(20.878125 55.505737)scale(0.1 -0.1)">
       <use xlink:href="#DejaVuSans-50"/>
       <use x="63.623047" xlink:href="#DejaVuSans-53"/>
      </g>
     </g>
    </g>
    <g id="ytick_9">
     <g id="line2d_15">
      <g>
       <use style="stroke:#000000;stroke-width:0.8;" x="40.603125" xlink:href="#m7ee3751e9c" y="26.384592"/>
      </g>
     </g>
     <g id="text_16">
      <!-- 39 -->
      <g transform="translate(20.878125 30.183811)scale(0.1 -0.1)">
       <defs>
        <path d="M 10.984375 1.515625 
L 10.984375 10.5 
Q 14.703125 8.734375 18.5 7.8125 
Q 22.3125 6.890625 25.984375 6.890625 
Q 35.75 6.890625 40.890625 13.453125 
Q 46.046875 20.015625 46.78125 33.40625 
Q 43.953125 29.203125 39.59375 26.953125 
Q 35.25 24.703125 29.984375 24.703125 
Q 19.046875 24.703125 12.671875 31.3125 
Q 6.296875 37.9375 6.296875 49.421875 
Q 6.296875 60.640625 12.9375 67.421875 
Q 19.578125 74.21875 30.609375 74.21875 
Q 43.265625 74.21875 49.921875 64.515625 
Q 56.59375 54.828125 56.59375 36.375 
Q 56.59375 19.140625 48.40625 8.859375 
Q 40.234375 -1.421875 26.421875 -1.421875 
Q 22.703125 -1.421875 18.890625 -0.6875 
Q 15.09375 0.046875 10.984375 1.515625 
z
M 30.609375 32.421875 
Q 37.25 32.421875 41.125 36.953125 
Q 45.015625 41.5 45.015625 49.421875 
Q 45.015625 57.28125 41.125 61.84375 
Q 37.25 66.40625 30.609375 66.40625 
Q 23.96875 66.40625 20.09375 61.84375 
Q 16.21875 57.28125 16.21875 49.421875 
Q 16.21875 41.5 20.09375 36.953125 
Q 23.96875 32.421875 30.609375 32.421875 
z
" id="DejaVuSans-57"/>
       </defs>
       <use xlink:href="#DejaVuSans-51"/>
       <use x="63.623047" xlink:href="#DejaVuSans-57"/>
      </g>
     </g>
    </g>
    <g id="text_17">
     <!-- Count (7 day rolling average) -->
     <g transform="translate(14.798438 191.547969)rotate(-90)scale(0.1 -0.1)">
      <defs>
       <path d="M 64.40625 67.28125 
L 64.40625 56.890625 
Q 59.421875 61.53125 53.78125 63.8125 
Q 48.140625 66.109375 41.796875 66.109375 
Q 29.296875 66.109375 22.65625 58.46875 
Q 16.015625 50.828125 16.015625 36.375 
Q 16.015625 21.96875 22.65625 14.328125 
Q 29.296875 6.6875 41.796875 6.6875 
Q 48.140625 6.6875 53.78125 8.984375 
Q 59.421875 11.28125 64.40625 15.921875 
L 64.40625 5.609375 
Q 59.234375 2.09375 53.4375 0.328125 
Q 47.65625 -1.421875 41.21875 -1.421875 
Q 24.65625 -1.421875 15.125 8.703125 
Q 5.609375 18.84375 5.609375 36.375 
Q 5.609375 53.953125 15.125 64.078125 
Q 24.65625 74.21875 41.21875 74.21875 
Q 47.75 74.21875 53.53125 72.484375 
Q 59.328125 70.75 64.40625 67.28125 
z
" id="DejaVuSans-67"/>
       <path d="M 30.609375 48.390625 
Q 23.390625 48.390625 19.1875 42.75 
Q 14.984375 37.109375 14.984375 27.296875 
Q 14.984375 17.484375 19.15625 11.84375 
Q 23.34375 6.203125 30.609375 6.203125 
Q 37.796875 6.203125 41.984375 11.859375 
Q 46.1875 17.53125 46.1875 27.296875 
Q 46.1875 37.015625 41.984375 42.703125 
Q 37.796875 48.390625 30.609375 48.390625 
z
M 30.609375 56 
Q 42.328125 56 49.015625 48.375 
Q 55.71875 40.765625 55.71875 27.296875 
Q 55.71875 13.875 49.015625 6.21875 
Q 42.328125 -1.421875 30.609375 -1.421875 
Q 18.84375 -1.421875 12.171875 6.21875 
Q 5.515625 13.875 5.515625 27.296875 
Q 5.515625 40.765625 12.171875 48.375 
Q 18.84375 56 30.609375 56 
z
" id="DejaVuSans-111"/>
       <path d="M 8.5 21.578125 
L 8.5 54.6875 
L 17.484375 54.6875 
L 17.484375 21.921875 
Q 17.484375 14.15625 20.5 10.265625 
Q 23.53125 6.390625 29.59375 6.390625 
Q 36.859375 6.390625 41.078125 11.03125 
Q 45.3125 15.671875 45.3125 23.6875 
L 45.3125 54.6875 
L 54.296875 54.6875 
L 54.296875 0 
L 45.3125 0 
L 45.3125 8.40625 
Q 42.046875 3.421875 37.71875 1 
Q 33.40625 -1.421875 27.6875 -1.421875 
Q 18.265625 -1.421875 13.375 4.4375 
Q 8.5 10.296875 8.5 21.578125 
z
M 31.109375 56 
z
" id="DejaVuSans-117"/>
       <path d="M 54.890625 33.015625 
L 54.890625 0 
L 45.90625 0 
L 45.90625 32.71875 
Q 45.90625 40.484375 42.875 44.328125 
Q 39.84375 48.1875 33.796875 48.1875 
Q 26.515625 48.1875 22.3125 43.546875 
Q 18.109375 38.921875 18.109375 30.90625 
L 18.109375 0 
L 9.078125 0 
L 9.078125 54.6875 
L 18.109375 54.6875 
L 18.109375 46.1875 
Q 21.34375 51.125 25.703125 53.5625 
Q 30.078125 56 35.796875 56 
Q 45.21875 56 50.046875 50.171875 
Q 54.890625 44.34375 54.890625 33.015625 
z
" id="DejaVuSans-110"/>
       <path id="DejaVuSans-32"/>
       <path d="M 31 75.875 
Q 24.46875 64.65625 21.28125 53.65625 
Q 18.109375 42.671875 18.109375 31.390625 
Q 18.109375 20.125 21.3125 9.0625 
Q 24.515625 -2 31 -13.1875 
L 23.1875 -13.1875 
Q 15.875 -1.703125 12.234375 9.375 
Q 8.59375 20.453125 8.59375 31.390625 
Q 8.59375 42.28125 12.203125 53.3125 
Q 15.828125 64.359375 23.1875 75.875 
z
" id="DejaVuSans-40"/>
       <path d="M 8.203125 72.90625 
L 55.078125 72.90625 
L 55.078125 68.703125 
L 28.609375 0 
L 18.3125 0 
L 43.21875 64.59375 
L 8.203125 64.59375 
z
" id="DejaVuSans-55"/>
       <path d="M 45.40625 46.390625 
L 45.40625 75.984375 
L 54.390625 75.984375 
L 54.390625 0 
L 45.40625 0 
L 45.40625 8.203125 
Q 42.578125 3.328125 38.25 0.953125 
Q 33.9375 -1.421875 27.875 -1.421875 
Q 17.96875 -1.421875 11.734375 6.484375 
Q 5.515625 14.40625 5.515625 27.296875 
Q 5.515625 40.1875 11.734375 48.09375 
Q 17.96875 56 27.875 56 
Q 33.9375 56 38.25 53.625 
Q 42.578125 51.265625 45.40625 46.390625 
z
M 14.796875 27.296875 
Q 14.796875 17.390625 18.875 11.75 
Q 22.953125 6.109375 30.078125 6.109375 
Q 37.203125 6.109375 41.296875 11.75 
Q 45.40625 17.390625 45.40625 27.296875 
Q 45.40625 37.203125 41.296875 42.84375 
Q 37.203125 48.484375 30.078125 48.484375 
Q 22.953125 48.484375 18.875 42.84375 
Q 14.796875 37.203125 14.796875 27.296875 
z
" id="DejaVuSans-100"/>
       <path d="M 32.171875 -5.078125 
Q 28.375 -14.84375 24.75 -17.8125 
Q 21.140625 -20.796875 15.09375 -20.796875 
L 7.90625 -20.796875 
L 7.90625 -13.28125 
L 13.1875 -13.28125 
Q 16.890625 -13.28125 18.9375 -11.515625 
Q 21 -9.765625 23.484375 -3.21875 
L 25.09375 0.875 
L 2.984375 54.6875 
L 12.5 54.6875 
L 29.59375 11.921875 
L 46.6875 54.6875 
L 56.203125 54.6875 
z
" id="DejaVuSans-121"/>
       <path d="M 41.109375 46.296875 
Q 39.59375 47.171875 37.8125 47.578125 
Q 36.03125 48 33.890625 48 
Q 26.265625 48 22.1875 43.046875 
Q 18.109375 38.09375 18.109375 28.8125 
L 18.109375 0 
L 9.078125 0 
L 9.078125 54.6875 
L 18.109375 54.6875 
L 18.109375 46.1875 
Q 20.953125 51.171875 25.484375 53.578125 
Q 30.03125 56 36.53125 56 
Q 37.453125 56 38.578125 55.875 
Q 39.703125 55.765625 41.0625 55.515625 
z
" id="DejaVuSans-114"/>
       <path d="M 9.421875 75.984375 
L 18.40625 75.984375 
L 18.40625 0 
L 9.421875 0 
z
" id="DejaVuSans-108"/>
       <path d="M 9.421875 54.6875 
L 18.40625 54.6875 
L 18.40625 0 
L 9.421875 0 
z
M 9.421875 75.984375 
L 18.40625 75.984375 
L 18.40625 64.59375 
L 9.421875 64.59375 
z
" id="DejaVuSans-105"/>
       <path d="M 45.40625 27.984375 
Q 45.40625 37.75 41.375 43.109375 
Q 37.359375 48.484375 30.078125 48.484375 
Q 22.859375 48.484375 18.828125 43.109375 
Q 14.796875 37.75 14.796875 27.984375 
Q 14.796875 18.265625 18.828125 12.890625 
Q 22.859375 7.515625 30.078125 7.515625 
Q 37.359375 7.515625 41.375 12.890625 
Q 45.40625 18.265625 45.40625 27.984375 
z
M 54.390625 6.78125 
Q 54.390625 -7.171875 48.1875 -13.984375 
Q 42 -20.796875 29.203125 -20.796875 
Q 24.46875 -20.796875 20.265625 -20.09375 
Q 16.0625 -19.390625 12.109375 -17.921875 
L 12.109375 -9.1875 
Q 16.0625 -11.328125 19.921875 -12.34375 
Q 23.78125 -13.375 27.78125 -13.375 
Q 36.625 -13.375 41.015625 -8.765625 
Q 45.40625 -4.15625 45.40625 5.171875 
L 45.40625 9.625 
Q 42.625 4.78125 38.28125 2.390625 
Q 33.9375 0 27.875 0 
Q 17.828125 0 11.671875 7.65625 
Q 5.515625 15.328125 5.515625 27.984375 
Q 5.515625 40.671875 11.671875 48.328125 
Q 17.828125 56 27.875 56 
Q 33.9375 56 38.28125 53.609375 
Q 42.625 51.21875 45.40625 46.390625 
L 45.40625 54.6875 
L 54.390625 54.6875 
z
" id="DejaVuSans-103"/>
       <path d="M 2.984375 54.6875 
L 12.5 54.6875 
L 29.59375 8.796875 
L 46.6875 54.6875 
L 56.203125 54.6875 
L 35.6875 0 
L 23.484375 0 
z
" id="DejaVuSans-118"/>
       <path d="M 8.015625 75.875 
L 15.828125 75.875 
Q 23.140625 64.359375 26.78125 53.3125 
Q 30.421875 42.28125 30.421875 31.390625 
Q 30.421875 20.453125 26.78125 9.375 
Q 23.140625 -1.703125 15.828125 -13.1875 
L 8.015625 -13.1875 
Q 14.5 -2 17.703125 9.0625 
Q 20.90625 20.125 20.90625 31.390625 
Q 20.90625 42.671875 17.703125 53.65625 
Q 14.5 64.65625 8.015625 75.875 
z
" id="DejaVuSans-41"/>
      </defs>
      <use xlink:href="#DejaVuSans-67"/>
      <use x="69.824219" xlink:href="#DejaVuSans-111"/>
      <use x="131.005859" xlink:href="#DejaVuSans-117"/>
      <use x="194.384766" xlink:href="#DejaVuSans-110"/>
      <use x="257.763672" xlink:href="#DejaVuSans-116"/>
      <use x="296.972656" xlink:href="#DejaVuSans-32"/>
      <use x="328.759766" xlink:href="#DejaVuSans-40"/>
      <use x="367.773438" xlink:href="#DejaVuSans-55"/>
      <use x="431.396484" xlink:href="#DejaVuSans-32"/>
      <use x="463.183594" xlink:href="#DejaVuSans-100"/>
      <use x="526.660156" xlink:href="#DejaVuSans-97"/>
      <use x="587.939453" xlink:href="#DejaVuSans-121"/>
      <use x="647.119141" xlink:href="#DejaVuSans-32"/>
      <use x="678.90625" xlink:href="#DejaVuSans-114"/>
      <use x="717.769531" xlink:href="#DejaVuSans-111"/>
      <use x="778.951172" xlink:href="#DejaVuSans-108"/>
      <use x="806.734375" xlink:href="#DejaVuSans-108"/>
      <use x="834.517578" xlink:href="#DejaVuSans-105"/>
      <use x="862.300781" xlink:href="#DejaVuSans-110"/>
      <use x="925.679688" xlink:href="#DejaVuSans-103"/>
      <use x="989.15625" xlink:href="#DejaVuSans-32"/>
      <use x="1020.943359" xlink:href="#DejaVuSans-97"/>
      <use x="1082.222656" xlink:href="#DejaVuSans-118"/>
      <use x="1141.402344" xlink:href="#DejaVuSans-101"/>
      <use x="1202.925781" xlink:href="#DejaVuSans-114"/>
      <use x="1244.039062" xlink:href="#DejaVuSans-97"/>
      <use x="1305.318359" xlink:href="#DejaVuSans-103"/>
      <use x="1368.794922" xlink:href="#DejaVuSans-101"/>
      <use x="1430.318359" xlink:href="#DejaVuSans-41"/>
     </g>
    </g>
   </g>
   <g id="line2d_16">
    <path clip-path="url(#p3b29d47805)" d="M 99.890625 199.322812 
L 105.280398 228.96 
L 148.39858 228.96 
L 153.788352 221.617661 
L 186.126989 221.617661 
L 191.516761 228.96 
L 196.906534 228.96 
L 202.296307 221.617661 
L 207.68608 221.617661 
L 213.075852 215.141259 
L 218.465625 209.34792 
L 223.855398 194.921595 
L 229.24517 187.053071 
L 234.634943 183.504365 
L 240.024716 180.170868 
L 245.414489 177.027963 
L 250.804261 174.05503 
L 256.194034 174.05503 
L 261.583807 171.234624 
L 266.97358 171.234624 
L 272.363352 174.05503 
L 277.753125 177.027963 
L 283.142898 177.027963 
L 288.53267 183.504365 
L 293.922443 180.170868 
L 299.312216 180.170868 
L 304.701989 183.504365 
L 310.091761 180.170868 
L 315.481534 177.027963 
L 320.871307 180.170868 
L 326.26108 177.027963 
L 331.650852 174.05503 
L 337.040625 177.027963 
L 342.430398 168.551855 
L 347.82017 165.993911 
L 353.209943 165.993911 
L 358.599716 163.549693 
L 363.989489 158.964883 
L 369.379261 161.209516 
L 380.158807 161.209516 
L 385.54858 156.808298 
L 390.938352 142.057571 
L 396.328125 135.941734 
L 401.717898 138.914666 
L 407.10767 129.144714 
L 412.497443 121.96245 
L 417.887216 116.619817 
L 423.276989 115.610874 
L 428.666761 121.96245 
L 434.056534 118.695002 
L 439.446307 112.690585 
L 444.83608 103.944275 
L 450.225852 100.80137 
L 455.615625 97.828437 
L 461.005398 91.031417 
L 466.39517 80.581706 
L 471.784943 77.999735 
L 477.174716 78.506521 
L 482.564489 70.910205 
L 487.954261 68.311965 
L 493.344034 67.47247 
L 498.733807 67.05748 
L 504.12358 70.468549 
L 509.513352 70.910205 
L 514.903125 67.05748 
L 520.292898 68.736568 
L 525.68267 71.355437 
L 531.072443 71.355437 
L 536.462216 69.59574 
L 541.851989 69.164476 
L 547.241761 69.59574 
L 552.631534 70.910205 
L 558.021307 78.506521 
L 563.41108 76.018048 
L 568.800852 80.055521 
L 574.190625 82.73829 
L 579.580398 84.413116 
L 584.97017 83.849154 
L 590.359943 80.055521 
L 595.749716 64.237074 
L 601.139489 55.873296 
L 606.529261 47.735564 
L 611.919034 39.384282 
L 617.308807 33.691008 
L 622.69858 29.359173 
L 628.088352 29.777319 
L 633.478125 28.737857 
L 638.867898 29.151287 
L 644.25767 27.515899 
L 649.647443 28.737857 
L 655.037216 26.123778 
L 660.426989 25.537777 
L 665.816761 21.421267 
L 671.206534 21.061881 
L 676.596307 22.697945 
L 681.98608 22.330145 
L 687.375852 24.194251 
L 692.765625 29.151287 
L 698.155398 29.151287 
L 703.54517 32.135748 
L 714.324716 41.16227 
L 719.714489 49.209804 
L 725.104261 55.202729 
L 730.494034 55.53699 
L 735.883807 63.457119 
L 741.27358 68.736568 
L 746.663352 79.534324 
L 752.053125 72.713182 
L 757.442898 70.468549 
L 762.83267 69.164476 
L 768.222443 76.506815 
L 773.612216 80.581706 
L 779.001989 84.982923 
L 784.391761 87.924045 
L 789.781534 95.008031 
L 795.171307 100.80137 
L 800.56108 97.109658 
L 805.950852 97.109658 
L 811.340625 91.031417 
L 816.730398 87.3231 
L 822.12017 83.849154 
L 827.509943 86.140563 
L 832.899716 89.146003 
L 838.289489 97.109658 
L 843.679261 97.109658 
L 849.069034 106.425261 
L 854.458807 114.620111 
L 859.84858 123.096219 
L 865.238352 125.436396 
L 870.628125 129.144714 
L 876.017898 135.941734 
L 881.40767 142.057571 
L 886.797443 140.463666 
L 892.187216 140.463666 
L 897.576989 147.136798 
L 902.966761 161.209516 
L 908.356534 163.549693 
L 913.746307 163.549693 
L 919.13608 168.551855 
L 924.525852 177.027963 
L 929.915625 180.170868 
L 935.305398 187.053071 
L 935.305398 187.053071 
" style="fill:none;stroke:#947383;stroke-linecap:square;stroke-width:2;"/>
   </g>
   <g id="line2d_17">
    <path clip-path="url(#p3b29d47805)" d="M 83.721307 221.617661 
L 89.11108 228.96 
L 94.500852 228.96 
L 99.890625 221.617661 
L 110.67017 221.617661 
L 116.059943 215.141259 
L 137.619034 215.141259 
L 143.008807 209.34792 
L 148.39858 187.053071 
L 153.788352 190.846704 
L 164.567898 190.846704 
L 169.95767 180.170868 
L 175.347443 168.551855 
L 180.737216 168.551855 
L 186.126989 171.234624 
L 191.516761 158.964883 
L 196.906534 135.941734 
L 202.296307 116.619817 
L 207.68608 119.762722 
L 213.075852 121.96245 
L 218.465625 120.851587 
L 223.855398 123.096219 
L 229.24517 111.750632 
L 234.634943 117.64762 
L 240.024716 134.513449 
L 245.414489 133.121328 
L 250.804261 137.40811 
L 256.194034 137.40811 
L 261.583807 134.513449 
L 266.97358 161.209516 
L 272.363352 177.027963 
L 277.753125 174.05503 
L 288.53267 174.05503 
L 293.922443 163.549693 
L 299.312216 158.964883 
L 304.701989 145.391068 
L 310.091761 142.057571 
L 315.481534 145.391068 
L 320.871307 142.057571 
L 326.26108 134.513449 
L 331.650852 135.941734 
L 337.040625 143.699062 
L 342.430398 147.136798 
L 353.209943 143.699062 
L 358.599716 142.057571 
L 363.989489 147.136798 
L 369.379261 143.699062 
L 374.769034 137.40811 
L 380.158807 142.057571 
L 385.54858 140.463666 
L 390.938352 135.941734 
L 396.328125 129.144714 
L 401.717898 129.144714 
L 407.10767 131.763583 
L 412.497443 124.253859 
L 417.887216 120.851587 
L 423.276989 124.253859 
L 428.666761 126.644926 
L 434.056534 133.121328 
L 439.446307 134.513449 
L 444.83608 134.513449 
L 450.225852 150.803881 
L 455.615625 158.964883 
L 461.005398 152.733407 
L 466.39517 158.964883 
L 471.784943 168.551855 
L 477.174716 171.234624 
L 482.564489 180.170868 
L 487.954261 180.170868 
L 493.344034 183.504365 
L 498.733807 204.107208 
L 504.12358 190.846704 
L 509.513352 183.504365 
L 514.903125 183.504365 
L 520.292898 190.846704 
L 525.68267 194.921595 
L 531.072443 183.504365 
L 536.462216 177.027963 
L 541.851989 177.027963 
L 547.241761 174.05503 
L 552.631534 174.05503 
L 558.021307 165.993911 
L 563.41108 156.808298 
L 568.800852 165.993911 
L 574.190625 171.234624 
L 579.580398 177.027963 
L 584.97017 183.504365 
L 590.359943 183.504365 
L 595.749716 194.921595 
L 601.139489 209.34792 
L 606.529261 209.34792 
L 611.919034 204.107208 
L 622.69858 204.107208 
L 628.088352 187.053071 
L 633.478125 183.504365 
L 638.867898 183.504365 
L 644.25767 180.170868 
L 649.647443 165.993911 
L 655.037216 165.993911 
L 660.426989 168.551855 
L 665.816761 177.027963 
L 671.206534 180.170868 
L 676.596307 183.504365 
L 681.98608 187.053071 
L 687.375852 215.141259 
L 692.765625 221.617661 
L 698.155398 221.617661 
L 703.54517 228.96 
L 725.104261 228.96 
L 730.494034 215.141259 
L 735.883807 194.921595 
L 762.83267 194.921595 
L 768.222443 204.107208 
L 773.612216 228.96 
L 784.391761 228.96 
L 789.781534 209.34792 
L 789.781534 209.34792 
" style="fill:none;stroke:#96c6ad;stroke-linecap:square;stroke-width:2;"/>
   </g>
   <g id="line2d_18">
    <path clip-path="url(#p3b29d47805)" d="M 105.280398 215.141259 
L 110.67017 221.617661 
L 116.059943 228.96 
L 137.619034 228.96 
L 143.008807 221.617661 
L 175.347443 221.617661 
L 180.737216 204.107208 
L 202.296307 204.107208 
L 207.68608 199.322812 
L 213.075852 199.322812 
L 218.465625 221.617661 
L 223.855398 221.617661 
L 229.24517 215.141259 
L 234.634943 190.846704 
L 240.024716 183.504365 
L 245.414489 187.053071 
L 250.804261 183.504365 
L 256.194034 180.170868 
L 261.583807 171.234624 
L 266.97358 163.549693 
L 272.363352 174.05503 
L 283.142898 174.05503 
L 288.53267 177.027963 
L 293.922443 177.027963 
L 299.312216 174.05503 
L 304.701989 183.504365 
L 310.091761 183.504365 
L 315.481534 187.053071 
L 320.871307 168.551855 
L 331.650852 168.551855 
L 337.040625 174.05503 
L 342.430398 171.234624 
L 347.82017 174.05503 
L 353.209943 171.234624 
L 358.599716 187.053071 
L 363.989489 180.170868 
L 369.379261 163.549693 
L 374.769034 163.549693 
L 380.158807 165.993911 
L 385.54858 161.209516 
L 396.328125 165.993911 
L 401.717898 163.549693 
L 407.10767 177.027963 
L 412.497443 183.504365 
L 417.887216 171.234624 
L 423.276989 174.05503 
L 428.666761 168.551855 
L 434.056534 158.964883 
L 439.446307 154.733114 
L 444.83608 147.136798 
L 450.225852 134.513449 
L 455.615625 134.513449 
L 461.005398 130.438558 
L 466.39517 129.144714 
L 471.784943 123.096219 
L 477.174716 124.253859 
L 487.954261 121.96245 
L 493.344034 112.690585 
L 504.12358 109.023502 
L 509.513352 108.143709 
L 514.903125 109.023502 
L 520.292898 107.277772 
L 525.68267 108.143709 
L 531.072443 117.64762 
L 536.462216 113.646885 
L 547.241761 117.64762 
L 552.631534 115.610874 
L 558.021307 118.695002 
L 563.41108 123.096219 
L 568.800852 121.96245 
L 574.190625 130.438558 
L 579.580398 123.096219 
L 584.97017 118.695002 
L 595.749716 123.096219 
L 606.529261 127.880615 
L 611.919034 123.096219 
L 617.308807 130.438558 
L 622.69858 147.136798 
L 628.088352 152.733407 
L 633.478125 156.808298 
L 638.867898 148.939775 
L 644.25767 150.803881 
L 649.647443 150.803881 
L 655.037216 147.136798 
L 660.426989 147.136798 
L 665.816761 145.391068 
L 671.206534 147.136798 
L 676.596307 154.733114 
L 681.98608 150.803881 
L 687.375852 163.549693 
L 692.765625 174.05503 
L 698.155398 177.027963 
L 714.324716 177.027963 
L 719.714489 171.234624 
L 730.494034 171.234624 
L 735.883807 161.209516 
L 741.27358 156.808298 
L 746.663352 156.808298 
L 752.053125 148.939775 
L 757.442898 150.803881 
L 762.83267 142.057571 
L 768.222443 145.391068 
L 779.001989 145.391068 
L 784.391761 143.699062 
L 789.781534 150.803881 
L 795.171307 152.733407 
L 800.56108 158.964883 
L 805.950852 156.808298 
L 811.340625 165.993911 
L 816.730398 163.549693 
L 822.12017 154.733114 
L 827.509943 152.733407 
L 832.899716 156.808298 
L 838.289489 156.808298 
L 843.679261 154.733114 
L 849.069034 154.733114 
L 854.458807 161.209516 
L 859.84858 171.234624 
L 865.238352 174.05503 
L 870.628125 171.234624 
L 876.017898 174.05503 
L 881.40767 171.234624 
L 886.797443 168.551855 
L 892.187216 171.234624 
L 897.576989 177.027963 
L 902.966761 180.170868 
L 908.356534 187.053071 
L 913.746307 194.921595 
L 919.13608 204.107208 
L 929.915625 204.107208 
L 935.305398 199.322812 
L 935.305398 199.322812 
" style="fill:none;stroke:#525886;stroke-linecap:square;stroke-width:2;"/>
   </g>
   <g id="line2d_19">
    <path clip-path="url(#p3b29d47805)" d="M 110.67017 221.617661 
L 116.059943 228.96 
L 186.126989 228.96 
L 191.516761 215.141259 
L 196.906534 209.34792 
L 213.075852 209.34792 
L 218.465625 199.322812 
L 223.855398 199.322812 
L 229.24517 209.34792 
L 234.634943 209.34792 
L 240.024716 204.107208 
L 250.804261 204.107208 
L 256.194034 180.170868 
L 261.583807 177.027963 
L 266.97358 174.05503 
L 272.363352 177.027963 
L 277.753125 174.05503 
L 288.53267 174.05503 
L 293.922443 152.733407 
L 299.312216 148.939775 
L 304.701989 137.40811 
L 310.091761 129.144714 
L 315.481534 129.144714 
L 326.26108 124.253859 
L 331.650852 97.828437 
L 337.040625 96.400153 
L 347.82017 100.80137 
L 353.209943 96.400153 
L 363.989489 97.828437 
L 369.379261 112.690585 
L 374.769034 109.9176 
L 380.158807 109.023502 
L 385.54858 111.750632 
L 390.938352 117.64762 
L 396.328125 114.620111 
L 401.717898 109.9176 
L 407.10767 94.324968 
L 417.887216 92.983783 
L 423.276989 87.924045 
L 428.666761 86.140563 
L 434.056534 86.140563 
L 439.446307 84.413116 
L 444.83608 79.534324 
L 450.225852 81.112974 
L 455.615625 76.999965 
L 461.005398 76.506815 
L 466.39517 79.018021 
L 471.784943 77.999735 
L 477.174716 81.649426 
L 482.564489 74.577288 
L 487.954261 71.804304 
L 493.344034 71.355437 
L 498.733807 64.237074 
L 504.12358 55.873296 
L 509.513352 51.654022 
L 514.903125 48.615356 
L 520.292898 50.113701 
L 525.68267 48.320525 
L 531.072443 48.615356 
L 536.462216 51.654022 
L 541.851989 50.724662 
L 547.241761 51.967333 
L 552.631534 51.032707 
L 558.021307 26.320507 
L 563.41108 21.24128 
L 568.800852 20.35008 
L 574.190625 17.76 
L 579.580398 18.781439 
L 584.97017 18.438846 
L 590.359943 17.76 
L 595.749716 26.123778 
L 601.139489 27.314854 
L 606.529261 24.384185 
L 611.919034 26.123778 
L 617.308807 26.914955 
L 622.69858 26.320507 
L 628.088352 28.327513 
L 633.478125 32.575638 
L 638.867898 32.355253 
L 644.25767 33.916823 
L 649.647443 32.355253 
L 655.037216 29.98759 
L 660.426989 31.051179 
L 665.816761 31.482443 
L 671.206534 44.077867 
L 681.98608 48.615356 
L 687.375852 49.209804 
L 692.765625 45.17762 
L 698.155398 43.536129 
L 703.54517 41.681009 
L 708.934943 36.940063 
L 714.324716 34.829472 
L 719.714489 30.836809 
L 725.104261 28.532303 
L 730.494034 33.466116 
L 735.883807 35.992007 
L 741.27358 37.661988 
L 746.663352 46.29982 
L 752.053125 44.35075 
L 757.442898 44.077867 
L 762.83267 46.583985 
L 768.222443 44.624994 
L 773.612216 45.45603 
L 779.001989 45.45603 
L 784.391761 44.077867 
L 789.781534 46.869627 
L 795.171307 50.113701 
L 805.950852 52.599361 
L 811.340625 51.342487 
L 816.730398 51.342487 
L 822.12017 52.918121 
L 827.509943 55.53699 
L 832.899716 62.307547 
L 838.289489 70.030413 
L 843.679261 65.830979 
L 849.069034 68.311965 
L 854.458807 70.468549 
L 859.84858 79.534324 
L 865.238352 84.982923 
L 870.628125 80.581706 
L 876.017898 78.506521 
L 881.40767 91.674534 
L 886.797443 89.146003 
L 892.187216 88.531629 
L 897.576989 90.395735 
L 902.966761 95.008031 
L 908.356534 101.570416 
L 913.746307 107.277772 
L 919.13608 111.750632 
L 924.525852 119.762722 
L 929.915625 123.096219 
L 935.305398 140.463666 
L 940.69517 161.209516 
L 946.084943 180.170868 
L 946.084943 180.170868 
" style="fill:none;stroke:#937252;stroke-linecap:square;stroke-width:2;"/>
   </g>
   <g id="line2d_20">
    <path clip-path="url(#p3b29d47805)" d="M 229.24517 204.107208 
L 234.634943 215.141259 
L 240.024716 209.34792 
L 245.414489 215.141259 
L 250.804261 221.617661 
L 256.194034 221.617661 
L 261.583807 221.617661 
L 266.97358 204.107208 
L 272.363352 204.107208 
L 277.753125 204.107208 
L 283.142898 199.322812 
L 288.53267 199.322812 
L 293.922443 199.322812 
L 299.312216 199.322812 
L 304.701989 215.141259 
L 310.091761 215.141259 
L 315.481534 215.141259 
L 320.871307 215.141259 
L 326.26108 194.921595 
L 331.650852 194.921595 
L 337.040625 190.846704 
L 342.430398 187.053071 
L 347.82017 187.053071 
L 353.209943 190.846704 
L 358.599716 194.921595 
L 363.989489 215.141259 
L 369.379261 215.141259 
L 374.769034 221.617661 
L 380.158807 228.96 
L 385.54858 221.617661 
L 390.938352 221.617661 
L 396.328125 221.617661 
L 401.717898 221.617661 
L 407.10767 221.617661 
L 412.497443 215.141259 
L 417.887216 215.141259 
L 423.276989 221.617661 
L 428.666761 215.141259 
L 434.056534 199.322812 
L 439.446307 199.322812 
L 444.83608 190.846704 
L 450.225852 187.053071 
L 455.615625 177.027963 
L 461.005398 177.027963 
L 466.39517 158.964883 
L 471.784943 165.993911 
L 477.174716 156.808298 
L 482.564489 154.733114 
L 487.954261 150.803881 
L 493.344034 152.733407 
L 498.733807 145.391068 
L 504.12358 156.808298 
L 509.513352 152.733407 
L 514.903125 158.964883 
L 520.292898 135.941734 
L 525.68267 140.463666 
L 531.072443 140.463666 
L 536.462216 137.40811 
L 541.851989 137.40811 
L 547.241761 140.463666 
L 552.631534 137.40811 
L 558.021307 161.209516 
L 563.41108 156.808298 
L 568.800852 156.808298 
L 574.190625 165.993911 
L 579.580398 161.209516 
L 584.97017 156.808298 
L 590.359943 158.964883 
L 595.749716 165.993911 
L 601.139489 156.808298 
L 606.529261 156.808298 
L 611.919034 156.808298 
L 617.308807 152.733407 
L 622.69858 156.808298 
L 628.088352 158.964883 
L 633.478125 150.803881 
L 638.867898 154.733114 
L 644.25767 150.803881 
L 649.647443 152.733407 
L 655.037216 154.733114 
L 660.426989 152.733407 
L 665.816761 152.733407 
L 671.206534 158.964883 
L 676.596307 161.209516 
L 681.98608 165.993911 
L 687.375852 161.209516 
L 692.765625 174.05503 
L 698.155398 174.05503 
L 703.54517 177.027963 
L 708.934943 168.551855 
L 714.324716 177.027963 
L 719.714489 183.504365 
L 725.104261 187.053071 
L 730.494034 180.170868 
L 735.883807 183.504365 
L 741.27358 180.170868 
L 746.663352 187.053071 
L 752.053125 190.846704 
L 757.442898 190.846704 
L 762.83267 199.322812 
L 768.222443 204.107208 
L 773.612216 199.322812 
L 779.001989 204.107208 
L 784.391761 199.322812 
L 789.781534 194.921595 
L 795.171307 187.053071 
L 800.56108 187.053071 
L 805.950852 190.846704 
L 811.340625 180.170868 
L 816.730398 174.05503 
L 822.12017 171.234624 
L 827.509943 168.551855 
L 832.899716 171.234624 
L 838.289489 171.234624 
L 843.679261 171.234624 
L 849.069034 183.504365 
L 854.458807 180.170868 
" style="fill:none;stroke:#d18cad;stroke-linecap:square;stroke-width:2;"/>
   </g>
   <g id="line2d_21">
    <path clip-path="url(#p3b29d47805)" d="M 223.855398 221.617661 
L 229.24517 228.96 
L 245.414489 228.96 
L 250.804261 221.617661 
L 283.142898 221.617661 
L 288.53267 228.96 
L 326.26108 228.96 
L 331.650852 221.617661 
L 363.989489 221.617661 
L 369.379261 228.96 
L 374.769034 228.96 
L 380.158807 221.617661 
L 412.497443 221.617661 
L 417.887216 228.96 
L 493.344034 228.96 
L 498.733807 221.617661 
L 531.072443 221.617661 
L 536.462216 228.96 
L 541.851989 221.617661 
L 574.190625 221.617661 
L 579.580398 228.96 
L 601.139489 228.96 
L 606.529261 221.617661 
L 628.088352 221.617661 
L 633.478125 215.141259 
L 638.867898 215.141259 
L 644.25767 221.617661 
L 665.816761 221.617661 
L 671.206534 228.96 
L 692.765625 228.96 
L 698.155398 221.617661 
L 730.494034 221.617661 
L 735.883807 228.96 
L 838.289489 228.96 
L 843.679261 221.617661 
L 913.746307 221.617661 
L 919.13608 228.96 
L 924.525852 228.96 
L 929.915625 221.617661 
L 929.915625 221.617661 
" style="fill:none;stroke:#a4a86f;stroke-linecap:square;stroke-width:2;"/>
   </g>
   <g id="line2d_22">
    <path clip-path="url(#p3b29d47805)" d="M 439.446307 221.617661 
L 444.83608 228.96 
L 450.225852 228.96 
L 455.615625 228.96 
L 461.005398 228.96 
L 466.39517 228.96 
L 471.784943 228.96 
L 477.174716 228.96 
L 482.564489 228.96 
L 487.954261 228.96 
L 493.344034 228.96 
L 498.733807 228.96 
L 504.12358 228.96 
L 509.513352 228.96 
L 514.903125 228.96 
L 520.292898 228.96 
L 525.68267 228.96 
L 531.072443 228.96 
L 536.462216 228.96 
L 541.851989 228.96 
L 547.241761 228.96 
L 552.631534 228.96 
L 558.021307 228.96 
L 563.41108 228.96 
L 568.800852 228.96 
L 574.190625 228.96 
L 579.580398 228.96 
L 584.97017 228.96 
L 590.359943 228.96 
L 595.749716 228.96 
L 601.139489 228.96 
L 606.529261 228.96 
L 611.919034 228.96 
L 617.308807 228.96 
L 622.69858 228.96 
L 628.088352 228.96 
L 633.478125 228.96 
L 638.867898 228.96 
L 644.25767 228.96 
L 649.647443 228.96 
L 655.037216 228.96 
L 660.426989 228.96 
L 665.816761 228.96 
L 671.206534 228.96 
L 676.596307 228.96 
L 681.98608 228.96 
L 687.375852 228.96 
L 692.765625 228.96 
L 698.155398 228.96 
L 703.54517 228.96 
L 708.934943 228.96 
L 714.324716 228.96 
L 719.714489 228.96 
L 725.104261 228.96 
L 730.494034 228.96 
L 735.883807 228.96 
L 741.27358 228.96 
L 746.663352 228.96 
L 752.053125 228.96 
L 757.442898 228.96 
L 762.83267 228.96 
L 768.222443 228.96 
L 773.612216 228.96 
L 779.001989 228.96 
L 784.391761 228.96 
L 789.781534 228.96 
L 795.171307 228.96 
L 800.56108 228.96 
L 805.950852 228.96 
L 811.340625 228.96 
L 816.730398 228.96 
L 822.12017 228.96 
L 827.509943 221.617661 
" style="fill:none;stroke:#d3d3d3;stroke-linecap:square;stroke-width:2;"/>
   </g>
   <g id="patch_3">
    <path d="M 40.603125 228.96 
L 40.603125 7.2 
" style="fill:none;stroke:#000000;stroke-linecap:square;stroke-linejoin:miter;stroke-width:0.8;"/>
   </g>
   <g id="patch_4">
    <path d="M 40.603125 228.96 
L 989.203125 228.96 
" style="fill:none;stroke:#000000;stroke-linecap:square;stroke-linejoin:miter;stroke-width:0.8;"/>
   </g>
   <g id="legend_1">
    <g id="line2d_23">
     <path d="M 47.803125 17.67875 
L 63.803125 17.67875 
" style="fill:none;stroke:#947383;stroke-linecap:square;stroke-width:2;"/>
    </g>
    <g id="line2d_24"/>
    <g id="text_18">
     <!-- North America -->
     <g transform="translate(70.203125 20.47875)scale(0.08 -0.08)">
      <defs>
       <path d="M 9.8125 72.90625 
L 23.09375 72.90625 
L 55.421875 11.921875 
L 55.421875 72.90625 
L 64.984375 72.90625 
L 64.984375 0 
L 51.703125 0 
L 19.390625 60.984375 
L 19.390625 0 
L 9.8125 0 
z
" id="DejaVuSans-78"/>
       <path d="M 54.890625 33.015625 
L 54.890625 0 
L 45.90625 0 
L 45.90625 32.71875 
Q 45.90625 40.484375 42.875 44.328125 
Q 39.84375 48.1875 33.796875 48.1875 
Q 26.515625 48.1875 22.3125 43.546875 
Q 18.109375 38.921875 18.109375 30.90625 
L 18.109375 0 
L 9.078125 0 
L 9.078125 75.984375 
L 18.109375 75.984375 
L 18.109375 46.1875 
Q 21.34375 51.125 25.703125 53.5625 
Q 30.078125 56 35.796875 56 
Q 45.21875 56 50.046875 50.171875 
Q 54.890625 44.34375 54.890625 33.015625 
z
" id="DejaVuSans-104"/>
       <path d="M 34.1875 63.1875 
L 20.796875 26.90625 
L 47.609375 26.90625 
z
M 28.609375 72.90625 
L 39.796875 72.90625 
L 67.578125 0 
L 57.328125 0 
L 50.6875 18.703125 
L 17.828125 18.703125 
L 11.1875 0 
L 0.78125 0 
z
" id="DejaVuSans-65"/>
       <path d="M 52 44.1875 
Q 55.375 50.25 60.0625 53.125 
Q 64.75 56 71.09375 56 
Q 79.640625 56 84.28125 50.015625 
Q 88.921875 44.046875 88.921875 33.015625 
L 88.921875 0 
L 79.890625 0 
L 79.890625 32.71875 
Q 79.890625 40.578125 77.09375 44.375 
Q 74.3125 48.1875 68.609375 48.1875 
Q 61.625 48.1875 57.5625 43.546875 
Q 53.515625 38.921875 53.515625 30.90625 
L 53.515625 0 
L 44.484375 0 
L 44.484375 32.71875 
Q 44.484375 40.625 41.703125 44.40625 
Q 38.921875 48.1875 33.109375 48.1875 
Q 26.21875 48.1875 22.15625 43.53125 
Q 18.109375 38.875 18.109375 30.90625 
L 18.109375 0 
L 9.078125 0 
L 9.078125 54.6875 
L 18.109375 54.6875 
L 18.109375 46.1875 
Q 21.1875 51.21875 25.484375 53.609375 
Q 29.78125 56 35.6875 56 
Q 41.65625 56 45.828125 52.96875 
Q 50 49.953125 52 44.1875 
z
" id="DejaVuSans-109"/>
       <path d="M 48.78125 52.59375 
L 48.78125 44.1875 
Q 44.96875 46.296875 41.140625 47.34375 
Q 37.3125 48.390625 33.40625 48.390625 
Q 24.65625 48.390625 19.8125 42.84375 
Q 14.984375 37.3125 14.984375 27.296875 
Q 14.984375 17.28125 19.8125 11.734375 
Q 24.65625 6.203125 33.40625 6.203125 
Q 37.3125 6.203125 41.140625 7.25 
Q 44.96875 8.296875 48.78125 10.40625 
L 48.78125 2.09375 
Q 45.015625 0.34375 40.984375 -0.53125 
Q 36.96875 -1.421875 32.421875 -1.421875 
Q 20.0625 -1.421875 12.78125 6.34375 
Q 5.515625 14.109375 5.515625 27.296875 
Q 5.515625 40.671875 12.859375 48.328125 
Q 20.21875 56 33.015625 56 
Q 37.15625 56 41.109375 55.140625 
Q 45.0625 54.296875 48.78125 52.59375 
z
" id="DejaVuSans-99"/>
      </defs>
      <use xlink:href="#DejaVuSans-78"/>
      <use x="74.804688" xlink:href="#DejaVuSans-111"/>
      <use x="135.986328" xlink:href="#DejaVuSans-114"/>
      <use x="177.099609" xlink:href="#DejaVuSans-116"/>
      <use x="216.308594" xlink:href="#DejaVuSans-104"/>
      <use x="279.6875" xlink:href="#DejaVuSans-32"/>
      <use x="311.474609" xlink:href="#DejaVuSans-65"/>
      <use x="379.882812" xlink:href="#DejaVuSans-109"/>
      <use x="477.294922" xlink:href="#DejaVuSans-101"/>
      <use x="538.818359" xlink:href="#DejaVuSans-114"/>
      <use x="579.931641" xlink:href="#DejaVuSans-105"/>
      <use x="607.714844" xlink:href="#DejaVuSans-99"/>
      <use x="662.695312" xlink:href="#DejaVuSans-97"/>
     </g>
    </g>
    <g id="line2d_25">
     <path d="M 47.803125 29.42125 
L 63.803125 29.42125 
" style="fill:none;stroke:#96c6ad;stroke-linecap:square;stroke-width:2;"/>
    </g>
    <g id="line2d_26"/>
    <g id="text_19">
     <!-- Africa -->
     <g transform="translate(70.203125 32.22125)scale(0.08 -0.08)">
      <defs>
       <path d="M 37.109375 75.984375 
L 37.109375 68.5 
L 28.515625 68.5 
Q 23.6875 68.5 21.796875 66.546875 
Q 19.921875 64.59375 19.921875 59.515625 
L 19.921875 54.6875 
L 34.71875 54.6875 
L 34.71875 47.703125 
L 19.921875 47.703125 
L 19.921875 0 
L 10.890625 0 
L 10.890625 47.703125 
L 2.296875 47.703125 
L 2.296875 54.6875 
L 10.890625 54.6875 
L 10.890625 58.5 
Q 10.890625 67.625 15.140625 71.796875 
Q 19.390625 75.984375 28.609375 75.984375 
z
" id="DejaVuSans-102"/>
      </defs>
      <use xlink:href="#DejaVuSans-65"/>
      <use x="64.783203" xlink:href="#DejaVuSans-102"/>
      <use x="99.988281" xlink:href="#DejaVuSans-114"/>
      <use x="141.101562" xlink:href="#DejaVuSans-105"/>
      <use x="168.884766" xlink:href="#DejaVuSans-99"/>
      <use x="223.865234" xlink:href="#DejaVuSans-97"/>
     </g>
    </g>
    <g id="line2d_27">
     <path d="M 47.803125 41.16375 
L 63.803125 41.16375 
" style="fill:none;stroke:#525886;stroke-linecap:square;stroke-width:2;"/>
    </g>
    <g id="line2d_28"/>
    <g id="text_20">
     <!-- United Kingdom -->
     <g transform="translate(70.203125 43.96375)scale(0.08 -0.08)">
      <defs>
       <path d="M 8.6875 72.90625 
L 18.609375 72.90625 
L 18.609375 28.609375 
Q 18.609375 16.890625 22.84375 11.734375 
Q 27.09375 6.59375 36.625 6.59375 
Q 46.09375 6.59375 50.34375 11.734375 
Q 54.59375 16.890625 54.59375 28.609375 
L 54.59375 72.90625 
L 64.5 72.90625 
L 64.5 27.390625 
Q 64.5 13.140625 57.4375 5.859375 
Q 50.390625 -1.421875 36.625 -1.421875 
Q 22.796875 -1.421875 15.734375 5.859375 
Q 8.6875 13.140625 8.6875 27.390625 
z
" id="DejaVuSans-85"/>
       <path d="M 9.8125 72.90625 
L 19.671875 72.90625 
L 19.671875 42.09375 
L 52.390625 72.90625 
L 65.09375 72.90625 
L 28.90625 38.921875 
L 67.671875 0 
L 54.6875 0 
L 19.671875 35.109375 
L 19.671875 0 
L 9.8125 0 
z
" id="DejaVuSans-75"/>
      </defs>
      <use xlink:href="#DejaVuSans-85"/>
      <use x="73.193359" xlink:href="#DejaVuSans-110"/>
      <use x="136.572266" xlink:href="#DejaVuSans-105"/>
      <use x="164.355469" xlink:href="#DejaVuSans-116"/>
      <use x="203.564453" xlink:href="#DejaVuSans-101"/>
      <use x="265.087891" xlink:href="#DejaVuSans-100"/>
      <use x="328.564453" xlink:href="#DejaVuSans-32"/>
      <use x="360.351562" xlink:href="#DejaVuSans-75"/>
      <use x="425.927734" xlink:href="#DejaVuSans-105"/>
      <use x="453.710938" xlink:href="#DejaVuSans-110"/>
      <use x="517.089844" xlink:href="#DejaVuSans-103"/>
      <use x="580.566406" xlink:href="#DejaVuSans-100"/>
      <use x="644.042969" xlink:href="#DejaVuSans-111"/>
      <use x="705.224609" xlink:href="#DejaVuSans-109"/>
     </g>
    </g>
    <g id="line2d_29">
     <path d="M 47.803125 52.90625 
L 63.803125 52.90625 
" style="fill:none;stroke:#937252;stroke-linecap:square;stroke-width:2;"/>
    </g>
    <g id="line2d_30"/>
    <g id="text_21">
     <!-- Europe -->
     <g transform="translate(70.203125 55.70625)scale(0.08 -0.08)">
      <defs>
       <path d="M 9.8125 72.90625 
L 55.90625 72.90625 
L 55.90625 64.59375 
L 19.671875 64.59375 
L 19.671875 43.015625 
L 54.390625 43.015625 
L 54.390625 34.71875 
L 19.671875 34.71875 
L 19.671875 8.296875 
L 56.78125 8.296875 
L 56.78125 0 
L 9.8125 0 
z
" id="DejaVuSans-69"/>
       <path d="M 18.109375 8.203125 
L 18.109375 -20.796875 
L 9.078125 -20.796875 
L 9.078125 54.6875 
L 18.109375 54.6875 
L 18.109375 46.390625 
Q 20.953125 51.265625 25.265625 53.625 
Q 29.59375 56 35.59375 56 
Q 45.5625 56 51.78125 48.09375 
Q 58.015625 40.1875 58.015625 27.296875 
Q 58.015625 14.40625 51.78125 6.484375 
Q 45.5625 -1.421875 35.59375 -1.421875 
Q 29.59375 -1.421875 25.265625 0.953125 
Q 20.953125 3.328125 18.109375 8.203125 
z
M 48.6875 27.296875 
Q 48.6875 37.203125 44.609375 42.84375 
Q 40.53125 48.484375 33.40625 48.484375 
Q 26.265625 48.484375 22.1875 42.84375 
Q 18.109375 37.203125 18.109375 27.296875 
Q 18.109375 17.390625 22.1875 11.75 
Q 26.265625 6.109375 33.40625 6.109375 
Q 40.53125 6.109375 44.609375 11.75 
Q 48.6875 17.390625 48.6875 27.296875 
z
" id="DejaVuSans-112"/>
      </defs>
      <use xlink:href="#DejaVuSans-69"/>
      <use x="63.183594" xlink:href="#DejaVuSans-117"/>
      <use x="126.5625" xlink:href="#DejaVuSans-114"/>
      <use x="165.425781" xlink:href="#DejaVuSans-111"/>
      <use x="226.607422" xlink:href="#DejaVuSans-112"/>
      <use x="290.083984" xlink:href="#DejaVuSans-101"/>
     </g>
    </g>
    <g id="line2d_31">
     <path d="M 47.803125 64.64875 
L 63.803125 64.64875 
" style="fill:none;stroke:#d18cad;stroke-linecap:square;stroke-width:2;"/>
    </g>
    <g id="line2d_32"/>
    <g id="text_22">
     <!-- Asia -->
     <g transform="translate(70.203125 67.44875)scale(0.08 -0.08)">
      <defs>
       <path d="M 44.28125 53.078125 
L 44.28125 44.578125 
Q 40.484375 46.53125 36.375 47.5 
Q 32.28125 48.484375 27.875 48.484375 
Q 21.1875 48.484375 17.84375 46.4375 
Q 14.5 44.390625 14.5 40.28125 
Q 14.5 37.15625 16.890625 35.375 
Q 19.28125 33.59375 26.515625 31.984375 
L 29.59375 31.296875 
Q 39.15625 29.25 43.1875 25.515625 
Q 47.21875 21.78125 47.21875 15.09375 
Q 47.21875 7.46875 41.1875 3.015625 
Q 35.15625 -1.421875 24.609375 -1.421875 
Q 20.21875 -1.421875 15.453125 -0.5625 
Q 10.6875 0.296875 5.421875 2 
L 5.421875 11.28125 
Q 10.40625 8.6875 15.234375 7.390625 
Q 20.0625 6.109375 24.8125 6.109375 
Q 31.15625 6.109375 34.5625 8.28125 
Q 37.984375 10.453125 37.984375 14.40625 
Q 37.984375 18.0625 35.515625 20.015625 
Q 33.0625 21.96875 24.703125 23.78125 
L 21.578125 24.515625 
Q 13.234375 26.265625 9.515625 29.90625 
Q 5.8125 33.546875 5.8125 39.890625 
Q 5.8125 47.609375 11.28125 51.796875 
Q 16.75 56 26.8125 56 
Q 31.78125 56 36.171875 55.265625 
Q 40.578125 54.546875 44.28125 53.078125 
z
" id="DejaVuSans-115"/>
      </defs>
      <use xlink:href="#DejaVuSans-65"/>
      <use x="68.408203" xlink:href="#DejaVuSans-115"/>
      <use x="120.507812" xlink:href="#DejaVuSans-105"/>
      <use x="148.291016" xlink:href="#DejaVuSans-97"/>
     </g>
    </g>
    <g id="line2d_33">
     <path d="M 47.803125 76.39125 
L 63.803125 76.39125 
" style="fill:none;stroke:#a4a86f;stroke-linecap:square;stroke-width:2;"/>
    </g>
    <g id="line2d_34"/>
    <g id="text_23">
     <!-- Oceania -->
     <g transform="translate(70.203125 79.19125)scale(0.08 -0.08)">
      <defs>
       <path d="M 39.40625 66.21875 
Q 28.65625 66.21875 22.328125 58.203125 
Q 16.015625 50.203125 16.015625 36.375 
Q 16.015625 22.609375 22.328125 14.59375 
Q 28.65625 6.59375 39.40625 6.59375 
Q 50.140625 6.59375 56.421875 14.59375 
Q 62.703125 22.609375 62.703125 36.375 
Q 62.703125 50.203125 56.421875 58.203125 
Q 50.140625 66.21875 39.40625 66.21875 
z
M 39.40625 74.21875 
Q 54.734375 74.21875 63.90625 63.9375 
Q 73.09375 53.65625 73.09375 36.375 
Q 73.09375 19.140625 63.90625 8.859375 
Q 54.734375 -1.421875 39.40625 -1.421875 
Q 24.03125 -1.421875 14.8125 8.828125 
Q 5.609375 19.09375 5.609375 36.375 
Q 5.609375 53.65625 14.8125 63.9375 
Q 24.03125 74.21875 39.40625 74.21875 
z
" id="DejaVuSans-79"/>
      </defs>
      <use xlink:href="#DejaVuSans-79"/>
      <use x="78.710938" xlink:href="#DejaVuSans-99"/>
      <use x="133.691406" xlink:href="#DejaVuSans-101"/>
      <use x="195.214844" xlink:href="#DejaVuSans-97"/>
      <use x="256.494141" xlink:href="#DejaVuSans-110"/>
      <use x="319.873047" xlink:href="#DejaVuSans-105"/>
      <use x="347.65625" xlink:href="#DejaVuSans-97"/>
     </g>
    </g>
    <g id="line2d_35">
     <path d="M 47.803125 88.13375 
L 63.803125 88.13375 
" style="fill:none;stroke:#d3d3d3;stroke-linecap:square;stroke-width:2;"/>
    </g>
    <g id="line2d_36"/>
    <g id="text_24">
     <!-- South America -->
     <g transform="translate(70.203125 90.93375)scale(0.08 -0.08)">
      <defs>
       <path d="M 53.515625 70.515625 
L 53.515625 60.890625 
Q 47.90625 63.578125 42.921875 64.890625 
Q 37.9375 66.21875 33.296875 66.21875 
Q 25.25 66.21875 20.875 63.09375 
Q 16.5 59.96875 16.5 54.203125 
Q 16.5 49.359375 19.40625 46.890625 
Q 22.3125 44.4375 30.421875 42.921875 
L 36.375 41.703125 
Q 47.40625 39.59375 52.65625 34.296875 
Q 57.90625 29 57.90625 20.125 
Q 57.90625 9.515625 50.796875 4.046875 
Q 43.703125 -1.421875 29.984375 -1.421875 
Q 24.8125 -1.421875 18.96875 -0.25 
Q 13.140625 0.921875 6.890625 3.21875 
L 6.890625 13.375 
Q 12.890625 10.015625 18.65625 8.296875 
Q 24.421875 6.59375 29.984375 6.59375 
Q 38.421875 6.59375 43.015625 9.90625 
Q 47.609375 13.234375 47.609375 19.390625 
Q 47.609375 24.75 44.3125 27.78125 
Q 41.015625 30.8125 33.5 32.328125 
L 27.484375 33.5 
Q 16.453125 35.6875 11.515625 40.375 
Q 6.59375 45.0625 6.59375 53.421875 
Q 6.59375 63.09375 13.40625 68.65625 
Q 20.21875 74.21875 32.171875 74.21875 
Q 37.3125 74.21875 42.625 73.28125 
Q 47.953125 72.359375 53.515625 70.515625 
z
" id="DejaVuSans-83"/>
      </defs>
      <use xlink:href="#DejaVuSans-83"/>
      <use x="63.476562" xlink:href="#DejaVuSans-111"/>
      <use x="124.658203" xlink:href="#DejaVuSans-117"/>
      <use x="188.037109" xlink:href="#DejaVuSans-116"/>
      <use x="227.246094" xlink:href="#DejaVuSans-104"/>
      <use x="290.625" xlink:href="#DejaVuSans-32"/>
      <use x="322.412109" xlink:href="#DejaVuSans-65"/>
      <use x="390.820312" xlink:href="#DejaVuSans-109"/>
      <use x="488.232422" xlink:href="#DejaVuSans-101"/>
      <use x="549.755859" xlink:href="#DejaVuSans-114"/>
      <use x="590.869141" xlink:href="#DejaVuSans-105"/>
      <use x="618.652344" xlink:href="#DejaVuSans-99"/>
      <use x="673.632812" xlink:href="#DejaVuSans-97"/>
     </g>
    </g>
   </g>
  </g>
 </g>
 <defs>
  <clipPath id="p3b29d47805">
   <rect height="221.76" width="948.6" x="40.603125" y="7.2"/>
  </clipPath>
 </defs>
</svg>
