<?xml version="1.0" encoding="utf-8" standalone="no"?>
<!DOCTYPE svg PUBLIC "-//W3C//DTD SVG 1.1//EN"
  "http://www.w3.org/Graphics/SVG/1.1/DTD/svg11.dtd">
<!-- Created with matplotlib (https://matplotlib.org/) -->
<svg height="298.620937pt" version="1.1" viewBox="0 0 1002.765625 298.620937" width="1002.765625pt" xmlns="http://www.w3.org/2000/svg" xmlns:xlink="http://www.w3.org/1999/xlink">
 <metadata>
  <rdf:RDF xmlns:cc="http://creativecommons.org/ns#" xmlns:dc="http://purl.org/dc/elements/1.1/" xmlns:rdf="http://www.w3.org/1999/02/22-rdf-syntax-ns#">
   <cc:Work>
    <dc:type rdf:resource="http://purl.org/dc/dcmitype/StillImage"/>
    <dc:date>2021-04-22T20:08:49.526898</dc:date>
    <dc:format>image/svg+xml</dc:format>
    <dc:creator>
     <cc:Agent>
      <dc:title>Matplotlib v3.3.3, https://matplotlib.org/</dc:title>
     </cc:Agent>
    </dc:creator>
   </cc:Work>
  </rdf:RDF>
 </metadata>
 <defs>
  <style type="text/css">*{stroke-linecap:butt;stroke-linejoin:round;}</style>
 </defs>
 <g id="figure_1">
  <g id="patch_1">
   <path d="M 0 298.620937 
L 1002.765625 298.620937 
L 1002.765625 0 
L 0 0 
z
" style="fill:#ffffff;"/>
  </g>
  <g id="axes_1">
   <g id="patch_2">
    <path d="M 46.965625 228.96 
L 995.565625 228.96 
L 995.565625 7.2 
L 46.965625 7.2 
z
" style="fill:#ffffff;"/>
   </g>
   <g id="matplotlib.axis_1">
    <g id="xtick_1">
     <g id="line2d_1">
      <defs>
       <path d="M 0 0 
L 0 3.5 
" id="m176e4499dd" style="stroke:#000000;stroke-width:0.8;"/>
      </defs>
      <g>
       <use style="stroke:#000000;stroke-width:0.8;" x="173.989458" xlink:href="#m176e4499dd" y="228.96"/>
      </g>
     </g>
     <g id="text_1">
      <!-- 2020-11 -->
      <g transform="translate(176.748833 277.742812)rotate(-90)scale(0.1 -0.1)">
       <defs>
        <path d="M 19.1875 8.296875 
L 53.609375 8.296875 
L 53.609375 0 
L 7.328125 0 
L 7.328125 8.296875 
Q 12.9375 14.109375 22.625 23.890625 
Q 32.328125 33.6875 34.8125 36.53125 
Q 39.546875 41.84375 41.421875 45.53125 
Q 43.3125 49.21875 43.3125 52.78125 
Q 43.3125 58.59375 39.234375 62.25 
Q 35.15625 65.921875 28.609375 65.921875 
Q 23.96875 65.921875 18.8125 64.3125 
Q 13.671875 62.703125 7.8125 59.421875 
L 7.8125 69.390625 
Q 13.765625 71.78125 18.9375 73 
Q 24.125 74.21875 28.421875 74.21875 
Q 39.75 74.21875 46.484375 68.546875 
Q 53.21875 62.890625 53.21875 53.421875 
Q 53.21875 48.921875 51.53125 44.890625 
Q 49.859375 40.875 45.40625 35.40625 
Q 44.1875 33.984375 37.640625 27.21875 
Q 31.109375 20.453125 19.1875 8.296875 
z
" id="DejaVuSans-50"/>
        <path d="M 31.78125 66.40625 
Q 24.171875 66.40625 20.328125 58.90625 
Q 16.5 51.421875 16.5 36.375 
Q 16.5 21.390625 20.328125 13.890625 
Q 24.171875 6.390625 31.78125 6.390625 
Q 39.453125 6.390625 43.28125 13.890625 
Q 47.125 21.390625 47.125 36.375 
Q 47.125 51.421875 43.28125 58.90625 
Q 39.453125 66.40625 31.78125 66.40625 
z
M 31.78125 74.21875 
Q 44.046875 74.21875 50.515625 64.515625 
Q 56.984375 54.828125 56.984375 36.375 
Q 56.984375 17.96875 50.515625 8.265625 
Q 44.046875 -1.421875 31.78125 -1.421875 
Q 19.53125 -1.421875 13.0625 8.265625 
Q 6.59375 17.96875 6.59375 36.375 
Q 6.59375 54.828125 13.0625 64.515625 
Q 19.53125 74.21875 31.78125 74.21875 
z
" id="DejaVuSans-48"/>
        <path d="M 4.890625 31.390625 
L 31.203125 31.390625 
L 31.203125 23.390625 
L 4.890625 23.390625 
z
" id="DejaVuSans-45"/>
        <path d="M 12.40625 8.296875 
L 28.515625 8.296875 
L 28.515625 63.921875 
L 10.984375 60.40625 
L 10.984375 69.390625 
L 28.421875 72.90625 
L 38.28125 72.90625 
L 38.28125 8.296875 
L 54.390625 8.296875 
L 54.390625 0 
L 12.40625 0 
z
" id="DejaVuSans-49"/>
       </defs>
       <use xlink:href="#DejaVuSans-50"/>
       <use x="63.623047" xlink:href="#DejaVuSans-48"/>
       <use x="127.246094" xlink:href="#DejaVuSans-50"/>
       <use x="190.869141" xlink:href="#DejaVuSans-48"/>
       <use x="254.492188" xlink:href="#DejaVuSans-45"/>
       <use x="290.576172" xlink:href="#DejaVuSans-49"/>
       <use x="354.199219" xlink:href="#DejaVuSans-49"/>
      </g>
     </g>
    </g>
    <g id="xtick_2">
     <g id="line2d_2">
      <g>
       <use style="stroke:#000000;stroke-width:0.8;" x="313.83221" xlink:href="#m176e4499dd" y="228.96"/>
      </g>
     </g>
     <g id="text_2">
      <!-- 2020-12 -->
      <g transform="translate(316.591585 277.742812)rotate(-90)scale(0.1 -0.1)">
       <use xlink:href="#DejaVuSans-50"/>
       <use x="63.623047" xlink:href="#DejaVuSans-48"/>
       <use x="127.246094" xlink:href="#DejaVuSans-50"/>
       <use x="190.869141" xlink:href="#DejaVuSans-48"/>
       <use x="254.492188" xlink:href="#DejaVuSans-45"/>
       <use x="290.576172" xlink:href="#DejaVuSans-49"/>
       <use x="354.199219" xlink:href="#DejaVuSans-50"/>
      </g>
     </g>
    </g>
    <g id="xtick_3">
     <g id="line2d_3">
      <g>
       <use style="stroke:#000000;stroke-width:0.8;" x="458.336387" xlink:href="#m176e4499dd" y="228.96"/>
      </g>
     </g>
     <g id="text_3">
      <!-- 2021-01 -->
      <g transform="translate(461.095762 277.742812)rotate(-90)scale(0.1 -0.1)">
       <use xlink:href="#DejaVuSans-50"/>
       <use x="63.623047" xlink:href="#DejaVuSans-48"/>
       <use x="127.246094" xlink:href="#DejaVuSans-50"/>
       <use x="190.869141" xlink:href="#DejaVuSans-49"/>
       <use x="254.492188" xlink:href="#DejaVuSans-45"/>
       <use x="290.576172" xlink:href="#DejaVuSans-48"/>
       <use x="354.199219" xlink:href="#DejaVuSans-49"/>
      </g>
     </g>
    </g>
    <g id="xtick_4">
     <g id="line2d_4">
      <g>
       <use style="stroke:#000000;stroke-width:0.8;" x="602.840564" xlink:href="#m176e4499dd" y="228.96"/>
      </g>
     </g>
     <g id="text_4">
      <!-- 2021-02 -->
      <g transform="translate(605.599939 277.742812)rotate(-90)scale(0.1 -0.1)">
       <use xlink:href="#DejaVuSans-50"/>
       <use x="63.623047" xlink:href="#DejaVuSans-48"/>
       <use x="127.246094" xlink:href="#DejaVuSans-50"/>
       <use x="190.869141" xlink:href="#DejaVuSans-49"/>
       <use x="254.492188" xlink:href="#DejaVuSans-45"/>
       <use x="290.576172" xlink:href="#DejaVuSans-48"/>
       <use x="354.199219" xlink:href="#DejaVuSans-50"/>
      </g>
     </g>
    </g>
    <g id="xtick_5">
     <g id="line2d_5">
      <g>
       <use style="stroke:#000000;stroke-width:0.8;" x="733.360465" xlink:href="#m176e4499dd" y="228.96"/>
      </g>
     </g>
     <g id="text_5">
      <!-- 2021-03 -->
      <g transform="translate(736.11984 277.742812)rotate(-90)scale(0.1 -0.1)">
       <defs>
        <path d="M 40.578125 39.3125 
Q 47.65625 37.796875 51.625 33 
Q 55.609375 28.21875 55.609375 21.1875 
Q 55.609375 10.40625 48.1875 4.484375 
Q 40.765625 -1.421875 27.09375 -1.421875 
Q 22.515625 -1.421875 17.65625 -0.515625 
Q 12.796875 0.390625 7.625 2.203125 
L 7.625 11.71875 
Q 11.71875 9.328125 16.59375 8.109375 
Q 21.484375 6.890625 26.8125 6.890625 
Q 36.078125 6.890625 40.9375 10.546875 
Q 45.796875 14.203125 45.796875 21.1875 
Q 45.796875 27.640625 41.28125 31.265625 
Q 36.765625 34.90625 28.71875 34.90625 
L 20.21875 34.90625 
L 20.21875 43.015625 
L 29.109375 43.015625 
Q 36.375 43.015625 40.234375 45.921875 
Q 44.09375 48.828125 44.09375 54.296875 
Q 44.09375 59.90625 40.109375 62.90625 
Q 36.140625 65.921875 28.71875 65.921875 
Q 24.65625 65.921875 20.015625 65.03125 
Q 15.375 64.15625 9.8125 62.3125 
L 9.8125 71.09375 
Q 15.4375 72.65625 20.34375 73.4375 
Q 25.25 74.21875 29.59375 74.21875 
Q 40.828125 74.21875 47.359375 69.109375 
Q 53.90625 64.015625 53.90625 55.328125 
Q 53.90625 49.265625 50.4375 45.09375 
Q 46.96875 40.921875 40.578125 39.3125 
z
" id="DejaVuSans-51"/>
       </defs>
       <use xlink:href="#DejaVuSans-50"/>
       <use x="63.623047" xlink:href="#DejaVuSans-48"/>
       <use x="127.246094" xlink:href="#DejaVuSans-50"/>
       <use x="190.869141" xlink:href="#DejaVuSans-49"/>
       <use x="254.492188" xlink:href="#DejaVuSans-45"/>
       <use x="290.576172" xlink:href="#DejaVuSans-48"/>
       <use x="354.199219" xlink:href="#DejaVuSans-51"/>
      </g>
     </g>
    </g>
    <g id="xtick_6">
     <g id="line2d_6">
      <g>
       <use style="stroke:#000000;stroke-width:0.8;" x="877.864642" xlink:href="#m176e4499dd" y="228.96"/>
      </g>
     </g>
     <g id="text_6">
      <!-- 2021-04 -->
      <g transform="translate(880.624017 277.742812)rotate(-90)scale(0.1 -0.1)">
       <defs>
        <path d="M 37.796875 64.3125 
L 12.890625 25.390625 
L 37.796875 25.390625 
z
M 35.203125 72.90625 
L 47.609375 72.90625 
L 47.609375 25.390625 
L 58.015625 25.390625 
L 58.015625 17.1875 
L 47.609375 17.1875 
L 47.609375 0 
L 37.796875 0 
L 37.796875 17.1875 
L 4.890625 17.1875 
L 4.890625 26.703125 
z
" id="DejaVuSans-52"/>
       </defs>
       <use xlink:href="#DejaVuSans-50"/>
       <use x="63.623047" xlink:href="#DejaVuSans-48"/>
       <use x="127.246094" xlink:href="#DejaVuSans-50"/>
       <use x="190.869141" xlink:href="#DejaVuSans-49"/>
       <use x="254.492188" xlink:href="#DejaVuSans-45"/>
       <use x="290.576172" xlink:href="#DejaVuSans-48"/>
       <use x="354.199219" xlink:href="#DejaVuSans-52"/>
      </g>
     </g>
    </g>
    <g id="text_7">
     <!-- Date -->
     <g transform="translate(509.314844 289.34125)scale(0.1 -0.1)">
      <defs>
       <path d="M 19.671875 64.796875 
L 19.671875 8.109375 
L 31.59375 8.109375 
Q 46.6875 8.109375 53.6875 14.9375 
Q 60.6875 21.78125 60.6875 36.53125 
Q 60.6875 51.171875 53.6875 57.984375 
Q 46.6875 64.796875 31.59375 64.796875 
z
M 9.8125 72.90625 
L 30.078125 72.90625 
Q 51.265625 72.90625 61.171875 64.09375 
Q 71.09375 55.28125 71.09375 36.53125 
Q 71.09375 17.671875 61.125 8.828125 
Q 51.171875 0 30.078125 0 
L 9.8125 0 
z
" id="DejaVuSans-68"/>
       <path d="M 34.28125 27.484375 
Q 23.390625 27.484375 19.1875 25 
Q 14.984375 22.515625 14.984375 16.5 
Q 14.984375 11.71875 18.140625 8.90625 
Q 21.296875 6.109375 26.703125 6.109375 
Q 34.1875 6.109375 38.703125 11.40625 
Q 43.21875 16.703125 43.21875 25.484375 
L 43.21875 27.484375 
z
M 52.203125 31.203125 
L 52.203125 0 
L 43.21875 0 
L 43.21875 8.296875 
Q 40.140625 3.328125 35.546875 0.953125 
Q 30.953125 -1.421875 24.3125 -1.421875 
Q 15.921875 -1.421875 10.953125 3.296875 
Q 6 8.015625 6 15.921875 
Q 6 25.140625 12.171875 29.828125 
Q 18.359375 34.515625 30.609375 34.515625 
L 43.21875 34.515625 
L 43.21875 35.40625 
Q 43.21875 41.609375 39.140625 45 
Q 35.0625 48.390625 27.6875 48.390625 
Q 23 48.390625 18.546875 47.265625 
Q 14.109375 46.140625 10.015625 43.890625 
L 10.015625 52.203125 
Q 14.9375 54.109375 19.578125 55.046875 
Q 24.21875 56 28.609375 56 
Q 40.484375 56 46.34375 49.84375 
Q 52.203125 43.703125 52.203125 31.203125 
z
" id="DejaVuSans-97"/>
       <path d="M 18.3125 70.21875 
L 18.3125 54.6875 
L 36.8125 54.6875 
L 36.8125 47.703125 
L 18.3125 47.703125 
L 18.3125 18.015625 
Q 18.3125 11.328125 20.140625 9.421875 
Q 21.96875 7.515625 27.59375 7.515625 
L 36.8125 7.515625 
L 36.8125 0 
L 27.59375 0 
Q 17.1875 0 13.234375 3.875 
Q 9.28125 7.765625 9.28125 18.015625 
L 9.28125 47.703125 
L 2.6875 47.703125 
L 2.6875 54.6875 
L 9.28125 54.6875 
L 9.28125 70.21875 
z
" id="DejaVuSans-116"/>
       <path d="M 56.203125 29.59375 
L 56.203125 25.203125 
L 14.890625 25.203125 
Q 15.484375 15.921875 20.484375 11.0625 
Q 25.484375 6.203125 34.421875 6.203125 
Q 39.59375 6.203125 44.453125 7.46875 
Q 49.3125 8.734375 54.109375 11.28125 
L 54.109375 2.78125 
Q 49.265625 0.734375 44.1875 -0.34375 
Q 39.109375 -1.421875 33.890625 -1.421875 
Q 20.796875 -1.421875 13.15625 6.1875 
Q 5.515625 13.8125 5.515625 26.8125 
Q 5.515625 40.234375 12.765625 48.109375 
Q 20.015625 56 32.328125 56 
Q 43.359375 56 49.78125 48.890625 
Q 56.203125 41.796875 56.203125 29.59375 
z
M 47.21875 32.234375 
Q 47.125 39.59375 43.09375 43.984375 
Q 39.0625 48.390625 32.421875 48.390625 
Q 24.90625 48.390625 20.390625 44.140625 
Q 15.875 39.890625 15.1875 32.171875 
z
" id="DejaVuSans-101"/>
      </defs>
      <use xlink:href="#DejaVuSans-68"/>
      <use x="77.001953" xlink:href="#DejaVuSans-97"/>
      <use x="138.28125" xlink:href="#DejaVuSans-116"/>
      <use x="177.490234" xlink:href="#DejaVuSans-101"/>
     </g>
    </g>
   </g>
   <g id="matplotlib.axis_2">
    <g id="ytick_1">
     <g id="line2d_7">
      <defs>
       <path d="M 0 0 
L -3.5 0 
" id="m5ab2ecb068" style="stroke:#000000;stroke-width:0.8;"/>
      </defs>
      <g>
       <use style="stroke:#000000;stroke-width:0.8;" x="46.965625" xlink:href="#m5ab2ecb068" y="228.96"/>
      </g>
     </g>
     <g id="text_8">
      <!-- 1 -->
      <g transform="translate(33.603125 232.759219)scale(0.1 -0.1)">
       <use xlink:href="#DejaVuSans-49"/>
      </g>
     </g>
    </g>
    <g id="ytick_2">
     <g id="line2d_8">
      <g>
       <use style="stroke:#000000;stroke-width:0.8;" x="46.965625" xlink:href="#m5ab2ecb068" y="202.401299"/>
      </g>
     </g>
     <g id="text_9">
      <!-- 1 -->
      <g transform="translate(33.603125 206.200518)scale(0.1 -0.1)">
       <use xlink:href="#DejaVuSans-49"/>
      </g>
     </g>
    </g>
    <g id="ytick_3">
     <g id="line2d_9">
      <g>
       <use style="stroke:#000000;stroke-width:0.8;" x="46.965625" xlink:href="#m5ab2ecb068" y="175.842599"/>
      </g>
     </g>
     <g id="text_10">
      <!-- 3 -->
      <g transform="translate(33.603125 179.641818)scale(0.1 -0.1)">
       <use xlink:href="#DejaVuSans-51"/>
      </g>
     </g>
    </g>
    <g id="ytick_4">
     <g id="line2d_10">
      <g>
       <use style="stroke:#000000;stroke-width:0.8;" x="46.965625" xlink:href="#m5ab2ecb068" y="149.283898"/>
      </g>
     </g>
     <g id="text_11">
      <!-- 5 -->
      <g transform="translate(33.603125 153.083117)scale(0.1 -0.1)">
       <defs>
        <path d="M 10.796875 72.90625 
L 49.515625 72.90625 
L 49.515625 64.59375 
L 19.828125 64.59375 
L 19.828125 46.734375 
Q 21.96875 47.46875 24.109375 47.828125 
Q 26.265625 48.1875 28.421875 48.1875 
Q 40.625 48.1875 47.75 41.5 
Q 54.890625 34.8125 54.890625 23.390625 
Q 54.890625 11.625 47.5625 5.09375 
Q 40.234375 -1.421875 26.90625 -1.421875 
Q 22.3125 -1.421875 17.546875 -0.640625 
Q 12.796875 0.140625 7.71875 1.703125 
L 7.71875 11.625 
Q 12.109375 9.234375 16.796875 8.0625 
Q 21.484375 6.890625 26.703125 6.890625 
Q 35.15625 6.890625 40.078125 11.328125 
Q 45.015625 15.765625 45.015625 23.390625 
Q 45.015625 31 40.078125 35.4375 
Q 35.15625 39.890625 26.703125 39.890625 
Q 22.75 39.890625 18.8125 39.015625 
Q 14.890625 38.140625 10.796875 36.28125 
z
" id="DejaVuSans-53"/>
       </defs>
       <use xlink:href="#DejaVuSans-53"/>
      </g>
     </g>
    </g>
    <g id="ytick_5">
     <g id="line2d_11">
      <g>
       <use style="stroke:#000000;stroke-width:0.8;" x="46.965625" xlink:href="#m5ab2ecb068" y="122.725198"/>
      </g>
     </g>
     <g id="text_12">
      <!-- 10 -->
      <g transform="translate(27.240625 126.524417)scale(0.1 -0.1)">
       <use xlink:href="#DejaVuSans-49"/>
       <use x="63.623047" xlink:href="#DejaVuSans-48"/>
      </g>
     </g>
    </g>
    <g id="ytick_6">
     <g id="line2d_12">
      <g>
       <use style="stroke:#000000;stroke-width:0.8;" x="46.965625" xlink:href="#m5ab2ecb068" y="96.166497"/>
      </g>
     </g>
     <g id="text_13">
      <!-- 17 -->
      <g transform="translate(27.240625 99.965716)scale(0.1 -0.1)">
       <defs>
        <path d="M 8.203125 72.90625 
L 55.078125 72.90625 
L 55.078125 68.703125 
L 28.609375 0 
L 18.3125 0 
L 43.21875 64.59375 
L 8.203125 64.59375 
z
" id="DejaVuSans-55"/>
       </defs>
       <use xlink:href="#DejaVuSans-49"/>
       <use x="63.623047" xlink:href="#DejaVuSans-55"/>
      </g>
     </g>
    </g>
    <g id="ytick_7">
     <g id="line2d_13">
      <g>
       <use style="stroke:#000000;stroke-width:0.8;" x="46.965625" xlink:href="#m5ab2ecb068" y="69.607797"/>
      </g>
     </g>
     <g id="text_14">
      <!-- 31 -->
      <g transform="translate(27.240625 73.407015)scale(0.1 -0.1)">
       <use xlink:href="#DejaVuSans-51"/>
       <use x="63.623047" xlink:href="#DejaVuSans-49"/>
      </g>
     </g>
    </g>
    <g id="ytick_8">
     <g id="line2d_14">
      <g>
       <use style="stroke:#000000;stroke-width:0.8;" x="46.965625" xlink:href="#m5ab2ecb068" y="43.049096"/>
      </g>
     </g>
     <g id="text_15">
      <!-- 56 -->
      <g transform="translate(27.240625 46.848315)scale(0.1 -0.1)">
       <defs>
        <path d="M 33.015625 40.375 
Q 26.375 40.375 22.484375 35.828125 
Q 18.609375 31.296875 18.609375 23.390625 
Q 18.609375 15.53125 22.484375 10.953125 
Q 26.375 6.390625 33.015625 6.390625 
Q 39.65625 6.390625 43.53125 10.953125 
Q 47.40625 15.53125 47.40625 23.390625 
Q 47.40625 31.296875 43.53125 35.828125 
Q 39.65625 40.375 33.015625 40.375 
z
M 52.59375 71.296875 
L 52.59375 62.3125 
Q 48.875 64.0625 45.09375 64.984375 
Q 41.3125 65.921875 37.59375 65.921875 
Q 27.828125 65.921875 22.671875 59.328125 
Q 17.53125 52.734375 16.796875 39.40625 
Q 19.671875 43.65625 24.015625 45.921875 
Q 28.375 48.1875 33.59375 48.1875 
Q 44.578125 48.1875 50.953125 41.515625 
Q 57.328125 34.859375 57.328125 23.390625 
Q 57.328125 12.15625 50.6875 5.359375 
Q 44.046875 -1.421875 33.015625 -1.421875 
Q 20.359375 -1.421875 13.671875 8.265625 
Q 6.984375 17.96875 6.984375 36.375 
Q 6.984375 53.65625 15.1875 63.9375 
Q 23.390625 74.21875 37.203125 74.21875 
Q 40.921875 74.21875 44.703125 73.484375 
Q 48.484375 72.75 52.59375 71.296875 
z
" id="DejaVuSans-54"/>
       </defs>
       <use xlink:href="#DejaVuSans-53"/>
       <use x="63.623047" xlink:href="#DejaVuSans-54"/>
      </g>
     </g>
    </g>
    <g id="ytick_9">
     <g id="line2d_15">
      <g>
       <use style="stroke:#000000;stroke-width:0.8;" x="46.965625" xlink:href="#m5ab2ecb068" y="16.490396"/>
      </g>
     </g>
     <g id="text_16">
      <!-- 100 -->
      <g transform="translate(20.878125 20.289614)scale(0.1 -0.1)">
       <use xlink:href="#DejaVuSans-49"/>
       <use x="63.623047" xlink:href="#DejaVuSans-48"/>
       <use x="127.246094" xlink:href="#DejaVuSans-48"/>
      </g>
     </g>
    </g>
    <g id="text_17">
     <!-- Count (7 day rolling average) -->
     <g transform="translate(14.798438 191.547969)rotate(-90)scale(0.1 -0.1)">
      <defs>
       <path d="M 64.40625 67.28125 
L 64.40625 56.890625 
Q 59.421875 61.53125 53.78125 63.8125 
Q 48.140625 66.109375 41.796875 66.109375 
Q 29.296875 66.109375 22.65625 58.46875 
Q 16.015625 50.828125 16.015625 36.375 
Q 16.015625 21.96875 22.65625 14.328125 
Q 29.296875 6.6875 41.796875 6.6875 
Q 48.140625 6.6875 53.78125 8.984375 
Q 59.421875 11.28125 64.40625 15.921875 
L 64.40625 5.609375 
Q 59.234375 2.09375 53.4375 0.328125 
Q 47.65625 -1.421875 41.21875 -1.421875 
Q 24.65625 -1.421875 15.125 8.703125 
Q 5.609375 18.84375 5.609375 36.375 
Q 5.609375 53.953125 15.125 64.078125 
Q 24.65625 74.21875 41.21875 74.21875 
Q 47.75 74.21875 53.53125 72.484375 
Q 59.328125 70.75 64.40625 67.28125 
z
" id="DejaVuSans-67"/>
       <path d="M 30.609375 48.390625 
Q 23.390625 48.390625 19.1875 42.75 
Q 14.984375 37.109375 14.984375 27.296875 
Q 14.984375 17.484375 19.15625 11.84375 
Q 23.34375 6.203125 30.609375 6.203125 
Q 37.796875 6.203125 41.984375 11.859375 
Q 46.1875 17.53125 46.1875 27.296875 
Q 46.1875 37.015625 41.984375 42.703125 
Q 37.796875 48.390625 30.609375 48.390625 
z
M 30.609375 56 
Q 42.328125 56 49.015625 48.375 
Q 55.71875 40.765625 55.71875 27.296875 
Q 55.71875 13.875 49.015625 6.21875 
Q 42.328125 -1.421875 30.609375 -1.421875 
Q 18.84375 -1.421875 12.171875 6.21875 
Q 5.515625 13.875 5.515625 27.296875 
Q 5.515625 40.765625 12.171875 48.375 
Q 18.84375 56 30.609375 56 
z
" id="DejaVuSans-111"/>
       <path d="M 8.5 21.578125 
L 8.5 54.6875 
L 17.484375 54.6875 
L 17.484375 21.921875 
Q 17.484375 14.15625 20.5 10.265625 
Q 23.53125 6.390625 29.59375 6.390625 
Q 36.859375 6.390625 41.078125 11.03125 
Q 45.3125 15.671875 45.3125 23.6875 
L 45.3125 54.6875 
L 54.296875 54.6875 
L 54.296875 0 
L 45.3125 0 
L 45.3125 8.40625 
Q 42.046875 3.421875 37.71875 1 
Q 33.40625 -1.421875 27.6875 -1.421875 
Q 18.265625 -1.421875 13.375 4.4375 
Q 8.5 10.296875 8.5 21.578125 
z
M 31.109375 56 
z
" id="DejaVuSans-117"/>
       <path d="M 54.890625 33.015625 
L 54.890625 0 
L 45.90625 0 
L 45.90625 32.71875 
Q 45.90625 40.484375 42.875 44.328125 
Q 39.84375 48.1875 33.796875 48.1875 
Q 26.515625 48.1875 22.3125 43.546875 
Q 18.109375 38.921875 18.109375 30.90625 
L 18.109375 0 
L 9.078125 0 
L 9.078125 54.6875 
L 18.109375 54.6875 
L 18.109375 46.1875 
Q 21.34375 51.125 25.703125 53.5625 
Q 30.078125 56 35.796875 56 
Q 45.21875 56 50.046875 50.171875 
Q 54.890625 44.34375 54.890625 33.015625 
z
" id="DejaVuSans-110"/>
       <path id="DejaVuSans-32"/>
       <path d="M 31 75.875 
Q 24.46875 64.65625 21.28125 53.65625 
Q 18.109375 42.671875 18.109375 31.390625 
Q 18.109375 20.125 21.3125 9.0625 
Q 24.515625 -2 31 -13.1875 
L 23.1875 -13.1875 
Q 15.875 -1.703125 12.234375 9.375 
Q 8.59375 20.453125 8.59375 31.390625 
Q 8.59375 42.28125 12.203125 53.3125 
Q 15.828125 64.359375 23.1875 75.875 
z
" id="DejaVuSans-40"/>
       <path d="M 45.40625 46.390625 
L 45.40625 75.984375 
L 54.390625 75.984375 
L 54.390625 0 
L 45.40625 0 
L 45.40625 8.203125 
Q 42.578125 3.328125 38.25 0.953125 
Q 33.9375 -1.421875 27.875 -1.421875 
Q 17.96875 -1.421875 11.734375 6.484375 
Q 5.515625 14.40625 5.515625 27.296875 
Q 5.515625 40.1875 11.734375 48.09375 
Q 17.96875 56 27.875 56 
Q 33.9375 56 38.25 53.625 
Q 42.578125 51.265625 45.40625 46.390625 
z
M 14.796875 27.296875 
Q 14.796875 17.390625 18.875 11.75 
Q 22.953125 6.109375 30.078125 6.109375 
Q 37.203125 6.109375 41.296875 11.75 
Q 45.40625 17.390625 45.40625 27.296875 
Q 45.40625 37.203125 41.296875 42.84375 
Q 37.203125 48.484375 30.078125 48.484375 
Q 22.953125 48.484375 18.875 42.84375 
Q 14.796875 37.203125 14.796875 27.296875 
z
" id="DejaVuSans-100"/>
       <path d="M 32.171875 -5.078125 
Q 28.375 -14.84375 24.75 -17.8125 
Q 21.140625 -20.796875 15.09375 -20.796875 
L 7.90625 -20.796875 
L 7.90625 -13.28125 
L 13.1875 -13.28125 
Q 16.890625 -13.28125 18.9375 -11.515625 
Q 21 -9.765625 23.484375 -3.21875 
L 25.09375 0.875 
L 2.984375 54.6875 
L 12.5 54.6875 
L 29.59375 11.921875 
L 46.6875 54.6875 
L 56.203125 54.6875 
z
" id="DejaVuSans-121"/>
       <path d="M 41.109375 46.296875 
Q 39.59375 47.171875 37.8125 47.578125 
Q 36.03125 48 33.890625 48 
Q 26.265625 48 22.1875 43.046875 
Q 18.109375 38.09375 18.109375 28.8125 
L 18.109375 0 
L 9.078125 0 
L 9.078125 54.6875 
L 18.109375 54.6875 
L 18.109375 46.1875 
Q 20.953125 51.171875 25.484375 53.578125 
Q 30.03125 56 36.53125 56 
Q 37.453125 56 38.578125 55.875 
Q 39.703125 55.765625 41.0625 55.515625 
z
" id="DejaVuSans-114"/>
       <path d="M 9.421875 75.984375 
L 18.40625 75.984375 
L 18.40625 0 
L 9.421875 0 
z
" id="DejaVuSans-108"/>
       <path d="M 9.421875 54.6875 
L 18.40625 54.6875 
L 18.40625 0 
L 9.421875 0 
z
M 9.421875 75.984375 
L 18.40625 75.984375 
L 18.40625 64.59375 
L 9.421875 64.59375 
z
" id="DejaVuSans-105"/>
       <path d="M 45.40625 27.984375 
Q 45.40625 37.75 41.375 43.109375 
Q 37.359375 48.484375 30.078125 48.484375 
Q 22.859375 48.484375 18.828125 43.109375 
Q 14.796875 37.75 14.796875 27.984375 
Q 14.796875 18.265625 18.828125 12.890625 
Q 22.859375 7.515625 30.078125 7.515625 
Q 37.359375 7.515625 41.375 12.890625 
Q 45.40625 18.265625 45.40625 27.984375 
z
M 54.390625 6.78125 
Q 54.390625 -7.171875 48.1875 -13.984375 
Q 42 -20.796875 29.203125 -20.796875 
Q 24.46875 -20.796875 20.265625 -20.09375 
Q 16.0625 -19.390625 12.109375 -17.921875 
L 12.109375 -9.1875 
Q 16.0625 -11.328125 19.921875 -12.34375 
Q 23.78125 -13.375 27.78125 -13.375 
Q 36.625 -13.375 41.015625 -8.765625 
Q 45.40625 -4.15625 45.40625 5.171875 
L 45.40625 9.625 
Q 42.625 4.78125 38.28125 2.390625 
Q 33.9375 0 27.875 0 
Q 17.828125 0 11.671875 7.65625 
Q 5.515625 15.328125 5.515625 27.984375 
Q 5.515625 40.671875 11.671875 48.328125 
Q 17.828125 56 27.875 56 
Q 33.9375 56 38.28125 53.609375 
Q 42.625 51.21875 45.40625 46.390625 
L 45.40625 54.6875 
L 54.390625 54.6875 
z
" id="DejaVuSans-103"/>
       <path d="M 2.984375 54.6875 
L 12.5 54.6875 
L 29.59375 8.796875 
L 46.6875 54.6875 
L 56.203125 54.6875 
L 35.6875 0 
L 23.484375 0 
z
" id="DejaVuSans-118"/>
       <path d="M 8.015625 75.875 
L 15.828125 75.875 
Q 23.140625 64.359375 26.78125 53.3125 
Q 30.421875 42.28125 30.421875 31.390625 
Q 30.421875 20.453125 26.78125 9.375 
Q 23.140625 -1.703125 15.828125 -13.1875 
L 8.015625 -13.1875 
Q 14.5 -2 17.703125 9.0625 
Q 20.90625 20.125 20.90625 31.390625 
Q 20.90625 42.671875 17.703125 53.65625 
Q 14.5 64.65625 8.015625 75.875 
z
" id="DejaVuSans-41"/>
      </defs>
      <use xlink:href="#DejaVuSans-67"/>
      <use x="69.824219" xlink:href="#DejaVuSans-111"/>
      <use x="131.005859" xlink:href="#DejaVuSans-117"/>
      <use x="194.384766" xlink:href="#DejaVuSans-110"/>
      <use x="257.763672" xlink:href="#DejaVuSans-116"/>
      <use x="296.972656" xlink:href="#DejaVuSans-32"/>
      <use x="328.759766" xlink:href="#DejaVuSans-40"/>
      <use x="367.773438" xlink:href="#DejaVuSans-55"/>
      <use x="431.396484" xlink:href="#DejaVuSans-32"/>
      <use x="463.183594" xlink:href="#DejaVuSans-100"/>
      <use x="526.660156" xlink:href="#DejaVuSans-97"/>
      <use x="587.939453" xlink:href="#DejaVuSans-121"/>
      <use x="647.119141" xlink:href="#DejaVuSans-32"/>
      <use x="678.90625" xlink:href="#DejaVuSans-114"/>
      <use x="717.769531" xlink:href="#DejaVuSans-111"/>
      <use x="778.951172" xlink:href="#DejaVuSans-108"/>
      <use x="806.734375" xlink:href="#DejaVuSans-108"/>
      <use x="834.517578" xlink:href="#DejaVuSans-105"/>
      <use x="862.300781" xlink:href="#DejaVuSans-110"/>
      <use x="925.679688" xlink:href="#DejaVuSans-103"/>
      <use x="989.15625" xlink:href="#DejaVuSans-32"/>
      <use x="1020.943359" xlink:href="#DejaVuSans-97"/>
      <use x="1082.222656" xlink:href="#DejaVuSans-118"/>
      <use x="1141.402344" xlink:href="#DejaVuSans-101"/>
      <use x="1202.925781" xlink:href="#DejaVuSans-114"/>
      <use x="1244.039062" xlink:href="#DejaVuSans-97"/>
      <use x="1305.318359" xlink:href="#DejaVuSans-103"/>
      <use x="1368.794922" xlink:href="#DejaVuSans-101"/>
      <use x="1430.318359" xlink:href="#DejaVuSans-41"/>
     </g>
    </g>
   </g>
   <g id="line2d_16">
    <path clip-path="url(#p06d1563882)" d="M 425.706411 222.799237 
L 430.367836 217.365059 
L 435.029261 204.092217 
L 439.690686 200.399271 
L 444.352111 188.022325 
L 449.013537 188.022325 
L 453.674962 182.890687 
L 458.336387 182.890687 
L 462.997812 188.022325 
L 467.659237 193.797001 
L 472.320662 190.819375 
L 476.982087 200.399271 
L 481.643512 200.399271 
L 486.304937 204.092217 
L 490.966362 196.980138 
L 495.627787 196.980138 
L 500.289212 200.399271 
L 504.950637 200.399271 
L 509.612062 204.092217 
L 514.273487 188.022325 
L 518.934912 190.819375 
L 523.596338 193.797001 
L 528.257763 193.797001 
L 532.919188 190.819375 
L 537.580613 193.797001 
L 542.242038 188.022325 
L 546.903463 182.890687 
L 551.564888 182.890687 
L 556.226313 180.524159 
L 560.887738 180.524159 
L 565.549163 180.524159 
L 570.210588 180.524159 
L 574.872013 174.075936 
L 579.533438 182.890687 
L 584.194863 172.112355 
L 588.856288 156.042463 
L 593.517713 153.405335 
L 598.179139 150.910825 
L 602.840564 142.096074 
L 607.501989 138.249081 
L 612.163414 137.335443 
L 616.824839 140.132493 
L 621.486264 152.141223 
L 626.147689 153.405335 
L 630.809114 144.146953 
L 635.470539 145.207625 
L 640.131964 154.70506 
L 644.793389 153.405335 
L 649.454814 142.096074 
L 654.116239 141.103838 
L 658.777664 142.096074 
L 663.439089 153.405335 
L 668.100514 150.910825 
L 672.761939 152.141223 
L 677.423365 158.839513 
L 682.08479 180.524159 
L 686.746215 174.075936 
L 691.40764 172.112355 
L 696.069065 172.112355 
L 700.73049 188.022325 
L 705.391915 165.000276 
L 710.05334 152.141223 
L 714.714765 137.335443 
L 719.37619 129.074661 
L 724.037615 127.586236 
L 728.69904 126.859651 
L 733.360465 123.389054 
L 738.02189 124.746128 
L 742.683315 130.61271 
L 747.34474 140.132493 
L 752.006166 154.70506 
L 756.667591 158.839513 
L 761.329016 158.839513 
L 765.990441 156.042463 
L 770.651866 163.381261 
L 775.313291 163.381261 
L 779.974716 166.678177 
L 784.636141 170.228943 
L 789.297566 163.381261 
L 793.958991 134.698315 
L 798.620416 138.249081 
L 803.281841 106.269219 
L 807.943266 104.459685 
L 812.604691 101.040552 
L 817.266116 99.025507 
L 821.927541 99.421537 
L 826.588967 106.269219 
L 831.250392 106.732913 
L 835.911817 133.851737 
L 840.573242 128.324446 
L 845.234667 132.203805 
L 849.896092 133.020414 
L 854.557517 128.324446 
L 859.218942 131.401399 
L 863.880367 124.062601 
L 868.541792 126.144331 
L 873.203217 119.542061 
L 877.864642 113.227763 
L 882.526067 111.130257 
L 887.187492 113.767385 
L 891.848917 114.865942 
L 896.510342 117.732527 
L 901.171768 96.718167 
L 905.833193 99.025507 
L 910.494618 103.147639 
L 915.156043 103.147639 
L 919.817468 101.454341 
L 924.478893 101.454341 
L 929.140318 104.018178 
L 933.801743 133.020414 
L 938.463168 146.293256 
L 943.124593 148.544297 
" style="fill:none;stroke:#947383;stroke-linecap:square;stroke-width:2;"/>
   </g>
   <g id="line2d_17">
    <path clip-path="url(#p06d1563882)" d="M 253.233684 222.799237 
L 257.895109 228.96 
L 369.769311 228.96 
L 374.430736 222.799237 
L 379.092161 217.365059 
L 393.076436 217.365059 
L 397.737861 212.504021 
L 402.399286 204.092217 
L 407.060711 200.399271 
L 411.722136 188.022325 
L 416.383561 182.890687 
L 421.044986 176.126815 
L 430.367836 176.126815 
L 435.029261 174.075936 
L 439.690686 165.000276 
L 444.352111 160.304309 
L 449.013537 160.304309 
L 453.674962 165.000276 
L 458.336387 163.381261 
L 462.997812 157.419795 
L 467.659237 154.70506 
L 472.320662 158.839513 
L 476.982087 166.678177 
L 481.643512 158.839513 
L 486.304937 154.70506 
L 490.966362 150.910825 
L 495.627787 153.405335 
L 500.289212 152.141223 
L 504.950637 145.207625 
L 509.612062 136.439547 
L 514.273487 117.732527 
L 518.934912 102.718453 
L 523.596338 97.857415 
L 528.257763 93.460071 
L 532.919188 92.082739 
L 537.580613 84.011433 
L 542.242038 82.333532 
L 546.903463 80.187229 
L 551.564888 86.347992 
L 556.226313 85.457858 
L 560.887738 88.494295 
L 565.549163 88.809226 
L 570.210588 86.951101 
L 574.872013 81.787523 
L 579.533438 75.694659 
L 584.194863 72.038316 
L 588.856288 66.26364 
L 593.517713 61.480209 
L 598.179139 60.786403 
L 602.840564 61.132002 
L 607.501989 60.272812 
L 612.163414 62.3624 
L 616.824839 58.437094 
L 621.486264 58.273776 
L 626.147689 58.437094 
L 630.809114 58.437094 
L 635.470539 54.069506 
L 640.131964 49.537061 
L 644.793389 49.268039 
L 649.454814 48.470258 
L 654.116239 46.282031 
L 658.777664 44.676023 
L 663.439089 44.554769 
L 668.100514 40.058454 
L 672.761939 39.404014 
L 677.423365 37.702912 
L 682.08479 34.967304 
L 686.746215 35.065783 
L 691.40764 35.861271 
L 696.069065 34.869036 
L 700.73049 35.263373 
L 705.391915 36.264219 
L 710.05334 33.705852 
L 714.714765 32.199197 
L 719.37619 29.325915 
L 724.037615 28.979017 
L 728.69904 27.449467 
L 733.360465 23.525643 
L 738.02189 17.963697 
L 742.683315 17.76 
L 747.34474 19.980564 
L 752.006166 21.278258 
L 756.667591 22.388268 
L 761.329016 22.388268 
L 765.990441 23.44894 
L 770.651866 27.282606 
L 775.313291 27.116346 
L 779.974716 25.405857 
L 784.636141 24.534571 
L 789.297566 21.719062 
L 793.958991 21.571659 
L 798.620416 23.679434 
L 803.281841 21.278258 
L 807.943266 21.571659 
L 812.604691 23.372363 
L 817.266116 23.679434 
L 821.927541 24.221775 
L 826.588967 24.613102 
L 831.250392 26.050016 
L 840.573242 31.463928 
L 845.234667 30.471692 
L 849.896092 33.99391 
L 854.557517 36.875316 
L 859.218942 38.545623 
L 863.880367 43.124044 
L 868.541792 44.797597 
L 873.203217 48.207367 
L 877.864642 54.069506 
L 882.526067 58.273776 
L 887.187492 59.764874 
L 891.848917 62.184607 
L 896.510342 66.848898 
L 901.171768 82.608978 
L 905.833193 86.648561 
L 910.494618 91.744736 
L 915.156043 95.241651 
L 919.817468 99.025507 
L 924.478893 101.454341 
L 929.140318 113.767385 
L 933.801743 120.161361 
L 938.463168 137.335443 
L 938.463168 137.335443 
" style="fill:none;stroke:#96c6ad;stroke-linecap:square;stroke-width:2;"/>
   </g>
   <g id="line2d_18">
    <path clip-path="url(#p06d1563882)" d="M 90.083807 208.106677 
L 94.745232 196.980138 
L 99.406657 196.980138 
L 104.068082 204.092217 
L 108.729507 200.399271 
L 113.390932 193.797001 
L 118.052357 185.385197 
L 127.375207 185.385197 
L 132.036632 172.112355 
L 136.698057 172.112355 
L 141.359482 174.075936 
L 146.020908 174.075936 
L 150.682333 176.126815 
L 155.343758 161.817139 
L 160.005183 165.000276 
L 164.666608 168.419409 
L 169.328033 168.419409 
L 173.989458 166.678177 
L 178.650883 156.042463 
L 183.312308 149.712389 
L 187.973733 142.096074 
L 192.635158 133.020414 
L 197.296583 127.586236 
L 201.958008 126.859651 
L 206.619433 127.586236 
L 211.280858 134.698315 
L 215.942283 139.181177 
L 220.603709 142.096074 
L 225.265134 129.837277 
L 229.926559 121.425473 
L 234.587984 122.070759 
L 239.249409 119.542061 
L 243.910834 118.930963 
L 248.572259 117.732527 
L 253.233684 108.635747 
L 257.895109 103.580855 
L 262.556534 100.630441 
L 267.217959 100.223943 
L 271.879384 101.454341 
L 276.540809 95.606374 
L 281.202234 79.150395 
L 285.863659 80.187229 
L 290.525084 87.87081 
L 295.18651 97.094799 
L 304.50936 95.606374 
L 309.170785 99.025507 
L 313.83221 117.732527 
L 318.493635 126.859651 
L 323.15506 124.746128 
L 327.816485 115.991295 
L 332.47791 110.116212 
L 337.139335 103.580855 
L 341.80076 92.082739 
L 346.462185 97.474531 
L 351.12361 95.974003 
L 355.785035 95.974003 
L 360.44646 98.243502 
L 365.107885 100.223943 
L 369.769311 104.905459 
L 374.430736 107.674521 
L 379.092161 91.409192 
L 383.753586 90.745336 
L 388.415011 86.049368 
L 393.076436 76.413694 
L 397.737861 76.899354 
L 402.399286 75.694659 
L 407.060711 67.841134 
L 411.722136 68.855179 
L 416.383561 64.364722 
L 421.044986 61.831064 
L 425.706411 67.441675 
L 430.367836 65.304412 
L 435.029261 63.626512 
L 439.690686 65.494669 
L 444.352111 56.046031 
L 449.013537 52.893973 
L 453.674962 54.36813 
L 458.336387 54.971239 
L 462.997812 52.604711 
L 467.659237 53.039287 
L 472.320662 49.000576 
L 476.982087 55.582337 
L 481.643512 60.61457 
L 486.304937 59.096208 
L 490.966362 55.428802 
L 495.627787 57.626226 
L 500.289212 56.987639 
L 504.950637 54.668699 
L 509.612062 49.672163 
L 514.273487 45.906421 
L 518.934912 45.657702 
L 523.596338 45.781894 
L 528.257763 46.031285 
L 532.919188 47.29887 
L 537.580613 54.069506 
L 542.242038 61.831064 
L 546.903463 69.26712 
L 551.564888 61.305777 
L 556.226313 53.039287 
L 560.887738 53.625164 
L 565.549163 50.767459 
L 570.210588 48.338625 
L 574.872013 45.164252 
L 579.533438 40.278679 
L 584.194863 43.477587 
L 588.856288 48.602267 
L 593.517713 46.660724 
L 598.179139 47.815818 
L 602.840564 53.331296 
L 607.501989 59.933566 
L 612.163414 69.682774 
L 616.824839 79.925828 
L 621.486264 82.886079 
L 626.147689 89.767125 
L 630.809114 95.606374 
L 635.470539 98.243502 
L 640.131964 94.520743 
L 644.793389 94.879789 
L 649.454814 91.07607 
L 654.116239 95.241651 
L 658.777664 95.241651 
L 663.439089 90.745336 
L 668.100514 88.494295 
L 672.761939 83.164855 
L 677.423365 75.221453 
L 682.08479 72.038316 
L 686.746215 70.31336 
L 691.40764 65.877553 
L 696.069065 66.848898 
L 700.73049 68.042167 
L 705.391915 72.038316 
L 710.05334 80.187229 
L 714.714765 86.951101 
L 719.37619 95.606374 
L 724.037615 104.018178 
L 728.69904 108.635747 
L 733.360465 106.732913 
L 738.02189 97.857415 
L 742.683315 94.164469 
L 747.34474 94.520743 
L 752.006166 91.07607 
L 761.329016 87.255638 
L 765.990441 95.606374 
L 770.651866 112.167091 
L 775.313291 100.630441 
L 779.974716 99.421537 
L 784.636141 99.421537 
L 789.297566 103.147639 
L 793.958991 104.018178 
L 798.620416 97.094799 
L 803.281841 82.333532 
L 807.943266 93.460071 
L 812.604691 97.474531 
L 817.266116 101.040552 
L 821.927541 102.293222 
L 826.588967 105.355581 
L 831.250392 112.694379 
L 835.911817 149.712389 
L 840.573242 150.910825 
L 845.234667 156.042463 
L 849.896092 160.304309 
L 854.557517 161.817139 
L 859.218942 161.817139 
L 863.880367 172.112355 
L 868.541792 148.544297 
L 873.203217 152.141223 
L 877.864642 153.405335 
L 882.526067 157.419795 
L 887.187492 156.042463 
L 887.187492 156.042463 
" style="fill:none;stroke:#525886;stroke-linecap:square;stroke-width:2;"/>
   </g>
   <g id="line2d_19">
    <path clip-path="url(#p06d1563882)" d="M 453.674962 222.799237 
L 458.336387 222.799237 
L 462.997812 222.799237 
L 467.659237 217.365059 
L 472.320662 217.365059 
L 476.982087 217.365059 
L 481.643512 208.106677 
L 486.304937 208.106677 
L 490.966362 208.106677 
L 495.627787 208.106677 
L 500.289212 208.106677 
L 504.950637 204.092217 
L 509.612062 196.980138 
L 514.273487 204.092217 
L 518.934912 196.980138 
L 523.596338 200.399271 
L 528.257763 196.980138 
L 532.919188 200.399271 
L 537.580613 204.092217 
L 542.242038 208.106677 
L 546.903463 200.399271 
L 551.564888 200.399271 
L 556.226313 200.399271 
L 560.887738 204.092217 
L 565.549163 204.092217 
L 570.210588 200.399271 
L 574.872013 190.819375 
L 579.533438 185.385197 
L 584.194863 188.022325 
L 588.856288 178.273118 
L 593.517713 174.075936 
L 598.179139 174.075936 
L 602.840564 163.381261 
L 607.501989 163.381261 
L 612.163414 166.678177 
L 616.824839 168.419409 
L 621.486264 170.228943 
L 626.147689 174.075936 
L 630.809114 170.228943 
L 635.470539 174.075936 
L 640.131964 176.126815 
L 644.793389 161.817139 
L 649.454814 153.405335 
L 654.116239 148.544297 
L 658.777664 147.405049 
L 663.439089 146.293256 
L 668.100514 144.146953 
L 672.761939 137.335443 
L 677.423365 140.132493 
L 682.08479 142.096074 
L 686.746215 142.096074 
L 691.40764 136.439547 
L 696.069065 138.249081 
L 700.73049 132.203805 
L 705.391915 133.020414 
L 710.05334 133.851737 
L 714.714765 129.074661 
L 719.37619 125.439933 
L 724.037615 124.746128 
L 728.69904 120.789088 
L 733.360465 120.161361 
L 738.02189 117.732527 
L 742.683315 117.732527 
L 747.34474 118.930963 
L 752.006166 123.389054 
L 756.667591 120.161361 
L 761.329016 120.789088 
L 765.990441 117.144784 
L 770.651866 114.865942 
L 775.313291 113.227763 
L 779.974716 113.767385 
L 784.636141 111.645761 
L 789.297566 109.617426 
L 793.958991 109.123976 
L 798.620416 114.865942 
L 803.281841 112.167091 
L 807.943266 110.116212 
L 812.604691 103.580855 
L 817.266116 96.718167 
L 821.927541 97.474531 
L 826.588967 95.241651 
L 831.250392 89.767125 
L 835.911817 93.111864 
L 840.573242 88.494295 
L 845.234667 88.809226 
L 849.896092 89.767125 
L 854.557517 88.494295 
L 859.218942 91.07607 
L 863.880367 94.164469 
L 868.541792 96.344584 
L 873.203217 101.454341 
L 877.864642 103.147639 
L 882.526067 111.645761 
L 887.187492 116.564435 
L 891.848917 118.327854 
L 896.510342 126.859651 
L 901.171768 127.586236 
L 905.833193 135.560717 
L 910.494618 148.544297 
L 915.156043 152.141223 
L 919.817468 163.381261 
L 924.478893 163.381261 
L 929.140318 157.419795 
L 933.801743 163.381261 
L 938.463168 166.678177 
" style="fill:none;stroke:#937252;stroke-linecap:square;stroke-width:2;"/>
   </g>
   <g id="line2d_20">
    <path clip-path="url(#p06d1563882)" d="M 383.753586 185.385197 
L 388.415011 182.890687 
L 393.076436 178.273118 
L 397.737861 180.524159 
L 402.399286 180.524159 
L 407.060711 182.890687 
L 411.722136 180.524159 
L 416.383561 185.385197 
L 421.044986 182.890687 
L 425.706411 185.385197 
L 430.367836 176.126815 
L 435.029261 172.112355 
L 439.690686 160.304309 
L 444.352111 156.042463 
L 449.013537 157.419795 
L 453.674962 157.419795 
L 458.336387 150.910825 
L 462.997812 154.70506 
L 467.659237 153.405335 
L 472.320662 156.042463 
L 476.982087 158.839513 
L 481.643512 157.419795 
L 486.304937 160.304309 
L 490.966362 161.817139 
L 495.627787 160.304309 
L 500.289212 163.381261 
L 504.950637 160.304309 
L 509.612062 157.419795 
L 514.273487 149.712389 
L 518.934912 144.146953 
L 523.596338 144.146953 
L 528.257763 145.207625 
L 532.919188 145.207625 
L 537.580613 152.141223 
L 542.242038 157.419795 
L 546.903463 165.000276 
L 551.564888 170.228943 
L 556.226313 176.126815 
L 560.887738 178.273118 
L 565.549163 176.126815 
L 570.210588 178.273118 
L 574.872013 176.126815 
L 579.533438 174.075936 
L 584.194863 170.228943 
L 588.856288 165.000276 
L 593.517713 166.678177 
L 598.179139 168.419409 
L 602.840564 165.000276 
L 607.501989 170.228943 
L 612.163414 163.381261 
L 616.824839 168.419409 
L 621.486264 174.075936 
L 626.147689 174.075936 
L 630.809114 168.419409 
L 635.470539 163.381261 
L 640.131964 158.839513 
L 644.793389 160.304309 
L 649.454814 158.839513 
L 654.116239 157.419795 
L 658.777664 156.042463 
L 663.439089 158.839513 
L 668.100514 158.839513 
L 672.761939 160.304309 
L 677.423365 165.000276 
L 682.08479 168.419409 
L 686.746215 170.228943 
L 691.40764 172.112355 
L 696.069065 163.381261 
L 700.73049 172.112355 
L 705.391915 168.419409 
L 710.05334 165.000276 
L 714.714765 163.381261 
L 719.37619 160.304309 
L 724.037615 157.419795 
L 728.69904 166.678177 
L 733.360465 157.419795 
L 738.02189 158.839513 
L 742.683315 147.405049 
L 747.34474 143.110119 
L 752.006166 146.293256 
L 756.667591 145.207625 
L 761.329016 144.146953 
L 765.990441 150.910825 
L 770.651866 150.910825 
L 775.313291 166.678177 
L 779.974716 160.304309 
L 784.636141 147.405049 
L 789.297566 143.110119 
L 793.958991 138.249081 
L 798.620416 124.746128 
L 803.281841 125.439933 
L 807.943266 120.161361 
L 812.604691 121.425473 
L 817.266116 125.439933 
L 821.927541 120.161361 
L 826.588967 120.789088 
L 831.250392 124.062601 
L 835.911817 120.789088 
L 840.573242 119.542061 
L 845.234667 120.789088 
L 849.896092 120.161361 
L 854.557517 129.074661 
L 859.218942 127.586236 
L 863.880367 131.401399 
L 868.541792 127.586236 
L 873.203217 132.203805 
L 877.864642 132.203805 
L 882.526067 131.401399 
L 887.187492 124.746128 
L 891.848917 124.746128 
L 896.510342 125.439933 
L 901.171768 128.324446 
L 905.833193 130.61271 
L 910.494618 128.324446 
L 915.156043 132.203805 
L 919.817468 138.249081 
L 924.478893 145.207625 
L 929.140318 149.712389 
" style="fill:none;stroke:#d18cad;stroke-linecap:square;stroke-width:2;"/>
   </g>
   <g id="line2d_21">
    <path clip-path="url(#p06d1563882)" d="M 383.753586 222.799237 
L 388.415011 228.96 
L 416.383561 228.96 
L 421.044986 222.799237 
L 425.706411 217.365059 
L 430.367836 212.504021 
L 439.690686 212.504021 
L 444.352111 200.399271 
L 453.674962 200.399271 
L 458.336387 204.092217 
L 462.997812 208.106677 
L 467.659237 208.106677 
L 472.320662 200.399271 
L 476.982087 212.504021 
L 481.643512 200.399271 
L 486.304937 204.092217 
L 490.966362 196.980138 
L 495.627787 193.797001 
L 500.289212 193.797001 
L 504.950637 196.980138 
L 509.612062 188.022325 
L 514.273487 196.980138 
L 518.934912 190.819375 
L 523.596338 188.022325 
L 528.257763 190.819375 
L 532.919188 185.385197 
L 537.580613 185.385197 
L 542.242038 193.797001 
L 546.903463 193.797001 
L 551.564888 200.399271 
L 556.226313 208.106677 
L 560.887738 208.106677 
L 565.549163 212.504021 
L 570.210588 212.504021 
L 574.872013 204.092217 
L 579.533438 200.399271 
L 584.194863 196.980138 
L 588.856288 200.399271 
L 593.517713 200.399271 
L 598.179139 204.092217 
L 602.840564 208.106677 
L 607.501989 217.365059 
L 612.163414 217.365059 
L 616.824839 222.799237 
L 621.486264 217.365059 
L 626.147689 217.365059 
L 630.809114 212.504021 
L 649.454814 212.504021 
L 654.116239 217.365059 
L 658.777664 217.365059 
L 663.439089 222.799237 
L 672.761939 222.799237 
L 677.423365 228.96 
L 686.746215 228.96 
L 691.40764 222.799237 
L 696.069065 222.799237 
L 700.73049 217.365059 
L 719.37619 217.365059 
L 724.037615 222.799237 
L 728.69904 222.799237 
L 733.360465 228.96 
L 738.02189 222.799237 
L 742.683315 212.504021 
L 752.006166 212.504021 
L 756.667591 204.092217 
L 761.329016 204.092217 
L 765.990441 200.399271 
L 770.651866 196.980138 
L 775.313291 204.092217 
L 784.636141 204.092217 
L 789.297566 212.504021 
L 798.620416 212.504021 
L 803.281841 222.799237 
L 807.943266 222.799237 
L 812.604691 217.365059 
L 817.266116 208.106677 
L 826.588967 208.106677 
L 831.250392 212.504021 
L 835.911817 208.106677 
L 840.573242 204.092217 
L 845.234667 208.106677 
L 849.896092 212.504021 
L 854.557517 208.106677 
L 859.218942 208.106677 
L 863.880367 200.399271 
L 868.541792 204.092217 
L 873.203217 200.399271 
L 877.864642 200.399271 
L 882.526067 204.092217 
L 887.187492 204.092217 
L 891.848917 196.980138 
L 896.510342 204.092217 
L 901.171768 200.399271 
L 905.833193 208.106677 
L 910.494618 208.106677 
L 915.156043 204.092217 
L 919.817468 204.092217 
L 924.478893 200.399271 
L 929.140318 200.399271 
L 933.801743 193.797001 
L 938.463168 193.797001 
L 943.124593 185.385197 
L 947.786018 188.022325 
L 952.447443 188.022325 
L 952.447443 188.022325 
" style="fill:none;stroke:#a4a86f;stroke-linecap:square;stroke-width:2;"/>
   </g>
   <g id="line2d_22">
    <path clip-path="url(#p06d1563882)" d="M 742.683315 217.365059 
L 747.34474 222.799237 
L 752.006166 228.96 
L 756.667591 228.96 
L 761.329016 228.96 
L 765.990441 228.96 
L 770.651866 222.799237 
L 775.313291 222.799237 
L 779.974716 222.799237 
L 784.636141 222.799237 
L 789.297566 222.799237 
L 793.958991 222.799237 
L 798.620416 222.799237 
L 803.281841 228.96 
L 807.943266 228.96 
L 812.604691 228.96 
L 817.266116 222.799237 
L 821.927541 217.365059 
L 826.588967 217.365059 
L 831.250392 208.106677 
L 835.911817 208.106677 
L 840.573242 208.106677 
L 845.234667 208.106677 
L 849.896092 212.504021 
L 854.557517 217.365059 
L 859.218942 217.365059 
L 863.880367 228.96 
L 868.541792 228.96 
L 873.203217 228.96 
L 877.864642 228.96 
L 882.526067 228.96 
L 887.187492 228.96 
L 891.848917 228.96 
L 896.510342 228.96 
L 901.171768 222.799237 
" style="fill:none;stroke:#d3d3d3;stroke-linecap:square;stroke-width:2;"/>
   </g>
   <g id="patch_3">
    <path d="M 46.965625 228.96 
L 46.965625 7.2 
" style="fill:none;stroke:#000000;stroke-linecap:square;stroke-linejoin:miter;stroke-width:0.8;"/>
   </g>
   <g id="patch_4">
    <path d="M 46.965625 228.96 
L 995.565625 228.96 
" style="fill:none;stroke:#000000;stroke-linecap:square;stroke-linejoin:miter;stroke-width:0.8;"/>
   </g>
   <g id="legend_1">
    <g id="line2d_23">
     <path d="M 54.165625 17.67875 
L 70.165625 17.67875 
" style="fill:none;stroke:#947383;stroke-linecap:square;stroke-width:2;"/>
    </g>
    <g id="line2d_24"/>
    <g id="text_18">
     <!-- Asia -->
     <g transform="translate(76.565625 20.47875)scale(0.08 -0.08)">
      <defs>
       <path d="M 34.1875 63.1875 
L 20.796875 26.90625 
L 47.609375 26.90625 
z
M 28.609375 72.90625 
L 39.796875 72.90625 
L 67.578125 0 
L 57.328125 0 
L 50.6875 18.703125 
L 17.828125 18.703125 
L 11.1875 0 
L 0.78125 0 
z
" id="DejaVuSans-65"/>
       <path d="M 44.28125 53.078125 
L 44.28125 44.578125 
Q 40.484375 46.53125 36.375 47.5 
Q 32.28125 48.484375 27.875 48.484375 
Q 21.1875 48.484375 17.84375 46.4375 
Q 14.5 44.390625 14.5 40.28125 
Q 14.5 37.15625 16.890625 35.375 
Q 19.28125 33.59375 26.515625 31.984375 
L 29.59375 31.296875 
Q 39.15625 29.25 43.1875 25.515625 
Q 47.21875 21.78125 47.21875 15.09375 
Q 47.21875 7.46875 41.1875 3.015625 
Q 35.15625 -1.421875 24.609375 -1.421875 
Q 20.21875 -1.421875 15.453125 -0.5625 
Q 10.6875 0.296875 5.421875 2 
L 5.421875 11.28125 
Q 10.40625 8.6875 15.234375 7.390625 
Q 20.0625 6.109375 24.8125 6.109375 
Q 31.15625 6.109375 34.5625 8.28125 
Q 37.984375 10.453125 37.984375 14.40625 
Q 37.984375 18.0625 35.515625 20.015625 
Q 33.0625 21.96875 24.703125 23.78125 
L 21.578125 24.515625 
Q 13.234375 26.265625 9.515625 29.90625 
Q 5.8125 33.546875 5.8125 39.890625 
Q 5.8125 47.609375 11.28125 51.796875 
Q 16.75 56 26.8125 56 
Q 31.78125 56 36.171875 55.265625 
Q 40.578125 54.546875 44.28125 53.078125 
z
" id="DejaVuSans-115"/>
      </defs>
      <use xlink:href="#DejaVuSans-65"/>
      <use x="68.408203" xlink:href="#DejaVuSans-115"/>
      <use x="120.507812" xlink:href="#DejaVuSans-105"/>
      <use x="148.291016" xlink:href="#DejaVuSans-97"/>
     </g>
    </g>
    <g id="line2d_25">
     <path d="M 54.165625 29.42125 
L 70.165625 29.42125 
" style="fill:none;stroke:#96c6ad;stroke-linecap:square;stroke-width:2;"/>
    </g>
    <g id="line2d_26"/>
    <g id="text_19">
     <!-- Europe -->
     <g transform="translate(76.565625 32.22125)scale(0.08 -0.08)">
      <defs>
       <path d="M 9.8125 72.90625 
L 55.90625 72.90625 
L 55.90625 64.59375 
L 19.671875 64.59375 
L 19.671875 43.015625 
L 54.390625 43.015625 
L 54.390625 34.71875 
L 19.671875 34.71875 
L 19.671875 8.296875 
L 56.78125 8.296875 
L 56.78125 0 
L 9.8125 0 
z
" id="DejaVuSans-69"/>
       <path d="M 18.109375 8.203125 
L 18.109375 -20.796875 
L 9.078125 -20.796875 
L 9.078125 54.6875 
L 18.109375 54.6875 
L 18.109375 46.390625 
Q 20.953125 51.265625 25.265625 53.625 
Q 29.59375 56 35.59375 56 
Q 45.5625 56 51.78125 48.09375 
Q 58.015625 40.1875 58.015625 27.296875 
Q 58.015625 14.40625 51.78125 6.484375 
Q 45.5625 -1.421875 35.59375 -1.421875 
Q 29.59375 -1.421875 25.265625 0.953125 
Q 20.953125 3.328125 18.109375 8.203125 
z
M 48.6875 27.296875 
Q 48.6875 37.203125 44.609375 42.84375 
Q 40.53125 48.484375 33.40625 48.484375 
Q 26.265625 48.484375 22.1875 42.84375 
Q 18.109375 37.203125 18.109375 27.296875 
Q 18.109375 17.390625 22.1875 11.75 
Q 26.265625 6.109375 33.40625 6.109375 
Q 40.53125 6.109375 44.609375 11.75 
Q 48.6875 17.390625 48.6875 27.296875 
z
" id="DejaVuSans-112"/>
      </defs>
      <use xlink:href="#DejaVuSans-69"/>
      <use x="63.183594" xlink:href="#DejaVuSans-117"/>
      <use x="126.5625" xlink:href="#DejaVuSans-114"/>
      <use x="165.425781" xlink:href="#DejaVuSans-111"/>
      <use x="226.607422" xlink:href="#DejaVuSans-112"/>
      <use x="290.083984" xlink:href="#DejaVuSans-101"/>
     </g>
    </g>
    <g id="line2d_27">
     <path d="M 54.165625 41.16375 
L 70.165625 41.16375 
" style="fill:none;stroke:#525886;stroke-linecap:square;stroke-width:2;"/>
    </g>
    <g id="line2d_28"/>
    <g id="text_20">
     <!-- Africa -->
     <g transform="translate(76.565625 43.96375)scale(0.08 -0.08)">
      <defs>
       <path d="M 37.109375 75.984375 
L 37.109375 68.5 
L 28.515625 68.5 
Q 23.6875 68.5 21.796875 66.546875 
Q 19.921875 64.59375 19.921875 59.515625 
L 19.921875 54.6875 
L 34.71875 54.6875 
L 34.71875 47.703125 
L 19.921875 47.703125 
L 19.921875 0 
L 10.890625 0 
L 10.890625 47.703125 
L 2.296875 47.703125 
L 2.296875 54.6875 
L 10.890625 54.6875 
L 10.890625 58.5 
Q 10.890625 67.625 15.140625 71.796875 
Q 19.390625 75.984375 28.609375 75.984375 
z
" id="DejaVuSans-102"/>
       <path d="M 48.78125 52.59375 
L 48.78125 44.1875 
Q 44.96875 46.296875 41.140625 47.34375 
Q 37.3125 48.390625 33.40625 48.390625 
Q 24.65625 48.390625 19.8125 42.84375 
Q 14.984375 37.3125 14.984375 27.296875 
Q 14.984375 17.28125 19.8125 11.734375 
Q 24.65625 6.203125 33.40625 6.203125 
Q 37.3125 6.203125 41.140625 7.25 
Q 44.96875 8.296875 48.78125 10.40625 
L 48.78125 2.09375 
Q 45.015625 0.34375 40.984375 -0.53125 
Q 36.96875 -1.421875 32.421875 -1.421875 
Q 20.0625 -1.421875 12.78125 6.34375 
Q 5.515625 14.109375 5.515625 27.296875 
Q 5.515625 40.671875 12.859375 48.328125 
Q 20.21875 56 33.015625 56 
Q 37.15625 56 41.109375 55.140625 
Q 45.0625 54.296875 48.78125 52.59375 
z
" id="DejaVuSans-99"/>
      </defs>
      <use xlink:href="#DejaVuSans-65"/>
      <use x="64.783203" xlink:href="#DejaVuSans-102"/>
      <use x="99.988281" xlink:href="#DejaVuSans-114"/>
      <use x="141.101562" xlink:href="#DejaVuSans-105"/>
      <use x="168.884766" xlink:href="#DejaVuSans-99"/>
      <use x="223.865234" xlink:href="#DejaVuSans-97"/>
     </g>
    </g>
    <g id="line2d_29">
     <path d="M 54.165625 52.90625 
L 70.165625 52.90625 
" style="fill:none;stroke:#937252;stroke-linecap:square;stroke-width:2;"/>
    </g>
    <g id="line2d_30"/>
    <g id="text_21">
     <!-- North America -->
     <g transform="translate(76.565625 55.70625)scale(0.08 -0.08)">
      <defs>
       <path d="M 9.8125 72.90625 
L 23.09375 72.90625 
L 55.421875 11.921875 
L 55.421875 72.90625 
L 64.984375 72.90625 
L 64.984375 0 
L 51.703125 0 
L 19.390625 60.984375 
L 19.390625 0 
L 9.8125 0 
z
" id="DejaVuSans-78"/>
       <path d="M 54.890625 33.015625 
L 54.890625 0 
L 45.90625 0 
L 45.90625 32.71875 
Q 45.90625 40.484375 42.875 44.328125 
Q 39.84375 48.1875 33.796875 48.1875 
Q 26.515625 48.1875 22.3125 43.546875 
Q 18.109375 38.921875 18.109375 30.90625 
L 18.109375 0 
L 9.078125 0 
L 9.078125 75.984375 
L 18.109375 75.984375 
L 18.109375 46.1875 
Q 21.34375 51.125 25.703125 53.5625 
Q 30.078125 56 35.796875 56 
Q 45.21875 56 50.046875 50.171875 
Q 54.890625 44.34375 54.890625 33.015625 
z
" id="DejaVuSans-104"/>
       <path d="M 52 44.1875 
Q 55.375 50.25 60.0625 53.125 
Q 64.75 56 71.09375 56 
Q 79.640625 56 84.28125 50.015625 
Q 88.921875 44.046875 88.921875 33.015625 
L 88.921875 0 
L 79.890625 0 
L 79.890625 32.71875 
Q 79.890625 40.578125 77.09375 44.375 
Q 74.3125 48.1875 68.609375 48.1875 
Q 61.625 48.1875 57.5625 43.546875 
Q 53.515625 38.921875 53.515625 30.90625 
L 53.515625 0 
L 44.484375 0 
L 44.484375 32.71875 
Q 44.484375 40.625 41.703125 44.40625 
Q 38.921875 48.1875 33.109375 48.1875 
Q 26.21875 48.1875 22.15625 43.53125 
Q 18.109375 38.875 18.109375 30.90625 
L 18.109375 0 
L 9.078125 0 
L 9.078125 54.6875 
L 18.109375 54.6875 
L 18.109375 46.1875 
Q 21.1875 51.21875 25.484375 53.609375 
Q 29.78125 56 35.6875 56 
Q 41.65625 56 45.828125 52.96875 
Q 50 49.953125 52 44.1875 
z
" id="DejaVuSans-109"/>
      </defs>
      <use xlink:href="#DejaVuSans-78"/>
      <use x="74.804688" xlink:href="#DejaVuSans-111"/>
      <use x="135.986328" xlink:href="#DejaVuSans-114"/>
      <use x="177.099609" xlink:href="#DejaVuSans-116"/>
      <use x="216.308594" xlink:href="#DejaVuSans-104"/>
      <use x="279.6875" xlink:href="#DejaVuSans-32"/>
      <use x="311.474609" xlink:href="#DejaVuSans-65"/>
      <use x="379.882812" xlink:href="#DejaVuSans-109"/>
      <use x="477.294922" xlink:href="#DejaVuSans-101"/>
      <use x="538.818359" xlink:href="#DejaVuSans-114"/>
      <use x="579.931641" xlink:href="#DejaVuSans-105"/>
      <use x="607.714844" xlink:href="#DejaVuSans-99"/>
      <use x="662.695312" xlink:href="#DejaVuSans-97"/>
     </g>
    </g>
    <g id="line2d_31">
     <path d="M 54.165625 64.64875 
L 70.165625 64.64875 
" style="fill:none;stroke:#d18cad;stroke-linecap:square;stroke-width:2;"/>
    </g>
    <g id="line2d_32"/>
    <g id="text_22">
     <!-- United Kingdom -->
     <g transform="translate(76.565625 67.44875)scale(0.08 -0.08)">
      <defs>
       <path d="M 8.6875 72.90625 
L 18.609375 72.90625 
L 18.609375 28.609375 
Q 18.609375 16.890625 22.84375 11.734375 
Q 27.09375 6.59375 36.625 6.59375 
Q 46.09375 6.59375 50.34375 11.734375 
Q 54.59375 16.890625 54.59375 28.609375 
L 54.59375 72.90625 
L 64.5 72.90625 
L 64.5 27.390625 
Q 64.5 13.140625 57.4375 5.859375 
Q 50.390625 -1.421875 36.625 -1.421875 
Q 22.796875 -1.421875 15.734375 5.859375 
Q 8.6875 13.140625 8.6875 27.390625 
z
" id="DejaVuSans-85"/>
       <path d="M 9.8125 72.90625 
L 19.671875 72.90625 
L 19.671875 42.09375 
L 52.390625 72.90625 
L 65.09375 72.90625 
L 28.90625 38.921875 
L 67.671875 0 
L 54.6875 0 
L 19.671875 35.109375 
L 19.671875 0 
L 9.8125 0 
z
" id="DejaVuSans-75"/>
      </defs>
      <use xlink:href="#DejaVuSans-85"/>
      <use x="73.193359" xlink:href="#DejaVuSans-110"/>
      <use x="136.572266" xlink:href="#DejaVuSans-105"/>
      <use x="164.355469" xlink:href="#DejaVuSans-116"/>
      <use x="203.564453" xlink:href="#DejaVuSans-101"/>
      <use x="265.087891" xlink:href="#DejaVuSans-100"/>
      <use x="328.564453" xlink:href="#DejaVuSans-32"/>
      <use x="360.351562" xlink:href="#DejaVuSans-75"/>
      <use x="425.927734" xlink:href="#DejaVuSans-105"/>
      <use x="453.710938" xlink:href="#DejaVuSans-110"/>
      <use x="517.089844" xlink:href="#DejaVuSans-103"/>
      <use x="580.566406" xlink:href="#DejaVuSans-100"/>
      <use x="644.042969" xlink:href="#DejaVuSans-111"/>
      <use x="705.224609" xlink:href="#DejaVuSans-109"/>
     </g>
    </g>
    <g id="line2d_33">
     <path d="M 54.165625 76.39125 
L 70.165625 76.39125 
" style="fill:none;stroke:#a4a86f;stroke-linecap:square;stroke-width:2;"/>
    </g>
    <g id="line2d_34"/>
    <g id="text_23">
     <!-- Oceania -->
     <g transform="translate(76.565625 79.19125)scale(0.08 -0.08)">
      <defs>
       <path d="M 39.40625 66.21875 
Q 28.65625 66.21875 22.328125 58.203125 
Q 16.015625 50.203125 16.015625 36.375 
Q 16.015625 22.609375 22.328125 14.59375 
Q 28.65625 6.59375 39.40625 6.59375 
Q 50.140625 6.59375 56.421875 14.59375 
Q 62.703125 22.609375 62.703125 36.375 
Q 62.703125 50.203125 56.421875 58.203125 
Q 50.140625 66.21875 39.40625 66.21875 
z
M 39.40625 74.21875 
Q 54.734375 74.21875 63.90625 63.9375 
Q 73.09375 53.65625 73.09375 36.375 
Q 73.09375 19.140625 63.90625 8.859375 
Q 54.734375 -1.421875 39.40625 -1.421875 
Q 24.03125 -1.421875 14.8125 8.828125 
Q 5.609375 19.09375 5.609375 36.375 
Q 5.609375 53.65625 14.8125 63.9375 
Q 24.03125 74.21875 39.40625 74.21875 
z
" id="DejaVuSans-79"/>
      </defs>
      <use xlink:href="#DejaVuSans-79"/>
      <use x="78.710938" xlink:href="#DejaVuSans-99"/>
      <use x="133.691406" xlink:href="#DejaVuSans-101"/>
      <use x="195.214844" xlink:href="#DejaVuSans-97"/>
      <use x="256.494141" xlink:href="#DejaVuSans-110"/>
      <use x="319.873047" xlink:href="#DejaVuSans-105"/>
      <use x="347.65625" xlink:href="#DejaVuSans-97"/>
     </g>
    </g>
    <g id="line2d_35">
     <path d="M 54.165625 88.13375 
L 70.165625 88.13375 
" style="fill:none;stroke:#d3d3d3;stroke-linecap:square;stroke-width:2;"/>
    </g>
    <g id="line2d_36"/>
    <g id="text_24">
     <!-- South America -->
     <g transform="translate(76.565625 90.93375)scale(0.08 -0.08)">
      <defs>
       <path d="M 53.515625 70.515625 
L 53.515625 60.890625 
Q 47.90625 63.578125 42.921875 64.890625 
Q 37.9375 66.21875 33.296875 66.21875 
Q 25.25 66.21875 20.875 63.09375 
Q 16.5 59.96875 16.5 54.203125 
Q 16.5 49.359375 19.40625 46.890625 
Q 22.3125 44.4375 30.421875 42.921875 
L 36.375 41.703125 
Q 47.40625 39.59375 52.65625 34.296875 
Q 57.90625 29 57.90625 20.125 
Q 57.90625 9.515625 50.796875 4.046875 
Q 43.703125 -1.421875 29.984375 -1.421875 
Q 24.8125 -1.421875 18.96875 -0.25 
Q 13.140625 0.921875 6.890625 3.21875 
L 6.890625 13.375 
Q 12.890625 10.015625 18.65625 8.296875 
Q 24.421875 6.59375 29.984375 6.59375 
Q 38.421875 6.59375 43.015625 9.90625 
Q 47.609375 13.234375 47.609375 19.390625 
Q 47.609375 24.75 44.3125 27.78125 
Q 41.015625 30.8125 33.5 32.328125 
L 27.484375 33.5 
Q 16.453125 35.6875 11.515625 40.375 
Q 6.59375 45.0625 6.59375 53.421875 
Q 6.59375 63.09375 13.40625 68.65625 
Q 20.21875 74.21875 32.171875 74.21875 
Q 37.3125 74.21875 42.625 73.28125 
Q 47.953125 72.359375 53.515625 70.515625 
z
" id="DejaVuSans-83"/>
      </defs>
      <use xlink:href="#DejaVuSans-83"/>
      <use x="63.476562" xlink:href="#DejaVuSans-111"/>
      <use x="124.658203" xlink:href="#DejaVuSans-117"/>
      <use x="188.037109" xlink:href="#DejaVuSans-116"/>
      <use x="227.246094" xlink:href="#DejaVuSans-104"/>
      <use x="290.625" xlink:href="#DejaVuSans-32"/>
      <use x="322.412109" xlink:href="#DejaVuSans-65"/>
      <use x="390.820312" xlink:href="#DejaVuSans-109"/>
      <use x="488.232422" xlink:href="#DejaVuSans-101"/>
      <use x="549.755859" xlink:href="#DejaVuSans-114"/>
      <use x="590.869141" xlink:href="#DejaVuSans-105"/>
      <use x="618.652344" xlink:href="#DejaVuSans-99"/>
      <use x="673.632812" xlink:href="#DejaVuSans-97"/>
     </g>
    </g>
   </g>
  </g>
 </g>
 <defs>
  <clipPath id="p06d1563882">
   <rect height="221.76" width="948.6" x="46.965625" y="7.2"/>
  </clipPath>
 </defs>
</svg>
