<?xml version="1.0" encoding="utf-8" standalone="no"?>
<!DOCTYPE svg PUBLIC "-//W3C//DTD SVG 1.1//EN"
  "http://www.w3.org/Graphics/SVG/1.1/DTD/svg11.dtd">
<svg height="298.620937pt" version="1.1" viewBox="0 0 1176.528125 298.620937" width="1176.528125pt" xmlns="http://www.w3.org/2000/svg" xmlns:xlink="http://www.w3.org/1999/xlink">
 <metadata>
  <rdf:RDF xmlns:cc="http://creativecommons.org/ns#" xmlns:dc="http://purl.org/dc/elements/1.1/" xmlns:rdf="http://www.w3.org/1999/02/22-rdf-syntax-ns#">
   <cc:Work>
    <dc:type rdf:resource="http://purl.org/dc/dcmitype/StillImage"/>
    <dc:date>2021-06-18T15:37:08.657244</dc:date>
    <dc:format>image/svg+xml</dc:format>
    <dc:creator>
     <cc:Agent>
      <dc:title>Matplotlib v3.4.2, https://matplotlib.org/</dc:title>
     </cc:Agent>
    </dc:creator>
   </cc:Work>
  </rdf:RDF>
 </metadata>
 <defs>
  <style type="text/css">*{stroke-linecap:butt;stroke-linejoin:round;}</style>
 </defs>
 <g id="figure_1">
  <g id="patch_1">
   <path d="M 0 298.620937 
L 1176.528125 298.620937 
L 1176.528125 0 
L 0 0 
z
" style="fill:#ffffff;"/>
  </g>
  <g id="axes_1">
   <g id="patch_2">
    <path d="M 53.328125 228.96 
L 1169.328125 228.96 
L 1169.328125 7.2 
L 53.328125 7.2 
z
" style="fill:#ffffff;"/>
   </g>
   <g id="matplotlib.axis_1">
    <g id="xtick_1">
     <g id="line2d_1">
      <defs>
       <path d="M 0 0 
L 0 3.5 
" id="m9f81df9718" style="stroke:#000000;stroke-width:0.8;"/>
      </defs>
      <g>
       <use style="stroke:#000000;stroke-width:0.8;" x="123.491134" xlink:href="#m9f81df9718" y="228.96"/>
      </g>
     </g>
     <g id="text_1">
      <!-- 2020-10 -->
      <g transform="translate(126.250509 277.742812)rotate(-90)scale(0.1 -0.1)">
       <defs>
        <path d="M 1228 531 
L 3431 531 
L 3431 0 
L 469 0 
L 469 531 
Q 828 903 1448 1529 
Q 2069 2156 2228 2338 
Q 2531 2678 2651 2914 
Q 2772 3150 2772 3378 
Q 2772 3750 2511 3984 
Q 2250 4219 1831 4219 
Q 1534 4219 1204 4116 
Q 875 4013 500 3803 
L 500 4441 
Q 881 4594 1212 4672 
Q 1544 4750 1819 4750 
Q 2544 4750 2975 4387 
Q 3406 4025 3406 3419 
Q 3406 3131 3298 2873 
Q 3191 2616 2906 2266 
Q 2828 2175 2409 1742 
Q 1991 1309 1228 531 
z
" id="DejaVuSans-32" transform="scale(0.015625)"/>
        <path d="M 2034 4250 
Q 1547 4250 1301 3770 
Q 1056 3291 1056 2328 
Q 1056 1369 1301 889 
Q 1547 409 2034 409 
Q 2525 409 2770 889 
Q 3016 1369 3016 2328 
Q 3016 3291 2770 3770 
Q 2525 4250 2034 4250 
z
M 2034 4750 
Q 2819 4750 3233 4129 
Q 3647 3509 3647 2328 
Q 3647 1150 3233 529 
Q 2819 -91 2034 -91 
Q 1250 -91 836 529 
Q 422 1150 422 2328 
Q 422 3509 836 4129 
Q 1250 4750 2034 4750 
z
" id="DejaVuSans-30" transform="scale(0.015625)"/>
        <path d="M 313 2009 
L 1997 2009 
L 1997 1497 
L 313 1497 
L 313 2009 
z
" id="DejaVuSans-2d" transform="scale(0.015625)"/>
        <path d="M 794 531 
L 1825 531 
L 1825 4091 
L 703 3866 
L 703 4441 
L 1819 4666 
L 2450 4666 
L 2450 531 
L 3481 531 
L 3481 0 
L 794 0 
L 794 531 
z
" id="DejaVuSans-31" transform="scale(0.015625)"/>
       </defs>
       <use xlink:href="#DejaVuSans-32"/>
       <use x="63.623047" xlink:href="#DejaVuSans-30"/>
       <use x="127.246094" xlink:href="#DejaVuSans-32"/>
       <use x="190.869141" xlink:href="#DejaVuSans-30"/>
       <use x="254.492188" xlink:href="#DejaVuSans-2d"/>
       <use x="290.576172" xlink:href="#DejaVuSans-31"/>
       <use x="354.199219" xlink:href="#DejaVuSans-30"/>
      </g>
     </g>
    </g>
    <g id="xtick_2">
     <g id="line2d_2">
      <g>
       <use style="stroke:#000000;stroke-width:0.8;" x="243.992702" xlink:href="#m9f81df9718" y="228.96"/>
      </g>
     </g>
     <g id="text_2">
      <!-- 2020-11 -->
      <g transform="translate(246.752077 277.742812)rotate(-90)scale(0.1 -0.1)">
       <use xlink:href="#DejaVuSans-32"/>
       <use x="63.623047" xlink:href="#DejaVuSans-30"/>
       <use x="127.246094" xlink:href="#DejaVuSans-32"/>
       <use x="190.869141" xlink:href="#DejaVuSans-30"/>
       <use x="254.492188" xlink:href="#DejaVuSans-2d"/>
       <use x="290.576172" xlink:href="#DejaVuSans-31"/>
       <use x="354.199219" xlink:href="#DejaVuSans-31"/>
      </g>
     </g>
    </g>
    <g id="xtick_3">
     <g id="line2d_3">
      <g>
       <use style="stroke:#000000;stroke-width:0.8;" x="360.607122" xlink:href="#m9f81df9718" y="228.96"/>
      </g>
     </g>
     <g id="text_3">
      <!-- 2020-12 -->
      <g transform="translate(363.366497 277.742812)rotate(-90)scale(0.1 -0.1)">
       <use xlink:href="#DejaVuSans-32"/>
       <use x="63.623047" xlink:href="#DejaVuSans-30"/>
       <use x="127.246094" xlink:href="#DejaVuSans-32"/>
       <use x="190.869141" xlink:href="#DejaVuSans-30"/>
       <use x="254.492188" xlink:href="#DejaVuSans-2d"/>
       <use x="290.576172" xlink:href="#DejaVuSans-31"/>
       <use x="354.199219" xlink:href="#DejaVuSans-32"/>
      </g>
     </g>
    </g>
    <g id="xtick_4">
     <g id="line2d_4">
      <g>
       <use style="stroke:#000000;stroke-width:0.8;" x="481.108689" xlink:href="#m9f81df9718" y="228.96"/>
      </g>
     </g>
     <g id="text_4">
      <!-- 2021-01 -->
      <g transform="translate(483.868064 277.742812)rotate(-90)scale(0.1 -0.1)">
       <use xlink:href="#DejaVuSans-32"/>
       <use x="63.623047" xlink:href="#DejaVuSans-30"/>
       <use x="127.246094" xlink:href="#DejaVuSans-32"/>
       <use x="190.869141" xlink:href="#DejaVuSans-31"/>
       <use x="254.492188" xlink:href="#DejaVuSans-2d"/>
       <use x="290.576172" xlink:href="#DejaVuSans-30"/>
       <use x="354.199219" xlink:href="#DejaVuSans-31"/>
      </g>
     </g>
    </g>
    <g id="xtick_5">
     <g id="line2d_5">
      <g>
       <use style="stroke:#000000;stroke-width:0.8;" x="601.610257" xlink:href="#m9f81df9718" y="228.96"/>
      </g>
     </g>
     <g id="text_5">
      <!-- 2021-02 -->
      <g transform="translate(604.369632 277.742812)rotate(-90)scale(0.1 -0.1)">
       <use xlink:href="#DejaVuSans-32"/>
       <use x="63.623047" xlink:href="#DejaVuSans-30"/>
       <use x="127.246094" xlink:href="#DejaVuSans-32"/>
       <use x="190.869141" xlink:href="#DejaVuSans-31"/>
       <use x="254.492188" xlink:href="#DejaVuSans-2d"/>
       <use x="290.576172" xlink:href="#DejaVuSans-30"/>
       <use x="354.199219" xlink:href="#DejaVuSans-32"/>
      </g>
     </g>
    </g>
    <g id="xtick_6">
     <g id="line2d_6">
      <g>
       <use style="stroke:#000000;stroke-width:0.8;" x="710.450382" xlink:href="#m9f81df9718" y="228.96"/>
      </g>
     </g>
     <g id="text_6">
      <!-- 2021-03 -->
      <g transform="translate(713.209757 277.742812)rotate(-90)scale(0.1 -0.1)">
       <defs>
        <path d="M 2597 2516 
Q 3050 2419 3304 2112 
Q 3559 1806 3559 1356 
Q 3559 666 3084 287 
Q 2609 -91 1734 -91 
Q 1441 -91 1130 -33 
Q 819 25 488 141 
L 488 750 
Q 750 597 1062 519 
Q 1375 441 1716 441 
Q 2309 441 2620 675 
Q 2931 909 2931 1356 
Q 2931 1769 2642 2001 
Q 2353 2234 1838 2234 
L 1294 2234 
L 1294 2753 
L 1863 2753 
Q 2328 2753 2575 2939 
Q 2822 3125 2822 3475 
Q 2822 3834 2567 4026 
Q 2313 4219 1838 4219 
Q 1578 4219 1281 4162 
Q 984 4106 628 3988 
L 628 4550 
Q 988 4650 1302 4700 
Q 1616 4750 1894 4750 
Q 2613 4750 3031 4423 
Q 3450 4097 3450 3541 
Q 3450 3153 3228 2886 
Q 3006 2619 2597 2516 
z
" id="DejaVuSans-33" transform="scale(0.015625)"/>
       </defs>
       <use xlink:href="#DejaVuSans-32"/>
       <use x="63.623047" xlink:href="#DejaVuSans-30"/>
       <use x="127.246094" xlink:href="#DejaVuSans-32"/>
       <use x="190.869141" xlink:href="#DejaVuSans-31"/>
       <use x="254.492188" xlink:href="#DejaVuSans-2d"/>
       <use x="290.576172" xlink:href="#DejaVuSans-30"/>
       <use x="354.199219" xlink:href="#DejaVuSans-33"/>
      </g>
     </g>
    </g>
    <g id="xtick_7">
     <g id="line2d_7">
      <g>
       <use style="stroke:#000000;stroke-width:0.8;" x="830.951949" xlink:href="#m9f81df9718" y="228.96"/>
      </g>
     </g>
     <g id="text_7">
      <!-- 2021-04 -->
      <g transform="translate(833.711324 277.742812)rotate(-90)scale(0.1 -0.1)">
       <defs>
        <path d="M 2419 4116 
L 825 1625 
L 2419 1625 
L 2419 4116 
z
M 2253 4666 
L 3047 4666 
L 3047 1625 
L 3713 1625 
L 3713 1100 
L 3047 1100 
L 3047 0 
L 2419 0 
L 2419 1100 
L 313 1100 
L 313 1709 
L 2253 4666 
z
" id="DejaVuSans-34" transform="scale(0.015625)"/>
       </defs>
       <use xlink:href="#DejaVuSans-32"/>
       <use x="63.623047" xlink:href="#DejaVuSans-30"/>
       <use x="127.246094" xlink:href="#DejaVuSans-32"/>
       <use x="190.869141" xlink:href="#DejaVuSans-31"/>
       <use x="254.492188" xlink:href="#DejaVuSans-2d"/>
       <use x="290.576172" xlink:href="#DejaVuSans-30"/>
       <use x="354.199219" xlink:href="#DejaVuSans-34"/>
      </g>
     </g>
    </g>
    <g id="xtick_8">
     <g id="line2d_8">
      <g>
       <use style="stroke:#000000;stroke-width:0.8;" x="947.56637" xlink:href="#m9f81df9718" y="228.96"/>
      </g>
     </g>
     <g id="text_8">
      <!-- 2021-05 -->
      <g transform="translate(950.325745 277.742812)rotate(-90)scale(0.1 -0.1)">
       <defs>
        <path d="M 691 4666 
L 3169 4666 
L 3169 4134 
L 1269 4134 
L 1269 2991 
Q 1406 3038 1543 3061 
Q 1681 3084 1819 3084 
Q 2600 3084 3056 2656 
Q 3513 2228 3513 1497 
Q 3513 744 3044 326 
Q 2575 -91 1722 -91 
Q 1428 -91 1123 -41 
Q 819 9 494 109 
L 494 744 
Q 775 591 1075 516 
Q 1375 441 1709 441 
Q 2250 441 2565 725 
Q 2881 1009 2881 1497 
Q 2881 1984 2565 2268 
Q 2250 2553 1709 2553 
Q 1456 2553 1204 2497 
Q 953 2441 691 2322 
L 691 4666 
z
" id="DejaVuSans-35" transform="scale(0.015625)"/>
       </defs>
       <use xlink:href="#DejaVuSans-32"/>
       <use x="63.623047" xlink:href="#DejaVuSans-30"/>
       <use x="127.246094" xlink:href="#DejaVuSans-32"/>
       <use x="190.869141" xlink:href="#DejaVuSans-31"/>
       <use x="254.492188" xlink:href="#DejaVuSans-2d"/>
       <use x="290.576172" xlink:href="#DejaVuSans-30"/>
       <use x="354.199219" xlink:href="#DejaVuSans-35"/>
      </g>
     </g>
    </g>
    <g id="xtick_9">
     <g id="line2d_9">
      <g>
       <use style="stroke:#000000;stroke-width:0.8;" x="1068.067937" xlink:href="#m9f81df9718" y="228.96"/>
      </g>
     </g>
     <g id="text_9">
      <!-- 2021-06 -->
      <g transform="translate(1070.827312 277.742812)rotate(-90)scale(0.1 -0.1)">
       <defs>
        <path d="M 2113 2584 
Q 1688 2584 1439 2293 
Q 1191 2003 1191 1497 
Q 1191 994 1439 701 
Q 1688 409 2113 409 
Q 2538 409 2786 701 
Q 3034 994 3034 1497 
Q 3034 2003 2786 2293 
Q 2538 2584 2113 2584 
z
M 3366 4563 
L 3366 3988 
Q 3128 4100 2886 4159 
Q 2644 4219 2406 4219 
Q 1781 4219 1451 3797 
Q 1122 3375 1075 2522 
Q 1259 2794 1537 2939 
Q 1816 3084 2150 3084 
Q 2853 3084 3261 2657 
Q 3669 2231 3669 1497 
Q 3669 778 3244 343 
Q 2819 -91 2113 -91 
Q 1303 -91 875 529 
Q 447 1150 447 2328 
Q 447 3434 972 4092 
Q 1497 4750 2381 4750 
Q 2619 4750 2861 4703 
Q 3103 4656 3366 4563 
z
" id="DejaVuSans-36" transform="scale(0.015625)"/>
       </defs>
       <use xlink:href="#DejaVuSans-32"/>
       <use x="63.623047" xlink:href="#DejaVuSans-30"/>
       <use x="127.246094" xlink:href="#DejaVuSans-32"/>
       <use x="190.869141" xlink:href="#DejaVuSans-31"/>
       <use x="254.492188" xlink:href="#DejaVuSans-2d"/>
       <use x="290.576172" xlink:href="#DejaVuSans-30"/>
       <use x="354.199219" xlink:href="#DejaVuSans-36"/>
      </g>
     </g>
    </g>
    <g id="text_10">
     <!-- Date -->
     <g transform="translate(599.377344 289.34125)scale(0.1 -0.1)">
      <defs>
       <path d="M 1259 4147 
L 1259 519 
L 2022 519 
Q 2988 519 3436 956 
Q 3884 1394 3884 2338 
Q 3884 3275 3436 3711 
Q 2988 4147 2022 4147 
L 1259 4147 
z
M 628 4666 
L 1925 4666 
Q 3281 4666 3915 4102 
Q 4550 3538 4550 2338 
Q 4550 1131 3912 565 
Q 3275 0 1925 0 
L 628 0 
L 628 4666 
z
" id="DejaVuSans-44" transform="scale(0.015625)"/>
       <path d="M 2194 1759 
Q 1497 1759 1228 1600 
Q 959 1441 959 1056 
Q 959 750 1161 570 
Q 1363 391 1709 391 
Q 2188 391 2477 730 
Q 2766 1069 2766 1631 
L 2766 1759 
L 2194 1759 
z
M 3341 1997 
L 3341 0 
L 2766 0 
L 2766 531 
Q 2569 213 2275 61 
Q 1981 -91 1556 -91 
Q 1019 -91 701 211 
Q 384 513 384 1019 
Q 384 1609 779 1909 
Q 1175 2209 1959 2209 
L 2766 2209 
L 2766 2266 
Q 2766 2663 2505 2880 
Q 2244 3097 1772 3097 
Q 1472 3097 1187 3025 
Q 903 2953 641 2809 
L 641 3341 
Q 956 3463 1253 3523 
Q 1550 3584 1831 3584 
Q 2591 3584 2966 3190 
Q 3341 2797 3341 1997 
z
" id="DejaVuSans-61" transform="scale(0.015625)"/>
       <path d="M 1172 4494 
L 1172 3500 
L 2356 3500 
L 2356 3053 
L 1172 3053 
L 1172 1153 
Q 1172 725 1289 603 
Q 1406 481 1766 481 
L 2356 481 
L 2356 0 
L 1766 0 
Q 1100 0 847 248 
Q 594 497 594 1153 
L 594 3053 
L 172 3053 
L 172 3500 
L 594 3500 
L 594 4494 
L 1172 4494 
z
" id="DejaVuSans-74" transform="scale(0.015625)"/>
       <path d="M 3597 1894 
L 3597 1613 
L 953 1613 
Q 991 1019 1311 708 
Q 1631 397 2203 397 
Q 2534 397 2845 478 
Q 3156 559 3463 722 
L 3463 178 
Q 3153 47 2828 -22 
Q 2503 -91 2169 -91 
Q 1331 -91 842 396 
Q 353 884 353 1716 
Q 353 2575 817 3079 
Q 1281 3584 2069 3584 
Q 2775 3584 3186 3129 
Q 3597 2675 3597 1894 
z
M 3022 2063 
Q 3016 2534 2758 2815 
Q 2500 3097 2075 3097 
Q 1594 3097 1305 2825 
Q 1016 2553 972 2059 
L 3022 2063 
z
" id="DejaVuSans-65" transform="scale(0.015625)"/>
      </defs>
      <use xlink:href="#DejaVuSans-44"/>
      <use x="77.001953" xlink:href="#DejaVuSans-61"/>
      <use x="138.28125" xlink:href="#DejaVuSans-74"/>
      <use x="177.490234" xlink:href="#DejaVuSans-65"/>
     </g>
    </g>
   </g>
   <g id="matplotlib.axis_2">
    <g id="ytick_1">
     <g id="line2d_10">
      <defs>
       <path d="M 0 0 
L -3.5 0 
" id="me5a2bb692d" style="stroke:#000000;stroke-width:0.8;"/>
      </defs>
      <g>
       <use style="stroke:#000000;stroke-width:0.8;" x="53.328125" xlink:href="#me5a2bb692d" y="228.96"/>
      </g>
     </g>
     <g id="text_11">
      <!-- 1 -->
      <g transform="translate(39.965625 232.759219)scale(0.1 -0.1)">
       <use xlink:href="#DejaVuSans-31"/>
      </g>
     </g>
    </g>
    <g id="ytick_2">
     <g id="line2d_11">
      <g>
       <use style="stroke:#000000;stroke-width:0.8;" x="53.328125" xlink:href="#me5a2bb692d" y="200.003294"/>
      </g>
     </g>
     <g id="text_12">
      <!-- 3 -->
      <g transform="translate(39.965625 203.802513)scale(0.1 -0.1)">
       <use xlink:href="#DejaVuSans-33"/>
      </g>
     </g>
    </g>
    <g id="ytick_3">
     <g id="line2d_12">
      <g>
       <use style="stroke:#000000;stroke-width:0.8;" x="53.328125" xlink:href="#me5a2bb692d" y="171.046589"/>
      </g>
     </g>
     <g id="text_13">
      <!-- 10 -->
      <g transform="translate(33.603125 174.845807)scale(0.1 -0.1)">
       <use xlink:href="#DejaVuSans-31"/>
       <use x="63.623047" xlink:href="#DejaVuSans-30"/>
      </g>
     </g>
    </g>
    <g id="ytick_4">
     <g id="line2d_13">
      <g>
       <use style="stroke:#000000;stroke-width:0.8;" x="53.328125" xlink:href="#me5a2bb692d" y="142.089883"/>
      </g>
     </g>
     <g id="text_14">
      <!-- 31 -->
      <g transform="translate(33.603125 145.889102)scale(0.1 -0.1)">
       <use xlink:href="#DejaVuSans-33"/>
       <use x="63.623047" xlink:href="#DejaVuSans-31"/>
      </g>
     </g>
    </g>
    <g id="ytick_5">
     <g id="line2d_14">
      <g>
       <use style="stroke:#000000;stroke-width:0.8;" x="53.328125" xlink:href="#me5a2bb692d" y="113.133177"/>
      </g>
     </g>
     <g id="text_15">
      <!-- 100 -->
      <g transform="translate(27.240625 116.932396)scale(0.1 -0.1)">
       <use xlink:href="#DejaVuSans-31"/>
       <use x="63.623047" xlink:href="#DejaVuSans-30"/>
       <use x="127.246094" xlink:href="#DejaVuSans-30"/>
      </g>
     </g>
    </g>
    <g id="ytick_6">
     <g id="line2d_15">
      <g>
       <use style="stroke:#000000;stroke-width:0.8;" x="53.328125" xlink:href="#me5a2bb692d" y="84.176471"/>
      </g>
     </g>
     <g id="text_16">
      <!-- 316 -->
      <g transform="translate(27.240625 87.97569)scale(0.1 -0.1)">
       <use xlink:href="#DejaVuSans-33"/>
       <use x="63.623047" xlink:href="#DejaVuSans-31"/>
       <use x="127.246094" xlink:href="#DejaVuSans-36"/>
      </g>
     </g>
    </g>
    <g id="ytick_7">
     <g id="line2d_16">
      <g>
       <use style="stroke:#000000;stroke-width:0.8;" x="53.328125" xlink:href="#me5a2bb692d" y="55.219766"/>
      </g>
     </g>
     <g id="text_17">
      <!-- 1000 -->
      <g transform="translate(20.878125 59.018984)scale(0.1 -0.1)">
       <use xlink:href="#DejaVuSans-31"/>
       <use x="63.623047" xlink:href="#DejaVuSans-30"/>
       <use x="127.246094" xlink:href="#DejaVuSans-30"/>
       <use x="190.869141" xlink:href="#DejaVuSans-30"/>
      </g>
     </g>
    </g>
    <g id="ytick_8">
     <g id="line2d_17">
      <g>
       <use style="stroke:#000000;stroke-width:0.8;" x="53.328125" xlink:href="#me5a2bb692d" y="26.26306"/>
      </g>
     </g>
     <g id="text_18">
      <!-- 3162 -->
      <g transform="translate(20.878125 30.062279)scale(0.1 -0.1)">
       <use xlink:href="#DejaVuSans-33"/>
       <use x="63.623047" xlink:href="#DejaVuSans-31"/>
       <use x="127.246094" xlink:href="#DejaVuSans-36"/>
       <use x="190.869141" xlink:href="#DejaVuSans-32"/>
      </g>
     </g>
    </g>
    <g id="text_19">
     <!-- Count (7 day rolling average) -->
     <g transform="translate(14.798437 191.547969)rotate(-90)scale(0.1 -0.1)">
      <defs>
       <path d="M 4122 4306 
L 4122 3641 
Q 3803 3938 3442 4084 
Q 3081 4231 2675 4231 
Q 1875 4231 1450 3742 
Q 1025 3253 1025 2328 
Q 1025 1406 1450 917 
Q 1875 428 2675 428 
Q 3081 428 3442 575 
Q 3803 722 4122 1019 
L 4122 359 
Q 3791 134 3420 21 
Q 3050 -91 2638 -91 
Q 1578 -91 968 557 
Q 359 1206 359 2328 
Q 359 3453 968 4101 
Q 1578 4750 2638 4750 
Q 3056 4750 3426 4639 
Q 3797 4528 4122 4306 
z
" id="DejaVuSans-43" transform="scale(0.015625)"/>
       <path d="M 1959 3097 
Q 1497 3097 1228 2736 
Q 959 2375 959 1747 
Q 959 1119 1226 758 
Q 1494 397 1959 397 
Q 2419 397 2687 759 
Q 2956 1122 2956 1747 
Q 2956 2369 2687 2733 
Q 2419 3097 1959 3097 
z
M 1959 3584 
Q 2709 3584 3137 3096 
Q 3566 2609 3566 1747 
Q 3566 888 3137 398 
Q 2709 -91 1959 -91 
Q 1206 -91 779 398 
Q 353 888 353 1747 
Q 353 2609 779 3096 
Q 1206 3584 1959 3584 
z
" id="DejaVuSans-6f" transform="scale(0.015625)"/>
       <path d="M 544 1381 
L 544 3500 
L 1119 3500 
L 1119 1403 
Q 1119 906 1312 657 
Q 1506 409 1894 409 
Q 2359 409 2629 706 
Q 2900 1003 2900 1516 
L 2900 3500 
L 3475 3500 
L 3475 0 
L 2900 0 
L 2900 538 
Q 2691 219 2414 64 
Q 2138 -91 1772 -91 
Q 1169 -91 856 284 
Q 544 659 544 1381 
z
M 1991 3584 
L 1991 3584 
z
" id="DejaVuSans-75" transform="scale(0.015625)"/>
       <path d="M 3513 2113 
L 3513 0 
L 2938 0 
L 2938 2094 
Q 2938 2591 2744 2837 
Q 2550 3084 2163 3084 
Q 1697 3084 1428 2787 
Q 1159 2491 1159 1978 
L 1159 0 
L 581 0 
L 581 3500 
L 1159 3500 
L 1159 2956 
Q 1366 3272 1645 3428 
Q 1925 3584 2291 3584 
Q 2894 3584 3203 3211 
Q 3513 2838 3513 2113 
z
" id="DejaVuSans-6e" transform="scale(0.015625)"/>
       <path id="DejaVuSans-20" transform="scale(0.015625)"/>
       <path d="M 1984 4856 
Q 1566 4138 1362 3434 
Q 1159 2731 1159 2009 
Q 1159 1288 1364 580 
Q 1569 -128 1984 -844 
L 1484 -844 
Q 1016 -109 783 600 
Q 550 1309 550 2009 
Q 550 2706 781 3412 
Q 1013 4119 1484 4856 
L 1984 4856 
z
" id="DejaVuSans-28" transform="scale(0.015625)"/>
       <path d="M 525 4666 
L 3525 4666 
L 3525 4397 
L 1831 0 
L 1172 0 
L 2766 4134 
L 525 4134 
L 525 4666 
z
" id="DejaVuSans-37" transform="scale(0.015625)"/>
       <path d="M 2906 2969 
L 2906 4863 
L 3481 4863 
L 3481 0 
L 2906 0 
L 2906 525 
Q 2725 213 2448 61 
Q 2172 -91 1784 -91 
Q 1150 -91 751 415 
Q 353 922 353 1747 
Q 353 2572 751 3078 
Q 1150 3584 1784 3584 
Q 2172 3584 2448 3432 
Q 2725 3281 2906 2969 
z
M 947 1747 
Q 947 1113 1208 752 
Q 1469 391 1925 391 
Q 2381 391 2643 752 
Q 2906 1113 2906 1747 
Q 2906 2381 2643 2742 
Q 2381 3103 1925 3103 
Q 1469 3103 1208 2742 
Q 947 2381 947 1747 
z
" id="DejaVuSans-64" transform="scale(0.015625)"/>
       <path d="M 2059 -325 
Q 1816 -950 1584 -1140 
Q 1353 -1331 966 -1331 
L 506 -1331 
L 506 -850 
L 844 -850 
Q 1081 -850 1212 -737 
Q 1344 -625 1503 -206 
L 1606 56 
L 191 3500 
L 800 3500 
L 1894 763 
L 2988 3500 
L 3597 3500 
L 2059 -325 
z
" id="DejaVuSans-79" transform="scale(0.015625)"/>
       <path d="M 2631 2963 
Q 2534 3019 2420 3045 
Q 2306 3072 2169 3072 
Q 1681 3072 1420 2755 
Q 1159 2438 1159 1844 
L 1159 0 
L 581 0 
L 581 3500 
L 1159 3500 
L 1159 2956 
Q 1341 3275 1631 3429 
Q 1922 3584 2338 3584 
Q 2397 3584 2469 3576 
Q 2541 3569 2628 3553 
L 2631 2963 
z
" id="DejaVuSans-72" transform="scale(0.015625)"/>
       <path d="M 603 4863 
L 1178 4863 
L 1178 0 
L 603 0 
L 603 4863 
z
" id="DejaVuSans-6c" transform="scale(0.015625)"/>
       <path d="M 603 3500 
L 1178 3500 
L 1178 0 
L 603 0 
L 603 3500 
z
M 603 4863 
L 1178 4863 
L 1178 4134 
L 603 4134 
L 603 4863 
z
" id="DejaVuSans-69" transform="scale(0.015625)"/>
       <path d="M 2906 1791 
Q 2906 2416 2648 2759 
Q 2391 3103 1925 3103 
Q 1463 3103 1205 2759 
Q 947 2416 947 1791 
Q 947 1169 1205 825 
Q 1463 481 1925 481 
Q 2391 481 2648 825 
Q 2906 1169 2906 1791 
z
M 3481 434 
Q 3481 -459 3084 -895 
Q 2688 -1331 1869 -1331 
Q 1566 -1331 1297 -1286 
Q 1028 -1241 775 -1147 
L 775 -588 
Q 1028 -725 1275 -790 
Q 1522 -856 1778 -856 
Q 2344 -856 2625 -561 
Q 2906 -266 2906 331 
L 2906 616 
Q 2728 306 2450 153 
Q 2172 0 1784 0 
Q 1141 0 747 490 
Q 353 981 353 1791 
Q 353 2603 747 3093 
Q 1141 3584 1784 3584 
Q 2172 3584 2450 3431 
Q 2728 3278 2906 2969 
L 2906 3500 
L 3481 3500 
L 3481 434 
z
" id="DejaVuSans-67" transform="scale(0.015625)"/>
       <path d="M 191 3500 
L 800 3500 
L 1894 563 
L 2988 3500 
L 3597 3500 
L 2284 0 
L 1503 0 
L 191 3500 
z
" id="DejaVuSans-76" transform="scale(0.015625)"/>
       <path d="M 513 4856 
L 1013 4856 
Q 1481 4119 1714 3412 
Q 1947 2706 1947 2009 
Q 1947 1309 1714 600 
Q 1481 -109 1013 -844 
L 513 -844 
Q 928 -128 1133 580 
Q 1338 1288 1338 2009 
Q 1338 2731 1133 3434 
Q 928 4138 513 4856 
z
" id="DejaVuSans-29" transform="scale(0.015625)"/>
      </defs>
      <use xlink:href="#DejaVuSans-43"/>
      <use x="69.824219" xlink:href="#DejaVuSans-6f"/>
      <use x="131.005859" xlink:href="#DejaVuSans-75"/>
      <use x="194.384766" xlink:href="#DejaVuSans-6e"/>
      <use x="257.763672" xlink:href="#DejaVuSans-74"/>
      <use x="296.972656" xlink:href="#DejaVuSans-20"/>
      <use x="328.759766" xlink:href="#DejaVuSans-28"/>
      <use x="367.773438" xlink:href="#DejaVuSans-37"/>
      <use x="431.396484" xlink:href="#DejaVuSans-20"/>
      <use x="463.183594" xlink:href="#DejaVuSans-64"/>
      <use x="526.660156" xlink:href="#DejaVuSans-61"/>
      <use x="587.939453" xlink:href="#DejaVuSans-79"/>
      <use x="647.119141" xlink:href="#DejaVuSans-20"/>
      <use x="678.90625" xlink:href="#DejaVuSans-72"/>
      <use x="717.769531" xlink:href="#DejaVuSans-6f"/>
      <use x="778.951172" xlink:href="#DejaVuSans-6c"/>
      <use x="806.734375" xlink:href="#DejaVuSans-6c"/>
      <use x="834.517578" xlink:href="#DejaVuSans-69"/>
      <use x="862.300781" xlink:href="#DejaVuSans-6e"/>
      <use x="925.679688" xlink:href="#DejaVuSans-67"/>
      <use x="989.15625" xlink:href="#DejaVuSans-20"/>
      <use x="1020.943359" xlink:href="#DejaVuSans-61"/>
      <use x="1082.222656" xlink:href="#DejaVuSans-76"/>
      <use x="1141.402344" xlink:href="#DejaVuSans-65"/>
      <use x="1202.925781" xlink:href="#DejaVuSans-72"/>
      <use x="1244.039062" xlink:href="#DejaVuSans-61"/>
      <use x="1305.318359" xlink:href="#DejaVuSans-67"/>
      <use x="1368.794922" xlink:href="#DejaVuSans-65"/>
      <use x="1430.318359" xlink:href="#DejaVuSans-29"/>
     </g>
    </g>
   </g>
   <g id="line2d_18">
    <path clip-path="url(#pfb2d715af6)" d="M 104.055398 219.989099 
L 107.942545 222.639071 
L 111.829692 225.601489 
L 115.71684 225.601489 
L 119.603987 222.639071 
L 123.491134 219.989099 
L 142.926871 219.989099 
L 146.814018 225.601489 
L 158.47546 225.601489 
L 162.362608 217.591907 
L 174.02405 217.591907 
L 177.911197 213.390251 
L 185.685492 213.390251 
L 189.572639 219.989099 
L 197.346934 219.989099 
L 201.234081 199.040206 
L 205.121228 195.007352 
L 209.008376 192.357379 
L 212.895523 188.480263 
L 216.78267 187.771723 
L 220.669818 186.411853 
L 224.556965 186.411853 
L 228.444112 196.943036 
L 232.33126 187.771723 
L 236.218407 184.500695 
L 240.105554 185.121751 
L 243.992702 168.324857 
L 247.879849 156.665319 
L 251.766996 155.284107 
L 255.654144 154.527614 
L 259.541291 144.267543 
L 263.428438 141.904165 
L 267.315586 142.359407 
L 271.202733 136.17924 
L 275.08988 136.724059 
L 278.977028 135.822476 
L 282.864175 132.508284 
L 286.751322 128.300657 
L 290.63847 119.894235 
L 294.525617 114.423279 
L 298.412764 114.804369 
L 302.299912 115.903204 
L 306.187059 112.705663 
L 310.074207 110.866983 
L 313.961354 113.495075 
L 317.848501 119.24453 
L 321.735649 119.706886 
L 325.622796 112.741013 
L 329.509943 111.940275 
L 333.397091 114.461129 
L 337.284238 117.690105 
L 341.171385 116.226181 
L 345.058533 114.085166 
L 348.94568 115.823104 
L 352.832827 125.565459 
L 356.719975 125.156483 
L 360.607122 124.868375 
L 364.494269 122.052801 
L 368.381417 124.470491 
L 372.268564 120.08299 
L 376.155711 118.79052 
L 380.042859 118.611186 
L 383.930006 109.000713 
L 387.817153 103.56577 
L 391.704301 100.472696 
L 395.591448 85.429699 
L 399.478595 82.693885 
L 403.365743 80.509884 
L 407.25289 75.983223 
L 411.140037 72.898963 
L 418.914332 66.010408 
L 422.801479 66.07118 
L 426.688627 62.861072 
L 430.575774 61.681732 
L 434.462921 61.976123 
L 438.350069 61.990228 
L 442.237216 63.412359 
L 446.124363 65.238796 
L 450.011511 68.435757 
L 453.898658 73.612893 
L 457.785805 71.282981 
L 461.672953 70.119431 
L 465.5601 71.086405 
L 469.447247 65.405238 
L 477.221542 60.648681 
L 481.108689 59.375082 
L 484.995837 56.261474 
L 488.882984 53.996043 
L 492.770131 51.087301 
L 496.657279 51.344702 
L 500.544426 51.902158 
L 504.431573 51.789047 
L 508.318721 49.52702 
L 512.205868 49.404113 
L 516.093015 49.65917 
L 519.980163 48.963195 
L 523.86731 46.787809 
L 527.754457 45.264824 
L 531.641605 43.601407 
L 535.528752 42.23558 
L 539.415899 42.880609 
L 543.303047 41.983829 
L 547.190194 42.098724 
L 551.077341 42.607113 
L 554.964489 41.861004 
L 558.851636 42.182032 
L 566.625931 41.546108 
L 570.513078 42.310739 
L 574.400225 38.73808 
L 578.287373 37.280982 
L 582.17452 35.492003 
L 586.061667 34.138435 
L 589.948815 32.624699 
L 593.835962 31.249508 
L 597.723109 30.956141 
L 601.610257 33.708563 
L 609.384551 38.2009 
L 613.271699 39.545757 
L 617.158846 42.997475 
L 621.045993 45.728617 
L 624.933141 45.896706 
L 628.820288 44.352802 
L 632.707435 43.179363 
L 636.594583 41.698865 
L 640.48173 41.165143 
L 644.368877 39.770256 
L 648.256025 39.413163 
L 652.143172 38.171694 
L 656.030319 36.59833 
L 659.917467 35.442854 
L 663.804614 35.835441 
L 671.578909 36.074305 
L 679.353203 34.887632 
L 683.240351 35.855399 
L 687.127498 36.591477 
L 691.014645 36.415633 
L 694.901793 33.989691 
L 698.78894 34.043819 
L 702.676087 34.564714 
L 706.563235 35.610356 
L 710.450382 35.765714 
L 714.337529 35.480526 
L 718.224677 35.0563 
L 722.111824 37.942878 
L 725.998971 37.960962 
L 729.886119 38.213688 
L 733.773266 39.459204 
L 737.660413 39.704247 
L 741.547561 39.503405 
L 745.434708 37.975439 
L 749.321855 35.64828 
L 753.209003 34.927689 
L 757.09615 33.717731 
L 764.870445 30.826392 
L 768.757592 30.27131 
L 776.531887 33.394308 
L 780.419034 34.648624 
L 784.306181 34.537859 
L 792.080476 34.087205 
L 795.967623 34.385173 
L 799.854771 34.099615 
L 803.741918 33.331023 
L 807.629065 32.358343 
L 811.516213 33.00656 
L 815.40336 33.780466 
L 819.290507 35.636732 
L 823.177655 36.430949 
L 827.064802 36.945158 
L 830.951949 38.49114 
L 834.839097 40.160118 
L 838.726244 41.070797 
L 842.613391 42.214147 
L 846.500539 44.183103 
L 850.387686 45.664643 
L 854.274833 46.883065 
L 858.161981 48.593293 
L 862.049128 49.682223 
L 865.936275 51.704547 
L 869.823423 52.689006 
L 873.71057 53.284082 
L 877.597717 54.281722 
L 881.484865 54.739319 
L 885.372012 54.714656 
L 889.259159 55.18386 
L 893.146307 54.834677 
L 897.033454 55.476176 
L 900.920601 55.400064 
L 904.807749 56.153103 
L 908.694896 56.310207 
L 912.582043 55.852861 
L 916.469191 56.037772 
L 924.243486 57.623425 
L 928.130633 57.786039 
L 932.01778 57.734365 
L 935.904928 58.734805 
L 939.792075 59.558002 
L 947.56637 59.824112 
L 951.453517 60.202337 
L 955.340664 62.421881 
L 967.002106 62.914684 
L 970.889254 63.6574 
L 974.776401 63.889631 
L 978.663548 63.793449 
L 982.550696 63.228897 
L 990.32499 65.59449 
L 994.212138 67.3069 
L 998.099285 68.563693 
L 1001.986432 69.458946 
L 1005.87358 69.957518 
L 1009.760727 71.276177 
L 1013.647874 73.205603 
L 1021.422169 74.255608 
L 1025.309316 75.088747 
L 1029.196464 75.52798 
L 1033.083611 76.098333 
L 1036.970758 77.158739 
L 1040.857906 77.794197 
L 1044.745053 78.700736 
L 1048.6322 79.050451 
L 1052.519348 78.301785 
L 1060.293642 78.564018 
L 1064.18079 79.946623 
L 1068.067937 79.414498 
L 1079.729379 83.039022 
L 1083.616526 83.147856 
L 1087.503674 84.137805 
L 1091.390821 85.286792 
L 1099.165116 94.472358 
L 1103.052263 100.2134 
L 1103.052263 100.2134 
" style="fill:none;stroke:#947383;stroke-linecap:square;stroke-width:2;"/>
   </g>
   <g id="line2d_19">
    <path clip-path="url(#pfb2d715af6)" d="M 135.152576 225.601489 
L 139.039724 228.96 
L 142.926871 225.601489 
L 146.814018 225.601489 
L 150.701166 222.639071 
L 154.588313 219.989099 
L 166.249755 219.989099 
L 170.136902 222.639071 
L 174.02405 219.989099 
L 177.911197 222.639071 
L 181.798344 225.601489 
L 189.572639 225.601489 
L 193.459786 222.639071 
L 197.346934 222.639071 
L 201.234081 225.601489 
L 209.008376 225.601489 
L 212.895523 219.989099 
L 216.78267 219.989099 
L 220.669818 222.639071 
L 224.556965 219.989099 
L 228.444112 217.591907 
L 236.218407 217.591907 
L 240.105554 222.639071 
L 243.992702 222.639071 
L 247.879849 219.989099 
L 251.766996 215.403443 
L 259.541291 215.403443 
L 263.428438 209.791054 
L 267.315586 209.791054 
L 271.202733 202.555425 
L 275.08988 188.480263 
L 278.977028 190.73414 
L 282.864175 191.532667 
L 286.751322 189.209342 
L 290.63847 189.960188 
L 294.525617 189.960188 
L 298.412764 194.092652 
L 302.299912 211.526326 
L 306.187059 209.791054 
L 310.074207 209.791054 
L 313.961354 211.526326 
L 317.848501 213.390251 
L 325.622796 213.390251 
L 329.509943 209.791054 
L 333.397091 211.526326 
L 337.284238 211.526326 
L 341.171385 215.403443 
L 345.058533 217.591907 
L 348.94568 215.403443 
L 352.832827 213.390251 
L 356.719975 195.956577 
L 360.607122 195.007352 
L 364.494269 192.357379 
L 368.381417 192.357379 
L 372.268564 191.532667 
L 376.155711 191.532667 
L 380.042859 192.357379 
L 383.930006 189.960188 
L 387.817153 189.960188 
L 391.704301 190.73414 
L 395.591448 185.121751 
L 399.478595 183.894606 
L 403.365743 181.606532 
L 407.25289 178.043813 
L 411.140037 168.004452 
L 415.027185 160.373973 
L 418.914332 156.262887 
L 422.801479 155.284107 
L 426.688627 151.877642 
L 430.575774 149.78718 
L 434.462921 146.467274 
L 438.350069 135.911194 
L 442.237216 132.276472 
L 446.124363 129.51139 
L 450.011511 128.104416 
L 453.898658 128.300657 
L 457.785805 126.587284 
L 461.672953 126.282414 
L 465.5601 122.206947 
L 473.334395 116.677157 
L 477.221542 114.765999 
L 481.108689 113.862256 
L 484.995837 113.133177 
L 488.882984 111.633754 
L 492.770131 108.161253 
L 496.657279 106.506705 
L 500.544426 105.798933 
L 508.318721 97.582783 
L 512.205868 96.447083 
L 516.093015 95.008436 
L 519.980163 90.390757 
L 523.86731 89.631355 
L 527.754457 87.992243 
L 531.641605 87.365382 
L 535.528752 85.997367 
L 539.415899 84.979919 
L 543.303047 84.769641 
L 547.190194 81.206921 
L 554.964489 78.274813 
L 558.851636 77.496232 
L 562.738783 76.842687 
L 566.625931 76.68192 
L 570.513078 76.213972 
L 578.287373 72.127209 
L 582.17452 70.367552 
L 586.061667 68.815363 
L 589.948815 66.937782 
L 593.835962 66.226539 
L 597.723109 66.143192 
L 601.610257 62.561012 
L 609.384551 56.879441 
L 613.271699 54.955274 
L 617.158846 53.999466 
L 621.045993 53.444283 
L 624.933141 52.643559 
L 628.820288 49.100858 
L 632.707435 48.063309 
L 636.594583 47.799771 
L 640.48173 47.280838 
L 644.368877 45.857054 
L 648.256025 45.330213 
L 652.143172 45.344766 
L 656.030319 43.043931 
L 659.917467 41.979583 
L 663.804614 41.152817 
L 667.691761 39.818903 
L 671.578909 39.403582 
L 675.466056 39.357643 
L 679.353203 39.023299 
L 683.240351 36.983411 
L 687.127498 36.468428 
L 691.014645 34.715318 
L 694.901793 34.228728 
L 698.78894 33.436587 
L 702.676087 33.055633 
L 706.563235 32.474436 
L 710.450382 31.389821 
L 714.337529 29.525598 
L 718.224677 28.827769 
L 722.111824 28.301102 
L 729.886119 26.859719 
L 733.773266 26.645387 
L 737.660413 24.776189 
L 741.547561 24.41677 
L 745.434708 23.63917 
L 749.321855 22.689945 
L 753.209003 22.151612 
L 760.983297 21.613225 
L 764.870445 20.748968 
L 768.757592 19.712089 
L 772.644739 19.668343 
L 776.531887 18.87162 
L 780.419034 18.847071 
L 784.306181 18.966653 
L 788.193329 18.865692 
L 792.080476 18.555181 
L 795.967623 19.260805 
L 799.854771 19.537559 
L 803.741918 19.563661 
L 807.629065 18.893649 
L 811.516213 18.868232 
L 819.290507 19.222989 
L 823.177655 18.520915 
L 827.064802 18.892801 
L 830.951949 19.624673 
L 834.839097 21.063934 
L 842.613391 21.004865 
L 846.500539 24.131217 
L 850.387686 25.336084 
L 858.161981 24.16778 
L 862.049128 22.772885 
L 865.936275 21.976615 
L 869.823423 21.955543 
L 873.71057 19.219554 
L 877.597717 17.846038 
L 881.484865 17.76 
L 885.372012 18.093612 
L 889.259159 17.884281 
L 893.146307 18.224509 
L 897.033454 18.227811 
L 900.920601 18.952205 
L 904.807749 19.533211 
L 908.694896 19.642132 
L 920.356338 19.100476 
L 924.243486 19.144101 
L 928.130633 18.833538 
L 932.01778 18.811561 
L 935.904928 19.391884 
L 939.792075 19.191232 
L 947.56637 20.364996 
L 951.453517 20.360503 
L 955.340664 19.261665 
L 959.227812 20.186785 
L 963.114959 20.050621 
L 967.002106 20.800122 
L 970.889254 21.035305 
L 974.776401 20.874298 
L 978.663548 21.072252 
L 982.550696 21.958416 
L 986.437843 22.318121 
L 990.32499 23.036347 
L 994.212138 24.580955 
L 998.099285 25.519636 
L 1005.87358 25.753482 
L 1009.760727 27.540184 
L 1013.647874 28.203952 
L 1017.535022 29.046386 
L 1021.422169 29.002004 
L 1033.083611 32.176577 
L 1036.970758 40.010512 
L 1040.857906 41.841999 
L 1044.745053 41.899058 
L 1052.519348 45.395771 
L 1060.293642 46.100907 
L 1064.18079 50.431322 
L 1068.067937 55.53796 
L 1071.955084 62.570636 
L 1075.842232 67.138972 
L 1083.616526 78.773957 
L 1087.503674 81.338525 
L 1091.390821 86.503251 
L 1099.165116 107.520788 
L 1103.052263 119.613733 
L 1106.93941 129.101302 
L 1110.826558 137.09394 
L 1114.713705 143.176465 
L 1118.600852 162.075688 
L 1118.600852 162.075688 
" style="fill:none;stroke:#96c6ad;stroke-linecap:square;stroke-width:2;"/>
   </g>
   <g id="line2d_20">
    <path clip-path="url(#pfb2d715af6)" d="M 278.977028 217.591907 
L 294.525617 217.591907 
L 298.412764 222.639071 
L 306.187059 222.639071 
L 310.074207 225.601489 
L 313.961354 222.639071 
L 317.848501 222.639071 
L 321.735649 219.989099 
L 325.622796 219.989099 
L 329.509943 215.403443 
L 333.397091 211.526326 
L 337.284238 213.390251 
L 345.058533 213.390251 
L 348.94568 215.403443 
L 352.832827 215.403443 
L 356.719975 219.989099 
L 360.607122 222.639071 
L 364.494269 219.989099 
L 368.381417 219.989099 
L 372.268564 217.591907 
L 380.042859 217.591907 
L 383.930006 213.390251 
L 387.817153 215.403443 
L 391.704301 217.591907 
L 395.591448 215.403443 
L 399.478595 217.591907 
L 403.365743 217.591907 
L 407.25289 215.403443 
L 411.140037 215.403443 
L 415.027185 208.167814 
L 418.914332 208.167814 
L 422.801479 205.205397 
L 426.688627 202.555425 
L 430.575774 201.32828 
L 434.462921 197.969769 
L 438.350069 197.969769 
L 442.237216 201.32828 
L 446.124363 196.943036 
L 450.011511 197.969769 
L 453.898658 200.158233 
L 457.785805 186.411853 
L 461.672953 184.500695 
L 465.5601 178.043813 
L 469.447247 169.311316 
L 473.334395 165.006685 
L 477.221542 159.001734 
L 481.108689 157.912755 
L 484.995837 158.560469 
L 488.882984 155.67106 
L 492.770131 153.4339 
L 496.657279 150.73047 
L 500.544426 149.328477 
L 504.431573 147.71471 
L 508.318721 145.278794 
L 512.205868 145.278794 
L 516.093015 146.198271 
L 519.980163 143.655555 
L 523.86731 143.776767 
L 527.754457 143.414869 
L 531.641605 142.017205 
L 535.528752 141.457016 
L 539.415899 137.659166 
L 543.303047 136.450175 
L 547.190194 136.089574 
L 551.077341 134.952096 
L 554.964489 130.783364 
L 558.851636 129.928274 
L 562.738783 128.564717 
L 566.625931 128.764597 
L 570.513078 128.498442 
L 574.400225 126.958074 
L 578.287373 124.811148 
L 582.17452 122.833157 
L 586.061667 120.657906 
L 589.948815 118.971142 
L 593.835962 118.521996 
L 597.723109 117.433018 
L 601.610257 114.499037 
L 605.497404 113.313475 
L 609.384551 113.133177 
L 613.271699 111.803582 
L 617.158846 110.218713 
L 621.045993 109.2766 
L 624.933141 107.751802 
L 628.820288 105.987536 
L 632.707435 102.249892 
L 636.594583 99.078555 
L 640.48173 97.953381 
L 644.368877 96.024976 
L 648.256025 94.438162 
L 652.143172 93.548494 
L 659.917467 91.475745 
L 663.804614 91.475745 
L 671.578909 90.087114 
L 675.466056 89.574962 
L 679.353203 88.191385 
L 683.240351 85.609481 
L 687.127498 83.279081 
L 691.014645 80.806252 
L 698.78894 76.95328 
L 702.676087 75.327377 
L 706.563235 74.494158 
L 710.450382 73.198258 
L 714.337529 72.725404 
L 718.224677 70.898054 
L 722.111824 69.225856 
L 725.998971 67.781968 
L 729.886119 67.289476 
L 733.773266 65.971811 
L 737.660413 62.77844 
L 741.547561 60.994365 
L 745.434708 59.841378 
L 749.321855 58.541347 
L 753.209003 56.475851 
L 757.09615 54.831139 
L 764.870445 52.73779 
L 768.757592 50.466989 
L 772.644739 49.038957 
L 776.531887 47.150154 
L 780.419034 46.078413 
L 784.306181 45.134555 
L 788.193329 44.460327 
L 792.080476 43.168234 
L 795.967623 42.212005 
L 799.854771 40.016401 
L 803.741918 38.978049 
L 807.629065 38.443148 
L 815.40336 37.222942 
L 819.290507 36.241011 
L 823.177655 35.565908 
L 827.064802 35.104699 
L 830.951949 33.62925 
L 834.839097 32.799429 
L 838.726244 32.711178 
L 842.613391 32.805324 
L 850.387686 30.816858 
L 854.274833 30.328674 
L 858.161981 30.247335 
L 862.049128 29.154499 
L 865.936275 28.243259 
L 869.823423 27.583256 
L 873.71057 27.168776 
L 881.484865 26.660389 
L 885.372012 26.790006 
L 900.920601 29.027355 
L 908.694896 30.481391 
L 916.469191 31.533724 
L 920.356338 32.116279 
L 924.243486 32.013246 
L 928.130633 32.087616 
L 932.01778 31.994687 
L 935.904928 32.071865 
L 947.56637 31.699602 
L 955.340664 32.211098 
L 959.227812 32.994678 
L 963.114959 33.576006 
L 967.002106 34.661314 
L 970.889254 35.898694 
L 974.776401 36.782364 
L 978.663548 37.36741 
L 982.550696 39.079976 
L 986.437843 40.136437 
L 990.32499 41.690471 
L 998.099285 44.598916 
L 1001.986432 45.262406 
L 1005.87358 46.304259 
L 1009.760727 47.762348 
L 1017.535022 52.025272 
L 1021.422169 53.822102 
L 1029.196464 57.200043 
L 1033.083611 58.422717 
L 1036.970758 62.23123 
L 1040.857906 64.677852 
L 1044.745053 66.949235 
L 1048.6322 69.535009 
L 1052.519348 71.770841 
L 1056.406495 73.102973 
L 1060.293642 74.24795 
L 1064.18079 80.033203 
L 1068.067937 83.136951 
L 1071.955084 87.702991 
L 1075.842232 93.171993 
L 1079.729379 98.210132 
L 1083.616526 102.815647 
L 1087.503674 106.068801 
L 1091.390821 107.121549 
L 1095.277968 119.567285 
L 1099.165116 129.718968 
L 1103.052263 142.244822 
L 1106.93941 157.700505 
L 1114.713705 167.067021 
L 1118.600852 185.121751 
L 1118.600852 185.121751 
" style="fill:none;stroke:#525886;stroke-linecap:square;stroke-width:2;"/>
   </g>
   <g id="line2d_21">
    <path clip-path="url(#pfb2d715af6)" d="M 461.672953 215.403443 
L 465.5601 219.989099 
L 469.447247 222.639071 
L 473.334395 213.390251 
L 477.221542 208.167814 
L 481.108689 208.167814 
L 484.995837 206.643016 
L 488.882984 206.643016 
L 492.770131 202.555425 
L 500.544426 200.158233 
L 504.431573 200.158233 
L 508.318721 193.210054 
L 512.205868 192.357379 
L 516.093015 193.210054 
L 519.980163 193.210054 
L 523.86731 188.480263 
L 527.754457 191.532667 
L 531.641605 191.532667 
L 535.528752 195.007352 
L 539.415899 196.943036 
L 543.303047 195.956577 
L 547.190194 197.969769 
L 551.077341 202.555425 
L 558.851636 200.158233 
L 566.625931 197.969769 
L 570.513078 199.040206 
L 574.400225 197.969769 
L 578.287373 201.32828 
L 586.061667 201.32828 
L 589.948815 205.205397 
L 593.835962 206.643016 
L 597.723109 206.643016 
L 601.610257 202.555425 
L 609.384551 202.555425 
L 613.271699 205.205397 
L 624.933141 205.205397 
L 628.820288 202.555425 
L 632.707435 200.158233 
L 636.594583 197.969769 
L 640.48173 199.040206 
L 644.368877 195.956577 
L 648.256025 195.956577 
L 652.143172 195.007352 
L 656.030319 197.969769 
L 659.917467 195.956577 
L 663.804614 195.007352 
L 667.691761 187.082599 
L 671.578909 174.098993 
L 675.466056 173.696561 
L 679.353203 171.046589 
L 683.240351 170.689824 
L 687.127498 169.648925 
L 691.014645 170.338049 
L 694.901793 168.649397 
L 698.78894 175.346429 
L 702.676087 169.991127 
L 706.563235 169.991127 
L 710.450382 166.163278 
L 714.337529 166.163278 
L 718.224677 164.172858 
L 722.111824 166.460932 
L 725.998971 162.583815 
L 729.886119 165.006685 
L 733.773266 164.172858 
L 737.660413 160.610139 
L 741.547561 159.225304 
L 745.434708 155.866792 
L 749.321855 156.262887 
L 753.209003 160.610139 
L 757.09615 161.089229 
L 760.983297 162.075688 
L 764.870445 165.290885 
L 768.757592 163.900948 
L 772.644739 166.460932 
L 776.531887 164.44774 
L 780.419034 164.44774 
L 784.306181 162.841782 
L 788.193329 158.560469 
L 792.080476 153.25615 
L 795.967623 153.4339 
L 799.854771 154.341994 
L 803.741918 153.079648 
L 807.629065 152.730316 
L 811.516213 152.904375 
L 815.40336 157.074295 
L 819.290507 156.665319 
L 823.177655 151.710522 
L 827.064802 151.379577 
L 830.951949 152.904375 
L 834.839097 152.557453 
L 838.726244 151.877642 
L 842.613391 149.78718 
L 846.500539 151.544505 
L 850.387686 152.38577 
L 854.274833 152.730316 
L 858.161981 152.04588 
L 862.049128 151.215723 
L 865.936275 148.289626 
L 869.823423 148.000525 
L 873.71057 148.877991 
L 877.597717 148.729604 
L 881.484865 146.87625 
L 885.372012 146.198271 
L 889.259159 145.800087 
L 893.146307 148.877991 
L 897.033454 148.435432 
L 900.920601 149.328477 
L 904.807749 149.78718 
L 908.694896 150.570778 
L 912.582043 150.254403 
L 916.469191 150.097695 
L 920.356338 150.254403 
L 924.243486 152.04588 
L 928.130633 151.877642 
L 932.01778 155.866792 
L 935.904928 158.126812 
L 939.792075 160.610139 
L 943.679222 161.577622 
L 947.56637 162.841782 
L 951.453517 163.900948 
L 955.340664 163.631945 
L 959.227812 165.869106 
L 963.114959 164.72566 
L 967.002106 163.36579 
L 970.889254 162.841782 
L 978.663548 161.33224 
L 982.550696 164.172858 
L 986.437843 162.583815 
L 990.32499 162.075688 
L 994.212138 164.172858 
L 998.099285 168.324857 
L 1001.986432 168.649397 
L 1005.87358 167.067021 
L 1009.760727 166.460932 
L 1013.647874 166.460932 
L 1017.535022 165.006685 
L 1021.422169 163.900948 
L 1025.309316 164.44774 
L 1029.196464 165.290885 
L 1033.083611 168.649397 
L 1036.970758 172.526514 
L 1040.857906 167.688077 
L 1044.745053 172.910513 
L 1048.6322 174.923705 
L 1052.519348 174.098993 
L 1056.406495 175.346429 
L 1060.293642 176.213807 
L 1060.293642 176.213807 
" style="fill:none;stroke:#937252;stroke-linecap:square;stroke-width:2;"/>
   </g>
   <g id="line2d_22">
    <path clip-path="url(#pfb2d715af6)" d="M 380.042859 225.601489 
L 383.930006 228.96 
L 387.817153 228.96 
L 391.704301 222.639071 
L 395.591448 222.639071 
L 399.478595 215.403443 
L 415.027185 215.403443 
L 418.914332 217.591907 
L 422.801479 217.591907 
L 426.688627 225.601489 
L 430.575774 217.591907 
L 434.462921 213.390251 
L 442.237216 213.390251 
L 446.124363 211.526326 
L 450.011511 211.526326 
L 453.898658 209.791054 
L 457.785805 211.526326 
L 461.672953 213.390251 
L 465.5601 211.526326 
L 469.447247 211.526326 
L 473.334395 213.390251 
L 477.221542 209.791054 
L 481.108689 199.040206 
L 484.995837 196.943036 
L 488.882984 197.969769 
L 492.770131 197.969769 
L 496.657279 196.943036 
L 500.544426 192.357379 
L 508.318721 194.092652 
L 512.205868 194.092652 
L 519.980163 190.73414 
L 523.86731 190.73414 
L 527.754457 193.210054 
L 531.641605 190.73414 
L 535.528752 194.092652 
L 539.415899 193.210054 
L 543.303047 194.092652 
L 547.190194 192.357379 
L 551.077341 192.357379 
L 554.964489 191.532667 
L 558.851636 191.532667 
L 562.738783 189.960188 
L 570.513078 189.960188 
L 574.400225 193.210054 
L 578.287373 193.210054 
L 582.17452 194.092652 
L 586.061667 195.956577 
L 589.948815 200.158233 
L 593.835962 202.555425 
L 601.610257 202.555425 
L 605.497404 201.32828 
L 609.384551 196.943036 
L 613.271699 199.040206 
L 617.158846 199.040206 
L 621.045993 202.555425 
L 624.933141 202.555425 
L 628.820288 200.158233 
L 632.707435 197.969769 
L 636.594583 206.643016 
L 640.48173 199.040206 
L 644.368877 195.956577 
L 648.256025 193.210054 
L 656.030319 193.210054 
L 659.917467 194.092652 
L 663.804614 193.210054 
L 667.691761 196.943036 
L 671.578909 199.040206 
L 675.466056 201.32828 
L 679.353203 195.956577 
L 683.240351 197.969769 
L 691.014645 195.956577 
L 694.901793 195.956577 
L 698.78894 196.943036 
L 702.676087 193.210054 
L 706.563235 197.969769 
L 710.450382 196.943036 
L 714.337529 197.969769 
L 718.224677 193.210054 
L 722.111824 190.73414 
L 729.886119 192.357379 
L 733.773266 190.73414 
L 737.660413 188.480263 
L 741.547561 187.082599 
L 745.434708 190.73414 
L 749.321855 192.357379 
L 753.209003 187.082599 
L 757.09615 182.724559 
L 760.983297 181.606532 
L 764.870445 182.724559 
L 768.757592 184.500695 
L 772.644739 185.121751 
L 776.531887 182.724559 
L 780.419034 185.758531 
L 784.306181 191.532667 
L 788.193329 193.210054 
L 792.080476 189.960188 
L 795.967623 189.960188 
L 799.854771 187.082599 
L 803.741918 189.960188 
L 807.629065 191.532667 
L 811.516213 185.758531 
L 815.40336 185.758531 
L 819.290507 181.606532 
L 823.177655 180.536095 
L 827.064802 179.011296 
L 830.951949 178.043813 
L 834.839097 175.346429 
L 838.726244 176.658978 
L 842.613391 177.11217 
L 846.500539 180.017489 
L 850.387686 179.509362 
L 854.274833 182.159334 
L 858.161981 183.30278 
L 862.049128 186.411853 
L 865.936275 187.082599 
L 869.823423 183.894606 
L 873.71057 185.121751 
L 877.597717 181.606532 
L 881.484865 181.065619 
L 885.372012 180.017489 
L 889.259159 176.658978 
L 893.146307 174.098993 
L 900.920601 177.573678 
L 904.807749 174.923705 
L 912.582043 174.098993 
L 916.469191 176.658978 
L 920.356338 178.522903 
L 924.243486 176.658978 
L 928.130633 173.696561 
L 932.01778 179.509362 
L 935.904928 182.159334 
L 939.792075 184.500695 
L 943.679222 183.894606 
L 947.56637 187.771723 
L 951.453517 189.960188 
L 955.340664 193.210054 
L 959.227812 193.210054 
L 963.114959 189.209342 
L 967.002106 188.480263 
L 974.776401 191.532667 
L 978.663548 195.007352 
L 982.550696 195.956577 
L 986.437843 195.956577 
L 990.32499 201.32828 
L 994.212138 201.32828 
L 998.099285 199.040206 
L 1005.87358 199.040206 
L 1009.760727 203.845527 
L 1013.647874 208.167814 
L 1017.535022 208.167814 
L 1021.422169 213.390251 
L 1025.309316 219.989099 
L 1029.196464 219.989099 
L 1033.083611 217.591907 
L 1036.970758 217.591907 
L 1040.857906 219.989099 
L 1044.745053 215.403443 
L 1056.406495 215.403443 
L 1060.293642 217.591907 
L 1064.18079 215.403443 
L 1068.067937 213.390251 
L 1071.955084 215.403443 
L 1079.729379 215.403443 
L 1083.616526 213.390251 
L 1083.616526 213.390251 
" style="fill:none;stroke:#d18cad;stroke-linecap:square;stroke-width:2;"/>
   </g>
   <g id="line2d_23">
    <path clip-path="url(#pfb2d715af6)" d="M 247.879849 225.601489 
L 251.766996 228.96 
L 298.412764 228.96 
L 302.299912 225.601489 
L 313.961354 225.601489 
L 317.848501 222.639071 
L 325.622796 222.639071 
L 329.509943 225.601489 
L 333.397091 222.639071 
L 341.171385 222.639071 
L 345.058533 215.403443 
L 348.94568 211.526326 
L 352.832827 209.791054 
L 368.381417 209.791054 
L 372.268564 215.403443 
L 376.155711 219.989099 
L 380.042859 217.591907 
L 383.930006 215.403443 
L 387.817153 209.791054 
L 391.704301 209.791054 
L 395.591448 205.205397 
L 399.478595 206.643016 
L 403.365743 206.643016 
L 407.25289 205.205397 
L 411.140037 202.555425 
L 415.027185 203.845527 
L 422.801479 201.32828 
L 426.688627 199.040206 
L 430.575774 193.210054 
L 434.462921 189.960188 
L 438.350069 185.121751 
L 442.237216 178.043813 
L 446.124363 175.346429 
L 450.011511 154.341994 
L 453.898658 152.04588 
L 457.785805 149.328477 
L 461.672953 144.51657 
L 465.5601 141.457016 
L 469.447247 139.640621 
L 473.334395 139.333267 
L 477.221542 145.278794 
L 481.108689 144.642014 
L 484.995837 141.346459 
L 488.882984 134.866692 
L 492.770131 127.909694 
L 496.657279 125.040843 
L 500.544426 123.693121 
L 504.431573 120.08299 
L 508.318721 119.474646 
L 512.205868 121.445492 
L 516.093015 126.895895 
L 519.980163 129.718968 
L 523.86731 130.638815 
L 527.754457 131.074979 
L 531.641605 135.470701 
L 535.528752 135.296642 
L 539.415899 133.137104 
L 543.303047 130.710986 
L 547.190194 133.457509 
L 551.077341 131.593584 
L 554.964489 127.46112 
L 558.851636 122.104078 
L 562.738783 120.901388 
L 570.513078 122.833157 
L 574.400225 122.886052 
L 578.287373 116.594558 
L 582.17452 112.882912 
L 586.061667 110.573192 
L 589.948815 109.369239 
L 593.835962 109.245796 
L 597.723109 105.452378 
L 601.610257 103.443259 
L 605.497404 98.894294 
L 609.384551 101.424427 
L 613.271699 104.92837 
L 617.158846 106.812248 
L 621.045993 106.645128 
L 624.933141 104.011818 
L 628.820288 103.321342 
L 632.707435 113.93634 
L 636.594583 113.93634 
L 640.48173 109.743246 
L 644.368877 109.307442 
L 648.256025 109.15361 
L 652.143172 115.623962 
L 656.030319 118.971142 
L 659.917467 117.136367 
L 663.804614 117.475684 
L 667.691761 122.465976 
L 671.578909 121.646303 
L 675.466056 118.47752 
L 679.353203 116.594558 
L 683.240351 111.397905 
L 687.127498 109.806125 
L 691.014645 107.377474 
L 694.901793 106.041683 
L 702.676087 105.933505 
L 706.563235 101.469582 
L 710.450382 102.156824 
L 714.337529 101.021637 
L 718.224677 100.321115 
L 722.111824 99.935481 
L 725.998971 97.835759 
L 729.886119 97.640936 
L 733.773266 100.53794 
L 737.660413 101.334359 
L 741.547561 101.605537 
L 749.321855 103.007096 
L 753.209003 101.971716 
L 757.09615 102.863373 
L 760.983297 101.379353 
L 764.870445 101.021637 
L 768.757592 98.610323 
L 772.644739 98.170461 
L 776.531887 96.989605 
L 780.419034 97.67978 
L 784.306181 96.614203 
L 792.080476 94.065038 
L 795.967623 96.614203 
L 799.854771 95.254333 
L 803.741918 95.060926 
L 807.629065 94.149354 
L 811.516213 92.231194 
L 815.40336 94.973504 
L 819.290507 94.782237 
L 827.064802 92.388195 
L 834.839097 88.757519 
L 838.726244 88.784798 
L 842.613391 81.156487 
L 846.500539 79.985066 
L 850.387686 79.841206 
L 854.274833 79.86034 
L 858.161981 79.565388 
L 862.049128 80.42165 
L 865.936275 80.826135 
L 869.823423 87.794665 
L 877.597717 85.441644 
L 881.484865 85.489483 
L 885.372012 85.717971 
L 889.259159 84.792918 
L 893.146307 84.149153 
L 897.033454 83.688057 
L 900.920601 83.377952 
L 904.807749 82.811992 
L 908.694896 81.696305 
L 912.582043 81.348677 
L 916.469191 80.539364 
L 920.356338 80.431439 
L 924.243486 80.052483 
L 928.130633 81.156487 
L 932.01778 81.975826 
L 935.904928 82.576329 
L 939.792075 83.95694 
L 943.679222 85.121088 
L 947.56637 85.681756 
L 951.453517 86.058518 
L 955.340664 87.781549 
L 959.227812 89.378574 
L 963.114959 91.188814 
L 967.002106 89.546812 
L 970.889254 90.10149 
L 974.776401 89.406536 
L 978.663548 91.966521 
L 982.550696 95.325032 
L 986.437843 98.091306 
L 990.32499 101.424427 
L 998.099285 116.718559 
L 1001.986432 128.366413 
L 1005.87358 127.334412 
L 1009.760727 128.104416 
L 1013.647874 129.442576 
L 1017.535022 132.430776 
L 1021.422169 132.508284 
L 1025.309316 134.612206 
L 1029.196464 137.659166 
L 1033.083611 141.904165 
L 1036.970758 143.058104 
L 1044.745053 149.328477 
L 1048.6322 155.866792 
L 1052.519348 163.900948 
L 1056.406495 163.631945 
L 1060.293642 163.102421 
L 1064.18079 168.004452 
L 1068.067937 169.991127 
L 1071.955084 169.991127 
L 1075.842232 170.689824 
L 1079.729379 169.648925 
L 1083.616526 172.526514 
L 1087.503674 176.658978 
L 1091.390821 177.573678 
L 1095.277968 182.159334 
L 1099.165116 183.30278 
L 1103.052263 185.121751 
L 1106.93941 187.771723 
L 1110.826558 191.532667 
L 1114.713705 195.007352 
L 1118.600852 195.007352 
L 1118.600852 195.007352 
" style="fill:none;stroke:#a4a86f;stroke-linecap:square;stroke-width:2;"/>
   </g>
   <g id="line2d_24">
    <path clip-path="url(#pfb2d715af6)" d="M 360.607122 225.601489 
L 364.494269 228.96 
L 391.704301 228.96 
L 395.591448 225.601489 
L 418.914332 225.601489 
L 422.801479 228.96 
L 434.462921 228.96 
L 438.350069 222.639071 
L 442.237216 222.639071 
L 446.124363 219.989099 
L 457.785805 219.989099 
L 461.672953 217.591907 
L 465.5601 217.591907 
L 469.447247 211.526326 
L 477.221542 211.526326 
L 481.108689 205.205397 
L 484.995837 201.32828 
L 488.882984 196.943036 
L 492.770131 195.007352 
L 496.657279 193.210054 
L 500.544426 176.213807 
L 504.431573 165.006685 
L 508.318721 159.678496 
L 512.205868 158.780133 
L 516.093015 157.490031 
L 519.980163 153.974812 
L 523.86731 152.557453 
L 527.754457 153.974812 
L 531.641605 159.225304 
L 535.528752 159.225304 
L 539.415899 159.450879 
L 543.303047 162.075688 
L 547.190194 166.460932 
L 551.077341 169.991127 
L 554.964489 177.573678 
L 558.851636 180.536095 
L 562.738783 192.357379 
L 566.625931 195.956577 
L 570.513078 194.092652 
L 574.400225 196.943036 
L 578.287373 194.092652 
L 582.17452 189.209342 
L 586.061667 181.065619 
L 589.948815 182.159334 
L 593.835962 182.159334 
L 597.723109 179.011296 
L 601.610257 177.573678 
L 609.384551 176.658978 
L 613.271699 177.573678 
L 617.158846 174.098993 
L 621.045993 174.507969 
L 624.933141 178.043813 
L 628.820288 176.658978 
L 632.707435 173.696561 
L 636.594583 174.098993 
L 640.48173 176.658978 
L 644.368877 175.77638 
L 648.256025 176.213807 
L 652.143172 176.213807 
L 656.030319 176.658978 
L 659.917467 181.606532 
L 667.691761 181.606532 
L 671.578909 179.509362 
L 679.353203 177.573678 
L 683.240351 179.509362 
L 687.127498 180.536095 
L 691.014645 179.509362 
L 694.901793 179.011296 
L 698.78894 185.121751 
L 702.676087 183.894606 
L 706.563235 183.30278 
L 714.337529 171.046589 
L 718.224677 171.775668 
L 722.111824 170.689824 
L 725.998971 167.375632 
L 729.886119 165.578334 
L 733.773266 164.44774 
L 737.660413 166.163278 
L 741.547561 166.460932 
L 745.434708 163.900948 
L 749.321855 164.172858 
L 753.209003 166.762151 
L 757.09615 168.649397 
L 760.983297 168.649397 
L 764.870445 166.460932 
L 768.757592 166.762151 
L 772.644739 168.004452 
L 776.531887 168.324857 
L 780.419034 167.688077 
L 784.306181 165.578334 
L 788.193329 167.375632 
L 792.080476 169.648925 
L 795.967623 169.991127 
L 799.854771 170.689824 
L 803.741918 168.324857 
L 807.629065 170.338049 
L 811.516213 170.689824 
L 815.40336 167.688077 
L 819.290507 170.338049 
L 823.177655 172.526514 
L 827.064802 177.11217 
L 830.951949 183.30278 
L 834.839097 185.121751 
L 838.726244 189.209342 
L 842.613391 194.092652 
L 846.500539 195.007352 
L 850.387686 197.969769 
L 854.274833 193.210054 
L 858.161981 191.532667 
L 862.049128 184.500695 
L 865.936275 185.758531 
L 873.71057 185.758531 
L 877.597717 186.411853 
L 881.484865 188.480263 
L 885.372012 188.480263 
L 889.259159 193.210054 
L 893.146307 191.532667 
L 897.033454 194.092652 
L 900.920601 193.210054 
L 908.694896 193.210054 
L 912.582043 194.092652 
L 916.469191 197.969769 
L 920.356338 195.956577 
L 924.243486 196.943036 
L 939.792075 196.943036 
L 943.679222 197.969769 
L 947.56637 203.845527 
L 951.453517 202.555425 
L 955.340664 202.555425 
L 959.227812 205.205397 
L 963.114959 203.845527 
L 970.889254 206.643016 
L 974.776401 203.845527 
L 978.663548 205.205397 
L 982.550696 205.205397 
L 986.437843 202.555425 
L 990.32499 203.845527 
L 994.212138 201.32828 
L 998.099285 200.158233 
L 1001.986432 202.555425 
L 1005.87358 202.555425 
L 1009.760727 203.845527 
L 1013.647874 206.643016 
L 1017.535022 209.791054 
L 1021.422169 217.591907 
L 1025.309316 215.403443 
L 1025.309316 215.403443 
" style="fill:none;stroke:#d3d3d3;stroke-linecap:square;stroke-width:2;"/>
   </g>
   <g id="patch_3">
    <path d="M 53.328125 228.96 
L 53.328125 7.2 
" style="fill:none;stroke:#000000;stroke-linecap:square;stroke-linejoin:miter;stroke-width:0.8;"/>
   </g>
   <g id="patch_4">
    <path d="M 53.328125 228.96 
L 1169.328125 228.96 
" style="fill:none;stroke:#000000;stroke-linecap:square;stroke-linejoin:miter;stroke-width:0.8;"/>
   </g>
   <g id="legend_1">
    <g id="line2d_25">
     <path d="M 60.528125 17.67875 
L 76.528125 17.67875 
" style="fill:none;stroke:#947383;stroke-linecap:square;stroke-width:2;"/>
    </g>
    <g id="line2d_26"/>
    <g id="text_20">
     <!-- United Kingdom -->
     <g transform="translate(82.928125 20.47875)scale(0.08 -0.08)">
      <defs>
       <path d="M 556 4666 
L 1191 4666 
L 1191 1831 
Q 1191 1081 1462 751 
Q 1734 422 2344 422 
Q 2950 422 3222 751 
Q 3494 1081 3494 1831 
L 3494 4666 
L 4128 4666 
L 4128 1753 
Q 4128 841 3676 375 
Q 3225 -91 2344 -91 
Q 1459 -91 1007 375 
Q 556 841 556 1753 
L 556 4666 
z
" id="DejaVuSans-55" transform="scale(0.015625)"/>
       <path d="M 628 4666 
L 1259 4666 
L 1259 2694 
L 3353 4666 
L 4166 4666 
L 1850 2491 
L 4331 0 
L 3500 0 
L 1259 2247 
L 1259 0 
L 628 0 
L 628 4666 
z
" id="DejaVuSans-4b" transform="scale(0.015625)"/>
       <path d="M 3328 2828 
Q 3544 3216 3844 3400 
Q 4144 3584 4550 3584 
Q 5097 3584 5394 3201 
Q 5691 2819 5691 2113 
L 5691 0 
L 5113 0 
L 5113 2094 
Q 5113 2597 4934 2840 
Q 4756 3084 4391 3084 
Q 3944 3084 3684 2787 
Q 3425 2491 3425 1978 
L 3425 0 
L 2847 0 
L 2847 2094 
Q 2847 2600 2669 2842 
Q 2491 3084 2119 3084 
Q 1678 3084 1418 2786 
Q 1159 2488 1159 1978 
L 1159 0 
L 581 0 
L 581 3500 
L 1159 3500 
L 1159 2956 
Q 1356 3278 1631 3431 
Q 1906 3584 2284 3584 
Q 2666 3584 2933 3390 
Q 3200 3197 3328 2828 
z
" id="DejaVuSans-6d" transform="scale(0.015625)"/>
      </defs>
      <use xlink:href="#DejaVuSans-55"/>
      <use x="73.193359" xlink:href="#DejaVuSans-6e"/>
      <use x="136.572266" xlink:href="#DejaVuSans-69"/>
      <use x="164.355469" xlink:href="#DejaVuSans-74"/>
      <use x="203.564453" xlink:href="#DejaVuSans-65"/>
      <use x="265.087891" xlink:href="#DejaVuSans-64"/>
      <use x="328.564453" xlink:href="#DejaVuSans-20"/>
      <use x="360.351562" xlink:href="#DejaVuSans-4b"/>
      <use x="425.927734" xlink:href="#DejaVuSans-69"/>
      <use x="453.710938" xlink:href="#DejaVuSans-6e"/>
      <use x="517.089844" xlink:href="#DejaVuSans-67"/>
      <use x="580.566406" xlink:href="#DejaVuSans-64"/>
      <use x="644.042969" xlink:href="#DejaVuSans-6f"/>
      <use x="705.224609" xlink:href="#DejaVuSans-6d"/>
     </g>
    </g>
    <g id="line2d_27">
     <path d="M 60.528125 29.42125 
L 76.528125 29.42125 
" style="fill:none;stroke:#96c6ad;stroke-linecap:square;stroke-width:2;"/>
    </g>
    <g id="line2d_28"/>
    <g id="text_21">
     <!-- Europe -->
     <g transform="translate(82.928125 32.22125)scale(0.08 -0.08)">
      <defs>
       <path d="M 628 4666 
L 3578 4666 
L 3578 4134 
L 1259 4134 
L 1259 2753 
L 3481 2753 
L 3481 2222 
L 1259 2222 
L 1259 531 
L 3634 531 
L 3634 0 
L 628 0 
L 628 4666 
z
" id="DejaVuSans-45" transform="scale(0.015625)"/>
       <path d="M 1159 525 
L 1159 -1331 
L 581 -1331 
L 581 3500 
L 1159 3500 
L 1159 2969 
Q 1341 3281 1617 3432 
Q 1894 3584 2278 3584 
Q 2916 3584 3314 3078 
Q 3713 2572 3713 1747 
Q 3713 922 3314 415 
Q 2916 -91 2278 -91 
Q 1894 -91 1617 61 
Q 1341 213 1159 525 
z
M 3116 1747 
Q 3116 2381 2855 2742 
Q 2594 3103 2138 3103 
Q 1681 3103 1420 2742 
Q 1159 2381 1159 1747 
Q 1159 1113 1420 752 
Q 1681 391 2138 391 
Q 2594 391 2855 752 
Q 3116 1113 3116 1747 
z
" id="DejaVuSans-70" transform="scale(0.015625)"/>
      </defs>
      <use xlink:href="#DejaVuSans-45"/>
      <use x="63.183594" xlink:href="#DejaVuSans-75"/>
      <use x="126.5625" xlink:href="#DejaVuSans-72"/>
      <use x="165.425781" xlink:href="#DejaVuSans-6f"/>
      <use x="226.607422" xlink:href="#DejaVuSans-70"/>
      <use x="290.083984" xlink:href="#DejaVuSans-65"/>
     </g>
    </g>
    <g id="line2d_29">
     <path d="M 60.528125 41.16375 
L 76.528125 41.16375 
" style="fill:none;stroke:#525886;stroke-linecap:square;stroke-width:2;"/>
    </g>
    <g id="line2d_30"/>
    <g id="text_22">
     <!-- North America -->
     <g transform="translate(82.928125 43.96375)scale(0.08 -0.08)">
      <defs>
       <path d="M 628 4666 
L 1478 4666 
L 3547 763 
L 3547 4666 
L 4159 4666 
L 4159 0 
L 3309 0 
L 1241 3903 
L 1241 0 
L 628 0 
L 628 4666 
z
" id="DejaVuSans-4e" transform="scale(0.015625)"/>
       <path d="M 3513 2113 
L 3513 0 
L 2938 0 
L 2938 2094 
Q 2938 2591 2744 2837 
Q 2550 3084 2163 3084 
Q 1697 3084 1428 2787 
Q 1159 2491 1159 1978 
L 1159 0 
L 581 0 
L 581 4863 
L 1159 4863 
L 1159 2956 
Q 1366 3272 1645 3428 
Q 1925 3584 2291 3584 
Q 2894 3584 3203 3211 
Q 3513 2838 3513 2113 
z
" id="DejaVuSans-68" transform="scale(0.015625)"/>
       <path d="M 2188 4044 
L 1331 1722 
L 3047 1722 
L 2188 4044 
z
M 1831 4666 
L 2547 4666 
L 4325 0 
L 3669 0 
L 3244 1197 
L 1141 1197 
L 716 0 
L 50 0 
L 1831 4666 
z
" id="DejaVuSans-41" transform="scale(0.015625)"/>
       <path d="M 3122 3366 
L 3122 2828 
Q 2878 2963 2633 3030 
Q 2388 3097 2138 3097 
Q 1578 3097 1268 2742 
Q 959 2388 959 1747 
Q 959 1106 1268 751 
Q 1578 397 2138 397 
Q 2388 397 2633 464 
Q 2878 531 3122 666 
L 3122 134 
Q 2881 22 2623 -34 
Q 2366 -91 2075 -91 
Q 1284 -91 818 406 
Q 353 903 353 1747 
Q 353 2603 823 3093 
Q 1294 3584 2113 3584 
Q 2378 3584 2631 3529 
Q 2884 3475 3122 3366 
z
" id="DejaVuSans-63" transform="scale(0.015625)"/>
      </defs>
      <use xlink:href="#DejaVuSans-4e"/>
      <use x="74.804688" xlink:href="#DejaVuSans-6f"/>
      <use x="135.986328" xlink:href="#DejaVuSans-72"/>
      <use x="177.099609" xlink:href="#DejaVuSans-74"/>
      <use x="216.308594" xlink:href="#DejaVuSans-68"/>
      <use x="279.6875" xlink:href="#DejaVuSans-20"/>
      <use x="311.474609" xlink:href="#DejaVuSans-41"/>
      <use x="379.882812" xlink:href="#DejaVuSans-6d"/>
      <use x="477.294922" xlink:href="#DejaVuSans-65"/>
      <use x="538.818359" xlink:href="#DejaVuSans-72"/>
      <use x="579.931641" xlink:href="#DejaVuSans-69"/>
      <use x="607.714844" xlink:href="#DejaVuSans-63"/>
      <use x="662.695312" xlink:href="#DejaVuSans-61"/>
     </g>
    </g>
    <g id="line2d_31">
     <path d="M 60.528125 52.90625 
L 76.528125 52.90625 
" style="fill:none;stroke:#937252;stroke-linecap:square;stroke-width:2;"/>
    </g>
    <g id="line2d_32"/>
    <g id="text_23">
     <!-- South America -->
     <g transform="translate(82.928125 55.70625)scale(0.08 -0.08)">
      <defs>
       <path d="M 3425 4513 
L 3425 3897 
Q 3066 4069 2747 4153 
Q 2428 4238 2131 4238 
Q 1616 4238 1336 4038 
Q 1056 3838 1056 3469 
Q 1056 3159 1242 3001 
Q 1428 2844 1947 2747 
L 2328 2669 
Q 3034 2534 3370 2195 
Q 3706 1856 3706 1288 
Q 3706 609 3251 259 
Q 2797 -91 1919 -91 
Q 1588 -91 1214 -16 
Q 841 59 441 206 
L 441 856 
Q 825 641 1194 531 
Q 1563 422 1919 422 
Q 2459 422 2753 634 
Q 3047 847 3047 1241 
Q 3047 1584 2836 1778 
Q 2625 1972 2144 2069 
L 1759 2144 
Q 1053 2284 737 2584 
Q 422 2884 422 3419 
Q 422 4038 858 4394 
Q 1294 4750 2059 4750 
Q 2388 4750 2728 4690 
Q 3069 4631 3425 4513 
z
" id="DejaVuSans-53" transform="scale(0.015625)"/>
      </defs>
      <use xlink:href="#DejaVuSans-53"/>
      <use x="63.476562" xlink:href="#DejaVuSans-6f"/>
      <use x="124.658203" xlink:href="#DejaVuSans-75"/>
      <use x="188.037109" xlink:href="#DejaVuSans-74"/>
      <use x="227.246094" xlink:href="#DejaVuSans-68"/>
      <use x="290.625" xlink:href="#DejaVuSans-20"/>
      <use x="322.412109" xlink:href="#DejaVuSans-41"/>
      <use x="390.820312" xlink:href="#DejaVuSans-6d"/>
      <use x="488.232422" xlink:href="#DejaVuSans-65"/>
      <use x="549.755859" xlink:href="#DejaVuSans-72"/>
      <use x="590.869141" xlink:href="#DejaVuSans-69"/>
      <use x="618.652344" xlink:href="#DejaVuSans-63"/>
      <use x="673.632812" xlink:href="#DejaVuSans-61"/>
     </g>
    </g>
    <g id="line2d_33">
     <path d="M 60.528125 64.64875 
L 76.528125 64.64875 
" style="fill:none;stroke:#d18cad;stroke-linecap:square;stroke-width:2;"/>
    </g>
    <g id="line2d_34"/>
    <g id="text_24">
     <!-- Oceania -->
     <g transform="translate(82.928125 67.44875)scale(0.08 -0.08)">
      <defs>
       <path d="M 2522 4238 
Q 1834 4238 1429 3725 
Q 1025 3213 1025 2328 
Q 1025 1447 1429 934 
Q 1834 422 2522 422 
Q 3209 422 3611 934 
Q 4013 1447 4013 2328 
Q 4013 3213 3611 3725 
Q 3209 4238 2522 4238 
z
M 2522 4750 
Q 3503 4750 4090 4092 
Q 4678 3434 4678 2328 
Q 4678 1225 4090 567 
Q 3503 -91 2522 -91 
Q 1538 -91 948 565 
Q 359 1222 359 2328 
Q 359 3434 948 4092 
Q 1538 4750 2522 4750 
z
" id="DejaVuSans-4f" transform="scale(0.015625)"/>
      </defs>
      <use xlink:href="#DejaVuSans-4f"/>
      <use x="78.710938" xlink:href="#DejaVuSans-63"/>
      <use x="133.691406" xlink:href="#DejaVuSans-65"/>
      <use x="195.214844" xlink:href="#DejaVuSans-61"/>
      <use x="256.494141" xlink:href="#DejaVuSans-6e"/>
      <use x="319.873047" xlink:href="#DejaVuSans-69"/>
      <use x="347.65625" xlink:href="#DejaVuSans-61"/>
     </g>
    </g>
    <g id="line2d_35">
     <path d="M 60.528125 76.39125 
L 76.528125 76.39125 
" style="fill:none;stroke:#a4a86f;stroke-linecap:square;stroke-width:2;"/>
    </g>
    <g id="line2d_36"/>
    <g id="text_25">
     <!-- Asia -->
     <g transform="translate(82.928125 79.19125)scale(0.08 -0.08)">
      <defs>
       <path d="M 2834 3397 
L 2834 2853 
Q 2591 2978 2328 3040 
Q 2066 3103 1784 3103 
Q 1356 3103 1142 2972 
Q 928 2841 928 2578 
Q 928 2378 1081 2264 
Q 1234 2150 1697 2047 
L 1894 2003 
Q 2506 1872 2764 1633 
Q 3022 1394 3022 966 
Q 3022 478 2636 193 
Q 2250 -91 1575 -91 
Q 1294 -91 989 -36 
Q 684 19 347 128 
L 347 722 
Q 666 556 975 473 
Q 1284 391 1588 391 
Q 1994 391 2212 530 
Q 2431 669 2431 922 
Q 2431 1156 2273 1281 
Q 2116 1406 1581 1522 
L 1381 1569 
Q 847 1681 609 1914 
Q 372 2147 372 2553 
Q 372 3047 722 3315 
Q 1072 3584 1716 3584 
Q 2034 3584 2315 3537 
Q 2597 3491 2834 3397 
z
" id="DejaVuSans-73" transform="scale(0.015625)"/>
      </defs>
      <use xlink:href="#DejaVuSans-41"/>
      <use x="68.408203" xlink:href="#DejaVuSans-73"/>
      <use x="120.507812" xlink:href="#DejaVuSans-69"/>
      <use x="148.291016" xlink:href="#DejaVuSans-61"/>
     </g>
    </g>
    <g id="line2d_37">
     <path d="M 60.528125 88.13375 
L 76.528125 88.13375 
" style="fill:none;stroke:#d3d3d3;stroke-linecap:square;stroke-width:2;"/>
    </g>
    <g id="line2d_38"/>
    <g id="text_26">
     <!-- Africa -->
     <g transform="translate(82.928125 90.93375)scale(0.08 -0.08)">
      <defs>
       <path d="M 2375 4863 
L 2375 4384 
L 1825 4384 
Q 1516 4384 1395 4259 
Q 1275 4134 1275 3809 
L 1275 3500 
L 2222 3500 
L 2222 3053 
L 1275 3053 
L 1275 0 
L 697 0 
L 697 3053 
L 147 3053 
L 147 3500 
L 697 3500 
L 697 3744 
Q 697 4328 969 4595 
Q 1241 4863 1831 4863 
L 2375 4863 
z
" id="DejaVuSans-66" transform="scale(0.015625)"/>
      </defs>
      <use xlink:href="#DejaVuSans-41"/>
      <use x="64.783203" xlink:href="#DejaVuSans-66"/>
      <use x="99.988281" xlink:href="#DejaVuSans-72"/>
      <use x="141.101562" xlink:href="#DejaVuSans-69"/>
      <use x="168.884766" xlink:href="#DejaVuSans-63"/>
      <use x="223.865234" xlink:href="#DejaVuSans-61"/>
     </g>
    </g>
   </g>
  </g>
 </g>
 <defs>
  <clipPath id="pfb2d715af6">
   <rect height="221.76" width="1116" x="53.328125" y="7.2"/>
  </clipPath>
 </defs>
</svg>
