<?xml version="1.0" encoding="utf-8" standalone="no"?>
<!DOCTYPE svg PUBLIC "-//W3C//DTD SVG 1.1//EN"
  "http://www.w3.org/Graphics/SVG/1.1/DTD/svg11.dtd">
<!-- Created with matplotlib (https://matplotlib.org/) -->
<svg height="298.620937pt" version="1.1" viewBox="0 0 1002.765625 298.620937" width="1002.765625pt" xmlns="http://www.w3.org/2000/svg" xmlns:xlink="http://www.w3.org/1999/xlink">
 <metadata>
  <rdf:RDF xmlns:cc="http://creativecommons.org/ns#" xmlns:dc="http://purl.org/dc/elements/1.1/" xmlns:rdf="http://www.w3.org/1999/02/22-rdf-syntax-ns#">
   <cc:Work>
    <dc:type rdf:resource="http://purl.org/dc/dcmitype/StillImage"/>
    <dc:date>2021-06-01T20:26:05.596104</dc:date>
    <dc:format>image/svg+xml</dc:format>
    <dc:creator>
     <cc:Agent>
      <dc:title>Matplotlib v3.3.3, https://matplotlib.org/</dc:title>
     </cc:Agent>
    </dc:creator>
   </cc:Work>
  </rdf:RDF>
 </metadata>
 <defs>
  <style type="text/css">*{stroke-linecap:butt;stroke-linejoin:round;}</style>
 </defs>
 <g id="figure_1">
  <g id="patch_1">
   <path d="M 0 298.620937 
L 1002.765625 298.620937 
L 1002.765625 0 
L 0 0 
z
" style="fill:#ffffff;"/>
  </g>
  <g id="axes_1">
   <g id="patch_2">
    <path d="M 46.965625 228.96 
L 995.565625 228.96 
L 995.565625 7.2 
L 46.965625 7.2 
z
" style="fill:#ffffff;"/>
   </g>
   <g id="matplotlib.axis_1">
    <g id="xtick_1">
     <g id="line2d_1">
      <defs>
       <path d="M 0 0 
L 0 3.5 
" id="mf2af4b4d4a" style="stroke:#000000;stroke-width:0.8;"/>
      </defs>
      <g>
       <use style="stroke:#000000;stroke-width:0.8;" x="70.259355" xlink:href="#mf2af4b4d4a" y="228.96"/>
      </g>
     </g>
     <g id="text_1">
      <!-- 2020-09 -->
      <g transform="translate(73.01873 277.742812)rotate(-90)scale(0.1 -0.1)">
       <defs>
        <path d="M 19.1875 8.296875 
L 53.609375 8.296875 
L 53.609375 0 
L 7.328125 0 
L 7.328125 8.296875 
Q 12.9375 14.109375 22.625 23.890625 
Q 32.328125 33.6875 34.8125 36.53125 
Q 39.546875 41.84375 41.421875 45.53125 
Q 43.3125 49.21875 43.3125 52.78125 
Q 43.3125 58.59375 39.234375 62.25 
Q 35.15625 65.921875 28.609375 65.921875 
Q 23.96875 65.921875 18.8125 64.3125 
Q 13.671875 62.703125 7.8125 59.421875 
L 7.8125 69.390625 
Q 13.765625 71.78125 18.9375 73 
Q 24.125 74.21875 28.421875 74.21875 
Q 39.75 74.21875 46.484375 68.546875 
Q 53.21875 62.890625 53.21875 53.421875 
Q 53.21875 48.921875 51.53125 44.890625 
Q 49.859375 40.875 45.40625 35.40625 
Q 44.1875 33.984375 37.640625 27.21875 
Q 31.109375 20.453125 19.1875 8.296875 
z
" id="DejaVuSans-50"/>
        <path d="M 31.78125 66.40625 
Q 24.171875 66.40625 20.328125 58.90625 
Q 16.5 51.421875 16.5 36.375 
Q 16.5 21.390625 20.328125 13.890625 
Q 24.171875 6.390625 31.78125 6.390625 
Q 39.453125 6.390625 43.28125 13.890625 
Q 47.125 21.390625 47.125 36.375 
Q 47.125 51.421875 43.28125 58.90625 
Q 39.453125 66.40625 31.78125 66.40625 
z
M 31.78125 74.21875 
Q 44.046875 74.21875 50.515625 64.515625 
Q 56.984375 54.828125 56.984375 36.375 
Q 56.984375 17.96875 50.515625 8.265625 
Q 44.046875 -1.421875 31.78125 -1.421875 
Q 19.53125 -1.421875 13.0625 8.265625 
Q 6.59375 17.96875 6.59375 36.375 
Q 6.59375 54.828125 13.0625 64.515625 
Q 19.53125 74.21875 31.78125 74.21875 
z
" id="DejaVuSans-48"/>
        <path d="M 4.890625 31.390625 
L 31.203125 31.390625 
L 31.203125 23.390625 
L 4.890625 23.390625 
z
" id="DejaVuSans-45"/>
        <path d="M 10.984375 1.515625 
L 10.984375 10.5 
Q 14.703125 8.734375 18.5 7.8125 
Q 22.3125 6.890625 25.984375 6.890625 
Q 35.75 6.890625 40.890625 13.453125 
Q 46.046875 20.015625 46.78125 33.40625 
Q 43.953125 29.203125 39.59375 26.953125 
Q 35.25 24.703125 29.984375 24.703125 
Q 19.046875 24.703125 12.671875 31.3125 
Q 6.296875 37.9375 6.296875 49.421875 
Q 6.296875 60.640625 12.9375 67.421875 
Q 19.578125 74.21875 30.609375 74.21875 
Q 43.265625 74.21875 49.921875 64.515625 
Q 56.59375 54.828125 56.59375 36.375 
Q 56.59375 19.140625 48.40625 8.859375 
Q 40.234375 -1.421875 26.421875 -1.421875 
Q 22.703125 -1.421875 18.890625 -0.6875 
Q 15.09375 0.046875 10.984375 1.515625 
z
M 30.609375 32.421875 
Q 37.25 32.421875 41.125 36.953125 
Q 45.015625 41.5 45.015625 49.421875 
Q 45.015625 57.28125 41.125 61.84375 
Q 37.25 66.40625 30.609375 66.40625 
Q 23.96875 66.40625 20.09375 61.84375 
Q 16.21875 57.28125 16.21875 49.421875 
Q 16.21875 41.5 20.09375 36.953125 
Q 23.96875 32.421875 30.609375 32.421875 
z
" id="DejaVuSans-57"/>
       </defs>
       <use xlink:href="#DejaVuSans-50"/>
       <use x="63.623047" xlink:href="#DejaVuSans-48"/>
       <use x="127.246094" xlink:href="#DejaVuSans-50"/>
       <use x="190.869141" xlink:href="#DejaVuSans-48"/>
       <use x="254.492188" xlink:href="#DejaVuSans-45"/>
       <use x="290.576172" xlink:href="#DejaVuSans-48"/>
       <use x="354.199219" xlink:href="#DejaVuSans-57"/>
      </g>
     </g>
    </g>
    <g id="xtick_2">
     <g id="line2d_2">
      <g>
       <use style="stroke:#000000;stroke-width:0.8;" x="169.381612" xlink:href="#mf2af4b4d4a" y="228.96"/>
      </g>
     </g>
     <g id="text_2">
      <!-- 2020-10 -->
      <g transform="translate(172.140987 277.742812)rotate(-90)scale(0.1 -0.1)">
       <defs>
        <path d="M 12.40625 8.296875 
L 28.515625 8.296875 
L 28.515625 63.921875 
L 10.984375 60.40625 
L 10.984375 69.390625 
L 28.421875 72.90625 
L 38.28125 72.90625 
L 38.28125 8.296875 
L 54.390625 8.296875 
L 54.390625 0 
L 12.40625 0 
z
" id="DejaVuSans-49"/>
       </defs>
       <use xlink:href="#DejaVuSans-50"/>
       <use x="63.623047" xlink:href="#DejaVuSans-48"/>
       <use x="127.246094" xlink:href="#DejaVuSans-50"/>
       <use x="190.869141" xlink:href="#DejaVuSans-48"/>
       <use x="254.492188" xlink:href="#DejaVuSans-45"/>
       <use x="290.576172" xlink:href="#DejaVuSans-49"/>
       <use x="354.199219" xlink:href="#DejaVuSans-48"/>
      </g>
     </g>
    </g>
    <g id="xtick_3">
     <g id="line2d_3">
      <g>
       <use style="stroke:#000000;stroke-width:0.8;" x="271.807945" xlink:href="#mf2af4b4d4a" y="228.96"/>
      </g>
     </g>
     <g id="text_3">
      <!-- 2020-11 -->
      <g transform="translate(274.56732 277.742812)rotate(-90)scale(0.1 -0.1)">
       <use xlink:href="#DejaVuSans-50"/>
       <use x="63.623047" xlink:href="#DejaVuSans-48"/>
       <use x="127.246094" xlink:href="#DejaVuSans-50"/>
       <use x="190.869141" xlink:href="#DejaVuSans-48"/>
       <use x="254.492188" xlink:href="#DejaVuSans-45"/>
       <use x="290.576172" xlink:href="#DejaVuSans-49"/>
       <use x="354.199219" xlink:href="#DejaVuSans-49"/>
      </g>
     </g>
    </g>
    <g id="xtick_4">
     <g id="line2d_4">
      <g>
       <use style="stroke:#000000;stroke-width:0.8;" x="370.930202" xlink:href="#mf2af4b4d4a" y="228.96"/>
      </g>
     </g>
     <g id="text_4">
      <!-- 2020-12 -->
      <g transform="translate(373.689577 277.742812)rotate(-90)scale(0.1 -0.1)">
       <use xlink:href="#DejaVuSans-50"/>
       <use x="63.623047" xlink:href="#DejaVuSans-48"/>
       <use x="127.246094" xlink:href="#DejaVuSans-50"/>
       <use x="190.869141" xlink:href="#DejaVuSans-48"/>
       <use x="254.492188" xlink:href="#DejaVuSans-45"/>
       <use x="290.576172" xlink:href="#DejaVuSans-49"/>
       <use x="354.199219" xlink:href="#DejaVuSans-50"/>
      </g>
     </g>
    </g>
    <g id="xtick_5">
     <g id="line2d_5">
      <g>
       <use style="stroke:#000000;stroke-width:0.8;" x="473.356534" xlink:href="#mf2af4b4d4a" y="228.96"/>
      </g>
     </g>
     <g id="text_5">
      <!-- 2021-01 -->
      <g transform="translate(476.115909 277.742812)rotate(-90)scale(0.1 -0.1)">
       <use xlink:href="#DejaVuSans-50"/>
       <use x="63.623047" xlink:href="#DejaVuSans-48"/>
       <use x="127.246094" xlink:href="#DejaVuSans-50"/>
       <use x="190.869141" xlink:href="#DejaVuSans-49"/>
       <use x="254.492188" xlink:href="#DejaVuSans-45"/>
       <use x="290.576172" xlink:href="#DejaVuSans-48"/>
       <use x="354.199219" xlink:href="#DejaVuSans-49"/>
      </g>
     </g>
    </g>
    <g id="xtick_6">
     <g id="line2d_6">
      <g>
       <use style="stroke:#000000;stroke-width:0.8;" x="575.782866" xlink:href="#mf2af4b4d4a" y="228.96"/>
      </g>
     </g>
     <g id="text_6">
      <!-- 2021-02 -->
      <g transform="translate(578.542241 277.742812)rotate(-90)scale(0.1 -0.1)">
       <use xlink:href="#DejaVuSans-50"/>
       <use x="63.623047" xlink:href="#DejaVuSans-48"/>
       <use x="127.246094" xlink:href="#DejaVuSans-50"/>
       <use x="190.869141" xlink:href="#DejaVuSans-49"/>
       <use x="254.492188" xlink:href="#DejaVuSans-45"/>
       <use x="290.576172" xlink:href="#DejaVuSans-48"/>
       <use x="354.199219" xlink:href="#DejaVuSans-50"/>
      </g>
     </g>
    </g>
    <g id="xtick_7">
     <g id="line2d_7">
      <g>
       <use style="stroke:#000000;stroke-width:0.8;" x="668.296973" xlink:href="#mf2af4b4d4a" y="228.96"/>
      </g>
     </g>
     <g id="text_7">
      <!-- 2021-03 -->
      <g transform="translate(671.056348 277.742812)rotate(-90)scale(0.1 -0.1)">
       <defs>
        <path d="M 40.578125 39.3125 
Q 47.65625 37.796875 51.625 33 
Q 55.609375 28.21875 55.609375 21.1875 
Q 55.609375 10.40625 48.1875 4.484375 
Q 40.765625 -1.421875 27.09375 -1.421875 
Q 22.515625 -1.421875 17.65625 -0.515625 
Q 12.796875 0.390625 7.625 2.203125 
L 7.625 11.71875 
Q 11.71875 9.328125 16.59375 8.109375 
Q 21.484375 6.890625 26.8125 6.890625 
Q 36.078125 6.890625 40.9375 10.546875 
Q 45.796875 14.203125 45.796875 21.1875 
Q 45.796875 27.640625 41.28125 31.265625 
Q 36.765625 34.90625 28.71875 34.90625 
L 20.21875 34.90625 
L 20.21875 43.015625 
L 29.109375 43.015625 
Q 36.375 43.015625 40.234375 45.921875 
Q 44.09375 48.828125 44.09375 54.296875 
Q 44.09375 59.90625 40.109375 62.90625 
Q 36.140625 65.921875 28.71875 65.921875 
Q 24.65625 65.921875 20.015625 65.03125 
Q 15.375 64.15625 9.8125 62.3125 
L 9.8125 71.09375 
Q 15.4375 72.65625 20.34375 73.4375 
Q 25.25 74.21875 29.59375 74.21875 
Q 40.828125 74.21875 47.359375 69.109375 
Q 53.90625 64.015625 53.90625 55.328125 
Q 53.90625 49.265625 50.4375 45.09375 
Q 46.96875 40.921875 40.578125 39.3125 
z
" id="DejaVuSans-51"/>
       </defs>
       <use xlink:href="#DejaVuSans-50"/>
       <use x="63.623047" xlink:href="#DejaVuSans-48"/>
       <use x="127.246094" xlink:href="#DejaVuSans-50"/>
       <use x="190.869141" xlink:href="#DejaVuSans-49"/>
       <use x="254.492188" xlink:href="#DejaVuSans-45"/>
       <use x="290.576172" xlink:href="#DejaVuSans-48"/>
       <use x="354.199219" xlink:href="#DejaVuSans-51"/>
      </g>
     </g>
    </g>
    <g id="xtick_8">
     <g id="line2d_8">
      <g>
       <use style="stroke:#000000;stroke-width:0.8;" x="770.723305" xlink:href="#mf2af4b4d4a" y="228.96"/>
      </g>
     </g>
     <g id="text_8">
      <!-- 2021-04 -->
      <g transform="translate(773.48268 277.742812)rotate(-90)scale(0.1 -0.1)">
       <defs>
        <path d="M 37.796875 64.3125 
L 12.890625 25.390625 
L 37.796875 25.390625 
z
M 35.203125 72.90625 
L 47.609375 72.90625 
L 47.609375 25.390625 
L 58.015625 25.390625 
L 58.015625 17.1875 
L 47.609375 17.1875 
L 47.609375 0 
L 37.796875 0 
L 37.796875 17.1875 
L 4.890625 17.1875 
L 4.890625 26.703125 
z
" id="DejaVuSans-52"/>
       </defs>
       <use xlink:href="#DejaVuSans-50"/>
       <use x="63.623047" xlink:href="#DejaVuSans-48"/>
       <use x="127.246094" xlink:href="#DejaVuSans-50"/>
       <use x="190.869141" xlink:href="#DejaVuSans-49"/>
       <use x="254.492188" xlink:href="#DejaVuSans-45"/>
       <use x="290.576172" xlink:href="#DejaVuSans-48"/>
       <use x="354.199219" xlink:href="#DejaVuSans-52"/>
      </g>
     </g>
    </g>
    <g id="xtick_9">
     <g id="line2d_9">
      <g>
       <use style="stroke:#000000;stroke-width:0.8;" x="869.845562" xlink:href="#mf2af4b4d4a" y="228.96"/>
      </g>
     </g>
     <g id="text_9">
      <!-- 2021-05 -->
      <g transform="translate(872.604937 277.742812)rotate(-90)scale(0.1 -0.1)">
       <defs>
        <path d="M 10.796875 72.90625 
L 49.515625 72.90625 
L 49.515625 64.59375 
L 19.828125 64.59375 
L 19.828125 46.734375 
Q 21.96875 47.46875 24.109375 47.828125 
Q 26.265625 48.1875 28.421875 48.1875 
Q 40.625 48.1875 47.75 41.5 
Q 54.890625 34.8125 54.890625 23.390625 
Q 54.890625 11.625 47.5625 5.09375 
Q 40.234375 -1.421875 26.90625 -1.421875 
Q 22.3125 -1.421875 17.546875 -0.640625 
Q 12.796875 0.140625 7.71875 1.703125 
L 7.71875 11.625 
Q 12.109375 9.234375 16.796875 8.0625 
Q 21.484375 6.890625 26.703125 6.890625 
Q 35.15625 6.890625 40.078125 11.328125 
Q 45.015625 15.765625 45.015625 23.390625 
Q 45.015625 31 40.078125 35.4375 
Q 35.15625 39.890625 26.703125 39.890625 
Q 22.75 39.890625 18.8125 39.015625 
Q 14.890625 38.140625 10.796875 36.28125 
z
" id="DejaVuSans-53"/>
       </defs>
       <use xlink:href="#DejaVuSans-50"/>
       <use x="63.623047" xlink:href="#DejaVuSans-48"/>
       <use x="127.246094" xlink:href="#DejaVuSans-50"/>
       <use x="190.869141" xlink:href="#DejaVuSans-49"/>
       <use x="254.492188" xlink:href="#DejaVuSans-45"/>
       <use x="290.576172" xlink:href="#DejaVuSans-48"/>
       <use x="354.199219" xlink:href="#DejaVuSans-53"/>
      </g>
     </g>
    </g>
    <g id="xtick_10">
     <g id="line2d_10">
      <g>
       <use style="stroke:#000000;stroke-width:0.8;" x="972.271895" xlink:href="#mf2af4b4d4a" y="228.96"/>
      </g>
     </g>
     <g id="text_10">
      <!-- 2021-06 -->
      <g transform="translate(975.03127 277.742812)rotate(-90)scale(0.1 -0.1)">
       <defs>
        <path d="M 33.015625 40.375 
Q 26.375 40.375 22.484375 35.828125 
Q 18.609375 31.296875 18.609375 23.390625 
Q 18.609375 15.53125 22.484375 10.953125 
Q 26.375 6.390625 33.015625 6.390625 
Q 39.65625 6.390625 43.53125 10.953125 
Q 47.40625 15.53125 47.40625 23.390625 
Q 47.40625 31.296875 43.53125 35.828125 
Q 39.65625 40.375 33.015625 40.375 
z
M 52.59375 71.296875 
L 52.59375 62.3125 
Q 48.875 64.0625 45.09375 64.984375 
Q 41.3125 65.921875 37.59375 65.921875 
Q 27.828125 65.921875 22.671875 59.328125 
Q 17.53125 52.734375 16.796875 39.40625 
Q 19.671875 43.65625 24.015625 45.921875 
Q 28.375 48.1875 33.59375 48.1875 
Q 44.578125 48.1875 50.953125 41.515625 
Q 57.328125 34.859375 57.328125 23.390625 
Q 57.328125 12.15625 50.6875 5.359375 
Q 44.046875 -1.421875 33.015625 -1.421875 
Q 20.359375 -1.421875 13.671875 8.265625 
Q 6.984375 17.96875 6.984375 36.375 
Q 6.984375 53.65625 15.1875 63.9375 
Q 23.390625 74.21875 37.203125 74.21875 
Q 40.921875 74.21875 44.703125 73.484375 
Q 48.484375 72.75 52.59375 71.296875 
z
" id="DejaVuSans-54"/>
       </defs>
       <use xlink:href="#DejaVuSans-50"/>
       <use x="63.623047" xlink:href="#DejaVuSans-48"/>
       <use x="127.246094" xlink:href="#DejaVuSans-50"/>
       <use x="190.869141" xlink:href="#DejaVuSans-49"/>
       <use x="254.492188" xlink:href="#DejaVuSans-45"/>
       <use x="290.576172" xlink:href="#DejaVuSans-48"/>
       <use x="354.199219" xlink:href="#DejaVuSans-54"/>
      </g>
     </g>
    </g>
    <g id="text_11">
     <!-- Date -->
     <g transform="translate(509.314844 289.34125)scale(0.1 -0.1)">
      <defs>
       <path d="M 19.671875 64.796875 
L 19.671875 8.109375 
L 31.59375 8.109375 
Q 46.6875 8.109375 53.6875 14.9375 
Q 60.6875 21.78125 60.6875 36.53125 
Q 60.6875 51.171875 53.6875 57.984375 
Q 46.6875 64.796875 31.59375 64.796875 
z
M 9.8125 72.90625 
L 30.078125 72.90625 
Q 51.265625 72.90625 61.171875 64.09375 
Q 71.09375 55.28125 71.09375 36.53125 
Q 71.09375 17.671875 61.125 8.828125 
Q 51.171875 0 30.078125 0 
L 9.8125 0 
z
" id="DejaVuSans-68"/>
       <path d="M 34.28125 27.484375 
Q 23.390625 27.484375 19.1875 25 
Q 14.984375 22.515625 14.984375 16.5 
Q 14.984375 11.71875 18.140625 8.90625 
Q 21.296875 6.109375 26.703125 6.109375 
Q 34.1875 6.109375 38.703125 11.40625 
Q 43.21875 16.703125 43.21875 25.484375 
L 43.21875 27.484375 
z
M 52.203125 31.203125 
L 52.203125 0 
L 43.21875 0 
L 43.21875 8.296875 
Q 40.140625 3.328125 35.546875 0.953125 
Q 30.953125 -1.421875 24.3125 -1.421875 
Q 15.921875 -1.421875 10.953125 3.296875 
Q 6 8.015625 6 15.921875 
Q 6 25.140625 12.171875 29.828125 
Q 18.359375 34.515625 30.609375 34.515625 
L 43.21875 34.515625 
L 43.21875 35.40625 
Q 43.21875 41.609375 39.140625 45 
Q 35.0625 48.390625 27.6875 48.390625 
Q 23 48.390625 18.546875 47.265625 
Q 14.109375 46.140625 10.015625 43.890625 
L 10.015625 52.203125 
Q 14.9375 54.109375 19.578125 55.046875 
Q 24.21875 56 28.609375 56 
Q 40.484375 56 46.34375 49.84375 
Q 52.203125 43.703125 52.203125 31.203125 
z
" id="DejaVuSans-97"/>
       <path d="M 18.3125 70.21875 
L 18.3125 54.6875 
L 36.8125 54.6875 
L 36.8125 47.703125 
L 18.3125 47.703125 
L 18.3125 18.015625 
Q 18.3125 11.328125 20.140625 9.421875 
Q 21.96875 7.515625 27.59375 7.515625 
L 36.8125 7.515625 
L 36.8125 0 
L 27.59375 0 
Q 17.1875 0 13.234375 3.875 
Q 9.28125 7.765625 9.28125 18.015625 
L 9.28125 47.703125 
L 2.6875 47.703125 
L 2.6875 54.6875 
L 9.28125 54.6875 
L 9.28125 70.21875 
z
" id="DejaVuSans-116"/>
       <path d="M 56.203125 29.59375 
L 56.203125 25.203125 
L 14.890625 25.203125 
Q 15.484375 15.921875 20.484375 11.0625 
Q 25.484375 6.203125 34.421875 6.203125 
Q 39.59375 6.203125 44.453125 7.46875 
Q 49.3125 8.734375 54.109375 11.28125 
L 54.109375 2.78125 
Q 49.265625 0.734375 44.1875 -0.34375 
Q 39.109375 -1.421875 33.890625 -1.421875 
Q 20.796875 -1.421875 13.15625 6.1875 
Q 5.515625 13.8125 5.515625 26.8125 
Q 5.515625 40.234375 12.765625 48.109375 
Q 20.015625 56 32.328125 56 
Q 43.359375 56 49.78125 48.890625 
Q 56.203125 41.796875 56.203125 29.59375 
z
M 47.21875 32.234375 
Q 47.125 39.59375 43.09375 43.984375 
Q 39.0625 48.390625 32.421875 48.390625 
Q 24.90625 48.390625 20.390625 44.140625 
Q 15.875 39.890625 15.1875 32.171875 
z
" id="DejaVuSans-101"/>
      </defs>
      <use xlink:href="#DejaVuSans-68"/>
      <use x="77.001953" xlink:href="#DejaVuSans-97"/>
      <use x="138.28125" xlink:href="#DejaVuSans-116"/>
      <use x="177.490234" xlink:href="#DejaVuSans-101"/>
     </g>
    </g>
   </g>
   <g id="matplotlib.axis_2">
    <g id="ytick_1">
     <g id="line2d_11">
      <defs>
       <path d="M 0 0 
L -3.5 0 
" id="m260aadd05c" style="stroke:#000000;stroke-width:0.8;"/>
      </defs>
      <g>
       <use style="stroke:#000000;stroke-width:0.8;" x="46.965625" xlink:href="#m260aadd05c" y="228.96"/>
      </g>
     </g>
     <g id="text_12">
      <!-- 1 -->
      <g transform="translate(33.603125 232.759219)scale(0.1 -0.1)">
       <use xlink:href="#DejaVuSans-49"/>
      </g>
     </g>
    </g>
    <g id="ytick_2">
     <g id="line2d_12">
      <g>
       <use style="stroke:#000000;stroke-width:0.8;" x="46.965625" xlink:href="#m260aadd05c" y="179.925759"/>
      </g>
     </g>
     <g id="text_13">
      <!-- 3 -->
      <g transform="translate(33.603125 183.724978)scale(0.1 -0.1)">
       <use xlink:href="#DejaVuSans-51"/>
      </g>
     </g>
    </g>
    <g id="ytick_3">
     <g id="line2d_13">
      <g>
       <use style="stroke:#000000;stroke-width:0.8;" x="46.965625" xlink:href="#m260aadd05c" y="130.891518"/>
      </g>
     </g>
     <g id="text_14">
      <!-- 10 -->
      <g transform="translate(27.240625 134.690737)scale(0.1 -0.1)">
       <use xlink:href="#DejaVuSans-49"/>
       <use x="63.623047" xlink:href="#DejaVuSans-48"/>
      </g>
     </g>
    </g>
    <g id="ytick_4">
     <g id="line2d_14">
      <g>
       <use style="stroke:#000000;stroke-width:0.8;" x="46.965625" xlink:href="#m260aadd05c" y="81.857277"/>
      </g>
     </g>
     <g id="text_15">
      <!-- 31 -->
      <g transform="translate(27.240625 85.656496)scale(0.1 -0.1)">
       <use xlink:href="#DejaVuSans-51"/>
       <use x="63.623047" xlink:href="#DejaVuSans-49"/>
      </g>
     </g>
    </g>
    <g id="ytick_5">
     <g id="line2d_15">
      <g>
       <use style="stroke:#000000;stroke-width:0.8;" x="46.965625" xlink:href="#m260aadd05c" y="32.823036"/>
      </g>
     </g>
     <g id="text_16">
      <!-- 100 -->
      <g transform="translate(20.878125 36.622255)scale(0.1 -0.1)">
       <use xlink:href="#DejaVuSans-49"/>
       <use x="63.623047" xlink:href="#DejaVuSans-48"/>
       <use x="127.246094" xlink:href="#DejaVuSans-48"/>
      </g>
     </g>
    </g>
    <g id="text_17">
     <!-- Count (7 day rolling average) -->
     <g transform="translate(14.798438 191.547969)rotate(-90)scale(0.1 -0.1)">
      <defs>
       <path d="M 64.40625 67.28125 
L 64.40625 56.890625 
Q 59.421875 61.53125 53.78125 63.8125 
Q 48.140625 66.109375 41.796875 66.109375 
Q 29.296875 66.109375 22.65625 58.46875 
Q 16.015625 50.828125 16.015625 36.375 
Q 16.015625 21.96875 22.65625 14.328125 
Q 29.296875 6.6875 41.796875 6.6875 
Q 48.140625 6.6875 53.78125 8.984375 
Q 59.421875 11.28125 64.40625 15.921875 
L 64.40625 5.609375 
Q 59.234375 2.09375 53.4375 0.328125 
Q 47.65625 -1.421875 41.21875 -1.421875 
Q 24.65625 -1.421875 15.125 8.703125 
Q 5.609375 18.84375 5.609375 36.375 
Q 5.609375 53.953125 15.125 64.078125 
Q 24.65625 74.21875 41.21875 74.21875 
Q 47.75 74.21875 53.53125 72.484375 
Q 59.328125 70.75 64.40625 67.28125 
z
" id="DejaVuSans-67"/>
       <path d="M 30.609375 48.390625 
Q 23.390625 48.390625 19.1875 42.75 
Q 14.984375 37.109375 14.984375 27.296875 
Q 14.984375 17.484375 19.15625 11.84375 
Q 23.34375 6.203125 30.609375 6.203125 
Q 37.796875 6.203125 41.984375 11.859375 
Q 46.1875 17.53125 46.1875 27.296875 
Q 46.1875 37.015625 41.984375 42.703125 
Q 37.796875 48.390625 30.609375 48.390625 
z
M 30.609375 56 
Q 42.328125 56 49.015625 48.375 
Q 55.71875 40.765625 55.71875 27.296875 
Q 55.71875 13.875 49.015625 6.21875 
Q 42.328125 -1.421875 30.609375 -1.421875 
Q 18.84375 -1.421875 12.171875 6.21875 
Q 5.515625 13.875 5.515625 27.296875 
Q 5.515625 40.765625 12.171875 48.375 
Q 18.84375 56 30.609375 56 
z
" id="DejaVuSans-111"/>
       <path d="M 8.5 21.578125 
L 8.5 54.6875 
L 17.484375 54.6875 
L 17.484375 21.921875 
Q 17.484375 14.15625 20.5 10.265625 
Q 23.53125 6.390625 29.59375 6.390625 
Q 36.859375 6.390625 41.078125 11.03125 
Q 45.3125 15.671875 45.3125 23.6875 
L 45.3125 54.6875 
L 54.296875 54.6875 
L 54.296875 0 
L 45.3125 0 
L 45.3125 8.40625 
Q 42.046875 3.421875 37.71875 1 
Q 33.40625 -1.421875 27.6875 -1.421875 
Q 18.265625 -1.421875 13.375 4.4375 
Q 8.5 10.296875 8.5 21.578125 
z
M 31.109375 56 
z
" id="DejaVuSans-117"/>
       <path d="M 54.890625 33.015625 
L 54.890625 0 
L 45.90625 0 
L 45.90625 32.71875 
Q 45.90625 40.484375 42.875 44.328125 
Q 39.84375 48.1875 33.796875 48.1875 
Q 26.515625 48.1875 22.3125 43.546875 
Q 18.109375 38.921875 18.109375 30.90625 
L 18.109375 0 
L 9.078125 0 
L 9.078125 54.6875 
L 18.109375 54.6875 
L 18.109375 46.1875 
Q 21.34375 51.125 25.703125 53.5625 
Q 30.078125 56 35.796875 56 
Q 45.21875 56 50.046875 50.171875 
Q 54.890625 44.34375 54.890625 33.015625 
z
" id="DejaVuSans-110"/>
       <path id="DejaVuSans-32"/>
       <path d="M 31 75.875 
Q 24.46875 64.65625 21.28125 53.65625 
Q 18.109375 42.671875 18.109375 31.390625 
Q 18.109375 20.125 21.3125 9.0625 
Q 24.515625 -2 31 -13.1875 
L 23.1875 -13.1875 
Q 15.875 -1.703125 12.234375 9.375 
Q 8.59375 20.453125 8.59375 31.390625 
Q 8.59375 42.28125 12.203125 53.3125 
Q 15.828125 64.359375 23.1875 75.875 
z
" id="DejaVuSans-40"/>
       <path d="M 8.203125 72.90625 
L 55.078125 72.90625 
L 55.078125 68.703125 
L 28.609375 0 
L 18.3125 0 
L 43.21875 64.59375 
L 8.203125 64.59375 
z
" id="DejaVuSans-55"/>
       <path d="M 45.40625 46.390625 
L 45.40625 75.984375 
L 54.390625 75.984375 
L 54.390625 0 
L 45.40625 0 
L 45.40625 8.203125 
Q 42.578125 3.328125 38.25 0.953125 
Q 33.9375 -1.421875 27.875 -1.421875 
Q 17.96875 -1.421875 11.734375 6.484375 
Q 5.515625 14.40625 5.515625 27.296875 
Q 5.515625 40.1875 11.734375 48.09375 
Q 17.96875 56 27.875 56 
Q 33.9375 56 38.25 53.625 
Q 42.578125 51.265625 45.40625 46.390625 
z
M 14.796875 27.296875 
Q 14.796875 17.390625 18.875 11.75 
Q 22.953125 6.109375 30.078125 6.109375 
Q 37.203125 6.109375 41.296875 11.75 
Q 45.40625 17.390625 45.40625 27.296875 
Q 45.40625 37.203125 41.296875 42.84375 
Q 37.203125 48.484375 30.078125 48.484375 
Q 22.953125 48.484375 18.875 42.84375 
Q 14.796875 37.203125 14.796875 27.296875 
z
" id="DejaVuSans-100"/>
       <path d="M 32.171875 -5.078125 
Q 28.375 -14.84375 24.75 -17.8125 
Q 21.140625 -20.796875 15.09375 -20.796875 
L 7.90625 -20.796875 
L 7.90625 -13.28125 
L 13.1875 -13.28125 
Q 16.890625 -13.28125 18.9375 -11.515625 
Q 21 -9.765625 23.484375 -3.21875 
L 25.09375 0.875 
L 2.984375 54.6875 
L 12.5 54.6875 
L 29.59375 11.921875 
L 46.6875 54.6875 
L 56.203125 54.6875 
z
" id="DejaVuSans-121"/>
       <path d="M 41.109375 46.296875 
Q 39.59375 47.171875 37.8125 47.578125 
Q 36.03125 48 33.890625 48 
Q 26.265625 48 22.1875 43.046875 
Q 18.109375 38.09375 18.109375 28.8125 
L 18.109375 0 
L 9.078125 0 
L 9.078125 54.6875 
L 18.109375 54.6875 
L 18.109375 46.1875 
Q 20.953125 51.171875 25.484375 53.578125 
Q 30.03125 56 36.53125 56 
Q 37.453125 56 38.578125 55.875 
Q 39.703125 55.765625 41.0625 55.515625 
z
" id="DejaVuSans-114"/>
       <path d="M 9.421875 75.984375 
L 18.40625 75.984375 
L 18.40625 0 
L 9.421875 0 
z
" id="DejaVuSans-108"/>
       <path d="M 9.421875 54.6875 
L 18.40625 54.6875 
L 18.40625 0 
L 9.421875 0 
z
M 9.421875 75.984375 
L 18.40625 75.984375 
L 18.40625 64.59375 
L 9.421875 64.59375 
z
" id="DejaVuSans-105"/>
       <path d="M 45.40625 27.984375 
Q 45.40625 37.75 41.375 43.109375 
Q 37.359375 48.484375 30.078125 48.484375 
Q 22.859375 48.484375 18.828125 43.109375 
Q 14.796875 37.75 14.796875 27.984375 
Q 14.796875 18.265625 18.828125 12.890625 
Q 22.859375 7.515625 30.078125 7.515625 
Q 37.359375 7.515625 41.375 12.890625 
Q 45.40625 18.265625 45.40625 27.984375 
z
M 54.390625 6.78125 
Q 54.390625 -7.171875 48.1875 -13.984375 
Q 42 -20.796875 29.203125 -20.796875 
Q 24.46875 -20.796875 20.265625 -20.09375 
Q 16.0625 -19.390625 12.109375 -17.921875 
L 12.109375 -9.1875 
Q 16.0625 -11.328125 19.921875 -12.34375 
Q 23.78125 -13.375 27.78125 -13.375 
Q 36.625 -13.375 41.015625 -8.765625 
Q 45.40625 -4.15625 45.40625 5.171875 
L 45.40625 9.625 
Q 42.625 4.78125 38.28125 2.390625 
Q 33.9375 0 27.875 0 
Q 17.828125 0 11.671875 7.65625 
Q 5.515625 15.328125 5.515625 27.984375 
Q 5.515625 40.671875 11.671875 48.328125 
Q 17.828125 56 27.875 56 
Q 33.9375 56 38.28125 53.609375 
Q 42.625 51.21875 45.40625 46.390625 
L 45.40625 54.6875 
L 54.390625 54.6875 
z
" id="DejaVuSans-103"/>
       <path d="M 2.984375 54.6875 
L 12.5 54.6875 
L 29.59375 8.796875 
L 46.6875 54.6875 
L 56.203125 54.6875 
L 35.6875 0 
L 23.484375 0 
z
" id="DejaVuSans-118"/>
       <path d="M 8.015625 75.875 
L 15.828125 75.875 
Q 23.140625 64.359375 26.78125 53.3125 
Q 30.421875 42.28125 30.421875 31.390625 
Q 30.421875 20.453125 26.78125 9.375 
Q 23.140625 -1.703125 15.828125 -13.1875 
L 8.015625 -13.1875 
Q 14.5 -2 17.703125 9.0625 
Q 20.90625 20.125 20.90625 31.390625 
Q 20.90625 42.671875 17.703125 53.65625 
Q 14.5 64.65625 8.015625 75.875 
z
" id="DejaVuSans-41"/>
      </defs>
      <use xlink:href="#DejaVuSans-67"/>
      <use x="69.824219" xlink:href="#DejaVuSans-111"/>
      <use x="131.005859" xlink:href="#DejaVuSans-117"/>
      <use x="194.384766" xlink:href="#DejaVuSans-110"/>
      <use x="257.763672" xlink:href="#DejaVuSans-116"/>
      <use x="296.972656" xlink:href="#DejaVuSans-32"/>
      <use x="328.759766" xlink:href="#DejaVuSans-40"/>
      <use x="367.773438" xlink:href="#DejaVuSans-55"/>
      <use x="431.396484" xlink:href="#DejaVuSans-32"/>
      <use x="463.183594" xlink:href="#DejaVuSans-100"/>
      <use x="526.660156" xlink:href="#DejaVuSans-97"/>
      <use x="587.939453" xlink:href="#DejaVuSans-121"/>
      <use x="647.119141" xlink:href="#DejaVuSans-32"/>
      <use x="678.90625" xlink:href="#DejaVuSans-114"/>
      <use x="717.769531" xlink:href="#DejaVuSans-111"/>
      <use x="778.951172" xlink:href="#DejaVuSans-108"/>
      <use x="806.734375" xlink:href="#DejaVuSans-108"/>
      <use x="834.517578" xlink:href="#DejaVuSans-105"/>
      <use x="862.300781" xlink:href="#DejaVuSans-110"/>
      <use x="925.679688" xlink:href="#DejaVuSans-103"/>
      <use x="989.15625" xlink:href="#DejaVuSans-32"/>
      <use x="1020.943359" xlink:href="#DejaVuSans-97"/>
      <use x="1082.222656" xlink:href="#DejaVuSans-118"/>
      <use x="1141.402344" xlink:href="#DejaVuSans-101"/>
      <use x="1202.925781" xlink:href="#DejaVuSans-114"/>
      <use x="1244.039062" xlink:href="#DejaVuSans-97"/>
      <use x="1305.318359" xlink:href="#DejaVuSans-103"/>
      <use x="1368.794922" xlink:href="#DejaVuSans-101"/>
      <use x="1430.318359" xlink:href="#DejaVuSans-41"/>
     </g>
    </g>
   </g>
   <g id="line2d_16">
    <path clip-path="url(#pfc26d0c299)" d="M 470.052459 223.272818 
L 476.660609 223.272818 
L 479.964685 218.256368 
L 486.572835 218.256368 
L 489.87691 209.709682 
L 493.180986 209.709682 
L 496.485061 206.003815 
L 499.789136 202.594748 
L 503.093211 206.003815 
L 506.397286 202.594748 
L 509.701362 196.499997 
L 513.005437 193.751263 
L 516.309512 188.734813 
L 522.917663 184.247445 
L 526.221738 184.247445 
L 532.829888 188.734813 
L 536.133964 191.169224 
L 539.438039 186.432057 
L 542.742114 193.751263 
L 546.046189 199.438445 
L 549.350264 199.438445 
L 552.65434 193.751263 
L 555.958415 184.247445 
L 559.26249 176.482261 
L 562.566565 182.169443 
L 565.870641 174.743627 
L 569.174716 171.46581 
L 572.478791 171.46581 
L 575.782866 162.919125 
L 579.086942 160.413073 
L 582.391017 161.647669 
L 585.695092 160.413073 
L 588.999167 160.413073 
L 592.303243 162.919125 
L 595.607318 159.213258 
L 598.911393 162.919125 
L 602.215468 164.229708 
L 605.519543 155.804191 
L 612.127694 139.6415 
L 615.431769 135.378886 
L 618.735844 134.708154 
L 622.03992 134.708154 
L 625.343995 130.891518 
L 628.64807 134.047821 
L 631.952145 138.172713 
L 635.256221 141.162755 
L 638.560296 139.6415 
L 641.864371 141.162755 
L 645.168446 134.047821 
L 648.472522 135.378886 
L 651.776597 136.06035 
L 655.080672 132.126115 
L 658.384747 130.891518 
L 661.688822 130.287386 
L 664.992898 126.8322 
L 668.296973 125.740074 
L 671.601048 124.152663 
L 674.905123 122.124155 
L 678.209199 122.622297 
L 681.513274 125.740074 
L 684.817349 123.126334 
L 688.121424 122.124155 
L 691.4255 120.663763 
L 694.729575 118.791347 
L 698.03365 118.335829 
L 701.337725 118.335829 
L 704.641801 114.441591 
L 707.945876 113.21881 
L 711.249951 114.441591 
L 714.554026 116.997794 
L 717.858101 114.030084 
L 721.162177 112.030158 
L 724.466252 106.1967 
L 727.770327 102.29254 
L 731.074402 101.982788 
L 734.378478 99.291961 
L 737.682553 94.372198 
L 740.986628 95.153699 
L 744.290703 90.666331 
L 747.594779 90.430371 
L 750.898854 89.730236 
L 754.202929 88.140002 
L 757.507004 87.696346 
L 760.81108 85.12729 
L 764.115155 82.901146 
L 767.41923 82.313681 
L 770.723305 78.770188 
L 774.02738 79.674481 
L 777.331456 80.226418 
L 780.635531 82.704423 
L 783.939606 84.50853 
L 787.243681 85.755173 
L 790.547757 83.697256 
L 793.851832 82.901146 
L 797.155907 81.352227 
L 800.459982 79.492079 
L 803.764058 75.99909 
L 807.068133 73.713989 
L 810.372208 72.615828 
L 816.980359 76.335776 
L 820.284434 75.99909 
L 823.588509 77.017241 
L 826.892584 79.857666 
L 833.500735 84.100961 
L 836.80481 87.257264 
L 840.108885 91.382156 
L 846.717036 101.066826 
L 850.021111 101.369963 
L 853.325186 104.855153 
L 856.629261 105.186599 
L 859.933337 103.876016 
L 863.237412 102.29254 
L 869.845562 97.58811 
L 876.453713 96.488937 
L 879.757788 97.034977 
L 883.061863 97.867393 
L 886.365938 99.00321 
L 889.670014 102.918883 
L 892.974089 105.857331 
L 896.278164 107.231341 
L 906.19039 126.282637 
L 909.494465 136.06035 
L 912.79854 138.900776 
L 916.102616 141.944256 
L 919.406691 146.082518 
L 922.710766 153.674217 
L 926.014841 154.725891 
L 929.318917 164.229708 
L 932.622992 171.46581 
L 935.927067 184.247445 
L 939.231142 193.751263 
L 942.535217 196.499997 
L 945.839293 209.709682 
L 949.143368 218.256368 
L 952.447443 218.256368 
L 952.447443 218.256368 
" style="fill:none;stroke:#947383;stroke-linecap:square;stroke-width:2;"/>
   </g>
   <g id="line2d_17">
    <path clip-path="url(#pfc26d0c299)" d="M 433.707631 206.003815 
L 437.011707 202.594748 
L 440.315782 191.169224 
L 443.619857 186.432057 
L 446.923932 180.188127 
L 453.532083 180.188127 
L 456.836158 178.2949 
L 460.140233 169.916891 
L 463.444308 165.581905 
L 466.748384 165.581905 
L 470.052459 169.916891 
L 473.356534 168.42233 
L 476.660609 161.647669 
L 479.964685 159.213258 
L 483.26876 161.647669 
L 486.572835 168.42233 
L 489.87691 161.647669 
L 493.180986 158.046319 
L 496.485061 154.725891 
L 499.789136 156.910503 
L 503.093211 155.804191 
L 506.397286 149.70944 
L 509.701362 141.944256 
L 513.005437 124.152663 
L 516.309512 109.747973 
L 519.613587 106.1967 
L 522.917663 101.982788 
L 526.221738 100.765831 
L 529.525813 95.153699 
L 532.829888 93.352015 
L 536.133964 94.114852 
L 539.438039 100.466949 
L 542.742114 98.431516 
L 546.046189 101.675274 
L 549.350264 102.29254 
L 555.958415 93.352015 
L 559.26249 87.257264 
L 562.566565 85.12729 
L 565.870641 80.226418 
L 569.174716 76.167101 
L 572.478791 75.498999 
L 575.782866 77.017241 
L 579.086942 75.498999 
L 582.391017 74.516095 
L 585.695092 69.481655 
L 588.999167 68.626966 
L 592.303243 67.927597 
L 595.607318 67.651034 
L 598.911393 59.862883 
L 602.215468 54.579406 
L 605.519543 53.379592 
L 608.823619 51.546418 
L 612.127694 48.626861 
L 615.431769 47.667769 
L 618.735844 47.581641 
L 622.03992 44.351651 
L 625.343995 44.271968 
L 628.64807 42.785644 
L 631.952145 40.612565 
L 635.256221 40.248852 
L 638.560296 41.12704 
L 641.864371 40.032105 
L 645.168446 38.060618 
L 648.472522 38.129479 
L 651.776597 35.135933 
L 655.080672 34.308906 
L 658.384747 32.399246 
L 661.688822 31.623222 
L 664.992898 30.629298 
L 668.296973 28.43313 
L 671.601048 24.006178 
L 674.905123 24.553815 
L 678.209199 26.032273 
L 681.513274 26.188187 
L 684.817349 27.02951 
L 688.121424 26.923432 
L 691.4255 26.292448 
L 694.729575 26.712063 
L 698.03365 25.928646 
L 701.337725 23.858037 
L 704.641801 22.49968 
L 707.945876 19.727078 
L 711.249951 19.503973 
L 714.554026 20.131636 
L 717.858101 18.318996 
L 721.162177 17.76 
L 724.466252 18.57949 
L 727.770327 19.149419 
L 731.074402 20.086495 
L 734.378478 19.861504 
L 737.682553 20.086495 
L 740.986628 22.214155 
L 744.290703 23.661313 
L 747.594779 22.595281 
L 750.898854 23.956741 
L 754.202929 25.516642 
L 757.507004 26.712063 
L 764.115155 23.612274 
L 767.41923 24.254232 
L 770.723305 26.292448 
L 774.02738 27.942009 
L 780.635531 27.779553 
L 783.939606 36.176366 
L 787.243681 42.632164 
L 790.547757 44.03381 
L 793.851832 45.156791 
L 797.155907 45.565141 
L 800.459982 45.401331 
L 803.764058 45.812044 
L 807.068133 43.327221 
L 810.372208 39.530612 
L 813.676283 41.053162 
L 816.980359 42.402977 
L 820.284434 42.402977 
L 823.588509 42.175016 
L 826.892584 43.327221 
L 830.196659 43.24943 
L 833.500735 51.170339 
L 836.80481 50.797553 
L 840.108885 50.890444 
L 843.41296 52.694998 
L 846.717036 53.577228 
L 850.021111 52.021234 
L 853.325186 54.175701 
L 856.629261 52.308686 
L 859.933337 55.398482 
L 863.237412 54.986975 
L 866.541487 55.709742 
L 869.845562 57.193147 
L 873.149638 59.406143 
L 876.453713 61.263248 
L 879.757788 61.620654 
L 883.061863 61.026633 
L 886.365938 65.632144 
L 889.670014 67.103237 
L 892.974089 67.651034 
L 896.278164 68.768228 
L 899.582239 72.615828 
L 902.886315 72.770985 
L 906.19039 77.884696 
L 909.494465 79.492079 
L 912.79854 83.496829 
L 916.102616 83.697256 
L 919.406691 83.697256 
L 922.710766 95.153699 
L 926.014841 117.88513 
L 929.318917 126.282637 
L 932.622992 135.378886 
L 935.927067 139.6415 
L 939.231142 152.647888 
L 942.535217 159.213258 
L 945.839293 166.978443 
L 949.143368 186.432057 
L 952.447443 191.169224 
L 952.447443 191.169224 
" style="fill:none;stroke:#96c6ad;stroke-linecap:square;stroke-width:2;"/>
   </g>
   <g id="line2d_18">
    <path clip-path="url(#pfc26d0c299)" d="M 90.083807 158.046319 
L 96.691957 160.413073 
L 99.996033 166.978443 
L 103.300108 199.438445 
L 106.604183 218.256368 
L 109.908258 223.272818 
L 113.212333 228.96 
L 156.165312 228.96 
L 159.469387 223.272818 
L 179.293838 223.272818 
L 182.597913 228.96 
L 268.50387 228.96 
L 271.807945 223.272818 
L 291.632396 223.272818 
L 294.936471 228.96 
L 420.49133 228.96 
L 423.795406 223.272818 
L 427.099481 223.272818 
L 430.403556 218.256368 
L 433.707631 218.256368 
L 437.011707 209.709682 
L 443.619857 209.709682 
L 446.923932 213.769 
L 450.228007 213.769 
L 453.532083 209.709682 
L 456.836158 196.499997 
L 460.140233 199.438445 
L 463.444308 180.188127 
L 466.748384 176.482261 
L 470.052459 173.073194 
L 473.356534 166.978443 
L 476.660609 164.229708 
L 479.964685 165.581905 
L 483.26876 162.919125 
L 486.572835 173.073194 
L 489.87691 176.482261 
L 493.180986 162.919125 
L 496.485061 161.647669 
L 499.789136 164.229708 
L 503.093211 168.42233 
L 506.397286 164.229708 
L 509.701362 162.919125 
L 513.005437 149.70944 
L 516.309512 161.647669 
L 519.613587 156.910503 
L 522.917663 154.725891 
L 526.221738 153.674217 
L 529.525813 159.213258 
L 532.829888 158.046319 
L 536.133964 162.919125 
L 539.438039 161.647669 
L 542.742114 171.46581 
L 546.046189 176.482261 
L 549.350264 178.2949 
L 552.65434 176.482261 
L 555.958415 171.46581 
L 559.26249 174.743627 
L 562.566565 150.666573 
L 565.870641 140.395336 
L 569.174716 138.900776 
L 572.478791 135.378886 
L 575.782866 129.691704 
L 579.086942 111.255762 
L 582.391017 110.873781 
L 585.695092 118.335829 
L 588.999167 123.636407 
L 592.303243 123.636407 
L 595.607318 118.335829 
L 598.911393 88.363576 
L 602.215468 99.00321 
L 605.519543 98.716404 
L 608.823619 69.481655 
L 612.127694 68.205968 
L 615.431769 67.927597 
L 618.735844 69.770406 
L 622.03992 84.713786 
L 625.343995 80.226418 
L 628.64807 79.310456 
L 631.952145 117.439151 
L 635.256221 118.791347 
L 638.560296 117.88513 
L 641.864371 111.255762 
L 645.168446 105.186599 
L 648.472522 106.1967 
L 651.776597 103.235543 
L 655.080672 99.875403 
L 658.384747 96.761082 
L 661.688822 96.761082 
L 664.992898 99.875403 
L 668.296973 104.526266 
L 671.601048 106.1967 
L 674.905123 98.431516 
L 678.209199 97.867393 
L 681.513274 96.218519 
L 684.817349 92.355698 
L 688.121424 93.352015 
L 691.4255 86.392451 
L 694.729575 80.411999 
L 698.03365 80.785603 
L 701.337725 78.060328 
L 704.641801 72.926709 
L 707.945876 71.094573 
L 711.249951 68.48617 
L 714.554026 71.094573 
L 717.858101 69.915519 
L 721.162177 74.354461 
L 724.466252 71.848409 
L 727.770327 72.461234 
L 731.074402 72.615828 
L 734.378478 70.648594 
L 737.682553 63.956655 
L 740.986628 61.026633 
L 744.290703 54.680933 
L 747.594779 55.295232 
L 750.898854 59.633901 
L 754.202929 61.981084 
L 757.507004 65.370047 
L 760.81108 70.945394 
L 764.115155 82.313681 
L 767.41923 95.417418 
L 770.723305 107.231341 
L 774.02738 109.013634 
L 777.331456 109.379221 
L 780.635531 110.495196 
L 783.939606 124.675253 
L 787.243681 127.388948 
L 790.547757 130.287386 
L 793.851832 126.282637 
L 797.155907 124.675253 
L 800.459982 125.740074 
L 803.764058 125.740074 
L 807.068133 119.251791 
L 810.372208 112.030158 
L 813.676283 107.935333 
L 816.980359 104.526266 
L 820.284434 106.88366 
L 823.588509 98.716404 
L 826.892584 96.488937 
L 830.196659 99.00321 
L 833.500735 103.876016 
L 836.80481 110.119946 
L 840.108885 120.187886 
L 843.41296 119.717267 
L 846.717036 138.900776 
L 850.021111 147.857383 
L 853.325186 158.046319 
L 856.629261 165.581905 
L 859.933337 165.581905 
L 863.237412 162.919125 
L 866.541487 162.919125 
L 869.845562 166.978443 
L 873.149638 168.42233 
L 876.453713 171.46581 
L 879.757788 173.073194 
L 883.061863 173.073194 
L 886.365938 178.2949 
L 889.670014 164.229708 
L 892.974089 160.413073 
L 896.278164 159.213258 
L 899.582239 162.919125 
L 902.886315 162.919125 
L 906.19039 165.581905 
L 909.494465 155.804191 
L 912.79854 173.073194 
L 916.102616 169.916891 
L 919.406691 168.42233 
L 919.406691 168.42233 
" style="fill:none;stroke:#525886;stroke-linecap:square;stroke-width:2;"/>
   </g>
   <g id="line2d_19">
    <path clip-path="url(#pfc26d0c299)" d="M 413.88318 199.438445 
L 417.187255 196.499997 
L 420.49133 188.734813 
L 423.795406 186.432057 
L 427.099481 182.169443 
L 430.403556 184.247445 
L 433.707631 184.247445 
L 437.011707 186.432057 
L 440.315782 184.247445 
L 443.619857 188.734813 
L 446.923932 186.432057 
L 450.228007 188.734813 
L 453.532083 180.188127 
L 456.836158 176.482261 
L 460.140233 166.978443 
L 463.444308 162.919125 
L 466.748384 164.229708 
L 470.052459 164.229708 
L 473.356534 158.046319 
L 476.660609 161.647669 
L 479.964685 160.413073 
L 483.26876 161.647669 
L 486.572835 164.229708 
L 489.87691 162.919125 
L 493.180986 165.581905 
L 496.485061 166.978443 
L 499.789136 164.229708 
L 503.093211 166.978443 
L 506.397286 164.229708 
L 509.701362 161.647669 
L 513.005437 154.725891 
L 516.309512 150.666573 
L 519.613587 149.70944 
L 522.917663 151.64571 
L 526.221738 150.666573 
L 529.525813 156.910503 
L 532.829888 161.647669 
L 536.133964 168.42233 
L 539.438039 171.46581 
L 542.742114 178.2949 
L 546.046189 180.188127 
L 549.350264 180.188127 
L 552.65434 182.169443 
L 555.958415 182.169443 
L 562.566565 178.2949 
L 565.870641 173.073194 
L 572.478791 176.482261 
L 575.782866 173.073194 
L 579.086942 176.482261 
L 582.391017 173.073194 
L 585.695092 176.482261 
L 588.999167 182.169443 
L 592.303243 182.169443 
L 595.607318 176.482261 
L 598.911393 171.46581 
L 602.215468 166.978443 
L 608.823619 164.229708 
L 615.431769 161.647669 
L 618.735844 164.229708 
L 625.343995 166.978443 
L 628.64807 171.46581 
L 631.952145 174.743627 
L 638.560296 178.2949 
L 641.864371 176.482261 
L 645.168446 184.247445 
L 648.472522 180.188127 
L 651.776597 173.073194 
L 655.080672 171.46581 
L 658.384747 166.978443 
L 661.688822 164.229708 
L 664.992898 166.978443 
L 668.296973 159.213258 
L 671.601048 160.413073 
L 674.905123 152.647888 
L 678.209199 148.773346 
L 681.513274 152.647888 
L 688.121424 150.666573 
L 691.4255 156.910503 
L 694.729575 158.046319 
L 698.03365 173.073194 
L 701.337725 166.978443 
L 704.641801 161.647669 
L 707.945876 158.046319 
L 711.249951 153.674217 
L 714.554026 141.944256 
L 717.858101 141.944256 
L 721.162177 138.172713 
L 724.466252 142.740365 
L 727.770327 143.551639 
L 731.074402 137.456888 
L 734.378478 138.172713 
L 737.682553 141.944256 
L 740.986628 140.395336 
L 744.290703 138.172713 
L 747.594779 138.900776 
L 750.898854 138.900776 
L 754.202929 149.70944 
L 757.507004 148.773346 
L 760.81108 151.64571 
L 764.115155 151.64571 
L 767.41923 160.413073 
L 774.02738 158.046319 
L 777.331456 148.773346 
L 780.635531 147.857383 
L 783.939606 151.64571 
L 787.243681 153.674217 
L 790.547757 143.551639 
L 797.155907 140.395336 
L 800.459982 145.222073 
L 803.764058 151.64571 
L 807.068133 150.666573 
L 810.372208 148.773346 
L 813.676283 158.046319 
L 816.980359 164.229708 
L 820.284434 158.046319 
L 823.588509 158.046319 
L 826.892584 150.666573 
L 830.196659 152.647888 
L 833.500735 151.64571 
L 840.108885 153.674217 
L 843.41296 164.229708 
L 846.717036 166.978443 
L 850.021111 174.743627 
L 853.325186 166.978443 
L 856.629261 158.046319 
L 859.933337 160.413073 
L 863.237412 153.674217 
L 869.845562 155.804191 
L 873.149638 152.647888 
L 876.453713 154.725891 
L 879.757788 164.229708 
L 883.061863 159.213258 
L 886.365938 161.647669 
L 889.670014 161.647669 
L 892.974089 153.674217 
L 899.582239 158.046319 
L 902.886315 159.213258 
L 906.19039 161.647669 
L 909.494465 166.978443 
L 912.79854 169.916891 
L 916.102616 184.247445 
L 919.406691 191.169224 
L 922.710766 193.751263 
L 926.014841 202.594748 
L 929.318917 213.769 
L 932.622992 213.769 
L 935.927067 218.256368 
L 939.231142 213.769 
L 942.535217 209.709682 
L 945.839293 209.709682 
L 945.839293 209.709682 
" style="fill:none;stroke:#937252;stroke-linecap:square;stroke-width:2;"/>
   </g>
   <g id="line2d_20">
    <path clip-path="url(#pfc26d0c299)" d="M 90.083807 223.272818 
L 93.387882 228.96 
L 96.691957 223.272818 
L 116.516409 223.272818 
L 119.820484 228.96 
L 123.124559 223.272818 
L 126.428634 209.709682 
L 136.34086 209.709682 
L 139.644935 206.003815 
L 142.949011 199.438445 
L 146.253086 202.594748 
L 149.557161 209.709682 
L 152.861236 209.709682 
L 156.165312 206.003815 
L 159.469387 182.169443 
L 162.773462 165.581905 
L 166.077537 165.581905 
L 169.381612 161.647669 
L 172.685688 156.910503 
L 175.989763 156.910503 
L 179.293838 158.046319 
L 182.597913 168.42233 
L 185.901989 188.734813 
L 192.510139 188.734813 
L 195.814214 193.751263 
L 199.11829 191.169224 
L 202.422365 191.169224 
L 205.72644 180.188127 
L 209.030515 178.2949 
L 212.334591 174.743627 
L 215.638666 169.916891 
L 218.942741 169.916891 
L 222.246816 171.46581 
L 225.550891 169.916891 
L 228.854967 174.743627 
L 232.159042 168.42233 
L 235.463117 159.213258 
L 238.767192 153.674217 
L 242.071268 142.740365 
L 245.375343 141.162755 
L 248.679418 141.944256 
L 251.983493 136.752895 
L 255.287569 137.456888 
L 258.591644 135.378886 
L 261.895719 138.900776 
L 265.199794 144.378667 
L 268.50387 138.900776 
L 271.807945 138.172713 
L 275.11202 136.752895 
L 278.416095 134.047821 
L 281.72017 131.504343 
L 285.024246 127.388948 
L 288.328321 124.152663 
L 291.632396 127.95307 
L 294.936471 128.524765 
L 298.240547 134.708154 
L 301.544622 138.172713 
L 304.848697 141.944256 
L 308.152772 130.891518 
L 311.456848 125.204336 
L 314.760923 126.282637 
L 318.064998 124.675253 
L 321.369073 122.622297 
L 324.673149 118.791347 
L 327.977224 109.379221 
L 331.281299 105.186599 
L 334.585374 101.675274 
L 337.889449 99.291961 
L 341.193525 99.582683 
L 344.4976 93.100742 
L 347.801675 82.119646 
L 351.10575 83.496829 
L 354.409826 89.041424 
L 357.713901 95.417418 
L 361.017976 96.218519 
L 364.322051 95.682781 
L 367.626127 98.716404 
L 370.930202 110.873781 
L 374.234277 115.700518 
L 377.538352 114.030084 
L 380.842428 109.747973 
L 384.146503 106.88366 
L 387.450578 102.918883 
L 390.754653 94.891602 
L 394.058728 97.58811 
L 400.666879 92.602601 
L 403.970954 91.623463 
L 407.275029 92.602601 
L 410.579105 95.153699 
L 413.88318 94.891602 
L 417.187255 84.50853 
L 420.49133 86.178963 
L 423.795406 82.313681 
L 427.099481 75.004712 
L 430.403556 75.333598 
L 433.707631 74.033021 
L 437.011707 67.376255 
L 440.315782 67.376255 
L 443.619857 62.344591 
L 446.923932 61.144776 
L 450.228007 66.831959 
L 453.532083 65.109553 
L 456.836158 64.465205 
L 460.140233 65.500894 
L 463.444308 59.51987 
L 466.748384 58.5071 
L 470.052459 60.791325 
L 473.356534 61.144776 
L 476.660609 59.51987 
L 479.964685 59.51987 
L 483.26876 50.24442 
L 486.572835 48.450867 
L 489.87691 46.898811 
L 493.180986 44.752319 
L 496.485061 41.948268 
L 499.789136 43.094273 
L 503.093211 42.939679 
L 506.397286 48.363142 
L 509.701362 52.308686 
L 513.005437 54.377075 
L 516.309512 57.085459 
L 519.613587 58.174792 
L 522.917663 57.954685 
L 526.221738 59.292719 
L 529.525813 64.850643 
L 532.829888 73.239877 
L 536.133964 81.162513 
L 539.438039 74.516095 
L 542.742114 69.625786 
L 546.046189 70.796736 
L 549.350264 68.066555 
L 552.65434 70.207237 
L 555.958415 69.338011 
L 559.26249 66.428253 
L 562.566565 71.545272 
L 565.870641 79.857666 
L 569.174716 80.041643 
L 572.478791 83.297341 
L 575.782866 82.313681 
L 579.086942 82.704423 
L 582.391017 85.335558 
L 585.695092 89.499392 
L 588.999167 84.920036 
L 592.303243 86.392451 
L 595.607318 87.476239 
L 598.911393 91.623463 
L 602.215468 90.666331 
L 605.519543 92.355698 
L 608.823619 90.903605 
L 612.127694 97.034977 
L 615.431769 96.488937 
L 618.735844 92.110218 
L 622.03992 91.382156 
L 625.343995 90.195712 
L 628.64807 84.304258 
L 631.952145 83.496829 
L 635.256221 83.297341 
L 638.560296 81.542789 
L 641.864371 83.098783 
L 648.472522 88.363576 
L 651.776597 97.310646 
L 655.080672 101.982788 
L 658.384747 106.88366 
L 661.688822 110.495196 
L 664.992898 115.700518 
L 668.296973 114.441591 
L 671.601048 114.857112 
L 674.905123 112.422701 
L 678.209199 112.422701 
L 681.513274 110.119946 
L 684.817349 105.186599 
L 688.121424 102.29254 
L 691.4255 100.765831 
L 694.729575 101.982788 
L 698.03365 96.218519 
L 701.337725 94.372198 
L 704.641801 93.352015 
L 707.945876 97.310646 
L 711.249951 97.58811 
L 714.554026 100.170149 
L 717.858101 98.148521 
L 721.162177 104.855153 
L 724.466252 110.495196 
L 727.770327 113.21881 
L 731.074402 113.622516 
L 734.378478 117.439151 
L 737.682553 121.631773 
L 740.986628 122.622297 
L 744.290703 126.282637 
L 747.594779 124.675253 
L 750.898854 126.8322 
L 754.202929 124.675253 
L 757.507004 122.124155 
L 760.81108 122.124155 
L 764.115155 126.8322 
L 767.41923 123.636407 
L 770.723305 122.622297 
L 774.02738 118.791347 
L 777.331456 120.187886 
L 780.635531 121.145018 
L 783.939606 126.8322 
L 790.547757 125.740074 
L 793.851832 127.95307 
L 797.155907 133.39757 
L 800.459982 135.378886 
L 803.764058 132.757098 
L 807.068133 126.282637 
L 810.372208 124.675253 
L 813.676283 121.145018 
L 816.980359 124.152663 
L 820.284434 127.388948 
L 823.588509 126.8322 
L 826.892584 130.891518 
L 830.196659 141.162755 
L 833.500735 150.666573 
L 836.80481 158.046319 
L 840.108885 146.960706 
L 843.41296 140.395336 
L 850.021111 136.06035 
L 853.325186 127.95307 
L 856.629261 132.126115 
L 859.933337 132.126115 
L 863.237412 137.456888 
L 869.845562 136.06035 
L 873.149638 136.06035 
L 876.453713 135.378886 
L 879.757788 132.126115 
L 883.061863 130.891518 
L 883.061863 130.891518 
" style="fill:none;stroke:#d18cad;stroke-linecap:square;stroke-width:2;"/>
   </g>
   <g id="line2d_21">
    <path clip-path="url(#pfc26d0c299)" d="M 420.49133 223.272818 
L 423.795406 228.96 
L 427.099481 223.272818 
L 443.619857 223.272818 
L 446.923932 213.769 
L 450.228007 213.769 
L 453.532083 206.003815 
L 460.140233 206.003815 
L 463.444308 196.499997 
L 466.748384 196.499997 
L 470.052459 199.438445 
L 473.356534 202.594748 
L 476.660609 209.709682 
L 479.964685 209.709682 
L 483.26876 202.594748 
L 486.572835 213.769 
L 489.87691 202.594748 
L 493.180986 206.003815 
L 496.485061 199.438445 
L 499.789136 196.499997 
L 503.093211 196.499997 
L 506.397286 199.438445 
L 509.701362 191.169224 
L 513.005437 199.438445 
L 516.309512 193.751263 
L 519.613587 191.169224 
L 522.917663 193.751263 
L 526.221738 188.734813 
L 529.525813 188.734813 
L 532.829888 196.499997 
L 536.133964 196.499997 
L 539.438039 202.594748 
L 542.742114 209.709682 
L 546.046189 209.709682 
L 549.350264 213.769 
L 552.65434 213.769 
L 555.958415 206.003815 
L 559.26249 202.594748 
L 562.566565 199.438445 
L 565.870641 202.594748 
L 569.174716 202.594748 
L 572.478791 206.003815 
L 575.782866 209.709682 
L 579.086942 218.256368 
L 582.391017 218.256368 
L 585.695092 223.272818 
L 588.999167 218.256368 
L 592.303243 218.256368 
L 595.607318 213.769 
L 608.823619 213.769 
L 612.127694 218.256368 
L 615.431769 218.256368 
L 618.735844 223.272818 
L 625.343995 223.272818 
L 628.64807 228.96 
L 635.256221 228.96 
L 638.560296 223.272818 
L 641.864371 223.272818 
L 645.168446 218.256368 
L 658.384747 218.256368 
L 661.688822 223.272818 
L 664.992898 223.272818 
L 668.296973 228.96 
L 671.601048 223.272818 
L 674.905123 213.769 
L 681.513274 213.769 
L 684.817349 206.003815 
L 688.121424 206.003815 
L 691.4255 202.594748 
L 694.729575 199.438445 
L 698.03365 206.003815 
L 704.641801 206.003815 
L 707.945876 213.769 
L 714.554026 213.769 
L 717.858101 223.272818 
L 721.162177 223.272818 
L 724.466252 218.256368 
L 727.770327 209.709682 
L 734.378478 209.709682 
L 737.682553 213.769 
L 740.986628 209.709682 
L 744.290703 206.003815 
L 747.594779 209.709682 
L 750.898854 213.769 
L 754.202929 209.709682 
L 760.81108 209.709682 
L 764.115155 213.769 
L 767.41923 218.256368 
L 770.723305 218.256368 
L 774.02738 223.272818 
L 777.331456 228.96 
L 780.635531 223.272818 
L 783.939606 218.256368 
L 787.243681 213.769 
L 793.851832 213.769 
L 797.155907 209.709682 
L 800.459982 206.003815 
L 803.764058 206.003815 
L 807.068133 209.709682 
L 816.980359 209.709682 
L 820.284434 213.769 
L 823.588509 209.709682 
L 840.108885 209.709682 
L 843.41296 199.438445 
L 846.717036 206.003815 
L 863.237412 206.003815 
L 866.541487 218.256368 
L 869.845562 213.769 
L 873.149638 218.256368 
L 876.453713 218.256368 
L 879.757788 223.272818 
L 889.670014 223.272818 
L 892.974089 228.96 
L 896.278164 228.96 
L 899.582239 218.256368 
L 919.406691 218.256368 
L 922.710766 228.96 
L 926.014841 223.272818 
L 935.927067 223.272818 
L 939.231142 218.256368 
L 939.231142 218.256368 
" style="fill:none;stroke:#a4a86f;stroke-linecap:square;stroke-width:2;"/>
   </g>
   <g id="line2d_22">
    <path clip-path="url(#pfc26d0c299)" d="M 674.905123 218.256368 
L 678.209199 223.272818 
L 681.513274 228.96 
L 684.817349 228.96 
L 688.121424 223.272818 
L 691.4255 223.272818 
L 694.729575 218.256368 
L 698.03365 213.769 
L 701.337725 213.769 
L 704.641801 213.769 
L 707.945876 213.769 
L 711.249951 218.256368 
L 714.554026 218.256368 
L 717.858101 223.272818 
L 721.162177 228.96 
L 724.466252 228.96 
L 727.770327 223.272818 
L 731.074402 218.256368 
L 734.378478 218.256368 
L 737.682553 209.709682 
L 740.986628 209.709682 
L 744.290703 209.709682 
L 747.594779 209.709682 
L 750.898854 213.769 
L 754.202929 218.256368 
L 757.507004 218.256368 
L 760.81108 228.96 
L 764.115155 228.96 
L 767.41923 228.96 
L 770.723305 228.96 
L 774.02738 228.96 
L 777.331456 228.96 
L 780.635531 228.96 
L 783.939606 218.256368 
L 787.243681 213.769 
L 790.547757 213.769 
L 793.851832 213.769 
L 797.155907 213.769 
L 800.459982 206.003815 
L 803.764058 206.003815 
L 807.068133 213.769 
L 810.372208 218.256368 
L 813.676283 218.256368 
L 816.980359 218.256368 
L 820.284434 218.256368 
L 823.588509 228.96 
L 826.892584 228.96 
L 830.196659 228.96 
L 833.500735 228.96 
L 836.80481 228.96 
L 840.108885 228.96 
L 843.41296 228.96 
L 846.717036 223.272818 
" style="fill:none;stroke:#d3d3d3;stroke-linecap:square;stroke-width:2;"/>
   </g>
   <g id="patch_3">
    <path d="M 46.965625 228.96 
L 46.965625 7.2 
" style="fill:none;stroke:#000000;stroke-linecap:square;stroke-linejoin:miter;stroke-width:0.8;"/>
   </g>
   <g id="patch_4">
    <path d="M 46.965625 228.96 
L 995.565625 228.96 
" style="fill:none;stroke:#000000;stroke-linecap:square;stroke-linejoin:miter;stroke-width:0.8;"/>
   </g>
   <g id="legend_1">
    <g id="line2d_23">
     <path d="M 54.165625 17.67875 
L 70.165625 17.67875 
" style="fill:none;stroke:#947383;stroke-linecap:square;stroke-width:2;"/>
    </g>
    <g id="line2d_24"/>
    <g id="text_18">
     <!-- North America -->
     <g transform="translate(76.565625 20.47875)scale(0.08 -0.08)">
      <defs>
       <path d="M 9.8125 72.90625 
L 23.09375 72.90625 
L 55.421875 11.921875 
L 55.421875 72.90625 
L 64.984375 72.90625 
L 64.984375 0 
L 51.703125 0 
L 19.390625 60.984375 
L 19.390625 0 
L 9.8125 0 
z
" id="DejaVuSans-78"/>
       <path d="M 54.890625 33.015625 
L 54.890625 0 
L 45.90625 0 
L 45.90625 32.71875 
Q 45.90625 40.484375 42.875 44.328125 
Q 39.84375 48.1875 33.796875 48.1875 
Q 26.515625 48.1875 22.3125 43.546875 
Q 18.109375 38.921875 18.109375 30.90625 
L 18.109375 0 
L 9.078125 0 
L 9.078125 75.984375 
L 18.109375 75.984375 
L 18.109375 46.1875 
Q 21.34375 51.125 25.703125 53.5625 
Q 30.078125 56 35.796875 56 
Q 45.21875 56 50.046875 50.171875 
Q 54.890625 44.34375 54.890625 33.015625 
z
" id="DejaVuSans-104"/>
       <path d="M 34.1875 63.1875 
L 20.796875 26.90625 
L 47.609375 26.90625 
z
M 28.609375 72.90625 
L 39.796875 72.90625 
L 67.578125 0 
L 57.328125 0 
L 50.6875 18.703125 
L 17.828125 18.703125 
L 11.1875 0 
L 0.78125 0 
z
" id="DejaVuSans-65"/>
       <path d="M 52 44.1875 
Q 55.375 50.25 60.0625 53.125 
Q 64.75 56 71.09375 56 
Q 79.640625 56 84.28125 50.015625 
Q 88.921875 44.046875 88.921875 33.015625 
L 88.921875 0 
L 79.890625 0 
L 79.890625 32.71875 
Q 79.890625 40.578125 77.09375 44.375 
Q 74.3125 48.1875 68.609375 48.1875 
Q 61.625 48.1875 57.5625 43.546875 
Q 53.515625 38.921875 53.515625 30.90625 
L 53.515625 0 
L 44.484375 0 
L 44.484375 32.71875 
Q 44.484375 40.625 41.703125 44.40625 
Q 38.921875 48.1875 33.109375 48.1875 
Q 26.21875 48.1875 22.15625 43.53125 
Q 18.109375 38.875 18.109375 30.90625 
L 18.109375 0 
L 9.078125 0 
L 9.078125 54.6875 
L 18.109375 54.6875 
L 18.109375 46.1875 
Q 21.1875 51.21875 25.484375 53.609375 
Q 29.78125 56 35.6875 56 
Q 41.65625 56 45.828125 52.96875 
Q 50 49.953125 52 44.1875 
z
" id="DejaVuSans-109"/>
       <path d="M 48.78125 52.59375 
L 48.78125 44.1875 
Q 44.96875 46.296875 41.140625 47.34375 
Q 37.3125 48.390625 33.40625 48.390625 
Q 24.65625 48.390625 19.8125 42.84375 
Q 14.984375 37.3125 14.984375 27.296875 
Q 14.984375 17.28125 19.8125 11.734375 
Q 24.65625 6.203125 33.40625 6.203125 
Q 37.3125 6.203125 41.140625 7.25 
Q 44.96875 8.296875 48.78125 10.40625 
L 48.78125 2.09375 
Q 45.015625 0.34375 40.984375 -0.53125 
Q 36.96875 -1.421875 32.421875 -1.421875 
Q 20.0625 -1.421875 12.78125 6.34375 
Q 5.515625 14.109375 5.515625 27.296875 
Q 5.515625 40.671875 12.859375 48.328125 
Q 20.21875 56 33.015625 56 
Q 37.15625 56 41.109375 55.140625 
Q 45.0625 54.296875 48.78125 52.59375 
z
" id="DejaVuSans-99"/>
      </defs>
      <use xlink:href="#DejaVuSans-78"/>
      <use x="74.804688" xlink:href="#DejaVuSans-111"/>
      <use x="135.986328" xlink:href="#DejaVuSans-114"/>
      <use x="177.099609" xlink:href="#DejaVuSans-116"/>
      <use x="216.308594" xlink:href="#DejaVuSans-104"/>
      <use x="279.6875" xlink:href="#DejaVuSans-32"/>
      <use x="311.474609" xlink:href="#DejaVuSans-65"/>
      <use x="379.882812" xlink:href="#DejaVuSans-109"/>
      <use x="477.294922" xlink:href="#DejaVuSans-101"/>
      <use x="538.818359" xlink:href="#DejaVuSans-114"/>
      <use x="579.931641" xlink:href="#DejaVuSans-105"/>
      <use x="607.714844" xlink:href="#DejaVuSans-99"/>
      <use x="662.695312" xlink:href="#DejaVuSans-97"/>
     </g>
    </g>
    <g id="line2d_25">
     <path d="M 54.165625 29.42125 
L 70.165625 29.42125 
" style="fill:none;stroke:#96c6ad;stroke-linecap:square;stroke-width:2;"/>
    </g>
    <g id="line2d_26"/>
    <g id="text_19">
     <!-- Europe -->
     <g transform="translate(76.565625 32.22125)scale(0.08 -0.08)">
      <defs>
       <path d="M 9.8125 72.90625 
L 55.90625 72.90625 
L 55.90625 64.59375 
L 19.671875 64.59375 
L 19.671875 43.015625 
L 54.390625 43.015625 
L 54.390625 34.71875 
L 19.671875 34.71875 
L 19.671875 8.296875 
L 56.78125 8.296875 
L 56.78125 0 
L 9.8125 0 
z
" id="DejaVuSans-69"/>
       <path d="M 18.109375 8.203125 
L 18.109375 -20.796875 
L 9.078125 -20.796875 
L 9.078125 54.6875 
L 18.109375 54.6875 
L 18.109375 46.390625 
Q 20.953125 51.265625 25.265625 53.625 
Q 29.59375 56 35.59375 56 
Q 45.5625 56 51.78125 48.09375 
Q 58.015625 40.1875 58.015625 27.296875 
Q 58.015625 14.40625 51.78125 6.484375 
Q 45.5625 -1.421875 35.59375 -1.421875 
Q 29.59375 -1.421875 25.265625 0.953125 
Q 20.953125 3.328125 18.109375 8.203125 
z
M 48.6875 27.296875 
Q 48.6875 37.203125 44.609375 42.84375 
Q 40.53125 48.484375 33.40625 48.484375 
Q 26.265625 48.484375 22.1875 42.84375 
Q 18.109375 37.203125 18.109375 27.296875 
Q 18.109375 17.390625 22.1875 11.75 
Q 26.265625 6.109375 33.40625 6.109375 
Q 40.53125 6.109375 44.609375 11.75 
Q 48.6875 17.390625 48.6875 27.296875 
z
" id="DejaVuSans-112"/>
      </defs>
      <use xlink:href="#DejaVuSans-69"/>
      <use x="63.183594" xlink:href="#DejaVuSans-117"/>
      <use x="126.5625" xlink:href="#DejaVuSans-114"/>
      <use x="165.425781" xlink:href="#DejaVuSans-111"/>
      <use x="226.607422" xlink:href="#DejaVuSans-112"/>
      <use x="290.083984" xlink:href="#DejaVuSans-101"/>
     </g>
    </g>
    <g id="line2d_27">
     <path d="M 54.165625 41.16375 
L 70.165625 41.16375 
" style="fill:none;stroke:#525886;stroke-linecap:square;stroke-width:2;"/>
    </g>
    <g id="line2d_28"/>
    <g id="text_20">
     <!-- Asia -->
     <g transform="translate(76.565625 43.96375)scale(0.08 -0.08)">
      <defs>
       <path d="M 44.28125 53.078125 
L 44.28125 44.578125 
Q 40.484375 46.53125 36.375 47.5 
Q 32.28125 48.484375 27.875 48.484375 
Q 21.1875 48.484375 17.84375 46.4375 
Q 14.5 44.390625 14.5 40.28125 
Q 14.5 37.15625 16.890625 35.375 
Q 19.28125 33.59375 26.515625 31.984375 
L 29.59375 31.296875 
Q 39.15625 29.25 43.1875 25.515625 
Q 47.21875 21.78125 47.21875 15.09375 
Q 47.21875 7.46875 41.1875 3.015625 
Q 35.15625 -1.421875 24.609375 -1.421875 
Q 20.21875 -1.421875 15.453125 -0.5625 
Q 10.6875 0.296875 5.421875 2 
L 5.421875 11.28125 
Q 10.40625 8.6875 15.234375 7.390625 
Q 20.0625 6.109375 24.8125 6.109375 
Q 31.15625 6.109375 34.5625 8.28125 
Q 37.984375 10.453125 37.984375 14.40625 
Q 37.984375 18.0625 35.515625 20.015625 
Q 33.0625 21.96875 24.703125 23.78125 
L 21.578125 24.515625 
Q 13.234375 26.265625 9.515625 29.90625 
Q 5.8125 33.546875 5.8125 39.890625 
Q 5.8125 47.609375 11.28125 51.796875 
Q 16.75 56 26.8125 56 
Q 31.78125 56 36.171875 55.265625 
Q 40.578125 54.546875 44.28125 53.078125 
z
" id="DejaVuSans-115"/>
      </defs>
      <use xlink:href="#DejaVuSans-65"/>
      <use x="68.408203" xlink:href="#DejaVuSans-115"/>
      <use x="120.507812" xlink:href="#DejaVuSans-105"/>
      <use x="148.291016" xlink:href="#DejaVuSans-97"/>
     </g>
    </g>
    <g id="line2d_29">
     <path d="M 54.165625 52.90625 
L 70.165625 52.90625 
" style="fill:none;stroke:#937252;stroke-linecap:square;stroke-width:2;"/>
    </g>
    <g id="line2d_30"/>
    <g id="text_21">
     <!-- United Kingdom -->
     <g transform="translate(76.565625 55.70625)scale(0.08 -0.08)">
      <defs>
       <path d="M 8.6875 72.90625 
L 18.609375 72.90625 
L 18.609375 28.609375 
Q 18.609375 16.890625 22.84375 11.734375 
Q 27.09375 6.59375 36.625 6.59375 
Q 46.09375 6.59375 50.34375 11.734375 
Q 54.59375 16.890625 54.59375 28.609375 
L 54.59375 72.90625 
L 64.5 72.90625 
L 64.5 27.390625 
Q 64.5 13.140625 57.4375 5.859375 
Q 50.390625 -1.421875 36.625 -1.421875 
Q 22.796875 -1.421875 15.734375 5.859375 
Q 8.6875 13.140625 8.6875 27.390625 
z
" id="DejaVuSans-85"/>
       <path d="M 9.8125 72.90625 
L 19.671875 72.90625 
L 19.671875 42.09375 
L 52.390625 72.90625 
L 65.09375 72.90625 
L 28.90625 38.921875 
L 67.671875 0 
L 54.6875 0 
L 19.671875 35.109375 
L 19.671875 0 
L 9.8125 0 
z
" id="DejaVuSans-75"/>
      </defs>
      <use xlink:href="#DejaVuSans-85"/>
      <use x="73.193359" xlink:href="#DejaVuSans-110"/>
      <use x="136.572266" xlink:href="#DejaVuSans-105"/>
      <use x="164.355469" xlink:href="#DejaVuSans-116"/>
      <use x="203.564453" xlink:href="#DejaVuSans-101"/>
      <use x="265.087891" xlink:href="#DejaVuSans-100"/>
      <use x="328.564453" xlink:href="#DejaVuSans-32"/>
      <use x="360.351562" xlink:href="#DejaVuSans-75"/>
      <use x="425.927734" xlink:href="#DejaVuSans-105"/>
      <use x="453.710938" xlink:href="#DejaVuSans-110"/>
      <use x="517.089844" xlink:href="#DejaVuSans-103"/>
      <use x="580.566406" xlink:href="#DejaVuSans-100"/>
      <use x="644.042969" xlink:href="#DejaVuSans-111"/>
      <use x="705.224609" xlink:href="#DejaVuSans-109"/>
     </g>
    </g>
    <g id="line2d_31">
     <path d="M 54.165625 64.64875 
L 70.165625 64.64875 
" style="fill:none;stroke:#d18cad;stroke-linecap:square;stroke-width:2;"/>
    </g>
    <g id="line2d_32"/>
    <g id="text_22">
     <!-- Africa -->
     <g transform="translate(76.565625 67.44875)scale(0.08 -0.08)">
      <defs>
       <path d="M 37.109375 75.984375 
L 37.109375 68.5 
L 28.515625 68.5 
Q 23.6875 68.5 21.796875 66.546875 
Q 19.921875 64.59375 19.921875 59.515625 
L 19.921875 54.6875 
L 34.71875 54.6875 
L 34.71875 47.703125 
L 19.921875 47.703125 
L 19.921875 0 
L 10.890625 0 
L 10.890625 47.703125 
L 2.296875 47.703125 
L 2.296875 54.6875 
L 10.890625 54.6875 
L 10.890625 58.5 
Q 10.890625 67.625 15.140625 71.796875 
Q 19.390625 75.984375 28.609375 75.984375 
z
" id="DejaVuSans-102"/>
      </defs>
      <use xlink:href="#DejaVuSans-65"/>
      <use x="64.783203" xlink:href="#DejaVuSans-102"/>
      <use x="99.988281" xlink:href="#DejaVuSans-114"/>
      <use x="141.101562" xlink:href="#DejaVuSans-105"/>
      <use x="168.884766" xlink:href="#DejaVuSans-99"/>
      <use x="223.865234" xlink:href="#DejaVuSans-97"/>
     </g>
    </g>
    <g id="line2d_33">
     <path d="M 54.165625 76.39125 
L 70.165625 76.39125 
" style="fill:none;stroke:#a4a86f;stroke-linecap:square;stroke-width:2;"/>
    </g>
    <g id="line2d_34"/>
    <g id="text_23">
     <!-- Oceania -->
     <g transform="translate(76.565625 79.19125)scale(0.08 -0.08)">
      <defs>
       <path d="M 39.40625 66.21875 
Q 28.65625 66.21875 22.328125 58.203125 
Q 16.015625 50.203125 16.015625 36.375 
Q 16.015625 22.609375 22.328125 14.59375 
Q 28.65625 6.59375 39.40625 6.59375 
Q 50.140625 6.59375 56.421875 14.59375 
Q 62.703125 22.609375 62.703125 36.375 
Q 62.703125 50.203125 56.421875 58.203125 
Q 50.140625 66.21875 39.40625 66.21875 
z
M 39.40625 74.21875 
Q 54.734375 74.21875 63.90625 63.9375 
Q 73.09375 53.65625 73.09375 36.375 
Q 73.09375 19.140625 63.90625 8.859375 
Q 54.734375 -1.421875 39.40625 -1.421875 
Q 24.03125 -1.421875 14.8125 8.828125 
Q 5.609375 19.09375 5.609375 36.375 
Q 5.609375 53.65625 14.8125 63.9375 
Q 24.03125 74.21875 39.40625 74.21875 
z
" id="DejaVuSans-79"/>
      </defs>
      <use xlink:href="#DejaVuSans-79"/>
      <use x="78.710938" xlink:href="#DejaVuSans-99"/>
      <use x="133.691406" xlink:href="#DejaVuSans-101"/>
      <use x="195.214844" xlink:href="#DejaVuSans-97"/>
      <use x="256.494141" xlink:href="#DejaVuSans-110"/>
      <use x="319.873047" xlink:href="#DejaVuSans-105"/>
      <use x="347.65625" xlink:href="#DejaVuSans-97"/>
     </g>
    </g>
    <g id="line2d_35">
     <path d="M 54.165625 88.13375 
L 70.165625 88.13375 
" style="fill:none;stroke:#d3d3d3;stroke-linecap:square;stroke-width:2;"/>
    </g>
    <g id="line2d_36"/>
    <g id="text_24">
     <!-- South America -->
     <g transform="translate(76.565625 90.93375)scale(0.08 -0.08)">
      <defs>
       <path d="M 53.515625 70.515625 
L 53.515625 60.890625 
Q 47.90625 63.578125 42.921875 64.890625 
Q 37.9375 66.21875 33.296875 66.21875 
Q 25.25 66.21875 20.875 63.09375 
Q 16.5 59.96875 16.5 54.203125 
Q 16.5 49.359375 19.40625 46.890625 
Q 22.3125 44.4375 30.421875 42.921875 
L 36.375 41.703125 
Q 47.40625 39.59375 52.65625 34.296875 
Q 57.90625 29 57.90625 20.125 
Q 57.90625 9.515625 50.796875 4.046875 
Q 43.703125 -1.421875 29.984375 -1.421875 
Q 24.8125 -1.421875 18.96875 -0.25 
Q 13.140625 0.921875 6.890625 3.21875 
L 6.890625 13.375 
Q 12.890625 10.015625 18.65625 8.296875 
Q 24.421875 6.59375 29.984375 6.59375 
Q 38.421875 6.59375 43.015625 9.90625 
Q 47.609375 13.234375 47.609375 19.390625 
Q 47.609375 24.75 44.3125 27.78125 
Q 41.015625 30.8125 33.5 32.328125 
L 27.484375 33.5 
Q 16.453125 35.6875 11.515625 40.375 
Q 6.59375 45.0625 6.59375 53.421875 
Q 6.59375 63.09375 13.40625 68.65625 
Q 20.21875 74.21875 32.171875 74.21875 
Q 37.3125 74.21875 42.625 73.28125 
Q 47.953125 72.359375 53.515625 70.515625 
z
" id="DejaVuSans-83"/>
      </defs>
      <use xlink:href="#DejaVuSans-83"/>
      <use x="63.476562" xlink:href="#DejaVuSans-111"/>
      <use x="124.658203" xlink:href="#DejaVuSans-117"/>
      <use x="188.037109" xlink:href="#DejaVuSans-116"/>
      <use x="227.246094" xlink:href="#DejaVuSans-104"/>
      <use x="290.625" xlink:href="#DejaVuSans-32"/>
      <use x="322.412109" xlink:href="#DejaVuSans-65"/>
      <use x="390.820312" xlink:href="#DejaVuSans-109"/>
      <use x="488.232422" xlink:href="#DejaVuSans-101"/>
      <use x="549.755859" xlink:href="#DejaVuSans-114"/>
      <use x="590.869141" xlink:href="#DejaVuSans-105"/>
      <use x="618.652344" xlink:href="#DejaVuSans-99"/>
      <use x="673.632812" xlink:href="#DejaVuSans-97"/>
     </g>
    </g>
   </g>
  </g>
 </g>
 <defs>
  <clipPath id="pfc26d0c299">
   <rect height="221.76" width="948.6" x="46.965625" y="7.2"/>
  </clipPath>
 </defs>
</svg>
