<?xml version="1.0" encoding="utf-8" standalone="no"?>
<!DOCTYPE svg PUBLIC "-//W3C//DTD SVG 1.1//EN"
  "http://www.w3.org/Graphics/SVG/1.1/DTD/svg11.dtd">
<!-- Created with matplotlib (https://matplotlib.org/) -->
<svg height="298.620937pt" version="1.1" viewBox="0 0 1002.765625 298.620937" width="1002.765625pt" xmlns="http://www.w3.org/2000/svg" xmlns:xlink="http://www.w3.org/1999/xlink">
 <metadata>
  <rdf:RDF xmlns:cc="http://creativecommons.org/ns#" xmlns:dc="http://purl.org/dc/elements/1.1/" xmlns:rdf="http://www.w3.org/1999/02/22-rdf-syntax-ns#">
   <cc:Work>
    <dc:type rdf:resource="http://purl.org/dc/dcmitype/StillImage"/>
    <dc:date>2021-06-15T08:02:36.458320</dc:date>
    <dc:format>image/svg+xml</dc:format>
    <dc:creator>
     <cc:Agent>
      <dc:title>Matplotlib v3.3.3, https://matplotlib.org/</dc:title>
     </cc:Agent>
    </dc:creator>
   </cc:Work>
  </rdf:RDF>
 </metadata>
 <defs>
  <style type="text/css">*{stroke-linecap:butt;stroke-linejoin:round;}</style>
 </defs>
 <g id="figure_1">
  <g id="patch_1">
   <path d="M 0 298.620937 
L 1002.765625 298.620937 
L 1002.765625 0 
L 0 0 
z
" style="fill:#ffffff;"/>
  </g>
  <g id="axes_1">
   <g id="patch_2">
    <path d="M 46.965625 228.96 
L 995.565625 228.96 
L 995.565625 7.2 
L 46.965625 7.2 
z
" style="fill:#ffffff;"/>
   </g>
   <g id="matplotlib.axis_1">
    <g id="xtick_1">
     <g id="line2d_1">
      <defs>
       <path d="M 0 0 
L 0 3.5 
" id="mb88a15fa57" style="stroke:#000000;stroke-width:0.8;"/>
      </defs>
      <g>
       <use style="stroke:#000000;stroke-width:0.8;" x="70.990885" xlink:href="#mb88a15fa57" y="228.96"/>
      </g>
     </g>
     <g id="text_1">
      <!-- 2020-09 -->
      <g transform="translate(73.75026 277.742812)rotate(-90)scale(0.1 -0.1)">
       <defs>
        <path d="M 19.1875 8.296875 
L 53.609375 8.296875 
L 53.609375 0 
L 7.328125 0 
L 7.328125 8.296875 
Q 12.9375 14.109375 22.625 23.890625 
Q 32.328125 33.6875 34.8125 36.53125 
Q 39.546875 41.84375 41.421875 45.53125 
Q 43.3125 49.21875 43.3125 52.78125 
Q 43.3125 58.59375 39.234375 62.25 
Q 35.15625 65.921875 28.609375 65.921875 
Q 23.96875 65.921875 18.8125 64.3125 
Q 13.671875 62.703125 7.8125 59.421875 
L 7.8125 69.390625 
Q 13.765625 71.78125 18.9375 73 
Q 24.125 74.21875 28.421875 74.21875 
Q 39.75 74.21875 46.484375 68.546875 
Q 53.21875 62.890625 53.21875 53.421875 
Q 53.21875 48.921875 51.53125 44.890625 
Q 49.859375 40.875 45.40625 35.40625 
Q 44.1875 33.984375 37.640625 27.21875 
Q 31.109375 20.453125 19.1875 8.296875 
z
" id="DejaVuSans-50"/>
        <path d="M 31.78125 66.40625 
Q 24.171875 66.40625 20.328125 58.90625 
Q 16.5 51.421875 16.5 36.375 
Q 16.5 21.390625 20.328125 13.890625 
Q 24.171875 6.390625 31.78125 6.390625 
Q 39.453125 6.390625 43.28125 13.890625 
Q 47.125 21.390625 47.125 36.375 
Q 47.125 51.421875 43.28125 58.90625 
Q 39.453125 66.40625 31.78125 66.40625 
z
M 31.78125 74.21875 
Q 44.046875 74.21875 50.515625 64.515625 
Q 56.984375 54.828125 56.984375 36.375 
Q 56.984375 17.96875 50.515625 8.265625 
Q 44.046875 -1.421875 31.78125 -1.421875 
Q 19.53125 -1.421875 13.0625 8.265625 
Q 6.59375 17.96875 6.59375 36.375 
Q 6.59375 54.828125 13.0625 64.515625 
Q 19.53125 74.21875 31.78125 74.21875 
z
" id="DejaVuSans-48"/>
        <path d="M 4.890625 31.390625 
L 31.203125 31.390625 
L 31.203125 23.390625 
L 4.890625 23.390625 
z
" id="DejaVuSans-45"/>
        <path d="M 10.984375 1.515625 
L 10.984375 10.5 
Q 14.703125 8.734375 18.5 7.8125 
Q 22.3125 6.890625 25.984375 6.890625 
Q 35.75 6.890625 40.890625 13.453125 
Q 46.046875 20.015625 46.78125 33.40625 
Q 43.953125 29.203125 39.59375 26.953125 
Q 35.25 24.703125 29.984375 24.703125 
Q 19.046875 24.703125 12.671875 31.3125 
Q 6.296875 37.9375 6.296875 49.421875 
Q 6.296875 60.640625 12.9375 67.421875 
Q 19.578125 74.21875 30.609375 74.21875 
Q 43.265625 74.21875 49.921875 64.515625 
Q 56.59375 54.828125 56.59375 36.375 
Q 56.59375 19.140625 48.40625 8.859375 
Q 40.234375 -1.421875 26.421875 -1.421875 
Q 22.703125 -1.421875 18.890625 -0.6875 
Q 15.09375 0.046875 10.984375 1.515625 
z
M 30.609375 32.421875 
Q 37.25 32.421875 41.125 36.953125 
Q 45.015625 41.5 45.015625 49.421875 
Q 45.015625 57.28125 41.125 61.84375 
Q 37.25 66.40625 30.609375 66.40625 
Q 23.96875 66.40625 20.09375 61.84375 
Q 16.21875 57.28125 16.21875 49.421875 
Q 16.21875 41.5 20.09375 36.953125 
Q 23.96875 32.421875 30.609375 32.421875 
z
" id="DejaVuSans-57"/>
       </defs>
       <use xlink:href="#DejaVuSans-50"/>
       <use x="63.623047" xlink:href="#DejaVuSans-48"/>
       <use x="127.246094" xlink:href="#DejaVuSans-50"/>
       <use x="190.869141" xlink:href="#DejaVuSans-48"/>
       <use x="254.492188" xlink:href="#DejaVuSans-45"/>
       <use x="290.576172" xlink:href="#DejaVuSans-48"/>
       <use x="354.199219" xlink:href="#DejaVuSans-57"/>
      </g>
     </g>
    </g>
    <g id="xtick_2">
     <g id="line2d_2">
      <g>
       <use style="stroke:#000000;stroke-width:0.8;" x="166.455494" xlink:href="#mb88a15fa57" y="228.96"/>
      </g>
     </g>
     <g id="text_2">
      <!-- 2020-10 -->
      <g transform="translate(169.214869 277.742812)rotate(-90)scale(0.1 -0.1)">
       <defs>
        <path d="M 12.40625 8.296875 
L 28.515625 8.296875 
L 28.515625 63.921875 
L 10.984375 60.40625 
L 10.984375 69.390625 
L 28.421875 72.90625 
L 38.28125 72.90625 
L 38.28125 8.296875 
L 54.390625 8.296875 
L 54.390625 0 
L 12.40625 0 
z
" id="DejaVuSans-49"/>
       </defs>
       <use xlink:href="#DejaVuSans-50"/>
       <use x="63.623047" xlink:href="#DejaVuSans-48"/>
       <use x="127.246094" xlink:href="#DejaVuSans-50"/>
       <use x="190.869141" xlink:href="#DejaVuSans-48"/>
       <use x="254.492188" xlink:href="#DejaVuSans-45"/>
       <use x="290.576172" xlink:href="#DejaVuSans-49"/>
       <use x="354.199219" xlink:href="#DejaVuSans-48"/>
      </g>
     </g>
    </g>
    <g id="xtick_3">
     <g id="line2d_3">
      <g>
       <use style="stroke:#000000;stroke-width:0.8;" x="265.102257" xlink:href="#mb88a15fa57" y="228.96"/>
      </g>
     </g>
     <g id="text_3">
      <!-- 2020-11 -->
      <g transform="translate(267.861632 277.742812)rotate(-90)scale(0.1 -0.1)">
       <use xlink:href="#DejaVuSans-50"/>
       <use x="63.623047" xlink:href="#DejaVuSans-48"/>
       <use x="127.246094" xlink:href="#DejaVuSans-50"/>
       <use x="190.869141" xlink:href="#DejaVuSans-48"/>
       <use x="254.492188" xlink:href="#DejaVuSans-45"/>
       <use x="290.576172" xlink:href="#DejaVuSans-49"/>
       <use x="354.199219" xlink:href="#DejaVuSans-49"/>
      </g>
     </g>
    </g>
    <g id="xtick_4">
     <g id="line2d_4">
      <g>
       <use style="stroke:#000000;stroke-width:0.8;" x="360.566866" xlink:href="#mb88a15fa57" y="228.96"/>
      </g>
     </g>
     <g id="text_4">
      <!-- 2020-12 -->
      <g transform="translate(363.326241 277.742812)rotate(-90)scale(0.1 -0.1)">
       <use xlink:href="#DejaVuSans-50"/>
       <use x="63.623047" xlink:href="#DejaVuSans-48"/>
       <use x="127.246094" xlink:href="#DejaVuSans-50"/>
       <use x="190.869141" xlink:href="#DejaVuSans-48"/>
       <use x="254.492188" xlink:href="#DejaVuSans-45"/>
       <use x="290.576172" xlink:href="#DejaVuSans-49"/>
       <use x="354.199219" xlink:href="#DejaVuSans-50"/>
      </g>
     </g>
    </g>
    <g id="xtick_5">
     <g id="line2d_5">
      <g>
       <use style="stroke:#000000;stroke-width:0.8;" x="459.213629" xlink:href="#mb88a15fa57" y="228.96"/>
      </g>
     </g>
     <g id="text_5">
      <!-- 2021-01 -->
      <g transform="translate(461.973004 277.742812)rotate(-90)scale(0.1 -0.1)">
       <use xlink:href="#DejaVuSans-50"/>
       <use x="63.623047" xlink:href="#DejaVuSans-48"/>
       <use x="127.246094" xlink:href="#DejaVuSans-50"/>
       <use x="190.869141" xlink:href="#DejaVuSans-49"/>
       <use x="254.492188" xlink:href="#DejaVuSans-45"/>
       <use x="290.576172" xlink:href="#DejaVuSans-48"/>
       <use x="354.199219" xlink:href="#DejaVuSans-49"/>
      </g>
     </g>
    </g>
    <g id="xtick_6">
     <g id="line2d_6">
      <g>
       <use style="stroke:#000000;stroke-width:0.8;" x="557.860392" xlink:href="#mb88a15fa57" y="228.96"/>
      </g>
     </g>
     <g id="text_6">
      <!-- 2021-02 -->
      <g transform="translate(560.619767 277.742812)rotate(-90)scale(0.1 -0.1)">
       <use xlink:href="#DejaVuSans-50"/>
       <use x="63.623047" xlink:href="#DejaVuSans-48"/>
       <use x="127.246094" xlink:href="#DejaVuSans-50"/>
       <use x="190.869141" xlink:href="#DejaVuSans-49"/>
       <use x="254.492188" xlink:href="#DejaVuSans-45"/>
       <use x="290.576172" xlink:href="#DejaVuSans-48"/>
       <use x="354.199219" xlink:href="#DejaVuSans-50"/>
      </g>
     </g>
    </g>
    <g id="xtick_7">
     <g id="line2d_7">
      <g>
       <use style="stroke:#000000;stroke-width:0.8;" x="646.960694" xlink:href="#mb88a15fa57" y="228.96"/>
      </g>
     </g>
     <g id="text_7">
      <!-- 2021-03 -->
      <g transform="translate(649.720069 277.742812)rotate(-90)scale(0.1 -0.1)">
       <defs>
        <path d="M 40.578125 39.3125 
Q 47.65625 37.796875 51.625 33 
Q 55.609375 28.21875 55.609375 21.1875 
Q 55.609375 10.40625 48.1875 4.484375 
Q 40.765625 -1.421875 27.09375 -1.421875 
Q 22.515625 -1.421875 17.65625 -0.515625 
Q 12.796875 0.390625 7.625 2.203125 
L 7.625 11.71875 
Q 11.71875 9.328125 16.59375 8.109375 
Q 21.484375 6.890625 26.8125 6.890625 
Q 36.078125 6.890625 40.9375 10.546875 
Q 45.796875 14.203125 45.796875 21.1875 
Q 45.796875 27.640625 41.28125 31.265625 
Q 36.765625 34.90625 28.71875 34.90625 
L 20.21875 34.90625 
L 20.21875 43.015625 
L 29.109375 43.015625 
Q 36.375 43.015625 40.234375 45.921875 
Q 44.09375 48.828125 44.09375 54.296875 
Q 44.09375 59.90625 40.109375 62.90625 
Q 36.140625 65.921875 28.71875 65.921875 
Q 24.65625 65.921875 20.015625 65.03125 
Q 15.375 64.15625 9.8125 62.3125 
L 9.8125 71.09375 
Q 15.4375 72.65625 20.34375 73.4375 
Q 25.25 74.21875 29.59375 74.21875 
Q 40.828125 74.21875 47.359375 69.109375 
Q 53.90625 64.015625 53.90625 55.328125 
Q 53.90625 49.265625 50.4375 45.09375 
Q 46.96875 40.921875 40.578125 39.3125 
z
" id="DejaVuSans-51"/>
       </defs>
       <use xlink:href="#DejaVuSans-50"/>
       <use x="63.623047" xlink:href="#DejaVuSans-48"/>
       <use x="127.246094" xlink:href="#DejaVuSans-50"/>
       <use x="190.869141" xlink:href="#DejaVuSans-49"/>
       <use x="254.492188" xlink:href="#DejaVuSans-45"/>
       <use x="290.576172" xlink:href="#DejaVuSans-48"/>
       <use x="354.199219" xlink:href="#DejaVuSans-51"/>
      </g>
     </g>
    </g>
    <g id="xtick_8">
     <g id="line2d_8">
      <g>
       <use style="stroke:#000000;stroke-width:0.8;" x="745.607457" xlink:href="#mb88a15fa57" y="228.96"/>
      </g>
     </g>
     <g id="text_8">
      <!-- 2021-04 -->
      <g transform="translate(748.366832 277.742812)rotate(-90)scale(0.1 -0.1)">
       <defs>
        <path d="M 37.796875 64.3125 
L 12.890625 25.390625 
L 37.796875 25.390625 
z
M 35.203125 72.90625 
L 47.609375 72.90625 
L 47.609375 25.390625 
L 58.015625 25.390625 
L 58.015625 17.1875 
L 47.609375 17.1875 
L 47.609375 0 
L 37.796875 0 
L 37.796875 17.1875 
L 4.890625 17.1875 
L 4.890625 26.703125 
z
" id="DejaVuSans-52"/>
       </defs>
       <use xlink:href="#DejaVuSans-50"/>
       <use x="63.623047" xlink:href="#DejaVuSans-48"/>
       <use x="127.246094" xlink:href="#DejaVuSans-50"/>
       <use x="190.869141" xlink:href="#DejaVuSans-49"/>
       <use x="254.492188" xlink:href="#DejaVuSans-45"/>
       <use x="290.576172" xlink:href="#DejaVuSans-48"/>
       <use x="354.199219" xlink:href="#DejaVuSans-52"/>
      </g>
     </g>
    </g>
    <g id="xtick_9">
     <g id="line2d_9">
      <g>
       <use style="stroke:#000000;stroke-width:0.8;" x="841.072066" xlink:href="#mb88a15fa57" y="228.96"/>
      </g>
     </g>
     <g id="text_9">
      <!-- 2021-05 -->
      <g transform="translate(843.831441 277.742812)rotate(-90)scale(0.1 -0.1)">
       <defs>
        <path d="M 10.796875 72.90625 
L 49.515625 72.90625 
L 49.515625 64.59375 
L 19.828125 64.59375 
L 19.828125 46.734375 
Q 21.96875 47.46875 24.109375 47.828125 
Q 26.265625 48.1875 28.421875 48.1875 
Q 40.625 48.1875 47.75 41.5 
Q 54.890625 34.8125 54.890625 23.390625 
Q 54.890625 11.625 47.5625 5.09375 
Q 40.234375 -1.421875 26.90625 -1.421875 
Q 22.3125 -1.421875 17.546875 -0.640625 
Q 12.796875 0.140625 7.71875 1.703125 
L 7.71875 11.625 
Q 12.109375 9.234375 16.796875 8.0625 
Q 21.484375 6.890625 26.703125 6.890625 
Q 35.15625 6.890625 40.078125 11.328125 
Q 45.015625 15.765625 45.015625 23.390625 
Q 45.015625 31 40.078125 35.4375 
Q 35.15625 39.890625 26.703125 39.890625 
Q 22.75 39.890625 18.8125 39.015625 
Q 14.890625 38.140625 10.796875 36.28125 
z
" id="DejaVuSans-53"/>
       </defs>
       <use xlink:href="#DejaVuSans-50"/>
       <use x="63.623047" xlink:href="#DejaVuSans-48"/>
       <use x="127.246094" xlink:href="#DejaVuSans-50"/>
       <use x="190.869141" xlink:href="#DejaVuSans-49"/>
       <use x="254.492188" xlink:href="#DejaVuSans-45"/>
       <use x="290.576172" xlink:href="#DejaVuSans-48"/>
       <use x="354.199219" xlink:href="#DejaVuSans-53"/>
      </g>
     </g>
    </g>
    <g id="xtick_10">
     <g id="line2d_10">
      <g>
       <use style="stroke:#000000;stroke-width:0.8;" x="939.718829" xlink:href="#mb88a15fa57" y="228.96"/>
      </g>
     </g>
     <g id="text_10">
      <!-- 2021-06 -->
      <g transform="translate(942.478204 277.742812)rotate(-90)scale(0.1 -0.1)">
       <defs>
        <path d="M 33.015625 40.375 
Q 26.375 40.375 22.484375 35.828125 
Q 18.609375 31.296875 18.609375 23.390625 
Q 18.609375 15.53125 22.484375 10.953125 
Q 26.375 6.390625 33.015625 6.390625 
Q 39.65625 6.390625 43.53125 10.953125 
Q 47.40625 15.53125 47.40625 23.390625 
Q 47.40625 31.296875 43.53125 35.828125 
Q 39.65625 40.375 33.015625 40.375 
z
M 52.59375 71.296875 
L 52.59375 62.3125 
Q 48.875 64.0625 45.09375 64.984375 
Q 41.3125 65.921875 37.59375 65.921875 
Q 27.828125 65.921875 22.671875 59.328125 
Q 17.53125 52.734375 16.796875 39.40625 
Q 19.671875 43.65625 24.015625 45.921875 
Q 28.375 48.1875 33.59375 48.1875 
Q 44.578125 48.1875 50.953125 41.515625 
Q 57.328125 34.859375 57.328125 23.390625 
Q 57.328125 12.15625 50.6875 5.359375 
Q 44.046875 -1.421875 33.015625 -1.421875 
Q 20.359375 -1.421875 13.671875 8.265625 
Q 6.984375 17.96875 6.984375 36.375 
Q 6.984375 53.65625 15.1875 63.9375 
Q 23.390625 74.21875 37.203125 74.21875 
Q 40.921875 74.21875 44.703125 73.484375 
Q 48.484375 72.75 52.59375 71.296875 
z
" id="DejaVuSans-54"/>
       </defs>
       <use xlink:href="#DejaVuSans-50"/>
       <use x="63.623047" xlink:href="#DejaVuSans-48"/>
       <use x="127.246094" xlink:href="#DejaVuSans-50"/>
       <use x="190.869141" xlink:href="#DejaVuSans-49"/>
       <use x="254.492188" xlink:href="#DejaVuSans-45"/>
       <use x="290.576172" xlink:href="#DejaVuSans-48"/>
       <use x="354.199219" xlink:href="#DejaVuSans-54"/>
      </g>
     </g>
    </g>
    <g id="text_11">
     <!-- Date -->
     <g transform="translate(509.314844 289.34125)scale(0.1 -0.1)">
      <defs>
       <path d="M 19.671875 64.796875 
L 19.671875 8.109375 
L 31.59375 8.109375 
Q 46.6875 8.109375 53.6875 14.9375 
Q 60.6875 21.78125 60.6875 36.53125 
Q 60.6875 51.171875 53.6875 57.984375 
Q 46.6875 64.796875 31.59375 64.796875 
z
M 9.8125 72.90625 
L 30.078125 72.90625 
Q 51.265625 72.90625 61.171875 64.09375 
Q 71.09375 55.28125 71.09375 36.53125 
Q 71.09375 17.671875 61.125 8.828125 
Q 51.171875 0 30.078125 0 
L 9.8125 0 
z
" id="DejaVuSans-68"/>
       <path d="M 34.28125 27.484375 
Q 23.390625 27.484375 19.1875 25 
Q 14.984375 22.515625 14.984375 16.5 
Q 14.984375 11.71875 18.140625 8.90625 
Q 21.296875 6.109375 26.703125 6.109375 
Q 34.1875 6.109375 38.703125 11.40625 
Q 43.21875 16.703125 43.21875 25.484375 
L 43.21875 27.484375 
z
M 52.203125 31.203125 
L 52.203125 0 
L 43.21875 0 
L 43.21875 8.296875 
Q 40.140625 3.328125 35.546875 0.953125 
Q 30.953125 -1.421875 24.3125 -1.421875 
Q 15.921875 -1.421875 10.953125 3.296875 
Q 6 8.015625 6 15.921875 
Q 6 25.140625 12.171875 29.828125 
Q 18.359375 34.515625 30.609375 34.515625 
L 43.21875 34.515625 
L 43.21875 35.40625 
Q 43.21875 41.609375 39.140625 45 
Q 35.0625 48.390625 27.6875 48.390625 
Q 23 48.390625 18.546875 47.265625 
Q 14.109375 46.140625 10.015625 43.890625 
L 10.015625 52.203125 
Q 14.9375 54.109375 19.578125 55.046875 
Q 24.21875 56 28.609375 56 
Q 40.484375 56 46.34375 49.84375 
Q 52.203125 43.703125 52.203125 31.203125 
z
" id="DejaVuSans-97"/>
       <path d="M 18.3125 70.21875 
L 18.3125 54.6875 
L 36.8125 54.6875 
L 36.8125 47.703125 
L 18.3125 47.703125 
L 18.3125 18.015625 
Q 18.3125 11.328125 20.140625 9.421875 
Q 21.96875 7.515625 27.59375 7.515625 
L 36.8125 7.515625 
L 36.8125 0 
L 27.59375 0 
Q 17.1875 0 13.234375 3.875 
Q 9.28125 7.765625 9.28125 18.015625 
L 9.28125 47.703125 
L 2.6875 47.703125 
L 2.6875 54.6875 
L 9.28125 54.6875 
L 9.28125 70.21875 
z
" id="DejaVuSans-116"/>
       <path d="M 56.203125 29.59375 
L 56.203125 25.203125 
L 14.890625 25.203125 
Q 15.484375 15.921875 20.484375 11.0625 
Q 25.484375 6.203125 34.421875 6.203125 
Q 39.59375 6.203125 44.453125 7.46875 
Q 49.3125 8.734375 54.109375 11.28125 
L 54.109375 2.78125 
Q 49.265625 0.734375 44.1875 -0.34375 
Q 39.109375 -1.421875 33.890625 -1.421875 
Q 20.796875 -1.421875 13.15625 6.1875 
Q 5.515625 13.8125 5.515625 26.8125 
Q 5.515625 40.234375 12.765625 48.109375 
Q 20.015625 56 32.328125 56 
Q 43.359375 56 49.78125 48.890625 
Q 56.203125 41.796875 56.203125 29.59375 
z
M 47.21875 32.234375 
Q 47.125 39.59375 43.09375 43.984375 
Q 39.0625 48.390625 32.421875 48.390625 
Q 24.90625 48.390625 20.390625 44.140625 
Q 15.875 39.890625 15.1875 32.171875 
z
" id="DejaVuSans-101"/>
      </defs>
      <use xlink:href="#DejaVuSans-68"/>
      <use x="77.001953" xlink:href="#DejaVuSans-97"/>
      <use x="138.28125" xlink:href="#DejaVuSans-116"/>
      <use x="177.490234" xlink:href="#DejaVuSans-101"/>
     </g>
    </g>
   </g>
   <g id="matplotlib.axis_2">
    <g id="ytick_1">
     <g id="line2d_11">
      <defs>
       <path d="M 0 0 
L -3.5 0 
" id="mf0f92b87e7" style="stroke:#000000;stroke-width:0.8;"/>
      </defs>
      <g>
       <use style="stroke:#000000;stroke-width:0.8;" x="46.965625" xlink:href="#mf0f92b87e7" y="228.96"/>
      </g>
     </g>
     <g id="text_12">
      <!-- 1 -->
      <g transform="translate(33.603125 232.759219)scale(0.1 -0.1)">
       <use xlink:href="#DejaVuSans-49"/>
      </g>
     </g>
    </g>
    <g id="ytick_2">
     <g id="line2d_12">
      <g>
       <use style="stroke:#000000;stroke-width:0.8;" x="46.965625" xlink:href="#mf0f92b87e7" y="180.169434"/>
      </g>
     </g>
     <g id="text_13">
      <!-- 3 -->
      <g transform="translate(33.603125 183.968653)scale(0.1 -0.1)">
       <use xlink:href="#DejaVuSans-51"/>
      </g>
     </g>
    </g>
    <g id="ytick_3">
     <g id="line2d_13">
      <g>
       <use style="stroke:#000000;stroke-width:0.8;" x="46.965625" xlink:href="#mf0f92b87e7" y="131.378869"/>
      </g>
     </g>
     <g id="text_14">
      <!-- 10 -->
      <g transform="translate(27.240625 135.178088)scale(0.1 -0.1)">
       <use xlink:href="#DejaVuSans-49"/>
       <use x="63.623047" xlink:href="#DejaVuSans-48"/>
      </g>
     </g>
    </g>
    <g id="ytick_4">
     <g id="line2d_14">
      <g>
       <use style="stroke:#000000;stroke-width:0.8;" x="46.965625" xlink:href="#mf0f92b87e7" y="82.588303"/>
      </g>
     </g>
     <g id="text_15">
      <!-- 31 -->
      <g transform="translate(27.240625 86.387522)scale(0.1 -0.1)">
       <use xlink:href="#DejaVuSans-51"/>
       <use x="63.623047" xlink:href="#DejaVuSans-49"/>
      </g>
     </g>
    </g>
    <g id="ytick_5">
     <g id="line2d_15">
      <g>
       <use style="stroke:#000000;stroke-width:0.8;" x="46.965625" xlink:href="#mf0f92b87e7" y="33.797738"/>
      </g>
     </g>
     <g id="text_16">
      <!-- 100 -->
      <g transform="translate(20.878125 37.596956)scale(0.1 -0.1)">
       <use xlink:href="#DejaVuSans-49"/>
       <use x="63.623047" xlink:href="#DejaVuSans-48"/>
       <use x="127.246094" xlink:href="#DejaVuSans-48"/>
      </g>
     </g>
    </g>
    <g id="text_17">
     <!-- Count (7 day rolling average) -->
     <g transform="translate(14.798438 191.547969)rotate(-90)scale(0.1 -0.1)">
      <defs>
       <path d="M 64.40625 67.28125 
L 64.40625 56.890625 
Q 59.421875 61.53125 53.78125 63.8125 
Q 48.140625 66.109375 41.796875 66.109375 
Q 29.296875 66.109375 22.65625 58.46875 
Q 16.015625 50.828125 16.015625 36.375 
Q 16.015625 21.96875 22.65625 14.328125 
Q 29.296875 6.6875 41.796875 6.6875 
Q 48.140625 6.6875 53.78125 8.984375 
Q 59.421875 11.28125 64.40625 15.921875 
L 64.40625 5.609375 
Q 59.234375 2.09375 53.4375 0.328125 
Q 47.65625 -1.421875 41.21875 -1.421875 
Q 24.65625 -1.421875 15.125 8.703125 
Q 5.609375 18.84375 5.609375 36.375 
Q 5.609375 53.953125 15.125 64.078125 
Q 24.65625 74.21875 41.21875 74.21875 
Q 47.75 74.21875 53.53125 72.484375 
Q 59.328125 70.75 64.40625 67.28125 
z
" id="DejaVuSans-67"/>
       <path d="M 30.609375 48.390625 
Q 23.390625 48.390625 19.1875 42.75 
Q 14.984375 37.109375 14.984375 27.296875 
Q 14.984375 17.484375 19.15625 11.84375 
Q 23.34375 6.203125 30.609375 6.203125 
Q 37.796875 6.203125 41.984375 11.859375 
Q 46.1875 17.53125 46.1875 27.296875 
Q 46.1875 37.015625 41.984375 42.703125 
Q 37.796875 48.390625 30.609375 48.390625 
z
M 30.609375 56 
Q 42.328125 56 49.015625 48.375 
Q 55.71875 40.765625 55.71875 27.296875 
Q 55.71875 13.875 49.015625 6.21875 
Q 42.328125 -1.421875 30.609375 -1.421875 
Q 18.84375 -1.421875 12.171875 6.21875 
Q 5.515625 13.875 5.515625 27.296875 
Q 5.515625 40.765625 12.171875 48.375 
Q 18.84375 56 30.609375 56 
z
" id="DejaVuSans-111"/>
       <path d="M 8.5 21.578125 
L 8.5 54.6875 
L 17.484375 54.6875 
L 17.484375 21.921875 
Q 17.484375 14.15625 20.5 10.265625 
Q 23.53125 6.390625 29.59375 6.390625 
Q 36.859375 6.390625 41.078125 11.03125 
Q 45.3125 15.671875 45.3125 23.6875 
L 45.3125 54.6875 
L 54.296875 54.6875 
L 54.296875 0 
L 45.3125 0 
L 45.3125 8.40625 
Q 42.046875 3.421875 37.71875 1 
Q 33.40625 -1.421875 27.6875 -1.421875 
Q 18.265625 -1.421875 13.375 4.4375 
Q 8.5 10.296875 8.5 21.578125 
z
M 31.109375 56 
z
" id="DejaVuSans-117"/>
       <path d="M 54.890625 33.015625 
L 54.890625 0 
L 45.90625 0 
L 45.90625 32.71875 
Q 45.90625 40.484375 42.875 44.328125 
Q 39.84375 48.1875 33.796875 48.1875 
Q 26.515625 48.1875 22.3125 43.546875 
Q 18.109375 38.921875 18.109375 30.90625 
L 18.109375 0 
L 9.078125 0 
L 9.078125 54.6875 
L 18.109375 54.6875 
L 18.109375 46.1875 
Q 21.34375 51.125 25.703125 53.5625 
Q 30.078125 56 35.796875 56 
Q 45.21875 56 50.046875 50.171875 
Q 54.890625 44.34375 54.890625 33.015625 
z
" id="DejaVuSans-110"/>
       <path id="DejaVuSans-32"/>
       <path d="M 31 75.875 
Q 24.46875 64.65625 21.28125 53.65625 
Q 18.109375 42.671875 18.109375 31.390625 
Q 18.109375 20.125 21.3125 9.0625 
Q 24.515625 -2 31 -13.1875 
L 23.1875 -13.1875 
Q 15.875 -1.703125 12.234375 9.375 
Q 8.59375 20.453125 8.59375 31.390625 
Q 8.59375 42.28125 12.203125 53.3125 
Q 15.828125 64.359375 23.1875 75.875 
z
" id="DejaVuSans-40"/>
       <path d="M 8.203125 72.90625 
L 55.078125 72.90625 
L 55.078125 68.703125 
L 28.609375 0 
L 18.3125 0 
L 43.21875 64.59375 
L 8.203125 64.59375 
z
" id="DejaVuSans-55"/>
       <path d="M 45.40625 46.390625 
L 45.40625 75.984375 
L 54.390625 75.984375 
L 54.390625 0 
L 45.40625 0 
L 45.40625 8.203125 
Q 42.578125 3.328125 38.25 0.953125 
Q 33.9375 -1.421875 27.875 -1.421875 
Q 17.96875 -1.421875 11.734375 6.484375 
Q 5.515625 14.40625 5.515625 27.296875 
Q 5.515625 40.1875 11.734375 48.09375 
Q 17.96875 56 27.875 56 
Q 33.9375 56 38.25 53.625 
Q 42.578125 51.265625 45.40625 46.390625 
z
M 14.796875 27.296875 
Q 14.796875 17.390625 18.875 11.75 
Q 22.953125 6.109375 30.078125 6.109375 
Q 37.203125 6.109375 41.296875 11.75 
Q 45.40625 17.390625 45.40625 27.296875 
Q 45.40625 37.203125 41.296875 42.84375 
Q 37.203125 48.484375 30.078125 48.484375 
Q 22.953125 48.484375 18.875 42.84375 
Q 14.796875 37.203125 14.796875 27.296875 
z
" id="DejaVuSans-100"/>
       <path d="M 32.171875 -5.078125 
Q 28.375 -14.84375 24.75 -17.8125 
Q 21.140625 -20.796875 15.09375 -20.796875 
L 7.90625 -20.796875 
L 7.90625 -13.28125 
L 13.1875 -13.28125 
Q 16.890625 -13.28125 18.9375 -11.515625 
Q 21 -9.765625 23.484375 -3.21875 
L 25.09375 0.875 
L 2.984375 54.6875 
L 12.5 54.6875 
L 29.59375 11.921875 
L 46.6875 54.6875 
L 56.203125 54.6875 
z
" id="DejaVuSans-121"/>
       <path d="M 41.109375 46.296875 
Q 39.59375 47.171875 37.8125 47.578125 
Q 36.03125 48 33.890625 48 
Q 26.265625 48 22.1875 43.046875 
Q 18.109375 38.09375 18.109375 28.8125 
L 18.109375 0 
L 9.078125 0 
L 9.078125 54.6875 
L 18.109375 54.6875 
L 18.109375 46.1875 
Q 20.953125 51.171875 25.484375 53.578125 
Q 30.03125 56 36.53125 56 
Q 37.453125 56 38.578125 55.875 
Q 39.703125 55.765625 41.0625 55.515625 
z
" id="DejaVuSans-114"/>
       <path d="M 9.421875 75.984375 
L 18.40625 75.984375 
L 18.40625 0 
L 9.421875 0 
z
" id="DejaVuSans-108"/>
       <path d="M 9.421875 54.6875 
L 18.40625 54.6875 
L 18.40625 0 
L 9.421875 0 
z
M 9.421875 75.984375 
L 18.40625 75.984375 
L 18.40625 64.59375 
L 9.421875 64.59375 
z
" id="DejaVuSans-105"/>
       <path d="M 45.40625 27.984375 
Q 45.40625 37.75 41.375 43.109375 
Q 37.359375 48.484375 30.078125 48.484375 
Q 22.859375 48.484375 18.828125 43.109375 
Q 14.796875 37.75 14.796875 27.984375 
Q 14.796875 18.265625 18.828125 12.890625 
Q 22.859375 7.515625 30.078125 7.515625 
Q 37.359375 7.515625 41.375 12.890625 
Q 45.40625 18.265625 45.40625 27.984375 
z
M 54.390625 6.78125 
Q 54.390625 -7.171875 48.1875 -13.984375 
Q 42 -20.796875 29.203125 -20.796875 
Q 24.46875 -20.796875 20.265625 -20.09375 
Q 16.0625 -19.390625 12.109375 -17.921875 
L 12.109375 -9.1875 
Q 16.0625 -11.328125 19.921875 -12.34375 
Q 23.78125 -13.375 27.78125 -13.375 
Q 36.625 -13.375 41.015625 -8.765625 
Q 45.40625 -4.15625 45.40625 5.171875 
L 45.40625 9.625 
Q 42.625 4.78125 38.28125 2.390625 
Q 33.9375 0 27.875 0 
Q 17.828125 0 11.671875 7.65625 
Q 5.515625 15.328125 5.515625 27.984375 
Q 5.515625 40.671875 11.671875 48.328125 
Q 17.828125 56 27.875 56 
Q 33.9375 56 38.28125 53.609375 
Q 42.625 51.21875 45.40625 46.390625 
L 45.40625 54.6875 
L 54.390625 54.6875 
z
" id="DejaVuSans-103"/>
       <path d="M 2.984375 54.6875 
L 12.5 54.6875 
L 29.59375 8.796875 
L 46.6875 54.6875 
L 56.203125 54.6875 
L 35.6875 0 
L 23.484375 0 
z
" id="DejaVuSans-118"/>
       <path d="M 8.015625 75.875 
L 15.828125 75.875 
Q 23.140625 64.359375 26.78125 53.3125 
Q 30.421875 42.28125 30.421875 31.390625 
Q 30.421875 20.453125 26.78125 9.375 
Q 23.140625 -1.703125 15.828125 -13.1875 
L 8.015625 -13.1875 
Q 14.5 -2 17.703125 9.0625 
Q 20.90625 20.125 20.90625 31.390625 
Q 20.90625 42.671875 17.703125 53.65625 
Q 14.5 64.65625 8.015625 75.875 
z
" id="DejaVuSans-41"/>
      </defs>
      <use xlink:href="#DejaVuSans-67"/>
      <use x="69.824219" xlink:href="#DejaVuSans-111"/>
      <use x="131.005859" xlink:href="#DejaVuSans-117"/>
      <use x="194.384766" xlink:href="#DejaVuSans-110"/>
      <use x="257.763672" xlink:href="#DejaVuSans-116"/>
      <use x="296.972656" xlink:href="#DejaVuSans-32"/>
      <use x="328.759766" xlink:href="#DejaVuSans-40"/>
      <use x="367.773438" xlink:href="#DejaVuSans-55"/>
      <use x="431.396484" xlink:href="#DejaVuSans-32"/>
      <use x="463.183594" xlink:href="#DejaVuSans-100"/>
      <use x="526.660156" xlink:href="#DejaVuSans-97"/>
      <use x="587.939453" xlink:href="#DejaVuSans-121"/>
      <use x="647.119141" xlink:href="#DejaVuSans-32"/>
      <use x="678.90625" xlink:href="#DejaVuSans-114"/>
      <use x="717.769531" xlink:href="#DejaVuSans-111"/>
      <use x="778.951172" xlink:href="#DejaVuSans-108"/>
      <use x="806.734375" xlink:href="#DejaVuSans-108"/>
      <use x="834.517578" xlink:href="#DejaVuSans-105"/>
      <use x="862.300781" xlink:href="#DejaVuSans-110"/>
      <use x="925.679688" xlink:href="#DejaVuSans-103"/>
      <use x="989.15625" xlink:href="#DejaVuSans-32"/>
      <use x="1020.943359" xlink:href="#DejaVuSans-97"/>
      <use x="1082.222656" xlink:href="#DejaVuSans-118"/>
      <use x="1141.402344" xlink:href="#DejaVuSans-101"/>
      <use x="1202.925781" xlink:href="#DejaVuSans-114"/>
      <use x="1244.039062" xlink:href="#DejaVuSans-97"/>
      <use x="1305.318359" xlink:href="#DejaVuSans-103"/>
      <use x="1368.794922" xlink:href="#DejaVuSans-101"/>
      <use x="1430.318359" xlink:href="#DejaVuSans-41"/>
     </g>
    </g>
   </g>
   <g id="line2d_16">
    <path clip-path="url(#p2b94bd4993)" d="M 436.938554 199.585152 
L 440.120707 202.72577 
L 443.302861 202.72577 
L 446.485014 206.117896 
L 449.667168 209.805346 
L 452.849322 209.805346 
L 456.031475 218.309559 
L 459.213629 213.844492 
L 462.395783 209.805346 
L 465.577936 206.117896 
L 471.942244 206.117896 
L 475.124397 196.661307 
L 491.035165 196.661307 
L 494.217319 191.357025 
L 497.399473 188.934712 
L 500.581626 180.430499 
L 503.76378 176.743048 
L 506.945934 171.751527 
L 513.310241 175.013055 
L 516.492395 176.743048 
L 519.674548 180.430499 
L 522.856702 180.430499 
L 526.038855 188.934712 
L 529.221009 199.585152 
L 532.403163 196.661307 
L 535.585316 191.357025 
L 538.76747 180.430499 
L 541.949624 171.751527 
L 545.131777 176.743048 
L 548.313931 170.210305 
L 551.496085 167.28646 
L 554.678238 168.723172 
L 557.860392 161.982178 
L 561.042545 160.753716 
L 564.224699 163.247315 
L 567.406853 161.982178 
L 570.589006 161.982178 
L 573.77116 164.551385 
L 576.953314 160.753716 
L 580.135467 163.247315 
L 583.317621 164.551385 
L 586.499775 156.167739 
L 592.864082 140.085368 
L 596.046236 135.843936 
L 599.228389 135.176538 
L 602.410543 135.176538 
L 605.592696 131.378869 
L 608.77485 134.519487 
L 611.957004 137.911612 
L 615.139157 140.085368 
L 618.321311 137.911612 
L 621.503465 139.348324 
L 624.685618 132.60733 
L 627.867772 133.872467 
L 631.049926 134.519487 
L 634.232079 131.378869 
L 637.414233 130.777739 
L 640.596386 130.777739 
L 643.77854 127.339724 
L 646.960694 125.193496 
L 650.142847 121.680804 
L 653.325001 119.796985 
L 656.507155 120.260148 
L 659.689308 123.150741 
L 662.871462 120.728428 
L 666.053616 119.796985 
L 669.235769 119.33883 
L 672.417923 117.993353 
L 675.600077 117.554189 
L 678.78223 117.554189 
L 681.964384 113.793985 
L 685.146537 112.61124 
L 688.328691 113.793985 
L 691.510845 116.26336 
L 694.692998 114.601228 
L 697.875152 112.61124 
L 701.057306 106.806772 
L 704.239459 102.922013 
L 707.421613 102.307814 
L 710.603767 99.64903 
L 713.78592 94.530435 
L 716.968074 95.041031 
L 720.150227 90.653086 
L 723.332381 90.422138 
L 726.514535 89.510727 
L 729.696688 88.398355 
L 732.878842 87.961455 
L 736.060996 85.430617 
L 739.243149 83.236393 
L 742.425303 82.657173 
L 745.607457 78.985705 
L 748.78961 80.054139 
L 751.971764 80.598629 
L 755.153918 83.042438 
L 758.336071 85.023124 
L 761.518225 86.677146 
L 764.700378 84.619511 
L 767.882532 83.823639 
L 771.064686 82.275378 
L 774.246839 80.234859 
L 777.428993 76.759228 
L 780.611147 74.327647 
L 783.7933 72.629174 
L 786.975454 73.702116 
L 790.157608 74.485483 
L 793.339761 73.857635 
L 796.521915 74.327647 
L 799.704068 76.59271 
L 802.886222 76.759228 
L 806.068376 78.288094 
L 809.250529 80.234859 
L 812.432683 84.021211 
L 815.614837 85.842066 
L 818.79699 90.192441 
L 821.979144 90.653086 
L 825.161298 93.034552 
L 828.343451 91.827093 
L 831.525605 91.118793 
L 834.707759 89.062269 
L 837.889912 87.529013 
L 841.072066 84.820837 
L 844.254219 84.619511 
L 847.436373 85.430617 
L 850.618527 87.744682 
L 853.80068 89.062269 
L 856.982834 90.653086 
L 860.164988 94.025918 
L 863.347141 97.964876 
L 866.529295 98.798587 
L 869.711449 104.819895 
L 872.893602 109.609707 
L 876.075756 113.396058 
L 879.257909 120.728428 
L 882.440063 124.159812 
L 885.622217 122.16514 
L 888.80437 123.652273 
L 891.986524 124.159812 
L 895.168678 124.159812 
L 898.350831 127.893705 
L 901.532985 128.455024 
L 904.715139 135.176538 
L 907.897292 140.835457 
L 911.079446 143.976075 
L 914.2616 146.494377 
L 917.443753 150.103276 
L 920.625907 157.268552 
L 923.80806 165.896862 
L 926.990214 167.28646 
L 933.354521 167.28646 
L 936.536675 182.401968 
L 939.718829 188.934712 
L 942.900982 193.926233 
L 946.083136 199.585152 
L 949.26529 202.72577 
L 949.26529 202.72577 
" style="fill:none;stroke:#947383;stroke-linecap:square;stroke-width:2;"/>
   </g>
   <g id="line2d_17">
    <path clip-path="url(#p2b94bd4993)" d="M 306.470254 218.309559 
L 309.652408 223.30108 
L 319.198869 223.30108 
L 322.381023 228.96 
L 398.75271 228.96 
L 401.934864 223.30108 
L 405.117017 218.309559 
L 414.663478 218.309559 
L 417.845632 213.844492 
L 421.027785 206.117896 
L 424.209939 202.72577 
L 427.392093 191.357025 
L 430.574246 186.6434 
L 433.7564 180.430499 
L 440.120707 180.430499 
L 443.302861 178.54668 
L 446.485014 170.210305 
L 449.667168 165.896862 
L 452.849322 165.896862 
L 456.031475 170.210305 
L 459.213629 168.723172 
L 462.395783 161.982178 
L 465.577936 159.559864 
L 468.76009 161.982178 
L 471.942244 168.723172 
L 475.124397 161.982178 
L 478.306551 158.398725 
L 481.488705 155.094797 
L 484.670858 157.268552 
L 487.853012 156.167739 
L 491.035165 150.103276 
L 494.217319 141.599063 
L 497.399473 124.159812 
L 500.581626 109.973477 
L 503.76378 106.469089 
L 506.945934 102.307814 
L 510.128087 101.105494 
L 513.310241 95.557854 
L 516.492395 94.025918 
L 519.674548 94.784964 
L 522.856702 101.105494 
L 526.038855 98.798587 
L 529.221009 101.70239 
L 532.403163 102.307814 
L 538.76747 93.527336 
L 541.949624 87.529013 
L 545.131777 85.22638 
L 548.313931 80.234859 
L 551.496085 76.097044 
L 554.678238 75.445047 
L 557.860392 76.59271 
L 561.042545 75.122772 
L 564.224699 73.857635 
L 567.406853 68.452658 
L 570.589006 67.907583 
L 573.77116 67.50333 
L 576.953314 67.235954 
L 580.135467 59.799092 
L 583.317621 54.547462 
L 586.499775 53.47452 
L 589.681928 51.775359 
L 592.864082 48.740623 
L 596.046236 47.719394 
L 599.228389 47.635392 
L 602.410543 44.249722 
L 605.592696 43.940949 
L 608.77485 42.653196 
L 611.957004 40.542907 
L 615.139157 40.048892 
L 618.321311 40.970981 
L 621.503465 39.769162 
L 624.685618 37.595406 
L 627.867772 37.397219 
L 631.049926 34.530533 
L 634.232079 33.979752 
L 637.414233 32.369098 
L 643.77854 30.761032 
L 646.960694 28.994987 
L 650.142847 24.926368 
L 653.325001 25.271516 
L 656.507155 26.732135 
L 659.689308 26.989133 
L 662.871462 27.822162 
L 666.053616 27.664716 
L 669.235769 26.374935 
L 672.417923 26.62977 
L 675.600077 25.669443 
L 678.78223 23.430769 
L 681.964384 21.894626 
L 685.146537 19.236768 
L 688.328691 18.979925 
L 691.510845 20.10433 
L 694.692998 18.260545 
L 697.875152 17.76 
L 701.057306 18.597556 
L 704.239459 19.108152 
L 707.421613 19.929391 
L 713.78592 19.495177 
L 716.968074 21.485164 
L 720.150227 23.100235 
L 723.332381 22.031997 
L 729.696688 24.828269 
L 732.878842 25.920058 
L 736.060996 24.975503 
L 739.243149 23.71615 
L 742.425303 24.38961 
L 745.607457 26.57868 
L 748.78961 28.298038 
L 755.153918 28.244898 
L 758.336071 36.291336 
L 761.518225 42.653196 
L 767.882532 44.717142 
L 771.064686 44.874101 
L 774.246839 44.874101 
L 777.428993 45.428082 
L 783.7933 38.19559 
L 786.975454 39.215181 
L 790.157608 40.47198 
L 793.339761 40.685119 
L 796.521915 40.401172 
L 799.704068 41.403423 
L 802.886222 41.258785 
L 806.068376 48.312116 
L 809.250529 48.654574 
L 812.432683 48.5687 
L 815.614837 49.964018 
L 818.79699 50.769555 
L 821.979144 49.173507 
L 825.161298 50.679291 
L 828.343451 48.141919 
L 831.525605 49.260616 
L 834.707759 47.635392 
L 837.889912 47.972403 
L 841.072066 48.826847 
L 844.254219 50.409647 
L 847.436373 51.315214 
L 850.618527 50.769555 
L 853.80068 50.589219 
L 856.982834 54.448792 
L 860.164988 54.745495 
L 863.347141 54.745495 
L 866.529295 55.244664 
L 869.711449 58.154165 
L 872.893602 57.197009 
L 876.075756 60.475366 
L 879.257909 62.214828 
L 882.440063 63.782365 
L 885.622217 64.276585 
L 888.80437 64.65107 
L 891.986524 71.288427 
L 895.168678 84.820837 
L 898.350831 89.510727 
L 901.532985 93.527336 
L 904.715139 96.610801 
L 907.897292 101.105494 
L 911.079446 103.545244 
L 914.2616 113.001832 
L 917.443753 113.396058 
L 920.625907 112.224215 
L 923.80806 113.001832 
L 926.990214 118.437116 
L 930.172368 119.796985 
L 933.354521 119.33883 
L 936.536675 121.201941 
L 939.718829 138.62388 
L 942.900982 154.04835 
L 946.083136 160.753716 
L 949.26529 170.210305 
L 952.447443 173.350923 
L 952.447443 173.350923 
" style="fill:none;stroke:#96c6ad;stroke-linecap:square;stroke-width:2;"/>
   </g>
   <g id="line2d_18">
    <path clip-path="url(#p2b94bd4993)" d="M 90.083807 158.398725 
L 96.448114 160.753716 
L 99.630268 167.28646 
L 102.812421 199.585152 
L 105.994575 218.309559 
L 109.176729 223.30108 
L 112.358882 228.96 
L 153.72688 228.96 
L 156.909033 223.30108 
L 176.001955 223.30108 
L 179.184109 228.96 
L 261.920103 228.96 
L 265.102257 223.30108 
L 284.195179 223.30108 
L 287.377332 228.96 
L 408.299171 228.96 
L 411.481324 223.30108 
L 414.663478 223.30108 
L 417.845632 218.309559 
L 421.027785 218.309559 
L 424.209939 209.805346 
L 430.574246 209.805346 
L 433.7564 213.844492 
L 436.938554 213.844492 
L 440.120707 206.117896 
L 443.302861 193.926233 
L 446.485014 196.661307 
L 449.667168 178.54668 
L 452.849322 175.013055 
L 456.031475 171.751527 
L 459.213629 167.28646 
L 462.395783 165.896862 
L 465.577936 167.28646 
L 468.76009 164.551385 
L 471.942244 175.013055 
L 475.124397 178.54668 
L 478.306551 164.551385 
L 481.488705 161.982178 
L 484.670858 164.551385 
L 487.853012 168.723172 
L 491.035165 164.551385 
L 494.217319 163.247315 
L 497.399473 150.103276 
L 500.581626 161.982178 
L 503.76378 157.268552 
L 506.945934 155.094797 
L 510.128087 154.04835 
L 513.310241 159.559864 
L 516.492395 158.398725 
L 519.674548 164.551385 
L 522.856702 163.247315 
L 526.038855 173.350923 
L 529.221009 178.54668 
L 532.403163 180.430499 
L 535.585316 180.430499 
L 538.76747 175.013055 
L 541.949624 178.54668 
L 545.131777 154.04835 
L 548.313931 143.168833 
L 551.496085 141.599063 
L 554.678238 137.911612 
L 557.860392 131.378869 
L 561.042545 112.61124 
L 564.224699 111.840693 
L 567.406853 118.885575 
L 570.589006 124.159812 
L 573.77116 123.652273 
L 576.953314 118.885575 
L 580.135467 90.422138 
L 583.317621 101.402891 
L 586.499775 101.105494 
L 589.681928 72.932967 
L 592.864082 72.028044 
L 596.046236 71.879084 
L 599.228389 73.702116 
L 602.410543 88.618506 
L 605.592696 83.626985 
L 608.77485 82.657173 
L 611.957004 118.437116 
L 615.139157 118.437116 
L 618.321311 117.11953 
L 621.503465 110.340396 
L 624.685618 104.49762 
L 627.867772 105.80169 
L 634.232079 99.936346 
L 637.414233 96.610801 
L 640.596386 96.610801 
L 643.77854 99.64903 
L 646.960694 104.177777 
L 650.142847 105.80169 
L 653.325001 100.810169 
L 656.507155 100.516888 
L 659.689308 98.798587 
L 662.871462 95.041031 
L 666.053616 96.345102 
L 669.235769 89.285905 
L 672.417923 83.042438 
L 675.600077 82.465845 
L 678.78223 79.161917 
L 681.964384 74.485483 
L 685.146537 72.028044 
L 688.328691 69.42374 
L 691.510845 71.730647 
L 694.692998 70.70589 
L 697.875152 74.327647 
L 701.057306 71.879084 
L 704.239459 72.028044 
L 707.421613 72.327543 
L 710.603767 70.274182 
L 713.78592 63.537399 
L 716.968074 60.589135 
L 720.150227 54.350351 
L 723.332381 54.944458 
L 726.514535 58.91386 
L 729.696688 61.510453 
L 732.878842 64.902578 
L 736.060996 70.70589 
L 739.243149 82.657173 
L 742.425303 96.345102 
L 745.607457 108.18507 
L 748.78961 111.083906 
L 751.971764 112.224215 
L 755.153918 112.61124 
L 758.336071 125.719949 
L 764.700378 124.673502 
L 767.882532 121.680804 
L 771.064686 119.796985 
L 774.246839 119.796985 
L 777.428993 119.33883 
L 780.611147 115.010689 
L 783.7933 108.18507 
L 786.975454 106.134076 
L 790.157608 102.613801 
L 793.339761 104.819895 
L 796.521915 97.147251 
L 799.704068 95.557854 
L 802.886222 97.418044 
L 806.068376 102.307814 
L 809.250529 104.49762 
L 812.432683 112.61124 
L 815.614837 111.46061 
L 818.79699 123.652273 
L 821.979144 125.719949 
L 825.161298 126.792891 
L 828.343451 130.777739 
L 831.525605 130.777739 
L 834.707759 127.339724 
L 837.889912 126.253025 
L 841.072066 130.185017 
L 844.254219 135.843936 
L 847.436373 142.37668 
L 850.618527 142.37668 
L 853.80068 144.798993 
L 856.982834 149.171833 
L 860.164988 149.171833 
L 863.347141 145.638208 
L 866.529295 141.599063 
L 869.711449 146.494377 
L 872.893602 147.368201 
L 876.075756 153.027121 
L 879.257909 147.368201 
L 882.440063 155.094797 
L 885.622217 154.04835 
L 888.80437 157.268552 
L 891.986524 152.029923 
L 895.168678 146.494377 
L 898.350831 147.368201 
L 901.532985 158.398725 
L 904.715139 159.559864 
L 907.897292 165.896862 
L 911.079446 170.210305 
L 914.2616 171.751527 
L 917.443753 182.401968 
L 920.625907 191.357025 
L 923.80806 191.357025 
L 926.990214 193.926233 
L 930.172368 196.661307 
L 933.354521 193.926233 
L 936.536675 202.72577 
L 939.718829 209.805346 
L 942.900982 209.805346 
L 942.900982 209.805346 
" style="fill:none;stroke:#525886;stroke-linecap:square;stroke-width:2;"/>
   </g>
   <g id="line2d_19">
    <path clip-path="url(#p2b94bd4993)" d="M 401.934864 199.585152 
L 405.117017 196.661307 
L 408.299171 188.934712 
L 411.481324 186.6434 
L 414.663478 182.401968 
L 417.845632 184.469644 
L 421.027785 184.469644 
L 424.209939 186.6434 
L 427.392093 184.469644 
L 430.574246 188.934712 
L 433.7564 186.6434 
L 436.938554 188.934712 
L 440.120707 180.430499 
L 443.302861 176.743048 
L 446.485014 165.896862 
L 449.667168 161.982178 
L 452.849322 163.247315 
L 456.031475 163.247315 
L 459.213629 157.268552 
L 462.395783 160.753716 
L 465.577936 159.559864 
L 468.76009 161.982178 
L 471.942244 164.551385 
L 475.124397 163.247315 
L 478.306551 165.896862 
L 481.488705 167.28646 
L 484.670858 164.551385 
L 487.853012 167.28646 
L 491.035165 164.551385 
L 494.217319 161.982178 
L 497.399473 155.094797 
L 500.581626 150.103276 
L 503.76378 149.171833 
L 506.945934 151.055651 
L 510.128087 150.103276 
L 513.310241 156.167739 
L 516.492395 160.753716 
L 519.674548 165.896862 
L 522.856702 170.210305 
L 526.038855 176.743048 
L 529.221009 178.54668 
L 532.403163 178.54668 
L 535.585316 180.430499 
L 538.76747 178.54668 
L 541.949624 178.54668 
L 545.131777 176.743048 
L 548.313931 171.751527 
L 554.678238 175.013055 
L 557.860392 171.751527 
L 561.042545 176.743048 
L 564.224699 173.350923 
L 567.406853 176.743048 
L 570.589006 182.401968 
L 573.77116 182.401968 
L 576.953314 176.743048 
L 580.135467 171.751527 
L 583.317621 167.28646 
L 589.681928 164.551385 
L 592.864082 164.551385 
L 596.046236 163.247315 
L 599.228389 165.896862 
L 605.592696 168.723172 
L 608.77485 173.350923 
L 611.957004 176.743048 
L 615.139157 176.743048 
L 618.321311 178.54668 
L 621.503465 176.743048 
L 624.685618 184.469644 
L 627.867772 180.430499 
L 631.049926 173.350923 
L 634.232079 171.751527 
L 637.414233 167.28646 
L 640.596386 164.551385 
L 643.77854 167.28646 
L 646.960694 160.753716 
L 650.142847 161.982178 
L 653.325001 154.04835 
L 656.507155 150.103276 
L 659.689308 154.04835 
L 666.053616 152.029923 
L 669.235769 157.268552 
L 672.417923 158.398725 
L 675.600077 173.350923 
L 678.78223 167.28646 
L 681.964384 161.982178 
L 685.146537 158.398725 
L 688.328691 154.04835 
L 691.510845 142.37668 
L 694.692998 142.37668 
L 697.875152 139.348324 
L 701.057306 143.976075 
L 704.239459 144.798993 
L 707.421613 138.62388 
L 710.603767 139.348324 
L 713.78592 143.168833 
L 716.968074 141.599063 
L 720.150227 138.62388 
L 723.332381 139.348324 
L 726.514535 139.348324 
L 729.696688 150.103276 
L 732.878842 149.171833 
L 736.060996 152.029923 
L 739.243149 152.029923 
L 742.425303 160.753716 
L 748.78961 158.398725 
L 751.971764 149.171833 
L 755.153918 148.260422 
L 758.336071 152.029923 
L 761.518225 154.04835 
L 764.700378 144.798993 
L 767.882532 143.168833 
L 771.064686 142.37668 
L 774.246839 147.368201 
L 777.428993 154.04835 
L 780.611147 153.027121 
L 783.7933 151.055651 
L 786.975454 159.559864 
L 790.157608 165.896862 
L 793.339761 158.398725 
L 796.521915 158.398725 
L 799.704068 151.055651 
L 802.886222 153.027121 
L 806.068376 152.029923 
L 812.432683 154.04835 
L 815.614837 164.551385 
L 818.79699 167.28646 
L 821.979144 175.013055 
L 825.161298 167.28646 
L 828.343451 158.398725 
L 831.525605 160.753716 
L 834.707759 154.04835 
L 841.072066 156.167739 
L 844.254219 153.027121 
L 847.436373 155.094797 
L 850.618527 164.551385 
L 853.80068 161.982178 
L 856.982834 164.551385 
L 860.164988 164.551385 
L 863.347141 156.167739 
L 869.711449 160.753716 
L 876.075756 163.247315 
L 879.257909 167.28646 
L 882.440063 170.210305 
L 885.622217 184.469644 
L 888.80437 191.357025 
L 891.986524 193.926233 
L 895.168678 202.72577 
L 898.350831 209.805346 
L 901.532985 209.805346 
L 904.715139 213.844492 
L 907.897292 209.805346 
L 911.079446 206.117896 
L 914.2616 206.117896 
L 917.443753 191.357025 
L 920.625907 193.926233 
L 923.80806 196.661307 
L 930.172368 196.661307 
L 933.354521 199.585152 
L 936.536675 202.72577 
L 939.718829 223.30108 
L 942.900982 218.309559 
L 946.083136 209.805346 
L 946.083136 209.805346 
" style="fill:none;stroke:#937252;stroke-linecap:square;stroke-width:2;"/>
   </g>
   <g id="line2d_20">
    <path clip-path="url(#p2b94bd4993)" d="M 90.083807 170.210305 
L 93.26596 173.350923 
L 96.448114 167.28646 
L 99.630268 165.896862 
L 102.812421 163.247315 
L 105.994575 161.982178 
L 109.176729 161.982178 
L 112.358882 163.247315 
L 115.541036 157.268552 
L 118.72319 158.398725 
L 121.905343 155.094797 
L 125.087497 149.171833 
L 128.26965 148.260422 
L 131.451804 148.260422 
L 134.633958 144.798993 
L 137.816111 150.103276 
L 140.998265 151.055651 
L 144.180419 157.268552 
L 147.362572 168.723172 
L 150.544726 170.210305 
L 153.72688 168.723172 
L 156.909033 161.982178 
L 160.091187 153.027121 
L 163.273341 154.04835 
L 166.455494 151.055651 
L 169.637648 148.260422 
L 176.001955 150.103276 
L 179.184109 161.982178 
L 182.366262 178.54668 
L 188.73057 178.54668 
L 191.912723 175.013055 
L 195.094877 163.247315 
L 198.277031 163.247315 
L 201.459184 152.029923 
L 204.641338 146.494377 
L 207.823491 143.168833 
L 211.005645 133.872467 
L 214.187799 135.843936 
L 217.369952 141.599063 
L 220.552106 140.085368 
L 223.73426 143.976075 
L 226.916413 140.835457 
L 230.098567 138.62388 
L 233.280721 139.348324 
L 236.462874 129.60047 
L 239.645028 126.253025 
L 242.827182 127.339724 
L 246.009335 123.652273 
L 249.191489 122.655076 
L 252.373642 117.993353 
L 255.555796 117.993353 
L 258.73795 120.728428 
L 261.920103 116.689283 
L 265.102257 115.841676 
L 268.284411 107.147167 
L 271.466564 102.922013 
L 274.648718 99.363648 
L 277.830872 97.418044 
L 281.013025 94.277426 
L 284.195179 96.081057 
L 287.377332 96.610801 
L 290.559486 105.144639 
L 293.74164 109.973477 
L 296.923793 115.841676 
L 300.105947 112.61124 
L 303.288101 112.224215 
L 306.470254 114.601228 
L 309.652408 113.001832 
L 312.834562 112.224215 
L 316.016715 110.710521 
L 319.198869 103.232483 
L 322.381023 98.518857 
L 325.563176 95.298655 
L 328.74533 92.305956 
L 331.927483 92.547433 
L 335.109637 86.466828 
L 338.291791 76.926404 
L 341.473944 78.288094 
L 344.656098 84.219707 
L 347.838252 90.422138 
L 351.020405 92.547433 
L 354.202559 92.065848 
L 357.384713 95.557854 
L 360.566866 95.557854 
L 363.74902 99.363648 
L 370.113327 93.280228 
L 373.295481 91.118793 
L 376.477634 88.618506 
L 379.659788 79.874185 
L 382.841942 88.839806 
L 386.024095 83.431239 
L 392.388403 80.781692 
L 395.570556 81.335673 
L 398.75271 83.042438 
L 401.934864 85.430617 
L 405.117017 77.943547 
L 408.299171 82.657173 
L 411.481324 78.461423 
L 414.663478 72.028044 
L 417.845632 72.47809 
L 421.027785 71.435322 
L 424.209939 65.155588 
L 427.392093 64.401046 
L 430.574246 59.464959 
L 433.7564 58.804494 
L 436.938554 64.276585 
L 440.120707 62.810885 
L 443.302861 61.978733 
L 446.485014 62.931109 
L 449.667168 57.832705 
L 452.849322 55.851533 
L 456.031475 56.882702 
L 459.213629 57.091981 
L 462.395783 54.448792 
L 465.577936 54.154151 
L 468.76009 45.031644 
L 471.942244 42.578651 
L 475.124397 41.403423 
L 478.306551 40.048892 
L 481.488705 37.199955 
L 484.670858 38.804397 
L 487.853012 38.736318 
L 491.035165 44.172318 
L 494.217319 48.654574 
L 500.581626 52.616425 
L 503.76378 53.764457 
L 506.945934 53.861545 
L 510.128087 55.244664 
L 513.310241 60.023319 
L 516.492395 66.574802 
L 519.674548 74.013727 
L 522.856702 69.283644 
L 526.038855 65.410117 
L 529.221009 65.282661 
L 532.403163 61.394187 
L 535.585316 64.028755 
L 538.76747 64.028755 
L 541.949624 61.978733 
L 545.131777 66.970254 
L 548.313931 74.643909 
L 551.496085 76.097044 
L 554.678238 81.709058 
L 557.860392 79.338865 
L 561.042545 74.013727 
L 564.224699 74.80293 
L 567.406853 76.759228 
L 570.589006 72.327543 
L 573.77116 72.629174 
L 576.953314 73.085684 
L 580.135467 75.445047 
L 583.317621 80.234859 
L 586.499775 82.275378 
L 589.681928 81.709058 
L 592.864082 87.314435 
L 596.046236 88.398355 
L 599.228389 85.023124 
L 602.410543 87.529013 
L 605.592696 87.100939 
L 608.77485 81.521954 
L 611.957004 80.598629 
L 615.139157 80.416354 
L 618.321311 77.943547 
L 621.503465 78.985705 
L 624.685618 80.781692 
L 627.867772 81.150207 
L 631.049926 87.744682 
L 634.232079 92.065848 
L 637.414233 95.041031 
L 640.596386 97.418044 
L 643.77854 99.936346 
L 646.960694 94.277426 
L 650.142847 93.527336 
L 653.325001 91.118793 
L 656.507155 88.179342 
L 659.689308 85.430617 
L 662.871462 82.275378 
L 666.053616 79.694993 
L 669.235769 76.926404 
L 672.417923 78.810223 
L 678.78223 68.727847 
L 681.964384 66.053209 
L 685.146537 66.443801 
L 688.328691 66.443801 
L 691.510845 69.004834 
L 694.692998 66.838026 
L 697.875152 71.142041 
L 701.057306 77.094241 
L 704.239459 80.781692 
L 707.421613 81.896992 
L 710.603767 84.419138 
L 713.78592 88.398355 
L 716.968074 88.839806 
L 720.150227 88.179342 
L 723.332381 91.35358 
L 726.514535 94.025918 
L 729.696688 95.557854 
L 732.878842 96.345102 
L 736.060996 98.518857 
L 739.243149 105.144639 
L 742.425303 109.973477 
L 745.607457 110.710521 
L 748.78961 111.083906 
L 751.971764 113.001832 
L 755.153918 113.396058 
L 758.336071 119.33883 
L 761.518225 119.796985 
L 764.700378 115.424146 
L 767.882532 113.396058 
L 771.064686 112.61124 
L 774.246839 111.083906 
L 777.428993 106.134076 
L 780.611147 100.810169 
L 783.7933 98.240962 
L 786.975454 98.240962 
L 793.339761 105.144639 
L 796.521915 104.819895 
L 799.704068 108.891402 
L 802.886222 112.224215 
L 806.068376 112.61124 
L 809.250529 112.61124 
L 812.432683 105.144639 
L 815.614837 99.080176 
L 821.979144 96.878177 
L 825.161298 94.530435 
L 828.343451 99.080176 
L 831.525605 100.225623 
L 834.707759 105.80169 
L 837.889912 110.340396 
L 841.072066 113.001832 
L 844.254219 114.601228 
L 847.436373 113.001832 
L 850.618527 108.536765 
L 853.80068 108.18507 
L 856.982834 106.469089 
L 860.164988 108.18507 
L 863.347141 111.083906 
L 866.529295 112.61124 
L 869.711449 124.159812 
L 872.893602 131.378869 
L 876.075756 146.494377 
L 879.257909 155.094797 
L 882.440063 164.551385 
L 885.622217 165.896862 
L 888.80437 170.210305 
L 891.986524 161.982178 
L 895.168678 170.210305 
L 898.350831 170.210305 
L 901.532985 171.751527 
L 904.715139 149.171833 
L 907.897292 143.976075 
L 911.079446 144.798993 
L 914.2616 151.055651 
L 917.443753 147.368201 
L 923.80806 149.171833 
L 923.80806 149.171833 
" style="fill:none;stroke:#d18cad;stroke-linecap:square;stroke-width:2;"/>
   </g>
   <g id="line2d_21">
    <path clip-path="url(#p2b94bd4993)" d="M 408.299171 223.30108 
L 411.481324 228.96 
L 430.574246 228.96 
L 433.7564 218.309559 
L 436.938554 213.844492 
L 440.120707 206.117896 
L 446.485014 206.117896 
L 449.667168 196.661307 
L 452.849322 196.661307 
L 456.031475 199.585152 
L 459.213629 202.72577 
L 462.395783 209.805346 
L 465.577936 209.805346 
L 468.76009 202.72577 
L 471.942244 213.844492 
L 475.124397 202.72577 
L 478.306551 206.117896 
L 481.488705 199.585152 
L 484.670858 196.661307 
L 487.853012 196.661307 
L 491.035165 199.585152 
L 494.217319 191.357025 
L 497.399473 199.585152 
L 500.581626 193.926233 
L 503.76378 191.357025 
L 506.945934 193.926233 
L 510.128087 188.934712 
L 513.310241 188.934712 
L 516.492395 196.661307 
L 519.674548 196.661307 
L 522.856702 202.72577 
L 526.038855 209.805346 
L 529.221009 209.805346 
L 532.403163 213.844492 
L 535.585316 213.844492 
L 538.76747 206.117896 
L 541.949624 202.72577 
L 545.131777 199.585152 
L 548.313931 202.72577 
L 551.496085 202.72577 
L 554.678238 206.117896 
L 557.860392 209.805346 
L 561.042545 218.309559 
L 564.224699 218.309559 
L 567.406853 223.30108 
L 570.589006 218.309559 
L 573.77116 218.309559 
L 576.953314 213.844492 
L 589.681928 213.844492 
L 592.864082 218.309559 
L 596.046236 218.309559 
L 599.228389 223.30108 
L 605.592696 223.30108 
L 608.77485 228.96 
L 615.139157 228.96 
L 618.321311 223.30108 
L 621.503465 223.30108 
L 624.685618 218.309559 
L 637.414233 218.309559 
L 640.596386 223.30108 
L 643.77854 223.30108 
L 646.960694 228.96 
L 650.142847 223.30108 
L 653.325001 213.844492 
L 659.689308 213.844492 
L 662.871462 206.117896 
L 666.053616 206.117896 
L 669.235769 202.72577 
L 672.417923 199.585152 
L 675.600077 206.117896 
L 681.964384 206.117896 
L 685.146537 213.844492 
L 691.510845 213.844492 
L 694.692998 223.30108 
L 697.875152 223.30108 
L 701.057306 218.309559 
L 704.239459 209.805346 
L 710.603767 209.805346 
L 713.78592 213.844492 
L 716.968074 209.805346 
L 720.150227 206.117896 
L 723.332381 209.805346 
L 726.514535 213.844492 
L 729.696688 209.805346 
L 736.060996 209.805346 
L 739.243149 213.844492 
L 742.425303 218.309559 
L 745.607457 218.309559 
L 748.78961 223.30108 
L 751.971764 228.96 
L 755.153918 223.30108 
L 758.336071 218.309559 
L 761.518225 213.844492 
L 767.882532 213.844492 
L 771.064686 209.805346 
L 774.246839 206.117896 
L 777.428993 206.117896 
L 780.611147 209.805346 
L 790.157608 209.805346 
L 793.339761 213.844492 
L 796.521915 209.805346 
L 806.068376 209.805346 
L 809.250529 206.117896 
L 812.432683 206.117896 
L 815.614837 196.661307 
L 818.79699 202.72577 
L 828.343451 202.72577 
L 831.525605 206.117896 
L 834.707759 206.117896 
L 837.889912 218.309559 
L 841.072066 213.844492 
L 844.254219 218.309559 
L 847.436373 218.309559 
L 850.618527 223.30108 
L 860.164988 223.30108 
L 863.347141 228.96 
L 866.529295 228.96 
L 869.711449 218.309559 
L 888.80437 218.309559 
L 891.986524 223.30108 
L 895.168678 218.309559 
L 898.350831 218.309559 
L 901.532985 213.844492 
L 904.715139 213.844492 
L 907.897292 209.805346 
L 911.079446 206.117896 
L 914.2616 209.805346 
L 917.443753 213.844492 
L 920.625907 213.844492 
L 923.80806 218.309559 
L 926.990214 218.309559 
L 930.172368 223.30108 
L 933.354521 228.96 
L 949.26529 228.96 
L 952.447443 223.30108 
L 952.447443 223.30108 
" style="fill:none;stroke:#a4a86f;stroke-linecap:square;stroke-width:2;"/>
   </g>
   <g id="line2d_22">
    <path clip-path="url(#p2b94bd4993)" d="M 653.325001 218.309559 
L 656.507155 223.30108 
L 659.689308 228.96 
L 662.871462 228.96 
L 666.053616 223.30108 
L 669.235769 223.30108 
L 672.417923 218.309559 
L 675.600077 213.844492 
L 678.78223 213.844492 
L 681.964384 213.844492 
L 685.146537 213.844492 
L 688.328691 218.309559 
L 691.510845 218.309559 
L 694.692998 223.30108 
L 697.875152 228.96 
L 701.057306 228.96 
L 704.239459 223.30108 
L 707.421613 218.309559 
L 710.603767 218.309559 
L 713.78592 209.805346 
L 716.968074 209.805346 
L 720.150227 209.805346 
L 723.332381 209.805346 
L 726.514535 213.844492 
L 729.696688 218.309559 
L 732.878842 218.309559 
L 736.060996 228.96 
L 739.243149 228.96 
L 742.425303 223.30108 
L 745.607457 223.30108 
L 748.78961 223.30108 
L 751.971764 223.30108 
L 755.153918 223.30108 
L 758.336071 213.844492 
L 761.518225 206.117896 
L 764.700378 209.805346 
L 767.882532 209.805346 
L 771.064686 209.805346 
L 774.246839 202.72577 
L 777.428993 202.72577 
L 780.611147 209.805346 
L 783.7933 218.309559 
L 786.975454 218.309559 
L 790.157608 218.309559 
L 793.339761 218.309559 
L 796.521915 228.96 
L 799.704068 228.96 
L 802.886222 228.96 
L 806.068376 228.96 
L 809.250529 228.96 
L 812.432683 228.96 
L 815.614837 228.96 
L 818.79699 223.30108 
" style="fill:none;stroke:#d3d3d3;stroke-linecap:square;stroke-width:2;"/>
   </g>
   <g id="patch_3">
    <path d="M 46.965625 228.96 
L 46.965625 7.2 
" style="fill:none;stroke:#000000;stroke-linecap:square;stroke-linejoin:miter;stroke-width:0.8;"/>
   </g>
   <g id="patch_4">
    <path d="M 46.965625 228.96 
L 995.565625 228.96 
" style="fill:none;stroke:#000000;stroke-linecap:square;stroke-linejoin:miter;stroke-width:0.8;"/>
   </g>
   <g id="legend_1">
    <g id="line2d_23">
     <path d="M 54.165625 17.67875 
L 70.165625 17.67875 
" style="fill:none;stroke:#947383;stroke-linecap:square;stroke-width:2;"/>
    </g>
    <g id="line2d_24"/>
    <g id="text_18">
     <!-- North America -->
     <g transform="translate(76.565625 20.47875)scale(0.08 -0.08)">
      <defs>
       <path d="M 9.8125 72.90625 
L 23.09375 72.90625 
L 55.421875 11.921875 
L 55.421875 72.90625 
L 64.984375 72.90625 
L 64.984375 0 
L 51.703125 0 
L 19.390625 60.984375 
L 19.390625 0 
L 9.8125 0 
z
" id="DejaVuSans-78"/>
       <path d="M 54.890625 33.015625 
L 54.890625 0 
L 45.90625 0 
L 45.90625 32.71875 
Q 45.90625 40.484375 42.875 44.328125 
Q 39.84375 48.1875 33.796875 48.1875 
Q 26.515625 48.1875 22.3125 43.546875 
Q 18.109375 38.921875 18.109375 30.90625 
L 18.109375 0 
L 9.078125 0 
L 9.078125 75.984375 
L 18.109375 75.984375 
L 18.109375 46.1875 
Q 21.34375 51.125 25.703125 53.5625 
Q 30.078125 56 35.796875 56 
Q 45.21875 56 50.046875 50.171875 
Q 54.890625 44.34375 54.890625 33.015625 
z
" id="DejaVuSans-104"/>
       <path d="M 34.1875 63.1875 
L 20.796875 26.90625 
L 47.609375 26.90625 
z
M 28.609375 72.90625 
L 39.796875 72.90625 
L 67.578125 0 
L 57.328125 0 
L 50.6875 18.703125 
L 17.828125 18.703125 
L 11.1875 0 
L 0.78125 0 
z
" id="DejaVuSans-65"/>
       <path d="M 52 44.1875 
Q 55.375 50.25 60.0625 53.125 
Q 64.75 56 71.09375 56 
Q 79.640625 56 84.28125 50.015625 
Q 88.921875 44.046875 88.921875 33.015625 
L 88.921875 0 
L 79.890625 0 
L 79.890625 32.71875 
Q 79.890625 40.578125 77.09375 44.375 
Q 74.3125 48.1875 68.609375 48.1875 
Q 61.625 48.1875 57.5625 43.546875 
Q 53.515625 38.921875 53.515625 30.90625 
L 53.515625 0 
L 44.484375 0 
L 44.484375 32.71875 
Q 44.484375 40.625 41.703125 44.40625 
Q 38.921875 48.1875 33.109375 48.1875 
Q 26.21875 48.1875 22.15625 43.53125 
Q 18.109375 38.875 18.109375 30.90625 
L 18.109375 0 
L 9.078125 0 
L 9.078125 54.6875 
L 18.109375 54.6875 
L 18.109375 46.1875 
Q 21.1875 51.21875 25.484375 53.609375 
Q 29.78125 56 35.6875 56 
Q 41.65625 56 45.828125 52.96875 
Q 50 49.953125 52 44.1875 
z
" id="DejaVuSans-109"/>
       <path d="M 48.78125 52.59375 
L 48.78125 44.1875 
Q 44.96875 46.296875 41.140625 47.34375 
Q 37.3125 48.390625 33.40625 48.390625 
Q 24.65625 48.390625 19.8125 42.84375 
Q 14.984375 37.3125 14.984375 27.296875 
Q 14.984375 17.28125 19.8125 11.734375 
Q 24.65625 6.203125 33.40625 6.203125 
Q 37.3125 6.203125 41.140625 7.25 
Q 44.96875 8.296875 48.78125 10.40625 
L 48.78125 2.09375 
Q 45.015625 0.34375 40.984375 -0.53125 
Q 36.96875 -1.421875 32.421875 -1.421875 
Q 20.0625 -1.421875 12.78125 6.34375 
Q 5.515625 14.109375 5.515625 27.296875 
Q 5.515625 40.671875 12.859375 48.328125 
Q 20.21875 56 33.015625 56 
Q 37.15625 56 41.109375 55.140625 
Q 45.0625 54.296875 48.78125 52.59375 
z
" id="DejaVuSans-99"/>
      </defs>
      <use xlink:href="#DejaVuSans-78"/>
      <use x="74.804688" xlink:href="#DejaVuSans-111"/>
      <use x="135.986328" xlink:href="#DejaVuSans-114"/>
      <use x="177.099609" xlink:href="#DejaVuSans-116"/>
      <use x="216.308594" xlink:href="#DejaVuSans-104"/>
      <use x="279.6875" xlink:href="#DejaVuSans-32"/>
      <use x="311.474609" xlink:href="#DejaVuSans-65"/>
      <use x="379.882812" xlink:href="#DejaVuSans-109"/>
      <use x="477.294922" xlink:href="#DejaVuSans-101"/>
      <use x="538.818359" xlink:href="#DejaVuSans-114"/>
      <use x="579.931641" xlink:href="#DejaVuSans-105"/>
      <use x="607.714844" xlink:href="#DejaVuSans-99"/>
      <use x="662.695312" xlink:href="#DejaVuSans-97"/>
     </g>
    </g>
    <g id="line2d_25">
     <path d="M 54.165625 29.42125 
L 70.165625 29.42125 
" style="fill:none;stroke:#96c6ad;stroke-linecap:square;stroke-width:2;"/>
    </g>
    <g id="line2d_26"/>
    <g id="text_19">
     <!-- Europe -->
     <g transform="translate(76.565625 32.22125)scale(0.08 -0.08)">
      <defs>
       <path d="M 9.8125 72.90625 
L 55.90625 72.90625 
L 55.90625 64.59375 
L 19.671875 64.59375 
L 19.671875 43.015625 
L 54.390625 43.015625 
L 54.390625 34.71875 
L 19.671875 34.71875 
L 19.671875 8.296875 
L 56.78125 8.296875 
L 56.78125 0 
L 9.8125 0 
z
" id="DejaVuSans-69"/>
       <path d="M 18.109375 8.203125 
L 18.109375 -20.796875 
L 9.078125 -20.796875 
L 9.078125 54.6875 
L 18.109375 54.6875 
L 18.109375 46.390625 
Q 20.953125 51.265625 25.265625 53.625 
Q 29.59375 56 35.59375 56 
Q 45.5625 56 51.78125 48.09375 
Q 58.015625 40.1875 58.015625 27.296875 
Q 58.015625 14.40625 51.78125 6.484375 
Q 45.5625 -1.421875 35.59375 -1.421875 
Q 29.59375 -1.421875 25.265625 0.953125 
Q 20.953125 3.328125 18.109375 8.203125 
z
M 48.6875 27.296875 
Q 48.6875 37.203125 44.609375 42.84375 
Q 40.53125 48.484375 33.40625 48.484375 
Q 26.265625 48.484375 22.1875 42.84375 
Q 18.109375 37.203125 18.109375 27.296875 
Q 18.109375 17.390625 22.1875 11.75 
Q 26.265625 6.109375 33.40625 6.109375 
Q 40.53125 6.109375 44.609375 11.75 
Q 48.6875 17.390625 48.6875 27.296875 
z
" id="DejaVuSans-112"/>
      </defs>
      <use xlink:href="#DejaVuSans-69"/>
      <use x="63.183594" xlink:href="#DejaVuSans-117"/>
      <use x="126.5625" xlink:href="#DejaVuSans-114"/>
      <use x="165.425781" xlink:href="#DejaVuSans-111"/>
      <use x="226.607422" xlink:href="#DejaVuSans-112"/>
      <use x="290.083984" xlink:href="#DejaVuSans-101"/>
     </g>
    </g>
    <g id="line2d_27">
     <path d="M 54.165625 41.16375 
L 70.165625 41.16375 
" style="fill:none;stroke:#525886;stroke-linecap:square;stroke-width:2;"/>
    </g>
    <g id="line2d_28"/>
    <g id="text_20">
     <!-- Asia -->
     <g transform="translate(76.565625 43.96375)scale(0.08 -0.08)">
      <defs>
       <path d="M 44.28125 53.078125 
L 44.28125 44.578125 
Q 40.484375 46.53125 36.375 47.5 
Q 32.28125 48.484375 27.875 48.484375 
Q 21.1875 48.484375 17.84375 46.4375 
Q 14.5 44.390625 14.5 40.28125 
Q 14.5 37.15625 16.890625 35.375 
Q 19.28125 33.59375 26.515625 31.984375 
L 29.59375 31.296875 
Q 39.15625 29.25 43.1875 25.515625 
Q 47.21875 21.78125 47.21875 15.09375 
Q 47.21875 7.46875 41.1875 3.015625 
Q 35.15625 -1.421875 24.609375 -1.421875 
Q 20.21875 -1.421875 15.453125 -0.5625 
Q 10.6875 0.296875 5.421875 2 
L 5.421875 11.28125 
Q 10.40625 8.6875 15.234375 7.390625 
Q 20.0625 6.109375 24.8125 6.109375 
Q 31.15625 6.109375 34.5625 8.28125 
Q 37.984375 10.453125 37.984375 14.40625 
Q 37.984375 18.0625 35.515625 20.015625 
Q 33.0625 21.96875 24.703125 23.78125 
L 21.578125 24.515625 
Q 13.234375 26.265625 9.515625 29.90625 
Q 5.8125 33.546875 5.8125 39.890625 
Q 5.8125 47.609375 11.28125 51.796875 
Q 16.75 56 26.8125 56 
Q 31.78125 56 36.171875 55.265625 
Q 40.578125 54.546875 44.28125 53.078125 
z
" id="DejaVuSans-115"/>
      </defs>
      <use xlink:href="#DejaVuSans-65"/>
      <use x="68.408203" xlink:href="#DejaVuSans-115"/>
      <use x="120.507812" xlink:href="#DejaVuSans-105"/>
      <use x="148.291016" xlink:href="#DejaVuSans-97"/>
     </g>
    </g>
    <g id="line2d_29">
     <path d="M 54.165625 52.90625 
L 70.165625 52.90625 
" style="fill:none;stroke:#937252;stroke-linecap:square;stroke-width:2;"/>
    </g>
    <g id="line2d_30"/>
    <g id="text_21">
     <!-- United Kingdom -->
     <g transform="translate(76.565625 55.70625)scale(0.08 -0.08)">
      <defs>
       <path d="M 8.6875 72.90625 
L 18.609375 72.90625 
L 18.609375 28.609375 
Q 18.609375 16.890625 22.84375 11.734375 
Q 27.09375 6.59375 36.625 6.59375 
Q 46.09375 6.59375 50.34375 11.734375 
Q 54.59375 16.890625 54.59375 28.609375 
L 54.59375 72.90625 
L 64.5 72.90625 
L 64.5 27.390625 
Q 64.5 13.140625 57.4375 5.859375 
Q 50.390625 -1.421875 36.625 -1.421875 
Q 22.796875 -1.421875 15.734375 5.859375 
Q 8.6875 13.140625 8.6875 27.390625 
z
" id="DejaVuSans-85"/>
       <path d="M 9.8125 72.90625 
L 19.671875 72.90625 
L 19.671875 42.09375 
L 52.390625 72.90625 
L 65.09375 72.90625 
L 28.90625 38.921875 
L 67.671875 0 
L 54.6875 0 
L 19.671875 35.109375 
L 19.671875 0 
L 9.8125 0 
z
" id="DejaVuSans-75"/>
      </defs>
      <use xlink:href="#DejaVuSans-85"/>
      <use x="73.193359" xlink:href="#DejaVuSans-110"/>
      <use x="136.572266" xlink:href="#DejaVuSans-105"/>
      <use x="164.355469" xlink:href="#DejaVuSans-116"/>
      <use x="203.564453" xlink:href="#DejaVuSans-101"/>
      <use x="265.087891" xlink:href="#DejaVuSans-100"/>
      <use x="328.564453" xlink:href="#DejaVuSans-32"/>
      <use x="360.351562" xlink:href="#DejaVuSans-75"/>
      <use x="425.927734" xlink:href="#DejaVuSans-105"/>
      <use x="453.710938" xlink:href="#DejaVuSans-110"/>
      <use x="517.089844" xlink:href="#DejaVuSans-103"/>
      <use x="580.566406" xlink:href="#DejaVuSans-100"/>
      <use x="644.042969" xlink:href="#DejaVuSans-111"/>
      <use x="705.224609" xlink:href="#DejaVuSans-109"/>
     </g>
    </g>
    <g id="line2d_31">
     <path d="M 54.165625 64.64875 
L 70.165625 64.64875 
" style="fill:none;stroke:#d18cad;stroke-linecap:square;stroke-width:2;"/>
    </g>
    <g id="line2d_32"/>
    <g id="text_22">
     <!-- Africa -->
     <g transform="translate(76.565625 67.44875)scale(0.08 -0.08)">
      <defs>
       <path d="M 37.109375 75.984375 
L 37.109375 68.5 
L 28.515625 68.5 
Q 23.6875 68.5 21.796875 66.546875 
Q 19.921875 64.59375 19.921875 59.515625 
L 19.921875 54.6875 
L 34.71875 54.6875 
L 34.71875 47.703125 
L 19.921875 47.703125 
L 19.921875 0 
L 10.890625 0 
L 10.890625 47.703125 
L 2.296875 47.703125 
L 2.296875 54.6875 
L 10.890625 54.6875 
L 10.890625 58.5 
Q 10.890625 67.625 15.140625 71.796875 
Q 19.390625 75.984375 28.609375 75.984375 
z
" id="DejaVuSans-102"/>
      </defs>
      <use xlink:href="#DejaVuSans-65"/>
      <use x="64.783203" xlink:href="#DejaVuSans-102"/>
      <use x="99.988281" xlink:href="#DejaVuSans-114"/>
      <use x="141.101562" xlink:href="#DejaVuSans-105"/>
      <use x="168.884766" xlink:href="#DejaVuSans-99"/>
      <use x="223.865234" xlink:href="#DejaVuSans-97"/>
     </g>
    </g>
    <g id="line2d_33">
     <path d="M 54.165625 76.39125 
L 70.165625 76.39125 
" style="fill:none;stroke:#a4a86f;stroke-linecap:square;stroke-width:2;"/>
    </g>
    <g id="line2d_34"/>
    <g id="text_23">
     <!-- Oceania -->
     <g transform="translate(76.565625 79.19125)scale(0.08 -0.08)">
      <defs>
       <path d="M 39.40625 66.21875 
Q 28.65625 66.21875 22.328125 58.203125 
Q 16.015625 50.203125 16.015625 36.375 
Q 16.015625 22.609375 22.328125 14.59375 
Q 28.65625 6.59375 39.40625 6.59375 
Q 50.140625 6.59375 56.421875 14.59375 
Q 62.703125 22.609375 62.703125 36.375 
Q 62.703125 50.203125 56.421875 58.203125 
Q 50.140625 66.21875 39.40625 66.21875 
z
M 39.40625 74.21875 
Q 54.734375 74.21875 63.90625 63.9375 
Q 73.09375 53.65625 73.09375 36.375 
Q 73.09375 19.140625 63.90625 8.859375 
Q 54.734375 -1.421875 39.40625 -1.421875 
Q 24.03125 -1.421875 14.8125 8.828125 
Q 5.609375 19.09375 5.609375 36.375 
Q 5.609375 53.65625 14.8125 63.9375 
Q 24.03125 74.21875 39.40625 74.21875 
z
" id="DejaVuSans-79"/>
      </defs>
      <use xlink:href="#DejaVuSans-79"/>
      <use x="78.710938" xlink:href="#DejaVuSans-99"/>
      <use x="133.691406" xlink:href="#DejaVuSans-101"/>
      <use x="195.214844" xlink:href="#DejaVuSans-97"/>
      <use x="256.494141" xlink:href="#DejaVuSans-110"/>
      <use x="319.873047" xlink:href="#DejaVuSans-105"/>
      <use x="347.65625" xlink:href="#DejaVuSans-97"/>
     </g>
    </g>
    <g id="line2d_35">
     <path d="M 54.165625 88.13375 
L 70.165625 88.13375 
" style="fill:none;stroke:#d3d3d3;stroke-linecap:square;stroke-width:2;"/>
    </g>
    <g id="line2d_36"/>
    <g id="text_24">
     <!-- South America -->
     <g transform="translate(76.565625 90.93375)scale(0.08 -0.08)">
      <defs>
       <path d="M 53.515625 70.515625 
L 53.515625 60.890625 
Q 47.90625 63.578125 42.921875 64.890625 
Q 37.9375 66.21875 33.296875 66.21875 
Q 25.25 66.21875 20.875 63.09375 
Q 16.5 59.96875 16.5 54.203125 
Q 16.5 49.359375 19.40625 46.890625 
Q 22.3125 44.4375 30.421875 42.921875 
L 36.375 41.703125 
Q 47.40625 39.59375 52.65625 34.296875 
Q 57.90625 29 57.90625 20.125 
Q 57.90625 9.515625 50.796875 4.046875 
Q 43.703125 -1.421875 29.984375 -1.421875 
Q 24.8125 -1.421875 18.96875 -0.25 
Q 13.140625 0.921875 6.890625 3.21875 
L 6.890625 13.375 
Q 12.890625 10.015625 18.65625 8.296875 
Q 24.421875 6.59375 29.984375 6.59375 
Q 38.421875 6.59375 43.015625 9.90625 
Q 47.609375 13.234375 47.609375 19.390625 
Q 47.609375 24.75 44.3125 27.78125 
Q 41.015625 30.8125 33.5 32.328125 
L 27.484375 33.5 
Q 16.453125 35.6875 11.515625 40.375 
Q 6.59375 45.0625 6.59375 53.421875 
Q 6.59375 63.09375 13.40625 68.65625 
Q 20.21875 74.21875 32.171875 74.21875 
Q 37.3125 74.21875 42.625 73.28125 
Q 47.953125 72.359375 53.515625 70.515625 
z
" id="DejaVuSans-83"/>
      </defs>
      <use xlink:href="#DejaVuSans-83"/>
      <use x="63.476562" xlink:href="#DejaVuSans-111"/>
      <use x="124.658203" xlink:href="#DejaVuSans-117"/>
      <use x="188.037109" xlink:href="#DejaVuSans-116"/>
      <use x="227.246094" xlink:href="#DejaVuSans-104"/>
      <use x="290.625" xlink:href="#DejaVuSans-32"/>
      <use x="322.412109" xlink:href="#DejaVuSans-65"/>
      <use x="390.820312" xlink:href="#DejaVuSans-109"/>
      <use x="488.232422" xlink:href="#DejaVuSans-101"/>
      <use x="549.755859" xlink:href="#DejaVuSans-114"/>
      <use x="590.869141" xlink:href="#DejaVuSans-105"/>
      <use x="618.652344" xlink:href="#DejaVuSans-99"/>
      <use x="673.632812" xlink:href="#DejaVuSans-97"/>
     </g>
    </g>
   </g>
  </g>
 </g>
 <defs>
  <clipPath id="p2b94bd4993">
   <rect height="221.76" width="948.6" x="46.965625" y="7.2"/>
  </clipPath>
 </defs>
</svg>
