<?xml version="1.0" encoding="utf-8" standalone="no"?>
<!DOCTYPE svg PUBLIC "-//W3C//DTD SVG 1.1//EN"
  "http://www.w3.org/Graphics/SVG/1.1/DTD/svg11.dtd">
<!-- Created with matplotlib (https://matplotlib.org/) -->
<svg height="298.620937pt" version="1.1" viewBox="0 0 1009.128125 298.620937" width="1009.128125pt" xmlns="http://www.w3.org/2000/svg" xmlns:xlink="http://www.w3.org/1999/xlink">
 <metadata>
  <rdf:RDF xmlns:cc="http://creativecommons.org/ns#" xmlns:dc="http://purl.org/dc/elements/1.1/" xmlns:rdf="http://www.w3.org/1999/02/22-rdf-syntax-ns#">
   <cc:Work>
    <dc:type rdf:resource="http://purl.org/dc/dcmitype/StillImage"/>
    <dc:date>2021-04-02T07:07:59.235824</dc:date>
    <dc:format>image/svg+xml</dc:format>
    <dc:creator>
     <cc:Agent>
      <dc:title>Matplotlib v3.3.3, https://matplotlib.org/</dc:title>
     </cc:Agent>
    </dc:creator>
   </cc:Work>
  </rdf:RDF>
 </metadata>
 <defs>
  <style type="text/css">*{stroke-linecap:butt;stroke-linejoin:round;}</style>
 </defs>
 <g id="figure_1">
  <g id="patch_1">
   <path d="M 0 298.620937 
L 1009.128125 298.620937 
L 1009.128125 0 
L 0 0 
z
" style="fill:#ffffff;"/>
  </g>
  <g id="axes_1">
   <g id="patch_2">
    <path d="M 53.328125 228.96 
L 1001.928125 228.96 
L 1001.928125 7.2 
L 53.328125 7.2 
z
" style="fill:#ffffff;"/>
   </g>
   <g id="matplotlib.axis_1">
    <g id="xtick_1">
     <g id="line2d_1">
      <defs>
       <path d="M 0 0 
L 0 3.5 
" id="meb126621b0" style="stroke:#000000;stroke-width:0.8;"/>
      </defs>
      <g>
       <use style="stroke:#000000;stroke-width:0.8;" x="119.880101" xlink:href="#meb126621b0" y="228.96"/>
      </g>
     </g>
     <g id="text_1">
      <!-- 2020-10 -->
      <g transform="translate(122.639476 277.742812)rotate(-90)scale(0.1 -0.1)">
       <defs>
        <path d="M 19.1875 8.296875 
L 53.609375 8.296875 
L 53.609375 0 
L 7.328125 0 
L 7.328125 8.296875 
Q 12.9375 14.109375 22.625 23.890625 
Q 32.328125 33.6875 34.8125 36.53125 
Q 39.546875 41.84375 41.421875 45.53125 
Q 43.3125 49.21875 43.3125 52.78125 
Q 43.3125 58.59375 39.234375 62.25 
Q 35.15625 65.921875 28.609375 65.921875 
Q 23.96875 65.921875 18.8125 64.3125 
Q 13.671875 62.703125 7.8125 59.421875 
L 7.8125 69.390625 
Q 13.765625 71.78125 18.9375 73 
Q 24.125 74.21875 28.421875 74.21875 
Q 39.75 74.21875 46.484375 68.546875 
Q 53.21875 62.890625 53.21875 53.421875 
Q 53.21875 48.921875 51.53125 44.890625 
Q 49.859375 40.875 45.40625 35.40625 
Q 44.1875 33.984375 37.640625 27.21875 
Q 31.109375 20.453125 19.1875 8.296875 
z
" id="DejaVuSans-50"/>
        <path d="M 31.78125 66.40625 
Q 24.171875 66.40625 20.328125 58.90625 
Q 16.5 51.421875 16.5 36.375 
Q 16.5 21.390625 20.328125 13.890625 
Q 24.171875 6.390625 31.78125 6.390625 
Q 39.453125 6.390625 43.28125 13.890625 
Q 47.125 21.390625 47.125 36.375 
Q 47.125 51.421875 43.28125 58.90625 
Q 39.453125 66.40625 31.78125 66.40625 
z
M 31.78125 74.21875 
Q 44.046875 74.21875 50.515625 64.515625 
Q 56.984375 54.828125 56.984375 36.375 
Q 56.984375 17.96875 50.515625 8.265625 
Q 44.046875 -1.421875 31.78125 -1.421875 
Q 19.53125 -1.421875 13.0625 8.265625 
Q 6.59375 17.96875 6.59375 36.375 
Q 6.59375 54.828125 13.0625 64.515625 
Q 19.53125 74.21875 31.78125 74.21875 
z
" id="DejaVuSans-48"/>
        <path d="M 4.890625 31.390625 
L 31.203125 31.390625 
L 31.203125 23.390625 
L 4.890625 23.390625 
z
" id="DejaVuSans-45"/>
        <path d="M 12.40625 8.296875 
L 28.515625 8.296875 
L 28.515625 63.921875 
L 10.984375 60.40625 
L 10.984375 69.390625 
L 28.421875 72.90625 
L 38.28125 72.90625 
L 38.28125 8.296875 
L 54.390625 8.296875 
L 54.390625 0 
L 12.40625 0 
z
" id="DejaVuSans-49"/>
       </defs>
       <use xlink:href="#DejaVuSans-50"/>
       <use x="63.623047" xlink:href="#DejaVuSans-48"/>
       <use x="127.246094" xlink:href="#DejaVuSans-50"/>
       <use x="190.869141" xlink:href="#DejaVuSans-48"/>
       <use x="254.492188" xlink:href="#DejaVuSans-45"/>
       <use x="290.576172" xlink:href="#DejaVuSans-49"/>
       <use x="354.199219" xlink:href="#DejaVuSans-48"/>
      </g>
     </g>
    </g>
    <g id="xtick_2">
     <g id="line2d_2">
      <g>
       <use style="stroke:#000000;stroke-width:0.8;" x="265.169627" xlink:href="#meb126621b0" y="228.96"/>
      </g>
     </g>
     <g id="text_2">
      <!-- 2020-11 -->
      <g transform="translate(267.929002 277.742812)rotate(-90)scale(0.1 -0.1)">
       <use xlink:href="#DejaVuSans-50"/>
       <use x="63.623047" xlink:href="#DejaVuSans-48"/>
       <use x="127.246094" xlink:href="#DejaVuSans-50"/>
       <use x="190.869141" xlink:href="#DejaVuSans-48"/>
       <use x="254.492188" xlink:href="#DejaVuSans-45"/>
       <use x="290.576172" xlink:href="#DejaVuSans-49"/>
       <use x="354.199219" xlink:href="#DejaVuSans-49"/>
      </g>
     </g>
    </g>
    <g id="xtick_3">
     <g id="line2d_3">
      <g>
       <use style="stroke:#000000;stroke-width:0.8;" x="405.772394" xlink:href="#meb126621b0" y="228.96"/>
      </g>
     </g>
     <g id="text_3">
      <!-- 2020-12 -->
      <g transform="translate(408.531769 277.742812)rotate(-90)scale(0.1 -0.1)">
       <use xlink:href="#DejaVuSans-50"/>
       <use x="63.623047" xlink:href="#DejaVuSans-48"/>
       <use x="127.246094" xlink:href="#DejaVuSans-50"/>
       <use x="190.869141" xlink:href="#DejaVuSans-48"/>
       <use x="254.492188" xlink:href="#DejaVuSans-45"/>
       <use x="290.576172" xlink:href="#DejaVuSans-49"/>
       <use x="354.199219" xlink:href="#DejaVuSans-50"/>
      </g>
     </g>
    </g>
    <g id="xtick_4">
     <g id="line2d_4">
      <g>
       <use style="stroke:#000000;stroke-width:0.8;" x="551.061919" xlink:href="#meb126621b0" y="228.96"/>
      </g>
     </g>
     <g id="text_4">
      <!-- 2021-01 -->
      <g transform="translate(553.821294 277.742812)rotate(-90)scale(0.1 -0.1)">
       <use xlink:href="#DejaVuSans-50"/>
       <use x="63.623047" xlink:href="#DejaVuSans-48"/>
       <use x="127.246094" xlink:href="#DejaVuSans-50"/>
       <use x="190.869141" xlink:href="#DejaVuSans-49"/>
       <use x="254.492188" xlink:href="#DejaVuSans-45"/>
       <use x="290.576172" xlink:href="#DejaVuSans-48"/>
       <use x="354.199219" xlink:href="#DejaVuSans-49"/>
      </g>
     </g>
    </g>
    <g id="xtick_5">
     <g id="line2d_5">
      <g>
       <use style="stroke:#000000;stroke-width:0.8;" x="696.351445" xlink:href="#meb126621b0" y="228.96"/>
      </g>
     </g>
     <g id="text_5">
      <!-- 2021-02 -->
      <g transform="translate(699.11082 277.742812)rotate(-90)scale(0.1 -0.1)">
       <use xlink:href="#DejaVuSans-50"/>
       <use x="63.623047" xlink:href="#DejaVuSans-48"/>
       <use x="127.246094" xlink:href="#DejaVuSans-50"/>
       <use x="190.869141" xlink:href="#DejaVuSans-49"/>
       <use x="254.492188" xlink:href="#DejaVuSans-45"/>
       <use x="290.576172" xlink:href="#DejaVuSans-48"/>
       <use x="354.199219" xlink:href="#DejaVuSans-50"/>
      </g>
     </g>
    </g>
    <g id="xtick_6">
     <g id="line2d_6">
      <g>
       <use style="stroke:#000000;stroke-width:0.8;" x="827.580694" xlink:href="#meb126621b0" y="228.96"/>
      </g>
     </g>
     <g id="text_6">
      <!-- 2021-03 -->
      <g transform="translate(830.340069 277.742812)rotate(-90)scale(0.1 -0.1)">
       <defs>
        <path d="M 40.578125 39.3125 
Q 47.65625 37.796875 51.625 33 
Q 55.609375 28.21875 55.609375 21.1875 
Q 55.609375 10.40625 48.1875 4.484375 
Q 40.765625 -1.421875 27.09375 -1.421875 
Q 22.515625 -1.421875 17.65625 -0.515625 
Q 12.796875 0.390625 7.625 2.203125 
L 7.625 11.71875 
Q 11.71875 9.328125 16.59375 8.109375 
Q 21.484375 6.890625 26.8125 6.890625 
Q 36.078125 6.890625 40.9375 10.546875 
Q 45.796875 14.203125 45.796875 21.1875 
Q 45.796875 27.640625 41.28125 31.265625 
Q 36.765625 34.90625 28.71875 34.90625 
L 20.21875 34.90625 
L 20.21875 43.015625 
L 29.109375 43.015625 
Q 36.375 43.015625 40.234375 45.921875 
Q 44.09375 48.828125 44.09375 54.296875 
Q 44.09375 59.90625 40.109375 62.90625 
Q 36.140625 65.921875 28.71875 65.921875 
Q 24.65625 65.921875 20.015625 65.03125 
Q 15.375 64.15625 9.8125 62.3125 
L 9.8125 71.09375 
Q 15.4375 72.65625 20.34375 73.4375 
Q 25.25 74.21875 29.59375 74.21875 
Q 40.828125 74.21875 47.359375 69.109375 
Q 53.90625 64.015625 53.90625 55.328125 
Q 53.90625 49.265625 50.4375 45.09375 
Q 46.96875 40.921875 40.578125 39.3125 
z
" id="DejaVuSans-51"/>
       </defs>
       <use xlink:href="#DejaVuSans-50"/>
       <use x="63.623047" xlink:href="#DejaVuSans-48"/>
       <use x="127.246094" xlink:href="#DejaVuSans-50"/>
       <use x="190.869141" xlink:href="#DejaVuSans-49"/>
       <use x="254.492188" xlink:href="#DejaVuSans-45"/>
       <use x="290.576172" xlink:href="#DejaVuSans-48"/>
       <use x="354.199219" xlink:href="#DejaVuSans-51"/>
      </g>
     </g>
    </g>
    <g id="xtick_7">
     <g id="line2d_7">
      <g>
       <use style="stroke:#000000;stroke-width:0.8;" x="972.87022" xlink:href="#meb126621b0" y="228.96"/>
      </g>
     </g>
     <g id="text_7">
      <!-- 2021-04 -->
      <g transform="translate(975.629595 277.742812)rotate(-90)scale(0.1 -0.1)">
       <defs>
        <path d="M 37.796875 64.3125 
L 12.890625 25.390625 
L 37.796875 25.390625 
z
M 35.203125 72.90625 
L 47.609375 72.90625 
L 47.609375 25.390625 
L 58.015625 25.390625 
L 58.015625 17.1875 
L 47.609375 17.1875 
L 47.609375 0 
L 37.796875 0 
L 37.796875 17.1875 
L 4.890625 17.1875 
L 4.890625 26.703125 
z
" id="DejaVuSans-52"/>
       </defs>
       <use xlink:href="#DejaVuSans-50"/>
       <use x="63.623047" xlink:href="#DejaVuSans-48"/>
       <use x="127.246094" xlink:href="#DejaVuSans-50"/>
       <use x="190.869141" xlink:href="#DejaVuSans-49"/>
       <use x="254.492188" xlink:href="#DejaVuSans-45"/>
       <use x="290.576172" xlink:href="#DejaVuSans-48"/>
       <use x="354.199219" xlink:href="#DejaVuSans-52"/>
      </g>
     </g>
    </g>
    <g id="text_8">
     <!-- Date -->
     <g transform="translate(515.677344 289.34125)scale(0.1 -0.1)">
      <defs>
       <path d="M 19.671875 64.796875 
L 19.671875 8.109375 
L 31.59375 8.109375 
Q 46.6875 8.109375 53.6875 14.9375 
Q 60.6875 21.78125 60.6875 36.53125 
Q 60.6875 51.171875 53.6875 57.984375 
Q 46.6875 64.796875 31.59375 64.796875 
z
M 9.8125 72.90625 
L 30.078125 72.90625 
Q 51.265625 72.90625 61.171875 64.09375 
Q 71.09375 55.28125 71.09375 36.53125 
Q 71.09375 17.671875 61.125 8.828125 
Q 51.171875 0 30.078125 0 
L 9.8125 0 
z
" id="DejaVuSans-68"/>
       <path d="M 34.28125 27.484375 
Q 23.390625 27.484375 19.1875 25 
Q 14.984375 22.515625 14.984375 16.5 
Q 14.984375 11.71875 18.140625 8.90625 
Q 21.296875 6.109375 26.703125 6.109375 
Q 34.1875 6.109375 38.703125 11.40625 
Q 43.21875 16.703125 43.21875 25.484375 
L 43.21875 27.484375 
z
M 52.203125 31.203125 
L 52.203125 0 
L 43.21875 0 
L 43.21875 8.296875 
Q 40.140625 3.328125 35.546875 0.953125 
Q 30.953125 -1.421875 24.3125 -1.421875 
Q 15.921875 -1.421875 10.953125 3.296875 
Q 6 8.015625 6 15.921875 
Q 6 25.140625 12.171875 29.828125 
Q 18.359375 34.515625 30.609375 34.515625 
L 43.21875 34.515625 
L 43.21875 35.40625 
Q 43.21875 41.609375 39.140625 45 
Q 35.0625 48.390625 27.6875 48.390625 
Q 23 48.390625 18.546875 47.265625 
Q 14.109375 46.140625 10.015625 43.890625 
L 10.015625 52.203125 
Q 14.9375 54.109375 19.578125 55.046875 
Q 24.21875 56 28.609375 56 
Q 40.484375 56 46.34375 49.84375 
Q 52.203125 43.703125 52.203125 31.203125 
z
" id="DejaVuSans-97"/>
       <path d="M 18.3125 70.21875 
L 18.3125 54.6875 
L 36.8125 54.6875 
L 36.8125 47.703125 
L 18.3125 47.703125 
L 18.3125 18.015625 
Q 18.3125 11.328125 20.140625 9.421875 
Q 21.96875 7.515625 27.59375 7.515625 
L 36.8125 7.515625 
L 36.8125 0 
L 27.59375 0 
Q 17.1875 0 13.234375 3.875 
Q 9.28125 7.765625 9.28125 18.015625 
L 9.28125 47.703125 
L 2.6875 47.703125 
L 2.6875 54.6875 
L 9.28125 54.6875 
L 9.28125 70.21875 
z
" id="DejaVuSans-116"/>
       <path d="M 56.203125 29.59375 
L 56.203125 25.203125 
L 14.890625 25.203125 
Q 15.484375 15.921875 20.484375 11.0625 
Q 25.484375 6.203125 34.421875 6.203125 
Q 39.59375 6.203125 44.453125 7.46875 
Q 49.3125 8.734375 54.109375 11.28125 
L 54.109375 2.78125 
Q 49.265625 0.734375 44.1875 -0.34375 
Q 39.109375 -1.421875 33.890625 -1.421875 
Q 20.796875 -1.421875 13.15625 6.1875 
Q 5.515625 13.8125 5.515625 26.8125 
Q 5.515625 40.234375 12.765625 48.109375 
Q 20.015625 56 32.328125 56 
Q 43.359375 56 49.78125 48.890625 
Q 56.203125 41.796875 56.203125 29.59375 
z
M 47.21875 32.234375 
Q 47.125 39.59375 43.09375 43.984375 
Q 39.0625 48.390625 32.421875 48.390625 
Q 24.90625 48.390625 20.390625 44.140625 
Q 15.875 39.890625 15.1875 32.171875 
z
" id="DejaVuSans-101"/>
      </defs>
      <use xlink:href="#DejaVuSans-68"/>
      <use x="77.001953" xlink:href="#DejaVuSans-97"/>
      <use x="138.28125" xlink:href="#DejaVuSans-116"/>
      <use x="177.490234" xlink:href="#DejaVuSans-101"/>
     </g>
    </g>
   </g>
   <g id="matplotlib.axis_2">
    <g id="ytick_1">
     <g id="line2d_8">
      <defs>
       <path d="M 0 0 
L -3.5 0 
" id="m5cc2e7a09d" style="stroke:#000000;stroke-width:0.8;"/>
      </defs>
      <g>
       <use style="stroke:#000000;stroke-width:0.8;" x="53.328125" xlink:href="#m5cc2e7a09d" y="228.96"/>
      </g>
     </g>
     <g id="text_9">
      <!-- 1 -->
      <g transform="translate(39.965625 232.759219)scale(0.1 -0.1)">
       <use xlink:href="#DejaVuSans-49"/>
      </g>
     </g>
    </g>
    <g id="ytick_2">
     <g id="line2d_9">
      <g>
       <use style="stroke:#000000;stroke-width:0.8;" x="53.328125" xlink:href="#m5cc2e7a09d" y="198.087728"/>
      </g>
     </g>
     <g id="text_10">
      <!-- 3 -->
      <g transform="translate(39.965625 201.886946)scale(0.1 -0.1)">
       <use xlink:href="#DejaVuSans-51"/>
      </g>
     </g>
    </g>
    <g id="ytick_3">
     <g id="line2d_10">
      <g>
       <use style="stroke:#000000;stroke-width:0.8;" x="53.328125" xlink:href="#m5cc2e7a09d" y="167.215455"/>
      </g>
     </g>
     <g id="text_11">
      <!-- 10 -->
      <g transform="translate(33.603125 171.014674)scale(0.1 -0.1)">
       <use xlink:href="#DejaVuSans-49"/>
       <use x="63.623047" xlink:href="#DejaVuSans-48"/>
      </g>
     </g>
    </g>
    <g id="ytick_4">
     <g id="line2d_11">
      <g>
       <use style="stroke:#000000;stroke-width:0.8;" x="53.328125" xlink:href="#m5cc2e7a09d" y="136.343183"/>
      </g>
     </g>
     <g id="text_12">
      <!-- 31 -->
      <g transform="translate(33.603125 140.142402)scale(0.1 -0.1)">
       <use xlink:href="#DejaVuSans-51"/>
       <use x="63.623047" xlink:href="#DejaVuSans-49"/>
      </g>
     </g>
    </g>
    <g id="ytick_5">
     <g id="line2d_12">
      <g>
       <use style="stroke:#000000;stroke-width:0.8;" x="53.328125" xlink:href="#m5cc2e7a09d" y="105.470911"/>
      </g>
     </g>
     <g id="text_13">
      <!-- 100 -->
      <g transform="translate(27.240625 109.270129)scale(0.1 -0.1)">
       <use xlink:href="#DejaVuSans-49"/>
       <use x="63.623047" xlink:href="#DejaVuSans-48"/>
       <use x="127.246094" xlink:href="#DejaVuSans-48"/>
      </g>
     </g>
    </g>
    <g id="ytick_6">
     <g id="line2d_13">
      <g>
       <use style="stroke:#000000;stroke-width:0.8;" x="53.328125" xlink:href="#m5cc2e7a09d" y="74.598638"/>
      </g>
     </g>
     <g id="text_14">
      <!-- 316 -->
      <g transform="translate(27.240625 78.397857)scale(0.1 -0.1)">
       <defs>
        <path d="M 33.015625 40.375 
Q 26.375 40.375 22.484375 35.828125 
Q 18.609375 31.296875 18.609375 23.390625 
Q 18.609375 15.53125 22.484375 10.953125 
Q 26.375 6.390625 33.015625 6.390625 
Q 39.65625 6.390625 43.53125 10.953125 
Q 47.40625 15.53125 47.40625 23.390625 
Q 47.40625 31.296875 43.53125 35.828125 
Q 39.65625 40.375 33.015625 40.375 
z
M 52.59375 71.296875 
L 52.59375 62.3125 
Q 48.875 64.0625 45.09375 64.984375 
Q 41.3125 65.921875 37.59375 65.921875 
Q 27.828125 65.921875 22.671875 59.328125 
Q 17.53125 52.734375 16.796875 39.40625 
Q 19.671875 43.65625 24.015625 45.921875 
Q 28.375 48.1875 33.59375 48.1875 
Q 44.578125 48.1875 50.953125 41.515625 
Q 57.328125 34.859375 57.328125 23.390625 
Q 57.328125 12.15625 50.6875 5.359375 
Q 44.046875 -1.421875 33.015625 -1.421875 
Q 20.359375 -1.421875 13.671875 8.265625 
Q 6.984375 17.96875 6.984375 36.375 
Q 6.984375 53.65625 15.1875 63.9375 
Q 23.390625 74.21875 37.203125 74.21875 
Q 40.921875 74.21875 44.703125 73.484375 
Q 48.484375 72.75 52.59375 71.296875 
z
" id="DejaVuSans-54"/>
       </defs>
       <use xlink:href="#DejaVuSans-51"/>
       <use x="63.623047" xlink:href="#DejaVuSans-49"/>
       <use x="127.246094" xlink:href="#DejaVuSans-54"/>
      </g>
     </g>
    </g>
    <g id="ytick_7">
     <g id="line2d_14">
      <g>
       <use style="stroke:#000000;stroke-width:0.8;" x="53.328125" xlink:href="#m5cc2e7a09d" y="43.726366"/>
      </g>
     </g>
     <g id="text_15">
      <!-- 1000 -->
      <g transform="translate(20.878125 47.525585)scale(0.1 -0.1)">
       <use xlink:href="#DejaVuSans-49"/>
       <use x="63.623047" xlink:href="#DejaVuSans-48"/>
       <use x="127.246094" xlink:href="#DejaVuSans-48"/>
       <use x="190.869141" xlink:href="#DejaVuSans-48"/>
      </g>
     </g>
    </g>
    <g id="ytick_8">
     <g id="line2d_15">
      <g>
       <use style="stroke:#000000;stroke-width:0.8;" x="53.328125" xlink:href="#m5cc2e7a09d" y="12.854093"/>
      </g>
     </g>
     <g id="text_16">
      <!-- 3162 -->
      <g transform="translate(20.878125 16.653312)scale(0.1 -0.1)">
       <use xlink:href="#DejaVuSans-51"/>
       <use x="63.623047" xlink:href="#DejaVuSans-49"/>
       <use x="127.246094" xlink:href="#DejaVuSans-54"/>
       <use x="190.869141" xlink:href="#DejaVuSans-50"/>
      </g>
     </g>
    </g>
    <g id="text_17">
     <!-- Count (7 day rolling average) -->
     <g transform="translate(14.798438 191.547969)rotate(-90)scale(0.1 -0.1)">
      <defs>
       <path d="M 64.40625 67.28125 
L 64.40625 56.890625 
Q 59.421875 61.53125 53.78125 63.8125 
Q 48.140625 66.109375 41.796875 66.109375 
Q 29.296875 66.109375 22.65625 58.46875 
Q 16.015625 50.828125 16.015625 36.375 
Q 16.015625 21.96875 22.65625 14.328125 
Q 29.296875 6.6875 41.796875 6.6875 
Q 48.140625 6.6875 53.78125 8.984375 
Q 59.421875 11.28125 64.40625 15.921875 
L 64.40625 5.609375 
Q 59.234375 2.09375 53.4375 0.328125 
Q 47.65625 -1.421875 41.21875 -1.421875 
Q 24.65625 -1.421875 15.125 8.703125 
Q 5.609375 18.84375 5.609375 36.375 
Q 5.609375 53.953125 15.125 64.078125 
Q 24.65625 74.21875 41.21875 74.21875 
Q 47.75 74.21875 53.53125 72.484375 
Q 59.328125 70.75 64.40625 67.28125 
z
" id="DejaVuSans-67"/>
       <path d="M 30.609375 48.390625 
Q 23.390625 48.390625 19.1875 42.75 
Q 14.984375 37.109375 14.984375 27.296875 
Q 14.984375 17.484375 19.15625 11.84375 
Q 23.34375 6.203125 30.609375 6.203125 
Q 37.796875 6.203125 41.984375 11.859375 
Q 46.1875 17.53125 46.1875 27.296875 
Q 46.1875 37.015625 41.984375 42.703125 
Q 37.796875 48.390625 30.609375 48.390625 
z
M 30.609375 56 
Q 42.328125 56 49.015625 48.375 
Q 55.71875 40.765625 55.71875 27.296875 
Q 55.71875 13.875 49.015625 6.21875 
Q 42.328125 -1.421875 30.609375 -1.421875 
Q 18.84375 -1.421875 12.171875 6.21875 
Q 5.515625 13.875 5.515625 27.296875 
Q 5.515625 40.765625 12.171875 48.375 
Q 18.84375 56 30.609375 56 
z
" id="DejaVuSans-111"/>
       <path d="M 8.5 21.578125 
L 8.5 54.6875 
L 17.484375 54.6875 
L 17.484375 21.921875 
Q 17.484375 14.15625 20.5 10.265625 
Q 23.53125 6.390625 29.59375 6.390625 
Q 36.859375 6.390625 41.078125 11.03125 
Q 45.3125 15.671875 45.3125 23.6875 
L 45.3125 54.6875 
L 54.296875 54.6875 
L 54.296875 0 
L 45.3125 0 
L 45.3125 8.40625 
Q 42.046875 3.421875 37.71875 1 
Q 33.40625 -1.421875 27.6875 -1.421875 
Q 18.265625 -1.421875 13.375 4.4375 
Q 8.5 10.296875 8.5 21.578125 
z
M 31.109375 56 
z
" id="DejaVuSans-117"/>
       <path d="M 54.890625 33.015625 
L 54.890625 0 
L 45.90625 0 
L 45.90625 32.71875 
Q 45.90625 40.484375 42.875 44.328125 
Q 39.84375 48.1875 33.796875 48.1875 
Q 26.515625 48.1875 22.3125 43.546875 
Q 18.109375 38.921875 18.109375 30.90625 
L 18.109375 0 
L 9.078125 0 
L 9.078125 54.6875 
L 18.109375 54.6875 
L 18.109375 46.1875 
Q 21.34375 51.125 25.703125 53.5625 
Q 30.078125 56 35.796875 56 
Q 45.21875 56 50.046875 50.171875 
Q 54.890625 44.34375 54.890625 33.015625 
z
" id="DejaVuSans-110"/>
       <path id="DejaVuSans-32"/>
       <path d="M 31 75.875 
Q 24.46875 64.65625 21.28125 53.65625 
Q 18.109375 42.671875 18.109375 31.390625 
Q 18.109375 20.125 21.3125 9.0625 
Q 24.515625 -2 31 -13.1875 
L 23.1875 -13.1875 
Q 15.875 -1.703125 12.234375 9.375 
Q 8.59375 20.453125 8.59375 31.390625 
Q 8.59375 42.28125 12.203125 53.3125 
Q 15.828125 64.359375 23.1875 75.875 
z
" id="DejaVuSans-40"/>
       <path d="M 8.203125 72.90625 
L 55.078125 72.90625 
L 55.078125 68.703125 
L 28.609375 0 
L 18.3125 0 
L 43.21875 64.59375 
L 8.203125 64.59375 
z
" id="DejaVuSans-55"/>
       <path d="M 45.40625 46.390625 
L 45.40625 75.984375 
L 54.390625 75.984375 
L 54.390625 0 
L 45.40625 0 
L 45.40625 8.203125 
Q 42.578125 3.328125 38.25 0.953125 
Q 33.9375 -1.421875 27.875 -1.421875 
Q 17.96875 -1.421875 11.734375 6.484375 
Q 5.515625 14.40625 5.515625 27.296875 
Q 5.515625 40.1875 11.734375 48.09375 
Q 17.96875 56 27.875 56 
Q 33.9375 56 38.25 53.625 
Q 42.578125 51.265625 45.40625 46.390625 
z
M 14.796875 27.296875 
Q 14.796875 17.390625 18.875 11.75 
Q 22.953125 6.109375 30.078125 6.109375 
Q 37.203125 6.109375 41.296875 11.75 
Q 45.40625 17.390625 45.40625 27.296875 
Q 45.40625 37.203125 41.296875 42.84375 
Q 37.203125 48.484375 30.078125 48.484375 
Q 22.953125 48.484375 18.875 42.84375 
Q 14.796875 37.203125 14.796875 27.296875 
z
" id="DejaVuSans-100"/>
       <path d="M 32.171875 -5.078125 
Q 28.375 -14.84375 24.75 -17.8125 
Q 21.140625 -20.796875 15.09375 -20.796875 
L 7.90625 -20.796875 
L 7.90625 -13.28125 
L 13.1875 -13.28125 
Q 16.890625 -13.28125 18.9375 -11.515625 
Q 21 -9.765625 23.484375 -3.21875 
L 25.09375 0.875 
L 2.984375 54.6875 
L 12.5 54.6875 
L 29.59375 11.921875 
L 46.6875 54.6875 
L 56.203125 54.6875 
z
" id="DejaVuSans-121"/>
       <path d="M 41.109375 46.296875 
Q 39.59375 47.171875 37.8125 47.578125 
Q 36.03125 48 33.890625 48 
Q 26.265625 48 22.1875 43.046875 
Q 18.109375 38.09375 18.109375 28.8125 
L 18.109375 0 
L 9.078125 0 
L 9.078125 54.6875 
L 18.109375 54.6875 
L 18.109375 46.1875 
Q 20.953125 51.171875 25.484375 53.578125 
Q 30.03125 56 36.53125 56 
Q 37.453125 56 38.578125 55.875 
Q 39.703125 55.765625 41.0625 55.515625 
z
" id="DejaVuSans-114"/>
       <path d="M 9.421875 75.984375 
L 18.40625 75.984375 
L 18.40625 0 
L 9.421875 0 
z
" id="DejaVuSans-108"/>
       <path d="M 9.421875 54.6875 
L 18.40625 54.6875 
L 18.40625 0 
L 9.421875 0 
z
M 9.421875 75.984375 
L 18.40625 75.984375 
L 18.40625 64.59375 
L 9.421875 64.59375 
z
" id="DejaVuSans-105"/>
       <path d="M 45.40625 27.984375 
Q 45.40625 37.75 41.375 43.109375 
Q 37.359375 48.484375 30.078125 48.484375 
Q 22.859375 48.484375 18.828125 43.109375 
Q 14.796875 37.75 14.796875 27.984375 
Q 14.796875 18.265625 18.828125 12.890625 
Q 22.859375 7.515625 30.078125 7.515625 
Q 37.359375 7.515625 41.375 12.890625 
Q 45.40625 18.265625 45.40625 27.984375 
z
M 54.390625 6.78125 
Q 54.390625 -7.171875 48.1875 -13.984375 
Q 42 -20.796875 29.203125 -20.796875 
Q 24.46875 -20.796875 20.265625 -20.09375 
Q 16.0625 -19.390625 12.109375 -17.921875 
L 12.109375 -9.1875 
Q 16.0625 -11.328125 19.921875 -12.34375 
Q 23.78125 -13.375 27.78125 -13.375 
Q 36.625 -13.375 41.015625 -8.765625 
Q 45.40625 -4.15625 45.40625 5.171875 
L 45.40625 9.625 
Q 42.625 4.78125 38.28125 2.390625 
Q 33.9375 0 27.875 0 
Q 17.828125 0 11.671875 7.65625 
Q 5.515625 15.328125 5.515625 27.984375 
Q 5.515625 40.671875 11.671875 48.328125 
Q 17.828125 56 27.875 56 
Q 33.9375 56 38.28125 53.609375 
Q 42.625 51.21875 45.40625 46.390625 
L 45.40625 54.6875 
L 54.390625 54.6875 
z
" id="DejaVuSans-103"/>
       <path d="M 2.984375 54.6875 
L 12.5 54.6875 
L 29.59375 8.796875 
L 46.6875 54.6875 
L 56.203125 54.6875 
L 35.6875 0 
L 23.484375 0 
z
" id="DejaVuSans-118"/>
       <path d="M 8.015625 75.875 
L 15.828125 75.875 
Q 23.140625 64.359375 26.78125 53.3125 
Q 30.421875 42.28125 30.421875 31.390625 
Q 30.421875 20.453125 26.78125 9.375 
Q 23.140625 -1.703125 15.828125 -13.1875 
L 8.015625 -13.1875 
Q 14.5 -2 17.703125 9.0625 
Q 20.90625 20.125 20.90625 31.390625 
Q 20.90625 42.671875 17.703125 53.65625 
Q 14.5 64.65625 8.015625 75.875 
z
" id="DejaVuSans-41"/>
      </defs>
      <use xlink:href="#DejaVuSans-67"/>
      <use x="69.824219" xlink:href="#DejaVuSans-111"/>
      <use x="131.005859" xlink:href="#DejaVuSans-117"/>
      <use x="194.384766" xlink:href="#DejaVuSans-110"/>
      <use x="257.763672" xlink:href="#DejaVuSans-116"/>
      <use x="296.972656" xlink:href="#DejaVuSans-32"/>
      <use x="328.759766" xlink:href="#DejaVuSans-40"/>
      <use x="367.773438" xlink:href="#DejaVuSans-55"/>
      <use x="431.396484" xlink:href="#DejaVuSans-32"/>
      <use x="463.183594" xlink:href="#DejaVuSans-100"/>
      <use x="526.660156" xlink:href="#DejaVuSans-97"/>
      <use x="587.939453" xlink:href="#DejaVuSans-121"/>
      <use x="647.119141" xlink:href="#DejaVuSans-32"/>
      <use x="678.90625" xlink:href="#DejaVuSans-114"/>
      <use x="717.769531" xlink:href="#DejaVuSans-111"/>
      <use x="778.951172" xlink:href="#DejaVuSans-108"/>
      <use x="806.734375" xlink:href="#DejaVuSans-108"/>
      <use x="834.517578" xlink:href="#DejaVuSans-105"/>
      <use x="862.300781" xlink:href="#DejaVuSans-110"/>
      <use x="925.679688" xlink:href="#DejaVuSans-103"/>
      <use x="989.15625" xlink:href="#DejaVuSans-32"/>
      <use x="1020.943359" xlink:href="#DejaVuSans-97"/>
      <use x="1082.222656" xlink:href="#DejaVuSans-118"/>
      <use x="1141.402344" xlink:href="#DejaVuSans-101"/>
      <use x="1202.925781" xlink:href="#DejaVuSans-114"/>
      <use x="1244.039062" xlink:href="#DejaVuSans-97"/>
      <use x="1305.318359" xlink:href="#DejaVuSans-103"/>
      <use x="1368.794922" xlink:href="#DejaVuSans-101"/>
      <use x="1430.318359" xlink:href="#DejaVuSans-41"/>
     </g>
    </g>
   </g>
   <g id="line2d_16">
    <path clip-path="url(#p2d2f4ef3bc)" d="M 96.446307 219.395649 
L 101.133066 222.220924 
L 105.819825 225.379314 
L 110.506583 225.379314 
L 115.193342 222.220924 
L 119.880101 219.395649 
L 143.313896 219.395649 
L 148.000655 225.379314 
L 162.060931 225.379314 
L 166.74769 216.839877 
L 180.807967 216.839877 
L 185.494726 212.360269 
L 194.868244 212.360269 
L 199.555002 219.395649 
L 208.92852 219.395649 
L 213.615279 195.919679 
L 218.302038 191.78608 
L 222.988797 189.056745 
L 227.675556 185.047004 
L 232.362315 184.312292 
L 237.049074 182.900634 
L 241.735833 182.900634 
L 246.422591 194.825024 
L 251.10935 185.047004 
L 255.796109 181.559589 
L 260.482868 182.221729 
L 265.169627 164.313674 
L 269.856386 151.882825 
L 274.543145 150.410242 
L 279.229904 149.603705 
L 283.916663 138.664901 
L 288.603421 136.265698 
L 293.29018 136.753262 
L 297.976939 129.850678 
L 302.663698 130.427374 
L 307.350457 129.379395 
L 312.037216 125.798709 
L 316.723975 121.08742 
L 321.410734 112.13348 
L 326.097493 106.248221 
L 330.784251 106.76583 
L 335.47101 107.957818 
L 340.157769 104.529926 
L 344.844528 102.60353 
L 349.531287 105.470911 
L 354.218046 111.598615 
L 358.904805 112.13348 
L 363.591564 104.604001 
L 368.278323 103.692448 
L 372.965082 106.366785 
L 377.65184 109.874013 
L 382.338599 108.253656 
L 387.025358 105.89564 
L 391.712117 107.706815 
L 396.398876 118.10487 
L 401.085635 117.7998 
L 405.772394 117.618411 
L 410.459153 114.600996 
L 415.145912 117.08149 
L 419.83267 112.429785 
L 424.519429 111.311305 
L 429.206188 110.979955 
L 433.892947 100.677841 
L 438.579706 95.009996 
L 443.266465 91.811296 
L 447.953224 75.845788 
L 452.639983 73.052258 
L 457.326742 70.752394 
L 462.0135 65.898391 
L 466.700259 62.598311 
L 476.073777 55.078312 
L 480.760536 55.154467 
L 485.447295 51.666336 
L 490.134054 50.344771 
L 494.820813 50.680275 
L 499.507572 50.749874 
L 504.194331 52.30222 
L 508.881089 54.305683 
L 513.567848 57.732541 
L 518.254607 63.33625 
L 522.941366 61.078069 
L 527.628125 59.974343 
L 532.314884 61.078069 
L 537.001643 55.002373 
L 546.375161 49.762755 
L 551.061919 48.378914 
L 555.748678 44.969072 
L 560.435437 42.524053 
L 565.122196 39.424741 
L 569.808955 39.736531 
L 574.495714 40.398259 
L 579.182473 40.323922 
L 583.869232 37.958086 
L 588.555991 37.853255 
L 593.24275 38.109892 
L 597.929508 37.368379 
L 602.616267 34.981553 
L 607.303026 33.356372 
L 611.989785 31.589183 
L 616.676544 30.165909 
L 621.363303 30.894204 
L 626.050062 29.938162 
L 630.736821 30.011566 
L 635.42358 30.521731 
L 640.110338 29.642008 
L 644.797097 29.931291 
L 649.483856 29.429886 
L 654.170615 29.046038 
L 658.857374 29.803348 
L 663.544133 25.960129 
L 668.230892 24.432455 
L 672.917651 22.554048 
L 677.60441 21.119877 
L 686.977927 18.086351 
L 691.664686 17.76 
L 696.351445 20.731943 
L 705.724963 25.566081 
L 710.411722 27.027806 
L 715.098481 30.735624 
L 719.78524 33.699441 
L 724.471999 33.935048 
L 729.158757 32.230198 
L 733.845516 30.951238 
L 738.532275 29.35133 
L 743.219034 28.783649 
L 747.905793 27.254829 
L 752.592552 26.867984 
L 757.279311 25.612828 
L 761.96607 23.973746 
L 766.652829 22.798667 
L 771.339587 23.241116 
L 776.026346 23.448918 
L 780.713105 23.847505 
L 785.399864 23.278616 
L 790.086623 22.590599 
L 794.773382 23.721855 
L 799.460141 24.623419 
L 804.1469 24.647855 
L 808.833659 22.735552 
L 813.520417 23.034912 
L 818.207176 23.79098 
L 822.893935 25.302709 
L 827.580694 25.843861 
L 832.267453 26.057074 
L 836.954212 25.644039 
L 841.640971 28.324624 
L 846.32773 27.862722 
L 851.014489 27.883931 
L 855.701248 29.201593 
L 860.388006 29.181542 
L 865.074765 28.356998 
L 874.448283 24.469792 
L 879.135042 23.860285 
L 883.821801 22.740806 
L 888.50856 21.257074 
L 893.195319 19.645935 
L 897.882078 19.178736 
L 902.568836 21.384984 
L 907.255595 23.373493 
L 911.942354 25.636233 
L 916.629113 26.755858 
L 921.315872 28.365637 
L 926.002631 35.534638 
L 930.68939 43.776212 
L 935.376149 50.630672 
L 944.749667 67.32828 
L 944.749667 67.32828 
" style="fill:none;stroke:#947383;stroke-linecap:square;stroke-width:2;"/>
   </g>
   <g id="line2d_17">
    <path clip-path="url(#p2d2f4ef3bc)" d="M 405.772394 225.379314 
L 410.459153 228.96 
L 415.145912 228.96 
L 419.83267 228.96 
L 424.519429 228.96 
L 429.206188 228.96 
L 433.892947 228.96 
L 438.579706 228.96 
L 443.266465 228.96 
L 447.953224 225.379314 
L 452.639983 225.379314 
L 457.326742 225.379314 
L 462.0135 225.379314 
L 466.700259 222.220924 
L 471.387018 222.220924 
L 476.073777 222.220924 
L 480.760536 222.220924 
L 485.447295 222.220924 
L 490.134054 222.220924 
L 494.820813 222.220924 
L 499.507572 222.220924 
L 504.194331 222.220924 
L 508.881089 219.395649 
L 513.567848 222.220924 
L 518.254607 222.220924 
L 522.941366 222.220924 
L 527.628125 219.395649 
L 532.314884 216.839877 
L 537.001643 210.37304 
L 541.688402 208.522974 
L 546.375161 208.522974 
L 551.061919 202.184135 
L 555.748678 195.919679 
L 560.435437 193.773309 
L 565.122196 191.78608 
L 569.808955 190.845095 
L 574.495714 173.682292 
L 579.182473 161.38546 
L 583.869232 156.088605 
L 588.555991 155.340222 
L 593.24275 152.762094 
L 597.929508 148.820721 
L 602.616267 147.68751 
L 607.303026 149.209355 
L 611.989785 154.852658 
L 616.676544 155.095332 
L 621.363303 156.599389 
L 626.050062 160.47638 
L 630.736821 167.992765 
L 635.42358 170.905816 
L 640.110338 180.913405 
L 644.797097 185.047004 
L 649.483856 208.522974 
L 654.170615 210.37304 
L 658.857374 208.522974 
L 663.544133 206.792354 
L 668.230892 210.37304 
L 672.917651 202.184135 
L 677.60441 194.825024 
L 682.291168 193.773309 
L 686.977927 193.773309 
L 691.664686 194.825024 
L 696.351445 197.060928 
L 701.038204 198.252916 
L 705.724963 203.633964 
L 710.411722 208.522974 
L 715.098481 212.360269 
L 719.78524 214.506639 
L 724.471999 214.506639 
L 729.158757 210.37304 
L 733.845516 205.166685 
L 738.532275 203.633964 
L 743.219034 205.166685 
L 747.905793 203.633964 
L 752.592552 203.633964 
L 757.279311 203.633964 
L 761.96607 206.792354 
L 766.652829 212.360269 
L 771.339587 216.839877 
L 776.026346 222.220924 
L 780.713105 222.220924 
L 785.399864 219.395649 
L 790.086623 219.395649 
L 794.773382 219.395649 
L 799.460141 219.395649 
L 804.1469 222.220924 
L 808.833659 216.839877 
" style="fill:none;stroke:#96c6ad;stroke-linecap:square;stroke-width:2;"/>
   </g>
   <g id="line2d_18">
    <path clip-path="url(#p2d2f4ef3bc)" d="M 166.74769 225.379314 
L 171.434449 228.96 
L 237.049074 228.96 
L 241.735833 225.379314 
L 269.856386 225.379314 
L 274.543145 228.96 
L 330.784251 228.96 
L 335.47101 225.379314 
L 349.531287 225.379314 
L 354.218046 222.220924 
L 363.591564 222.220924 
L 368.278323 225.379314 
L 372.965082 222.220924 
L 382.338599 222.220924 
L 387.025358 225.379314 
L 424.519429 225.379314 
L 429.206188 222.220924 
L 433.892947 219.395649 
L 438.579706 216.839877 
L 443.266465 216.839877 
L 447.953224 212.360269 
L 466.700259 212.360269 
L 471.387018 216.839877 
L 476.073777 214.506639 
L 480.760536 214.506639 
L 485.447295 212.360269 
L 490.134054 205.166685 
L 494.820813 197.060928 
L 499.507572 188.205394 
L 504.194331 178.473968 
L 508.881089 176.779806 
L 513.567848 153.440999 
L 518.254607 150.615724 
L 522.941366 147.320172 
L 532.314884 140.019498 
L 537.001643 137.628432 
L 541.688402 137.124843 
L 546.375161 143.108508 
L 551.061919 144.714695 
L 555.748678 147.320172 
L 560.435437 143.108508 
L 565.122196 132.760611 
L 569.808955 129.66117 
L 574.495714 127.572967 
L 579.182473 128.642158 
L 583.869232 128.102234 
L 588.555991 128.370837 
L 593.24275 133.512994 
L 597.929508 144.222657 
L 602.616267 146.77843 
L 607.303026 149.603705 
L 611.989785 144.060631 
L 616.676544 144.385669 
L 621.363303 143.580343 
L 626.050062 140.581096 
L 630.736821 141.88942 
L 635.42358 141.593115 
L 640.110338 135.66845 
L 644.797097 127.836295 
L 649.483856 125.635697 
L 654.170615 125.473671 
L 658.857374 125.880588 
L 663.544133 125.072836 
L 668.230892 116.904879 
L 672.917651 113.962506 
L 677.60441 116.96362 
L 682.291168 117.19988 
L 686.977927 117.19988 
L 691.664686 115.25506 
L 696.351445 112.729401 
L 701.038204 110.886031 
L 705.724963 114.386472 
L 710.411722 116.152728 
L 715.098481 117.378451 
L 719.78524 117.08149 
L 724.471999 111.121461 
L 729.158757 110.009787 
L 733.845516 119.296858 
L 738.532275 120.011975 
L 743.219034 115.98211 
L 747.905793 116.038862 
L 752.592552 116.324438 
L 757.279311 124.993383 
L 761.96607 133.08048 
L 766.652829 134.287098 
L 771.339587 136.265698 
L 776.026346 150.206322 
L 780.713105 150.615724 
L 785.399864 150.615724 
L 790.086623 157.120091 
L 794.773382 162.009101 
L 799.460141 169.202684 
L 804.1469 170.905816 
L 808.833659 175.186349 
L 813.520417 172.7245 
L 818.207176 175.186349 
L 822.893935 176.238064 
L 827.580694 174.675565 
L 832.267453 172.7245 
L 836.954212 178.473968 
L 841.640971 180.913405 
L 846.32773 187.380242 
L 851.014489 191.78608 
L 855.701248 193.773309 
L 860.388006 179.665956 
L 865.074765 180.282428 
L 869.761524 178.473968 
L 874.448283 178.473968 
L 883.821801 175.186349 
L 888.50856 175.707051 
L 893.195319 192.76129 
L 897.882078 200.808689 
L 902.568836 205.166685 
L 907.255595 200.808689 
L 911.942354 205.166685 
L 916.629113 208.522974 
L 921.315872 206.792354 
L 930.68939 206.792354 
L 935.376149 208.522974 
L 940.062908 214.506639 
L 944.749667 219.395649 
L 949.436425 219.395649 
L 949.436425 219.395649 
" style="fill:none;stroke:#525886;stroke-linecap:square;stroke-width:2;"/>
   </g>
   <g id="line2d_19">
    <path clip-path="url(#p2d2f4ef3bc)" d="M 133.940378 225.379314 
L 138.627137 228.96 
L 293.29018 228.96 
L 297.976939 214.506639 
L 302.663698 191.78608 
L 312.037216 191.78608 
L 316.723975 188.205394 
L 326.097493 188.205394 
L 330.784251 192.76129 
L 335.47101 216.839877 
L 344.844528 216.839877 
L 349.531287 225.379314 
L 363.591564 225.379314 
L 368.278323 216.839877 
L 377.65184 216.839877 
L 382.338599 219.395649 
L 387.025358 219.395649 
L 391.712117 216.839877 
L 396.398876 214.506639 
L 401.085635 200.808689 
L 405.772394 199.500365 
L 410.459153 197.060928 
L 424.519429 197.060928 
L 429.206188 198.252916 
L 433.892947 195.919679 
L 438.579706 197.060928 
L 443.266465 197.060928 
L 447.953224 193.773309 
L 452.639983 192.76129 
L 457.326742 190.845095 
L 462.0135 185.047004 
L 466.700259 170.905816 
L 471.387018 168.793282 
L 480.760536 162.647591 
L 485.447295 157.120091 
L 494.820813 149.209355 
L 499.507572 134.399532 
L 504.194331 127.572967 
L 508.881089 123.829004 
L 513.567848 122.279408 
L 518.254607 122.279408 
L 522.941366 120.746687 
L 527.628125 120.14407 
L 532.314884 116.324438 
L 537.001643 113.648873 
L 541.688402 110.699164 
L 546.375161 108.682025 
L 551.061919 108.04201 
L 555.748678 107.130119 
L 560.435437 105.509246 
L 565.122196 102.397785 
L 569.808955 100.903046 
L 574.495714 100.741992 
L 579.182473 96.861914 
L 583.869232 92.369484 
L 588.555991 91.01755 
L 593.24275 89.265988 
L 597.929508 84.068254 
L 602.616267 83.08627 
L 607.303026 80.961648 
L 611.989785 80.610717 
L 616.676544 79.05022 
L 621.363303 78.053567 
L 626.050062 78.164032 
L 630.736821 74.666494 
L 635.42358 73.606838 
L 640.110338 72.219138 
L 644.797097 70.973704 
L 649.483856 70.356512 
L 654.170615 70.12996 
L 658.857374 69.551737 
L 663.544133 67.098341 
L 668.230892 64.926621 
L 677.60441 61.880137 
L 682.291168 60.214145 
L 686.977927 59.639409 
L 691.664686 59.701891 
L 696.351445 56.538869 
L 701.038204 53.709887 
L 705.724963 51.374334 
L 710.411722 49.748365 
L 715.098481 49.033879 
L 719.78524 48.470201 
L 724.471999 47.79301 
L 729.158757 44.657912 
L 733.845516 43.992 
L 738.532275 43.849231 
L 743.219034 43.829996 
L 747.905793 42.586393 
L 752.592552 42.301549 
L 757.279311 42.520391 
L 761.96607 39.938662 
L 766.652829 38.866102 
L 771.339587 38.100573 
L 776.026346 36.720469 
L 785.399864 36.110904 
L 790.086623 35.528994 
L 794.773382 38.466434 
L 799.460141 38.422392 
L 804.1469 36.871342 
L 808.833659 36.688039 
L 813.520417 36.30481 
L 818.207176 36.05617 
L 822.893935 35.427602 
L 827.580694 35.374244 
L 832.267453 33.312172 
L 841.640971 32.440613 
L 846.32773 31.623312 
L 851.014489 31.125465 
L 860.388006 30.901327 
L 869.761524 33.15675 
L 874.448283 33.810368 
L 879.135042 35.346203 
L 883.821801 35.65344 
L 888.50856 36.105138 
L 893.195319 38.898078 
L 897.882078 41.045515 
L 902.568836 44.322889 
L 907.255595 46.911584 
L 911.942354 50.924664 
L 916.629113 54.608619 
L 921.315872 57.855533 
L 926.002631 66.13589 
L 930.68939 78.751558 
L 935.376149 89.539508 
L 940.062908 109.205267 
L 940.062908 109.205267 
" style="fill:none;stroke:#937252;stroke-linecap:square;stroke-width:2;"/>
   </g>
   <g id="line2d_20">
    <path clip-path="url(#p2d2f4ef3bc)" d="M 527.628125 210.37304 
L 532.314884 216.839877 
L 537.001643 222.220924 
L 541.688402 208.522974 
L 546.375161 203.633964 
L 551.061919 203.633964 
L 555.748678 203.633964 
L 560.435437 203.633964 
L 565.122196 199.500365 
L 569.808955 197.060928 
L 574.495714 198.252916 
L 579.182473 197.060928 
L 583.869232 190.845095 
L 588.555991 189.056745 
L 593.24275 189.936014 
L 597.929508 189.936014 
L 602.616267 185.802415 
L 607.303026 188.205394 
L 611.989785 189.056745 
L 616.676544 191.78608 
L 621.363303 193.773309 
L 626.050062 193.773309 
L 630.736821 195.919679 
L 635.42358 202.184135 
L 640.110338 202.184135 
L 644.797097 200.808689 
L 649.483856 199.500365 
L 654.170615 198.252916 
L 658.857374 197.060928 
L 663.544133 197.060928 
L 668.230892 199.500365 
L 672.917651 200.808689 
L 677.60441 200.808689 
L 682.291168 206.792354 
L 686.977927 208.522974 
L 691.664686 210.37304 
L 696.351445 203.633964 
L 701.038204 205.166685 
L 705.724963 205.166685 
L 710.411722 210.37304 
L 715.098481 210.37304 
L 719.78524 210.37304 
L 724.471999 210.37304 
L 729.158757 212.360269 
L 733.845516 210.37304 
L 738.532275 210.37304 
L 743.219034 212.360269 
L 747.905793 205.166685 
L 752.592552 205.166685 
L 757.279311 205.166685 
L 761.96607 212.360269 
L 766.652829 210.37304 
L 771.339587 206.792354 
L 776.026346 195.919679 
L 780.713105 194.825024 
L 785.399864 193.773309 
L 790.086623 186.579725 
L 794.773382 182.900634 
L 799.460141 179.665956 
L 804.1469 180.282428 
L 808.833659 179.06334 
L 813.520417 176.238064 
L 818.207176 171.349054 
L 822.893935 172.7245 
L 827.580694 170.040731 
L 832.267453 170.469785 
L 836.954212 169.202684 
L 841.640971 170.040731 
L 846.32773 165.36539 
L 851.014489 167.601294 
L 855.701248 165.725332 
L 860.388006 168.390036 
L 865.074765 170.905816 
L 869.761524 167.601294 
L 874.448283 170.469785 
L 879.135042 182.221729 
L 883.821801 185.802415 
L 888.50856 194.825024 
L 893.195319 199.500365 
L 897.882078 199.500365 
L 902.568836 225.379314 
L 907.255595 225.379314 
L 911.942354 225.379314 
L 916.629113 222.220924 
L 921.315872 222.220924 
L 926.002631 219.395649 
" style="fill:none;stroke:#d18cad;stroke-linecap:square;stroke-width:2;"/>
   </g>
   <g id="line2d_21">
    <path clip-path="url(#p2d2f4ef3bc)" d="M 307.350457 225.379314 
L 312.037216 228.96 
L 344.844528 228.96 
L 349.531287 225.379314 
L 377.65184 225.379314 
L 382.338599 228.96 
L 466.700259 228.96 
L 471.387018 222.220924 
L 476.073777 222.220924 
L 480.760536 216.839877 
L 485.447295 212.360269 
L 490.134054 210.37304 
L 494.820813 202.184135 
L 499.507572 194.825024 
L 504.194331 195.919679 
L 508.881089 193.773309 
L 513.567848 192.76129 
L 518.254607 194.825024 
L 522.941366 181.559589 
L 527.628125 180.913405 
L 532.314884 176.779806 
L 537.001643 166.460044 
L 546.375161 155.095332 
L 551.061919 153.440999 
L 555.748678 154.13754 
L 560.435437 151.031474 
L 565.122196 149.209355 
L 569.808955 146.957797 
L 574.495714 146.072723 
L 579.182473 144.549677 
L 583.869232 142.038809 
L 588.555991 142.189035 
L 593.24275 143.422141 
L 597.929508 140.866368 
L 602.616267 141.154708 
L 607.303026 141.154708 
L 611.989785 139.198557 
L 616.676544 138.930402 
L 621.363303 134.96888 
L 630.736821 132.028764 
L 635.42358 130.330392 
L 640.110338 125.635697 
L 644.797097 125.962717 
L 649.483856 124.756428 
L 654.170615 124.993383 
L 658.857374 125.393023 
L 663.544133 123.981365 
L 672.917651 119.105091 
L 677.60441 116.209843 
L 682.291168 114.120709 
L 686.977927 114.015137 
L 691.664686 112.281223 
L 696.351445 109.293475 
L 701.038204 109.029716 
L 705.724963 109.738923 
L 710.411722 108.253656 
L 715.098481 106.967601 
L 719.78524 106.05177 
L 724.471999 104.641116 
L 729.158757 103.054801 
L 733.845516 96.393632 
L 738.532275 92.891568 
L 743.219034 92.135492 
L 747.905793 89.858615 
L 752.592552 88.198979 
L 757.279311 87.406155 
L 761.96607 85.832235 
L 766.652829 86.731156 
L 771.339587 86.941474 
L 776.026346 86.277929 
L 785.399864 85.557391 
L 794.773382 82.854531 
L 799.460141 82.010907 
L 808.833659 79.424662 
L 818.207176 79.078839 
L 822.893935 80.129982 
L 827.580694 81.348377 
L 832.267453 83.053042 
L 836.954212 84.537947 
L 841.640971 85.77704 
L 846.32773 86.579228 
L 851.014489 87.66126 
L 855.701248 88.018539 
L 860.388006 90.772862 
L 865.074765 92.48725 
L 869.761524 95.087909 
L 874.448283 98.49453 
L 879.135042 101.359211 
L 883.821801 103.23041 
L 888.50856 106.090945 
L 893.195319 106.287684 
L 902.568836 107.706815 
L 907.255595 109.117348 
L 911.942354 110.191895 
L 921.315872 111.121461 
L 926.002631 113.857553 
L 930.68939 118.662896 
L 935.376149 122.786055 
L 940.062908 125.798709 
L 944.749667 133.731896 
L 949.436425 140.158799 
L 954.123184 144.549677 
L 958.809943 158.467878 
L 958.809943 158.467878 
" style="fill:none;stroke:#a4a86f;stroke-linecap:square;stroke-width:2;"/>
   </g>
   <g id="line2d_22">
    <path clip-path="url(#p2d2f4ef3bc)" d="M 429.206188 225.379314 
L 433.892947 228.96 
L 438.579706 228.96 
L 443.266465 222.220924 
L 447.953224 222.220924 
L 452.639983 214.506639 
L 457.326742 214.506639 
L 462.0135 214.506639 
L 466.700259 214.506639 
L 471.387018 214.506639 
L 476.073777 216.839877 
L 480.760536 216.839877 
L 485.447295 225.379314 
L 490.134054 216.839877 
L 494.820813 212.360269 
L 499.507572 210.37304 
L 504.194331 208.522974 
L 508.881089 205.166685 
L 513.567848 203.633964 
L 518.254607 202.184135 
L 522.941366 203.633964 
L 527.628125 205.166685 
L 532.314884 205.166685 
L 537.001643 206.792354 
L 541.688402 210.37304 
L 546.375161 206.792354 
L 551.061919 194.825024 
L 555.748678 192.76129 
L 560.435437 193.773309 
L 565.122196 192.76129 
L 569.808955 191.78608 
L 574.495714 188.205394 
L 579.182473 189.936014 
L 583.869232 189.936014 
L 588.555991 189.936014 
L 593.24275 188.205394 
L 597.929508 187.380242 
L 602.616267 187.380242 
L 607.303026 189.056745 
L 611.989785 186.579725 
L 616.676544 191.78608 
L 621.363303 190.845095 
L 626.050062 191.78608 
L 630.736821 189.936014 
L 635.42358 189.936014 
L 640.110338 189.056745 
L 644.797097 189.056745 
L 649.483856 187.380242 
L 654.170615 187.380242 
L 658.857374 187.380242 
L 663.544133 190.845095 
L 668.230892 189.936014 
L 672.917651 191.78608 
L 677.60441 192.76129 
L 682.291168 197.060928 
L 686.977927 199.500365 
L 691.664686 199.500365 
L 696.351445 199.500365 
L 701.038204 200.808689 
L 705.724963 194.825024 
L 710.411722 198.252916 
L 715.098481 198.252916 
L 719.78524 202.184135 
L 724.471999 203.633964 
L 729.158757 200.808689 
L 733.845516 197.060928 
L 738.532275 206.792354 
L 743.219034 198.252916 
L 747.905793 194.825024 
L 752.592552 192.76129 
L 757.279311 191.78608 
L 761.96607 191.78608 
L 766.652829 192.76129 
L 771.339587 191.78608 
L 776.026346 197.060928 
L 780.713105 199.500365 
L 785.399864 200.808689 
L 790.086623 195.919679 
L 794.773382 198.252916 
L 799.460141 197.060928 
L 804.1469 194.825024 
L 808.833659 193.773309 
L 813.520417 194.825024 
L 818.207176 189.936014 
L 822.893935 193.773309 
L 827.580694 192.76129 
L 832.267453 193.773309 
L 836.954212 189.936014 
L 841.640971 186.579725 
L 846.32773 187.380242 
L 851.014489 189.056745 
L 855.701248 186.579725 
L 860.388006 184.312292 
L 865.074765 182.900634 
L 869.761524 186.579725 
L 874.448283 189.936014 
L 879.135042 184.312292 
L 883.821801 180.913405 
L 888.50856 182.221729 
L 893.195319 184.312292 
L 897.882078 185.047004 
L 902.568836 185.802415 
L 907.255595 184.312292 
L 911.942354 189.056745 
L 916.629113 195.919679 
L 921.315872 193.773309 
L 926.002631 192.76129 
L 930.68939 195.919679 
L 935.376149 193.773309 
L 940.062908 197.060928 
L 944.749667 198.252916 
L 949.436425 197.060928 
L 954.123184 200.808689 
L 958.809943 202.184135 
" style="fill:none;stroke:#d3d3d3;stroke-linecap:square;stroke-width:2;"/>
   </g>
   <g id="patch_3">
    <path d="M 53.328125 228.96 
L 53.328125 7.2 
" style="fill:none;stroke:#000000;stroke-linecap:square;stroke-linejoin:miter;stroke-width:0.8;"/>
   </g>
   <g id="patch_4">
    <path d="M 53.328125 228.96 
L 1001.928125 228.96 
" style="fill:none;stroke:#000000;stroke-linecap:square;stroke-linejoin:miter;stroke-width:0.8;"/>
   </g>
   <g id="legend_1">
    <g id="line2d_23">
     <path d="M 60.528125 17.67875 
L 76.528125 17.67875 
" style="fill:none;stroke:#947383;stroke-linecap:square;stroke-width:2;"/>
    </g>
    <g id="line2d_24"/>
    <g id="text_18">
     <!-- United Kingdom -->
     <g transform="translate(82.928125 20.47875)scale(0.08 -0.08)">
      <defs>
       <path d="M 8.6875 72.90625 
L 18.609375 72.90625 
L 18.609375 28.609375 
Q 18.609375 16.890625 22.84375 11.734375 
Q 27.09375 6.59375 36.625 6.59375 
Q 46.09375 6.59375 50.34375 11.734375 
Q 54.59375 16.890625 54.59375 28.609375 
L 54.59375 72.90625 
L 64.5 72.90625 
L 64.5 27.390625 
Q 64.5 13.140625 57.4375 5.859375 
Q 50.390625 -1.421875 36.625 -1.421875 
Q 22.796875 -1.421875 15.734375 5.859375 
Q 8.6875 13.140625 8.6875 27.390625 
z
" id="DejaVuSans-85"/>
       <path d="M 9.8125 72.90625 
L 19.671875 72.90625 
L 19.671875 42.09375 
L 52.390625 72.90625 
L 65.09375 72.90625 
L 28.90625 38.921875 
L 67.671875 0 
L 54.6875 0 
L 19.671875 35.109375 
L 19.671875 0 
L 9.8125 0 
z
" id="DejaVuSans-75"/>
       <path d="M 52 44.1875 
Q 55.375 50.25 60.0625 53.125 
Q 64.75 56 71.09375 56 
Q 79.640625 56 84.28125 50.015625 
Q 88.921875 44.046875 88.921875 33.015625 
L 88.921875 0 
L 79.890625 0 
L 79.890625 32.71875 
Q 79.890625 40.578125 77.09375 44.375 
Q 74.3125 48.1875 68.609375 48.1875 
Q 61.625 48.1875 57.5625 43.546875 
Q 53.515625 38.921875 53.515625 30.90625 
L 53.515625 0 
L 44.484375 0 
L 44.484375 32.71875 
Q 44.484375 40.625 41.703125 44.40625 
Q 38.921875 48.1875 33.109375 48.1875 
Q 26.21875 48.1875 22.15625 43.53125 
Q 18.109375 38.875 18.109375 30.90625 
L 18.109375 0 
L 9.078125 0 
L 9.078125 54.6875 
L 18.109375 54.6875 
L 18.109375 46.1875 
Q 21.1875 51.21875 25.484375 53.609375 
Q 29.78125 56 35.6875 56 
Q 41.65625 56 45.828125 52.96875 
Q 50 49.953125 52 44.1875 
z
" id="DejaVuSans-109"/>
      </defs>
      <use xlink:href="#DejaVuSans-85"/>
      <use x="73.193359" xlink:href="#DejaVuSans-110"/>
      <use x="136.572266" xlink:href="#DejaVuSans-105"/>
      <use x="164.355469" xlink:href="#DejaVuSans-116"/>
      <use x="203.564453" xlink:href="#DejaVuSans-101"/>
      <use x="265.087891" xlink:href="#DejaVuSans-100"/>
      <use x="328.564453" xlink:href="#DejaVuSans-32"/>
      <use x="360.351562" xlink:href="#DejaVuSans-75"/>
      <use x="425.927734" xlink:href="#DejaVuSans-105"/>
      <use x="453.710938" xlink:href="#DejaVuSans-110"/>
      <use x="517.089844" xlink:href="#DejaVuSans-103"/>
      <use x="580.566406" xlink:href="#DejaVuSans-100"/>
      <use x="644.042969" xlink:href="#DejaVuSans-111"/>
      <use x="705.224609" xlink:href="#DejaVuSans-109"/>
     </g>
    </g>
    <g id="line2d_25">
     <path d="M 60.528125 29.42125 
L 76.528125 29.42125 
" style="fill:none;stroke:#96c6ad;stroke-linecap:square;stroke-width:2;"/>
    </g>
    <g id="line2d_26"/>
    <g id="text_19">
     <!-- Africa -->
     <g transform="translate(82.928125 32.22125)scale(0.08 -0.08)">
      <defs>
       <path d="M 34.1875 63.1875 
L 20.796875 26.90625 
L 47.609375 26.90625 
z
M 28.609375 72.90625 
L 39.796875 72.90625 
L 67.578125 0 
L 57.328125 0 
L 50.6875 18.703125 
L 17.828125 18.703125 
L 11.1875 0 
L 0.78125 0 
z
" id="DejaVuSans-65"/>
       <path d="M 37.109375 75.984375 
L 37.109375 68.5 
L 28.515625 68.5 
Q 23.6875 68.5 21.796875 66.546875 
Q 19.921875 64.59375 19.921875 59.515625 
L 19.921875 54.6875 
L 34.71875 54.6875 
L 34.71875 47.703125 
L 19.921875 47.703125 
L 19.921875 0 
L 10.890625 0 
L 10.890625 47.703125 
L 2.296875 47.703125 
L 2.296875 54.6875 
L 10.890625 54.6875 
L 10.890625 58.5 
Q 10.890625 67.625 15.140625 71.796875 
Q 19.390625 75.984375 28.609375 75.984375 
z
" id="DejaVuSans-102"/>
       <path d="M 48.78125 52.59375 
L 48.78125 44.1875 
Q 44.96875 46.296875 41.140625 47.34375 
Q 37.3125 48.390625 33.40625 48.390625 
Q 24.65625 48.390625 19.8125 42.84375 
Q 14.984375 37.3125 14.984375 27.296875 
Q 14.984375 17.28125 19.8125 11.734375 
Q 24.65625 6.203125 33.40625 6.203125 
Q 37.3125 6.203125 41.140625 7.25 
Q 44.96875 8.296875 48.78125 10.40625 
L 48.78125 2.09375 
Q 45.015625 0.34375 40.984375 -0.53125 
Q 36.96875 -1.421875 32.421875 -1.421875 
Q 20.0625 -1.421875 12.78125 6.34375 
Q 5.515625 14.109375 5.515625 27.296875 
Q 5.515625 40.671875 12.859375 48.328125 
Q 20.21875 56 33.015625 56 
Q 37.15625 56 41.109375 55.140625 
Q 45.0625 54.296875 48.78125 52.59375 
z
" id="DejaVuSans-99"/>
      </defs>
      <use xlink:href="#DejaVuSans-65"/>
      <use x="64.783203" xlink:href="#DejaVuSans-102"/>
      <use x="99.988281" xlink:href="#DejaVuSans-114"/>
      <use x="141.101562" xlink:href="#DejaVuSans-105"/>
      <use x="168.884766" xlink:href="#DejaVuSans-99"/>
      <use x="223.865234" xlink:href="#DejaVuSans-97"/>
     </g>
    </g>
    <g id="line2d_27">
     <path d="M 60.528125 41.16375 
L 76.528125 41.16375 
" style="fill:none;stroke:#525886;stroke-linecap:square;stroke-width:2;"/>
    </g>
    <g id="line2d_28"/>
    <g id="text_20">
     <!-- Asia -->
     <g transform="translate(82.928125 43.96375)scale(0.08 -0.08)">
      <defs>
       <path d="M 44.28125 53.078125 
L 44.28125 44.578125 
Q 40.484375 46.53125 36.375 47.5 
Q 32.28125 48.484375 27.875 48.484375 
Q 21.1875 48.484375 17.84375 46.4375 
Q 14.5 44.390625 14.5 40.28125 
Q 14.5 37.15625 16.890625 35.375 
Q 19.28125 33.59375 26.515625 31.984375 
L 29.59375 31.296875 
Q 39.15625 29.25 43.1875 25.515625 
Q 47.21875 21.78125 47.21875 15.09375 
Q 47.21875 7.46875 41.1875 3.015625 
Q 35.15625 -1.421875 24.609375 -1.421875 
Q 20.21875 -1.421875 15.453125 -0.5625 
Q 10.6875 0.296875 5.421875 2 
L 5.421875 11.28125 
Q 10.40625 8.6875 15.234375 7.390625 
Q 20.0625 6.109375 24.8125 6.109375 
Q 31.15625 6.109375 34.5625 8.28125 
Q 37.984375 10.453125 37.984375 14.40625 
Q 37.984375 18.0625 35.515625 20.015625 
Q 33.0625 21.96875 24.703125 23.78125 
L 21.578125 24.515625 
Q 13.234375 26.265625 9.515625 29.90625 
Q 5.8125 33.546875 5.8125 39.890625 
Q 5.8125 47.609375 11.28125 51.796875 
Q 16.75 56 26.8125 56 
Q 31.78125 56 36.171875 55.265625 
Q 40.578125 54.546875 44.28125 53.078125 
z
" id="DejaVuSans-115"/>
      </defs>
      <use xlink:href="#DejaVuSans-65"/>
      <use x="68.408203" xlink:href="#DejaVuSans-115"/>
      <use x="120.507812" xlink:href="#DejaVuSans-105"/>
      <use x="148.291016" xlink:href="#DejaVuSans-97"/>
     </g>
    </g>
    <g id="line2d_29">
     <path d="M 60.528125 52.90625 
L 76.528125 52.90625 
" style="fill:none;stroke:#937252;stroke-linecap:square;stroke-width:2;"/>
    </g>
    <g id="line2d_30"/>
    <g id="text_21">
     <!-- Europe -->
     <g transform="translate(82.928125 55.70625)scale(0.08 -0.08)">
      <defs>
       <path d="M 9.8125 72.90625 
L 55.90625 72.90625 
L 55.90625 64.59375 
L 19.671875 64.59375 
L 19.671875 43.015625 
L 54.390625 43.015625 
L 54.390625 34.71875 
L 19.671875 34.71875 
L 19.671875 8.296875 
L 56.78125 8.296875 
L 56.78125 0 
L 9.8125 0 
z
" id="DejaVuSans-69"/>
       <path d="M 18.109375 8.203125 
L 18.109375 -20.796875 
L 9.078125 -20.796875 
L 9.078125 54.6875 
L 18.109375 54.6875 
L 18.109375 46.390625 
Q 20.953125 51.265625 25.265625 53.625 
Q 29.59375 56 35.59375 56 
Q 45.5625 56 51.78125 48.09375 
Q 58.015625 40.1875 58.015625 27.296875 
Q 58.015625 14.40625 51.78125 6.484375 
Q 45.5625 -1.421875 35.59375 -1.421875 
Q 29.59375 -1.421875 25.265625 0.953125 
Q 20.953125 3.328125 18.109375 8.203125 
z
M 48.6875 27.296875 
Q 48.6875 37.203125 44.609375 42.84375 
Q 40.53125 48.484375 33.40625 48.484375 
Q 26.265625 48.484375 22.1875 42.84375 
Q 18.109375 37.203125 18.109375 27.296875 
Q 18.109375 17.390625 22.1875 11.75 
Q 26.265625 6.109375 33.40625 6.109375 
Q 40.53125 6.109375 44.609375 11.75 
Q 48.6875 17.390625 48.6875 27.296875 
z
" id="DejaVuSans-112"/>
      </defs>
      <use xlink:href="#DejaVuSans-69"/>
      <use x="63.183594" xlink:href="#DejaVuSans-117"/>
      <use x="126.5625" xlink:href="#DejaVuSans-114"/>
      <use x="165.425781" xlink:href="#DejaVuSans-111"/>
      <use x="226.607422" xlink:href="#DejaVuSans-112"/>
      <use x="290.083984" xlink:href="#DejaVuSans-101"/>
     </g>
    </g>
    <g id="line2d_31">
     <path d="M 60.528125 64.64875 
L 76.528125 64.64875 
" style="fill:none;stroke:#d18cad;stroke-linecap:square;stroke-width:2;"/>
    </g>
    <g id="line2d_32"/>
    <g id="text_22">
     <!-- South America -->
     <g transform="translate(82.928125 67.44875)scale(0.08 -0.08)">
      <defs>
       <path d="M 53.515625 70.515625 
L 53.515625 60.890625 
Q 47.90625 63.578125 42.921875 64.890625 
Q 37.9375 66.21875 33.296875 66.21875 
Q 25.25 66.21875 20.875 63.09375 
Q 16.5 59.96875 16.5 54.203125 
Q 16.5 49.359375 19.40625 46.890625 
Q 22.3125 44.4375 30.421875 42.921875 
L 36.375 41.703125 
Q 47.40625 39.59375 52.65625 34.296875 
Q 57.90625 29 57.90625 20.125 
Q 57.90625 9.515625 50.796875 4.046875 
Q 43.703125 -1.421875 29.984375 -1.421875 
Q 24.8125 -1.421875 18.96875 -0.25 
Q 13.140625 0.921875 6.890625 3.21875 
L 6.890625 13.375 
Q 12.890625 10.015625 18.65625 8.296875 
Q 24.421875 6.59375 29.984375 6.59375 
Q 38.421875 6.59375 43.015625 9.90625 
Q 47.609375 13.234375 47.609375 19.390625 
Q 47.609375 24.75 44.3125 27.78125 
Q 41.015625 30.8125 33.5 32.328125 
L 27.484375 33.5 
Q 16.453125 35.6875 11.515625 40.375 
Q 6.59375 45.0625 6.59375 53.421875 
Q 6.59375 63.09375 13.40625 68.65625 
Q 20.21875 74.21875 32.171875 74.21875 
Q 37.3125 74.21875 42.625 73.28125 
Q 47.953125 72.359375 53.515625 70.515625 
z
" id="DejaVuSans-83"/>
       <path d="M 54.890625 33.015625 
L 54.890625 0 
L 45.90625 0 
L 45.90625 32.71875 
Q 45.90625 40.484375 42.875 44.328125 
Q 39.84375 48.1875 33.796875 48.1875 
Q 26.515625 48.1875 22.3125 43.546875 
Q 18.109375 38.921875 18.109375 30.90625 
L 18.109375 0 
L 9.078125 0 
L 9.078125 75.984375 
L 18.109375 75.984375 
L 18.109375 46.1875 
Q 21.34375 51.125 25.703125 53.5625 
Q 30.078125 56 35.796875 56 
Q 45.21875 56 50.046875 50.171875 
Q 54.890625 44.34375 54.890625 33.015625 
z
" id="DejaVuSans-104"/>
      </defs>
      <use xlink:href="#DejaVuSans-83"/>
      <use x="63.476562" xlink:href="#DejaVuSans-111"/>
      <use x="124.658203" xlink:href="#DejaVuSans-117"/>
      <use x="188.037109" xlink:href="#DejaVuSans-116"/>
      <use x="227.246094" xlink:href="#DejaVuSans-104"/>
      <use x="290.625" xlink:href="#DejaVuSans-32"/>
      <use x="322.412109" xlink:href="#DejaVuSans-65"/>
      <use x="390.820312" xlink:href="#DejaVuSans-109"/>
      <use x="488.232422" xlink:href="#DejaVuSans-101"/>
      <use x="549.755859" xlink:href="#DejaVuSans-114"/>
      <use x="590.869141" xlink:href="#DejaVuSans-105"/>
      <use x="618.652344" xlink:href="#DejaVuSans-99"/>
      <use x="673.632812" xlink:href="#DejaVuSans-97"/>
     </g>
    </g>
    <g id="line2d_33">
     <path d="M 60.528125 76.39125 
L 76.528125 76.39125 
" style="fill:none;stroke:#a4a86f;stroke-linecap:square;stroke-width:2;"/>
    </g>
    <g id="line2d_34"/>
    <g id="text_23">
     <!-- North America -->
     <g transform="translate(82.928125 79.19125)scale(0.08 -0.08)">
      <defs>
       <path d="M 9.8125 72.90625 
L 23.09375 72.90625 
L 55.421875 11.921875 
L 55.421875 72.90625 
L 64.984375 72.90625 
L 64.984375 0 
L 51.703125 0 
L 19.390625 60.984375 
L 19.390625 0 
L 9.8125 0 
z
" id="DejaVuSans-78"/>
      </defs>
      <use xlink:href="#DejaVuSans-78"/>
      <use x="74.804688" xlink:href="#DejaVuSans-111"/>
      <use x="135.986328" xlink:href="#DejaVuSans-114"/>
      <use x="177.099609" xlink:href="#DejaVuSans-116"/>
      <use x="216.308594" xlink:href="#DejaVuSans-104"/>
      <use x="279.6875" xlink:href="#DejaVuSans-32"/>
      <use x="311.474609" xlink:href="#DejaVuSans-65"/>
      <use x="379.882812" xlink:href="#DejaVuSans-109"/>
      <use x="477.294922" xlink:href="#DejaVuSans-101"/>
      <use x="538.818359" xlink:href="#DejaVuSans-114"/>
      <use x="579.931641" xlink:href="#DejaVuSans-105"/>
      <use x="607.714844" xlink:href="#DejaVuSans-99"/>
      <use x="662.695312" xlink:href="#DejaVuSans-97"/>
     </g>
    </g>
    <g id="line2d_35">
     <path d="M 60.528125 88.13375 
L 76.528125 88.13375 
" style="fill:none;stroke:#d3d3d3;stroke-linecap:square;stroke-width:2;"/>
    </g>
    <g id="line2d_36"/>
    <g id="text_24">
     <!-- Oceania -->
     <g transform="translate(82.928125 90.93375)scale(0.08 -0.08)">
      <defs>
       <path d="M 39.40625 66.21875 
Q 28.65625 66.21875 22.328125 58.203125 
Q 16.015625 50.203125 16.015625 36.375 
Q 16.015625 22.609375 22.328125 14.59375 
Q 28.65625 6.59375 39.40625 6.59375 
Q 50.140625 6.59375 56.421875 14.59375 
Q 62.703125 22.609375 62.703125 36.375 
Q 62.703125 50.203125 56.421875 58.203125 
Q 50.140625 66.21875 39.40625 66.21875 
z
M 39.40625 74.21875 
Q 54.734375 74.21875 63.90625 63.9375 
Q 73.09375 53.65625 73.09375 36.375 
Q 73.09375 19.140625 63.90625 8.859375 
Q 54.734375 -1.421875 39.40625 -1.421875 
Q 24.03125 -1.421875 14.8125 8.828125 
Q 5.609375 19.09375 5.609375 36.375 
Q 5.609375 53.65625 14.8125 63.9375 
Q 24.03125 74.21875 39.40625 74.21875 
z
" id="DejaVuSans-79"/>
      </defs>
      <use xlink:href="#DejaVuSans-79"/>
      <use x="78.710938" xlink:href="#DejaVuSans-99"/>
      <use x="133.691406" xlink:href="#DejaVuSans-101"/>
      <use x="195.214844" xlink:href="#DejaVuSans-97"/>
      <use x="256.494141" xlink:href="#DejaVuSans-110"/>
      <use x="319.873047" xlink:href="#DejaVuSans-105"/>
      <use x="347.65625" xlink:href="#DejaVuSans-97"/>
     </g>
    </g>
   </g>
  </g>
 </g>
 <defs>
  <clipPath id="p2d2f4ef3bc">
   <rect height="221.76" width="948.6" x="53.328125" y="7.2"/>
  </clipPath>
 </defs>
</svg>
