<?xml version="1.0" encoding="utf-8" standalone="no"?>
<!DOCTYPE svg PUBLIC "-//W3C//DTD SVG 1.1//EN"
  "http://www.w3.org/Graphics/SVG/1.1/DTD/svg11.dtd">
<!-- Created with matplotlib (https://matplotlib.org/) -->
<svg height="298.620937pt" version="1.1" viewBox="0 0 1009.128125 298.620937" width="1009.128125pt" xmlns="http://www.w3.org/2000/svg" xmlns:xlink="http://www.w3.org/1999/xlink">
 <metadata>
  <rdf:RDF xmlns:cc="http://creativecommons.org/ns#" xmlns:dc="http://purl.org/dc/elements/1.1/" xmlns:rdf="http://www.w3.org/1999/02/22-rdf-syntax-ns#">
   <cc:Work>
    <dc:type rdf:resource="http://purl.org/dc/dcmitype/StillImage"/>
    <dc:date>2021-05-19T15:11:12.584478</dc:date>
    <dc:format>image/svg+xml</dc:format>
    <dc:creator>
     <cc:Agent>
      <dc:title>Matplotlib v3.3.3, https://matplotlib.org/</dc:title>
     </cc:Agent>
    </dc:creator>
   </cc:Work>
  </rdf:RDF>
 </metadata>
 <defs>
  <style type="text/css">*{stroke-linecap:butt;stroke-linejoin:round;}</style>
 </defs>
 <g id="figure_1">
  <g id="patch_1">
   <path d="M 0 298.620937 
L 1009.128125 298.620937 
L 1009.128125 0 
L 0 0 
z
" style="fill:#ffffff;"/>
  </g>
  <g id="axes_1">
   <g id="patch_2">
    <path d="M 53.328125 228.96 
L 1001.928125 228.96 
L 1001.928125 7.2 
L 53.328125 7.2 
z
" style="fill:#ffffff;"/>
   </g>
   <g id="matplotlib.axis_1">
    <g id="xtick_1">
     <g id="line2d_1">
      <defs>
       <path d="M 0 0 
L 0 3.5 
" id="mebbc0ee7b7" style="stroke:#000000;stroke-width:0.8;"/>
      </defs>
      <g>
       <use style="stroke:#000000;stroke-width:0.8;" x="115.193342" xlink:href="#mebbc0ee7b7" y="228.96"/>
      </g>
     </g>
     <g id="text_1">
      <!-- 2020-10 -->
      <g transform="translate(117.952717 277.742812)rotate(-90)scale(0.1 -0.1)">
       <defs>
        <path d="M 19.1875 8.296875 
L 53.609375 8.296875 
L 53.609375 0 
L 7.328125 0 
L 7.328125 8.296875 
Q 12.9375 14.109375 22.625 23.890625 
Q 32.328125 33.6875 34.8125 36.53125 
Q 39.546875 41.84375 41.421875 45.53125 
Q 43.3125 49.21875 43.3125 52.78125 
Q 43.3125 58.59375 39.234375 62.25 
Q 35.15625 65.921875 28.609375 65.921875 
Q 23.96875 65.921875 18.8125 64.3125 
Q 13.671875 62.703125 7.8125 59.421875 
L 7.8125 69.390625 
Q 13.765625 71.78125 18.9375 73 
Q 24.125 74.21875 28.421875 74.21875 
Q 39.75 74.21875 46.484375 68.546875 
Q 53.21875 62.890625 53.21875 53.421875 
Q 53.21875 48.921875 51.53125 44.890625 
Q 49.859375 40.875 45.40625 35.40625 
Q 44.1875 33.984375 37.640625 27.21875 
Q 31.109375 20.453125 19.1875 8.296875 
z
" id="DejaVuSans-50"/>
        <path d="M 31.78125 66.40625 
Q 24.171875 66.40625 20.328125 58.90625 
Q 16.5 51.421875 16.5 36.375 
Q 16.5 21.390625 20.328125 13.890625 
Q 24.171875 6.390625 31.78125 6.390625 
Q 39.453125 6.390625 43.28125 13.890625 
Q 47.125 21.390625 47.125 36.375 
Q 47.125 51.421875 43.28125 58.90625 
Q 39.453125 66.40625 31.78125 66.40625 
z
M 31.78125 74.21875 
Q 44.046875 74.21875 50.515625 64.515625 
Q 56.984375 54.828125 56.984375 36.375 
Q 56.984375 17.96875 50.515625 8.265625 
Q 44.046875 -1.421875 31.78125 -1.421875 
Q 19.53125 -1.421875 13.0625 8.265625 
Q 6.59375 17.96875 6.59375 36.375 
Q 6.59375 54.828125 13.0625 64.515625 
Q 19.53125 74.21875 31.78125 74.21875 
z
" id="DejaVuSans-48"/>
        <path d="M 4.890625 31.390625 
L 31.203125 31.390625 
L 31.203125 23.390625 
L 4.890625 23.390625 
z
" id="DejaVuSans-45"/>
        <path d="M 12.40625 8.296875 
L 28.515625 8.296875 
L 28.515625 63.921875 
L 10.984375 60.40625 
L 10.984375 69.390625 
L 28.421875 72.90625 
L 38.28125 72.90625 
L 38.28125 8.296875 
L 54.390625 8.296875 
L 54.390625 0 
L 12.40625 0 
z
" id="DejaVuSans-49"/>
       </defs>
       <use xlink:href="#DejaVuSans-50"/>
       <use x="63.623047" xlink:href="#DejaVuSans-48"/>
       <use x="127.246094" xlink:href="#DejaVuSans-50"/>
       <use x="190.869141" xlink:href="#DejaVuSans-48"/>
       <use x="254.492188" xlink:href="#DejaVuSans-45"/>
       <use x="290.576172" xlink:href="#DejaVuSans-49"/>
       <use x="354.199219" xlink:href="#DejaVuSans-48"/>
      </g>
     </g>
    </g>
    <g id="xtick_2">
     <g id="line2d_2">
      <g>
       <use style="stroke:#000000;stroke-width:0.8;" x="231.424963" xlink:href="#mebbc0ee7b7" y="228.96"/>
      </g>
     </g>
     <g id="text_2">
      <!-- 2020-11 -->
      <g transform="translate(234.184338 277.742812)rotate(-90)scale(0.1 -0.1)">
       <use xlink:href="#DejaVuSans-50"/>
       <use x="63.623047" xlink:href="#DejaVuSans-48"/>
       <use x="127.246094" xlink:href="#DejaVuSans-50"/>
       <use x="190.869141" xlink:href="#DejaVuSans-48"/>
       <use x="254.492188" xlink:href="#DejaVuSans-45"/>
       <use x="290.576172" xlink:href="#DejaVuSans-49"/>
       <use x="354.199219" xlink:href="#DejaVuSans-49"/>
      </g>
     </g>
    </g>
    <g id="xtick_3">
     <g id="line2d_3">
      <g>
       <use style="stroke:#000000;stroke-width:0.8;" x="343.907176" xlink:href="#mebbc0ee7b7" y="228.96"/>
      </g>
     </g>
     <g id="text_3">
      <!-- 2020-12 -->
      <g transform="translate(346.666551 277.742812)rotate(-90)scale(0.1 -0.1)">
       <use xlink:href="#DejaVuSans-50"/>
       <use x="63.623047" xlink:href="#DejaVuSans-48"/>
       <use x="127.246094" xlink:href="#DejaVuSans-50"/>
       <use x="190.869141" xlink:href="#DejaVuSans-48"/>
       <use x="254.492188" xlink:href="#DejaVuSans-45"/>
       <use x="290.576172" xlink:href="#DejaVuSans-49"/>
       <use x="354.199219" xlink:href="#DejaVuSans-50"/>
      </g>
     </g>
    </g>
    <g id="xtick_4">
     <g id="line2d_4">
      <g>
       <use style="stroke:#000000;stroke-width:0.8;" x="460.138797" xlink:href="#mebbc0ee7b7" y="228.96"/>
      </g>
     </g>
     <g id="text_4">
      <!-- 2021-01 -->
      <g transform="translate(462.898172 277.742812)rotate(-90)scale(0.1 -0.1)">
       <use xlink:href="#DejaVuSans-50"/>
       <use x="63.623047" xlink:href="#DejaVuSans-48"/>
       <use x="127.246094" xlink:href="#DejaVuSans-50"/>
       <use x="190.869141" xlink:href="#DejaVuSans-49"/>
       <use x="254.492188" xlink:href="#DejaVuSans-45"/>
       <use x="290.576172" xlink:href="#DejaVuSans-48"/>
       <use x="354.199219" xlink:href="#DejaVuSans-49"/>
      </g>
     </g>
    </g>
    <g id="xtick_5">
     <g id="line2d_5">
      <g>
       <use style="stroke:#000000;stroke-width:0.8;" x="576.370417" xlink:href="#mebbc0ee7b7" y="228.96"/>
      </g>
     </g>
     <g id="text_5">
      <!-- 2021-02 -->
      <g transform="translate(579.129792 277.742812)rotate(-90)scale(0.1 -0.1)">
       <use xlink:href="#DejaVuSans-50"/>
       <use x="63.623047" xlink:href="#DejaVuSans-48"/>
       <use x="127.246094" xlink:href="#DejaVuSans-50"/>
       <use x="190.869141" xlink:href="#DejaVuSans-49"/>
       <use x="254.492188" xlink:href="#DejaVuSans-45"/>
       <use x="290.576172" xlink:href="#DejaVuSans-48"/>
       <use x="354.199219" xlink:href="#DejaVuSans-50"/>
      </g>
     </g>
    </g>
    <g id="xtick_6">
     <g id="line2d_6">
      <g>
       <use style="stroke:#000000;stroke-width:0.8;" x="681.353817" xlink:href="#mebbc0ee7b7" y="228.96"/>
      </g>
     </g>
     <g id="text_6">
      <!-- 2021-03 -->
      <g transform="translate(684.113192 277.742812)rotate(-90)scale(0.1 -0.1)">
       <defs>
        <path d="M 40.578125 39.3125 
Q 47.65625 37.796875 51.625 33 
Q 55.609375 28.21875 55.609375 21.1875 
Q 55.609375 10.40625 48.1875 4.484375 
Q 40.765625 -1.421875 27.09375 -1.421875 
Q 22.515625 -1.421875 17.65625 -0.515625 
Q 12.796875 0.390625 7.625 2.203125 
L 7.625 11.71875 
Q 11.71875 9.328125 16.59375 8.109375 
Q 21.484375 6.890625 26.8125 6.890625 
Q 36.078125 6.890625 40.9375 10.546875 
Q 45.796875 14.203125 45.796875 21.1875 
Q 45.796875 27.640625 41.28125 31.265625 
Q 36.765625 34.90625 28.71875 34.90625 
L 20.21875 34.90625 
L 20.21875 43.015625 
L 29.109375 43.015625 
Q 36.375 43.015625 40.234375 45.921875 
Q 44.09375 48.828125 44.09375 54.296875 
Q 44.09375 59.90625 40.109375 62.90625 
Q 36.140625 65.921875 28.71875 65.921875 
Q 24.65625 65.921875 20.015625 65.03125 
Q 15.375 64.15625 9.8125 62.3125 
L 9.8125 71.09375 
Q 15.4375 72.65625 20.34375 73.4375 
Q 25.25 74.21875 29.59375 74.21875 
Q 40.828125 74.21875 47.359375 69.109375 
Q 53.90625 64.015625 53.90625 55.328125 
Q 53.90625 49.265625 50.4375 45.09375 
Q 46.96875 40.921875 40.578125 39.3125 
z
" id="DejaVuSans-51"/>
       </defs>
       <use xlink:href="#DejaVuSans-50"/>
       <use x="63.623047" xlink:href="#DejaVuSans-48"/>
       <use x="127.246094" xlink:href="#DejaVuSans-50"/>
       <use x="190.869141" xlink:href="#DejaVuSans-49"/>
       <use x="254.492188" xlink:href="#DejaVuSans-45"/>
       <use x="290.576172" xlink:href="#DejaVuSans-48"/>
       <use x="354.199219" xlink:href="#DejaVuSans-51"/>
      </g>
     </g>
    </g>
    <g id="xtick_7">
     <g id="line2d_7">
      <g>
       <use style="stroke:#000000;stroke-width:0.8;" x="797.585437" xlink:href="#mebbc0ee7b7" y="228.96"/>
      </g>
     </g>
     <g id="text_7">
      <!-- 2021-04 -->
      <g transform="translate(800.344812 277.742812)rotate(-90)scale(0.1 -0.1)">
       <defs>
        <path d="M 37.796875 64.3125 
L 12.890625 25.390625 
L 37.796875 25.390625 
z
M 35.203125 72.90625 
L 47.609375 72.90625 
L 47.609375 25.390625 
L 58.015625 25.390625 
L 58.015625 17.1875 
L 47.609375 17.1875 
L 47.609375 0 
L 37.796875 0 
L 37.796875 17.1875 
L 4.890625 17.1875 
L 4.890625 26.703125 
z
" id="DejaVuSans-52"/>
       </defs>
       <use xlink:href="#DejaVuSans-50"/>
       <use x="63.623047" xlink:href="#DejaVuSans-48"/>
       <use x="127.246094" xlink:href="#DejaVuSans-50"/>
       <use x="190.869141" xlink:href="#DejaVuSans-49"/>
       <use x="254.492188" xlink:href="#DejaVuSans-45"/>
       <use x="290.576172" xlink:href="#DejaVuSans-48"/>
       <use x="354.199219" xlink:href="#DejaVuSans-52"/>
      </g>
     </g>
    </g>
    <g id="xtick_8">
     <g id="line2d_8">
      <g>
       <use style="stroke:#000000;stroke-width:0.8;" x="910.067651" xlink:href="#mebbc0ee7b7" y="228.96"/>
      </g>
     </g>
     <g id="text_8">
      <!-- 2021-05 -->
      <g transform="translate(912.827026 277.742812)rotate(-90)scale(0.1 -0.1)">
       <defs>
        <path d="M 10.796875 72.90625 
L 49.515625 72.90625 
L 49.515625 64.59375 
L 19.828125 64.59375 
L 19.828125 46.734375 
Q 21.96875 47.46875 24.109375 47.828125 
Q 26.265625 48.1875 28.421875 48.1875 
Q 40.625 48.1875 47.75 41.5 
Q 54.890625 34.8125 54.890625 23.390625 
Q 54.890625 11.625 47.5625 5.09375 
Q 40.234375 -1.421875 26.90625 -1.421875 
Q 22.3125 -1.421875 17.546875 -0.640625 
Q 12.796875 0.140625 7.71875 1.703125 
L 7.71875 11.625 
Q 12.109375 9.234375 16.796875 8.0625 
Q 21.484375 6.890625 26.703125 6.890625 
Q 35.15625 6.890625 40.078125 11.328125 
Q 45.015625 15.765625 45.015625 23.390625 
Q 45.015625 31 40.078125 35.4375 
Q 35.15625 39.890625 26.703125 39.890625 
Q 22.75 39.890625 18.8125 39.015625 
Q 14.890625 38.140625 10.796875 36.28125 
z
" id="DejaVuSans-53"/>
       </defs>
       <use xlink:href="#DejaVuSans-50"/>
       <use x="63.623047" xlink:href="#DejaVuSans-48"/>
       <use x="127.246094" xlink:href="#DejaVuSans-50"/>
       <use x="190.869141" xlink:href="#DejaVuSans-49"/>
       <use x="254.492188" xlink:href="#DejaVuSans-45"/>
       <use x="290.576172" xlink:href="#DejaVuSans-48"/>
       <use x="354.199219" xlink:href="#DejaVuSans-53"/>
      </g>
     </g>
    </g>
    <g id="text_9">
     <!-- Date -->
     <g transform="translate(515.677344 289.34125)scale(0.1 -0.1)">
      <defs>
       <path d="M 19.671875 64.796875 
L 19.671875 8.109375 
L 31.59375 8.109375 
Q 46.6875 8.109375 53.6875 14.9375 
Q 60.6875 21.78125 60.6875 36.53125 
Q 60.6875 51.171875 53.6875 57.984375 
Q 46.6875 64.796875 31.59375 64.796875 
z
M 9.8125 72.90625 
L 30.078125 72.90625 
Q 51.265625 72.90625 61.171875 64.09375 
Q 71.09375 55.28125 71.09375 36.53125 
Q 71.09375 17.671875 61.125 8.828125 
Q 51.171875 0 30.078125 0 
L 9.8125 0 
z
" id="DejaVuSans-68"/>
       <path d="M 34.28125 27.484375 
Q 23.390625 27.484375 19.1875 25 
Q 14.984375 22.515625 14.984375 16.5 
Q 14.984375 11.71875 18.140625 8.90625 
Q 21.296875 6.109375 26.703125 6.109375 
Q 34.1875 6.109375 38.703125 11.40625 
Q 43.21875 16.703125 43.21875 25.484375 
L 43.21875 27.484375 
z
M 52.203125 31.203125 
L 52.203125 0 
L 43.21875 0 
L 43.21875 8.296875 
Q 40.140625 3.328125 35.546875 0.953125 
Q 30.953125 -1.421875 24.3125 -1.421875 
Q 15.921875 -1.421875 10.953125 3.296875 
Q 6 8.015625 6 15.921875 
Q 6 25.140625 12.171875 29.828125 
Q 18.359375 34.515625 30.609375 34.515625 
L 43.21875 34.515625 
L 43.21875 35.40625 
Q 43.21875 41.609375 39.140625 45 
Q 35.0625 48.390625 27.6875 48.390625 
Q 23 48.390625 18.546875 47.265625 
Q 14.109375 46.140625 10.015625 43.890625 
L 10.015625 52.203125 
Q 14.9375 54.109375 19.578125 55.046875 
Q 24.21875 56 28.609375 56 
Q 40.484375 56 46.34375 49.84375 
Q 52.203125 43.703125 52.203125 31.203125 
z
" id="DejaVuSans-97"/>
       <path d="M 18.3125 70.21875 
L 18.3125 54.6875 
L 36.8125 54.6875 
L 36.8125 47.703125 
L 18.3125 47.703125 
L 18.3125 18.015625 
Q 18.3125 11.328125 20.140625 9.421875 
Q 21.96875 7.515625 27.59375 7.515625 
L 36.8125 7.515625 
L 36.8125 0 
L 27.59375 0 
Q 17.1875 0 13.234375 3.875 
Q 9.28125 7.765625 9.28125 18.015625 
L 9.28125 47.703125 
L 2.6875 47.703125 
L 2.6875 54.6875 
L 9.28125 54.6875 
L 9.28125 70.21875 
z
" id="DejaVuSans-116"/>
       <path d="M 56.203125 29.59375 
L 56.203125 25.203125 
L 14.890625 25.203125 
Q 15.484375 15.921875 20.484375 11.0625 
Q 25.484375 6.203125 34.421875 6.203125 
Q 39.59375 6.203125 44.453125 7.46875 
Q 49.3125 8.734375 54.109375 11.28125 
L 54.109375 2.78125 
Q 49.265625 0.734375 44.1875 -0.34375 
Q 39.109375 -1.421875 33.890625 -1.421875 
Q 20.796875 -1.421875 13.15625 6.1875 
Q 5.515625 13.8125 5.515625 26.8125 
Q 5.515625 40.234375 12.765625 48.109375 
Q 20.015625 56 32.328125 56 
Q 43.359375 56 49.78125 48.890625 
Q 56.203125 41.796875 56.203125 29.59375 
z
M 47.21875 32.234375 
Q 47.125 39.59375 43.09375 43.984375 
Q 39.0625 48.390625 32.421875 48.390625 
Q 24.90625 48.390625 20.390625 44.140625 
Q 15.875 39.890625 15.1875 32.171875 
z
" id="DejaVuSans-101"/>
      </defs>
      <use xlink:href="#DejaVuSans-68"/>
      <use x="77.001953" xlink:href="#DejaVuSans-97"/>
      <use x="138.28125" xlink:href="#DejaVuSans-116"/>
      <use x="177.490234" xlink:href="#DejaVuSans-101"/>
     </g>
    </g>
   </g>
   <g id="matplotlib.axis_2">
    <g id="ytick_1">
     <g id="line2d_9">
      <defs>
       <path d="M 0 0 
L -3.5 0 
" id="m8f6736f8e7" style="stroke:#000000;stroke-width:0.8;"/>
      </defs>
      <g>
       <use style="stroke:#000000;stroke-width:0.8;" x="53.328125" xlink:href="#m8f6736f8e7" y="228.96"/>
      </g>
     </g>
     <g id="text_10">
      <!-- 1 -->
      <g transform="translate(39.965625 232.759219)scale(0.1 -0.1)">
       <use xlink:href="#DejaVuSans-49"/>
      </g>
     </g>
    </g>
    <g id="ytick_2">
     <g id="line2d_10">
      <g>
       <use style="stroke:#000000;stroke-width:0.8;" x="53.328125" xlink:href="#m8f6736f8e7" y="199.720897"/>
      </g>
     </g>
     <g id="text_11">
      <!-- 3 -->
      <g transform="translate(39.965625 203.520116)scale(0.1 -0.1)">
       <use xlink:href="#DejaVuSans-51"/>
      </g>
     </g>
    </g>
    <g id="ytick_3">
     <g id="line2d_11">
      <g>
       <use style="stroke:#000000;stroke-width:0.8;" x="53.328125" xlink:href="#m8f6736f8e7" y="170.481795"/>
      </g>
     </g>
     <g id="text_12">
      <!-- 10 -->
      <g transform="translate(33.603125 174.281013)scale(0.1 -0.1)">
       <use xlink:href="#DejaVuSans-49"/>
       <use x="63.623047" xlink:href="#DejaVuSans-48"/>
      </g>
     </g>
    </g>
    <g id="ytick_4">
     <g id="line2d_12">
      <g>
       <use style="stroke:#000000;stroke-width:0.8;" x="53.328125" xlink:href="#m8f6736f8e7" y="141.242692"/>
      </g>
     </g>
     <g id="text_13">
      <!-- 31 -->
      <g transform="translate(33.603125 145.041911)scale(0.1 -0.1)">
       <use xlink:href="#DejaVuSans-51"/>
       <use x="63.623047" xlink:href="#DejaVuSans-49"/>
      </g>
     </g>
    </g>
    <g id="ytick_5">
     <g id="line2d_13">
      <g>
       <use style="stroke:#000000;stroke-width:0.8;" x="53.328125" xlink:href="#m8f6736f8e7" y="112.003589"/>
      </g>
     </g>
     <g id="text_14">
      <!-- 100 -->
      <g transform="translate(27.240625 115.802808)scale(0.1 -0.1)">
       <use xlink:href="#DejaVuSans-49"/>
       <use x="63.623047" xlink:href="#DejaVuSans-48"/>
       <use x="127.246094" xlink:href="#DejaVuSans-48"/>
      </g>
     </g>
    </g>
    <g id="ytick_6">
     <g id="line2d_14">
      <g>
       <use style="stroke:#000000;stroke-width:0.8;" x="53.328125" xlink:href="#m8f6736f8e7" y="82.764486"/>
      </g>
     </g>
     <g id="text_15">
      <!-- 316 -->
      <g transform="translate(27.240625 86.563705)scale(0.1 -0.1)">
       <defs>
        <path d="M 33.015625 40.375 
Q 26.375 40.375 22.484375 35.828125 
Q 18.609375 31.296875 18.609375 23.390625 
Q 18.609375 15.53125 22.484375 10.953125 
Q 26.375 6.390625 33.015625 6.390625 
Q 39.65625 6.390625 43.53125 10.953125 
Q 47.40625 15.53125 47.40625 23.390625 
Q 47.40625 31.296875 43.53125 35.828125 
Q 39.65625 40.375 33.015625 40.375 
z
M 52.59375 71.296875 
L 52.59375 62.3125 
Q 48.875 64.0625 45.09375 64.984375 
Q 41.3125 65.921875 37.59375 65.921875 
Q 27.828125 65.921875 22.671875 59.328125 
Q 17.53125 52.734375 16.796875 39.40625 
Q 19.671875 43.65625 24.015625 45.921875 
Q 28.375 48.1875 33.59375 48.1875 
Q 44.578125 48.1875 50.953125 41.515625 
Q 57.328125 34.859375 57.328125 23.390625 
Q 57.328125 12.15625 50.6875 5.359375 
Q 44.046875 -1.421875 33.015625 -1.421875 
Q 20.359375 -1.421875 13.671875 8.265625 
Q 6.984375 17.96875 6.984375 36.375 
Q 6.984375 53.65625 15.1875 63.9375 
Q 23.390625 74.21875 37.203125 74.21875 
Q 40.921875 74.21875 44.703125 73.484375 
Q 48.484375 72.75 52.59375 71.296875 
z
" id="DejaVuSans-54"/>
       </defs>
       <use xlink:href="#DejaVuSans-51"/>
       <use x="63.623047" xlink:href="#DejaVuSans-49"/>
       <use x="127.246094" xlink:href="#DejaVuSans-54"/>
      </g>
     </g>
    </g>
    <g id="ytick_7">
     <g id="line2d_15">
      <g>
       <use style="stroke:#000000;stroke-width:0.8;" x="53.328125" xlink:href="#m8f6736f8e7" y="53.525384"/>
      </g>
     </g>
     <g id="text_16">
      <!-- 1000 -->
      <g transform="translate(20.878125 57.324602)scale(0.1 -0.1)">
       <use xlink:href="#DejaVuSans-49"/>
       <use x="63.623047" xlink:href="#DejaVuSans-48"/>
       <use x="127.246094" xlink:href="#DejaVuSans-48"/>
       <use x="190.869141" xlink:href="#DejaVuSans-48"/>
      </g>
     </g>
    </g>
    <g id="ytick_8">
     <g id="line2d_16">
      <g>
       <use style="stroke:#000000;stroke-width:0.8;" x="53.328125" xlink:href="#m8f6736f8e7" y="24.286281"/>
      </g>
     </g>
     <g id="text_17">
      <!-- 3162 -->
      <g transform="translate(20.878125 28.0855)scale(0.1 -0.1)">
       <use xlink:href="#DejaVuSans-51"/>
       <use x="63.623047" xlink:href="#DejaVuSans-49"/>
       <use x="127.246094" xlink:href="#DejaVuSans-54"/>
       <use x="190.869141" xlink:href="#DejaVuSans-50"/>
      </g>
     </g>
    </g>
    <g id="text_18">
     <!-- Count (7 day rolling average) -->
     <g transform="translate(14.798438 191.547969)rotate(-90)scale(0.1 -0.1)">
      <defs>
       <path d="M 64.40625 67.28125 
L 64.40625 56.890625 
Q 59.421875 61.53125 53.78125 63.8125 
Q 48.140625 66.109375 41.796875 66.109375 
Q 29.296875 66.109375 22.65625 58.46875 
Q 16.015625 50.828125 16.015625 36.375 
Q 16.015625 21.96875 22.65625 14.328125 
Q 29.296875 6.6875 41.796875 6.6875 
Q 48.140625 6.6875 53.78125 8.984375 
Q 59.421875 11.28125 64.40625 15.921875 
L 64.40625 5.609375 
Q 59.234375 2.09375 53.4375 0.328125 
Q 47.65625 -1.421875 41.21875 -1.421875 
Q 24.65625 -1.421875 15.125 8.703125 
Q 5.609375 18.84375 5.609375 36.375 
Q 5.609375 53.953125 15.125 64.078125 
Q 24.65625 74.21875 41.21875 74.21875 
Q 47.75 74.21875 53.53125 72.484375 
Q 59.328125 70.75 64.40625 67.28125 
z
" id="DejaVuSans-67"/>
       <path d="M 30.609375 48.390625 
Q 23.390625 48.390625 19.1875 42.75 
Q 14.984375 37.109375 14.984375 27.296875 
Q 14.984375 17.484375 19.15625 11.84375 
Q 23.34375 6.203125 30.609375 6.203125 
Q 37.796875 6.203125 41.984375 11.859375 
Q 46.1875 17.53125 46.1875 27.296875 
Q 46.1875 37.015625 41.984375 42.703125 
Q 37.796875 48.390625 30.609375 48.390625 
z
M 30.609375 56 
Q 42.328125 56 49.015625 48.375 
Q 55.71875 40.765625 55.71875 27.296875 
Q 55.71875 13.875 49.015625 6.21875 
Q 42.328125 -1.421875 30.609375 -1.421875 
Q 18.84375 -1.421875 12.171875 6.21875 
Q 5.515625 13.875 5.515625 27.296875 
Q 5.515625 40.765625 12.171875 48.375 
Q 18.84375 56 30.609375 56 
z
" id="DejaVuSans-111"/>
       <path d="M 8.5 21.578125 
L 8.5 54.6875 
L 17.484375 54.6875 
L 17.484375 21.921875 
Q 17.484375 14.15625 20.5 10.265625 
Q 23.53125 6.390625 29.59375 6.390625 
Q 36.859375 6.390625 41.078125 11.03125 
Q 45.3125 15.671875 45.3125 23.6875 
L 45.3125 54.6875 
L 54.296875 54.6875 
L 54.296875 0 
L 45.3125 0 
L 45.3125 8.40625 
Q 42.046875 3.421875 37.71875 1 
Q 33.40625 -1.421875 27.6875 -1.421875 
Q 18.265625 -1.421875 13.375 4.4375 
Q 8.5 10.296875 8.5 21.578125 
z
M 31.109375 56 
z
" id="DejaVuSans-117"/>
       <path d="M 54.890625 33.015625 
L 54.890625 0 
L 45.90625 0 
L 45.90625 32.71875 
Q 45.90625 40.484375 42.875 44.328125 
Q 39.84375 48.1875 33.796875 48.1875 
Q 26.515625 48.1875 22.3125 43.546875 
Q 18.109375 38.921875 18.109375 30.90625 
L 18.109375 0 
L 9.078125 0 
L 9.078125 54.6875 
L 18.109375 54.6875 
L 18.109375 46.1875 
Q 21.34375 51.125 25.703125 53.5625 
Q 30.078125 56 35.796875 56 
Q 45.21875 56 50.046875 50.171875 
Q 54.890625 44.34375 54.890625 33.015625 
z
" id="DejaVuSans-110"/>
       <path id="DejaVuSans-32"/>
       <path d="M 31 75.875 
Q 24.46875 64.65625 21.28125 53.65625 
Q 18.109375 42.671875 18.109375 31.390625 
Q 18.109375 20.125 21.3125 9.0625 
Q 24.515625 -2 31 -13.1875 
L 23.1875 -13.1875 
Q 15.875 -1.703125 12.234375 9.375 
Q 8.59375 20.453125 8.59375 31.390625 
Q 8.59375 42.28125 12.203125 53.3125 
Q 15.828125 64.359375 23.1875 75.875 
z
" id="DejaVuSans-40"/>
       <path d="M 8.203125 72.90625 
L 55.078125 72.90625 
L 55.078125 68.703125 
L 28.609375 0 
L 18.3125 0 
L 43.21875 64.59375 
L 8.203125 64.59375 
z
" id="DejaVuSans-55"/>
       <path d="M 45.40625 46.390625 
L 45.40625 75.984375 
L 54.390625 75.984375 
L 54.390625 0 
L 45.40625 0 
L 45.40625 8.203125 
Q 42.578125 3.328125 38.25 0.953125 
Q 33.9375 -1.421875 27.875 -1.421875 
Q 17.96875 -1.421875 11.734375 6.484375 
Q 5.515625 14.40625 5.515625 27.296875 
Q 5.515625 40.1875 11.734375 48.09375 
Q 17.96875 56 27.875 56 
Q 33.9375 56 38.25 53.625 
Q 42.578125 51.265625 45.40625 46.390625 
z
M 14.796875 27.296875 
Q 14.796875 17.390625 18.875 11.75 
Q 22.953125 6.109375 30.078125 6.109375 
Q 37.203125 6.109375 41.296875 11.75 
Q 45.40625 17.390625 45.40625 27.296875 
Q 45.40625 37.203125 41.296875 42.84375 
Q 37.203125 48.484375 30.078125 48.484375 
Q 22.953125 48.484375 18.875 42.84375 
Q 14.796875 37.203125 14.796875 27.296875 
z
" id="DejaVuSans-100"/>
       <path d="M 32.171875 -5.078125 
Q 28.375 -14.84375 24.75 -17.8125 
Q 21.140625 -20.796875 15.09375 -20.796875 
L 7.90625 -20.796875 
L 7.90625 -13.28125 
L 13.1875 -13.28125 
Q 16.890625 -13.28125 18.9375 -11.515625 
Q 21 -9.765625 23.484375 -3.21875 
L 25.09375 0.875 
L 2.984375 54.6875 
L 12.5 54.6875 
L 29.59375 11.921875 
L 46.6875 54.6875 
L 56.203125 54.6875 
z
" id="DejaVuSans-121"/>
       <path d="M 41.109375 46.296875 
Q 39.59375 47.171875 37.8125 47.578125 
Q 36.03125 48 33.890625 48 
Q 26.265625 48 22.1875 43.046875 
Q 18.109375 38.09375 18.109375 28.8125 
L 18.109375 0 
L 9.078125 0 
L 9.078125 54.6875 
L 18.109375 54.6875 
L 18.109375 46.1875 
Q 20.953125 51.171875 25.484375 53.578125 
Q 30.03125 56 36.53125 56 
Q 37.453125 56 38.578125 55.875 
Q 39.703125 55.765625 41.0625 55.515625 
z
" id="DejaVuSans-114"/>
       <path d="M 9.421875 75.984375 
L 18.40625 75.984375 
L 18.40625 0 
L 9.421875 0 
z
" id="DejaVuSans-108"/>
       <path d="M 9.421875 54.6875 
L 18.40625 54.6875 
L 18.40625 0 
L 9.421875 0 
z
M 9.421875 75.984375 
L 18.40625 75.984375 
L 18.40625 64.59375 
L 9.421875 64.59375 
z
" id="DejaVuSans-105"/>
       <path d="M 45.40625 27.984375 
Q 45.40625 37.75 41.375 43.109375 
Q 37.359375 48.484375 30.078125 48.484375 
Q 22.859375 48.484375 18.828125 43.109375 
Q 14.796875 37.75 14.796875 27.984375 
Q 14.796875 18.265625 18.828125 12.890625 
Q 22.859375 7.515625 30.078125 7.515625 
Q 37.359375 7.515625 41.375 12.890625 
Q 45.40625 18.265625 45.40625 27.984375 
z
M 54.390625 6.78125 
Q 54.390625 -7.171875 48.1875 -13.984375 
Q 42 -20.796875 29.203125 -20.796875 
Q 24.46875 -20.796875 20.265625 -20.09375 
Q 16.0625 -19.390625 12.109375 -17.921875 
L 12.109375 -9.1875 
Q 16.0625 -11.328125 19.921875 -12.34375 
Q 23.78125 -13.375 27.78125 -13.375 
Q 36.625 -13.375 41.015625 -8.765625 
Q 45.40625 -4.15625 45.40625 5.171875 
L 45.40625 9.625 
Q 42.625 4.78125 38.28125 2.390625 
Q 33.9375 0 27.875 0 
Q 17.828125 0 11.671875 7.65625 
Q 5.515625 15.328125 5.515625 27.984375 
Q 5.515625 40.671875 11.671875 48.328125 
Q 17.828125 56 27.875 56 
Q 33.9375 56 38.28125 53.609375 
Q 42.625 51.21875 45.40625 46.390625 
L 45.40625 54.6875 
L 54.390625 54.6875 
z
" id="DejaVuSans-103"/>
       <path d="M 2.984375 54.6875 
L 12.5 54.6875 
L 29.59375 8.796875 
L 46.6875 54.6875 
L 56.203125 54.6875 
L 35.6875 0 
L 23.484375 0 
z
" id="DejaVuSans-118"/>
       <path d="M 8.015625 75.875 
L 15.828125 75.875 
Q 23.140625 64.359375 26.78125 53.3125 
Q 30.421875 42.28125 30.421875 31.390625 
Q 30.421875 20.453125 26.78125 9.375 
Q 23.140625 -1.703125 15.828125 -13.1875 
L 8.015625 -13.1875 
Q 14.5 -2 17.703125 9.0625 
Q 20.90625 20.125 20.90625 31.390625 
Q 20.90625 42.671875 17.703125 53.65625 
Q 14.5 64.65625 8.015625 75.875 
z
" id="DejaVuSans-41"/>
      </defs>
      <use xlink:href="#DejaVuSans-67"/>
      <use x="69.824219" xlink:href="#DejaVuSans-111"/>
      <use x="131.005859" xlink:href="#DejaVuSans-117"/>
      <use x="194.384766" xlink:href="#DejaVuSans-110"/>
      <use x="257.763672" xlink:href="#DejaVuSans-116"/>
      <use x="296.972656" xlink:href="#DejaVuSans-32"/>
      <use x="328.759766" xlink:href="#DejaVuSans-40"/>
      <use x="367.773438" xlink:href="#DejaVuSans-55"/>
      <use x="431.396484" xlink:href="#DejaVuSans-32"/>
      <use x="463.183594" xlink:href="#DejaVuSans-100"/>
      <use x="526.660156" xlink:href="#DejaVuSans-97"/>
      <use x="587.939453" xlink:href="#DejaVuSans-121"/>
      <use x="647.119141" xlink:href="#DejaVuSans-32"/>
      <use x="678.90625" xlink:href="#DejaVuSans-114"/>
      <use x="717.769531" xlink:href="#DejaVuSans-111"/>
      <use x="778.951172" xlink:href="#DejaVuSans-108"/>
      <use x="806.734375" xlink:href="#DejaVuSans-108"/>
      <use x="834.517578" xlink:href="#DejaVuSans-105"/>
      <use x="862.300781" xlink:href="#DejaVuSans-110"/>
      <use x="925.679688" xlink:href="#DejaVuSans-103"/>
      <use x="989.15625" xlink:href="#DejaVuSans-32"/>
      <use x="1020.943359" xlink:href="#DejaVuSans-97"/>
      <use x="1082.222656" xlink:href="#DejaVuSans-118"/>
      <use x="1141.402344" xlink:href="#DejaVuSans-101"/>
      <use x="1202.925781" xlink:href="#DejaVuSans-114"/>
      <use x="1244.039062" xlink:href="#DejaVuSans-97"/>
      <use x="1305.318359" xlink:href="#DejaVuSans-103"/>
      <use x="1368.794922" xlink:href="#DejaVuSans-101"/>
      <use x="1430.318359" xlink:href="#DejaVuSans-41"/>
     </g>
    </g>
   </g>
   <g id="line2d_17">
    <path clip-path="url(#p0118ffba41)" d="M 265.169627 219.901611 
L 268.919034 222.577427 
L 280.167255 222.577427 
L 283.916663 228.96 
L 295.164884 228.96 
L 298.914291 225.568735 
L 313.911919 225.568735 
L 317.661327 222.577427 
L 321.410734 222.577427 
L 325.160141 225.568735 
L 340.157769 225.568735 
L 343.907176 228.96 
L 373.902433 228.96 
L 377.65184 225.568735 
L 381.401248 222.577427 
L 392.649469 222.577427 
L 396.398876 217.481041 
L 400.148283 217.481041 
L 403.89769 213.238409 
L 407.647097 211.356306 
L 411.396504 209.604111 
L 415.145912 202.297917 
L 418.895319 195.634715 
L 422.644726 196.630794 
L 426.394133 192.861406 
L 430.14354 192.861406 
L 433.892947 194.676233 
L 437.642354 182.857513 
L 441.391761 182.273654 
L 445.141168 178.031021 
L 448.890576 168.729599 
L 452.639983 164.099222 
L 456.38939 158.319474 
L 460.138797 156.582266 
L 463.888204 157.219875 
L 467.637611 154.180784 
L 471.387018 152.162652 
L 475.136425 149.967546 
L 478.885833 149.015056 
L 482.63524 147.798212 
L 486.384647 145.526597 
L 490.134054 145.662773 
L 493.883461 146.637014 
L 497.632868 144.593277 
L 501.382275 144.724527 
L 505.131682 144.593277 
L 508.881089 142.5806 
L 512.630497 141.983001 
L 516.379904 138.459193 
L 520.129311 137.254377 
L 523.878718 135.732018 
L 527.628125 134.035295 
L 531.377532 129.825908 
L 535.126939 129.033321 
L 538.876346 127.787453 
L 546.375161 127.451956 
L 550.124568 126.216018 
L 553.873975 124.027384 
L 557.623382 121.532786 
L 561.372789 119.213217 
L 565.122196 117.400052 
L 568.871603 117.132245 
L 572.62101 115.834002 
L 576.370417 113.078157 
L 580.119825 111.500667 
L 583.869232 111.429627 
L 591.368046 108.835524 
L 595.117453 107.985212 
L 598.86686 106.805162 
L 602.616267 105.173485 
L 606.365674 100.363527 
L 610.115082 97.257768 
L 613.864489 96.478113 
L 617.613896 94.49076 
L 621.363303 92.766495 
L 625.11271 91.880569 
L 628.862117 90.521274 
L 636.360931 90.755924 
L 643.859746 89.633827 
L 647.609153 89.483905 
L 651.35856 88.130449 
L 658.857374 83.635066 
L 662.606781 80.945007 
L 666.356188 78.844905 
L 670.105595 77.078948 
L 673.855002 75.608972 
L 677.60441 74.984816 
L 681.353817 73.821024 
L 685.103224 73.532239 
L 688.852631 72.279456 
L 696.351445 69.458282 
L 700.100852 69.020454 
L 703.850259 67.814117 
L 707.599667 65.340341 
L 711.349074 63.826513 
L 715.098481 63.112727 
L 718.847888 62.00981 
L 722.597295 60.05037 
L 726.346702 58.411007 
L 730.096109 57.721224 
L 733.845516 56.529847 
L 737.594923 54.016264 
L 741.344331 52.400555 
L 745.093738 50.042222 
L 748.843145 49.232844 
L 752.592552 48.630329 
L 756.341959 47.849554 
L 760.091366 46.584618 
L 763.840773 45.756315 
L 767.59018 43.186798 
L 771.339587 41.901386 
L 775.088995 41.105907 
L 778.838402 40.036343 
L 782.587809 39.221897 
L 786.337216 37.663521 
L 790.086623 36.32948 
L 793.83603 35.377895 
L 797.585437 33.663252 
L 801.334844 32.559012 
L 805.084251 32.332784 
L 808.833659 32.334359 
L 812.583066 31.274689 
L 816.332473 30.395728 
L 820.08188 30.0594 
L 823.831287 30.068042 
L 831.330101 27.960967 
L 835.079508 27.21493 
L 846.32773 26.996985 
L 850.077137 28.0646 
L 853.826544 29.460228 
L 865.074765 32.462263 
L 872.57358 35.266276 
L 883.821801 37.545284 
L 887.571208 37.73356 
L 891.320615 38.88331 
L 895.070022 40.18181 
L 902.568836 43.114456 
L 906.318244 45.51962 
L 910.067651 47.604117 
L 913.817058 50.274186 
L 917.566465 55.22063 
L 921.315872 61.275647 
L 925.065279 68.459067 
L 928.814686 75.957595 
L 932.564093 81.637885 
L 936.3135 86.338602 
L 940.062908 89.142406 
L 943.812315 98.399621 
L 947.561722 105.480314 
L 951.311129 114.042462 
L 955.060536 125.403752 
L 955.060536 125.403752 
" style="fill:none;stroke:#947383;stroke-linecap:square;stroke-width:2;"/>
   </g>
   <g id="line2d_18">
    <path clip-path="url(#p0118ffba41)" d="M 126.441564 225.568735 
L 130.190971 228.96 
L 212.677927 228.96 
L 216.427334 225.568735 
L 238.923777 225.568735 
L 242.673184 228.96 
L 253.921406 228.96 
L 257.670813 215.271234 
L 261.42022 193.752612 
L 268.919034 193.752612 
L 272.668441 190.361347 
L 280.167255 190.361347 
L 283.916663 194.676233 
L 287.66607 215.271234 
L 291.415477 213.238409 
L 295.164884 213.238409 
L 298.914291 219.901611 
L 310.162512 219.901611 
L 313.911919 215.271234 
L 317.661327 217.481041 
L 321.410734 217.481041 
L 325.160141 219.901611 
L 328.909548 219.901611 
L 332.658955 215.271234 
L 336.408362 213.238409 
L 340.157769 196.630794 
L 343.907176 195.634715 
L 347.656583 193.752612 
L 355.155398 193.752612 
L 362.654212 195.634715 
L 366.403619 191.167661 
L 370.153026 190.361347 
L 373.902433 190.361347 
L 377.65184 184.694224 
L 381.401248 184.067111 
L 385.150655 182.857513 
L 388.900062 179.0271 
L 392.649469 168.729599 
L 396.398876 161.678652 
L 400.148283 159.002836 
L 403.89769 157.873905 
L 407.647097 153.990545 
L 411.396504 151.125905 
L 415.145912 148.097 
L 418.895319 136.672747 
L 422.644726 132.444862 
L 426.394133 128.891834 
L 430.14354 127.451956 
L 433.892947 127.318988 
L 437.642354 125.900526 
L 441.391761 125.219939 
L 445.141168 120.906961 
L 452.639983 115.834002 
L 456.38939 113.963956 
L 460.138797 113.230006 
L 463.888204 112.369016 
L 467.637611 110.868349 
L 471.387018 107.585738 
L 475.136425 105.876262 
L 478.885833 105.592813 
L 486.384647 97.605254 
L 490.134054 96.281998 
L 493.883461 94.728542 
L 497.632868 89.830059 
L 501.382275 89.024692 
L 505.131682 87.102774 
L 508.881089 86.64419 
L 512.630497 85.202207 
L 516.379904 84.284451 
L 520.129311 84.33322 
L 523.878718 81.009167 
L 531.377532 78.319436 
L 535.126939 77.337066 
L 538.876346 76.642473 
L 542.625753 76.418079 
L 546.375161 75.835032 
L 553.873975 71.970058 
L 557.623382 70.336146 
L 561.372789 68.893886 
L 565.122196 67.191355 
L 568.871603 66.565303 
L 572.62101 66.528953 
L 576.370417 62.698055 
L 580.119825 59.682463 
L 583.869232 57.191797 
L 587.618639 55.376248 
L 591.368046 54.513047 
L 595.117453 53.898174 
L 598.86686 53.115111 
L 602.616267 49.824899 
L 606.365674 48.83461 
L 613.864489 47.806069 
L 617.613896 46.282762 
L 621.363303 45.708266 
L 625.11271 45.702933 
L 628.862117 43.198875 
L 636.360931 41.381049 
L 640.110338 40.083314 
L 643.859746 39.699423 
L 647.609153 39.621658 
L 651.35856 39.271525 
L 655.107967 37.325781 
L 658.857374 36.960326 
L 662.606781 35.627707 
L 666.356188 35.190373 
L 670.105595 34.565367 
L 673.855002 34.320631 
L 677.60441 33.76303 
L 681.353817 32.779258 
L 685.103224 30.696667 
L 688.852631 29.744531 
L 692.602038 29.261278 
L 696.351445 28.571544 
L 700.100852 27.768116 
L 703.850259 27.503687 
L 707.599667 25.596389 
L 711.349074 25.363102 
L 715.098481 24.695645 
L 718.847888 23.876509 
L 730.096109 22.873744 
L 733.845516 21.728964 
L 737.594923 20.409998 
L 741.344331 20.392276 
L 745.093738 19.631184 
L 748.843145 19.599683 
L 752.592552 19.924192 
L 760.091366 19.906805 
L 763.840773 21.052332 
L 767.59018 21.255166 
L 771.339587 21.152533 
L 775.088995 20.272485 
L 778.838402 20.091905 
L 782.587809 20.373583 
L 786.337216 19.985138 
L 790.086623 18.964708 
L 793.83603 19.18618 
L 797.585437 19.587285 
L 801.334844 20.703216 
L 808.833659 20.619661 
L 812.583066 23.672987 
L 816.332473 24.979385 
L 820.08188 24.413888 
L 823.831287 23.98512 
L 827.580694 22.661923 
L 831.330101 21.822503 
L 835.079508 21.652312 
L 838.828916 19.161789 
L 842.578323 17.775977 
L 846.32773 17.76 
L 850.077137 18.194939 
L 853.826544 18.089549 
L 857.575951 18.625518 
L 861.325358 18.74884 
L 865.074765 19.491162 
L 868.824172 20.366699 
L 876.322987 20.584928 
L 880.072394 20.688276 
L 883.821801 20.670358 
L 887.571208 20.854111 
L 891.320615 21.84021 
L 895.070022 22.407064 
L 898.819429 23.834772 
L 902.568836 23.839281 
L 910.067651 25.536058 
L 913.817058 26.06949 
L 917.566465 29.347952 
L 925.065279 33.287631 
L 932.564093 42.381087 
L 936.3135 44.599403 
L 940.062908 45.930588 
L 947.561722 67.485106 
L 951.311129 74.70762 
L 955.060536 83.386945 
L 958.809943 95.5313 
L 958.809943 95.5313 
" style="fill:none;stroke:#96c6ad;stroke-linecap:square;stroke-width:2;"/>
   </g>
   <g id="line2d_19">
    <path clip-path="url(#p0118ffba41)" d="M 235.17437 225.568735 
L 238.923777 228.96 
L 280.167255 228.96 
L 283.916663 225.568735 
L 287.66607 222.577427 
L 298.914291 222.577427 
L 302.663698 219.901611 
L 306.413105 219.901611 
L 310.162512 222.577427 
L 313.911919 225.568735 
L 317.661327 222.577427 
L 321.410734 222.577427 
L 325.160141 219.901611 
L 328.909548 217.481041 
L 332.658955 215.271234 
L 343.907176 215.271234 
L 347.656583 211.356306 
L 351.405991 213.238409 
L 355.155398 217.481041 
L 358.904805 219.901611 
L 362.654212 217.481041 
L 366.403619 215.271234 
L 370.153026 213.238409 
L 373.902433 217.481041 
L 377.65184 213.238409 
L 385.150655 213.238409 
L 388.900062 211.356306 
L 396.398876 211.356306 
L 400.148283 209.604111 
L 403.89769 206.425372 
L 407.647097 204.973733 
L 411.396504 199.877347 
L 415.145912 193.752612 
L 418.895319 186.674194 
L 422.644726 178.524177 
L 426.394133 175.699406 
L 430.14354 155.960273 
L 433.892947 153.428233 
L 437.642354 150.129826 
L 441.391761 145.937335 
L 445.141168 142.5806 
L 448.890576 140.380873 
L 452.639983 140.16003 
L 456.38939 144.856458 
L 460.138797 143.693045 
L 463.888204 140.16003 
L 467.637611 131.646156 
L 471.387018 123.737794 
L 475.136425 120.752886 
L 478.885833 119.358203 
L 482.63524 115.582131 
L 486.384647 114.719749 
L 490.134054 116.003315 
L 493.883461 121.217946 
L 497.632868 124.557115 
L 501.382275 125.037446 
L 505.131682 125.219939 
L 508.881089 129.679949 
L 512.630497 129.679949 
L 516.379904 128.541528 
L 520.129311 125.342333 
L 523.878718 126.34332 
L 527.628125 125.281062 
L 531.377532 121.374878 
L 535.126939 117.0436 
L 538.876346 116.173763 
L 542.625753 117.087884 
L 546.375161 118.925703 
L 550.124568 120.44751 
L 553.873975 114.438676 
L 557.623382 110.903068 
L 561.372789 106.894014 
L 565.122196 105.508392 
L 568.871603 105.312493 
L 572.62101 101.63363 
L 576.370417 99.57299 
L 580.119825 95.248377 
L 583.869232 97.687711 
L 587.618639 102.268582 
L 591.368046 104.381904 
L 595.117453 104.301407 
L 598.86686 101.537338 
L 602.616267 101.22689 
L 606.365674 112.076255 
L 610.115082 112.442737 
L 613.864489 108.171725 
L 617.613896 107.800058 
L 621.363303 107.646788 
L 625.11271 115.044832 
L 628.862117 118.313703 
L 632.611524 116.648483 
L 636.360931 117.087884 
L 640.110338 122.012487 
L 643.859746 121.480041 
L 651.35856 116.388446 
L 655.107967 108.422559 
L 658.857374 105.592813 
L 662.606781 103.303268 
L 666.356188 102.293323 
L 670.105595 102.120639 
L 673.855002 101.803023 
L 677.60441 97.400275 
L 681.353817 99.863753 
L 685.103224 99.639795 
L 688.852631 99.023017 
L 692.602038 99.110216 
L 696.351445 97.584681 
L 700.100852 98.104061 
L 703.850259 102.542069 
L 707.599667 105.228997 
L 711.349074 109.682161 
L 715.098481 113.61365 
L 718.847888 115.707755 
L 722.597295 114.841168 
L 726.346702 116.474829 
L 730.096109 113.191959 
L 733.845516 112.332236 
L 737.594923 107.923344 
L 741.344331 106.162911 
L 745.093738 105.480314 
L 748.843145 106.864362 
L 752.592552 105.201226 
L 756.341959 103.666455 
L 760.091366 101.998008 
L 763.840773 104.815584 
L 767.59018 103.718766 
L 771.339587 103.226113 
L 775.088995 102.869124 
L 778.838402 102.392529 
L 782.587809 107.222489 
L 786.337216 107.494438 
L 790.086623 105.062823 
L 793.83603 104.815584 
L 797.585437 103.303268 
L 801.334844 101.061284 
L 805.084251 100.478497 
L 808.833659 95.210891 
L 812.583066 97.339102 
L 816.332473 99.999083 
L 820.08188 103.303268 
L 823.831287 107.252562 
L 827.580694 112.185646 
L 831.330101 115.834002 
L 835.079508 134.558958 
L 838.828916 137.254377 
L 842.578323 140.71578 
L 846.32773 142.45995 
L 850.077137 144.462702 
L 853.826544 151.986895 
L 857.575951 157.219875 
L 861.325358 158.772999 
L 865.074765 155.553917 
L 868.824172 155.153959 
L 872.57358 153.060157 
L 876.322987 150.129826 
L 880.072394 148.859723 
L 883.821801 149.806296 
L 887.571208 151.125905 
L 891.320615 154.180784 
L 895.070022 151.986895 
L 898.819429 152.69734 
L 902.568836 154.565591 
L 906.318244 156.793029 
L 910.067651 156.582266 
L 917.566465 160.427327 
L 921.315872 168.729599 
L 925.065279 175.257712 
L 928.814686 182.857513 
L 932.564093 184.694224 
L 936.3135 185.996907 
L 940.062908 186.674194 
L 943.812315 190.361347 
L 943.812315 190.361347 
" style="fill:none;stroke:#525886;stroke-linecap:square;stroke-width:2;"/>
   </g>
   <g id="line2d_20">
    <path clip-path="url(#p0118ffba41)" d="M 441.391761 211.356306 
L 445.141168 217.481041 
L 448.890576 222.577427 
L 452.639983 209.604111 
L 456.38939 204.973733 
L 467.637611 204.973733 
L 471.387018 201.058805 
L 475.136425 198.748417 
L 478.885833 199.877347 
L 482.63524 198.748417 
L 486.384647 192.861406 
L 490.134054 191.167661 
L 493.883461 192.000417 
L 497.632868 192.000417 
L 501.382275 188.085489 
L 505.131682 190.361347 
L 508.881089 191.167661 
L 512.630497 193.752612 
L 516.379904 195.634715 
L 520.129311 194.676233 
L 523.878718 196.630794 
L 527.628125 202.297917 
L 531.377532 202.297917 
L 538.876346 199.877347 
L 542.625753 198.748417 
L 550.124568 198.748417 
L 553.873975 201.058805 
L 561.372789 201.058805 
L 565.122196 206.425372 
L 572.62101 209.604111 
L 576.370417 203.600601 
L 583.869232 203.600601 
L 587.618639 206.425372 
L 591.368046 204.973733 
L 598.86686 204.973733 
L 602.616267 206.425372 
L 606.365674 203.600601 
L 610.115082 202.297917 
L 613.864489 204.973733 
L 617.613896 199.877347 
L 625.11271 199.877347 
L 632.611524 197.66754 
L 636.360931 196.630794 
L 640.110338 188.821678 
L 643.859746 175.257712 
L 647.609153 174.823569 
L 651.35856 171.594239 
L 655.107967 171.594239 
L 658.857374 170.121551 
L 662.606781 170.847222 
L 666.356188 169.766346 
L 670.105595 177.072539 
L 673.855002 171.976153 
L 677.60441 172.757653 
L 681.353817 169.766346 
L 685.103224 170.121551 
L 688.852631 168.061225 
L 692.602038 169.0705 
L 696.351445 164.66996 
L 700.100852 167.09053 
L 703.850259 165.550861 
L 707.599667 160.672708 
L 711.349074 159.468845 
L 715.098481 155.756282 
L 718.847888 156.582266 
L 722.597295 161.1707 
L 726.346702 161.423406 
L 730.096109 162.460152 
L 733.845516 165.550861 
L 737.594923 164.382988 
L 741.344331 166.775038 
L 745.093738 164.66996 
L 748.843145 164.66996 
L 752.592552 162.994841 
L 756.341959 159.234772 
L 760.091366 155.960273 
L 763.840773 155.960273 
L 767.59018 157.873905 
L 771.339587 156.793029 
L 775.088995 156.582266 
L 778.838402 157.005555 
L 782.587809 161.423406 
L 786.337216 158.772999 
L 790.086623 153.428233 
L 793.83603 152.878101 
L 797.585437 153.990545 
L 805.084251 152.517857 
L 808.833659 150.29315 
L 812.583066 152.878101 
L 816.332473 153.990545 
L 820.08188 154.372459 
L 823.831287 154.565591 
L 827.580694 153.990545 
L 831.330101 150.622983 
L 835.079508 150.29315 
L 842.578323 154.760203 
L 846.32773 153.428233 
L 850.077137 152.517857 
L 853.826544 152.878101 
L 857.575951 157.219875 
L 861.325358 157.436019 
L 865.074765 157.005555 
L 868.824172 157.436019 
L 872.57358 156.582266 
L 876.322987 156.165916 
L 880.072394 156.165916 
L 883.821801 156.793029 
L 887.571208 159.234772 
L 891.320615 161.423406 
L 895.070022 164.960212 
L 898.819429 171.217984 
L 902.568836 175.257712 
L 906.318244 177.072539 
L 910.067651 177.547258 
L 913.817058 178.524177 
L 917.566465 184.694224 
L 921.315872 190.361347 
L 925.065279 191.167661 
L 928.814686 193.752612 
L 928.814686 193.752612 
" style="fill:none;stroke:#937252;stroke-linecap:square;stroke-width:2;"/>
   </g>
   <g id="line2d_21">
    <path clip-path="url(#p0118ffba41)" d="M 96.446307 219.901611 
L 100.195714 222.577427 
L 103.945121 225.568735 
L 107.694528 225.568735 
L 111.443935 222.577427 
L 115.193342 219.901611 
L 133.940378 219.901611 
L 137.689785 225.568735 
L 148.938006 225.568735 
L 152.687414 217.481041 
L 163.935635 217.481041 
L 167.685042 213.238409 
L 175.183856 213.238409 
L 178.933263 219.901611 
L 186.432078 219.901611 
L 190.181485 197.66754 
L 193.930892 193.752612 
L 197.680299 191.167661 
L 201.429706 187.370039 
L 205.179113 186.674194 
L 208.92852 185.337214 
L 212.677927 185.337214 
L 216.427334 196.630794 
L 220.176742 187.370039 
L 223.926149 184.067111 
L 227.675556 184.694224 
L 231.424963 167.73352 
L 235.17437 155.960273 
L 238.923777 154.565591 
L 242.673184 153.801721 
L 246.422591 143.441589 
L 250.171999 141.169306 
L 253.921406 141.631078 
L 257.670813 135.093646 
L 261.42022 135.639834 
L 265.169627 134.647294 
L 268.919034 131.256029 
L 272.668441 126.729101 
L 276.417848 118.267231 
L 280.167255 112.702458 
L 283.916663 113.191959 
L 287.66607 114.279448 
L 291.415477 111.04242 
L 295.164884 109.222775 
L 298.914291 111.967334 
L 302.663698 117.761578 
L 306.413105 118.267231 
L 310.162512 111.147437 
L 313.911919 110.319209 
L 317.661327 112.852071 
L 321.410734 116.131044 
L 325.160141 114.598908 
L 328.909548 112.369016 
L 332.658955 114.081807 
L 336.408362 123.853234 
L 340.157769 123.565612 
L 343.907176 123.394589 
L 347.656583 120.498152 
L 351.405991 122.832691 
L 355.155398 118.406902 
L 358.904805 117.310469 
L 362.654212 116.999394 
L 366.403619 107.312815 
L 370.153026 101.900328 
L 373.902433 98.914437 
L 377.65184 83.825752 
L 381.401248 81.116462 
L 385.150655 78.923685 
L 388.900062 74.350906 
L 392.649469 71.216302 
L 400.148283 64.105631 
L 403.89769 64.182791 
L 407.647097 60.918801 
L 411.396504 59.663976 
L 415.145912 59.956724 
L 418.895319 59.970748 
L 422.644726 61.408912 
L 426.394133 63.245375 
L 430.14354 66.372033 
L 433.892947 71.553464 
L 437.642354 69.390431 
L 441.391761 68.32876 
L 445.141168 69.187957 
L 448.890576 63.4537 
L 456.38939 58.609679 
L 460.138797 57.275767 
L 463.888204 54.082932 
L 467.637611 51.779962 
L 471.387018 48.952517 
L 475.136425 49.260434 
L 478.885833 49.831172 
L 482.63524 49.69976 
L 486.384647 47.443704 
L 490.134054 47.332583 
L 493.883461 47.56105 
L 497.632868 46.839864 
L 501.382275 44.627501 
L 505.131682 43.104826 
L 508.881089 41.421565 
L 512.630497 40.11753 
L 516.379904 40.798519 
L 520.129311 39.915046 
L 523.878718 40.01502 
L 527.628125 40.501324 
L 531.377532 39.722589 
L 535.126939 40.055548 
L 542.625753 39.329546 
L 546.375161 40.057683 
L 550.124568 36.479238 
L 553.873975 35.053264 
L 557.623382 33.295809 
L 561.372789 31.942057 
L 565.122196 30.411786 
L 568.871603 29.033428 
L 572.62101 28.737786 
L 576.370417 31.459669 
L 583.869232 35.932576 
L 587.618639 37.289381 
L 591.368046 40.732662 
L 595.117453 43.436751 
L 598.86686 43.632601 
L 602.616267 42.136628 
L 606.365674 40.952854 
L 610.115082 39.448072 
L 613.864489 38.917987 
L 617.613896 37.520157 
L 621.363303 37.155723 
L 625.11271 35.89993 
L 628.862117 34.337668 
L 632.611524 33.175043 
L 636.360931 33.600262 
L 643.859746 33.858183 
L 651.35856 32.676878 
L 655.107967 33.625108 
L 658.857374 34.361541 
L 662.606781 34.18982 
L 666.356188 31.758161 
L 670.105595 31.830633 
L 673.855002 32.455931 
L 677.60441 33.669892 
L 681.353817 33.86822 
L 685.103224 33.636711 
L 688.852631 33.254946 
L 692.602038 36.1971 
L 696.351445 36.200768 
L 700.100852 36.342388 
L 703.850259 37.554955 
L 707.599667 37.782312 
L 711.349074 37.522089 
L 715.098481 35.928947 
L 718.847888 33.567171 
L 722.597295 32.849885 
L 726.346702 31.626086 
L 733.845516 28.665432 
L 737.594923 28.12992 
L 745.093738 31.295848 
L 748.843145 32.566959 
L 752.592552 32.463846 
L 760.091366 32.00417 
L 763.840773 32.29973 
L 767.59018 32.008835 
L 771.339587 31.229408 
L 775.088995 30.244409 
L 778.838402 30.908722 
L 782.587809 31.690502 
L 786.337216 33.577094 
L 790.086623 34.395683 
L 793.83603 34.941314 
L 801.334844 38.195564 
L 805.084251 39.106476 
L 808.833659 40.248403 
L 812.583066 42.229478 
L 816.332473 43.701507 
L 820.08188 44.912789 
L 823.831287 46.62606 
L 827.580694 47.719321 
L 831.330101 49.774769 
L 835.079508 50.783622 
L 838.828916 51.37339 
L 842.578323 52.372802 
L 846.32773 52.831107 
L 850.077137 52.792304 
L 853.826544 53.269086 
L 857.575951 53.090134 
L 861.325358 53.820974 
L 865.074765 53.839334 
L 868.824172 54.668171 
L 872.57358 54.835707 
L 876.322987 54.388876 
L 880.072394 54.797533 
L 887.571208 56.751332 
L 891.320615 57.03718 
L 895.070022 57.103926 
L 898.819429 58.459428 
L 902.568836 59.567138 
L 906.318244 59.761184 
L 910.067651 59.807605 
L 913.817058 60.106723 
L 917.566465 62.75539 
L 925.065279 64.893667 
L 928.814686 65.613334 
L 932.564093 66.845731 
L 936.3135 67.782296 
L 940.062908 68.900532 
L 943.812315 72.203645 
L 947.561722 78.580811 
L 951.311129 85.622419 
L 951.311129 85.622419 
" style="fill:none;stroke:#d18cad;stroke-linecap:square;stroke-width:2;"/>
   </g>
   <g id="line2d_22">
    <path clip-path="url(#p0118ffba41)" d="M 362.654212 225.568735 
L 366.403619 228.96 
L 370.153026 228.96 
L 373.902433 222.577427 
L 377.65184 222.577427 
L 381.401248 215.271234 
L 396.398876 215.271234 
L 400.148283 217.481041 
L 403.89769 217.481041 
L 407.647097 225.568735 
L 411.396504 217.481041 
L 415.145912 213.238409 
L 418.895319 211.356306 
L 422.644726 209.604111 
L 426.394133 206.425372 
L 433.892947 203.600601 
L 441.391761 206.425372 
L 445.141168 206.425372 
L 448.890576 207.965041 
L 452.639983 211.356306 
L 456.38939 207.965041 
L 460.138797 196.630794 
L 463.888204 194.676233 
L 467.637611 195.634715 
L 475.136425 193.752612 
L 478.885833 189.579847 
L 482.63524 191.167661 
L 490.134054 191.167661 
L 493.883461 189.579847 
L 497.632868 188.821678 
L 501.382275 188.821678 
L 505.131682 191.167661 
L 508.881089 188.821678 
L 512.630497 193.752612 
L 516.379904 192.861406 
L 520.129311 193.752612 
L 523.878718 192.000417 
L 527.628125 192.000417 
L 531.377532 191.167661 
L 535.126939 191.167661 
L 538.876346 189.579847 
L 546.375161 189.579847 
L 550.124568 192.861406 
L 553.873975 192.000417 
L 557.623382 193.752612 
L 561.372789 194.676233 
L 565.122196 198.748417 
L 568.871603 201.058805 
L 576.370417 201.058805 
L 580.119825 202.297917 
L 583.869232 196.630794 
L 587.618639 199.877347 
L 591.368046 199.877347 
L 595.117453 203.600601 
L 598.86686 204.973733 
L 602.616267 202.297917 
L 606.365674 198.748417 
L 610.115082 207.965041 
L 613.864489 199.877347 
L 617.613896 196.630794 
L 621.363303 194.676233 
L 625.11271 193.752612 
L 628.862117 193.752612 
L 632.611524 194.676233 
L 636.360931 193.752612 
L 640.110338 198.748417 
L 643.859746 201.058805 
L 647.609153 202.297917 
L 651.35856 197.66754 
L 655.107967 199.877347 
L 658.857374 198.748417 
L 662.606781 196.630794 
L 666.356188 195.634715 
L 670.105595 196.630794 
L 673.855002 192.000417 
L 677.60441 195.634715 
L 681.353817 194.676233 
L 685.103224 195.634715 
L 688.852631 192.000417 
L 692.602038 188.821678 
L 696.351445 189.579847 
L 700.100852 191.167661 
L 703.850259 188.821678 
L 707.599667 186.674194 
L 711.349074 185.337214 
L 715.098481 188.821678 
L 718.847888 190.361347 
L 722.597295 185.337214 
L 726.346702 181.144723 
L 730.096109 181.702916 
L 733.845516 182.857513 
L 737.594923 182.273654 
L 741.344331 182.857513 
L 745.093738 181.144723 
L 748.843145 184.067111 
L 752.592552 189.579847 
L 756.341959 188.085489 
L 760.091366 184.694224 
L 763.840773 187.370039 
L 767.59018 184.694224 
L 771.339587 187.370039 
L 775.088995 188.821678 
L 778.838402 183.455111 
L 782.587809 184.694224 
L 786.337216 181.144723 
L 790.086623 180.063846 
L 793.83603 178.031021 
L 797.585437 178.031021 
L 801.334844 175.699406 
L 805.084251 177.072539 
L 808.833659 177.072539 
L 812.583066 180.063846 
L 816.332473 179.540183 
L 820.08188 182.273654 
L 823.831287 182.857513 
L 827.580694 185.337214 
L 831.330101 185.996907 
L 835.079508 184.067111 
L 838.828916 185.337214 
L 842.578323 181.702916 
L 846.32773 182.273654 
L 850.077137 180.598535 
L 853.826544 178.031021 
L 857.575951 177.072539 
L 861.325358 178.524177 
L 865.074765 180.598535 
L 872.57358 182.857513 
L 876.322987 184.067111 
L 880.072394 186.674194 
L 887.571208 188.085489 
L 891.320615 185.337214 
L 895.070022 188.821678 
L 898.819429 189.579847 
L 902.568836 191.167661 
L 906.318244 191.167661 
L 910.067651 196.630794 
L 913.817058 196.630794 
L 917.566465 199.877347 
L 921.315872 202.297917 
L 925.065279 197.66754 
L 928.814686 197.66754 
L 932.564093 199.877347 
L 936.3135 201.058805 
L 940.062908 203.600601 
L 943.812315 204.973733 
L 947.561722 204.973733 
L 947.561722 204.973733 
" style="fill:none;stroke:#a4a86f;stroke-linecap:square;stroke-width:2;"/>
   </g>
   <g id="line2d_23">
    <path clip-path="url(#p0118ffba41)" d="M 343.907176 225.568735 
L 347.656583 228.96 
L 373.902433 228.96 
L 377.65184 225.568735 
L 388.900062 225.568735 
L 392.649469 222.577427 
L 415.145912 222.577427 
L 418.895319 219.901611 
L 422.644726 219.901611 
L 426.394133 217.481041 
L 430.14354 219.901611 
L 437.642354 219.901611 
L 441.391761 217.481041 
L 445.141168 215.271234 
L 448.890576 207.965041 
L 452.639983 206.425372 
L 456.38939 206.425372 
L 463.888204 195.634715 
L 467.637611 191.167661 
L 471.387018 190.361347 
L 475.136425 190.361347 
L 478.885833 175.257712 
L 482.63524 164.099222 
L 486.384647 158.772999 
L 490.134054 158.095712 
L 493.883461 156.373238 
L 497.632868 152.69734 
L 501.382275 151.295784 
L 505.131682 152.517857 
L 508.881089 157.436019 
L 512.630497 157.436019 
L 516.379904 158.319474 
L 520.129311 161.678652 
L 523.878718 167.40999 
L 527.628125 170.481795 
L 531.377532 179.0271 
L 535.126939 182.857513 
L 538.876346 201.058805 
L 542.625753 202.297917 
L 546.375161 199.877347 
L 550.124568 201.058805 
L 553.873975 199.877347 
L 557.623382 192.861406 
L 561.372789 188.085489 
L 565.122196 188.085489 
L 568.871603 188.821678 
L 572.62101 183.455111 
L 576.370417 183.455111 
L 580.119825 182.273654 
L 583.869232 182.273654 
L 587.618639 180.063846 
L 591.368046 176.60653 
L 595.117453 176.60653 
L 598.86686 181.702916 
L 602.616267 178.524177 
L 606.365674 179.540183 
L 610.115082 182.273654 
L 613.864489 186.674194 
L 621.363303 189.579847 
L 625.11271 189.579847 
L 628.862117 192.000417 
L 632.611524 193.752612 
L 636.360931 191.167661 
L 640.110338 191.167661 
L 643.859746 192.861406 
L 651.35856 189.579847 
L 655.107967 189.579847 
L 658.857374 190.361347 
L 662.606781 192.861406 
L 666.356188 191.167661 
L 670.105595 192.000417 
L 673.855002 190.361347 
L 677.60441 192.000417 
L 681.353817 192.000417 
L 685.103224 185.996907 
L 688.852631 183.455111 
L 692.602038 183.455111 
L 696.351445 181.702916 
L 700.100852 182.273654 
L 703.850259 179.540183 
L 707.599667 178.031021 
L 711.349074 177.072539 
L 715.098481 173.157611 
L 718.847888 172.363897 
L 722.597295 174.823569 
L 730.096109 174.823569 
L 733.845516 171.976153 
L 737.594923 170.847222 
L 741.344331 172.757653 
L 745.093738 173.563967 
L 748.843145 169.766346 
L 752.592552 169.41604 
L 756.341959 170.481795 
L 760.091366 172.757653 
L 763.840773 173.157611 
L 767.59018 174.396723 
L 771.339587 171.594239 
L 775.088995 176.60653 
L 778.838402 173.976932 
L 782.587809 173.157611 
L 786.337216 176.60653 
L 793.83603 186.674194 
L 797.585437 196.630794 
L 801.334844 194.676233 
L 805.084251 202.297917 
L 808.833659 201.058805 
L 816.332473 203.600601 
L 820.08188 198.748417 
L 823.831287 194.676233 
L 827.580694 192.000417 
L 831.330101 193.752612 
L 835.079508 198.748417 
L 838.828916 198.748417 
L 842.578323 197.66754 
L 846.32773 202.297917 
L 850.077137 207.965041 
L 853.826544 209.604111 
L 865.074765 209.604111 
L 868.824172 215.271234 
L 872.57358 211.356306 
L 876.322987 207.965041 
L 880.072394 215.271234 
L 883.821801 213.238409 
L 891.320615 213.238409 
L 895.070022 209.604111 
L 898.819429 209.604111 
L 902.568836 207.965041 
L 906.318244 207.965041 
L 910.067651 211.356306 
L 913.817058 204.973733 
L 917.566465 203.600601 
L 921.315872 206.425372 
L 925.065279 206.425372 
L 925.065279 206.425372 
" style="fill:none;stroke:#d3d3d3;stroke-linecap:square;stroke-width:2;"/>
   </g>
   <g id="patch_3">
    <path d="M 53.328125 228.96 
L 53.328125 7.2 
" style="fill:none;stroke:#000000;stroke-linecap:square;stroke-linejoin:miter;stroke-width:0.8;"/>
   </g>
   <g id="patch_4">
    <path d="M 53.328125 228.96 
L 1001.928125 228.96 
" style="fill:none;stroke:#000000;stroke-linecap:square;stroke-linejoin:miter;stroke-width:0.8;"/>
   </g>
   <g id="legend_1">
    <g id="line2d_24">
     <path d="M 60.528125 17.67875 
L 76.528125 17.67875 
" style="fill:none;stroke:#947383;stroke-linecap:square;stroke-width:2;"/>
    </g>
    <g id="line2d_25"/>
    <g id="text_19">
     <!-- North America -->
     <g transform="translate(82.928125 20.47875)scale(0.08 -0.08)">
      <defs>
       <path d="M 9.8125 72.90625 
L 23.09375 72.90625 
L 55.421875 11.921875 
L 55.421875 72.90625 
L 64.984375 72.90625 
L 64.984375 0 
L 51.703125 0 
L 19.390625 60.984375 
L 19.390625 0 
L 9.8125 0 
z
" id="DejaVuSans-78"/>
       <path d="M 54.890625 33.015625 
L 54.890625 0 
L 45.90625 0 
L 45.90625 32.71875 
Q 45.90625 40.484375 42.875 44.328125 
Q 39.84375 48.1875 33.796875 48.1875 
Q 26.515625 48.1875 22.3125 43.546875 
Q 18.109375 38.921875 18.109375 30.90625 
L 18.109375 0 
L 9.078125 0 
L 9.078125 75.984375 
L 18.109375 75.984375 
L 18.109375 46.1875 
Q 21.34375 51.125 25.703125 53.5625 
Q 30.078125 56 35.796875 56 
Q 45.21875 56 50.046875 50.171875 
Q 54.890625 44.34375 54.890625 33.015625 
z
" id="DejaVuSans-104"/>
       <path d="M 34.1875 63.1875 
L 20.796875 26.90625 
L 47.609375 26.90625 
z
M 28.609375 72.90625 
L 39.796875 72.90625 
L 67.578125 0 
L 57.328125 0 
L 50.6875 18.703125 
L 17.828125 18.703125 
L 11.1875 0 
L 0.78125 0 
z
" id="DejaVuSans-65"/>
       <path d="M 52 44.1875 
Q 55.375 50.25 60.0625 53.125 
Q 64.75 56 71.09375 56 
Q 79.640625 56 84.28125 50.015625 
Q 88.921875 44.046875 88.921875 33.015625 
L 88.921875 0 
L 79.890625 0 
L 79.890625 32.71875 
Q 79.890625 40.578125 77.09375 44.375 
Q 74.3125 48.1875 68.609375 48.1875 
Q 61.625 48.1875 57.5625 43.546875 
Q 53.515625 38.921875 53.515625 30.90625 
L 53.515625 0 
L 44.484375 0 
L 44.484375 32.71875 
Q 44.484375 40.625 41.703125 44.40625 
Q 38.921875 48.1875 33.109375 48.1875 
Q 26.21875 48.1875 22.15625 43.53125 
Q 18.109375 38.875 18.109375 30.90625 
L 18.109375 0 
L 9.078125 0 
L 9.078125 54.6875 
L 18.109375 54.6875 
L 18.109375 46.1875 
Q 21.1875 51.21875 25.484375 53.609375 
Q 29.78125 56 35.6875 56 
Q 41.65625 56 45.828125 52.96875 
Q 50 49.953125 52 44.1875 
z
" id="DejaVuSans-109"/>
       <path d="M 48.78125 52.59375 
L 48.78125 44.1875 
Q 44.96875 46.296875 41.140625 47.34375 
Q 37.3125 48.390625 33.40625 48.390625 
Q 24.65625 48.390625 19.8125 42.84375 
Q 14.984375 37.3125 14.984375 27.296875 
Q 14.984375 17.28125 19.8125 11.734375 
Q 24.65625 6.203125 33.40625 6.203125 
Q 37.3125 6.203125 41.140625 7.25 
Q 44.96875 8.296875 48.78125 10.40625 
L 48.78125 2.09375 
Q 45.015625 0.34375 40.984375 -0.53125 
Q 36.96875 -1.421875 32.421875 -1.421875 
Q 20.0625 -1.421875 12.78125 6.34375 
Q 5.515625 14.109375 5.515625 27.296875 
Q 5.515625 40.671875 12.859375 48.328125 
Q 20.21875 56 33.015625 56 
Q 37.15625 56 41.109375 55.140625 
Q 45.0625 54.296875 48.78125 52.59375 
z
" id="DejaVuSans-99"/>
      </defs>
      <use xlink:href="#DejaVuSans-78"/>
      <use x="74.804688" xlink:href="#DejaVuSans-111"/>
      <use x="135.986328" xlink:href="#DejaVuSans-114"/>
      <use x="177.099609" xlink:href="#DejaVuSans-116"/>
      <use x="216.308594" xlink:href="#DejaVuSans-104"/>
      <use x="279.6875" xlink:href="#DejaVuSans-32"/>
      <use x="311.474609" xlink:href="#DejaVuSans-65"/>
      <use x="379.882812" xlink:href="#DejaVuSans-109"/>
      <use x="477.294922" xlink:href="#DejaVuSans-101"/>
      <use x="538.818359" xlink:href="#DejaVuSans-114"/>
      <use x="579.931641" xlink:href="#DejaVuSans-105"/>
      <use x="607.714844" xlink:href="#DejaVuSans-99"/>
      <use x="662.695312" xlink:href="#DejaVuSans-97"/>
     </g>
    </g>
    <g id="line2d_26">
     <path d="M 60.528125 29.42125 
L 76.528125 29.42125 
" style="fill:none;stroke:#96c6ad;stroke-linecap:square;stroke-width:2;"/>
    </g>
    <g id="line2d_27"/>
    <g id="text_20">
     <!-- Europe -->
     <g transform="translate(82.928125 32.22125)scale(0.08 -0.08)">
      <defs>
       <path d="M 9.8125 72.90625 
L 55.90625 72.90625 
L 55.90625 64.59375 
L 19.671875 64.59375 
L 19.671875 43.015625 
L 54.390625 43.015625 
L 54.390625 34.71875 
L 19.671875 34.71875 
L 19.671875 8.296875 
L 56.78125 8.296875 
L 56.78125 0 
L 9.8125 0 
z
" id="DejaVuSans-69"/>
       <path d="M 18.109375 8.203125 
L 18.109375 -20.796875 
L 9.078125 -20.796875 
L 9.078125 54.6875 
L 18.109375 54.6875 
L 18.109375 46.390625 
Q 20.953125 51.265625 25.265625 53.625 
Q 29.59375 56 35.59375 56 
Q 45.5625 56 51.78125 48.09375 
Q 58.015625 40.1875 58.015625 27.296875 
Q 58.015625 14.40625 51.78125 6.484375 
Q 45.5625 -1.421875 35.59375 -1.421875 
Q 29.59375 -1.421875 25.265625 0.953125 
Q 20.953125 3.328125 18.109375 8.203125 
z
M 48.6875 27.296875 
Q 48.6875 37.203125 44.609375 42.84375 
Q 40.53125 48.484375 33.40625 48.484375 
Q 26.265625 48.484375 22.1875 42.84375 
Q 18.109375 37.203125 18.109375 27.296875 
Q 18.109375 17.390625 22.1875 11.75 
Q 26.265625 6.109375 33.40625 6.109375 
Q 40.53125 6.109375 44.609375 11.75 
Q 48.6875 17.390625 48.6875 27.296875 
z
" id="DejaVuSans-112"/>
      </defs>
      <use xlink:href="#DejaVuSans-69"/>
      <use x="63.183594" xlink:href="#DejaVuSans-117"/>
      <use x="126.5625" xlink:href="#DejaVuSans-114"/>
      <use x="165.425781" xlink:href="#DejaVuSans-111"/>
      <use x="226.607422" xlink:href="#DejaVuSans-112"/>
      <use x="290.083984" xlink:href="#DejaVuSans-101"/>
     </g>
    </g>
    <g id="line2d_28">
     <path d="M 60.528125 41.16375 
L 76.528125 41.16375 
" style="fill:none;stroke:#525886;stroke-linecap:square;stroke-width:2;"/>
    </g>
    <g id="line2d_29"/>
    <g id="text_21">
     <!-- Asia -->
     <g transform="translate(82.928125 43.96375)scale(0.08 -0.08)">
      <defs>
       <path d="M 44.28125 53.078125 
L 44.28125 44.578125 
Q 40.484375 46.53125 36.375 47.5 
Q 32.28125 48.484375 27.875 48.484375 
Q 21.1875 48.484375 17.84375 46.4375 
Q 14.5 44.390625 14.5 40.28125 
Q 14.5 37.15625 16.890625 35.375 
Q 19.28125 33.59375 26.515625 31.984375 
L 29.59375 31.296875 
Q 39.15625 29.25 43.1875 25.515625 
Q 47.21875 21.78125 47.21875 15.09375 
Q 47.21875 7.46875 41.1875 3.015625 
Q 35.15625 -1.421875 24.609375 -1.421875 
Q 20.21875 -1.421875 15.453125 -0.5625 
Q 10.6875 0.296875 5.421875 2 
L 5.421875 11.28125 
Q 10.40625 8.6875 15.234375 7.390625 
Q 20.0625 6.109375 24.8125 6.109375 
Q 31.15625 6.109375 34.5625 8.28125 
Q 37.984375 10.453125 37.984375 14.40625 
Q 37.984375 18.0625 35.515625 20.015625 
Q 33.0625 21.96875 24.703125 23.78125 
L 21.578125 24.515625 
Q 13.234375 26.265625 9.515625 29.90625 
Q 5.8125 33.546875 5.8125 39.890625 
Q 5.8125 47.609375 11.28125 51.796875 
Q 16.75 56 26.8125 56 
Q 31.78125 56 36.171875 55.265625 
Q 40.578125 54.546875 44.28125 53.078125 
z
" id="DejaVuSans-115"/>
      </defs>
      <use xlink:href="#DejaVuSans-65"/>
      <use x="68.408203" xlink:href="#DejaVuSans-115"/>
      <use x="120.507812" xlink:href="#DejaVuSans-105"/>
      <use x="148.291016" xlink:href="#DejaVuSans-97"/>
     </g>
    </g>
    <g id="line2d_30">
     <path d="M 60.528125 52.90625 
L 76.528125 52.90625 
" style="fill:none;stroke:#937252;stroke-linecap:square;stroke-width:2;"/>
    </g>
    <g id="line2d_31"/>
    <g id="text_22">
     <!-- South America -->
     <g transform="translate(82.928125 55.70625)scale(0.08 -0.08)">
      <defs>
       <path d="M 53.515625 70.515625 
L 53.515625 60.890625 
Q 47.90625 63.578125 42.921875 64.890625 
Q 37.9375 66.21875 33.296875 66.21875 
Q 25.25 66.21875 20.875 63.09375 
Q 16.5 59.96875 16.5 54.203125 
Q 16.5 49.359375 19.40625 46.890625 
Q 22.3125 44.4375 30.421875 42.921875 
L 36.375 41.703125 
Q 47.40625 39.59375 52.65625 34.296875 
Q 57.90625 29 57.90625 20.125 
Q 57.90625 9.515625 50.796875 4.046875 
Q 43.703125 -1.421875 29.984375 -1.421875 
Q 24.8125 -1.421875 18.96875 -0.25 
Q 13.140625 0.921875 6.890625 3.21875 
L 6.890625 13.375 
Q 12.890625 10.015625 18.65625 8.296875 
Q 24.421875 6.59375 29.984375 6.59375 
Q 38.421875 6.59375 43.015625 9.90625 
Q 47.609375 13.234375 47.609375 19.390625 
Q 47.609375 24.75 44.3125 27.78125 
Q 41.015625 30.8125 33.5 32.328125 
L 27.484375 33.5 
Q 16.453125 35.6875 11.515625 40.375 
Q 6.59375 45.0625 6.59375 53.421875 
Q 6.59375 63.09375 13.40625 68.65625 
Q 20.21875 74.21875 32.171875 74.21875 
Q 37.3125 74.21875 42.625 73.28125 
Q 47.953125 72.359375 53.515625 70.515625 
z
" id="DejaVuSans-83"/>
      </defs>
      <use xlink:href="#DejaVuSans-83"/>
      <use x="63.476562" xlink:href="#DejaVuSans-111"/>
      <use x="124.658203" xlink:href="#DejaVuSans-117"/>
      <use x="188.037109" xlink:href="#DejaVuSans-116"/>
      <use x="227.246094" xlink:href="#DejaVuSans-104"/>
      <use x="290.625" xlink:href="#DejaVuSans-32"/>
      <use x="322.412109" xlink:href="#DejaVuSans-65"/>
      <use x="390.820312" xlink:href="#DejaVuSans-109"/>
      <use x="488.232422" xlink:href="#DejaVuSans-101"/>
      <use x="549.755859" xlink:href="#DejaVuSans-114"/>
      <use x="590.869141" xlink:href="#DejaVuSans-105"/>
      <use x="618.652344" xlink:href="#DejaVuSans-99"/>
      <use x="673.632812" xlink:href="#DejaVuSans-97"/>
     </g>
    </g>
    <g id="line2d_32">
     <path d="M 60.528125 64.64875 
L 76.528125 64.64875 
" style="fill:none;stroke:#d18cad;stroke-linecap:square;stroke-width:2;"/>
    </g>
    <g id="line2d_33"/>
    <g id="text_23">
     <!-- United Kingdom -->
     <g transform="translate(82.928125 67.44875)scale(0.08 -0.08)">
      <defs>
       <path d="M 8.6875 72.90625 
L 18.609375 72.90625 
L 18.609375 28.609375 
Q 18.609375 16.890625 22.84375 11.734375 
Q 27.09375 6.59375 36.625 6.59375 
Q 46.09375 6.59375 50.34375 11.734375 
Q 54.59375 16.890625 54.59375 28.609375 
L 54.59375 72.90625 
L 64.5 72.90625 
L 64.5 27.390625 
Q 64.5 13.140625 57.4375 5.859375 
Q 50.390625 -1.421875 36.625 -1.421875 
Q 22.796875 -1.421875 15.734375 5.859375 
Q 8.6875 13.140625 8.6875 27.390625 
z
" id="DejaVuSans-85"/>
       <path d="M 9.8125 72.90625 
L 19.671875 72.90625 
L 19.671875 42.09375 
L 52.390625 72.90625 
L 65.09375 72.90625 
L 28.90625 38.921875 
L 67.671875 0 
L 54.6875 0 
L 19.671875 35.109375 
L 19.671875 0 
L 9.8125 0 
z
" id="DejaVuSans-75"/>
      </defs>
      <use xlink:href="#DejaVuSans-85"/>
      <use x="73.193359" xlink:href="#DejaVuSans-110"/>
      <use x="136.572266" xlink:href="#DejaVuSans-105"/>
      <use x="164.355469" xlink:href="#DejaVuSans-116"/>
      <use x="203.564453" xlink:href="#DejaVuSans-101"/>
      <use x="265.087891" xlink:href="#DejaVuSans-100"/>
      <use x="328.564453" xlink:href="#DejaVuSans-32"/>
      <use x="360.351562" xlink:href="#DejaVuSans-75"/>
      <use x="425.927734" xlink:href="#DejaVuSans-105"/>
      <use x="453.710938" xlink:href="#DejaVuSans-110"/>
      <use x="517.089844" xlink:href="#DejaVuSans-103"/>
      <use x="580.566406" xlink:href="#DejaVuSans-100"/>
      <use x="644.042969" xlink:href="#DejaVuSans-111"/>
      <use x="705.224609" xlink:href="#DejaVuSans-109"/>
     </g>
    </g>
    <g id="line2d_34">
     <path d="M 60.528125 76.39125 
L 76.528125 76.39125 
" style="fill:none;stroke:#a4a86f;stroke-linecap:square;stroke-width:2;"/>
    </g>
    <g id="line2d_35"/>
    <g id="text_24">
     <!-- Oceania -->
     <g transform="translate(82.928125 79.19125)scale(0.08 -0.08)">
      <defs>
       <path d="M 39.40625 66.21875 
Q 28.65625 66.21875 22.328125 58.203125 
Q 16.015625 50.203125 16.015625 36.375 
Q 16.015625 22.609375 22.328125 14.59375 
Q 28.65625 6.59375 39.40625 6.59375 
Q 50.140625 6.59375 56.421875 14.59375 
Q 62.703125 22.609375 62.703125 36.375 
Q 62.703125 50.203125 56.421875 58.203125 
Q 50.140625 66.21875 39.40625 66.21875 
z
M 39.40625 74.21875 
Q 54.734375 74.21875 63.90625 63.9375 
Q 73.09375 53.65625 73.09375 36.375 
Q 73.09375 19.140625 63.90625 8.859375 
Q 54.734375 -1.421875 39.40625 -1.421875 
Q 24.03125 -1.421875 14.8125 8.828125 
Q 5.609375 19.09375 5.609375 36.375 
Q 5.609375 53.65625 14.8125 63.9375 
Q 24.03125 74.21875 39.40625 74.21875 
z
" id="DejaVuSans-79"/>
      </defs>
      <use xlink:href="#DejaVuSans-79"/>
      <use x="78.710938" xlink:href="#DejaVuSans-99"/>
      <use x="133.691406" xlink:href="#DejaVuSans-101"/>
      <use x="195.214844" xlink:href="#DejaVuSans-97"/>
      <use x="256.494141" xlink:href="#DejaVuSans-110"/>
      <use x="319.873047" xlink:href="#DejaVuSans-105"/>
      <use x="347.65625" xlink:href="#DejaVuSans-97"/>
     </g>
    </g>
    <g id="line2d_36">
     <path d="M 60.528125 88.13375 
L 76.528125 88.13375 
" style="fill:none;stroke:#d3d3d3;stroke-linecap:square;stroke-width:2;"/>
    </g>
    <g id="line2d_37"/>
    <g id="text_25">
     <!-- Africa -->
     <g transform="translate(82.928125 90.93375)scale(0.08 -0.08)">
      <defs>
       <path d="M 37.109375 75.984375 
L 37.109375 68.5 
L 28.515625 68.5 
Q 23.6875 68.5 21.796875 66.546875 
Q 19.921875 64.59375 19.921875 59.515625 
L 19.921875 54.6875 
L 34.71875 54.6875 
L 34.71875 47.703125 
L 19.921875 47.703125 
L 19.921875 0 
L 10.890625 0 
L 10.890625 47.703125 
L 2.296875 47.703125 
L 2.296875 54.6875 
L 10.890625 54.6875 
L 10.890625 58.5 
Q 10.890625 67.625 15.140625 71.796875 
Q 19.390625 75.984375 28.609375 75.984375 
z
" id="DejaVuSans-102"/>
      </defs>
      <use xlink:href="#DejaVuSans-65"/>
      <use x="64.783203" xlink:href="#DejaVuSans-102"/>
      <use x="99.988281" xlink:href="#DejaVuSans-114"/>
      <use x="141.101562" xlink:href="#DejaVuSans-105"/>
      <use x="168.884766" xlink:href="#DejaVuSans-99"/>
      <use x="223.865234" xlink:href="#DejaVuSans-97"/>
     </g>
    </g>
   </g>
  </g>
 </g>
 <defs>
  <clipPath id="p0118ffba41">
   <rect height="221.76" width="948.6" x="53.328125" y="7.2"/>
  </clipPath>
 </defs>
</svg>
