<?xml version="1.0" encoding="utf-8" standalone="no"?>
<!DOCTYPE svg PUBLIC "-//W3C//DTD SVG 1.1//EN"
  "http://www.w3.org/Graphics/SVG/1.1/DTD/svg11.dtd">
<svg height="298.620937pt" version="1.1" viewBox="0 0 1229.01875 298.620937" width="1229.01875pt" xmlns="http://www.w3.org/2000/svg" xmlns:xlink="http://www.w3.org/1999/xlink">
 <metadata>
  <rdf:RDF xmlns:cc="http://creativecommons.org/ns#" xmlns:dc="http://purl.org/dc/elements/1.1/" xmlns:rdf="http://www.w3.org/1999/02/22-rdf-syntax-ns#">
   <cc:Work>
    <dc:type rdf:resource="http://purl.org/dc/dcmitype/StillImage"/>
    <dc:date>2021-07-04T16:15:30.900355</dc:date>
    <dc:format>image/svg+xml</dc:format>
    <dc:creator>
     <cc:Agent>
      <dc:title>Matplotlib v3.4.2, https://matplotlib.org/</dc:title>
     </cc:Agent>
    </dc:creator>
   </cc:Work>
  </rdf:RDF>
 </metadata>
 <defs>
  <style type="text/css">*{stroke-linecap:butt;stroke-linejoin:round;}</style>
 </defs>
 <g id="figure_1">
  <g id="patch_1">
   <path d="M 0 298.620937 
L 1229.01875 298.620937 
L 1229.01875 0 
L 0 0 
z
" style="fill:#ffffff;"/>
  </g>
  <g id="axes_1">
   <g id="patch_2">
    <path d="M 53.328125 228.96 
L 1169.328125 228.96 
L 1169.328125 7.2 
L 53.328125 7.2 
z
" style="fill:#ffffff;"/>
   </g>
   <g id="patch_3">
    <path clip-path="url(#pc2a0177f62)" d="M 104.055398 228.96 
L 120.824744 228.96 
L 120.824744 227.04109 
L 104.055398 227.04109 
z
" style="fill:#86b0a6;"/>
   </g>
   <g id="patch_4">
    <path clip-path="url(#pc2a0177f62)" d="M 127.532483 228.96 
L 144.301829 228.96 
L 144.301829 225.961704 
L 127.532483 225.961704 
z
" style="fill:#86b0a6;"/>
   </g>
   <g id="patch_5">
    <path clip-path="url(#pc2a0177f62)" d="M 151.009568 228.96 
L 167.778914 228.96 
L 167.778914 224.762385 
L 151.009568 224.762385 
z
" style="fill:#86b0a6;"/>
   </g>
   <g id="patch_6">
    <path clip-path="url(#pc2a0177f62)" d="M 174.486652 228.96 
L 191.255999 228.96 
L 191.255999 226.441431 
L 174.486652 226.441431 
z
" style="fill:#86b0a6;"/>
   </g>
   <g id="patch_7">
    <path clip-path="url(#pc2a0177f62)" d="M 197.963737 228.96 
L 214.733084 228.96 
L 214.733084 224.642453 
L 197.963737 224.642453 
z
" style="fill:#86b0a6;"/>
   </g>
   <g id="patch_8">
    <path clip-path="url(#pc2a0177f62)" d="M 221.440822 228.96 
L 238.210169 228.96 
L 238.210169 227.280954 
L 221.440822 227.280954 
z
" style="fill:#86b0a6;"/>
   </g>
   <g id="patch_9">
    <path clip-path="url(#pc2a0177f62)" d="M 244.917907 228.96 
L 261.687253 228.96 
L 261.687253 226.201567 
L 244.917907 226.201567 
z
" style="fill:#86b0a6;"/>
   </g>
   <g id="patch_10">
    <path clip-path="url(#pc2a0177f62)" d="M 268.394992 228.96 
L 285.164338 228.96 
L 285.164338 220.444838 
L 268.394992 220.444838 
z
" style="fill:#86b0a6;"/>
   </g>
   <g id="patch_11">
    <path clip-path="url(#pc2a0177f62)" d="M 291.872077 228.96 
L 308.641423 228.96 
L 308.641423 220.204974 
L 291.872077 220.204974 
z
" style="fill:#86b0a6;"/>
   </g>
   <g id="patch_12">
    <path clip-path="url(#pc2a0177f62)" d="M 315.349162 228.96 
L 332.118508 228.96 
L 332.118508 214.808041 
L 315.349162 214.808041 
z
" style="fill:#86b0a6;"/>
   </g>
   <g id="patch_13">
    <path clip-path="url(#pc2a0177f62)" d="M 338.826247 228.96 
L 355.595593 228.96 
L 355.595593 218.64586 
L 338.826247 218.64586 
z
" style="fill:#86b0a6;"/>
   </g>
   <g id="patch_14">
    <path clip-path="url(#pc2a0177f62)" d="M 362.303332 228.96 
L 379.072678 228.96 
L 379.072678 212.649267 
L 362.303332 212.649267 
z
" style="fill:#86b0a6;"/>
   </g>
   <g id="patch_15">
    <path clip-path="url(#pc2a0177f62)" d="M 385.780417 228.96 
L 402.549763 228.96 
L 402.549763 212.049608 
L 385.780417 212.049608 
z
" style="fill:#86b0a6;"/>
   </g>
   <g id="patch_16">
    <path clip-path="url(#pc2a0177f62)" d="M 409.257501 228.96 
L 426.026848 228.96 
L 426.026848 211.809744 
L 409.257501 211.809744 
z
" style="fill:#86b0a6;"/>
   </g>
   <g id="patch_17">
    <path clip-path="url(#pc2a0177f62)" d="M 432.734586 228.96 
L 449.503933 228.96 
L 449.503933 203.054719 
L 432.734586 203.054719 
z
" style="fill:#86b0a6;"/>
   </g>
   <g id="patch_18">
    <path clip-path="url(#pc2a0177f62)" d="M 456.211671 228.96 
L 472.981018 228.96 
L 472.981018 197.777717 
L 456.211671 197.777717 
z
" style="fill:#86b0a6;"/>
   </g>
   <g id="patch_19">
    <path clip-path="url(#pc2a0177f62)" d="M 479.688756 228.96 
L 496.458102 228.96 
L 496.458102 190.82167 
L 479.688756 190.82167 
z
" style="fill:#86b0a6;"/>
   </g>
   <g id="patch_20">
    <path clip-path="url(#pc2a0177f62)" d="M 503.165841 228.96 
L 519.935187 228.96 
L 519.935187 173.311618 
L 503.165841 173.311618 
z
" style="fill:#86b0a6;"/>
   </g>
   <g id="patch_21">
    <path clip-path="url(#pc2a0177f62)" d="M 526.642926 228.96 
L 543.412272 228.96 
L 543.412272 152.563407 
L 526.642926 152.563407 
z
" style="fill:#86b0a6;"/>
   </g>
   <g id="patch_22">
    <path clip-path="url(#pc2a0177f62)" d="M 550.120011 228.96 
L 566.889357 228.96 
L 566.889357 158.679932 
L 550.120011 158.679932 
z
" style="fill:#86b0a6;"/>
   </g>
   <g id="patch_23">
    <path clip-path="url(#pc2a0177f62)" d="M 573.597096 228.96 
L 590.366442 228.96 
L 590.366442 173.551482 
L 573.597096 173.551482 
z
" style="fill:#86b0a6;"/>
   </g>
   <g id="patch_24">
    <path clip-path="url(#pc2a0177f62)" d="M 597.074181 228.96 
L 613.843527 228.96 
L 613.843527 154.602249 
L 597.074181 154.602249 
z
" style="fill:#86b0a6;"/>
   </g>
   <g id="patch_25">
    <path clip-path="url(#pc2a0177f62)" d="M 620.551265 228.96 
L 637.320612 228.96 
L 637.320612 148.965451 
L 620.551265 148.965451 
z
" style="fill:#86b0a6;"/>
   </g>
   <g id="patch_26">
    <path clip-path="url(#pc2a0177f62)" d="M 644.02835 228.96 
L 660.797697 228.96 
L 660.797697 119.82201 
L 644.02835 119.82201 
z
" style="fill:#86b0a6;"/>
   </g>
   <g id="patch_27">
    <path clip-path="url(#pc2a0177f62)" d="M 667.505435 228.96 
L 684.274782 228.96 
L 684.274782 121.381124 
L 667.505435 121.381124 
z
" style="fill:#86b0a6;"/>
   </g>
   <g id="patch_28">
    <path clip-path="url(#pc2a0177f62)" d="M 690.98252 228.96 
L 707.751867 228.96 
L 707.751867 95.955571 
L 690.98252 95.955571 
z
" style="fill:#86b0a6;"/>
   </g>
   <g id="patch_29">
    <path clip-path="url(#pc2a0177f62)" d="M 714.459605 228.96 
L 731.228951 228.96 
L 731.228951 73.048586 
L 714.459605 73.048586 
z
" style="fill:#86b0a6;"/>
   </g>
   <g id="patch_30">
    <path clip-path="url(#pc2a0177f62)" d="M 737.93669 228.96 
L 754.706036 228.96 
L 754.706036 29.153526 
L 737.93669 29.153526 
z
" style="fill:#86b0a6;"/>
   </g>
   <g id="patch_31">
    <path clip-path="url(#pc2a0177f62)" d="M 761.413775 228.96 
L 778.183121 228.96 
L 778.183121 17.76 
L 761.413775 17.76 
z
" style="fill:#86b0a6;"/>
   </g>
   <g id="patch_32">
    <path clip-path="url(#pc2a0177f62)" d="M 784.89086 228.96 
L 801.660206 228.96 
L 801.660206 30.832572 
L 784.89086 30.832572 
z
" style="fill:#86b0a6;"/>
   </g>
   <g id="patch_33">
    <path clip-path="url(#pc2a0177f62)" d="M 808.367945 228.96 
L 825.137291 228.96 
L 825.137291 65.253015 
L 808.367945 65.253015 
z
" style="fill:#86b0a6;"/>
   </g>
   <g id="patch_34">
    <path clip-path="url(#pc2a0177f62)" d="M 831.84503 228.96 
L 848.614376 228.96 
L 848.614376 97.394753 
L 831.84503 97.394753 
z
" style="fill:#86b0a6;"/>
   </g>
   <g id="patch_35">
    <path clip-path="url(#pc2a0177f62)" d="M 855.322114 228.96 
L 872.091461 228.96 
L 872.091461 79.165111 
L 855.322114 79.165111 
z
" style="fill:#86b0a6;"/>
   </g>
   <g id="patch_36">
    <path clip-path="url(#pc2a0177f62)" d="M 878.799199 228.96 
L 895.568546 228.96 
L 895.568546 113.465622 
L 878.799199 113.465622 
z
" style="fill:#86b0a6;"/>
   </g>
   <g id="patch_37">
    <path clip-path="url(#pc2a0177f62)" d="M 902.276284 228.96 
L 919.045631 228.96 
L 919.045631 112.02644 
L 902.276284 112.02644 
z
" style="fill:#86b0a6;"/>
   </g>
   <g id="patch_38">
    <path clip-path="url(#pc2a0177f62)" d="M 925.753369 228.96 
L 942.522716 228.96 
L 942.522716 118.862555 
L 925.753369 118.862555 
z
" style="fill:#86b0a6;"/>
   </g>
   <g id="patch_39">
    <path clip-path="url(#pc2a0177f62)" d="M 949.230454 228.96 
L 965.9998 228.96 
L 965.9998 149.085383 
L 949.230454 149.085383 
z
" style="fill:#86b0a6;"/>
   </g>
   <g id="patch_40">
    <path clip-path="url(#pc2a0177f62)" d="M 972.707539 228.96 
L 989.476885 228.96 
L 989.476885 180.387598 
L 972.707539 180.387598 
z
" style="fill:#86b0a6;"/>
   </g>
   <g id="patch_41">
    <path clip-path="url(#pc2a0177f62)" d="M 996.184624 228.96 
L 1012.95397 228.96 
L 1012.95397 190.102078 
L 996.184624 190.102078 
z
" style="fill:#86b0a6;"/>
   </g>
   <g id="patch_42">
    <path clip-path="url(#pc2a0177f62)" d="M 1019.661709 228.96 
L 1036.431055 228.96 
L 1036.431055 189.382487 
L 1019.661709 189.382487 
z
" style="fill:#86b0a6;"/>
   </g>
   <g id="patch_43">
    <path clip-path="url(#pc2a0177f62)" d="M 1043.138794 228.96 
L 1059.90814 228.96 
L 1059.90814 204.254037 
L 1043.138794 204.254037 
z
" style="fill:#86b0a6;"/>
   </g>
   <g id="patch_44">
    <path clip-path="url(#pc2a0177f62)" d="M 1066.615879 228.96 
L 1083.385225 228.96 
L 1083.385225 221.404293 
L 1066.615879 221.404293 
z
" style="fill:#86b0a6;"/>
   </g>
   <g id="patch_45">
    <path clip-path="url(#pc2a0177f62)" d="M 1090.092963 228.96 
L 1106.86231 228.96 
L 1106.86231 226.441431 
L 1090.092963 226.441431 
z
" style="fill:#86b0a6;"/>
   </g>
   <g id="matplotlib.axis_1">
    <g id="xtick_1">
     <g id="line2d_1">
      <defs>
       <path d="M 0 0 
L 0 3.5 
" id="m587d1ffbc2" style="stroke:#000000;stroke-width:0.8;"/>
      </defs>
      <g>
       <use style="stroke:#000000;stroke-width:0.8;" x="119.147809" xlink:href="#m587d1ffbc2" y="228.96"/>
      </g>
     </g>
     <g id="text_1">
      <!-- 2020-09 -->
      <g transform="translate(121.907184 277.742812)rotate(-90)scale(0.1 -0.1)">
       <defs>
        <path d="M 1228 531 
L 3431 531 
L 3431 0 
L 469 0 
L 469 531 
Q 828 903 1448 1529 
Q 2069 2156 2228 2338 
Q 2531 2678 2651 2914 
Q 2772 3150 2772 3378 
Q 2772 3750 2511 3984 
Q 2250 4219 1831 4219 
Q 1534 4219 1204 4116 
Q 875 4013 500 3803 
L 500 4441 
Q 881 4594 1212 4672 
Q 1544 4750 1819 4750 
Q 2544 4750 2975 4387 
Q 3406 4025 3406 3419 
Q 3406 3131 3298 2873 
Q 3191 2616 2906 2266 
Q 2828 2175 2409 1742 
Q 1991 1309 1228 531 
z
" id="DejaVuSans-32" transform="scale(0.015625)"/>
        <path d="M 2034 4250 
Q 1547 4250 1301 3770 
Q 1056 3291 1056 2328 
Q 1056 1369 1301 889 
Q 1547 409 2034 409 
Q 2525 409 2770 889 
Q 3016 1369 3016 2328 
Q 3016 3291 2770 3770 
Q 2525 4250 2034 4250 
z
M 2034 4750 
Q 2819 4750 3233 4129 
Q 3647 3509 3647 2328 
Q 3647 1150 3233 529 
Q 2819 -91 2034 -91 
Q 1250 -91 836 529 
Q 422 1150 422 2328 
Q 422 3509 836 4129 
Q 1250 4750 2034 4750 
z
" id="DejaVuSans-30" transform="scale(0.015625)"/>
        <path d="M 313 2009 
L 1997 2009 
L 1997 1497 
L 313 1497 
L 313 2009 
z
" id="DejaVuSans-2d" transform="scale(0.015625)"/>
        <path d="M 703 97 
L 703 672 
Q 941 559 1184 500 
Q 1428 441 1663 441 
Q 2288 441 2617 861 
Q 2947 1281 2994 2138 
Q 2813 1869 2534 1725 
Q 2256 1581 1919 1581 
Q 1219 1581 811 2004 
Q 403 2428 403 3163 
Q 403 3881 828 4315 
Q 1253 4750 1959 4750 
Q 2769 4750 3195 4129 
Q 3622 3509 3622 2328 
Q 3622 1225 3098 567 
Q 2575 -91 1691 -91 
Q 1453 -91 1209 -44 
Q 966 3 703 97 
z
M 1959 2075 
Q 2384 2075 2632 2365 
Q 2881 2656 2881 3163 
Q 2881 3666 2632 3958 
Q 2384 4250 1959 4250 
Q 1534 4250 1286 3958 
Q 1038 3666 1038 3163 
Q 1038 2656 1286 2365 
Q 1534 2075 1959 2075 
z
" id="DejaVuSans-39" transform="scale(0.015625)"/>
       </defs>
       <use xlink:href="#DejaVuSans-32"/>
       <use x="63.623047" xlink:href="#DejaVuSans-30"/>
       <use x="127.246094" xlink:href="#DejaVuSans-32"/>
       <use x="190.869141" xlink:href="#DejaVuSans-30"/>
       <use x="254.492188" xlink:href="#DejaVuSans-2d"/>
       <use x="290.576172" xlink:href="#DejaVuSans-30"/>
       <use x="354.199219" xlink:href="#DejaVuSans-39"/>
      </g>
     </g>
    </g>
    <g id="xtick_2">
     <g id="line2d_2">
      <g>
       <use style="stroke:#000000;stroke-width:0.8;" x="219.763888" xlink:href="#m587d1ffbc2" y="228.96"/>
      </g>
     </g>
     <g id="text_2">
      <!-- 2020-10 -->
      <g transform="translate(222.523263 277.742812)rotate(-90)scale(0.1 -0.1)">
       <defs>
        <path d="M 794 531 
L 1825 531 
L 1825 4091 
L 703 3866 
L 703 4441 
L 1819 4666 
L 2450 4666 
L 2450 531 
L 3481 531 
L 3481 0 
L 794 0 
L 794 531 
z
" id="DejaVuSans-31" transform="scale(0.015625)"/>
       </defs>
       <use xlink:href="#DejaVuSans-32"/>
       <use x="63.623047" xlink:href="#DejaVuSans-30"/>
       <use x="127.246094" xlink:href="#DejaVuSans-32"/>
       <use x="190.869141" xlink:href="#DejaVuSans-30"/>
       <use x="254.492188" xlink:href="#DejaVuSans-2d"/>
       <use x="290.576172" xlink:href="#DejaVuSans-31"/>
       <use x="354.199219" xlink:href="#DejaVuSans-30"/>
      </g>
     </g>
    </g>
    <g id="xtick_3">
     <g id="line2d_3">
      <g>
       <use style="stroke:#000000;stroke-width:0.8;" x="323.733835" xlink:href="#m587d1ffbc2" y="228.96"/>
      </g>
     </g>
     <g id="text_3">
      <!-- 2020-11 -->
      <g transform="translate(326.49321 277.742812)rotate(-90)scale(0.1 -0.1)">
       <use xlink:href="#DejaVuSans-32"/>
       <use x="63.623047" xlink:href="#DejaVuSans-30"/>
       <use x="127.246094" xlink:href="#DejaVuSans-32"/>
       <use x="190.869141" xlink:href="#DejaVuSans-30"/>
       <use x="254.492188" xlink:href="#DejaVuSans-2d"/>
       <use x="290.576172" xlink:href="#DejaVuSans-31"/>
       <use x="354.199219" xlink:href="#DejaVuSans-31"/>
      </g>
     </g>
    </g>
    <g id="xtick_4">
     <g id="line2d_4">
      <g>
       <use style="stroke:#000000;stroke-width:0.8;" x="424.349913" xlink:href="#m587d1ffbc2" y="228.96"/>
      </g>
     </g>
     <g id="text_4">
      <!-- 2020-12 -->
      <g transform="translate(427.109288 277.742812)rotate(-90)scale(0.1 -0.1)">
       <use xlink:href="#DejaVuSans-32"/>
       <use x="63.623047" xlink:href="#DejaVuSans-30"/>
       <use x="127.246094" xlink:href="#DejaVuSans-32"/>
       <use x="190.869141" xlink:href="#DejaVuSans-30"/>
       <use x="254.492188" xlink:href="#DejaVuSans-2d"/>
       <use x="290.576172" xlink:href="#DejaVuSans-31"/>
       <use x="354.199219" xlink:href="#DejaVuSans-32"/>
      </g>
     </g>
    </g>
    <g id="xtick_5">
     <g id="line2d_5">
      <g>
       <use style="stroke:#000000;stroke-width:0.8;" x="528.319861" xlink:href="#m587d1ffbc2" y="228.96"/>
      </g>
     </g>
     <g id="text_5">
      <!-- 2021-01 -->
      <g transform="translate(531.079236 277.742812)rotate(-90)scale(0.1 -0.1)">
       <use xlink:href="#DejaVuSans-32"/>
       <use x="63.623047" xlink:href="#DejaVuSans-30"/>
       <use x="127.246094" xlink:href="#DejaVuSans-32"/>
       <use x="190.869141" xlink:href="#DejaVuSans-31"/>
       <use x="254.492188" xlink:href="#DejaVuSans-2d"/>
       <use x="290.576172" xlink:href="#DejaVuSans-30"/>
       <use x="354.199219" xlink:href="#DejaVuSans-31"/>
      </g>
     </g>
    </g>
    <g id="xtick_6">
     <g id="line2d_6">
      <g>
       <use style="stroke:#000000;stroke-width:0.8;" x="632.289808" xlink:href="#m587d1ffbc2" y="228.96"/>
      </g>
     </g>
     <g id="text_6">
      <!-- 2021-02 -->
      <g transform="translate(635.049183 277.742812)rotate(-90)scale(0.1 -0.1)">
       <use xlink:href="#DejaVuSans-32"/>
       <use x="63.623047" xlink:href="#DejaVuSans-30"/>
       <use x="127.246094" xlink:href="#DejaVuSans-32"/>
       <use x="190.869141" xlink:href="#DejaVuSans-31"/>
       <use x="254.492188" xlink:href="#DejaVuSans-2d"/>
       <use x="290.576172" xlink:href="#DejaVuSans-30"/>
       <use x="354.199219" xlink:href="#DejaVuSans-32"/>
      </g>
     </g>
    </g>
    <g id="xtick_7">
     <g id="line2d_7">
      <g>
       <use style="stroke:#000000;stroke-width:0.8;" x="726.198148" xlink:href="#m587d1ffbc2" y="228.96"/>
      </g>
     </g>
     <g id="text_7">
      <!-- 2021-03 -->
      <g transform="translate(728.957523 277.742812)rotate(-90)scale(0.1 -0.1)">
       <defs>
        <path d="M 2597 2516 
Q 3050 2419 3304 2112 
Q 3559 1806 3559 1356 
Q 3559 666 3084 287 
Q 2609 -91 1734 -91 
Q 1441 -91 1130 -33 
Q 819 25 488 141 
L 488 750 
Q 750 597 1062 519 
Q 1375 441 1716 441 
Q 2309 441 2620 675 
Q 2931 909 2931 1356 
Q 2931 1769 2642 2001 
Q 2353 2234 1838 2234 
L 1294 2234 
L 1294 2753 
L 1863 2753 
Q 2328 2753 2575 2939 
Q 2822 3125 2822 3475 
Q 2822 3834 2567 4026 
Q 2313 4219 1838 4219 
Q 1578 4219 1281 4162 
Q 984 4106 628 3988 
L 628 4550 
Q 988 4650 1302 4700 
Q 1616 4750 1894 4750 
Q 2613 4750 3031 4423 
Q 3450 4097 3450 3541 
Q 3450 3153 3228 2886 
Q 3006 2619 2597 2516 
z
" id="DejaVuSans-33" transform="scale(0.015625)"/>
       </defs>
       <use xlink:href="#DejaVuSans-32"/>
       <use x="63.623047" xlink:href="#DejaVuSans-30"/>
       <use x="127.246094" xlink:href="#DejaVuSans-32"/>
       <use x="190.869141" xlink:href="#DejaVuSans-31"/>
       <use x="254.492188" xlink:href="#DejaVuSans-2d"/>
       <use x="290.576172" xlink:href="#DejaVuSans-30"/>
       <use x="354.199219" xlink:href="#DejaVuSans-33"/>
      </g>
     </g>
    </g>
    <g id="xtick_8">
     <g id="line2d_8">
      <g>
       <use style="stroke:#000000;stroke-width:0.8;" x="830.168095" xlink:href="#m587d1ffbc2" y="228.96"/>
      </g>
     </g>
     <g id="text_8">
      <!-- 2021-04 -->
      <g transform="translate(832.92747 277.742812)rotate(-90)scale(0.1 -0.1)">
       <defs>
        <path d="M 2419 4116 
L 825 1625 
L 2419 1625 
L 2419 4116 
z
M 2253 4666 
L 3047 4666 
L 3047 1625 
L 3713 1625 
L 3713 1100 
L 3047 1100 
L 3047 0 
L 2419 0 
L 2419 1100 
L 313 1100 
L 313 1709 
L 2253 4666 
z
" id="DejaVuSans-34" transform="scale(0.015625)"/>
       </defs>
       <use xlink:href="#DejaVuSans-32"/>
       <use x="63.623047" xlink:href="#DejaVuSans-30"/>
       <use x="127.246094" xlink:href="#DejaVuSans-32"/>
       <use x="190.869141" xlink:href="#DejaVuSans-31"/>
       <use x="254.492188" xlink:href="#DejaVuSans-2d"/>
       <use x="290.576172" xlink:href="#DejaVuSans-30"/>
       <use x="354.199219" xlink:href="#DejaVuSans-34"/>
      </g>
     </g>
    </g>
    <g id="xtick_9">
     <g id="line2d_9">
      <g>
       <use style="stroke:#000000;stroke-width:0.8;" x="930.784173" xlink:href="#m587d1ffbc2" y="228.96"/>
      </g>
     </g>
     <g id="text_9">
      <!-- 2021-05 -->
      <g transform="translate(933.543548 277.742812)rotate(-90)scale(0.1 -0.1)">
       <defs>
        <path d="M 691 4666 
L 3169 4666 
L 3169 4134 
L 1269 4134 
L 1269 2991 
Q 1406 3038 1543 3061 
Q 1681 3084 1819 3084 
Q 2600 3084 3056 2656 
Q 3513 2228 3513 1497 
Q 3513 744 3044 326 
Q 2575 -91 1722 -91 
Q 1428 -91 1123 -41 
Q 819 9 494 109 
L 494 744 
Q 775 591 1075 516 
Q 1375 441 1709 441 
Q 2250 441 2565 725 
Q 2881 1009 2881 1497 
Q 2881 1984 2565 2268 
Q 2250 2553 1709 2553 
Q 1456 2553 1204 2497 
Q 953 2441 691 2322 
L 691 4666 
z
" id="DejaVuSans-35" transform="scale(0.015625)"/>
       </defs>
       <use xlink:href="#DejaVuSans-32"/>
       <use x="63.623047" xlink:href="#DejaVuSans-30"/>
       <use x="127.246094" xlink:href="#DejaVuSans-32"/>
       <use x="190.869141" xlink:href="#DejaVuSans-31"/>
       <use x="254.492188" xlink:href="#DejaVuSans-2d"/>
       <use x="290.576172" xlink:href="#DejaVuSans-30"/>
       <use x="354.199219" xlink:href="#DejaVuSans-35"/>
      </g>
     </g>
    </g>
    <g id="xtick_10">
     <g id="line2d_10">
      <g>
       <use style="stroke:#000000;stroke-width:0.8;" x="1034.75412" xlink:href="#m587d1ffbc2" y="228.96"/>
      </g>
     </g>
     <g id="text_10">
      <!-- 2021-06 -->
      <g transform="translate(1037.513495 277.742812)rotate(-90)scale(0.1 -0.1)">
       <defs>
        <path d="M 2113 2584 
Q 1688 2584 1439 2293 
Q 1191 2003 1191 1497 
Q 1191 994 1439 701 
Q 1688 409 2113 409 
Q 2538 409 2786 701 
Q 3034 994 3034 1497 
Q 3034 2003 2786 2293 
Q 2538 2584 2113 2584 
z
M 3366 4563 
L 3366 3988 
Q 3128 4100 2886 4159 
Q 2644 4219 2406 4219 
Q 1781 4219 1451 3797 
Q 1122 3375 1075 2522 
Q 1259 2794 1537 2939 
Q 1816 3084 2150 3084 
Q 2853 3084 3261 2657 
Q 3669 2231 3669 1497 
Q 3669 778 3244 343 
Q 2819 -91 2113 -91 
Q 1303 -91 875 529 
Q 447 1150 447 2328 
Q 447 3434 972 4092 
Q 1497 4750 2381 4750 
Q 2619 4750 2861 4703 
Q 3103 4656 3366 4563 
z
" id="DejaVuSans-36" transform="scale(0.015625)"/>
       </defs>
       <use xlink:href="#DejaVuSans-32"/>
       <use x="63.623047" xlink:href="#DejaVuSans-30"/>
       <use x="127.246094" xlink:href="#DejaVuSans-32"/>
       <use x="190.869141" xlink:href="#DejaVuSans-31"/>
       <use x="254.492188" xlink:href="#DejaVuSans-2d"/>
       <use x="290.576172" xlink:href="#DejaVuSans-30"/>
       <use x="354.199219" xlink:href="#DejaVuSans-36"/>
      </g>
     </g>
    </g>
    <g id="xtick_11">
     <g id="line2d_11">
      <g>
       <use style="stroke:#000000;stroke-width:0.8;" x="1135.370199" xlink:href="#m587d1ffbc2" y="228.96"/>
      </g>
     </g>
     <g id="text_11">
      <!-- 2021-07 -->
      <g transform="translate(1138.129574 277.742812)rotate(-90)scale(0.1 -0.1)">
       <defs>
        <path d="M 525 4666 
L 3525 4666 
L 3525 4397 
L 1831 0 
L 1172 0 
L 2766 4134 
L 525 4134 
L 525 4666 
z
" id="DejaVuSans-37" transform="scale(0.015625)"/>
       </defs>
       <use xlink:href="#DejaVuSans-32"/>
       <use x="63.623047" xlink:href="#DejaVuSans-30"/>
       <use x="127.246094" xlink:href="#DejaVuSans-32"/>
       <use x="190.869141" xlink:href="#DejaVuSans-31"/>
       <use x="254.492188" xlink:href="#DejaVuSans-2d"/>
       <use x="290.576172" xlink:href="#DejaVuSans-30"/>
       <use x="354.199219" xlink:href="#DejaVuSans-37"/>
      </g>
     </g>
    </g>
    <g id="text_12">
     <!-- Date -->
     <g transform="translate(599.377344 289.34125)scale(0.1 -0.1)">
      <defs>
       <path d="M 1259 4147 
L 1259 519 
L 2022 519 
Q 2988 519 3436 956 
Q 3884 1394 3884 2338 
Q 3884 3275 3436 3711 
Q 2988 4147 2022 4147 
L 1259 4147 
z
M 628 4666 
L 1925 4666 
Q 3281 4666 3915 4102 
Q 4550 3538 4550 2338 
Q 4550 1131 3912 565 
Q 3275 0 1925 0 
L 628 0 
L 628 4666 
z
" id="DejaVuSans-44" transform="scale(0.015625)"/>
       <path d="M 2194 1759 
Q 1497 1759 1228 1600 
Q 959 1441 959 1056 
Q 959 750 1161 570 
Q 1363 391 1709 391 
Q 2188 391 2477 730 
Q 2766 1069 2766 1631 
L 2766 1759 
L 2194 1759 
z
M 3341 1997 
L 3341 0 
L 2766 0 
L 2766 531 
Q 2569 213 2275 61 
Q 1981 -91 1556 -91 
Q 1019 -91 701 211 
Q 384 513 384 1019 
Q 384 1609 779 1909 
Q 1175 2209 1959 2209 
L 2766 2209 
L 2766 2266 
Q 2766 2663 2505 2880 
Q 2244 3097 1772 3097 
Q 1472 3097 1187 3025 
Q 903 2953 641 2809 
L 641 3341 
Q 956 3463 1253 3523 
Q 1550 3584 1831 3584 
Q 2591 3584 2966 3190 
Q 3341 2797 3341 1997 
z
" id="DejaVuSans-61" transform="scale(0.015625)"/>
       <path d="M 1172 4494 
L 1172 3500 
L 2356 3500 
L 2356 3053 
L 1172 3053 
L 1172 1153 
Q 1172 725 1289 603 
Q 1406 481 1766 481 
L 2356 481 
L 2356 0 
L 1766 0 
Q 1100 0 847 248 
Q 594 497 594 1153 
L 594 3053 
L 172 3053 
L 172 3500 
L 594 3500 
L 594 4494 
L 1172 4494 
z
" id="DejaVuSans-74" transform="scale(0.015625)"/>
       <path d="M 3597 1894 
L 3597 1613 
L 953 1613 
Q 991 1019 1311 708 
Q 1631 397 2203 397 
Q 2534 397 2845 478 
Q 3156 559 3463 722 
L 3463 178 
Q 3153 47 2828 -22 
Q 2503 -91 2169 -91 
Q 1331 -91 842 396 
Q 353 884 353 1716 
Q 353 2575 817 3079 
Q 1281 3584 2069 3584 
Q 2775 3584 3186 3129 
Q 3597 2675 3597 1894 
z
M 3022 2063 
Q 3016 2534 2758 2815 
Q 2500 3097 2075 3097 
Q 1594 3097 1305 2825 
Q 1016 2553 972 2059 
L 3022 2063 
z
" id="DejaVuSans-65" transform="scale(0.015625)"/>
      </defs>
      <use xlink:href="#DejaVuSans-44"/>
      <use x="77.001953" xlink:href="#DejaVuSans-61"/>
      <use x="138.28125" xlink:href="#DejaVuSans-74"/>
      <use x="177.490234" xlink:href="#DejaVuSans-65"/>
     </g>
    </g>
   </g>
   <g id="matplotlib.axis_2">
    <g id="ytick_1">
     <g id="line2d_12">
      <defs>
       <path d="M 0 0 
L -3.5 0 
" id="m3466c00641" style="stroke:#000000;stroke-width:0.8;"/>
      </defs>
      <g>
       <use style="stroke:#000000;stroke-width:0.8;" x="53.328125" xlink:href="#m3466c00641" y="228.96"/>
      </g>
     </g>
     <g id="text_13">
      <!-- 0 -->
      <g transform="translate(39.965625 232.759219)scale(0.1 -0.1)">
       <use xlink:href="#DejaVuSans-30"/>
      </g>
     </g>
    </g>
    <g id="ytick_2">
     <g id="line2d_13">
      <g>
       <use style="stroke:#000000;stroke-width:0.8;" x="53.328125" xlink:href="#m3466c00641" y="198.977036"/>
      </g>
     </g>
     <g id="text_14">
      <!-- 250 -->
      <g transform="translate(27.240625 202.776255)scale(0.1 -0.1)">
       <use xlink:href="#DejaVuSans-32"/>
       <use x="63.623047" xlink:href="#DejaVuSans-35"/>
       <use x="127.246094" xlink:href="#DejaVuSans-30"/>
      </g>
     </g>
    </g>
    <g id="ytick_3">
     <g id="line2d_14">
      <g>
       <use style="stroke:#000000;stroke-width:0.8;" x="53.328125" xlink:href="#m3466c00641" y="168.994072"/>
      </g>
     </g>
     <g id="text_15">
      <!-- 500 -->
      <g transform="translate(27.240625 172.79329)scale(0.1 -0.1)">
       <use xlink:href="#DejaVuSans-35"/>
       <use x="63.623047" xlink:href="#DejaVuSans-30"/>
       <use x="127.246094" xlink:href="#DejaVuSans-30"/>
      </g>
     </g>
    </g>
    <g id="ytick_4">
     <g id="line2d_15">
      <g>
       <use style="stroke:#000000;stroke-width:0.8;" x="53.328125" xlink:href="#m3466c00641" y="139.011107"/>
      </g>
     </g>
     <g id="text_16">
      <!-- 750 -->
      <g transform="translate(27.240625 142.810326)scale(0.1 -0.1)">
       <use xlink:href="#DejaVuSans-37"/>
       <use x="63.623047" xlink:href="#DejaVuSans-35"/>
       <use x="127.246094" xlink:href="#DejaVuSans-30"/>
      </g>
     </g>
    </g>
    <g id="ytick_5">
     <g id="line2d_16">
      <g>
       <use style="stroke:#000000;stroke-width:0.8;" x="53.328125" xlink:href="#m3466c00641" y="109.028143"/>
      </g>
     </g>
     <g id="text_17">
      <!-- 1000 -->
      <g transform="translate(20.878125 112.827362)scale(0.1 -0.1)">
       <use xlink:href="#DejaVuSans-31"/>
       <use x="63.623047" xlink:href="#DejaVuSans-30"/>
       <use x="127.246094" xlink:href="#DejaVuSans-30"/>
       <use x="190.869141" xlink:href="#DejaVuSans-30"/>
      </g>
     </g>
    </g>
    <g id="ytick_6">
     <g id="line2d_17">
      <g>
       <use style="stroke:#000000;stroke-width:0.8;" x="53.328125" xlink:href="#m3466c00641" y="79.045179"/>
      </g>
     </g>
     <g id="text_18">
      <!-- 1250 -->
      <g transform="translate(20.878125 82.844398)scale(0.1 -0.1)">
       <use xlink:href="#DejaVuSans-31"/>
       <use x="63.623047" xlink:href="#DejaVuSans-32"/>
       <use x="127.246094" xlink:href="#DejaVuSans-35"/>
       <use x="190.869141" xlink:href="#DejaVuSans-30"/>
      </g>
     </g>
    </g>
    <g id="ytick_7">
     <g id="line2d_18">
      <g>
       <use style="stroke:#000000;stroke-width:0.8;" x="53.328125" xlink:href="#m3466c00641" y="49.062215"/>
      </g>
     </g>
     <g id="text_19">
      <!-- 1500 -->
      <g transform="translate(20.878125 52.861433)scale(0.1 -0.1)">
       <use xlink:href="#DejaVuSans-31"/>
       <use x="63.623047" xlink:href="#DejaVuSans-35"/>
       <use x="127.246094" xlink:href="#DejaVuSans-30"/>
       <use x="190.869141" xlink:href="#DejaVuSans-30"/>
      </g>
     </g>
    </g>
    <g id="ytick_8">
     <g id="line2d_19">
      <g>
       <use style="stroke:#000000;stroke-width:0.8;" x="53.328125" xlink:href="#m3466c00641" y="19.07925"/>
      </g>
     </g>
     <g id="text_20">
      <!-- 1750 -->
      <g transform="translate(20.878125 22.878469)scale(0.1 -0.1)">
       <use xlink:href="#DejaVuSans-31"/>
       <use x="63.623047" xlink:href="#DejaVuSans-37"/>
       <use x="127.246094" xlink:href="#DejaVuSans-35"/>
       <use x="190.869141" xlink:href="#DejaVuSans-30"/>
      </g>
     </g>
    </g>
    <g id="text_21">
     <!-- Sequence count -->
     <g transform="translate(14.798437 158.440156)rotate(-90)scale(0.1 -0.1)">
      <defs>
       <path d="M 3425 4513 
L 3425 3897 
Q 3066 4069 2747 4153 
Q 2428 4238 2131 4238 
Q 1616 4238 1336 4038 
Q 1056 3838 1056 3469 
Q 1056 3159 1242 3001 
Q 1428 2844 1947 2747 
L 2328 2669 
Q 3034 2534 3370 2195 
Q 3706 1856 3706 1288 
Q 3706 609 3251 259 
Q 2797 -91 1919 -91 
Q 1588 -91 1214 -16 
Q 841 59 441 206 
L 441 856 
Q 825 641 1194 531 
Q 1563 422 1919 422 
Q 2459 422 2753 634 
Q 3047 847 3047 1241 
Q 3047 1584 2836 1778 
Q 2625 1972 2144 2069 
L 1759 2144 
Q 1053 2284 737 2584 
Q 422 2884 422 3419 
Q 422 4038 858 4394 
Q 1294 4750 2059 4750 
Q 2388 4750 2728 4690 
Q 3069 4631 3425 4513 
z
" id="DejaVuSans-53" transform="scale(0.015625)"/>
       <path d="M 947 1747 
Q 947 1113 1208 752 
Q 1469 391 1925 391 
Q 2381 391 2643 752 
Q 2906 1113 2906 1747 
Q 2906 2381 2643 2742 
Q 2381 3103 1925 3103 
Q 1469 3103 1208 2742 
Q 947 2381 947 1747 
z
M 2906 525 
Q 2725 213 2448 61 
Q 2172 -91 1784 -91 
Q 1150 -91 751 415 
Q 353 922 353 1747 
Q 353 2572 751 3078 
Q 1150 3584 1784 3584 
Q 2172 3584 2448 3432 
Q 2725 3281 2906 2969 
L 2906 3500 
L 3481 3500 
L 3481 -1331 
L 2906 -1331 
L 2906 525 
z
" id="DejaVuSans-71" transform="scale(0.015625)"/>
       <path d="M 544 1381 
L 544 3500 
L 1119 3500 
L 1119 1403 
Q 1119 906 1312 657 
Q 1506 409 1894 409 
Q 2359 409 2629 706 
Q 2900 1003 2900 1516 
L 2900 3500 
L 3475 3500 
L 3475 0 
L 2900 0 
L 2900 538 
Q 2691 219 2414 64 
Q 2138 -91 1772 -91 
Q 1169 -91 856 284 
Q 544 659 544 1381 
z
M 1991 3584 
L 1991 3584 
z
" id="DejaVuSans-75" transform="scale(0.015625)"/>
       <path d="M 3513 2113 
L 3513 0 
L 2938 0 
L 2938 2094 
Q 2938 2591 2744 2837 
Q 2550 3084 2163 3084 
Q 1697 3084 1428 2787 
Q 1159 2491 1159 1978 
L 1159 0 
L 581 0 
L 581 3500 
L 1159 3500 
L 1159 2956 
Q 1366 3272 1645 3428 
Q 1925 3584 2291 3584 
Q 2894 3584 3203 3211 
Q 3513 2838 3513 2113 
z
" id="DejaVuSans-6e" transform="scale(0.015625)"/>
       <path d="M 3122 3366 
L 3122 2828 
Q 2878 2963 2633 3030 
Q 2388 3097 2138 3097 
Q 1578 3097 1268 2742 
Q 959 2388 959 1747 
Q 959 1106 1268 751 
Q 1578 397 2138 397 
Q 2388 397 2633 464 
Q 2878 531 3122 666 
L 3122 134 
Q 2881 22 2623 -34 
Q 2366 -91 2075 -91 
Q 1284 -91 818 406 
Q 353 903 353 1747 
Q 353 2603 823 3093 
Q 1294 3584 2113 3584 
Q 2378 3584 2631 3529 
Q 2884 3475 3122 3366 
z
" id="DejaVuSans-63" transform="scale(0.015625)"/>
       <path id="DejaVuSans-20" transform="scale(0.015625)"/>
       <path d="M 1959 3097 
Q 1497 3097 1228 2736 
Q 959 2375 959 1747 
Q 959 1119 1226 758 
Q 1494 397 1959 397 
Q 2419 397 2687 759 
Q 2956 1122 2956 1747 
Q 2956 2369 2687 2733 
Q 2419 3097 1959 3097 
z
M 1959 3584 
Q 2709 3584 3137 3096 
Q 3566 2609 3566 1747 
Q 3566 888 3137 398 
Q 2709 -91 1959 -91 
Q 1206 -91 779 398 
Q 353 888 353 1747 
Q 353 2609 779 3096 
Q 1206 3584 1959 3584 
z
" id="DejaVuSans-6f" transform="scale(0.015625)"/>
      </defs>
      <use xlink:href="#DejaVuSans-53"/>
      <use x="63.476562" xlink:href="#DejaVuSans-65"/>
      <use x="125" xlink:href="#DejaVuSans-71"/>
      <use x="188.476562" xlink:href="#DejaVuSans-75"/>
      <use x="251.855469" xlink:href="#DejaVuSans-65"/>
      <use x="313.378906" xlink:href="#DejaVuSans-6e"/>
      <use x="376.757812" xlink:href="#DejaVuSans-63"/>
      <use x="431.738281" xlink:href="#DejaVuSans-65"/>
      <use x="493.261719" xlink:href="#DejaVuSans-20"/>
      <use x="525.048828" xlink:href="#DejaVuSans-63"/>
      <use x="580.029297" xlink:href="#DejaVuSans-6f"/>
      <use x="641.210938" xlink:href="#DejaVuSans-75"/>
      <use x="704.589844" xlink:href="#DejaVuSans-6e"/>
      <use x="767.96875" xlink:href="#DejaVuSans-74"/>
     </g>
    </g>
   </g>
   <g id="patch_46">
    <path d="M 53.328125 228.96 
L 53.328125 7.2 
" style="fill:none;stroke:#000000;stroke-linecap:square;stroke-linejoin:miter;stroke-width:0.8;"/>
   </g>
   <g id="patch_47">
    <path d="M 1169.328125 228.96 
L 1169.328125 7.2 
" style="fill:none;stroke:#000000;stroke-linecap:square;stroke-linejoin:miter;stroke-width:0.8;"/>
   </g>
   <g id="patch_48">
    <path d="M 53.328125 228.96 
L 1169.328125 228.96 
" style="fill:none;stroke:#000000;stroke-linecap:square;stroke-linejoin:miter;stroke-width:0.8;"/>
   </g>
  </g>
  <g id="axes_2">
   <g id="matplotlib.axis_3">
    <g id="ytick_9">
     <g id="line2d_20">
      <defs>
       <path d="M 0 0 
L 3.5 0 
" id="ma2a3d8454e" style="stroke:#000000;stroke-width:0.8;"/>
      </defs>
      <g>
       <use style="stroke:#000000;stroke-width:0.8;" x="1169.328125" xlink:href="#ma2a3d8454e" y="218.932502"/>
      </g>
     </g>
     <g id="text_22">
      <!-- 0 -->
      <g transform="translate(1176.328125 222.731721)scale(0.1 -0.1)">
       <use xlink:href="#DejaVuSans-30"/>
      </g>
     </g>
    </g>
    <g id="ytick_10">
     <g id="line2d_21">
      <g>
       <use style="stroke:#000000;stroke-width:0.8;" x="1169.328125" xlink:href="#ma2a3d8454e" y="175.180603"/>
      </g>
     </g>
     <g id="text_23">
      <!-- 5000 -->
      <g transform="translate(1176.328125 178.979822)scale(0.1 -0.1)">
       <use xlink:href="#DejaVuSans-35"/>
       <use x="63.623047" xlink:href="#DejaVuSans-30"/>
       <use x="127.246094" xlink:href="#DejaVuSans-30"/>
       <use x="190.869141" xlink:href="#DejaVuSans-30"/>
      </g>
     </g>
    </g>
    <g id="ytick_11">
     <g id="line2d_22">
      <g>
       <use style="stroke:#000000;stroke-width:0.8;" x="1169.328125" xlink:href="#ma2a3d8454e" y="131.428704"/>
      </g>
     </g>
     <g id="text_24">
      <!-- 10000 -->
      <g transform="translate(1176.328125 135.227923)scale(0.1 -0.1)">
       <use xlink:href="#DejaVuSans-31"/>
       <use x="63.623047" xlink:href="#DejaVuSans-30"/>
       <use x="127.246094" xlink:href="#DejaVuSans-30"/>
       <use x="190.869141" xlink:href="#DejaVuSans-30"/>
       <use x="254.492188" xlink:href="#DejaVuSans-30"/>
      </g>
     </g>
    </g>
    <g id="ytick_12">
     <g id="line2d_23">
      <g>
       <use style="stroke:#000000;stroke-width:0.8;" x="1169.328125" xlink:href="#ma2a3d8454e" y="87.676805"/>
      </g>
     </g>
     <g id="text_25">
      <!-- 15000 -->
      <g transform="translate(1176.328125 91.476024)scale(0.1 -0.1)">
       <use xlink:href="#DejaVuSans-31"/>
       <use x="63.623047" xlink:href="#DejaVuSans-35"/>
       <use x="127.246094" xlink:href="#DejaVuSans-30"/>
       <use x="190.869141" xlink:href="#DejaVuSans-30"/>
       <use x="254.492188" xlink:href="#DejaVuSans-30"/>
      </g>
     </g>
    </g>
    <g id="ytick_13">
     <g id="line2d_24">
      <g>
       <use style="stroke:#000000;stroke-width:0.8;" x="1169.328125" xlink:href="#ma2a3d8454e" y="43.924906"/>
      </g>
     </g>
     <g id="text_26">
      <!-- 20000 -->
      <g transform="translate(1176.328125 47.724125)scale(0.1 -0.1)">
       <use xlink:href="#DejaVuSans-32"/>
       <use x="63.623047" xlink:href="#DejaVuSans-30"/>
       <use x="127.246094" xlink:href="#DejaVuSans-30"/>
       <use x="190.869141" xlink:href="#DejaVuSans-30"/>
       <use x="254.492188" xlink:href="#DejaVuSans-30"/>
      </g>
     </g>
    </g>
    <g id="text_27">
     <!-- Total -->
     <g transform="translate(1219.739063 129.756562)rotate(-90)scale(0.1 -0.1)">
      <defs>
       <path d="M -19 4666 
L 3928 4666 
L 3928 4134 
L 2272 4134 
L 2272 0 
L 1638 0 
L 1638 4134 
L -19 4134 
L -19 4666 
z
" id="DejaVuSans-54" transform="scale(0.015625)"/>
       <path d="M 603 4863 
L 1178 4863 
L 1178 0 
L 603 0 
L 603 4863 
z
" id="DejaVuSans-6c" transform="scale(0.015625)"/>
      </defs>
      <use xlink:href="#DejaVuSans-54"/>
      <use x="44.083984" xlink:href="#DejaVuSans-6f"/>
      <use x="105.265625" xlink:href="#DejaVuSans-74"/>
      <use x="144.474609" xlink:href="#DejaVuSans-61"/>
      <use x="205.753906" xlink:href="#DejaVuSans-6c"/>
     </g>
    </g>
   </g>
   <g id="line2d_25">
    <path clip-path="url(#pc2a0177f62)" d="M 119.147809 218.88 
L 172.809718 218.372478 
L 179.517456 218.267473 
L 209.70228 217.96121 
L 219.763888 217.821204 
L 229.825495 217.759951 
L 286.841273 217.208677 
L 296.902881 216.823661 
L 306.964489 216.622402 
L 317.026096 216.228635 
L 323.733835 216.167382 
L 327.087704 215.89612 
L 337.149312 215.406099 
L 340.503181 215.213591 
L 357.272528 214.889827 
L 363.980266 214.399806 
L 377.395743 214.233548 
L 387.457351 213.271007 
L 394.16509 213.192253 
L 397.518959 212.955993 
L 400.872828 212.43972 
L 404.226698 212.212211 
L 414.288305 211.97595 
L 417.642175 211.932198 
L 434.411521 210.855902 
L 441.119259 210.567139 
L 444.473129 210.042116 
L 447.826998 209.823357 
L 454.534737 209.123327 
L 461.242475 208.834564 
L 464.596344 208.773311 
L 467.950214 208.29204 
L 471.304083 207.697015 
L 474.657952 207.530757 
L 478.011821 207.154491 
L 481.365691 206.646969 
L 488.073429 206.42821 
L 491.427299 205.675677 
L 494.781168 205.115653 
L 501.488906 204.231864 
L 508.196645 203.776844 
L 511.550514 203.488082 
L 518.258253 201.466744 
L 524.965991 200.399198 
L 528.319861 200.162938 
L 531.67373 199.716668 
L 535.027599 199.427906 
L 538.381468 197.765334 
L 541.735338 196.662786 
L 545.089207 195.708994 
L 548.443076 195.15772 
L 551.796945 194.475191 
L 558.504684 193.827663 
L 561.858553 192.593859 
L 571.920161 189.951244 
L 575.27403 189.426222 
L 578.6279 189.014954 
L 581.981769 188.813695 
L 585.335638 187.991159 
L 592.043377 186.871111 
L 598.751115 185.23479 
L 602.104985 184.972278 
L 605.458854 184.534759 
L 608.812723 183.414711 
L 622.2282 179.984562 
L 625.582069 179.547043 
L 628.935939 179.310783 
L 632.289808 178.243236 
L 635.643677 176.95693 
L 638.997546 175.933136 
L 642.351416 175.163103 
L 645.705285 174.121807 
L 652.413024 173.369275 
L 655.766893 171.479193 
L 659.120762 170.201637 
L 662.474631 169.151592 
L 665.828501 167.410266 
L 669.18237 166.255216 
L 672.536239 165.747694 
L 675.890108 165.397679 
L 679.243978 163.630102 
L 682.597847 162.19504 
L 689.305586 159.569926 
L 692.659455 158.432376 
L 699.367193 157.303577 
L 702.721063 155.238488 
L 706.074932 153.785925 
L 709.428801 152.044599 
L 712.78267 150.565785 
L 716.13654 148.885712 
L 722.844278 147.599406 
L 726.198148 144.983043 
L 729.552017 142.672942 
L 732.905886 140.502848 
L 736.259755 139.15529 
L 739.613625 137.658975 
L 746.321363 136.083906 
L 749.675232 133.073776 
L 753.029102 130.63242 
L 759.73684 126.213478 
L 763.09071 123.737121 
L 766.444579 122.240806 
L 769.798448 121.260763 
L 773.152317 118.390638 
L 776.506187 115.223001 
L 783.213925 110.664053 
L 786.567794 108.266449 
L 789.921664 106.831387 
L 793.275533 105.711338 
L 796.629402 102.508699 
L 799.983272 99.796081 
L 803.337141 97.275972 
L 806.69101 95.070876 
L 810.044879 93.347052 
L 813.398749 92.375759 
L 816.752618 91.579475 
L 820.106487 88.385586 
L 823.460356 85.900478 
L 826.814226 84.150402 
L 830.168095 82.592835 
L 833.521964 81.359031 
L 836.875833 80.431491 
L 840.229703 79.740211 
L 843.583572 78.436404 
L 853.64518 73.334933 
L 856.999049 71.908621 
L 860.352918 70.832324 
L 863.706788 70.04479 
L 867.060657 67.752191 
L 870.414526 65.319585 
L 873.768395 63.648263 
L 880.476134 61.084401 
L 883.830003 59.9031 
L 887.183873 59.290573 
L 890.537742 57.409242 
L 897.24548 54.486615 
L 903.953219 52.246518 
L 910.660957 50.776454 
L 914.014827 48.798868 
L 917.368696 47.188798 
L 920.722565 45.876241 
L 927.430304 43.601142 
L 930.784173 42.944864 
L 934.138042 42.463593 
L 937.491912 40.599762 
L 940.845781 38.963441 
L 944.19965 37.55463 
L 950.907389 35.585795 
L 954.261258 34.912015 
L 957.615127 34.456996 
L 960.968997 33.363198 
L 964.322866 31.963137 
L 967.676735 30.956844 
L 974.384474 29.548032 
L 977.738343 29.084262 
L 981.092212 28.830501 
L 987.799951 27.220431 
L 991.15382 26.616655 
L 994.507689 26.144135 
L 997.861559 25.785369 
L 1001.215428 25.540359 
L 1004.569297 25.461605 
L 1007.923166 25.006585 
L 1011.277036 24.175299 
L 1014.630905 23.842785 
L 1017.984774 23.344013 
L 1021.338643 22.967747 
L 1028.046382 22.512727 
L 1038.10799 20.885156 
L 1041.461859 20.596394 
L 1044.815728 20.141374 
L 1048.169598 19.81761 
L 1051.523467 19.625102 
L 1054.877336 19.143831 
L 1058.231205 18.461301 
L 1064.938944 18.111286 
L 1081.70829 17.761271 
L 1091.769898 17.481259 
L 1118.600852 17.28 
L 1118.600852 17.28 
" style="fill:none;stroke:#696969;stroke-linecap:square;stroke-width:3;"/>
   </g>
   <g id="patch_49">
    <path d="M 53.328125 228.96 
L 53.328125 7.2 
" style="fill:none;stroke:#000000;stroke-linecap:square;stroke-linejoin:miter;stroke-width:0.8;"/>
   </g>
   <g id="patch_50">
    <path d="M 1169.328125 228.96 
L 1169.328125 7.2 
" style="fill:none;stroke:#000000;stroke-linecap:square;stroke-linejoin:miter;stroke-width:0.8;"/>
   </g>
   <g id="patch_51">
    <path d="M 53.328125 228.96 
L 1169.328125 228.96 
" style="fill:none;stroke:#000000;stroke-linecap:square;stroke-linejoin:miter;stroke-width:0.8;"/>
   </g>
  </g>
 </g>
 <defs>
  <clipPath id="pc2a0177f62">
   <rect height="221.76" width="1116" x="53.328125" y="7.2"/>
  </clipPath>
 </defs>
</svg>
