<?xml version="1.0" encoding="utf-8" standalone="no"?>
<!DOCTYPE svg PUBLIC "-//W3C//DTD SVG 1.1//EN"
  "http://www.w3.org/Graphics/SVG/1.1/DTD/svg11.dtd">
<svg height="298.620937pt" version="1.1" viewBox="0 0 1229.01875 298.620937" width="1229.01875pt" xmlns="http://www.w3.org/2000/svg" xmlns:xlink="http://www.w3.org/1999/xlink">
 <metadata>
  <rdf:RDF xmlns:cc="http://creativecommons.org/ns#" xmlns:dc="http://purl.org/dc/elements/1.1/" xmlns:rdf="http://www.w3.org/1999/02/22-rdf-syntax-ns#">
   <cc:Work>
    <dc:type rdf:resource="http://purl.org/dc/dcmitype/StillImage"/>
    <dc:date>2021-06-29T15:56:45.887857</dc:date>
    <dc:format>image/svg+xml</dc:format>
    <dc:creator>
     <cc:Agent>
      <dc:title>Matplotlib v3.4.2, https://matplotlib.org/</dc:title>
     </cc:Agent>
    </dc:creator>
   </cc:Work>
  </rdf:RDF>
 </metadata>
 <defs>
  <style type="text/css">*{stroke-linecap:butt;stroke-linejoin:round;}</style>
 </defs>
 <g id="figure_1">
  <g id="patch_1">
   <path d="M 0 298.620937 
L 1229.01875 298.620937 
L 1229.01875 0 
L 0 0 
z
" style="fill:#ffffff;"/>
  </g>
  <g id="axes_1">
   <g id="patch_2">
    <path d="M 53.328125 228.96 
L 1169.328125 228.96 
L 1169.328125 7.2 
L 53.328125 7.2 
z
" style="fill:#ffffff;"/>
   </g>
   <g id="patch_3">
    <path clip-path="url(#p4138129575)" d="M 104.055398 228.96 
L 122.670911 228.96 
L 122.670911 228.903994 
L 104.055398 228.903994 
z
" style="fill:#86b0a6;"/>
   </g>
   <g id="patch_4">
    <path clip-path="url(#p4138129575)" d="M 156.178834 228.96 
L 174.794347 228.96 
L 174.794347 228.903994 
L 156.178834 228.903994 
z
" style="fill:#86b0a6;"/>
   </g>
   <g id="patch_5">
    <path clip-path="url(#p4138129575)" d="M 208.30227 228.96 
L 226.917783 228.96 
L 226.917783 228.847987 
L 208.30227 228.847987 
z
" style="fill:#86b0a6;"/>
   </g>
   <g id="patch_6">
    <path clip-path="url(#p4138129575)" d="M 234.363988 228.96 
L 252.979501 228.96 
L 252.979501 228.903994 
L 234.363988 228.903994 
z
" style="fill:#86b0a6;"/>
   </g>
   <g id="patch_7">
    <path clip-path="url(#p4138129575)" d="M 286.487424 228.96 
L 305.102937 228.96 
L 305.102937 228.791981 
L 286.487424 228.791981 
z
" style="fill:#86b0a6;"/>
   </g>
   <g id="patch_8">
    <path clip-path="url(#p4138129575)" d="M 338.610861 228.96 
L 357.226374 228.96 
L 357.226374 228.847987 
L 338.610861 228.847987 
z
" style="fill:#86b0a6;"/>
   </g>
   <g id="patch_9">
    <path clip-path="url(#p4138129575)" d="M 364.672579 228.96 
L 383.288092 228.96 
L 383.288092 228.847987 
L 364.672579 228.847987 
z
" style="fill:#86b0a6;"/>
   </g>
   <g id="patch_10">
    <path clip-path="url(#p4138129575)" d="M 390.734297 228.96 
L 409.34981 228.96 
L 409.34981 227.951885 
L 390.734297 227.951885 
z
" style="fill:#86b0a6;"/>
   </g>
   <g id="patch_11">
    <path clip-path="url(#p4138129575)" d="M 416.796015 228.96 
L 435.411528 228.96 
L 435.411528 226.943771 
L 416.796015 226.943771 
z
" style="fill:#86b0a6;"/>
   </g>
   <g id="patch_12">
    <path clip-path="url(#p4138129575)" d="M 442.857733 228.96 
L 461.473246 228.96 
L 461.473246 226.607733 
L 442.857733 226.607733 
z
" style="fill:#86b0a6;"/>
   </g>
   <g id="patch_13">
    <path clip-path="url(#p4138129575)" d="M 468.919451 228.96 
L 487.534964 228.96 
L 487.534964 225.207574 
L 468.919451 225.207574 
z
" style="fill:#86b0a6;"/>
   </g>
   <g id="patch_14">
    <path clip-path="url(#p4138129575)" d="M 494.981169 228.96 
L 513.596682 228.96 
L 513.596682 225.319586 
L 494.981169 225.319586 
z
" style="fill:#86b0a6;"/>
   </g>
   <g id="patch_15">
    <path clip-path="url(#p4138129575)" d="M 521.042887 228.96 
L 539.6584 228.96 
L 539.6584 220.95109 
L 521.042887 220.95109 
z
" style="fill:#86b0a6;"/>
   </g>
   <g id="patch_16">
    <path clip-path="url(#p4138129575)" d="M 547.104605 228.96 
L 565.720118 228.96 
L 565.720118 221.231122 
L 547.104605 221.231122 
z
" style="fill:#86b0a6;"/>
   </g>
   <g id="patch_17">
    <path clip-path="url(#p4138129575)" d="M 573.166323 228.96 
L 591.781836 228.96 
L 591.781836 220.33502 
L 573.166323 220.33502 
z
" style="fill:#86b0a6;"/>
   </g>
   <g id="patch_18">
    <path clip-path="url(#p4138129575)" d="M 599.228042 228.96 
L 617.843555 228.96 
L 617.843555 215.574479 
L 599.228042 215.574479 
z
" style="fill:#86b0a6;"/>
   </g>
   <g id="patch_19">
    <path clip-path="url(#p4138129575)" d="M 625.28976 228.96 
L 643.905273 228.96 
L 643.905273 210.533906 
L 625.28976 210.533906 
z
" style="fill:#86b0a6;"/>
   </g>
   <g id="patch_20">
    <path clip-path="url(#p4138129575)" d="M 651.351478 228.96 
L 669.966991 228.96 
L 669.966991 198.436531 
L 651.351478 198.436531 
z
" style="fill:#86b0a6;"/>
   </g>
   <g id="patch_21">
    <path clip-path="url(#p4138129575)" d="M 677.413196 228.96 
L 696.028709 228.96 
L 696.028709 196.028258 
L 677.413196 196.028258 
z
" style="fill:#86b0a6;"/>
   </g>
   <g id="patch_22">
    <path clip-path="url(#p4138129575)" d="M 703.474914 228.96 
L 722.090427 228.96 
L 722.090427 180.234463 
L 703.474914 180.234463 
z
" style="fill:#86b0a6;"/>
   </g>
   <g id="patch_23">
    <path clip-path="url(#p4138129575)" d="M 729.536632 228.96 
L 748.152145 228.96 
L 748.152145 164.216643 
L 729.536632 164.216643 
z
" style="fill:#86b0a6;"/>
   </g>
   <g id="patch_24">
    <path clip-path="url(#p4138129575)" d="M 755.59835 228.96 
L 774.213863 228.96 
L 774.213863 75.894606 
L 755.59835 75.894606 
z
" style="fill:#86b0a6;"/>
   </g>
   <g id="patch_25">
    <path clip-path="url(#p4138129575)" d="M 781.660068 228.96 
L 800.275581 228.96 
L 800.275581 87.767955 
L 781.660068 87.767955 
z
" style="fill:#86b0a6;"/>
   </g>
   <g id="patch_26">
    <path clip-path="url(#p4138129575)" d="M 807.721786 228.96 
L 826.337299 228.96 
L 826.337299 29.297311 
L 807.721786 29.297311 
z
" style="fill:#86b0a6;"/>
   </g>
   <g id="patch_27">
    <path clip-path="url(#p4138129575)" d="M 833.783504 228.96 
L 852.399017 228.96 
L 852.399017 17.76 
L 833.783504 17.76 
z
" style="fill:#86b0a6;"/>
   </g>
   <g id="patch_28">
    <path clip-path="url(#p4138129575)" d="M 859.845223 228.96 
L 878.460736 228.96 
L 878.460736 20.84035 
L 859.845223 20.84035 
z
" style="fill:#86b0a6;"/>
   </g>
   <g id="patch_29">
    <path clip-path="url(#p4138129575)" d="M 885.906941 228.96 
L 904.522454 228.96 
L 904.522454 25.040827 
L 885.906941 25.040827 
z
" style="fill:#86b0a6;"/>
   </g>
   <g id="patch_30">
    <path clip-path="url(#p4138129575)" d="M 911.968659 228.96 
L 930.584172 228.96 
L 930.584172 40.218552 
L 911.968659 40.218552 
z
" style="fill:#86b0a6;"/>
   </g>
   <g id="patch_31">
    <path clip-path="url(#p4138129575)" d="M 938.030377 228.96 
L 956.64589 228.96 
L 956.64589 63.741225 
L 938.030377 63.741225 
z
" style="fill:#86b0a6;"/>
   </g>
   <g id="patch_32">
    <path clip-path="url(#p4138129575)" d="M 964.092095 228.96 
L 982.707608 228.96 
L 982.707608 59.428735 
L 964.092095 59.428735 
z
" style="fill:#86b0a6;"/>
   </g>
   <g id="patch_33">
    <path clip-path="url(#p4138129575)" d="M 990.153813 228.96 
L 1008.769326 228.96 
L 1008.769326 98.913222 
L 990.153813 98.913222 
z
" style="fill:#86b0a6;"/>
   </g>
   <g id="patch_34">
    <path clip-path="url(#p4138129575)" d="M 1016.215531 228.96 
L 1034.831044 228.96 
L 1034.831044 159.736134 
L 1016.215531 159.736134 
z
" style="fill:#86b0a6;"/>
   </g>
   <g id="patch_35">
    <path clip-path="url(#p4138129575)" d="M 1042.277249 228.96 
L 1060.892762 228.96 
L 1060.892762 196.084264 
L 1042.277249 196.084264 
z
" style="fill:#86b0a6;"/>
   </g>
   <g id="patch_36">
    <path clip-path="url(#p4138129575)" d="M 1068.338967 228.96 
L 1086.95448 228.96 
L 1086.95448 221.847192 
L 1068.338967 221.847192 
z
" style="fill:#86b0a6;"/>
   </g>
   <g id="patch_37">
    <path clip-path="url(#p4138129575)" d="M 1094.400685 228.96 
L 1113.016198 228.96 
L 1113.016198 228.063898 
L 1094.400685 228.063898 
z
" style="fill:#86b0a6;"/>
   </g>
   <g id="matplotlib.axis_1">
    <g id="xtick_1">
     <g id="line2d_1">
      <defs>
       <path d="M 0 0 
L 0 3.5 
" id="mc36a8f68e9" style="stroke:#000000;stroke-width:0.8;"/>
      </defs>
      <g>
       <use style="stroke:#000000;stroke-width:0.8;" x="128.255565" xlink:href="#mc36a8f68e9" y="228.96"/>
      </g>
     </g>
     <g id="text_1">
      <!-- 2020-10 -->
      <g transform="translate(131.01494 277.742812)rotate(-90)scale(0.1 -0.1)">
       <defs>
        <path d="M 1228 531 
L 3431 531 
L 3431 0 
L 469 0 
L 469 531 
Q 828 903 1448 1529 
Q 2069 2156 2228 2338 
Q 2531 2678 2651 2914 
Q 2772 3150 2772 3378 
Q 2772 3750 2511 3984 
Q 2250 4219 1831 4219 
Q 1534 4219 1204 4116 
Q 875 4013 500 3803 
L 500 4441 
Q 881 4594 1212 4672 
Q 1544 4750 1819 4750 
Q 2544 4750 2975 4387 
Q 3406 4025 3406 3419 
Q 3406 3131 3298 2873 
Q 3191 2616 2906 2266 
Q 2828 2175 2409 1742 
Q 1991 1309 1228 531 
z
" id="DejaVuSans-32" transform="scale(0.015625)"/>
        <path d="M 2034 4250 
Q 1547 4250 1301 3770 
Q 1056 3291 1056 2328 
Q 1056 1369 1301 889 
Q 1547 409 2034 409 
Q 2525 409 2770 889 
Q 3016 1369 3016 2328 
Q 3016 3291 2770 3770 
Q 2525 4250 2034 4250 
z
M 2034 4750 
Q 2819 4750 3233 4129 
Q 3647 3509 3647 2328 
Q 3647 1150 3233 529 
Q 2819 -91 2034 -91 
Q 1250 -91 836 529 
Q 422 1150 422 2328 
Q 422 3509 836 4129 
Q 1250 4750 2034 4750 
z
" id="DejaVuSans-30" transform="scale(0.015625)"/>
        <path d="M 313 2009 
L 1997 2009 
L 1997 1497 
L 313 1497 
L 313 2009 
z
" id="DejaVuSans-2d" transform="scale(0.015625)"/>
        <path d="M 794 531 
L 1825 531 
L 1825 4091 
L 703 3866 
L 703 4441 
L 1819 4666 
L 2450 4666 
L 2450 531 
L 3481 531 
L 3481 0 
L 794 0 
L 794 531 
z
" id="DejaVuSans-31" transform="scale(0.015625)"/>
       </defs>
       <use xlink:href="#DejaVuSans-32"/>
       <use x="63.623047" xlink:href="#DejaVuSans-30"/>
       <use x="127.246094" xlink:href="#DejaVuSans-32"/>
       <use x="190.869141" xlink:href="#DejaVuSans-30"/>
       <use x="254.492188" xlink:href="#DejaVuSans-2d"/>
       <use x="290.576172" xlink:href="#DejaVuSans-31"/>
       <use x="354.199219" xlink:href="#DejaVuSans-30"/>
      </g>
     </g>
    </g>
    <g id="xtick_2">
     <g id="line2d_2">
      <g>
       <use style="stroke:#000000;stroke-width:0.8;" x="243.671745" xlink:href="#mc36a8f68e9" y="228.96"/>
      </g>
     </g>
     <g id="text_2">
      <!-- 2020-11 -->
      <g transform="translate(246.43112 277.742812)rotate(-90)scale(0.1 -0.1)">
       <use xlink:href="#DejaVuSans-32"/>
       <use x="63.623047" xlink:href="#DejaVuSans-30"/>
       <use x="127.246094" xlink:href="#DejaVuSans-32"/>
       <use x="190.869141" xlink:href="#DejaVuSans-30"/>
       <use x="254.492188" xlink:href="#DejaVuSans-2d"/>
       <use x="290.576172" xlink:href="#DejaVuSans-31"/>
       <use x="354.199219" xlink:href="#DejaVuSans-31"/>
      </g>
     </g>
    </g>
    <g id="xtick_3">
     <g id="line2d_3">
      <g>
       <use style="stroke:#000000;stroke-width:0.8;" x="355.364822" xlink:href="#mc36a8f68e9" y="228.96"/>
      </g>
     </g>
     <g id="text_3">
      <!-- 2020-12 -->
      <g transform="translate(358.124197 277.742812)rotate(-90)scale(0.1 -0.1)">
       <use xlink:href="#DejaVuSans-32"/>
       <use x="63.623047" xlink:href="#DejaVuSans-30"/>
       <use x="127.246094" xlink:href="#DejaVuSans-32"/>
       <use x="190.869141" xlink:href="#DejaVuSans-30"/>
       <use x="254.492188" xlink:href="#DejaVuSans-2d"/>
       <use x="290.576172" xlink:href="#DejaVuSans-31"/>
       <use x="354.199219" xlink:href="#DejaVuSans-32"/>
      </g>
     </g>
    </g>
    <g id="xtick_4">
     <g id="line2d_4">
      <g>
       <use style="stroke:#000000;stroke-width:0.8;" x="470.781002" xlink:href="#mc36a8f68e9" y="228.96"/>
      </g>
     </g>
     <g id="text_4">
      <!-- 2021-01 -->
      <g transform="translate(473.540377 277.742812)rotate(-90)scale(0.1 -0.1)">
       <use xlink:href="#DejaVuSans-32"/>
       <use x="63.623047" xlink:href="#DejaVuSans-30"/>
       <use x="127.246094" xlink:href="#DejaVuSans-32"/>
       <use x="190.869141" xlink:href="#DejaVuSans-31"/>
       <use x="254.492188" xlink:href="#DejaVuSans-2d"/>
       <use x="290.576172" xlink:href="#DejaVuSans-30"/>
       <use x="354.199219" xlink:href="#DejaVuSans-31"/>
      </g>
     </g>
    </g>
    <g id="xtick_5">
     <g id="line2d_5">
      <g>
       <use style="stroke:#000000;stroke-width:0.8;" x="586.197183" xlink:href="#mc36a8f68e9" y="228.96"/>
      </g>
     </g>
     <g id="text_5">
      <!-- 2021-02 -->
      <g transform="translate(588.956558 277.742812)rotate(-90)scale(0.1 -0.1)">
       <use xlink:href="#DejaVuSans-32"/>
       <use x="63.623047" xlink:href="#DejaVuSans-30"/>
       <use x="127.246094" xlink:href="#DejaVuSans-32"/>
       <use x="190.869141" xlink:href="#DejaVuSans-31"/>
       <use x="254.492188" xlink:href="#DejaVuSans-2d"/>
       <use x="290.576172" xlink:href="#DejaVuSans-30"/>
       <use x="354.199219" xlink:href="#DejaVuSans-32"/>
      </g>
     </g>
    </g>
    <g id="xtick_6">
     <g id="line2d_6">
      <g>
       <use style="stroke:#000000;stroke-width:0.8;" x="690.444055" xlink:href="#mc36a8f68e9" y="228.96"/>
      </g>
     </g>
     <g id="text_6">
      <!-- 2021-03 -->
      <g transform="translate(693.20343 277.742812)rotate(-90)scale(0.1 -0.1)">
       <defs>
        <path d="M 2597 2516 
Q 3050 2419 3304 2112 
Q 3559 1806 3559 1356 
Q 3559 666 3084 287 
Q 2609 -91 1734 -91 
Q 1441 -91 1130 -33 
Q 819 25 488 141 
L 488 750 
Q 750 597 1062 519 
Q 1375 441 1716 441 
Q 2309 441 2620 675 
Q 2931 909 2931 1356 
Q 2931 1769 2642 2001 
Q 2353 2234 1838 2234 
L 1294 2234 
L 1294 2753 
L 1863 2753 
Q 2328 2753 2575 2939 
Q 2822 3125 2822 3475 
Q 2822 3834 2567 4026 
Q 2313 4219 1838 4219 
Q 1578 4219 1281 4162 
Q 984 4106 628 3988 
L 628 4550 
Q 988 4650 1302 4700 
Q 1616 4750 1894 4750 
Q 2613 4750 3031 4423 
Q 3450 4097 3450 3541 
Q 3450 3153 3228 2886 
Q 3006 2619 2597 2516 
z
" id="DejaVuSans-33" transform="scale(0.015625)"/>
       </defs>
       <use xlink:href="#DejaVuSans-32"/>
       <use x="63.623047" xlink:href="#DejaVuSans-30"/>
       <use x="127.246094" xlink:href="#DejaVuSans-32"/>
       <use x="190.869141" xlink:href="#DejaVuSans-31"/>
       <use x="254.492188" xlink:href="#DejaVuSans-2d"/>
       <use x="290.576172" xlink:href="#DejaVuSans-30"/>
       <use x="354.199219" xlink:href="#DejaVuSans-33"/>
      </g>
     </g>
    </g>
    <g id="xtick_7">
     <g id="line2d_7">
      <g>
       <use style="stroke:#000000;stroke-width:0.8;" x="805.860235" xlink:href="#mc36a8f68e9" y="228.96"/>
      </g>
     </g>
     <g id="text_7">
      <!-- 2021-04 -->
      <g transform="translate(808.61961 277.742812)rotate(-90)scale(0.1 -0.1)">
       <defs>
        <path d="M 2419 4116 
L 825 1625 
L 2419 1625 
L 2419 4116 
z
M 2253 4666 
L 3047 4666 
L 3047 1625 
L 3713 1625 
L 3713 1100 
L 3047 1100 
L 3047 0 
L 2419 0 
L 2419 1100 
L 313 1100 
L 313 1709 
L 2253 4666 
z
" id="DejaVuSans-34" transform="scale(0.015625)"/>
       </defs>
       <use xlink:href="#DejaVuSans-32"/>
       <use x="63.623047" xlink:href="#DejaVuSans-30"/>
       <use x="127.246094" xlink:href="#DejaVuSans-32"/>
       <use x="190.869141" xlink:href="#DejaVuSans-31"/>
       <use x="254.492188" xlink:href="#DejaVuSans-2d"/>
       <use x="290.576172" xlink:href="#DejaVuSans-30"/>
       <use x="354.199219" xlink:href="#DejaVuSans-34"/>
      </g>
     </g>
    </g>
    <g id="xtick_8">
     <g id="line2d_8">
      <g>
       <use style="stroke:#000000;stroke-width:0.8;" x="917.553313" xlink:href="#mc36a8f68e9" y="228.96"/>
      </g>
     </g>
     <g id="text_8">
      <!-- 2021-05 -->
      <g transform="translate(920.312688 277.742812)rotate(-90)scale(0.1 -0.1)">
       <defs>
        <path d="M 691 4666 
L 3169 4666 
L 3169 4134 
L 1269 4134 
L 1269 2991 
Q 1406 3038 1543 3061 
Q 1681 3084 1819 3084 
Q 2600 3084 3056 2656 
Q 3513 2228 3513 1497 
Q 3513 744 3044 326 
Q 2575 -91 1722 -91 
Q 1428 -91 1123 -41 
Q 819 9 494 109 
L 494 744 
Q 775 591 1075 516 
Q 1375 441 1709 441 
Q 2250 441 2565 725 
Q 2881 1009 2881 1497 
Q 2881 1984 2565 2268 
Q 2250 2553 1709 2553 
Q 1456 2553 1204 2497 
Q 953 2441 691 2322 
L 691 4666 
z
" id="DejaVuSans-35" transform="scale(0.015625)"/>
       </defs>
       <use xlink:href="#DejaVuSans-32"/>
       <use x="63.623047" xlink:href="#DejaVuSans-30"/>
       <use x="127.246094" xlink:href="#DejaVuSans-32"/>
       <use x="190.869141" xlink:href="#DejaVuSans-31"/>
       <use x="254.492188" xlink:href="#DejaVuSans-2d"/>
       <use x="290.576172" xlink:href="#DejaVuSans-30"/>
       <use x="354.199219" xlink:href="#DejaVuSans-35"/>
      </g>
     </g>
    </g>
    <g id="xtick_9">
     <g id="line2d_9">
      <g>
       <use style="stroke:#000000;stroke-width:0.8;" x="1032.969493" xlink:href="#mc36a8f68e9" y="228.96"/>
      </g>
     </g>
     <g id="text_9">
      <!-- 2021-06 -->
      <g transform="translate(1035.728868 277.742812)rotate(-90)scale(0.1 -0.1)">
       <defs>
        <path d="M 2113 2584 
Q 1688 2584 1439 2293 
Q 1191 2003 1191 1497 
Q 1191 994 1439 701 
Q 1688 409 2113 409 
Q 2538 409 2786 701 
Q 3034 994 3034 1497 
Q 3034 2003 2786 2293 
Q 2538 2584 2113 2584 
z
M 3366 4563 
L 3366 3988 
Q 3128 4100 2886 4159 
Q 2644 4219 2406 4219 
Q 1781 4219 1451 3797 
Q 1122 3375 1075 2522 
Q 1259 2794 1537 2939 
Q 1816 3084 2150 3084 
Q 2853 3084 3261 2657 
Q 3669 2231 3669 1497 
Q 3669 778 3244 343 
Q 2819 -91 2113 -91 
Q 1303 -91 875 529 
Q 447 1150 447 2328 
Q 447 3434 972 4092 
Q 1497 4750 2381 4750 
Q 2619 4750 2861 4703 
Q 3103 4656 3366 4563 
z
" id="DejaVuSans-36" transform="scale(0.015625)"/>
       </defs>
       <use xlink:href="#DejaVuSans-32"/>
       <use x="63.623047" xlink:href="#DejaVuSans-30"/>
       <use x="127.246094" xlink:href="#DejaVuSans-32"/>
       <use x="190.869141" xlink:href="#DejaVuSans-31"/>
       <use x="254.492188" xlink:href="#DejaVuSans-2d"/>
       <use x="290.576172" xlink:href="#DejaVuSans-30"/>
       <use x="354.199219" xlink:href="#DejaVuSans-36"/>
      </g>
     </g>
    </g>
    <g id="xtick_10">
     <g id="line2d_10">
      <g>
       <use style="stroke:#000000;stroke-width:0.8;" x="1144.66257" xlink:href="#mc36a8f68e9" y="228.96"/>
      </g>
     </g>
     <g id="text_10">
      <!-- 2021-07 -->
      <g transform="translate(1147.421945 277.742812)rotate(-90)scale(0.1 -0.1)">
       <defs>
        <path d="M 525 4666 
L 3525 4666 
L 3525 4397 
L 1831 0 
L 1172 0 
L 2766 4134 
L 525 4134 
L 525 4666 
z
" id="DejaVuSans-37" transform="scale(0.015625)"/>
       </defs>
       <use xlink:href="#DejaVuSans-32"/>
       <use x="63.623047" xlink:href="#DejaVuSans-30"/>
       <use x="127.246094" xlink:href="#DejaVuSans-32"/>
       <use x="190.869141" xlink:href="#DejaVuSans-31"/>
       <use x="254.492188" xlink:href="#DejaVuSans-2d"/>
       <use x="290.576172" xlink:href="#DejaVuSans-30"/>
       <use x="354.199219" xlink:href="#DejaVuSans-37"/>
      </g>
     </g>
    </g>
    <g id="text_11">
     <!-- Date -->
     <g transform="translate(599.377344 289.34125)scale(0.1 -0.1)">
      <defs>
       <path d="M 1259 4147 
L 1259 519 
L 2022 519 
Q 2988 519 3436 956 
Q 3884 1394 3884 2338 
Q 3884 3275 3436 3711 
Q 2988 4147 2022 4147 
L 1259 4147 
z
M 628 4666 
L 1925 4666 
Q 3281 4666 3915 4102 
Q 4550 3538 4550 2338 
Q 4550 1131 3912 565 
Q 3275 0 1925 0 
L 628 0 
L 628 4666 
z
" id="DejaVuSans-44" transform="scale(0.015625)"/>
       <path d="M 2194 1759 
Q 1497 1759 1228 1600 
Q 959 1441 959 1056 
Q 959 750 1161 570 
Q 1363 391 1709 391 
Q 2188 391 2477 730 
Q 2766 1069 2766 1631 
L 2766 1759 
L 2194 1759 
z
M 3341 1997 
L 3341 0 
L 2766 0 
L 2766 531 
Q 2569 213 2275 61 
Q 1981 -91 1556 -91 
Q 1019 -91 701 211 
Q 384 513 384 1019 
Q 384 1609 779 1909 
Q 1175 2209 1959 2209 
L 2766 2209 
L 2766 2266 
Q 2766 2663 2505 2880 
Q 2244 3097 1772 3097 
Q 1472 3097 1187 3025 
Q 903 2953 641 2809 
L 641 3341 
Q 956 3463 1253 3523 
Q 1550 3584 1831 3584 
Q 2591 3584 2966 3190 
Q 3341 2797 3341 1997 
z
" id="DejaVuSans-61" transform="scale(0.015625)"/>
       <path d="M 1172 4494 
L 1172 3500 
L 2356 3500 
L 2356 3053 
L 1172 3053 
L 1172 1153 
Q 1172 725 1289 603 
Q 1406 481 1766 481 
L 2356 481 
L 2356 0 
L 1766 0 
Q 1100 0 847 248 
Q 594 497 594 1153 
L 594 3053 
L 172 3053 
L 172 3500 
L 594 3500 
L 594 4494 
L 1172 4494 
z
" id="DejaVuSans-74" transform="scale(0.015625)"/>
       <path d="M 3597 1894 
L 3597 1613 
L 953 1613 
Q 991 1019 1311 708 
Q 1631 397 2203 397 
Q 2534 397 2845 478 
Q 3156 559 3463 722 
L 3463 178 
Q 3153 47 2828 -22 
Q 2503 -91 2169 -91 
Q 1331 -91 842 396 
Q 353 884 353 1716 
Q 353 2575 817 3079 
Q 1281 3584 2069 3584 
Q 2775 3584 3186 3129 
Q 3597 2675 3597 1894 
z
M 3022 2063 
Q 3016 2534 2758 2815 
Q 2500 3097 2075 3097 
Q 1594 3097 1305 2825 
Q 1016 2553 972 2059 
L 3022 2063 
z
" id="DejaVuSans-65" transform="scale(0.015625)"/>
      </defs>
      <use xlink:href="#DejaVuSans-44"/>
      <use x="77.001953" xlink:href="#DejaVuSans-61"/>
      <use x="138.28125" xlink:href="#DejaVuSans-74"/>
      <use x="177.490234" xlink:href="#DejaVuSans-65"/>
     </g>
    </g>
   </g>
   <g id="matplotlib.axis_2">
    <g id="ytick_1">
     <g id="line2d_11">
      <defs>
       <path d="M 0 0 
L -3.5 0 
" id="m6384900121" style="stroke:#000000;stroke-width:0.8;"/>
      </defs>
      <g>
       <use style="stroke:#000000;stroke-width:0.8;" x="53.328125" xlink:href="#m6384900121" y="228.96"/>
      </g>
     </g>
     <g id="text_12">
      <!-- 0 -->
      <g transform="translate(39.965625 232.759219)scale(0.1 -0.1)">
       <use xlink:href="#DejaVuSans-30"/>
      </g>
     </g>
    </g>
    <g id="ytick_2">
     <g id="line2d_12">
      <g>
       <use style="stroke:#000000;stroke-width:0.8;" x="53.328125" xlink:href="#m6384900121" y="200.956818"/>
      </g>
     </g>
     <g id="text_13">
      <!-- 500 -->
      <g transform="translate(27.240625 204.756037)scale(0.1 -0.1)">
       <use xlink:href="#DejaVuSans-35"/>
       <use x="63.623047" xlink:href="#DejaVuSans-30"/>
       <use x="127.246094" xlink:href="#DejaVuSans-30"/>
      </g>
     </g>
    </g>
    <g id="ytick_3">
     <g id="line2d_13">
      <g>
       <use style="stroke:#000000;stroke-width:0.8;" x="53.328125" xlink:href="#m6384900121" y="172.953636"/>
      </g>
     </g>
     <g id="text_14">
      <!-- 1000 -->
      <g transform="translate(20.878125 176.752854)scale(0.1 -0.1)">
       <use xlink:href="#DejaVuSans-31"/>
       <use x="63.623047" xlink:href="#DejaVuSans-30"/>
       <use x="127.246094" xlink:href="#DejaVuSans-30"/>
       <use x="190.869141" xlink:href="#DejaVuSans-30"/>
      </g>
     </g>
    </g>
    <g id="ytick_4">
     <g id="line2d_14">
      <g>
       <use style="stroke:#000000;stroke-width:0.8;" x="53.328125" xlink:href="#m6384900121" y="144.950453"/>
      </g>
     </g>
     <g id="text_15">
      <!-- 1500 -->
      <g transform="translate(20.878125 148.749672)scale(0.1 -0.1)">
       <use xlink:href="#DejaVuSans-31"/>
       <use x="63.623047" xlink:href="#DejaVuSans-35"/>
       <use x="127.246094" xlink:href="#DejaVuSans-30"/>
       <use x="190.869141" xlink:href="#DejaVuSans-30"/>
      </g>
     </g>
    </g>
    <g id="ytick_5">
     <g id="line2d_15">
      <g>
       <use style="stroke:#000000;stroke-width:0.8;" x="53.328125" xlink:href="#m6384900121" y="116.947271"/>
      </g>
     </g>
     <g id="text_16">
      <!-- 2000 -->
      <g transform="translate(20.878125 120.74649)scale(0.1 -0.1)">
       <use xlink:href="#DejaVuSans-32"/>
       <use x="63.623047" xlink:href="#DejaVuSans-30"/>
       <use x="127.246094" xlink:href="#DejaVuSans-30"/>
       <use x="190.869141" xlink:href="#DejaVuSans-30"/>
      </g>
     </g>
    </g>
    <g id="ytick_6">
     <g id="line2d_16">
      <g>
       <use style="stroke:#000000;stroke-width:0.8;" x="53.328125" xlink:href="#m6384900121" y="88.944089"/>
      </g>
     </g>
     <g id="text_17">
      <!-- 2500 -->
      <g transform="translate(20.878125 92.743308)scale(0.1 -0.1)">
       <use xlink:href="#DejaVuSans-32"/>
       <use x="63.623047" xlink:href="#DejaVuSans-35"/>
       <use x="127.246094" xlink:href="#DejaVuSans-30"/>
       <use x="190.869141" xlink:href="#DejaVuSans-30"/>
      </g>
     </g>
    </g>
    <g id="ytick_7">
     <g id="line2d_17">
      <g>
       <use style="stroke:#000000;stroke-width:0.8;" x="53.328125" xlink:href="#m6384900121" y="60.940907"/>
      </g>
     </g>
     <g id="text_18">
      <!-- 3000 -->
      <g transform="translate(20.878125 64.740126)scale(0.1 -0.1)">
       <use xlink:href="#DejaVuSans-33"/>
       <use x="63.623047" xlink:href="#DejaVuSans-30"/>
       <use x="127.246094" xlink:href="#DejaVuSans-30"/>
       <use x="190.869141" xlink:href="#DejaVuSans-30"/>
      </g>
     </g>
    </g>
    <g id="ytick_8">
     <g id="line2d_18">
      <g>
       <use style="stroke:#000000;stroke-width:0.8;" x="53.328125" xlink:href="#m6384900121" y="32.937725"/>
      </g>
     </g>
     <g id="text_19">
      <!-- 3500 -->
      <g transform="translate(20.878125 36.736943)scale(0.1 -0.1)">
       <use xlink:href="#DejaVuSans-33"/>
       <use x="63.623047" xlink:href="#DejaVuSans-35"/>
       <use x="127.246094" xlink:href="#DejaVuSans-30"/>
       <use x="190.869141" xlink:href="#DejaVuSans-30"/>
      </g>
     </g>
    </g>
    <g id="text_20">
     <!-- Sequence count -->
     <g transform="translate(14.798437 158.440156)rotate(-90)scale(0.1 -0.1)">
      <defs>
       <path d="M 3425 4513 
L 3425 3897 
Q 3066 4069 2747 4153 
Q 2428 4238 2131 4238 
Q 1616 4238 1336 4038 
Q 1056 3838 1056 3469 
Q 1056 3159 1242 3001 
Q 1428 2844 1947 2747 
L 2328 2669 
Q 3034 2534 3370 2195 
Q 3706 1856 3706 1288 
Q 3706 609 3251 259 
Q 2797 -91 1919 -91 
Q 1588 -91 1214 -16 
Q 841 59 441 206 
L 441 856 
Q 825 641 1194 531 
Q 1563 422 1919 422 
Q 2459 422 2753 634 
Q 3047 847 3047 1241 
Q 3047 1584 2836 1778 
Q 2625 1972 2144 2069 
L 1759 2144 
Q 1053 2284 737 2584 
Q 422 2884 422 3419 
Q 422 4038 858 4394 
Q 1294 4750 2059 4750 
Q 2388 4750 2728 4690 
Q 3069 4631 3425 4513 
z
" id="DejaVuSans-53" transform="scale(0.015625)"/>
       <path d="M 947 1747 
Q 947 1113 1208 752 
Q 1469 391 1925 391 
Q 2381 391 2643 752 
Q 2906 1113 2906 1747 
Q 2906 2381 2643 2742 
Q 2381 3103 1925 3103 
Q 1469 3103 1208 2742 
Q 947 2381 947 1747 
z
M 2906 525 
Q 2725 213 2448 61 
Q 2172 -91 1784 -91 
Q 1150 -91 751 415 
Q 353 922 353 1747 
Q 353 2572 751 3078 
Q 1150 3584 1784 3584 
Q 2172 3584 2448 3432 
Q 2725 3281 2906 2969 
L 2906 3500 
L 3481 3500 
L 3481 -1331 
L 2906 -1331 
L 2906 525 
z
" id="DejaVuSans-71" transform="scale(0.015625)"/>
       <path d="M 544 1381 
L 544 3500 
L 1119 3500 
L 1119 1403 
Q 1119 906 1312 657 
Q 1506 409 1894 409 
Q 2359 409 2629 706 
Q 2900 1003 2900 1516 
L 2900 3500 
L 3475 3500 
L 3475 0 
L 2900 0 
L 2900 538 
Q 2691 219 2414 64 
Q 2138 -91 1772 -91 
Q 1169 -91 856 284 
Q 544 659 544 1381 
z
M 1991 3584 
L 1991 3584 
z
" id="DejaVuSans-75" transform="scale(0.015625)"/>
       <path d="M 3513 2113 
L 3513 0 
L 2938 0 
L 2938 2094 
Q 2938 2591 2744 2837 
Q 2550 3084 2163 3084 
Q 1697 3084 1428 2787 
Q 1159 2491 1159 1978 
L 1159 0 
L 581 0 
L 581 3500 
L 1159 3500 
L 1159 2956 
Q 1366 3272 1645 3428 
Q 1925 3584 2291 3584 
Q 2894 3584 3203 3211 
Q 3513 2838 3513 2113 
z
" id="DejaVuSans-6e" transform="scale(0.015625)"/>
       <path d="M 3122 3366 
L 3122 2828 
Q 2878 2963 2633 3030 
Q 2388 3097 2138 3097 
Q 1578 3097 1268 2742 
Q 959 2388 959 1747 
Q 959 1106 1268 751 
Q 1578 397 2138 397 
Q 2388 397 2633 464 
Q 2878 531 3122 666 
L 3122 134 
Q 2881 22 2623 -34 
Q 2366 -91 2075 -91 
Q 1284 -91 818 406 
Q 353 903 353 1747 
Q 353 2603 823 3093 
Q 1294 3584 2113 3584 
Q 2378 3584 2631 3529 
Q 2884 3475 3122 3366 
z
" id="DejaVuSans-63" transform="scale(0.015625)"/>
       <path id="DejaVuSans-20" transform="scale(0.015625)"/>
       <path d="M 1959 3097 
Q 1497 3097 1228 2736 
Q 959 2375 959 1747 
Q 959 1119 1226 758 
Q 1494 397 1959 397 
Q 2419 397 2687 759 
Q 2956 1122 2956 1747 
Q 2956 2369 2687 2733 
Q 2419 3097 1959 3097 
z
M 1959 3584 
Q 2709 3584 3137 3096 
Q 3566 2609 3566 1747 
Q 3566 888 3137 398 
Q 2709 -91 1959 -91 
Q 1206 -91 779 398 
Q 353 888 353 1747 
Q 353 2609 779 3096 
Q 1206 3584 1959 3584 
z
" id="DejaVuSans-6f" transform="scale(0.015625)"/>
      </defs>
      <use xlink:href="#DejaVuSans-53"/>
      <use x="63.476562" xlink:href="#DejaVuSans-65"/>
      <use x="125" xlink:href="#DejaVuSans-71"/>
      <use x="188.476562" xlink:href="#DejaVuSans-75"/>
      <use x="251.855469" xlink:href="#DejaVuSans-65"/>
      <use x="313.378906" xlink:href="#DejaVuSans-6e"/>
      <use x="376.757812" xlink:href="#DejaVuSans-63"/>
      <use x="431.738281" xlink:href="#DejaVuSans-65"/>
      <use x="493.261719" xlink:href="#DejaVuSans-20"/>
      <use x="525.048828" xlink:href="#DejaVuSans-63"/>
      <use x="580.029297" xlink:href="#DejaVuSans-6f"/>
      <use x="641.210938" xlink:href="#DejaVuSans-75"/>
      <use x="704.589844" xlink:href="#DejaVuSans-6e"/>
      <use x="767.96875" xlink:href="#DejaVuSans-74"/>
     </g>
    </g>
   </g>
   <g id="patch_38">
    <path d="M 53.328125 228.96 
L 53.328125 7.2 
" style="fill:none;stroke:#000000;stroke-linecap:square;stroke-linejoin:miter;stroke-width:0.8;"/>
   </g>
   <g id="patch_39">
    <path d="M 1169.328125 228.96 
L 1169.328125 7.2 
" style="fill:none;stroke:#000000;stroke-linecap:square;stroke-linejoin:miter;stroke-width:0.8;"/>
   </g>
   <g id="patch_40">
    <path d="M 53.328125 228.96 
L 1169.328125 228.96 
" style="fill:none;stroke:#000000;stroke-linecap:square;stroke-linejoin:miter;stroke-width:0.8;"/>
   </g>
  </g>
  <g id="axes_2">
   <g id="matplotlib.axis_3">
    <g id="ytick_9">
     <g id="line2d_19">
      <defs>
       <path d="M 0 0 
L 3.5 0 
" id="m087f4fe4dc" style="stroke:#000000;stroke-width:0.8;"/>
      </defs>
      <g>
       <use style="stroke:#000000;stroke-width:0.8;" x="1169.328125" xlink:href="#m087f4fe4dc" y="218.885308"/>
      </g>
     </g>
     <g id="text_21">
      <!-- 0 -->
      <g transform="translate(1176.328125 222.684526)scale(0.1 -0.1)">
       <use xlink:href="#DejaVuSans-30"/>
      </g>
     </g>
    </g>
    <g id="ytick_10">
     <g id="line2d_20">
      <g>
       <use style="stroke:#000000;stroke-width:0.8;" x="1169.328125" xlink:href="#m087f4fe4dc" y="192.34712"/>
      </g>
     </g>
     <g id="text_22">
      <!-- 5000 -->
      <g transform="translate(1176.328125 196.146338)scale(0.1 -0.1)">
       <use xlink:href="#DejaVuSans-35"/>
       <use x="63.623047" xlink:href="#DejaVuSans-30"/>
       <use x="127.246094" xlink:href="#DejaVuSans-30"/>
       <use x="190.869141" xlink:href="#DejaVuSans-30"/>
      </g>
     </g>
    </g>
    <g id="ytick_11">
     <g id="line2d_21">
      <g>
       <use style="stroke:#000000;stroke-width:0.8;" x="1169.328125" xlink:href="#m087f4fe4dc" y="165.808931"/>
      </g>
     </g>
     <g id="text_23">
      <!-- 10000 -->
      <g transform="translate(1176.328125 169.60815)scale(0.1 -0.1)">
       <use xlink:href="#DejaVuSans-31"/>
       <use x="63.623047" xlink:href="#DejaVuSans-30"/>
       <use x="127.246094" xlink:href="#DejaVuSans-30"/>
       <use x="190.869141" xlink:href="#DejaVuSans-30"/>
       <use x="254.492188" xlink:href="#DejaVuSans-30"/>
      </g>
     </g>
    </g>
    <g id="ytick_12">
     <g id="line2d_22">
      <g>
       <use style="stroke:#000000;stroke-width:0.8;" x="1169.328125" xlink:href="#m087f4fe4dc" y="139.270743"/>
      </g>
     </g>
     <g id="text_24">
      <!-- 15000 -->
      <g transform="translate(1176.328125 143.069962)scale(0.1 -0.1)">
       <use xlink:href="#DejaVuSans-31"/>
       <use x="63.623047" xlink:href="#DejaVuSans-35"/>
       <use x="127.246094" xlink:href="#DejaVuSans-30"/>
       <use x="190.869141" xlink:href="#DejaVuSans-30"/>
       <use x="254.492188" xlink:href="#DejaVuSans-30"/>
      </g>
     </g>
    </g>
    <g id="ytick_13">
     <g id="line2d_23">
      <g>
       <use style="stroke:#000000;stroke-width:0.8;" x="1169.328125" xlink:href="#m087f4fe4dc" y="112.732555"/>
      </g>
     </g>
     <g id="text_25">
      <!-- 20000 -->
      <g transform="translate(1176.328125 116.531774)scale(0.1 -0.1)">
       <use xlink:href="#DejaVuSans-32"/>
       <use x="63.623047" xlink:href="#DejaVuSans-30"/>
       <use x="127.246094" xlink:href="#DejaVuSans-30"/>
       <use x="190.869141" xlink:href="#DejaVuSans-30"/>
       <use x="254.492188" xlink:href="#DejaVuSans-30"/>
      </g>
     </g>
    </g>
    <g id="ytick_14">
     <g id="line2d_24">
      <g>
       <use style="stroke:#000000;stroke-width:0.8;" x="1169.328125" xlink:href="#m087f4fe4dc" y="86.194367"/>
      </g>
     </g>
     <g id="text_26">
      <!-- 25000 -->
      <g transform="translate(1176.328125 89.993586)scale(0.1 -0.1)">
       <use xlink:href="#DejaVuSans-32"/>
       <use x="63.623047" xlink:href="#DejaVuSans-35"/>
       <use x="127.246094" xlink:href="#DejaVuSans-30"/>
       <use x="190.869141" xlink:href="#DejaVuSans-30"/>
       <use x="254.492188" xlink:href="#DejaVuSans-30"/>
      </g>
     </g>
    </g>
    <g id="ytick_15">
     <g id="line2d_25">
      <g>
       <use style="stroke:#000000;stroke-width:0.8;" x="1169.328125" xlink:href="#m087f4fe4dc" y="59.656179"/>
      </g>
     </g>
     <g id="text_27">
      <!-- 30000 -->
      <g transform="translate(1176.328125 63.455398)scale(0.1 -0.1)">
       <use xlink:href="#DejaVuSans-33"/>
       <use x="63.623047" xlink:href="#DejaVuSans-30"/>
       <use x="127.246094" xlink:href="#DejaVuSans-30"/>
       <use x="190.869141" xlink:href="#DejaVuSans-30"/>
       <use x="254.492188" xlink:href="#DejaVuSans-30"/>
      </g>
     </g>
    </g>
    <g id="ytick_16">
     <g id="line2d_26">
      <g>
       <use style="stroke:#000000;stroke-width:0.8;" x="1169.328125" xlink:href="#m087f4fe4dc" y="33.117991"/>
      </g>
     </g>
     <g id="text_28">
      <!-- 35000 -->
      <g transform="translate(1176.328125 36.917209)scale(0.1 -0.1)">
       <use xlink:href="#DejaVuSans-33"/>
       <use x="63.623047" xlink:href="#DejaVuSans-35"/>
       <use x="127.246094" xlink:href="#DejaVuSans-30"/>
       <use x="190.869141" xlink:href="#DejaVuSans-30"/>
       <use x="254.492188" xlink:href="#DejaVuSans-30"/>
      </g>
     </g>
    </g>
    <g id="text_29">
     <!-- Total -->
     <g transform="translate(1219.739063 129.756562)rotate(-90)scale(0.1 -0.1)">
      <defs>
       <path d="M -19 4666 
L 3928 4666 
L 3928 4134 
L 2272 4134 
L 2272 0 
L 1638 0 
L 1638 4134 
L -19 4134 
L -19 4666 
z
" id="DejaVuSans-54" transform="scale(0.015625)"/>
       <path d="M 603 4863 
L 1178 4863 
L 1178 0 
L 603 0 
L 603 4863 
z
" id="DejaVuSans-6c" transform="scale(0.015625)"/>
      </defs>
      <use xlink:href="#DejaVuSans-54"/>
      <use x="44.083984" xlink:href="#DejaVuSans-6f"/>
      <use x="105.265625" xlink:href="#DejaVuSans-74"/>
      <use x="144.474609" xlink:href="#DejaVuSans-61"/>
      <use x="205.753906" xlink:href="#DejaVuSans-6c"/>
     </g>
    </g>
   </g>
   <g id="line2d_27">
    <path clip-path="url(#p4138129575)" d="M 128.255565 218.88 
L 414.934464 218.747309 
L 478.227208 218.29616 
L 493.119618 218.02547 
L 534.073746 217.409784 
L 537.796849 217.170941 
L 556.412362 216.815329 
L 575.027875 216.199643 
L 593.643388 215.695417 
L 608.535798 215.244268 
L 627.151311 214.113741 
L 634.597516 213.927974 
L 638.320619 213.48744 
L 645.766824 213.089367 
L 653.213029 212.436528 
L 660.659234 212.086224 
L 671.828542 210.642546 
L 675.551645 210.29755 
L 682.99785 209.395252 
L 686.720952 209.188254 
L 690.444055 208.832642 
L 694.167158 208.025881 
L 701.613363 207.059891 
L 705.336465 206.534435 
L 712.78267 206.040825 
L 723.951978 203.700156 
L 731.398183 202.219325 
L 735.121286 201.656716 
L 738.844389 201.210874 
L 750.013696 198.275751 
L 753.736799 197.527374 
L 761.183004 195.521087 
L 764.906107 193.541338 
L 768.629209 190.770751 
L 772.352312 188.960847 
L 776.075414 186.657332 
L 783.52162 182.421837 
L 790.967825 179.63002 
L 794.690927 177.257506 
L 805.860235 170.936109 
L 809.583338 169.078436 
L 813.30644 167.634759 
L 817.029543 166.063698 
L 820.752645 162.454504 
L 824.475748 159.890915 
L 831.921953 153.606672 
L 835.645056 150.687472 
L 839.368158 148.713031 
L 843.091261 147.019894 
L 846.814364 143.554007 
L 850.537466 140.746266 
L 854.260569 137.179534 
L 857.983671 133.851645 
L 861.706774 130.831599 
L 869.152979 126.532413 
L 872.876082 122.29161 
L 876.599184 118.947799 
L 884.045389 113.12532 
L 887.768492 110.567039 
L 891.491595 108.974748 
L 895.214697 107.063998 
L 898.9378 102.780735 
L 902.660902 99.352001 
L 910.107107 94.203592 
L 913.83021 91.454236 
L 917.553313 89.649639 
L 921.276415 87.998964 
L 924.999518 84.161542 
L 928.72262 81.061881 
L 932.445723 77.452688 
L 939.891928 72.973042 
L 947.338133 70.48376 
L 951.061236 66.609184 
L 954.784339 64.14644 
L 958.507441 61.275008 
L 962.230544 58.806957 
L 965.953646 57.198743 
L 969.676749 56.105369 
L 973.399851 54.513078 
L 977.122954 50.235122 
L 980.846057 47.379613 
L 984.569159 44.969946 
L 992.015364 40.909603 
L 999.46157 39.248312 
L 1003.184672 36.37688 
L 1006.907775 33.776138 
L 1010.630877 31.844158 
L 1014.35398 29.699872 
L 1018.077082 28.298656 
L 1025.523288 27.184052 
L 1029.24639 26.255215 
L 1032.969493 24.832768 
L 1036.692595 23.569551 
L 1040.415698 22.513331 
L 1044.138801 21.589802 
L 1051.585006 20.65035 
L 1055.308108 19.753359 
L 1059.031211 19.132366 
L 1070.200519 18.208837 
L 1085.092929 17.555997 
L 1099.985339 17.364922 
L 1118.600852 17.28 
L 1118.600852 17.28 
" style="fill:none;stroke:#696969;stroke-linecap:square;stroke-width:3;"/>
   </g>
   <g id="patch_41">
    <path d="M 53.328125 228.96 
L 53.328125 7.2 
" style="fill:none;stroke:#000000;stroke-linecap:square;stroke-linejoin:miter;stroke-width:0.8;"/>
   </g>
   <g id="patch_42">
    <path d="M 1169.328125 228.96 
L 1169.328125 7.2 
" style="fill:none;stroke:#000000;stroke-linecap:square;stroke-linejoin:miter;stroke-width:0.8;"/>
   </g>
   <g id="patch_43">
    <path d="M 53.328125 228.96 
L 1169.328125 228.96 
" style="fill:none;stroke:#000000;stroke-linecap:square;stroke-linejoin:miter;stroke-width:0.8;"/>
   </g>
  </g>
 </g>
 <defs>
  <clipPath id="p4138129575">
   <rect height="221.76" width="1116" x="53.328125" y="7.2"/>
  </clipPath>
 </defs>
</svg>
