<?xml version="1.0" encoding="utf-8" standalone="no"?>
<!DOCTYPE svg PUBLIC "-//W3C//DTD SVG 1.1//EN"
  "http://www.w3.org/Graphics/SVG/1.1/DTD/svg11.dtd">
<svg height="300.986198pt" version="1.1" viewBox="0 0 1002.765625 300.986198" width="1002.765625pt" xmlns="http://www.w3.org/2000/svg" xmlns:xlink="http://www.w3.org/1999/xlink">
 <metadata>
  <rdf:RDF xmlns:cc="http://creativecommons.org/ns#" xmlns:dc="http://purl.org/dc/elements/1.1/" xmlns:rdf="http://www.w3.org/1999/02/22-rdf-syntax-ns#">
   <cc:Work>
    <dc:type rdf:resource="http://purl.org/dc/dcmitype/StillImage"/>
    <dc:date>2021-05-19T10:12:01.155142</dc:date>
    <dc:format>image/svg+xml</dc:format>
    <dc:creator>
     <cc:Agent>
      <dc:title>Matplotlib v3.4.1, https://matplotlib.org/</dc:title>
     </cc:Agent>
    </dc:creator>
   </cc:Work>
  </rdf:RDF>
 </metadata>
 <defs>
  <style type="text/css">*{stroke-linecap:butt;stroke-linejoin:round;}</style>
 </defs>
 <g id="figure_1">
  <g id="patch_1">
   <path d="M 0 300.986198 
L 1002.765625 300.986198 
L 1002.765625 0 
L 0 0 
z
" style="fill:#ffffff;"/>
  </g>
  <g id="axes_1">
   <g id="patch_2">
    <path d="M 46.965625 231.325261 
L 995.565625 231.325261 
L 995.565625 9.565261 
L 46.965625 9.565261 
z
" style="fill:#ffffff;"/>
   </g>
   <g id="matplotlib.axis_1">
    <g id="xtick_1">
     <g id="line2d_1">
      <defs>
       <path d="M 0 0 
L 0 3.5 
" id="m6133d28630" style="stroke:#000000;stroke-width:0.8;"/>
      </defs>
      <g>
       <use style="stroke:#000000;stroke-width:0.8;" x="52.38485" xlink:href="#m6133d28630" y="231.325261"/>
      </g>
     </g>
     <g id="text_1">
      <!-- 2020-11 -->
      <g transform="translate(55.144225 280.108073)rotate(-90)scale(0.1 -0.1)">
       <defs>
        <path d="M 1228 531 
L 3431 531 
L 3431 0 
L 469 0 
L 469 531 
Q 828 903 1448 1529 
Q 2069 2156 2228 2338 
Q 2531 2678 2651 2914 
Q 2772 3150 2772 3378 
Q 2772 3750 2511 3984 
Q 2250 4219 1831 4219 
Q 1534 4219 1204 4116 
Q 875 4013 500 3803 
L 500 4441 
Q 881 4594 1212 4672 
Q 1544 4750 1819 4750 
Q 2544 4750 2975 4387 
Q 3406 4025 3406 3419 
Q 3406 3131 3298 2873 
Q 3191 2616 2906 2266 
Q 2828 2175 2409 1742 
Q 1991 1309 1228 531 
z
" id="DejaVuSans-32" transform="scale(0.015625)"/>
        <path d="M 2034 4250 
Q 1547 4250 1301 3770 
Q 1056 3291 1056 2328 
Q 1056 1369 1301 889 
Q 1547 409 2034 409 
Q 2525 409 2770 889 
Q 3016 1369 3016 2328 
Q 3016 3291 2770 3770 
Q 2525 4250 2034 4250 
z
M 2034 4750 
Q 2819 4750 3233 4129 
Q 3647 3509 3647 2328 
Q 3647 1150 3233 529 
Q 2819 -91 2034 -91 
Q 1250 -91 836 529 
Q 422 1150 422 2328 
Q 422 3509 836 4129 
Q 1250 4750 2034 4750 
z
" id="DejaVuSans-30" transform="scale(0.015625)"/>
        <path d="M 313 2009 
L 1997 2009 
L 1997 1497 
L 313 1497 
L 313 2009 
z
" id="DejaVuSans-2d" transform="scale(0.015625)"/>
        <path d="M 794 531 
L 1825 531 
L 1825 4091 
L 703 3866 
L 703 4441 
L 1819 4666 
L 2450 4666 
L 2450 531 
L 3481 531 
L 3481 0 
L 794 0 
L 794 531 
z
" id="DejaVuSans-31" transform="scale(0.015625)"/>
       </defs>
       <use xlink:href="#DejaVuSans-32"/>
       <use x="63.623047" xlink:href="#DejaVuSans-30"/>
       <use x="127.246094" xlink:href="#DejaVuSans-32"/>
       <use x="190.869141" xlink:href="#DejaVuSans-30"/>
       <use x="254.492188" xlink:href="#DejaVuSans-2d"/>
       <use x="290.576172" xlink:href="#DejaVuSans-31"/>
       <use x="354.199219" xlink:href="#DejaVuSans-31"/>
      </g>
     </g>
    </g>
    <g id="xtick_2">
     <g id="line2d_2">
      <g>
       <use style="stroke:#000000;stroke-width:0.8;" x="193.755938" xlink:href="#m6133d28630" y="231.325261"/>
      </g>
     </g>
     <g id="text_2">
      <!-- 2020-12 -->
      <g transform="translate(196.515313 280.108073)rotate(-90)scale(0.1 -0.1)">
       <use xlink:href="#DejaVuSans-32"/>
       <use x="63.623047" xlink:href="#DejaVuSans-30"/>
       <use x="127.246094" xlink:href="#DejaVuSans-32"/>
       <use x="190.869141" xlink:href="#DejaVuSans-30"/>
       <use x="254.492188" xlink:href="#DejaVuSans-2d"/>
       <use x="290.576172" xlink:href="#DejaVuSans-31"/>
       <use x="354.199219" xlink:href="#DejaVuSans-32"/>
      </g>
     </g>
    </g>
    <g id="xtick_3">
     <g id="line2d_3">
      <g>
       <use style="stroke:#000000;stroke-width:0.8;" x="339.839395" xlink:href="#m6133d28630" y="231.325261"/>
      </g>
     </g>
     <g id="text_3">
      <!-- 2021-01 -->
      <g transform="translate(342.59877 280.108073)rotate(-90)scale(0.1 -0.1)">
       <use xlink:href="#DejaVuSans-32"/>
       <use x="63.623047" xlink:href="#DejaVuSans-30"/>
       <use x="127.246094" xlink:href="#DejaVuSans-32"/>
       <use x="190.869141" xlink:href="#DejaVuSans-31"/>
       <use x="254.492188" xlink:href="#DejaVuSans-2d"/>
       <use x="290.576172" xlink:href="#DejaVuSans-30"/>
       <use x="354.199219" xlink:href="#DejaVuSans-31"/>
      </g>
     </g>
    </g>
    <g id="xtick_4">
     <g id="line2d_4">
      <g>
       <use style="stroke:#000000;stroke-width:0.8;" x="485.922853" xlink:href="#m6133d28630" y="231.325261"/>
      </g>
     </g>
     <g id="text_4">
      <!-- 2021-02 -->
      <g transform="translate(488.682228 280.108073)rotate(-90)scale(0.1 -0.1)">
       <use xlink:href="#DejaVuSans-32"/>
       <use x="63.623047" xlink:href="#DejaVuSans-30"/>
       <use x="127.246094" xlink:href="#DejaVuSans-32"/>
       <use x="190.869141" xlink:href="#DejaVuSans-31"/>
       <use x="254.492188" xlink:href="#DejaVuSans-2d"/>
       <use x="290.576172" xlink:href="#DejaVuSans-30"/>
       <use x="354.199219" xlink:href="#DejaVuSans-32"/>
      </g>
     </g>
    </g>
    <g id="xtick_5">
     <g id="line2d_5">
      <g>
       <use style="stroke:#000000;stroke-width:0.8;" x="617.869202" xlink:href="#m6133d28630" y="231.325261"/>
      </g>
     </g>
     <g id="text_5">
      <!-- 2021-03 -->
      <g transform="translate(620.628577 280.108073)rotate(-90)scale(0.1 -0.1)">
       <defs>
        <path d="M 2597 2516 
Q 3050 2419 3304 2112 
Q 3559 1806 3559 1356 
Q 3559 666 3084 287 
Q 2609 -91 1734 -91 
Q 1441 -91 1130 -33 
Q 819 25 488 141 
L 488 750 
Q 750 597 1062 519 
Q 1375 441 1716 441 
Q 2309 441 2620 675 
Q 2931 909 2931 1356 
Q 2931 1769 2642 2001 
Q 2353 2234 1838 2234 
L 1294 2234 
L 1294 2753 
L 1863 2753 
Q 2328 2753 2575 2939 
Q 2822 3125 2822 3475 
Q 2822 3834 2567 4026 
Q 2313 4219 1838 4219 
Q 1578 4219 1281 4162 
Q 984 4106 628 3988 
L 628 4550 
Q 988 4650 1302 4700 
Q 1616 4750 1894 4750 
Q 2613 4750 3031 4423 
Q 3450 4097 3450 3541 
Q 3450 3153 3228 2886 
Q 3006 2619 2597 2516 
z
" id="DejaVuSans-33" transform="scale(0.015625)"/>
       </defs>
       <use xlink:href="#DejaVuSans-32"/>
       <use x="63.623047" xlink:href="#DejaVuSans-30"/>
       <use x="127.246094" xlink:href="#DejaVuSans-32"/>
       <use x="190.869141" xlink:href="#DejaVuSans-31"/>
       <use x="254.492188" xlink:href="#DejaVuSans-2d"/>
       <use x="290.576172" xlink:href="#DejaVuSans-30"/>
       <use x="354.199219" xlink:href="#DejaVuSans-33"/>
      </g>
     </g>
    </g>
    <g id="xtick_6">
     <g id="line2d_6">
      <g>
       <use style="stroke:#000000;stroke-width:0.8;" x="763.952659" xlink:href="#m6133d28630" y="231.325261"/>
      </g>
     </g>
     <g id="text_6">
      <!-- 2021-04 -->
      <g transform="translate(766.712034 280.108073)rotate(-90)scale(0.1 -0.1)">
       <defs>
        <path d="M 2419 4116 
L 825 1625 
L 2419 1625 
L 2419 4116 
z
M 2253 4666 
L 3047 4666 
L 3047 1625 
L 3713 1625 
L 3713 1100 
L 3047 1100 
L 3047 0 
L 2419 0 
L 2419 1100 
L 313 1100 
L 313 1709 
L 2253 4666 
z
" id="DejaVuSans-34" transform="scale(0.015625)"/>
       </defs>
       <use xlink:href="#DejaVuSans-32"/>
       <use x="63.623047" xlink:href="#DejaVuSans-30"/>
       <use x="127.246094" xlink:href="#DejaVuSans-32"/>
       <use x="190.869141" xlink:href="#DejaVuSans-31"/>
       <use x="254.492188" xlink:href="#DejaVuSans-2d"/>
       <use x="290.576172" xlink:href="#DejaVuSans-30"/>
       <use x="354.199219" xlink:href="#DejaVuSans-34"/>
      </g>
     </g>
    </g>
    <g id="xtick_7">
     <g id="line2d_7">
      <g>
       <use style="stroke:#000000;stroke-width:0.8;" x="905.323747" xlink:href="#m6133d28630" y="231.325261"/>
      </g>
     </g>
     <g id="text_7">
      <!-- 2021-05 -->
      <g transform="translate(908.083122 280.108073)rotate(-90)scale(0.1 -0.1)">
       <defs>
        <path d="M 691 4666 
L 3169 4666 
L 3169 4134 
L 1269 4134 
L 1269 2991 
Q 1406 3038 1543 3061 
Q 1681 3084 1819 3084 
Q 2600 3084 3056 2656 
Q 3513 2228 3513 1497 
Q 3513 744 3044 326 
Q 2575 -91 1722 -91 
Q 1428 -91 1123 -41 
Q 819 9 494 109 
L 494 744 
Q 775 591 1075 516 
Q 1375 441 1709 441 
Q 2250 441 2565 725 
Q 2881 1009 2881 1497 
Q 2881 1984 2565 2268 
Q 2250 2553 1709 2553 
Q 1456 2553 1204 2497 
Q 953 2441 691 2322 
L 691 4666 
z
" id="DejaVuSans-35" transform="scale(0.015625)"/>
       </defs>
       <use xlink:href="#DejaVuSans-32"/>
       <use x="63.623047" xlink:href="#DejaVuSans-30"/>
       <use x="127.246094" xlink:href="#DejaVuSans-32"/>
       <use x="190.869141" xlink:href="#DejaVuSans-31"/>
       <use x="254.492188" xlink:href="#DejaVuSans-2d"/>
       <use x="290.576172" xlink:href="#DejaVuSans-30"/>
       <use x="354.199219" xlink:href="#DejaVuSans-35"/>
      </g>
     </g>
    </g>
    <g id="text_8">
     <!-- Date -->
     <g transform="translate(509.314844 291.706511)scale(0.1 -0.1)">
      <defs>
       <path d="M 1259 4147 
L 1259 519 
L 2022 519 
Q 2988 519 3436 956 
Q 3884 1394 3884 2338 
Q 3884 3275 3436 3711 
Q 2988 4147 2022 4147 
L 1259 4147 
z
M 628 4666 
L 1925 4666 
Q 3281 4666 3915 4102 
Q 4550 3538 4550 2338 
Q 4550 1131 3912 565 
Q 3275 0 1925 0 
L 628 0 
L 628 4666 
z
" id="DejaVuSans-44" transform="scale(0.015625)"/>
       <path d="M 2194 1759 
Q 1497 1759 1228 1600 
Q 959 1441 959 1056 
Q 959 750 1161 570 
Q 1363 391 1709 391 
Q 2188 391 2477 730 
Q 2766 1069 2766 1631 
L 2766 1759 
L 2194 1759 
z
M 3341 1997 
L 3341 0 
L 2766 0 
L 2766 531 
Q 2569 213 2275 61 
Q 1981 -91 1556 -91 
Q 1019 -91 701 211 
Q 384 513 384 1019 
Q 384 1609 779 1909 
Q 1175 2209 1959 2209 
L 2766 2209 
L 2766 2266 
Q 2766 2663 2505 2880 
Q 2244 3097 1772 3097 
Q 1472 3097 1187 3025 
Q 903 2953 641 2809 
L 641 3341 
Q 956 3463 1253 3523 
Q 1550 3584 1831 3584 
Q 2591 3584 2966 3190 
Q 3341 2797 3341 1997 
z
" id="DejaVuSans-61" transform="scale(0.015625)"/>
       <path d="M 1172 4494 
L 1172 3500 
L 2356 3500 
L 2356 3053 
L 1172 3053 
L 1172 1153 
Q 1172 725 1289 603 
Q 1406 481 1766 481 
L 2356 481 
L 2356 0 
L 1766 0 
Q 1100 0 847 248 
Q 594 497 594 1153 
L 594 3053 
L 172 3053 
L 172 3500 
L 594 3500 
L 594 4494 
L 1172 4494 
z
" id="DejaVuSans-74" transform="scale(0.015625)"/>
       <path d="M 3597 1894 
L 3597 1613 
L 953 1613 
Q 991 1019 1311 708 
Q 1631 397 2203 397 
Q 2534 397 2845 478 
Q 3156 559 3463 722 
L 3463 178 
Q 3153 47 2828 -22 
Q 2503 -91 2169 -91 
Q 1331 -91 842 396 
Q 353 884 353 1716 
Q 353 2575 817 3079 
Q 1281 3584 2069 3584 
Q 2775 3584 3186 3129 
Q 3597 2675 3597 1894 
z
M 3022 2063 
Q 3016 2534 2758 2815 
Q 2500 3097 2075 3097 
Q 1594 3097 1305 2825 
Q 1016 2553 972 2059 
L 3022 2063 
z
" id="DejaVuSans-65" transform="scale(0.015625)"/>
      </defs>
      <use xlink:href="#DejaVuSans-44"/>
      <use x="77.001953" xlink:href="#DejaVuSans-61"/>
      <use x="138.28125" xlink:href="#DejaVuSans-74"/>
      <use x="177.490234" xlink:href="#DejaVuSans-65"/>
     </g>
    </g>
   </g>
   <g id="matplotlib.axis_2">
    <g id="ytick_1">
     <g id="line2d_8">
      <defs>
       <path d="M 0 0 
L -3.5 0 
" id="m48111eeae8" style="stroke:#000000;stroke-width:0.8;"/>
      </defs>
      <g>
       <use style="stroke:#000000;stroke-width:0.8;" x="46.965625" xlink:href="#m48111eeae8" y="231.325261"/>
      </g>
     </g>
     <g id="text_9">
      <!-- 1 -->
      <g transform="translate(33.603125 235.12448)scale(0.1 -0.1)">
       <use xlink:href="#DejaVuSans-31"/>
      </g>
     </g>
    </g>
    <g id="ytick_2">
     <g id="line2d_9">
      <g>
       <use style="stroke:#000000;stroke-width:0.8;" x="46.965625" xlink:href="#m48111eeae8" y="187.260052"/>
      </g>
     </g>
     <g id="text_10">
      <!-- 3 -->
      <g transform="translate(33.603125 191.059271)scale(0.1 -0.1)">
       <use xlink:href="#DejaVuSans-33"/>
      </g>
     </g>
    </g>
    <g id="ytick_3">
     <g id="line2d_10">
      <g>
       <use style="stroke:#000000;stroke-width:0.8;" x="46.965625" xlink:href="#m48111eeae8" y="143.194844"/>
      </g>
     </g>
     <g id="text_11">
      <!-- 10 -->
      <g transform="translate(27.240625 146.994063)scale(0.1 -0.1)">
       <use xlink:href="#DejaVuSans-31"/>
       <use x="63.623047" xlink:href="#DejaVuSans-30"/>
      </g>
     </g>
    </g>
    <g id="ytick_4">
     <g id="line2d_11">
      <g>
       <use style="stroke:#000000;stroke-width:0.8;" x="46.965625" xlink:href="#m48111eeae8" y="99.129636"/>
      </g>
     </g>
     <g id="text_12">
      <!-- 31 -->
      <g transform="translate(27.240625 102.928854)scale(0.1 -0.1)">
       <use xlink:href="#DejaVuSans-33"/>
       <use x="63.623047" xlink:href="#DejaVuSans-31"/>
      </g>
     </g>
    </g>
    <g id="ytick_5">
     <g id="line2d_12">
      <g>
       <use style="stroke:#000000;stroke-width:0.8;" x="46.965625" xlink:href="#m48111eeae8" y="55.064427"/>
      </g>
     </g>
     <g id="text_13">
      <!-- 100 -->
      <g transform="translate(20.878125 58.863646)scale(0.1 -0.1)">
       <use xlink:href="#DejaVuSans-31"/>
       <use x="63.623047" xlink:href="#DejaVuSans-30"/>
       <use x="127.246094" xlink:href="#DejaVuSans-30"/>
      </g>
     </g>
    </g>
    <g id="ytick_6">
     <g id="line2d_13">
      <g>
       <use style="stroke:#000000;stroke-width:0.8;" x="46.965625" xlink:href="#m48111eeae8" y="10.999219"/>
      </g>
     </g>
     <g id="text_14">
      <!-- 316 -->
      <g transform="translate(20.878125 14.798437)scale(0.1 -0.1)">
       <defs>
        <path d="M 2113 2584 
Q 1688 2584 1439 2293 
Q 1191 2003 1191 1497 
Q 1191 994 1439 701 
Q 1688 409 2113 409 
Q 2538 409 2786 701 
Q 3034 994 3034 1497 
Q 3034 2003 2786 2293 
Q 2538 2584 2113 2584 
z
M 3366 4563 
L 3366 3988 
Q 3128 4100 2886 4159 
Q 2644 4219 2406 4219 
Q 1781 4219 1451 3797 
Q 1122 3375 1075 2522 
Q 1259 2794 1537 2939 
Q 1816 3084 2150 3084 
Q 2853 3084 3261 2657 
Q 3669 2231 3669 1497 
Q 3669 778 3244 343 
Q 2819 -91 2113 -91 
Q 1303 -91 875 529 
Q 447 1150 447 2328 
Q 447 3434 972 4092 
Q 1497 4750 2381 4750 
Q 2619 4750 2861 4703 
Q 3103 4656 3366 4563 
z
" id="DejaVuSans-36" transform="scale(0.015625)"/>
       </defs>
       <use xlink:href="#DejaVuSans-33"/>
       <use x="63.623047" xlink:href="#DejaVuSans-31"/>
       <use x="127.246094" xlink:href="#DejaVuSans-36"/>
      </g>
     </g>
    </g>
    <g id="text_15">
     <!-- Count (7 day rolling average) -->
     <g transform="translate(14.798438 193.91323)rotate(-90)scale(0.1 -0.1)">
      <defs>
       <path d="M 4122 4306 
L 4122 3641 
Q 3803 3938 3442 4084 
Q 3081 4231 2675 4231 
Q 1875 4231 1450 3742 
Q 1025 3253 1025 2328 
Q 1025 1406 1450 917 
Q 1875 428 2675 428 
Q 3081 428 3442 575 
Q 3803 722 4122 1019 
L 4122 359 
Q 3791 134 3420 21 
Q 3050 -91 2638 -91 
Q 1578 -91 968 557 
Q 359 1206 359 2328 
Q 359 3453 968 4101 
Q 1578 4750 2638 4750 
Q 3056 4750 3426 4639 
Q 3797 4528 4122 4306 
z
" id="DejaVuSans-43" transform="scale(0.015625)"/>
       <path d="M 1959 3097 
Q 1497 3097 1228 2736 
Q 959 2375 959 1747 
Q 959 1119 1226 758 
Q 1494 397 1959 397 
Q 2419 397 2687 759 
Q 2956 1122 2956 1747 
Q 2956 2369 2687 2733 
Q 2419 3097 1959 3097 
z
M 1959 3584 
Q 2709 3584 3137 3096 
Q 3566 2609 3566 1747 
Q 3566 888 3137 398 
Q 2709 -91 1959 -91 
Q 1206 -91 779 398 
Q 353 888 353 1747 
Q 353 2609 779 3096 
Q 1206 3584 1959 3584 
z
" id="DejaVuSans-6f" transform="scale(0.015625)"/>
       <path d="M 544 1381 
L 544 3500 
L 1119 3500 
L 1119 1403 
Q 1119 906 1312 657 
Q 1506 409 1894 409 
Q 2359 409 2629 706 
Q 2900 1003 2900 1516 
L 2900 3500 
L 3475 3500 
L 3475 0 
L 2900 0 
L 2900 538 
Q 2691 219 2414 64 
Q 2138 -91 1772 -91 
Q 1169 -91 856 284 
Q 544 659 544 1381 
z
M 1991 3584 
L 1991 3584 
z
" id="DejaVuSans-75" transform="scale(0.015625)"/>
       <path d="M 3513 2113 
L 3513 0 
L 2938 0 
L 2938 2094 
Q 2938 2591 2744 2837 
Q 2550 3084 2163 3084 
Q 1697 3084 1428 2787 
Q 1159 2491 1159 1978 
L 1159 0 
L 581 0 
L 581 3500 
L 1159 3500 
L 1159 2956 
Q 1366 3272 1645 3428 
Q 1925 3584 2291 3584 
Q 2894 3584 3203 3211 
Q 3513 2838 3513 2113 
z
" id="DejaVuSans-6e" transform="scale(0.015625)"/>
       <path id="DejaVuSans-20" transform="scale(0.015625)"/>
       <path d="M 1984 4856 
Q 1566 4138 1362 3434 
Q 1159 2731 1159 2009 
Q 1159 1288 1364 580 
Q 1569 -128 1984 -844 
L 1484 -844 
Q 1016 -109 783 600 
Q 550 1309 550 2009 
Q 550 2706 781 3412 
Q 1013 4119 1484 4856 
L 1984 4856 
z
" id="DejaVuSans-28" transform="scale(0.015625)"/>
       <path d="M 525 4666 
L 3525 4666 
L 3525 4397 
L 1831 0 
L 1172 0 
L 2766 4134 
L 525 4134 
L 525 4666 
z
" id="DejaVuSans-37" transform="scale(0.015625)"/>
       <path d="M 2906 2969 
L 2906 4863 
L 3481 4863 
L 3481 0 
L 2906 0 
L 2906 525 
Q 2725 213 2448 61 
Q 2172 -91 1784 -91 
Q 1150 -91 751 415 
Q 353 922 353 1747 
Q 353 2572 751 3078 
Q 1150 3584 1784 3584 
Q 2172 3584 2448 3432 
Q 2725 3281 2906 2969 
z
M 947 1747 
Q 947 1113 1208 752 
Q 1469 391 1925 391 
Q 2381 391 2643 752 
Q 2906 1113 2906 1747 
Q 2906 2381 2643 2742 
Q 2381 3103 1925 3103 
Q 1469 3103 1208 2742 
Q 947 2381 947 1747 
z
" id="DejaVuSans-64" transform="scale(0.015625)"/>
       <path d="M 2059 -325 
Q 1816 -950 1584 -1140 
Q 1353 -1331 966 -1331 
L 506 -1331 
L 506 -850 
L 844 -850 
Q 1081 -850 1212 -737 
Q 1344 -625 1503 -206 
L 1606 56 
L 191 3500 
L 800 3500 
L 1894 763 
L 2988 3500 
L 3597 3500 
L 2059 -325 
z
" id="DejaVuSans-79" transform="scale(0.015625)"/>
       <path d="M 2631 2963 
Q 2534 3019 2420 3045 
Q 2306 3072 2169 3072 
Q 1681 3072 1420 2755 
Q 1159 2438 1159 1844 
L 1159 0 
L 581 0 
L 581 3500 
L 1159 3500 
L 1159 2956 
Q 1341 3275 1631 3429 
Q 1922 3584 2338 3584 
Q 2397 3584 2469 3576 
Q 2541 3569 2628 3553 
L 2631 2963 
z
" id="DejaVuSans-72" transform="scale(0.015625)"/>
       <path d="M 603 4863 
L 1178 4863 
L 1178 0 
L 603 0 
L 603 4863 
z
" id="DejaVuSans-6c" transform="scale(0.015625)"/>
       <path d="M 603 3500 
L 1178 3500 
L 1178 0 
L 603 0 
L 603 3500 
z
M 603 4863 
L 1178 4863 
L 1178 4134 
L 603 4134 
L 603 4863 
z
" id="DejaVuSans-69" transform="scale(0.015625)"/>
       <path d="M 2906 1791 
Q 2906 2416 2648 2759 
Q 2391 3103 1925 3103 
Q 1463 3103 1205 2759 
Q 947 2416 947 1791 
Q 947 1169 1205 825 
Q 1463 481 1925 481 
Q 2391 481 2648 825 
Q 2906 1169 2906 1791 
z
M 3481 434 
Q 3481 -459 3084 -895 
Q 2688 -1331 1869 -1331 
Q 1566 -1331 1297 -1286 
Q 1028 -1241 775 -1147 
L 775 -588 
Q 1028 -725 1275 -790 
Q 1522 -856 1778 -856 
Q 2344 -856 2625 -561 
Q 2906 -266 2906 331 
L 2906 616 
Q 2728 306 2450 153 
Q 2172 0 1784 0 
Q 1141 0 747 490 
Q 353 981 353 1791 
Q 353 2603 747 3093 
Q 1141 3584 1784 3584 
Q 2172 3584 2450 3431 
Q 2728 3278 2906 2969 
L 2906 3500 
L 3481 3500 
L 3481 434 
z
" id="DejaVuSans-67" transform="scale(0.015625)"/>
       <path d="M 191 3500 
L 800 3500 
L 1894 563 
L 2988 3500 
L 3597 3500 
L 2284 0 
L 1503 0 
L 191 3500 
z
" id="DejaVuSans-76" transform="scale(0.015625)"/>
       <path d="M 513 4856 
L 1013 4856 
Q 1481 4119 1714 3412 
Q 1947 2706 1947 2009 
Q 1947 1309 1714 600 
Q 1481 -109 1013 -844 
L 513 -844 
Q 928 -128 1133 580 
Q 1338 1288 1338 2009 
Q 1338 2731 1133 3434 
Q 928 4138 513 4856 
z
" id="DejaVuSans-29" transform="scale(0.015625)"/>
      </defs>
      <use xlink:href="#DejaVuSans-43"/>
      <use x="69.824219" xlink:href="#DejaVuSans-6f"/>
      <use x="131.005859" xlink:href="#DejaVuSans-75"/>
      <use x="194.384766" xlink:href="#DejaVuSans-6e"/>
      <use x="257.763672" xlink:href="#DejaVuSans-74"/>
      <use x="296.972656" xlink:href="#DejaVuSans-20"/>
      <use x="328.759766" xlink:href="#DejaVuSans-28"/>
      <use x="367.773438" xlink:href="#DejaVuSans-37"/>
      <use x="431.396484" xlink:href="#DejaVuSans-20"/>
      <use x="463.183594" xlink:href="#DejaVuSans-64"/>
      <use x="526.660156" xlink:href="#DejaVuSans-61"/>
      <use x="587.939453" xlink:href="#DejaVuSans-79"/>
      <use x="647.119141" xlink:href="#DejaVuSans-20"/>
      <use x="678.90625" xlink:href="#DejaVuSans-72"/>
      <use x="717.769531" xlink:href="#DejaVuSans-6f"/>
      <use x="778.951172" xlink:href="#DejaVuSans-6c"/>
      <use x="806.734375" xlink:href="#DejaVuSans-6c"/>
      <use x="834.517578" xlink:href="#DejaVuSans-69"/>
      <use x="862.300781" xlink:href="#DejaVuSans-6e"/>
      <use x="925.679688" xlink:href="#DejaVuSans-67"/>
      <use x="989.15625" xlink:href="#DejaVuSans-20"/>
      <use x="1020.943359" xlink:href="#DejaVuSans-61"/>
      <use x="1082.222656" xlink:href="#DejaVuSans-76"/>
      <use x="1141.402344" xlink:href="#DejaVuSans-65"/>
      <use x="1202.925781" xlink:href="#DejaVuSans-72"/>
      <use x="1244.039062" xlink:href="#DejaVuSans-61"/>
      <use x="1305.318359" xlink:href="#DejaVuSans-67"/>
      <use x="1368.794922" xlink:href="#DejaVuSans-65"/>
      <use x="1430.318359" xlink:href="#DejaVuSans-29"/>
     </g>
    </g>
   </g>
   <g id="line2d_14">
    <path clip-path="url(#pb9675e5c6c)" d="M 405.81257 217.673687 
L 410.524939 221.706313 
L 415.237309 214.025732 
L 419.949679 221.706313 
L 424.662048 214.025732 
L 429.374418 210.69541 
L 434.086787 210.69541 
L 438.799157 210.69541 
L 443.511527 210.69541 
L 448.223896 217.673687 
L 452.936266 217.673687 
L 457.648635 221.706313 
L 462.361005 221.706313 
L 467.073375 217.673687 
L 471.785744 217.673687 
L 476.498114 217.673687 
L 481.210483 217.673687 
L 485.922853 217.673687 
L 490.635223 221.706313 
L 495.347592 221.706313 
L 500.059962 226.214406 
L 504.772331 221.706313 
L 509.484701 217.673687 
L 514.197071 214.025732 
L 518.90944 202.15469 
L 523.62181 202.15469 
L 528.334179 199.684507 
L 533.046549 195.176414 
L 537.758919 197.364127 
L 542.471288 197.364127 
L 547.183658 197.364127 
L 551.896027 197.364127 
L 556.608397 193.107015 
L 561.320767 195.176414 
L 566.033136 197.364127 
L 570.745506 195.176414 
L 575.457875 189.276366 
L 580.170245 191.143788 
L 584.882615 187.495833 
L 589.594984 184.165511 
L 594.307354 171.976837 
L 599.019723 166.577116 
L 603.732093 164.613889 
L 608.444463 167.597832 
L 613.156832 165.582916 
L 617.869202 160.105795 
L 622.581571 151.05812 
L 627.293941 149.094892 
L 632.006311 148.462241 
L 636.71868 140.554173 
L 641.43105 136.674951 
L 646.143419 133.152969 
L 650.855789 131.506498 
L 655.568159 128.785333 
L 660.280528 129.927942 
L 664.992898 125.895315 
L 669.705267 116.392527 
L 674.417637 110.843088 
L 679.130007 110.608992 
L 683.842376 105.585756 
L 688.554746 101.145949 
L 693.267115 96.678379 
L 697.979485 93.118989 
L 702.691855 91.954654 
L 707.404224 90.135046 
L 712.116594 85.264158 
L 716.828963 82.703811 
L 721.541333 79.36411 
L 726.253702 72.489139 
L 730.966072 67.942752 
L 735.678442 64.434231 
L 740.390811 62.32809 
L 745.103181 61.02832 
L 749.81555 54.900744 
L 754.52792 51.81621 
L 759.24029 48.22309 
L 763.952659 42.342645 
L 768.665029 39.146545 
L 773.377398 37.487545 
L 778.089768 36.90476 
L 782.802138 34.022166 
L 787.514507 31.696217 
L 792.226877 30.699733 
L 796.939246 30.873709 
L 801.651616 30.786622 
L 806.363986 28.534528 
L 811.076355 26.330112 
L 815.788725 25.160944 
L 820.501094 23.639576 
L 825.213464 21.283834 
L 829.925834 20.655633 
L 834.638203 20.389528 
L 839.350573 20.279195 
L 844.062942 20.901198 
L 848.775312 20.125261 
L 853.487682 21.351757 
L 858.200051 22.408625 
L 862.912421 22.971841 
L 867.62479 23.042829 
L 872.33716 24.196923 
L 877.04953 24.886574 
L 881.761899 27.138667 
L 886.474269 27.776591 
L 891.186638 30.990133 
L 895.899008 32.994808 
L 900.611378 36.330715 
L 905.323747 39.911698 
L 910.036117 42.697224 
L 914.748486 49.195636 
L 919.460856 56.343144 
L 924.173226 62.726787 
L 928.885595 73.185059 
L 933.597965 79.883447 
L 938.310334 85.024192 
L 943.022704 88.660187 
L 947.735074 102.068272 
L 952.447443 113.769957 
" style="fill:none;stroke:#947383;stroke-linecap:square;stroke-width:2;"/>
   </g>
   <g id="line2d_15">
    <path clip-path="url(#pb9675e5c6c)" d="M 90.083807 226.214406 
L 94.796176 231.325261 
L 184.331199 231.325261 
L 189.043568 226.214406 
L 203.180677 226.214406 
L 207.893047 221.706313 
L 212.605416 221.706313 
L 217.317786 217.673687 
L 236.167264 217.673687 
L 240.879634 221.706313 
L 245.592004 221.706313 
L 250.304373 226.214406 
L 255.016743 231.325261 
L 259.729112 231.325261 
L 264.441482 204.795362 
L 269.153852 185.794462 
L 273.866221 175.624791 
L 283.29096 173.154608 
L 288.00333 155.315232 
L 292.7157 151.735564 
L 297.428069 149.738177 
L 306.852808 159.264563 
L 311.565178 159.264563 
L 316.277548 158.441422 
L 320.989917 161.845847 
L 325.702287 160.965934 
L 330.414656 164.613889 
L 335.127026 165.582916 
L 339.839395 165.582916 
L 349.264135 167.597832 
L 353.976504 161.845847 
L 358.688874 151.05812 
L 363.401243 148.462241 
L 368.113613 143.745567 
L 372.825983 138.565437 
L 382.250722 137.608523 
L 386.963091 142.116616 
L 391.675461 150.392459 
L 396.387831 152.425214 
L 401.1002 156.846418 
L 405.81257 157.635612 
L 410.524939 156.073169 
L 415.237309 156.846418 
L 419.949679 154.572013 
L 424.662048 134.436035 
L 429.374418 134.873463 
L 434.086787 134.00355 
L 438.799157 133.575896 
L 443.511527 129.54327 
L 448.223896 129.54327 
L 452.936266 130.316519 
L 457.648635 142.116616 
L 462.361005 141.067933 
L 467.073375 139.053017 
L 471.785744 140.554173 
L 476.498114 143.194844 
L 481.210483 142.116616 
L 485.922853 141.588683 
L 490.635223 145.446938 
L 495.347592 143.194844 
L 500.059962 146.031294 
L 504.772331 143.194844 
L 509.484701 142.651933 
L 514.197071 140.047217 
L 518.90944 137.608523 
L 523.62181 129.927942 
L 528.334179 127.675848 
L 533.046549 122.247361 
L 537.758919 120.697572 
L 542.471288 122.564993 
L 547.183658 124.193944 
L 551.896027 120.09481 
L 556.608397 124.528221 
L 566.033136 130.709082 
L 570.745506 130.709082 
L 575.457875 129.162425 
L 580.170245 126.953665 
L 584.882615 133.575896 
L 594.307354 130.316519 
L 599.019723 132.320881 
L 603.732093 126.953665 
L 608.444463 116.939316 
L 613.156832 114.280292 
L 617.869202 116.122034 
L 622.581571 112.523118 
L 627.293941 110.145052 
L 632.006311 100.24533 
L 636.71868 98.847017 
L 641.43105 104.376985 
L 646.143419 105.585756 
L 650.855789 95.559628 
L 655.568159 91.954654 
L 660.280528 90.271986 
L 664.992898 95.717462 
L 669.705267 99.019038 
L 674.417637 97.168039 
L 679.130007 96.194905 
L 683.842376 97.004122 
L 688.554746 100.423766 
L 693.267115 100.067721 
L 697.979485 98.505278 
L 702.691855 98.335545 
L 707.404224 97.998322 
L 712.116594 84.548725 
L 716.828963 74.163091 
L 721.541333 71.468423 
L 726.253702 68.019378 
L 730.966072 61.737725 
L 735.678442 57.432681 
L 740.390811 57.316521 
L 745.103181 63.468696 
L 749.81555 67.713791 
L 754.52792 66.368062 
L 759.24029 68.560097 
L 768.665029 85.626953 
L 773.377398 83.96258 
L 778.089768 77.159206 
L 782.802138 66.441597 
L 787.514507 67.942752 
L 792.226877 64.22527 
L 796.939246 56.343144 
L 801.651616 51.416473 
L 806.363986 51.665819 
L 811.076355 54.413853 
L 815.788725 62.32809 
L 820.501094 62.860614 
L 825.213464 63.536861 
L 829.925834 67.713791 
L 834.638203 75.445134 
L 839.350573 77.354485 
L 844.062942 73.893867 
L 848.775312 69.825487 
L 853.487682 69.187563 
L 858.200051 73.361034 
L 862.912421 74.890421 
L 867.62479 73.009889 
L 872.33716 73.185059 
L 877.04953 75.445134 
L 881.761899 88.528885 
L 886.474269 93.118989 
L 891.186638 99.890933 
L 895.899008 97.004122 
L 900.611378 103.013371 
L 905.323747 104.976599 
L 905.323747 104.976599 
" style="fill:none;stroke:#96c6ad;stroke-linecap:square;stroke-width:2;"/>
   </g>
   <g id="line2d_16">
    <path clip-path="url(#pb9675e5c6c)" d="M 396.387831 214.025732 
L 401.1002 221.706313 
L 405.81257 221.706313 
L 410.524939 221.706313 
L 415.237309 221.706313 
L 419.949679 210.69541 
L 424.662048 210.69541 
L 429.374418 214.025732 
L 434.086787 210.69541 
L 438.799157 202.15469 
L 443.511527 199.684507 
L 448.223896 197.364127 
L 452.936266 191.143788 
L 457.648635 193.107015 
L 462.361005 181.101912 
L 467.073375 181.101912 
L 471.785744 176.922358 
L 476.498114 173.154608 
L 481.210483 171.976837 
L 485.922853 166.577116 
L 490.635223 161.845847 
L 495.347592 162.746467 
L 500.059962 159.264563 
L 504.772331 155.315232 
L 509.484701 146.031294 
L 514.197071 143.745567 
L 518.90944 142.651933 
L 523.62181 140.047217 
L 528.334179 136.674951 
L 533.046549 130.709082 
L 537.758919 129.927942 
L 542.471288 134.873463 
L 547.183658 134.873463 
L 551.896027 137.138891 
L 556.608397 130.316519 
L 561.320767 128.41192 
L 566.033136 123.208278 
L 570.745506 121.00255 
L 575.457875 117.77443 
L 580.170245 116.392527 
L 584.882615 112.523118 
L 589.594984 113.769957 
L 594.307354 112.035538 
L 599.019723 117.215668 
L 603.732093 116.664945 
L 608.444463 117.215668 
L 613.156832 119.208102 
L 617.869202 117.494029 
L 622.581571 107.259227 
L 627.293941 105.997314 
L 632.006311 103.205224 
L 636.71868 103.398043 
L 641.43105 102.255434 
L 646.143419 100.964122 
L 650.855789 101.145949 
L 655.568159 106.413346 
L 660.280528 109.009225 
L 664.992898 109.686669 
L 669.705267 107.259227 
L 674.417637 106.204765 
L 679.130007 103.013371 
L 683.842376 100.603038 
L 688.554746 96.678379 
L 693.267115 94.780079 
L 697.979485 91.385506 
L 702.691855 90.96413 
L 707.404224 90.824696 
L 712.116594 92.38714 
L 716.828963 92.824568 
L 721.541333 96.516542 
L 726.253702 95.559628 
L 730.966072 96.840904 
L 735.678442 97.168039 
L 740.390811 96.678379 
L 745.103181 95.559628 
L 749.81555 94.01609 
L 754.52792 92.971496 
L 759.24029 95.402443 
L 763.952659 94.934724 
L 768.665029 94.472651 
L 773.377398 95.559628 
L 778.089768 97.497994 
L 782.802138 99.714958 
L 787.514507 94.626056 
L 792.226877 87.367005 
L 796.939246 84.90477 
L 801.651616 83.15677 
L 806.363986 80.198465 
L 811.076355 79.988165 
L 815.788725 79.055857 
L 820.501094 81.376237 
L 825.213464 82.145049 
L 829.925834 83.730612 
L 834.638203 83.15677 
L 839.350573 86.116091 
L 844.062942 85.748653 
L 848.775312 83.96258 
L 853.487682 81.159383 
L 858.200051 81.159383 
L 862.912421 82.816549 
L 867.62479 84.195962 
L 872.33716 84.313189 
L 877.04953 84.548725 
L 881.761899 87.494375 
L 886.474269 90.409417 
L 891.186638 97.332661 
L 895.899008 100.783154 
L 900.611378 106.204765 
L 905.323747 106.204765 
L 910.036117 107.045997 
L 914.748486 113.517318 
L 919.460856 126.953665 
L 924.173226 132.734664 
L 928.885595 138.08399 
L 933.597965 146.031294 
L 938.310334 163.66879 
L 943.022704 173.154608 
L 947.735074 181.101912 
" style="fill:none;stroke:#525886;stroke-linecap:square;stroke-width:2;"/>
   </g>
   <g id="line2d_17">
    <path clip-path="url(#pb9675e5c6c)" d="M 528.334179 221.706313 
L 533.046549 231.325261 
L 537.758919 231.325261 
L 542.471288 226.214406 
L 547.183658 226.214406 
L 551.896027 226.214406 
L 556.608397 217.673687 
L 561.320767 214.025732 
L 566.033136 214.025732 
L 570.745506 214.025732 
L 575.457875 217.673687 
L 580.170245 217.673687 
L 584.882615 217.673687 
L 589.594984 226.214406 
L 594.307354 231.325261 
L 599.019723 231.325261 
L 603.732093 226.214406 
L 608.444463 221.706313 
L 613.156832 221.706313 
L 617.869202 217.673687 
L 622.581571 214.025732 
L 627.293941 210.69541 
L 632.006311 210.69541 
L 636.71868 214.025732 
L 641.43105 214.025732 
L 646.143419 214.025732 
L 650.855789 210.69541 
L 655.568159 207.631811 
L 660.280528 210.69541 
L 664.992898 199.684507 
L 669.705267 197.364127 
L 674.417637 197.364127 
L 679.130007 191.143788 
L 683.842376 189.276366 
L 688.554746 189.276366 
L 693.267115 189.276366 
L 697.979485 195.176414 
L 702.691855 197.364127 
L 707.404224 199.684507 
L 712.116594 207.631811 
L 716.828963 207.631811 
L 721.541333 214.025732 
L 726.253702 210.69541 
L 730.966072 214.025732 
L 735.678442 214.025732 
L 740.390811 214.025732 
L 745.103181 214.025732 
L 749.81555 226.214406 
L 754.52792 221.706313 
L 759.24029 221.706313 
L 763.952659 214.025732 
L 768.665029 214.025732 
L 773.377398 214.025732 
L 778.089768 207.631811 
L 782.802138 204.795362 
L 787.514507 202.15469 
L 792.226877 199.684507 
L 796.939246 202.15469 
L 801.651616 195.176414 
L 806.363986 193.107015 
L 811.076355 195.176414 
L 815.788725 193.107015 
L 820.501094 193.107015 
L 825.213464 195.176414 
L 829.925834 182.603068 
L 834.638203 182.603068 
L 839.350573 182.603068 
L 844.062942 178.265463 
L 848.775312 176.922358 
L 853.487682 176.922358 
L 858.200051 174.369776 
L 862.912421 184.165511 
L 867.62479 182.603068 
L 872.33716 184.165511 
L 877.04953 191.143788 
L 881.761899 193.107015 
L 886.474269 181.101912 
L 891.186638 184.165511 
L 895.899008 184.165511 
L 900.611378 189.276366 
L 905.323747 182.603068 
L 910.036117 181.101912 
L 914.748486 182.603068 
L 919.460856 195.176414 
" style="fill:none;stroke:#937252;stroke-linecap:square;stroke-width:2;"/>
   </g>
   <g id="line2d_18">
    <path clip-path="url(#pb9675e5c6c)" d="M 646.143419 217.673687 
L 650.855789 221.706313 
L 655.568159 217.673687 
L 660.280528 217.673687 
L 664.992898 217.673687 
L 669.705267 217.673687 
L 674.417637 221.706313 
L 679.130007 221.706313 
L 683.842376 221.706313 
L 688.554746 226.214406 
L 693.267115 226.214406 
L 697.979485 221.706313 
L 702.691855 221.706313 
L 707.404224 226.214406 
L 712.116594 226.214406 
L 716.828963 226.214406 
L 721.541333 226.214406 
L 726.253702 226.214406 
L 730.966072 231.325261 
L 735.678442 231.325261 
L 740.390811 221.706313 
L 745.103181 221.706313 
L 749.81555 221.706313 
L 754.52792 221.706313 
L 759.24029 221.706313 
L 763.952659 221.706313 
L 768.665029 221.706313 
L 773.377398 231.325261 
L 778.089768 231.325261 
L 782.802138 226.214406 
L 787.514507 226.214406 
L 792.226877 226.214406 
L 796.939246 221.706313 
L 801.651616 221.706313 
L 806.363986 221.706313 
L 811.076355 221.706313 
L 815.788725 226.214406 
L 820.501094 226.214406 
L 825.213464 226.214406 
L 829.925834 231.325261 
L 834.638203 231.325261 
L 839.350573 231.325261 
L 844.062942 231.325261 
L 848.775312 231.325261 
L 853.487682 231.325261 
L 858.200051 231.325261 
L 862.912421 226.214406 
L 867.62479 226.214406 
L 872.33716 226.214406 
L 877.04953 221.706313 
" style="fill:none;stroke:#d18cad;stroke-linecap:square;stroke-width:2;"/>
   </g>
   <g id="line2d_19">
    <path clip-path="url(#pb9675e5c6c)" d="M 372.825983 214.025732 
L 377.538352 231.325261 
L 382.250722 226.214406 
L 386.963091 226.214406 
L 391.675461 226.214406 
L 396.387831 226.214406 
L 401.1002 226.214406 
L 405.81257 226.214406 
L 410.524939 226.214406 
L 415.237309 231.325261 
L 419.949679 231.325261 
L 424.662048 231.325261 
L 429.374418 231.325261 
L 434.086787 231.325261 
L 438.799157 231.325261 
L 443.511527 231.325261 
L 448.223896 231.325261 
L 452.936266 231.325261 
L 457.648635 231.325261 
L 462.361005 231.325261 
L 467.073375 226.214406 
L 471.785744 226.214406 
L 476.498114 226.214406 
L 481.210483 226.214406 
L 485.922853 226.214406 
L 490.635223 226.214406 
L 495.347592 221.706313 
L 500.059962 226.214406 
L 504.772331 226.214406 
L 509.484701 226.214406 
L 514.197071 226.214406 
L 518.90944 226.214406 
L 523.62181 217.673687 
L 528.334179 221.706313 
L 533.046549 221.706313 
L 537.758919 217.673687 
L 542.471288 214.025732 
L 547.183658 214.025732 
L 551.896027 214.025732 
L 556.608397 221.706313 
L 561.320767 221.706313 
L 566.033136 217.673687 
L 570.745506 221.706313 
L 575.457875 226.214406 
L 580.170245 226.214406 
L 584.882615 217.673687 
L 589.594984 217.673687 
L 594.307354 199.684507 
L 599.019723 202.15469 
L 603.732093 199.684507 
L 608.444463 199.684507 
L 613.156832 197.364127 
L 617.869202 202.15469 
L 622.581571 202.15469 
L 627.293941 221.706313 
L 632.006311 221.706313 
L 636.71868 217.673687 
L 641.43105 217.673687 
L 646.143419 221.706313 
L 650.855789 214.025732 
L 655.568159 195.176414 
L 660.280528 185.794462 
L 664.992898 176.922358 
L 669.705267 176.922358 
L 674.417637 171.976837 
L 679.130007 168.646515 
L 683.842376 166.577116 
L 688.554746 170.834228 
L 693.267115 176.922358 
L 697.979485 184.165511 
L 702.691855 178.265463 
L 707.404224 184.165511 
L 712.116594 184.165511 
L 716.828963 191.143788 
L 721.541333 197.364127 
L 726.253702 193.107015 
L 730.966072 189.276366 
L 735.678442 199.684507 
L 740.390811 199.684507 
L 745.103181 207.631811 
L 749.81555 204.795362 
L 754.52792 202.15469 
L 759.24029 207.631811 
L 763.952659 214.025732 
L 768.665029 217.673687 
L 773.377398 187.495833 
L 778.089768 185.794462 
L 782.802138 185.794462 
L 787.514507 185.794462 
L 792.226877 185.794462 
L 796.939246 185.794462 
L 801.651616 185.794462 
L 806.363986 214.025732 
L 811.076355 217.673687 
L 815.788725 221.706313 
L 820.501094 226.214406 
L 825.213464 226.214406 
L 829.925834 226.214406 
L 834.638203 226.214406 
L 839.350573 214.025732 
L 844.062942 214.025732 
L 848.775312 214.025732 
L 853.487682 214.025732 
L 858.200051 214.025732 
L 862.912421 217.673687 
L 867.62479 217.673687 
L 872.33716 231.325261 
L 877.04953 231.325261 
L 881.761899 231.325261 
L 886.474269 231.325261 
L 891.186638 221.706313 
" style="fill:none;stroke:#a4a86f;stroke-linecap:square;stroke-width:2;"/>
   </g>
   <g id="patch_3">
    <path d="M 46.965625 231.325261 
L 46.965625 9.565261 
" style="fill:none;stroke:#000000;stroke-linecap:square;stroke-linejoin:miter;stroke-width:0.8;"/>
   </g>
   <g id="patch_4">
    <path d="M 46.965625 231.325261 
L 995.565625 231.325261 
" style="fill:none;stroke:#000000;stroke-linecap:square;stroke-linejoin:miter;stroke-width:0.8;"/>
   </g>
   <g id="legend_1">
    <g id="line2d_20">
     <path d="M 54.165625 20.044011 
L 70.165625 20.044011 
" style="fill:none;stroke:#947383;stroke-linecap:square;stroke-width:2;"/>
    </g>
    <g id="line2d_21"/>
    <g id="text_16">
     <!-- North America -->
     <g transform="translate(76.565625 22.844011)scale(0.08 -0.08)">
      <defs>
       <path d="M 628 4666 
L 1478 4666 
L 3547 763 
L 3547 4666 
L 4159 4666 
L 4159 0 
L 3309 0 
L 1241 3903 
L 1241 0 
L 628 0 
L 628 4666 
z
" id="DejaVuSans-4e" transform="scale(0.015625)"/>
       <path d="M 3513 2113 
L 3513 0 
L 2938 0 
L 2938 2094 
Q 2938 2591 2744 2837 
Q 2550 3084 2163 3084 
Q 1697 3084 1428 2787 
Q 1159 2491 1159 1978 
L 1159 0 
L 581 0 
L 581 4863 
L 1159 4863 
L 1159 2956 
Q 1366 3272 1645 3428 
Q 1925 3584 2291 3584 
Q 2894 3584 3203 3211 
Q 3513 2838 3513 2113 
z
" id="DejaVuSans-68" transform="scale(0.015625)"/>
       <path d="M 2188 4044 
L 1331 1722 
L 3047 1722 
L 2188 4044 
z
M 1831 4666 
L 2547 4666 
L 4325 0 
L 3669 0 
L 3244 1197 
L 1141 1197 
L 716 0 
L 50 0 
L 1831 4666 
z
" id="DejaVuSans-41" transform="scale(0.015625)"/>
       <path d="M 3328 2828 
Q 3544 3216 3844 3400 
Q 4144 3584 4550 3584 
Q 5097 3584 5394 3201 
Q 5691 2819 5691 2113 
L 5691 0 
L 5113 0 
L 5113 2094 
Q 5113 2597 4934 2840 
Q 4756 3084 4391 3084 
Q 3944 3084 3684 2787 
Q 3425 2491 3425 1978 
L 3425 0 
L 2847 0 
L 2847 2094 
Q 2847 2600 2669 2842 
Q 2491 3084 2119 3084 
Q 1678 3084 1418 2786 
Q 1159 2488 1159 1978 
L 1159 0 
L 581 0 
L 581 3500 
L 1159 3500 
L 1159 2956 
Q 1356 3278 1631 3431 
Q 1906 3584 2284 3584 
Q 2666 3584 2933 3390 
Q 3200 3197 3328 2828 
z
" id="DejaVuSans-6d" transform="scale(0.015625)"/>
       <path d="M 3122 3366 
L 3122 2828 
Q 2878 2963 2633 3030 
Q 2388 3097 2138 3097 
Q 1578 3097 1268 2742 
Q 959 2388 959 1747 
Q 959 1106 1268 751 
Q 1578 397 2138 397 
Q 2388 397 2633 464 
Q 2878 531 3122 666 
L 3122 134 
Q 2881 22 2623 -34 
Q 2366 -91 2075 -91 
Q 1284 -91 818 406 
Q 353 903 353 1747 
Q 353 2603 823 3093 
Q 1294 3584 2113 3584 
Q 2378 3584 2631 3529 
Q 2884 3475 3122 3366 
z
" id="DejaVuSans-63" transform="scale(0.015625)"/>
      </defs>
      <use xlink:href="#DejaVuSans-4e"/>
      <use x="74.804688" xlink:href="#DejaVuSans-6f"/>
      <use x="135.986328" xlink:href="#DejaVuSans-72"/>
      <use x="177.099609" xlink:href="#DejaVuSans-74"/>
      <use x="216.308594" xlink:href="#DejaVuSans-68"/>
      <use x="279.6875" xlink:href="#DejaVuSans-20"/>
      <use x="311.474609" xlink:href="#DejaVuSans-41"/>
      <use x="379.882812" xlink:href="#DejaVuSans-6d"/>
      <use x="477.294922" xlink:href="#DejaVuSans-65"/>
      <use x="538.818359" xlink:href="#DejaVuSans-72"/>
      <use x="579.931641" xlink:href="#DejaVuSans-69"/>
      <use x="607.714844" xlink:href="#DejaVuSans-63"/>
      <use x="662.695312" xlink:href="#DejaVuSans-61"/>
     </g>
    </g>
    <g id="line2d_22">
     <path d="M 54.165625 31.786511 
L 70.165625 31.786511 
" style="fill:none;stroke:#96c6ad;stroke-linecap:square;stroke-width:2;"/>
    </g>
    <g id="line2d_23"/>
    <g id="text_17">
     <!-- South America -->
     <g transform="translate(76.565625 34.586511)scale(0.08 -0.08)">
      <defs>
       <path d="M 3425 4513 
L 3425 3897 
Q 3066 4069 2747 4153 
Q 2428 4238 2131 4238 
Q 1616 4238 1336 4038 
Q 1056 3838 1056 3469 
Q 1056 3159 1242 3001 
Q 1428 2844 1947 2747 
L 2328 2669 
Q 3034 2534 3370 2195 
Q 3706 1856 3706 1288 
Q 3706 609 3251 259 
Q 2797 -91 1919 -91 
Q 1588 -91 1214 -16 
Q 841 59 441 206 
L 441 856 
Q 825 641 1194 531 
Q 1563 422 1919 422 
Q 2459 422 2753 634 
Q 3047 847 3047 1241 
Q 3047 1584 2836 1778 
Q 2625 1972 2144 2069 
L 1759 2144 
Q 1053 2284 737 2584 
Q 422 2884 422 3419 
Q 422 4038 858 4394 
Q 1294 4750 2059 4750 
Q 2388 4750 2728 4690 
Q 3069 4631 3425 4513 
z
" id="DejaVuSans-53" transform="scale(0.015625)"/>
      </defs>
      <use xlink:href="#DejaVuSans-53"/>
      <use x="63.476562" xlink:href="#DejaVuSans-6f"/>
      <use x="124.658203" xlink:href="#DejaVuSans-75"/>
      <use x="188.037109" xlink:href="#DejaVuSans-74"/>
      <use x="227.246094" xlink:href="#DejaVuSans-68"/>
      <use x="290.625" xlink:href="#DejaVuSans-20"/>
      <use x="322.412109" xlink:href="#DejaVuSans-41"/>
      <use x="390.820312" xlink:href="#DejaVuSans-6d"/>
      <use x="488.232422" xlink:href="#DejaVuSans-65"/>
      <use x="549.755859" xlink:href="#DejaVuSans-72"/>
      <use x="590.869141" xlink:href="#DejaVuSans-69"/>
      <use x="618.652344" xlink:href="#DejaVuSans-63"/>
      <use x="673.632812" xlink:href="#DejaVuSans-61"/>
     </g>
    </g>
    <g id="line2d_24">
     <path d="M 54.165625 43.529011 
L 70.165625 43.529011 
" style="fill:none;stroke:#525886;stroke-linecap:square;stroke-width:2;"/>
    </g>
    <g id="line2d_25"/>
    <g id="text_18">
     <!-- Europe -->
     <g transform="translate(76.565625 46.329011)scale(0.08 -0.08)">
      <defs>
       <path d="M 628 4666 
L 3578 4666 
L 3578 4134 
L 1259 4134 
L 1259 2753 
L 3481 2753 
L 3481 2222 
L 1259 2222 
L 1259 531 
L 3634 531 
L 3634 0 
L 628 0 
L 628 4666 
z
" id="DejaVuSans-45" transform="scale(0.015625)"/>
       <path d="M 1159 525 
L 1159 -1331 
L 581 -1331 
L 581 3500 
L 1159 3500 
L 1159 2969 
Q 1341 3281 1617 3432 
Q 1894 3584 2278 3584 
Q 2916 3584 3314 3078 
Q 3713 2572 3713 1747 
Q 3713 922 3314 415 
Q 2916 -91 2278 -91 
Q 1894 -91 1617 61 
Q 1341 213 1159 525 
z
M 3116 1747 
Q 3116 2381 2855 2742 
Q 2594 3103 2138 3103 
Q 1681 3103 1420 2742 
Q 1159 2381 1159 1747 
Q 1159 1113 1420 752 
Q 1681 391 2138 391 
Q 2594 391 2855 752 
Q 3116 1113 3116 1747 
z
" id="DejaVuSans-70" transform="scale(0.015625)"/>
      </defs>
      <use xlink:href="#DejaVuSans-45"/>
      <use x="63.183594" xlink:href="#DejaVuSans-75"/>
      <use x="126.5625" xlink:href="#DejaVuSans-72"/>
      <use x="165.425781" xlink:href="#DejaVuSans-6f"/>
      <use x="226.607422" xlink:href="#DejaVuSans-70"/>
      <use x="290.083984" xlink:href="#DejaVuSans-65"/>
     </g>
    </g>
    <g id="line2d_26">
     <path d="M 54.165625 55.271511 
L 70.165625 55.271511 
" style="fill:none;stroke:#937252;stroke-linecap:square;stroke-width:2;"/>
    </g>
    <g id="line2d_27"/>
    <g id="text_19">
     <!-- United Kingdom -->
     <g transform="translate(76.565625 58.071511)scale(0.08 -0.08)">
      <defs>
       <path d="M 556 4666 
L 1191 4666 
L 1191 1831 
Q 1191 1081 1462 751 
Q 1734 422 2344 422 
Q 2950 422 3222 751 
Q 3494 1081 3494 1831 
L 3494 4666 
L 4128 4666 
L 4128 1753 
Q 4128 841 3676 375 
Q 3225 -91 2344 -91 
Q 1459 -91 1007 375 
Q 556 841 556 1753 
L 556 4666 
z
" id="DejaVuSans-55" transform="scale(0.015625)"/>
       <path d="M 628 4666 
L 1259 4666 
L 1259 2694 
L 3353 4666 
L 4166 4666 
L 1850 2491 
L 4331 0 
L 3500 0 
L 1259 2247 
L 1259 0 
L 628 0 
L 628 4666 
z
" id="DejaVuSans-4b" transform="scale(0.015625)"/>
      </defs>
      <use xlink:href="#DejaVuSans-55"/>
      <use x="73.193359" xlink:href="#DejaVuSans-6e"/>
      <use x="136.572266" xlink:href="#DejaVuSans-69"/>
      <use x="164.355469" xlink:href="#DejaVuSans-74"/>
      <use x="203.564453" xlink:href="#DejaVuSans-65"/>
      <use x="265.087891" xlink:href="#DejaVuSans-64"/>
      <use x="328.564453" xlink:href="#DejaVuSans-20"/>
      <use x="360.351562" xlink:href="#DejaVuSans-4b"/>
      <use x="425.927734" xlink:href="#DejaVuSans-69"/>
      <use x="453.710938" xlink:href="#DejaVuSans-6e"/>
      <use x="517.089844" xlink:href="#DejaVuSans-67"/>
      <use x="580.566406" xlink:href="#DejaVuSans-64"/>
      <use x="644.042969" xlink:href="#DejaVuSans-6f"/>
      <use x="705.224609" xlink:href="#DejaVuSans-6d"/>
     </g>
    </g>
    <g id="line2d_28">
     <path d="M 54.165625 67.014011 
L 70.165625 67.014011 
" style="fill:none;stroke:#d18cad;stroke-linecap:square;stroke-width:2;"/>
    </g>
    <g id="line2d_29"/>
    <g id="text_20">
     <!-- Oceania -->
     <g transform="translate(76.565625 69.814011)scale(0.08 -0.08)">
      <defs>
       <path d="M 2522 4238 
Q 1834 4238 1429 3725 
Q 1025 3213 1025 2328 
Q 1025 1447 1429 934 
Q 1834 422 2522 422 
Q 3209 422 3611 934 
Q 4013 1447 4013 2328 
Q 4013 3213 3611 3725 
Q 3209 4238 2522 4238 
z
M 2522 4750 
Q 3503 4750 4090 4092 
Q 4678 3434 4678 2328 
Q 4678 1225 4090 567 
Q 3503 -91 2522 -91 
Q 1538 -91 948 565 
Q 359 1222 359 2328 
Q 359 3434 948 4092 
Q 1538 4750 2522 4750 
z
" id="DejaVuSans-4f" transform="scale(0.015625)"/>
      </defs>
      <use xlink:href="#DejaVuSans-4f"/>
      <use x="78.710938" xlink:href="#DejaVuSans-63"/>
      <use x="133.691406" xlink:href="#DejaVuSans-65"/>
      <use x="195.214844" xlink:href="#DejaVuSans-61"/>
      <use x="256.494141" xlink:href="#DejaVuSans-6e"/>
      <use x="319.873047" xlink:href="#DejaVuSans-69"/>
      <use x="347.65625" xlink:href="#DejaVuSans-61"/>
     </g>
    </g>
    <g id="line2d_30">
     <path d="M 54.165625 78.756511 
L 70.165625 78.756511 
" style="fill:none;stroke:#a4a86f;stroke-linecap:square;stroke-width:2;"/>
    </g>
    <g id="line2d_31"/>
    <g id="text_21">
     <!-- Asia -->
     <g transform="translate(76.565625 81.556511)scale(0.08 -0.08)">
      <defs>
       <path d="M 2834 3397 
L 2834 2853 
Q 2591 2978 2328 3040 
Q 2066 3103 1784 3103 
Q 1356 3103 1142 2972 
Q 928 2841 928 2578 
Q 928 2378 1081 2264 
Q 1234 2150 1697 2047 
L 1894 2003 
Q 2506 1872 2764 1633 
Q 3022 1394 3022 966 
Q 3022 478 2636 193 
Q 2250 -91 1575 -91 
Q 1294 -91 989 -36 
Q 684 19 347 128 
L 347 722 
Q 666 556 975 473 
Q 1284 391 1588 391 
Q 1994 391 2212 530 
Q 2431 669 2431 922 
Q 2431 1156 2273 1281 
Q 2116 1406 1581 1522 
L 1381 1569 
Q 847 1681 609 1914 
Q 372 2147 372 2553 
Q 372 3047 722 3315 
Q 1072 3584 1716 3584 
Q 2034 3584 2315 3537 
Q 2597 3491 2834 3397 
z
" id="DejaVuSans-73" transform="scale(0.015625)"/>
      </defs>
      <use xlink:href="#DejaVuSans-41"/>
      <use x="68.408203" xlink:href="#DejaVuSans-73"/>
      <use x="120.507812" xlink:href="#DejaVuSans-69"/>
      <use x="148.291016" xlink:href="#DejaVuSans-61"/>
     </g>
    </g>
   </g>
  </g>
 </g>
 <defs>
  <clipPath id="pb9675e5c6c">
   <rect height="221.76" width="948.6" x="46.965625" y="9.565261"/>
  </clipPath>
 </defs>
</svg>
