<?xml version="1.0" encoding="utf-8" standalone="no"?>
<!DOCTYPE svg PUBLIC "-//W3C//DTD SVG 1.1//EN"
  "http://www.w3.org/Graphics/SVG/1.1/DTD/svg11.dtd">
<!-- Created with matplotlib (https://matplotlib.org/) -->
<svg height="298.620937pt" version="1.1" viewBox="0 0 1002.765625 298.620937" width="1002.765625pt" xmlns="http://www.w3.org/2000/svg" xmlns:xlink="http://www.w3.org/1999/xlink">
 <metadata>
  <rdf:RDF xmlns:cc="http://creativecommons.org/ns#" xmlns:dc="http://purl.org/dc/elements/1.1/" xmlns:rdf="http://www.w3.org/1999/02/22-rdf-syntax-ns#">
   <cc:Work>
    <dc:type rdf:resource="http://purl.org/dc/dcmitype/StillImage"/>
    <dc:date>2021-06-04T16:07:48.019256</dc:date>
    <dc:format>image/svg+xml</dc:format>
    <dc:creator>
     <cc:Agent>
      <dc:title>Matplotlib v3.3.3, https://matplotlib.org/</dc:title>
     </cc:Agent>
    </dc:creator>
   </cc:Work>
  </rdf:RDF>
 </metadata>
 <defs>
  <style type="text/css">*{stroke-linecap:butt;stroke-linejoin:round;}</style>
 </defs>
 <g id="figure_1">
  <g id="patch_1">
   <path d="M 0 298.620937 
L 1002.765625 298.620937 
L 1002.765625 0 
L 0 0 
z
" style="fill:#ffffff;"/>
  </g>
  <g id="axes_1">
   <g id="patch_2">
    <path d="M 46.965625 228.96 
L 995.565625 228.96 
L 995.565625 7.2 
L 46.965625 7.2 
z
" style="fill:#ffffff;"/>
   </g>
   <g id="matplotlib.axis_1">
    <g id="xtick_1">
     <g id="line2d_1">
      <defs>
       <path d="M 0 0 
L 0 3.5 
" id="m0a9ce715f6" style="stroke:#000000;stroke-width:0.8;"/>
      </defs>
      <g>
       <use style="stroke:#000000;stroke-width:0.8;" x="68.251816" xlink:href="#m0a9ce715f6" y="228.96"/>
      </g>
     </g>
     <g id="text_1">
      <!-- 2020-10 -->
      <g transform="translate(71.011191 277.742812)rotate(-90)scale(0.1 -0.1)">
       <defs>
        <path d="M 19.1875 8.296875 
L 53.609375 8.296875 
L 53.609375 0 
L 7.328125 0 
L 7.328125 8.296875 
Q 12.9375 14.109375 22.625 23.890625 
Q 32.328125 33.6875 34.8125 36.53125 
Q 39.546875 41.84375 41.421875 45.53125 
Q 43.3125 49.21875 43.3125 52.78125 
Q 43.3125 58.59375 39.234375 62.25 
Q 35.15625 65.921875 28.609375 65.921875 
Q 23.96875 65.921875 18.8125 64.3125 
Q 13.671875 62.703125 7.8125 59.421875 
L 7.8125 69.390625 
Q 13.765625 71.78125 18.9375 73 
Q 24.125 74.21875 28.421875 74.21875 
Q 39.75 74.21875 46.484375 68.546875 
Q 53.21875 62.890625 53.21875 53.421875 
Q 53.21875 48.921875 51.53125 44.890625 
Q 49.859375 40.875 45.40625 35.40625 
Q 44.1875 33.984375 37.640625 27.21875 
Q 31.109375 20.453125 19.1875 8.296875 
z
" id="DejaVuSans-50"/>
        <path d="M 31.78125 66.40625 
Q 24.171875 66.40625 20.328125 58.90625 
Q 16.5 51.421875 16.5 36.375 
Q 16.5 21.390625 20.328125 13.890625 
Q 24.171875 6.390625 31.78125 6.390625 
Q 39.453125 6.390625 43.28125 13.890625 
Q 47.125 21.390625 47.125 36.375 
Q 47.125 51.421875 43.28125 58.90625 
Q 39.453125 66.40625 31.78125 66.40625 
z
M 31.78125 74.21875 
Q 44.046875 74.21875 50.515625 64.515625 
Q 56.984375 54.828125 56.984375 36.375 
Q 56.984375 17.96875 50.515625 8.265625 
Q 44.046875 -1.421875 31.78125 -1.421875 
Q 19.53125 -1.421875 13.0625 8.265625 
Q 6.59375 17.96875 6.59375 36.375 
Q 6.59375 54.828125 13.0625 64.515625 
Q 19.53125 74.21875 31.78125 74.21875 
z
" id="DejaVuSans-48"/>
        <path d="M 4.890625 31.390625 
L 31.203125 31.390625 
L 31.203125 23.390625 
L 4.890625 23.390625 
z
" id="DejaVuSans-45"/>
        <path d="M 12.40625 8.296875 
L 28.515625 8.296875 
L 28.515625 63.921875 
L 10.984375 60.40625 
L 10.984375 69.390625 
L 28.421875 72.90625 
L 38.28125 72.90625 
L 38.28125 8.296875 
L 54.390625 8.296875 
L 54.390625 0 
L 12.40625 0 
z
" id="DejaVuSans-49"/>
       </defs>
       <use xlink:href="#DejaVuSans-50"/>
       <use x="63.623047" xlink:href="#DejaVuSans-48"/>
       <use x="127.246094" xlink:href="#DejaVuSans-50"/>
       <use x="190.869141" xlink:href="#DejaVuSans-48"/>
       <use x="254.492188" xlink:href="#DejaVuSans-45"/>
       <use x="290.576172" xlink:href="#DejaVuSans-49"/>
       <use x="354.199219" xlink:href="#DejaVuSans-48"/>
      </g>
     </g>
    </g>
    <g id="xtick_2">
     <g id="line2d_2">
      <g>
       <use style="stroke:#000000;stroke-width:0.8;" x="181.050435" xlink:href="#m0a9ce715f6" y="228.96"/>
      </g>
     </g>
     <g id="text_2">
      <!-- 2020-11 -->
      <g transform="translate(183.80981 277.742812)rotate(-90)scale(0.1 -0.1)">
       <use xlink:href="#DejaVuSans-50"/>
       <use x="63.623047" xlink:href="#DejaVuSans-48"/>
       <use x="127.246094" xlink:href="#DejaVuSans-50"/>
       <use x="190.869141" xlink:href="#DejaVuSans-48"/>
       <use x="254.492188" xlink:href="#DejaVuSans-45"/>
       <use x="290.576172" xlink:href="#DejaVuSans-49"/>
       <use x="354.199219" xlink:href="#DejaVuSans-49"/>
      </g>
     </g>
    </g>
    <g id="xtick_3">
     <g id="line2d_3">
      <g>
       <use style="stroke:#000000;stroke-width:0.8;" x="290.210389" xlink:href="#m0a9ce715f6" y="228.96"/>
      </g>
     </g>
     <g id="text_3">
      <!-- 2020-12 -->
      <g transform="translate(292.969764 277.742812)rotate(-90)scale(0.1 -0.1)">
       <use xlink:href="#DejaVuSans-50"/>
       <use x="63.623047" xlink:href="#DejaVuSans-48"/>
       <use x="127.246094" xlink:href="#DejaVuSans-50"/>
       <use x="190.869141" xlink:href="#DejaVuSans-48"/>
       <use x="254.492188" xlink:href="#DejaVuSans-45"/>
       <use x="290.576172" xlink:href="#DejaVuSans-49"/>
       <use x="354.199219" xlink:href="#DejaVuSans-50"/>
      </g>
     </g>
    </g>
    <g id="xtick_4">
     <g id="line2d_4">
      <g>
       <use style="stroke:#000000;stroke-width:0.8;" x="403.009008" xlink:href="#m0a9ce715f6" y="228.96"/>
      </g>
     </g>
     <g id="text_4">
      <!-- 2021-01 -->
      <g transform="translate(405.768383 277.742812)rotate(-90)scale(0.1 -0.1)">
       <use xlink:href="#DejaVuSans-50"/>
       <use x="63.623047" xlink:href="#DejaVuSans-48"/>
       <use x="127.246094" xlink:href="#DejaVuSans-50"/>
       <use x="190.869141" xlink:href="#DejaVuSans-49"/>
       <use x="254.492188" xlink:href="#DejaVuSans-45"/>
       <use x="290.576172" xlink:href="#DejaVuSans-48"/>
       <use x="354.199219" xlink:href="#DejaVuSans-49"/>
      </g>
     </g>
    </g>
    <g id="xtick_5">
     <g id="line2d_5">
      <g>
       <use style="stroke:#000000;stroke-width:0.8;" x="515.807627" xlink:href="#m0a9ce715f6" y="228.96"/>
      </g>
     </g>
     <g id="text_5">
      <!-- 2021-02 -->
      <g transform="translate(518.567002 277.742812)rotate(-90)scale(0.1 -0.1)">
       <use xlink:href="#DejaVuSans-50"/>
       <use x="63.623047" xlink:href="#DejaVuSans-48"/>
       <use x="127.246094" xlink:href="#DejaVuSans-50"/>
       <use x="190.869141" xlink:href="#DejaVuSans-49"/>
       <use x="254.492188" xlink:href="#DejaVuSans-45"/>
       <use x="290.576172" xlink:href="#DejaVuSans-48"/>
       <use x="354.199219" xlink:href="#DejaVuSans-50"/>
      </g>
     </g>
    </g>
    <g id="xtick_6">
     <g id="line2d_6">
      <g>
       <use style="stroke:#000000;stroke-width:0.8;" x="617.690251" xlink:href="#m0a9ce715f6" y="228.96"/>
      </g>
     </g>
     <g id="text_6">
      <!-- 2021-03 -->
      <g transform="translate(620.449626 277.742812)rotate(-90)scale(0.1 -0.1)">
       <defs>
        <path d="M 40.578125 39.3125 
Q 47.65625 37.796875 51.625 33 
Q 55.609375 28.21875 55.609375 21.1875 
Q 55.609375 10.40625 48.1875 4.484375 
Q 40.765625 -1.421875 27.09375 -1.421875 
Q 22.515625 -1.421875 17.65625 -0.515625 
Q 12.796875 0.390625 7.625 2.203125 
L 7.625 11.71875 
Q 11.71875 9.328125 16.59375 8.109375 
Q 21.484375 6.890625 26.8125 6.890625 
Q 36.078125 6.890625 40.9375 10.546875 
Q 45.796875 14.203125 45.796875 21.1875 
Q 45.796875 27.640625 41.28125 31.265625 
Q 36.765625 34.90625 28.71875 34.90625 
L 20.21875 34.90625 
L 20.21875 43.015625 
L 29.109375 43.015625 
Q 36.375 43.015625 40.234375 45.921875 
Q 44.09375 48.828125 44.09375 54.296875 
Q 44.09375 59.90625 40.109375 62.90625 
Q 36.140625 65.921875 28.71875 65.921875 
Q 24.65625 65.921875 20.015625 65.03125 
Q 15.375 64.15625 9.8125 62.3125 
L 9.8125 71.09375 
Q 15.4375 72.65625 20.34375 73.4375 
Q 25.25 74.21875 29.59375 74.21875 
Q 40.828125 74.21875 47.359375 69.109375 
Q 53.90625 64.015625 53.90625 55.328125 
Q 53.90625 49.265625 50.4375 45.09375 
Q 46.96875 40.921875 40.578125 39.3125 
z
" id="DejaVuSans-51"/>
       </defs>
       <use xlink:href="#DejaVuSans-50"/>
       <use x="63.623047" xlink:href="#DejaVuSans-48"/>
       <use x="127.246094" xlink:href="#DejaVuSans-50"/>
       <use x="190.869141" xlink:href="#DejaVuSans-49"/>
       <use x="254.492188" xlink:href="#DejaVuSans-45"/>
       <use x="290.576172" xlink:href="#DejaVuSans-48"/>
       <use x="354.199219" xlink:href="#DejaVuSans-51"/>
      </g>
     </g>
    </g>
    <g id="xtick_7">
     <g id="line2d_7">
      <g>
       <use style="stroke:#000000;stroke-width:0.8;" x="730.48887" xlink:href="#m0a9ce715f6" y="228.96"/>
      </g>
     </g>
     <g id="text_7">
      <!-- 2021-04 -->
      <g transform="translate(733.248245 277.742812)rotate(-90)scale(0.1 -0.1)">
       <defs>
        <path d="M 37.796875 64.3125 
L 12.890625 25.390625 
L 37.796875 25.390625 
z
M 35.203125 72.90625 
L 47.609375 72.90625 
L 47.609375 25.390625 
L 58.015625 25.390625 
L 58.015625 17.1875 
L 47.609375 17.1875 
L 47.609375 0 
L 37.796875 0 
L 37.796875 17.1875 
L 4.890625 17.1875 
L 4.890625 26.703125 
z
" id="DejaVuSans-52"/>
       </defs>
       <use xlink:href="#DejaVuSans-50"/>
       <use x="63.623047" xlink:href="#DejaVuSans-48"/>
       <use x="127.246094" xlink:href="#DejaVuSans-50"/>
       <use x="190.869141" xlink:href="#DejaVuSans-49"/>
       <use x="254.492188" xlink:href="#DejaVuSans-45"/>
       <use x="290.576172" xlink:href="#DejaVuSans-48"/>
       <use x="354.199219" xlink:href="#DejaVuSans-52"/>
      </g>
     </g>
    </g>
    <g id="xtick_8">
     <g id="line2d_8">
      <g>
       <use style="stroke:#000000;stroke-width:0.8;" x="839.648824" xlink:href="#m0a9ce715f6" y="228.96"/>
      </g>
     </g>
     <g id="text_8">
      <!-- 2021-05 -->
      <g transform="translate(842.408199 277.742812)rotate(-90)scale(0.1 -0.1)">
       <defs>
        <path d="M 10.796875 72.90625 
L 49.515625 72.90625 
L 49.515625 64.59375 
L 19.828125 64.59375 
L 19.828125 46.734375 
Q 21.96875 47.46875 24.109375 47.828125 
Q 26.265625 48.1875 28.421875 48.1875 
Q 40.625 48.1875 47.75 41.5 
Q 54.890625 34.8125 54.890625 23.390625 
Q 54.890625 11.625 47.5625 5.09375 
Q 40.234375 -1.421875 26.90625 -1.421875 
Q 22.3125 -1.421875 17.546875 -0.640625 
Q 12.796875 0.140625 7.71875 1.703125 
L 7.71875 11.625 
Q 12.109375 9.234375 16.796875 8.0625 
Q 21.484375 6.890625 26.703125 6.890625 
Q 35.15625 6.890625 40.078125 11.328125 
Q 45.015625 15.765625 45.015625 23.390625 
Q 45.015625 31 40.078125 35.4375 
Q 35.15625 39.890625 26.703125 39.890625 
Q 22.75 39.890625 18.8125 39.015625 
Q 14.890625 38.140625 10.796875 36.28125 
z
" id="DejaVuSans-53"/>
       </defs>
       <use xlink:href="#DejaVuSans-50"/>
       <use x="63.623047" xlink:href="#DejaVuSans-48"/>
       <use x="127.246094" xlink:href="#DejaVuSans-50"/>
       <use x="190.869141" xlink:href="#DejaVuSans-49"/>
       <use x="254.492188" xlink:href="#DejaVuSans-45"/>
       <use x="290.576172" xlink:href="#DejaVuSans-48"/>
       <use x="354.199219" xlink:href="#DejaVuSans-53"/>
      </g>
     </g>
    </g>
    <g id="xtick_9">
     <g id="line2d_9">
      <g>
       <use style="stroke:#000000;stroke-width:0.8;" x="952.447443" xlink:href="#m0a9ce715f6" y="228.96"/>
      </g>
     </g>
     <g id="text_9">
      <!-- 2021-06 -->
      <g transform="translate(955.206818 277.742812)rotate(-90)scale(0.1 -0.1)">
       <defs>
        <path d="M 33.015625 40.375 
Q 26.375 40.375 22.484375 35.828125 
Q 18.609375 31.296875 18.609375 23.390625 
Q 18.609375 15.53125 22.484375 10.953125 
Q 26.375 6.390625 33.015625 6.390625 
Q 39.65625 6.390625 43.53125 10.953125 
Q 47.40625 15.53125 47.40625 23.390625 
Q 47.40625 31.296875 43.53125 35.828125 
Q 39.65625 40.375 33.015625 40.375 
z
M 52.59375 71.296875 
L 52.59375 62.3125 
Q 48.875 64.0625 45.09375 64.984375 
Q 41.3125 65.921875 37.59375 65.921875 
Q 27.828125 65.921875 22.671875 59.328125 
Q 17.53125 52.734375 16.796875 39.40625 
Q 19.671875 43.65625 24.015625 45.921875 
Q 28.375 48.1875 33.59375 48.1875 
Q 44.578125 48.1875 50.953125 41.515625 
Q 57.328125 34.859375 57.328125 23.390625 
Q 57.328125 12.15625 50.6875 5.359375 
Q 44.046875 -1.421875 33.015625 -1.421875 
Q 20.359375 -1.421875 13.671875 8.265625 
Q 6.984375 17.96875 6.984375 36.375 
Q 6.984375 53.65625 15.1875 63.9375 
Q 23.390625 74.21875 37.203125 74.21875 
Q 40.921875 74.21875 44.703125 73.484375 
Q 48.484375 72.75 52.59375 71.296875 
z
" id="DejaVuSans-54"/>
       </defs>
       <use xlink:href="#DejaVuSans-50"/>
       <use x="63.623047" xlink:href="#DejaVuSans-48"/>
       <use x="127.246094" xlink:href="#DejaVuSans-50"/>
       <use x="190.869141" xlink:href="#DejaVuSans-49"/>
       <use x="254.492188" xlink:href="#DejaVuSans-45"/>
       <use x="290.576172" xlink:href="#DejaVuSans-48"/>
       <use x="354.199219" xlink:href="#DejaVuSans-54"/>
      </g>
     </g>
    </g>
    <g id="text_10">
     <!-- Date -->
     <g transform="translate(509.314844 289.34125)scale(0.1 -0.1)">
      <defs>
       <path d="M 19.671875 64.796875 
L 19.671875 8.109375 
L 31.59375 8.109375 
Q 46.6875 8.109375 53.6875 14.9375 
Q 60.6875 21.78125 60.6875 36.53125 
Q 60.6875 51.171875 53.6875 57.984375 
Q 46.6875 64.796875 31.59375 64.796875 
z
M 9.8125 72.90625 
L 30.078125 72.90625 
Q 51.265625 72.90625 61.171875 64.09375 
Q 71.09375 55.28125 71.09375 36.53125 
Q 71.09375 17.671875 61.125 8.828125 
Q 51.171875 0 30.078125 0 
L 9.8125 0 
z
" id="DejaVuSans-68"/>
       <path d="M 34.28125 27.484375 
Q 23.390625 27.484375 19.1875 25 
Q 14.984375 22.515625 14.984375 16.5 
Q 14.984375 11.71875 18.140625 8.90625 
Q 21.296875 6.109375 26.703125 6.109375 
Q 34.1875 6.109375 38.703125 11.40625 
Q 43.21875 16.703125 43.21875 25.484375 
L 43.21875 27.484375 
z
M 52.203125 31.203125 
L 52.203125 0 
L 43.21875 0 
L 43.21875 8.296875 
Q 40.140625 3.328125 35.546875 0.953125 
Q 30.953125 -1.421875 24.3125 -1.421875 
Q 15.921875 -1.421875 10.953125 3.296875 
Q 6 8.015625 6 15.921875 
Q 6 25.140625 12.171875 29.828125 
Q 18.359375 34.515625 30.609375 34.515625 
L 43.21875 34.515625 
L 43.21875 35.40625 
Q 43.21875 41.609375 39.140625 45 
Q 35.0625 48.390625 27.6875 48.390625 
Q 23 48.390625 18.546875 47.265625 
Q 14.109375 46.140625 10.015625 43.890625 
L 10.015625 52.203125 
Q 14.9375 54.109375 19.578125 55.046875 
Q 24.21875 56 28.609375 56 
Q 40.484375 56 46.34375 49.84375 
Q 52.203125 43.703125 52.203125 31.203125 
z
" id="DejaVuSans-97"/>
       <path d="M 18.3125 70.21875 
L 18.3125 54.6875 
L 36.8125 54.6875 
L 36.8125 47.703125 
L 18.3125 47.703125 
L 18.3125 18.015625 
Q 18.3125 11.328125 20.140625 9.421875 
Q 21.96875 7.515625 27.59375 7.515625 
L 36.8125 7.515625 
L 36.8125 0 
L 27.59375 0 
Q 17.1875 0 13.234375 3.875 
Q 9.28125 7.765625 9.28125 18.015625 
L 9.28125 47.703125 
L 2.6875 47.703125 
L 2.6875 54.6875 
L 9.28125 54.6875 
L 9.28125 70.21875 
z
" id="DejaVuSans-116"/>
       <path d="M 56.203125 29.59375 
L 56.203125 25.203125 
L 14.890625 25.203125 
Q 15.484375 15.921875 20.484375 11.0625 
Q 25.484375 6.203125 34.421875 6.203125 
Q 39.59375 6.203125 44.453125 7.46875 
Q 49.3125 8.734375 54.109375 11.28125 
L 54.109375 2.78125 
Q 49.265625 0.734375 44.1875 -0.34375 
Q 39.109375 -1.421875 33.890625 -1.421875 
Q 20.796875 -1.421875 13.15625 6.1875 
Q 5.515625 13.8125 5.515625 26.8125 
Q 5.515625 40.234375 12.765625 48.109375 
Q 20.015625 56 32.328125 56 
Q 43.359375 56 49.78125 48.890625 
Q 56.203125 41.796875 56.203125 29.59375 
z
M 47.21875 32.234375 
Q 47.125 39.59375 43.09375 43.984375 
Q 39.0625 48.390625 32.421875 48.390625 
Q 24.90625 48.390625 20.390625 44.140625 
Q 15.875 39.890625 15.1875 32.171875 
z
" id="DejaVuSans-101"/>
      </defs>
      <use xlink:href="#DejaVuSans-68"/>
      <use x="77.001953" xlink:href="#DejaVuSans-97"/>
      <use x="138.28125" xlink:href="#DejaVuSans-116"/>
      <use x="177.490234" xlink:href="#DejaVuSans-101"/>
     </g>
    </g>
   </g>
   <g id="matplotlib.axis_2">
    <g id="ytick_1">
     <g id="line2d_10">
      <defs>
       <path d="M 0 0 
L -3.5 0 
" id="m43b9017c73" style="stroke:#000000;stroke-width:0.8;"/>
      </defs>
      <g>
       <use style="stroke:#000000;stroke-width:0.8;" x="46.965625" xlink:href="#m43b9017c73" y="228.96"/>
      </g>
     </g>
     <g id="text_11">
      <!-- 1 -->
      <g transform="translate(33.603125 232.759219)scale(0.1 -0.1)">
       <use xlink:href="#DejaVuSans-49"/>
      </g>
     </g>
    </g>
    <g id="ytick_2">
     <g id="line2d_11">
      <g>
       <use style="stroke:#000000;stroke-width:0.8;" x="46.965625" xlink:href="#m43b9017c73" y="185.701413"/>
      </g>
     </g>
     <g id="text_12">
      <!-- 3 -->
      <g transform="translate(33.603125 189.500632)scale(0.1 -0.1)">
       <use xlink:href="#DejaVuSans-51"/>
      </g>
     </g>
    </g>
    <g id="ytick_3">
     <g id="line2d_12">
      <g>
       <use style="stroke:#000000;stroke-width:0.8;" x="46.965625" xlink:href="#m43b9017c73" y="142.442826"/>
      </g>
     </g>
     <g id="text_13">
      <!-- 10 -->
      <g transform="translate(27.240625 146.242044)scale(0.1 -0.1)">
       <use xlink:href="#DejaVuSans-49"/>
       <use x="63.623047" xlink:href="#DejaVuSans-48"/>
      </g>
     </g>
    </g>
    <g id="ytick_4">
     <g id="line2d_13">
      <g>
       <use style="stroke:#000000;stroke-width:0.8;" x="46.965625" xlink:href="#m43b9017c73" y="99.184238"/>
      </g>
     </g>
     <g id="text_14">
      <!-- 31 -->
      <g transform="translate(27.240625 102.983457)scale(0.1 -0.1)">
       <use xlink:href="#DejaVuSans-51"/>
       <use x="63.623047" xlink:href="#DejaVuSans-49"/>
      </g>
     </g>
    </g>
    <g id="ytick_5">
     <g id="line2d_14">
      <g>
       <use style="stroke:#000000;stroke-width:0.8;" x="46.965625" xlink:href="#m43b9017c73" y="55.925651"/>
      </g>
     </g>
     <g id="text_15">
      <!-- 100 -->
      <g transform="translate(20.878125 59.72487)scale(0.1 -0.1)">
       <use xlink:href="#DejaVuSans-49"/>
       <use x="63.623047" xlink:href="#DejaVuSans-48"/>
       <use x="127.246094" xlink:href="#DejaVuSans-48"/>
      </g>
     </g>
    </g>
    <g id="ytick_6">
     <g id="line2d_15">
      <g>
       <use style="stroke:#000000;stroke-width:0.8;" x="46.965625" xlink:href="#m43b9017c73" y="12.667064"/>
      </g>
     </g>
     <g id="text_16">
      <!-- 316 -->
      <g transform="translate(20.878125 16.466283)scale(0.1 -0.1)">
       <use xlink:href="#DejaVuSans-51"/>
       <use x="63.623047" xlink:href="#DejaVuSans-49"/>
       <use x="127.246094" xlink:href="#DejaVuSans-54"/>
      </g>
     </g>
    </g>
    <g id="text_17">
     <!-- Count (7 day rolling average) -->
     <g transform="translate(14.798438 191.547969)rotate(-90)scale(0.1 -0.1)">
      <defs>
       <path d="M 64.40625 67.28125 
L 64.40625 56.890625 
Q 59.421875 61.53125 53.78125 63.8125 
Q 48.140625 66.109375 41.796875 66.109375 
Q 29.296875 66.109375 22.65625 58.46875 
Q 16.015625 50.828125 16.015625 36.375 
Q 16.015625 21.96875 22.65625 14.328125 
Q 29.296875 6.6875 41.796875 6.6875 
Q 48.140625 6.6875 53.78125 8.984375 
Q 59.421875 11.28125 64.40625 15.921875 
L 64.40625 5.609375 
Q 59.234375 2.09375 53.4375 0.328125 
Q 47.65625 -1.421875 41.21875 -1.421875 
Q 24.65625 -1.421875 15.125 8.703125 
Q 5.609375 18.84375 5.609375 36.375 
Q 5.609375 53.953125 15.125 64.078125 
Q 24.65625 74.21875 41.21875 74.21875 
Q 47.75 74.21875 53.53125 72.484375 
Q 59.328125 70.75 64.40625 67.28125 
z
" id="DejaVuSans-67"/>
       <path d="M 30.609375 48.390625 
Q 23.390625 48.390625 19.1875 42.75 
Q 14.984375 37.109375 14.984375 27.296875 
Q 14.984375 17.484375 19.15625 11.84375 
Q 23.34375 6.203125 30.609375 6.203125 
Q 37.796875 6.203125 41.984375 11.859375 
Q 46.1875 17.53125 46.1875 27.296875 
Q 46.1875 37.015625 41.984375 42.703125 
Q 37.796875 48.390625 30.609375 48.390625 
z
M 30.609375 56 
Q 42.328125 56 49.015625 48.375 
Q 55.71875 40.765625 55.71875 27.296875 
Q 55.71875 13.875 49.015625 6.21875 
Q 42.328125 -1.421875 30.609375 -1.421875 
Q 18.84375 -1.421875 12.171875 6.21875 
Q 5.515625 13.875 5.515625 27.296875 
Q 5.515625 40.765625 12.171875 48.375 
Q 18.84375 56 30.609375 56 
z
" id="DejaVuSans-111"/>
       <path d="M 8.5 21.578125 
L 8.5 54.6875 
L 17.484375 54.6875 
L 17.484375 21.921875 
Q 17.484375 14.15625 20.5 10.265625 
Q 23.53125 6.390625 29.59375 6.390625 
Q 36.859375 6.390625 41.078125 11.03125 
Q 45.3125 15.671875 45.3125 23.6875 
L 45.3125 54.6875 
L 54.296875 54.6875 
L 54.296875 0 
L 45.3125 0 
L 45.3125 8.40625 
Q 42.046875 3.421875 37.71875 1 
Q 33.40625 -1.421875 27.6875 -1.421875 
Q 18.265625 -1.421875 13.375 4.4375 
Q 8.5 10.296875 8.5 21.578125 
z
M 31.109375 56 
z
" id="DejaVuSans-117"/>
       <path d="M 54.890625 33.015625 
L 54.890625 0 
L 45.90625 0 
L 45.90625 32.71875 
Q 45.90625 40.484375 42.875 44.328125 
Q 39.84375 48.1875 33.796875 48.1875 
Q 26.515625 48.1875 22.3125 43.546875 
Q 18.109375 38.921875 18.109375 30.90625 
L 18.109375 0 
L 9.078125 0 
L 9.078125 54.6875 
L 18.109375 54.6875 
L 18.109375 46.1875 
Q 21.34375 51.125 25.703125 53.5625 
Q 30.078125 56 35.796875 56 
Q 45.21875 56 50.046875 50.171875 
Q 54.890625 44.34375 54.890625 33.015625 
z
" id="DejaVuSans-110"/>
       <path id="DejaVuSans-32"/>
       <path d="M 31 75.875 
Q 24.46875 64.65625 21.28125 53.65625 
Q 18.109375 42.671875 18.109375 31.390625 
Q 18.109375 20.125 21.3125 9.0625 
Q 24.515625 -2 31 -13.1875 
L 23.1875 -13.1875 
Q 15.875 -1.703125 12.234375 9.375 
Q 8.59375 20.453125 8.59375 31.390625 
Q 8.59375 42.28125 12.203125 53.3125 
Q 15.828125 64.359375 23.1875 75.875 
z
" id="DejaVuSans-40"/>
       <path d="M 8.203125 72.90625 
L 55.078125 72.90625 
L 55.078125 68.703125 
L 28.609375 0 
L 18.3125 0 
L 43.21875 64.59375 
L 8.203125 64.59375 
z
" id="DejaVuSans-55"/>
       <path d="M 45.40625 46.390625 
L 45.40625 75.984375 
L 54.390625 75.984375 
L 54.390625 0 
L 45.40625 0 
L 45.40625 8.203125 
Q 42.578125 3.328125 38.25 0.953125 
Q 33.9375 -1.421875 27.875 -1.421875 
Q 17.96875 -1.421875 11.734375 6.484375 
Q 5.515625 14.40625 5.515625 27.296875 
Q 5.515625 40.1875 11.734375 48.09375 
Q 17.96875 56 27.875 56 
Q 33.9375 56 38.25 53.625 
Q 42.578125 51.265625 45.40625 46.390625 
z
M 14.796875 27.296875 
Q 14.796875 17.390625 18.875 11.75 
Q 22.953125 6.109375 30.078125 6.109375 
Q 37.203125 6.109375 41.296875 11.75 
Q 45.40625 17.390625 45.40625 27.296875 
Q 45.40625 37.203125 41.296875 42.84375 
Q 37.203125 48.484375 30.078125 48.484375 
Q 22.953125 48.484375 18.875 42.84375 
Q 14.796875 37.203125 14.796875 27.296875 
z
" id="DejaVuSans-100"/>
       <path d="M 32.171875 -5.078125 
Q 28.375 -14.84375 24.75 -17.8125 
Q 21.140625 -20.796875 15.09375 -20.796875 
L 7.90625 -20.796875 
L 7.90625 -13.28125 
L 13.1875 -13.28125 
Q 16.890625 -13.28125 18.9375 -11.515625 
Q 21 -9.765625 23.484375 -3.21875 
L 25.09375 0.875 
L 2.984375 54.6875 
L 12.5 54.6875 
L 29.59375 11.921875 
L 46.6875 54.6875 
L 56.203125 54.6875 
z
" id="DejaVuSans-121"/>
       <path d="M 41.109375 46.296875 
Q 39.59375 47.171875 37.8125 47.578125 
Q 36.03125 48 33.890625 48 
Q 26.265625 48 22.1875 43.046875 
Q 18.109375 38.09375 18.109375 28.8125 
L 18.109375 0 
L 9.078125 0 
L 9.078125 54.6875 
L 18.109375 54.6875 
L 18.109375 46.1875 
Q 20.953125 51.171875 25.484375 53.578125 
Q 30.03125 56 36.53125 56 
Q 37.453125 56 38.578125 55.875 
Q 39.703125 55.765625 41.0625 55.515625 
z
" id="DejaVuSans-114"/>
       <path d="M 9.421875 75.984375 
L 18.40625 75.984375 
L 18.40625 0 
L 9.421875 0 
z
" id="DejaVuSans-108"/>
       <path d="M 9.421875 54.6875 
L 18.40625 54.6875 
L 18.40625 0 
L 9.421875 0 
z
M 9.421875 75.984375 
L 18.40625 75.984375 
L 18.40625 64.59375 
L 9.421875 64.59375 
z
" id="DejaVuSans-105"/>
       <path d="M 45.40625 27.984375 
Q 45.40625 37.75 41.375 43.109375 
Q 37.359375 48.484375 30.078125 48.484375 
Q 22.859375 48.484375 18.828125 43.109375 
Q 14.796875 37.75 14.796875 27.984375 
Q 14.796875 18.265625 18.828125 12.890625 
Q 22.859375 7.515625 30.078125 7.515625 
Q 37.359375 7.515625 41.375 12.890625 
Q 45.40625 18.265625 45.40625 27.984375 
z
M 54.390625 6.78125 
Q 54.390625 -7.171875 48.1875 -13.984375 
Q 42 -20.796875 29.203125 -20.796875 
Q 24.46875 -20.796875 20.265625 -20.09375 
Q 16.0625 -19.390625 12.109375 -17.921875 
L 12.109375 -9.1875 
Q 16.0625 -11.328125 19.921875 -12.34375 
Q 23.78125 -13.375 27.78125 -13.375 
Q 36.625 -13.375 41.015625 -8.765625 
Q 45.40625 -4.15625 45.40625 5.171875 
L 45.40625 9.625 
Q 42.625 4.78125 38.28125 2.390625 
Q 33.9375 0 27.875 0 
Q 17.828125 0 11.671875 7.65625 
Q 5.515625 15.328125 5.515625 27.984375 
Q 5.515625 40.671875 11.671875 48.328125 
Q 17.828125 56 27.875 56 
Q 33.9375 56 38.28125 53.609375 
Q 42.625 51.21875 45.40625 46.390625 
L 45.40625 54.6875 
L 54.390625 54.6875 
z
" id="DejaVuSans-103"/>
       <path d="M 2.984375 54.6875 
L 12.5 54.6875 
L 29.59375 8.796875 
L 46.6875 54.6875 
L 56.203125 54.6875 
L 35.6875 0 
L 23.484375 0 
z
" id="DejaVuSans-118"/>
       <path d="M 8.015625 75.875 
L 15.828125 75.875 
Q 23.140625 64.359375 26.78125 53.3125 
Q 30.421875 42.28125 30.421875 31.390625 
Q 30.421875 20.453125 26.78125 9.375 
Q 23.140625 -1.703125 15.828125 -13.1875 
L 8.015625 -13.1875 
Q 14.5 -2 17.703125 9.0625 
Q 20.90625 20.125 20.90625 31.390625 
Q 20.90625 42.671875 17.703125 53.65625 
Q 14.5 64.65625 8.015625 75.875 
z
" id="DejaVuSans-41"/>
      </defs>
      <use xlink:href="#DejaVuSans-67"/>
      <use x="69.824219" xlink:href="#DejaVuSans-111"/>
      <use x="131.005859" xlink:href="#DejaVuSans-117"/>
      <use x="194.384766" xlink:href="#DejaVuSans-110"/>
      <use x="257.763672" xlink:href="#DejaVuSans-116"/>
      <use x="296.972656" xlink:href="#DejaVuSans-32"/>
      <use x="328.759766" xlink:href="#DejaVuSans-40"/>
      <use x="367.773438" xlink:href="#DejaVuSans-55"/>
      <use x="431.396484" xlink:href="#DejaVuSans-32"/>
      <use x="463.183594" xlink:href="#DejaVuSans-100"/>
      <use x="526.660156" xlink:href="#DejaVuSans-97"/>
      <use x="587.939453" xlink:href="#DejaVuSans-121"/>
      <use x="647.119141" xlink:href="#DejaVuSans-32"/>
      <use x="678.90625" xlink:href="#DejaVuSans-114"/>
      <use x="717.769531" xlink:href="#DejaVuSans-111"/>
      <use x="778.951172" xlink:href="#DejaVuSans-108"/>
      <use x="806.734375" xlink:href="#DejaVuSans-108"/>
      <use x="834.517578" xlink:href="#DejaVuSans-105"/>
      <use x="862.300781" xlink:href="#DejaVuSans-110"/>
      <use x="925.679688" xlink:href="#DejaVuSans-103"/>
      <use x="989.15625" xlink:href="#DejaVuSans-32"/>
      <use x="1020.943359" xlink:href="#DejaVuSans-97"/>
      <use x="1082.222656" xlink:href="#DejaVuSans-118"/>
      <use x="1141.402344" xlink:href="#DejaVuSans-101"/>
      <use x="1202.925781" xlink:href="#DejaVuSans-114"/>
      <use x="1244.039062" xlink:href="#DejaVuSans-97"/>
      <use x="1305.318359" xlink:href="#DejaVuSans-103"/>
      <use x="1368.794922" xlink:href="#DejaVuSans-101"/>
      <use x="1430.318359" xlink:href="#DejaVuSans-41"/>
     </g>
    </g>
   </g>
   <g id="line2d_16">
    <path clip-path="url(#p2ce4e6e227)" d="M 453.95032 211.977142 
L 457.588985 215.55832 
L 461.22765 208.707782 
L 464.866315 215.55832 
L 468.504981 208.707782 
L 472.143646 205.700263 
L 475.782311 208.707782 
L 483.059641 208.707782 
L 486.698306 215.55832 
L 490.336971 215.55832 
L 493.975637 223.942701 
L 497.614302 223.942701 
L 501.252967 219.517129 
L 523.084958 219.517129 
L 526.723623 223.942701 
L 530.362288 219.517129 
L 534.000953 215.55832 
L 537.639618 211.977142 
L 541.278283 200.323402 
L 544.916948 200.323402 
L 548.555613 197.898436 
L 552.194279 193.472864 
L 555.832944 195.620531 
L 566.748939 195.620531 
L 570.387604 191.441346 
L 577.664935 195.620531 
L 581.3036 193.472864 
L 584.942265 187.680817 
L 588.58093 189.514055 
L 592.219595 185.932877 
L 595.85826 182.663518 
L 599.496925 171.854171 
L 603.13559 166.399112 
L 606.774256 165.397082 
L 610.412921 168.48709 
L 614.051586 166.399112 
L 617.690251 163.469791 
L 621.328916 151.504232 
L 624.967581 147.00283 
L 628.606246 144.653694 
L 632.244912 138.376816 
L 635.883577 135.147621 
L 643.160907 130.968436 
L 646.799572 129.041146 
L 650.438237 130.968436 
L 654.076902 127.930505 
L 657.715567 118.325852 
L 661.354233 112.574185 
L 664.992898 111.616836 
L 668.631563 105.522178 
L 672.270228 101.163643 
L 675.908893 97.420158 
L 679.547558 93.283618 
L 683.186223 91.031322 
L 686.824889 88.139593 
L 690.463554 82.729011 
L 697.740884 76.024818 
L 701.379549 69.404091 
L 705.018214 65.330201 
L 708.656879 62.476793 
L 712.295544 60.91229 
L 715.93421 60.063811 
L 719.572875 54.297455 
L 723.21154 51.380986 
L 726.850205 47.455485 
L 730.48887 42.001584 
L 734.127535 38.636621 
L 737.7662 36.979653 
L 741.404866 35.861774 
L 745.043531 32.956062 
L 752.320861 28.124908 
L 755.959526 27.869649 
L 759.598191 25.791299 
L 763.236856 23.2102 
L 770.514187 19.490357 
L 774.152852 18.44657 
L 777.791517 18.170435 
L 781.430182 17.76 
L 785.068847 18.28853 
L 788.707512 19.045211 
L 792.346177 20.04398 
L 795.984842 19.490357 
L 799.623508 20.04398 
L 803.262173 20.334288 
L 806.900838 20.126697 
L 814.178168 20.375944 
L 817.816833 20.147404 
L 821.455498 21.070025 
L 825.094164 20.085316 
L 828.732829 20.689847 
L 832.371494 20.438515 
L 836.010159 19.837982 
L 839.648824 20.106001 
L 843.287489 20.147404 
L 846.926154 20.543033 
L 850.564819 21.155034 
L 854.203485 20.92172 
L 857.84215 22.321886 
L 861.480815 24.536745 
L 865.11948 25.935999 
L 868.758145 27.188989 
L 872.39681 30.09671 
L 876.035475 32.149229 
L 879.674141 35.642135 
L 883.312806 37.998336 
L 886.951471 40.619232 
L 890.590136 42.299201 
L 894.228801 43.359826 
L 897.867466 46.067594 
L 901.506131 49.980553 
L 905.144796 53.033922 
L 908.783462 57.347833 
L 912.422127 60.425101 
L 916.060792 64.0426 
L 919.699457 68.41824 
L 923.338122 78.097089 
L 926.976787 90.086865 
L 930.615452 103.948171 
L 934.254118 120.656765 
L 937.892783 138.861647 
L 941.531448 149.508687 
L 945.170113 158.218385 
L 948.808778 200.323402 
L 952.447443 202.915735 
L 952.447443 202.915735 
" style="fill:none;stroke:#947383;stroke-linecap:square;stroke-width:2;"/>
   </g>
   <g id="line2d_17">
    <path clip-path="url(#p2ce4e6e227)" d="M 90.083807 223.942701 
L 93.722472 228.96 
L 155.579779 228.96 
L 159.218444 223.942701 
L 181.050435 223.942701 
L 184.6891 228.96 
L 188.327765 223.942701 
L 210.159756 223.942701 
L 213.798421 228.96 
L 239.269077 228.96 
L 242.907742 219.517129 
L 264.739733 219.517129 
L 268.378398 228.96 
L 282.933059 228.96 
L 286.571724 223.942701 
L 297.487719 223.942701 
L 301.126384 219.517129 
L 308.403715 219.517129 
L 312.04238 223.942701 
L 322.958375 223.942701 
L 326.59704 228.96 
L 341.151701 228.96 
L 344.790366 211.977142 
L 348.429031 193.472864 
L 352.067696 187.680817 
L 359.345027 187.680817 
L 362.983692 167.4286 
L 366.622357 164.42108 
L 370.261022 157.410312 
L 373.899687 162.541992 
L 377.538352 163.469791 
L 381.177017 162.541992 
L 384.815683 160.752419 
L 388.454348 160.752419 
L 392.093013 158.218385 
L 395.731678 161.636553 
L 399.370343 161.636553 
L 406.647673 163.469791 
L 410.286338 163.469791 
L 413.925004 164.42108 
L 417.563669 156.619253 
L 421.202334 158.218385 
L 424.840999 152.193681 
L 428.479664 145.809907 
L 432.118329 145.227353 
L 435.756994 145.227353 
L 439.39566 147.00283 
L 443.034325 152.896018 
L 446.67299 151.504232 
L 450.311655 154.341348 
L 457.588985 151.504232 
L 461.22765 152.193681 
L 464.866315 145.227353 
L 468.504981 128.667273 
L 472.143646 129.041146 
L 475.782311 127.567469 
L 479.420976 127.930505 
L 483.059641 124.448949 
L 486.698306 123.78974 
L 490.336971 125.803111 
L 493.975637 134.708155 
L 497.614302 134.273769 
L 501.252967 131.767912 
L 504.891632 131.767912 
L 508.530297 133.844348 
L 512.168962 132.999954 
L 515.807627 133.419779 
L 519.446292 136.958763 
L 523.084958 132.999954 
L 526.723623 136.497728 
L 530.362288 133.419779 
L 534.000953 133.844348 
L 537.639618 132.174121 
L 541.278283 128.297083 
L 544.916948 123.464423 
L 548.555613 122.505036 
L 552.194279 119.183089 
L 555.832944 120.656765 
L 559.471609 120.958565 
L 563.110274 122.505036 
L 566.748939 120.060341 
L 570.387604 123.78974 
L 574.026269 125.11993 
L 577.664935 123.464423 
L 581.3036 119.473236 
L 584.942265 118.044398 
L 588.58093 116.398561 
L 592.219595 116.13113 
L 595.85826 112.092461 
L 599.496925 107.375515 
L 603.13559 107.800083 
L 606.774256 100.63067 
L 610.412921 93.868438 
L 614.051586 91.860193 
L 617.690251 92.8509 
L 621.328916 87.887419 
L 624.967581 88.139593 
L 628.606246 84.754444 
L 632.244912 86.408909 
L 635.883577 91.168204 
L 639.522242 91.443472 
L 643.160907 84.294818 
L 646.799572 80.393156 
L 650.438237 77.520495 
L 654.076902 77.615982 
L 657.715567 79.177721 
L 664.992898 77.330247 
L 668.631563 76.858799 
L 672.270228 80.703259 
L 675.908893 81.33125 
L 679.547558 82.510557 
L 683.186223 81.755819 
L 686.824889 80.599607 
L 690.463554 64.918804 
L 694.102219 55.129001 
L 697.740884 52.295707 
L 701.379549 48.674677 
L 705.018214 44.808922 
L 708.656879 42.112915 
L 712.295544 42.33657 
L 715.93421 49.434675 
L 719.572875 54.658994 
L 723.21154 54.041327 
L 726.850205 55.925651 
L 730.48887 60.123785 
L 734.127535 65.815928 
L 737.7662 64.918804 
L 741.404866 60.063811 
L 745.043531 52.835642 
L 748.682196 53.837673 
L 752.320861 50.441589 
L 755.959526 44.570104 
L 759.598191 39.73676 
L 763.236856 39.771663 
L 766.875521 42.674568 
L 770.514187 46.987136 
L 774.152852 47.799808 
L 777.791517 47.97316 
L 781.430182 50.39523 
L 785.068847 54.658994 
L 788.707512 55.445637 
L 792.346177 51.956108 
L 795.984842 49.525106 
L 799.623508 46.150265 
L 803.262173 48.630446 
L 806.900838 47.369896 
L 810.539503 45.943928 
L 814.178168 45.943928 
L 817.816833 44.530448 
L 821.455498 43.707199 
L 825.094164 43.436743 
L 828.732829 45.049268 
L 832.371494 49.75214 
L 836.010159 50.72095 
L 839.648824 50.58101 
L 843.287489 55.49867 
L 846.926154 62.733272 
L 850.564819 67.89792 
L 854.203485 61.906039 
L 857.84215 62.285577 
L 861.480815 64.918804 
L 865.11948 66.237322 
L 868.758145 69.17428 
L 872.39681 76.765215 
L 876.035475 86.048197 
L 879.674141 106.747523 
L 883.312806 115.080042 
L 886.951471 125.459968 
L 890.590136 125.803111 
L 894.228801 124.782941 
L 897.867466 135.592288 
L 901.506131 142.442826 
L 908.783462 170.697959 
L 912.422127 175.552952 
L 916.060792 191.441346 
L 919.699457 223.942701 
L 930.615452 223.942701 
L 934.254118 219.517129 
L 934.254118 219.517129 
" style="fill:none;stroke:#96c6ad;stroke-linecap:square;stroke-width:2;"/>
   </g>
   <g id="line2d_18">
    <path clip-path="url(#p2ce4e6e227)" d="M 464.866315 208.707782 
L 475.782311 208.707782 
L 479.420976 200.323402 
L 483.059641 200.323402 
L 486.698306 197.898436 
L 490.336971 191.441346 
L 493.975637 193.472864 
L 497.614302 182.663518 
L 501.252967 182.663518 
L 504.891632 178.237946 
L 508.530297 173.047095 
L 512.168962 171.854171 
L 515.807627 176.871471 
L 519.446292 171.854171 
L 523.084958 178.237946 
L 530.362288 175.552952 
L 534.000953 174.279137 
L 537.639618 176.871471 
L 541.278283 167.4286 
L 544.916948 166.399112 
L 548.555613 158.218385 
L 552.194279 154.341348 
L 555.832944 152.896018 
L 559.471609 155.08541 
L 563.110274 151.504232 
L 566.748939 155.844505 
L 570.387604 150.162163 
L 574.026269 150.827206 
L 577.664935 152.193681 
L 581.3036 152.896018 
L 584.942265 151.504232 
L 588.58093 151.504232 
L 592.219595 145.809907 
L 595.85826 147.00283 
L 599.496925 141.384335 
L 603.13559 138.861647 
L 606.774256 137.425526 
L 610.412921 135.147621 
L 614.051586 135.592288 
L 617.690251 134.708155 
L 621.328916 130.574988 
L 624.967581 130.574988 
L 628.606246 129.041146 
L 632.244912 127.930505 
L 635.883577 125.11993 
L 639.522242 124.448949 
L 643.160907 122.505036 
L 646.799572 125.11993 
L 650.438237 125.803111 
L 654.076902 124.782941 
L 661.354233 122.190608 
L 664.992898 120.958565 
L 668.631563 118.044398 
L 672.270228 110.225049 
L 675.908893 109.103356 
L 679.547558 108.882981 
L 683.186223 106.540504 
L 686.824889 106.129856 
L 690.463554 105.122452 
L 694.102219 102.623008 
L 697.740884 105.926203 
L 701.379549 103.948171 
L 705.018214 100.807489 
L 708.656879 100.63067 
L 712.295544 101.704284 
L 715.93421 100.807489 
L 719.572875 100.105152 
L 723.21154 99.758846 
L 726.850205 102.069082 
L 730.48887 101.342994 
L 734.127535 101.886241 
L 737.7662 101.886241 
L 741.404866 103.374512 
L 745.043531 106.747523 
L 748.682196 99.075665 
L 752.320861 93.428972 
L 755.959526 91.305586 
L 759.598191 88.649078 
L 763.236856 86.651322 
L 766.875521 86.89531 
L 770.514187 85.928725 
L 774.152852 89.426498 
L 777.791517 88.266319 
L 781.430182 89.035777 
L 785.068847 87.38809 
L 788.707512 88.139593 
L 792.346177 87.636925 
L 795.984842 84.754444 
L 799.623508 82.948742 
L 803.262173 84.754444 
L 806.900838 86.16805 
L 810.539503 88.139593 
L 814.178168 88.521058 
L 817.816833 87.761963 
L 825.094164 90.759046 
L 828.732829 92.994586 
L 832.371494 93.57489 
L 836.010159 95.525272 
L 839.648824 93.57489 
L 843.287489 92.565165 
L 846.926154 93.428972 
L 850.564819 94.914301 
L 854.203485 93.721377 
L 857.84215 93.138824 
L 861.480815 92.994586 
L 865.11948 95.67958 
L 868.758145 97.097633 
L 872.39681 96.937403 
L 876.035475 98.571309 
L 879.674141 98.738677 
L 886.951471 102.437457 
L 890.590136 102.252818 
L 894.228801 104.726933 
L 897.867466 108.66389 
L 901.506131 108.882981 
L 905.144796 112.574185 
L 908.783462 113.062165 
L 912.422127 114.565323 
L 916.060792 118.044398 
L 919.699457 116.939202 
L 923.338122 123.141898 
L 930.615452 133.419779 
L 934.254118 140.866066 
L 937.892783 149.508687 
L 937.892783 149.508687 
" style="fill:none;stroke:#525886;stroke-linecap:square;stroke-width:2;"/>
   </g>
   <g id="line2d_19">
    <path clip-path="url(#p2ce4e6e227)" d="M 548.555613 219.517129 
L 552.194279 228.96 
L 555.832944 228.96 
L 559.471609 223.942701 
L 563.110274 223.942701 
L 566.748939 223.942701 
L 570.387604 215.55832 
L 574.026269 211.977142 
L 577.664935 211.977142 
L 581.3036 211.977142 
L 584.942265 215.55832 
L 588.58093 215.55832 
L 592.219595 215.55832 
L 595.85826 223.942701 
L 599.496925 228.96 
L 603.13559 228.96 
L 606.774256 223.942701 
L 610.412921 219.517129 
L 614.051586 219.517129 
L 617.690251 215.55832 
L 621.328916 211.977142 
L 624.967581 208.707782 
L 628.606246 208.707782 
L 632.244912 211.977142 
L 635.883577 211.977142 
L 639.522242 211.977142 
L 643.160907 208.707782 
L 646.799572 208.707782 
L 650.438237 211.977142 
L 654.076902 200.323402 
L 657.715567 200.323402 
L 661.354233 200.323402 
L 664.992898 193.472864 
L 668.631563 195.620531 
L 672.270228 193.472864 
L 675.908893 193.472864 
L 679.547558 200.323402 
L 683.186223 200.323402 
L 686.824889 202.915735 
L 690.463554 211.977142 
L 694.102219 205.700263 
L 697.740884 211.977142 
L 701.379549 208.707782 
L 705.018214 211.977142 
L 708.656879 211.977142 
L 712.295544 211.977142 
L 715.93421 211.977142 
L 719.572875 223.942701 
L 723.21154 223.942701 
L 726.850205 223.942701 
L 730.48887 215.55832 
L 734.127535 215.55832 
L 737.7662 215.55832 
L 741.404866 208.707782 
L 745.043531 205.700263 
L 748.682196 200.323402 
L 752.320861 197.898436 
L 755.959526 197.898436 
L 759.598191 191.441346 
L 763.236856 189.514055 
L 766.875521 191.441346 
L 770.514187 189.514055 
L 774.152852 189.514055 
L 777.791517 191.441346 
L 781.430182 179.655999 
L 785.068847 179.655999 
L 788.707512 179.655999 
L 792.346177 175.552952 
L 795.984842 174.279137 
L 799.623508 174.279137 
L 803.262173 171.854171 
L 806.900838 182.663518 
L 810.539503 181.129675 
L 814.178168 181.129675 
L 817.816833 185.932877 
L 821.455498 189.514055 
L 825.094164 178.237946 
L 828.732829 181.129675 
L 832.371494 179.655999 
L 836.010159 182.663518 
L 839.648824 176.871471 
L 843.287489 176.871471 
L 846.926154 176.871471 
L 850.564819 185.932877 
L 854.203485 187.680817 
L 857.84215 189.514055 
L 861.480815 187.680817 
L 865.11948 195.620531 
L 868.758145 185.932877 
L 872.39681 182.663518 
L 876.035475 187.680817 
L 879.674141 185.932877 
L 883.312806 182.663518 
L 886.951471 185.932877 
L 890.590136 187.680817 
L 894.228801 200.323402 
L 897.867466 200.323402 
L 901.506131 200.323402 
L 905.144796 197.898436 
L 908.783462 205.700263 
L 912.422127 208.707782 
L 916.060792 208.707782 
L 919.699457 208.707782 
L 923.338122 219.517129 
L 926.976787 215.55832 
L 930.615452 215.55832 
" style="fill:none;stroke:#937252;stroke-linecap:square;stroke-width:2;"/>
   </g>
   <g id="line2d_20">
    <path clip-path="url(#p2ce4e6e227)" d="M 639.522242 219.517129 
L 643.160907 223.942701 
L 646.799572 219.517129 
L 650.438237 219.517129 
L 654.076902 219.517129 
L 657.715567 219.517129 
L 661.354233 219.517129 
L 664.992898 219.517129 
L 668.631563 219.517129 
L 672.270228 223.942701 
L 675.908893 223.942701 
L 679.547558 219.517129 
L 683.186223 219.517129 
L 686.824889 223.942701 
L 690.463554 223.942701 
L 694.102219 223.942701 
L 697.740884 223.942701 
L 701.379549 223.942701 
L 705.018214 228.96 
L 708.656879 228.96 
L 712.295544 223.942701 
L 715.93421 223.942701 
L 719.572875 223.942701 
L 723.21154 223.942701 
L 726.850205 223.942701 
L 730.48887 223.942701 
L 734.127535 223.942701 
L 737.7662 228.96 
L 741.404866 228.96 
L 745.043531 223.942701 
L 748.682196 223.942701 
L 752.320861 223.942701 
L 755.959526 219.517129 
L 759.598191 219.517129 
L 763.236856 219.517129 
L 766.875521 219.517129 
L 770.514187 223.942701 
L 774.152852 223.942701 
L 777.791517 223.942701 
L 781.430182 228.96 
L 785.068847 228.96 
L 788.707512 228.96 
L 792.346177 228.96 
L 795.984842 228.96 
L 799.623508 228.96 
L 803.262173 228.96 
L 806.900838 223.942701 
L 810.539503 223.942701 
L 814.178168 223.942701 
L 817.816833 219.517129 
" style="fill:none;stroke:#d18cad;stroke-linecap:square;stroke-width:2;"/>
   </g>
   <g id="line2d_21">
    <path clip-path="url(#p2ce4e6e227)" d="M 428.479664 211.977142 
L 432.118329 228.96 
L 435.756994 223.942701 
L 439.39566 223.942701 
L 443.034325 223.942701 
L 446.67299 223.942701 
L 450.311655 223.942701 
L 453.95032 223.942701 
L 457.588985 223.942701 
L 461.22765 228.96 
L 464.866315 228.96 
L 468.504981 228.96 
L 472.143646 228.96 
L 475.782311 228.96 
L 479.420976 228.96 
L 483.059641 228.96 
L 486.698306 228.96 
L 490.336971 228.96 
L 493.975637 228.96 
L 497.614302 228.96 
L 501.252967 208.707782 
L 504.891632 208.707782 
L 508.530297 208.707782 
L 512.168962 208.707782 
L 515.807627 208.707782 
L 519.446292 208.707782 
L 523.084958 205.700263 
L 526.723623 223.942701 
L 530.362288 223.942701 
L 534.000953 223.942701 
L 537.639618 223.942701 
L 541.278283 223.942701 
L 544.916948 215.55832 
L 548.555613 219.517129 
L 552.194279 219.517129 
L 555.832944 215.55832 
L 559.471609 211.977142 
L 563.110274 211.977142 
L 566.748939 211.977142 
L 570.387604 219.517129 
L 574.026269 219.517129 
L 577.664935 215.55832 
L 581.3036 219.517129 
L 584.942265 223.942701 
L 588.58093 219.517129 
L 592.219595 211.977142 
L 595.85826 211.977142 
L 599.496925 195.620531 
L 603.13559 197.898436 
L 606.774256 195.620531 
L 610.412921 195.620531 
L 614.051586 195.620531 
L 617.690251 200.323402 
L 621.328916 200.323402 
L 624.967581 219.517129 
L 628.606246 219.517129 
L 632.244912 215.55832 
L 635.883577 215.55832 
L 639.522242 219.517129 
L 643.160907 211.977142 
L 646.799572 193.472864 
L 650.438237 184.26265 
L 654.076902 173.047095 
L 657.715567 173.047095 
L 661.354233 168.48709 
L 664.992898 165.397082 
L 668.631563 163.469791 
L 672.270228 167.4286 
L 675.908893 173.047095 
L 679.547558 182.663518 
L 683.186223 179.655999 
L 686.824889 185.932877 
L 690.463554 185.932877 
L 694.102219 193.472864 
L 697.740884 193.472864 
L 701.379549 189.514055 
L 705.018214 185.932877 
L 708.656879 189.514055 
L 712.295544 189.514055 
L 715.93421 195.620531 
L 719.572875 195.620531 
L 723.21154 200.323402 
L 726.850205 205.700263 
L 730.48887 211.977142 
L 734.127535 219.517129 
L 737.7662 185.932877 
L 741.404866 184.26265 
L 745.043531 182.663518 
L 748.682196 179.655999 
L 752.320861 176.871471 
L 755.959526 176.871471 
L 759.598191 174.279137 
L 763.236856 195.620531 
L 766.875521 197.898436 
L 770.514187 200.323402 
L 774.152852 202.915735 
L 777.791517 208.707782 
L 781.430182 208.707782 
L 785.068847 211.977142 
L 788.707512 202.915735 
L 792.346177 202.915735 
L 795.984842 202.915735 
L 799.623508 208.707782 
L 803.262173 208.707782 
L 806.900838 208.707782 
L 810.539503 208.707782 
L 814.178168 211.977142 
L 817.816833 211.977142 
L 821.455498 208.707782 
L 825.094164 195.620531 
L 828.732829 189.514055 
L 832.371494 189.514055 
L 836.010159 189.514055 
L 839.648824 193.472864 
L 843.287489 191.441346 
L 846.926154 187.680817 
L 850.564819 195.620531 
L 854.203485 197.898436 
L 857.84215 200.323402 
L 861.480815 200.323402 
" style="fill:none;stroke:#a4a86f;stroke-linecap:square;stroke-width:2;"/>
   </g>
   <g id="patch_3">
    <path d="M 46.965625 228.96 
L 46.965625 7.2 
" style="fill:none;stroke:#000000;stroke-linecap:square;stroke-linejoin:miter;stroke-width:0.8;"/>
   </g>
   <g id="patch_4">
    <path d="M 46.965625 228.96 
L 995.565625 228.96 
" style="fill:none;stroke:#000000;stroke-linecap:square;stroke-linejoin:miter;stroke-width:0.8;"/>
   </g>
   <g id="legend_1">
    <g id="line2d_22">
     <path d="M 54.165625 17.67875 
L 70.165625 17.67875 
" style="fill:none;stroke:#947383;stroke-linecap:square;stroke-width:2;"/>
    </g>
    <g id="line2d_23"/>
    <g id="text_18">
     <!-- North America -->
     <g transform="translate(76.565625 20.47875)scale(0.08 -0.08)">
      <defs>
       <path d="M 9.8125 72.90625 
L 23.09375 72.90625 
L 55.421875 11.921875 
L 55.421875 72.90625 
L 64.984375 72.90625 
L 64.984375 0 
L 51.703125 0 
L 19.390625 60.984375 
L 19.390625 0 
L 9.8125 0 
z
" id="DejaVuSans-78"/>
       <path d="M 54.890625 33.015625 
L 54.890625 0 
L 45.90625 0 
L 45.90625 32.71875 
Q 45.90625 40.484375 42.875 44.328125 
Q 39.84375 48.1875 33.796875 48.1875 
Q 26.515625 48.1875 22.3125 43.546875 
Q 18.109375 38.921875 18.109375 30.90625 
L 18.109375 0 
L 9.078125 0 
L 9.078125 75.984375 
L 18.109375 75.984375 
L 18.109375 46.1875 
Q 21.34375 51.125 25.703125 53.5625 
Q 30.078125 56 35.796875 56 
Q 45.21875 56 50.046875 50.171875 
Q 54.890625 44.34375 54.890625 33.015625 
z
" id="DejaVuSans-104"/>
       <path d="M 34.1875 63.1875 
L 20.796875 26.90625 
L 47.609375 26.90625 
z
M 28.609375 72.90625 
L 39.796875 72.90625 
L 67.578125 0 
L 57.328125 0 
L 50.6875 18.703125 
L 17.828125 18.703125 
L 11.1875 0 
L 0.78125 0 
z
" id="DejaVuSans-65"/>
       <path d="M 52 44.1875 
Q 55.375 50.25 60.0625 53.125 
Q 64.75 56 71.09375 56 
Q 79.640625 56 84.28125 50.015625 
Q 88.921875 44.046875 88.921875 33.015625 
L 88.921875 0 
L 79.890625 0 
L 79.890625 32.71875 
Q 79.890625 40.578125 77.09375 44.375 
Q 74.3125 48.1875 68.609375 48.1875 
Q 61.625 48.1875 57.5625 43.546875 
Q 53.515625 38.921875 53.515625 30.90625 
L 53.515625 0 
L 44.484375 0 
L 44.484375 32.71875 
Q 44.484375 40.625 41.703125 44.40625 
Q 38.921875 48.1875 33.109375 48.1875 
Q 26.21875 48.1875 22.15625 43.53125 
Q 18.109375 38.875 18.109375 30.90625 
L 18.109375 0 
L 9.078125 0 
L 9.078125 54.6875 
L 18.109375 54.6875 
L 18.109375 46.1875 
Q 21.1875 51.21875 25.484375 53.609375 
Q 29.78125 56 35.6875 56 
Q 41.65625 56 45.828125 52.96875 
Q 50 49.953125 52 44.1875 
z
" id="DejaVuSans-109"/>
       <path d="M 48.78125 52.59375 
L 48.78125 44.1875 
Q 44.96875 46.296875 41.140625 47.34375 
Q 37.3125 48.390625 33.40625 48.390625 
Q 24.65625 48.390625 19.8125 42.84375 
Q 14.984375 37.3125 14.984375 27.296875 
Q 14.984375 17.28125 19.8125 11.734375 
Q 24.65625 6.203125 33.40625 6.203125 
Q 37.3125 6.203125 41.140625 7.25 
Q 44.96875 8.296875 48.78125 10.40625 
L 48.78125 2.09375 
Q 45.015625 0.34375 40.984375 -0.53125 
Q 36.96875 -1.421875 32.421875 -1.421875 
Q 20.0625 -1.421875 12.78125 6.34375 
Q 5.515625 14.109375 5.515625 27.296875 
Q 5.515625 40.671875 12.859375 48.328125 
Q 20.21875 56 33.015625 56 
Q 37.15625 56 41.109375 55.140625 
Q 45.0625 54.296875 48.78125 52.59375 
z
" id="DejaVuSans-99"/>
      </defs>
      <use xlink:href="#DejaVuSans-78"/>
      <use x="74.804688" xlink:href="#DejaVuSans-111"/>
      <use x="135.986328" xlink:href="#DejaVuSans-114"/>
      <use x="177.099609" xlink:href="#DejaVuSans-116"/>
      <use x="216.308594" xlink:href="#DejaVuSans-104"/>
      <use x="279.6875" xlink:href="#DejaVuSans-32"/>
      <use x="311.474609" xlink:href="#DejaVuSans-65"/>
      <use x="379.882812" xlink:href="#DejaVuSans-109"/>
      <use x="477.294922" xlink:href="#DejaVuSans-101"/>
      <use x="538.818359" xlink:href="#DejaVuSans-114"/>
      <use x="579.931641" xlink:href="#DejaVuSans-105"/>
      <use x="607.714844" xlink:href="#DejaVuSans-99"/>
      <use x="662.695312" xlink:href="#DejaVuSans-97"/>
     </g>
    </g>
    <g id="line2d_24">
     <path d="M 54.165625 29.42125 
L 70.165625 29.42125 
" style="fill:none;stroke:#96c6ad;stroke-linecap:square;stroke-width:2;"/>
    </g>
    <g id="line2d_25"/>
    <g id="text_19">
     <!-- South America -->
     <g transform="translate(76.565625 32.22125)scale(0.08 -0.08)">
      <defs>
       <path d="M 53.515625 70.515625 
L 53.515625 60.890625 
Q 47.90625 63.578125 42.921875 64.890625 
Q 37.9375 66.21875 33.296875 66.21875 
Q 25.25 66.21875 20.875 63.09375 
Q 16.5 59.96875 16.5 54.203125 
Q 16.5 49.359375 19.40625 46.890625 
Q 22.3125 44.4375 30.421875 42.921875 
L 36.375 41.703125 
Q 47.40625 39.59375 52.65625 34.296875 
Q 57.90625 29 57.90625 20.125 
Q 57.90625 9.515625 50.796875 4.046875 
Q 43.703125 -1.421875 29.984375 -1.421875 
Q 24.8125 -1.421875 18.96875 -0.25 
Q 13.140625 0.921875 6.890625 3.21875 
L 6.890625 13.375 
Q 12.890625 10.015625 18.65625 8.296875 
Q 24.421875 6.59375 29.984375 6.59375 
Q 38.421875 6.59375 43.015625 9.90625 
Q 47.609375 13.234375 47.609375 19.390625 
Q 47.609375 24.75 44.3125 27.78125 
Q 41.015625 30.8125 33.5 32.328125 
L 27.484375 33.5 
Q 16.453125 35.6875 11.515625 40.375 
Q 6.59375 45.0625 6.59375 53.421875 
Q 6.59375 63.09375 13.40625 68.65625 
Q 20.21875 74.21875 32.171875 74.21875 
Q 37.3125 74.21875 42.625 73.28125 
Q 47.953125 72.359375 53.515625 70.515625 
z
" id="DejaVuSans-83"/>
      </defs>
      <use xlink:href="#DejaVuSans-83"/>
      <use x="63.476562" xlink:href="#DejaVuSans-111"/>
      <use x="124.658203" xlink:href="#DejaVuSans-117"/>
      <use x="188.037109" xlink:href="#DejaVuSans-116"/>
      <use x="227.246094" xlink:href="#DejaVuSans-104"/>
      <use x="290.625" xlink:href="#DejaVuSans-32"/>
      <use x="322.412109" xlink:href="#DejaVuSans-65"/>
      <use x="390.820312" xlink:href="#DejaVuSans-109"/>
      <use x="488.232422" xlink:href="#DejaVuSans-101"/>
      <use x="549.755859" xlink:href="#DejaVuSans-114"/>
      <use x="590.869141" xlink:href="#DejaVuSans-105"/>
      <use x="618.652344" xlink:href="#DejaVuSans-99"/>
      <use x="673.632812" xlink:href="#DejaVuSans-97"/>
     </g>
    </g>
    <g id="line2d_26">
     <path d="M 54.165625 41.16375 
L 70.165625 41.16375 
" style="fill:none;stroke:#525886;stroke-linecap:square;stroke-width:2;"/>
    </g>
    <g id="line2d_27"/>
    <g id="text_20">
     <!-- Europe -->
     <g transform="translate(76.565625 43.96375)scale(0.08 -0.08)">
      <defs>
       <path d="M 9.8125 72.90625 
L 55.90625 72.90625 
L 55.90625 64.59375 
L 19.671875 64.59375 
L 19.671875 43.015625 
L 54.390625 43.015625 
L 54.390625 34.71875 
L 19.671875 34.71875 
L 19.671875 8.296875 
L 56.78125 8.296875 
L 56.78125 0 
L 9.8125 0 
z
" id="DejaVuSans-69"/>
       <path d="M 18.109375 8.203125 
L 18.109375 -20.796875 
L 9.078125 -20.796875 
L 9.078125 54.6875 
L 18.109375 54.6875 
L 18.109375 46.390625 
Q 20.953125 51.265625 25.265625 53.625 
Q 29.59375 56 35.59375 56 
Q 45.5625 56 51.78125 48.09375 
Q 58.015625 40.1875 58.015625 27.296875 
Q 58.015625 14.40625 51.78125 6.484375 
Q 45.5625 -1.421875 35.59375 -1.421875 
Q 29.59375 -1.421875 25.265625 0.953125 
Q 20.953125 3.328125 18.109375 8.203125 
z
M 48.6875 27.296875 
Q 48.6875 37.203125 44.609375 42.84375 
Q 40.53125 48.484375 33.40625 48.484375 
Q 26.265625 48.484375 22.1875 42.84375 
Q 18.109375 37.203125 18.109375 27.296875 
Q 18.109375 17.390625 22.1875 11.75 
Q 26.265625 6.109375 33.40625 6.109375 
Q 40.53125 6.109375 44.609375 11.75 
Q 48.6875 17.390625 48.6875 27.296875 
z
" id="DejaVuSans-112"/>
      </defs>
      <use xlink:href="#DejaVuSans-69"/>
      <use x="63.183594" xlink:href="#DejaVuSans-117"/>
      <use x="126.5625" xlink:href="#DejaVuSans-114"/>
      <use x="165.425781" xlink:href="#DejaVuSans-111"/>
      <use x="226.607422" xlink:href="#DejaVuSans-112"/>
      <use x="290.083984" xlink:href="#DejaVuSans-101"/>
     </g>
    </g>
    <g id="line2d_28">
     <path d="M 54.165625 52.90625 
L 70.165625 52.90625 
" style="fill:none;stroke:#937252;stroke-linecap:square;stroke-width:2;"/>
    </g>
    <g id="line2d_29"/>
    <g id="text_21">
     <!-- United Kingdom -->
     <g transform="translate(76.565625 55.70625)scale(0.08 -0.08)">
      <defs>
       <path d="M 8.6875 72.90625 
L 18.609375 72.90625 
L 18.609375 28.609375 
Q 18.609375 16.890625 22.84375 11.734375 
Q 27.09375 6.59375 36.625 6.59375 
Q 46.09375 6.59375 50.34375 11.734375 
Q 54.59375 16.890625 54.59375 28.609375 
L 54.59375 72.90625 
L 64.5 72.90625 
L 64.5 27.390625 
Q 64.5 13.140625 57.4375 5.859375 
Q 50.390625 -1.421875 36.625 -1.421875 
Q 22.796875 -1.421875 15.734375 5.859375 
Q 8.6875 13.140625 8.6875 27.390625 
z
" id="DejaVuSans-85"/>
       <path d="M 9.8125 72.90625 
L 19.671875 72.90625 
L 19.671875 42.09375 
L 52.390625 72.90625 
L 65.09375 72.90625 
L 28.90625 38.921875 
L 67.671875 0 
L 54.6875 0 
L 19.671875 35.109375 
L 19.671875 0 
L 9.8125 0 
z
" id="DejaVuSans-75"/>
      </defs>
      <use xlink:href="#DejaVuSans-85"/>
      <use x="73.193359" xlink:href="#DejaVuSans-110"/>
      <use x="136.572266" xlink:href="#DejaVuSans-105"/>
      <use x="164.355469" xlink:href="#DejaVuSans-116"/>
      <use x="203.564453" xlink:href="#DejaVuSans-101"/>
      <use x="265.087891" xlink:href="#DejaVuSans-100"/>
      <use x="328.564453" xlink:href="#DejaVuSans-32"/>
      <use x="360.351562" xlink:href="#DejaVuSans-75"/>
      <use x="425.927734" xlink:href="#DejaVuSans-105"/>
      <use x="453.710938" xlink:href="#DejaVuSans-110"/>
      <use x="517.089844" xlink:href="#DejaVuSans-103"/>
      <use x="580.566406" xlink:href="#DejaVuSans-100"/>
      <use x="644.042969" xlink:href="#DejaVuSans-111"/>
      <use x="705.224609" xlink:href="#DejaVuSans-109"/>
     </g>
    </g>
    <g id="line2d_30">
     <path d="M 54.165625 64.64875 
L 70.165625 64.64875 
" style="fill:none;stroke:#d18cad;stroke-linecap:square;stroke-width:2;"/>
    </g>
    <g id="line2d_31"/>
    <g id="text_22">
     <!-- Oceania -->
     <g transform="translate(76.565625 67.44875)scale(0.08 -0.08)">
      <defs>
       <path d="M 39.40625 66.21875 
Q 28.65625 66.21875 22.328125 58.203125 
Q 16.015625 50.203125 16.015625 36.375 
Q 16.015625 22.609375 22.328125 14.59375 
Q 28.65625 6.59375 39.40625 6.59375 
Q 50.140625 6.59375 56.421875 14.59375 
Q 62.703125 22.609375 62.703125 36.375 
Q 62.703125 50.203125 56.421875 58.203125 
Q 50.140625 66.21875 39.40625 66.21875 
z
M 39.40625 74.21875 
Q 54.734375 74.21875 63.90625 63.9375 
Q 73.09375 53.65625 73.09375 36.375 
Q 73.09375 19.140625 63.90625 8.859375 
Q 54.734375 -1.421875 39.40625 -1.421875 
Q 24.03125 -1.421875 14.8125 8.828125 
Q 5.609375 19.09375 5.609375 36.375 
Q 5.609375 53.65625 14.8125 63.9375 
Q 24.03125 74.21875 39.40625 74.21875 
z
" id="DejaVuSans-79"/>
      </defs>
      <use xlink:href="#DejaVuSans-79"/>
      <use x="78.710938" xlink:href="#DejaVuSans-99"/>
      <use x="133.691406" xlink:href="#DejaVuSans-101"/>
      <use x="195.214844" xlink:href="#DejaVuSans-97"/>
      <use x="256.494141" xlink:href="#DejaVuSans-110"/>
      <use x="319.873047" xlink:href="#DejaVuSans-105"/>
      <use x="347.65625" xlink:href="#DejaVuSans-97"/>
     </g>
    </g>
    <g id="line2d_32">
     <path d="M 54.165625 76.39125 
L 70.165625 76.39125 
" style="fill:none;stroke:#a4a86f;stroke-linecap:square;stroke-width:2;"/>
    </g>
    <g id="line2d_33"/>
    <g id="text_23">
     <!-- Asia -->
     <g transform="translate(76.565625 79.19125)scale(0.08 -0.08)">
      <defs>
       <path d="M 44.28125 53.078125 
L 44.28125 44.578125 
Q 40.484375 46.53125 36.375 47.5 
Q 32.28125 48.484375 27.875 48.484375 
Q 21.1875 48.484375 17.84375 46.4375 
Q 14.5 44.390625 14.5 40.28125 
Q 14.5 37.15625 16.890625 35.375 
Q 19.28125 33.59375 26.515625 31.984375 
L 29.59375 31.296875 
Q 39.15625 29.25 43.1875 25.515625 
Q 47.21875 21.78125 47.21875 15.09375 
Q 47.21875 7.46875 41.1875 3.015625 
Q 35.15625 -1.421875 24.609375 -1.421875 
Q 20.21875 -1.421875 15.453125 -0.5625 
Q 10.6875 0.296875 5.421875 2 
L 5.421875 11.28125 
Q 10.40625 8.6875 15.234375 7.390625 
Q 20.0625 6.109375 24.8125 6.109375 
Q 31.15625 6.109375 34.5625 8.28125 
Q 37.984375 10.453125 37.984375 14.40625 
Q 37.984375 18.0625 35.515625 20.015625 
Q 33.0625 21.96875 24.703125 23.78125 
L 21.578125 24.515625 
Q 13.234375 26.265625 9.515625 29.90625 
Q 5.8125 33.546875 5.8125 39.890625 
Q 5.8125 47.609375 11.28125 51.796875 
Q 16.75 56 26.8125 56 
Q 31.78125 56 36.171875 55.265625 
Q 40.578125 54.546875 44.28125 53.078125 
z
" id="DejaVuSans-115"/>
      </defs>
      <use xlink:href="#DejaVuSans-65"/>
      <use x="68.408203" xlink:href="#DejaVuSans-115"/>
      <use x="120.507812" xlink:href="#DejaVuSans-105"/>
      <use x="148.291016" xlink:href="#DejaVuSans-97"/>
     </g>
    </g>
   </g>
  </g>
 </g>
 <defs>
  <clipPath id="p2ce4e6e227">
   <rect height="221.76" width="948.6" x="46.965625" y="7.2"/>
  </clipPath>
 </defs>
</svg>
