<?xml version="1.0" encoding="utf-8" standalone="no"?>
<!DOCTYPE svg PUBLIC "-//W3C//DTD SVG 1.1//EN"
  "http://www.w3.org/Graphics/SVG/1.1/DTD/svg11.dtd">
<svg height="298.620937pt" version="1.1" viewBox="0 0 1170.165625 298.620937" width="1170.165625pt" xmlns="http://www.w3.org/2000/svg" xmlns:xlink="http://www.w3.org/1999/xlink">
 <metadata>
  <rdf:RDF xmlns:cc="http://creativecommons.org/ns#" xmlns:dc="http://purl.org/dc/elements/1.1/" xmlns:rdf="http://www.w3.org/1999/02/22-rdf-syntax-ns#">
   <cc:Work>
    <dc:type rdf:resource="http://purl.org/dc/dcmitype/StillImage"/>
    <dc:date>2021-07-02T16:17:12.063061</dc:date>
    <dc:format>image/svg+xml</dc:format>
    <dc:creator>
     <cc:Agent>
      <dc:title>Matplotlib v3.4.2, https://matplotlib.org/</dc:title>
     </cc:Agent>
    </dc:creator>
   </cc:Work>
  </rdf:RDF>
 </metadata>
 <defs>
  <style type="text/css">*{stroke-linecap:butt;stroke-linejoin:round;}</style>
 </defs>
 <g id="figure_1">
  <g id="patch_1">
   <path d="M 0 298.620937 
L 1170.165625 298.620937 
L 1170.165625 0 
L 0 0 
z
" style="fill:#ffffff;"/>
  </g>
  <g id="axes_1">
   <g id="patch_2">
    <path d="M 46.965625 228.96 
L 1162.965625 228.96 
L 1162.965625 7.2 
L 46.965625 7.2 
z
" style="fill:#ffffff;"/>
   </g>
   <g id="matplotlib.axis_1">
    <g id="xtick_1">
     <g id="line2d_1">
      <defs>
       <path d="M 0 0 
L 0 3.5 
" id="m071b1338c8" style="stroke:#000000;stroke-width:0.8;"/>
      </defs>
      <g>
       <use style="stroke:#000000;stroke-width:0.8;" x="74.635046" xlink:href="#m071b1338c8" y="228.96"/>
      </g>
     </g>
     <g id="text_1">
      <!-- 2020-10 -->
      <g transform="translate(77.394421 277.742812)rotate(-90)scale(0.1 -0.1)">
       <defs>
        <path d="M 1228 531 
L 3431 531 
L 3431 0 
L 469 0 
L 469 531 
Q 828 903 1448 1529 
Q 2069 2156 2228 2338 
Q 2531 2678 2651 2914 
Q 2772 3150 2772 3378 
Q 2772 3750 2511 3984 
Q 2250 4219 1831 4219 
Q 1534 4219 1204 4116 
Q 875 4013 500 3803 
L 500 4441 
Q 881 4594 1212 4672 
Q 1544 4750 1819 4750 
Q 2544 4750 2975 4387 
Q 3406 4025 3406 3419 
Q 3406 3131 3298 2873 
Q 3191 2616 2906 2266 
Q 2828 2175 2409 1742 
Q 1991 1309 1228 531 
z
" id="DejaVuSans-32" transform="scale(0.015625)"/>
        <path d="M 2034 4250 
Q 1547 4250 1301 3770 
Q 1056 3291 1056 2328 
Q 1056 1369 1301 889 
Q 1547 409 2034 409 
Q 2525 409 2770 889 
Q 3016 1369 3016 2328 
Q 3016 3291 2770 3770 
Q 2525 4250 2034 4250 
z
M 2034 4750 
Q 2819 4750 3233 4129 
Q 3647 3509 3647 2328 
Q 3647 1150 3233 529 
Q 2819 -91 2034 -91 
Q 1250 -91 836 529 
Q 422 1150 422 2328 
Q 422 3509 836 4129 
Q 1250 4750 2034 4750 
z
" id="DejaVuSans-30" transform="scale(0.015625)"/>
        <path d="M 313 2009 
L 1997 2009 
L 1997 1497 
L 313 1497 
L 313 2009 
z
" id="DejaVuSans-2d" transform="scale(0.015625)"/>
        <path d="M 794 531 
L 1825 531 
L 1825 4091 
L 703 3866 
L 703 4441 
L 1819 4666 
L 2450 4666 
L 2450 531 
L 3481 531 
L 3481 0 
L 794 0 
L 794 531 
z
" id="DejaVuSans-31" transform="scale(0.015625)"/>
       </defs>
       <use xlink:href="#DejaVuSans-32"/>
       <use x="63.623047" xlink:href="#DejaVuSans-30"/>
       <use x="127.246094" xlink:href="#DejaVuSans-32"/>
       <use x="190.869141" xlink:href="#DejaVuSans-30"/>
       <use x="254.492188" xlink:href="#DejaVuSans-2d"/>
       <use x="290.576172" xlink:href="#DejaVuSans-31"/>
       <use x="354.199219" xlink:href="#DejaVuSans-30"/>
      </g>
     </g>
    </g>
    <g id="xtick_2">
     <g id="line2d_2">
      <g>
       <use style="stroke:#000000;stroke-width:0.8;" x="193.767278" xlink:href="#m071b1338c8" y="228.96"/>
      </g>
     </g>
     <g id="text_2">
      <!-- 2020-11 -->
      <g transform="translate(196.526653 277.742812)rotate(-90)scale(0.1 -0.1)">
       <use xlink:href="#DejaVuSans-32"/>
       <use x="63.623047" xlink:href="#DejaVuSans-30"/>
       <use x="127.246094" xlink:href="#DejaVuSans-32"/>
       <use x="190.869141" xlink:href="#DejaVuSans-30"/>
       <use x="254.492188" xlink:href="#DejaVuSans-2d"/>
       <use x="290.576172" xlink:href="#DejaVuSans-31"/>
       <use x="354.199219" xlink:href="#DejaVuSans-31"/>
      </g>
     </g>
    </g>
    <g id="xtick_3">
     <g id="line2d_3">
      <g>
       <use style="stroke:#000000;stroke-width:0.8;" x="309.056534" xlink:href="#m071b1338c8" y="228.96"/>
      </g>
     </g>
     <g id="text_3">
      <!-- 2020-12 -->
      <g transform="translate(311.815909 277.742812)rotate(-90)scale(0.1 -0.1)">
       <use xlink:href="#DejaVuSans-32"/>
       <use x="63.623047" xlink:href="#DejaVuSans-30"/>
       <use x="127.246094" xlink:href="#DejaVuSans-32"/>
       <use x="190.869141" xlink:href="#DejaVuSans-30"/>
       <use x="254.492188" xlink:href="#DejaVuSans-2d"/>
       <use x="290.576172" xlink:href="#DejaVuSans-31"/>
       <use x="354.199219" xlink:href="#DejaVuSans-32"/>
      </g>
     </g>
    </g>
    <g id="xtick_4">
     <g id="line2d_4">
      <g>
       <use style="stroke:#000000;stroke-width:0.8;" x="428.188765" xlink:href="#m071b1338c8" y="228.96"/>
      </g>
     </g>
     <g id="text_4">
      <!-- 2021-01 -->
      <g transform="translate(430.94814 277.742812)rotate(-90)scale(0.1 -0.1)">
       <use xlink:href="#DejaVuSans-32"/>
       <use x="63.623047" xlink:href="#DejaVuSans-30"/>
       <use x="127.246094" xlink:href="#DejaVuSans-32"/>
       <use x="190.869141" xlink:href="#DejaVuSans-31"/>
       <use x="254.492188" xlink:href="#DejaVuSans-2d"/>
       <use x="290.576172" xlink:href="#DejaVuSans-30"/>
       <use x="354.199219" xlink:href="#DejaVuSans-31"/>
      </g>
     </g>
    </g>
    <g id="xtick_5">
     <g id="line2d_5">
      <g>
       <use style="stroke:#000000;stroke-width:0.8;" x="547.320997" xlink:href="#m071b1338c8" y="228.96"/>
      </g>
     </g>
     <g id="text_5">
      <!-- 2021-02 -->
      <g transform="translate(550.080372 277.742812)rotate(-90)scale(0.1 -0.1)">
       <use xlink:href="#DejaVuSans-32"/>
       <use x="63.623047" xlink:href="#DejaVuSans-30"/>
       <use x="127.246094" xlink:href="#DejaVuSans-32"/>
       <use x="190.869141" xlink:href="#DejaVuSans-31"/>
       <use x="254.492188" xlink:href="#DejaVuSans-2d"/>
       <use x="290.576172" xlink:href="#DejaVuSans-30"/>
       <use x="354.199219" xlink:href="#DejaVuSans-32"/>
      </g>
     </g>
    </g>
    <g id="xtick_6">
     <g id="line2d_6">
      <g>
       <use style="stroke:#000000;stroke-width:0.8;" x="654.924303" xlink:href="#m071b1338c8" y="228.96"/>
      </g>
     </g>
     <g id="text_6">
      <!-- 2021-03 -->
      <g transform="translate(657.683678 277.742812)rotate(-90)scale(0.1 -0.1)">
       <defs>
        <path d="M 2597 2516 
Q 3050 2419 3304 2112 
Q 3559 1806 3559 1356 
Q 3559 666 3084 287 
Q 2609 -91 1734 -91 
Q 1441 -91 1130 -33 
Q 819 25 488 141 
L 488 750 
Q 750 597 1062 519 
Q 1375 441 1716 441 
Q 2309 441 2620 675 
Q 2931 909 2931 1356 
Q 2931 1769 2642 2001 
Q 2353 2234 1838 2234 
L 1294 2234 
L 1294 2753 
L 1863 2753 
Q 2328 2753 2575 2939 
Q 2822 3125 2822 3475 
Q 2822 3834 2567 4026 
Q 2313 4219 1838 4219 
Q 1578 4219 1281 4162 
Q 984 4106 628 3988 
L 628 4550 
Q 988 4650 1302 4700 
Q 1616 4750 1894 4750 
Q 2613 4750 3031 4423 
Q 3450 4097 3450 3541 
Q 3450 3153 3228 2886 
Q 3006 2619 2597 2516 
z
" id="DejaVuSans-33" transform="scale(0.015625)"/>
       </defs>
       <use xlink:href="#DejaVuSans-32"/>
       <use x="63.623047" xlink:href="#DejaVuSans-30"/>
       <use x="127.246094" xlink:href="#DejaVuSans-32"/>
       <use x="190.869141" xlink:href="#DejaVuSans-31"/>
       <use x="254.492188" xlink:href="#DejaVuSans-2d"/>
       <use x="290.576172" xlink:href="#DejaVuSans-30"/>
       <use x="354.199219" xlink:href="#DejaVuSans-33"/>
      </g>
     </g>
    </g>
    <g id="xtick_7">
     <g id="line2d_7">
      <g>
       <use style="stroke:#000000;stroke-width:0.8;" x="774.056534" xlink:href="#m071b1338c8" y="228.96"/>
      </g>
     </g>
     <g id="text_7">
      <!-- 2021-04 -->
      <g transform="translate(776.815909 277.742812)rotate(-90)scale(0.1 -0.1)">
       <defs>
        <path d="M 2419 4116 
L 825 1625 
L 2419 1625 
L 2419 4116 
z
M 2253 4666 
L 3047 4666 
L 3047 1625 
L 3713 1625 
L 3713 1100 
L 3047 1100 
L 3047 0 
L 2419 0 
L 2419 1100 
L 313 1100 
L 313 1709 
L 2253 4666 
z
" id="DejaVuSans-34" transform="scale(0.015625)"/>
       </defs>
       <use xlink:href="#DejaVuSans-32"/>
       <use x="63.623047" xlink:href="#DejaVuSans-30"/>
       <use x="127.246094" xlink:href="#DejaVuSans-32"/>
       <use x="190.869141" xlink:href="#DejaVuSans-31"/>
       <use x="254.492188" xlink:href="#DejaVuSans-2d"/>
       <use x="290.576172" xlink:href="#DejaVuSans-30"/>
       <use x="354.199219" xlink:href="#DejaVuSans-34"/>
      </g>
     </g>
    </g>
    <g id="xtick_8">
     <g id="line2d_8">
      <g>
       <use style="stroke:#000000;stroke-width:0.8;" x="889.34579" xlink:href="#m071b1338c8" y="228.96"/>
      </g>
     </g>
     <g id="text_8">
      <!-- 2021-05 -->
      <g transform="translate(892.105165 277.742812)rotate(-90)scale(0.1 -0.1)">
       <defs>
        <path d="M 691 4666 
L 3169 4666 
L 3169 4134 
L 1269 4134 
L 1269 2991 
Q 1406 3038 1543 3061 
Q 1681 3084 1819 3084 
Q 2600 3084 3056 2656 
Q 3513 2228 3513 1497 
Q 3513 744 3044 326 
Q 2575 -91 1722 -91 
Q 1428 -91 1123 -41 
Q 819 9 494 109 
L 494 744 
Q 775 591 1075 516 
Q 1375 441 1709 441 
Q 2250 441 2565 725 
Q 2881 1009 2881 1497 
Q 2881 1984 2565 2268 
Q 2250 2553 1709 2553 
Q 1456 2553 1204 2497 
Q 953 2441 691 2322 
L 691 4666 
z
" id="DejaVuSans-35" transform="scale(0.015625)"/>
       </defs>
       <use xlink:href="#DejaVuSans-32"/>
       <use x="63.623047" xlink:href="#DejaVuSans-30"/>
       <use x="127.246094" xlink:href="#DejaVuSans-32"/>
       <use x="190.869141" xlink:href="#DejaVuSans-31"/>
       <use x="254.492188" xlink:href="#DejaVuSans-2d"/>
       <use x="290.576172" xlink:href="#DejaVuSans-30"/>
       <use x="354.199219" xlink:href="#DejaVuSans-35"/>
      </g>
     </g>
    </g>
    <g id="xtick_9">
     <g id="line2d_9">
      <g>
       <use style="stroke:#000000;stroke-width:0.8;" x="1008.478022" xlink:href="#m071b1338c8" y="228.96"/>
      </g>
     </g>
     <g id="text_9">
      <!-- 2021-06 -->
      <g transform="translate(1011.237397 277.742812)rotate(-90)scale(0.1 -0.1)">
       <defs>
        <path d="M 2113 2584 
Q 1688 2584 1439 2293 
Q 1191 2003 1191 1497 
Q 1191 994 1439 701 
Q 1688 409 2113 409 
Q 2538 409 2786 701 
Q 3034 994 3034 1497 
Q 3034 2003 2786 2293 
Q 2538 2584 2113 2584 
z
M 3366 4563 
L 3366 3988 
Q 3128 4100 2886 4159 
Q 2644 4219 2406 4219 
Q 1781 4219 1451 3797 
Q 1122 3375 1075 2522 
Q 1259 2794 1537 2939 
Q 1816 3084 2150 3084 
Q 2853 3084 3261 2657 
Q 3669 2231 3669 1497 
Q 3669 778 3244 343 
Q 2819 -91 2113 -91 
Q 1303 -91 875 529 
Q 447 1150 447 2328 
Q 447 3434 972 4092 
Q 1497 4750 2381 4750 
Q 2619 4750 2861 4703 
Q 3103 4656 3366 4563 
z
" id="DejaVuSans-36" transform="scale(0.015625)"/>
       </defs>
       <use xlink:href="#DejaVuSans-32"/>
       <use x="63.623047" xlink:href="#DejaVuSans-30"/>
       <use x="127.246094" xlink:href="#DejaVuSans-32"/>
       <use x="190.869141" xlink:href="#DejaVuSans-31"/>
       <use x="254.492188" xlink:href="#DejaVuSans-2d"/>
       <use x="290.576172" xlink:href="#DejaVuSans-30"/>
       <use x="354.199219" xlink:href="#DejaVuSans-36"/>
      </g>
     </g>
    </g>
    <g id="xtick_10">
     <g id="line2d_10">
      <g>
       <use style="stroke:#000000;stroke-width:0.8;" x="1123.767278" xlink:href="#m071b1338c8" y="228.96"/>
      </g>
     </g>
     <g id="text_10">
      <!-- 2021-07 -->
      <g transform="translate(1126.526653 277.742812)rotate(-90)scale(0.1 -0.1)">
       <defs>
        <path d="M 525 4666 
L 3525 4666 
L 3525 4397 
L 1831 0 
L 1172 0 
L 2766 4134 
L 525 4134 
L 525 4666 
z
" id="DejaVuSans-37" transform="scale(0.015625)"/>
       </defs>
       <use xlink:href="#DejaVuSans-32"/>
       <use x="63.623047" xlink:href="#DejaVuSans-30"/>
       <use x="127.246094" xlink:href="#DejaVuSans-32"/>
       <use x="190.869141" xlink:href="#DejaVuSans-31"/>
       <use x="254.492188" xlink:href="#DejaVuSans-2d"/>
       <use x="290.576172" xlink:href="#DejaVuSans-30"/>
       <use x="354.199219" xlink:href="#DejaVuSans-37"/>
      </g>
     </g>
    </g>
    <g id="text_11">
     <!-- Date -->
     <g transform="translate(593.014844 289.34125)scale(0.1 -0.1)">
      <defs>
       <path d="M 1259 4147 
L 1259 519 
L 2022 519 
Q 2988 519 3436 956 
Q 3884 1394 3884 2338 
Q 3884 3275 3436 3711 
Q 2988 4147 2022 4147 
L 1259 4147 
z
M 628 4666 
L 1925 4666 
Q 3281 4666 3915 4102 
Q 4550 3538 4550 2338 
Q 4550 1131 3912 565 
Q 3275 0 1925 0 
L 628 0 
L 628 4666 
z
" id="DejaVuSans-44" transform="scale(0.015625)"/>
       <path d="M 2194 1759 
Q 1497 1759 1228 1600 
Q 959 1441 959 1056 
Q 959 750 1161 570 
Q 1363 391 1709 391 
Q 2188 391 2477 730 
Q 2766 1069 2766 1631 
L 2766 1759 
L 2194 1759 
z
M 3341 1997 
L 3341 0 
L 2766 0 
L 2766 531 
Q 2569 213 2275 61 
Q 1981 -91 1556 -91 
Q 1019 -91 701 211 
Q 384 513 384 1019 
Q 384 1609 779 1909 
Q 1175 2209 1959 2209 
L 2766 2209 
L 2766 2266 
Q 2766 2663 2505 2880 
Q 2244 3097 1772 3097 
Q 1472 3097 1187 3025 
Q 903 2953 641 2809 
L 641 3341 
Q 956 3463 1253 3523 
Q 1550 3584 1831 3584 
Q 2591 3584 2966 3190 
Q 3341 2797 3341 1997 
z
" id="DejaVuSans-61" transform="scale(0.015625)"/>
       <path d="M 1172 4494 
L 1172 3500 
L 2356 3500 
L 2356 3053 
L 1172 3053 
L 1172 1153 
Q 1172 725 1289 603 
Q 1406 481 1766 481 
L 2356 481 
L 2356 0 
L 1766 0 
Q 1100 0 847 248 
Q 594 497 594 1153 
L 594 3053 
L 172 3053 
L 172 3500 
L 594 3500 
L 594 4494 
L 1172 4494 
z
" id="DejaVuSans-74" transform="scale(0.015625)"/>
       <path d="M 3597 1894 
L 3597 1613 
L 953 1613 
Q 991 1019 1311 708 
Q 1631 397 2203 397 
Q 2534 397 2845 478 
Q 3156 559 3463 722 
L 3463 178 
Q 3153 47 2828 -22 
Q 2503 -91 2169 -91 
Q 1331 -91 842 396 
Q 353 884 353 1716 
Q 353 2575 817 3079 
Q 1281 3584 2069 3584 
Q 2775 3584 3186 3129 
Q 3597 2675 3597 1894 
z
M 3022 2063 
Q 3016 2534 2758 2815 
Q 2500 3097 2075 3097 
Q 1594 3097 1305 2825 
Q 1016 2553 972 2059 
L 3022 2063 
z
" id="DejaVuSans-65" transform="scale(0.015625)"/>
      </defs>
      <use xlink:href="#DejaVuSans-44"/>
      <use x="77.001953" xlink:href="#DejaVuSans-61"/>
      <use x="138.28125" xlink:href="#DejaVuSans-74"/>
      <use x="177.490234" xlink:href="#DejaVuSans-65"/>
     </g>
    </g>
   </g>
   <g id="matplotlib.axis_2">
    <g id="ytick_1">
     <g id="line2d_11">
      <defs>
       <path d="M 0 0 
L -3.5 0 
" id="m5aa29e11ed" style="stroke:#000000;stroke-width:0.8;"/>
      </defs>
      <g>
       <use style="stroke:#000000;stroke-width:0.8;" x="46.965625" xlink:href="#m5aa29e11ed" y="228.96"/>
      </g>
     </g>
     <g id="text_12">
      <!-- 1 -->
      <g transform="translate(33.603125 232.759219)scale(0.1 -0.1)">
       <use xlink:href="#DejaVuSans-31"/>
      </g>
     </g>
    </g>
    <g id="ytick_2">
     <g id="line2d_12">
      <g>
       <use style="stroke:#000000;stroke-width:0.8;" x="46.965625" xlink:href="#m5aa29e11ed" y="188.455979"/>
      </g>
     </g>
     <g id="text_13">
      <!-- 3 -->
      <g transform="translate(33.603125 192.255197)scale(0.1 -0.1)">
       <use xlink:href="#DejaVuSans-33"/>
      </g>
     </g>
    </g>
    <g id="ytick_3">
     <g id="line2d_13">
      <g>
       <use style="stroke:#000000;stroke-width:0.8;" x="46.965625" xlink:href="#m5aa29e11ed" y="147.951957"/>
      </g>
     </g>
     <g id="text_14">
      <!-- 10 -->
      <g transform="translate(27.240625 151.751176)scale(0.1 -0.1)">
       <use xlink:href="#DejaVuSans-31"/>
       <use x="63.623047" xlink:href="#DejaVuSans-30"/>
      </g>
     </g>
    </g>
    <g id="ytick_4">
     <g id="line2d_14">
      <g>
       <use style="stroke:#000000;stroke-width:0.8;" x="46.965625" xlink:href="#m5aa29e11ed" y="107.447936"/>
      </g>
     </g>
     <g id="text_15">
      <!-- 31 -->
      <g transform="translate(27.240625 111.247155)scale(0.1 -0.1)">
       <use xlink:href="#DejaVuSans-33"/>
       <use x="63.623047" xlink:href="#DejaVuSans-31"/>
      </g>
     </g>
    </g>
    <g id="ytick_5">
     <g id="line2d_15">
      <g>
       <use style="stroke:#000000;stroke-width:0.8;" x="46.965625" xlink:href="#m5aa29e11ed" y="66.943914"/>
      </g>
     </g>
     <g id="text_16">
      <!-- 100 -->
      <g transform="translate(20.878125 70.743133)scale(0.1 -0.1)">
       <use xlink:href="#DejaVuSans-31"/>
       <use x="63.623047" xlink:href="#DejaVuSans-30"/>
       <use x="127.246094" xlink:href="#DejaVuSans-30"/>
      </g>
     </g>
    </g>
    <g id="ytick_6">
     <g id="line2d_16">
      <g>
       <use style="stroke:#000000;stroke-width:0.8;" x="46.965625" xlink:href="#m5aa29e11ed" y="26.439893"/>
      </g>
     </g>
     <g id="text_17">
      <!-- 316 -->
      <g transform="translate(20.878125 30.239112)scale(0.1 -0.1)">
       <use xlink:href="#DejaVuSans-33"/>
       <use x="63.623047" xlink:href="#DejaVuSans-31"/>
       <use x="127.246094" xlink:href="#DejaVuSans-36"/>
      </g>
     </g>
    </g>
    <g id="text_18">
     <!-- Count (7 day rolling average) -->
     <g transform="translate(14.798438 191.547969)rotate(-90)scale(0.1 -0.1)">
      <defs>
       <path d="M 4122 4306 
L 4122 3641 
Q 3803 3938 3442 4084 
Q 3081 4231 2675 4231 
Q 1875 4231 1450 3742 
Q 1025 3253 1025 2328 
Q 1025 1406 1450 917 
Q 1875 428 2675 428 
Q 3081 428 3442 575 
Q 3803 722 4122 1019 
L 4122 359 
Q 3791 134 3420 21 
Q 3050 -91 2638 -91 
Q 1578 -91 968 557 
Q 359 1206 359 2328 
Q 359 3453 968 4101 
Q 1578 4750 2638 4750 
Q 3056 4750 3426 4639 
Q 3797 4528 4122 4306 
z
" id="DejaVuSans-43" transform="scale(0.015625)"/>
       <path d="M 1959 3097 
Q 1497 3097 1228 2736 
Q 959 2375 959 1747 
Q 959 1119 1226 758 
Q 1494 397 1959 397 
Q 2419 397 2687 759 
Q 2956 1122 2956 1747 
Q 2956 2369 2687 2733 
Q 2419 3097 1959 3097 
z
M 1959 3584 
Q 2709 3584 3137 3096 
Q 3566 2609 3566 1747 
Q 3566 888 3137 398 
Q 2709 -91 1959 -91 
Q 1206 -91 779 398 
Q 353 888 353 1747 
Q 353 2609 779 3096 
Q 1206 3584 1959 3584 
z
" id="DejaVuSans-6f" transform="scale(0.015625)"/>
       <path d="M 544 1381 
L 544 3500 
L 1119 3500 
L 1119 1403 
Q 1119 906 1312 657 
Q 1506 409 1894 409 
Q 2359 409 2629 706 
Q 2900 1003 2900 1516 
L 2900 3500 
L 3475 3500 
L 3475 0 
L 2900 0 
L 2900 538 
Q 2691 219 2414 64 
Q 2138 -91 1772 -91 
Q 1169 -91 856 284 
Q 544 659 544 1381 
z
M 1991 3584 
L 1991 3584 
z
" id="DejaVuSans-75" transform="scale(0.015625)"/>
       <path d="M 3513 2113 
L 3513 0 
L 2938 0 
L 2938 2094 
Q 2938 2591 2744 2837 
Q 2550 3084 2163 3084 
Q 1697 3084 1428 2787 
Q 1159 2491 1159 1978 
L 1159 0 
L 581 0 
L 581 3500 
L 1159 3500 
L 1159 2956 
Q 1366 3272 1645 3428 
Q 1925 3584 2291 3584 
Q 2894 3584 3203 3211 
Q 3513 2838 3513 2113 
z
" id="DejaVuSans-6e" transform="scale(0.015625)"/>
       <path id="DejaVuSans-20" transform="scale(0.015625)"/>
       <path d="M 1984 4856 
Q 1566 4138 1362 3434 
Q 1159 2731 1159 2009 
Q 1159 1288 1364 580 
Q 1569 -128 1984 -844 
L 1484 -844 
Q 1016 -109 783 600 
Q 550 1309 550 2009 
Q 550 2706 781 3412 
Q 1013 4119 1484 4856 
L 1984 4856 
z
" id="DejaVuSans-28" transform="scale(0.015625)"/>
       <path d="M 2906 2969 
L 2906 4863 
L 3481 4863 
L 3481 0 
L 2906 0 
L 2906 525 
Q 2725 213 2448 61 
Q 2172 -91 1784 -91 
Q 1150 -91 751 415 
Q 353 922 353 1747 
Q 353 2572 751 3078 
Q 1150 3584 1784 3584 
Q 2172 3584 2448 3432 
Q 2725 3281 2906 2969 
z
M 947 1747 
Q 947 1113 1208 752 
Q 1469 391 1925 391 
Q 2381 391 2643 752 
Q 2906 1113 2906 1747 
Q 2906 2381 2643 2742 
Q 2381 3103 1925 3103 
Q 1469 3103 1208 2742 
Q 947 2381 947 1747 
z
" id="DejaVuSans-64" transform="scale(0.015625)"/>
       <path d="M 2059 -325 
Q 1816 -950 1584 -1140 
Q 1353 -1331 966 -1331 
L 506 -1331 
L 506 -850 
L 844 -850 
Q 1081 -850 1212 -737 
Q 1344 -625 1503 -206 
L 1606 56 
L 191 3500 
L 800 3500 
L 1894 763 
L 2988 3500 
L 3597 3500 
L 2059 -325 
z
" id="DejaVuSans-79" transform="scale(0.015625)"/>
       <path d="M 2631 2963 
Q 2534 3019 2420 3045 
Q 2306 3072 2169 3072 
Q 1681 3072 1420 2755 
Q 1159 2438 1159 1844 
L 1159 0 
L 581 0 
L 581 3500 
L 1159 3500 
L 1159 2956 
Q 1341 3275 1631 3429 
Q 1922 3584 2338 3584 
Q 2397 3584 2469 3576 
Q 2541 3569 2628 3553 
L 2631 2963 
z
" id="DejaVuSans-72" transform="scale(0.015625)"/>
       <path d="M 603 4863 
L 1178 4863 
L 1178 0 
L 603 0 
L 603 4863 
z
" id="DejaVuSans-6c" transform="scale(0.015625)"/>
       <path d="M 603 3500 
L 1178 3500 
L 1178 0 
L 603 0 
L 603 3500 
z
M 603 4863 
L 1178 4863 
L 1178 4134 
L 603 4134 
L 603 4863 
z
" id="DejaVuSans-69" transform="scale(0.015625)"/>
       <path d="M 2906 1791 
Q 2906 2416 2648 2759 
Q 2391 3103 1925 3103 
Q 1463 3103 1205 2759 
Q 947 2416 947 1791 
Q 947 1169 1205 825 
Q 1463 481 1925 481 
Q 2391 481 2648 825 
Q 2906 1169 2906 1791 
z
M 3481 434 
Q 3481 -459 3084 -895 
Q 2688 -1331 1869 -1331 
Q 1566 -1331 1297 -1286 
Q 1028 -1241 775 -1147 
L 775 -588 
Q 1028 -725 1275 -790 
Q 1522 -856 1778 -856 
Q 2344 -856 2625 -561 
Q 2906 -266 2906 331 
L 2906 616 
Q 2728 306 2450 153 
Q 2172 0 1784 0 
Q 1141 0 747 490 
Q 353 981 353 1791 
Q 353 2603 747 3093 
Q 1141 3584 1784 3584 
Q 2172 3584 2450 3431 
Q 2728 3278 2906 2969 
L 2906 3500 
L 3481 3500 
L 3481 434 
z
" id="DejaVuSans-67" transform="scale(0.015625)"/>
       <path d="M 191 3500 
L 800 3500 
L 1894 563 
L 2988 3500 
L 3597 3500 
L 2284 0 
L 1503 0 
L 191 3500 
z
" id="DejaVuSans-76" transform="scale(0.015625)"/>
       <path d="M 513 4856 
L 1013 4856 
Q 1481 4119 1714 3412 
Q 1947 2706 1947 2009 
Q 1947 1309 1714 600 
Q 1481 -109 1013 -844 
L 513 -844 
Q 928 -128 1133 580 
Q 1338 1288 1338 2009 
Q 1338 2731 1133 3434 
Q 928 4138 513 4856 
z
" id="DejaVuSans-29" transform="scale(0.015625)"/>
      </defs>
      <use xlink:href="#DejaVuSans-43"/>
      <use x="69.824219" xlink:href="#DejaVuSans-6f"/>
      <use x="131.005859" xlink:href="#DejaVuSans-75"/>
      <use x="194.384766" xlink:href="#DejaVuSans-6e"/>
      <use x="257.763672" xlink:href="#DejaVuSans-74"/>
      <use x="296.972656" xlink:href="#DejaVuSans-20"/>
      <use x="328.759766" xlink:href="#DejaVuSans-28"/>
      <use x="367.773438" xlink:href="#DejaVuSans-37"/>
      <use x="431.396484" xlink:href="#DejaVuSans-20"/>
      <use x="463.183594" xlink:href="#DejaVuSans-64"/>
      <use x="526.660156" xlink:href="#DejaVuSans-61"/>
      <use x="587.939453" xlink:href="#DejaVuSans-79"/>
      <use x="647.119141" xlink:href="#DejaVuSans-20"/>
      <use x="678.90625" xlink:href="#DejaVuSans-72"/>
      <use x="717.769531" xlink:href="#DejaVuSans-6f"/>
      <use x="778.951172" xlink:href="#DejaVuSans-6c"/>
      <use x="806.734375" xlink:href="#DejaVuSans-6c"/>
      <use x="834.517578" xlink:href="#DejaVuSans-69"/>
      <use x="862.300781" xlink:href="#DejaVuSans-6e"/>
      <use x="925.679688" xlink:href="#DejaVuSans-67"/>
      <use x="989.15625" xlink:href="#DejaVuSans-20"/>
      <use x="1020.943359" xlink:href="#DejaVuSans-61"/>
      <use x="1082.222656" xlink:href="#DejaVuSans-76"/>
      <use x="1141.402344" xlink:href="#DejaVuSans-65"/>
      <use x="1202.925781" xlink:href="#DejaVuSans-72"/>
      <use x="1244.039062" xlink:href="#DejaVuSans-61"/>
      <use x="1305.318359" xlink:href="#DejaVuSans-67"/>
      <use x="1368.794922" xlink:href="#DejaVuSans-65"/>
      <use x="1430.318359" xlink:href="#DejaVuSans-29"/>
     </g>
    </g>
   </g>
   <g id="line2d_17">
    <path clip-path="url(#p42b35cd1c4)" d="M 481.990418 216.411695 
L 485.833394 220.11842 
L 489.676369 213.058555 
L 493.519344 220.11842 
L 497.362319 213.058555 
L 501.205294 209.997378 
L 512.73422 209.997378 
L 516.577195 216.411695 
L 520.42017 216.411695 
L 524.263146 224.262186 
L 528.106121 224.262186 
L 531.949096 220.11842 
L 555.006947 220.11842 
L 558.849923 224.262186 
L 562.692898 220.11842 
L 566.535873 216.411695 
L 570.378848 213.058555 
L 574.221823 202.146887 
L 578.064799 202.146887 
L 581.907774 204.574149 
L 585.750749 204.574149 
L 589.593724 207.181367 
L 601.12265 207.181367 
L 604.965625 202.146887 
L 608.8086 199.876335 
L 612.651575 199.876335 
L 616.494551 197.743479 
L 620.337526 193.830412 
L 624.180501 195.732569 
L 628.023476 192.025845 
L 631.866451 188.672704 
L 635.709427 176.607446 
L 639.552402 170.382786 
L 643.395377 169.444561 
L 647.238352 167.639994 
L 651.081327 163.496228 
L 654.924303 160.500262 
L 658.767278 149.492992 
L 662.610253 146.4756 
L 666.453228 142.817102 
L 670.296204 134.70697 
L 674.139179 132.69606 
L 677.982154 130.486639 
L 681.825129 126.173325 
L 685.668104 124.845569 
L 689.51108 123.315704 
L 693.354055 116.120004 
L 697.19703 107.824941 
L 701.040005 102.195773 
L 704.88298 100.459718 
L 708.725956 97.225234 
L 716.411906 88.436518 
L 724.097856 83.039752 
L 727.940832 77.809922 
L 731.783807 71.498424 
L 735.626782 65.419397 
L 739.469757 60.993348 
L 743.312732 53.906487 
L 747.155708 49.083126 
L 750.998683 45.219449 
L 754.841658 42.886274 
L 758.684633 41.615871 
L 762.527608 39.780736 
L 766.370584 38.660871 
L 770.213559 38.459001 
L 774.056534 36.713753 
L 777.899509 35.831021 
L 781.742485 36.101888 
L 785.58546 35.479927 
L 789.428435 33.269792 
L 793.27141 32.224066 
L 797.114385 30.738472 
L 800.957361 30.756435 
L 804.800336 29.957027 
L 808.643311 28.629922 
L 816.329261 26.881215 
L 820.172237 25.44633 
L 824.015212 24.246418 
L 827.858187 22.698131 
L 831.701162 21.39367 
L 835.544137 20.603963 
L 839.387113 20.603963 
L 843.230088 19.529943 
L 847.073063 19.373582 
L 850.916038 19.582219 
L 854.759013 20.215658 
L 858.601989 21.42122 
L 862.444964 22.229702 
L 866.287939 22.698131 
L 870.130914 21.10569 
L 873.973889 20.282302 
L 877.816865 20.202345 
L 881.65984 19.726378 
L 885.502815 18.947136 
L 889.34579 18.818924 
L 893.188765 18.12199 
L 897.031741 18.386465 
L 900.874716 18.298085 
L 904.717691 17.76 
L 912.403642 19.464708 
L 916.246617 20.671347 
L 920.089592 22.385153 
L 923.932567 25.539157 
L 927.775542 27.139665 
L 931.618518 29.624877 
L 935.461493 30.720518 
L 939.304468 33.077334 
L 946.990418 34.367461 
L 958.519344 38.481374 
L 962.362319 39.090883 
L 966.205294 38.414298 
L 973.891245 40.389749 
L 981.577195 45.382451 
L 985.42017 46.941374 
L 989.263146 48.872007 
L 993.106121 51.234893 
L 1000.792071 53.526891 
L 1004.635046 58.733407 
L 1008.478022 57.482383 
L 1020.006947 61.078327 
L 1023.849923 61.463294 
L 1027.692898 60.404173 
L 1031.535873 57.100388 
L 1039.221823 67.757392 
L 1043.064799 73.925686 
L 1046.907774 79.27748 
L 1050.750749 82.723513 
L 1054.593724 87.976625 
L 1058.436699 98.929854 
L 1062.279675 107.985955 
L 1066.12265 113.570937 
L 1069.965625 119.759007 
L 1073.8086 127.835745 
L 1077.651575 132.69606 
L 1081.494551 137.956787 
L 1085.337526 150.559175 
L 1089.180501 156.436363 
L 1093.023476 161.225676 
L 1096.866451 165.095656 
L 1100.709427 167.639994 
L 1104.552402 171.346719 
L 1108.395377 171.346719 
L 1112.238352 184.175354 
L 1112.238352 184.175354 
" style="fill:none;stroke:#947383;stroke-linecap:square;stroke-width:2;"/>
   </g>
   <g id="line2d_18">
    <path clip-path="url(#p42b35cd1c4)" d="M 97.692898 224.262186 
L 101.535873 228.96 
L 116.907774 228.96 
L 120.750749 224.262186 
L 143.8086 224.262186 
L 147.651575 228.96 
L 166.866451 228.96 
L 170.709427 220.11842 
L 193.767278 220.11842 
L 197.610253 228.96 
L 201.453228 224.262186 
L 224.51108 224.262186 
L 228.354055 228.96 
L 255.254881 228.96 
L 259.097856 220.11842 
L 262.940832 220.11842 
L 266.783807 216.411695 
L 282.155708 216.411695 
L 285.998683 224.262186 
L 289.841658 224.262186 
L 293.684633 228.96 
L 301.370584 228.96 
L 305.213559 224.262186 
L 316.742485 224.262186 
L 320.58546 220.11842 
L 324.428435 220.11842 
L 328.27141 216.411695 
L 343.643311 216.411695 
L 347.486286 220.11842 
L 351.329261 220.11842 
L 355.172237 224.262186 
L 359.015212 228.96 
L 362.858187 228.96 
L 366.701162 204.574149 
L 370.544137 190.309341 
L 374.387113 184.175354 
L 382.073063 184.175354 
L 385.916038 167.639994 
L 389.759013 165.095656 
L 393.601989 160.500262 
L 397.444964 165.095656 
L 401.287939 166.771275 
L 405.130914 165.095656 
L 408.973889 162.722981 
L 412.816865 162.722981 
L 416.65984 160.500262 
L 420.502815 164.286853 
L 428.188765 164.286853 
L 432.031741 163.496228 
L 435.874716 163.496228 
L 439.717691 161.966363 
L 443.560666 155.179753 
L 447.403642 155.179753 
L 451.246617 150.022045 
L 455.089592 145.996935 
L 466.618518 147.452923 
L 470.461493 151.104634 
L 474.304468 150.022045 
L 478.147443 152.221596 
L 481.990418 150.022045 
L 485.833394 149.492992 
L 489.676369 146.4756 
L 493.519344 142.385424 
L 497.362319 130.486639 
L 501.205294 131.103872 
L 505.04827 128.697372 
L 508.891245 128.120616 
L 512.73422 125.107142 
L 516.577195 125.636194 
L 520.42017 126.718783 
L 524.263146 133.02333 
L 528.106121 130.486639 
L 531.949096 129.283741 
L 535.792071 129.580632 
L 539.635046 130.182037 
L 543.478022 130.486639 
L 547.320997 130.182037 
L 551.163972 132.050512 
L 555.006947 128.407812 
L 558.849923 128.407812 
L 562.692898 124.328187 
L 566.535873 125.107142 
L 570.378848 123.818304 
L 574.221823 121.138844 
L 578.064799 115.515152 
L 581.907774 115.917229 
L 585.750749 111.371386 
L 589.593724 112.822369 
L 593.436699 112.63769 
L 597.279675 112.089398 
L 601.12265 104.603484 
L 604.965625 107.346276 
L 608.8086 106.408051 
L 612.651575 103.308319 
L 616.494551 99.814171 
L 620.337526 98.311536 
L 624.180501 96.171471 
L 628.023476 96.870461 
L 631.866451 93.293404 
L 635.709427 88.715368 
L 639.552402 90.046713 
L 643.395377 86.985535 
L 647.238352 83.680888 
L 651.081327 83.843014 
L 654.924303 86.19491 
L 658.767278 82.960425 
L 662.610253 85.167645 
L 666.453228 82.723513 
L 670.296204 83.843014 
L 674.139179 87.07449 
L 677.982154 87.253075 
L 681.825129 82.644895 
L 689.51108 78.922468 
L 697.19703 80.80893 
L 704.88298 79.708277 
L 708.725956 79.564091 
L 712.568931 81.63854 
L 716.411906 82.0222 
L 720.254881 83.43909 
L 724.097856 83.761857 
L 727.940832 82.881277 
L 731.783807 70.427972 
L 735.626782 60.529597 
L 739.469757 58.102335 
L 743.312732 55.17824 
L 747.155708 51.949589 
L 750.998683 49.386939 
L 754.841658 49.478597 
L 758.684633 54.927328 
L 762.527608 60.781794 
L 766.370584 60.697527 
L 770.213559 62.334164 
L 774.056534 65.903996 
L 777.899509 70.706527 
L 781.742485 70.261891 
L 785.58546 66.395364 
L 789.428435 59.57925 
L 793.27141 60.237634 
L 797.114385 56.797751 
L 800.957361 51.010501 
L 804.800336 46.404675 
L 808.643311 45.820854 
L 812.486286 48.010622 
L 816.329261 50.978561 
L 820.172237 51.493106 
L 824.015212 51.655457 
L 827.858187 54.360446 
L 831.701162 58.219802 
L 835.544137 59.173931 
L 839.387113 56.200177 
L 843.230088 54.642745 
L 847.073063 51.622926 
L 850.916038 53.561231 
L 854.759013 52.545337 
L 858.601989 50.978561 
L 862.444964 51.074467 
L 870.130914 49.448017 
L 873.973889 49.356439 
L 877.816865 50.819297 
L 881.65984 54.255165 
L 885.502815 55.034643 
L 889.34579 54.855966 
L 893.188765 57.907424 
L 897.031741 62.956859 
L 900.874716 66.544122 
L 904.717691 62.070632 
L 908.560666 62.202151 
L 912.403642 63.865988 
L 916.246617 64.75198 
L 920.089592 65.084106 
L 923.932567 58.024241 
L 927.775542 58.455919 
L 931.618518 57.868571 
L 935.461493 55.106368 
L 943.147443 54.642745 
L 946.990418 51.81856 
L 950.833394 45.13823 
L 954.676369 42.282719 
L 958.519344 42.810261 
L 962.362319 43.707466 
L 966.205294 43.243189 
L 970.04827 43.474562 
L 973.891245 46.236878 
L 977.73422 54.39561 
L 981.577195 53.151346 
L 985.42017 54.115279 
L 989.263146 51.331501 
L 993.106121 51.785879 
L 996.949096 51.785879 
L 1000.792071 52.478642 
L 1004.635046 60.908574 
L 1008.478022 71.727993 
L 1012.320997 77.064957 
L 1016.163972 90.338676 
L 1020.006947 96.988321 
L 1023.849923 97.703899 
L 1027.692898 98.557561 
L 1035.378848 105.046023 
L 1039.221823 111.017802 
L 1043.064799 116.120004 
L 1046.907774 119.759007 
L 1050.750749 120.672859 
L 1054.593724 119.534205 
L 1062.279675 139.503469 
L 1066.12265 151.658682 
L 1069.965625 155.179753 
L 1073.8086 161.225676 
L 1073.8086 161.225676 
" style="fill:none;stroke:#96c6ad;stroke-linecap:square;stroke-width:2;"/>
   </g>
   <g id="line2d_19">
    <path clip-path="url(#p42b35cd1c4)" d="M 493.519344 209.997378 
L 497.362319 209.997378 
L 501.205294 204.574149 
L 505.04827 202.146887 
L 508.891245 195.732569 
L 512.73422 195.732569 
L 516.577195 193.830412 
L 520.42017 188.672704 
L 524.263146 190.309341 
L 528.106121 184.175354 
L 531.949096 185.611527 
L 535.792071 181.467761 
L 539.635046 176.607446 
L 543.478022 175.490484 
L 547.320997 180.188298 
L 551.163972 176.607446 
L 555.006947 182.795517 
L 562.692898 180.188298 
L 566.535873 178.953739 
L 570.378848 181.467761 
L 574.221823 173.357629 
L 578.064799 171.346719 
L 581.907774 162.722981 
L 585.750749 157.739525 
L 589.593724 156.436363 
L 593.436699 158.409666 
L 597.279675 154.567888 
L 601.12265 158.409666 
L 604.965625 156.436363 
L 608.8086 158.409666 
L 612.651575 161.225676 
L 616.494551 162.722981 
L 620.337526 161.225676 
L 624.180501 161.225676 
L 628.023476 157.08191 
L 631.866451 154.567888 
L 635.709427 149.492992 
L 639.552402 146.960868 
L 643.395377 145.996935 
L 647.238352 143.696682 
L 651.081327 144.598817 
L 654.924303 142.817102 
L 658.767278 132.69606 
L 662.610253 132.371805 
L 666.453228 131.732127 
L 670.296204 130.793902 
L 674.139179 128.697372 
L 677.982154 127.272831 
L 681.825129 124.585927 
L 685.668104 131.103872 
L 689.51108 132.050512 
L 693.354055 130.182037 
L 697.19703 128.697372 
L 701.040005 126.994716 
L 704.88298 124.328187 
L 708.725956 122.820184 
L 712.568931 116.529094 
L 716.411906 114.143004 
L 720.254881 114.724527 
L 724.097856 110.667736 
L 727.940832 110.494 
L 731.783807 110.149083 
L 735.626782 107.030746 
L 739.469757 109.637964 
L 743.312732 108.63748 
L 747.155708 105.494199 
L 750.998683 107.030746 
L 754.841658 107.824941 
L 758.684633 107.188157 
L 762.527608 107.346276 
L 766.370584 106.874036 
L 770.213559 107.346276 
L 774.056534 106.408051 
L 777.899509 105.644868 
L 781.742485 104.311521 
L 785.58546 106.254084 
L 789.428435 108.967823 
L 793.27141 101.517884 
L 797.114385 95.599404 
L 800.957361 93.506625 
L 808.643311 89.853408 
L 812.486286 89.853408 
L 816.329261 88.902503 
L 820.172237 92.453213 
L 824.015212 93.936983 
L 827.858187 94.263242 
L 831.701162 92.661387 
L 835.544137 94.592555 
L 839.387113 94.154153 
L 843.230088 91.938103 
L 847.073063 89.949928 
L 850.916038 91.22939 
L 854.759013 93.293404 
L 858.601989 94.813822 
L 862.444964 94.703015 
L 866.287939 94.372671 
L 870.130914 95.599404 
L 873.973889 97.703899 
L 877.816865 99.432453 
L 881.65984 99.559233 
L 885.502815 101.517884 
L 889.34579 100.590262 
L 893.188765 99.942336 
L 897.031741 98.311536 
L 900.874716 99.180256 
L 904.717691 96.056311 
L 908.560666 95.03649 
L 912.403642 95.03649 
L 916.246617 94.372671 
L 920.089592 92.765938 
L 923.932567 92.453213 
L 927.775542 92.557146 
L 931.618518 93.081468 
L 935.461493 92.8708 
L 939.304468 92.040524 
L 943.147443 93.399853 
L 946.990418 95.03649 
L 950.833394 93.828899 
L 954.676369 90.633082 
L 958.519344 91.531378 
L 962.362319 91.938103 
L 966.205294 90.143765 
L 970.04827 89.853408 
L 973.891245 90.046713 
L 977.73422 91.129301 
L 981.577195 92.765938 
L 985.42017 94.703015 
L 989.263146 94.813822 
L 993.106121 97.225234 
L 996.949096 99.306128 
L 1000.792071 99.054832 
L 1004.635046 100.200076 
L 1008.478022 103.592041 
L 1012.320997 102.470628 
L 1016.163972 103.167311 
L 1020.006947 101.787474 
L 1023.849923 100.721291 
L 1027.692898 101.250344 
L 1031.535873 104.311521 
L 1035.378848 102.747648 
L 1039.221823 105.948158 
L 1043.064799 106.562695 
L 1046.907774 111.19415 
L 1050.750749 112.822369 
L 1054.593724 115.715616 
L 1058.436699 117.999573 
L 1062.279675 122.331547 
L 1066.12265 124.072322 
L 1069.965625 128.697372 
L 1073.8086 133.02333 
L 1077.651575 136.114411 
L 1081.494551 137.580513 
L 1085.337526 144.598817 
L 1089.180501 148.458172 
L 1093.023476 151.658682 
L 1096.866451 160.500262 
L 1096.866451 160.500262 
" style="fill:none;stroke:#525886;stroke-linecap:square;stroke-width:2;"/>
   </g>
   <g id="line2d_20">
    <path clip-path="url(#p42b35cd1c4)" d="M 455.089592 213.058555 
L 458.932567 228.96 
L 462.775542 224.262186 
L 485.833394 224.262186 
L 489.676369 228.96 
L 528.106121 228.96 
L 531.949096 209.997378 
L 551.163972 209.997378 
L 555.006947 207.181367 
L 558.849923 224.262186 
L 574.221823 224.262186 
L 578.064799 216.411695 
L 581.907774 220.11842 
L 585.750749 220.11842 
L 589.593724 216.411695 
L 593.436699 213.058555 
L 601.12265 213.058555 
L 604.965625 220.11842 
L 608.8086 220.11842 
L 612.651575 216.411695 
L 616.494551 220.11842 
L 620.337526 224.262186 
L 624.180501 220.11842 
L 628.023476 213.058555 
L 631.866451 213.058555 
L 635.709427 197.743479 
L 639.552402 199.876335 
L 643.395377 197.743479 
L 651.081327 197.743479 
L 654.924303 202.146887 
L 658.767278 202.146887 
L 662.610253 220.11842 
L 666.453228 220.11842 
L 670.296204 216.411695 
L 674.139179 216.411695 
L 677.982154 220.11842 
L 681.825129 213.058555 
L 685.668104 195.732569 
L 689.51108 185.611527 
L 693.354055 176.607446 
L 697.19703 176.607446 
L 701.040005 172.337808 
L 704.88298 169.444561 
L 708.725956 167.639994 
L 712.568931 171.346719 
L 716.411906 177.761036 
L 720.254881 185.611527 
L 724.097856 181.467761 
L 727.940832 187.108831 
L 731.783807 188.672704 
L 735.626782 193.830412 
L 743.312732 193.830412 
L 747.155708 190.309341 
L 750.998683 195.732569 
L 754.841658 195.732569 
L 758.684633 199.876335 
L 762.527608 199.876335 
L 766.370584 204.574149 
L 770.213559 204.574149 
L 774.056534 209.997378 
L 777.899509 216.411695 
L 781.742485 187.108831 
L 785.58546 185.611527 
L 789.428435 185.611527 
L 793.27141 182.795517 
L 797.114385 180.188298 
L 800.957361 180.188298 
L 804.800336 177.761036 
L 808.643311 197.743479 
L 812.486286 190.309341 
L 820.172237 193.830412 
L 824.015212 197.743479 
L 827.858187 197.743479 
L 831.701162 199.876335 
L 835.544137 193.830412 
L 839.387113 204.574149 
L 843.230088 204.574149 
L 847.073063 209.997378 
L 858.601989 209.997378 
L 862.444964 213.058555 
L 866.287939 213.058555 
L 870.130914 209.997378 
L 873.973889 197.743479 
L 877.816865 192.025845 
L 885.502815 192.025845 
L 889.34579 195.732569 
L 893.188765 193.830412 
L 897.031741 190.309341 
L 900.874716 197.743479 
L 904.717691 199.876335 
L 908.560666 202.146887 
L 916.246617 202.146887 
L 920.089592 204.574149 
L 923.932567 213.058555 
L 927.775542 216.411695 
L 931.618518 224.262186 
L 943.147443 224.262186 
L 946.990418 220.11842 
L 950.833394 220.11842 
L 954.676369 216.411695 
L 958.519344 216.411695 
L 962.362319 213.058555 
L 970.04827 213.058555 
L 973.891245 216.411695 
L 977.73422 216.411695 
L 981.577195 220.11842 
L 985.42017 220.11842 
L 989.263146 224.262186 
L 993.106121 228.96 
L 1031.535873 228.96 
L 1035.378848 224.262186 
L 1043.064799 224.262186 
L 1046.907774 216.411695 
L 1050.750749 216.411695 
L 1054.593724 213.058555 
L 1054.593724 213.058555 
" style="fill:none;stroke:#937252;stroke-linecap:square;stroke-width:2;"/>
   </g>
   <g id="line2d_21">
    <path clip-path="url(#p42b35cd1c4)" d="M 581.907774 220.11842 
L 585.750749 228.96 
L 589.593724 228.96 
L 593.436699 224.262186 
L 597.279675 224.262186 
L 601.12265 224.262186 
L 604.965625 216.411695 
L 608.8086 213.058555 
L 612.651575 213.058555 
L 616.494551 213.058555 
L 620.337526 216.411695 
L 624.180501 216.411695 
L 628.023476 216.411695 
L 631.866451 224.262186 
L 635.709427 228.96 
L 639.552402 228.96 
L 643.395377 224.262186 
L 647.238352 220.11842 
L 651.081327 220.11842 
L 654.924303 216.411695 
L 658.767278 213.058555 
L 662.610253 209.997378 
L 666.453228 207.181367 
L 670.296204 209.997378 
L 674.139179 209.997378 
L 677.982154 209.997378 
L 681.825129 207.181367 
L 685.668104 207.181367 
L 689.51108 209.997378 
L 693.354055 202.146887 
L 697.19703 202.146887 
L 701.040005 202.146887 
L 704.88298 197.743479 
L 708.725956 199.876335 
L 712.568931 197.743479 
L 716.411906 197.743479 
L 720.254881 204.574149 
L 724.097856 204.574149 
L 727.940832 207.181367 
L 731.783807 213.058555 
L 735.626782 209.997378 
L 739.469757 216.411695 
L 743.312732 213.058555 
L 747.155708 216.411695 
L 750.998683 216.411695 
L 754.841658 216.411695 
L 758.684633 216.411695 
L 762.527608 224.262186 
L 766.370584 224.262186 
L 770.213559 224.262186 
L 774.056534 216.411695 
L 777.899509 204.574149 
L 781.742485 204.574149 
L 785.58546 199.876335 
L 789.428435 195.732569 
L 793.27141 192.025845 
L 797.114385 190.309341 
L 800.957361 190.309341 
L 804.800336 192.025845 
L 808.643311 190.309341 
L 812.486286 192.025845 
L 816.329261 192.025845 
L 820.172237 192.025845 
L 824.015212 193.830412 
L 827.858187 182.795517 
L 831.701162 182.795517 
L 835.544137 182.795517 
L 839.387113 178.953739 
L 843.230088 177.761036 
L 847.073063 176.607446 
L 850.916038 174.407896 
L 854.759013 184.175354 
L 858.601989 182.795517 
L 862.444964 182.795517 
L 866.287939 187.108831 
L 870.130914 190.309341 
L 873.973889 181.467761 
L 877.816865 184.175354 
L 881.65984 182.795517 
L 885.502815 185.611527 
L 889.34579 181.467761 
L 893.188765 181.467761 
L 897.031741 181.467761 
L 900.874716 190.309341 
L 904.717691 190.309341 
L 908.560666 192.025845 
L 912.403642 188.672704 
L 916.246617 193.830412 
L 920.089592 185.611527 
L 923.932567 182.795517 
L 927.775542 187.108831 
L 931.618518 187.108831 
L 935.461493 184.175354 
L 939.304468 188.672704 
L 943.147443 190.309341 
L 946.990418 202.146887 
L 950.833394 202.146887 
L 954.676369 202.146887 
L 958.519344 199.876335 
L 962.362319 207.181367 
L 966.205294 209.997378 
L 970.04827 207.181367 
L 973.891245 207.181367 
L 977.73422 216.411695 
L 981.577195 202.146887 
L 985.42017 195.732569 
L 989.263146 193.830412 
L 993.106121 193.830412 
L 996.949096 190.309341 
L 1000.792071 188.672704 
L 1004.635046 187.108831 
L 1008.478022 193.830412 
L 1012.320997 204.574149 
L 1016.163972 204.574149 
L 1020.006947 197.743479 
L 1023.849923 204.574149 
L 1027.692898 199.876335 
L 1031.535873 202.146887 
L 1035.378848 202.146887 
L 1039.221823 202.146887 
L 1043.064799 199.876335 
" style="fill:none;stroke:#d18cad;stroke-linecap:square;stroke-width:2;"/>
   </g>
   <g id="line2d_22">
    <path clip-path="url(#p42b35cd1c4)" d="M 677.982154 216.411695 
L 681.825129 220.11842 
L 685.668104 216.411695 
L 689.51108 216.411695 
L 693.354055 216.411695 
L 697.19703 216.411695 
L 701.040005 224.262186 
L 704.88298 224.262186 
L 708.725956 224.262186 
L 712.568931 228.96 
L 716.411906 228.96 
L 720.254881 224.262186 
L 724.097856 224.262186 
L 727.940832 224.262186 
L 731.783807 224.262186 
L 735.626782 224.262186 
L 739.469757 224.262186 
L 743.312732 224.262186 
L 747.155708 228.96 
L 750.998683 228.96 
L 754.841658 224.262186 
L 758.684633 224.262186 
L 762.527608 224.262186 
L 766.370584 224.262186 
L 770.213559 224.262186 
L 774.056534 224.262186 
L 777.899509 224.262186 
L 781.742485 228.96 
L 785.58546 228.96 
L 789.428435 224.262186 
L 793.27141 224.262186 
L 797.114385 224.262186 
L 800.957361 220.11842 
L 804.800336 220.11842 
L 808.643311 220.11842 
L 812.486286 220.11842 
L 816.329261 224.262186 
L 820.172237 220.11842 
L 824.015212 220.11842 
L 827.858187 224.262186 
L 831.701162 224.262186 
L 835.544137 224.262186 
L 839.387113 224.262186 
L 843.230088 224.262186 
L 847.073063 228.96 
L 850.916038 228.96 
L 854.759013 224.262186 
L 858.601989 224.262186 
L 862.444964 224.262186 
L 866.287939 224.262186 
L 870.130914 224.262186 
L 873.973889 224.262186 
L 877.816865 224.262186 
L 881.65984 228.96 
L 885.502815 224.262186 
L 889.34579 224.262186 
L 893.188765 224.262186 
L 897.031741 224.262186 
L 900.874716 224.262186 
L 904.717691 224.262186 
L 908.560666 224.262186 
L 912.403642 228.96 
L 916.246617 228.96 
L 920.089592 228.96 
L 923.932567 228.96 
L 927.775542 228.96 
L 931.618518 228.96 
L 935.461493 224.262186 
L 939.304468 224.262186 
L 943.147443 224.262186 
L 946.990418 224.262186 
L 950.833394 224.262186 
L 954.676369 224.262186 
L 958.519344 224.262186 
L 962.362319 228.96 
L 966.205294 228.96 
L 970.04827 228.96 
L 973.891245 228.96 
L 977.73422 228.96 
L 981.577195 228.96 
L 985.42017 228.96 
L 989.263146 228.96 
L 993.106121 228.96 
L 996.949096 228.96 
L 1000.792071 228.96 
L 1004.635046 224.262186 
" style="fill:none;stroke:#a4a86f;stroke-linecap:square;stroke-width:2;"/>
   </g>
   <g id="patch_3">
    <path d="M 46.965625 228.96 
L 46.965625 7.2 
" style="fill:none;stroke:#000000;stroke-linecap:square;stroke-linejoin:miter;stroke-width:0.8;"/>
   </g>
   <g id="patch_4">
    <path d="M 46.965625 228.96 
L 1162.965625 228.96 
" style="fill:none;stroke:#000000;stroke-linecap:square;stroke-linejoin:miter;stroke-width:0.8;"/>
   </g>
   <g id="legend_1">
    <g id="line2d_23">
     <path d="M 1069.154375 17.67875 
L 1085.154375 17.67875 
" style="fill:none;stroke:#947383;stroke-linecap:square;stroke-width:2;"/>
    </g>
    <g id="line2d_24"/>
    <g id="text_19">
     <!-- North America -->
     <g transform="translate(1091.554375 20.47875)scale(0.08 -0.08)">
      <defs>
       <path d="M 628 4666 
L 1478 4666 
L 3547 763 
L 3547 4666 
L 4159 4666 
L 4159 0 
L 3309 0 
L 1241 3903 
L 1241 0 
L 628 0 
L 628 4666 
z
" id="DejaVuSans-4e" transform="scale(0.015625)"/>
       <path d="M 3513 2113 
L 3513 0 
L 2938 0 
L 2938 2094 
Q 2938 2591 2744 2837 
Q 2550 3084 2163 3084 
Q 1697 3084 1428 2787 
Q 1159 2491 1159 1978 
L 1159 0 
L 581 0 
L 581 4863 
L 1159 4863 
L 1159 2956 
Q 1366 3272 1645 3428 
Q 1925 3584 2291 3584 
Q 2894 3584 3203 3211 
Q 3513 2838 3513 2113 
z
" id="DejaVuSans-68" transform="scale(0.015625)"/>
       <path d="M 2188 4044 
L 1331 1722 
L 3047 1722 
L 2188 4044 
z
M 1831 4666 
L 2547 4666 
L 4325 0 
L 3669 0 
L 3244 1197 
L 1141 1197 
L 716 0 
L 50 0 
L 1831 4666 
z
" id="DejaVuSans-41" transform="scale(0.015625)"/>
       <path d="M 3328 2828 
Q 3544 3216 3844 3400 
Q 4144 3584 4550 3584 
Q 5097 3584 5394 3201 
Q 5691 2819 5691 2113 
L 5691 0 
L 5113 0 
L 5113 2094 
Q 5113 2597 4934 2840 
Q 4756 3084 4391 3084 
Q 3944 3084 3684 2787 
Q 3425 2491 3425 1978 
L 3425 0 
L 2847 0 
L 2847 2094 
Q 2847 2600 2669 2842 
Q 2491 3084 2119 3084 
Q 1678 3084 1418 2786 
Q 1159 2488 1159 1978 
L 1159 0 
L 581 0 
L 581 3500 
L 1159 3500 
L 1159 2956 
Q 1356 3278 1631 3431 
Q 1906 3584 2284 3584 
Q 2666 3584 2933 3390 
Q 3200 3197 3328 2828 
z
" id="DejaVuSans-6d" transform="scale(0.015625)"/>
       <path d="M 3122 3366 
L 3122 2828 
Q 2878 2963 2633 3030 
Q 2388 3097 2138 3097 
Q 1578 3097 1268 2742 
Q 959 2388 959 1747 
Q 959 1106 1268 751 
Q 1578 397 2138 397 
Q 2388 397 2633 464 
Q 2878 531 3122 666 
L 3122 134 
Q 2881 22 2623 -34 
Q 2366 -91 2075 -91 
Q 1284 -91 818 406 
Q 353 903 353 1747 
Q 353 2603 823 3093 
Q 1294 3584 2113 3584 
Q 2378 3584 2631 3529 
Q 2884 3475 3122 3366 
z
" id="DejaVuSans-63" transform="scale(0.015625)"/>
      </defs>
      <use xlink:href="#DejaVuSans-4e"/>
      <use x="74.804688" xlink:href="#DejaVuSans-6f"/>
      <use x="135.986328" xlink:href="#DejaVuSans-72"/>
      <use x="177.099609" xlink:href="#DejaVuSans-74"/>
      <use x="216.308594" xlink:href="#DejaVuSans-68"/>
      <use x="279.6875" xlink:href="#DejaVuSans-20"/>
      <use x="311.474609" xlink:href="#DejaVuSans-41"/>
      <use x="379.882812" xlink:href="#DejaVuSans-6d"/>
      <use x="477.294922" xlink:href="#DejaVuSans-65"/>
      <use x="538.818359" xlink:href="#DejaVuSans-72"/>
      <use x="579.931641" xlink:href="#DejaVuSans-69"/>
      <use x="607.714844" xlink:href="#DejaVuSans-63"/>
      <use x="662.695312" xlink:href="#DejaVuSans-61"/>
     </g>
    </g>
    <g id="line2d_25">
     <path d="M 1069.154375 29.42125 
L 1085.154375 29.42125 
" style="fill:none;stroke:#96c6ad;stroke-linecap:square;stroke-width:2;"/>
    </g>
    <g id="line2d_26"/>
    <g id="text_20">
     <!-- South America -->
     <g transform="translate(1091.554375 32.22125)scale(0.08 -0.08)">
      <defs>
       <path d="M 3425 4513 
L 3425 3897 
Q 3066 4069 2747 4153 
Q 2428 4238 2131 4238 
Q 1616 4238 1336 4038 
Q 1056 3838 1056 3469 
Q 1056 3159 1242 3001 
Q 1428 2844 1947 2747 
L 2328 2669 
Q 3034 2534 3370 2195 
Q 3706 1856 3706 1288 
Q 3706 609 3251 259 
Q 2797 -91 1919 -91 
Q 1588 -91 1214 -16 
Q 841 59 441 206 
L 441 856 
Q 825 641 1194 531 
Q 1563 422 1919 422 
Q 2459 422 2753 634 
Q 3047 847 3047 1241 
Q 3047 1584 2836 1778 
Q 2625 1972 2144 2069 
L 1759 2144 
Q 1053 2284 737 2584 
Q 422 2884 422 3419 
Q 422 4038 858 4394 
Q 1294 4750 2059 4750 
Q 2388 4750 2728 4690 
Q 3069 4631 3425 4513 
z
" id="DejaVuSans-53" transform="scale(0.015625)"/>
      </defs>
      <use xlink:href="#DejaVuSans-53"/>
      <use x="63.476562" xlink:href="#DejaVuSans-6f"/>
      <use x="124.658203" xlink:href="#DejaVuSans-75"/>
      <use x="188.037109" xlink:href="#DejaVuSans-74"/>
      <use x="227.246094" xlink:href="#DejaVuSans-68"/>
      <use x="290.625" xlink:href="#DejaVuSans-20"/>
      <use x="322.412109" xlink:href="#DejaVuSans-41"/>
      <use x="390.820312" xlink:href="#DejaVuSans-6d"/>
      <use x="488.232422" xlink:href="#DejaVuSans-65"/>
      <use x="549.755859" xlink:href="#DejaVuSans-72"/>
      <use x="590.869141" xlink:href="#DejaVuSans-69"/>
      <use x="618.652344" xlink:href="#DejaVuSans-63"/>
      <use x="673.632812" xlink:href="#DejaVuSans-61"/>
     </g>
    </g>
    <g id="line2d_27">
     <path d="M 1069.154375 41.16375 
L 1085.154375 41.16375 
" style="fill:none;stroke:#525886;stroke-linecap:square;stroke-width:2;"/>
    </g>
    <g id="line2d_28"/>
    <g id="text_21">
     <!-- Europe -->
     <g transform="translate(1091.554375 43.96375)scale(0.08 -0.08)">
      <defs>
       <path d="M 628 4666 
L 3578 4666 
L 3578 4134 
L 1259 4134 
L 1259 2753 
L 3481 2753 
L 3481 2222 
L 1259 2222 
L 1259 531 
L 3634 531 
L 3634 0 
L 628 0 
L 628 4666 
z
" id="DejaVuSans-45" transform="scale(0.015625)"/>
       <path d="M 1159 525 
L 1159 -1331 
L 581 -1331 
L 581 3500 
L 1159 3500 
L 1159 2969 
Q 1341 3281 1617 3432 
Q 1894 3584 2278 3584 
Q 2916 3584 3314 3078 
Q 3713 2572 3713 1747 
Q 3713 922 3314 415 
Q 2916 -91 2278 -91 
Q 1894 -91 1617 61 
Q 1341 213 1159 525 
z
M 3116 1747 
Q 3116 2381 2855 2742 
Q 2594 3103 2138 3103 
Q 1681 3103 1420 2742 
Q 1159 2381 1159 1747 
Q 1159 1113 1420 752 
Q 1681 391 2138 391 
Q 2594 391 2855 752 
Q 3116 1113 3116 1747 
z
" id="DejaVuSans-70" transform="scale(0.015625)"/>
      </defs>
      <use xlink:href="#DejaVuSans-45"/>
      <use x="63.183594" xlink:href="#DejaVuSans-75"/>
      <use x="126.5625" xlink:href="#DejaVuSans-72"/>
      <use x="165.425781" xlink:href="#DejaVuSans-6f"/>
      <use x="226.607422" xlink:href="#DejaVuSans-70"/>
      <use x="290.083984" xlink:href="#DejaVuSans-65"/>
     </g>
    </g>
    <g id="line2d_29">
     <path d="M 1069.154375 52.90625 
L 1085.154375 52.90625 
" style="fill:none;stroke:#937252;stroke-linecap:square;stroke-width:2;"/>
    </g>
    <g id="line2d_30"/>
    <g id="text_22">
     <!-- Asia -->
     <g transform="translate(1091.554375 55.70625)scale(0.08 -0.08)">
      <defs>
       <path d="M 2834 3397 
L 2834 2853 
Q 2591 2978 2328 3040 
Q 2066 3103 1784 3103 
Q 1356 3103 1142 2972 
Q 928 2841 928 2578 
Q 928 2378 1081 2264 
Q 1234 2150 1697 2047 
L 1894 2003 
Q 2506 1872 2764 1633 
Q 3022 1394 3022 966 
Q 3022 478 2636 193 
Q 2250 -91 1575 -91 
Q 1294 -91 989 -36 
Q 684 19 347 128 
L 347 722 
Q 666 556 975 473 
Q 1284 391 1588 391 
Q 1994 391 2212 530 
Q 2431 669 2431 922 
Q 2431 1156 2273 1281 
Q 2116 1406 1581 1522 
L 1381 1569 
Q 847 1681 609 1914 
Q 372 2147 372 2553 
Q 372 3047 722 3315 
Q 1072 3584 1716 3584 
Q 2034 3584 2315 3537 
Q 2597 3491 2834 3397 
z
" id="DejaVuSans-73" transform="scale(0.015625)"/>
      </defs>
      <use xlink:href="#DejaVuSans-41"/>
      <use x="68.408203" xlink:href="#DejaVuSans-73"/>
      <use x="120.507812" xlink:href="#DejaVuSans-69"/>
      <use x="148.291016" xlink:href="#DejaVuSans-61"/>
     </g>
    </g>
    <g id="line2d_31">
     <path d="M 1069.154375 64.64875 
L 1085.154375 64.64875 
" style="fill:none;stroke:#d18cad;stroke-linecap:square;stroke-width:2;"/>
    </g>
    <g id="line2d_32"/>
    <g id="text_23">
     <!-- United Kingdom -->
     <g transform="translate(1091.554375 67.44875)scale(0.08 -0.08)">
      <defs>
       <path d="M 556 4666 
L 1191 4666 
L 1191 1831 
Q 1191 1081 1462 751 
Q 1734 422 2344 422 
Q 2950 422 3222 751 
Q 3494 1081 3494 1831 
L 3494 4666 
L 4128 4666 
L 4128 1753 
Q 4128 841 3676 375 
Q 3225 -91 2344 -91 
Q 1459 -91 1007 375 
Q 556 841 556 1753 
L 556 4666 
z
" id="DejaVuSans-55" transform="scale(0.015625)"/>
       <path d="M 628 4666 
L 1259 4666 
L 1259 2694 
L 3353 4666 
L 4166 4666 
L 1850 2491 
L 4331 0 
L 3500 0 
L 1259 2247 
L 1259 0 
L 628 0 
L 628 4666 
z
" id="DejaVuSans-4b" transform="scale(0.015625)"/>
      </defs>
      <use xlink:href="#DejaVuSans-55"/>
      <use x="73.193359" xlink:href="#DejaVuSans-6e"/>
      <use x="136.572266" xlink:href="#DejaVuSans-69"/>
      <use x="164.355469" xlink:href="#DejaVuSans-74"/>
      <use x="203.564453" xlink:href="#DejaVuSans-65"/>
      <use x="265.087891" xlink:href="#DejaVuSans-64"/>
      <use x="328.564453" xlink:href="#DejaVuSans-20"/>
      <use x="360.351562" xlink:href="#DejaVuSans-4b"/>
      <use x="425.927734" xlink:href="#DejaVuSans-69"/>
      <use x="453.710938" xlink:href="#DejaVuSans-6e"/>
      <use x="517.089844" xlink:href="#DejaVuSans-67"/>
      <use x="580.566406" xlink:href="#DejaVuSans-64"/>
      <use x="644.042969" xlink:href="#DejaVuSans-6f"/>
      <use x="705.224609" xlink:href="#DejaVuSans-6d"/>
     </g>
    </g>
    <g id="line2d_33">
     <path d="M 1069.154375 76.39125 
L 1085.154375 76.39125 
" style="fill:none;stroke:#a4a86f;stroke-linecap:square;stroke-width:2;"/>
    </g>
    <g id="line2d_34"/>
    <g id="text_24">
     <!-- Oceania -->
     <g transform="translate(1091.554375 79.19125)scale(0.08 -0.08)">
      <defs>
       <path d="M 2522 4238 
Q 1834 4238 1429 3725 
Q 1025 3213 1025 2328 
Q 1025 1447 1429 934 
Q 1834 422 2522 422 
Q 3209 422 3611 934 
Q 4013 1447 4013 2328 
Q 4013 3213 3611 3725 
Q 3209 4238 2522 4238 
z
M 2522 4750 
Q 3503 4750 4090 4092 
Q 4678 3434 4678 2328 
Q 4678 1225 4090 567 
Q 3503 -91 2522 -91 
Q 1538 -91 948 565 
Q 359 1222 359 2328 
Q 359 3434 948 4092 
Q 1538 4750 2522 4750 
z
" id="DejaVuSans-4f" transform="scale(0.015625)"/>
      </defs>
      <use xlink:href="#DejaVuSans-4f"/>
      <use x="78.710938" xlink:href="#DejaVuSans-63"/>
      <use x="133.691406" xlink:href="#DejaVuSans-65"/>
      <use x="195.214844" xlink:href="#DejaVuSans-61"/>
      <use x="256.494141" xlink:href="#DejaVuSans-6e"/>
      <use x="319.873047" xlink:href="#DejaVuSans-69"/>
      <use x="347.65625" xlink:href="#DejaVuSans-61"/>
     </g>
    </g>
   </g>
  </g>
 </g>
 <defs>
  <clipPath id="p42b35cd1c4">
   <rect height="221.76" width="1116" x="46.965625" y="7.2"/>
  </clipPath>
 </defs>
</svg>
