<svg xmlns="http://www.w3.org/2000/svg" viewBox="0 0 198.03 189.73"><defs><style>.cls-1{fill:none;}.cls-1,.cls-10,.cls-11,.cls-12,.cls-13,.cls-14,.cls-15,.cls-16,.cls-17,.cls-18,.cls-19,.cls-2,.cls-20,.cls-21,.cls-22,.cls-23,.cls-24,.cls-25,.cls-26,.cls-27,.cls-3,.cls-4,.cls-5,.cls-6,.cls-7,.cls-8,.cls-9{stroke:#1d1d1b;stroke-miterlimit:10;}.cls-2{fill:#77748b;}.cls-3{fill:#74625e;}.cls-4{fill:#c69d97;}.cls-5{fill:#82534e;}.cls-6{fill:#924242;}.cls-7{fill:#906964;}.cls-8{fill:#917774;}.cls-9{fill:#c4c0d1;}.cls-10{fill:#6e6c78;}.cls-11{fill:#6f6d92;}.cls-12{fill:#a7a3bb;}.cls-13{fill:#bec1e0;}.cls-14{fill:#7c7f8e;}.cls-15{fill:#f7c5ba;}.cls-16{fill:#de7a7a;}.cls-17{fill:#cfada7;}.cls-18{fill:#f9d0d0;}.cls-19{fill:#a5635e;}.cls-20{fill:#e1dfe8;}.cls-21{fill:#595a5e;}.cls-22{fill:#b98781;}.cls-23{fill:#fbe3dd;}.cls-24{fill:#c0b8dc;}.cls-25{fill:#8b87a6;}.cls-26{fill:#929ac9;}.cls-27{fill:#504a48;}</style></defs><g id="Layer_2" data-name="Layer 2"><g id="Layer_1-2" data-name="Layer 1"><path class="cls-1" d="M1.63,80.59c.05-.35.1-.68.16-1s.06-.41.09-.6c0,.09,0,.2,0,.3C1.75,79.73,1.68,80.16,1.63,80.59Zm179.59,36.09a102.52,102.52,0,0,1-10-7.09c-4.83-3.78-9.58-7.9-13-11a27.09,27.09,0,0,1-7.35-7.15,25.35,25.35,0,0,1-4.67-17.64l3.29-.89-2.19-4.29L145,64.23,158.25,56a16.24,16.24,0,0,1-6-5c-.11-.13-.21-.27-.31-.41a16.68,16.68,0,0,1-2.2-4.18,5.89,5.89,0,0,1-.21-.59,12,12,0,0,1-.56-2.7h0c-.21-2.31.4-4.28,1.86-5.39a1.43,1.43,0,0,1,.31-.26,4.8,4.8,0,0,1,2.43-.72h.11c0-.16.06-.31.1-.46l0-.14a2.31,2.31,0,0,1,.1-.28,4,4,0,0,1,.37-.82c.07-.12.14-.24.22-.35s-.08-.26-.12-.39c-.87-3-.4-5.79,1.42-7.08a1.35,1.35,0,0,1,.28-.22,4.24,4.24,0,0,1,2.18-.56h.18a3.5,3.5,0,0,1,.55-.6l0,0c-.74-.69-1.49-1.35-2.25-2-.41-.38-.75-.68-1-.88h0l0,0L154.7,22c-1.26-1.07-2.57-2.06-3.89-3-.61-.46-1.2-.9-1.74-1.29l-.43-.31-.76-.52-.08-.05-.17-.11-.92-.59c-1.54-1.05-3.12-2-4.71-2.91-.49-.3-1-.57-1.37-.81l-.4-.22-.47-.26-.09,0c-2-1.1-4.09-2.1-6.2-3L131.63,8l-.54-.23-.53-.22a95.25,95.25,0,0,0-9.2-3.22h0a93.8,93.8,0,0,0-10-2.32s-1.3-.22-3-.47l-1.1-.15c-1-.14-2.11-.27-3.15-.38-.53,0-1-.1-1.52-.13l-.7,0-.25,0-.29,0-.49,0-.29,0-.43,0-.44,0-.84,0-.5,0-1,0c-.81,0-1.62,0-2.44,0s-1.63,0-2.43,0L92,.57H91.8q-3.7.11-7.3.52l-.66.06-.59.07-.5.06A91.45,91.45,0,0,0,72.34,3.23h0l-.24,0L71,3.57q-4.18,1.11-8.21,2.56h0l-.64.23-1.39.53c-.71.28-1.46.59-2.18.9s-1.42.61-2,.88c-.2.08-.39.17-.59.27L54,9.82a92.15,92.15,0,0,0-8.23,4.5l0,0A96.54,96.54,0,0,0,37.5,20l-.17.14,0,0a92.6,92.6,0,0,0-7.08,6.05q-3.21,3-6.13,6.32c-.45.51-.7.81-.7.81a95.19,95.19,0,0,0-6,7.72l0,0a.36.36,0,0,0-.07.1,87.57,87.57,0,0,0-5.08,8.21,1.74,1.74,0,0,0-.15.26h0a95.47,95.47,0,0,0-4.2,8.7l-.78,1.91c-.21.54-.42,1.11-.63,1.68Q5.51,64.44,4.72,67c-.11.36-.18.57-.18.57a91.73,91.73,0,0,0-2.28,9.28L62.72,88.41a46.35,46.35,0,0,1,9.71-16.1c.27-.29.42-.43.42-.43L75.62,75a23.71,23.71,0,0,0-6.8,9.15,19.79,19.79,0,0,0-1.51,8,11.56,11.56,0,0,0,.18,2l-33.35-.39v-.09l.17-4.82L.92,86.47C.66,89.23.54,92,.54,94.85c0,.36,0,.72,0,1.08a95.16,95.16,0,0,0,.71,10.62s0,.06,0,.09l0,.1A91.71,91.71,0,0,0,4.2,120.87c.17.65.37,1.34.58,2s.47,1.47.72,2.2h0a92.57,92.57,0,0,0,3.59,9l.05.1c.71,1.54,1.45,3.05,2.24,4.53.18.34.36.68.55,1l0,.08.35.63c.35.64.67,1.2.93,1.65l.24.4a1,1,0,0,0,.1.17c.08.15.17.29.26.44l0,0,.18.33c.13.2.31.5.53.86l.29.47.69,1.08c1.12,1.73,2.29,3.4,3.51,5.05v0c.06.08.38.51.88,1.15.11.14.22.3.35.46.25.33.53.69.84,1.07s.61.76.92,1.13a.16.16,0,0,0,.06.08c1.07,1.28,2.16,2.54,3.3,3.76a86.71,86.71,0,0,0,6.91,6.78l.16.16.33.29.44.38,1.2,1,.35.29.37.31c.47.39.95.77,1.43,1.15s1.2.93,1.8,1.38c.36.28.72.54,1.07.79l0,0A93.5,93.5,0,0,0,48,176.7h0A94.33,94.33,0,0,0,159,164a88.44,88.44,0,0,0,6.76-6.93,92.35,92.35,0,0,0,6.6-8.4l0-.06.11-.16a.83.83,0,0,1,.08-.12c.06-.09.13-.19.2-.31l.13-.18q1.55-2.24,2.93-4.58c.31-.51.61-1,.89-1.5s.46-.8.67-1.2c1.2-2.13,2.3-4.32,3.33-6.55a4.07,4.07,0,0,0,.17-.38c0-.13.11-.25.17-.38.18-.4.36-.81.53-1.22h0l.21-.49.87-2.13c.46-1.17.89-2.38,1.26-3.44.13-.34.25-.67.35-1a4.82,4.82,0,0,0,.2-.61c.32-.95.53-1.6.56-1.71v0h0c.36-1.17.69-2.34,1-3.53A29.07,29.07,0,0,1,181.22,116.68ZM158.73,67.37a13.86,13.86,0,0,1-1.49-1.93l-6.05,3,1.32,2.85L154,74.45l10-3.63A12,12,0,0,1,158.73,67.37Z"/><path class="cls-2" d="M186.11,119.26c-.3,1.06-.67,2.21-1.09,3.41h0l-33.83-10-.32.64a2.26,2.26,0,0,1-.11.22c-.09.18-.18.38-.3.61s-.29.59-.46.94l-.5,1.07-.31.65-2.83-1.1h0v0s0-.11.1-.2.1-.21.17-.36.2-.44.32-.74a31.57,31.57,0,0,0,1.21-3.54,42.27,42.27,0,0,0,1-4.44l22,3.61a104,104,0,0,0,10,6.91,28.93,28.93,0,0,0,4.81,2.37Z"/><path class="cls-3" d="M158.73,67.37a13.86,13.86,0,0,1-1.49-1.93l-6.05,3,1.32,2.85L154,74.45l10-3.63A12,12,0,0,1,158.73,67.37Z"/><path class="cls-4" d="M188.8,77.59a5.82,5.82,0,0,0-.14-.6,25.86,25.86,0,0,0-2.22-5.62c-.18-.34-.37-.68-.58-1s-.23-.4-.36-.6a5.28,5.28,0,0,1-.93,2.3,8.61,8.61,0,0,1,1,1.83c1.1,2.74.75,5.46-.75,6.2a9.21,9.21,0,0,1,.75,1.47c1.13,2.81.73,5.62-.89,6.28s-3.87-1.1-5-3.91a8.51,8.51,0,0,1-.57-2.2c-1.43.27-3.08-.54-4.48-2.06a11.47,11.47,0,0,1-2.48-3.86,12.08,12.08,0,0,1-.62-2,9.44,9.44,0,0,1-3.33-3.21,4.63,4.63,0,0,1-4.25.47l-10,3.63-1.45-3.11c-1.95.71-4.22,2.38-6.32,2.5a25.35,25.35,0,0,0,4.67,17.64,27.09,27.09,0,0,0,7.35,7.15c3.44,3.06,8.19,7.18,13,11a102.52,102.52,0,0,0,10,7.09,29.07,29.07,0,0,0,4.81,2.44l.09,0a9.91,9.91,0,0,0,1.45.42,4.19,4.19,0,0,0,1.78.06c7.3-1.64,8.17-5.71,8.17-5.71S198.68,105.56,188.8,77.59Zm-2,38.73h0s0-.1-.07-.14a2.94,2.94,0,0,1-.2-1.12l.42.11.08,0,5,1.37C188.59,118.25,187.31,117.31,186.85,116.32Z"/><path class="cls-1" d="M162.56,88.43s6,3.83,10.81,1.1"/><path class="cls-1" d="M150.81,77.27s-4.17.93,0,5.7"/><path class="cls-5" d="M182,77.36c0,.07,0,.13,0,.19a2,2,0,0,0-1.14.09.7.7,0,0,0-.16.1c-1,.52-1.5,2-1.33,3.69l-.21,0c-1.43.28-3.08-.52-4.49-2,1.42,1.42,3,2.11,4.45,1.74-.17-1.73.3-3.17,1.33-3.69a.65.65,0,0,1,.16-.09,1.92,1.92,0,0,1,1.14-.1,10.85,10.85,0,0,0-.66-4.73c-.06-.18-.13-.35-.2-.53a14.23,14.23,0,0,0-1-1.87,10.93,10.93,0,0,0-1.18-1.59A9.64,9.64,0,0,1,180,70.12c.07.1.14.2.2.3a12.59,12.59,0,0,1,1,1.87c.07.18.14.35.2.53A10.93,10.93,0,0,1,182,77.36Z"/><path class="cls-6" d="M180,70.13a.1.1,0,0,0-.05,0,10.89,10.89,0,0,0-1.17-1.59A9.6,9.6,0,0,1,180,70.13Z"/><path class="cls-7" d="M192.08,116.56c-3.49,1.69-4.77.75-5.23-.24h0s0-.1-.07-.14a2.94,2.94,0,0,1-.2-1.12l.42.11.08,0Z"/><path class="cls-8" d="M173.26,51.93a2.73,2.73,0,0,0-.71.34A3.7,3.7,0,0,0,171.21,54a2.64,2.64,0,0,0-.1.3l-.12-.07.09-.24a3.67,3.67,0,0,1,1.37-1.73A2.55,2.55,0,0,1,173.26,51.93Z"/><path class="cls-1" d="M164,70.82l-10,3.63-1.45-3.11-1.32-2.85,6.05-3a13.86,13.86,0,0,0,1.49,1.93A12,12,0,0,0,164,70.82Z"/><path class="cls-2" d="M168.05,50.83c-.23-.17-.46-.32-.69-.46a5.68,5.68,0,0,0-.74-.37l-.24-.11a.47.47,0,0,1-.06-.09l.29.14a7,7,0,0,1,1.44.89Z"/><path class="cls-6" d="M161.7,57.06l-.09,0-.43-.15a4.77,4.77,0,0,0-.51-.13l-.1,0a4.76,4.76,0,0,0-.64-.11,4.68,4.68,0,0,0-.64,0,3.71,3.71,0,0,0-2.58.92c-1.46,1.35-1.48,3.89-.28,6.48a10.08,10.08,0,0,0,.81,1.46l-6.05,3,1.32,2.85-2.86,1.56-.15.08,0,0-2.19-4.29L145,64.23,158.25,56a8.7,8.7,0,0,0,3.35.86A2.6,2.6,0,0,0,161.7,57.06Z"/><path class="cls-2" d="M168.05,50.83c-.23-.17-.46-.32-.69-.46a5.68,5.68,0,0,0-.74-.37l-.24-.11a.47.47,0,0,1-.06-.09l.29.14a7,7,0,0,1,1.44.89Z"/><path class="cls-2" d="M173.26,51.93a2.73,2.73,0,0,0-.71.34A3.7,3.7,0,0,0,171.21,54a2.64,2.64,0,0,0-.1.3l-.12-.07.09-.24a3.67,3.67,0,0,1,1.37-1.73A2.55,2.55,0,0,1,173.26,51.93Z"/><path class="cls-9" d="M145,64.23l2.27,4.43L145,69.79c-1-1.68-2-3.35-3-4.77l-.35-.53c-.59-.91-1.13-1.69-1.55-2.29l-.37-.54-.19-.27-.3-.43,13-10a16.24,16.24,0,0,0,6,5Z"/><path class="cls-10" d="M141.71,64.49l.35.53L139.3,66.8c-1-1.42-2.14-3-3.2-4.33l-.09-.11c-1.2-1.54-2.27-2.85-2.82-3.5l-.37-.45L149,43.05a12,12,0,0,0,.56,2.7,5.89,5.89,0,0,0,.21.59,16.68,16.68,0,0,0,2.2,4.18c.1.14.2.28.31.41l-13,10,.3.43.19.27.37.54Z"/><path class="cls-11" d="M159,25.78a3.5,3.5,0,0,0-.55.6h-.18a4.24,4.24,0,0,0-2.18.56,1.35,1.35,0,0,0-.28.22c-1.82,1.29-2.29,4-1.42,7.08,0,.13.07.26.12.39a1.86,1.86,0,0,0-.22.35,4,4,0,0,0-.37.82,2.31,2.31,0,0,0-.1.28l0,.14a2.36,2.36,0,0,0-.1.46h-.11a4.8,4.8,0,0,0-2.43.72,1.43,1.43,0,0,0-.31.26c-1.46,1.11-2.07,3.08-1.86,5.39h0L132.82,58.41l.37.45,2.82,3.5-2.64,1.87a37.27,37.27,0,0,0-3.06-3.46c-1.49-1.54-2.94-2.88-3.46-3.36l-.2-.19,29.16-34.37c.24.2.58.5,1,.88C157.43,24.3,158.21,25,159,25.78Z"/><path class="cls-12" d="M147.88,16.82,120.66,56.61a53.33,53.33,0,0,1,7.45,6.44l2.21-2.29-3.67-3.54,29.16-34.37S150.34,18.44,147.88,16.82Z"/><path class="cls-3" d="M139.76,11.87,115.22,56.61s5.1,3.68,7,5.52l2.2-2.56-3.79-3,27.22-39.79S142.07,13.08,139.76,11.87Z"/><path class="cls-13" d="M130.56,7.51,109.44,57.78a53.42,53.42,0,0,1,7.28,4.35l1.92-3-3.42-2.55,24.54-44.74S133.16,8.53,130.56,7.51Z"/><path class="cls-14" d="M121.31,4.28l-8.44,29.56S108.94,32,106,32.42L111.34,2A56.67,56.67,0,0,1,121.31,4.28Z"/><path class="cls-6" d="M101.82.77,99.4,34.82s6.95.19,9.37,1.37l.67-3.51L106,32.42,111.34,2S105.41,1,101.82.77Z"/><path class="cls-15" d="M92,.56l.78,37.62s9.77-.45,11.2.53l.45-3.51-5-.38,2.42-34A93.5,93.5,0,0,0,92,.56Z"/><path class="cls-8" d="M82.75,1.29,87.6,41.61s8.14-1,10.58-.38V38.08l-5.43.1L92,.56S85.18,1,82.75,1.29Z"/><path class="cls-16" d="M72.35,3.22,83.08,45.36s7.44-.81,10.76,0l-.68-4.24-5.56.49L82.75,1.29A55.55,55.55,0,0,0,72.35,3.22Z"/><path class="cls-11" d="M62.73,6.14l11.2,28.32c-1-.18-5.75,1.88-6.46,2.54L54,9.82S59.44,7.26,62.73,6.14Z"/><path class="cls-8" d="M70.68,35.38l6.13,15.83A36.33,36.33,0,0,1,88.25,48.9V45l-5.17.34L72.35,3.22a81.19,81.19,0,0,0-9.62,2.92l11.2,28.32Z"/><path class="cls-13" d="M45.7,14.33,61.88,39.94l-5.76,3.78L37.33,20.09A68.67,68.67,0,0,1,45.7,14.33Z"/><path class="cls-3" d="M30.21,26.17,52.87,50.5l4-2.75,4.37-3-1.9-3.13-3.21,2.11L37.33,20.09A60.63,60.63,0,0,0,30.21,26.17Z"/><path class="cls-12" d="M56.86,47.75,67.26,60.9a26,26,0,0,1,7.64-5.15A37.19,37.19,0,0,1,83.09,53l-.34-3.49-5.94,1.67L70.68,35.38,67.47,37,54,9.82,45.7,14.33,61.88,39.94l-2.55,1.67,1.9,3.13Z"/><path class="cls-17" d="M74.9,55.75,76.48,59S64,66.18,58.27,75.93L44.14,67.6s3-6.06,4.63-6.7L45.7,58.59l3.44-3.52L23.38,33.3a86.24,86.24,0,0,1,6.83-7.13L52.87,50.5l4-2.75L67.26,60.9S71.73,57.05,74.9,55.75Z"/><path class="cls-18" d="M17.29,41.16,41.86,57.79s-.79.93-1.87,2.45c-.63.88-1.35,2-2.08,3.16l-25.71-14A79.68,79.68,0,0,1,17.29,41.16Z"/><path class="cls-16" d="M40,60.24l2.67,2.36a17.41,17.41,0,0,1,3-4l3.44-3.52L23.38,33.3l-6.09,7.86L41.86,57.79Z"/><path class="cls-6" d="M7.86,58.34,35.57,69.26a18.5,18.5,0,0,0-2.35,7L4.54,67.58S6.42,61.6,7.86,58.34Z"/><path class="cls-16" d="M.54,95.92H30.38a35.71,35.71,0,0,0,0,6.17L1.26,106.54A62.12,62.12,0,0,1,.54,95.92Z"/><path class="cls-16" d="M9.14,134.25l26.73-13s1.92,3.4,3.46,5.74L13.88,143.23A97.13,97.13,0,0,1,9.14,134.25Z"/><path class="cls-15" d="M25.43,158.7l21.74-21.49a28.9,28.9,0,0,0,4.5,5.06l-19.33,23.2S28.08,161.7,25.43,158.7Z"/><path class="cls-19" d="M34.15,72.35l6.63,2.15a54.69,54.69,0,0,1,3.36-6.9l4.63-6.7L45.7,58.59l-3,4L40,60.24,37.91,63.4l-25.71-14-4.34,9L35.57,69.26Z"/><path class="cls-6" d="M34.14,93.78c0,1.48,0,3.11.17,4.65L30.24,99V98.9l.14-3H.54A64.8,64.8,0,0,1,.9,86.47h0l33.39,2.35s-.16,2.13-.17,4.82Z"/><path class="cls-20" d="M112.89,59.63l-2,3.95a40.28,40.28,0,0,0-20.81-3.49A37.67,37.67,0,0,0,70,68.55l-3.25-2.48L76.48,59,74.9,55.75A39.84,39.84,0,0,1,83.09,53l-.34-3.49a25,25,0,0,1,5.5-.64V45a13,13,0,0,1,5.59.34l-.68-4.24a14.15,14.15,0,0,1,5,.11V38.08s4.08-.11,5.77.63l.45-3.51a11,11,0,0,1,4.37,1l.67-3.51,3.43,1.16,8.44-29.56a49.16,49.16,0,0,1,9.25,3.23L109.44,57.78Z"/><path class="cls-17" d="M90.13,60.09v3.82s-8.71-.59-17.28,8c0,0-.15.14-.42.43a46.35,46.35,0,0,0-9.71,16.1L2.26,76.87h0a55.8,55.8,0,0,1,2.29-9.28h0l28.67,8.65a16.66,16.66,0,0,1,.93-3.88l6.63,2.14.11-.28s0-.11.07-.17.09-.2.13-.32.09-.2.14-.32l0,0a36.07,36.07,0,0,1,2.89-5.76l14.13,8.33.06-.09a97.83,97.83,0,0,1,6.47-7.93l.12-.13a14.71,14.71,0,0,1,1.79-1.64l.05,0s0,0,0,0L70,68.55l.13-.1.1-.07A60.6,60.6,0,0,1,83.15,61.5l.06,0A20.93,20.93,0,0,1,90.13,60.09Z"/><path class="cls-21" d="M75.62,75a23.71,23.71,0,0,0-6.8,9.15,19.79,19.79,0,0,0-1.51,8,11.56,11.56,0,0,0,.18,2l-33.35-.39v-.09l.17-4.82L.92,86.47q.12-1.62.33-3.21s0-.07,0-.1c0-.24.06-.48.1-.72s.07-.53.11-.79.11-.72.16-1.06.1-.68.16-1,.06-.41.09-.6.08-.44.11-.64.09-.55.13-.77.06-.35.09-.47a1.84,1.84,0,0,1,0-.25L62.72,88.41a46.35,46.35,0,0,1,9.71-16.1c.27-.29.42-.43.42-.43Z"/><path class="cls-1" d="M1.83,79.3c0-.1,0-.21,0-.3q0,.28-.09.6C1.8,79.5,1.82,79.4,1.83,79.3Z"/><path class="cls-17" d="M1.25,83.26Q1,84.85.92,86.47h0C1,85.46,1.1,84.35,1.25,83.26Z"/><path class="cls-17" d="M2.26,76.87a1.84,1.84,0,0,0,0,.25c0-.16,0-.25,0-.25Z"/><path class="cls-17" d="M72.43,72.31a46.35,46.35,0,0,0-9.71,16.1C64.45,80.83,70.74,74,72.43,72.31Z"/><path class="cls-8" d="M5.49,125.1l30.35-11.69s1.18,1.9,2.71,4.23c.77,1.17,1.63,2.45,2.46,3.64l-3.52,2.78-1.62-2.78-26.73,13A57.39,57.39,0,0,1,5.49,125.1Z"/><path class="cls-7" d="M70.92,98.68a3.84,3.84,0,0,0,.33.86L3,115.94l-1.74-9.2,0-.1,0-.09h0l29.12-4.45-.14-3V99l4.07-.58-.17-4.65v0l33.35.39c-.08-.73-.14-1.4-.18-2a19.79,19.79,0,0,1,1.51-8l3.38,1.12-1.12,6.1,0,.24c0,.08,0,.18,0,.29s0,.24-.07.38l-.09.49a21.63,21.63,0,0,0-.23,3.05c0,.16,0,.32,0,.49s0,.6.06.9,0,.4.07.58h0A6.51,6.51,0,0,0,70.92,98.68Z"/><path class="cls-6" d="M49.21,139.82l3.07-2.61s-2-1.47-3.92-3.22a14.35,14.35,0,0,1-3.21-3.78L19.08,151a97.1,97.1,0,0,0,6.35,7.68l21.74-21.49Z"/><path class="cls-22" d="M66.4,184.8,74.58,155a19.09,19.09,0,0,0,7,1.51l-5,30.85A100.74,100.74,0,0,1,66.4,184.8Z"/><path class="cls-22" d="M86,188.77l1.24-31.19a32.55,32.55,0,0,0,8.23,0l-.65,31.59S89.62,189.17,86,188.77Z"/><path class="cls-6" d="M125.34,184.14,114,154.77a18.66,18.66,0,0,0,6.45-2.81l14.43,28.31A79.08,79.08,0,0,1,125.34,184.14Z"/><path class="cls-10" d="M151.19,170.52,131.34,145.4l5.63-4.53,22,23.18A64.58,64.58,0,0,1,151.19,170.52Z"/><path class="cls-6" d="M165.72,157.11l-25.12-20.7a41,41,0,0,0,5.08-5.08l26.63,17.37A75.43,75.43,0,0,1,165.72,157.11Z"/><path class="cls-18" d="M177.37,140.59l-28.74-14.75a50.51,50.51,0,0,0,3.71-6.38l29.23,12.59A83.91,83.91,0,0,1,177.37,140.59Z"/><path class="cls-3" d="M117.35,153.69l-2-3.88a19.34,19.34,0,0,1-4,2.24,33.44,33.44,0,0,1-4.72,1.64l9.21,33.13s6.64-1.7,9.46-2.68L114,154.77S114.21,155.42,117.35,153.69Z"/><path class="cls-3" d="M111.39,152.05l-1.16-4a40.87,40.87,0,0,1-4.78,1.78,36.37,36.37,0,0,1-5.14,1.21l5,37.58s7.2-.88,10.59-1.78l-9.21-33.13A20.32,20.32,0,0,0,111.39,152.05Z"/><path class="cls-11" d="M105.45,149.81l-.93-3.55A31.08,31.08,0,0,1,90.78,148v9.81l4.73-.26-.65,31.59a52.94,52.94,0,0,0,10.43-.57l-5-37.58S104.72,150.05,105.45,149.81Z"/><path class="cls-22" d="M77.76,156.06l3.82-12.89a65.94,65.94,0,0,0,8.63,1.17,38.35,38.35,0,0,0,7.11-.12V148s-4.11.07-6.54.07v9.81l-3.5-.26L86,188.77s-6-.62-9.46-1.37l5-30.85A16.24,16.24,0,0,1,77.76,156.06Z"/><path class="cls-2" d="M90.21,144.34l.57-3.47s-3.37-.22-7-.88c-3.11-.56-6.45-1.44-8.12-2.78L56.69,181.13a100.57,100.57,0,0,0,9.71,3.67L74.58,155a14.13,14.13,0,0,0,3.18,1l3.82-12.89S87.4,144.23,90.21,144.34Z"/><path class="cls-2" d="M83.74,140l.68-3.27s-9-1.31-12.07-4.87L48,176.71a96,96,0,0,0,8.73,4.42l18.93-43.92S80.91,139.55,83.74,140Z"/><path class="cls-23" d="M77.83,135.06l1.25-3.21s-5.42-2.12-8.23-5.41L39.5,171.22A73.92,73.92,0,0,0,48,176.71l24.39-44.86A13.62,13.62,0,0,0,77.83,135.06Z"/><path class="cls-10" d="M134.11,143.17l-2.28-2.58a21.28,21.28,0,0,1-7.35,5.67l18.59,29.68a59.49,59.49,0,0,0,8.12-5.42L131.34,145.4Z"/><path class="cls-8" d="M150.65,122.64,147,121.33s1.09-2.38,2.19-4.76c.78-1.71,1.58-3.41,2-4.23L185,122.64s-1.83,5.79-3.46,9.41l-29.23-12.59Z"/><path class="cls-23" d="M148.18,110.43,104.76,98.2s-1.55,3.76-7,7.68l1,3.11a27.65,27.65,0,0,0,6.86-4.67l38,29.39,2.14-2.38,26.63,17.37s3.4-5,5.06-8.11l-28.74-14.75a20,20,0,0,0,2-3.2L147,121.33s1.11-2.44,2.19-4.76l-2.84-1.12A26.2,26.2,0,0,0,148.18,110.43Z"/><path class="cls-17" d="M38.55,117.64,76.48,102.8S73.65,96.6,75,91.33H71.08s-1.21,5.63.17,8.2L3,115.94a80.73,80.73,0,0,0,2.46,9.16l30.35-11.69Z"/><path class="cls-23" d="M48.36,134,80,107.77s-2.75-3-3.49-5L38.55,117.64,41,121.28l-3.52,2.78,1.84,3L13.88,143.23s2.8,4.69,5.2,7.79l26.07-20.81A20,20,0,0,0,48.36,134Z"/><path class="cls-23" d="M74.33,129.37l10.85-17.86A11.31,11.31,0,0,1,80,107.77L48.36,134l3.92,3.22-3.07,2.61,2.46,2.45-19.33,23.2s3.81,3.39,7.16,5.75l31.35-44.78Z"/><path class="cls-7" d="M149.24,72.27l-.17,0-3.21.83S133.24,63.24,117,62.23l1.88-2.77,3.53,2.77,2.15-2.4,0,0,3.54,3.22L130.33,61l3,3.23,2.58-1.74.09.1,3.13,4,2.7-1.66,2.89,4.45,2.22-1.05Z"/><path class="cls-15" d="M127.92,144.22,95.51,110.47a41.66,41.66,0,0,0,10.07-6.15l38,29.39-2.94,2.7,25.12,20.7a50.91,50.91,0,0,1-6.76,6.94l-22-23.18-2.86,2.3-2.28-2.58A15.42,15.42,0,0,1,127.92,144.22Z"/><path class="cls-24" d="M166.62,50l-.24-.11a.47.47,0,0,1-.06-.09l.29.14A.13.13,0,0,1,166.62,50Z"/><path class="cls-24" d="M184.89,87.89c-1.52.65-3.6-1.1-4.65-3.91a8.79,8.79,0,0,1-.53-2.2c0-.1,0-.2,0-.3-.15-1.73.3-3.17,1.25-3.69a.85.85,0,0,1,.15-.09,1.74,1.74,0,0,1,1.06-.09l.26.07A5.24,5.24,0,0,1,185,80.14a10,10,0,0,1,.7,1.47C186.77,84.42,186.4,87.23,184.89,87.89Z"/><path class="cls-3" d="M184.85,79.84A5.48,5.48,0,0,0,182,77.38l-.27-.07a10.82,10.82,0,0,0-.64-4.73c-.06-.18-.13-.35-.2-.53a12.68,12.68,0,0,0-.94-1.88.1.1,0,0,1,.05,0,1.79,1.79,0,0,1,.59-.39c1.24-.49,2.81.39,4,2.07a8.61,8.61,0,0,1,1,1.83C186.7,76.38,186.35,79.1,184.85,79.84Z"/><path class="cls-12" d="M181.75,77.31a2,2,0,0,0-1.14.09.65.65,0,0,0-.16.09c-1,.52-1.51,2-1.35,3.69-1.4.36-3-.34-4.44-1.76a11.77,11.77,0,0,1-2.23-3.6,12.08,12.08,0,0,1-.62-2c-.56-2.53-.23-4.85.88-6.15a3,3,0,0,1,1.18-.87,3,3,0,0,1,1.66-.16,4.7,4.7,0,0,1,1.61.61h0a4.17,4.17,0,0,1,.6.4,7.6,7.6,0,0,1,.93.8l.12.13A10.89,10.89,0,0,1,180,70.17a12.68,12.68,0,0,1,.94,1.88c.07.18.14.35.2.53A10.82,10.82,0,0,1,181.75,77.31Z"/><path class="cls-25" d="M177.5,67.39a4.17,4.17,0,0,0-.6-.4h0a7.34,7.34,0,0,0-3-.19,3,3,0,0,0-1.18.87c-1.11,1.3-1.44,3.62-.88,6.15a12.08,12.08,0,0,0,.62,2,11.77,11.77,0,0,0,2.23,3.6,11.47,11.47,0,0,1-2.48-3.86,12.08,12.08,0,0,1-.62-2,9.44,9.44,0,0,1-3.33-3.21h0c-.18-.28-.36-.57-.52-.87a12.21,12.21,0,0,1-.75-1.54,11.83,11.83,0,0,1-.87-6,6.08,6.08,0,0,1,.23-1.08A4.55,4.55,0,0,1,168.6,58a3.78,3.78,0,0,1,2.89.11l.1.05c.13,0,.26.12.4.19a10.35,10.35,0,0,1,4.22,4.72h0c0,.09.09.17.13.26s.2.44.29.66a11.77,11.77,0,0,1,.62,2A10,10,0,0,1,177.5,67.39Z"/><path class="cls-25" d="M185.6,69a3.86,3.86,0,0,1-.06.49,5.28,5.28,0,0,1-.93,2.3c-1.19-1.68-2.76-2.56-4-2.07a1.79,1.79,0,0,0-.59.39,9.6,9.6,0,0,0-1.22-1.55l-.12-.13a7.69,7.69,0,0,0-1.18-1.06,10,10,0,0,0-.25-1.38,11.77,11.77,0,0,0-.62-2c-.09-.22-.19-.44-.29-.66s-.08-.17-.13-.26h0c0-2.53.84-4.53,2.42-5A2.68,2.68,0,0,1,180,58h0a4.07,4.07,0,0,1,1.76.84c.18.14.36.29.53.45,0,0,0,0,0,0a.1.1,0,0,1,.05,0,11.4,11.4,0,0,1,2.78,4.76A11.51,11.51,0,0,1,185.6,69Z"/><path class="cls-26" d="M180,58a2.28,2.28,0,0,0-1.32,0c-1.58.5-2.45,2.5-2.42,5A10.35,10.35,0,0,0,172,58.39c-.14-.07-.27-.14-.4-.19l-.1-.05a23.93,23.93,0,0,1-.28-4.12,3.7,3.7,0,0,1,1.34-1.76,2.73,2.73,0,0,1,.71-.34h0c1.38-.37,3.06.2,4.7,1.48a7.47,7.47,0,0,1,1.21,1c.16.18.31.37.46.56a12.27,12.27,0,0,1,2.05,3.95A4.07,4.07,0,0,0,180,58Z"/><path class="cls-11" d="M168.23,70.34h0a4.63,4.63,0,0,1-4.25.47,12,12,0,0,1-5.25-3.45,13.86,13.86,0,0,1-1.49-1.93,10.08,10.08,0,0,1-.81-1.46c-1.2-2.59-1.18-5.13.28-6.48a3.71,3.71,0,0,1,2.58-.92,4.68,4.68,0,0,1,.64,0,4.76,4.76,0,0,1,.64.11l.1,0a4.77,4.77,0,0,1,.51.13l.43.15.09,0c.26.1.53.21.8.34a2.53,2.53,0,0,1,.29.14,6.74,6.74,0,0,1,.64.35c.19.11.38.24.58.37l.07.05.69.51a14.12,14.12,0,0,1,1.62,1.5l.08.09a4,4,0,0,0-.15.45,6.08,6.08,0,0,0-.23,1.08,11.83,11.83,0,0,0,.87,6,12.21,12.21,0,0,0,.75,1.54C167.87,69.77,168.05,70.06,168.23,70.34Z"/><path class="cls-2" d="M171.49,58.15A3.78,3.78,0,0,0,168.6,58a3.94,3.94,0,0,0-2.13,2.37l-.08-.09a14.12,14.12,0,0,0-1.62-1.5l-.69-.51-.07-.05c-.2-.13-.39-.26-.58-.37a6.74,6.74,0,0,0-.64-.35,2.53,2.53,0,0,0-.29-.14c-.27-.13-.54-.24-.8-.34a2.6,2.6,0,0,1-.1-.25,8.91,8.91,0,0,1-.64-2.48.17.17,0,0,0,0-.07,4.67,4.67,0,0,1,1.17-4l0,0,.16-.12.25-.19h0a3.33,3.33,0,0,1,.46-.24.91.91,0,0,1,.25-.11,3.7,3.7,0,0,1,1.76-.12,5,5,0,0,1,1.26.36h0a.47.47,0,0,0,.06.09l.24.11a5.68,5.68,0,0,1,.74.37c.23.14.46.29.69.46l.08.06.35.29a12.46,12.46,0,0,1,1.74,2.43l.18.35h0a6.07,6.07,0,0,0,.09,1.32A9.72,9.72,0,0,0,171.49,58.15Z"/><path class="cls-14" d="M178.69,50.83a14.51,14.51,0,0,1-.42,1.52,3.7,3.7,0,0,1-.17.4s-3.49-1.78-4.88-1.34h0a2.55,2.55,0,0,0-.81.36A3.67,3.67,0,0,0,171,53.51c0,.08-.06.15-.09.24a3.19,3.19,0,0,1-.64-.63c-.38-.7-1.51-2.51-2.22-2.74-.28-.2-.55-.42-.84-.59a7.45,7.45,0,0,0-.68-.36,14.9,14.9,0,0,0-2-5.61h0a4.77,4.77,0,0,0-.25-.43c.05-.32.45-2.18.65-2.74a4,4,0,0,1,1.59-2,3.68,3.68,0,0,1,1.62-.55h0a1.58,1.58,0,0,1,.38,0h.05a4,4,0,0,1,.77.05,5.6,5.6,0,0,1,1.28.29h0a10.9,10.9,0,0,1,4.15,2.79,14.53,14.53,0,0,1,1.77,2.21,11.68,11.68,0,0,1,.71,1.22A11,11,0,0,1,178.69,50.83Z"/><path class="cls-2" d="M166.2,49.71l-.29-.14h0a5,5,0,0,0-1.26-.36,3.7,3.7,0,0,0-1.76.12.91.91,0,0,0-.25.11,3.33,3.33,0,0,0-.46.24h0l-.25.19-.16.12,0,0a4.67,4.67,0,0,0-1.17,4,.17.17,0,0,1,0,.07,8.91,8.91,0,0,0,.64,2.48,8.7,8.7,0,0,1-3.35-.86,16.24,16.24,0,0,1-6-5c-.11-.13-.21-.27-.31-.41a16.68,16.68,0,0,1-2.2-4.18,5.89,5.89,0,0,1-.21-.59,12,12,0,0,1-.56-2.7h0c-.21-2.31.4-4.28,1.86-5.39a1.43,1.43,0,0,1,.31-.26,4.8,4.8,0,0,1,2.43-.72h.11a4.35,4.35,0,0,1,.51,0,7.45,7.45,0,0,1,1.21.16,13.22,13.22,0,0,1,6,3.49,19.33,19.33,0,0,1,2.27,2.62,14.15,14.15,0,0,0,.88,1.37h0A14.9,14.9,0,0,1,166.2,49.71Z"/><path class="cls-27" d="M170.19,37.29a1,1,0,0,0-.13-.16,0,0,0,0,0,0,0L170,37l-.09-.1-.22-.26a42,42,0,0,0-2.44-4.75,16.16,16.16,0,0,0-2-2.38,11.4,11.4,0,0,0-6.61-3.43l-.38,0H158a4.62,4.62,0,0,0-2.29.56,1.43,1.43,0,0,0-.3.22c-1.92,1.29-2.41,4-1.49,7.08,0,.13.07.26.12.39a.78.78,0,0,0,0,.14,14.32,14.32,0,0,0,.9,2.09A14.13,14.13,0,0,1,161.32,40a19.38,19.38,0,0,1,2.39,2.62c.23.31.46.62.67.94a2.87,2.87,0,0,1,.3-.91,6,6,0,0,1,.38-1.83,4,4,0,0,1,1.4-1.82,1.1,1.1,0,0,1,.28-.2,4,4,0,0,1,1.7-.55h0a1.81,1.81,0,0,1,.4,0h.06a8.34,8.34,0,0,1,2.29.33C170.88,38.13,170.54,37.71,170.19,37.29Z"/><path class="cls-6" d="M82,109.79l2.39-2.71s3.17,4,11.09,3.39l32.41,33.75a12.69,12.69,0,0,1-3.44,2l18.59,29.68s-5.26,3-8.15,4.33L120.49,152l-2.92,1.63-2.2-3.78-4,2.24-1.16-4-4.78,1.78-.93-3.55a29.9,29.9,0,0,1-7.2,1.7v-3.74s-5.48.24-7.11.12l.57-3.47s-6.49-.78-7-.88l.68-3.27s-5.26-1.18-6.59-1.66l1.25-3.21a25.88,25.88,0,0,1-4.75-2.48l10.85-17.86A21.76,21.76,0,0,1,82,109.79l2.39-2.71"/></g></g></svg>