<?xml version="1.0" encoding="utf-8" standalone="no"?>
<!DOCTYPE svg PUBLIC "-//W3C//DTD SVG 1.1//EN"
  "http://www.w3.org/Graphics/SVG/1.1/DTD/svg11.dtd">
<svg height="298.620937pt" version="1.1" viewBox="0 0 1175.767228 298.620937" width="1175.767228pt" xmlns="http://www.w3.org/2000/svg" xmlns:xlink="http://www.w3.org/1999/xlink">
 <metadata>
  <rdf:RDF xmlns:cc="http://creativecommons.org/ns#" xmlns:dc="http://purl.org/dc/elements/1.1/" xmlns:rdf="http://www.w3.org/1999/02/22-rdf-syntax-ns#">
   <cc:Work>
    <dc:type rdf:resource="http://purl.org/dc/dcmitype/StillImage"/>
    <dc:date>2021-07-01T16:31:59.974681</dc:date>
    <dc:format>image/svg+xml</dc:format>
    <dc:creator>
     <cc:Agent>
      <dc:title>Matplotlib v3.4.2, https://matplotlib.org/</dc:title>
     </cc:Agent>
    </dc:creator>
   </cc:Work>
  </rdf:RDF>
 </metadata>
 <defs>
  <style type="text/css">*{stroke-linecap:butt;stroke-linejoin:round;}</style>
 </defs>
 <g id="figure_1">
  <g id="patch_1">
   <path d="M 0 298.620937 
L 1175.767228 298.620937 
L 1175.767228 0 
L 0 0 
z
" style="fill:#ffffff;"/>
  </g>
  <g id="axes_1">
   <g id="patch_2">
    <path d="M 50.14375 228.96 
L 1166.14375 228.96 
L 1166.14375 7.2 
L 50.14375 7.2 
z
" style="fill:#ffffff;"/>
   </g>
   <g id="matplotlib.axis_1">
    <g id="xtick_1">
     <g id="line2d_1">
      <defs>
       <path d="M 0 0 
L 0 3.5 
" id="m9b06d30648" style="stroke:#000000;stroke-width:0.8;"/>
      </defs>
      <g>
       <use style="stroke:#000000;stroke-width:0.8;" x="192.126434" xlink:href="#m9b06d30648" y="228.96"/>
      </g>
     </g>
     <g id="text_1">
      <!-- 2021-01 -->
      <g transform="translate(194.885809 277.742812)rotate(-90)scale(0.1 -0.1)">
       <defs>
        <path d="M 1228 531 
L 3431 531 
L 3431 0 
L 469 0 
L 469 531 
Q 828 903 1448 1529 
Q 2069 2156 2228 2338 
Q 2531 2678 2651 2914 
Q 2772 3150 2772 3378 
Q 2772 3750 2511 3984 
Q 2250 4219 1831 4219 
Q 1534 4219 1204 4116 
Q 875 4013 500 3803 
L 500 4441 
Q 881 4594 1212 4672 
Q 1544 4750 1819 4750 
Q 2544 4750 2975 4387 
Q 3406 4025 3406 3419 
Q 3406 3131 3298 2873 
Q 3191 2616 2906 2266 
Q 2828 2175 2409 1742 
Q 1991 1309 1228 531 
z
" id="DejaVuSans-32" transform="scale(0.015625)"/>
        <path d="M 2034 4250 
Q 1547 4250 1301 3770 
Q 1056 3291 1056 2328 
Q 1056 1369 1301 889 
Q 1547 409 2034 409 
Q 2525 409 2770 889 
Q 3016 1369 3016 2328 
Q 3016 3291 2770 3770 
Q 2525 4250 2034 4250 
z
M 2034 4750 
Q 2819 4750 3233 4129 
Q 3647 3509 3647 2328 
Q 3647 1150 3233 529 
Q 2819 -91 2034 -91 
Q 1250 -91 836 529 
Q 422 1150 422 2328 
Q 422 3509 836 4129 
Q 1250 4750 2034 4750 
z
" id="DejaVuSans-30" transform="scale(0.015625)"/>
        <path d="M 794 531 
L 1825 531 
L 1825 4091 
L 703 3866 
L 703 4441 
L 1819 4666 
L 2450 4666 
L 2450 531 
L 3481 531 
L 3481 0 
L 794 0 
L 794 531 
z
" id="DejaVuSans-31" transform="scale(0.015625)"/>
        <path d="M 313 2009 
L 1997 2009 
L 1997 1497 
L 313 1497 
L 313 2009 
z
" id="DejaVuSans-2d" transform="scale(0.015625)"/>
       </defs>
       <use xlink:href="#DejaVuSans-32"/>
       <use x="63.623047" xlink:href="#DejaVuSans-30"/>
       <use x="127.246094" xlink:href="#DejaVuSans-32"/>
       <use x="190.869141" xlink:href="#DejaVuSans-31"/>
       <use x="254.492188" xlink:href="#DejaVuSans-2d"/>
       <use x="290.576172" xlink:href="#DejaVuSans-30"/>
       <use x="354.199219" xlink:href="#DejaVuSans-31"/>
      </g>
     </g>
    </g>
    <g id="xtick_2">
     <g id="line2d_2">
      <g>
       <use style="stroke:#000000;stroke-width:0.8;" x="358.53336" xlink:href="#m9b06d30648" y="228.96"/>
      </g>
     </g>
     <g id="text_2">
      <!-- 2021-02 -->
      <g transform="translate(361.292735 277.742812)rotate(-90)scale(0.1 -0.1)">
       <use xlink:href="#DejaVuSans-32"/>
       <use x="63.623047" xlink:href="#DejaVuSans-30"/>
       <use x="127.246094" xlink:href="#DejaVuSans-32"/>
       <use x="190.869141" xlink:href="#DejaVuSans-31"/>
       <use x="254.492188" xlink:href="#DejaVuSans-2d"/>
       <use x="290.576172" xlink:href="#DejaVuSans-30"/>
       <use x="354.199219" xlink:href="#DejaVuSans-32"/>
      </g>
     </g>
    </g>
    <g id="xtick_3">
     <g id="line2d_3">
      <g>
       <use style="stroke:#000000;stroke-width:0.8;" x="508.836391" xlink:href="#m9b06d30648" y="228.96"/>
      </g>
     </g>
     <g id="text_3">
      <!-- 2021-03 -->
      <g transform="translate(511.595766 277.742812)rotate(-90)scale(0.1 -0.1)">
       <defs>
        <path d="M 2597 2516 
Q 3050 2419 3304 2112 
Q 3559 1806 3559 1356 
Q 3559 666 3084 287 
Q 2609 -91 1734 -91 
Q 1441 -91 1130 -33 
Q 819 25 488 141 
L 488 750 
Q 750 597 1062 519 
Q 1375 441 1716 441 
Q 2309 441 2620 675 
Q 2931 909 2931 1356 
Q 2931 1769 2642 2001 
Q 2353 2234 1838 2234 
L 1294 2234 
L 1294 2753 
L 1863 2753 
Q 2328 2753 2575 2939 
Q 2822 3125 2822 3475 
Q 2822 3834 2567 4026 
Q 2313 4219 1838 4219 
Q 1578 4219 1281 4162 
Q 984 4106 628 3988 
L 628 4550 
Q 988 4650 1302 4700 
Q 1616 4750 1894 4750 
Q 2613 4750 3031 4423 
Q 3450 4097 3450 3541 
Q 3450 3153 3228 2886 
Q 3006 2619 2597 2516 
z
" id="DejaVuSans-33" transform="scale(0.015625)"/>
       </defs>
       <use xlink:href="#DejaVuSans-32"/>
       <use x="63.623047" xlink:href="#DejaVuSans-30"/>
       <use x="127.246094" xlink:href="#DejaVuSans-32"/>
       <use x="190.869141" xlink:href="#DejaVuSans-31"/>
       <use x="254.492188" xlink:href="#DejaVuSans-2d"/>
       <use x="290.576172" xlink:href="#DejaVuSans-30"/>
       <use x="354.199219" xlink:href="#DejaVuSans-33"/>
      </g>
     </g>
    </g>
    <g id="xtick_4">
     <g id="line2d_4">
      <g>
       <use style="stroke:#000000;stroke-width:0.8;" x="675.243317" xlink:href="#m9b06d30648" y="228.96"/>
      </g>
     </g>
     <g id="text_4">
      <!-- 2021-04 -->
      <g transform="translate(678.002692 277.742812)rotate(-90)scale(0.1 -0.1)">
       <defs>
        <path d="M 2419 4116 
L 825 1625 
L 2419 1625 
L 2419 4116 
z
M 2253 4666 
L 3047 4666 
L 3047 1625 
L 3713 1625 
L 3713 1100 
L 3047 1100 
L 3047 0 
L 2419 0 
L 2419 1100 
L 313 1100 
L 313 1709 
L 2253 4666 
z
" id="DejaVuSans-34" transform="scale(0.015625)"/>
       </defs>
       <use xlink:href="#DejaVuSans-32"/>
       <use x="63.623047" xlink:href="#DejaVuSans-30"/>
       <use x="127.246094" xlink:href="#DejaVuSans-32"/>
       <use x="190.869141" xlink:href="#DejaVuSans-31"/>
       <use x="254.492188" xlink:href="#DejaVuSans-2d"/>
       <use x="290.576172" xlink:href="#DejaVuSans-30"/>
       <use x="354.199219" xlink:href="#DejaVuSans-34"/>
      </g>
     </g>
    </g>
    <g id="xtick_5">
     <g id="line2d_5">
      <g>
       <use style="stroke:#000000;stroke-width:0.8;" x="836.282278" xlink:href="#m9b06d30648" y="228.96"/>
      </g>
     </g>
     <g id="text_5">
      <!-- 2021-05 -->
      <g transform="translate(839.041653 277.742812)rotate(-90)scale(0.1 -0.1)">
       <defs>
        <path d="M 691 4666 
L 3169 4666 
L 3169 4134 
L 1269 4134 
L 1269 2991 
Q 1406 3038 1543 3061 
Q 1681 3084 1819 3084 
Q 2600 3084 3056 2656 
Q 3513 2228 3513 1497 
Q 3513 744 3044 326 
Q 2575 -91 1722 -91 
Q 1428 -91 1123 -41 
Q 819 9 494 109 
L 494 744 
Q 775 591 1075 516 
Q 1375 441 1709 441 
Q 2250 441 2565 725 
Q 2881 1009 2881 1497 
Q 2881 1984 2565 2268 
Q 2250 2553 1709 2553 
Q 1456 2553 1204 2497 
Q 953 2441 691 2322 
L 691 4666 
z
" id="DejaVuSans-35" transform="scale(0.015625)"/>
       </defs>
       <use xlink:href="#DejaVuSans-32"/>
       <use x="63.623047" xlink:href="#DejaVuSans-30"/>
       <use x="127.246094" xlink:href="#DejaVuSans-32"/>
       <use x="190.869141" xlink:href="#DejaVuSans-31"/>
       <use x="254.492188" xlink:href="#DejaVuSans-2d"/>
       <use x="290.576172" xlink:href="#DejaVuSans-30"/>
       <use x="354.199219" xlink:href="#DejaVuSans-35"/>
      </g>
     </g>
    </g>
    <g id="xtick_6">
     <g id="line2d_6">
      <g>
       <use style="stroke:#000000;stroke-width:0.8;" x="1002.689205" xlink:href="#m9b06d30648" y="228.96"/>
      </g>
     </g>
     <g id="text_6">
      <!-- 2021-06 -->
      <g transform="translate(1005.44858 277.742812)rotate(-90)scale(0.1 -0.1)">
       <defs>
        <path d="M 2113 2584 
Q 1688 2584 1439 2293 
Q 1191 2003 1191 1497 
Q 1191 994 1439 701 
Q 1688 409 2113 409 
Q 2538 409 2786 701 
Q 3034 994 3034 1497 
Q 3034 2003 2786 2293 
Q 2538 2584 2113 2584 
z
M 3366 4563 
L 3366 3988 
Q 3128 4100 2886 4159 
Q 2644 4219 2406 4219 
Q 1781 4219 1451 3797 
Q 1122 3375 1075 2522 
Q 1259 2794 1537 2939 
Q 1816 3084 2150 3084 
Q 2853 3084 3261 2657 
Q 3669 2231 3669 1497 
Q 3669 778 3244 343 
Q 2819 -91 2113 -91 
Q 1303 -91 875 529 
Q 447 1150 447 2328 
Q 447 3434 972 4092 
Q 1497 4750 2381 4750 
Q 2619 4750 2861 4703 
Q 3103 4656 3366 4563 
z
" id="DejaVuSans-36" transform="scale(0.015625)"/>
       </defs>
       <use xlink:href="#DejaVuSans-32"/>
       <use x="63.623047" xlink:href="#DejaVuSans-30"/>
       <use x="127.246094" xlink:href="#DejaVuSans-32"/>
       <use x="190.869141" xlink:href="#DejaVuSans-31"/>
       <use x="254.492188" xlink:href="#DejaVuSans-2d"/>
       <use x="290.576172" xlink:href="#DejaVuSans-30"/>
       <use x="354.199219" xlink:href="#DejaVuSans-36"/>
      </g>
     </g>
    </g>
    <g id="xtick_7">
     <g id="line2d_7">
      <g>
       <use style="stroke:#000000;stroke-width:0.8;" x="1163.728166" xlink:href="#m9b06d30648" y="228.96"/>
      </g>
     </g>
     <g id="text_7">
      <!-- 2021-07 -->
      <g transform="translate(1166.487541 277.742812)rotate(-90)scale(0.1 -0.1)">
       <defs>
        <path d="M 525 4666 
L 3525 4666 
L 3525 4397 
L 1831 0 
L 1172 0 
L 2766 4134 
L 525 4134 
L 525 4666 
z
" id="DejaVuSans-37" transform="scale(0.015625)"/>
       </defs>
       <use xlink:href="#DejaVuSans-32"/>
       <use x="63.623047" xlink:href="#DejaVuSans-30"/>
       <use x="127.246094" xlink:href="#DejaVuSans-32"/>
       <use x="190.869141" xlink:href="#DejaVuSans-31"/>
       <use x="254.492188" xlink:href="#DejaVuSans-2d"/>
       <use x="290.576172" xlink:href="#DejaVuSans-30"/>
       <use x="354.199219" xlink:href="#DejaVuSans-37"/>
      </g>
     </g>
    </g>
    <g id="text_8">
     <!-- Date -->
     <g transform="translate(596.192969 289.34125)scale(0.1 -0.1)">
      <defs>
       <path d="M 1259 4147 
L 1259 519 
L 2022 519 
Q 2988 519 3436 956 
Q 3884 1394 3884 2338 
Q 3884 3275 3436 3711 
Q 2988 4147 2022 4147 
L 1259 4147 
z
M 628 4666 
L 1925 4666 
Q 3281 4666 3915 4102 
Q 4550 3538 4550 2338 
Q 4550 1131 3912 565 
Q 3275 0 1925 0 
L 628 0 
L 628 4666 
z
" id="DejaVuSans-44" transform="scale(0.015625)"/>
       <path d="M 2194 1759 
Q 1497 1759 1228 1600 
Q 959 1441 959 1056 
Q 959 750 1161 570 
Q 1363 391 1709 391 
Q 2188 391 2477 730 
Q 2766 1069 2766 1631 
L 2766 1759 
L 2194 1759 
z
M 3341 1997 
L 3341 0 
L 2766 0 
L 2766 531 
Q 2569 213 2275 61 
Q 1981 -91 1556 -91 
Q 1019 -91 701 211 
Q 384 513 384 1019 
Q 384 1609 779 1909 
Q 1175 2209 1959 2209 
L 2766 2209 
L 2766 2266 
Q 2766 2663 2505 2880 
Q 2244 3097 1772 3097 
Q 1472 3097 1187 3025 
Q 903 2953 641 2809 
L 641 3341 
Q 956 3463 1253 3523 
Q 1550 3584 1831 3584 
Q 2591 3584 2966 3190 
Q 3341 2797 3341 1997 
z
" id="DejaVuSans-61" transform="scale(0.015625)"/>
       <path d="M 1172 4494 
L 1172 3500 
L 2356 3500 
L 2356 3053 
L 1172 3053 
L 1172 1153 
Q 1172 725 1289 603 
Q 1406 481 1766 481 
L 2356 481 
L 2356 0 
L 1766 0 
Q 1100 0 847 248 
Q 594 497 594 1153 
L 594 3053 
L 172 3053 
L 172 3500 
L 594 3500 
L 594 4494 
L 1172 4494 
z
" id="DejaVuSans-74" transform="scale(0.015625)"/>
       <path d="M 3597 1894 
L 3597 1613 
L 953 1613 
Q 991 1019 1311 708 
Q 1631 397 2203 397 
Q 2534 397 2845 478 
Q 3156 559 3463 722 
L 3463 178 
Q 3153 47 2828 -22 
Q 2503 -91 2169 -91 
Q 1331 -91 842 396 
Q 353 884 353 1716 
Q 353 2575 817 3079 
Q 1281 3584 2069 3584 
Q 2775 3584 3186 3129 
Q 3597 2675 3597 1894 
z
M 3022 2063 
Q 3016 2534 2758 2815 
Q 2500 3097 2075 3097 
Q 1594 3097 1305 2825 
Q 1016 2553 972 2059 
L 3022 2063 
z
" id="DejaVuSans-65" transform="scale(0.015625)"/>
      </defs>
      <use xlink:href="#DejaVuSans-44"/>
      <use x="77.001953" xlink:href="#DejaVuSans-61"/>
      <use x="138.28125" xlink:href="#DejaVuSans-74"/>
      <use x="177.490234" xlink:href="#DejaVuSans-65"/>
     </g>
    </g>
   </g>
   <g id="matplotlib.axis_2">
    <g id="ytick_1">
     <g id="line2d_8">
      <defs>
       <path d="M 0 0 
L -3.5 0 
" id="m40d51f7c73" style="stroke:#000000;stroke-width:0.8;"/>
      </defs>
      <g>
       <use style="stroke:#000000;stroke-width:0.8;" x="50.14375" xlink:href="#m40d51f7c73" y="228.96"/>
      </g>
     </g>
     <g id="text_9">
      <!-- 0.00 -->
      <g transform="translate(20.878125 232.759219)scale(0.1 -0.1)">
       <defs>
        <path d="M 684 794 
L 1344 794 
L 1344 0 
L 684 0 
L 684 794 
z
" id="DejaVuSans-2e" transform="scale(0.015625)"/>
       </defs>
       <use xlink:href="#DejaVuSans-30"/>
       <use x="63.623047" xlink:href="#DejaVuSans-2e"/>
       <use x="95.410156" xlink:href="#DejaVuSans-30"/>
       <use x="159.033203" xlink:href="#DejaVuSans-30"/>
      </g>
     </g>
    </g>
    <g id="ytick_2">
     <g id="line2d_9">
      <g>
       <use style="stroke:#000000;stroke-width:0.8;" x="50.14375" xlink:href="#m40d51f7c73" y="203.273514"/>
      </g>
     </g>
     <g id="text_10">
      <!-- 0.05 -->
      <g transform="translate(20.878125 207.072732)scale(0.1 -0.1)">
       <use xlink:href="#DejaVuSans-30"/>
       <use x="63.623047" xlink:href="#DejaVuSans-2e"/>
       <use x="95.410156" xlink:href="#DejaVuSans-30"/>
       <use x="159.033203" xlink:href="#DejaVuSans-35"/>
      </g>
     </g>
    </g>
    <g id="ytick_3">
     <g id="line2d_10">
      <g>
       <use style="stroke:#000000;stroke-width:0.8;" x="50.14375" xlink:href="#m40d51f7c73" y="177.587027"/>
      </g>
     </g>
     <g id="text_11">
      <!-- 0.10 -->
      <g transform="translate(20.878125 181.386246)scale(0.1 -0.1)">
       <use xlink:href="#DejaVuSans-30"/>
       <use x="63.623047" xlink:href="#DejaVuSans-2e"/>
       <use x="95.410156" xlink:href="#DejaVuSans-31"/>
       <use x="159.033203" xlink:href="#DejaVuSans-30"/>
      </g>
     </g>
    </g>
    <g id="ytick_4">
     <g id="line2d_11">
      <g>
       <use style="stroke:#000000;stroke-width:0.8;" x="50.14375" xlink:href="#m40d51f7c73" y="151.900541"/>
      </g>
     </g>
     <g id="text_12">
      <!-- 0.15 -->
      <g transform="translate(20.878125 155.699759)scale(0.1 -0.1)">
       <use xlink:href="#DejaVuSans-30"/>
       <use x="63.623047" xlink:href="#DejaVuSans-2e"/>
       <use x="95.410156" xlink:href="#DejaVuSans-31"/>
       <use x="159.033203" xlink:href="#DejaVuSans-35"/>
      </g>
     </g>
    </g>
    <g id="ytick_5">
     <g id="line2d_12">
      <g>
       <use style="stroke:#000000;stroke-width:0.8;" x="50.14375" xlink:href="#m40d51f7c73" y="126.214054"/>
      </g>
     </g>
     <g id="text_13">
      <!-- 0.20 -->
      <g transform="translate(20.878125 130.013273)scale(0.1 -0.1)">
       <use xlink:href="#DejaVuSans-30"/>
       <use x="63.623047" xlink:href="#DejaVuSans-2e"/>
       <use x="95.410156" xlink:href="#DejaVuSans-32"/>
       <use x="159.033203" xlink:href="#DejaVuSans-30"/>
      </g>
     </g>
    </g>
    <g id="ytick_6">
     <g id="line2d_13">
      <g>
       <use style="stroke:#000000;stroke-width:0.8;" x="50.14375" xlink:href="#m40d51f7c73" y="100.527568"/>
      </g>
     </g>
     <g id="text_14">
      <!-- 0.25 -->
      <g transform="translate(20.878125 104.326786)scale(0.1 -0.1)">
       <use xlink:href="#DejaVuSans-30"/>
       <use x="63.623047" xlink:href="#DejaVuSans-2e"/>
       <use x="95.410156" xlink:href="#DejaVuSans-32"/>
       <use x="159.033203" xlink:href="#DejaVuSans-35"/>
      </g>
     </g>
    </g>
    <g id="ytick_7">
     <g id="line2d_14">
      <g>
       <use style="stroke:#000000;stroke-width:0.8;" x="50.14375" xlink:href="#m40d51f7c73" y="74.841081"/>
      </g>
     </g>
     <g id="text_15">
      <!-- 0.30 -->
      <g transform="translate(20.878125 78.6403)scale(0.1 -0.1)">
       <use xlink:href="#DejaVuSans-30"/>
       <use x="63.623047" xlink:href="#DejaVuSans-2e"/>
       <use x="95.410156" xlink:href="#DejaVuSans-33"/>
       <use x="159.033203" xlink:href="#DejaVuSans-30"/>
      </g>
     </g>
    </g>
    <g id="ytick_8">
     <g id="line2d_15">
      <g>
       <use style="stroke:#000000;stroke-width:0.8;" x="50.14375" xlink:href="#m40d51f7c73" y="49.154595"/>
      </g>
     </g>
     <g id="text_16">
      <!-- 0.35 -->
      <g transform="translate(20.878125 52.953813)scale(0.1 -0.1)">
       <use xlink:href="#DejaVuSans-30"/>
       <use x="63.623047" xlink:href="#DejaVuSans-2e"/>
       <use x="95.410156" xlink:href="#DejaVuSans-33"/>
       <use x="159.033203" xlink:href="#DejaVuSans-35"/>
      </g>
     </g>
    </g>
    <g id="ytick_9">
     <g id="line2d_16">
      <g>
       <use style="stroke:#000000;stroke-width:0.8;" x="50.14375" xlink:href="#m40d51f7c73" y="23.468108"/>
      </g>
     </g>
     <g id="text_17">
      <!-- 0.40 -->
      <g transform="translate(20.878125 27.267327)scale(0.1 -0.1)">
       <use xlink:href="#DejaVuSans-30"/>
       <use x="63.623047" xlink:href="#DejaVuSans-2e"/>
       <use x="95.410156" xlink:href="#DejaVuSans-34"/>
       <use x="159.033203" xlink:href="#DejaVuSans-30"/>
      </g>
     </g>
    </g>
    <g id="text_18">
     <!-- Frequency (7 day rolling average) -->
     <g transform="translate(14.798438 202.529219)rotate(-90)scale(0.1 -0.1)">
      <defs>
       <path d="M 628 4666 
L 3309 4666 
L 3309 4134 
L 1259 4134 
L 1259 2759 
L 3109 2759 
L 3109 2228 
L 1259 2228 
L 1259 0 
L 628 0 
L 628 4666 
z
" id="DejaVuSans-46" transform="scale(0.015625)"/>
       <path d="M 2631 2963 
Q 2534 3019 2420 3045 
Q 2306 3072 2169 3072 
Q 1681 3072 1420 2755 
Q 1159 2438 1159 1844 
L 1159 0 
L 581 0 
L 581 3500 
L 1159 3500 
L 1159 2956 
Q 1341 3275 1631 3429 
Q 1922 3584 2338 3584 
Q 2397 3584 2469 3576 
Q 2541 3569 2628 3553 
L 2631 2963 
z
" id="DejaVuSans-72" transform="scale(0.015625)"/>
       <path d="M 947 1747 
Q 947 1113 1208 752 
Q 1469 391 1925 391 
Q 2381 391 2643 752 
Q 2906 1113 2906 1747 
Q 2906 2381 2643 2742 
Q 2381 3103 1925 3103 
Q 1469 3103 1208 2742 
Q 947 2381 947 1747 
z
M 2906 525 
Q 2725 213 2448 61 
Q 2172 -91 1784 -91 
Q 1150 -91 751 415 
Q 353 922 353 1747 
Q 353 2572 751 3078 
Q 1150 3584 1784 3584 
Q 2172 3584 2448 3432 
Q 2725 3281 2906 2969 
L 2906 3500 
L 3481 3500 
L 3481 -1331 
L 2906 -1331 
L 2906 525 
z
" id="DejaVuSans-71" transform="scale(0.015625)"/>
       <path d="M 544 1381 
L 544 3500 
L 1119 3500 
L 1119 1403 
Q 1119 906 1312 657 
Q 1506 409 1894 409 
Q 2359 409 2629 706 
Q 2900 1003 2900 1516 
L 2900 3500 
L 3475 3500 
L 3475 0 
L 2900 0 
L 2900 538 
Q 2691 219 2414 64 
Q 2138 -91 1772 -91 
Q 1169 -91 856 284 
Q 544 659 544 1381 
z
M 1991 3584 
L 1991 3584 
z
" id="DejaVuSans-75" transform="scale(0.015625)"/>
       <path d="M 3513 2113 
L 3513 0 
L 2938 0 
L 2938 2094 
Q 2938 2591 2744 2837 
Q 2550 3084 2163 3084 
Q 1697 3084 1428 2787 
Q 1159 2491 1159 1978 
L 1159 0 
L 581 0 
L 581 3500 
L 1159 3500 
L 1159 2956 
Q 1366 3272 1645 3428 
Q 1925 3584 2291 3584 
Q 2894 3584 3203 3211 
Q 3513 2838 3513 2113 
z
" id="DejaVuSans-6e" transform="scale(0.015625)"/>
       <path d="M 3122 3366 
L 3122 2828 
Q 2878 2963 2633 3030 
Q 2388 3097 2138 3097 
Q 1578 3097 1268 2742 
Q 959 2388 959 1747 
Q 959 1106 1268 751 
Q 1578 397 2138 397 
Q 2388 397 2633 464 
Q 2878 531 3122 666 
L 3122 134 
Q 2881 22 2623 -34 
Q 2366 -91 2075 -91 
Q 1284 -91 818 406 
Q 353 903 353 1747 
Q 353 2603 823 3093 
Q 1294 3584 2113 3584 
Q 2378 3584 2631 3529 
Q 2884 3475 3122 3366 
z
" id="DejaVuSans-63" transform="scale(0.015625)"/>
       <path d="M 2059 -325 
Q 1816 -950 1584 -1140 
Q 1353 -1331 966 -1331 
L 506 -1331 
L 506 -850 
L 844 -850 
Q 1081 -850 1212 -737 
Q 1344 -625 1503 -206 
L 1606 56 
L 191 3500 
L 800 3500 
L 1894 763 
L 2988 3500 
L 3597 3500 
L 2059 -325 
z
" id="DejaVuSans-79" transform="scale(0.015625)"/>
       <path id="DejaVuSans-20" transform="scale(0.015625)"/>
       <path d="M 1984 4856 
Q 1566 4138 1362 3434 
Q 1159 2731 1159 2009 
Q 1159 1288 1364 580 
Q 1569 -128 1984 -844 
L 1484 -844 
Q 1016 -109 783 600 
Q 550 1309 550 2009 
Q 550 2706 781 3412 
Q 1013 4119 1484 4856 
L 1984 4856 
z
" id="DejaVuSans-28" transform="scale(0.015625)"/>
       <path d="M 2906 2969 
L 2906 4863 
L 3481 4863 
L 3481 0 
L 2906 0 
L 2906 525 
Q 2725 213 2448 61 
Q 2172 -91 1784 -91 
Q 1150 -91 751 415 
Q 353 922 353 1747 
Q 353 2572 751 3078 
Q 1150 3584 1784 3584 
Q 2172 3584 2448 3432 
Q 2725 3281 2906 2969 
z
M 947 1747 
Q 947 1113 1208 752 
Q 1469 391 1925 391 
Q 2381 391 2643 752 
Q 2906 1113 2906 1747 
Q 2906 2381 2643 2742 
Q 2381 3103 1925 3103 
Q 1469 3103 1208 2742 
Q 947 2381 947 1747 
z
" id="DejaVuSans-64" transform="scale(0.015625)"/>
       <path d="M 1959 3097 
Q 1497 3097 1228 2736 
Q 959 2375 959 1747 
Q 959 1119 1226 758 
Q 1494 397 1959 397 
Q 2419 397 2687 759 
Q 2956 1122 2956 1747 
Q 2956 2369 2687 2733 
Q 2419 3097 1959 3097 
z
M 1959 3584 
Q 2709 3584 3137 3096 
Q 3566 2609 3566 1747 
Q 3566 888 3137 398 
Q 2709 -91 1959 -91 
Q 1206 -91 779 398 
Q 353 888 353 1747 
Q 353 2609 779 3096 
Q 1206 3584 1959 3584 
z
" id="DejaVuSans-6f" transform="scale(0.015625)"/>
       <path d="M 603 4863 
L 1178 4863 
L 1178 0 
L 603 0 
L 603 4863 
z
" id="DejaVuSans-6c" transform="scale(0.015625)"/>
       <path d="M 603 3500 
L 1178 3500 
L 1178 0 
L 603 0 
L 603 3500 
z
M 603 4863 
L 1178 4863 
L 1178 4134 
L 603 4134 
L 603 4863 
z
" id="DejaVuSans-69" transform="scale(0.015625)"/>
       <path d="M 2906 1791 
Q 2906 2416 2648 2759 
Q 2391 3103 1925 3103 
Q 1463 3103 1205 2759 
Q 947 2416 947 1791 
Q 947 1169 1205 825 
Q 1463 481 1925 481 
Q 2391 481 2648 825 
Q 2906 1169 2906 1791 
z
M 3481 434 
Q 3481 -459 3084 -895 
Q 2688 -1331 1869 -1331 
Q 1566 -1331 1297 -1286 
Q 1028 -1241 775 -1147 
L 775 -588 
Q 1028 -725 1275 -790 
Q 1522 -856 1778 -856 
Q 2344 -856 2625 -561 
Q 2906 -266 2906 331 
L 2906 616 
Q 2728 306 2450 153 
Q 2172 0 1784 0 
Q 1141 0 747 490 
Q 353 981 353 1791 
Q 353 2603 747 3093 
Q 1141 3584 1784 3584 
Q 2172 3584 2450 3431 
Q 2728 3278 2906 2969 
L 2906 3500 
L 3481 3500 
L 3481 434 
z
" id="DejaVuSans-67" transform="scale(0.015625)"/>
       <path d="M 191 3500 
L 800 3500 
L 1894 563 
L 2988 3500 
L 3597 3500 
L 2284 0 
L 1503 0 
L 191 3500 
z
" id="DejaVuSans-76" transform="scale(0.015625)"/>
       <path d="M 513 4856 
L 1013 4856 
Q 1481 4119 1714 3412 
Q 1947 2706 1947 2009 
Q 1947 1309 1714 600 
Q 1481 -109 1013 -844 
L 513 -844 
Q 928 -128 1133 580 
Q 1338 1288 1338 2009 
Q 1338 2731 1133 3434 
Q 928 4138 513 4856 
z
" id="DejaVuSans-29" transform="scale(0.015625)"/>
      </defs>
      <use xlink:href="#DejaVuSans-46"/>
      <use x="50.269531" xlink:href="#DejaVuSans-72"/>
      <use x="89.132812" xlink:href="#DejaVuSans-65"/>
      <use x="150.65625" xlink:href="#DejaVuSans-71"/>
      <use x="214.132812" xlink:href="#DejaVuSans-75"/>
      <use x="277.511719" xlink:href="#DejaVuSans-65"/>
      <use x="339.035156" xlink:href="#DejaVuSans-6e"/>
      <use x="402.414062" xlink:href="#DejaVuSans-63"/>
      <use x="457.394531" xlink:href="#DejaVuSans-79"/>
      <use x="516.574219" xlink:href="#DejaVuSans-20"/>
      <use x="548.361328" xlink:href="#DejaVuSans-28"/>
      <use x="587.375" xlink:href="#DejaVuSans-37"/>
      <use x="650.998047" xlink:href="#DejaVuSans-20"/>
      <use x="682.785156" xlink:href="#DejaVuSans-64"/>
      <use x="746.261719" xlink:href="#DejaVuSans-61"/>
      <use x="807.541016" xlink:href="#DejaVuSans-79"/>
      <use x="866.720703" xlink:href="#DejaVuSans-20"/>
      <use x="898.507812" xlink:href="#DejaVuSans-72"/>
      <use x="937.371094" xlink:href="#DejaVuSans-6f"/>
      <use x="998.552734" xlink:href="#DejaVuSans-6c"/>
      <use x="1026.335938" xlink:href="#DejaVuSans-6c"/>
      <use x="1054.119141" xlink:href="#DejaVuSans-69"/>
      <use x="1081.902344" xlink:href="#DejaVuSans-6e"/>
      <use x="1145.28125" xlink:href="#DejaVuSans-67"/>
      <use x="1208.757812" xlink:href="#DejaVuSans-20"/>
      <use x="1240.544922" xlink:href="#DejaVuSans-61"/>
      <use x="1301.824219" xlink:href="#DejaVuSans-76"/>
      <use x="1361.003906" xlink:href="#DejaVuSans-65"/>
      <use x="1422.527344" xlink:href="#DejaVuSans-72"/>
      <use x="1463.640625" xlink:href="#DejaVuSans-61"/>
      <use x="1524.919922" xlink:href="#DejaVuSans-67"/>
      <use x="1588.396484" xlink:href="#DejaVuSans-65"/>
      <use x="1649.919922" xlink:href="#DejaVuSans-29"/>
     </g>
    </g>
   </g>
   <g id="line2d_17">
    <path clip-path="url(#pe319535efe)" d="M 127.71085 226.325489 
L 133.078815 228.96 
L 213.598295 228.96 
L 218.966261 226.726392 
L 224.334226 226.125539 
L 240.438122 226.125539 
L 245.806088 228.313257 
L 251.174053 228.914111 
L 256.542018 228.361713 
L 261.909984 227.505497 
L 267.277949 227.096151 
L 278.01388 227.14204 
L 283.381845 227.488327 
L 288.749811 227.023901 
L 294.117776 226.714745 
L 299.485741 226.714745 
L 304.853707 226.435164 
L 310.221672 226.641274 
L 315.589637 227.961916 
L 320.957603 228.306558 
L 331.693534 227.983263 
L 337.061499 227.579659 
L 342.429464 227.466191 
L 347.79743 227.60968 
L 353.165395 227.448747 
L 358.53336 226.757326 
L 363.901326 226.977127 
L 369.269291 226.742641 
L 374.637256 226.777864 
L 380.005222 226.620332 
L 385.373187 227.632069 
L 390.741153 227.685979 
L 396.109118 227.342442 
L 401.477083 227.16397 
L 406.845049 227.365048 
L 417.580979 227.325236 
L 422.948945 227.646804 
L 428.31691 227.121773 
L 433.684876 226.45233 
L 444.420806 225.860437 
L 449.788772 225.898921 
L 460.524702 227.185082 
L 471.260633 225.916874 
L 476.628598 225.968024 
L 481.996564 225.672586 
L 487.364529 225.68782 
L 492.732495 226.748271 
L 498.10046 227.339115 
L 503.468425 227.453283 
L 508.836391 226.98891 
L 514.204356 227.095181 
L 519.572321 226.64994 
L 524.940287 226.321802 
L 530.308252 225.838526 
L 535.676218 225.815555 
L 541.044183 225.218618 
L 546.412148 224.910624 
L 551.780114 225.334679 
L 557.148079 225.617536 
L 562.516044 226.225059 
L 573.251975 226.485432 
L 578.61994 225.973829 
L 583.987906 224.497542 
L 589.355871 224.043109 
L 594.723837 224.262331 
L 600.091802 224.237038 
L 605.459767 224.622965 
L 610.827733 225.651964 
L 616.195698 225.382311 
L 621.563663 224.528316 
L 626.931629 224.378715 
L 632.299594 223.978773 
L 637.66756 224.300353 
L 643.035525 225.079983 
L 648.40349 225.378392 
L 653.771456 225.495775 
L 659.139421 225.326181 
L 664.507386 225.029133 
L 669.875352 224.525116 
L 675.243317 224.895198 
L 680.611282 224.615956 
L 691.347213 225.15211 
L 702.083144 225.131797 
L 707.451109 225.608355 
L 712.819075 225.813769 
L 718.18704 225.512146 
L 723.555005 225.511466 
L 734.290936 225.033932 
L 750.394832 224.674294 
L 761.130763 225.503302 
L 766.498728 225.541786 
L 771.866694 226.015924 
L 777.234659 225.919289 
L 787.97059 225.149269 
L 793.338555 225.19924 
L 798.706521 225.368904 
L 809.442451 226.045813 
L 814.810417 225.931301 
L 820.178382 225.600601 
L 825.546347 225.454766 
L 830.914313 225.44869 
L 836.282278 225.201871 
L 841.650244 225.582612 
L 847.018209 226.125759 
L 852.386174 225.746209 
L 863.122105 226.725368 
L 868.49007 226.263396 
L 873.858036 225.947801 
L 879.226001 226.62823 
L 884.593966 226.704999 
L 889.961932 226.342279 
L 895.329897 226.629249 
L 900.697863 226.734448 
L 906.065828 226.4815 
L 911.433793 226.077708 
L 916.801759 226.249583 
L 922.169724 226.672978 
L 927.537689 226.622522 
L 932.905655 226.457446 
L 938.27362 226.664577 
L 949.009551 226.720884 
L 959.745482 227.713852 
L 965.113447 227.144643 
L 970.481412 227.229558 
L 986.585308 226.332359 
L 991.953274 226.49266 
L 997.321239 226.789558 
L 1002.689205 226.599195 
L 1013.425135 227.066942 
L 1018.793101 227.392256 
L 1024.161066 227.137298 
L 1029.529031 227.536912 
L 1034.896997 227.378765 
L 1040.264962 226.971733 
L 1045.632927 227.015254 
L 1051.000893 225.677486 
L 1056.368858 225.47023 
L 1061.736824 225.471381 
L 1067.104789 224.071274 
L 1072.472754 224.409864 
L 1077.84072 226.108145 
L 1083.208685 226.091014 
L 1088.57665 225.837216 
L 1093.944616 227.202565 
L 1104.680547 227.288545 
L 1110.048512 227.191546 
L 1115.416477 226.349609 
L 1115.416477 226.349609 
" style="fill:none;stroke:#947383;stroke-linecap:square;stroke-width:2;"/>
   </g>
   <g id="line2d_18">
    <path clip-path="url(#pe319535efe)" d="M 122.342884 228.839053 
L 138.44678 228.96 
L 202.862365 228.96 
L 208.23033 228.760396 
L 229.702192 228.760396 
L 235.070157 228.912564 
L 256.542018 228.808536 
L 267.277949 228.58047 
L 278.01388 228.575264 
L 294.117776 228.526436 
L 304.853707 228.380328 
L 315.589637 228.561309 
L 320.957603 228.762672 
L 331.693534 228.651623 
L 347.79743 228.319606 
L 353.165395 228.456281 
L 369.269291 228.249931 
L 374.637256 228.472807 
L 380.005222 228.339889 
L 385.373187 228.488864 
L 396.109118 228.453453 
L 401.477083 228.296589 
L 433.684876 228.614885 
L 439.052841 228.711815 
L 444.420806 228.496225 
L 460.524702 228.294392 
L 465.892668 228.090854 
L 471.260633 228.111967 
L 476.628598 227.78193 
L 481.996564 227.678204 
L 492.732495 227.775814 
L 498.10046 227.326725 
L 503.468425 227.486767 
L 508.836391 227.442704 
L 514.204356 227.160011 
L 519.572321 226.73622 
L 524.940287 227.132647 
L 530.308252 227.004062 
L 535.676218 226.610559 
L 541.044183 226.660845 
L 546.412148 226.883361 
L 551.780114 226.83374 
L 557.148079 227.052723 
L 562.516044 227.412165 
L 573.251975 227.677736 
L 578.61994 227.778097 
L 583.987906 227.726735 
L 589.355871 227.906597 
L 594.723837 227.707446 
L 600.091802 227.874159 
L 610.827733 227.156871 
L 616.195698 227.169253 
L 621.563663 227.414051 
L 626.931629 227.487192 
L 632.299594 227.911371 
L 637.66756 228.156447 
L 648.40349 228.177438 
L 664.507386 228.304884 
L 669.875352 228.370274 
L 680.611282 227.511808 
L 685.979248 227.575081 
L 691.347213 227.780565 
L 696.715179 227.818025 
L 702.083144 228.175174 
L 707.451109 228.29852 
L 718.18704 228.161782 
L 728.922971 228.121259 
L 734.290936 228.252134 
L 739.658902 228.184014 
L 745.026867 227.886323 
L 750.394832 227.928182 
L 755.762798 227.829385 
L 766.498728 227.298418 
L 771.866694 227.708597 
L 777.234659 227.230799 
L 782.602624 227.028941 
L 787.97059 226.987192 
L 793.338555 227.390645 
L 798.706521 226.87505 
L 804.074486 226.937655 
L 814.810417 227.512419 
L 820.178382 227.12175 
L 836.282278 227.99359 
L 841.650244 227.465116 
L 847.018209 227.127951 
L 857.75414 227.083191 
L 863.122105 226.824602 
L 868.49007 227.332002 
L 873.858036 228.059836 
L 884.593966 228.203237 
L 889.961932 228.297433 
L 895.329897 228.239308 
L 906.065828 227.810749 
L 911.433793 227.834552 
L 927.537689 228.405308 
L 932.905655 228.686505 
L 938.27362 228.816399 
L 949.009551 228.633017 
L 959.745482 228.723629 
L 970.481412 228.817119 
L 981.217343 228.907011 
L 991.953274 228.96 
L 997.321239 228.915579 
L 997.321239 228.915579 
" style="fill:none;stroke:#96c6ad;stroke-linecap:square;stroke-width:2;"/>
   </g>
   <g id="line2d_19">
    <path clip-path="url(#pe319535efe)" d="M 245.806088 181.134208 
L 251.174053 222.232587 
L 256.542018 222.232587 
L 261.909984 226.513668 
L 267.277949 228.650524 
L 288.749811 228.650524 
L 294.117776 228.197035 
L 299.485741 228.197035 
L 304.853707 227.855686 
L 315.589637 227.855686 
L 320.957603 228.618651 
L 326.325568 228.618651 
L 331.693534 228.96 
L 337.061499 228.96 
L 342.429464 228.59041 
L 347.79743 227.871907 
L 353.165395 226.634004 
L 358.53336 226.634004 
L 369.269291 226.458877 
L 374.637256 227.17738 
L 380.005222 228.415283 
L 385.373187 228.415283 
L 390.741153 228.550654 
L 396.109118 228.96 
L 401.477083 228.96 
L 412.213014 227.955144 
L 417.580979 225.940517 
L 422.948945 225.385134 
L 428.31691 225.385134 
L 439.052841 226.38999 
L 444.420806 228.404617 
L 449.788772 228.96 
L 455.156737 228.528294 
L 460.524702 226.830014 
L 465.892668 226.362987 
L 471.260633 226.362987 
L 481.996564 225.495402 
L 487.364529 226.962793 
L 492.732495 226.277221 
L 498.10046 226.277221 
L 503.468425 225.019833 
L 508.836391 225.269448 
L 514.204356 224.524129 
L 519.572321 224.630435 
L 524.940287 223.135172 
L 530.308252 224.50063 
L 535.676218 224.482434 
L 541.044183 224.800014 
L 546.412148 223.311211 
L 551.780114 224.445329 
L 557.148079 224.358307 
L 562.516044 223.598582 
L 567.88401 223.369939 
L 573.251975 225.905035 
L 578.61994 223.221857 
L 583.987906 222.642823 
L 589.355871 223.126468 
L 600.091802 221.824048 
L 605.459767 223.853096 
L 610.827733 224.331374 
L 616.195698 224.594075 
L 621.563663 226.005191 
L 626.931629 224.01715 
L 632.299594 222.418857 
L 637.66756 222.548791 
L 643.035525 221.804983 
L 648.40349 221.733092 
L 653.771456 223.984367 
L 659.139421 225.597628 
L 664.507386 225.226597 
L 669.875352 225.674701 
L 675.243317 225.73699 
L 680.611282 225.228672 
L 685.979248 226.051526 
L 691.347213 226.634841 
L 696.715179 227.068563 
L 702.083144 226.669703 
L 707.451109 227.117505 
L 712.819075 226.86506 
L 728.922971 227.590171 
L 734.290936 227.573174 
L 739.658902 227.864974 
L 750.394832 227.650701 
L 755.762798 227.635537 
L 761.130763 228.086672 
L 771.866694 227.917508 
L 782.602624 228.525733 
L 787.97059 228.525733 
L 793.338555 228.735419 
L 804.074486 228.757345 
L 809.442451 228.370112 
L 830.914313 227.753602 
L 836.282278 227.284619 
L 841.650244 226.582382 
L 847.018209 226.052215 
L 852.386174 225.987861 
L 857.75414 225.65209 
L 873.858036 228.184203 
L 879.226001 227.363542 
L 884.593966 227.699314 
L 889.961932 227.699314 
L 895.329897 226.813573 
L 900.697863 226.813573 
L 906.065828 228.074259 
L 911.433793 228.074259 
L 916.801759 227.411382 
L 922.169724 228.297123 
L 927.537689 227.898883 
L 949.009551 227.806275 
L 954.377516 227.216573 
L 965.113447 227.216573 
L 970.481412 227.972058 
L 975.849378 227.972058 
L 981.217343 227.173114 
L 986.585308 227.173114 
L 991.953274 224.889871 
L 997.321239 224.186131 
L 1002.689205 224.186131 
L 1008.05717 225.217533 
L 1013.425135 225.217533 
L 1018.793101 225.360235 
L 1024.161066 225.154718 
L 1024.161066 225.154718 
" style="fill:none;stroke:#525886;stroke-linecap:square;stroke-width:2;"/>
   </g>
   <g id="line2d_20">
    <path clip-path="url(#pe319535efe)" d="M 116.974919 225.557816 
L 122.342884 228.96 
L 235.070157 228.90314 
L 251.174053 228.615514 
L 278.01388 228.492527 
L 283.381845 228.547639 
L 294.117776 228.442942 
L 299.485741 228.498182 
L 304.853707 228.676251 
L 310.221672 228.608711 
L 315.589637 228.75887 
L 320.957603 228.757231 
L 331.693534 228.509087 
L 337.061499 228.572099 
L 342.429464 228.412556 
L 358.53336 228.629786 
L 390.741153 228.129033 
L 396.109118 228.233723 
L 406.845049 228.219676 
L 412.213014 228.261372 
L 422.948945 227.713799 
L 428.31691 227.736061 
L 439.052841 227.205514 
L 449.788772 227.460196 
L 465.892668 226.97995 
L 481.996564 226.120653 
L 487.364529 225.950335 
L 492.732495 225.48867 
L 503.468425 225.37305 
L 508.836391 224.659102 
L 514.204356 224.654956 
L 519.572321 225.196083 
L 524.940287 225.361972 
L 530.308252 225.076552 
L 535.676218 225.564432 
L 546.412148 224.722445 
L 551.780114 224.842896 
L 557.148079 224.777493 
L 562.516044 224.456871 
L 567.88401 225.055487 
L 573.251975 225.42792 
L 578.61994 225.252724 
L 583.987906 225.664449 
L 589.355871 226.262349 
L 610.827733 226.899292 
L 616.195698 226.379215 
L 626.931629 224.695719 
L 632.299594 224.287369 
L 637.66756 223.324767 
L 643.035525 223.220459 
L 648.40349 223.310282 
L 653.771456 223.765274 
L 659.139421 223.464524 
L 664.507386 223.800316 
L 669.875352 223.945541 
L 675.243317 224.416491 
L 685.979248 224.030177 
L 691.347213 223.627305 
L 702.083144 223.379874 
L 707.451109 223.506525 
L 712.819075 224.074846 
L 718.18704 224.987112 
L 723.555005 225.199464 
L 728.922971 224.820439 
L 734.290936 224.832845 
L 739.658902 225.108101 
L 745.026867 225.191166 
L 755.762798 226.076473 
L 761.130763 226.438725 
L 766.498728 226.035997 
L 771.866694 226.15037 
L 777.234659 225.914141 
L 787.97059 226.038265 
L 793.338555 226.623101 
L 798.706521 226.630848 
L 809.442451 227.423227 
L 814.810417 227.363041 
L 830.914313 226.755788 
L 836.282278 226.322684 
L 841.650244 226.101994 
L 847.018209 226.111887 
L 863.122105 226.724751 
L 879.226001 227.773991 
L 889.961932 227.774113 
L 895.329897 227.941885 
L 900.697863 227.995714 
L 906.065828 227.853925 
L 922.169724 228.019493 
L 932.905655 227.950783 
L 938.27362 227.832115 
L 954.377516 228.17319 
L 959.745482 228.236474 
L 965.113447 228.506803 
L 975.849378 228.608549 
L 981.217343 228.499823 
L 986.585308 228.104752 
L 997.321239 228.178246 
L 1008.05717 227.932884 
L 1013.425135 228.520004 
L 1018.793101 228.207706 
L 1024.161066 227.627221 
L 1029.529031 227.511589 
L 1029.529031 227.511589 
" style="fill:none;stroke:#937252;stroke-linecap:square;stroke-width:2;"/>
   </g>
   <g id="line2d_21">
    <path clip-path="url(#pe319535efe)" d="M 100.871023 203.273514 
L 106.238988 228.96 
L 122.342884 228.96 
L 127.71085 177.587027 
L 138.44678 177.587027 
L 143.814746 151.900541 
L 149.182711 151.900541 
L 154.550676 203.273514 
L 159.918642 203.273514 
L 165.286607 151.900541 
L 170.654573 143.338378 
L 176.022538 96.635676 
L 186.758469 96.635676 
L 192.126434 148.008649 
L 197.494399 130.884324 
L 202.862365 148.231042 
L 208.23033 122.544556 
L 213.598295 76.879691 
L 218.966261 67.366178 
L 224.334226 98.189961 
L 229.702192 96.722162 
L 235.070157 122.408649 
L 240.438122 152.661622 
L 245.806088 151.900541 
L 251.174053 165.363802 
L 256.542018 160.226505 
L 261.909984 129.402721 
L 267.277949 138.185843 
L 272.645915 148.460437 
L 278.01388 104.173391 
L 283.381845 88.7615 
L 288.749811 73.920418 
L 294.117776 69.132973 
L 299.485741 17.76 
L 304.853707 46.300541 
L 310.221672 77.124324 
L 315.589637 122.789189 
L 320.957603 108.518919 
L 326.325568 102.810811 
L 331.693534 78.940541 
L 337.061499 77.472741 
L 342.429464 75.570039 
L 347.79743 98.045714 
L 353.165395 145.786255 
L 358.53336 173.224093 
L 363.901326 195.241081 
L 369.269291 174.807709 
L 374.637256 153.555199 
L 380.005222 152.621145 
L 385.373187 137.637361 
L 390.741153 103.388712 
L 396.109118 99.08695 
L 401.477083 102.144865 
L 406.845049 91.87027 
L 412.213014 87.589189 
L 417.580979 98.127235 
L 422.948945 88.070092 
L 428.31691 88.926308 
L 433.684876 76.596795 
L 439.052841 101.953967 
L 444.420806 116.180329 
L 449.788772 148.846057 
L 455.156737 167.710886 
L 460.524702 190.051543 
L 465.892668 203.224101 
L 471.260633 198.536487 
L 476.628598 199.861899 
L 481.996564 194.207263 
L 487.364529 167.383146 
L 492.732495 167.383146 
L 498.10046 181.555001 
L 503.468425 184.258842 
L 508.836391 188.172973 
L 514.204356 212.191506 
L 519.572321 199.861992 
L 524.940287 187.018749 
L 530.308252 170.357244 
L 535.676218 156.657785 
L 541.044183 162.09788 
L 546.412148 157.988042 
L 551.780114 156.153293 
L 557.148079 165.777404 
L 562.516044 174.874701 
L 567.88401 178.107966 
L 573.251975 172.211242 
L 578.61994 181.99657 
L 583.987906 181.25018 
L 589.355871 185.125855 
L 594.723837 189.796126 
L 600.091802 205.905174 
L 605.459767 207.862239 
L 610.827733 208.035212 
L 616.195698 212.186564 
L 621.563663 208.450347 
L 626.931629 212.622456 
L 632.299594 215.558054 
L 637.66756 223.168865 
L 643.035525 220.314811 
L 648.40349 220.09926 
L 653.771456 199.321746 
L 659.139421 193.767911 
L 664.507386 190.453526 
L 669.875352 193.30758 
L 675.243317 179.12771 
L 680.611282 197.492927 
L 685.979248 196.197032 
L 691.347213 162.149256 
L 696.715179 162.149256 
L 702.083144 180.280893 
L 707.451109 181.205144 
L 712.819075 188.054874 
L 718.18704 225.417036 
L 728.922971 225.417036 
L 734.290936 228.96 
L 739.658902 228.96 
L 745.026867 224.393514 
L 750.394832 224.393514 
L 755.762798 210.991868 
L 761.130763 195.1848 
L 766.498728 195.1848 
L 771.866694 192.41229 
L 777.234659 190.129047 
L 782.602624 203.530692 
L 787.97059 219.337761 
L 793.338555 219.337761 
L 798.706521 226.676757 
L 804.074486 228.96 
L 809.442451 228.96 
L 814.810417 220.572576 
L 825.546347 220.572576 
L 830.914313 214.528697 
L 836.282278 208.820589 
L 841.650244 210.358283 
L 852.386174 210.358283 
L 857.75414 208.647751 
L 863.122105 214.355859 
L 868.49007 217.662625 
L 879.226001 217.662625 
L 884.593966 222.395097 
L 889.961932 222.395097 
L 895.329897 211.517577 
L 900.697863 208.306766 
L 906.065828 200.403232 
L 911.433793 203.425171 
L 916.801759 203.425171 
L 922.169724 215.339656 
L 927.537689 218.550467 
L 932.905655 226.454001 
L 943.641585 226.454001 
L 949.009551 228.96 
L 959.745482 228.96 
L 965.113447 226.024402 
L 970.481412 213.181158 
L 970.481412 213.181158 
" style="fill:none;stroke:#d18cad;stroke-linecap:square;stroke-width:2;"/>
   </g>
   <g id="line2d_22">
    <path clip-path="url(#pe319535efe)" d="M 240.438122 219.619459 
L 245.806088 228.96 
L 353.165395 228.96 
L 358.53336 126.214054 
L 380.005222 126.214054 
L 385.373187 228.96 
L 401.477083 228.96 
L 406.845049 194.711351 
L 428.31691 194.711351 
L 433.684876 228.96 
L 519.572321 228.96 
L 524.940287 126.214054 
L 546.412148 126.214054 
L 551.780114 228.96 
L 562.516044 228.96 
L 567.88401 220.397838 
L 589.355871 220.397838 
L 594.723837 228.96 
L 626.931629 228.96 
L 632.299594 216.116757 
L 653.771456 216.116757 
L 659.139421 223.822703 
L 680.611282 223.822703 
L 685.979248 228.96 
L 707.451109 228.96 
L 712.819075 177.587027 
L 718.18704 177.587027 
L 723.555005 168.246486 
L 734.290936 168.246486 
L 739.658902 219.619459 
L 745.026867 219.619459 
L 750.394832 228.96 
L 863.122105 228.96 
L 868.49007 217.543784 
L 889.961932 217.543784 
L 895.329897 177.587027 
L 900.697863 177.587027 
L 906.065828 157.037838 
L 916.801759 157.037838 
L 922.169724 208.410811 
L 927.537689 208.410811 
L 932.905655 228.96 
L 970.481412 228.96 
L 975.849378 208.410811 
L 991.953274 208.410811 
L 997.321239 187.861622 
L 997.321239 187.861622 
" style="fill:none;stroke:#a4a86f;stroke-linecap:square;stroke-width:2;"/>
   </g>
   <g id="line2d_23">
    <path clip-path="url(#pe319535efe)" d="M 455.156737 228.157297 
L 460.524702 228.96 
L 465.892668 228.96 
L 471.260633 228.96 
L 476.628598 228.96 
L 481.996564 228.96 
L 487.364529 228.96 
L 492.732495 228.96 
L 498.10046 228.96 
L 503.468425 228.96 
L 508.836391 228.96 
L 514.204356 228.96 
L 519.572321 228.96 
L 524.940287 228.96 
L 530.308252 228.96 
L 535.676218 228.96 
L 541.044183 228.96 
L 546.412148 228.96 
L 551.780114 228.96 
L 557.148079 228.96 
L 562.516044 228.96 
L 567.88401 228.96 
L 573.251975 228.96 
L 578.61994 228.96 
L 583.987906 228.96 
L 589.355871 228.96 
L 594.723837 228.96 
L 600.091802 228.96 
L 605.459767 228.96 
L 610.827733 228.96 
L 616.195698 228.96 
L 621.563663 228.96 
L 626.931629 228.96 
L 632.299594 228.96 
L 637.66756 228.96 
L 643.035525 228.96 
L 648.40349 228.96 
L 653.771456 228.96 
L 659.139421 228.96 
L 664.507386 228.96 
L 669.875352 228.96 
L 675.243317 228.96 
L 680.611282 228.96 
L 685.979248 228.96 
L 691.347213 228.96 
L 696.715179 228.96 
L 702.083144 228.96 
L 707.451109 228.96 
L 712.819075 228.96 
L 718.18704 228.96 
L 723.555005 228.96 
L 728.922971 228.96 
L 734.290936 228.96 
L 739.658902 228.96 
L 745.026867 228.96 
L 750.394832 228.96 
L 755.762798 228.96 
L 761.130763 228.96 
L 766.498728 228.96 
L 771.866694 228.96 
L 777.234659 228.96 
L 782.602624 228.96 
L 787.97059 228.96 
L 793.338555 228.96 
L 798.706521 228.96 
L 804.074486 228.96 
L 809.442451 228.96 
L 814.810417 228.96 
L 820.178382 228.96 
L 825.546347 228.96 
L 830.914313 228.96 
L 836.282278 228.96 
L 841.650244 228.96 
L 847.018209 228.96 
L 852.386174 228.017377 
" style="fill:none;stroke:#d3d3d3;stroke-linecap:square;stroke-width:2;"/>
   </g>
   <g id="patch_3">
    <path d="M 50.14375 228.96 
L 50.14375 7.2 
" style="fill:none;stroke:#000000;stroke-linecap:square;stroke-linejoin:miter;stroke-width:0.8;"/>
   </g>
   <g id="patch_4">
    <path d="M 50.14375 228.96 
L 1166.14375 228.96 
" style="fill:none;stroke:#000000;stroke-linecap:square;stroke-linejoin:miter;stroke-width:0.8;"/>
   </g>
   <g id="legend_1">
    <g id="line2d_24">
     <path d="M 1072.3325 17.67875 
L 1088.3325 17.67875 
" style="fill:none;stroke:#947383;stroke-linecap:square;stroke-width:2;"/>
    </g>
    <g id="line2d_25"/>
    <g id="text_19">
     <!-- Europe -->
     <g transform="translate(1094.7325 20.47875)scale(0.08 -0.08)">
      <defs>
       <path d="M 628 4666 
L 3578 4666 
L 3578 4134 
L 1259 4134 
L 1259 2753 
L 3481 2753 
L 3481 2222 
L 1259 2222 
L 1259 531 
L 3634 531 
L 3634 0 
L 628 0 
L 628 4666 
z
" id="DejaVuSans-45" transform="scale(0.015625)"/>
       <path d="M 1159 525 
L 1159 -1331 
L 581 -1331 
L 581 3500 
L 1159 3500 
L 1159 2969 
Q 1341 3281 1617 3432 
Q 1894 3584 2278 3584 
Q 2916 3584 3314 3078 
Q 3713 2572 3713 1747 
Q 3713 922 3314 415 
Q 2916 -91 2278 -91 
Q 1894 -91 1617 61 
Q 1341 213 1159 525 
z
M 3116 1747 
Q 3116 2381 2855 2742 
Q 2594 3103 2138 3103 
Q 1681 3103 1420 2742 
Q 1159 2381 1159 1747 
Q 1159 1113 1420 752 
Q 1681 391 2138 391 
Q 2594 391 2855 752 
Q 3116 1113 3116 1747 
z
" id="DejaVuSans-70" transform="scale(0.015625)"/>
      </defs>
      <use xlink:href="#DejaVuSans-45"/>
      <use x="63.183594" xlink:href="#DejaVuSans-75"/>
      <use x="126.5625" xlink:href="#DejaVuSans-72"/>
      <use x="165.425781" xlink:href="#DejaVuSans-6f"/>
      <use x="226.607422" xlink:href="#DejaVuSans-70"/>
      <use x="290.083984" xlink:href="#DejaVuSans-65"/>
     </g>
    </g>
    <g id="line2d_26">
     <path d="M 1072.3325 29.42125 
L 1088.3325 29.42125 
" style="fill:none;stroke:#96c6ad;stroke-linecap:square;stroke-width:2;"/>
    </g>
    <g id="line2d_27"/>
    <g id="text_20">
     <!-- United Kingdom -->
     <g transform="translate(1094.7325 32.22125)scale(0.08 -0.08)">
      <defs>
       <path d="M 556 4666 
L 1191 4666 
L 1191 1831 
Q 1191 1081 1462 751 
Q 1734 422 2344 422 
Q 2950 422 3222 751 
Q 3494 1081 3494 1831 
L 3494 4666 
L 4128 4666 
L 4128 1753 
Q 4128 841 3676 375 
Q 3225 -91 2344 -91 
Q 1459 -91 1007 375 
Q 556 841 556 1753 
L 556 4666 
z
" id="DejaVuSans-55" transform="scale(0.015625)"/>
       <path d="M 628 4666 
L 1259 4666 
L 1259 2694 
L 3353 4666 
L 4166 4666 
L 1850 2491 
L 4331 0 
L 3500 0 
L 1259 2247 
L 1259 0 
L 628 0 
L 628 4666 
z
" id="DejaVuSans-4b" transform="scale(0.015625)"/>
       <path d="M 3328 2828 
Q 3544 3216 3844 3400 
Q 4144 3584 4550 3584 
Q 5097 3584 5394 3201 
Q 5691 2819 5691 2113 
L 5691 0 
L 5113 0 
L 5113 2094 
Q 5113 2597 4934 2840 
Q 4756 3084 4391 3084 
Q 3944 3084 3684 2787 
Q 3425 2491 3425 1978 
L 3425 0 
L 2847 0 
L 2847 2094 
Q 2847 2600 2669 2842 
Q 2491 3084 2119 3084 
Q 1678 3084 1418 2786 
Q 1159 2488 1159 1978 
L 1159 0 
L 581 0 
L 581 3500 
L 1159 3500 
L 1159 2956 
Q 1356 3278 1631 3431 
Q 1906 3584 2284 3584 
Q 2666 3584 2933 3390 
Q 3200 3197 3328 2828 
z
" id="DejaVuSans-6d" transform="scale(0.015625)"/>
      </defs>
      <use xlink:href="#DejaVuSans-55"/>
      <use x="73.193359" xlink:href="#DejaVuSans-6e"/>
      <use x="136.572266" xlink:href="#DejaVuSans-69"/>
      <use x="164.355469" xlink:href="#DejaVuSans-74"/>
      <use x="203.564453" xlink:href="#DejaVuSans-65"/>
      <use x="265.087891" xlink:href="#DejaVuSans-64"/>
      <use x="328.564453" xlink:href="#DejaVuSans-20"/>
      <use x="360.351562" xlink:href="#DejaVuSans-4b"/>
      <use x="425.927734" xlink:href="#DejaVuSans-69"/>
      <use x="453.710938" xlink:href="#DejaVuSans-6e"/>
      <use x="517.089844" xlink:href="#DejaVuSans-67"/>
      <use x="580.566406" xlink:href="#DejaVuSans-64"/>
      <use x="644.042969" xlink:href="#DejaVuSans-6f"/>
      <use x="705.224609" xlink:href="#DejaVuSans-6d"/>
     </g>
    </g>
    <g id="line2d_28">
     <path d="M 1072.3325 41.16375 
L 1088.3325 41.16375 
" style="fill:none;stroke:#525886;stroke-linecap:square;stroke-width:2;"/>
    </g>
    <g id="line2d_29"/>
    <g id="text_21">
     <!-- Asia -->
     <g transform="translate(1094.7325 43.96375)scale(0.08 -0.08)">
      <defs>
       <path d="M 2188 4044 
L 1331 1722 
L 3047 1722 
L 2188 4044 
z
M 1831 4666 
L 2547 4666 
L 4325 0 
L 3669 0 
L 3244 1197 
L 1141 1197 
L 716 0 
L 50 0 
L 1831 4666 
z
" id="DejaVuSans-41" transform="scale(0.015625)"/>
       <path d="M 2834 3397 
L 2834 2853 
Q 2591 2978 2328 3040 
Q 2066 3103 1784 3103 
Q 1356 3103 1142 2972 
Q 928 2841 928 2578 
Q 928 2378 1081 2264 
Q 1234 2150 1697 2047 
L 1894 2003 
Q 2506 1872 2764 1633 
Q 3022 1394 3022 966 
Q 3022 478 2636 193 
Q 2250 -91 1575 -91 
Q 1294 -91 989 -36 
Q 684 19 347 128 
L 347 722 
Q 666 556 975 473 
Q 1284 391 1588 391 
Q 1994 391 2212 530 
Q 2431 669 2431 922 
Q 2431 1156 2273 1281 
Q 2116 1406 1581 1522 
L 1381 1569 
Q 847 1681 609 1914 
Q 372 2147 372 2553 
Q 372 3047 722 3315 
Q 1072 3584 1716 3584 
Q 2034 3584 2315 3537 
Q 2597 3491 2834 3397 
z
" id="DejaVuSans-73" transform="scale(0.015625)"/>
      </defs>
      <use xlink:href="#DejaVuSans-41"/>
      <use x="68.408203" xlink:href="#DejaVuSans-73"/>
      <use x="120.507812" xlink:href="#DejaVuSans-69"/>
      <use x="148.291016" xlink:href="#DejaVuSans-61"/>
     </g>
    </g>
    <g id="line2d_30">
     <path d="M 1072.3325 52.90625 
L 1088.3325 52.90625 
" style="fill:none;stroke:#937252;stroke-linecap:square;stroke-width:2;"/>
    </g>
    <g id="line2d_31"/>
    <g id="text_22">
     <!-- North America -->
     <g transform="translate(1094.7325 55.70625)scale(0.08 -0.08)">
      <defs>
       <path d="M 628 4666 
L 1478 4666 
L 3547 763 
L 3547 4666 
L 4159 4666 
L 4159 0 
L 3309 0 
L 1241 3903 
L 1241 0 
L 628 0 
L 628 4666 
z
" id="DejaVuSans-4e" transform="scale(0.015625)"/>
       <path d="M 3513 2113 
L 3513 0 
L 2938 0 
L 2938 2094 
Q 2938 2591 2744 2837 
Q 2550 3084 2163 3084 
Q 1697 3084 1428 2787 
Q 1159 2491 1159 1978 
L 1159 0 
L 581 0 
L 581 4863 
L 1159 4863 
L 1159 2956 
Q 1366 3272 1645 3428 
Q 1925 3584 2291 3584 
Q 2894 3584 3203 3211 
Q 3513 2838 3513 2113 
z
" id="DejaVuSans-68" transform="scale(0.015625)"/>
      </defs>
      <use xlink:href="#DejaVuSans-4e"/>
      <use x="74.804688" xlink:href="#DejaVuSans-6f"/>
      <use x="135.986328" xlink:href="#DejaVuSans-72"/>
      <use x="177.099609" xlink:href="#DejaVuSans-74"/>
      <use x="216.308594" xlink:href="#DejaVuSans-68"/>
      <use x="279.6875" xlink:href="#DejaVuSans-20"/>
      <use x="311.474609" xlink:href="#DejaVuSans-41"/>
      <use x="379.882812" xlink:href="#DejaVuSans-6d"/>
      <use x="477.294922" xlink:href="#DejaVuSans-65"/>
      <use x="538.818359" xlink:href="#DejaVuSans-72"/>
      <use x="579.931641" xlink:href="#DejaVuSans-69"/>
      <use x="607.714844" xlink:href="#DejaVuSans-63"/>
      <use x="662.695312" xlink:href="#DejaVuSans-61"/>
     </g>
    </g>
    <g id="line2d_32">
     <path d="M 1072.3325 64.64875 
L 1088.3325 64.64875 
" style="fill:none;stroke:#d18cad;stroke-linecap:square;stroke-width:2;"/>
    </g>
    <g id="line2d_33"/>
    <g id="text_23">
     <!-- Africa -->
     <g transform="translate(1094.7325 67.44875)scale(0.08 -0.08)">
      <defs>
       <path d="M 2375 4863 
L 2375 4384 
L 1825 4384 
Q 1516 4384 1395 4259 
Q 1275 4134 1275 3809 
L 1275 3500 
L 2222 3500 
L 2222 3053 
L 1275 3053 
L 1275 0 
L 697 0 
L 697 3053 
L 147 3053 
L 147 3500 
L 697 3500 
L 697 3744 
Q 697 4328 969 4595 
Q 1241 4863 1831 4863 
L 2375 4863 
z
" id="DejaVuSans-66" transform="scale(0.015625)"/>
      </defs>
      <use xlink:href="#DejaVuSans-41"/>
      <use x="64.783203" xlink:href="#DejaVuSans-66"/>
      <use x="99.988281" xlink:href="#DejaVuSans-72"/>
      <use x="141.101562" xlink:href="#DejaVuSans-69"/>
      <use x="168.884766" xlink:href="#DejaVuSans-63"/>
      <use x="223.865234" xlink:href="#DejaVuSans-61"/>
     </g>
    </g>
    <g id="line2d_34">
     <path d="M 1072.3325 76.39125 
L 1088.3325 76.39125 
" style="fill:none;stroke:#a4a86f;stroke-linecap:square;stroke-width:2;"/>
    </g>
    <g id="line2d_35"/>
    <g id="text_24">
     <!-- Oceania -->
     <g transform="translate(1094.7325 79.19125)scale(0.08 -0.08)">
      <defs>
       <path d="M 2522 4238 
Q 1834 4238 1429 3725 
Q 1025 3213 1025 2328 
Q 1025 1447 1429 934 
Q 1834 422 2522 422 
Q 3209 422 3611 934 
Q 4013 1447 4013 2328 
Q 4013 3213 3611 3725 
Q 3209 4238 2522 4238 
z
M 2522 4750 
Q 3503 4750 4090 4092 
Q 4678 3434 4678 2328 
Q 4678 1225 4090 567 
Q 3503 -91 2522 -91 
Q 1538 -91 948 565 
Q 359 1222 359 2328 
Q 359 3434 948 4092 
Q 1538 4750 2522 4750 
z
" id="DejaVuSans-4f" transform="scale(0.015625)"/>
      </defs>
      <use xlink:href="#DejaVuSans-4f"/>
      <use x="78.710938" xlink:href="#DejaVuSans-63"/>
      <use x="133.691406" xlink:href="#DejaVuSans-65"/>
      <use x="195.214844" xlink:href="#DejaVuSans-61"/>
      <use x="256.494141" xlink:href="#DejaVuSans-6e"/>
      <use x="319.873047" xlink:href="#DejaVuSans-69"/>
      <use x="347.65625" xlink:href="#DejaVuSans-61"/>
     </g>
    </g>
    <g id="line2d_36">
     <path d="M 1072.3325 88.13375 
L 1088.3325 88.13375 
" style="fill:none;stroke:#d3d3d3;stroke-linecap:square;stroke-width:2;"/>
    </g>
    <g id="line2d_37"/>
    <g id="text_25">
     <!-- South America -->
     <g transform="translate(1094.7325 90.93375)scale(0.08 -0.08)">
      <defs>
       <path d="M 3425 4513 
L 3425 3897 
Q 3066 4069 2747 4153 
Q 2428 4238 2131 4238 
Q 1616 4238 1336 4038 
Q 1056 3838 1056 3469 
Q 1056 3159 1242 3001 
Q 1428 2844 1947 2747 
L 2328 2669 
Q 3034 2534 3370 2195 
Q 3706 1856 3706 1288 
Q 3706 609 3251 259 
Q 2797 -91 1919 -91 
Q 1588 -91 1214 -16 
Q 841 59 441 206 
L 441 856 
Q 825 641 1194 531 
Q 1563 422 1919 422 
Q 2459 422 2753 634 
Q 3047 847 3047 1241 
Q 3047 1584 2836 1778 
Q 2625 1972 2144 2069 
L 1759 2144 
Q 1053 2284 737 2584 
Q 422 2884 422 3419 
Q 422 4038 858 4394 
Q 1294 4750 2059 4750 
Q 2388 4750 2728 4690 
Q 3069 4631 3425 4513 
z
" id="DejaVuSans-53" transform="scale(0.015625)"/>
      </defs>
      <use xlink:href="#DejaVuSans-53"/>
      <use x="63.476562" xlink:href="#DejaVuSans-6f"/>
      <use x="124.658203" xlink:href="#DejaVuSans-75"/>
      <use x="188.037109" xlink:href="#DejaVuSans-74"/>
      <use x="227.246094" xlink:href="#DejaVuSans-68"/>
      <use x="290.625" xlink:href="#DejaVuSans-20"/>
      <use x="322.412109" xlink:href="#DejaVuSans-41"/>
      <use x="390.820312" xlink:href="#DejaVuSans-6d"/>
      <use x="488.232422" xlink:href="#DejaVuSans-65"/>
      <use x="549.755859" xlink:href="#DejaVuSans-72"/>
      <use x="590.869141" xlink:href="#DejaVuSans-69"/>
      <use x="618.652344" xlink:href="#DejaVuSans-63"/>
      <use x="673.632812" xlink:href="#DejaVuSans-61"/>
     </g>
    </g>
   </g>
  </g>
 </g>
 <defs>
  <clipPath id="pe319535efe">
   <rect height="221.76" width="1116" x="50.14375" y="7.2"/>
  </clipPath>
 </defs>
</svg>
