<?xml version="1.0" encoding="utf-8" standalone="no"?>
<!DOCTYPE svg PUBLIC "-//W3C//DTD SVG 1.1//EN"
  "http://www.w3.org/Graphics/SVG/1.1/DTD/svg11.dtd">
<svg height="298.620937pt" version="1.1" viewBox="0 0 1166.98125 298.620937" width="1166.98125pt" xmlns="http://www.w3.org/2000/svg" xmlns:xlink="http://www.w3.org/1999/xlink">
 <metadata>
  <rdf:RDF xmlns:cc="http://creativecommons.org/ns#" xmlns:dc="http://purl.org/dc/elements/1.1/" xmlns:rdf="http://www.w3.org/1999/02/22-rdf-syntax-ns#">
   <cc:Work>
    <dc:type rdf:resource="http://purl.org/dc/dcmitype/StillImage"/>
    <dc:date>2021-06-22T15:37:16.669952</dc:date>
    <dc:format>image/svg+xml</dc:format>
    <dc:creator>
     <cc:Agent>
      <dc:title>Matplotlib v3.4.2, https://matplotlib.org/</dc:title>
     </cc:Agent>
    </dc:creator>
   </cc:Work>
  </rdf:RDF>
 </metadata>
 <defs>
  <style type="text/css">*{stroke-linecap:butt;stroke-linejoin:round;}</style>
 </defs>
 <g id="figure_1">
  <g id="patch_1">
   <path d="M 0 298.620937 
L 1166.98125 298.620937 
L 1166.98125 0 
L 0 0 
z
" style="fill:#ffffff;"/>
  </g>
  <g id="axes_1">
   <g id="patch_2">
    <path d="M 43.78125 228.96 
L 1159.78125 228.96 
L 1159.78125 7.2 
L 43.78125 7.2 
z
" style="fill:#ffffff;"/>
   </g>
   <g id="matplotlib.axis_1">
    <g id="xtick_1">
     <g id="line2d_1">
      <defs>
       <path d="M 0 0 
L 0 3.5 
" id="m1dd333741c" style="stroke:#000000;stroke-width:0.8;"/>
      </defs>
      <g>
       <use style="stroke:#000000;stroke-width:0.8;" x="78.404627" xlink:href="#m1dd333741c" y="228.96"/>
      </g>
     </g>
     <g id="text_1">
      <!-- 2020-10 -->
      <g transform="translate(81.164002 277.742812)rotate(-90)scale(0.1 -0.1)">
       <defs>
        <path d="M 1228 531 
L 3431 531 
L 3431 0 
L 469 0 
L 469 531 
Q 828 903 1448 1529 
Q 2069 2156 2228 2338 
Q 2531 2678 2651 2914 
Q 2772 3150 2772 3378 
Q 2772 3750 2511 3984 
Q 2250 4219 1831 4219 
Q 1534 4219 1204 4116 
Q 875 4013 500 3803 
L 500 4441 
Q 881 4594 1212 4672 
Q 1544 4750 1819 4750 
Q 2544 4750 2975 4387 
Q 3406 4025 3406 3419 
Q 3406 3131 3298 2873 
Q 3191 2616 2906 2266 
Q 2828 2175 2409 1742 
Q 1991 1309 1228 531 
z
" id="DejaVuSans-32" transform="scale(0.015625)"/>
        <path d="M 2034 4250 
Q 1547 4250 1301 3770 
Q 1056 3291 1056 2328 
Q 1056 1369 1301 889 
Q 1547 409 2034 409 
Q 2525 409 2770 889 
Q 3016 1369 3016 2328 
Q 3016 3291 2770 3770 
Q 2525 4250 2034 4250 
z
M 2034 4750 
Q 2819 4750 3233 4129 
Q 3647 3509 3647 2328 
Q 3647 1150 3233 529 
Q 2819 -91 2034 -91 
Q 1250 -91 836 529 
Q 422 1150 422 2328 
Q 422 3509 836 4129 
Q 1250 4750 2034 4750 
z
" id="DejaVuSans-30" transform="scale(0.015625)"/>
        <path d="M 313 2009 
L 1997 2009 
L 1997 1497 
L 313 1497 
L 313 2009 
z
" id="DejaVuSans-2d" transform="scale(0.015625)"/>
        <path d="M 794 531 
L 1825 531 
L 1825 4091 
L 703 3866 
L 703 4441 
L 1819 4666 
L 2450 4666 
L 2450 531 
L 3481 531 
L 3481 0 
L 794 0 
L 794 531 
z
" id="DejaVuSans-31" transform="scale(0.015625)"/>
       </defs>
       <use xlink:href="#DejaVuSans-32"/>
       <use x="63.623047" xlink:href="#DejaVuSans-30"/>
       <use x="127.246094" xlink:href="#DejaVuSans-32"/>
       <use x="190.869141" xlink:href="#DejaVuSans-30"/>
       <use x="254.492188" xlink:href="#DejaVuSans-2d"/>
       <use x="290.576172" xlink:href="#DejaVuSans-31"/>
       <use x="354.199219" xlink:href="#DejaVuSans-30"/>
      </g>
     </g>
    </g>
    <g id="xtick_2">
     <g id="line2d_2">
      <g>
       <use style="stroke:#000000;stroke-width:0.8;" x="203.209821" xlink:href="#m1dd333741c" y="228.96"/>
      </g>
     </g>
     <g id="text_2">
      <!-- 2020-11 -->
      <g transform="translate(205.969196 277.742812)rotate(-90)scale(0.1 -0.1)">
       <use xlink:href="#DejaVuSans-32"/>
       <use x="63.623047" xlink:href="#DejaVuSans-30"/>
       <use x="127.246094" xlink:href="#DejaVuSans-32"/>
       <use x="190.869141" xlink:href="#DejaVuSans-30"/>
       <use x="254.492188" xlink:href="#DejaVuSans-2d"/>
       <use x="290.576172" xlink:href="#DejaVuSans-31"/>
       <use x="354.199219" xlink:href="#DejaVuSans-31"/>
      </g>
     </g>
    </g>
    <g id="xtick_3">
     <g id="line2d_3">
      <g>
       <use style="stroke:#000000;stroke-width:0.8;" x="323.989042" xlink:href="#m1dd333741c" y="228.96"/>
      </g>
     </g>
     <g id="text_3">
      <!-- 2020-12 -->
      <g transform="translate(326.748417 277.742812)rotate(-90)scale(0.1 -0.1)">
       <use xlink:href="#DejaVuSans-32"/>
       <use x="63.623047" xlink:href="#DejaVuSans-30"/>
       <use x="127.246094" xlink:href="#DejaVuSans-32"/>
       <use x="190.869141" xlink:href="#DejaVuSans-30"/>
       <use x="254.492188" xlink:href="#DejaVuSans-2d"/>
       <use x="290.576172" xlink:href="#DejaVuSans-31"/>
       <use x="354.199219" xlink:href="#DejaVuSans-32"/>
      </g>
     </g>
    </g>
    <g id="xtick_4">
     <g id="line2d_4">
      <g>
       <use style="stroke:#000000;stroke-width:0.8;" x="448.794237" xlink:href="#m1dd333741c" y="228.96"/>
      </g>
     </g>
     <g id="text_4">
      <!-- 2021-01 -->
      <g transform="translate(451.553612 277.742812)rotate(-90)scale(0.1 -0.1)">
       <use xlink:href="#DejaVuSans-32"/>
       <use x="63.623047" xlink:href="#DejaVuSans-30"/>
       <use x="127.246094" xlink:href="#DejaVuSans-32"/>
       <use x="190.869141" xlink:href="#DejaVuSans-31"/>
       <use x="254.492188" xlink:href="#DejaVuSans-2d"/>
       <use x="290.576172" xlink:href="#DejaVuSans-30"/>
       <use x="354.199219" xlink:href="#DejaVuSans-31"/>
      </g>
     </g>
    </g>
    <g id="xtick_5">
     <g id="line2d_5">
      <g>
       <use style="stroke:#000000;stroke-width:0.8;" x="573.599432" xlink:href="#m1dd333741c" y="228.96"/>
      </g>
     </g>
     <g id="text_5">
      <!-- 2021-02 -->
      <g transform="translate(576.358807 277.742812)rotate(-90)scale(0.1 -0.1)">
       <use xlink:href="#DejaVuSans-32"/>
       <use x="63.623047" xlink:href="#DejaVuSans-30"/>
       <use x="127.246094" xlink:href="#DejaVuSans-32"/>
       <use x="190.869141" xlink:href="#DejaVuSans-31"/>
       <use x="254.492188" xlink:href="#DejaVuSans-2d"/>
       <use x="290.576172" xlink:href="#DejaVuSans-30"/>
       <use x="354.199219" xlink:href="#DejaVuSans-32"/>
      </g>
     </g>
    </g>
    <g id="xtick_6">
     <g id="line2d_6">
      <g>
       <use style="stroke:#000000;stroke-width:0.8;" x="686.326705" xlink:href="#m1dd333741c" y="228.96"/>
      </g>
     </g>
     <g id="text_6">
      <!-- 2021-03 -->
      <g transform="translate(689.08608 277.742812)rotate(-90)scale(0.1 -0.1)">
       <defs>
        <path d="M 2597 2516 
Q 3050 2419 3304 2112 
Q 3559 1806 3559 1356 
Q 3559 666 3084 287 
Q 2609 -91 1734 -91 
Q 1441 -91 1130 -33 
Q 819 25 488 141 
L 488 750 
Q 750 597 1062 519 
Q 1375 441 1716 441 
Q 2309 441 2620 675 
Q 2931 909 2931 1356 
Q 2931 1769 2642 2001 
Q 2353 2234 1838 2234 
L 1294 2234 
L 1294 2753 
L 1863 2753 
Q 2328 2753 2575 2939 
Q 2822 3125 2822 3475 
Q 2822 3834 2567 4026 
Q 2313 4219 1838 4219 
Q 1578 4219 1281 4162 
Q 984 4106 628 3988 
L 628 4550 
Q 988 4650 1302 4700 
Q 1616 4750 1894 4750 
Q 2613 4750 3031 4423 
Q 3450 4097 3450 3541 
Q 3450 3153 3228 2886 
Q 3006 2619 2597 2516 
z
" id="DejaVuSans-33" transform="scale(0.015625)"/>
       </defs>
       <use xlink:href="#DejaVuSans-32"/>
       <use x="63.623047" xlink:href="#DejaVuSans-30"/>
       <use x="127.246094" xlink:href="#DejaVuSans-32"/>
       <use x="190.869141" xlink:href="#DejaVuSans-31"/>
       <use x="254.492188" xlink:href="#DejaVuSans-2d"/>
       <use x="290.576172" xlink:href="#DejaVuSans-30"/>
       <use x="354.199219" xlink:href="#DejaVuSans-33"/>
      </g>
     </g>
    </g>
    <g id="xtick_7">
     <g id="line2d_7">
      <g>
       <use style="stroke:#000000;stroke-width:0.8;" x="811.131899" xlink:href="#m1dd333741c" y="228.96"/>
      </g>
     </g>
     <g id="text_7">
      <!-- 2021-04 -->
      <g transform="translate(813.891274 277.742812)rotate(-90)scale(0.1 -0.1)">
       <defs>
        <path d="M 2419 4116 
L 825 1625 
L 2419 1625 
L 2419 4116 
z
M 2253 4666 
L 3047 4666 
L 3047 1625 
L 3713 1625 
L 3713 1100 
L 3047 1100 
L 3047 0 
L 2419 0 
L 2419 1100 
L 313 1100 
L 313 1709 
L 2253 4666 
z
" id="DejaVuSans-34" transform="scale(0.015625)"/>
       </defs>
       <use xlink:href="#DejaVuSans-32"/>
       <use x="63.623047" xlink:href="#DejaVuSans-30"/>
       <use x="127.246094" xlink:href="#DejaVuSans-32"/>
       <use x="190.869141" xlink:href="#DejaVuSans-31"/>
       <use x="254.492188" xlink:href="#DejaVuSans-2d"/>
       <use x="290.576172" xlink:href="#DejaVuSans-30"/>
       <use x="354.199219" xlink:href="#DejaVuSans-34"/>
      </g>
     </g>
    </g>
    <g id="xtick_8">
     <g id="line2d_8">
      <g>
       <use style="stroke:#000000;stroke-width:0.8;" x="931.91112" xlink:href="#m1dd333741c" y="228.96"/>
      </g>
     </g>
     <g id="text_8">
      <!-- 2021-05 -->
      <g transform="translate(934.670495 277.742812)rotate(-90)scale(0.1 -0.1)">
       <defs>
        <path d="M 691 4666 
L 3169 4666 
L 3169 4134 
L 1269 4134 
L 1269 2991 
Q 1406 3038 1543 3061 
Q 1681 3084 1819 3084 
Q 2600 3084 3056 2656 
Q 3513 2228 3513 1497 
Q 3513 744 3044 326 
Q 2575 -91 1722 -91 
Q 1428 -91 1123 -41 
Q 819 9 494 109 
L 494 744 
Q 775 591 1075 516 
Q 1375 441 1709 441 
Q 2250 441 2565 725 
Q 2881 1009 2881 1497 
Q 2881 1984 2565 2268 
Q 2250 2553 1709 2553 
Q 1456 2553 1204 2497 
Q 953 2441 691 2322 
L 691 4666 
z
" id="DejaVuSans-35" transform="scale(0.015625)"/>
       </defs>
       <use xlink:href="#DejaVuSans-32"/>
       <use x="63.623047" xlink:href="#DejaVuSans-30"/>
       <use x="127.246094" xlink:href="#DejaVuSans-32"/>
       <use x="190.869141" xlink:href="#DejaVuSans-31"/>
       <use x="254.492188" xlink:href="#DejaVuSans-2d"/>
       <use x="290.576172" xlink:href="#DejaVuSans-30"/>
       <use x="354.199219" xlink:href="#DejaVuSans-35"/>
      </g>
     </g>
    </g>
    <g id="xtick_9">
     <g id="line2d_9">
      <g>
       <use style="stroke:#000000;stroke-width:0.8;" x="1056.716315" xlink:href="#m1dd333741c" y="228.96"/>
      </g>
     </g>
     <g id="text_9">
      <!-- 2021-06 -->
      <g transform="translate(1059.47569 277.742812)rotate(-90)scale(0.1 -0.1)">
       <defs>
        <path d="M 2113 2584 
Q 1688 2584 1439 2293 
Q 1191 2003 1191 1497 
Q 1191 994 1439 701 
Q 1688 409 2113 409 
Q 2538 409 2786 701 
Q 3034 994 3034 1497 
Q 3034 2003 2786 2293 
Q 2538 2584 2113 2584 
z
M 3366 4563 
L 3366 3988 
Q 3128 4100 2886 4159 
Q 2644 4219 2406 4219 
Q 1781 4219 1451 3797 
Q 1122 3375 1075 2522 
Q 1259 2794 1537 2939 
Q 1816 3084 2150 3084 
Q 2853 3084 3261 2657 
Q 3669 2231 3669 1497 
Q 3669 778 3244 343 
Q 2819 -91 2113 -91 
Q 1303 -91 875 529 
Q 447 1150 447 2328 
Q 447 3434 972 4092 
Q 1497 4750 2381 4750 
Q 2619 4750 2861 4703 
Q 3103 4656 3366 4563 
z
" id="DejaVuSans-36" transform="scale(0.015625)"/>
       </defs>
       <use xlink:href="#DejaVuSans-32"/>
       <use x="63.623047" xlink:href="#DejaVuSans-30"/>
       <use x="127.246094" xlink:href="#DejaVuSans-32"/>
       <use x="190.869141" xlink:href="#DejaVuSans-31"/>
       <use x="254.492188" xlink:href="#DejaVuSans-2d"/>
       <use x="290.576172" xlink:href="#DejaVuSans-30"/>
       <use x="354.199219" xlink:href="#DejaVuSans-36"/>
      </g>
     </g>
    </g>
    <g id="text_10">
     <!-- Date -->
     <g transform="translate(589.830469 289.34125)scale(0.1 -0.1)">
      <defs>
       <path d="M 1259 4147 
L 1259 519 
L 2022 519 
Q 2988 519 3436 956 
Q 3884 1394 3884 2338 
Q 3884 3275 3436 3711 
Q 2988 4147 2022 4147 
L 1259 4147 
z
M 628 4666 
L 1925 4666 
Q 3281 4666 3915 4102 
Q 4550 3538 4550 2338 
Q 4550 1131 3912 565 
Q 3275 0 1925 0 
L 628 0 
L 628 4666 
z
" id="DejaVuSans-44" transform="scale(0.015625)"/>
       <path d="M 2194 1759 
Q 1497 1759 1228 1600 
Q 959 1441 959 1056 
Q 959 750 1161 570 
Q 1363 391 1709 391 
Q 2188 391 2477 730 
Q 2766 1069 2766 1631 
L 2766 1759 
L 2194 1759 
z
M 3341 1997 
L 3341 0 
L 2766 0 
L 2766 531 
Q 2569 213 2275 61 
Q 1981 -91 1556 -91 
Q 1019 -91 701 211 
Q 384 513 384 1019 
Q 384 1609 779 1909 
Q 1175 2209 1959 2209 
L 2766 2209 
L 2766 2266 
Q 2766 2663 2505 2880 
Q 2244 3097 1772 3097 
Q 1472 3097 1187 3025 
Q 903 2953 641 2809 
L 641 3341 
Q 956 3463 1253 3523 
Q 1550 3584 1831 3584 
Q 2591 3584 2966 3190 
Q 3341 2797 3341 1997 
z
" id="DejaVuSans-61" transform="scale(0.015625)"/>
       <path d="M 1172 4494 
L 1172 3500 
L 2356 3500 
L 2356 3053 
L 1172 3053 
L 1172 1153 
Q 1172 725 1289 603 
Q 1406 481 1766 481 
L 2356 481 
L 2356 0 
L 1766 0 
Q 1100 0 847 248 
Q 594 497 594 1153 
L 594 3053 
L 172 3053 
L 172 3500 
L 594 3500 
L 594 4494 
L 1172 4494 
z
" id="DejaVuSans-74" transform="scale(0.015625)"/>
       <path d="M 3597 1894 
L 3597 1613 
L 953 1613 
Q 991 1019 1311 708 
Q 1631 397 2203 397 
Q 2534 397 2845 478 
Q 3156 559 3463 722 
L 3463 178 
Q 3153 47 2828 -22 
Q 2503 -91 2169 -91 
Q 1331 -91 842 396 
Q 353 884 353 1716 
Q 353 2575 817 3079 
Q 1281 3584 2069 3584 
Q 2775 3584 3186 3129 
Q 3597 2675 3597 1894 
z
M 3022 2063 
Q 3016 2534 2758 2815 
Q 2500 3097 2075 3097 
Q 1594 3097 1305 2825 
Q 1016 2553 972 2059 
L 3022 2063 
z
" id="DejaVuSans-65" transform="scale(0.015625)"/>
      </defs>
      <use xlink:href="#DejaVuSans-44"/>
      <use x="77.001953" xlink:href="#DejaVuSans-61"/>
      <use x="138.28125" xlink:href="#DejaVuSans-74"/>
      <use x="177.490234" xlink:href="#DejaVuSans-65"/>
     </g>
    </g>
   </g>
   <g id="matplotlib.axis_2">
    <g id="ytick_1">
     <g id="line2d_10">
      <defs>
       <path d="M 0 0 
L -3.5 0 
" id="md93036f790" style="stroke:#000000;stroke-width:0.8;"/>
      </defs>
      <g>
       <use style="stroke:#000000;stroke-width:0.8;" x="43.78125" xlink:href="#md93036f790" y="228.96"/>
      </g>
     </g>
     <g id="text_11">
      <!-- 0.0 -->
      <g transform="translate(20.878125 232.759219)scale(0.1 -0.1)">
       <defs>
        <path d="M 684 794 
L 1344 794 
L 1344 0 
L 684 0 
L 684 794 
z
" id="DejaVuSans-2e" transform="scale(0.015625)"/>
       </defs>
       <use xlink:href="#DejaVuSans-30"/>
       <use x="63.623047" xlink:href="#DejaVuSans-2e"/>
       <use x="95.410156" xlink:href="#DejaVuSans-30"/>
      </g>
     </g>
    </g>
    <g id="ytick_2">
     <g id="line2d_11">
      <g>
       <use style="stroke:#000000;stroke-width:0.8;" x="43.78125" xlink:href="#md93036f790" y="203.713226"/>
      </g>
     </g>
     <g id="text_12">
      <!-- 0.1 -->
      <g transform="translate(20.878125 207.512444)scale(0.1 -0.1)">
       <use xlink:href="#DejaVuSans-30"/>
       <use x="63.623047" xlink:href="#DejaVuSans-2e"/>
       <use x="95.410156" xlink:href="#DejaVuSans-31"/>
      </g>
     </g>
    </g>
    <g id="ytick_3">
     <g id="line2d_12">
      <g>
       <use style="stroke:#000000;stroke-width:0.8;" x="43.78125" xlink:href="#md93036f790" y="178.466451"/>
      </g>
     </g>
     <g id="text_13">
      <!-- 0.2 -->
      <g transform="translate(20.878125 182.26567)scale(0.1 -0.1)">
       <use xlink:href="#DejaVuSans-30"/>
       <use x="63.623047" xlink:href="#DejaVuSans-2e"/>
       <use x="95.410156" xlink:href="#DejaVuSans-32"/>
      </g>
     </g>
    </g>
    <g id="ytick_4">
     <g id="line2d_13">
      <g>
       <use style="stroke:#000000;stroke-width:0.8;" x="43.78125" xlink:href="#md93036f790" y="153.219677"/>
      </g>
     </g>
     <g id="text_14">
      <!-- 0.3 -->
      <g transform="translate(20.878125 157.018896)scale(0.1 -0.1)">
       <use xlink:href="#DejaVuSans-30"/>
       <use x="63.623047" xlink:href="#DejaVuSans-2e"/>
       <use x="95.410156" xlink:href="#DejaVuSans-33"/>
      </g>
     </g>
    </g>
    <g id="ytick_5">
     <g id="line2d_14">
      <g>
       <use style="stroke:#000000;stroke-width:0.8;" x="43.78125" xlink:href="#md93036f790" y="127.972903"/>
      </g>
     </g>
     <g id="text_15">
      <!-- 0.4 -->
      <g transform="translate(20.878125 131.772122)scale(0.1 -0.1)">
       <use xlink:href="#DejaVuSans-30"/>
       <use x="63.623047" xlink:href="#DejaVuSans-2e"/>
       <use x="95.410156" xlink:href="#DejaVuSans-34"/>
      </g>
     </g>
    </g>
    <g id="ytick_6">
     <g id="line2d_15">
      <g>
       <use style="stroke:#000000;stroke-width:0.8;" x="43.78125" xlink:href="#md93036f790" y="102.726129"/>
      </g>
     </g>
     <g id="text_16">
      <!-- 0.5 -->
      <g transform="translate(20.878125 106.525347)scale(0.1 -0.1)">
       <use xlink:href="#DejaVuSans-30"/>
       <use x="63.623047" xlink:href="#DejaVuSans-2e"/>
       <use x="95.410156" xlink:href="#DejaVuSans-35"/>
      </g>
     </g>
    </g>
    <g id="ytick_7">
     <g id="line2d_16">
      <g>
       <use style="stroke:#000000;stroke-width:0.8;" x="43.78125" xlink:href="#md93036f790" y="77.479354"/>
      </g>
     </g>
     <g id="text_17">
      <!-- 0.6 -->
      <g transform="translate(20.878125 81.278573)scale(0.1 -0.1)">
       <use xlink:href="#DejaVuSans-30"/>
       <use x="63.623047" xlink:href="#DejaVuSans-2e"/>
       <use x="95.410156" xlink:href="#DejaVuSans-36"/>
      </g>
     </g>
    </g>
    <g id="ytick_8">
     <g id="line2d_17">
      <g>
       <use style="stroke:#000000;stroke-width:0.8;" x="43.78125" xlink:href="#md93036f790" y="52.23258"/>
      </g>
     </g>
     <g id="text_18">
      <!-- 0.7 -->
      <g transform="translate(20.878125 56.031799)scale(0.1 -0.1)">
       <defs>
        <path d="M 525 4666 
L 3525 4666 
L 3525 4397 
L 1831 0 
L 1172 0 
L 2766 4134 
L 525 4134 
L 525 4666 
z
" id="DejaVuSans-37" transform="scale(0.015625)"/>
       </defs>
       <use xlink:href="#DejaVuSans-30"/>
       <use x="63.623047" xlink:href="#DejaVuSans-2e"/>
       <use x="95.410156" xlink:href="#DejaVuSans-37"/>
      </g>
     </g>
    </g>
    <g id="ytick_9">
     <g id="line2d_18">
      <g>
       <use style="stroke:#000000;stroke-width:0.8;" x="43.78125" xlink:href="#md93036f790" y="26.985806"/>
      </g>
     </g>
     <g id="text_19">
      <!-- 0.8 -->
      <g transform="translate(20.878125 30.785024)scale(0.1 -0.1)">
       <defs>
        <path d="M 2034 2216 
Q 1584 2216 1326 1975 
Q 1069 1734 1069 1313 
Q 1069 891 1326 650 
Q 1584 409 2034 409 
Q 2484 409 2743 651 
Q 3003 894 3003 1313 
Q 3003 1734 2745 1975 
Q 2488 2216 2034 2216 
z
M 1403 2484 
Q 997 2584 770 2862 
Q 544 3141 544 3541 
Q 544 4100 942 4425 
Q 1341 4750 2034 4750 
Q 2731 4750 3128 4425 
Q 3525 4100 3525 3541 
Q 3525 3141 3298 2862 
Q 3072 2584 2669 2484 
Q 3125 2378 3379 2068 
Q 3634 1759 3634 1313 
Q 3634 634 3220 271 
Q 2806 -91 2034 -91 
Q 1263 -91 848 271 
Q 434 634 434 1313 
Q 434 1759 690 2068 
Q 947 2378 1403 2484 
z
M 1172 3481 
Q 1172 3119 1398 2916 
Q 1625 2713 2034 2713 
Q 2441 2713 2670 2916 
Q 2900 3119 2900 3481 
Q 2900 3844 2670 4047 
Q 2441 4250 2034 4250 
Q 1625 4250 1398 4047 
Q 1172 3844 1172 3481 
z
" id="DejaVuSans-38" transform="scale(0.015625)"/>
       </defs>
       <use xlink:href="#DejaVuSans-30"/>
       <use x="63.623047" xlink:href="#DejaVuSans-2e"/>
       <use x="95.410156" xlink:href="#DejaVuSans-38"/>
      </g>
     </g>
    </g>
    <g id="text_20">
     <!-- Frequency (7 day rolling average) -->
     <g transform="translate(14.798437 202.529219)rotate(-90)scale(0.1 -0.1)">
      <defs>
       <path d="M 628 4666 
L 3309 4666 
L 3309 4134 
L 1259 4134 
L 1259 2759 
L 3109 2759 
L 3109 2228 
L 1259 2228 
L 1259 0 
L 628 0 
L 628 4666 
z
" id="DejaVuSans-46" transform="scale(0.015625)"/>
       <path d="M 2631 2963 
Q 2534 3019 2420 3045 
Q 2306 3072 2169 3072 
Q 1681 3072 1420 2755 
Q 1159 2438 1159 1844 
L 1159 0 
L 581 0 
L 581 3500 
L 1159 3500 
L 1159 2956 
Q 1341 3275 1631 3429 
Q 1922 3584 2338 3584 
Q 2397 3584 2469 3576 
Q 2541 3569 2628 3553 
L 2631 2963 
z
" id="DejaVuSans-72" transform="scale(0.015625)"/>
       <path d="M 947 1747 
Q 947 1113 1208 752 
Q 1469 391 1925 391 
Q 2381 391 2643 752 
Q 2906 1113 2906 1747 
Q 2906 2381 2643 2742 
Q 2381 3103 1925 3103 
Q 1469 3103 1208 2742 
Q 947 2381 947 1747 
z
M 2906 525 
Q 2725 213 2448 61 
Q 2172 -91 1784 -91 
Q 1150 -91 751 415 
Q 353 922 353 1747 
Q 353 2572 751 3078 
Q 1150 3584 1784 3584 
Q 2172 3584 2448 3432 
Q 2725 3281 2906 2969 
L 2906 3500 
L 3481 3500 
L 3481 -1331 
L 2906 -1331 
L 2906 525 
z
" id="DejaVuSans-71" transform="scale(0.015625)"/>
       <path d="M 544 1381 
L 544 3500 
L 1119 3500 
L 1119 1403 
Q 1119 906 1312 657 
Q 1506 409 1894 409 
Q 2359 409 2629 706 
Q 2900 1003 2900 1516 
L 2900 3500 
L 3475 3500 
L 3475 0 
L 2900 0 
L 2900 538 
Q 2691 219 2414 64 
Q 2138 -91 1772 -91 
Q 1169 -91 856 284 
Q 544 659 544 1381 
z
M 1991 3584 
L 1991 3584 
z
" id="DejaVuSans-75" transform="scale(0.015625)"/>
       <path d="M 3513 2113 
L 3513 0 
L 2938 0 
L 2938 2094 
Q 2938 2591 2744 2837 
Q 2550 3084 2163 3084 
Q 1697 3084 1428 2787 
Q 1159 2491 1159 1978 
L 1159 0 
L 581 0 
L 581 3500 
L 1159 3500 
L 1159 2956 
Q 1366 3272 1645 3428 
Q 1925 3584 2291 3584 
Q 2894 3584 3203 3211 
Q 3513 2838 3513 2113 
z
" id="DejaVuSans-6e" transform="scale(0.015625)"/>
       <path d="M 3122 3366 
L 3122 2828 
Q 2878 2963 2633 3030 
Q 2388 3097 2138 3097 
Q 1578 3097 1268 2742 
Q 959 2388 959 1747 
Q 959 1106 1268 751 
Q 1578 397 2138 397 
Q 2388 397 2633 464 
Q 2878 531 3122 666 
L 3122 134 
Q 2881 22 2623 -34 
Q 2366 -91 2075 -91 
Q 1284 -91 818 406 
Q 353 903 353 1747 
Q 353 2603 823 3093 
Q 1294 3584 2113 3584 
Q 2378 3584 2631 3529 
Q 2884 3475 3122 3366 
z
" id="DejaVuSans-63" transform="scale(0.015625)"/>
       <path d="M 2059 -325 
Q 1816 -950 1584 -1140 
Q 1353 -1331 966 -1331 
L 506 -1331 
L 506 -850 
L 844 -850 
Q 1081 -850 1212 -737 
Q 1344 -625 1503 -206 
L 1606 56 
L 191 3500 
L 800 3500 
L 1894 763 
L 2988 3500 
L 3597 3500 
L 2059 -325 
z
" id="DejaVuSans-79" transform="scale(0.015625)"/>
       <path id="DejaVuSans-20" transform="scale(0.015625)"/>
       <path d="M 1984 4856 
Q 1566 4138 1362 3434 
Q 1159 2731 1159 2009 
Q 1159 1288 1364 580 
Q 1569 -128 1984 -844 
L 1484 -844 
Q 1016 -109 783 600 
Q 550 1309 550 2009 
Q 550 2706 781 3412 
Q 1013 4119 1484 4856 
L 1984 4856 
z
" id="DejaVuSans-28" transform="scale(0.015625)"/>
       <path d="M 2906 2969 
L 2906 4863 
L 3481 4863 
L 3481 0 
L 2906 0 
L 2906 525 
Q 2725 213 2448 61 
Q 2172 -91 1784 -91 
Q 1150 -91 751 415 
Q 353 922 353 1747 
Q 353 2572 751 3078 
Q 1150 3584 1784 3584 
Q 2172 3584 2448 3432 
Q 2725 3281 2906 2969 
z
M 947 1747 
Q 947 1113 1208 752 
Q 1469 391 1925 391 
Q 2381 391 2643 752 
Q 2906 1113 2906 1747 
Q 2906 2381 2643 2742 
Q 2381 3103 1925 3103 
Q 1469 3103 1208 2742 
Q 947 2381 947 1747 
z
" id="DejaVuSans-64" transform="scale(0.015625)"/>
       <path d="M 1959 3097 
Q 1497 3097 1228 2736 
Q 959 2375 959 1747 
Q 959 1119 1226 758 
Q 1494 397 1959 397 
Q 2419 397 2687 759 
Q 2956 1122 2956 1747 
Q 2956 2369 2687 2733 
Q 2419 3097 1959 3097 
z
M 1959 3584 
Q 2709 3584 3137 3096 
Q 3566 2609 3566 1747 
Q 3566 888 3137 398 
Q 2709 -91 1959 -91 
Q 1206 -91 779 398 
Q 353 888 353 1747 
Q 353 2609 779 3096 
Q 1206 3584 1959 3584 
z
" id="DejaVuSans-6f" transform="scale(0.015625)"/>
       <path d="M 603 4863 
L 1178 4863 
L 1178 0 
L 603 0 
L 603 4863 
z
" id="DejaVuSans-6c" transform="scale(0.015625)"/>
       <path d="M 603 3500 
L 1178 3500 
L 1178 0 
L 603 0 
L 603 3500 
z
M 603 4863 
L 1178 4863 
L 1178 4134 
L 603 4134 
L 603 4863 
z
" id="DejaVuSans-69" transform="scale(0.015625)"/>
       <path d="M 2906 1791 
Q 2906 2416 2648 2759 
Q 2391 3103 1925 3103 
Q 1463 3103 1205 2759 
Q 947 2416 947 1791 
Q 947 1169 1205 825 
Q 1463 481 1925 481 
Q 2391 481 2648 825 
Q 2906 1169 2906 1791 
z
M 3481 434 
Q 3481 -459 3084 -895 
Q 2688 -1331 1869 -1331 
Q 1566 -1331 1297 -1286 
Q 1028 -1241 775 -1147 
L 775 -588 
Q 1028 -725 1275 -790 
Q 1522 -856 1778 -856 
Q 2344 -856 2625 -561 
Q 2906 -266 2906 331 
L 2906 616 
Q 2728 306 2450 153 
Q 2172 0 1784 0 
Q 1141 0 747 490 
Q 353 981 353 1791 
Q 353 2603 747 3093 
Q 1141 3584 1784 3584 
Q 2172 3584 2450 3431 
Q 2728 3278 2906 2969 
L 2906 3500 
L 3481 3500 
L 3481 434 
z
" id="DejaVuSans-67" transform="scale(0.015625)"/>
       <path d="M 191 3500 
L 800 3500 
L 1894 563 
L 2988 3500 
L 3597 3500 
L 2284 0 
L 1503 0 
L 191 3500 
z
" id="DejaVuSans-76" transform="scale(0.015625)"/>
       <path d="M 513 4856 
L 1013 4856 
Q 1481 4119 1714 3412 
Q 1947 2706 1947 2009 
Q 1947 1309 1714 600 
Q 1481 -109 1013 -844 
L 513 -844 
Q 928 -128 1133 580 
Q 1338 1288 1338 2009 
Q 1338 2731 1133 3434 
Q 928 4138 513 4856 
z
" id="DejaVuSans-29" transform="scale(0.015625)"/>
      </defs>
      <use xlink:href="#DejaVuSans-46"/>
      <use x="50.269531" xlink:href="#DejaVuSans-72"/>
      <use x="89.132812" xlink:href="#DejaVuSans-65"/>
      <use x="150.65625" xlink:href="#DejaVuSans-71"/>
      <use x="214.132812" xlink:href="#DejaVuSans-75"/>
      <use x="277.511719" xlink:href="#DejaVuSans-65"/>
      <use x="339.035156" xlink:href="#DejaVuSans-6e"/>
      <use x="402.414062" xlink:href="#DejaVuSans-63"/>
      <use x="457.394531" xlink:href="#DejaVuSans-79"/>
      <use x="516.574219" xlink:href="#DejaVuSans-20"/>
      <use x="548.361328" xlink:href="#DejaVuSans-28"/>
      <use x="587.375" xlink:href="#DejaVuSans-37"/>
      <use x="650.998047" xlink:href="#DejaVuSans-20"/>
      <use x="682.785156" xlink:href="#DejaVuSans-64"/>
      <use x="746.261719" xlink:href="#DejaVuSans-61"/>
      <use x="807.541016" xlink:href="#DejaVuSans-79"/>
      <use x="866.720703" xlink:href="#DejaVuSans-20"/>
      <use x="898.507812" xlink:href="#DejaVuSans-72"/>
      <use x="937.371094" xlink:href="#DejaVuSans-6f"/>
      <use x="998.552734" xlink:href="#DejaVuSans-6c"/>
      <use x="1026.335938" xlink:href="#DejaVuSans-6c"/>
      <use x="1054.119141" xlink:href="#DejaVuSans-69"/>
      <use x="1081.902344" xlink:href="#DejaVuSans-6e"/>
      <use x="1145.28125" xlink:href="#DejaVuSans-67"/>
      <use x="1208.757812" xlink:href="#DejaVuSans-20"/>
      <use x="1240.544922" xlink:href="#DejaVuSans-61"/>
      <use x="1301.824219" xlink:href="#DejaVuSans-76"/>
      <use x="1361.003906" xlink:href="#DejaVuSans-65"/>
      <use x="1422.527344" xlink:href="#DejaVuSans-72"/>
      <use x="1463.640625" xlink:href="#DejaVuSans-61"/>
      <use x="1524.919922" xlink:href="#DejaVuSans-67"/>
      <use x="1588.396484" xlink:href="#DejaVuSans-65"/>
      <use x="1649.919922" xlink:href="#DejaVuSans-29"/>
     </g>
    </g>
   </g>
   <g id="line2d_19">
    <path clip-path="url(#p9b5b83d589)" d="M 497.105925 228.863511 
L 509.183847 228.96 
L 517.235795 228.859214 
L 529.313718 228.790935 
L 537.365666 228.891721 
L 549.443588 228.96 
L 569.573458 228.909725 
L 585.677354 228.9371 
L 613.859172 228.84162 
L 625.937094 228.885506 
L 638.015016 228.732666 
L 654.118912 228.813073 
L 682.300731 228.276485 
L 686.326705 228.30022 
L 694.378653 227.848307 
L 698.404627 227.759693 
L 702.430601 227.479434 
L 706.456575 227.341837 
L 710.482549 227.40192 
L 714.508523 227.320755 
L 718.534497 227.127288 
L 722.560471 227.233956 
L 726.586445 226.732193 
L 734.638393 225.412138 
L 738.664367 225.273359 
L 742.690341 224.992464 
L 750.742289 225.104314 
L 754.768263 225.120679 
L 758.794237 224.362314 
L 762.820211 223.078661 
L 766.846185 221.654387 
L 774.898133 219.993514 
L 778.924107 218.921102 
L 782.950081 218.523532 
L 786.976055 217.918809 
L 791.002029 216.597828 
L 795.028003 215.524156 
L 799.053977 216.237883 
L 803.079951 217.143679 
L 807.105925 218.173093 
L 811.131899 219.066047 
L 815.157873 219.68403 
L 819.183847 219.347784 
L 823.209821 218.563813 
L 827.235795 217.950706 
L 831.261769 218.068917 
L 839.313718 217.373046 
L 847.365666 216.688893 
L 851.39164 215.792347 
L 855.417614 215.500648 
L 859.443588 214.935929 
L 863.469562 214.153506 
L 867.495536 213.65277 
L 871.52151 213.402523 
L 879.573458 211.401772 
L 883.599432 210.800686 
L 887.625406 210.901093 
L 891.65138 210.491016 
L 899.703328 211.253314 
L 903.729302 210.969499 
L 911.78125 209.488151 
L 919.833198 208.572847 
L 923.859172 208.649761 
L 931.91112 207.963739 
L 939.963068 206.501551 
L 943.989042 206.190694 
L 948.015016 206.079558 
L 952.04099 206.48359 
L 960.092938 206.880559 
L 964.118912 206.982968 
L 968.144886 206.843203 
L 972.17086 206.303076 
L 976.196834 206.046442 
L 980.222808 205.669326 
L 984.248782 205.513086 
L 988.274756 204.736999 
L 992.300731 203.477611 
L 996.326705 203.077475 
L 1000.352679 202.04917 
L 1004.378653 200.472258 
L 1008.404627 199.439016 
L 1016.456575 198.172144 
L 1024.508523 197.954797 
L 1028.534497 198.797783 
L 1032.560471 198.606001 
L 1036.586445 196.908181 
L 1040.612419 196.73891 
L 1044.638393 197.180968 
L 1048.664367 196.826513 
L 1052.690341 197.782509 
L 1056.716315 197.637447 
L 1060.742289 195.917164 
L 1064.768263 192.975188 
L 1068.794237 190.649526 
L 1072.820211 191.043841 
L 1076.846185 191.114958 
L 1080.872159 190.931181 
L 1088.924107 191.887158 
L 1092.950081 192.38857 
L 1096.976055 191.051976 
L 1101.002029 184.048032 
L 1105.028003 189.850893 
L 1109.053977 184.702176 
L 1109.053977 184.702176 
" style="fill:none;stroke:#947383;stroke-linecap:square;stroke-width:2;"/>
   </g>
   <g id="line2d_20">
    <path clip-path="url(#p9b5b83d589)" d="M 509.183847 177.87241 
L 513.209821 228.365958 
L 517.235795 226.701336 
L 521.261769 226.603685 
L 525.287744 225.493937 
L 529.313718 224.558871 
L 533.339692 223.761604 
L 537.365666 225.426227 
L 541.39164 225.216249 
L 545.417614 225.776158 
L 549.443588 226.711224 
L 553.469562 227.2807 
L 557.495536 227.222528 
L 561.52151 227.917821 
L 565.547484 228.173666 
L 569.573458 227.940977 
L 573.599432 228.12426 
L 577.625406 228.105146 
L 589.703328 228.573243 
L 593.729302 228.370718 
L 597.755276 228.448004 
L 605.807224 228.309041 
L 621.91112 228.169732 
L 625.937094 227.77721 
L 633.989042 228.048536 
L 642.04099 228.081308 
L 646.066964 228.429521 
L 650.092938 228.282249 
L 654.118912 227.991406 
L 658.144886 228.080814 
L 670.222808 227.892074 
L 674.248782 228.133549 
L 678.274756 227.809429 
L 682.300731 227.808663 
L 686.326705 227.9583 
L 690.352679 227.704447 
L 694.378653 227.623893 
L 698.404627 227.817086 
L 702.430601 227.825937 
L 706.456575 227.447843 
L 718.534497 227.639174 
L 722.560471 227.629433 
L 726.586445 227.863877 
L 730.612419 227.962285 
L 738.664367 227.142293 
L 742.690341 227.168811 
L 750.742289 226.933403 
L 754.768263 227.314621 
L 758.794237 227.358973 
L 762.820211 226.850948 
L 766.846185 226.585373 
L 770.872159 226.645041 
L 774.898133 226.485096 
L 778.924107 226.616761 
L 786.976055 227.207714 
L 791.002029 226.990962 
L 795.028003 226.42113 
L 803.079951 226.692385 
L 811.131899 226.523931 
L 815.157873 226.705826 
L 819.183847 226.143299 
L 823.209821 225.981683 
L 827.235795 226.150178 
L 835.287744 225.409697 
L 839.313718 225.472995 
L 843.339692 225.201684 
L 847.365666 224.503839 
L 851.39164 225.021579 
L 855.417614 225.842539 
L 859.443588 226.2288 
L 863.469562 226.221836 
L 867.495536 226.456695 
L 879.573458 225.639889 
L 883.599432 225.996255 
L 895.677354 226.451993 
L 899.703328 226.409045 
L 903.729302 226.227647 
L 907.755276 226.175956 
L 911.78125 226.454814 
L 919.833198 226.56787 
L 927.885146 226.901474 
L 931.91112 226.242918 
L 935.937094 225.8825 
L 939.963068 226.056312 
L 943.989042 226.043696 
L 948.015016 225.705948 
L 956.066964 226.44489 
L 960.092938 226.092763 
L 964.118912 225.348249 
L 968.144886 225.786133 
L 972.17086 225.906045 
L 980.222808 225.231692 
L 984.248782 225.821724 
L 992.300731 225.133498 
L 996.326705 225.430535 
L 1000.352679 225.569069 
L 1004.378653 225.203448 
L 1008.404627 224.968318 
L 1012.430601 224.505141 
L 1016.456575 223.894283 
L 1020.482549 222.978947 
L 1024.508523 223.19855 
L 1028.534497 223.212667 
L 1032.560471 223.823361 
L 1036.586445 223.945867 
L 1040.612419 224.53488 
L 1044.638393 224.726828 
L 1052.690341 223.06003 
L 1056.716315 223.177541 
L 1060.742289 222.808796 
L 1064.768263 221.691698 
L 1068.794237 219.921948 
L 1072.820211 220.651306 
L 1076.846185 218.758427 
L 1080.872159 218.151491 
L 1084.898133 217.33611 
L 1088.924107 217.013698 
L 1092.950081 214.805656 
L 1101.002029 217.04708 
L 1105.028003 215.291828 
L 1109.053977 216.797257 
L 1109.053977 216.797257 
" style="fill:none;stroke:#96c6ad;stroke-linecap:square;stroke-width:2;"/>
   </g>
   <g id="line2d_21">
    <path clip-path="url(#p9b5b83d589)" d="M 94.508523 226.435323 
L 98.534497 228.96 
L 122.690341 228.96 
L 126.716315 226.154803 
L 142.820211 226.154803 
L 146.846185 228.96 
L 175.028003 228.96 
L 179.053977 225.899785 
L 195.157873 225.899785 
L 199.183847 228.96 
L 207.235795 228.96 
L 211.261769 227.089869 
L 227.365666 227.089869 
L 231.39164 228.96 
L 267.625406 228.96 
L 271.65138 222.227527 
L 275.677354 222.227527 
L 279.703328 219.823072 
L 287.755276 219.823072 
L 291.78125 226.555545 
L 295.807224 226.555545 
L 299.833198 228.96 
L 315.937094 228.96 
L 319.963068 225.353318 
L 332.04099 225.353318 
L 336.066964 222.197471 
L 340.092938 225.804153 
L 344.118912 220.754798 
L 348.144886 217.949601 
L 352.17086 217.949601 
L 356.196834 221.105448 
L 360.222808 221.105448 
L 364.248782 226.154803 
L 368.274756 228.96 
L 380.352679 228.96 
L 384.378653 218.139954 
L 388.404627 205.049034 
L 392.430601 199.278343 
L 400.482549 199.278343 
L 404.508523 194.319155 
L 408.534497 203.082056 
L 412.560471 193.587256 
L 416.586445 180.963869 
L 420.612419 169.74308 
L 424.638393 181.314519 
L 428.664367 173.01915 
L 432.690341 174.513674 
L 436.716315 180.091449 
L 440.742289 172.950948 
L 444.768263 173.792507 
L 448.794237 185.184344 
L 452.820211 193.344917 
L 456.846185 194.780134 
L 460.872159 200.700985 
L 464.898133 192.688394 
L 468.924107 183.562293 
L 472.950081 179.073978 
L 476.976055 177.572605 
L 481.002029 183.70135 
L 485.028003 188.768485 
L 489.053977 190.470099 
L 493.079951 194.509583 
L 497.105925 190.991129 
L 501.131899 190.089459 
L 505.157873 179.961392 
L 509.183847 186.250544 
L 513.209821 190.065612 
L 517.235795 189.635342 
L 521.261769 172.189066 
L 525.287744 178.233095 
L 529.313718 170.031563 
L 533.339692 160.340882 
L 537.365666 149.520836 
L 541.39164 165.398989 
L 545.417614 159.805096 
L 549.443588 158.185415 
L 553.469562 158.467897 
L 557.495536 163.860745 
L 561.52151 160.018845 
L 565.547484 155.352017 
L 569.573458 158.189457 
L 573.599432 156.419479 
L 577.625406 160.015198 
L 581.65138 156.693254 
L 585.677354 169.82939 
L 589.703328 161.196044 
L 593.729302 154.860035 
L 597.755276 149.05069 
L 601.78125 146.69211 
L 605.807224 134.355412 
L 609.833198 138.097646 
L 613.859172 132.997628 
L 617.885146 132.392586 
L 621.91112 129.056405 
L 625.937094 134.48669 
L 629.963068 123.177508 
L 633.989042 126.996892 
L 638.015016 127.941958 
L 642.04099 115.42465 
L 646.066964 113.662607 
L 650.092938 117.122632 
L 654.118912 118.582479 
L 658.144886 109.172318 
L 662.17086 119.976452 
L 666.196834 108.033104 
L 670.222808 106.241947 
L 674.248782 103.303685 
L 678.274756 107.112097 
L 682.300731 100.628266 
L 686.326705 110.300379 
L 690.352679 101.866592 
L 694.378653 100.339438 
L 698.404627 88.153688 
L 702.430601 87.043126 
L 706.456575 84.787831 
L 710.482549 91.295888 
L 714.508523 86.578287 
L 718.534497 89.796502 
L 722.560471 94.225967 
L 726.586445 82.602704 
L 730.612419 74.253117 
L 734.638393 69.352899 
L 738.664367 73.670464 
L 742.690341 71.057765 
L 746.716315 70.875061 
L 750.742289 74.2773 
L 754.768263 76.752474 
L 758.794237 73.295258 
L 762.820211 68.162672 
L 766.846185 61.586505 
L 770.872159 55.951055 
L 774.898133 49.946762 
L 778.924107 46.302039 
L 782.950081 43.032881 
L 786.976055 41.934794 
L 791.002029 49.133824 
L 795.028003 52.852057 
L 799.053977 57.212141 
L 803.079951 60.927999 
L 807.105925 64.210996 
L 811.131899 59.214238 
L 815.157873 60.708242 
L 819.183847 66.229198 
L 823.209821 62.389773 
L 827.235795 64.398923 
L 831.261769 71.478022 
L 835.287744 66.770551 
L 839.313718 56.229173 
L 843.339692 57.729504 
L 847.365666 69.358509 
L 851.39164 69.235274 
L 855.417614 71.64042 
L 859.443588 80.844291 
L 863.469562 81.303261 
L 867.495536 68.781735 
L 871.52151 61.678597 
L 875.547484 66.688548 
L 879.573458 60.620493 
L 883.599432 58.135547 
L 887.625406 59.259206 
L 891.65138 59.677436 
L 895.677354 54.461012 
L 899.703328 51.434399 
L 903.729302 59.635704 
L 907.755276 55.505017 
L 911.78125 49.460363 
L 915.807224 44.801726 
L 919.833198 51.853686 
L 923.859172 48.943938 
L 927.885146 51.336548 
L 931.91112 61.844015 
L 935.937094 68.100405 
L 939.963068 63.501886 
L 943.989042 57.019233 
L 948.015016 56.345074 
L 952.04099 53.908981 
L 956.066964 54.587873 
L 960.092938 64.915146 
L 964.118912 71.758594 
L 968.144886 69.735319 
L 972.17086 68.610968 
L 976.196834 63.149449 
L 980.222808 49.745751 
L 984.248782 39.222855 
L 988.274756 48.24934 
L 992.300731 42.696416 
L 996.326705 34.925143 
L 1000.352679 30.092848 
L 1004.378653 32.057355 
L 1008.404627 21.497469 
L 1012.430601 17.76 
L 1016.456575 27.671697 
L 1020.482549 40.539605 
L 1024.508523 36.871847 
L 1028.534497 37.272926 
L 1032.560471 40.305572 
L 1036.586445 35.16271 
L 1040.612419 25.174976 
L 1044.638393 31.08943 
L 1048.664367 46.082725 
L 1052.690341 50.807267 
L 1056.716315 74.651443 
L 1060.742289 79.830268 
L 1064.768263 94.90979 
L 1072.820211 101.991736 
L 1076.846185 85.160553 
L 1080.872159 118.822919 
L 1084.898133 110.452331 
L 1088.924107 111.053445 
L 1088.924107 111.053445 
" style="fill:none;stroke:#525886;stroke-linecap:square;stroke-width:2;"/>
   </g>
   <g id="line2d_22">
    <path clip-path="url(#p9b5b83d589)" d="M 601.78125 228.903266 
L 605.807224 228.96 
L 609.833198 228.96 
L 613.859172 228.96 
L 617.885146 228.96 
L 621.91112 228.928481 
L 625.937094 228.928481 
L 629.963068 228.928481 
L 633.989042 228.88961 
L 638.015016 228.863742 
L 642.04099 228.895261 
L 646.066964 228.895261 
L 650.092938 228.895261 
L 654.118912 228.934132 
L 658.144886 228.96 
L 662.17086 228.96 
L 666.196834 228.96 
L 670.222808 228.96 
L 674.248782 228.935595 
L 678.274756 228.904465 
L 682.300731 228.904465 
L 686.326705 228.883745 
L 690.352679 228.861686 
L 694.378653 228.864166 
L 698.404627 228.895296 
L 702.430601 228.895296 
L 706.456575 228.881921 
L 710.482549 228.903981 
L 714.508523 228.882113 
L 718.534497 228.860932 
L 722.560471 228.860932 
L 726.586445 228.830083 
L 730.612419 228.830083 
L 734.638393 228.851435 
L 738.664367 228.824867 
L 742.690341 228.809839 
L 746.716315 228.838534 
L 750.742289 228.838534 
L 754.768263 228.835942 
L 758.794237 228.88369 
L 762.820211 228.898718 
L 766.846185 228.934966 
L 770.872159 228.905846 
L 774.898133 228.93088 
L 778.924107 228.907174 
L 782.950081 228.907174 
L 786.976055 228.907174 
L 791.002029 228.936294 
L 795.028003 228.936294 
L 799.053977 228.96 
L 803.079951 228.96 
L 807.105925 228.932332 
L 811.131899 228.871054 
L 815.157873 228.871054 
L 819.183847 228.871054 
L 823.209821 228.788817 
L 827.235795 228.780001 
L 831.261769 228.774971 
L 835.287744 228.700988 
L 839.313718 228.600902 
L 843.339692 228.540502 
L 847.365666 228.508193 
L 851.39164 228.519437 
L 855.417614 228.510644 
L 859.443588 228.526924 
L 863.469562 228.629036 
L 867.495536 228.268299 
L 871.52151 228.165735 
L 875.547484 228.190738 
L 879.573458 228.00703 
L 883.599432 227.930941 
L 887.625406 228.218235 
L 891.65138 228.252908 
L 895.677354 228.268708 
L 899.703328 228.320208 
L 903.729302 228.36343 
L 907.755276 228.421649 
L 911.78125 228.505187 
L 915.807224 228.136643 
L 919.833198 228.30406 
L 923.859172 228.329591 
L 927.885146 228.310873 
L 931.91112 228.068204 
L 935.937094 228.390905 
L 939.963068 228.379748 
L 943.989042 228.29858 
L 948.015016 228.401313 
L 952.04099 228.640573 
L 956.066964 228.574912 
L 960.092938 228.571153 
L 964.118912 228.285735 
L 968.144886 228.171496 
L 972.17086 228.214324 
L 976.196834 228.32412 
L 980.222808 228.214711 
L 984.248782 228.56876 
L 988.274756 228.682998 
L 992.300731 228.682998 
L 996.326705 228.621774 
L 1000.352679 228.794698 
L 1004.378653 228.790485 
L 1008.404627 228.790485 
L 1012.430601 228.790485 
L 1016.456575 228.895389 
L 1020.482549 228.895389 
L 1024.508523 228.96 
L 1028.534497 228.901961 
L 1032.560471 228.823188 
L 1036.586445 228.823188 
L 1040.612419 228.823188 
L 1044.638393 228.744823 
L 1048.664367 228.777602 
L 1052.690341 228.834268 
L 1056.716315 228.818513 
L 1060.742289 228.818513 
L 1064.768263 228.881347 
L 1068.794237 228.871962 
L 1072.820211 228.89407 
L 1076.846185 228.852683 
L 1080.872159 228.852683 
L 1084.898133 228.868215 
L 1088.924107 228.902859 
L 1092.950081 228.777409 
" style="fill:none;stroke:#937252;stroke-linecap:square;stroke-width:2;"/>
   </g>
   <g id="line2d_23">
    <path clip-path="url(#p9b5b83d589)" d="M 468.924107 227.868248 
L 472.950081 228.96 
L 481.002029 228.96 
L 485.028003 228.689981 
L 501.131899 228.689981 
L 505.157873 228.96 
L 553.469562 228.96 
L 557.495536 228.10994 
L 573.599432 228.10994 
L 577.625406 228.96 
L 581.65138 228.655822 
L 597.755276 228.655822 
L 601.78125 228.96 
L 605.807224 228.200699 
L 613.859172 228.200699 
L 617.885146 227.907131 
L 621.91112 227.275962 
L 625.937094 228.035263 
L 633.989042 228.035263 
L 642.04099 228.580349 
L 650.092938 228.580349 
L 654.118912 227.803525 
L 658.144886 227.425297 
L 662.17086 227.804947 
L 666.196834 226.730617 
L 670.222808 226.730617 
L 674.248782 227.394983 
L 678.274756 227.773211 
L 682.300731 227.081519 
L 686.326705 228.15585 
L 690.352679 228.15585 
L 694.378653 228.268308 
L 698.404627 228.268308 
L 702.430601 228.610564 
L 710.482549 228.610564 
L 714.508523 228.396154 
L 718.534497 227.259643 
L 722.560471 226.430242 
L 726.586445 225.469766 
L 730.612419 225.182871 
L 734.638393 224.068504 
L 738.664367 224.24017 
L 746.716315 225.185405 
L 750.742289 225.4723 
L 754.768263 226.616795 
L 758.794237 226.811921 
L 762.820211 227.528141 
L 770.872159 227.356755 
L 774.898133 227.119086 
L 778.924107 227.888805 
L 782.950081 227.421272 
L 791.002029 227.732766 
L 795.028003 228.154718 
L 799.053977 228.06016 
L 807.105925 228.793206 
L 811.131899 228.66505 
L 815.157873 228.66505 
L 819.183847 226.884132 
L 835.287744 226.178886 
L 839.313718 227.933851 
L 843.339692 227.898655 
L 847.365666 227.989634 
L 851.39164 227.302953 
L 855.417614 227.538904 
L 859.443588 227.42291 
L 863.469562 227.684534 
L 867.495536 227.574045 
L 871.52151 228.513414 
L 875.547484 228.104007 
L 879.573458 228.340511 
L 887.625406 228.451 
L 891.65138 228.550593 
L 895.677354 228.844981 
L 899.703328 228.736158 
L 903.729302 228.446797 
L 911.78125 228.354148 
L 915.807224 227.809983 
L 919.833198 227.640859 
L 923.859172 227.747933 
L 927.885146 227.635224 
L 931.91112 227.727873 
L 935.937094 228.200045 
L 939.963068 228.024456 
L 943.989042 228.032627 
L 948.015016 227.903161 
L 956.066964 227.972474 
L 960.092938 228.426008 
L 972.17086 228.842299 
L 976.196834 228.96 
L 1004.378653 228.96 
L 1012.430601 226.831834 
L 1024.508523 226.831834 
L 1032.560471 228.96 
L 1080.872159 228.96 
L 1084.898133 225.593763 
L 1092.950081 225.593763 
L 1096.976055 212.970376 
L 1101.002029 212.970376 
L 1105.028003 213.811935 
L 1105.028003 213.811935 
" style="fill:none;stroke:#d18cad;stroke-linecap:square;stroke-width:2;"/>
   </g>
   <g id="line2d_24">
    <path clip-path="url(#p9b5b83d589)" d="M 702.430601 203.713226 
L 706.456575 221.746636 
L 710.482549 221.746636 
L 714.508523 221.746636 
L 718.534497 218.590789 
L 722.560471 218.590789 
L 726.586445 225.804153 
L 730.612419 225.804153 
L 734.638393 225.804153 
L 738.664367 228.96 
L 742.690341 228.96 
L 746.716315 228.96 
L 750.742289 228.96 
L 754.768263 225.075881 
L 758.794237 225.075881 
L 762.820211 225.075881 
L 766.846185 225.075881 
L 770.872159 225.075881 
L 774.898133 228.96 
L 778.924107 228.96 
L 782.950081 228.96 
L 786.976055 228.96 
L 791.002029 226.555545 
L 795.028003 226.555545 
L 799.053977 226.555545 
L 803.079951 226.555545 
L 807.105925 226.555545 
L 811.131899 228.96 
L 815.157873 228.96 
L 819.183847 228.96 
L 823.209821 228.96 
L 827.235795 224.369677 
L 831.261769 224.369677 
L 835.287744 224.369677 
L 839.313718 217.156313 
L 843.339692 217.156313 
L 847.365666 221.746636 
L 851.39164 221.746636 
L 855.417614 221.746636 
L 859.443588 226.555545 
L 863.469562 226.555545 
L 867.495536 226.555545 
L 871.52151 226.555545 
L 875.547484 226.555545 
L 879.573458 228.96 
L 883.599432 228.96 
L 887.625406 228.96 
L 891.65138 228.96 
L 895.677354 224.752204 
L 899.703328 224.752204 
L 903.729302 224.752204 
L 907.755276 224.752204 
L 911.78125 224.752204 
L 915.807224 228.96 
L 919.833198 228.96 
L 923.859172 228.96 
L 927.885146 228.96 
L 931.91112 228.96 
L 935.937094 228.96 
L 939.963068 228.96 
L 943.989042 228.96 
L 948.015016 228.96 
L 952.04099 228.96 
L 956.066964 228.96 
L 960.092938 228.96 
L 964.118912 228.96 
L 968.144886 228.96 
L 972.17086 228.96 
L 976.196834 228.96 
L 980.222808 218.86129 
" style="fill:none;stroke:#a4a86f;stroke-linecap:square;stroke-width:2;"/>
   </g>
   <g id="patch_3">
    <path d="M 43.78125 228.96 
L 43.78125 7.2 
" style="fill:none;stroke:#000000;stroke-linecap:square;stroke-linejoin:miter;stroke-width:0.8;"/>
   </g>
   <g id="patch_4">
    <path d="M 43.78125 228.96 
L 1159.78125 228.96 
" style="fill:none;stroke:#000000;stroke-linecap:square;stroke-linejoin:miter;stroke-width:0.8;"/>
   </g>
   <g id="legend_1">
    <g id="line2d_25">
     <path d="M 1065.97 17.67875 
L 1081.97 17.67875 
" style="fill:none;stroke:#947383;stroke-linecap:square;stroke-width:2;"/>
    </g>
    <g id="line2d_26"/>
    <g id="text_21">
     <!-- North America -->
     <g transform="translate(1088.37 20.47875)scale(0.08 -0.08)">
      <defs>
       <path d="M 628 4666 
L 1478 4666 
L 3547 763 
L 3547 4666 
L 4159 4666 
L 4159 0 
L 3309 0 
L 1241 3903 
L 1241 0 
L 628 0 
L 628 4666 
z
" id="DejaVuSans-4e" transform="scale(0.015625)"/>
       <path d="M 3513 2113 
L 3513 0 
L 2938 0 
L 2938 2094 
Q 2938 2591 2744 2837 
Q 2550 3084 2163 3084 
Q 1697 3084 1428 2787 
Q 1159 2491 1159 1978 
L 1159 0 
L 581 0 
L 581 4863 
L 1159 4863 
L 1159 2956 
Q 1366 3272 1645 3428 
Q 1925 3584 2291 3584 
Q 2894 3584 3203 3211 
Q 3513 2838 3513 2113 
z
" id="DejaVuSans-68" transform="scale(0.015625)"/>
       <path d="M 2188 4044 
L 1331 1722 
L 3047 1722 
L 2188 4044 
z
M 1831 4666 
L 2547 4666 
L 4325 0 
L 3669 0 
L 3244 1197 
L 1141 1197 
L 716 0 
L 50 0 
L 1831 4666 
z
" id="DejaVuSans-41" transform="scale(0.015625)"/>
       <path d="M 3328 2828 
Q 3544 3216 3844 3400 
Q 4144 3584 4550 3584 
Q 5097 3584 5394 3201 
Q 5691 2819 5691 2113 
L 5691 0 
L 5113 0 
L 5113 2094 
Q 5113 2597 4934 2840 
Q 4756 3084 4391 3084 
Q 3944 3084 3684 2787 
Q 3425 2491 3425 1978 
L 3425 0 
L 2847 0 
L 2847 2094 
Q 2847 2600 2669 2842 
Q 2491 3084 2119 3084 
Q 1678 3084 1418 2786 
Q 1159 2488 1159 1978 
L 1159 0 
L 581 0 
L 581 3500 
L 1159 3500 
L 1159 2956 
Q 1356 3278 1631 3431 
Q 1906 3584 2284 3584 
Q 2666 3584 2933 3390 
Q 3200 3197 3328 2828 
z
" id="DejaVuSans-6d" transform="scale(0.015625)"/>
      </defs>
      <use xlink:href="#DejaVuSans-4e"/>
      <use x="74.804688" xlink:href="#DejaVuSans-6f"/>
      <use x="135.986328" xlink:href="#DejaVuSans-72"/>
      <use x="177.099609" xlink:href="#DejaVuSans-74"/>
      <use x="216.308594" xlink:href="#DejaVuSans-68"/>
      <use x="279.6875" xlink:href="#DejaVuSans-20"/>
      <use x="311.474609" xlink:href="#DejaVuSans-41"/>
      <use x="379.882812" xlink:href="#DejaVuSans-6d"/>
      <use x="477.294922" xlink:href="#DejaVuSans-65"/>
      <use x="538.818359" xlink:href="#DejaVuSans-72"/>
      <use x="579.931641" xlink:href="#DejaVuSans-69"/>
      <use x="607.714844" xlink:href="#DejaVuSans-63"/>
      <use x="662.695312" xlink:href="#DejaVuSans-61"/>
     </g>
    </g>
    <g id="line2d_27">
     <path d="M 1065.97 29.42125 
L 1081.97 29.42125 
" style="fill:none;stroke:#96c6ad;stroke-linecap:square;stroke-width:2;"/>
    </g>
    <g id="line2d_28"/>
    <g id="text_22">
     <!-- Europe -->
     <g transform="translate(1088.37 32.22125)scale(0.08 -0.08)">
      <defs>
       <path d="M 628 4666 
L 3578 4666 
L 3578 4134 
L 1259 4134 
L 1259 2753 
L 3481 2753 
L 3481 2222 
L 1259 2222 
L 1259 531 
L 3634 531 
L 3634 0 
L 628 0 
L 628 4666 
z
" id="DejaVuSans-45" transform="scale(0.015625)"/>
       <path d="M 1159 525 
L 1159 -1331 
L 581 -1331 
L 581 3500 
L 1159 3500 
L 1159 2969 
Q 1341 3281 1617 3432 
Q 1894 3584 2278 3584 
Q 2916 3584 3314 3078 
Q 3713 2572 3713 1747 
Q 3713 922 3314 415 
Q 2916 -91 2278 -91 
Q 1894 -91 1617 61 
Q 1341 213 1159 525 
z
M 3116 1747 
Q 3116 2381 2855 2742 
Q 2594 3103 2138 3103 
Q 1681 3103 1420 2742 
Q 1159 2381 1159 1747 
Q 1159 1113 1420 752 
Q 1681 391 2138 391 
Q 2594 391 2855 752 
Q 3116 1113 3116 1747 
z
" id="DejaVuSans-70" transform="scale(0.015625)"/>
      </defs>
      <use xlink:href="#DejaVuSans-45"/>
      <use x="63.183594" xlink:href="#DejaVuSans-75"/>
      <use x="126.5625" xlink:href="#DejaVuSans-72"/>
      <use x="165.425781" xlink:href="#DejaVuSans-6f"/>
      <use x="226.607422" xlink:href="#DejaVuSans-70"/>
      <use x="290.083984" xlink:href="#DejaVuSans-65"/>
     </g>
    </g>
    <g id="line2d_29">
     <path d="M 1065.97 41.16375 
L 1081.97 41.16375 
" style="fill:none;stroke:#525886;stroke-linecap:square;stroke-width:2;"/>
    </g>
    <g id="line2d_30"/>
    <g id="text_23">
     <!-- South America -->
     <g transform="translate(1088.37 43.96375)scale(0.08 -0.08)">
      <defs>
       <path d="M 3425 4513 
L 3425 3897 
Q 3066 4069 2747 4153 
Q 2428 4238 2131 4238 
Q 1616 4238 1336 4038 
Q 1056 3838 1056 3469 
Q 1056 3159 1242 3001 
Q 1428 2844 1947 2747 
L 2328 2669 
Q 3034 2534 3370 2195 
Q 3706 1856 3706 1288 
Q 3706 609 3251 259 
Q 2797 -91 1919 -91 
Q 1588 -91 1214 -16 
Q 841 59 441 206 
L 441 856 
Q 825 641 1194 531 
Q 1563 422 1919 422 
Q 2459 422 2753 634 
Q 3047 847 3047 1241 
Q 3047 1584 2836 1778 
Q 2625 1972 2144 2069 
L 1759 2144 
Q 1053 2284 737 2584 
Q 422 2884 422 3419 
Q 422 4038 858 4394 
Q 1294 4750 2059 4750 
Q 2388 4750 2728 4690 
Q 3069 4631 3425 4513 
z
" id="DejaVuSans-53" transform="scale(0.015625)"/>
      </defs>
      <use xlink:href="#DejaVuSans-53"/>
      <use x="63.476562" xlink:href="#DejaVuSans-6f"/>
      <use x="124.658203" xlink:href="#DejaVuSans-75"/>
      <use x="188.037109" xlink:href="#DejaVuSans-74"/>
      <use x="227.246094" xlink:href="#DejaVuSans-68"/>
      <use x="290.625" xlink:href="#DejaVuSans-20"/>
      <use x="322.412109" xlink:href="#DejaVuSans-41"/>
      <use x="390.820312" xlink:href="#DejaVuSans-6d"/>
      <use x="488.232422" xlink:href="#DejaVuSans-65"/>
      <use x="549.755859" xlink:href="#DejaVuSans-72"/>
      <use x="590.869141" xlink:href="#DejaVuSans-69"/>
      <use x="618.652344" xlink:href="#DejaVuSans-63"/>
      <use x="673.632812" xlink:href="#DejaVuSans-61"/>
     </g>
    </g>
    <g id="line2d_31">
     <path d="M 1065.97 52.90625 
L 1081.97 52.90625 
" style="fill:none;stroke:#937252;stroke-linecap:square;stroke-width:2;"/>
    </g>
    <g id="line2d_32"/>
    <g id="text_24">
     <!-- United Kingdom -->
     <g transform="translate(1088.37 55.70625)scale(0.08 -0.08)">
      <defs>
       <path d="M 556 4666 
L 1191 4666 
L 1191 1831 
Q 1191 1081 1462 751 
Q 1734 422 2344 422 
Q 2950 422 3222 751 
Q 3494 1081 3494 1831 
L 3494 4666 
L 4128 4666 
L 4128 1753 
Q 4128 841 3676 375 
Q 3225 -91 2344 -91 
Q 1459 -91 1007 375 
Q 556 841 556 1753 
L 556 4666 
z
" id="DejaVuSans-55" transform="scale(0.015625)"/>
       <path d="M 628 4666 
L 1259 4666 
L 1259 2694 
L 3353 4666 
L 4166 4666 
L 1850 2491 
L 4331 0 
L 3500 0 
L 1259 2247 
L 1259 0 
L 628 0 
L 628 4666 
z
" id="DejaVuSans-4b" transform="scale(0.015625)"/>
      </defs>
      <use xlink:href="#DejaVuSans-55"/>
      <use x="73.193359" xlink:href="#DejaVuSans-6e"/>
      <use x="136.572266" xlink:href="#DejaVuSans-69"/>
      <use x="164.355469" xlink:href="#DejaVuSans-74"/>
      <use x="203.564453" xlink:href="#DejaVuSans-65"/>
      <use x="265.087891" xlink:href="#DejaVuSans-64"/>
      <use x="328.564453" xlink:href="#DejaVuSans-20"/>
      <use x="360.351562" xlink:href="#DejaVuSans-4b"/>
      <use x="425.927734" xlink:href="#DejaVuSans-69"/>
      <use x="453.710938" xlink:href="#DejaVuSans-6e"/>
      <use x="517.089844" xlink:href="#DejaVuSans-67"/>
      <use x="580.566406" xlink:href="#DejaVuSans-64"/>
      <use x="644.042969" xlink:href="#DejaVuSans-6f"/>
      <use x="705.224609" xlink:href="#DejaVuSans-6d"/>
     </g>
    </g>
    <g id="line2d_33">
     <path d="M 1065.97 64.64875 
L 1081.97 64.64875 
" style="fill:none;stroke:#d18cad;stroke-linecap:square;stroke-width:2;"/>
    </g>
    <g id="line2d_34"/>
    <g id="text_25">
     <!-- Asia -->
     <g transform="translate(1088.37 67.44875)scale(0.08 -0.08)">
      <defs>
       <path d="M 2834 3397 
L 2834 2853 
Q 2591 2978 2328 3040 
Q 2066 3103 1784 3103 
Q 1356 3103 1142 2972 
Q 928 2841 928 2578 
Q 928 2378 1081 2264 
Q 1234 2150 1697 2047 
L 1894 2003 
Q 2506 1872 2764 1633 
Q 3022 1394 3022 966 
Q 3022 478 2636 193 
Q 2250 -91 1575 -91 
Q 1294 -91 989 -36 
Q 684 19 347 128 
L 347 722 
Q 666 556 975 473 
Q 1284 391 1588 391 
Q 1994 391 2212 530 
Q 2431 669 2431 922 
Q 2431 1156 2273 1281 
Q 2116 1406 1581 1522 
L 1381 1569 
Q 847 1681 609 1914 
Q 372 2147 372 2553 
Q 372 3047 722 3315 
Q 1072 3584 1716 3584 
Q 2034 3584 2315 3537 
Q 2597 3491 2834 3397 
z
" id="DejaVuSans-73" transform="scale(0.015625)"/>
      </defs>
      <use xlink:href="#DejaVuSans-41"/>
      <use x="68.408203" xlink:href="#DejaVuSans-73"/>
      <use x="120.507812" xlink:href="#DejaVuSans-69"/>
      <use x="148.291016" xlink:href="#DejaVuSans-61"/>
     </g>
    </g>
    <g id="line2d_35">
     <path d="M 1065.97 76.39125 
L 1081.97 76.39125 
" style="fill:none;stroke:#a4a86f;stroke-linecap:square;stroke-width:2;"/>
    </g>
    <g id="line2d_36"/>
    <g id="text_26">
     <!-- Oceania -->
     <g transform="translate(1088.37 79.19125)scale(0.08 -0.08)">
      <defs>
       <path d="M 2522 4238 
Q 1834 4238 1429 3725 
Q 1025 3213 1025 2328 
Q 1025 1447 1429 934 
Q 1834 422 2522 422 
Q 3209 422 3611 934 
Q 4013 1447 4013 2328 
Q 4013 3213 3611 3725 
Q 3209 4238 2522 4238 
z
M 2522 4750 
Q 3503 4750 4090 4092 
Q 4678 3434 4678 2328 
Q 4678 1225 4090 567 
Q 3503 -91 2522 -91 
Q 1538 -91 948 565 
Q 359 1222 359 2328 
Q 359 3434 948 4092 
Q 1538 4750 2522 4750 
z
" id="DejaVuSans-4f" transform="scale(0.015625)"/>
      </defs>
      <use xlink:href="#DejaVuSans-4f"/>
      <use x="78.710938" xlink:href="#DejaVuSans-63"/>
      <use x="133.691406" xlink:href="#DejaVuSans-65"/>
      <use x="195.214844" xlink:href="#DejaVuSans-61"/>
      <use x="256.494141" xlink:href="#DejaVuSans-6e"/>
      <use x="319.873047" xlink:href="#DejaVuSans-69"/>
      <use x="347.65625" xlink:href="#DejaVuSans-61"/>
     </g>
    </g>
   </g>
  </g>
 </g>
 <defs>
  <clipPath id="p9b5b83d589">
   <rect height="221.76" width="1116" x="43.78125" y="7.2"/>
  </clipPath>
 </defs>
</svg>
