<?xml version="1.0" encoding="utf-8" standalone="no"?>
<!DOCTYPE svg PUBLIC "-//W3C//DTD SVG 1.1//EN"
  "http://www.w3.org/Graphics/SVG/1.1/DTD/svg11.dtd">
<svg height="298.620937pt" version="1.1" viewBox="0 0 1166.98125 298.620937" width="1166.98125pt" xmlns="http://www.w3.org/2000/svg" xmlns:xlink="http://www.w3.org/1999/xlink">
 <metadata>
  <rdf:RDF xmlns:cc="http://creativecommons.org/ns#" xmlns:dc="http://purl.org/dc/elements/1.1/" xmlns:rdf="http://www.w3.org/1999/02/22-rdf-syntax-ns#">
   <cc:Work>
    <dc:type rdf:resource="http://purl.org/dc/dcmitype/StillImage"/>
    <dc:date>2021-07-02T16:15:47.964764</dc:date>
    <dc:format>image/svg+xml</dc:format>
    <dc:creator>
     <cc:Agent>
      <dc:title>Matplotlib v3.4.2, https://matplotlib.org/</dc:title>
     </cc:Agent>
    </dc:creator>
   </cc:Work>
  </rdf:RDF>
 </metadata>
 <defs>
  <style type="text/css">*{stroke-linecap:butt;stroke-linejoin:round;}</style>
 </defs>
 <g id="figure_1">
  <g id="patch_1">
   <path d="M 0 298.620937 
L 1166.98125 298.620937 
L 1166.98125 0 
L 0 0 
z
" style="fill:#ffffff;"/>
  </g>
  <g id="axes_1">
   <g id="patch_2">
    <path d="M 43.78125 228.96 
L 1159.78125 228.96 
L 1159.78125 7.2 
L 43.78125 7.2 
z
" style="fill:#ffffff;"/>
   </g>
   <g id="matplotlib.axis_1">
    <g id="xtick_1">
     <g id="line2d_1">
      <defs>
       <path d="M 0 0 
L 0 3.5 
" id="me9732b0cc2" style="stroke:#000000;stroke-width:0.8;"/>
      </defs>
      <g>
       <use style="stroke:#000000;stroke-width:0.8;" x="120.054631" xlink:href="#me9732b0cc2" y="228.96"/>
      </g>
     </g>
     <g id="text_1">
      <!-- 2020-10 -->
      <g transform="translate(122.814006 277.742812)rotate(-90)scale(0.1 -0.1)">
       <defs>
        <path d="M 1228 531 
L 3431 531 
L 3431 0 
L 469 0 
L 469 531 
Q 828 903 1448 1529 
Q 2069 2156 2228 2338 
Q 2531 2678 2651 2914 
Q 2772 3150 2772 3378 
Q 2772 3750 2511 3984 
Q 2250 4219 1831 4219 
Q 1534 4219 1204 4116 
Q 875 4013 500 3803 
L 500 4441 
Q 881 4594 1212 4672 
Q 1544 4750 1819 4750 
Q 2544 4750 2975 4387 
Q 3406 4025 3406 3419 
Q 3406 3131 3298 2873 
Q 3191 2616 2906 2266 
Q 2828 2175 2409 1742 
Q 1991 1309 1228 531 
z
" id="DejaVuSans-32" transform="scale(0.015625)"/>
        <path d="M 2034 4250 
Q 1547 4250 1301 3770 
Q 1056 3291 1056 2328 
Q 1056 1369 1301 889 
Q 1547 409 2034 409 
Q 2525 409 2770 889 
Q 3016 1369 3016 2328 
Q 3016 3291 2770 3770 
Q 2525 4250 2034 4250 
z
M 2034 4750 
Q 2819 4750 3233 4129 
Q 3647 3509 3647 2328 
Q 3647 1150 3233 529 
Q 2819 -91 2034 -91 
Q 1250 -91 836 529 
Q 422 1150 422 2328 
Q 422 3509 836 4129 
Q 1250 4750 2034 4750 
z
" id="DejaVuSans-30" transform="scale(0.015625)"/>
        <path d="M 313 2009 
L 1997 2009 
L 1997 1497 
L 313 1497 
L 313 2009 
z
" id="DejaVuSans-2d" transform="scale(0.015625)"/>
        <path d="M 794 531 
L 1825 531 
L 1825 4091 
L 703 3866 
L 703 4441 
L 1819 4666 
L 2450 4666 
L 2450 531 
L 3481 531 
L 3481 0 
L 794 0 
L 794 531 
z
" id="DejaVuSans-31" transform="scale(0.015625)"/>
       </defs>
       <use xlink:href="#DejaVuSans-32"/>
       <use x="63.623047" xlink:href="#DejaVuSans-30"/>
       <use x="127.246094" xlink:href="#DejaVuSans-32"/>
       <use x="190.869141" xlink:href="#DejaVuSans-30"/>
       <use x="254.492188" xlink:href="#DejaVuSans-2d"/>
       <use x="290.576172" xlink:href="#DejaVuSans-31"/>
       <use x="354.199219" xlink:href="#DejaVuSans-30"/>
      </g>
     </g>
    </g>
    <g id="xtick_2">
     <g id="line2d_2">
      <g>
       <use style="stroke:#000000;stroke-width:0.8;" x="233.187398" xlink:href="#me9732b0cc2" y="228.96"/>
      </g>
     </g>
     <g id="text_2">
      <!-- 2020-11 -->
      <g transform="translate(235.946773 277.742812)rotate(-90)scale(0.1 -0.1)">
       <use xlink:href="#DejaVuSans-32"/>
       <use x="63.623047" xlink:href="#DejaVuSans-30"/>
       <use x="127.246094" xlink:href="#DejaVuSans-32"/>
       <use x="190.869141" xlink:href="#DejaVuSans-30"/>
       <use x="254.492188" xlink:href="#DejaVuSans-2d"/>
       <use x="290.576172" xlink:href="#DejaVuSans-31"/>
       <use x="354.199219" xlink:href="#DejaVuSans-31"/>
      </g>
     </g>
    </g>
    <g id="xtick_3">
     <g id="line2d_3">
      <g>
       <use style="stroke:#000000;stroke-width:0.8;" x="342.67072" xlink:href="#me9732b0cc2" y="228.96"/>
      </g>
     </g>
     <g id="text_3">
      <!-- 2020-12 -->
      <g transform="translate(345.430095 277.742812)rotate(-90)scale(0.1 -0.1)">
       <use xlink:href="#DejaVuSans-32"/>
       <use x="63.623047" xlink:href="#DejaVuSans-30"/>
       <use x="127.246094" xlink:href="#DejaVuSans-32"/>
       <use x="190.869141" xlink:href="#DejaVuSans-30"/>
       <use x="254.492188" xlink:href="#DejaVuSans-2d"/>
       <use x="290.576172" xlink:href="#DejaVuSans-31"/>
       <use x="354.199219" xlink:href="#DejaVuSans-32"/>
      </g>
     </g>
    </g>
    <g id="xtick_4">
     <g id="line2d_4">
      <g>
       <use style="stroke:#000000;stroke-width:0.8;" x="455.803487" xlink:href="#me9732b0cc2" y="228.96"/>
      </g>
     </g>
     <g id="text_4">
      <!-- 2021-01 -->
      <g transform="translate(458.562862 277.742812)rotate(-90)scale(0.1 -0.1)">
       <use xlink:href="#DejaVuSans-32"/>
       <use x="63.623047" xlink:href="#DejaVuSans-30"/>
       <use x="127.246094" xlink:href="#DejaVuSans-32"/>
       <use x="190.869141" xlink:href="#DejaVuSans-31"/>
       <use x="254.492188" xlink:href="#DejaVuSans-2d"/>
       <use x="290.576172" xlink:href="#DejaVuSans-30"/>
       <use x="354.199219" xlink:href="#DejaVuSans-31"/>
      </g>
     </g>
    </g>
    <g id="xtick_5">
     <g id="line2d_5">
      <g>
       <use style="stroke:#000000;stroke-width:0.8;" x="568.936253" xlink:href="#me9732b0cc2" y="228.96"/>
      </g>
     </g>
     <g id="text_5">
      <!-- 2021-02 -->
      <g transform="translate(571.695628 277.742812)rotate(-90)scale(0.1 -0.1)">
       <use xlink:href="#DejaVuSans-32"/>
       <use x="63.623047" xlink:href="#DejaVuSans-30"/>
       <use x="127.246094" xlink:href="#DejaVuSans-32"/>
       <use x="190.869141" xlink:href="#DejaVuSans-31"/>
       <use x="254.492188" xlink:href="#DejaVuSans-2d"/>
       <use x="290.576172" xlink:href="#DejaVuSans-30"/>
       <use x="354.199219" xlink:href="#DejaVuSans-32"/>
      </g>
     </g>
    </g>
    <g id="xtick_6">
     <g id="line2d_6">
      <g>
       <use style="stroke:#000000;stroke-width:0.8;" x="671.120688" xlink:href="#me9732b0cc2" y="228.96"/>
      </g>
     </g>
     <g id="text_6">
      <!-- 2021-03 -->
      <g transform="translate(673.880063 277.742812)rotate(-90)scale(0.1 -0.1)">
       <defs>
        <path d="M 2597 2516 
Q 3050 2419 3304 2112 
Q 3559 1806 3559 1356 
Q 3559 666 3084 287 
Q 2609 -91 1734 -91 
Q 1441 -91 1130 -33 
Q 819 25 488 141 
L 488 750 
Q 750 597 1062 519 
Q 1375 441 1716 441 
Q 2309 441 2620 675 
Q 2931 909 2931 1356 
Q 2931 1769 2642 2001 
Q 2353 2234 1838 2234 
L 1294 2234 
L 1294 2753 
L 1863 2753 
Q 2328 2753 2575 2939 
Q 2822 3125 2822 3475 
Q 2822 3834 2567 4026 
Q 2313 4219 1838 4219 
Q 1578 4219 1281 4162 
Q 984 4106 628 3988 
L 628 4550 
Q 988 4650 1302 4700 
Q 1616 4750 1894 4750 
Q 2613 4750 3031 4423 
Q 3450 4097 3450 3541 
Q 3450 3153 3228 2886 
Q 3006 2619 2597 2516 
z
" id="DejaVuSans-33" transform="scale(0.015625)"/>
       </defs>
       <use xlink:href="#DejaVuSans-32"/>
       <use x="63.623047" xlink:href="#DejaVuSans-30"/>
       <use x="127.246094" xlink:href="#DejaVuSans-32"/>
       <use x="190.869141" xlink:href="#DejaVuSans-31"/>
       <use x="254.492188" xlink:href="#DejaVuSans-2d"/>
       <use x="290.576172" xlink:href="#DejaVuSans-30"/>
       <use x="354.199219" xlink:href="#DejaVuSans-33"/>
      </g>
     </g>
    </g>
    <g id="xtick_7">
     <g id="line2d_7">
      <g>
       <use style="stroke:#000000;stroke-width:0.8;" x="784.253454" xlink:href="#me9732b0cc2" y="228.96"/>
      </g>
     </g>
     <g id="text_7">
      <!-- 2021-04 -->
      <g transform="translate(787.012829 277.742812)rotate(-90)scale(0.1 -0.1)">
       <defs>
        <path d="M 2419 4116 
L 825 1625 
L 2419 1625 
L 2419 4116 
z
M 2253 4666 
L 3047 4666 
L 3047 1625 
L 3713 1625 
L 3713 1100 
L 3047 1100 
L 3047 0 
L 2419 0 
L 2419 1100 
L 313 1100 
L 313 1709 
L 2253 4666 
z
" id="DejaVuSans-34" transform="scale(0.015625)"/>
       </defs>
       <use xlink:href="#DejaVuSans-32"/>
       <use x="63.623047" xlink:href="#DejaVuSans-30"/>
       <use x="127.246094" xlink:href="#DejaVuSans-32"/>
       <use x="190.869141" xlink:href="#DejaVuSans-31"/>
       <use x="254.492188" xlink:href="#DejaVuSans-2d"/>
       <use x="290.576172" xlink:href="#DejaVuSans-30"/>
       <use x="354.199219" xlink:href="#DejaVuSans-34"/>
      </g>
     </g>
    </g>
    <g id="xtick_8">
     <g id="line2d_8">
      <g>
       <use style="stroke:#000000;stroke-width:0.8;" x="893.736776" xlink:href="#me9732b0cc2" y="228.96"/>
      </g>
     </g>
     <g id="text_8">
      <!-- 2021-05 -->
      <g transform="translate(896.496151 277.742812)rotate(-90)scale(0.1 -0.1)">
       <defs>
        <path d="M 691 4666 
L 3169 4666 
L 3169 4134 
L 1269 4134 
L 1269 2991 
Q 1406 3038 1543 3061 
Q 1681 3084 1819 3084 
Q 2600 3084 3056 2656 
Q 3513 2228 3513 1497 
Q 3513 744 3044 326 
Q 2575 -91 1722 -91 
Q 1428 -91 1123 -41 
Q 819 9 494 109 
L 494 744 
Q 775 591 1075 516 
Q 1375 441 1709 441 
Q 2250 441 2565 725 
Q 2881 1009 2881 1497 
Q 2881 1984 2565 2268 
Q 2250 2553 1709 2553 
Q 1456 2553 1204 2497 
Q 953 2441 691 2322 
L 691 4666 
z
" id="DejaVuSans-35" transform="scale(0.015625)"/>
       </defs>
       <use xlink:href="#DejaVuSans-32"/>
       <use x="63.623047" xlink:href="#DejaVuSans-30"/>
       <use x="127.246094" xlink:href="#DejaVuSans-32"/>
       <use x="190.869141" xlink:href="#DejaVuSans-31"/>
       <use x="254.492188" xlink:href="#DejaVuSans-2d"/>
       <use x="290.576172" xlink:href="#DejaVuSans-30"/>
       <use x="354.199219" xlink:href="#DejaVuSans-35"/>
      </g>
     </g>
    </g>
    <g id="xtick_9">
     <g id="line2d_9">
      <g>
       <use style="stroke:#000000;stroke-width:0.8;" x="1006.869543" xlink:href="#me9732b0cc2" y="228.96"/>
      </g>
     </g>
     <g id="text_9">
      <!-- 2021-06 -->
      <g transform="translate(1009.628918 277.742812)rotate(-90)scale(0.1 -0.1)">
       <defs>
        <path d="M 2113 2584 
Q 1688 2584 1439 2293 
Q 1191 2003 1191 1497 
Q 1191 994 1439 701 
Q 1688 409 2113 409 
Q 2538 409 2786 701 
Q 3034 994 3034 1497 
Q 3034 2003 2786 2293 
Q 2538 2584 2113 2584 
z
M 3366 4563 
L 3366 3988 
Q 3128 4100 2886 4159 
Q 2644 4219 2406 4219 
Q 1781 4219 1451 3797 
Q 1122 3375 1075 2522 
Q 1259 2794 1537 2939 
Q 1816 3084 2150 3084 
Q 2853 3084 3261 2657 
Q 3669 2231 3669 1497 
Q 3669 778 3244 343 
Q 2819 -91 2113 -91 
Q 1303 -91 875 529 
Q 447 1150 447 2328 
Q 447 3434 972 4092 
Q 1497 4750 2381 4750 
Q 2619 4750 2861 4703 
Q 3103 4656 3366 4563 
z
" id="DejaVuSans-36" transform="scale(0.015625)"/>
       </defs>
       <use xlink:href="#DejaVuSans-32"/>
       <use x="63.623047" xlink:href="#DejaVuSans-30"/>
       <use x="127.246094" xlink:href="#DejaVuSans-32"/>
       <use x="190.869141" xlink:href="#DejaVuSans-31"/>
       <use x="254.492188" xlink:href="#DejaVuSans-2d"/>
       <use x="290.576172" xlink:href="#DejaVuSans-30"/>
       <use x="354.199219" xlink:href="#DejaVuSans-36"/>
      </g>
     </g>
    </g>
    <g id="xtick_10">
     <g id="line2d_10">
      <g>
       <use style="stroke:#000000;stroke-width:0.8;" x="1116.352865" xlink:href="#me9732b0cc2" y="228.96"/>
      </g>
     </g>
     <g id="text_10">
      <!-- 2021-07 -->
      <g transform="translate(1119.11224 277.742812)rotate(-90)scale(0.1 -0.1)">
       <defs>
        <path d="M 525 4666 
L 3525 4666 
L 3525 4397 
L 1831 0 
L 1172 0 
L 2766 4134 
L 525 4134 
L 525 4666 
z
" id="DejaVuSans-37" transform="scale(0.015625)"/>
       </defs>
       <use xlink:href="#DejaVuSans-32"/>
       <use x="63.623047" xlink:href="#DejaVuSans-30"/>
       <use x="127.246094" xlink:href="#DejaVuSans-32"/>
       <use x="190.869141" xlink:href="#DejaVuSans-31"/>
       <use x="254.492188" xlink:href="#DejaVuSans-2d"/>
       <use x="290.576172" xlink:href="#DejaVuSans-30"/>
       <use x="354.199219" xlink:href="#DejaVuSans-37"/>
      </g>
     </g>
    </g>
    <g id="text_11">
     <!-- Date -->
     <g transform="translate(589.830469 289.34125)scale(0.1 -0.1)">
      <defs>
       <path d="M 1259 4147 
L 1259 519 
L 2022 519 
Q 2988 519 3436 956 
Q 3884 1394 3884 2338 
Q 3884 3275 3436 3711 
Q 2988 4147 2022 4147 
L 1259 4147 
z
M 628 4666 
L 1925 4666 
Q 3281 4666 3915 4102 
Q 4550 3538 4550 2338 
Q 4550 1131 3912 565 
Q 3275 0 1925 0 
L 628 0 
L 628 4666 
z
" id="DejaVuSans-44" transform="scale(0.015625)"/>
       <path d="M 2194 1759 
Q 1497 1759 1228 1600 
Q 959 1441 959 1056 
Q 959 750 1161 570 
Q 1363 391 1709 391 
Q 2188 391 2477 730 
Q 2766 1069 2766 1631 
L 2766 1759 
L 2194 1759 
z
M 3341 1997 
L 3341 0 
L 2766 0 
L 2766 531 
Q 2569 213 2275 61 
Q 1981 -91 1556 -91 
Q 1019 -91 701 211 
Q 384 513 384 1019 
Q 384 1609 779 1909 
Q 1175 2209 1959 2209 
L 2766 2209 
L 2766 2266 
Q 2766 2663 2505 2880 
Q 2244 3097 1772 3097 
Q 1472 3097 1187 3025 
Q 903 2953 641 2809 
L 641 3341 
Q 956 3463 1253 3523 
Q 1550 3584 1831 3584 
Q 2591 3584 2966 3190 
Q 3341 2797 3341 1997 
z
" id="DejaVuSans-61" transform="scale(0.015625)"/>
       <path d="M 1172 4494 
L 1172 3500 
L 2356 3500 
L 2356 3053 
L 1172 3053 
L 1172 1153 
Q 1172 725 1289 603 
Q 1406 481 1766 481 
L 2356 481 
L 2356 0 
L 1766 0 
Q 1100 0 847 248 
Q 594 497 594 1153 
L 594 3053 
L 172 3053 
L 172 3500 
L 594 3500 
L 594 4494 
L 1172 4494 
z
" id="DejaVuSans-74" transform="scale(0.015625)"/>
       <path d="M 3597 1894 
L 3597 1613 
L 953 1613 
Q 991 1019 1311 708 
Q 1631 397 2203 397 
Q 2534 397 2845 478 
Q 3156 559 3463 722 
L 3463 178 
Q 3153 47 2828 -22 
Q 2503 -91 2169 -91 
Q 1331 -91 842 396 
Q 353 884 353 1716 
Q 353 2575 817 3079 
Q 1281 3584 2069 3584 
Q 2775 3584 3186 3129 
Q 3597 2675 3597 1894 
z
M 3022 2063 
Q 3016 2534 2758 2815 
Q 2500 3097 2075 3097 
Q 1594 3097 1305 2825 
Q 1016 2553 972 2059 
L 3022 2063 
z
" id="DejaVuSans-65" transform="scale(0.015625)"/>
      </defs>
      <use xlink:href="#DejaVuSans-44"/>
      <use x="77.001953" xlink:href="#DejaVuSans-61"/>
      <use x="138.28125" xlink:href="#DejaVuSans-74"/>
      <use x="177.490234" xlink:href="#DejaVuSans-65"/>
     </g>
    </g>
   </g>
   <g id="matplotlib.axis_2">
    <g id="ytick_1">
     <g id="line2d_11">
      <defs>
       <path d="M 0 0 
L -3.5 0 
" id="m057cf3964d" style="stroke:#000000;stroke-width:0.8;"/>
      </defs>
      <g>
       <use style="stroke:#000000;stroke-width:0.8;" x="43.78125" xlink:href="#m057cf3964d" y="228.96"/>
      </g>
     </g>
     <g id="text_12">
      <!-- 0.0 -->
      <g transform="translate(20.878125 232.759219)scale(0.1 -0.1)">
       <defs>
        <path d="M 684 794 
L 1344 794 
L 1344 0 
L 684 0 
L 684 794 
z
" id="DejaVuSans-2e" transform="scale(0.015625)"/>
       </defs>
       <use xlink:href="#DejaVuSans-30"/>
       <use x="63.623047" xlink:href="#DejaVuSans-2e"/>
       <use x="95.410156" xlink:href="#DejaVuSans-30"/>
      </g>
     </g>
    </g>
    <g id="ytick_2">
     <g id="line2d_12">
      <g>
       <use style="stroke:#000000;stroke-width:0.8;" x="43.78125" xlink:href="#m057cf3964d" y="186.202822"/>
      </g>
     </g>
     <g id="text_13">
      <!-- 0.2 -->
      <g transform="translate(20.878125 190.002041)scale(0.1 -0.1)">
       <use xlink:href="#DejaVuSans-30"/>
       <use x="63.623047" xlink:href="#DejaVuSans-2e"/>
       <use x="95.410156" xlink:href="#DejaVuSans-32"/>
      </g>
     </g>
    </g>
    <g id="ytick_3">
     <g id="line2d_13">
      <g>
       <use style="stroke:#000000;stroke-width:0.8;" x="43.78125" xlink:href="#m057cf3964d" y="143.445644"/>
      </g>
     </g>
     <g id="text_14">
      <!-- 0.4 -->
      <g transform="translate(20.878125 147.244863)scale(0.1 -0.1)">
       <use xlink:href="#DejaVuSans-30"/>
       <use x="63.623047" xlink:href="#DejaVuSans-2e"/>
       <use x="95.410156" xlink:href="#DejaVuSans-34"/>
      </g>
     </g>
    </g>
    <g id="ytick_4">
     <g id="line2d_14">
      <g>
       <use style="stroke:#000000;stroke-width:0.8;" x="43.78125" xlink:href="#m057cf3964d" y="100.688467"/>
      </g>
     </g>
     <g id="text_15">
      <!-- 0.6 -->
      <g transform="translate(20.878125 104.487685)scale(0.1 -0.1)">
       <use xlink:href="#DejaVuSans-30"/>
       <use x="63.623047" xlink:href="#DejaVuSans-2e"/>
       <use x="95.410156" xlink:href="#DejaVuSans-36"/>
      </g>
     </g>
    </g>
    <g id="ytick_5">
     <g id="line2d_15">
      <g>
       <use style="stroke:#000000;stroke-width:0.8;" x="43.78125" xlink:href="#m057cf3964d" y="57.931289"/>
      </g>
     </g>
     <g id="text_16">
      <!-- 0.8 -->
      <g transform="translate(20.878125 61.730508)scale(0.1 -0.1)">
       <defs>
        <path d="M 2034 2216 
Q 1584 2216 1326 1975 
Q 1069 1734 1069 1313 
Q 1069 891 1326 650 
Q 1584 409 2034 409 
Q 2484 409 2743 651 
Q 3003 894 3003 1313 
Q 3003 1734 2745 1975 
Q 2488 2216 2034 2216 
z
M 1403 2484 
Q 997 2584 770 2862 
Q 544 3141 544 3541 
Q 544 4100 942 4425 
Q 1341 4750 2034 4750 
Q 2731 4750 3128 4425 
Q 3525 4100 3525 3541 
Q 3525 3141 3298 2862 
Q 3072 2584 2669 2484 
Q 3125 2378 3379 2068 
Q 3634 1759 3634 1313 
Q 3634 634 3220 271 
Q 2806 -91 2034 -91 
Q 1263 -91 848 271 
Q 434 634 434 1313 
Q 434 1759 690 2068 
Q 947 2378 1403 2484 
z
M 1172 3481 
Q 1172 3119 1398 2916 
Q 1625 2713 2034 2713 
Q 2441 2713 2670 2916 
Q 2900 3119 2900 3481 
Q 2900 3844 2670 4047 
Q 2441 4250 2034 4250 
Q 1625 4250 1398 4047 
Q 1172 3844 1172 3481 
z
" id="DejaVuSans-38" transform="scale(0.015625)"/>
       </defs>
       <use xlink:href="#DejaVuSans-30"/>
       <use x="63.623047" xlink:href="#DejaVuSans-2e"/>
       <use x="95.410156" xlink:href="#DejaVuSans-38"/>
      </g>
     </g>
    </g>
    <g id="ytick_6">
     <g id="line2d_16">
      <g>
       <use style="stroke:#000000;stroke-width:0.8;" x="43.78125" xlink:href="#m057cf3964d" y="15.174111"/>
      </g>
     </g>
     <g id="text_17">
      <!-- 1.0 -->
      <g transform="translate(20.878125 18.97333)scale(0.1 -0.1)">
       <use xlink:href="#DejaVuSans-31"/>
       <use x="63.623047" xlink:href="#DejaVuSans-2e"/>
       <use x="95.410156" xlink:href="#DejaVuSans-30"/>
      </g>
     </g>
    </g>
    <g id="text_18">
     <!-- Frequency (7 day rolling average) -->
     <g transform="translate(14.798437 202.529219)rotate(-90)scale(0.1 -0.1)">
      <defs>
       <path d="M 628 4666 
L 3309 4666 
L 3309 4134 
L 1259 4134 
L 1259 2759 
L 3109 2759 
L 3109 2228 
L 1259 2228 
L 1259 0 
L 628 0 
L 628 4666 
z
" id="DejaVuSans-46" transform="scale(0.015625)"/>
       <path d="M 2631 2963 
Q 2534 3019 2420 3045 
Q 2306 3072 2169 3072 
Q 1681 3072 1420 2755 
Q 1159 2438 1159 1844 
L 1159 0 
L 581 0 
L 581 3500 
L 1159 3500 
L 1159 2956 
Q 1341 3275 1631 3429 
Q 1922 3584 2338 3584 
Q 2397 3584 2469 3576 
Q 2541 3569 2628 3553 
L 2631 2963 
z
" id="DejaVuSans-72" transform="scale(0.015625)"/>
       <path d="M 947 1747 
Q 947 1113 1208 752 
Q 1469 391 1925 391 
Q 2381 391 2643 752 
Q 2906 1113 2906 1747 
Q 2906 2381 2643 2742 
Q 2381 3103 1925 3103 
Q 1469 3103 1208 2742 
Q 947 2381 947 1747 
z
M 2906 525 
Q 2725 213 2448 61 
Q 2172 -91 1784 -91 
Q 1150 -91 751 415 
Q 353 922 353 1747 
Q 353 2572 751 3078 
Q 1150 3584 1784 3584 
Q 2172 3584 2448 3432 
Q 2725 3281 2906 2969 
L 2906 3500 
L 3481 3500 
L 3481 -1331 
L 2906 -1331 
L 2906 525 
z
" id="DejaVuSans-71" transform="scale(0.015625)"/>
       <path d="M 544 1381 
L 544 3500 
L 1119 3500 
L 1119 1403 
Q 1119 906 1312 657 
Q 1506 409 1894 409 
Q 2359 409 2629 706 
Q 2900 1003 2900 1516 
L 2900 3500 
L 3475 3500 
L 3475 0 
L 2900 0 
L 2900 538 
Q 2691 219 2414 64 
Q 2138 -91 1772 -91 
Q 1169 -91 856 284 
Q 544 659 544 1381 
z
M 1991 3584 
L 1991 3584 
z
" id="DejaVuSans-75" transform="scale(0.015625)"/>
       <path d="M 3513 2113 
L 3513 0 
L 2938 0 
L 2938 2094 
Q 2938 2591 2744 2837 
Q 2550 3084 2163 3084 
Q 1697 3084 1428 2787 
Q 1159 2491 1159 1978 
L 1159 0 
L 581 0 
L 581 3500 
L 1159 3500 
L 1159 2956 
Q 1366 3272 1645 3428 
Q 1925 3584 2291 3584 
Q 2894 3584 3203 3211 
Q 3513 2838 3513 2113 
z
" id="DejaVuSans-6e" transform="scale(0.015625)"/>
       <path d="M 3122 3366 
L 3122 2828 
Q 2878 2963 2633 3030 
Q 2388 3097 2138 3097 
Q 1578 3097 1268 2742 
Q 959 2388 959 1747 
Q 959 1106 1268 751 
Q 1578 397 2138 397 
Q 2388 397 2633 464 
Q 2878 531 3122 666 
L 3122 134 
Q 2881 22 2623 -34 
Q 2366 -91 2075 -91 
Q 1284 -91 818 406 
Q 353 903 353 1747 
Q 353 2603 823 3093 
Q 1294 3584 2113 3584 
Q 2378 3584 2631 3529 
Q 2884 3475 3122 3366 
z
" id="DejaVuSans-63" transform="scale(0.015625)"/>
       <path d="M 2059 -325 
Q 1816 -950 1584 -1140 
Q 1353 -1331 966 -1331 
L 506 -1331 
L 506 -850 
L 844 -850 
Q 1081 -850 1212 -737 
Q 1344 -625 1503 -206 
L 1606 56 
L 191 3500 
L 800 3500 
L 1894 763 
L 2988 3500 
L 3597 3500 
L 2059 -325 
z
" id="DejaVuSans-79" transform="scale(0.015625)"/>
       <path id="DejaVuSans-20" transform="scale(0.015625)"/>
       <path d="M 1984 4856 
Q 1566 4138 1362 3434 
Q 1159 2731 1159 2009 
Q 1159 1288 1364 580 
Q 1569 -128 1984 -844 
L 1484 -844 
Q 1016 -109 783 600 
Q 550 1309 550 2009 
Q 550 2706 781 3412 
Q 1013 4119 1484 4856 
L 1984 4856 
z
" id="DejaVuSans-28" transform="scale(0.015625)"/>
       <path d="M 2906 2969 
L 2906 4863 
L 3481 4863 
L 3481 0 
L 2906 0 
L 2906 525 
Q 2725 213 2448 61 
Q 2172 -91 1784 -91 
Q 1150 -91 751 415 
Q 353 922 353 1747 
Q 353 2572 751 3078 
Q 1150 3584 1784 3584 
Q 2172 3584 2448 3432 
Q 2725 3281 2906 2969 
z
M 947 1747 
Q 947 1113 1208 752 
Q 1469 391 1925 391 
Q 2381 391 2643 752 
Q 2906 1113 2906 1747 
Q 2906 2381 2643 2742 
Q 2381 3103 1925 3103 
Q 1469 3103 1208 2742 
Q 947 2381 947 1747 
z
" id="DejaVuSans-64" transform="scale(0.015625)"/>
       <path d="M 1959 3097 
Q 1497 3097 1228 2736 
Q 959 2375 959 1747 
Q 959 1119 1226 758 
Q 1494 397 1959 397 
Q 2419 397 2687 759 
Q 2956 1122 2956 1747 
Q 2956 2369 2687 2733 
Q 2419 3097 1959 3097 
z
M 1959 3584 
Q 2709 3584 3137 3096 
Q 3566 2609 3566 1747 
Q 3566 888 3137 398 
Q 2709 -91 1959 -91 
Q 1206 -91 779 398 
Q 353 888 353 1747 
Q 353 2609 779 3096 
Q 1206 3584 1959 3584 
z
" id="DejaVuSans-6f" transform="scale(0.015625)"/>
       <path d="M 603 4863 
L 1178 4863 
L 1178 0 
L 603 0 
L 603 4863 
z
" id="DejaVuSans-6c" transform="scale(0.015625)"/>
       <path d="M 603 3500 
L 1178 3500 
L 1178 0 
L 603 0 
L 603 3500 
z
M 603 4863 
L 1178 4863 
L 1178 4134 
L 603 4134 
L 603 4863 
z
" id="DejaVuSans-69" transform="scale(0.015625)"/>
       <path d="M 2906 1791 
Q 2906 2416 2648 2759 
Q 2391 3103 1925 3103 
Q 1463 3103 1205 2759 
Q 947 2416 947 1791 
Q 947 1169 1205 825 
Q 1463 481 1925 481 
Q 2391 481 2648 825 
Q 2906 1169 2906 1791 
z
M 3481 434 
Q 3481 -459 3084 -895 
Q 2688 -1331 1869 -1331 
Q 1566 -1331 1297 -1286 
Q 1028 -1241 775 -1147 
L 775 -588 
Q 1028 -725 1275 -790 
Q 1522 -856 1778 -856 
Q 2344 -856 2625 -561 
Q 2906 -266 2906 331 
L 2906 616 
Q 2728 306 2450 153 
Q 2172 0 1784 0 
Q 1141 0 747 490 
Q 353 981 353 1791 
Q 353 2603 747 3093 
Q 1141 3584 1784 3584 
Q 2172 3584 2450 3431 
Q 2728 3278 2906 2969 
L 2906 3500 
L 3481 3500 
L 3481 434 
z
" id="DejaVuSans-67" transform="scale(0.015625)"/>
       <path d="M 191 3500 
L 800 3500 
L 1894 563 
L 2988 3500 
L 3597 3500 
L 2284 0 
L 1503 0 
L 191 3500 
z
" id="DejaVuSans-76" transform="scale(0.015625)"/>
       <path d="M 513 4856 
L 1013 4856 
Q 1481 4119 1714 3412 
Q 1947 2706 1947 2009 
Q 1947 1309 1714 600 
Q 1481 -109 1013 -844 
L 513 -844 
Q 928 -128 1133 580 
Q 1338 1288 1338 2009 
Q 1338 2731 1133 3434 
Q 928 4138 513 4856 
z
" id="DejaVuSans-29" transform="scale(0.015625)"/>
      </defs>
      <use xlink:href="#DejaVuSans-46"/>
      <use x="50.269531" xlink:href="#DejaVuSans-72"/>
      <use x="89.132812" xlink:href="#DejaVuSans-65"/>
      <use x="150.65625" xlink:href="#DejaVuSans-71"/>
      <use x="214.132812" xlink:href="#DejaVuSans-75"/>
      <use x="277.511719" xlink:href="#DejaVuSans-65"/>
      <use x="339.035156" xlink:href="#DejaVuSans-6e"/>
      <use x="402.414062" xlink:href="#DejaVuSans-63"/>
      <use x="457.394531" xlink:href="#DejaVuSans-79"/>
      <use x="516.574219" xlink:href="#DejaVuSans-20"/>
      <use x="548.361328" xlink:href="#DejaVuSans-28"/>
      <use x="587.375" xlink:href="#DejaVuSans-37"/>
      <use x="650.998047" xlink:href="#DejaVuSans-20"/>
      <use x="682.785156" xlink:href="#DejaVuSans-64"/>
      <use x="746.261719" xlink:href="#DejaVuSans-61"/>
      <use x="807.541016" xlink:href="#DejaVuSans-79"/>
      <use x="866.720703" xlink:href="#DejaVuSans-20"/>
      <use x="898.507812" xlink:href="#DejaVuSans-72"/>
      <use x="937.371094" xlink:href="#DejaVuSans-6f"/>
      <use x="998.552734" xlink:href="#DejaVuSans-6c"/>
      <use x="1026.335938" xlink:href="#DejaVuSans-6c"/>
      <use x="1054.119141" xlink:href="#DejaVuSans-69"/>
      <use x="1081.902344" xlink:href="#DejaVuSans-6e"/>
      <use x="1145.28125" xlink:href="#DejaVuSans-67"/>
      <use x="1208.757812" xlink:href="#DejaVuSans-20"/>
      <use x="1240.544922" xlink:href="#DejaVuSans-61"/>
      <use x="1301.824219" xlink:href="#DejaVuSans-76"/>
      <use x="1361.003906" xlink:href="#DejaVuSans-65"/>
      <use x="1422.527344" xlink:href="#DejaVuSans-72"/>
      <use x="1463.640625" xlink:href="#DejaVuSans-61"/>
      <use x="1524.919922" xlink:href="#DejaVuSans-67"/>
      <use x="1588.396484" xlink:href="#DejaVuSans-65"/>
      <use x="1649.919922" xlink:href="#DejaVuSans-29"/>
     </g>
    </g>
   </g>
   <g id="line2d_17">
    <path clip-path="url(#pac61d45fa7)" d="M 229.537954 227.804401 
L 233.187398 228.96 
L 284.279615 228.96 
L 287.929059 225.905916 
L 298.877391 225.905916 
L 302.526835 221.630198 
L 306.176279 224.684282 
L 313.475168 224.684282 
L 317.124612 224.046115 
L 320.774056 228.321833 
L 324.4235 228.321833 
L 328.072944 225.21222 
L 331.722388 223.598742 
L 335.371832 222.45536 
L 339.021276 222.45536 
L 342.67072 222.26276 
L 346.320164 225.372373 
L 353.619052 228.56282 
L 357.268497 228.56282 
L 360.917941 228.207251 
L 364.567385 228.012013 
L 368.216829 227.313937 
L 371.866273 227.518516 
L 375.515717 227.038099 
L 379.165161 227.586268 
L 382.814605 227.781506 
L 386.464049 227.687783 
L 390.113493 227.275334 
L 393.762937 227.335189 
L 397.412381 227.170739 
L 401.061826 226.546546 
L 404.71127 226.996288 
L 408.360714 226.386653 
L 412.010158 225.087099 
L 415.659602 224.129314 
L 419.309046 222.985768 
L 422.95849 222.302825 
L 426.607934 216.626008 
L 430.257378 215.66262 
L 433.906822 212.527647 
L 437.556266 210.538479 
L 441.20571 208.363358 
L 444.855155 212.694831 
L 448.504599 214.078726 
L 452.154043 214.920071 
L 455.803487 214.772213 
L 459.452931 211.344322 
L 463.102375 203.262125 
L 466.751819 196.324691 
L 470.401263 193.49863 
L 474.050707 194.721211 
L 477.700151 195.284375 
L 481.349595 202.90637 
L 484.999039 209.831845 
L 488.648483 214.338237 
L 492.297928 209.334731 
L 495.947372 211.045884 
L 499.596816 211.516819 
L 503.24626 208.465411 
L 506.895704 206.784273 
L 510.545148 210.084612 
L 514.194592 207.776862 
L 517.844036 206.655701 
L 521.49348 203.434071 
L 525.142924 199.060613 
L 528.792368 191.800041 
L 532.441812 192.426381 
L 536.091257 192.710756 
L 539.740701 195.408828 
L 543.390145 199.156458 
L 547.039589 194.09691 
L 550.689033 187.54053 
L 554.338477 176.228346 
L 557.987921 169.874592 
L 561.637365 169.216038 
L 565.286809 168.068114 
L 568.936253 170.131045 
L 572.585697 162.570134 
L 576.235141 165.852837 
L 579.884586 160.983689 
L 583.53403 173.75143 
L 587.183474 179.939969 
L 590.832918 178.42587 
L 594.482362 176.710723 
L 598.131806 176.06822 
L 601.78125 170.581191 
L 605.430694 163.6853 
L 609.080138 180.531328 
L 612.729582 183.430647 
L 616.379026 178.036979 
L 620.02847 179.76721 
L 623.677914 181.239666 
L 627.327359 181.293504 
L 630.976803 178.388359 
L 634.626247 186.472633 
L 638.275691 180.357628 
L 641.925135 169.633264 
L 645.574579 160.434916 
L 649.224023 154.295237 
L 652.873467 150.371817 
L 656.522911 153.534191 
L 660.172355 170.019774 
L 663.821799 169.904578 
L 667.471243 155.983047 
L 671.120688 152.708879 
L 674.770132 143.467822 
L 678.419576 132.761585 
L 682.06902 136.02536 
L 685.718464 153.495024 
L 689.367908 155.040228 
L 693.017352 155.430379 
L 696.666796 160.806682 
L 700.31624 158.711906 
L 703.965684 158.333013 
L 707.615128 162.631906 
L 711.264572 168.696782 
L 714.914017 166.52338 
L 718.563461 158.839546 
L 722.212905 157.567602 
L 725.862349 147.876032 
L 729.511793 146.201536 
L 733.161237 143.179569 
L 736.810681 151.573935 
L 740.460125 151.425676 
L 744.109569 146.411109 
L 747.759013 148.356389 
L 751.408457 149.745395 
L 758.707345 145.715759 
L 762.35679 151.593958 
L 766.006234 144.525698 
L 769.655678 138.88161 
L 773.305122 139.82609 
L 776.954566 144.214309 
L 780.60401 145.177494 
L 784.253454 147.104053 
L 787.902898 144.777937 
L 791.552342 142.701565 
L 795.201786 121.367209 
L 798.85123 120.698276 
L 802.500674 125.487504 
L 806.150119 128.363272 
L 809.799563 125.974387 
L 813.449007 141.036858 
L 817.098451 142.68555 
L 820.747895 138.442864 
L 824.397339 135.297241 
L 828.046783 134.334786 
L 831.696227 135.522971 
L 835.345671 131.11182 
L 838.995115 127.560806 
L 842.644559 129.608839 
L 846.294003 131.80079 
L 849.943448 125.411533 
L 853.592892 121.212763 
L 857.242336 119.729426 
L 860.89178 115.154021 
L 864.541224 109.664538 
L 868.190668 109.981332 
L 871.840112 107.116099 
L 875.489556 108.311849 
L 879.139 107.404433 
L 882.788444 108.057241 
L 886.437888 111.298889 
L 890.087332 114.116076 
L 893.736776 112.286315 
L 897.386221 108.240809 
L 901.035665 106.704314 
L 904.685109 103.795728 
L 908.334553 108.567625 
L 911.983997 102.608257 
L 915.633441 105.22978 
L 919.282885 98.657084 
L 922.932329 92.363024 
L 926.581773 82.27423 
L 930.231217 86.028286 
L 933.880661 83.449464 
L 937.530105 86.033689 
L 941.17955 91.757858 
L 944.828994 98.208087 
L 948.478438 96.882809 
L 952.127882 96.824014 
L 955.777326 101.978295 
L 963.076214 89.975435 
L 966.725658 88.922568 
L 970.375102 93.404925 
L 974.024546 94.071226 
L 977.67399 98.018009 
L 981.323434 99.501181 
L 984.972879 103.883299 
L 988.622323 106.194086 
L 992.271767 107.373437 
L 995.921211 107.013942 
L 999.570655 111.07264 
L 1003.220099 116.494578 
L 1006.869543 119.472139 
L 1010.518987 124.574002 
L 1014.168431 130.731874 
L 1017.817875 134.449221 
L 1021.467319 142.591746 
L 1025.116763 154.178272 
L 1028.766207 166.579627 
L 1032.415652 175.510538 
L 1036.065096 190.325412 
L 1039.71454 191.475623 
L 1043.363984 193.963112 
L 1047.013428 193.59131 
L 1050.662872 201.522831 
L 1054.312316 203.852724 
L 1057.96176 211.306091 
L 1061.611204 212.006506 
L 1065.260648 205.964731 
L 1068.910092 198.019572 
L 1072.559536 193.596416 
L 1076.208981 184.231551 
L 1079.858425 181.078886 
L 1083.507869 191.76818 
L 1087.157313 195.382424 
L 1090.806757 168.548609 
L 1090.806757 168.548609 
" style="fill:none;stroke:#947383;stroke-linecap:square;stroke-width:2;"/>
   </g>
   <g id="line2d_18">
    <path clip-path="url(#pac61d45fa7)" d="M 258.733506 228.712687 
L 266.032395 228.789313 
L 273.331283 228.741805 
L 276.980727 228.912492 
L 302.526835 228.820747 
L 306.176279 228.702959 
L 320.774056 228.699089 
L 324.4235 228.585758 
L 331.722388 228.678607 
L 349.969608 228.848319 
L 357.268497 228.807714 
L 371.866273 228.879174 
L 379.165161 228.794085 
L 382.814605 228.874911 
L 390.113493 228.658508 
L 415.659602 228.21897 
L 419.309046 228.35847 
L 422.95849 228.277345 
L 426.607934 228.309049 
L 430.257378 228.560562 
L 433.906822 228.150803 
L 441.20571 227.801847 
L 448.504599 226.909365 
L 452.154043 226.473997 
L 455.803487 226.454798 
L 459.452931 226.307224 
L 463.102375 225.937213 
L 466.751819 226.045252 
L 470.401263 226.29644 
L 477.700151 225.711426 
L 481.349595 226.072102 
L 488.648483 225.945818 
L 492.297928 225.604281 
L 495.947372 225.734692 
L 499.596816 225.662171 
L 503.24626 225.102298 
L 506.895704 225.251879 
L 517.844036 224.303721 
L 521.49348 224.544451 
L 525.142924 223.532702 
L 532.441812 223.259207 
L 536.091257 222.015011 
L 539.740701 221.586158 
L 543.390145 221.728201 
L 547.039589 221.065272 
L 550.689033 220.032427 
L 554.338477 220.10417 
L 557.987921 219.452553 
L 561.637365 219.07986 
L 565.286809 219.345957 
L 568.936253 219.021798 
L 572.585697 219.02885 
L 576.235141 218.46999 
L 583.53403 216.006019 
L 587.183474 215.268585 
L 590.832918 213.32833 
L 598.131806 211.734658 
L 601.78125 210.498668 
L 605.430694 210.315074 
L 609.080138 209.384062 
L 612.729582 207.390699 
L 616.379026 205.792129 
L 620.02847 204.7934 
L 623.677914 202.165654 
L 627.327359 202.125522 
L 630.976803 201.840375 
L 634.626247 200.739128 
L 638.275691 199.954978 
L 641.925135 197.51295 
L 645.574579 195.21175 
L 649.224023 191.693062 
L 652.873467 189.876766 
L 656.522911 187.407107 
L 660.172355 186.467632 
L 663.821799 183.786275 
L 667.471243 182.049152 
L 671.120688 181.125781 
L 674.770132 180.676124 
L 678.419576 179.979306 
L 682.06902 179.551558 
L 685.718464 177.580334 
L 689.367908 175.074217 
L 693.017352 169.975671 
L 696.666796 166.477664 
L 700.31624 164.211024 
L 703.965684 163.333127 
L 707.615128 160.389838 
L 711.264572 159.49066 
L 714.914017 157.541972 
L 718.563461 153.32548 
L 722.212905 150.954531 
L 725.862349 148.178913 
L 729.511793 146.355359 
L 733.161237 143.645872 
L 736.810681 142.056461 
L 740.460125 140.081754 
L 744.109569 139.575399 
L 751.408457 135.846453 
L 755.057901 133.330247 
L 758.707345 131.352045 
L 766.006234 126.392418 
L 769.655678 123.809472 
L 773.305122 123.737412 
L 780.60401 117.788249 
L 784.253454 115.024102 
L 787.902898 114.64361 
L 791.552342 112.760858 
L 795.201786 111.53114 
L 798.85123 111.22929 
L 802.500674 109.923937 
L 806.150119 108.257661 
L 809.799563 105.503415 
L 813.449007 104.049651 
L 817.098451 102.812368 
L 820.747895 102.914989 
L 824.397339 102.012426 
L 828.046783 101.529348 
L 831.696227 101.243434 
L 835.345671 99.803433 
L 838.995115 98.909868 
L 842.644559 99.241135 
L 846.294003 99.743831 
L 849.943448 99.160126 
L 853.592892 97.885869 
L 857.242336 97.103185 
L 860.89178 94.841839 
L 864.541224 93.107744 
L 868.190668 92.997799 
L 871.840112 92.60076 
L 875.489556 91.602638 
L 879.139 91.056543 
L 882.788444 90.272435 
L 886.437888 88.338295 
L 890.087332 87.76237 
L 893.736776 87.650525 
L 897.386221 87.869021 
L 901.035665 87.670928 
L 904.685109 87.800833 
L 908.334553 88.252424 
L 911.983997 87.961747 
L 915.633441 86.965019 
L 919.282885 87.16745 
L 926.581773 86.616501 
L 930.231217 86.153395 
L 933.880661 86.894246 
L 937.530105 86.517044 
L 941.17955 87.059891 
L 944.828994 87.889883 
L 948.478438 89.532831 
L 952.127882 90.229005 
L 955.777326 91.418858 
L 959.42677 92.061673 
L 963.076214 92.485729 
L 966.725658 94.492752 
L 970.375102 95.633424 
L 974.024546 98.627385 
L 977.67399 98.671842 
L 981.323434 98.963923 
L 984.972879 98.25827 
L 988.622323 99.259259 
L 992.271767 100.452052 
L 995.921211 104.295986 
L 999.570655 108.654405 
L 1003.220099 114.715404 
L 1006.869543 117.254849 
L 1010.518987 118.568535 
L 1014.168431 121.379298 
L 1017.817875 123.970264 
L 1021.467319 121.465209 
L 1028.766207 126.382998 
L 1032.415652 128.297966 
L 1036.065096 128.710507 
L 1039.71454 130.326433 
L 1043.363984 131.609979 
L 1047.013428 137.838328 
L 1050.662872 144.797892 
L 1054.312316 152.072064 
L 1057.96176 157.07787 
L 1061.611204 167.738969 
L 1065.260648 163.736962 
L 1068.910092 159.167959 
L 1072.559536 161.652991 
L 1076.208981 164.571759 
L 1079.858425 165.701986 
L 1083.507869 171.482863 
L 1087.157313 181.106819 
L 1090.806757 179.979158 
L 1094.456201 188.421341 
L 1098.105645 185.050843 
L 1101.755089 196.452757 
L 1105.404533 203.203891 
L 1109.053977 209.447796 
L 1109.053977 209.447796 
" style="fill:none;stroke:#96c6ad;stroke-linecap:square;stroke-width:2;"/>
   </g>
   <g id="line2d_19">
    <path clip-path="url(#pac61d45fa7)" d="M 335.371832 207.581411 
L 339.021276 228.96 
L 371.866273 228.96 
L 375.515717 214.707607 
L 390.113493 214.707607 
L 393.762937 228.96 
L 412.010158 228.96 
L 415.659602 211.857129 
L 419.309046 211.857129 
L 422.95849 207.581411 
L 430.257378 207.581411 
L 433.906822 224.684282 
L 437.556266 219.339635 
L 441.20571 211.399016 
L 444.855155 201.531975 
L 448.504599 196.187328 
L 452.154043 196.187328 
L 455.803487 184.429104 
L 459.452931 185.956146 
L 463.102375 184.571298 
L 466.751819 174.367881 
L 470.401263 160.115488 
L 474.050707 168.834599 
L 477.700151 163.039198 
L 481.349595 161.51308 
L 484.999039 169.761139 
L 488.648483 172.815223 
L 492.297928 174.843187 
L 495.947372 186.084077 
L 499.596816 191.379578 
L 503.24626 195.950402 
L 506.895704 194.42336 
L 510.545148 190.912116 
L 514.194592 196.155921 
L 517.844036 200.620273 
L 521.49348 202.399295 
L 525.142924 213.788484 
L 528.792368 223.655525 
L 532.441812 221.22219 
L 536.091257 222.420889 
L 539.740701 220.082035 
L 543.390145 220.6165 
L 547.039589 218.741185 
L 550.689033 218.200108 
L 554.338477 214.16858 
L 557.987921 215.028208 
L 561.637365 213.74419 
L 565.286809 204.93021 
L 568.936253 204.776048 
L 572.585697 205.799607 
L 576.235141 201.706711 
L 579.884586 195.541042 
L 583.53403 200.558466 
L 587.183474 201.976753 
L 590.832918 206.804176 
L 594.482362 208.055024 
L 598.131806 207.754974 
L 601.78125 205.652812 
L 605.430694 203.969672 
L 609.080138 193.455612 
L 612.729582 198.727045 
L 616.379026 207.278481 
L 620.02847 209.445014 
L 623.677914 211.459177 
L 627.327359 218.214365 
L 630.976803 215.070455 
L 634.626247 203.464935 
L 638.275691 207.083728 
L 641.925135 203.712194 
L 645.574579 203.753051 
L 649.224023 206.041818 
L 652.873467 206.091344 
L 656.522911 200.953853 
L 660.172355 194.550604 
L 663.821799 188.767025 
L 667.471243 173.588227 
L 671.120688 174.778844 
L 674.770132 174.333457 
L 678.419576 177.886227 
L 682.06902 177.261122 
L 685.718464 177.967019 
L 693.017352 174.33451 
L 696.666796 172.726548 
L 700.31624 167.210378 
L 707.615128 181.389515 
L 711.264572 181.447609 
L 714.914017 183.530651 
L 718.563461 184.301459 
L 722.212905 181.074366 
L 725.862349 179.338552 
L 729.511793 171.110157 
L 733.161237 161.685188 
L 736.810681 159.454378 
L 744.109569 148.768731 
L 747.759013 158.374168 
L 751.408457 162.25654 
L 755.057901 167.601188 
L 758.707345 165.15792 
L 762.35679 164.309564 
L 766.006234 166.601615 
L 769.655678 159.673369 
L 773.305122 165.323424 
L 776.954566 176.288571 
L 780.60401 178.66397 
L 784.253454 162.174133 
L 787.902898 178.053157 
L 791.552342 171.944989 
L 795.201786 174.703517 
L 798.85123 174.703517 
L 802.500674 179.090712 
L 806.150119 174.257292 
L 809.799563 177.120496 
L 813.449007 167.434999 
L 817.098451 173.373496 
L 820.747895 177.419785 
L 824.397339 173.619147 
L 828.046783 178.221482 
L 831.696227 181.071961 
L 835.345671 168.094173 
L 838.995115 166.383885 
L 842.644559 168.868918 
L 846.294003 171.104587 
L 849.943448 168.18624 
L 857.242336 187.418909 
L 860.89178 193.456949 
L 864.541224 191.586725 
L 868.190668 195.455232 
L 871.840112 203.642776 
L 875.489556 200.246461 
L 879.139 197.967294 
L 882.788444 192.851051 
L 886.437888 196.617754 
L 890.087332 189.684158 
L 893.736776 196.999881 
L 897.386221 201.658653 
L 901.035665 208.159745 
L 904.685109 209.008101 
L 908.334553 210.597051 
L 911.983997 204.52524 
L 915.633441 203.302313 
L 919.282885 200.014996 
L 926.581773 183.94645 
L 930.231217 186.972386 
L 933.880661 185.958746 
L 937.530105 182.893434 
L 941.17955 194.91889 
L 944.828994 203.07651 
L 948.478438 207.903933 
L 952.127882 205.354475 
L 955.777326 202.491271 
L 959.42677 196.612159 
L 963.076214 196.255849 
L 966.725658 174.87726 
L 970.375102 159.734093 
L 974.024546 171.95043 
L 977.67399 176.226147 
L 981.323434 180.705471 
L 984.972879 192.582465 
L 988.622323 206.525023 
L 992.271767 204.941423 
L 995.921211 209.217141 
L 999.570655 210.438775 
L 1003.220099 213.605973 
L 1006.869543 218.526876 
L 1010.518987 214.765828 
L 1014.168431 209.777491 
L 1017.817875 206.437086 
L 1021.467319 211.475811 
L 1025.116763 213.990939 
L 1028.766207 217.085208 
L 1032.415652 221.415743 
L 1036.065096 223.460475 
L 1039.71454 224.756147 
L 1043.363984 217.629951 
L 1047.013428 219.880329 
L 1050.662872 220.538132 
L 1054.312316 216.489156 
L 1057.96176 213.87137 
L 1061.611204 219.572327 
L 1065.260648 218.193063 
L 1065.260648 218.193063 
" style="fill:none;stroke:#525886;stroke-linecap:square;stroke-width:2;"/>
   </g>
   <g id="line2d_20">
    <path clip-path="url(#pac61d45fa7)" d="M 123.704075 207.581411 
L 127.353519 228.96 
L 134.652408 228.96 
L 138.301852 227.376401 
L 141.951296 227.376401 
L 145.60074 225.126023 
L 149.250184 223.651638 
L 152.899628 223.651638 
L 156.549072 225.235237 
L 160.198516 225.235237 
L 163.84796 227.485615 
L 167.497404 227.804401 
L 182.095181 227.804401 
L 185.744625 227.988246 
L 211.290733 228.087405 
L 218.589621 227.220057 
L 222.239066 228.092653 
L 229.537954 228.092653 
L 236.836842 228.776493 
L 240.486286 228.101379 
L 244.13573 227.960731 
L 247.785174 227.960731 
L 251.434618 227.063727 
L 255.084062 227.247234 
L 262.38295 226.759029 
L 266.032395 226.759029 
L 269.681839 227.656033 
L 273.331283 227.329642 
L 276.980727 227.876026 
L 280.630171 228.292915 
L 291.578503 228.369496 
L 295.227947 228.710191 
L 298.877391 228.245439 
L 302.526835 228.011793 
L 306.176279 228.054043 
L 309.825724 228.261602 
L 313.475168 228.193545 
L 317.124612 228.291282 
L 320.774056 228.073268 
L 328.072944 228.073268 
L 331.722388 227.877392 
L 335.371832 227.988375 
L 339.021276 228.215415 
L 342.67072 228.084258 
L 346.320164 227.735694 
L 349.969608 227.999628 
L 368.216829 228.167294 
L 371.866273 228.155193 
L 375.515717 227.038499 
L 379.165161 226.765581 
L 382.814605 226.274724 
L 386.464049 225.186072 
L 390.113493 225.055163 
L 393.762937 225.526452 
L 397.412381 224.409431 
L 404.71127 224.176965 
L 408.360714 222.928225 
L 412.010158 220.495196 
L 415.659602 220.451266 
L 419.309046 217.50049 
L 422.95849 215.765782 
L 426.607934 214.63685 
L 430.257378 215.668576 
L 433.906822 213.370319 
L 437.556266 214.21712 
L 441.20571 215.466997 
L 444.855155 212.403011 
L 448.504599 208.878709 
L 452.154043 206.002184 
L 455.803487 204.56206 
L 459.452931 200.82118 
L 463.102375 200.694307 
L 466.751819 203.881587 
L 470.401263 202.56148 
L 474.050707 198.465096 
L 477.700151 192.287585 
L 481.349595 188.868423 
L 484.999039 183.442417 
L 488.648483 180.945813 
L 495.947372 188.938179 
L 499.596816 189.311284 
L 503.24626 189.039201 
L 506.895704 190.01126 
L 510.545148 183.925515 
L 514.194592 180.778616 
L 517.844036 183.211082 
L 521.49348 180.883067 
L 525.142924 180.472882 
L 528.792368 181.203679 
L 532.441812 180.977966 
L 536.091257 176.478439 
L 539.740701 174.351773 
L 543.390145 174.905479 
L 547.039589 173.391222 
L 550.689033 173.206699 
L 557.987921 172.467422 
L 561.637365 167.125854 
L 565.286809 162.546442 
L 568.936253 160.210778 
L 572.585697 154.960588 
L 576.235141 148.765404 
L 579.884586 146.106703 
L 583.53403 143.81966 
L 587.183474 139.65975 
L 590.832918 133.25916 
L 594.482362 131.777547 
L 598.131806 128.438949 
L 601.78125 126.59475 
L 605.430694 122.904941 
L 609.080138 123.690986 
L 612.729582 122.655012 
L 616.379026 120.841152 
L 620.02847 115.592334 
L 627.327359 114.609061 
L 630.976803 112.218345 
L 634.626247 112.011195 
L 638.275691 114.967514 
L 641.925135 110.431401 
L 645.574579 105.45866 
L 649.224023 103.642597 
L 652.873467 98.179546 
L 656.522911 94.314589 
L 660.172355 92.348416 
L 663.821799 93.083164 
L 667.471243 87.714949 
L 671.120688 83.962486 
L 678.419576 77.199695 
L 682.06902 72.906632 
L 685.718464 73.515413 
L 689.367908 71.446355 
L 693.017352 67.633769 
L 696.666796 64.236353 
L 700.31624 61.98339 
L 703.965684 58.26963 
L 711.264572 56.624395 
L 714.914017 56.958869 
L 718.563461 55.502032 
L 722.212905 53.907402 
L 725.862349 53.864347 
L 729.511793 52.357089 
L 733.161237 51.55956 
L 736.810681 51.247827 
L 740.460125 51.868108 
L 744.109569 50.305791 
L 747.759013 47.876853 
L 751.408457 46.850214 
L 755.057901 45.298738 
L 758.707345 42.892145 
L 762.35679 41.155688 
L 766.006234 42.104208 
L 769.655678 41.129994 
L 773.305122 39.877129 
L 776.954566 40.62152 
L 780.60401 40.696096 
L 784.253454 39.856813 
L 787.902898 39.416629 
L 791.552342 39.445646 
L 795.201786 38.378538 
L 798.85123 37.14544 
L 802.500674 37.071936 
L 806.150119 36.722591 
L 809.799563 35.684401 
L 813.449007 35.11125 
L 817.098451 35.263613 
L 820.747895 34.625284 
L 824.397339 33.518339 
L 828.046783 33.716497 
L 835.345671 33.841485 
L 838.995115 32.999755 
L 842.644559 33.146686 
L 846.294003 32.526869 
L 849.943448 31.763476 
L 853.592892 32.077304 
L 857.242336 32.599749 
L 868.190668 33.121416 
L 871.840112 33.7274 
L 875.489556 33.149192 
L 879.139 33.263341 
L 882.788444 34.097793 
L 886.437888 34.101345 
L 890.087332 32.317432 
L 893.736776 33.629532 
L 897.386221 34.019567 
L 901.035665 32.662071 
L 904.685109 33.364425 
L 908.334553 34.275802 
L 911.983997 33.176343 
L 915.633441 32.974912 
L 919.282885 34.380487 
L 922.932329 34.121465 
L 926.581773 32.88243 
L 930.231217 33.344029 
L 933.880661 34.234275 
L 937.530105 34.948199 
L 941.17955 35.821215 
L 948.478438 38.669315 
L 952.127882 36.324267 
L 955.777326 36.188954 
L 959.42677 36.425519 
L 963.076214 37.517324 
L 966.725658 38.437332 
L 970.375102 40.996374 
L 974.024546 42.818493 
L 977.67399 40.150352 
L 981.323434 39.779031 
L 984.972879 38.68131 
L 988.622323 39.985881 
L 992.271767 39.269445 
L 995.921211 42.457867 
L 999.570655 46.111086 
L 1003.220099 44.45055 
L 1006.869543 45.279197 
L 1010.518987 46.348707 
L 1014.168431 51.533838 
L 1017.817875 54.518487 
L 1021.467319 60.078788 
L 1025.116763 67.375574 
L 1028.766207 66.453159 
L 1032.415652 66.503 
L 1036.065096 70.206049 
L 1039.71454 76.121992 
L 1043.363984 75.100043 
L 1047.013428 84.029286 
L 1050.662872 100.025277 
L 1054.312316 96.306015 
L 1057.96176 98.942324 
L 1061.611204 105.718405 
L 1065.260648 110.00281 
L 1068.910092 103.252286 
L 1072.559536 113.567831 
L 1076.208981 112.451916 
L 1079.858425 109.09944 
L 1083.507869 106.861434 
L 1087.157313 108.149512 
L 1090.806757 104.595952 
L 1094.456201 108.631213 
L 1098.105645 107.760758 
L 1101.755089 119.110949 
L 1105.404533 110.238904 
L 1105.404533 110.238904 
" style="fill:none;stroke:#937252;stroke-linecap:square;stroke-width:2;"/>
   </g>
   <g id="line2d_21">
    <path clip-path="url(#pac61d45fa7)" d="M 430.257378 225.51624 
L 433.906822 227.016492 
L 437.556266 226.709622 
L 441.20571 226.709622 
L 444.855155 225.759463 
L 452.154043 217.895035 
L 455.803487 220.145412 
L 459.452931 218.957713 
L 463.102375 218.380831 
L 466.751819 220.812802 
L 470.401263 223.749659 
L 474.050707 218.909224 
L 477.700151 218.363524 
L 481.349595 216.772855 
L 484.999039 215.645972 
L 488.648483 216.596131 
L 492.297928 220.071976 
L 495.947372 217.475534 
L 499.596816 219.598892 
L 503.24626 219.705785 
L 506.895704 217.636889 
L 510.545148 219.00148 
L 514.194592 222.421593 
L 521.49348 223.637148 
L 525.142924 224.092565 
L 528.792368 220.803551 
L 532.441812 219.19815 
L 536.091257 218.280861 
L 539.740701 220.246708 
L 543.390145 220.842158 
L 547.039589 223.661313 
L 550.689033 224.466154 
L 554.338477 224.475896 
L 557.987921 223.786264 
L 561.637365 224.804292 
L 565.286809 223.937989 
L 568.936253 223.951563 
L 572.585697 224.599326 
L 576.235141 224.407367 
L 579.884586 222.741503 
L 583.53403 223.021932 
L 587.183474 224.718645 
L 590.832918 225.356812 
L 594.482362 223.90012 
L 598.131806 224.378285 
L 605.430694 223.314189 
L 609.080138 221.302087 
L 612.729582 223.64037 
L 616.379026 223.64037 
L 620.02847 224.090925 
L 623.677914 219.170532 
L 627.327359 217.715836 
L 630.976803 211.381439 
L 634.626247 204.191043 
L 638.275691 204.269957 
L 641.925135 204.010823 
L 645.574579 204.828946 
L 649.224023 207.936386 
L 652.873467 214.765309 
L 656.522911 208.417177 
L 660.172355 210.891177 
L 663.821799 208.195205 
L 667.471243 204.441398 
L 671.120688 198.422929 
L 674.770132 202.950992 
L 678.419576 200.326966 
L 682.06902 202.533472 
L 685.718464 199.970223 
L 689.367908 201.836908 
L 693.017352 196.016111 
L 696.666796 194.292964 
L 700.31624 194.142092 
L 703.965684 196.123611 
L 707.615128 198.946681 
L 711.264572 204.950326 
L 714.914017 208.547043 
L 718.563461 206.929495 
L 722.212905 210.076846 
L 725.862349 206.802621 
L 733.161237 199.551265 
L 736.810681 201.35948 
L 740.460125 198.878305 
L 744.109569 201.156944 
L 747.759013 202.65986 
L 751.408457 206.311292 
L 755.057901 206.942878 
L 758.707345 209.290561 
L 762.35679 211.305026 
L 766.006234 209.335882 
L 769.655678 211.873503 
L 773.305122 206.059229 
L 776.954566 202.166534 
L 780.60401 200.138525 
L 784.253454 202.026119 
L 787.902898 196.929077 
L 791.552342 199.233301 
L 795.201786 203.9363 
L 798.85123 204.155658 
L 802.500674 202.014579 
L 806.150119 206.478182 
L 809.799563 210.359051 
L 813.449007 210.918412 
L 817.098451 203.648187 
L 820.747895 202.835167 
L 824.397339 200.565665 
L 828.046783 194.835515 
L 831.696227 194.098995 
L 835.345671 200.936874 
L 838.995115 203.283627 
L 842.644559 201.503639 
L 846.294003 204.906573 
L 849.943448 205.542754 
L 853.592892 204.367521 
L 857.242336 205.494124 
L 860.89178 208.092375 
L 864.541224 208.391742 
L 868.190668 205.383234 
L 871.840112 208.582879 
L 875.489556 209.857612 
L 879.139 210.897801 
L 882.788444 212.227003 
L 886.437888 214.528985 
L 890.087332 212.54535 
L 893.736776 212.361607 
L 897.386221 212.600526 
L 901.035665 210.364856 
L 908.334553 214.008959 
L 911.983997 211.450837 
L 915.633441 208.119737 
L 919.282885 207.502819 
L 922.932329 205.4899 
L 926.581773 206.067777 
L 930.231217 208.780878 
L 933.880661 210.983295 
L 937.530105 214.961897 
L 941.17955 217.927882 
L 944.828994 214.534264 
L 948.478438 214.584848 
L 952.127882 216.38696 
L 955.777326 215.62096 
L 959.42677 212.845855 
L 963.076214 214.094864 
L 966.725658 216.459706 
L 970.375102 214.130071 
L 974.024546 214.981044 
L 977.67399 217.9206 
L 981.323434 217.849849 
L 984.972879 217.143218 
L 988.622323 219.413366 
L 992.271767 218.394354 
L 995.921211 218.167612 
L 999.570655 219.845516 
L 1003.220099 220.341251 
L 1006.869543 219.765444 
L 1010.518987 221.362003 
L 1014.168431 221.920483 
L 1017.817875 222.906877 
L 1021.467319 222.411142 
L 1025.116763 221.137019 
L 1028.766207 219.664393 
L 1032.415652 218.656395 
L 1036.065096 216.468528 
L 1039.71454 215.518368 
L 1043.363984 218.985167 
L 1047.013428 219.088445 
L 1050.662872 220.833636 
L 1054.312316 224.209202 
L 1057.96176 226.584601 
L 1061.611204 205.206012 
L 1061.611204 205.206012 
" style="fill:none;stroke:#d18cad;stroke-linecap:square;stroke-width:2;"/>
   </g>
   <g id="line2d_22">
    <path clip-path="url(#pac61d45fa7)" d="M 94.508523 228.744403 
L 101.807411 228.881402 
L 116.405187 228.789991 
L 131.002964 228.760865 
L 134.652408 228.930874 
L 145.60074 228.910797 
L 152.899628 228.910797 
L 156.549072 228.71674 
L 171.146848 228.689637 
L 174.796293 228.883693 
L 189.394069 228.96 
L 193.043513 228.694192 
L 196.692957 228.54668 
L 203.991845 227.995541 
L 207.641289 227.884484 
L 218.589621 228.565056 
L 222.239066 228.052437 
L 229.537954 227.592409 
L 236.836842 225.804184 
L 240.486286 226.225737 
L 244.13573 226.392209 
L 247.785174 224.401756 
L 251.434618 224.081123 
L 255.084062 224.975781 
L 258.733506 223.026955 
L 262.38295 221.722614 
L 266.032395 223.172612 
L 269.681839 223.149466 
L 273.331283 219.62857 
L 276.980727 217.641845 
L 280.630171 216.445288 
L 284.279615 213.315821 
L 287.929059 212.953771 
L 291.578503 211.887178 
L 295.227947 213.878476 
L 298.877391 210.572405 
L 302.526835 212.940563 
L 306.176279 208.336579 
L 309.825724 204.449963 
L 313.475168 204.993556 
L 317.124612 207.977864 
L 320.774056 208.441958 
L 324.4235 207.843059 
L 328.072944 210.818977 
L 331.722388 203.584776 
L 335.371832 199.003949 
L 339.021276 195.966165 
L 342.67072 198.956357 
L 346.320164 198.785979 
L 349.969608 203.646299 
L 353.619052 198.519085 
L 357.268497 194.16921 
L 360.917941 194.16369 
L 364.567385 188.360818 
L 368.216829 180.683016 
L 371.866273 183.313033 
L 375.515717 173.425693 
L 379.165161 165.852182 
L 382.814605 164.038203 
L 386.464049 157.278405 
L 390.113493 151.276264 
L 393.762937 150.745545 
L 397.412381 142.564366 
L 401.061826 134.011674 
L 404.71127 129.081777 
L 408.360714 126.449695 
L 412.010158 127.955181 
L 415.659602 128.670328 
L 419.309046 132.113857 
L 422.95849 133.643625 
L 426.607934 129.808128 
L 433.906822 112.025649 
L 437.556266 106.353945 
L 441.20571 102.537013 
L 444.855155 95.919893 
L 448.504599 92.910055 
L 452.154043 90.712207 
L 459.452931 73.628476 
L 463.102375 71.401171 
L 466.751819 70.057529 
L 470.401263 69.799838 
L 474.050707 73.134394 
L 477.700151 73.767982 
L 481.349595 70.757074 
L 484.999039 67.31243 
L 488.648483 64.276919 
L 492.297928 59.607915 
L 495.947372 59.649995 
L 499.596816 60.697021 
L 503.24626 60.005093 
L 514.194592 55.10649 
L 517.844036 52.234358 
L 521.49348 50.191842 
L 525.142924 49.356646 
L 528.792368 47.88102 
L 532.441812 45.449219 
L 536.091257 44.219046 
L 539.740701 42.639748 
L 543.390145 40.158449 
L 547.039589 38.168158 
L 550.689033 36.609892 
L 554.338477 34.137653 
L 557.987921 32.376928 
L 561.637365 31.139398 
L 565.286809 30.656968 
L 568.936253 30.802058 
L 576.235141 33.533707 
L 579.884586 32.573981 
L 583.53403 31.417965 
L 587.183474 30.470887 
L 590.832918 28.914117 
L 594.482362 27.165685 
L 598.131806 26.979824 
L 601.78125 27.369405 
L 605.430694 26.506321 
L 609.080138 25.458872 
L 612.729582 25.127791 
L 616.379026 24.961373 
L 620.02847 23.91691 
L 623.677914 23.809141 
L 627.327359 23.899498 
L 634.626247 22.89643 
L 638.275691 22.801207 
L 645.574579 22.089847 
L 649.224023 22.117156 
L 652.873467 21.827374 
L 656.522911 21.196715 
L 660.172355 21.208003 
L 663.821799 21.044735 
L 667.471243 20.766029 
L 671.120688 20.706154 
L 674.770132 20.951465 
L 685.718464 20.854972 
L 689.367908 21.060464 
L 693.017352 21.607607 
L 696.666796 21.401041 
L 700.31624 20.89888 
L 703.965684 20.67946 
L 707.615128 20.333107 
L 711.264572 19.806255 
L 714.914017 19.499609 
L 722.212905 19.463752 
L 725.862349 19.076199 
L 736.810681 19.123469 
L 740.460125 19.226826 
L 744.109569 19.161757 
L 747.759013 18.850446 
L 755.057901 18.69397 
L 758.707345 18.419822 
L 762.35679 18.375544 
L 773.305122 17.76 
L 776.954566 17.877368 
L 787.902898 18.803657 
L 791.552342 19.45176 
L 795.201786 19.836665 
L 798.85123 19.949176 
L 806.150119 21.778274 
L 809.799563 21.985058 
L 813.449007 22.307748 
L 817.098451 22.959462 
L 824.397339 22.352392 
L 828.046783 22.451454 
L 831.696227 23.293563 
L 835.345671 24.777816 
L 838.995115 26.529436 
L 842.644559 28.470963 
L 846.294003 29.713303 
L 853.592892 31.944921 
L 857.242336 32.124191 
L 860.89178 32.118127 
L 864.541224 33.616625 
L 868.190668 36.460225 
L 871.840112 38.710713 
L 875.489556 39.688965 
L 882.788444 43.305052 
L 886.437888 42.933026 
L 890.087332 44.005227 
L 893.736776 49.024477 
L 897.386221 54.914408 
L 901.035665 57.704115 
L 904.685109 60.26718 
L 908.334553 63.70855 
L 911.983997 65.608369 
L 915.633441 68.645909 
L 919.282885 74.940419 
L 922.932329 83.432144 
L 926.581773 90.040006 
L 930.231217 95.993353 
L 933.880661 100.86792 
L 937.530105 101.446001 
L 941.17955 104.285818 
L 948.478438 114.13142 
L 952.127882 120.500168 
L 955.777326 133.092463 
L 959.42677 140.353262 
L 963.076214 145.684958 
L 966.725658 152.634882 
L 970.375102 157.325644 
L 974.024546 160.556859 
L 977.67399 165.795093 
L 981.323434 171.96603 
L 984.972879 175.427255 
L 988.622323 176.857617 
L 992.271767 179.13996 
L 995.921211 183.302059 
L 999.570655 186.052908 
L 1003.220099 190.50489 
L 1006.869543 196.092594 
L 1010.518987 200.188447 
L 1014.168431 202.10656 
L 1017.817875 203.54649 
L 1021.467319 204.856347 
L 1025.116763 207.107009 
L 1028.766207 208.712722 
L 1032.415652 210.712556 
L 1036.065096 212.026647 
L 1039.71454 213.803256 
L 1043.363984 215.827417 
L 1050.662872 217.984784 
L 1054.312316 220.093708 
L 1057.96176 221.779647 
L 1061.611204 221.932157 
L 1065.260648 223.27687 
L 1076.208981 224.554011 
L 1079.858425 225.030123 
L 1090.806757 226.093591 
L 1090.806757 226.093591 
" style="fill:none;stroke:#a4a86f;stroke-linecap:square;stroke-width:2;"/>
   </g>
   <g id="line2d_23">
    <path clip-path="url(#pac61d45fa7)" d="M 353.619052 220.408564 
L 357.268497 228.96 
L 368.216829 228.96 
L 371.866273 207.581411 
L 375.515717 207.581411 
L 379.165161 181.927104 
L 386.464049 181.927104 
L 390.113493 203.305693 
L 393.762937 203.305693 
L 397.412381 226.822141 
L 404.71127 226.822141 
L 408.360714 218.270706 
L 412.010158 212.162537 
L 415.659602 214.300396 
L 419.309046 214.300396 
L 422.95849 197.197525 
L 426.607934 205.748961 
L 430.257378 207.581411 
L 433.906822 195.920363 
L 437.556266 191.169565 
L 441.20571 206.134577 
L 444.855155 206.134577 
L 448.504599 207.356211 
L 452.154043 215.963175 
L 455.803487 206.46158 
L 459.452931 196.383103 
L 463.102375 196.383103 
L 466.751819 199.437187 
L 470.401263 181.112682 
L 474.050707 181.112682 
L 477.700151 182.639724 
L 481.349595 161.261135 
L 484.999039 148.10508 
L 488.648483 163.375501 
L 492.297928 161.593952 
L 499.596816 172.283246 
L 503.24626 166.436111 
L 506.895704 161.854985 
L 510.545148 142.257945 
L 514.194592 139.051157 
L 517.844036 137.269608 
L 521.49348 145.583503 
L 525.142924 122.067056 
L 528.792368 133.265364 
L 532.441812 120.438211 
L 536.091257 102.62272 
L 539.740701 102.62272 
L 543.390145 115.449873 
L 547.039589 131.331111 
L 550.689033 127.055393 
L 554.338477 150.470038 
L 557.987921 118.402155 
L 561.637365 97.023566 
L 565.286809 91.322609 
L 568.936253 95.598326 
L 572.585697 93.56227 
L 576.235141 98.906918 
L 579.884586 141.664095 
L 583.53403 138.813617 
L 587.183474 160.192206 
L 590.832918 160.192206 
L 594.482362 171.95043 
L 598.131806 129.193252 
L 601.78125 146.296123 
L 605.430694 109.647113 
L 609.080138 97.17627 
L 612.729582 80.073399 
L 616.379026 80.073399 
L 620.02847 37.316221 
L 623.677914 48.310924 
L 627.327359 60.781767 
L 630.976803 60.781767 
L 634.626247 77.884639 
L 638.275691 106.389424 
L 641.925135 99.975847 
L 645.574579 105.676804 
L 649.224023 119.929197 
L 652.873467 133.367167 
L 656.522911 126.240971 
L 660.172355 115.551676 
L 663.821799 93.56227 
L 667.471243 114.940859 
L 671.120688 105.778607 
L 674.770132 105.778607 
L 678.419576 128.582435 
L 682.06902 128.582435 
L 685.718464 92.951454 
L 689.367908 102.113706 
L 693.017352 91.424411 
L 696.666796 89.999172 
L 700.31624 107.178395 
L 703.965684 107.178395 
L 707.615128 98.016143 
L 711.264572 103.771917 
L 714.914017 95.754946 
L 718.563461 78.575723 
L 722.212905 105.298959 
L 725.862349 114.461211 
L 729.511793 134.665153 
L 733.161237 141.037617 
L 736.810681 157.326065 
L 740.460125 157.326065 
L 744.109569 137.474518 
L 747.759013 116.373574 
L 751.408457 118.01808 
L 755.057901 110.891884 
L 758.707345 101.271519 
L 762.35679 122.650108 
L 766.006234 128.480632 
L 769.655678 107.102043 
L 773.305122 99.975847 
L 776.954566 106.626964 
L 780.60401 88.811473 
L 784.253454 83.466826 
L 787.902898 92.968421 
L 791.552342 95.161096 
L 795.201786 103.474992 
L 798.85123 105.667668 
L 802.500674 105.667668 
L 806.150119 122.889309 
L 809.799563 133.167477 
L 813.449007 126.7539 
L 817.098451 128.124322 
L 820.747895 127.638445 
L 824.397339 118.01808 
L 828.046783 111.655405 
L 831.696227 86.001098 
L 835.345671 97.581167 
L 838.995115 97.303523 
L 842.644559 97.692225 
L 846.294003 108.427793 
L 849.943448 142.633536 
L 853.592892 137.35741 
L 857.242336 151.482549 
L 860.89178 157.014072 
L 864.541224 154.422728 
L 868.190668 137.319856 
L 871.840112 142.353044 
L 875.489556 131.960674 
L 879.139 137.442364 
L 882.788444 144.56856 
L 886.437888 158.00653 
L 890.087332 143.106302 
L 893.736776 155.199241 
L 897.386221 145.018961 
L 904.685109 123.742174 
L 908.334553 130.868371 
L 911.983997 121.15083 
L 915.633441 133.922455 
L 919.282885 108.980768 
L 922.932329 131.784596 
L 926.581773 134.159995 
L 930.231217 112.781406 
L 933.880661 124.442454 
L 937.530105 141.545325 
L 941.17955 107.339583 
L 944.828994 115.653479 
L 948.478438 158.410657 
L 952.127882 158.410657 
L 955.777326 169.812571 
L 959.42677 204.018313 
L 963.076214 214.707607 
L 966.725658 171.95043 
L 970.375102 150.571841 
L 974.024546 157.698037 
L 981.323434 157.698037 
L 984.972879 190.95362 
L 988.622323 212.332209 
L 992.271767 214.707607 
L 995.921211 200.455215 
L 999.570655 200.455215 
L 1003.220099 202.830614 
L 1006.869543 188.578221 
L 1010.518987 184.777583 
L 1014.168431 199.029976 
L 1017.817875 192.921807 
L 1021.467319 189.358709 
L 1025.116763 196.484905 
L 1028.766207 197.262309 
L 1032.415652 197.262309 
L 1036.065096 203.370477 
L 1039.71454 214.059771 
L 1043.363984 212.023715 
L 1047.013428 212.671551 
L 1054.312316 212.671551 
L 1057.96176 207.920754 
L 1061.611204 210.974838 
L 1065.260648 218.101034 
L 1072.559536 200.998163 
L 1076.208981 191.496568 
L 1079.858425 197.604736 
L 1083.507869 192.853939 
L 1087.157313 189.189038 
L 1094.456201 198.604255 
L 1098.105645 191.478058 
L 1101.755089 185.539562 
L 1101.755089 185.539562 
" style="fill:none;stroke:#d3d3d3;stroke-linecap:square;stroke-width:2;"/>
   </g>
   <g id="patch_3">
    <path d="M 43.78125 228.96 
L 43.78125 7.2 
" style="fill:none;stroke:#000000;stroke-linecap:square;stroke-linejoin:miter;stroke-width:0.8;"/>
   </g>
   <g id="patch_4">
    <path d="M 43.78125 228.96 
L 1159.78125 228.96 
" style="fill:none;stroke:#000000;stroke-linecap:square;stroke-linejoin:miter;stroke-width:0.8;"/>
   </g>
   <g id="legend_1">
    <g id="line2d_24">
     <path d="M 1065.97 17.67875 
L 1081.97 17.67875 
" style="fill:none;stroke:#947383;stroke-linecap:square;stroke-width:2;"/>
    </g>
    <g id="line2d_25"/>
    <g id="text_19">
     <!-- Asia -->
     <g transform="translate(1088.37 20.47875)scale(0.08 -0.08)">
      <defs>
       <path d="M 2188 4044 
L 1331 1722 
L 3047 1722 
L 2188 4044 
z
M 1831 4666 
L 2547 4666 
L 4325 0 
L 3669 0 
L 3244 1197 
L 1141 1197 
L 716 0 
L 50 0 
L 1831 4666 
z
" id="DejaVuSans-41" transform="scale(0.015625)"/>
       <path d="M 2834 3397 
L 2834 2853 
Q 2591 2978 2328 3040 
Q 2066 3103 1784 3103 
Q 1356 3103 1142 2972 
Q 928 2841 928 2578 
Q 928 2378 1081 2264 
Q 1234 2150 1697 2047 
L 1894 2003 
Q 2506 1872 2764 1633 
Q 3022 1394 3022 966 
Q 3022 478 2636 193 
Q 2250 -91 1575 -91 
Q 1294 -91 989 -36 
Q 684 19 347 128 
L 347 722 
Q 666 556 975 473 
Q 1284 391 1588 391 
Q 1994 391 2212 530 
Q 2431 669 2431 922 
Q 2431 1156 2273 1281 
Q 2116 1406 1581 1522 
L 1381 1569 
Q 847 1681 609 1914 
Q 372 2147 372 2553 
Q 372 3047 722 3315 
Q 1072 3584 1716 3584 
Q 2034 3584 2315 3537 
Q 2597 3491 2834 3397 
z
" id="DejaVuSans-73" transform="scale(0.015625)"/>
      </defs>
      <use xlink:href="#DejaVuSans-41"/>
      <use x="68.408203" xlink:href="#DejaVuSans-73"/>
      <use x="120.507812" xlink:href="#DejaVuSans-69"/>
      <use x="148.291016" xlink:href="#DejaVuSans-61"/>
     </g>
    </g>
    <g id="line2d_26">
     <path d="M 1065.97 29.42125 
L 1081.97 29.42125 
" style="fill:none;stroke:#96c6ad;stroke-linecap:square;stroke-width:2;"/>
    </g>
    <g id="line2d_27"/>
    <g id="text_20">
     <!-- North America -->
     <g transform="translate(1088.37 32.22125)scale(0.08 -0.08)">
      <defs>
       <path d="M 628 4666 
L 1478 4666 
L 3547 763 
L 3547 4666 
L 4159 4666 
L 4159 0 
L 3309 0 
L 1241 3903 
L 1241 0 
L 628 0 
L 628 4666 
z
" id="DejaVuSans-4e" transform="scale(0.015625)"/>
       <path d="M 3513 2113 
L 3513 0 
L 2938 0 
L 2938 2094 
Q 2938 2591 2744 2837 
Q 2550 3084 2163 3084 
Q 1697 3084 1428 2787 
Q 1159 2491 1159 1978 
L 1159 0 
L 581 0 
L 581 4863 
L 1159 4863 
L 1159 2956 
Q 1366 3272 1645 3428 
Q 1925 3584 2291 3584 
Q 2894 3584 3203 3211 
Q 3513 2838 3513 2113 
z
" id="DejaVuSans-68" transform="scale(0.015625)"/>
       <path d="M 3328 2828 
Q 3544 3216 3844 3400 
Q 4144 3584 4550 3584 
Q 5097 3584 5394 3201 
Q 5691 2819 5691 2113 
L 5691 0 
L 5113 0 
L 5113 2094 
Q 5113 2597 4934 2840 
Q 4756 3084 4391 3084 
Q 3944 3084 3684 2787 
Q 3425 2491 3425 1978 
L 3425 0 
L 2847 0 
L 2847 2094 
Q 2847 2600 2669 2842 
Q 2491 3084 2119 3084 
Q 1678 3084 1418 2786 
Q 1159 2488 1159 1978 
L 1159 0 
L 581 0 
L 581 3500 
L 1159 3500 
L 1159 2956 
Q 1356 3278 1631 3431 
Q 1906 3584 2284 3584 
Q 2666 3584 2933 3390 
Q 3200 3197 3328 2828 
z
" id="DejaVuSans-6d" transform="scale(0.015625)"/>
      </defs>
      <use xlink:href="#DejaVuSans-4e"/>
      <use x="74.804688" xlink:href="#DejaVuSans-6f"/>
      <use x="135.986328" xlink:href="#DejaVuSans-72"/>
      <use x="177.099609" xlink:href="#DejaVuSans-74"/>
      <use x="216.308594" xlink:href="#DejaVuSans-68"/>
      <use x="279.6875" xlink:href="#DejaVuSans-20"/>
      <use x="311.474609" xlink:href="#DejaVuSans-41"/>
      <use x="379.882812" xlink:href="#DejaVuSans-6d"/>
      <use x="477.294922" xlink:href="#DejaVuSans-65"/>
      <use x="538.818359" xlink:href="#DejaVuSans-72"/>
      <use x="579.931641" xlink:href="#DejaVuSans-69"/>
      <use x="607.714844" xlink:href="#DejaVuSans-63"/>
      <use x="662.695312" xlink:href="#DejaVuSans-61"/>
     </g>
    </g>
    <g id="line2d_28">
     <path d="M 1065.97 41.16375 
L 1081.97 41.16375 
" style="fill:none;stroke:#525886;stroke-linecap:square;stroke-width:2;"/>
    </g>
    <g id="line2d_29"/>
    <g id="text_21">
     <!-- Africa -->
     <g transform="translate(1088.37 43.96375)scale(0.08 -0.08)">
      <defs>
       <path d="M 2375 4863 
L 2375 4384 
L 1825 4384 
Q 1516 4384 1395 4259 
Q 1275 4134 1275 3809 
L 1275 3500 
L 2222 3500 
L 2222 3053 
L 1275 3053 
L 1275 0 
L 697 0 
L 697 3053 
L 147 3053 
L 147 3500 
L 697 3500 
L 697 3744 
Q 697 4328 969 4595 
Q 1241 4863 1831 4863 
L 2375 4863 
z
" id="DejaVuSans-66" transform="scale(0.015625)"/>
      </defs>
      <use xlink:href="#DejaVuSans-41"/>
      <use x="64.783203" xlink:href="#DejaVuSans-66"/>
      <use x="99.988281" xlink:href="#DejaVuSans-72"/>
      <use x="141.101562" xlink:href="#DejaVuSans-69"/>
      <use x="168.884766" xlink:href="#DejaVuSans-63"/>
      <use x="223.865234" xlink:href="#DejaVuSans-61"/>
     </g>
    </g>
    <g id="line2d_30">
     <path d="M 1065.97 52.90625 
L 1081.97 52.90625 
" style="fill:none;stroke:#937252;stroke-linecap:square;stroke-width:2;"/>
    </g>
    <g id="line2d_31"/>
    <g id="text_22">
     <!-- Europe -->
     <g transform="translate(1088.37 55.70625)scale(0.08 -0.08)">
      <defs>
       <path d="M 628 4666 
L 3578 4666 
L 3578 4134 
L 1259 4134 
L 1259 2753 
L 3481 2753 
L 3481 2222 
L 1259 2222 
L 1259 531 
L 3634 531 
L 3634 0 
L 628 0 
L 628 4666 
z
" id="DejaVuSans-45" transform="scale(0.015625)"/>
       <path d="M 1159 525 
L 1159 -1331 
L 581 -1331 
L 581 3500 
L 1159 3500 
L 1159 2969 
Q 1341 3281 1617 3432 
Q 1894 3584 2278 3584 
Q 2916 3584 3314 3078 
Q 3713 2572 3713 1747 
Q 3713 922 3314 415 
Q 2916 -91 2278 -91 
Q 1894 -91 1617 61 
Q 1341 213 1159 525 
z
M 3116 1747 
Q 3116 2381 2855 2742 
Q 2594 3103 2138 3103 
Q 1681 3103 1420 2742 
Q 1159 2381 1159 1747 
Q 1159 1113 1420 752 
Q 1681 391 2138 391 
Q 2594 391 2855 752 
Q 3116 1113 3116 1747 
z
" id="DejaVuSans-70" transform="scale(0.015625)"/>
      </defs>
      <use xlink:href="#DejaVuSans-45"/>
      <use x="63.183594" xlink:href="#DejaVuSans-75"/>
      <use x="126.5625" xlink:href="#DejaVuSans-72"/>
      <use x="165.425781" xlink:href="#DejaVuSans-6f"/>
      <use x="226.607422" xlink:href="#DejaVuSans-70"/>
      <use x="290.083984" xlink:href="#DejaVuSans-65"/>
     </g>
    </g>
    <g id="line2d_32">
     <path d="M 1065.97 64.64875 
L 1081.97 64.64875 
" style="fill:none;stroke:#d18cad;stroke-linecap:square;stroke-width:2;"/>
    </g>
    <g id="line2d_33"/>
    <g id="text_23">
     <!-- South America -->
     <g transform="translate(1088.37 67.44875)scale(0.08 -0.08)">
      <defs>
       <path d="M 3425 4513 
L 3425 3897 
Q 3066 4069 2747 4153 
Q 2428 4238 2131 4238 
Q 1616 4238 1336 4038 
Q 1056 3838 1056 3469 
Q 1056 3159 1242 3001 
Q 1428 2844 1947 2747 
L 2328 2669 
Q 3034 2534 3370 2195 
Q 3706 1856 3706 1288 
Q 3706 609 3251 259 
Q 2797 -91 1919 -91 
Q 1588 -91 1214 -16 
Q 841 59 441 206 
L 441 856 
Q 825 641 1194 531 
Q 1563 422 1919 422 
Q 2459 422 2753 634 
Q 3047 847 3047 1241 
Q 3047 1584 2836 1778 
Q 2625 1972 2144 2069 
L 1759 2144 
Q 1053 2284 737 2584 
Q 422 2884 422 3419 
Q 422 4038 858 4394 
Q 1294 4750 2059 4750 
Q 2388 4750 2728 4690 
Q 3069 4631 3425 4513 
z
" id="DejaVuSans-53" transform="scale(0.015625)"/>
      </defs>
      <use xlink:href="#DejaVuSans-53"/>
      <use x="63.476562" xlink:href="#DejaVuSans-6f"/>
      <use x="124.658203" xlink:href="#DejaVuSans-75"/>
      <use x="188.037109" xlink:href="#DejaVuSans-74"/>
      <use x="227.246094" xlink:href="#DejaVuSans-68"/>
      <use x="290.625" xlink:href="#DejaVuSans-20"/>
      <use x="322.412109" xlink:href="#DejaVuSans-41"/>
      <use x="390.820312" xlink:href="#DejaVuSans-6d"/>
      <use x="488.232422" xlink:href="#DejaVuSans-65"/>
      <use x="549.755859" xlink:href="#DejaVuSans-72"/>
      <use x="590.869141" xlink:href="#DejaVuSans-69"/>
      <use x="618.652344" xlink:href="#DejaVuSans-63"/>
      <use x="673.632812" xlink:href="#DejaVuSans-61"/>
     </g>
    </g>
    <g id="line2d_34">
     <path d="M 1065.97 76.39125 
L 1081.97 76.39125 
" style="fill:none;stroke:#a4a86f;stroke-linecap:square;stroke-width:2;"/>
    </g>
    <g id="line2d_35"/>
    <g id="text_24">
     <!-- United Kingdom -->
     <g transform="translate(1088.37 79.19125)scale(0.08 -0.08)">
      <defs>
       <path d="M 556 4666 
L 1191 4666 
L 1191 1831 
Q 1191 1081 1462 751 
Q 1734 422 2344 422 
Q 2950 422 3222 751 
Q 3494 1081 3494 1831 
L 3494 4666 
L 4128 4666 
L 4128 1753 
Q 4128 841 3676 375 
Q 3225 -91 2344 -91 
Q 1459 -91 1007 375 
Q 556 841 556 1753 
L 556 4666 
z
" id="DejaVuSans-55" transform="scale(0.015625)"/>
       <path d="M 628 4666 
L 1259 4666 
L 1259 2694 
L 3353 4666 
L 4166 4666 
L 1850 2491 
L 4331 0 
L 3500 0 
L 1259 2247 
L 1259 0 
L 628 0 
L 628 4666 
z
" id="DejaVuSans-4b" transform="scale(0.015625)"/>
      </defs>
      <use xlink:href="#DejaVuSans-55"/>
      <use x="73.193359" xlink:href="#DejaVuSans-6e"/>
      <use x="136.572266" xlink:href="#DejaVuSans-69"/>
      <use x="164.355469" xlink:href="#DejaVuSans-74"/>
      <use x="203.564453" xlink:href="#DejaVuSans-65"/>
      <use x="265.087891" xlink:href="#DejaVuSans-64"/>
      <use x="328.564453" xlink:href="#DejaVuSans-20"/>
      <use x="360.351562" xlink:href="#DejaVuSans-4b"/>
      <use x="425.927734" xlink:href="#DejaVuSans-69"/>
      <use x="453.710938" xlink:href="#DejaVuSans-6e"/>
      <use x="517.089844" xlink:href="#DejaVuSans-67"/>
      <use x="580.566406" xlink:href="#DejaVuSans-64"/>
      <use x="644.042969" xlink:href="#DejaVuSans-6f"/>
      <use x="705.224609" xlink:href="#DejaVuSans-6d"/>
     </g>
    </g>
    <g id="line2d_36">
     <path d="M 1065.97 88.13375 
L 1081.97 88.13375 
" style="fill:none;stroke:#d3d3d3;stroke-linecap:square;stroke-width:2;"/>
    </g>
    <g id="line2d_37"/>
    <g id="text_25">
     <!-- Oceania -->
     <g transform="translate(1088.37 90.93375)scale(0.08 -0.08)">
      <defs>
       <path d="M 2522 4238 
Q 1834 4238 1429 3725 
Q 1025 3213 1025 2328 
Q 1025 1447 1429 934 
Q 1834 422 2522 422 
Q 3209 422 3611 934 
Q 4013 1447 4013 2328 
Q 4013 3213 3611 3725 
Q 3209 4238 2522 4238 
z
M 2522 4750 
Q 3503 4750 4090 4092 
Q 4678 3434 4678 2328 
Q 4678 1225 4090 567 
Q 3503 -91 2522 -91 
Q 1538 -91 948 565 
Q 359 1222 359 2328 
Q 359 3434 948 4092 
Q 1538 4750 2522 4750 
z
" id="DejaVuSans-4f" transform="scale(0.015625)"/>
      </defs>
      <use xlink:href="#DejaVuSans-4f"/>
      <use x="78.710938" xlink:href="#DejaVuSans-63"/>
      <use x="133.691406" xlink:href="#DejaVuSans-65"/>
      <use x="195.214844" xlink:href="#DejaVuSans-61"/>
      <use x="256.494141" xlink:href="#DejaVuSans-6e"/>
      <use x="319.873047" xlink:href="#DejaVuSans-69"/>
      <use x="347.65625" xlink:href="#DejaVuSans-61"/>
     </g>
    </g>
   </g>
  </g>
 </g>
 <defs>
  <clipPath id="pac61d45fa7">
   <rect height="221.76" width="1116" x="43.78125" y="7.2"/>
  </clipPath>
 </defs>
</svg>
