<?xml version="1.0" encoding="utf-8" standalone="no"?>
<!DOCTYPE svg PUBLIC "-//W3C//DTD SVG 1.1//EN"
  "http://www.w3.org/Graphics/SVG/1.1/DTD/svg11.dtd">
<!-- Created with matplotlib (https://matplotlib.org/) -->
<svg height="298.620937pt" version="1.1" viewBox="0 0 999.58125 298.620937" width="999.58125pt" xmlns="http://www.w3.org/2000/svg" xmlns:xlink="http://www.w3.org/1999/xlink">
 <metadata>
  <rdf:RDF xmlns:cc="http://creativecommons.org/ns#" xmlns:dc="http://purl.org/dc/elements/1.1/" xmlns:rdf="http://www.w3.org/1999/02/22-rdf-syntax-ns#">
   <cc:Work>
    <dc:type rdf:resource="http://purl.org/dc/dcmitype/StillImage"/>
    <dc:date>2021-06-04T16:06:56.261621</dc:date>
    <dc:format>image/svg+xml</dc:format>
    <dc:creator>
     <cc:Agent>
      <dc:title>Matplotlib v3.3.3, https://matplotlib.org/</dc:title>
     </cc:Agent>
    </dc:creator>
   </cc:Work>
  </rdf:RDF>
 </metadata>
 <defs>
  <style type="text/css">*{stroke-linecap:butt;stroke-linejoin:round;}</style>
 </defs>
 <g id="figure_1">
  <g id="patch_1">
   <path d="M 0 298.620937 
L 999.58125 298.620937 
L 999.58125 0 
L 0 0 
z
" style="fill:#ffffff;"/>
  </g>
  <g id="axes_1">
   <g id="patch_2">
    <path d="M 43.78125 228.96 
L 992.38125 228.96 
L 992.38125 7.2 
L 43.78125 7.2 
z
" style="fill:#ffffff;"/>
   </g>
   <g id="matplotlib.axis_1">
    <g id="xtick_1">
     <g id="line2d_1">
      <defs>
       <path d="M 0 0 
L 0 3.5 
" id="m5cbf7ac145" style="stroke:#000000;stroke-width:0.8;"/>
      </defs>
      <g>
       <use style="stroke:#000000;stroke-width:0.8;" x="47.401861" xlink:href="#m5cbf7ac145" y="228.96"/>
      </g>
     </g>
     <g id="text_1">
      <!-- 2020-09 -->
      <g transform="translate(50.161236 277.742812)rotate(-90)scale(0.1 -0.1)">
       <defs>
        <path d="M 19.1875 8.296875 
L 53.609375 8.296875 
L 53.609375 0 
L 7.328125 0 
L 7.328125 8.296875 
Q 12.9375 14.109375 22.625 23.890625 
Q 32.328125 33.6875 34.8125 36.53125 
Q 39.546875 41.84375 41.421875 45.53125 
Q 43.3125 49.21875 43.3125 52.78125 
Q 43.3125 58.59375 39.234375 62.25 
Q 35.15625 65.921875 28.609375 65.921875 
Q 23.96875 65.921875 18.8125 64.3125 
Q 13.671875 62.703125 7.8125 59.421875 
L 7.8125 69.390625 
Q 13.765625 71.78125 18.9375 73 
Q 24.125 74.21875 28.421875 74.21875 
Q 39.75 74.21875 46.484375 68.546875 
Q 53.21875 62.890625 53.21875 53.421875 
Q 53.21875 48.921875 51.53125 44.890625 
Q 49.859375 40.875 45.40625 35.40625 
Q 44.1875 33.984375 37.640625 27.21875 
Q 31.109375 20.453125 19.1875 8.296875 
z
" id="DejaVuSans-50"/>
        <path d="M 31.78125 66.40625 
Q 24.171875 66.40625 20.328125 58.90625 
Q 16.5 51.421875 16.5 36.375 
Q 16.5 21.390625 20.328125 13.890625 
Q 24.171875 6.390625 31.78125 6.390625 
Q 39.453125 6.390625 43.28125 13.890625 
Q 47.125 21.390625 47.125 36.375 
Q 47.125 51.421875 43.28125 58.90625 
Q 39.453125 66.40625 31.78125 66.40625 
z
M 31.78125 74.21875 
Q 44.046875 74.21875 50.515625 64.515625 
Q 56.984375 54.828125 56.984375 36.375 
Q 56.984375 17.96875 50.515625 8.265625 
Q 44.046875 -1.421875 31.78125 -1.421875 
Q 19.53125 -1.421875 13.0625 8.265625 
Q 6.59375 17.96875 6.59375 36.375 
Q 6.59375 54.828125 13.0625 64.515625 
Q 19.53125 74.21875 31.78125 74.21875 
z
" id="DejaVuSans-48"/>
        <path d="M 4.890625 31.390625 
L 31.203125 31.390625 
L 31.203125 23.390625 
L 4.890625 23.390625 
z
" id="DejaVuSans-45"/>
        <path d="M 10.984375 1.515625 
L 10.984375 10.5 
Q 14.703125 8.734375 18.5 7.8125 
Q 22.3125 6.890625 25.984375 6.890625 
Q 35.75 6.890625 40.890625 13.453125 
Q 46.046875 20.015625 46.78125 33.40625 
Q 43.953125 29.203125 39.59375 26.953125 
Q 35.25 24.703125 29.984375 24.703125 
Q 19.046875 24.703125 12.671875 31.3125 
Q 6.296875 37.9375 6.296875 49.421875 
Q 6.296875 60.640625 12.9375 67.421875 
Q 19.578125 74.21875 30.609375 74.21875 
Q 43.265625 74.21875 49.921875 64.515625 
Q 56.59375 54.828125 56.59375 36.375 
Q 56.59375 19.140625 48.40625 8.859375 
Q 40.234375 -1.421875 26.421875 -1.421875 
Q 22.703125 -1.421875 18.890625 -0.6875 
Q 15.09375 0.046875 10.984375 1.515625 
z
M 30.609375 32.421875 
Q 37.25 32.421875 41.125 36.953125 
Q 45.015625 41.5 45.015625 49.421875 
Q 45.015625 57.28125 41.125 61.84375 
Q 37.25 66.40625 30.609375 66.40625 
Q 23.96875 66.40625 20.09375 61.84375 
Q 16.21875 57.28125 16.21875 49.421875 
Q 16.21875 41.5 20.09375 36.953125 
Q 23.96875 32.421875 30.609375 32.421875 
z
" id="DejaVuSans-57"/>
       </defs>
       <use xlink:href="#DejaVuSans-50"/>
       <use x="63.623047" xlink:href="#DejaVuSans-48"/>
       <use x="127.246094" xlink:href="#DejaVuSans-50"/>
       <use x="190.869141" xlink:href="#DejaVuSans-48"/>
       <use x="254.492188" xlink:href="#DejaVuSans-45"/>
       <use x="290.576172" xlink:href="#DejaVuSans-48"/>
       <use x="354.199219" xlink:href="#DejaVuSans-57"/>
      </g>
     </g>
    </g>
    <g id="xtick_2">
     <g id="line2d_2">
      <g>
       <use style="stroke:#000000;stroke-width:0.8;" x="146.145789" xlink:href="#m5cbf7ac145" y="228.96"/>
      </g>
     </g>
     <g id="text_2">
      <!-- 2020-10 -->
      <g transform="translate(148.905164 277.742812)rotate(-90)scale(0.1 -0.1)">
       <defs>
        <path d="M 12.40625 8.296875 
L 28.515625 8.296875 
L 28.515625 63.921875 
L 10.984375 60.40625 
L 10.984375 69.390625 
L 28.421875 72.90625 
L 38.28125 72.90625 
L 38.28125 8.296875 
L 54.390625 8.296875 
L 54.390625 0 
L 12.40625 0 
z
" id="DejaVuSans-49"/>
       </defs>
       <use xlink:href="#DejaVuSans-50"/>
       <use x="63.623047" xlink:href="#DejaVuSans-48"/>
       <use x="127.246094" xlink:href="#DejaVuSans-50"/>
       <use x="190.869141" xlink:href="#DejaVuSans-48"/>
       <use x="254.492188" xlink:href="#DejaVuSans-45"/>
       <use x="290.576172" xlink:href="#DejaVuSans-49"/>
       <use x="354.199219" xlink:href="#DejaVuSans-48"/>
      </g>
     </g>
    </g>
    <g id="xtick_3">
     <g id="line2d_3">
      <g>
       <use style="stroke:#000000;stroke-width:0.8;" x="248.181181" xlink:href="#m5cbf7ac145" y="228.96"/>
      </g>
     </g>
     <g id="text_3">
      <!-- 2020-11 -->
      <g transform="translate(250.940556 277.742812)rotate(-90)scale(0.1 -0.1)">
       <use xlink:href="#DejaVuSans-50"/>
       <use x="63.623047" xlink:href="#DejaVuSans-48"/>
       <use x="127.246094" xlink:href="#DejaVuSans-50"/>
       <use x="190.869141" xlink:href="#DejaVuSans-48"/>
       <use x="254.492188" xlink:href="#DejaVuSans-45"/>
       <use x="290.576172" xlink:href="#DejaVuSans-49"/>
       <use x="354.199219" xlink:href="#DejaVuSans-49"/>
      </g>
     </g>
    </g>
    <g id="xtick_4">
     <g id="line2d_4">
      <g>
       <use style="stroke:#000000;stroke-width:0.8;" x="346.925108" xlink:href="#m5cbf7ac145" y="228.96"/>
      </g>
     </g>
     <g id="text_4">
      <!-- 2020-12 -->
      <g transform="translate(349.684483 277.742812)rotate(-90)scale(0.1 -0.1)">
       <use xlink:href="#DejaVuSans-50"/>
       <use x="63.623047" xlink:href="#DejaVuSans-48"/>
       <use x="127.246094" xlink:href="#DejaVuSans-50"/>
       <use x="190.869141" xlink:href="#DejaVuSans-48"/>
       <use x="254.492188" xlink:href="#DejaVuSans-45"/>
       <use x="290.576172" xlink:href="#DejaVuSans-49"/>
       <use x="354.199219" xlink:href="#DejaVuSans-50"/>
      </g>
     </g>
    </g>
    <g id="xtick_5">
     <g id="line2d_5">
      <g>
       <use style="stroke:#000000;stroke-width:0.8;" x="448.960501" xlink:href="#m5cbf7ac145" y="228.96"/>
      </g>
     </g>
     <g id="text_5">
      <!-- 2021-01 -->
      <g transform="translate(451.719876 277.742812)rotate(-90)scale(0.1 -0.1)">
       <use xlink:href="#DejaVuSans-50"/>
       <use x="63.623047" xlink:href="#DejaVuSans-48"/>
       <use x="127.246094" xlink:href="#DejaVuSans-50"/>
       <use x="190.869141" xlink:href="#DejaVuSans-49"/>
       <use x="254.492188" xlink:href="#DejaVuSans-45"/>
       <use x="290.576172" xlink:href="#DejaVuSans-48"/>
       <use x="354.199219" xlink:href="#DejaVuSans-49"/>
      </g>
     </g>
    </g>
    <g id="xtick_6">
     <g id="line2d_6">
      <g>
       <use style="stroke:#000000;stroke-width:0.8;" x="550.995893" xlink:href="#m5cbf7ac145" y="228.96"/>
      </g>
     </g>
     <g id="text_6">
      <!-- 2021-02 -->
      <g transform="translate(553.755268 277.742812)rotate(-90)scale(0.1 -0.1)">
       <use xlink:href="#DejaVuSans-50"/>
       <use x="63.623047" xlink:href="#DejaVuSans-48"/>
       <use x="127.246094" xlink:href="#DejaVuSans-50"/>
       <use x="190.869141" xlink:href="#DejaVuSans-49"/>
       <use x="254.492188" xlink:href="#DejaVuSans-45"/>
       <use x="290.576172" xlink:href="#DejaVuSans-48"/>
       <use x="354.199219" xlink:href="#DejaVuSans-50"/>
      </g>
     </g>
    </g>
    <g id="xtick_7">
     <g id="line2d_7">
      <g>
       <use style="stroke:#000000;stroke-width:0.8;" x="643.156892" xlink:href="#m5cbf7ac145" y="228.96"/>
      </g>
     </g>
     <g id="text_7">
      <!-- 2021-03 -->
      <g transform="translate(645.916267 277.742812)rotate(-90)scale(0.1 -0.1)">
       <defs>
        <path d="M 40.578125 39.3125 
Q 47.65625 37.796875 51.625 33 
Q 55.609375 28.21875 55.609375 21.1875 
Q 55.609375 10.40625 48.1875 4.484375 
Q 40.765625 -1.421875 27.09375 -1.421875 
Q 22.515625 -1.421875 17.65625 -0.515625 
Q 12.796875 0.390625 7.625 2.203125 
L 7.625 11.71875 
Q 11.71875 9.328125 16.59375 8.109375 
Q 21.484375 6.890625 26.8125 6.890625 
Q 36.078125 6.890625 40.9375 10.546875 
Q 45.796875 14.203125 45.796875 21.1875 
Q 45.796875 27.640625 41.28125 31.265625 
Q 36.765625 34.90625 28.71875 34.90625 
L 20.21875 34.90625 
L 20.21875 43.015625 
L 29.109375 43.015625 
Q 36.375 43.015625 40.234375 45.921875 
Q 44.09375 48.828125 44.09375 54.296875 
Q 44.09375 59.90625 40.109375 62.90625 
Q 36.140625 65.921875 28.71875 65.921875 
Q 24.65625 65.921875 20.015625 65.03125 
Q 15.375 64.15625 9.8125 62.3125 
L 9.8125 71.09375 
Q 15.4375 72.65625 20.34375 73.4375 
Q 25.25 74.21875 29.59375 74.21875 
Q 40.828125 74.21875 47.359375 69.109375 
Q 53.90625 64.015625 53.90625 55.328125 
Q 53.90625 49.265625 50.4375 45.09375 
Q 46.96875 40.921875 40.578125 39.3125 
z
" id="DejaVuSans-51"/>
       </defs>
       <use xlink:href="#DejaVuSans-50"/>
       <use x="63.623047" xlink:href="#DejaVuSans-48"/>
       <use x="127.246094" xlink:href="#DejaVuSans-50"/>
       <use x="190.869141" xlink:href="#DejaVuSans-49"/>
       <use x="254.492188" xlink:href="#DejaVuSans-45"/>
       <use x="290.576172" xlink:href="#DejaVuSans-48"/>
       <use x="354.199219" xlink:href="#DejaVuSans-51"/>
      </g>
     </g>
    </g>
    <g id="xtick_8">
     <g id="line2d_8">
      <g>
       <use style="stroke:#000000;stroke-width:0.8;" x="745.192284" xlink:href="#m5cbf7ac145" y="228.96"/>
      </g>
     </g>
     <g id="text_8">
      <!-- 2021-04 -->
      <g transform="translate(747.951659 277.742812)rotate(-90)scale(0.1 -0.1)">
       <defs>
        <path d="M 37.796875 64.3125 
L 12.890625 25.390625 
L 37.796875 25.390625 
z
M 35.203125 72.90625 
L 47.609375 72.90625 
L 47.609375 25.390625 
L 58.015625 25.390625 
L 58.015625 17.1875 
L 47.609375 17.1875 
L 47.609375 0 
L 37.796875 0 
L 37.796875 17.1875 
L 4.890625 17.1875 
L 4.890625 26.703125 
z
" id="DejaVuSans-52"/>
       </defs>
       <use xlink:href="#DejaVuSans-50"/>
       <use x="63.623047" xlink:href="#DejaVuSans-48"/>
       <use x="127.246094" xlink:href="#DejaVuSans-50"/>
       <use x="190.869141" xlink:href="#DejaVuSans-49"/>
       <use x="254.492188" xlink:href="#DejaVuSans-45"/>
       <use x="290.576172" xlink:href="#DejaVuSans-48"/>
       <use x="354.199219" xlink:href="#DejaVuSans-52"/>
      </g>
     </g>
    </g>
    <g id="xtick_9">
     <g id="line2d_9">
      <g>
       <use style="stroke:#000000;stroke-width:0.8;" x="843.936212" xlink:href="#m5cbf7ac145" y="228.96"/>
      </g>
     </g>
     <g id="text_9">
      <!-- 2021-05 -->
      <g transform="translate(846.695587 277.742812)rotate(-90)scale(0.1 -0.1)">
       <defs>
        <path d="M 10.796875 72.90625 
L 49.515625 72.90625 
L 49.515625 64.59375 
L 19.828125 64.59375 
L 19.828125 46.734375 
Q 21.96875 47.46875 24.109375 47.828125 
Q 26.265625 48.1875 28.421875 48.1875 
Q 40.625 48.1875 47.75 41.5 
Q 54.890625 34.8125 54.890625 23.390625 
Q 54.890625 11.625 47.5625 5.09375 
Q 40.234375 -1.421875 26.90625 -1.421875 
Q 22.3125 -1.421875 17.546875 -0.640625 
Q 12.796875 0.140625 7.71875 1.703125 
L 7.71875 11.625 
Q 12.109375 9.234375 16.796875 8.0625 
Q 21.484375 6.890625 26.703125 6.890625 
Q 35.15625 6.890625 40.078125 11.328125 
Q 45.015625 15.765625 45.015625 23.390625 
Q 45.015625 31 40.078125 35.4375 
Q 35.15625 39.890625 26.703125 39.890625 
Q 22.75 39.890625 18.8125 39.015625 
Q 14.890625 38.140625 10.796875 36.28125 
z
" id="DejaVuSans-53"/>
       </defs>
       <use xlink:href="#DejaVuSans-50"/>
       <use x="63.623047" xlink:href="#DejaVuSans-48"/>
       <use x="127.246094" xlink:href="#DejaVuSans-50"/>
       <use x="190.869141" xlink:href="#DejaVuSans-49"/>
       <use x="254.492188" xlink:href="#DejaVuSans-45"/>
       <use x="290.576172" xlink:href="#DejaVuSans-48"/>
       <use x="354.199219" xlink:href="#DejaVuSans-53"/>
      </g>
     </g>
    </g>
    <g id="xtick_10">
     <g id="line2d_10">
      <g>
       <use style="stroke:#000000;stroke-width:0.8;" x="945.971604" xlink:href="#m5cbf7ac145" y="228.96"/>
      </g>
     </g>
     <g id="text_10">
      <!-- 2021-06 -->
      <g transform="translate(948.730979 277.742812)rotate(-90)scale(0.1 -0.1)">
       <defs>
        <path d="M 33.015625 40.375 
Q 26.375 40.375 22.484375 35.828125 
Q 18.609375 31.296875 18.609375 23.390625 
Q 18.609375 15.53125 22.484375 10.953125 
Q 26.375 6.390625 33.015625 6.390625 
Q 39.65625 6.390625 43.53125 10.953125 
Q 47.40625 15.53125 47.40625 23.390625 
Q 47.40625 31.296875 43.53125 35.828125 
Q 39.65625 40.375 33.015625 40.375 
z
M 52.59375 71.296875 
L 52.59375 62.3125 
Q 48.875 64.0625 45.09375 64.984375 
Q 41.3125 65.921875 37.59375 65.921875 
Q 27.828125 65.921875 22.671875 59.328125 
Q 17.53125 52.734375 16.796875 39.40625 
Q 19.671875 43.65625 24.015625 45.921875 
Q 28.375 48.1875 33.59375 48.1875 
Q 44.578125 48.1875 50.953125 41.515625 
Q 57.328125 34.859375 57.328125 23.390625 
Q 57.328125 12.15625 50.6875 5.359375 
Q 44.046875 -1.421875 33.015625 -1.421875 
Q 20.359375 -1.421875 13.671875 8.265625 
Q 6.984375 17.96875 6.984375 36.375 
Q 6.984375 53.65625 15.1875 63.9375 
Q 23.390625 74.21875 37.203125 74.21875 
Q 40.921875 74.21875 44.703125 73.484375 
Q 48.484375 72.75 52.59375 71.296875 
z
" id="DejaVuSans-54"/>
       </defs>
       <use xlink:href="#DejaVuSans-50"/>
       <use x="63.623047" xlink:href="#DejaVuSans-48"/>
       <use x="127.246094" xlink:href="#DejaVuSans-50"/>
       <use x="190.869141" xlink:href="#DejaVuSans-49"/>
       <use x="254.492188" xlink:href="#DejaVuSans-45"/>
       <use x="290.576172" xlink:href="#DejaVuSans-48"/>
       <use x="354.199219" xlink:href="#DejaVuSans-54"/>
      </g>
     </g>
    </g>
    <g id="text_11">
     <!-- Date -->
     <g transform="translate(506.130469 289.34125)scale(0.1 -0.1)">
      <defs>
       <path d="M 19.671875 64.796875 
L 19.671875 8.109375 
L 31.59375 8.109375 
Q 46.6875 8.109375 53.6875 14.9375 
Q 60.6875 21.78125 60.6875 36.53125 
Q 60.6875 51.171875 53.6875 57.984375 
Q 46.6875 64.796875 31.59375 64.796875 
z
M 9.8125 72.90625 
L 30.078125 72.90625 
Q 51.265625 72.90625 61.171875 64.09375 
Q 71.09375 55.28125 71.09375 36.53125 
Q 71.09375 17.671875 61.125 8.828125 
Q 51.171875 0 30.078125 0 
L 9.8125 0 
z
" id="DejaVuSans-68"/>
       <path d="M 34.28125 27.484375 
Q 23.390625 27.484375 19.1875 25 
Q 14.984375 22.515625 14.984375 16.5 
Q 14.984375 11.71875 18.140625 8.90625 
Q 21.296875 6.109375 26.703125 6.109375 
Q 34.1875 6.109375 38.703125 11.40625 
Q 43.21875 16.703125 43.21875 25.484375 
L 43.21875 27.484375 
z
M 52.203125 31.203125 
L 52.203125 0 
L 43.21875 0 
L 43.21875 8.296875 
Q 40.140625 3.328125 35.546875 0.953125 
Q 30.953125 -1.421875 24.3125 -1.421875 
Q 15.921875 -1.421875 10.953125 3.296875 
Q 6 8.015625 6 15.921875 
Q 6 25.140625 12.171875 29.828125 
Q 18.359375 34.515625 30.609375 34.515625 
L 43.21875 34.515625 
L 43.21875 35.40625 
Q 43.21875 41.609375 39.140625 45 
Q 35.0625 48.390625 27.6875 48.390625 
Q 23 48.390625 18.546875 47.265625 
Q 14.109375 46.140625 10.015625 43.890625 
L 10.015625 52.203125 
Q 14.9375 54.109375 19.578125 55.046875 
Q 24.21875 56 28.609375 56 
Q 40.484375 56 46.34375 49.84375 
Q 52.203125 43.703125 52.203125 31.203125 
z
" id="DejaVuSans-97"/>
       <path d="M 18.3125 70.21875 
L 18.3125 54.6875 
L 36.8125 54.6875 
L 36.8125 47.703125 
L 18.3125 47.703125 
L 18.3125 18.015625 
Q 18.3125 11.328125 20.140625 9.421875 
Q 21.96875 7.515625 27.59375 7.515625 
L 36.8125 7.515625 
L 36.8125 0 
L 27.59375 0 
Q 17.1875 0 13.234375 3.875 
Q 9.28125 7.765625 9.28125 18.015625 
L 9.28125 47.703125 
L 2.6875 47.703125 
L 2.6875 54.6875 
L 9.28125 54.6875 
L 9.28125 70.21875 
z
" id="DejaVuSans-116"/>
       <path d="M 56.203125 29.59375 
L 56.203125 25.203125 
L 14.890625 25.203125 
Q 15.484375 15.921875 20.484375 11.0625 
Q 25.484375 6.203125 34.421875 6.203125 
Q 39.59375 6.203125 44.453125 7.46875 
Q 49.3125 8.734375 54.109375 11.28125 
L 54.109375 2.78125 
Q 49.265625 0.734375 44.1875 -0.34375 
Q 39.109375 -1.421875 33.890625 -1.421875 
Q 20.796875 -1.421875 13.15625 6.1875 
Q 5.515625 13.8125 5.515625 26.8125 
Q 5.515625 40.234375 12.765625 48.109375 
Q 20.015625 56 32.328125 56 
Q 43.359375 56 49.78125 48.890625 
Q 56.203125 41.796875 56.203125 29.59375 
z
M 47.21875 32.234375 
Q 47.125 39.59375 43.09375 43.984375 
Q 39.0625 48.390625 32.421875 48.390625 
Q 24.90625 48.390625 20.390625 44.140625 
Q 15.875 39.890625 15.1875 32.171875 
z
" id="DejaVuSans-101"/>
      </defs>
      <use xlink:href="#DejaVuSans-68"/>
      <use x="77.001953" xlink:href="#DejaVuSans-97"/>
      <use x="138.28125" xlink:href="#DejaVuSans-116"/>
      <use x="177.490234" xlink:href="#DejaVuSans-101"/>
     </g>
    </g>
   </g>
   <g id="matplotlib.axis_2">
    <g id="ytick_1">
     <g id="line2d_11">
      <defs>
       <path d="M 0 0 
L -3.5 0 
" id="m0a3fa7d7b1" style="stroke:#000000;stroke-width:0.8;"/>
      </defs>
      <g>
       <use style="stroke:#000000;stroke-width:0.8;" x="43.78125" xlink:href="#m0a3fa7d7b1" y="228.96"/>
      </g>
     </g>
     <g id="text_12">
      <!-- 0.0 -->
      <g transform="translate(20.878125 232.759219)scale(0.1 -0.1)">
       <defs>
        <path d="M 10.6875 12.40625 
L 21 12.40625 
L 21 0 
L 10.6875 0 
z
" id="DejaVuSans-46"/>
       </defs>
       <use xlink:href="#DejaVuSans-48"/>
       <use x="63.623047" xlink:href="#DejaVuSans-46"/>
       <use x="95.410156" xlink:href="#DejaVuSans-48"/>
      </g>
     </g>
    </g>
    <g id="ytick_2">
     <g id="line2d_12">
      <g>
       <use style="stroke:#000000;stroke-width:0.8;" x="43.78125" xlink:href="#m0a3fa7d7b1" y="186.235763"/>
      </g>
     </g>
     <g id="text_13">
      <!-- 0.2 -->
      <g transform="translate(20.878125 190.034982)scale(0.1 -0.1)">
       <use xlink:href="#DejaVuSans-48"/>
       <use x="63.623047" xlink:href="#DejaVuSans-46"/>
       <use x="95.410156" xlink:href="#DejaVuSans-50"/>
      </g>
     </g>
    </g>
    <g id="ytick_3">
     <g id="line2d_13">
      <g>
       <use style="stroke:#000000;stroke-width:0.8;" x="43.78125" xlink:href="#m0a3fa7d7b1" y="143.511526"/>
      </g>
     </g>
     <g id="text_14">
      <!-- 0.4 -->
      <g transform="translate(20.878125 147.310745)scale(0.1 -0.1)">
       <use xlink:href="#DejaVuSans-48"/>
       <use x="63.623047" xlink:href="#DejaVuSans-46"/>
       <use x="95.410156" xlink:href="#DejaVuSans-52"/>
      </g>
     </g>
    </g>
    <g id="ytick_4">
     <g id="line2d_14">
      <g>
       <use style="stroke:#000000;stroke-width:0.8;" x="43.78125" xlink:href="#m0a3fa7d7b1" y="100.78729"/>
      </g>
     </g>
     <g id="text_15">
      <!-- 0.6 -->
      <g transform="translate(20.878125 104.586508)scale(0.1 -0.1)">
       <use xlink:href="#DejaVuSans-48"/>
       <use x="63.623047" xlink:href="#DejaVuSans-46"/>
       <use x="95.410156" xlink:href="#DejaVuSans-54"/>
      </g>
     </g>
    </g>
    <g id="ytick_5">
     <g id="line2d_15">
      <g>
       <use style="stroke:#000000;stroke-width:0.8;" x="43.78125" xlink:href="#m0a3fa7d7b1" y="58.063053"/>
      </g>
     </g>
     <g id="text_16">
      <!-- 0.8 -->
      <g transform="translate(20.878125 61.862272)scale(0.1 -0.1)">
       <defs>
        <path d="M 31.78125 34.625 
Q 24.75 34.625 20.71875 30.859375 
Q 16.703125 27.09375 16.703125 20.515625 
Q 16.703125 13.921875 20.71875 10.15625 
Q 24.75 6.390625 31.78125 6.390625 
Q 38.8125 6.390625 42.859375 10.171875 
Q 46.921875 13.96875 46.921875 20.515625 
Q 46.921875 27.09375 42.890625 30.859375 
Q 38.875 34.625 31.78125 34.625 
z
M 21.921875 38.8125 
Q 15.578125 40.375 12.03125 44.71875 
Q 8.5 49.078125 8.5 55.328125 
Q 8.5 64.0625 14.71875 69.140625 
Q 20.953125 74.21875 31.78125 74.21875 
Q 42.671875 74.21875 48.875 69.140625 
Q 55.078125 64.0625 55.078125 55.328125 
Q 55.078125 49.078125 51.53125 44.71875 
Q 48 40.375 41.703125 38.8125 
Q 48.828125 37.15625 52.796875 32.3125 
Q 56.78125 27.484375 56.78125 20.515625 
Q 56.78125 9.90625 50.3125 4.234375 
Q 43.84375 -1.421875 31.78125 -1.421875 
Q 19.734375 -1.421875 13.25 4.234375 
Q 6.78125 9.90625 6.78125 20.515625 
Q 6.78125 27.484375 10.78125 32.3125 
Q 14.796875 37.15625 21.921875 38.8125 
z
M 18.3125 54.390625 
Q 18.3125 48.734375 21.84375 45.5625 
Q 25.390625 42.390625 31.78125 42.390625 
Q 38.140625 42.390625 41.71875 45.5625 
Q 45.3125 48.734375 45.3125 54.390625 
Q 45.3125 60.0625 41.71875 63.234375 
Q 38.140625 66.40625 31.78125 66.40625 
Q 25.390625 66.40625 21.84375 63.234375 
Q 18.3125 60.0625 18.3125 54.390625 
z
" id="DejaVuSans-56"/>
       </defs>
       <use xlink:href="#DejaVuSans-48"/>
       <use x="63.623047" xlink:href="#DejaVuSans-46"/>
       <use x="95.410156" xlink:href="#DejaVuSans-56"/>
      </g>
     </g>
    </g>
    <g id="ytick_6">
     <g id="line2d_16">
      <g>
       <use style="stroke:#000000;stroke-width:0.8;" x="43.78125" xlink:href="#m0a3fa7d7b1" y="15.338816"/>
      </g>
     </g>
     <g id="text_17">
      <!-- 1.0 -->
      <g transform="translate(20.878125 19.138035)scale(0.1 -0.1)">
       <use xlink:href="#DejaVuSans-49"/>
       <use x="63.623047" xlink:href="#DejaVuSans-46"/>
       <use x="95.410156" xlink:href="#DejaVuSans-48"/>
      </g>
     </g>
    </g>
    <g id="text_18">
     <!-- Frequency (7 day rolling average) -->
     <g transform="translate(14.798437 202.529219)rotate(-90)scale(0.1 -0.1)">
      <defs>
       <path d="M 9.8125 72.90625 
L 51.703125 72.90625 
L 51.703125 64.59375 
L 19.671875 64.59375 
L 19.671875 43.109375 
L 48.578125 43.109375 
L 48.578125 34.8125 
L 19.671875 34.8125 
L 19.671875 0 
L 9.8125 0 
z
" id="DejaVuSans-70"/>
       <path d="M 41.109375 46.296875 
Q 39.59375 47.171875 37.8125 47.578125 
Q 36.03125 48 33.890625 48 
Q 26.265625 48 22.1875 43.046875 
Q 18.109375 38.09375 18.109375 28.8125 
L 18.109375 0 
L 9.078125 0 
L 9.078125 54.6875 
L 18.109375 54.6875 
L 18.109375 46.1875 
Q 20.953125 51.171875 25.484375 53.578125 
Q 30.03125 56 36.53125 56 
Q 37.453125 56 38.578125 55.875 
Q 39.703125 55.765625 41.0625 55.515625 
z
" id="DejaVuSans-114"/>
       <path d="M 14.796875 27.296875 
Q 14.796875 17.390625 18.875 11.75 
Q 22.953125 6.109375 30.078125 6.109375 
Q 37.203125 6.109375 41.296875 11.75 
Q 45.40625 17.390625 45.40625 27.296875 
Q 45.40625 37.203125 41.296875 42.84375 
Q 37.203125 48.484375 30.078125 48.484375 
Q 22.953125 48.484375 18.875 42.84375 
Q 14.796875 37.203125 14.796875 27.296875 
z
M 45.40625 8.203125 
Q 42.578125 3.328125 38.25 0.953125 
Q 33.9375 -1.421875 27.875 -1.421875 
Q 17.96875 -1.421875 11.734375 6.484375 
Q 5.515625 14.40625 5.515625 27.296875 
Q 5.515625 40.1875 11.734375 48.09375 
Q 17.96875 56 27.875 56 
Q 33.9375 56 38.25 53.625 
Q 42.578125 51.265625 45.40625 46.390625 
L 45.40625 54.6875 
L 54.390625 54.6875 
L 54.390625 -20.796875 
L 45.40625 -20.796875 
z
" id="DejaVuSans-113"/>
       <path d="M 8.5 21.578125 
L 8.5 54.6875 
L 17.484375 54.6875 
L 17.484375 21.921875 
Q 17.484375 14.15625 20.5 10.265625 
Q 23.53125 6.390625 29.59375 6.390625 
Q 36.859375 6.390625 41.078125 11.03125 
Q 45.3125 15.671875 45.3125 23.6875 
L 45.3125 54.6875 
L 54.296875 54.6875 
L 54.296875 0 
L 45.3125 0 
L 45.3125 8.40625 
Q 42.046875 3.421875 37.71875 1 
Q 33.40625 -1.421875 27.6875 -1.421875 
Q 18.265625 -1.421875 13.375 4.4375 
Q 8.5 10.296875 8.5 21.578125 
z
M 31.109375 56 
z
" id="DejaVuSans-117"/>
       <path d="M 54.890625 33.015625 
L 54.890625 0 
L 45.90625 0 
L 45.90625 32.71875 
Q 45.90625 40.484375 42.875 44.328125 
Q 39.84375 48.1875 33.796875 48.1875 
Q 26.515625 48.1875 22.3125 43.546875 
Q 18.109375 38.921875 18.109375 30.90625 
L 18.109375 0 
L 9.078125 0 
L 9.078125 54.6875 
L 18.109375 54.6875 
L 18.109375 46.1875 
Q 21.34375 51.125 25.703125 53.5625 
Q 30.078125 56 35.796875 56 
Q 45.21875 56 50.046875 50.171875 
Q 54.890625 44.34375 54.890625 33.015625 
z
" id="DejaVuSans-110"/>
       <path d="M 48.78125 52.59375 
L 48.78125 44.1875 
Q 44.96875 46.296875 41.140625 47.34375 
Q 37.3125 48.390625 33.40625 48.390625 
Q 24.65625 48.390625 19.8125 42.84375 
Q 14.984375 37.3125 14.984375 27.296875 
Q 14.984375 17.28125 19.8125 11.734375 
Q 24.65625 6.203125 33.40625 6.203125 
Q 37.3125 6.203125 41.140625 7.25 
Q 44.96875 8.296875 48.78125 10.40625 
L 48.78125 2.09375 
Q 45.015625 0.34375 40.984375 -0.53125 
Q 36.96875 -1.421875 32.421875 -1.421875 
Q 20.0625 -1.421875 12.78125 6.34375 
Q 5.515625 14.109375 5.515625 27.296875 
Q 5.515625 40.671875 12.859375 48.328125 
Q 20.21875 56 33.015625 56 
Q 37.15625 56 41.109375 55.140625 
Q 45.0625 54.296875 48.78125 52.59375 
z
" id="DejaVuSans-99"/>
       <path d="M 32.171875 -5.078125 
Q 28.375 -14.84375 24.75 -17.8125 
Q 21.140625 -20.796875 15.09375 -20.796875 
L 7.90625 -20.796875 
L 7.90625 -13.28125 
L 13.1875 -13.28125 
Q 16.890625 -13.28125 18.9375 -11.515625 
Q 21 -9.765625 23.484375 -3.21875 
L 25.09375 0.875 
L 2.984375 54.6875 
L 12.5 54.6875 
L 29.59375 11.921875 
L 46.6875 54.6875 
L 56.203125 54.6875 
z
" id="DejaVuSans-121"/>
       <path id="DejaVuSans-32"/>
       <path d="M 31 75.875 
Q 24.46875 64.65625 21.28125 53.65625 
Q 18.109375 42.671875 18.109375 31.390625 
Q 18.109375 20.125 21.3125 9.0625 
Q 24.515625 -2 31 -13.1875 
L 23.1875 -13.1875 
Q 15.875 -1.703125 12.234375 9.375 
Q 8.59375 20.453125 8.59375 31.390625 
Q 8.59375 42.28125 12.203125 53.3125 
Q 15.828125 64.359375 23.1875 75.875 
z
" id="DejaVuSans-40"/>
       <path d="M 8.203125 72.90625 
L 55.078125 72.90625 
L 55.078125 68.703125 
L 28.609375 0 
L 18.3125 0 
L 43.21875 64.59375 
L 8.203125 64.59375 
z
" id="DejaVuSans-55"/>
       <path d="M 45.40625 46.390625 
L 45.40625 75.984375 
L 54.390625 75.984375 
L 54.390625 0 
L 45.40625 0 
L 45.40625 8.203125 
Q 42.578125 3.328125 38.25 0.953125 
Q 33.9375 -1.421875 27.875 -1.421875 
Q 17.96875 -1.421875 11.734375 6.484375 
Q 5.515625 14.40625 5.515625 27.296875 
Q 5.515625 40.1875 11.734375 48.09375 
Q 17.96875 56 27.875 56 
Q 33.9375 56 38.25 53.625 
Q 42.578125 51.265625 45.40625 46.390625 
z
M 14.796875 27.296875 
Q 14.796875 17.390625 18.875 11.75 
Q 22.953125 6.109375 30.078125 6.109375 
Q 37.203125 6.109375 41.296875 11.75 
Q 45.40625 17.390625 45.40625 27.296875 
Q 45.40625 37.203125 41.296875 42.84375 
Q 37.203125 48.484375 30.078125 48.484375 
Q 22.953125 48.484375 18.875 42.84375 
Q 14.796875 37.203125 14.796875 27.296875 
z
" id="DejaVuSans-100"/>
       <path d="M 30.609375 48.390625 
Q 23.390625 48.390625 19.1875 42.75 
Q 14.984375 37.109375 14.984375 27.296875 
Q 14.984375 17.484375 19.15625 11.84375 
Q 23.34375 6.203125 30.609375 6.203125 
Q 37.796875 6.203125 41.984375 11.859375 
Q 46.1875 17.53125 46.1875 27.296875 
Q 46.1875 37.015625 41.984375 42.703125 
Q 37.796875 48.390625 30.609375 48.390625 
z
M 30.609375 56 
Q 42.328125 56 49.015625 48.375 
Q 55.71875 40.765625 55.71875 27.296875 
Q 55.71875 13.875 49.015625 6.21875 
Q 42.328125 -1.421875 30.609375 -1.421875 
Q 18.84375 -1.421875 12.171875 6.21875 
Q 5.515625 13.875 5.515625 27.296875 
Q 5.515625 40.765625 12.171875 48.375 
Q 18.84375 56 30.609375 56 
z
" id="DejaVuSans-111"/>
       <path d="M 9.421875 75.984375 
L 18.40625 75.984375 
L 18.40625 0 
L 9.421875 0 
z
" id="DejaVuSans-108"/>
       <path d="M 9.421875 54.6875 
L 18.40625 54.6875 
L 18.40625 0 
L 9.421875 0 
z
M 9.421875 75.984375 
L 18.40625 75.984375 
L 18.40625 64.59375 
L 9.421875 64.59375 
z
" id="DejaVuSans-105"/>
       <path d="M 45.40625 27.984375 
Q 45.40625 37.75 41.375 43.109375 
Q 37.359375 48.484375 30.078125 48.484375 
Q 22.859375 48.484375 18.828125 43.109375 
Q 14.796875 37.75 14.796875 27.984375 
Q 14.796875 18.265625 18.828125 12.890625 
Q 22.859375 7.515625 30.078125 7.515625 
Q 37.359375 7.515625 41.375 12.890625 
Q 45.40625 18.265625 45.40625 27.984375 
z
M 54.390625 6.78125 
Q 54.390625 -7.171875 48.1875 -13.984375 
Q 42 -20.796875 29.203125 -20.796875 
Q 24.46875 -20.796875 20.265625 -20.09375 
Q 16.0625 -19.390625 12.109375 -17.921875 
L 12.109375 -9.1875 
Q 16.0625 -11.328125 19.921875 -12.34375 
Q 23.78125 -13.375 27.78125 -13.375 
Q 36.625 -13.375 41.015625 -8.765625 
Q 45.40625 -4.15625 45.40625 5.171875 
L 45.40625 9.625 
Q 42.625 4.78125 38.28125 2.390625 
Q 33.9375 0 27.875 0 
Q 17.828125 0 11.671875 7.65625 
Q 5.515625 15.328125 5.515625 27.984375 
Q 5.515625 40.671875 11.671875 48.328125 
Q 17.828125 56 27.875 56 
Q 33.9375 56 38.28125 53.609375 
Q 42.625 51.21875 45.40625 46.390625 
L 45.40625 54.6875 
L 54.390625 54.6875 
z
" id="DejaVuSans-103"/>
       <path d="M 2.984375 54.6875 
L 12.5 54.6875 
L 29.59375 8.796875 
L 46.6875 54.6875 
L 56.203125 54.6875 
L 35.6875 0 
L 23.484375 0 
z
" id="DejaVuSans-118"/>
       <path d="M 8.015625 75.875 
L 15.828125 75.875 
Q 23.140625 64.359375 26.78125 53.3125 
Q 30.421875 42.28125 30.421875 31.390625 
Q 30.421875 20.453125 26.78125 9.375 
Q 23.140625 -1.703125 15.828125 -13.1875 
L 8.015625 -13.1875 
Q 14.5 -2 17.703125 9.0625 
Q 20.90625 20.125 20.90625 31.390625 
Q 20.90625 42.671875 17.703125 53.65625 
Q 14.5 64.65625 8.015625 75.875 
z
" id="DejaVuSans-41"/>
      </defs>
      <use xlink:href="#DejaVuSans-70"/>
      <use x="50.269531" xlink:href="#DejaVuSans-114"/>
      <use x="89.132812" xlink:href="#DejaVuSans-101"/>
      <use x="150.65625" xlink:href="#DejaVuSans-113"/>
      <use x="214.132812" xlink:href="#DejaVuSans-117"/>
      <use x="277.511719" xlink:href="#DejaVuSans-101"/>
      <use x="339.035156" xlink:href="#DejaVuSans-110"/>
      <use x="402.414062" xlink:href="#DejaVuSans-99"/>
      <use x="457.394531" xlink:href="#DejaVuSans-121"/>
      <use x="516.574219" xlink:href="#DejaVuSans-32"/>
      <use x="548.361328" xlink:href="#DejaVuSans-40"/>
      <use x="587.375" xlink:href="#DejaVuSans-55"/>
      <use x="650.998047" xlink:href="#DejaVuSans-32"/>
      <use x="682.785156" xlink:href="#DejaVuSans-100"/>
      <use x="746.261719" xlink:href="#DejaVuSans-97"/>
      <use x="807.541016" xlink:href="#DejaVuSans-121"/>
      <use x="866.720703" xlink:href="#DejaVuSans-32"/>
      <use x="898.507812" xlink:href="#DejaVuSans-114"/>
      <use x="937.371094" xlink:href="#DejaVuSans-111"/>
      <use x="998.552734" xlink:href="#DejaVuSans-108"/>
      <use x="1026.335938" xlink:href="#DejaVuSans-108"/>
      <use x="1054.119141" xlink:href="#DejaVuSans-105"/>
      <use x="1081.902344" xlink:href="#DejaVuSans-110"/>
      <use x="1145.28125" xlink:href="#DejaVuSans-103"/>
      <use x="1208.757812" xlink:href="#DejaVuSans-32"/>
      <use x="1240.544922" xlink:href="#DejaVuSans-97"/>
      <use x="1301.824219" xlink:href="#DejaVuSans-118"/>
      <use x="1361.003906" xlink:href="#DejaVuSans-101"/>
      <use x="1422.527344" xlink:href="#DejaVuSans-114"/>
      <use x="1463.640625" xlink:href="#DejaVuSans-97"/>
      <use x="1524.919922" xlink:href="#DejaVuSans-103"/>
      <use x="1588.396484" xlink:href="#DejaVuSans-101"/>
      <use x="1649.919922" xlink:href="#DejaVuSans-41"/>
     </g>
    </g>
   </g>
   <g id="line2d_17">
    <path clip-path="url(#p73b7e650e9)" d="M 271.22143 228.674064 
L 277.804359 228.752601 
L 284.387287 228.752601 
L 287.678752 228.96 
L 310.719002 228.870623 
L 314.010466 228.751282 
L 337.050716 228.69578 
L 343.633644 228.61397 
L 346.925108 228.616047 
L 350.216573 228.475622 
L 360.090965 228.582969 
L 366.673894 228.741088 
L 376.548287 228.614282 
L 383.131215 228.790212 
L 393.005608 228.563432 
L 396.297072 228.606414 
L 399.588537 228.432562 
L 406.171465 228.520438 
L 409.462929 228.296156 
L 412.754394 228.207943 
L 416.045858 228.339578 
L 422.628786 228.219813 
L 425.920251 228.544465 
L 429.211715 228.247979 
L 435.794643 227.982747 
L 439.086108 227.553263 
L 442.377572 226.976651 
L 445.669036 226.525511 
L 455.543429 225.801939 
L 462.126358 226.238107 
L 465.417822 226.131485 
L 468.709286 225.734095 
L 472.00075 226.041684 
L 478.583679 225.986066 
L 481.875143 225.753375 
L 485.166607 225.911188 
L 488.458072 225.853026 
L 491.749536 225.155595 
L 495.041 225.289712 
L 501.623929 224.848147 
L 504.915393 224.484414 
L 508.206857 224.864157 
L 511.498321 224.032422 
L 518.08125 223.600097 
L 521.372714 222.29497 
L 524.664179 221.683142 
L 527.955643 221.697196 
L 531.247107 220.963084 
L 534.538571 219.863313 
L 537.830036 220.139758 
L 541.1215 219.551217 
L 544.412964 219.257914 
L 547.704428 219.493263 
L 550.995893 219.453707 
L 554.287357 219.249309 
L 557.578821 218.783089 
L 564.16175 216.209709 
L 567.453214 215.362191 
L 570.744678 213.78625 
L 580.619071 211.672081 
L 583.910535 211.659941 
L 587.201999 210.562585 
L 590.493464 208.538818 
L 593.784928 206.989397 
L 597.076392 205.697086 
L 600.367857 203.545876 
L 603.659321 203.625636 
L 606.950785 203.413148 
L 610.242249 202.550774 
L 613.533714 202.005964 
L 616.825178 199.387148 
L 620.116642 197.525263 
L 623.408106 194.554411 
L 626.699571 192.866272 
L 629.991035 190.789891 
L 633.282499 190.469049 
L 636.573963 187.910028 
L 639.865428 186.845585 
L 643.156892 186.189539 
L 646.448356 185.233606 
L 649.73982 184.488654 
L 653.031285 184.250507 
L 656.322749 182.304487 
L 659.614213 180.038491 
L 662.905677 176.158961 
L 666.197142 172.639208 
L 669.488606 170.48638 
L 672.78007 169.850082 
L 676.071535 167.217488 
L 679.362999 166.064565 
L 682.654463 164.227379 
L 685.945927 160.438628 
L 692.528856 154.656205 
L 695.82032 152.773606 
L 699.111784 150.170227 
L 702.403249 148.600341 
L 705.694713 146.181921 
L 708.986177 145.182541 
L 712.277641 142.744473 
L 715.569106 140.632513 
L 718.86057 137.357682 
L 722.152034 135.301175 
L 725.443498 133.039695 
L 728.734963 130.542608 
L 732.026427 127.735677 
L 735.317891 127.055146 
L 738.609355 123.482731 
L 741.90082 119.653904 
L 745.192284 116.238656 
L 748.483748 115.267335 
L 751.775213 113.318524 
L 755.066677 111.73742 
L 758.358141 111.219279 
L 761.649605 109.679445 
L 764.94107 107.686788 
L 768.232534 104.793499 
L 771.523998 103.957754 
L 774.815462 102.698721 
L 778.106927 102.605759 
L 781.398391 101.885915 
L 784.689855 101.482853 
L 787.981319 100.66942 
L 791.272784 99.716999 
L 794.564248 98.931255 
L 797.855712 98.621727 
L 804.438641 98.330867 
L 807.730105 96.536927 
L 811.021569 95.749934 
L 814.313033 93.868649 
L 817.604498 92.679714 
L 820.895962 92.178144 
L 824.187426 91.319381 
L 827.478891 89.993871 
L 830.770355 89.359842 
L 834.061819 88.240772 
L 837.353283 86.266518 
L 840.644748 86.292361 
L 847.227676 85.947144 
L 850.51914 85.465601 
L 853.810605 85.686701 
L 857.102069 86.56349 
L 860.393533 86.323672 
L 863.684997 85.818393 
L 866.976462 86.308475 
L 873.55939 85.06016 
L 876.850854 85.451627 
L 880.142319 86.304801 
L 883.433783 86.895293 
L 886.725247 88.68279 
L 890.016711 88.868317 
L 896.59964 91.966786 
L 899.891104 93.059623 
L 903.182569 91.934205 
L 906.474033 92.442173 
L 909.765497 92.114193 
L 913.056961 93.140873 
L 916.348426 95.236834 
L 919.63989 98.321841 
L 922.931354 96.631187 
L 926.222818 102.258039 
L 929.514283 101.653166 
L 932.805747 105.111794 
L 936.097211 130.527238 
L 939.388675 117.219688 
L 939.388675 117.219688 
" style="fill:none;stroke:#947383;stroke-linecap:square;stroke-width:2;"/>
   </g>
   <g id="line2d_18">
    <path clip-path="url(#p73b7e650e9)" d="M 149.437253 207.597882 
L 152.728717 228.96 
L 159.311646 228.96 
L 162.60311 227.624868 
L 165.894574 227.624868 
L 169.186038 225.376224 
L 172.477503 223.793844 
L 175.768967 223.793844 
L 179.060431 225.128977 
L 182.351895 225.128977 
L 185.64336 227.377621 
L 188.934824 227.805291 
L 202.100681 227.805291 
L 205.392145 228.010573 
L 208.683609 228.010573 
L 211.975074 227.676789 
L 215.266538 227.676789 
L 218.558002 227.317762 
L 221.849467 227.835632 
L 225.140931 227.835632 
L 228.432395 228.169415 
L 231.723859 227.801102 
L 235.015324 227.685416 
L 238.306788 228.116974 
L 241.598252 228.116974 
L 244.889716 227.706164 
L 251.472645 228.37337 
L 254.764109 227.732507 
L 258.055573 227.598575 
L 261.347038 228.009385 
L 264.638502 227.171655 
L 267.929966 227.347475 
L 274.512895 226.888238 
L 277.804359 226.888238 
L 281.095823 227.725968 
L 284.387287 227.335792 
L 287.678752 227.876362 
L 290.970216 228.279183 
L 297.553145 228.23859 
L 304.136073 228.749191 
L 307.427537 228.372766 
L 314.010466 228.413359 
L 317.30193 228.583575 
L 320.593394 228.502164 
L 323.884859 228.878589 
L 327.176323 228.744237 
L 333.759251 228.744237 
L 337.050716 228.402635 
L 340.34218 228.180113 
L 346.925108 227.983374 
L 350.216573 227.663741 
L 353.508037 228.086754 
L 360.090965 227.838707 
L 366.673894 228.103187 
L 369.965358 227.977896 
L 373.256823 228.180302 
L 376.548287 227.159949 
L 379.839751 226.898905 
L 383.131215 226.429845 
L 386.42268 225.386896 
L 389.714144 225.254514 
L 393.005608 224.513144 
L 396.297072 223.387467 
L 402.880001 223.233714 
L 406.171465 221.93294 
L 409.462929 220.845111 
L 412.754394 220.836194 
L 416.045858 217.901582 
L 419.337322 216.205139 
L 422.628786 215.081316 
L 425.920251 216.049345 
L 429.211715 214.201107 
L 432.503179 215.0389 
L 435.794643 216.191634 
L 439.086108 213.429956 
L 442.377572 210.055783 
L 445.669036 206.8832 
L 448.960501 205.618539 
L 452.251965 201.992144 
L 455.543429 201.816049 
L 458.834893 204.730803 
L 462.126358 203.319588 
L 465.417822 199.092867 
L 468.709286 193.188591 
L 472.00075 190.146544 
L 475.292215 184.790714 
L 478.583679 182.512956 
L 481.875143 186.403504 
L 485.166607 189.638219 
L 488.458072 190.156878 
L 491.749536 190.125598 
L 495.041 190.953769 
L 498.332464 186.013238 
L 501.623929 184.766987 
L 504.915393 186.613565 
L 508.206857 184.243816 
L 514.789786 184.295105 
L 518.08125 183.871788 
L 521.372714 180.220079 
L 524.664179 179.62209 
L 527.955643 179.948334 
L 531.247107 178.535537 
L 534.538571 177.29421 
L 537.830036 176.975946 
L 541.1215 175.942282 
L 544.412964 173.624974 
L 550.995893 168.504779 
L 554.287357 162.781743 
L 557.578821 156.642595 
L 560.870285 151.113848 
L 564.16175 147.334178 
L 567.453214 144.587941 
L 570.744678 140.61582 
L 574.036142 138.268185 
L 577.327607 134.603024 
L 580.619071 132.363762 
L 583.910535 127.339386 
L 587.201999 125.949712 
L 590.493464 125.183231 
L 593.784928 124.118502 
L 597.076392 118.37919 
L 600.367857 118.004691 
L 603.659321 116.931498 
L 606.950785 114.962951 
L 610.242249 114.867858 
L 613.533714 118.665753 
L 616.825178 114.595609 
L 620.116642 110.208615 
L 623.408106 107.616077 
L 626.699571 101.637849 
L 629.991035 97.491011 
L 633.282499 95.344036 
L 636.573963 96.05081 
L 639.865428 90.641359 
L 643.156892 86.569612 
L 649.73982 79.601467 
L 653.031285 75.725962 
L 656.322749 77.23771 
L 659.614213 76.683668 
L 662.905677 74.141991 
L 666.197142 70.590788 
L 669.488606 68.266961 
L 672.78007 65.272624 
L 679.362999 63.430905 
L 682.654463 65.686624 
L 685.945927 65.942227 
L 689.237392 63.126128 
L 692.528856 62.734254 
L 695.82032 60.373594 
L 699.111784 58.670217 
L 702.403249 57.890503 
L 705.694713 59.436501 
L 708.986177 59.924176 
L 712.277641 57.301194 
L 715.569106 56.643857 
L 718.86057 54.866283 
L 722.152034 53.375239 
L 725.443498 51.030511 
L 728.734963 55.220232 
L 732.026427 58.799463 
L 735.317891 56.843824 
L 738.609355 56.286079 
L 741.90082 53.988105 
L 745.192284 49.399847 
L 748.483748 42.926012 
L 751.775213 41.638407 
L 755.066677 39.63902 
L 758.358141 38.203512 
L 761.649605 38.247822 
L 764.94107 37.860862 
L 768.232534 37.138527 
L 771.523998 37.676215 
L 774.815462 39.809433 
L 778.106927 40.927773 
L 781.398391 40.285305 
L 784.689855 41.177959 
L 787.981319 40.531607 
L 791.272784 38.823499 
L 794.564248 35.836919 
L 797.855712 36.300355 
L 801.147176 35.057262 
L 804.438641 33.568377 
L 807.730105 33.571863 
L 811.021569 34.534738 
L 814.313033 33.913334 
L 817.604498 33.523787 
L 820.895962 33.774245 
L 824.187426 34.589182 
L 827.478891 33.701634 
L 830.770355 33.715826 
L 834.061819 34.616104 
L 837.353283 35.124037 
L 840.644748 33.209493 
L 843.936212 34.567384 
L 847.227676 34.996548 
L 850.51914 34.131215 
L 853.810605 34.624526 
L 857.102069 36.260653 
L 860.393533 35.425672 
L 863.684997 35.488449 
L 866.976462 36.274419 
L 870.267926 35.898092 
L 873.55939 34.333178 
L 883.433783 36.131513 
L 886.725247 37.748851 
L 890.016711 38.469218 
L 893.308176 38.033187 
L 896.59964 35.865353 
L 899.891104 37.120435 
L 903.182569 38.139267 
L 906.474033 39.88072 
L 913.056961 41.853877 
L 916.348426 44.499822 
L 919.63989 45.727732 
L 922.931354 45.865001 
L 926.222818 43.58872 
L 929.514283 42.924755 
L 936.097211 33.252043 
L 939.388675 29.559471 
L 942.68014 61.145021 
L 945.971604 100.939596 
L 949.263068 118.516022 
L 949.263068 118.516022 
" style="fill:none;stroke:#96c6ad;stroke-linecap:square;stroke-width:2;"/>
   </g>
   <g id="line2d_19">
    <path clip-path="url(#p73b7e650e9)" d="M 244.889716 227.835678 
L 248.181181 228.96 
L 294.26168 228.96 
L 297.553145 225.67352 
L 307.427537 225.67352 
L 310.719002 221.401097 
L 314.010466 224.687576 
L 320.593394 224.687576 
L 323.884859 223.865956 
L 327.176323 228.13838 
L 330.467787 228.13838 
L 333.759251 224.254359 
L 337.050716 221.741168 
L 340.34218 222.562788 
L 343.633644 222.562788 
L 346.925108 222.35023 
L 350.216573 226.234251 
L 353.508037 228.747442 
L 360.090965 228.747442 
L 363.38243 228.378718 
L 366.673894 228.173313 
L 369.965358 227.446092 
L 373.256823 227.446092 
L 376.548287 226.947365 
L 379.839751 227.528647 
L 383.131215 227.734052 
L 386.42268 227.66517 
L 389.714144 226.978285 
L 393.005608 227.024104 
L 396.297072 226.844591 
L 399.588537 226.111127 
L 402.880001 226.713909 
L 406.171465 226.546309 
L 409.462929 224.765269 
L 412.754394 223.630191 
L 416.045858 222.128848 
L 419.337322 221.189331 
L 422.628786 215.442646 
L 425.920251 214.995155 
L 429.211715 211.908967 
L 432.503179 210.27927 
L 435.794643 208.16612 
L 439.086108 212.473811 
L 442.377572 213.772993 
L 445.669036 214.681329 
L 448.960501 214.504351 
L 452.251965 210.825617 
L 455.543429 202.550944 
L 458.834893 196.127809 
L 462.126358 193.19668 
L 465.417822 194.491603 
L 468.709286 194.707562 
L 472.00075 201.851252 
L 475.292215 207.440399 
L 478.583679 212.089956 
L 481.875143 207.402497 
L 485.166607 210.057137 
L 488.458072 211.324647 
L 491.749536 209.072996 
L 495.041 207.047243 
L 498.332464 209.680784 
L 501.623929 207.789465 
L 504.915393 206.254199 
L 508.206857 202.561283 
L 511.498321 199.113944 
L 514.789786 192.254618 
L 518.08125 192.536617 
L 521.372714 193.189872 
L 524.664179 196.035705 
L 527.955643 199.447604 
L 531.247107 194.868014 
L 534.538571 187.534226 
L 537.830036 177.611197 
L 541.1215 171.274109 
L 544.412964 170.244678 
L 547.704428 169.010816 
L 550.995893 171.14458 
L 554.287357 161.889969 
L 557.578821 166.348668 
L 560.870285 161.786608 
L 564.16175 174.016433 
L 567.453214 180.778375 
L 570.744678 180.795129 
L 574.036142 178.697961 
L 577.327607 178.023723 
L 580.619071 173.87721 
L 583.910535 166.997648 
L 587.201999 182.50758 
L 590.493464 184.438916 
L 593.784928 182.226319 
L 597.076392 183.287739 
L 600.367857 184.629325 
L 603.659321 185.68415 
L 606.950785 183.046591 
L 610.242249 188.129871 
L 613.533714 182.216981 
L 616.825178 171.465371 
L 620.116642 162.051844 
L 623.408106 156.208955 
L 626.699571 152.208839 
L 629.991035 154.806723 
L 633.282499 171.374788 
L 636.573963 170.990697 
L 639.865428 158.881572 
L 643.156892 156.349446 
L 646.448356 147.679888 
L 649.73982 136.803048 
L 653.031285 140.219565 
L 656.322749 156.056944 
L 659.614213 159.901316 
L 662.905677 162.076754 
L 666.197142 169.677449 
L 669.488606 173.41863 
L 672.78007 177.461038 
L 676.071535 180.498482 
L 679.362999 184.911647 
L 682.654463 182.707983 
L 685.945927 168.419582 
L 689.237392 165.62012 
L 692.528856 154.869533 
L 695.82032 153.983654 
L 699.111784 150.296035 
L 702.403249 160.714929 
L 705.694713 158.288865 
L 708.986177 153.23263 
L 712.277641 154.199957 
L 715.569106 154.725435 
L 722.152034 151.219788 
L 725.443498 158.293527 
L 728.734963 150.238409 
L 732.026427 143.884399 
L 735.317891 143.961689 
L 738.609355 142.968143 
L 741.90082 141.228928 
L 745.192284 144.49174 
L 748.483748 142.687378 
L 751.775213 138.832606 
L 755.066677 121.774752 
L 758.358141 120.675057 
L 761.649605 124.139161 
L 764.94107 124.772293 
L 768.232534 122.629177 
L 771.523998 138.781901 
L 774.815462 141.441572 
L 778.106927 137.455695 
L 781.398391 134.914521 
L 784.689855 130.414651 
L 787.981319 128.003177 
L 791.272784 122.14636 
L 794.564248 117.052923 
L 797.855712 117.966894 
L 801.147176 121.858271 
L 804.438641 116.098448 
L 807.730105 113.072974 
L 811.021569 114.940802 
L 817.604498 104.45666 
L 820.895962 102.787299 
L 824.187426 101.437681 
L 827.478891 102.315708 
L 830.770355 101.056839 
L 834.061819 102.556611 
L 837.353283 102.609664 
L 840.644748 101.724426 
L 843.936212 98.258153 
L 847.227676 96.795666 
L 850.51914 94.300294 
L 853.810605 94.501946 
L 857.102069 104.156631 
L 860.393533 98.331532 
L 863.684997 105.579856 
L 866.976462 102.428024 
L 870.267926 113.598153 
L 873.55939 115.373825 
L 876.850854 123.351178 
L 880.142319 137.833751 
L 883.433783 152.826042 
L 886.725247 144.764865 
L 890.016711 140.91703 
L 893.308176 145.225357 
L 896.59964 131.678647 
L 899.891104 132.341039 
L 903.182569 119.097677 
L 906.474033 103.711865 
L 909.765497 84.045153 
L 913.056961 88.317577 
L 916.348426 74.076165 
L 916.348426 74.076165 
" style="fill:none;stroke:#525886;stroke-linecap:square;stroke-width:2;"/>
   </g>
   <g id="line2d_20">
    <path clip-path="url(#p73b7e650e9)" d="M 188.934824 225.908269 
L 192.226288 228.96 
L 409.462929 228.96 
L 412.754394 227.610814 
L 416.045858 225.543512 
L 425.920251 225.543512 
L 429.211715 226.892698 
L 432.503179 227.377621 
L 435.794643 227.377621 
L 439.086108 226.505698 
L 442.377572 223.269013 
L 445.669036 218.849264 
L 448.960501 220.431644 
L 452.251965 219.438057 
L 455.543429 218.931779 
L 458.834893 221.003257 
L 462.126358 224.059466 
L 465.417822 220.87109 
L 468.709286 219.728465 
L 475.292215 215.42504 
L 478.583679 216.788579 
L 481.875143 218.290472 
L 485.166607 215.987802 
L 488.458072 218.099876 
L 491.749536 219.285164 
L 495.041 217.112745 
L 498.332464 218.799228 
L 501.623929 222.44692 
L 504.915393 223.499605 
L 508.206857 224.037715 
L 511.498321 224.785993 
L 514.789786 221.561522 
L 518.08125 219.763364 
L 521.372714 218.864285 
L 524.664179 218.569791 
L 527.955643 218.67934 
L 531.247107 221.356064 
L 534.538571 222.087837 
L 537.830036 222.015335 
L 541.1215 223.136286 
L 544.412964 224.450878 
L 547.704428 224.998624 
L 550.995893 224.896372 
L 554.287357 225.425818 
L 557.578821 224.608834 
L 560.870285 222.574346 
L 564.16175 221.91705 
L 567.453214 223.876878 
L 570.744678 224.714608 
L 574.036142 223.69003 
L 577.327607 224.375331 
L 580.619071 223.154638 
L 583.910535 223.154638 
L 587.201999 220.699223 
L 590.493464 223.277409 
L 597.076392 222.163041 
L 600.367857 218.094066 
L 603.659321 217.263003 
L 606.950785 210.032747 
L 610.242249 202.030883 
L 613.533714 203.258255 
L 616.825178 198.782383 
L 620.116642 199.364797 
L 623.408106 202.426834 
L 626.699571 210.643034 
L 629.991035 203.609852 
L 633.282499 209.000561 
L 639.865428 205.022245 
L 643.156892 200.891939 
L 646.448356 206.592369 
L 649.73982 205.341947 
L 653.031285 206.830456 
L 656.322749 204.320161 
L 659.614213 204.862167 
L 662.905677 199.747144 
L 666.197142 196.793642 
L 669.488606 196.887512 
L 672.78007 198.644293 
L 676.071535 201.420416 
L 679.362999 206.350485 
L 682.654463 210.54379 
L 685.945927 208.884844 
L 689.237392 211.097882 
L 692.528856 207.648322 
L 695.82032 204.517647 
L 699.111784 200.07398 
L 702.403249 201.801725 
L 705.694713 199.770001 
L 708.986177 201.883748 
L 712.277641 202.854691 
L 715.569106 205.965829 
L 718.86057 206.870802 
L 722.152034 209.684386 
L 725.443498 211.308443 
L 728.734963 209.9389 
L 732.026427 212.813749 
L 735.317891 206.171454 
L 738.609355 200.938769 
L 741.90082 199.724886 
L 745.192284 200.433621 
L 748.483748 192.561786 
L 751.775213 194.822107 
L 755.066677 199.965496 
L 758.358141 199.529994 
L 761.649605 197.249399 
L 764.94107 204.454875 
L 768.232534 208.514644 
L 771.523998 209.986487 
L 774.815462 200.657125 
L 778.106927 199.038286 
L 781.398391 196.579947 
L 784.689855 190.017004 
L 787.981319 188.35659 
L 791.272784 197.4639 
L 794.564248 200.091779 
L 797.855712 196.294069 
L 801.147176 200.623065 
L 804.438641 201.261024 
L 807.730105 200.497297 
L 811.021569 202.337311 
L 814.313033 207.491346 
L 817.604498 206.862586 
L 820.895962 202.67421 
L 824.187426 205.452767 
L 827.478891 207.088336 
L 830.770355 207.716805 
L 837.353283 211.865637 
L 840.644748 208.64258 
L 843.936212 207.103673 
L 847.227676 206.127645 
L 850.51914 203.536351 
L 853.810605 207.27119 
L 857.102069 210.179884 
L 860.393533 206.564756 
L 866.976462 196.799856 
L 870.267926 189.439388 
L 873.55939 185.400778 
L 876.850854 187.984104 
L 880.142319 192.85508 
L 883.433783 197.432677 
L 886.725247 206.720555 
L 890.016711 213.097306 
L 893.308176 216.388563 
L 896.59964 216.899793 
L 899.891104 212.322196 
L 903.182569 212.322196 
L 906.474033 207.575059 
L 906.474033 207.575059 
" style="fill:none;stroke:#937252;stroke-linecap:square;stroke-width:2;"/>
   </g>
   <g id="line2d_21">
    <path clip-path="url(#p73b7e650e9)" d="M 123.105539 228.747363 
L 129.688467 228.882461 
L 142.854324 228.790795 
L 156.020181 228.76133 
L 159.311646 228.930535 
L 165.894574 228.96 
L 182.351895 228.714298 
L 188.934824 228.767837 
L 192.226288 228.692574 
L 195.517752 228.884737 
L 208.683609 228.96 
L 211.975074 228.697773 
L 218.558002 228.357471 
L 221.849467 228.133079 
L 225.140931 228.020646 
L 235.015324 228.563128 
L 238.306788 228.068122 
L 244.889716 227.614107 
L 251.472645 225.780027 
L 254.764109 226.186918 
L 258.055573 226.355798 
L 261.347038 224.387585 
L 264.638502 224.128512 
L 267.929966 225.012081 
L 271.22143 223.032611 
L 274.512895 221.733079 
L 277.804359 223.141589 
L 281.095823 223.153298 
L 284.387287 219.583027 
L 287.678752 217.628248 
L 290.970216 216.403716 
L 294.26168 213.334979 
L 297.553145 213.08106 
L 300.844609 212.050259 
L 304.136073 214.084829 
L 307.427537 210.964331 
L 310.719002 213.359113 
L 314.010466 208.657417 
L 317.30193 204.864543 
L 320.593394 205.319087 
L 323.884859 208.123007 
L 327.176323 208.613988 
L 330.467787 208.014904 
L 333.759251 210.870522 
L 337.050716 203.579332 
L 340.34218 199.070273 
L 343.633644 195.833332 
L 346.925108 198.746632 
L 350.216573 198.712232 
L 353.508037 203.636855 
L 356.799501 198.589915 
L 360.090965 194.714509 
L 363.38243 194.710863 
L 366.673894 188.851375 
L 369.965358 181.407475 
L 373.256823 184.131995 
L 376.548287 174.049796 
L 379.839751 166.664755 
L 383.131215 164.910477 
L 386.42268 158.186284 
L 389.714144 152.02677 
L 393.005608 151.395052 
L 399.588537 134.454782 
L 402.880001 129.44496 
L 406.171465 126.66028 
L 409.462929 128.07853 
L 412.754394 129.004225 
L 416.045858 132.245567 
L 419.337322 133.822684 
L 422.628786 130.401715 
L 425.920251 121.886104 
L 429.211715 112.971802 
L 432.503179 107.490075 
L 435.794643 103.677242 
L 439.086108 96.810992 
L 442.377572 93.515874 
L 445.669036 91.201033 
L 452.251965 74.247634 
L 455.543429 72.010794 
L 458.834893 70.835211 
L 462.126358 70.529886 
L 465.417822 73.623097 
L 468.709286 74.298008 
L 472.00075 71.402058 
L 475.292215 67.846551 
L 478.583679 65.134038 
L 481.875143 60.79193 
L 485.166607 60.662404 
L 488.458072 61.827597 
L 491.749536 61.237816 
L 501.623929 55.838909 
L 504.915393 53.322586 
L 508.206857 51.323857 
L 511.498321 50.366233 
L 514.789786 48.990905 
L 518.08125 46.608815 
L 521.372714 44.662746 
L 524.664179 43.015186 
L 527.955643 40.6835 
L 531.247107 38.633918 
L 534.538571 37.012741 
L 537.830036 34.688072 
L 541.1215 32.826141 
L 544.412964 31.49806 
L 547.704428 31.090427 
L 550.995893 31.386594 
L 557.578821 34.209045 
L 560.870285 33.273869 
L 564.16175 32.06763 
L 567.453214 31.004338 
L 570.744678 29.501929 
L 574.036142 27.768972 
L 577.327607 27.536737 
L 580.619071 27.843735 
L 583.910535 26.969068 
L 587.201999 25.799793 
L 590.493464 25.435496 
L 593.784928 25.255438 
L 597.076392 24.280996 
L 600.367857 24.062524 
L 603.659321 24.19278 
L 610.242249 23.24266 
L 613.533714 23.149026 
L 620.116642 22.371764 
L 623.408106 22.380438 
L 626.699571 22.073447 
L 629.991035 21.438015 
L 633.282499 21.48338 
L 636.573963 21.311904 
L 639.865428 21.003094 
L 643.156892 20.866897 
L 646.448356 21.134465 
L 649.73982 21.091965 
L 653.031285 21.2683 
L 656.322749 21.131623 
L 659.614213 21.371586 
L 662.905677 21.789805 
L 666.197142 21.604686 
L 669.488606 21.070475 
L 672.78007 20.841033 
L 682.654463 19.813959 
L 689.237392 19.815915 
L 692.528856 19.415455 
L 708.986177 19.367985 
L 712.277641 19.094881 
L 718.86057 18.931185 
L 722.152034 18.529312 
L 725.443498 18.468752 
L 728.734963 18.203884 
L 732.026427 18.063357 
L 735.317891 17.76 
L 745.192284 18.559709 
L 748.483748 18.864522 
L 751.775213 19.577384 
L 755.066677 19.986146 
L 758.358141 20.092491 
L 761.649605 21.012582 
L 764.94107 21.808962 
L 768.232534 21.946415 
L 771.523998 22.279932 
L 774.815462 22.945694 
L 778.106927 22.662019 
L 784.689855 22.50602 
L 787.981319 23.382481 
L 791.272784 24.83392 
L 801.147176 29.98586 
L 807.730105 32.158813 
L 814.313033 32.36877 
L 817.604498 33.503196 
L 820.895962 36.220816 
L 824.187426 38.603013 
L 827.478891 39.625928 
L 830.770355 41.252873 
L 834.061819 43.296773 
L 837.353283 42.906058 
L 840.644748 43.989069 
L 843.936212 48.961485 
L 847.227676 55.306742 
L 853.810605 60.853243 
L 857.102069 64.792316 
L 860.393533 66.841739 
L 863.684997 69.667814 
L 866.976462 75.922125 
L 870.267926 84.962321 
L 873.55939 91.302997 
L 876.850854 97.286959 
L 880.142319 102.842782 
L 883.433783 102.892616 
L 886.725247 104.915924 
L 890.016711 109.530741 
L 893.308176 114.497663 
L 896.59964 120.287003 
L 899.891104 133.404246 
L 903.182569 141.022064 
L 906.474033 146.142317 
L 909.765497 152.530526 
L 913.056961 156.711551 
L 916.348426 159.969701 
L 919.63989 166.056685 
L 922.931354 173.997001 
L 926.222818 180.980793 
L 929.514283 185.479768 
L 936.097211 192.26831 
L 936.097211 192.26831 
" style="fill:none;stroke:#d18cad;stroke-linecap:square;stroke-width:2;"/>
   </g>
   <g id="line2d_22">
    <path clip-path="url(#p73b7e650e9)" d="M 356.799501 221.839294 
L 360.090965 228.96 
L 369.965358 228.96 
L 373.256823 211.870305 
L 376.548287 211.870305 
L 379.839751 190.508187 
L 386.42268 190.508187 
L 389.714144 207.597882 
L 393.005608 207.597882 
L 396.297072 226.823788 
L 402.880001 226.823788 
L 406.171465 218.812994 
L 409.462929 213.472464 
L 412.754394 210.861539 
L 416.045858 206.114401 
L 419.337322 184.752283 
L 422.628786 189.476597 
L 425.920251 191.256774 
L 429.211715 188.235868 
L 432.503179 188.235868 
L 435.794643 207.461775 
L 439.086108 210.748255 
L 442.377572 211.256876 
L 445.669036 214.752496 
L 448.960501 204.767138 
L 452.251965 196.22229 
L 455.543429 196.22229 
L 458.834893 190.729174 
L 462.126358 173.63948 
L 465.417822 174.130563 
L 468.709286 176.266775 
L 472.00075 152.531088 
L 475.292215 147.930016 
L 478.583679 163.188672 
L 481.875143 163.188672 
L 485.166607 167.461096 
L 488.458072 175.175194 
L 491.749536 169.332563 
L 495.041 165.383264 
L 498.332464 144.021146 
L 501.623929 141.172863 
L 504.915393 139.392687 
L 508.206857 147.700177 
L 511.498321 129.270114 
L 514.789786 140.459795 
L 518.08125 127.861623 
L 521.372714 110.059858 
L 524.664179 110.059858 
L 527.955643 124.30127 
L 531.247107 141.594413 
L 534.538571 139.951173 
L 537.830036 162.737433 
L 541.1215 130.694255 
L 544.412964 102.211431 
L 547.704428 95.090725 
L 550.995893 95.090725 
L 554.287357 95.701071 
L 557.578821 101.041601 
L 560.870285 143.765837 
L 564.16175 149.462402 
L 567.453214 170.824521 
L 570.744678 168.790033 
L 574.036142 184.811622 
L 577.327607 142.087385 
L 580.619071 150.632233 
L 583.910535 114.011458 
L 587.201999 101.550222 
L 590.493464 80.188104 
L 593.784928 80.188104 
L 597.076392 48.144927 
L 600.367857 59.131159 
L 603.659321 71.592395 
L 606.950785 82.273454 
L 610.242249 99.363148 
L 613.533714 117.164914 
L 616.825178 110.756278 
L 620.116642 116.452843 
L 623.408106 120.013196 
L 626.699571 129.62615 
L 629.991035 122.505443 
L 633.282499 111.824384 
L 636.573963 88.326054 
L 639.865428 109.688172 
L 643.156892 104.347643 
L 646.448356 104.347643 
L 649.73982 127.133902 
L 653.031285 127.133902 
L 656.322749 91.530372 
L 659.614213 100.685565 
L 662.905677 93.564859 
L 666.197142 92.140718 
L 669.488606 111.617944 
L 672.78007 111.617944 
L 676.071535 99.411019 
L 679.362999 104.888485 
L 682.654463 98.605509 
L 685.945927 84.468813 
L 689.237392 111.171461 
L 692.528856 114.223192 
L 695.82032 131.125088 
L 699.111784 135.764824 
L 702.403249 148.22606 
L 705.694713 148.22606 
L 708.986177 133.984648 
L 712.277641 111.605286 
L 715.569106 113.248525 
L 718.86057 106.127819 
L 722.152034 96.514866 
L 725.443498 123.573549 
L 728.734963 131.54874 
L 732.026427 110.186622 
L 735.317891 104.36059 
L 738.609355 111.006582 
L 741.90082 89.973111 
L 745.192284 83.778097 
L 748.483748 93.272372 
L 751.775213 96.046673 
L 755.066677 100.79381 
L 758.358141 102.906547 
L 761.649605 99.091883 
L 764.94107 110.959727 
L 768.232534 117.063189 
L 771.523998 117.063189 
L 774.815462 119.606299 
L 778.106927 122.93546 
L 781.398391 118.663036 
L 784.689855 112.238339 
L 787.981319 83.755515 
L 791.272784 95.326662 
L 794.564248 99.728553 
L 797.855712 103.146492 
L 801.147176 116.229512 
L 804.438641 150.408901 
L 807.730105 146.439589 
L 811.021569 153.967192 
L 814.313033 161.942383 
L 817.604498 159.353036 
L 820.895962 142.263341 
L 824.187426 150.089703 
L 827.478891 143.98624 
L 830.770355 145.081733 
L 834.061819 159.323146 
L 837.353283 174.276629 
L 840.644748 158.136361 
L 843.936212 168.817421 
L 847.227676 153.480515 
L 850.51914 132.118397 
L 853.810605 133.305181 
L 857.102069 137.577605 
L 860.393533 134.017252 
L 863.684997 153.955229 
L 866.976462 153.955229 
L 873.55939 172.604697 
L 876.850854 144.121873 
L 880.142319 152.66672 
L 883.433783 152.66672 
L 886.725247 131.304602 
L 890.016711 129.270114 
L 893.308176 171.994351 
L 899.891104 171.994351 
L 903.182569 193.356469 
L 906.474033 207.597882 
L 909.765497 186.235763 
L 913.056961 186.235763 
L 916.348426 207.597882 
L 922.931354 207.597882 
L 926.222818 221.839294 
L 926.222818 221.839294 
" style="fill:none;stroke:#a4a86f;stroke-linecap:square;stroke-width:2;"/>
   </g>
   <g id="line2d_23">
    <path clip-path="url(#p73b7e650e9)" d="M 86.899432 186.235763 
L 90.190896 228.96 
L 169.186038 228.96 
L 172.477503 186.235763 
L 185.64336 186.235763 
L 188.934824 228.96 
L 323.884859 228.96 
L 327.176323 218.278941 
L 340.34218 218.278941 
L 343.633644 228.96 
L 373.256823 228.96 
L 376.548287 225.908269 
L 386.42268 225.908269 
L 389.714144 219.804806 
L 393.005608 222.856538 
L 396.297072 222.856538 
L 399.588537 218.1094 
L 402.880001 218.1094 
L 406.171465 224.212863 
L 409.462929 224.212863 
L 412.754394 213.531803 
L 416.045858 212.175478 
L 419.337322 209.327196 
L 425.920251 209.327196 
L 429.211715 220.008255 
L 432.503179 220.771188 
L 435.794643 210.802199 
L 442.377572 196.560787 
L 445.669036 196.560787 
L 448.960501 191.848555 
L 452.251965 194.955772 
L 455.543429 195.603109 
L 458.834893 197.513543 
L 462.126358 188.968695 
L 465.417822 184.620029 
L 472.00075 159.129273 
L 475.292215 155.101873 
L 478.583679 149.761343 
L 481.875143 157.611722 
L 485.166607 175.71866 
L 488.458072 189.110786 
L 491.749536 195.357763 
L 495.041 198.56208 
L 498.332464 196.212247 
L 501.623929 200.484671 
L 504.915393 203.660283 
L 508.206857 205.194471 
L 511.498321 213.566112 
L 514.789786 222.466995 
L 518.08125 220.284005 
L 521.372714 221.485218 
L 524.664179 220.632308 
L 527.955643 222.390446 
L 531.247107 220.393986 
L 534.538571 219.906711 
L 537.830036 218.584294 
L 541.1215 219.515511 
L 544.412964 217.280429 
L 547.704428 209.566834 
L 550.995893 210.796956 
L 554.287357 208.821535 
L 557.578821 204.284072 
L 560.870285 200.597066 
L 564.16175 206.148124 
L 567.453214 205.553779 
L 570.744678 210.377483 
L 574.036142 212.224172 
L 577.327607 215.509165 
L 580.619071 216.541998 
L 583.910535 216.267067 
L 587.201999 210.052633 
L 590.493464 214.121608 
L 593.784928 217.309984 
L 597.076392 216.743929 
L 600.367857 217.784311 
L 603.659321 221.06669 
L 606.950785 217.456191 
L 610.242249 211.352729 
L 613.533714 213.369486 
L 616.825178 213.839939 
L 620.116642 212.887973 
L 623.408106 215.626549 
L 626.699571 215.321376 
L 629.991035 209.87613 
L 633.282499 199.281584 
L 636.573963 191.772476 
L 639.865428 192.644399 
L 643.156892 194.026653 
L 646.448356 196.340883 
L 649.73982 201.982673 
L 653.031285 206.484797 
L 656.322749 194.832732 
L 659.614213 195.72451 
L 662.905677 191.036712 
L 666.197142 191.520679 
L 669.488606 187.730626 
L 672.78007 191.046254 
L 676.071535 188.95024 
L 679.362999 193.317606 
L 682.654463 190.040131 
L 685.945927 185.462534 
L 689.237392 183.513506 
L 692.528856 184.58775 
L 695.82032 177.664233 
L 699.111784 176.921203 
L 702.403249 179.675204 
L 705.694713 173.242489 
L 708.986177 171.278156 
L 712.277641 172.9362 
L 715.569106 171.333586 
L 718.86057 173.157181 
L 722.152034 168.513243 
L 725.443498 168.513243 
L 728.734963 171.137582 
L 732.026427 161.683199 
L 735.317891 169.1995 
L 738.609355 187.891353 
L 741.90082 195.012059 
L 745.192284 196.67664 
L 748.483748 213.461161 
L 751.775213 202.384507 
L 755.066677 195.992055 
L 758.358141 189.888593 
L 761.649605 193.478865 
L 764.94107 189.271175 
L 768.232534 194.518011 
L 771.523998 191.712884 
L 774.815462 183.574935 
L 778.106927 174.694995 
L 781.398391 181.038897 
L 784.689855 187.823599 
L 787.981319 199.691442 
L 791.272784 213.932855 
L 794.564248 208.23629 
L 797.855712 205.776409 
L 801.147176 200.865578 
L 804.438641 200.865578 
L 807.730105 197.579098 
L 811.021569 210.599818 
L 814.313033 211.587281 
L 817.604498 214.639012 
L 820.895962 208.230376 
L 824.187426 211.516856 
L 827.478891 214.112582 
L 834.061819 213.162888 
L 837.353283 201.261136 
L 840.644748 201.261136 
L 843.936212 202.734386 
L 847.227676 201.491499 
L 850.51914 204.653655 
L 853.810605 222.964042 
L 857.102069 220.374694 
L 860.393533 220.374694 
L 863.684997 225.03552 
L 866.976462 226.370652 
L 870.267926 226.370652 
L 873.55939 207.597882 
L 876.850854 206.529776 
L 876.850854 206.529776 
" style="fill:none;stroke:#d3d3d3;stroke-linecap:square;stroke-width:2;"/>
   </g>
   <g id="patch_3">
    <path d="M 43.78125 228.96 
L 43.78125 7.2 
" style="fill:none;stroke:#000000;stroke-linecap:square;stroke-linejoin:miter;stroke-width:0.8;"/>
   </g>
   <g id="patch_4">
    <path d="M 43.78125 228.96 
L 992.38125 228.96 
" style="fill:none;stroke:#000000;stroke-linecap:square;stroke-linejoin:miter;stroke-width:0.8;"/>
   </g>
   <g id="legend_1">
    <g id="line2d_24">
     <path d="M 50.98125 17.67875 
L 66.98125 17.67875 
" style="fill:none;stroke:#947383;stroke-linecap:square;stroke-width:2;"/>
    </g>
    <g id="line2d_25"/>
    <g id="text_19">
     <!-- North America -->
     <g transform="translate(73.38125 20.47875)scale(0.08 -0.08)">
      <defs>
       <path d="M 9.8125 72.90625 
L 23.09375 72.90625 
L 55.421875 11.921875 
L 55.421875 72.90625 
L 64.984375 72.90625 
L 64.984375 0 
L 51.703125 0 
L 19.390625 60.984375 
L 19.390625 0 
L 9.8125 0 
z
" id="DejaVuSans-78"/>
       <path d="M 54.890625 33.015625 
L 54.890625 0 
L 45.90625 0 
L 45.90625 32.71875 
Q 45.90625 40.484375 42.875 44.328125 
Q 39.84375 48.1875 33.796875 48.1875 
Q 26.515625 48.1875 22.3125 43.546875 
Q 18.109375 38.921875 18.109375 30.90625 
L 18.109375 0 
L 9.078125 0 
L 9.078125 75.984375 
L 18.109375 75.984375 
L 18.109375 46.1875 
Q 21.34375 51.125 25.703125 53.5625 
Q 30.078125 56 35.796875 56 
Q 45.21875 56 50.046875 50.171875 
Q 54.890625 44.34375 54.890625 33.015625 
z
" id="DejaVuSans-104"/>
       <path d="M 34.1875 63.1875 
L 20.796875 26.90625 
L 47.609375 26.90625 
z
M 28.609375 72.90625 
L 39.796875 72.90625 
L 67.578125 0 
L 57.328125 0 
L 50.6875 18.703125 
L 17.828125 18.703125 
L 11.1875 0 
L 0.78125 0 
z
" id="DejaVuSans-65"/>
       <path d="M 52 44.1875 
Q 55.375 50.25 60.0625 53.125 
Q 64.75 56 71.09375 56 
Q 79.640625 56 84.28125 50.015625 
Q 88.921875 44.046875 88.921875 33.015625 
L 88.921875 0 
L 79.890625 0 
L 79.890625 32.71875 
Q 79.890625 40.578125 77.09375 44.375 
Q 74.3125 48.1875 68.609375 48.1875 
Q 61.625 48.1875 57.5625 43.546875 
Q 53.515625 38.921875 53.515625 30.90625 
L 53.515625 0 
L 44.484375 0 
L 44.484375 32.71875 
Q 44.484375 40.625 41.703125 44.40625 
Q 38.921875 48.1875 33.109375 48.1875 
Q 26.21875 48.1875 22.15625 43.53125 
Q 18.109375 38.875 18.109375 30.90625 
L 18.109375 0 
L 9.078125 0 
L 9.078125 54.6875 
L 18.109375 54.6875 
L 18.109375 46.1875 
Q 21.1875 51.21875 25.484375 53.609375 
Q 29.78125 56 35.6875 56 
Q 41.65625 56 45.828125 52.96875 
Q 50 49.953125 52 44.1875 
z
" id="DejaVuSans-109"/>
      </defs>
      <use xlink:href="#DejaVuSans-78"/>
      <use x="74.804688" xlink:href="#DejaVuSans-111"/>
      <use x="135.986328" xlink:href="#DejaVuSans-114"/>
      <use x="177.099609" xlink:href="#DejaVuSans-116"/>
      <use x="216.308594" xlink:href="#DejaVuSans-104"/>
      <use x="279.6875" xlink:href="#DejaVuSans-32"/>
      <use x="311.474609" xlink:href="#DejaVuSans-65"/>
      <use x="379.882812" xlink:href="#DejaVuSans-109"/>
      <use x="477.294922" xlink:href="#DejaVuSans-101"/>
      <use x="538.818359" xlink:href="#DejaVuSans-114"/>
      <use x="579.931641" xlink:href="#DejaVuSans-105"/>
      <use x="607.714844" xlink:href="#DejaVuSans-99"/>
      <use x="662.695312" xlink:href="#DejaVuSans-97"/>
     </g>
    </g>
    <g id="line2d_26">
     <path d="M 50.98125 29.42125 
L 66.98125 29.42125 
" style="fill:none;stroke:#96c6ad;stroke-linecap:square;stroke-width:2;"/>
    </g>
    <g id="line2d_27"/>
    <g id="text_20">
     <!-- Europe -->
     <g transform="translate(73.38125 32.22125)scale(0.08 -0.08)">
      <defs>
       <path d="M 9.8125 72.90625 
L 55.90625 72.90625 
L 55.90625 64.59375 
L 19.671875 64.59375 
L 19.671875 43.015625 
L 54.390625 43.015625 
L 54.390625 34.71875 
L 19.671875 34.71875 
L 19.671875 8.296875 
L 56.78125 8.296875 
L 56.78125 0 
L 9.8125 0 
z
" id="DejaVuSans-69"/>
       <path d="M 18.109375 8.203125 
L 18.109375 -20.796875 
L 9.078125 -20.796875 
L 9.078125 54.6875 
L 18.109375 54.6875 
L 18.109375 46.390625 
Q 20.953125 51.265625 25.265625 53.625 
Q 29.59375 56 35.59375 56 
Q 45.5625 56 51.78125 48.09375 
Q 58.015625 40.1875 58.015625 27.296875 
Q 58.015625 14.40625 51.78125 6.484375 
Q 45.5625 -1.421875 35.59375 -1.421875 
Q 29.59375 -1.421875 25.265625 0.953125 
Q 20.953125 3.328125 18.109375 8.203125 
z
M 48.6875 27.296875 
Q 48.6875 37.203125 44.609375 42.84375 
Q 40.53125 48.484375 33.40625 48.484375 
Q 26.265625 48.484375 22.1875 42.84375 
Q 18.109375 37.203125 18.109375 27.296875 
Q 18.109375 17.390625 22.1875 11.75 
Q 26.265625 6.109375 33.40625 6.109375 
Q 40.53125 6.109375 44.609375 11.75 
Q 48.6875 17.390625 48.6875 27.296875 
z
" id="DejaVuSans-112"/>
      </defs>
      <use xlink:href="#DejaVuSans-69"/>
      <use x="63.183594" xlink:href="#DejaVuSans-117"/>
      <use x="126.5625" xlink:href="#DejaVuSans-114"/>
      <use x="165.425781" xlink:href="#DejaVuSans-111"/>
      <use x="226.607422" xlink:href="#DejaVuSans-112"/>
      <use x="290.083984" xlink:href="#DejaVuSans-101"/>
     </g>
    </g>
    <g id="line2d_28">
     <path d="M 50.98125 41.16375 
L 66.98125 41.16375 
" style="fill:none;stroke:#525886;stroke-linecap:square;stroke-width:2;"/>
    </g>
    <g id="line2d_29"/>
    <g id="text_21">
     <!-- Asia -->
     <g transform="translate(73.38125 43.96375)scale(0.08 -0.08)">
      <defs>
       <path d="M 44.28125 53.078125 
L 44.28125 44.578125 
Q 40.484375 46.53125 36.375 47.5 
Q 32.28125 48.484375 27.875 48.484375 
Q 21.1875 48.484375 17.84375 46.4375 
Q 14.5 44.390625 14.5 40.28125 
Q 14.5 37.15625 16.890625 35.375 
Q 19.28125 33.59375 26.515625 31.984375 
L 29.59375 31.296875 
Q 39.15625 29.25 43.1875 25.515625 
Q 47.21875 21.78125 47.21875 15.09375 
Q 47.21875 7.46875 41.1875 3.015625 
Q 35.15625 -1.421875 24.609375 -1.421875 
Q 20.21875 -1.421875 15.453125 -0.5625 
Q 10.6875 0.296875 5.421875 2 
L 5.421875 11.28125 
Q 10.40625 8.6875 15.234375 7.390625 
Q 20.0625 6.109375 24.8125 6.109375 
Q 31.15625 6.109375 34.5625 8.28125 
Q 37.984375 10.453125 37.984375 14.40625 
Q 37.984375 18.0625 35.515625 20.015625 
Q 33.0625 21.96875 24.703125 23.78125 
L 21.578125 24.515625 
Q 13.234375 26.265625 9.515625 29.90625 
Q 5.8125 33.546875 5.8125 39.890625 
Q 5.8125 47.609375 11.28125 51.796875 
Q 16.75 56 26.8125 56 
Q 31.78125 56 36.171875 55.265625 
Q 40.578125 54.546875 44.28125 53.078125 
z
" id="DejaVuSans-115"/>
      </defs>
      <use xlink:href="#DejaVuSans-65"/>
      <use x="68.408203" xlink:href="#DejaVuSans-115"/>
      <use x="120.507812" xlink:href="#DejaVuSans-105"/>
      <use x="148.291016" xlink:href="#DejaVuSans-97"/>
     </g>
    </g>
    <g id="line2d_30">
     <path d="M 50.98125 52.90625 
L 66.98125 52.90625 
" style="fill:none;stroke:#937252;stroke-linecap:square;stroke-width:2;"/>
    </g>
    <g id="line2d_31"/>
    <g id="text_22">
     <!-- South America -->
     <g transform="translate(73.38125 55.70625)scale(0.08 -0.08)">
      <defs>
       <path d="M 53.515625 70.515625 
L 53.515625 60.890625 
Q 47.90625 63.578125 42.921875 64.890625 
Q 37.9375 66.21875 33.296875 66.21875 
Q 25.25 66.21875 20.875 63.09375 
Q 16.5 59.96875 16.5 54.203125 
Q 16.5 49.359375 19.40625 46.890625 
Q 22.3125 44.4375 30.421875 42.921875 
L 36.375 41.703125 
Q 47.40625 39.59375 52.65625 34.296875 
Q 57.90625 29 57.90625 20.125 
Q 57.90625 9.515625 50.796875 4.046875 
Q 43.703125 -1.421875 29.984375 -1.421875 
Q 24.8125 -1.421875 18.96875 -0.25 
Q 13.140625 0.921875 6.890625 3.21875 
L 6.890625 13.375 
Q 12.890625 10.015625 18.65625 8.296875 
Q 24.421875 6.59375 29.984375 6.59375 
Q 38.421875 6.59375 43.015625 9.90625 
Q 47.609375 13.234375 47.609375 19.390625 
Q 47.609375 24.75 44.3125 27.78125 
Q 41.015625 30.8125 33.5 32.328125 
L 27.484375 33.5 
Q 16.453125 35.6875 11.515625 40.375 
Q 6.59375 45.0625 6.59375 53.421875 
Q 6.59375 63.09375 13.40625 68.65625 
Q 20.21875 74.21875 32.171875 74.21875 
Q 37.3125 74.21875 42.625 73.28125 
Q 47.953125 72.359375 53.515625 70.515625 
z
" id="DejaVuSans-83"/>
      </defs>
      <use xlink:href="#DejaVuSans-83"/>
      <use x="63.476562" xlink:href="#DejaVuSans-111"/>
      <use x="124.658203" xlink:href="#DejaVuSans-117"/>
      <use x="188.037109" xlink:href="#DejaVuSans-116"/>
      <use x="227.246094" xlink:href="#DejaVuSans-104"/>
      <use x="290.625" xlink:href="#DejaVuSans-32"/>
      <use x="322.412109" xlink:href="#DejaVuSans-65"/>
      <use x="390.820312" xlink:href="#DejaVuSans-109"/>
      <use x="488.232422" xlink:href="#DejaVuSans-101"/>
      <use x="549.755859" xlink:href="#DejaVuSans-114"/>
      <use x="590.869141" xlink:href="#DejaVuSans-105"/>
      <use x="618.652344" xlink:href="#DejaVuSans-99"/>
      <use x="673.632812" xlink:href="#DejaVuSans-97"/>
     </g>
    </g>
    <g id="line2d_32">
     <path d="M 50.98125 64.64875 
L 66.98125 64.64875 
" style="fill:none;stroke:#d18cad;stroke-linecap:square;stroke-width:2;"/>
    </g>
    <g id="line2d_33"/>
    <g id="text_23">
     <!-- United Kingdom -->
     <g transform="translate(73.38125 67.44875)scale(0.08 -0.08)">
      <defs>
       <path d="M 8.6875 72.90625 
L 18.609375 72.90625 
L 18.609375 28.609375 
Q 18.609375 16.890625 22.84375 11.734375 
Q 27.09375 6.59375 36.625 6.59375 
Q 46.09375 6.59375 50.34375 11.734375 
Q 54.59375 16.890625 54.59375 28.609375 
L 54.59375 72.90625 
L 64.5 72.90625 
L 64.5 27.390625 
Q 64.5 13.140625 57.4375 5.859375 
Q 50.390625 -1.421875 36.625 -1.421875 
Q 22.796875 -1.421875 15.734375 5.859375 
Q 8.6875 13.140625 8.6875 27.390625 
z
" id="DejaVuSans-85"/>
       <path d="M 9.8125 72.90625 
L 19.671875 72.90625 
L 19.671875 42.09375 
L 52.390625 72.90625 
L 65.09375 72.90625 
L 28.90625 38.921875 
L 67.671875 0 
L 54.6875 0 
L 19.671875 35.109375 
L 19.671875 0 
L 9.8125 0 
z
" id="DejaVuSans-75"/>
      </defs>
      <use xlink:href="#DejaVuSans-85"/>
      <use x="73.193359" xlink:href="#DejaVuSans-110"/>
      <use x="136.572266" xlink:href="#DejaVuSans-105"/>
      <use x="164.355469" xlink:href="#DejaVuSans-116"/>
      <use x="203.564453" xlink:href="#DejaVuSans-101"/>
      <use x="265.087891" xlink:href="#DejaVuSans-100"/>
      <use x="328.564453" xlink:href="#DejaVuSans-32"/>
      <use x="360.351562" xlink:href="#DejaVuSans-75"/>
      <use x="425.927734" xlink:href="#DejaVuSans-105"/>
      <use x="453.710938" xlink:href="#DejaVuSans-110"/>
      <use x="517.089844" xlink:href="#DejaVuSans-103"/>
      <use x="580.566406" xlink:href="#DejaVuSans-100"/>
      <use x="644.042969" xlink:href="#DejaVuSans-111"/>
      <use x="705.224609" xlink:href="#DejaVuSans-109"/>
     </g>
    </g>
    <g id="line2d_34">
     <path d="M 50.98125 76.39125 
L 66.98125 76.39125 
" style="fill:none;stroke:#a4a86f;stroke-linecap:square;stroke-width:2;"/>
    </g>
    <g id="line2d_35"/>
    <g id="text_24">
     <!-- Oceania -->
     <g transform="translate(73.38125 79.19125)scale(0.08 -0.08)">
      <defs>
       <path d="M 39.40625 66.21875 
Q 28.65625 66.21875 22.328125 58.203125 
Q 16.015625 50.203125 16.015625 36.375 
Q 16.015625 22.609375 22.328125 14.59375 
Q 28.65625 6.59375 39.40625 6.59375 
Q 50.140625 6.59375 56.421875 14.59375 
Q 62.703125 22.609375 62.703125 36.375 
Q 62.703125 50.203125 56.421875 58.203125 
Q 50.140625 66.21875 39.40625 66.21875 
z
M 39.40625 74.21875 
Q 54.734375 74.21875 63.90625 63.9375 
Q 73.09375 53.65625 73.09375 36.375 
Q 73.09375 19.140625 63.90625 8.859375 
Q 54.734375 -1.421875 39.40625 -1.421875 
Q 24.03125 -1.421875 14.8125 8.828125 
Q 5.609375 19.09375 5.609375 36.375 
Q 5.609375 53.65625 14.8125 63.9375 
Q 24.03125 74.21875 39.40625 74.21875 
z
" id="DejaVuSans-79"/>
      </defs>
      <use xlink:href="#DejaVuSans-79"/>
      <use x="78.710938" xlink:href="#DejaVuSans-99"/>
      <use x="133.691406" xlink:href="#DejaVuSans-101"/>
      <use x="195.214844" xlink:href="#DejaVuSans-97"/>
      <use x="256.494141" xlink:href="#DejaVuSans-110"/>
      <use x="319.873047" xlink:href="#DejaVuSans-105"/>
      <use x="347.65625" xlink:href="#DejaVuSans-97"/>
     </g>
    </g>
    <g id="line2d_36">
     <path d="M 50.98125 88.13375 
L 66.98125 88.13375 
" style="fill:none;stroke:#d3d3d3;stroke-linecap:square;stroke-width:2;"/>
    </g>
    <g id="line2d_37"/>
    <g id="text_25">
     <!-- Africa -->
     <g transform="translate(73.38125 90.93375)scale(0.08 -0.08)">
      <defs>
       <path d="M 37.109375 75.984375 
L 37.109375 68.5 
L 28.515625 68.5 
Q 23.6875 68.5 21.796875 66.546875 
Q 19.921875 64.59375 19.921875 59.515625 
L 19.921875 54.6875 
L 34.71875 54.6875 
L 34.71875 47.703125 
L 19.921875 47.703125 
L 19.921875 0 
L 10.890625 0 
L 10.890625 47.703125 
L 2.296875 47.703125 
L 2.296875 54.6875 
L 10.890625 54.6875 
L 10.890625 58.5 
Q 10.890625 67.625 15.140625 71.796875 
Q 19.390625 75.984375 28.609375 75.984375 
z
" id="DejaVuSans-102"/>
      </defs>
      <use xlink:href="#DejaVuSans-65"/>
      <use x="64.783203" xlink:href="#DejaVuSans-102"/>
      <use x="99.988281" xlink:href="#DejaVuSans-114"/>
      <use x="141.101562" xlink:href="#DejaVuSans-105"/>
      <use x="168.884766" xlink:href="#DejaVuSans-99"/>
      <use x="223.865234" xlink:href="#DejaVuSans-97"/>
     </g>
    </g>
   </g>
  </g>
 </g>
 <defs>
  <clipPath id="p73b7e650e9">
   <rect height="221.76" width="948.6" x="43.78125" y="7.2"/>
  </clipPath>
 </defs>
</svg>
