<?xml version="1.0" encoding="utf-8" standalone="no"?>
<!DOCTYPE svg PUBLIC "-//W3C//DTD SVG 1.1//EN"
  "http://www.w3.org/Graphics/SVG/1.1/DTD/svg11.dtd">
<!-- Created with matplotlib (https://matplotlib.org/) -->
<svg height="298.620937pt" version="1.1" viewBox="0 0 999.58125 298.620937" width="999.58125pt" xmlns="http://www.w3.org/2000/svg" xmlns:xlink="http://www.w3.org/1999/xlink">
 <metadata>
  <rdf:RDF xmlns:cc="http://creativecommons.org/ns#" xmlns:dc="http://purl.org/dc/elements/1.1/" xmlns:rdf="http://www.w3.org/1999/02/22-rdf-syntax-ns#">
   <cc:Work>
    <dc:type rdf:resource="http://purl.org/dc/dcmitype/StillImage"/>
    <dc:date>2021-05-25T14:30:05.026663</dc:date>
    <dc:format>image/svg+xml</dc:format>
    <dc:creator>
     <cc:Agent>
      <dc:title>Matplotlib v3.3.3, https://matplotlib.org/</dc:title>
     </cc:Agent>
    </dc:creator>
   </cc:Work>
  </rdf:RDF>
 </metadata>
 <defs>
  <style type="text/css">*{stroke-linecap:butt;stroke-linejoin:round;}</style>
 </defs>
 <g id="figure_1">
  <g id="patch_1">
   <path d="M 0 298.620937 
L 999.58125 298.620937 
L 999.58125 0 
L 0 0 
z
" style="fill:#ffffff;"/>
  </g>
  <g id="axes_1">
   <g id="patch_2">
    <path d="M 43.78125 228.96 
L 992.38125 228.96 
L 992.38125 7.2 
L 43.78125 7.2 
z
" style="fill:#ffffff;"/>
   </g>
   <g id="matplotlib.axis_1">
    <g id="xtick_1">
     <g id="line2d_1">
      <defs>
       <path d="M 0 0 
L 0 3.5 
" id="ma0e28e4748" style="stroke:#000000;stroke-width:0.8;"/>
      </defs>
      <g>
       <use style="stroke:#000000;stroke-width:0.8;" x="73.372159" xlink:href="#ma0e28e4748" y="228.96"/>
      </g>
     </g>
     <g id="text_1">
      <!-- 2020-09 -->
      <g transform="translate(76.131534 277.742812)rotate(-90)scale(0.1 -0.1)">
       <defs>
        <path d="M 19.1875 8.296875 
L 53.609375 8.296875 
L 53.609375 0 
L 7.328125 0 
L 7.328125 8.296875 
Q 12.9375 14.109375 22.625 23.890625 
Q 32.328125 33.6875 34.8125 36.53125 
Q 39.546875 41.84375 41.421875 45.53125 
Q 43.3125 49.21875 43.3125 52.78125 
Q 43.3125 58.59375 39.234375 62.25 
Q 35.15625 65.921875 28.609375 65.921875 
Q 23.96875 65.921875 18.8125 64.3125 
Q 13.671875 62.703125 7.8125 59.421875 
L 7.8125 69.390625 
Q 13.765625 71.78125 18.9375 73 
Q 24.125 74.21875 28.421875 74.21875 
Q 39.75 74.21875 46.484375 68.546875 
Q 53.21875 62.890625 53.21875 53.421875 
Q 53.21875 48.921875 51.53125 44.890625 
Q 49.859375 40.875 45.40625 35.40625 
Q 44.1875 33.984375 37.640625 27.21875 
Q 31.109375 20.453125 19.1875 8.296875 
z
" id="DejaVuSans-50"/>
        <path d="M 31.78125 66.40625 
Q 24.171875 66.40625 20.328125 58.90625 
Q 16.5 51.421875 16.5 36.375 
Q 16.5 21.390625 20.328125 13.890625 
Q 24.171875 6.390625 31.78125 6.390625 
Q 39.453125 6.390625 43.28125 13.890625 
Q 47.125 21.390625 47.125 36.375 
Q 47.125 51.421875 43.28125 58.90625 
Q 39.453125 66.40625 31.78125 66.40625 
z
M 31.78125 74.21875 
Q 44.046875 74.21875 50.515625 64.515625 
Q 56.984375 54.828125 56.984375 36.375 
Q 56.984375 17.96875 50.515625 8.265625 
Q 44.046875 -1.421875 31.78125 -1.421875 
Q 19.53125 -1.421875 13.0625 8.265625 
Q 6.59375 17.96875 6.59375 36.375 
Q 6.59375 54.828125 13.0625 64.515625 
Q 19.53125 74.21875 31.78125 74.21875 
z
" id="DejaVuSans-48"/>
        <path d="M 4.890625 31.390625 
L 31.203125 31.390625 
L 31.203125 23.390625 
L 4.890625 23.390625 
z
" id="DejaVuSans-45"/>
        <path d="M 10.984375 1.515625 
L 10.984375 10.5 
Q 14.703125 8.734375 18.5 7.8125 
Q 22.3125 6.890625 25.984375 6.890625 
Q 35.75 6.890625 40.890625 13.453125 
Q 46.046875 20.015625 46.78125 33.40625 
Q 43.953125 29.203125 39.59375 26.953125 
Q 35.25 24.703125 29.984375 24.703125 
Q 19.046875 24.703125 12.671875 31.3125 
Q 6.296875 37.9375 6.296875 49.421875 
Q 6.296875 60.640625 12.9375 67.421875 
Q 19.578125 74.21875 30.609375 74.21875 
Q 43.265625 74.21875 49.921875 64.515625 
Q 56.59375 54.828125 56.59375 36.375 
Q 56.59375 19.140625 48.40625 8.859375 
Q 40.234375 -1.421875 26.421875 -1.421875 
Q 22.703125 -1.421875 18.890625 -0.6875 
Q 15.09375 0.046875 10.984375 1.515625 
z
M 30.609375 32.421875 
Q 37.25 32.421875 41.125 36.953125 
Q 45.015625 41.5 45.015625 49.421875 
Q 45.015625 57.28125 41.125 61.84375 
Q 37.25 66.40625 30.609375 66.40625 
Q 23.96875 66.40625 20.09375 61.84375 
Q 16.21875 57.28125 16.21875 49.421875 
Q 16.21875 41.5 20.09375 36.953125 
Q 23.96875 32.421875 30.609375 32.421875 
z
" id="DejaVuSans-57"/>
       </defs>
       <use xlink:href="#DejaVuSans-50"/>
       <use x="63.623047" xlink:href="#DejaVuSans-48"/>
       <use x="127.246094" xlink:href="#DejaVuSans-50"/>
       <use x="190.869141" xlink:href="#DejaVuSans-48"/>
       <use x="254.492188" xlink:href="#DejaVuSans-45"/>
       <use x="290.576172" xlink:href="#DejaVuSans-48"/>
       <use x="354.199219" xlink:href="#DejaVuSans-57"/>
      </g>
     </g>
    </g>
    <g id="xtick_2">
     <g id="line2d_2">
      <g>
       <use style="stroke:#000000;stroke-width:0.8;" x="174.826705" xlink:href="#ma0e28e4748" y="228.96"/>
      </g>
     </g>
     <g id="text_2">
      <!-- 2020-10 -->
      <g transform="translate(177.58608 277.742812)rotate(-90)scale(0.1 -0.1)">
       <defs>
        <path d="M 12.40625 8.296875 
L 28.515625 8.296875 
L 28.515625 63.921875 
L 10.984375 60.40625 
L 10.984375 69.390625 
L 28.421875 72.90625 
L 38.28125 72.90625 
L 38.28125 8.296875 
L 54.390625 8.296875 
L 54.390625 0 
L 12.40625 0 
z
" id="DejaVuSans-49"/>
       </defs>
       <use xlink:href="#DejaVuSans-50"/>
       <use x="63.623047" xlink:href="#DejaVuSans-48"/>
       <use x="127.246094" xlink:href="#DejaVuSans-50"/>
       <use x="190.869141" xlink:href="#DejaVuSans-48"/>
       <use x="254.492188" xlink:href="#DejaVuSans-45"/>
       <use x="290.576172" xlink:href="#DejaVuSans-49"/>
       <use x="354.199219" xlink:href="#DejaVuSans-48"/>
      </g>
     </g>
    </g>
    <g id="xtick_3">
     <g id="line2d_3">
      <g>
       <use style="stroke:#000000;stroke-width:0.8;" x="279.663068" xlink:href="#ma0e28e4748" y="228.96"/>
      </g>
     </g>
     <g id="text_3">
      <!-- 2020-11 -->
      <g transform="translate(282.422443 277.742812)rotate(-90)scale(0.1 -0.1)">
       <use xlink:href="#DejaVuSans-50"/>
       <use x="63.623047" xlink:href="#DejaVuSans-48"/>
       <use x="127.246094" xlink:href="#DejaVuSans-50"/>
       <use x="190.869141" xlink:href="#DejaVuSans-48"/>
       <use x="254.492188" xlink:href="#DejaVuSans-45"/>
       <use x="290.576172" xlink:href="#DejaVuSans-49"/>
       <use x="354.199219" xlink:href="#DejaVuSans-49"/>
      </g>
     </g>
    </g>
    <g id="xtick_4">
     <g id="line2d_4">
      <g>
       <use style="stroke:#000000;stroke-width:0.8;" x="381.117614" xlink:href="#ma0e28e4748" y="228.96"/>
      </g>
     </g>
     <g id="text_4">
      <!-- 2020-12 -->
      <g transform="translate(383.876989 277.742812)rotate(-90)scale(0.1 -0.1)">
       <use xlink:href="#DejaVuSans-50"/>
       <use x="63.623047" xlink:href="#DejaVuSans-48"/>
       <use x="127.246094" xlink:href="#DejaVuSans-50"/>
       <use x="190.869141" xlink:href="#DejaVuSans-48"/>
       <use x="254.492188" xlink:href="#DejaVuSans-45"/>
       <use x="290.576172" xlink:href="#DejaVuSans-49"/>
       <use x="354.199219" xlink:href="#DejaVuSans-50"/>
      </g>
     </g>
    </g>
    <g id="xtick_5">
     <g id="line2d_5">
      <g>
       <use style="stroke:#000000;stroke-width:0.8;" x="485.953977" xlink:href="#ma0e28e4748" y="228.96"/>
      </g>
     </g>
     <g id="text_5">
      <!-- 2021-01 -->
      <g transform="translate(488.713352 277.742812)rotate(-90)scale(0.1 -0.1)">
       <use xlink:href="#DejaVuSans-50"/>
       <use x="63.623047" xlink:href="#DejaVuSans-48"/>
       <use x="127.246094" xlink:href="#DejaVuSans-50"/>
       <use x="190.869141" xlink:href="#DejaVuSans-49"/>
       <use x="254.492188" xlink:href="#DejaVuSans-45"/>
       <use x="290.576172" xlink:href="#DejaVuSans-48"/>
       <use x="354.199219" xlink:href="#DejaVuSans-49"/>
      </g>
     </g>
    </g>
    <g id="xtick_6">
     <g id="line2d_6">
      <g>
       <use style="stroke:#000000;stroke-width:0.8;" x="590.790341" xlink:href="#ma0e28e4748" y="228.96"/>
      </g>
     </g>
     <g id="text_6">
      <!-- 2021-02 -->
      <g transform="translate(593.549716 277.742812)rotate(-90)scale(0.1 -0.1)">
       <use xlink:href="#DejaVuSans-50"/>
       <use x="63.623047" xlink:href="#DejaVuSans-48"/>
       <use x="127.246094" xlink:href="#DejaVuSans-50"/>
       <use x="190.869141" xlink:href="#DejaVuSans-49"/>
       <use x="254.492188" xlink:href="#DejaVuSans-45"/>
       <use x="290.576172" xlink:href="#DejaVuSans-48"/>
       <use x="354.199219" xlink:href="#DejaVuSans-50"/>
      </g>
     </g>
    </g>
    <g id="xtick_7">
     <g id="line2d_7">
      <g>
       <use style="stroke:#000000;stroke-width:0.8;" x="685.48125" xlink:href="#ma0e28e4748" y="228.96"/>
      </g>
     </g>
     <g id="text_7">
      <!-- 2021-03 -->
      <g transform="translate(688.240625 277.742812)rotate(-90)scale(0.1 -0.1)">
       <defs>
        <path d="M 40.578125 39.3125 
Q 47.65625 37.796875 51.625 33 
Q 55.609375 28.21875 55.609375 21.1875 
Q 55.609375 10.40625 48.1875 4.484375 
Q 40.765625 -1.421875 27.09375 -1.421875 
Q 22.515625 -1.421875 17.65625 -0.515625 
Q 12.796875 0.390625 7.625 2.203125 
L 7.625 11.71875 
Q 11.71875 9.328125 16.59375 8.109375 
Q 21.484375 6.890625 26.8125 6.890625 
Q 36.078125 6.890625 40.9375 10.546875 
Q 45.796875 14.203125 45.796875 21.1875 
Q 45.796875 27.640625 41.28125 31.265625 
Q 36.765625 34.90625 28.71875 34.90625 
L 20.21875 34.90625 
L 20.21875 43.015625 
L 29.109375 43.015625 
Q 36.375 43.015625 40.234375 45.921875 
Q 44.09375 48.828125 44.09375 54.296875 
Q 44.09375 59.90625 40.109375 62.90625 
Q 36.140625 65.921875 28.71875 65.921875 
Q 24.65625 65.921875 20.015625 65.03125 
Q 15.375 64.15625 9.8125 62.3125 
L 9.8125 71.09375 
Q 15.4375 72.65625 20.34375 73.4375 
Q 25.25 74.21875 29.59375 74.21875 
Q 40.828125 74.21875 47.359375 69.109375 
Q 53.90625 64.015625 53.90625 55.328125 
Q 53.90625 49.265625 50.4375 45.09375 
Q 46.96875 40.921875 40.578125 39.3125 
z
" id="DejaVuSans-51"/>
       </defs>
       <use xlink:href="#DejaVuSans-50"/>
       <use x="63.623047" xlink:href="#DejaVuSans-48"/>
       <use x="127.246094" xlink:href="#DejaVuSans-50"/>
       <use x="190.869141" xlink:href="#DejaVuSans-49"/>
       <use x="254.492188" xlink:href="#DejaVuSans-45"/>
       <use x="290.576172" xlink:href="#DejaVuSans-48"/>
       <use x="354.199219" xlink:href="#DejaVuSans-51"/>
      </g>
     </g>
    </g>
    <g id="xtick_8">
     <g id="line2d_8">
      <g>
       <use style="stroke:#000000;stroke-width:0.8;" x="790.317614" xlink:href="#ma0e28e4748" y="228.96"/>
      </g>
     </g>
     <g id="text_8">
      <!-- 2021-04 -->
      <g transform="translate(793.076989 277.742812)rotate(-90)scale(0.1 -0.1)">
       <defs>
        <path d="M 37.796875 64.3125 
L 12.890625 25.390625 
L 37.796875 25.390625 
z
M 35.203125 72.90625 
L 47.609375 72.90625 
L 47.609375 25.390625 
L 58.015625 25.390625 
L 58.015625 17.1875 
L 47.609375 17.1875 
L 47.609375 0 
L 37.796875 0 
L 37.796875 17.1875 
L 4.890625 17.1875 
L 4.890625 26.703125 
z
" id="DejaVuSans-52"/>
       </defs>
       <use xlink:href="#DejaVuSans-50"/>
       <use x="63.623047" xlink:href="#DejaVuSans-48"/>
       <use x="127.246094" xlink:href="#DejaVuSans-50"/>
       <use x="190.869141" xlink:href="#DejaVuSans-49"/>
       <use x="254.492188" xlink:href="#DejaVuSans-45"/>
       <use x="290.576172" xlink:href="#DejaVuSans-48"/>
       <use x="354.199219" xlink:href="#DejaVuSans-52"/>
      </g>
     </g>
    </g>
    <g id="xtick_9">
     <g id="line2d_9">
      <g>
       <use style="stroke:#000000;stroke-width:0.8;" x="891.772159" xlink:href="#ma0e28e4748" y="228.96"/>
      </g>
     </g>
     <g id="text_9">
      <!-- 2021-05 -->
      <g transform="translate(894.531534 277.742812)rotate(-90)scale(0.1 -0.1)">
       <defs>
        <path d="M 10.796875 72.90625 
L 49.515625 72.90625 
L 49.515625 64.59375 
L 19.828125 64.59375 
L 19.828125 46.734375 
Q 21.96875 47.46875 24.109375 47.828125 
Q 26.265625 48.1875 28.421875 48.1875 
Q 40.625 48.1875 47.75 41.5 
Q 54.890625 34.8125 54.890625 23.390625 
Q 54.890625 11.625 47.5625 5.09375 
Q 40.234375 -1.421875 26.90625 -1.421875 
Q 22.3125 -1.421875 17.546875 -0.640625 
Q 12.796875 0.140625 7.71875 1.703125 
L 7.71875 11.625 
Q 12.109375 9.234375 16.796875 8.0625 
Q 21.484375 6.890625 26.703125 6.890625 
Q 35.15625 6.890625 40.078125 11.328125 
Q 45.015625 15.765625 45.015625 23.390625 
Q 45.015625 31 40.078125 35.4375 
Q 35.15625 39.890625 26.703125 39.890625 
Q 22.75 39.890625 18.8125 39.015625 
Q 14.890625 38.140625 10.796875 36.28125 
z
" id="DejaVuSans-53"/>
       </defs>
       <use xlink:href="#DejaVuSans-50"/>
       <use x="63.623047" xlink:href="#DejaVuSans-48"/>
       <use x="127.246094" xlink:href="#DejaVuSans-50"/>
       <use x="190.869141" xlink:href="#DejaVuSans-49"/>
       <use x="254.492188" xlink:href="#DejaVuSans-45"/>
       <use x="290.576172" xlink:href="#DejaVuSans-48"/>
       <use x="354.199219" xlink:href="#DejaVuSans-53"/>
      </g>
     </g>
    </g>
    <g id="text_10">
     <!-- Date -->
     <g transform="translate(506.130469 289.34125)scale(0.1 -0.1)">
      <defs>
       <path d="M 19.671875 64.796875 
L 19.671875 8.109375 
L 31.59375 8.109375 
Q 46.6875 8.109375 53.6875 14.9375 
Q 60.6875 21.78125 60.6875 36.53125 
Q 60.6875 51.171875 53.6875 57.984375 
Q 46.6875 64.796875 31.59375 64.796875 
z
M 9.8125 72.90625 
L 30.078125 72.90625 
Q 51.265625 72.90625 61.171875 64.09375 
Q 71.09375 55.28125 71.09375 36.53125 
Q 71.09375 17.671875 61.125 8.828125 
Q 51.171875 0 30.078125 0 
L 9.8125 0 
z
" id="DejaVuSans-68"/>
       <path d="M 34.28125 27.484375 
Q 23.390625 27.484375 19.1875 25 
Q 14.984375 22.515625 14.984375 16.5 
Q 14.984375 11.71875 18.140625 8.90625 
Q 21.296875 6.109375 26.703125 6.109375 
Q 34.1875 6.109375 38.703125 11.40625 
Q 43.21875 16.703125 43.21875 25.484375 
L 43.21875 27.484375 
z
M 52.203125 31.203125 
L 52.203125 0 
L 43.21875 0 
L 43.21875 8.296875 
Q 40.140625 3.328125 35.546875 0.953125 
Q 30.953125 -1.421875 24.3125 -1.421875 
Q 15.921875 -1.421875 10.953125 3.296875 
Q 6 8.015625 6 15.921875 
Q 6 25.140625 12.171875 29.828125 
Q 18.359375 34.515625 30.609375 34.515625 
L 43.21875 34.515625 
L 43.21875 35.40625 
Q 43.21875 41.609375 39.140625 45 
Q 35.0625 48.390625 27.6875 48.390625 
Q 23 48.390625 18.546875 47.265625 
Q 14.109375 46.140625 10.015625 43.890625 
L 10.015625 52.203125 
Q 14.9375 54.109375 19.578125 55.046875 
Q 24.21875 56 28.609375 56 
Q 40.484375 56 46.34375 49.84375 
Q 52.203125 43.703125 52.203125 31.203125 
z
" id="DejaVuSans-97"/>
       <path d="M 18.3125 70.21875 
L 18.3125 54.6875 
L 36.8125 54.6875 
L 36.8125 47.703125 
L 18.3125 47.703125 
L 18.3125 18.015625 
Q 18.3125 11.328125 20.140625 9.421875 
Q 21.96875 7.515625 27.59375 7.515625 
L 36.8125 7.515625 
L 36.8125 0 
L 27.59375 0 
Q 17.1875 0 13.234375 3.875 
Q 9.28125 7.765625 9.28125 18.015625 
L 9.28125 47.703125 
L 2.6875 47.703125 
L 2.6875 54.6875 
L 9.28125 54.6875 
L 9.28125 70.21875 
z
" id="DejaVuSans-116"/>
       <path d="M 56.203125 29.59375 
L 56.203125 25.203125 
L 14.890625 25.203125 
Q 15.484375 15.921875 20.484375 11.0625 
Q 25.484375 6.203125 34.421875 6.203125 
Q 39.59375 6.203125 44.453125 7.46875 
Q 49.3125 8.734375 54.109375 11.28125 
L 54.109375 2.78125 
Q 49.265625 0.734375 44.1875 -0.34375 
Q 39.109375 -1.421875 33.890625 -1.421875 
Q 20.796875 -1.421875 13.15625 6.1875 
Q 5.515625 13.8125 5.515625 26.8125 
Q 5.515625 40.234375 12.765625 48.109375 
Q 20.015625 56 32.328125 56 
Q 43.359375 56 49.78125 48.890625 
Q 56.203125 41.796875 56.203125 29.59375 
z
M 47.21875 32.234375 
Q 47.125 39.59375 43.09375 43.984375 
Q 39.0625 48.390625 32.421875 48.390625 
Q 24.90625 48.390625 20.390625 44.140625 
Q 15.875 39.890625 15.1875 32.171875 
z
" id="DejaVuSans-101"/>
      </defs>
      <use xlink:href="#DejaVuSans-68"/>
      <use x="77.001953" xlink:href="#DejaVuSans-97"/>
      <use x="138.28125" xlink:href="#DejaVuSans-116"/>
      <use x="177.490234" xlink:href="#DejaVuSans-101"/>
     </g>
    </g>
   </g>
   <g id="matplotlib.axis_2">
    <g id="ytick_1">
     <g id="line2d_10">
      <defs>
       <path d="M 0 0 
L -3.5 0 
" id="m81ea1394e3" style="stroke:#000000;stroke-width:0.8;"/>
      </defs>
      <g>
       <use style="stroke:#000000;stroke-width:0.8;" x="43.78125" xlink:href="#m81ea1394e3" y="228.96"/>
      </g>
     </g>
     <g id="text_11">
      <!-- 0.0 -->
      <g transform="translate(20.878125 232.759219)scale(0.1 -0.1)">
       <defs>
        <path d="M 10.6875 12.40625 
L 21 12.40625 
L 21 0 
L 10.6875 0 
z
" id="DejaVuSans-46"/>
       </defs>
       <use xlink:href="#DejaVuSans-48"/>
       <use x="63.623047" xlink:href="#DejaVuSans-46"/>
       <use x="95.410156" xlink:href="#DejaVuSans-48"/>
      </g>
     </g>
    </g>
    <g id="ytick_2">
     <g id="line2d_11">
      <g>
       <use style="stroke:#000000;stroke-width:0.8;" x="43.78125" xlink:href="#m81ea1394e3" y="183.671142"/>
      </g>
     </g>
     <g id="text_12">
      <!-- 0.2 -->
      <g transform="translate(20.878125 187.470361)scale(0.1 -0.1)">
       <use xlink:href="#DejaVuSans-48"/>
       <use x="63.623047" xlink:href="#DejaVuSans-46"/>
       <use x="95.410156" xlink:href="#DejaVuSans-50"/>
      </g>
     </g>
    </g>
    <g id="ytick_3">
     <g id="line2d_12">
      <g>
       <use style="stroke:#000000;stroke-width:0.8;" x="43.78125" xlink:href="#m81ea1394e3" y="138.382285"/>
      </g>
     </g>
     <g id="text_13">
      <!-- 0.4 -->
      <g transform="translate(20.878125 142.181503)scale(0.1 -0.1)">
       <use xlink:href="#DejaVuSans-48"/>
       <use x="63.623047" xlink:href="#DejaVuSans-46"/>
       <use x="95.410156" xlink:href="#DejaVuSans-52"/>
      </g>
     </g>
    </g>
    <g id="ytick_4">
     <g id="line2d_13">
      <g>
       <use style="stroke:#000000;stroke-width:0.8;" x="43.78125" xlink:href="#m81ea1394e3" y="93.093427"/>
      </g>
     </g>
     <g id="text_14">
      <!-- 0.6 -->
      <g transform="translate(20.878125 96.892646)scale(0.1 -0.1)">
       <defs>
        <path d="M 33.015625 40.375 
Q 26.375 40.375 22.484375 35.828125 
Q 18.609375 31.296875 18.609375 23.390625 
Q 18.609375 15.53125 22.484375 10.953125 
Q 26.375 6.390625 33.015625 6.390625 
Q 39.65625 6.390625 43.53125 10.953125 
Q 47.40625 15.53125 47.40625 23.390625 
Q 47.40625 31.296875 43.53125 35.828125 
Q 39.65625 40.375 33.015625 40.375 
z
M 52.59375 71.296875 
L 52.59375 62.3125 
Q 48.875 64.0625 45.09375 64.984375 
Q 41.3125 65.921875 37.59375 65.921875 
Q 27.828125 65.921875 22.671875 59.328125 
Q 17.53125 52.734375 16.796875 39.40625 
Q 19.671875 43.65625 24.015625 45.921875 
Q 28.375 48.1875 33.59375 48.1875 
Q 44.578125 48.1875 50.953125 41.515625 
Q 57.328125 34.859375 57.328125 23.390625 
Q 57.328125 12.15625 50.6875 5.359375 
Q 44.046875 -1.421875 33.015625 -1.421875 
Q 20.359375 -1.421875 13.671875 8.265625 
Q 6.984375 17.96875 6.984375 36.375 
Q 6.984375 53.65625 15.1875 63.9375 
Q 23.390625 74.21875 37.203125 74.21875 
Q 40.921875 74.21875 44.703125 73.484375 
Q 48.484375 72.75 52.59375 71.296875 
z
" id="DejaVuSans-54"/>
       </defs>
       <use xlink:href="#DejaVuSans-48"/>
       <use x="63.623047" xlink:href="#DejaVuSans-46"/>
       <use x="95.410156" xlink:href="#DejaVuSans-54"/>
      </g>
     </g>
    </g>
    <g id="ytick_5">
     <g id="line2d_14">
      <g>
       <use style="stroke:#000000;stroke-width:0.8;" x="43.78125" xlink:href="#m81ea1394e3" y="47.804569"/>
      </g>
     </g>
     <g id="text_15">
      <!-- 0.8 -->
      <g transform="translate(20.878125 51.603788)scale(0.1 -0.1)">
       <defs>
        <path d="M 31.78125 34.625 
Q 24.75 34.625 20.71875 30.859375 
Q 16.703125 27.09375 16.703125 20.515625 
Q 16.703125 13.921875 20.71875 10.15625 
Q 24.75 6.390625 31.78125 6.390625 
Q 38.8125 6.390625 42.859375 10.171875 
Q 46.921875 13.96875 46.921875 20.515625 
Q 46.921875 27.09375 42.890625 30.859375 
Q 38.875 34.625 31.78125 34.625 
z
M 21.921875 38.8125 
Q 15.578125 40.375 12.03125 44.71875 
Q 8.5 49.078125 8.5 55.328125 
Q 8.5 64.0625 14.71875 69.140625 
Q 20.953125 74.21875 31.78125 74.21875 
Q 42.671875 74.21875 48.875 69.140625 
Q 55.078125 64.0625 55.078125 55.328125 
Q 55.078125 49.078125 51.53125 44.71875 
Q 48 40.375 41.703125 38.8125 
Q 48.828125 37.15625 52.796875 32.3125 
Q 56.78125 27.484375 56.78125 20.515625 
Q 56.78125 9.90625 50.3125 4.234375 
Q 43.84375 -1.421875 31.78125 -1.421875 
Q 19.734375 -1.421875 13.25 4.234375 
Q 6.78125 9.90625 6.78125 20.515625 
Q 6.78125 27.484375 10.78125 32.3125 
Q 14.796875 37.15625 21.921875 38.8125 
z
M 18.3125 54.390625 
Q 18.3125 48.734375 21.84375 45.5625 
Q 25.390625 42.390625 31.78125 42.390625 
Q 38.140625 42.390625 41.71875 45.5625 
Q 45.3125 48.734375 45.3125 54.390625 
Q 45.3125 60.0625 41.71875 63.234375 
Q 38.140625 66.40625 31.78125 66.40625 
Q 25.390625 66.40625 21.84375 63.234375 
Q 18.3125 60.0625 18.3125 54.390625 
z
" id="DejaVuSans-56"/>
       </defs>
       <use xlink:href="#DejaVuSans-48"/>
       <use x="63.623047" xlink:href="#DejaVuSans-46"/>
       <use x="95.410156" xlink:href="#DejaVuSans-56"/>
      </g>
     </g>
    </g>
    <g id="text_16">
     <!-- Frequency (7 day rolling average) -->
     <g transform="translate(14.798437 202.529219)rotate(-90)scale(0.1 -0.1)">
      <defs>
       <path d="M 9.8125 72.90625 
L 51.703125 72.90625 
L 51.703125 64.59375 
L 19.671875 64.59375 
L 19.671875 43.109375 
L 48.578125 43.109375 
L 48.578125 34.8125 
L 19.671875 34.8125 
L 19.671875 0 
L 9.8125 0 
z
" id="DejaVuSans-70"/>
       <path d="M 41.109375 46.296875 
Q 39.59375 47.171875 37.8125 47.578125 
Q 36.03125 48 33.890625 48 
Q 26.265625 48 22.1875 43.046875 
Q 18.109375 38.09375 18.109375 28.8125 
L 18.109375 0 
L 9.078125 0 
L 9.078125 54.6875 
L 18.109375 54.6875 
L 18.109375 46.1875 
Q 20.953125 51.171875 25.484375 53.578125 
Q 30.03125 56 36.53125 56 
Q 37.453125 56 38.578125 55.875 
Q 39.703125 55.765625 41.0625 55.515625 
z
" id="DejaVuSans-114"/>
       <path d="M 14.796875 27.296875 
Q 14.796875 17.390625 18.875 11.75 
Q 22.953125 6.109375 30.078125 6.109375 
Q 37.203125 6.109375 41.296875 11.75 
Q 45.40625 17.390625 45.40625 27.296875 
Q 45.40625 37.203125 41.296875 42.84375 
Q 37.203125 48.484375 30.078125 48.484375 
Q 22.953125 48.484375 18.875 42.84375 
Q 14.796875 37.203125 14.796875 27.296875 
z
M 45.40625 8.203125 
Q 42.578125 3.328125 38.25 0.953125 
Q 33.9375 -1.421875 27.875 -1.421875 
Q 17.96875 -1.421875 11.734375 6.484375 
Q 5.515625 14.40625 5.515625 27.296875 
Q 5.515625 40.1875 11.734375 48.09375 
Q 17.96875 56 27.875 56 
Q 33.9375 56 38.25 53.625 
Q 42.578125 51.265625 45.40625 46.390625 
L 45.40625 54.6875 
L 54.390625 54.6875 
L 54.390625 -20.796875 
L 45.40625 -20.796875 
z
" id="DejaVuSans-113"/>
       <path d="M 8.5 21.578125 
L 8.5 54.6875 
L 17.484375 54.6875 
L 17.484375 21.921875 
Q 17.484375 14.15625 20.5 10.265625 
Q 23.53125 6.390625 29.59375 6.390625 
Q 36.859375 6.390625 41.078125 11.03125 
Q 45.3125 15.671875 45.3125 23.6875 
L 45.3125 54.6875 
L 54.296875 54.6875 
L 54.296875 0 
L 45.3125 0 
L 45.3125 8.40625 
Q 42.046875 3.421875 37.71875 1 
Q 33.40625 -1.421875 27.6875 -1.421875 
Q 18.265625 -1.421875 13.375 4.4375 
Q 8.5 10.296875 8.5 21.578125 
z
M 31.109375 56 
z
" id="DejaVuSans-117"/>
       <path d="M 54.890625 33.015625 
L 54.890625 0 
L 45.90625 0 
L 45.90625 32.71875 
Q 45.90625 40.484375 42.875 44.328125 
Q 39.84375 48.1875 33.796875 48.1875 
Q 26.515625 48.1875 22.3125 43.546875 
Q 18.109375 38.921875 18.109375 30.90625 
L 18.109375 0 
L 9.078125 0 
L 9.078125 54.6875 
L 18.109375 54.6875 
L 18.109375 46.1875 
Q 21.34375 51.125 25.703125 53.5625 
Q 30.078125 56 35.796875 56 
Q 45.21875 56 50.046875 50.171875 
Q 54.890625 44.34375 54.890625 33.015625 
z
" id="DejaVuSans-110"/>
       <path d="M 48.78125 52.59375 
L 48.78125 44.1875 
Q 44.96875 46.296875 41.140625 47.34375 
Q 37.3125 48.390625 33.40625 48.390625 
Q 24.65625 48.390625 19.8125 42.84375 
Q 14.984375 37.3125 14.984375 27.296875 
Q 14.984375 17.28125 19.8125 11.734375 
Q 24.65625 6.203125 33.40625 6.203125 
Q 37.3125 6.203125 41.140625 7.25 
Q 44.96875 8.296875 48.78125 10.40625 
L 48.78125 2.09375 
Q 45.015625 0.34375 40.984375 -0.53125 
Q 36.96875 -1.421875 32.421875 -1.421875 
Q 20.0625 -1.421875 12.78125 6.34375 
Q 5.515625 14.109375 5.515625 27.296875 
Q 5.515625 40.671875 12.859375 48.328125 
Q 20.21875 56 33.015625 56 
Q 37.15625 56 41.109375 55.140625 
Q 45.0625 54.296875 48.78125 52.59375 
z
" id="DejaVuSans-99"/>
       <path d="M 32.171875 -5.078125 
Q 28.375 -14.84375 24.75 -17.8125 
Q 21.140625 -20.796875 15.09375 -20.796875 
L 7.90625 -20.796875 
L 7.90625 -13.28125 
L 13.1875 -13.28125 
Q 16.890625 -13.28125 18.9375 -11.515625 
Q 21 -9.765625 23.484375 -3.21875 
L 25.09375 0.875 
L 2.984375 54.6875 
L 12.5 54.6875 
L 29.59375 11.921875 
L 46.6875 54.6875 
L 56.203125 54.6875 
z
" id="DejaVuSans-121"/>
       <path id="DejaVuSans-32"/>
       <path d="M 31 75.875 
Q 24.46875 64.65625 21.28125 53.65625 
Q 18.109375 42.671875 18.109375 31.390625 
Q 18.109375 20.125 21.3125 9.0625 
Q 24.515625 -2 31 -13.1875 
L 23.1875 -13.1875 
Q 15.875 -1.703125 12.234375 9.375 
Q 8.59375 20.453125 8.59375 31.390625 
Q 8.59375 42.28125 12.203125 53.3125 
Q 15.828125 64.359375 23.1875 75.875 
z
" id="DejaVuSans-40"/>
       <path d="M 8.203125 72.90625 
L 55.078125 72.90625 
L 55.078125 68.703125 
L 28.609375 0 
L 18.3125 0 
L 43.21875 64.59375 
L 8.203125 64.59375 
z
" id="DejaVuSans-55"/>
       <path d="M 45.40625 46.390625 
L 45.40625 75.984375 
L 54.390625 75.984375 
L 54.390625 0 
L 45.40625 0 
L 45.40625 8.203125 
Q 42.578125 3.328125 38.25 0.953125 
Q 33.9375 -1.421875 27.875 -1.421875 
Q 17.96875 -1.421875 11.734375 6.484375 
Q 5.515625 14.40625 5.515625 27.296875 
Q 5.515625 40.1875 11.734375 48.09375 
Q 17.96875 56 27.875 56 
Q 33.9375 56 38.25 53.625 
Q 42.578125 51.265625 45.40625 46.390625 
z
M 14.796875 27.296875 
Q 14.796875 17.390625 18.875 11.75 
Q 22.953125 6.109375 30.078125 6.109375 
Q 37.203125 6.109375 41.296875 11.75 
Q 45.40625 17.390625 45.40625 27.296875 
Q 45.40625 37.203125 41.296875 42.84375 
Q 37.203125 48.484375 30.078125 48.484375 
Q 22.953125 48.484375 18.875 42.84375 
Q 14.796875 37.203125 14.796875 27.296875 
z
" id="DejaVuSans-100"/>
       <path d="M 30.609375 48.390625 
Q 23.390625 48.390625 19.1875 42.75 
Q 14.984375 37.109375 14.984375 27.296875 
Q 14.984375 17.484375 19.15625 11.84375 
Q 23.34375 6.203125 30.609375 6.203125 
Q 37.796875 6.203125 41.984375 11.859375 
Q 46.1875 17.53125 46.1875 27.296875 
Q 46.1875 37.015625 41.984375 42.703125 
Q 37.796875 48.390625 30.609375 48.390625 
z
M 30.609375 56 
Q 42.328125 56 49.015625 48.375 
Q 55.71875 40.765625 55.71875 27.296875 
Q 55.71875 13.875 49.015625 6.21875 
Q 42.328125 -1.421875 30.609375 -1.421875 
Q 18.84375 -1.421875 12.171875 6.21875 
Q 5.515625 13.875 5.515625 27.296875 
Q 5.515625 40.765625 12.171875 48.375 
Q 18.84375 56 30.609375 56 
z
" id="DejaVuSans-111"/>
       <path d="M 9.421875 75.984375 
L 18.40625 75.984375 
L 18.40625 0 
L 9.421875 0 
z
" id="DejaVuSans-108"/>
       <path d="M 9.421875 54.6875 
L 18.40625 54.6875 
L 18.40625 0 
L 9.421875 0 
z
M 9.421875 75.984375 
L 18.40625 75.984375 
L 18.40625 64.59375 
L 9.421875 64.59375 
z
" id="DejaVuSans-105"/>
       <path d="M 45.40625 27.984375 
Q 45.40625 37.75 41.375 43.109375 
Q 37.359375 48.484375 30.078125 48.484375 
Q 22.859375 48.484375 18.828125 43.109375 
Q 14.796875 37.75 14.796875 27.984375 
Q 14.796875 18.265625 18.828125 12.890625 
Q 22.859375 7.515625 30.078125 7.515625 
Q 37.359375 7.515625 41.375 12.890625 
Q 45.40625 18.265625 45.40625 27.984375 
z
M 54.390625 6.78125 
Q 54.390625 -7.171875 48.1875 -13.984375 
Q 42 -20.796875 29.203125 -20.796875 
Q 24.46875 -20.796875 20.265625 -20.09375 
Q 16.0625 -19.390625 12.109375 -17.921875 
L 12.109375 -9.1875 
Q 16.0625 -11.328125 19.921875 -12.34375 
Q 23.78125 -13.375 27.78125 -13.375 
Q 36.625 -13.375 41.015625 -8.765625 
Q 45.40625 -4.15625 45.40625 5.171875 
L 45.40625 9.625 
Q 42.625 4.78125 38.28125 2.390625 
Q 33.9375 0 27.875 0 
Q 17.828125 0 11.671875 7.65625 
Q 5.515625 15.328125 5.515625 27.984375 
Q 5.515625 40.671875 11.671875 48.328125 
Q 17.828125 56 27.875 56 
Q 33.9375 56 38.28125 53.609375 
Q 42.625 51.21875 45.40625 46.390625 
L 45.40625 54.6875 
L 54.390625 54.6875 
z
" id="DejaVuSans-103"/>
       <path d="M 2.984375 54.6875 
L 12.5 54.6875 
L 29.59375 8.796875 
L 46.6875 54.6875 
L 56.203125 54.6875 
L 35.6875 0 
L 23.484375 0 
z
" id="DejaVuSans-118"/>
       <path d="M 8.015625 75.875 
L 15.828125 75.875 
Q 23.140625 64.359375 26.78125 53.3125 
Q 30.421875 42.28125 30.421875 31.390625 
Q 30.421875 20.453125 26.78125 9.375 
Q 23.140625 -1.703125 15.828125 -13.1875 
L 8.015625 -13.1875 
Q 14.5 -2 17.703125 9.0625 
Q 20.90625 20.125 20.90625 31.390625 
Q 20.90625 42.671875 17.703125 53.65625 
Q 14.5 64.65625 8.015625 75.875 
z
" id="DejaVuSans-41"/>
      </defs>
      <use xlink:href="#DejaVuSans-70"/>
      <use x="50.269531" xlink:href="#DejaVuSans-114"/>
      <use x="89.132812" xlink:href="#DejaVuSans-101"/>
      <use x="150.65625" xlink:href="#DejaVuSans-113"/>
      <use x="214.132812" xlink:href="#DejaVuSans-117"/>
      <use x="277.511719" xlink:href="#DejaVuSans-101"/>
      <use x="339.035156" xlink:href="#DejaVuSans-110"/>
      <use x="402.414062" xlink:href="#DejaVuSans-99"/>
      <use x="457.394531" xlink:href="#DejaVuSans-121"/>
      <use x="516.574219" xlink:href="#DejaVuSans-32"/>
      <use x="548.361328" xlink:href="#DejaVuSans-40"/>
      <use x="587.375" xlink:href="#DejaVuSans-55"/>
      <use x="650.998047" xlink:href="#DejaVuSans-32"/>
      <use x="682.785156" xlink:href="#DejaVuSans-100"/>
      <use x="746.261719" xlink:href="#DejaVuSans-97"/>
      <use x="807.541016" xlink:href="#DejaVuSans-121"/>
      <use x="866.720703" xlink:href="#DejaVuSans-32"/>
      <use x="898.507812" xlink:href="#DejaVuSans-114"/>
      <use x="937.371094" xlink:href="#DejaVuSans-111"/>
      <use x="998.552734" xlink:href="#DejaVuSans-108"/>
      <use x="1026.335938" xlink:href="#DejaVuSans-108"/>
      <use x="1054.119141" xlink:href="#DejaVuSans-105"/>
      <use x="1081.902344" xlink:href="#DejaVuSans-110"/>
      <use x="1145.28125" xlink:href="#DejaVuSans-103"/>
      <use x="1208.757812" xlink:href="#DejaVuSans-32"/>
      <use x="1240.544922" xlink:href="#DejaVuSans-97"/>
      <use x="1301.824219" xlink:href="#DejaVuSans-118"/>
      <use x="1361.003906" xlink:href="#DejaVuSans-101"/>
      <use x="1422.527344" xlink:href="#DejaVuSans-114"/>
      <use x="1463.640625" xlink:href="#DejaVuSans-97"/>
      <use x="1524.919922" xlink:href="#DejaVuSans-103"/>
      <use x="1588.396484" xlink:href="#DejaVuSans-101"/>
      <use x="1649.919922" xlink:href="#DejaVuSans-41"/>
     </g>
    </g>
   </g>
   <g id="line2d_15">
    <path clip-path="url(#p19e5443e15)" d="M 475.808523 227.930708 
L 479.190341 228.96 
L 513.008523 228.893968 
L 523.153977 228.821922 
L 577.263068 228.730779 
L 584.026705 228.591153 
L 587.408523 228.701131 
L 597.553977 228.619251 
L 600.935795 228.684042 
L 604.317614 228.611308 
L 611.08125 228.765254 
L 624.608523 228.503835 
L 627.990341 228.424829 
L 631.372159 228.474317 
L 641.517614 228.347267 
L 648.28125 228.306588 
L 655.044886 228.162692 
L 658.426705 228.314221 
L 665.190341 228.17698 
L 671.953977 228.272999 
L 675.335795 228.07761 
L 682.099432 228.039973 
L 688.863068 227.803207 
L 699.008523 228.038447 
L 702.390341 227.964797 
L 705.772159 228.035544 
L 712.535795 227.741128 
L 715.917614 227.736569 
L 719.299432 227.905602 
L 742.972159 227.893906 
L 749.735795 227.507334 
L 753.117614 227.510716 
L 756.499432 227.367463 
L 766.644886 227.528115 
L 773.408523 227.399632 
L 783.553977 227.357492 
L 790.317614 227.435632 
L 797.08125 227.45579 
L 800.463068 227.640793 
L 810.608523 227.709966 
L 827.517614 227.16726 
L 830.899432 227.273671 
L 844.426705 227.277612 
L 847.808523 227.359929 
L 851.190341 227.320613 
L 868.099432 227.910212 
L 871.48125 228.015939 
L 874.863068 227.942935 
L 878.244886 227.999211 
L 891.772159 227.66397 
L 898.535795 227.301941 
L 912.063068 227.332647 
L 915.444886 227.385376 
L 918.826705 227.297097 
L 928.972159 227.772344 
L 939.117614 228.580834 
L 942.499432 228.712296 
L 945.88125 228.404401 
L 949.263068 227.518111 
L 949.263068 227.518111 
" style="fill:none;stroke:#947383;stroke-linecap:square;stroke-width:2;"/>
   </g>
   <g id="line2d_16">
    <path clip-path="url(#p19e5443e15)" d="M 316.863068 206.001065 
L 320.244886 228.645494 
L 330.390341 228.645494 
L 333.772159 228.96 
L 421.699432 228.96 
L 431.844886 228.587033 
L 441.990341 228.556113 
L 448.753977 227.845258 
L 452.135795 227.269064 
L 458.899432 227.005895 
L 462.28125 227.605748 
L 469.044886 228.111856 
L 479.190341 227.698971 
L 485.953977 227.990788 
L 489.335795 227.763827 
L 499.48125 227.682357 
L 502.863068 227.237452 
L 509.626705 227.848035 
L 516.390341 227.33944 
L 519.772159 227.810022 
L 523.153977 227.504644 
L 526.535795 226.431934 
L 529.917614 225.496474 
L 533.299432 225.433175 
L 536.68125 224.665272 
L 540.063068 224.443514 
L 543.444886 225.431902 
L 546.826705 226.004167 
L 550.208523 225.442171 
L 553.590341 225.86552 
L 556.972159 225.972963 
L 560.353977 225.942736 
L 563.735795 226.060312 
L 567.117614 226.733802 
L 570.499432 226.425766 
L 573.88125 225.731733 
L 577.263068 225.465025 
L 580.644886 225.001216 
L 584.026705 224.218138 
L 587.408523 224.149813 
L 590.790341 225.099022 
L 597.553977 224.739196 
L 600.935795 224.801702 
L 604.317614 224.471862 
L 607.699432 223.511001 
L 611.08125 223.563542 
L 614.463068 223.935844 
L 617.844886 223.713597 
L 624.608523 223.628499 
L 627.990341 223.04689 
L 631.372159 222.329699 
L 634.753977 222.810539 
L 641.517614 223.198602 
L 648.28125 223.39412 
L 655.044886 222.813077 
L 658.426705 222.642675 
L 665.190341 223.189318 
L 678.717614 221.798526 
L 682.099432 221.163465 
L 685.48125 221.459432 
L 688.863068 221.295149 
L 692.244886 221.709531 
L 699.008523 222.182969 
L 702.390341 222.738868 
L 709.153977 223.26317 
L 712.535795 222.941498 
L 715.917614 223.158735 
L 719.299432 222.596236 
L 722.68125 222.388671 
L 726.063068 221.992992 
L 732.826705 222.405312 
L 736.208523 221.990552 
L 739.590341 222.062572 
L 742.972159 222.607184 
L 746.353977 222.4606 
L 749.735795 221.787197 
L 753.117614 222.124661 
L 756.499432 222.805844 
L 759.88125 222.391514 
L 763.263068 222.63518 
L 766.644886 223.237977 
L 770.026705 223.673093 
L 773.408523 223.665231 
L 776.790341 224.022381 
L 780.172159 224.224949 
L 783.553977 223.792951 
L 793.699432 222.929966 
L 797.08125 222.86643 
L 800.463068 223.060632 
L 803.844886 223.498311 
L 807.226705 223.504174 
L 813.990341 223.742927 
L 817.372159 224.181402 
L 824.135795 224.349226 
L 827.517614 224.861224 
L 830.899432 224.541575 
L 834.28125 224.529778 
L 837.663068 224.295216 
L 841.044886 224.583826 
L 844.426705 224.217622 
L 847.808523 224.85494 
L 851.190341 224.985122 
L 854.572159 225.235327 
L 857.953977 225.052955 
L 861.335795 225.307969 
L 868.099432 225.320599 
L 871.48125 225.059134 
L 874.863068 225.409985 
L 878.244886 225.12066 
L 885.008523 225.10212 
L 888.390341 225.428983 
L 891.772159 225.282769 
L 895.153977 225.673265 
L 898.535795 225.859749 
L 901.917614 225.70388 
L 908.68125 225.94649 
L 915.444886 225.419742 
L 918.826705 225.018162 
L 922.208523 225.109948 
L 925.590341 224.709526 
L 928.972159 224.711692 
L 932.353977 224.905462 
L 935.735795 225.927922 
L 939.117614 225.798456 
L 939.117614 225.798456 
" style="fill:none;stroke:#96c6ad;stroke-linecap:square;stroke-width:2;"/>
   </g>
   <g id="line2d_17">
    <path clip-path="url(#p19e5443e15)" d="M 303.335795 206.315571 
L 306.717614 228.96 
L 431.844886 228.96 
L 435.226705 219.902228 
L 438.608523 219.902228 
L 441.990341 219.518425 
L 448.753977 219.518425 
L 452.135795 228.576196 
L 455.517614 228.576196 
L 458.899432 228.96 
L 462.28125 228.96 
L 465.663068 228.371833 
L 469.044886 227.983643 
L 472.426705 227.861899 
L 479.190341 227.180926 
L 482.572159 227.503469 
L 489.335795 227.399296 
L 499.48125 227.729693 
L 502.863068 228.191824 
L 506.244886 227.516263 
L 509.626705 227.097411 
L 513.008523 226.982188 
L 516.390341 227.083505 
L 519.772159 226.4303 
L 523.153977 227.02872 
L 526.535795 226.464708 
L 529.917614 226.792888 
L 533.299432 225.678085 
L 540.063068 225.790825 
L 543.444886 226.986464 
L 546.826705 226.627029 
L 550.208523 227.007984 
L 553.590341 227.60983 
L 560.353977 227.343657 
L 563.735795 227.438245 
L 567.117614 227.973892 
L 570.499432 227.537583 
L 573.88125 227.402564 
L 577.263068 227.078736 
L 580.644886 225.655799 
L 584.026705 225.004834 
L 587.408523 224.617709 
L 590.790341 223.917757 
L 594.172159 221.959473 
L 597.553977 222.635215 
L 600.935795 223.131939 
L 604.317614 223.486058 
L 607.699432 223.586255 
L 611.08125 224.851055 
L 614.463068 225.131558 
L 617.844886 224.841606 
L 621.226705 224.032606 
L 624.608523 223.675906 
L 627.990341 223.964546 
L 634.753977 223.591175 
L 638.135795 222.742665 
L 641.517614 222.904674 
L 648.28125 221.752948 
L 651.663068 221.267051 
L 655.044886 221.776416 
L 658.426705 219.243402 
L 665.190341 217.82543 
L 668.572159 217.223389 
L 671.953977 216.898436 
L 675.335795 219.262253 
L 678.717614 219.990963 
L 682.099432 221.072319 
L 685.48125 221.195742 
L 688.863068 221.084237 
L 692.244886 221.804425 
L 695.626705 221.411087 
L 699.008523 220.283338 
L 702.390341 218.766059 
L 705.772159 219.926116 
L 709.153977 217.041805 
L 712.535795 214.591291 
L 715.917614 212.943973 
L 719.299432 212.653155 
L 722.68125 209.687168 
L 726.063068 206.36673 
L 729.444886 204.865155 
L 732.826705 203.964225 
L 736.208523 202.598995 
L 739.590341 203.772214 
L 742.972159 203.884531 
L 746.353977 204.308719 
L 749.735795 204.212848 
L 753.117614 205.376407 
L 756.499432 202.005737 
L 759.88125 199.429106 
L 766.644886 198.697768 
L 770.026705 201.39268 
L 773.408523 205.450209 
L 776.790341 211.788206 
L 780.172159 214.654272 
L 783.553977 218.765315 
L 786.935795 217.774635 
L 790.317614 217.68122 
L 793.699432 219.741174 
L 797.08125 220.931306 
L 800.463068 221.207104 
L 803.844886 219.45681 
L 807.226705 213.565541 
L 810.608523 210.034307 
L 813.990341 208.95622 
L 817.372159 204.896751 
L 820.753977 206.718324 
L 824.135795 211.552247 
L 827.517614 214.63539 
L 830.899432 215.887155 
L 834.28125 217.290701 
L 837.663068 211.791828 
L 841.044886 210.413472 
L 844.426705 201.861073 
L 847.808523 201.949356 
L 851.190341 200.399823 
L 854.572159 205.374735 
L 857.953977 208.531231 
L 861.335795 216.351793 
L 864.717614 215.657404 
L 868.099432 219.19646 
L 871.48125 220.70407 
L 874.863068 220.157441 
L 878.244886 220.83887 
L 881.626705 222.892449 
L 885.008523 223.197969 
L 888.390341 219.845165 
L 895.153977 220.800591 
L 898.535795 218.514436 
L 901.917614 218.837928 
L 905.299432 220.592303 
L 908.68125 220.713612 
L 912.063068 221.677205 
L 915.444886 207.209931 
L 918.826705 204.999403 
L 922.208523 205.399011 
L 925.590341 206.692978 
L 928.972159 206.692978 
L 932.353977 201.031871 
L 932.353977 201.031871 
" style="fill:none;stroke:#525886;stroke-linecap:square;stroke-width:2;"/>
   </g>
   <g id="line2d_18">
    <path clip-path="url(#p19e5443e15)" d="M 425.08125 228.779105 
L 441.990341 228.679863 
L 448.753977 228.782156 
L 462.28125 228.397274 
L 465.663068 228.261071 
L 469.044886 228.313686 
L 472.426705 227.992228 
L 475.808523 228.019768 
L 479.190341 228.21884 
L 482.572159 228.285255 
L 485.953977 227.948316 
L 489.335795 228.278638 
L 492.717614 228.334228 
L 496.099432 228.203273 
L 499.48125 228.204435 
L 502.863068 228.573488 
L 519.772159 228.50931 
L 533.299432 228.277919 
L 550.208523 228.734193 
L 567.117614 228.73149 
L 577.263068 228.709239 
L 590.790341 228.686986 
L 594.172159 228.773647 
L 600.935795 228.578718 
L 604.317614 228.518653 
L 607.699432 228.596647 
L 611.08125 228.479319 
L 614.463068 228.589023 
L 631.372159 228.596626 
L 655.044886 228.770484 
L 658.426705 228.680328 
L 661.808523 228.731688 
L 678.717614 228.511009 
L 685.48125 228.596386 
L 692.244886 228.422249 
L 699.008523 228.304462 
L 705.772159 228.323762 
L 709.153977 228.575731 
L 715.917614 228.673633 
L 722.68125 228.481211 
L 732.826705 228.070478 
L 736.208523 228.182189 
L 756.499432 228.042646 
L 759.88125 228.100082 
L 763.263068 227.989436 
L 766.644886 228.171351 
L 770.026705 228.153187 
L 773.408523 228.273102 
L 776.790341 228.190282 
L 780.172159 228.304483 
L 790.317614 227.952265 
L 793.699432 227.906858 
L 797.08125 227.718226 
L 820.753977 227.13559 
L 830.899432 227.63744 
L 834.28125 227.655476 
L 837.663068 227.791258 
L 841.044886 227.141264 
L 844.426705 227.198954 
L 847.808523 226.971603 
L 851.190341 226.977781 
L 854.572159 226.761878 
L 857.953977 227.242696 
L 868.099432 227.67456 
L 874.863068 227.40121 
L 878.244886 226.851663 
L 881.626705 226.966806 
L 885.008523 226.902993 
L 888.390341 227.185192 
L 891.772159 227.088068 
L 895.153977 227.258124 
L 905.299432 227.338907 
L 912.063068 227.822225 
L 915.444886 227.621946 
L 918.826705 227.581775 
L 922.208523 227.689472 
L 925.590341 227.626802 
L 928.972159 227.697829 
L 932.353977 228.168974 
L 945.88125 228.6618 
L 945.88125 228.6618 
" style="fill:none;stroke:#937252;stroke-linecap:square;stroke-width:2;"/>
   </g>
   <g id="line2d_19">
    <path clip-path="url(#p19e5443e15)" d="M 86.899432 221.411857 
L 90.28125 228.96 
L 195.117614 228.96 
L 198.499432 223.927905 
L 201.88125 223.927905 
L 205.263068 214.870133 
L 208.644886 214.870133 
L 212.026705 210.931972 
L 215.408523 215.964067 
L 218.790341 215.964067 
L 222.172159 214.957648 
L 225.553977 214.957648 
L 228.935795 218.895809 
L 232.317614 215.876552 
L 235.699432 211.759383 
L 239.08125 216.162467 
L 242.463068 216.162467 
L 245.844886 204.085438 
L 249.226705 173.138052 
L 252.608523 177.255221 
L 255.990341 182.916328 
L 259.372159 177.690691 
L 262.753977 185.829558 
L 266.135795 191.926135 
L 269.517614 179.574628 
L 272.899432 170.516857 
L 276.28125 175.742494 
L 279.663068 170.622884 
L 283.044886 181.719299 
L 286.426705 178.31816 
L 289.808523 164.001037 
L 296.572159 128.181668 
L 299.953977 141.181247 
L 303.335795 156.933893 
L 306.717614 175.779902 
L 310.099432 163.702873 
L 313.48125 154.233385 
L 316.863068 120.023253 
L 320.244886 84.104504 
L 323.626705 88.633389 
L 327.008523 102.357286 
L 330.390341 130.096711 
L 333.772159 149.965371 
L 337.153977 160.131633 
L 340.535795 131.240465 
L 350.68125 52.602539 
L 354.063068 37.379394 
L 357.444886 25.858965 
L 360.826705 35.268644 
L 364.208523 45.399046 
L 367.590341 68.043475 
L 370.972159 89.609598 
L 374.353977 113.037872 
L 377.735795 119.866633 
L 384.499432 94.543174 
L 387.88125 74.324934 
L 391.263068 50.786646 
L 394.644886 39.709804 
L 398.026705 35.767657 
L 401.408523 35.667015 
L 404.790341 45.102194 
L 408.172159 43.165499 
L 411.553977 38.408266 
L 414.935795 47.793786 
L 418.317614 48.281512 
L 421.699432 39.655063 
L 425.08125 46.303573 
L 428.463068 44.99584 
L 431.844886 39.077409 
L 435.226705 41.08057 
L 438.608523 42.419157 
L 441.990341 46.526751 
L 445.372159 55.92178 
L 448.753977 57.751633 
L 452.135795 52.84534 
L 455.517614 52.283134 
L 458.899432 46.688628 
L 462.28125 46.688628 
L 465.663068 47.075712 
L 469.044886 55.095614 
L 472.426705 58.472709 
L 475.808523 55.42116 
L 479.190341 51.018077 
L 482.572159 48.80114 
L 485.953977 39.271609 
L 489.335795 34.171329 
L 492.717614 35.700563 
L 496.099432 38.167723 
L 499.48125 38.266535 
L 502.863068 56.342867 
L 506.244886 73.672012 
L 509.626705 89.552521 
L 513.008523 103.313867 
L 516.390341 112.399509 
L 519.772159 106.658999 
L 523.153977 102.473177 
L 526.535795 103.570254 
L 529.917614 99.070969 
L 533.299432 107.069393 
L 536.68125 103.347334 
L 540.063068 94.385736 
L 543.444886 84.745892 
L 550.208523 96.737161 
L 553.590341 94.706368 
L 556.972159 100.529221 
L 560.353977 115.907795 
L 563.735795 103.556289 
L 567.117614 89.392395 
L 570.499432 90.671451 
L 573.88125 89.214167 
L 577.263068 71.864875 
L 580.644886 74.425553 
L 584.026705 71.019187 
L 587.408523 73.472957 
L 590.790341 69.466822 
L 594.172159 73.069345 
L 597.553977 82.133614 
L 600.935795 96.548772 
L 604.317614 103.331161 
L 607.699432 127.899626 
L 611.08125 131.330601 
L 614.463068 129.998575 
L 617.844886 118.485221 
L 621.226705 121.423925 
L 624.608523 109.784074 
L 627.990341 112.276385 
L 631.372159 118.452139 
L 634.753977 112.812833 
L 638.135795 99.208275 
L 641.517614 92.199773 
L 644.899432 88.297868 
L 648.28125 72.626064 
L 651.663068 78.94073 
L 655.044886 82.268324 
L 658.426705 105.476302 
L 661.808523 101.879474 
L 665.190341 99.600421 
L 668.572159 87.271788 
L 671.953977 83.287834 
L 675.335795 74.288125 
L 678.717614 76.892864 
L 682.099432 66.023539 
L 685.48125 68.364048 
L 688.863068 68.50079 
L 692.244886 58.894062 
L 695.626705 55.106267 
L 699.008523 69.715576 
L 702.390341 74.836449 
L 705.772159 76.205475 
L 709.153977 65.561087 
L 712.535795 67.489516 
L 715.917614 63.106723 
L 719.299432 63.350737 
L 722.68125 69.439995 
L 726.063068 74.594824 
L 729.444886 67.533658 
L 732.826705 72.746525 
L 736.208523 72.502512 
L 739.590341 70.814728 
L 742.972159 79.8725 
L 746.353977 90.97271 
L 749.735795 106.887151 
L 753.117614 135.565362 
L 756.499432 129.831862 
L 759.88125 122.363174 
L 763.263068 121.830364 
L 766.644886 108.592082 
L 770.026705 85.535936 
L 773.408523 94.305102 
L 776.790341 103.499081 
L 780.172159 106.286088 
L 783.553977 103.588028 
L 786.935795 104.342842 
L 790.317614 98.681735 
L 793.699432 81.428837 
L 797.08125 75.622573 
L 800.463068 97.945804 
L 803.844886 86.62359 
L 807.226705 96.51426 
L 810.608523 113.048287 
L 813.990341 105.500145 
L 817.372159 85.874973 
L 820.753977 78.32683 
L 824.135795 60.888017 
L 827.517614 42.197377 
L 830.899432 39.366824 
L 834.28125 25.780166 
L 837.663068 25.780166 
L 844.426705 102.339902 
L 847.808523 142.91117 
L 851.190341 161.026713 
L 854.572159 167.49655 
L 857.953977 125.22695 
L 861.335795 79.938092 
L 864.717614 39.681329 
L 868.099432 24.585044 
L 871.48125 18.115207 
L 874.863068 17.76 
L 878.244886 63.048858 
L 881.626705 77.426273 
L 885.008523 89.28764 
L 888.390341 119.480212 
L 891.772159 131.912448 
L 895.153977 95.681361 
L 901.917614 79.506769 
L 905.299432 71.119944 
L 905.299432 71.119944 
" style="fill:none;stroke:#d18cad;stroke-linecap:square;stroke-width:2;"/>
   </g>
   <g id="line2d_20">
    <path clip-path="url(#p19e5443e15)" d="M 425.08125 213.863714 
L 428.463068 228.96 
L 455.517614 228.96 
L 465.663068 216.608493 
L 472.426705 216.608493 
L 475.808523 215.290999 
L 479.190341 219.408168 
L 482.572159 222.015708 
L 489.335795 222.015708 
L 492.717614 227.450371 
L 496.099432 218.3926 
L 499.48125 219.902228 
L 502.863068 212.354085 
L 506.244886 212.354085 
L 509.626705 207.32199 
L 513.008523 212.896003 
L 516.390341 212.896003 
L 519.772159 215.412051 
L 523.153977 201.825394 
L 526.535795 206.857489 
L 529.917614 200.277057 
L 533.299432 192.284905 
L 536.68125 197.317001 
L 540.063068 195.807372 
L 543.444886 192.033301 
L 546.826705 202.097491 
L 550.208523 210.089643 
L 553.590341 210.089643 
L 556.972159 221.70217 
L 560.353977 225.476242 
L 563.735795 214.154027 
L 570.499432 183.961455 
L 573.88125 176.122999 
L 577.263068 171.594114 
L 580.644886 182.916328 
L 587.408523 213.1089 
L 590.790341 224.431114 
L 594.172159 228.96 
L 597.553977 223.298893 
L 600.935795 223.298893 
L 604.317614 214.241121 
L 607.699432 214.241121 
L 611.08125 191.596692 
L 614.463068 197.2578 
L 617.844886 197.2578 
L 621.226705 191.219285 
L 624.608523 191.219285 
L 627.990341 213.863714 
L 634.753977 213.863714 
L 638.135795 228.96 
L 651.663068 228.96 
L 655.044886 213.863714 
L 658.426705 213.863714 
L 661.808523 204.805943 
L 668.572159 204.805943 
L 671.953977 219.902228 
L 675.335795 219.902228 
L 678.717614 228.96 
L 685.48125 228.96 
L 688.863068 221.411857 
L 692.244886 215.373343 
L 699.008523 215.373343 
L 702.390341 208.903506 
L 705.772159 216.451649 
L 709.153977 217.961277 
L 712.535795 212.633176 
L 715.917614 212.633176 
L 719.299432 219.103013 
L 722.68125 219.103013 
L 726.063068 223.631899 
L 729.444886 228.96 
L 732.826705 223.298893 
L 739.590341 223.298893 
L 742.972159 219.815134 
L 746.353977 209.750944 
L 749.735795 215.412051 
L 756.499432 215.412051 
L 759.88125 207.573595 
L 763.263068 213.1089 
L 766.644886 213.1089 
L 770.026705 198.012614 
L 773.408523 194.074452 
L 776.790341 205.396667 
L 780.172159 205.808384 
L 783.553977 205.808384 
L 786.935795 213.937153 
L 790.317614 217.875315 
L 793.699432 217.875315 
L 797.08125 218.757565 
L 800.463068 208.693374 
L 803.844886 215.660891 
L 807.226705 209.191054 
L 810.608523 209.191054 
L 813.990341 212.425973 
L 817.372159 214.94202 
L 820.753977 207.393877 
L 824.135795 200.277057 
L 827.517614 200.277057 
L 830.899432 193.126184 
L 834.28125 200.674327 
L 837.663068 194.635813 
L 841.044886 208.22247 
L 844.426705 199.164699 
L 847.808523 206.315571 
L 851.190341 206.315571 
L 854.572159 217.386181 
L 857.953977 217.386181 
L 861.335795 226.443952 
L 864.717614 212.857295 
L 868.099432 212.857295 
L 871.48125 215.373343 
L 874.863068 215.373343 
L 878.244886 211.889584 
L 881.626705 225.476242 
L 888.390341 225.476242 
L 891.772159 221.359073 
L 895.153977 224.842831 
L 905.299432 224.842831 
L 908.68125 228.96 
L 918.826705 228.96 
L 922.208523 213.863714 
L 922.208523 213.863714 
" style="fill:none;stroke:#a4a86f;stroke-linecap:square;stroke-width:2;"/>
   </g>
   <g id="line2d_21">
    <path clip-path="url(#p19e5443e15)" d="M 685.48125 220.908648 
L 688.863068 223.927905 
L 692.244886 228.96 
L 695.626705 228.96 
L 699.008523 228.96 
L 702.390341 228.96 
L 705.772159 227.58761 
L 709.153977 227.58761 
L 712.535795 227.228175 
L 715.917614 226.792705 
L 719.299432 226.792705 
L 722.68125 228.165095 
L 726.063068 228.165095 
L 729.444886 228.52453 
L 732.826705 228.96 
L 736.208523 228.96 
L 739.590341 228.96 
L 742.972159 228.96 
L 746.353977 226.990919 
L 749.735795 225.179365 
L 753.117614 225.179365 
L 756.499432 224.788944 
L 759.88125 224.788944 
L 763.263068 226.758025 
L 766.644886 228.569579 
L 770.026705 228.569579 
L 773.408523 228.96 
L 776.790341 228.96 
L 780.172159 228.96 
L 783.553977 228.96 
L 786.935795 228.96 
L 790.317614 228.96 
L 793.699432 228.96 
L 797.08125 228.96 
L 800.463068 228.96 
L 803.844886 228.642183 
L 807.226705 228.054016 
L 810.608523 228.054016 
L 813.990341 228.054016 
L 817.372159 228.054016 
L 820.753977 226.836617 
L 824.135795 227.424784 
L 827.517614 227.424784 
L 830.899432 227.424784 
L 834.28125 227.424784 
L 837.663068 228.96 
L 841.044886 228.96 
L 844.426705 228.96 
L 847.808523 228.96 
L 851.190341 228.96 
L 854.572159 228.96 
L 857.953977 228.96 
L 861.335795 228.96 
L 864.717614 228.96 
L 868.099432 227.627975 
" style="fill:none;stroke:#d3d3d3;stroke-linecap:square;stroke-width:2;"/>
   </g>
   <g id="patch_3">
    <path d="M 43.78125 228.96 
L 43.78125 7.2 
" style="fill:none;stroke:#000000;stroke-linecap:square;stroke-linejoin:miter;stroke-width:0.8;"/>
   </g>
   <g id="patch_4">
    <path d="M 43.78125 228.96 
L 992.38125 228.96 
" style="fill:none;stroke:#000000;stroke-linecap:square;stroke-linejoin:miter;stroke-width:0.8;"/>
   </g>
   <g id="legend_1">
    <g id="line2d_22">
     <path d="M 50.98125 17.67875 
L 66.98125 17.67875 
" style="fill:none;stroke:#947383;stroke-linecap:square;stroke-width:2;"/>
    </g>
    <g id="line2d_23"/>
    <g id="text_17">
     <!-- North America -->
     <g transform="translate(73.38125 20.47875)scale(0.08 -0.08)">
      <defs>
       <path d="M 9.8125 72.90625 
L 23.09375 72.90625 
L 55.421875 11.921875 
L 55.421875 72.90625 
L 64.984375 72.90625 
L 64.984375 0 
L 51.703125 0 
L 19.390625 60.984375 
L 19.390625 0 
L 9.8125 0 
z
" id="DejaVuSans-78"/>
       <path d="M 54.890625 33.015625 
L 54.890625 0 
L 45.90625 0 
L 45.90625 32.71875 
Q 45.90625 40.484375 42.875 44.328125 
Q 39.84375 48.1875 33.796875 48.1875 
Q 26.515625 48.1875 22.3125 43.546875 
Q 18.109375 38.921875 18.109375 30.90625 
L 18.109375 0 
L 9.078125 0 
L 9.078125 75.984375 
L 18.109375 75.984375 
L 18.109375 46.1875 
Q 21.34375 51.125 25.703125 53.5625 
Q 30.078125 56 35.796875 56 
Q 45.21875 56 50.046875 50.171875 
Q 54.890625 44.34375 54.890625 33.015625 
z
" id="DejaVuSans-104"/>
       <path d="M 34.1875 63.1875 
L 20.796875 26.90625 
L 47.609375 26.90625 
z
M 28.609375 72.90625 
L 39.796875 72.90625 
L 67.578125 0 
L 57.328125 0 
L 50.6875 18.703125 
L 17.828125 18.703125 
L 11.1875 0 
L 0.78125 0 
z
" id="DejaVuSans-65"/>
       <path d="M 52 44.1875 
Q 55.375 50.25 60.0625 53.125 
Q 64.75 56 71.09375 56 
Q 79.640625 56 84.28125 50.015625 
Q 88.921875 44.046875 88.921875 33.015625 
L 88.921875 0 
L 79.890625 0 
L 79.890625 32.71875 
Q 79.890625 40.578125 77.09375 44.375 
Q 74.3125 48.1875 68.609375 48.1875 
Q 61.625 48.1875 57.5625 43.546875 
Q 53.515625 38.921875 53.515625 30.90625 
L 53.515625 0 
L 44.484375 0 
L 44.484375 32.71875 
Q 44.484375 40.625 41.703125 44.40625 
Q 38.921875 48.1875 33.109375 48.1875 
Q 26.21875 48.1875 22.15625 43.53125 
Q 18.109375 38.875 18.109375 30.90625 
L 18.109375 0 
L 9.078125 0 
L 9.078125 54.6875 
L 18.109375 54.6875 
L 18.109375 46.1875 
Q 21.1875 51.21875 25.484375 53.609375 
Q 29.78125 56 35.6875 56 
Q 41.65625 56 45.828125 52.96875 
Q 50 49.953125 52 44.1875 
z
" id="DejaVuSans-109"/>
      </defs>
      <use xlink:href="#DejaVuSans-78"/>
      <use x="74.804688" xlink:href="#DejaVuSans-111"/>
      <use x="135.986328" xlink:href="#DejaVuSans-114"/>
      <use x="177.099609" xlink:href="#DejaVuSans-116"/>
      <use x="216.308594" xlink:href="#DejaVuSans-104"/>
      <use x="279.6875" xlink:href="#DejaVuSans-32"/>
      <use x="311.474609" xlink:href="#DejaVuSans-65"/>
      <use x="379.882812" xlink:href="#DejaVuSans-109"/>
      <use x="477.294922" xlink:href="#DejaVuSans-101"/>
      <use x="538.818359" xlink:href="#DejaVuSans-114"/>
      <use x="579.931641" xlink:href="#DejaVuSans-105"/>
      <use x="607.714844" xlink:href="#DejaVuSans-99"/>
      <use x="662.695312" xlink:href="#DejaVuSans-97"/>
     </g>
    </g>
    <g id="line2d_24">
     <path d="M 50.98125 29.42125 
L 66.98125 29.42125 
" style="fill:none;stroke:#96c6ad;stroke-linecap:square;stroke-width:2;"/>
    </g>
    <g id="line2d_25"/>
    <g id="text_18">
     <!-- Europe -->
     <g transform="translate(73.38125 32.22125)scale(0.08 -0.08)">
      <defs>
       <path d="M 9.8125 72.90625 
L 55.90625 72.90625 
L 55.90625 64.59375 
L 19.671875 64.59375 
L 19.671875 43.015625 
L 54.390625 43.015625 
L 54.390625 34.71875 
L 19.671875 34.71875 
L 19.671875 8.296875 
L 56.78125 8.296875 
L 56.78125 0 
L 9.8125 0 
z
" id="DejaVuSans-69"/>
       <path d="M 18.109375 8.203125 
L 18.109375 -20.796875 
L 9.078125 -20.796875 
L 9.078125 54.6875 
L 18.109375 54.6875 
L 18.109375 46.390625 
Q 20.953125 51.265625 25.265625 53.625 
Q 29.59375 56 35.59375 56 
Q 45.5625 56 51.78125 48.09375 
Q 58.015625 40.1875 58.015625 27.296875 
Q 58.015625 14.40625 51.78125 6.484375 
Q 45.5625 -1.421875 35.59375 -1.421875 
Q 29.59375 -1.421875 25.265625 0.953125 
Q 20.953125 3.328125 18.109375 8.203125 
z
M 48.6875 27.296875 
Q 48.6875 37.203125 44.609375 42.84375 
Q 40.53125 48.484375 33.40625 48.484375 
Q 26.265625 48.484375 22.1875 42.84375 
Q 18.109375 37.203125 18.109375 27.296875 
Q 18.109375 17.390625 22.1875 11.75 
Q 26.265625 6.109375 33.40625 6.109375 
Q 40.53125 6.109375 44.609375 11.75 
Q 48.6875 17.390625 48.6875 27.296875 
z
" id="DejaVuSans-112"/>
      </defs>
      <use xlink:href="#DejaVuSans-69"/>
      <use x="63.183594" xlink:href="#DejaVuSans-117"/>
      <use x="126.5625" xlink:href="#DejaVuSans-114"/>
      <use x="165.425781" xlink:href="#DejaVuSans-111"/>
      <use x="226.607422" xlink:href="#DejaVuSans-112"/>
      <use x="290.083984" xlink:href="#DejaVuSans-101"/>
     </g>
    </g>
    <g id="line2d_26">
     <path d="M 50.98125 41.16375 
L 66.98125 41.16375 
" style="fill:none;stroke:#525886;stroke-linecap:square;stroke-width:2;"/>
    </g>
    <g id="line2d_27"/>
    <g id="text_19">
     <!-- Asia -->
     <g transform="translate(73.38125 43.96375)scale(0.08 -0.08)">
      <defs>
       <path d="M 44.28125 53.078125 
L 44.28125 44.578125 
Q 40.484375 46.53125 36.375 47.5 
Q 32.28125 48.484375 27.875 48.484375 
Q 21.1875 48.484375 17.84375 46.4375 
Q 14.5 44.390625 14.5 40.28125 
Q 14.5 37.15625 16.890625 35.375 
Q 19.28125 33.59375 26.515625 31.984375 
L 29.59375 31.296875 
Q 39.15625 29.25 43.1875 25.515625 
Q 47.21875 21.78125 47.21875 15.09375 
Q 47.21875 7.46875 41.1875 3.015625 
Q 35.15625 -1.421875 24.609375 -1.421875 
Q 20.21875 -1.421875 15.453125 -0.5625 
Q 10.6875 0.296875 5.421875 2 
L 5.421875 11.28125 
Q 10.40625 8.6875 15.234375 7.390625 
Q 20.0625 6.109375 24.8125 6.109375 
Q 31.15625 6.109375 34.5625 8.28125 
Q 37.984375 10.453125 37.984375 14.40625 
Q 37.984375 18.0625 35.515625 20.015625 
Q 33.0625 21.96875 24.703125 23.78125 
L 21.578125 24.515625 
Q 13.234375 26.265625 9.515625 29.90625 
Q 5.8125 33.546875 5.8125 39.890625 
Q 5.8125 47.609375 11.28125 51.796875 
Q 16.75 56 26.8125 56 
Q 31.78125 56 36.171875 55.265625 
Q 40.578125 54.546875 44.28125 53.078125 
z
" id="DejaVuSans-115"/>
      </defs>
      <use xlink:href="#DejaVuSans-65"/>
      <use x="68.408203" xlink:href="#DejaVuSans-115"/>
      <use x="120.507812" xlink:href="#DejaVuSans-105"/>
      <use x="148.291016" xlink:href="#DejaVuSans-97"/>
     </g>
    </g>
    <g id="line2d_28">
     <path d="M 50.98125 52.90625 
L 66.98125 52.90625 
" style="fill:none;stroke:#937252;stroke-linecap:square;stroke-width:2;"/>
    </g>
    <g id="line2d_29"/>
    <g id="text_20">
     <!-- United Kingdom -->
     <g transform="translate(73.38125 55.70625)scale(0.08 -0.08)">
      <defs>
       <path d="M 8.6875 72.90625 
L 18.609375 72.90625 
L 18.609375 28.609375 
Q 18.609375 16.890625 22.84375 11.734375 
Q 27.09375 6.59375 36.625 6.59375 
Q 46.09375 6.59375 50.34375 11.734375 
Q 54.59375 16.890625 54.59375 28.609375 
L 54.59375 72.90625 
L 64.5 72.90625 
L 64.5 27.390625 
Q 64.5 13.140625 57.4375 5.859375 
Q 50.390625 -1.421875 36.625 -1.421875 
Q 22.796875 -1.421875 15.734375 5.859375 
Q 8.6875 13.140625 8.6875 27.390625 
z
" id="DejaVuSans-85"/>
       <path d="M 9.8125 72.90625 
L 19.671875 72.90625 
L 19.671875 42.09375 
L 52.390625 72.90625 
L 65.09375 72.90625 
L 28.90625 38.921875 
L 67.671875 0 
L 54.6875 0 
L 19.671875 35.109375 
L 19.671875 0 
L 9.8125 0 
z
" id="DejaVuSans-75"/>
      </defs>
      <use xlink:href="#DejaVuSans-85"/>
      <use x="73.193359" xlink:href="#DejaVuSans-110"/>
      <use x="136.572266" xlink:href="#DejaVuSans-105"/>
      <use x="164.355469" xlink:href="#DejaVuSans-116"/>
      <use x="203.564453" xlink:href="#DejaVuSans-101"/>
      <use x="265.087891" xlink:href="#DejaVuSans-100"/>
      <use x="328.564453" xlink:href="#DejaVuSans-32"/>
      <use x="360.351562" xlink:href="#DejaVuSans-75"/>
      <use x="425.927734" xlink:href="#DejaVuSans-105"/>
      <use x="453.710938" xlink:href="#DejaVuSans-110"/>
      <use x="517.089844" xlink:href="#DejaVuSans-103"/>
      <use x="580.566406" xlink:href="#DejaVuSans-100"/>
      <use x="644.042969" xlink:href="#DejaVuSans-111"/>
      <use x="705.224609" xlink:href="#DejaVuSans-109"/>
     </g>
    </g>
    <g id="line2d_30">
     <path d="M 50.98125 64.64875 
L 66.98125 64.64875 
" style="fill:none;stroke:#d18cad;stroke-linecap:square;stroke-width:2;"/>
    </g>
    <g id="line2d_31"/>
    <g id="text_21">
     <!-- Africa -->
     <g transform="translate(73.38125 67.44875)scale(0.08 -0.08)">
      <defs>
       <path d="M 37.109375 75.984375 
L 37.109375 68.5 
L 28.515625 68.5 
Q 23.6875 68.5 21.796875 66.546875 
Q 19.921875 64.59375 19.921875 59.515625 
L 19.921875 54.6875 
L 34.71875 54.6875 
L 34.71875 47.703125 
L 19.921875 47.703125 
L 19.921875 0 
L 10.890625 0 
L 10.890625 47.703125 
L 2.296875 47.703125 
L 2.296875 54.6875 
L 10.890625 54.6875 
L 10.890625 58.5 
Q 10.890625 67.625 15.140625 71.796875 
Q 19.390625 75.984375 28.609375 75.984375 
z
" id="DejaVuSans-102"/>
      </defs>
      <use xlink:href="#DejaVuSans-65"/>
      <use x="64.783203" xlink:href="#DejaVuSans-102"/>
      <use x="99.988281" xlink:href="#DejaVuSans-114"/>
      <use x="141.101562" xlink:href="#DejaVuSans-105"/>
      <use x="168.884766" xlink:href="#DejaVuSans-99"/>
      <use x="223.865234" xlink:href="#DejaVuSans-97"/>
     </g>
    </g>
    <g id="line2d_32">
     <path d="M 50.98125 76.39125 
L 66.98125 76.39125 
" style="fill:none;stroke:#a4a86f;stroke-linecap:square;stroke-width:2;"/>
    </g>
    <g id="line2d_33"/>
    <g id="text_22">
     <!-- Oceania -->
     <g transform="translate(73.38125 79.19125)scale(0.08 -0.08)">
      <defs>
       <path d="M 39.40625 66.21875 
Q 28.65625 66.21875 22.328125 58.203125 
Q 16.015625 50.203125 16.015625 36.375 
Q 16.015625 22.609375 22.328125 14.59375 
Q 28.65625 6.59375 39.40625 6.59375 
Q 50.140625 6.59375 56.421875 14.59375 
Q 62.703125 22.609375 62.703125 36.375 
Q 62.703125 50.203125 56.421875 58.203125 
Q 50.140625 66.21875 39.40625 66.21875 
z
M 39.40625 74.21875 
Q 54.734375 74.21875 63.90625 63.9375 
Q 73.09375 53.65625 73.09375 36.375 
Q 73.09375 19.140625 63.90625 8.859375 
Q 54.734375 -1.421875 39.40625 -1.421875 
Q 24.03125 -1.421875 14.8125 8.828125 
Q 5.609375 19.09375 5.609375 36.375 
Q 5.609375 53.65625 14.8125 63.9375 
Q 24.03125 74.21875 39.40625 74.21875 
z
" id="DejaVuSans-79"/>
      </defs>
      <use xlink:href="#DejaVuSans-79"/>
      <use x="78.710938" xlink:href="#DejaVuSans-99"/>
      <use x="133.691406" xlink:href="#DejaVuSans-101"/>
      <use x="195.214844" xlink:href="#DejaVuSans-97"/>
      <use x="256.494141" xlink:href="#DejaVuSans-110"/>
      <use x="319.873047" xlink:href="#DejaVuSans-105"/>
      <use x="347.65625" xlink:href="#DejaVuSans-97"/>
     </g>
    </g>
    <g id="line2d_34">
     <path d="M 50.98125 88.13375 
L 66.98125 88.13375 
" style="fill:none;stroke:#d3d3d3;stroke-linecap:square;stroke-width:2;"/>
    </g>
    <g id="line2d_35"/>
    <g id="text_23">
     <!-- South America -->
     <g transform="translate(73.38125 90.93375)scale(0.08 -0.08)">
      <defs>
       <path d="M 53.515625 70.515625 
L 53.515625 60.890625 
Q 47.90625 63.578125 42.921875 64.890625 
Q 37.9375 66.21875 33.296875 66.21875 
Q 25.25 66.21875 20.875 63.09375 
Q 16.5 59.96875 16.5 54.203125 
Q 16.5 49.359375 19.40625 46.890625 
Q 22.3125 44.4375 30.421875 42.921875 
L 36.375 41.703125 
Q 47.40625 39.59375 52.65625 34.296875 
Q 57.90625 29 57.90625 20.125 
Q 57.90625 9.515625 50.796875 4.046875 
Q 43.703125 -1.421875 29.984375 -1.421875 
Q 24.8125 -1.421875 18.96875 -0.25 
Q 13.140625 0.921875 6.890625 3.21875 
L 6.890625 13.375 
Q 12.890625 10.015625 18.65625 8.296875 
Q 24.421875 6.59375 29.984375 6.59375 
Q 38.421875 6.59375 43.015625 9.90625 
Q 47.609375 13.234375 47.609375 19.390625 
Q 47.609375 24.75 44.3125 27.78125 
Q 41.015625 30.8125 33.5 32.328125 
L 27.484375 33.5 
Q 16.453125 35.6875 11.515625 40.375 
Q 6.59375 45.0625 6.59375 53.421875 
Q 6.59375 63.09375 13.40625 68.65625 
Q 20.21875 74.21875 32.171875 74.21875 
Q 37.3125 74.21875 42.625 73.28125 
Q 47.953125 72.359375 53.515625 70.515625 
z
" id="DejaVuSans-83"/>
      </defs>
      <use xlink:href="#DejaVuSans-83"/>
      <use x="63.476562" xlink:href="#DejaVuSans-111"/>
      <use x="124.658203" xlink:href="#DejaVuSans-117"/>
      <use x="188.037109" xlink:href="#DejaVuSans-116"/>
      <use x="227.246094" xlink:href="#DejaVuSans-104"/>
      <use x="290.625" xlink:href="#DejaVuSans-32"/>
      <use x="322.412109" xlink:href="#DejaVuSans-65"/>
      <use x="390.820312" xlink:href="#DejaVuSans-109"/>
      <use x="488.232422" xlink:href="#DejaVuSans-101"/>
      <use x="549.755859" xlink:href="#DejaVuSans-114"/>
      <use x="590.869141" xlink:href="#DejaVuSans-105"/>
      <use x="618.652344" xlink:href="#DejaVuSans-99"/>
      <use x="673.632812" xlink:href="#DejaVuSans-97"/>
     </g>
    </g>
   </g>
  </g>
 </g>
 <defs>
  <clipPath id="p19e5443e15">
   <rect height="221.76" width="948.6" x="43.78125" y="7.2"/>
  </clipPath>
 </defs>
</svg>
