<?xml version="1.0" encoding="utf-8" standalone="no"?>
<!DOCTYPE svg PUBLIC "-//W3C//DTD SVG 1.1//EN"
  "http://www.w3.org/Graphics/SVG/1.1/DTD/svg11.dtd">
<!-- Created with matplotlib (https://matplotlib.org/) -->
<svg height="298.620937pt" version="1.1" viewBox="0 0 999.58125 298.620937" width="999.58125pt" xmlns="http://www.w3.org/2000/svg" xmlns:xlink="http://www.w3.org/1999/xlink">
 <metadata>
  <rdf:RDF xmlns:cc="http://creativecommons.org/ns#" xmlns:dc="http://purl.org/dc/elements/1.1/" xmlns:rdf="http://www.w3.org/1999/02/22-rdf-syntax-ns#">
   <cc:Work>
    <dc:type rdf:resource="http://purl.org/dc/dcmitype/StillImage"/>
    <dc:date>2021-04-30T02:18:30.954992</dc:date>
    <dc:format>image/svg+xml</dc:format>
    <dc:creator>
     <cc:Agent>
      <dc:title>Matplotlib v3.3.3, https://matplotlib.org/</dc:title>
     </cc:Agent>
    </dc:creator>
   </cc:Work>
  </rdf:RDF>
 </metadata>
 <defs>
  <style type="text/css">*{stroke-linecap:butt;stroke-linejoin:round;}</style>
 </defs>
 <g id="figure_1">
  <g id="patch_1">
   <path d="M 0 298.620937 
L 999.58125 298.620937 
L 999.58125 0 
L 0 0 
z
" style="fill:#ffffff;"/>
  </g>
  <g id="axes_1">
   <g id="patch_2">
    <path d="M 43.78125 228.96 
L 992.38125 228.96 
L 992.38125 7.2 
L 43.78125 7.2 
z
" style="fill:#ffffff;"/>
   </g>
   <g id="matplotlib.axis_1">
    <g id="xtick_1">
     <g id="line2d_1">
      <defs>
       <path d="M 0 0 
L 0 3.5 
" id="mf031b36f33" style="stroke:#000000;stroke-width:0.8;"/>
      </defs>
      <g>
       <use style="stroke:#000000;stroke-width:0.8;" x="115.107588" xlink:href="#mf031b36f33" y="228.96"/>
      </g>
     </g>
     <g id="text_1">
      <!-- 2020-10 -->
      <g transform="translate(117.866963 277.742812)rotate(-90)scale(0.1 -0.1)">
       <defs>
        <path d="M 19.1875 8.296875 
L 53.609375 8.296875 
L 53.609375 0 
L 7.328125 0 
L 7.328125 8.296875 
Q 12.9375 14.109375 22.625 23.890625 
Q 32.328125 33.6875 34.8125 36.53125 
Q 39.546875 41.84375 41.421875 45.53125 
Q 43.3125 49.21875 43.3125 52.78125 
Q 43.3125 58.59375 39.234375 62.25 
Q 35.15625 65.921875 28.609375 65.921875 
Q 23.96875 65.921875 18.8125 64.3125 
Q 13.671875 62.703125 7.8125 59.421875 
L 7.8125 69.390625 
Q 13.765625 71.78125 18.9375 73 
Q 24.125 74.21875 28.421875 74.21875 
Q 39.75 74.21875 46.484375 68.546875 
Q 53.21875 62.890625 53.21875 53.421875 
Q 53.21875 48.921875 51.53125 44.890625 
Q 49.859375 40.875 45.40625 35.40625 
Q 44.1875 33.984375 37.640625 27.21875 
Q 31.109375 20.453125 19.1875 8.296875 
z
" id="DejaVuSans-50"/>
        <path d="M 31.78125 66.40625 
Q 24.171875 66.40625 20.328125 58.90625 
Q 16.5 51.421875 16.5 36.375 
Q 16.5 21.390625 20.328125 13.890625 
Q 24.171875 6.390625 31.78125 6.390625 
Q 39.453125 6.390625 43.28125 13.890625 
Q 47.125 21.390625 47.125 36.375 
Q 47.125 51.421875 43.28125 58.90625 
Q 39.453125 66.40625 31.78125 66.40625 
z
M 31.78125 74.21875 
Q 44.046875 74.21875 50.515625 64.515625 
Q 56.984375 54.828125 56.984375 36.375 
Q 56.984375 17.96875 50.515625 8.265625 
Q 44.046875 -1.421875 31.78125 -1.421875 
Q 19.53125 -1.421875 13.0625 8.265625 
Q 6.59375 17.96875 6.59375 36.375 
Q 6.59375 54.828125 13.0625 64.515625 
Q 19.53125 74.21875 31.78125 74.21875 
z
" id="DejaVuSans-48"/>
        <path d="M 4.890625 31.390625 
L 31.203125 31.390625 
L 31.203125 23.390625 
L 4.890625 23.390625 
z
" id="DejaVuSans-45"/>
        <path d="M 12.40625 8.296875 
L 28.515625 8.296875 
L 28.515625 63.921875 
L 10.984375 60.40625 
L 10.984375 69.390625 
L 28.421875 72.90625 
L 38.28125 72.90625 
L 38.28125 8.296875 
L 54.390625 8.296875 
L 54.390625 0 
L 12.40625 0 
z
" id="DejaVuSans-49"/>
       </defs>
       <use xlink:href="#DejaVuSans-50"/>
       <use x="63.623047" xlink:href="#DejaVuSans-48"/>
       <use x="127.246094" xlink:href="#DejaVuSans-50"/>
       <use x="190.869141" xlink:href="#DejaVuSans-48"/>
       <use x="254.492188" xlink:href="#DejaVuSans-45"/>
       <use x="290.576172" xlink:href="#DejaVuSans-49"/>
       <use x="354.199219" xlink:href="#DejaVuSans-48"/>
      </g>
     </g>
    </g>
    <g id="xtick_2">
     <g id="line2d_2">
      <g>
       <use style="stroke:#000000;stroke-width:0.8;" x="240.029423" xlink:href="#mf031b36f33" y="228.96"/>
      </g>
     </g>
     <g id="text_2">
      <!-- 2020-11 -->
      <g transform="translate(242.788798 277.742812)rotate(-90)scale(0.1 -0.1)">
       <use xlink:href="#DejaVuSans-50"/>
       <use x="63.623047" xlink:href="#DejaVuSans-48"/>
       <use x="127.246094" xlink:href="#DejaVuSans-50"/>
       <use x="190.869141" xlink:href="#DejaVuSans-48"/>
       <use x="254.492188" xlink:href="#DejaVuSans-45"/>
       <use x="290.576172" xlink:href="#DejaVuSans-49"/>
       <use x="354.199219" xlink:href="#DejaVuSans-49"/>
      </g>
     </g>
    </g>
    <g id="xtick_3">
     <g id="line2d_3">
      <g>
       <use style="stroke:#000000;stroke-width:0.8;" x="360.921522" xlink:href="#mf031b36f33" y="228.96"/>
      </g>
     </g>
     <g id="text_3">
      <!-- 2020-12 -->
      <g transform="translate(363.680897 277.742812)rotate(-90)scale(0.1 -0.1)">
       <use xlink:href="#DejaVuSans-50"/>
       <use x="63.623047" xlink:href="#DejaVuSans-48"/>
       <use x="127.246094" xlink:href="#DejaVuSans-50"/>
       <use x="190.869141" xlink:href="#DejaVuSans-48"/>
       <use x="254.492188" xlink:href="#DejaVuSans-45"/>
       <use x="290.576172" xlink:href="#DejaVuSans-49"/>
       <use x="354.199219" xlink:href="#DejaVuSans-50"/>
      </g>
     </g>
    </g>
    <g id="xtick_4">
     <g id="line2d_4">
      <g>
       <use style="stroke:#000000;stroke-width:0.8;" x="485.843357" xlink:href="#mf031b36f33" y="228.96"/>
      </g>
     </g>
     <g id="text_4">
      <!-- 2021-01 -->
      <g transform="translate(488.602732 277.742812)rotate(-90)scale(0.1 -0.1)">
       <use xlink:href="#DejaVuSans-50"/>
       <use x="63.623047" xlink:href="#DejaVuSans-48"/>
       <use x="127.246094" xlink:href="#DejaVuSans-50"/>
       <use x="190.869141" xlink:href="#DejaVuSans-49"/>
       <use x="254.492188" xlink:href="#DejaVuSans-45"/>
       <use x="290.576172" xlink:href="#DejaVuSans-48"/>
       <use x="354.199219" xlink:href="#DejaVuSans-49"/>
      </g>
     </g>
    </g>
    <g id="xtick_5">
     <g id="line2d_5">
      <g>
       <use style="stroke:#000000;stroke-width:0.8;" x="610.765192" xlink:href="#mf031b36f33" y="228.96"/>
      </g>
     </g>
     <g id="text_5">
      <!-- 2021-02 -->
      <g transform="translate(613.524567 277.742812)rotate(-90)scale(0.1 -0.1)">
       <use xlink:href="#DejaVuSans-50"/>
       <use x="63.623047" xlink:href="#DejaVuSans-48"/>
       <use x="127.246094" xlink:href="#DejaVuSans-50"/>
       <use x="190.869141" xlink:href="#DejaVuSans-49"/>
       <use x="254.492188" xlink:href="#DejaVuSans-45"/>
       <use x="290.576172" xlink:href="#DejaVuSans-48"/>
       <use x="354.199219" xlink:href="#DejaVuSans-50"/>
      </g>
     </g>
    </g>
    <g id="xtick_6">
     <g id="line2d_6">
      <g>
       <use style="stroke:#000000;stroke-width:0.8;" x="723.597818" xlink:href="#mf031b36f33" y="228.96"/>
      </g>
     </g>
     <g id="text_6">
      <!-- 2021-03 -->
      <g transform="translate(726.357193 277.742812)rotate(-90)scale(0.1 -0.1)">
       <defs>
        <path d="M 40.578125 39.3125 
Q 47.65625 37.796875 51.625 33 
Q 55.609375 28.21875 55.609375 21.1875 
Q 55.609375 10.40625 48.1875 4.484375 
Q 40.765625 -1.421875 27.09375 -1.421875 
Q 22.515625 -1.421875 17.65625 -0.515625 
Q 12.796875 0.390625 7.625 2.203125 
L 7.625 11.71875 
Q 11.71875 9.328125 16.59375 8.109375 
Q 21.484375 6.890625 26.8125 6.890625 
Q 36.078125 6.890625 40.9375 10.546875 
Q 45.796875 14.203125 45.796875 21.1875 
Q 45.796875 27.640625 41.28125 31.265625 
Q 36.765625 34.90625 28.71875 34.90625 
L 20.21875 34.90625 
L 20.21875 43.015625 
L 29.109375 43.015625 
Q 36.375 43.015625 40.234375 45.921875 
Q 44.09375 48.828125 44.09375 54.296875 
Q 44.09375 59.90625 40.109375 62.90625 
Q 36.140625 65.921875 28.71875 65.921875 
Q 24.65625 65.921875 20.015625 65.03125 
Q 15.375 64.15625 9.8125 62.3125 
L 9.8125 71.09375 
Q 15.4375 72.65625 20.34375 73.4375 
Q 25.25 74.21875 29.59375 74.21875 
Q 40.828125 74.21875 47.359375 69.109375 
Q 53.90625 64.015625 53.90625 55.328125 
Q 53.90625 49.265625 50.4375 45.09375 
Q 46.96875 40.921875 40.578125 39.3125 
z
" id="DejaVuSans-51"/>
       </defs>
       <use xlink:href="#DejaVuSans-50"/>
       <use x="63.623047" xlink:href="#DejaVuSans-48"/>
       <use x="127.246094" xlink:href="#DejaVuSans-50"/>
       <use x="190.869141" xlink:href="#DejaVuSans-49"/>
       <use x="254.492188" xlink:href="#DejaVuSans-45"/>
       <use x="290.576172" xlink:href="#DejaVuSans-48"/>
       <use x="354.199219" xlink:href="#DejaVuSans-51"/>
      </g>
     </g>
    </g>
    <g id="xtick_7">
     <g id="line2d_7">
      <g>
       <use style="stroke:#000000;stroke-width:0.8;" x="848.519653" xlink:href="#mf031b36f33" y="228.96"/>
      </g>
     </g>
     <g id="text_7">
      <!-- 2021-04 -->
      <g transform="translate(851.279028 277.742812)rotate(-90)scale(0.1 -0.1)">
       <defs>
        <path d="M 37.796875 64.3125 
L 12.890625 25.390625 
L 37.796875 25.390625 
z
M 35.203125 72.90625 
L 47.609375 72.90625 
L 47.609375 25.390625 
L 58.015625 25.390625 
L 58.015625 17.1875 
L 47.609375 17.1875 
L 47.609375 0 
L 37.796875 0 
L 37.796875 17.1875 
L 4.890625 17.1875 
L 4.890625 26.703125 
z
" id="DejaVuSans-52"/>
       </defs>
       <use xlink:href="#DejaVuSans-50"/>
       <use x="63.623047" xlink:href="#DejaVuSans-48"/>
       <use x="127.246094" xlink:href="#DejaVuSans-50"/>
       <use x="190.869141" xlink:href="#DejaVuSans-49"/>
       <use x="254.492188" xlink:href="#DejaVuSans-45"/>
       <use x="290.576172" xlink:href="#DejaVuSans-48"/>
       <use x="354.199219" xlink:href="#DejaVuSans-52"/>
      </g>
     </g>
    </g>
    <g id="xtick_8">
     <g id="line2d_8">
      <g>
       <use style="stroke:#000000;stroke-width:0.8;" x="969.411751" xlink:href="#mf031b36f33" y="228.96"/>
      </g>
     </g>
     <g id="text_8">
      <!-- 2021-05 -->
      <g transform="translate(972.171126 277.742812)rotate(-90)scale(0.1 -0.1)">
       <defs>
        <path d="M 10.796875 72.90625 
L 49.515625 72.90625 
L 49.515625 64.59375 
L 19.828125 64.59375 
L 19.828125 46.734375 
Q 21.96875 47.46875 24.109375 47.828125 
Q 26.265625 48.1875 28.421875 48.1875 
Q 40.625 48.1875 47.75 41.5 
Q 54.890625 34.8125 54.890625 23.390625 
Q 54.890625 11.625 47.5625 5.09375 
Q 40.234375 -1.421875 26.90625 -1.421875 
Q 22.3125 -1.421875 17.546875 -0.640625 
Q 12.796875 0.140625 7.71875 1.703125 
L 7.71875 11.625 
Q 12.109375 9.234375 16.796875 8.0625 
Q 21.484375 6.890625 26.703125 6.890625 
Q 35.15625 6.890625 40.078125 11.328125 
Q 45.015625 15.765625 45.015625 23.390625 
Q 45.015625 31 40.078125 35.4375 
Q 35.15625 39.890625 26.703125 39.890625 
Q 22.75 39.890625 18.8125 39.015625 
Q 14.890625 38.140625 10.796875 36.28125 
z
" id="DejaVuSans-53"/>
       </defs>
       <use xlink:href="#DejaVuSans-50"/>
       <use x="63.623047" xlink:href="#DejaVuSans-48"/>
       <use x="127.246094" xlink:href="#DejaVuSans-50"/>
       <use x="190.869141" xlink:href="#DejaVuSans-49"/>
       <use x="254.492188" xlink:href="#DejaVuSans-45"/>
       <use x="290.576172" xlink:href="#DejaVuSans-48"/>
       <use x="354.199219" xlink:href="#DejaVuSans-53"/>
      </g>
     </g>
    </g>
    <g id="text_9">
     <!-- Date -->
     <g transform="translate(506.130469 289.34125)scale(0.1 -0.1)">
      <defs>
       <path d="M 19.671875 64.796875 
L 19.671875 8.109375 
L 31.59375 8.109375 
Q 46.6875 8.109375 53.6875 14.9375 
Q 60.6875 21.78125 60.6875 36.53125 
Q 60.6875 51.171875 53.6875 57.984375 
Q 46.6875 64.796875 31.59375 64.796875 
z
M 9.8125 72.90625 
L 30.078125 72.90625 
Q 51.265625 72.90625 61.171875 64.09375 
Q 71.09375 55.28125 71.09375 36.53125 
Q 71.09375 17.671875 61.125 8.828125 
Q 51.171875 0 30.078125 0 
L 9.8125 0 
z
" id="DejaVuSans-68"/>
       <path d="M 34.28125 27.484375 
Q 23.390625 27.484375 19.1875 25 
Q 14.984375 22.515625 14.984375 16.5 
Q 14.984375 11.71875 18.140625 8.90625 
Q 21.296875 6.109375 26.703125 6.109375 
Q 34.1875 6.109375 38.703125 11.40625 
Q 43.21875 16.703125 43.21875 25.484375 
L 43.21875 27.484375 
z
M 52.203125 31.203125 
L 52.203125 0 
L 43.21875 0 
L 43.21875 8.296875 
Q 40.140625 3.328125 35.546875 0.953125 
Q 30.953125 -1.421875 24.3125 -1.421875 
Q 15.921875 -1.421875 10.953125 3.296875 
Q 6 8.015625 6 15.921875 
Q 6 25.140625 12.171875 29.828125 
Q 18.359375 34.515625 30.609375 34.515625 
L 43.21875 34.515625 
L 43.21875 35.40625 
Q 43.21875 41.609375 39.140625 45 
Q 35.0625 48.390625 27.6875 48.390625 
Q 23 48.390625 18.546875 47.265625 
Q 14.109375 46.140625 10.015625 43.890625 
L 10.015625 52.203125 
Q 14.9375 54.109375 19.578125 55.046875 
Q 24.21875 56 28.609375 56 
Q 40.484375 56 46.34375 49.84375 
Q 52.203125 43.703125 52.203125 31.203125 
z
" id="DejaVuSans-97"/>
       <path d="M 18.3125 70.21875 
L 18.3125 54.6875 
L 36.8125 54.6875 
L 36.8125 47.703125 
L 18.3125 47.703125 
L 18.3125 18.015625 
Q 18.3125 11.328125 20.140625 9.421875 
Q 21.96875 7.515625 27.59375 7.515625 
L 36.8125 7.515625 
L 36.8125 0 
L 27.59375 0 
Q 17.1875 0 13.234375 3.875 
Q 9.28125 7.765625 9.28125 18.015625 
L 9.28125 47.703125 
L 2.6875 47.703125 
L 2.6875 54.6875 
L 9.28125 54.6875 
L 9.28125 70.21875 
z
" id="DejaVuSans-116"/>
       <path d="M 56.203125 29.59375 
L 56.203125 25.203125 
L 14.890625 25.203125 
Q 15.484375 15.921875 20.484375 11.0625 
Q 25.484375 6.203125 34.421875 6.203125 
Q 39.59375 6.203125 44.453125 7.46875 
Q 49.3125 8.734375 54.109375 11.28125 
L 54.109375 2.78125 
Q 49.265625 0.734375 44.1875 -0.34375 
Q 39.109375 -1.421875 33.890625 -1.421875 
Q 20.796875 -1.421875 13.15625 6.1875 
Q 5.515625 13.8125 5.515625 26.8125 
Q 5.515625 40.234375 12.765625 48.109375 
Q 20.015625 56 32.328125 56 
Q 43.359375 56 49.78125 48.890625 
Q 56.203125 41.796875 56.203125 29.59375 
z
M 47.21875 32.234375 
Q 47.125 39.59375 43.09375 43.984375 
Q 39.0625 48.390625 32.421875 48.390625 
Q 24.90625 48.390625 20.390625 44.140625 
Q 15.875 39.890625 15.1875 32.171875 
z
" id="DejaVuSans-101"/>
      </defs>
      <use xlink:href="#DejaVuSans-68"/>
      <use x="77.001953" xlink:href="#DejaVuSans-97"/>
      <use x="138.28125" xlink:href="#DejaVuSans-116"/>
      <use x="177.490234" xlink:href="#DejaVuSans-101"/>
     </g>
    </g>
   </g>
   <g id="matplotlib.axis_2">
    <g id="ytick_1">
     <g id="line2d_9">
      <defs>
       <path d="M 0 0 
L -3.5 0 
" id="m2341f61594" style="stroke:#000000;stroke-width:0.8;"/>
      </defs>
      <g>
       <use style="stroke:#000000;stroke-width:0.8;" x="43.78125" xlink:href="#m2341f61594" y="228.96"/>
      </g>
     </g>
     <g id="text_10">
      <!-- 0.0 -->
      <g transform="translate(20.878125 232.759219)scale(0.1 -0.1)">
       <defs>
        <path d="M 10.6875 12.40625 
L 21 12.40625 
L 21 0 
L 10.6875 0 
z
" id="DejaVuSans-46"/>
       </defs>
       <use xlink:href="#DejaVuSans-48"/>
       <use x="63.623047" xlink:href="#DejaVuSans-46"/>
       <use x="95.410156" xlink:href="#DejaVuSans-48"/>
      </g>
     </g>
    </g>
    <g id="ytick_2">
     <g id="line2d_10">
      <g>
       <use style="stroke:#000000;stroke-width:0.8;" x="43.78125" xlink:href="#m2341f61594" y="186.257337"/>
      </g>
     </g>
     <g id="text_11">
      <!-- 0.2 -->
      <g transform="translate(20.878125 190.056555)scale(0.1 -0.1)">
       <use xlink:href="#DejaVuSans-48"/>
       <use x="63.623047" xlink:href="#DejaVuSans-46"/>
       <use x="95.410156" xlink:href="#DejaVuSans-50"/>
      </g>
     </g>
    </g>
    <g id="ytick_3">
     <g id="line2d_11">
      <g>
       <use style="stroke:#000000;stroke-width:0.8;" x="43.78125" xlink:href="#m2341f61594" y="143.554673"/>
      </g>
     </g>
     <g id="text_12">
      <!-- 0.4 -->
      <g transform="translate(20.878125 147.353892)scale(0.1 -0.1)">
       <use xlink:href="#DejaVuSans-48"/>
       <use x="63.623047" xlink:href="#DejaVuSans-46"/>
       <use x="95.410156" xlink:href="#DejaVuSans-52"/>
      </g>
     </g>
    </g>
    <g id="ytick_4">
     <g id="line2d_12">
      <g>
       <use style="stroke:#000000;stroke-width:0.8;" x="43.78125" xlink:href="#m2341f61594" y="100.85201"/>
      </g>
     </g>
     <g id="text_13">
      <!-- 0.6 -->
      <g transform="translate(20.878125 104.651229)scale(0.1 -0.1)">
       <defs>
        <path d="M 33.015625 40.375 
Q 26.375 40.375 22.484375 35.828125 
Q 18.609375 31.296875 18.609375 23.390625 
Q 18.609375 15.53125 22.484375 10.953125 
Q 26.375 6.390625 33.015625 6.390625 
Q 39.65625 6.390625 43.53125 10.953125 
Q 47.40625 15.53125 47.40625 23.390625 
Q 47.40625 31.296875 43.53125 35.828125 
Q 39.65625 40.375 33.015625 40.375 
z
M 52.59375 71.296875 
L 52.59375 62.3125 
Q 48.875 64.0625 45.09375 64.984375 
Q 41.3125 65.921875 37.59375 65.921875 
Q 27.828125 65.921875 22.671875 59.328125 
Q 17.53125 52.734375 16.796875 39.40625 
Q 19.671875 43.65625 24.015625 45.921875 
Q 28.375 48.1875 33.59375 48.1875 
Q 44.578125 48.1875 50.953125 41.515625 
Q 57.328125 34.859375 57.328125 23.390625 
Q 57.328125 12.15625 50.6875 5.359375 
Q 44.046875 -1.421875 33.015625 -1.421875 
Q 20.359375 -1.421875 13.671875 8.265625 
Q 6.984375 17.96875 6.984375 36.375 
Q 6.984375 53.65625 15.1875 63.9375 
Q 23.390625 74.21875 37.203125 74.21875 
Q 40.921875 74.21875 44.703125 73.484375 
Q 48.484375 72.75 52.59375 71.296875 
z
" id="DejaVuSans-54"/>
       </defs>
       <use xlink:href="#DejaVuSans-48"/>
       <use x="63.623047" xlink:href="#DejaVuSans-46"/>
       <use x="95.410156" xlink:href="#DejaVuSans-54"/>
      </g>
     </g>
    </g>
    <g id="ytick_5">
     <g id="line2d_13">
      <g>
       <use style="stroke:#000000;stroke-width:0.8;" x="43.78125" xlink:href="#m2341f61594" y="58.149347"/>
      </g>
     </g>
     <g id="text_14">
      <!-- 0.8 -->
      <g transform="translate(20.878125 61.948565)scale(0.1 -0.1)">
       <defs>
        <path d="M 31.78125 34.625 
Q 24.75 34.625 20.71875 30.859375 
Q 16.703125 27.09375 16.703125 20.515625 
Q 16.703125 13.921875 20.71875 10.15625 
Q 24.75 6.390625 31.78125 6.390625 
Q 38.8125 6.390625 42.859375 10.171875 
Q 46.921875 13.96875 46.921875 20.515625 
Q 46.921875 27.09375 42.890625 30.859375 
Q 38.875 34.625 31.78125 34.625 
z
M 21.921875 38.8125 
Q 15.578125 40.375 12.03125 44.71875 
Q 8.5 49.078125 8.5 55.328125 
Q 8.5 64.0625 14.71875 69.140625 
Q 20.953125 74.21875 31.78125 74.21875 
Q 42.671875 74.21875 48.875 69.140625 
Q 55.078125 64.0625 55.078125 55.328125 
Q 55.078125 49.078125 51.53125 44.71875 
Q 48 40.375 41.703125 38.8125 
Q 48.828125 37.15625 52.796875 32.3125 
Q 56.78125 27.484375 56.78125 20.515625 
Q 56.78125 9.90625 50.3125 4.234375 
Q 43.84375 -1.421875 31.78125 -1.421875 
Q 19.734375 -1.421875 13.25 4.234375 
Q 6.78125 9.90625 6.78125 20.515625 
Q 6.78125 27.484375 10.78125 32.3125 
Q 14.796875 37.15625 21.921875 38.8125 
z
M 18.3125 54.390625 
Q 18.3125 48.734375 21.84375 45.5625 
Q 25.390625 42.390625 31.78125 42.390625 
Q 38.140625 42.390625 41.71875 45.5625 
Q 45.3125 48.734375 45.3125 54.390625 
Q 45.3125 60.0625 41.71875 63.234375 
Q 38.140625 66.40625 31.78125 66.40625 
Q 25.390625 66.40625 21.84375 63.234375 
Q 18.3125 60.0625 18.3125 54.390625 
z
" id="DejaVuSans-56"/>
       </defs>
       <use xlink:href="#DejaVuSans-48"/>
       <use x="63.623047" xlink:href="#DejaVuSans-46"/>
       <use x="95.410156" xlink:href="#DejaVuSans-56"/>
      </g>
     </g>
    </g>
    <g id="ytick_6">
     <g id="line2d_14">
      <g>
       <use style="stroke:#000000;stroke-width:0.8;" x="43.78125" xlink:href="#m2341f61594" y="15.446683"/>
      </g>
     </g>
     <g id="text_15">
      <!-- 1.0 -->
      <g transform="translate(20.878125 19.245902)scale(0.1 -0.1)">
       <use xlink:href="#DejaVuSans-49"/>
       <use x="63.623047" xlink:href="#DejaVuSans-46"/>
       <use x="95.410156" xlink:href="#DejaVuSans-48"/>
      </g>
     </g>
    </g>
    <g id="text_16">
     <!-- Frequency (7 day rolling average) -->
     <g transform="translate(14.798437 202.529219)rotate(-90)scale(0.1 -0.1)">
      <defs>
       <path d="M 9.8125 72.90625 
L 51.703125 72.90625 
L 51.703125 64.59375 
L 19.671875 64.59375 
L 19.671875 43.109375 
L 48.578125 43.109375 
L 48.578125 34.8125 
L 19.671875 34.8125 
L 19.671875 0 
L 9.8125 0 
z
" id="DejaVuSans-70"/>
       <path d="M 41.109375 46.296875 
Q 39.59375 47.171875 37.8125 47.578125 
Q 36.03125 48 33.890625 48 
Q 26.265625 48 22.1875 43.046875 
Q 18.109375 38.09375 18.109375 28.8125 
L 18.109375 0 
L 9.078125 0 
L 9.078125 54.6875 
L 18.109375 54.6875 
L 18.109375 46.1875 
Q 20.953125 51.171875 25.484375 53.578125 
Q 30.03125 56 36.53125 56 
Q 37.453125 56 38.578125 55.875 
Q 39.703125 55.765625 41.0625 55.515625 
z
" id="DejaVuSans-114"/>
       <path d="M 14.796875 27.296875 
Q 14.796875 17.390625 18.875 11.75 
Q 22.953125 6.109375 30.078125 6.109375 
Q 37.203125 6.109375 41.296875 11.75 
Q 45.40625 17.390625 45.40625 27.296875 
Q 45.40625 37.203125 41.296875 42.84375 
Q 37.203125 48.484375 30.078125 48.484375 
Q 22.953125 48.484375 18.875 42.84375 
Q 14.796875 37.203125 14.796875 27.296875 
z
M 45.40625 8.203125 
Q 42.578125 3.328125 38.25 0.953125 
Q 33.9375 -1.421875 27.875 -1.421875 
Q 17.96875 -1.421875 11.734375 6.484375 
Q 5.515625 14.40625 5.515625 27.296875 
Q 5.515625 40.1875 11.734375 48.09375 
Q 17.96875 56 27.875 56 
Q 33.9375 56 38.25 53.625 
Q 42.578125 51.265625 45.40625 46.390625 
L 45.40625 54.6875 
L 54.390625 54.6875 
L 54.390625 -20.796875 
L 45.40625 -20.796875 
z
" id="DejaVuSans-113"/>
       <path d="M 8.5 21.578125 
L 8.5 54.6875 
L 17.484375 54.6875 
L 17.484375 21.921875 
Q 17.484375 14.15625 20.5 10.265625 
Q 23.53125 6.390625 29.59375 6.390625 
Q 36.859375 6.390625 41.078125 11.03125 
Q 45.3125 15.671875 45.3125 23.6875 
L 45.3125 54.6875 
L 54.296875 54.6875 
L 54.296875 0 
L 45.3125 0 
L 45.3125 8.40625 
Q 42.046875 3.421875 37.71875 1 
Q 33.40625 -1.421875 27.6875 -1.421875 
Q 18.265625 -1.421875 13.375 4.4375 
Q 8.5 10.296875 8.5 21.578125 
z
M 31.109375 56 
z
" id="DejaVuSans-117"/>
       <path d="M 54.890625 33.015625 
L 54.890625 0 
L 45.90625 0 
L 45.90625 32.71875 
Q 45.90625 40.484375 42.875 44.328125 
Q 39.84375 48.1875 33.796875 48.1875 
Q 26.515625 48.1875 22.3125 43.546875 
Q 18.109375 38.921875 18.109375 30.90625 
L 18.109375 0 
L 9.078125 0 
L 9.078125 54.6875 
L 18.109375 54.6875 
L 18.109375 46.1875 
Q 21.34375 51.125 25.703125 53.5625 
Q 30.078125 56 35.796875 56 
Q 45.21875 56 50.046875 50.171875 
Q 54.890625 44.34375 54.890625 33.015625 
z
" id="DejaVuSans-110"/>
       <path d="M 48.78125 52.59375 
L 48.78125 44.1875 
Q 44.96875 46.296875 41.140625 47.34375 
Q 37.3125 48.390625 33.40625 48.390625 
Q 24.65625 48.390625 19.8125 42.84375 
Q 14.984375 37.3125 14.984375 27.296875 
Q 14.984375 17.28125 19.8125 11.734375 
Q 24.65625 6.203125 33.40625 6.203125 
Q 37.3125 6.203125 41.140625 7.25 
Q 44.96875 8.296875 48.78125 10.40625 
L 48.78125 2.09375 
Q 45.015625 0.34375 40.984375 -0.53125 
Q 36.96875 -1.421875 32.421875 -1.421875 
Q 20.0625 -1.421875 12.78125 6.34375 
Q 5.515625 14.109375 5.515625 27.296875 
Q 5.515625 40.671875 12.859375 48.328125 
Q 20.21875 56 33.015625 56 
Q 37.15625 56 41.109375 55.140625 
Q 45.0625 54.296875 48.78125 52.59375 
z
" id="DejaVuSans-99"/>
       <path d="M 32.171875 -5.078125 
Q 28.375 -14.84375 24.75 -17.8125 
Q 21.140625 -20.796875 15.09375 -20.796875 
L 7.90625 -20.796875 
L 7.90625 -13.28125 
L 13.1875 -13.28125 
Q 16.890625 -13.28125 18.9375 -11.515625 
Q 21 -9.765625 23.484375 -3.21875 
L 25.09375 0.875 
L 2.984375 54.6875 
L 12.5 54.6875 
L 29.59375 11.921875 
L 46.6875 54.6875 
L 56.203125 54.6875 
z
" id="DejaVuSans-121"/>
       <path id="DejaVuSans-32"/>
       <path d="M 31 75.875 
Q 24.46875 64.65625 21.28125 53.65625 
Q 18.109375 42.671875 18.109375 31.390625 
Q 18.109375 20.125 21.3125 9.0625 
Q 24.515625 -2 31 -13.1875 
L 23.1875 -13.1875 
Q 15.875 -1.703125 12.234375 9.375 
Q 8.59375 20.453125 8.59375 31.390625 
Q 8.59375 42.28125 12.203125 53.3125 
Q 15.828125 64.359375 23.1875 75.875 
z
" id="DejaVuSans-40"/>
       <path d="M 8.203125 72.90625 
L 55.078125 72.90625 
L 55.078125 68.703125 
L 28.609375 0 
L 18.3125 0 
L 43.21875 64.59375 
L 8.203125 64.59375 
z
" id="DejaVuSans-55"/>
       <path d="M 45.40625 46.390625 
L 45.40625 75.984375 
L 54.390625 75.984375 
L 54.390625 0 
L 45.40625 0 
L 45.40625 8.203125 
Q 42.578125 3.328125 38.25 0.953125 
Q 33.9375 -1.421875 27.875 -1.421875 
Q 17.96875 -1.421875 11.734375 6.484375 
Q 5.515625 14.40625 5.515625 27.296875 
Q 5.515625 40.1875 11.734375 48.09375 
Q 17.96875 56 27.875 56 
Q 33.9375 56 38.25 53.625 
Q 42.578125 51.265625 45.40625 46.390625 
z
M 14.796875 27.296875 
Q 14.796875 17.390625 18.875 11.75 
Q 22.953125 6.109375 30.078125 6.109375 
Q 37.203125 6.109375 41.296875 11.75 
Q 45.40625 17.390625 45.40625 27.296875 
Q 45.40625 37.203125 41.296875 42.84375 
Q 37.203125 48.484375 30.078125 48.484375 
Q 22.953125 48.484375 18.875 42.84375 
Q 14.796875 37.203125 14.796875 27.296875 
z
" id="DejaVuSans-100"/>
       <path d="M 30.609375 48.390625 
Q 23.390625 48.390625 19.1875 42.75 
Q 14.984375 37.109375 14.984375 27.296875 
Q 14.984375 17.484375 19.15625 11.84375 
Q 23.34375 6.203125 30.609375 6.203125 
Q 37.796875 6.203125 41.984375 11.859375 
Q 46.1875 17.53125 46.1875 27.296875 
Q 46.1875 37.015625 41.984375 42.703125 
Q 37.796875 48.390625 30.609375 48.390625 
z
M 30.609375 56 
Q 42.328125 56 49.015625 48.375 
Q 55.71875 40.765625 55.71875 27.296875 
Q 55.71875 13.875 49.015625 6.21875 
Q 42.328125 -1.421875 30.609375 -1.421875 
Q 18.84375 -1.421875 12.171875 6.21875 
Q 5.515625 13.875 5.515625 27.296875 
Q 5.515625 40.765625 12.171875 48.375 
Q 18.84375 56 30.609375 56 
z
" id="DejaVuSans-111"/>
       <path d="M 9.421875 75.984375 
L 18.40625 75.984375 
L 18.40625 0 
L 9.421875 0 
z
" id="DejaVuSans-108"/>
       <path d="M 9.421875 54.6875 
L 18.40625 54.6875 
L 18.40625 0 
L 9.421875 0 
z
M 9.421875 75.984375 
L 18.40625 75.984375 
L 18.40625 64.59375 
L 9.421875 64.59375 
z
" id="DejaVuSans-105"/>
       <path d="M 45.40625 27.984375 
Q 45.40625 37.75 41.375 43.109375 
Q 37.359375 48.484375 30.078125 48.484375 
Q 22.859375 48.484375 18.828125 43.109375 
Q 14.796875 37.75 14.796875 27.984375 
Q 14.796875 18.265625 18.828125 12.890625 
Q 22.859375 7.515625 30.078125 7.515625 
Q 37.359375 7.515625 41.375 12.890625 
Q 45.40625 18.265625 45.40625 27.984375 
z
M 54.390625 6.78125 
Q 54.390625 -7.171875 48.1875 -13.984375 
Q 42 -20.796875 29.203125 -20.796875 
Q 24.46875 -20.796875 20.265625 -20.09375 
Q 16.0625 -19.390625 12.109375 -17.921875 
L 12.109375 -9.1875 
Q 16.0625 -11.328125 19.921875 -12.34375 
Q 23.78125 -13.375 27.78125 -13.375 
Q 36.625 -13.375 41.015625 -8.765625 
Q 45.40625 -4.15625 45.40625 5.171875 
L 45.40625 9.625 
Q 42.625 4.78125 38.28125 2.390625 
Q 33.9375 0 27.875 0 
Q 17.828125 0 11.671875 7.65625 
Q 5.515625 15.328125 5.515625 27.984375 
Q 5.515625 40.671875 11.671875 48.328125 
Q 17.828125 56 27.875 56 
Q 33.9375 56 38.28125 53.609375 
Q 42.625 51.21875 45.40625 46.390625 
L 45.40625 54.6875 
L 54.390625 54.6875 
z
" id="DejaVuSans-103"/>
       <path d="M 2.984375 54.6875 
L 12.5 54.6875 
L 29.59375 8.796875 
L 46.6875 54.6875 
L 56.203125 54.6875 
L 35.6875 0 
L 23.484375 0 
z
" id="DejaVuSans-118"/>
       <path d="M 8.015625 75.875 
L 15.828125 75.875 
Q 23.140625 64.359375 26.78125 53.3125 
Q 30.421875 42.28125 30.421875 31.390625 
Q 30.421875 20.453125 26.78125 9.375 
Q 23.140625 -1.703125 15.828125 -13.1875 
L 8.015625 -13.1875 
Q 14.5 -2 17.703125 9.0625 
Q 20.90625 20.125 20.90625 31.390625 
Q 20.90625 42.671875 17.703125 53.65625 
Q 14.5 64.65625 8.015625 75.875 
z
" id="DejaVuSans-41"/>
      </defs>
      <use xlink:href="#DejaVuSans-70"/>
      <use x="50.269531" xlink:href="#DejaVuSans-114"/>
      <use x="89.132812" xlink:href="#DejaVuSans-101"/>
      <use x="150.65625" xlink:href="#DejaVuSans-113"/>
      <use x="214.132812" xlink:href="#DejaVuSans-117"/>
      <use x="277.511719" xlink:href="#DejaVuSans-101"/>
      <use x="339.035156" xlink:href="#DejaVuSans-110"/>
      <use x="402.414062" xlink:href="#DejaVuSans-99"/>
      <use x="457.394531" xlink:href="#DejaVuSans-121"/>
      <use x="516.574219" xlink:href="#DejaVuSans-32"/>
      <use x="548.361328" xlink:href="#DejaVuSans-40"/>
      <use x="587.375" xlink:href="#DejaVuSans-55"/>
      <use x="650.998047" xlink:href="#DejaVuSans-32"/>
      <use x="682.785156" xlink:href="#DejaVuSans-100"/>
      <use x="746.261719" xlink:href="#DejaVuSans-97"/>
      <use x="807.541016" xlink:href="#DejaVuSans-121"/>
      <use x="866.720703" xlink:href="#DejaVuSans-32"/>
      <use x="898.507812" xlink:href="#DejaVuSans-114"/>
      <use x="937.371094" xlink:href="#DejaVuSans-111"/>
      <use x="998.552734" xlink:href="#DejaVuSans-108"/>
      <use x="1026.335938" xlink:href="#DejaVuSans-108"/>
      <use x="1054.119141" xlink:href="#DejaVuSans-105"/>
      <use x="1081.902344" xlink:href="#DejaVuSans-110"/>
      <use x="1145.28125" xlink:href="#DejaVuSans-103"/>
      <use x="1208.757812" xlink:href="#DejaVuSans-32"/>
      <use x="1240.544922" xlink:href="#DejaVuSans-97"/>
      <use x="1301.824219" xlink:href="#DejaVuSans-118"/>
      <use x="1361.003906" xlink:href="#DejaVuSans-101"/>
      <use x="1422.527344" xlink:href="#DejaVuSans-114"/>
      <use x="1463.640625" xlink:href="#DejaVuSans-97"/>
      <use x="1524.919922" xlink:href="#DejaVuSans-103"/>
      <use x="1588.396484" xlink:href="#DejaVuSans-101"/>
      <use x="1649.919922" xlink:href="#DejaVuSans-41"/>
     </g>
    </g>
   </g>
   <g id="line2d_15">
    <path clip-path="url(#p4de0f26d50)" d="M 119.137325 207.608668 
L 123.167061 228.96 
L 219.88074 228.96 
L 223.910477 222.85962 
L 240.029423 222.85962 
L 244.05916 228.96 
L 264.207843 228.96 
L 268.23758 205.236298 
L 272.267316 204.774336 
L 280.32679 204.774336 
L 284.356526 204.342996 
L 288.386263 228.066697 
L 292.415999 228.52866 
L 300.475473 228.52866 
L 304.505209 228.705817 
L 308.534946 228.705817 
L 312.564682 228.394119 
L 320.624156 228.394119 
L 324.653892 228.648302 
L 328.683629 228.583699 
L 332.713366 228.895397 
L 344.802575 228.895397 
L 348.832312 228.349962 
L 356.891785 227.856191 
L 364.951258 227.451196 
L 368.980995 228.061234 
L 373.010732 228.359854 
L 377.040468 228.183678 
L 381.070205 228.341836 
L 385.099942 228.370314 
L 393.159415 227.958298 
L 397.189151 227.629581 
L 401.218888 227.508952 
L 405.248625 227.240208 
L 409.278361 226.094225 
L 413.308098 225.982579 
L 417.337835 224.89269 
L 421.367571 224.091679 
L 425.397308 223.769548 
L 429.427044 223.835314 
L 437.486518 221.298529 
L 441.516254 220.744736 
L 445.545991 217.657549 
L 449.575727 215.850666 
L 453.605464 214.827165 
L 457.635201 215.536531 
L 461.664937 213.524297 
L 469.724411 215.675358 
L 473.754147 212.466207 
L 477.783884 208.708887 
L 481.81362 205.297761 
L 485.843357 204.51202 
L 489.873094 201.056203 
L 493.90283 200.988506 
L 497.932567 204.280993 
L 501.962304 203.143837 
L 505.99204 198.719949 
L 510.021777 192.723046 
L 514.051513 190.084042 
L 518.08125 184.821556 
L 522.110987 182.347098 
L 530.17046 189.033995 
L 534.200196 189.32056 
L 538.229933 189.779289 
L 542.25967 191.223076 
L 546.289406 186.670133 
L 550.319143 185.370847 
L 554.34888 187.283609 
L 558.378616 184.837026 
L 566.438089 184.183501 
L 570.467826 183.456987 
L 574.497563 179.544915 
L 578.527299 178.302944 
L 582.557036 178.910913 
L 586.586773 178.10216 
L 590.616509 177.627372 
L 594.646246 177.91274 
L 598.675982 177.714062 
L 606.735456 173.204399 
L 610.765192 170.493578 
L 614.794929 164.980964 
L 618.824665 158.525525 
L 622.854402 153.131579 
L 626.884139 149.583412 
L 630.913875 146.804977 
L 634.943612 142.960283 
L 638.973349 140.720987 
L 643.003085 137.142532 
L 647.032822 134.635614 
L 651.062558 129.973337 
L 655.092295 129.258221 
L 659.122032 129.925139 
L 663.151768 129.813968 
L 667.181505 123.953837 
L 671.211242 123.854398 
L 675.240978 122.206684 
L 679.270715 118.783739 
L 683.300451 118.000092 
L 687.330188 121.908389 
L 691.359925 117.612178 
L 695.389661 115.800544 
L 699.419398 113.516814 
L 703.449134 107.741771 
L 707.478871 104.364266 
L 715.538344 100.752684 
L 719.568081 95.215449 
L 723.597818 93.371796 
L 727.627554 89.138444 
L 735.687027 81.307081 
L 739.716764 83.068372 
L 743.746501 80.785201 
L 747.776237 78.670134 
L 751.805974 77.798981 
L 755.83571 76.085694 
L 759.865447 73.648496 
L 763.895184 72.215214 
L 767.92492 70.960313 
L 771.954657 69.547673 
L 775.984394 68.845009 
L 780.01413 67.317685 
L 784.043867 65.917849 
L 788.073603 63.142863 
L 792.10334 62.221982 
L 800.162813 61.675588 
L 804.19255 63.101664 
L 808.222287 62.081011 
L 812.252023 61.633806 
L 816.28176 59.531526 
L 820.311496 57.868845 
L 824.341233 55.558356 
L 828.37097 58.266864 
L 832.400706 62.629892 
L 836.430443 61.588824 
L 840.460179 60.334997 
L 844.489916 56.117083 
L 848.519653 50.694407 
L 852.549389 42.16401 
L 856.579126 39.074477 
L 860.608863 37.424084 
L 868.668336 38.673388 
L 872.698072 38.946285 
L 876.727809 37.634695 
L 880.757546 37.694051 
L 884.787282 39.532349 
L 888.817019 40.983652 
L 896.876492 45.628128 
L 900.906229 46.123049 
L 904.935965 44.675368 
L 908.965702 39.445825 
L 912.995439 38.75103 
L 917.025175 41.796725 
L 921.054912 40.13304 
L 925.084648 37.114465 
L 929.114385 45.928186 
L 933.144122 42.872443 
L 937.173858 76.982498 
L 941.203595 115.869178 
L 945.233332 120.244616 
L 945.233332 120.244616 
" style="fill:none;stroke:#947383;stroke-linecap:square;stroke-width:2;"/>
   </g>
   <g id="line2d_16">
    <path clip-path="url(#p4de0f26d50)" d="M 147.345481 222.85962 
L 151.375218 228.96 
L 215.851004 228.96 
L 219.88074 227.625542 
L 235.999687 227.625542 
L 240.029423 228.96 
L 296.445736 228.96 
L 300.475473 225.67518 
L 312.564682 225.67518 
L 316.594419 220.930439 
L 320.624156 224.21526 
L 328.683629 224.21526 
L 332.713366 223.029075 
L 336.743102 227.773815 
L 340.772839 227.773815 
L 348.832312 221.778613 
L 352.862049 222.964798 
L 356.891785 222.964798 
L 360.921522 222.728872 
L 368.980995 228.724074 
L 381.070205 228.64601 
L 385.099942 228.434611 
L 389.129678 228.039215 
L 393.159415 228.039215 
L 397.189151 227.675789 
L 405.248625 228.201178 
L 413.308098 227.815019 
L 417.337835 228.178445 
L 421.367571 227.951304 
L 425.397308 227.057007 
L 429.427044 227.432132 
L 433.456781 226.542372 
L 437.486518 224.26055 
L 441.516254 222.758839 
L 445.545991 221.122608 
L 449.575727 220.173608 
L 453.605464 214.315173 
L 457.635201 213.96335 
L 461.664937 211.081117 
L 465.694674 209.709313 
L 469.724411 207.542698 
L 473.754147 212.110095 
L 477.783884 213.49187 
L 481.81362 214.28802 
L 485.843357 213.399322 
L 489.873094 209.361413 
L 493.90283 199.702055 
L 497.932567 191.196936 
L 501.962304 187.087666 
L 505.99204 188.502631 
L 510.021777 187.945259 
L 514.051513 195.257994 
L 518.08125 201.535506 
L 522.110987 206.447491 
L 526.140723 200.756552 
L 530.17046 202.956479 
L 534.200196 204.684298 
L 538.229933 202.971639 
L 542.25967 200.692175 
L 546.289406 204.402748 
L 550.319143 201.099193 
L 554.34888 197.516064 
L 558.378616 195.082723 
L 562.408353 190.512361 
L 566.438089 182.462143 
L 570.467826 183.806089 
L 574.497563 186.769792 
L 578.527299 189.151081 
L 582.557036 194.704563 
L 586.586773 189.673241 
L 590.616509 182.661903 
L 594.646246 168.486297 
L 598.675982 158.964142 
L 602.705719 156.617746 
L 606.735456 155.208002 
L 610.765192 157.435157 
L 614.794929 151.228821 
L 618.824665 156.209136 
L 622.854402 152.092253 
L 626.884139 164.822859 
L 630.913875 171.573201 
L 634.943612 171.026304 
L 638.973349 170.888472 
L 643.003085 170.134375 
L 651.062558 158.371103 
L 655.092295 177.037448 
L 659.122032 179.893279 
L 663.151768 177.346751 
L 667.181505 181.193775 
L 671.211242 182.439307 
L 675.240978 182.518511 
L 679.270715 177.642881 
L 683.300451 184.817227 
L 687.330188 182.16078 
L 691.359925 175.954837 
L 695.389661 162.754359 
L 699.419398 161.094674 
L 703.449134 162.882105 
L 707.478871 170.326557 
L 711.508608 184.816911 
L 715.538344 198.882019 
L 719.568081 202.188264 
L 723.597818 200.640235 
L 727.627554 196.232578 
L 731.657291 194.003633 
L 735.687027 193.643767 
L 739.716764 198.309743 
L 743.746501 198.422799 
L 747.776237 201.188964 
L 751.805974 200.118954 
L 755.83571 198.123271 
L 759.865447 197.330097 
L 763.895184 199.090117 
L 767.92492 194.5226 
L 771.954657 195.468909 
L 775.984394 198.023012 
L 780.01413 200.401791 
L 784.043867 200.577488 
L 788.073603 207.908748 
L 792.10334 204.182171 
L 796.133077 202.07727 
L 800.162813 198.358665 
L 804.19255 197.037686 
L 808.222287 192.557096 
L 812.252023 196.766975 
L 816.28176 197.950397 
L 820.311496 202.511818 
L 824.341233 206.043718 
L 828.37097 206.766212 
L 832.400706 204.890644 
L 836.430443 208.594498 
L 840.460179 210.441558 
L 844.489916 208.724664 
L 848.519653 213.741481 
L 852.549389 215.496605 
L 856.579126 208.150705 
L 860.608863 202.079794 
L 864.638599 197.342723 
L 868.668336 194.818598 
L 872.698072 195.874433 
L 876.727809 197.470671 
L 880.757546 193.877179 
L 884.787282 200.832274 
L 888.817019 198.402535 
L 892.846756 188.512524 
L 896.876492 183.976344 
L 900.906229 181.651803 
L 904.935965 177.449319 
L 908.965702 178.804163 
L 912.995439 180.604538 
L 917.025175 175.724234 
L 921.054912 180.528284 
L 925.084648 175.952998 
L 929.114385 172.982378 
L 929.114385 172.982378 
" style="fill:none;stroke:#96c6ad;stroke-linecap:square;stroke-width:2;"/>
   </g>
   <g id="line2d_17">
    <path clip-path="url(#p4de0f26d50)" d="M 457.635201 224.591888 
L 461.664937 226.234298 
L 465.694674 226.113156 
L 469.724411 226.113156 
L 473.754147 224.819136 
L 477.783884 218.249495 
L 481.81362 212.426405 
L 485.843357 215.273249 
L 489.873094 215.273249 
L 493.90283 214.533809 
L 497.932567 219.647677 
L 501.962304 223.499875 
L 505.99204 219.229609 
L 510.021777 216.429434 
L 514.051513 213.535664 
L 518.08125 210.72117 
L 522.110987 212.692062 
L 526.140723 214.791007 
L 530.17046 211.597825 
L 534.200196 214.441999 
L 538.229933 215.427445 
L 542.25967 212.224745 
L 546.289406 214.396067 
L 550.319143 219.440475 
L 554.34888 220.968952 
L 558.378616 222.220312 
L 562.408353 223.233132 
L 566.438089 218.352827 
L 570.467826 215.234855 
L 574.497563 214.454977 
L 578.527299 213.81952 
L 582.557036 215.081082 
L 586.586773 219.294157 
L 590.616509 221.052825 
L 594.646246 220.790922 
L 598.675982 223.459839 
L 602.705719 224.388158 
L 606.735456 225.055387 
L 610.765192 225.09222 
L 614.794929 225.593642 
L 618.824665 224.439516 
L 622.854402 222.91442 
L 626.884139 222.91442 
L 630.913875 225.185839 
L 634.943612 226.280779 
L 638.973349 225.61777 
L 643.003085 225.171973 
L 647.032822 223.463867 
L 651.062558 223.463867 
L 655.092295 220.690966 
L 659.122032 222.508101 
L 663.151768 224.478993 
L 667.181505 223.221637 
L 671.211242 218.341333 
L 675.240978 217.479964 
L 679.270715 208.745328 
L 683.300451 197.487353 
L 687.330188 198.927721 
L 691.359925 193.455864 
L 695.389661 192.547297 
L 699.419398 196.02622 
L 703.449134 205.298025 
L 707.478871 196.147454 
L 711.508608 201.037646 
L 715.538344 198.748057 
L 719.568081 197.903389 
L 723.597818 192.487764 
L 727.627554 199.87861 
L 731.657291 200.358601 
L 735.687027 203.013592 
L 739.716764 197.252122 
L 743.746501 198.883287 
L 747.776237 192.884919 
L 751.805974 188.788378 
L 755.83571 187.908918 
L 759.865447 188.533226 
L 763.895184 188.372931 
L 767.92492 192.690692 
L 771.954657 197.887151 
L 775.984394 197.054023 
L 780.01413 201.619275 
L 784.043867 197.242661 
L 788.073603 193.416362 
L 792.10334 188.563786 
L 796.133077 187.336698 
L 800.162813 183.333324 
L 804.19255 171.498741 
L 808.222287 163.643665 
L 812.252023 156.957895 
L 816.28176 162.463584 
L 820.311496 160.684306 
L 824.341233 181.989121 
L 828.37097 191.518811 
L 832.400706 203.278989 
L 836.430443 185.540766 
L 840.460179 168.736477 
L 844.489916 157.79374 
L 848.519653 150.676629 
L 852.549389 140.102636 
L 856.579126 152.88264 
L 860.608863 171.754738 
L 864.638599 177.036552 
L 868.668336 177.258961 
L 872.698072 191.493182 
L 876.727809 195.690453 
L 880.757546 193.51798 
L 884.787282 174.089595 
L 888.817019 169.985125 
L 892.846756 164.162034 
" style="fill:none;stroke:#525886;stroke-linecap:square;stroke-width:2;"/>
   </g>
   <g id="line2d_18">
    <path clip-path="url(#p4de0f26d50)" d="M 268.23758 228.816345 
L 280.32679 228.859048 
L 421.367571 228.852165 
L 433.456781 228.500148 
L 441.516254 227.92933 
L 445.545991 228.002445 
L 453.605464 227.902017 
L 457.635201 228.333357 
L 469.724411 227.899356 
L 481.81362 226.332895 
L 485.843357 225.96159 
L 493.90283 225.553635 
L 501.962304 225.985874 
L 505.99204 226.009823 
L 510.021777 225.637538 
L 514.051513 225.985931 
L 522.110987 225.824824 
L 526.140723 225.514296 
L 530.17046 225.585896 
L 534.200196 225.512976 
L 538.229933 224.679241 
L 542.25967 224.818333 
L 554.34888 223.42537 
L 558.378616 223.858022 
L 562.408353 222.980173 
L 566.438089 223.26299 
L 570.467826 223.112297 
L 574.497563 221.793527 
L 578.527299 221.559067 
L 582.557036 221.766696 
L 586.586773 220.938348 
L 590.616509 219.844702 
L 594.646246 220.279535 
L 598.675982 219.443254 
L 602.705719 219.046559 
L 606.735456 219.254526 
L 610.765192 219.288743 
L 614.794929 219.150585 
L 618.824665 218.788766 
L 626.884139 216.266785 
L 630.913875 215.638262 
L 634.943612 213.624416 
L 638.973349 212.767899 
L 643.003085 211.698713 
L 647.032822 210.933346 
L 651.062558 210.999145 
L 655.092295 209.844511 
L 659.122032 207.605071 
L 663.151768 206.109996 
L 667.181505 204.94495 
L 671.211242 202.318908 
L 675.240978 202.845245 
L 679.270715 202.923668 
L 683.300451 201.991649 
L 687.330188 201.699378 
L 691.359925 199.411452 
L 695.389661 197.878154 
L 699.419398 195.490555 
L 703.449134 194.143345 
L 707.478871 191.771411 
L 711.508608 191.175573 
L 715.538344 188.637061 
L 719.568081 186.73855 
L 723.597818 186.119931 
L 731.657291 184.112368 
L 735.687027 183.674205 
L 739.716764 182.2869 
L 743.746501 179.795947 
L 747.776237 175.699243 
L 751.805974 172.752041 
L 755.83571 170.55502 
L 759.865447 169.437596 
L 763.895184 166.396602 
L 767.92492 165.13739 
L 771.954657 162.830474 
L 775.984394 158.519246 
L 780.01413 155.1282 
L 784.043867 152.379013 
L 788.073603 150.599636 
L 792.10334 147.894754 
L 796.133077 146.481105 
L 800.162813 144.675155 
L 804.19255 143.810197 
L 808.222287 141.085274 
L 812.252023 139.424366 
L 816.28176 135.660068 
L 820.311496 132.842426 
L 824.341233 130.286542 
L 828.37097 127.491434 
L 832.400706 123.529011 
L 836.430443 123.619222 
L 840.460179 120.501167 
L 844.489916 116.829012 
L 848.519653 114.232433 
L 852.549389 114.027085 
L 856.579126 111.612855 
L 860.608863 109.049225 
L 864.638599 109.154551 
L 872.698072 108.686314 
L 876.727809 107.421312 
L 880.757546 108.690796 
L 884.787282 107.799039 
L 888.817019 110.618295 
L 892.846756 112.062939 
L 896.876492 114.101413 
L 900.906229 115.639432 
L 904.935965 118.192753 
L 908.965702 123.041563 
L 912.995439 127.373767 
L 917.025175 128.843834 
L 921.054912 132.093142 
L 925.084648 135.508845 
L 929.114385 131.830638 
L 933.144122 129.698875 
L 937.173858 150.799014 
L 941.203595 170.521128 
L 945.233332 189.076452 
L 949.263068 166.4311 
L 949.263068 166.4311 
" style="fill:none;stroke:#937252;stroke-linecap:square;stroke-width:2;"/>
   </g>
   <g id="line2d_19">
    <path clip-path="url(#p4de0f26d50)" d="M 86.899432 228.747471 
L 94.958905 228.8825 
L 111.077852 228.78953 
L 127.196798 228.760039 
L 131.226535 228.930509 
L 139.286008 228.96 
L 159.434691 228.714287 
L 167.494164 228.767934 
L 171.523901 228.692443 
L 175.553637 228.884509 
L 191.672584 228.96 
L 195.702321 228.697906 
L 203.761794 228.357409 
L 207.79153 228.13313 
L 211.821267 228.020755 
L 223.910477 228.563328 
L 227.940213 228.068572 
L 235.999687 227.614546 
L 244.05916 225.781012 
L 248.088897 226.187697 
L 252.118633 226.356488 
L 256.14837 224.387819 
L 260.178106 224.172055 
L 264.207843 225.055558 
L 268.23758 223.077088 
L 272.267316 221.778456 
L 276.297053 223.185597 
L 280.32679 223.15188 
L 284.356526 219.573444 
L 288.386263 217.612686 
L 292.415999 216.388773 
L 296.445736 213.319595 
L 300.475473 213.068047 
L 304.505209 212.047734 
L 308.534946 214.087086 
L 312.564682 210.912138 
L 316.594419 213.303845 
L 320.624156 208.590085 
L 324.653892 204.786762 
L 328.683629 205.278202 
L 332.713366 208.112445 
L 336.743102 208.665137 
L 340.772839 208.070808 
L 344.802575 210.957356 
L 348.832312 203.700224 
L 352.862049 199.196282 
L 356.891785 196.141695 
L 360.921522 199.209259 
L 364.951258 199.31839 
L 368.980995 204.220145 
L 373.010732 199.261772 
L 377.040468 195.170257 
L 381.070205 195.015774 
L 385.099942 189.020077 
L 389.129678 181.543123 
L 393.159415 184.364272 
L 397.189151 174.266011 
L 401.218888 166.934339 
L 405.248625 165.414873 
L 409.278361 158.680456 
L 413.308098 152.408902 
L 417.337835 151.797195 
L 425.397308 134.722229 
L 429.427044 129.749502 
L 433.456781 126.926756 
L 437.486518 128.353365 
L 441.516254 129.31486 
L 445.545991 132.468352 
L 449.575727 134.057135 
L 453.605464 130.78937 
L 457.635201 122.449222 
L 461.664937 113.664152 
L 465.694674 108.53903 
L 469.724411 105.016392 
L 473.754147 98.083992 
L 477.783884 94.78608 
L 481.81362 92.337412 
L 489.873094 74.651312 
L 493.90283 72.557123 
L 497.932567 71.369704 
L 501.962304 71.096127 
L 505.99204 74.290763 
L 510.021777 75.021016 
L 514.051513 72.061169 
L 518.08125 68.508503 
L 522.110987 65.867081 
L 526.140723 61.586148 
L 530.17046 61.518504 
L 534.200196 62.809619 
L 538.229933 62.17989 
L 550.319143 56.7082 
L 554.34888 53.937585 
L 558.378616 51.869718 
L 562.408353 50.771363 
L 566.438089 49.275777 
L 570.467826 46.817412 
L 574.497563 44.858339 
L 578.527299 43.15702 
L 582.557036 40.82035 
L 586.586773 38.812052 
L 590.616509 37.211203 
L 594.646246 34.869873 
L 598.675982 32.983377 
L 602.705719 31.686887 
L 606.735456 31.220138 
L 610.765192 31.53418 
L 618.824665 34.421188 
L 622.854402 33.448792 
L 626.884139 32.23039 
L 630.913875 31.161362 
L 634.943612 29.593936 
L 638.973349 27.900986 
L 643.003085 27.626056 
L 647.032822 27.977593 
L 651.062558 27.006704 
L 655.092295 25.831126 
L 659.122032 25.426378 
L 663.151768 25.275676 
L 667.181505 24.265591 
L 671.211242 24.113829 
L 675.240978 24.238107 
L 683.300451 23.317215 
L 687.330188 23.231648 
L 695.389661 22.431596 
L 699.419398 22.291333 
L 703.449134 21.754656 
L 707.478871 21.104599 
L 715.538344 20.808077 
L 719.568081 20.729908 
L 723.597818 20.794984 
L 731.657291 21.320716 
L 735.687027 21.456603 
L 739.716764 21.254856 
L 743.746501 21.523988 
L 747.776237 22.03255 
L 751.805974 21.868369 
L 755.83571 21.32868 
L 759.865447 21.084026 
L 763.895184 20.705424 
L 767.92492 20.181161 
L 771.954657 19.862977 
L 775.984394 19.699091 
L 780.01413 19.728365 
L 784.043867 19.333903 
L 788.073603 19.132621 
L 796.133077 19.224544 
L 800.162813 19.338241 
L 812.252023 18.973834 
L 816.28176 18.83435 
L 820.311496 18.407791 
L 824.341233 18.329519 
L 836.430443 17.76 
L 852.549389 18.817069 
L 856.579126 19.520916 
L 860.608863 19.918143 
L 864.638599 20.037495 
L 872.698072 21.990151 
L 876.727809 22.123062 
L 880.757546 22.387725 
L 884.787282 23.050858 
L 896.876492 22.375767 
L 904.935965 24.242563 
L 912.995439 26.630498 
L 917.025175 27.684835 
L 921.054912 28.238521 
L 925.084648 26.649541 
L 929.114385 28.959026 
L 933.144122 34.793052 
L 933.144122 34.793052 
" style="fill:none;stroke:#d18cad;stroke-linecap:square;stroke-width:2;"/>
   </g>
   <g id="line2d_20">
    <path clip-path="url(#p4de0f26d50)" d="M 373.010732 221.842889 
L 377.040468 228.96 
L 389.129678 228.96 
L 393.159415 211.878935 
L 397.189151 211.878935 
L 401.218888 190.527603 
L 409.278361 190.527603 
L 413.308098 207.608668 
L 417.337835 207.608668 
L 421.367571 226.824867 
L 429.427044 226.824867 
L 433.456781 218.818117 
L 437.486518 213.480285 
L 441.516254 210.870677 
L 445.545991 206.125937 
L 449.575727 184.774605 
L 453.605464 189.222799 
L 457.635201 191.002077 
L 461.664937 187.982697 
L 465.694674 187.982697 
L 469.724411 207.198895 
L 473.754147 210.757451 
L 477.783884 211.031186 
L 481.81362 214.52504 
L 485.843357 204.544724 
L 489.873094 196.004191 
L 493.90283 196.004191 
L 497.932567 190.748479 
L 501.962304 173.667414 
L 510.021777 177.967996 
L 514.051513 154.244294 
L 518.08125 149.645546 
L 522.110987 164.896497 
L 526.140723 163.221883 
L 530.17046 167.492149 
L 534.200196 175.202352 
L 538.229933 169.362672 
L 542.25967 165.415367 
L 546.289406 144.064035 
L 550.319143 141.217191 
L 554.34888 139.437913 
L 558.378616 147.741209 
L 562.408353 129.320452 
L 566.438089 140.504483 
L 570.467826 127.912672 
L 574.497563 110.119896 
L 578.527299 110.119896 
L 582.557036 124.354117 
L 586.586773 134.521418 
L 590.616509 132.879008 
L 594.646246 155.653761 
L 598.675982 123.626764 
L 602.705719 95.158322 
L 610.765192 95.158322 
L 614.794929 100.85201 
L 618.824665 106.189843 
L 622.854402 148.892506 
L 626.884139 146.045662 
L 630.913875 167.396994 
L 634.943612 174.514104 
L 638.973349 190.527603 
L 643.003085 147.82494 
L 647.032822 164.906005 
L 651.062558 128.303722 
L 655.092295 101.614558 
L 659.122032 80.263226 
L 663.151768 80.263226 
L 667.181505 37.560563 
L 671.211242 48.541247 
L 675.240978 60.996191 
L 679.270715 82.347523 
L 683.300451 99.428588 
L 687.330188 127.89703 
L 691.359925 123.016726 
L 695.389661 128.710414 
L 699.419398 121.593304 
L 703.449134 131.201403 
L 707.478871 124.084292 
L 711.508608 111.883531 
L 715.538344 88.397067 
L 719.568081 108.324976 
L 723.597818 95.870033 
L 727.627554 95.870033 
L 731.657291 118.644786 
L 735.687027 118.644786 
L 739.716764 84.482656 
L 743.746501 100.750337 
L 747.776237 93.633226 
L 751.805974 92.209804 
L 755.83571 111.677195 
L 759.865447 111.677195 
L 763.895184 99.476434 
L 767.92492 101.666314 
L 771.954657 95.386511 
L 775.984394 82.32452 
L 780.01413 109.013684 
L 784.043867 112.063874 
L 788.073603 132.242056 
L 792.10334 136.879449 
L 796.133077 148.266826 
L 800.162813 148.266826 
L 804.19255 134.032605 
L 808.222287 111.664543 
L 812.252023 113.306954 
L 816.28176 106.189843 
L 820.311496 96.581744 
L 824.341233 117.933075 
L 828.37097 125.978505 
L 832.400706 104.627173 
L 836.430443 98.804083 
L 840.460179 105.446719 
L 844.489916 91.212498 
L 848.519653 90.284179 
L 852.549389 100.959845 
L 856.579126 105.140525 
L 860.608863 109.885266 
L 864.638599 111.179286 
L 868.668336 102.028715 
L 872.698072 112.704381 
L 876.727809 118.617057 
L 880.757546 115.770213 
L 884.787282 117.323037 
L 888.817019 122.203342 
L 892.846756 116.865509 
L 896.876492 119.712353 
L 900.906229 94.090755 
L 904.935965 103.698854 
L 908.965702 107.969121 
L 912.995439 103.601803 
L 917.025175 96.484692 
L 921.054912 133.086975 
L 925.084648 130.121512 
L 929.114385 151.472844 
L 933.144122 161.177995 
L 937.173858 164.228185 
L 941.203595 148.977234 
L 941.203595 148.977234 
" style="fill:none;stroke:#a4a86f;stroke-linecap:square;stroke-width:2;"/>
   </g>
   <g id="line2d_21">
    <path clip-path="url(#p4de0f26d50)" d="M 352.862049 207.608668 
L 356.891785 228.96 
L 393.159415 228.96 
L 397.189151 214.725779 
L 409.278361 214.725779 
L 413.308098 200.491558 
L 417.337835 214.725779 
L 421.367571 214.725779 
L 425.397308 207.608668 
L 429.427044 207.608668 
L 433.456781 221.842889 
L 437.486518 221.842889 
L 441.516254 200.491558 
L 445.545991 207.608668 
L 449.575727 203.726608 
L 457.635201 203.726608 
L 461.664937 225.07794 
L 465.694674 216.537407 
L 469.724411 204.405969 
L 473.754147 196.641848 
L 477.783884 184.441087 
L 481.81362 184.441087 
L 485.843357 182.305954 
L 489.873094 184.97487 
L 493.90283 184.198458 
L 497.932567 191.375376 
L 501.962304 184.258266 
L 505.99204 178.776167 
L 510.021777 169.345996 
L 514.051513 158.476227 
L 518.08125 152.112693 
L 522.110987 142.623212 
L 526.140723 151.107842 
L 530.17046 169.277406 
L 534.200196 181.023127 
L 538.229933 188.934706 
L 542.25967 192.730498 
L 546.289406 190.355948 
L 550.319143 194.961137 
L 554.34888 200.525586 
L 558.378616 202.419804 
L 562.408353 214.481434 
L 566.438089 224.529119 
L 570.467826 223.487591 
L 574.497563 224.733669 
L 578.527299 224.006997 
L 582.557036 224.123534 
L 586.586773 222.286861 
L 590.616509 221.020137 
L 594.646246 218.995359 
L 598.675982 219.702261 
L 602.705719 219.211139 
L 606.735456 219.405402 
L 610.765192 221.713654 
L 614.794929 219.847745 
L 618.824665 217.788867 
L 622.854402 214.532861 
L 626.884139 212.293211 
L 630.913875 212.293211 
L 634.943612 217.037951 
L 638.973349 215.09783 
L 643.003085 216.19277 
L 647.032822 214.950511 
L 651.062558 212.578141 
L 655.092295 205.745715 
L 659.122032 211.346064 
L 663.151768 214.630884 
L 667.181505 217.086287 
L 671.211242 218.31992 
L 675.240978 222.267031 
L 679.270715 219.894661 
L 683.300451 215.236188 
L 687.330188 215.822048 
L 691.359925 214.927325 
L 695.389661 213.196136 
L 699.419398 215.568507 
L 703.449134 220.226979 
L 707.478871 219.798114 
L 711.508608 218.781384 
L 715.538344 214.857356 
L 719.568081 214.857356 
L 723.597818 213.332261 
L 727.627554 212.285627 
L 731.657291 210.211497 
L 735.687027 210.211497 
L 739.716764 202.784947 
L 743.746501 197.904643 
L 747.776237 191.295897 
L 751.805974 182.185996 
L 755.83571 172.160153 
L 759.865447 169.847499 
L 763.895184 169.135788 
L 767.92492 176.456245 
L 771.954657 165.068868 
L 775.984394 183.635243 
L 780.01413 181.417702 
L 784.043867 185.072434 
L 788.073603 169.236863 
L 792.10334 184.182795 
L 796.133077 169.948574 
L 800.162813 139.202656 
L 804.19255 99.962371 
L 808.222287 99.234485 
L 812.252023 92.829085 
L 816.28176 78.594864 
L 820.311496 92.829085 
L 824.341233 135.531749 
L 828.37097 112.239387 
L 832.400706 129.320452 
L 836.430443 157.788894 
L 840.460179 183.502326 
L 844.489916 183.502326 
L 848.519653 226.204989 
L 856.579126 226.204989 
L 860.608863 228.96 
L 864.638599 228.96 
L 868.668336 186.257337 
L 868.668336 186.257337 
" style="fill:none;stroke:#d3d3d3;stroke-linecap:square;stroke-width:2;"/>
   </g>
   <g id="patch_3">
    <path d="M 43.78125 228.96 
L 43.78125 7.2 
" style="fill:none;stroke:#000000;stroke-linecap:square;stroke-linejoin:miter;stroke-width:0.8;"/>
   </g>
   <g id="patch_4">
    <path d="M 43.78125 228.96 
L 992.38125 228.96 
" style="fill:none;stroke:#000000;stroke-linecap:square;stroke-linejoin:miter;stroke-width:0.8;"/>
   </g>
   <g id="legend_1">
    <g id="line2d_22">
     <path d="M 50.98125 17.67875 
L 66.98125 17.67875 
" style="fill:none;stroke:#947383;stroke-linecap:square;stroke-width:2;"/>
    </g>
    <g id="line2d_23"/>
    <g id="text_17">
     <!-- Europe -->
     <g transform="translate(73.38125 20.47875)scale(0.08 -0.08)">
      <defs>
       <path d="M 9.8125 72.90625 
L 55.90625 72.90625 
L 55.90625 64.59375 
L 19.671875 64.59375 
L 19.671875 43.015625 
L 54.390625 43.015625 
L 54.390625 34.71875 
L 19.671875 34.71875 
L 19.671875 8.296875 
L 56.78125 8.296875 
L 56.78125 0 
L 9.8125 0 
z
" id="DejaVuSans-69"/>
       <path d="M 18.109375 8.203125 
L 18.109375 -20.796875 
L 9.078125 -20.796875 
L 9.078125 54.6875 
L 18.109375 54.6875 
L 18.109375 46.390625 
Q 20.953125 51.265625 25.265625 53.625 
Q 29.59375 56 35.59375 56 
Q 45.5625 56 51.78125 48.09375 
Q 58.015625 40.1875 58.015625 27.296875 
Q 58.015625 14.40625 51.78125 6.484375 
Q 45.5625 -1.421875 35.59375 -1.421875 
Q 29.59375 -1.421875 25.265625 0.953125 
Q 20.953125 3.328125 18.109375 8.203125 
z
M 48.6875 27.296875 
Q 48.6875 37.203125 44.609375 42.84375 
Q 40.53125 48.484375 33.40625 48.484375 
Q 26.265625 48.484375 22.1875 42.84375 
Q 18.109375 37.203125 18.109375 27.296875 
Q 18.109375 17.390625 22.1875 11.75 
Q 26.265625 6.109375 33.40625 6.109375 
Q 40.53125 6.109375 44.609375 11.75 
Q 48.6875 17.390625 48.6875 27.296875 
z
" id="DejaVuSans-112"/>
      </defs>
      <use xlink:href="#DejaVuSans-69"/>
      <use x="63.183594" xlink:href="#DejaVuSans-117"/>
      <use x="126.5625" xlink:href="#DejaVuSans-114"/>
      <use x="165.425781" xlink:href="#DejaVuSans-111"/>
      <use x="226.607422" xlink:href="#DejaVuSans-112"/>
      <use x="290.083984" xlink:href="#DejaVuSans-101"/>
     </g>
    </g>
    <g id="line2d_24">
     <path d="M 50.98125 29.42125 
L 66.98125 29.42125 
" style="fill:none;stroke:#96c6ad;stroke-linecap:square;stroke-width:2;"/>
    </g>
    <g id="line2d_25"/>
    <g id="text_18">
     <!-- Asia -->
     <g transform="translate(73.38125 32.22125)scale(0.08 -0.08)">
      <defs>
       <path d="M 34.1875 63.1875 
L 20.796875 26.90625 
L 47.609375 26.90625 
z
M 28.609375 72.90625 
L 39.796875 72.90625 
L 67.578125 0 
L 57.328125 0 
L 50.6875 18.703125 
L 17.828125 18.703125 
L 11.1875 0 
L 0.78125 0 
z
" id="DejaVuSans-65"/>
       <path d="M 44.28125 53.078125 
L 44.28125 44.578125 
Q 40.484375 46.53125 36.375 47.5 
Q 32.28125 48.484375 27.875 48.484375 
Q 21.1875 48.484375 17.84375 46.4375 
Q 14.5 44.390625 14.5 40.28125 
Q 14.5 37.15625 16.890625 35.375 
Q 19.28125 33.59375 26.515625 31.984375 
L 29.59375 31.296875 
Q 39.15625 29.25 43.1875 25.515625 
Q 47.21875 21.78125 47.21875 15.09375 
Q 47.21875 7.46875 41.1875 3.015625 
Q 35.15625 -1.421875 24.609375 -1.421875 
Q 20.21875 -1.421875 15.453125 -0.5625 
Q 10.6875 0.296875 5.421875 2 
L 5.421875 11.28125 
Q 10.40625 8.6875 15.234375 7.390625 
Q 20.0625 6.109375 24.8125 6.109375 
Q 31.15625 6.109375 34.5625 8.28125 
Q 37.984375 10.453125 37.984375 14.40625 
Q 37.984375 18.0625 35.515625 20.015625 
Q 33.0625 21.96875 24.703125 23.78125 
L 21.578125 24.515625 
Q 13.234375 26.265625 9.515625 29.90625 
Q 5.8125 33.546875 5.8125 39.890625 
Q 5.8125 47.609375 11.28125 51.796875 
Q 16.75 56 26.8125 56 
Q 31.78125 56 36.171875 55.265625 
Q 40.578125 54.546875 44.28125 53.078125 
z
" id="DejaVuSans-115"/>
      </defs>
      <use xlink:href="#DejaVuSans-65"/>
      <use x="68.408203" xlink:href="#DejaVuSans-115"/>
      <use x="120.507812" xlink:href="#DejaVuSans-105"/>
      <use x="148.291016" xlink:href="#DejaVuSans-97"/>
     </g>
    </g>
    <g id="line2d_26">
     <path d="M 50.98125 41.16375 
L 66.98125 41.16375 
" style="fill:none;stroke:#525886;stroke-linecap:square;stroke-width:2;"/>
    </g>
    <g id="line2d_27"/>
    <g id="text_19">
     <!-- South America -->
     <g transform="translate(73.38125 43.96375)scale(0.08 -0.08)">
      <defs>
       <path d="M 53.515625 70.515625 
L 53.515625 60.890625 
Q 47.90625 63.578125 42.921875 64.890625 
Q 37.9375 66.21875 33.296875 66.21875 
Q 25.25 66.21875 20.875 63.09375 
Q 16.5 59.96875 16.5 54.203125 
Q 16.5 49.359375 19.40625 46.890625 
Q 22.3125 44.4375 30.421875 42.921875 
L 36.375 41.703125 
Q 47.40625 39.59375 52.65625 34.296875 
Q 57.90625 29 57.90625 20.125 
Q 57.90625 9.515625 50.796875 4.046875 
Q 43.703125 -1.421875 29.984375 -1.421875 
Q 24.8125 -1.421875 18.96875 -0.25 
Q 13.140625 0.921875 6.890625 3.21875 
L 6.890625 13.375 
Q 12.890625 10.015625 18.65625 8.296875 
Q 24.421875 6.59375 29.984375 6.59375 
Q 38.421875 6.59375 43.015625 9.90625 
Q 47.609375 13.234375 47.609375 19.390625 
Q 47.609375 24.75 44.3125 27.78125 
Q 41.015625 30.8125 33.5 32.328125 
L 27.484375 33.5 
Q 16.453125 35.6875 11.515625 40.375 
Q 6.59375 45.0625 6.59375 53.421875 
Q 6.59375 63.09375 13.40625 68.65625 
Q 20.21875 74.21875 32.171875 74.21875 
Q 37.3125 74.21875 42.625 73.28125 
Q 47.953125 72.359375 53.515625 70.515625 
z
" id="DejaVuSans-83"/>
       <path d="M 54.890625 33.015625 
L 54.890625 0 
L 45.90625 0 
L 45.90625 32.71875 
Q 45.90625 40.484375 42.875 44.328125 
Q 39.84375 48.1875 33.796875 48.1875 
Q 26.515625 48.1875 22.3125 43.546875 
Q 18.109375 38.921875 18.109375 30.90625 
L 18.109375 0 
L 9.078125 0 
L 9.078125 75.984375 
L 18.109375 75.984375 
L 18.109375 46.1875 
Q 21.34375 51.125 25.703125 53.5625 
Q 30.078125 56 35.796875 56 
Q 45.21875 56 50.046875 50.171875 
Q 54.890625 44.34375 54.890625 33.015625 
z
" id="DejaVuSans-104"/>
       <path d="M 52 44.1875 
Q 55.375 50.25 60.0625 53.125 
Q 64.75 56 71.09375 56 
Q 79.640625 56 84.28125 50.015625 
Q 88.921875 44.046875 88.921875 33.015625 
L 88.921875 0 
L 79.890625 0 
L 79.890625 32.71875 
Q 79.890625 40.578125 77.09375 44.375 
Q 74.3125 48.1875 68.609375 48.1875 
Q 61.625 48.1875 57.5625 43.546875 
Q 53.515625 38.921875 53.515625 30.90625 
L 53.515625 0 
L 44.484375 0 
L 44.484375 32.71875 
Q 44.484375 40.625 41.703125 44.40625 
Q 38.921875 48.1875 33.109375 48.1875 
Q 26.21875 48.1875 22.15625 43.53125 
Q 18.109375 38.875 18.109375 30.90625 
L 18.109375 0 
L 9.078125 0 
L 9.078125 54.6875 
L 18.109375 54.6875 
L 18.109375 46.1875 
Q 21.1875 51.21875 25.484375 53.609375 
Q 29.78125 56 35.6875 56 
Q 41.65625 56 45.828125 52.96875 
Q 50 49.953125 52 44.1875 
z
" id="DejaVuSans-109"/>
      </defs>
      <use xlink:href="#DejaVuSans-83"/>
      <use x="63.476562" xlink:href="#DejaVuSans-111"/>
      <use x="124.658203" xlink:href="#DejaVuSans-117"/>
      <use x="188.037109" xlink:href="#DejaVuSans-116"/>
      <use x="227.246094" xlink:href="#DejaVuSans-104"/>
      <use x="290.625" xlink:href="#DejaVuSans-32"/>
      <use x="322.412109" xlink:href="#DejaVuSans-65"/>
      <use x="390.820312" xlink:href="#DejaVuSans-109"/>
      <use x="488.232422" xlink:href="#DejaVuSans-101"/>
      <use x="549.755859" xlink:href="#DejaVuSans-114"/>
      <use x="590.869141" xlink:href="#DejaVuSans-105"/>
      <use x="618.652344" xlink:href="#DejaVuSans-99"/>
      <use x="673.632812" xlink:href="#DejaVuSans-97"/>
     </g>
    </g>
    <g id="line2d_28">
     <path d="M 50.98125 52.90625 
L 66.98125 52.90625 
" style="fill:none;stroke:#937252;stroke-linecap:square;stroke-width:2;"/>
    </g>
    <g id="line2d_29"/>
    <g id="text_20">
     <!-- North America -->
     <g transform="translate(73.38125 55.70625)scale(0.08 -0.08)">
      <defs>
       <path d="M 9.8125 72.90625 
L 23.09375 72.90625 
L 55.421875 11.921875 
L 55.421875 72.90625 
L 64.984375 72.90625 
L 64.984375 0 
L 51.703125 0 
L 19.390625 60.984375 
L 19.390625 0 
L 9.8125 0 
z
" id="DejaVuSans-78"/>
      </defs>
      <use xlink:href="#DejaVuSans-78"/>
      <use x="74.804688" xlink:href="#DejaVuSans-111"/>
      <use x="135.986328" xlink:href="#DejaVuSans-114"/>
      <use x="177.099609" xlink:href="#DejaVuSans-116"/>
      <use x="216.308594" xlink:href="#DejaVuSans-104"/>
      <use x="279.6875" xlink:href="#DejaVuSans-32"/>
      <use x="311.474609" xlink:href="#DejaVuSans-65"/>
      <use x="379.882812" xlink:href="#DejaVuSans-109"/>
      <use x="477.294922" xlink:href="#DejaVuSans-101"/>
      <use x="538.818359" xlink:href="#DejaVuSans-114"/>
      <use x="579.931641" xlink:href="#DejaVuSans-105"/>
      <use x="607.714844" xlink:href="#DejaVuSans-99"/>
      <use x="662.695312" xlink:href="#DejaVuSans-97"/>
     </g>
    </g>
    <g id="line2d_30">
     <path d="M 50.98125 64.64875 
L 66.98125 64.64875 
" style="fill:none;stroke:#d18cad;stroke-linecap:square;stroke-width:2;"/>
    </g>
    <g id="line2d_31"/>
    <g id="text_21">
     <!-- United Kingdom -->
     <g transform="translate(73.38125 67.44875)scale(0.08 -0.08)">
      <defs>
       <path d="M 8.6875 72.90625 
L 18.609375 72.90625 
L 18.609375 28.609375 
Q 18.609375 16.890625 22.84375 11.734375 
Q 27.09375 6.59375 36.625 6.59375 
Q 46.09375 6.59375 50.34375 11.734375 
Q 54.59375 16.890625 54.59375 28.609375 
L 54.59375 72.90625 
L 64.5 72.90625 
L 64.5 27.390625 
Q 64.5 13.140625 57.4375 5.859375 
Q 50.390625 -1.421875 36.625 -1.421875 
Q 22.796875 -1.421875 15.734375 5.859375 
Q 8.6875 13.140625 8.6875 27.390625 
z
" id="DejaVuSans-85"/>
       <path d="M 9.8125 72.90625 
L 19.671875 72.90625 
L 19.671875 42.09375 
L 52.390625 72.90625 
L 65.09375 72.90625 
L 28.90625 38.921875 
L 67.671875 0 
L 54.6875 0 
L 19.671875 35.109375 
L 19.671875 0 
L 9.8125 0 
z
" id="DejaVuSans-75"/>
      </defs>
      <use xlink:href="#DejaVuSans-85"/>
      <use x="73.193359" xlink:href="#DejaVuSans-110"/>
      <use x="136.572266" xlink:href="#DejaVuSans-105"/>
      <use x="164.355469" xlink:href="#DejaVuSans-116"/>
      <use x="203.564453" xlink:href="#DejaVuSans-101"/>
      <use x="265.087891" xlink:href="#DejaVuSans-100"/>
      <use x="328.564453" xlink:href="#DejaVuSans-32"/>
      <use x="360.351562" xlink:href="#DejaVuSans-75"/>
      <use x="425.927734" xlink:href="#DejaVuSans-105"/>
      <use x="453.710938" xlink:href="#DejaVuSans-110"/>
      <use x="517.089844" xlink:href="#DejaVuSans-103"/>
      <use x="580.566406" xlink:href="#DejaVuSans-100"/>
      <use x="644.042969" xlink:href="#DejaVuSans-111"/>
      <use x="705.224609" xlink:href="#DejaVuSans-109"/>
     </g>
    </g>
    <g id="line2d_32">
     <path d="M 50.98125 76.39125 
L 66.98125 76.39125 
" style="fill:none;stroke:#a4a86f;stroke-linecap:square;stroke-width:2;"/>
    </g>
    <g id="line2d_33"/>
    <g id="text_22">
     <!-- Oceania -->
     <g transform="translate(73.38125 79.19125)scale(0.08 -0.08)">
      <defs>
       <path d="M 39.40625 66.21875 
Q 28.65625 66.21875 22.328125 58.203125 
Q 16.015625 50.203125 16.015625 36.375 
Q 16.015625 22.609375 22.328125 14.59375 
Q 28.65625 6.59375 39.40625 6.59375 
Q 50.140625 6.59375 56.421875 14.59375 
Q 62.703125 22.609375 62.703125 36.375 
Q 62.703125 50.203125 56.421875 58.203125 
Q 50.140625 66.21875 39.40625 66.21875 
z
M 39.40625 74.21875 
Q 54.734375 74.21875 63.90625 63.9375 
Q 73.09375 53.65625 73.09375 36.375 
Q 73.09375 19.140625 63.90625 8.859375 
Q 54.734375 -1.421875 39.40625 -1.421875 
Q 24.03125 -1.421875 14.8125 8.828125 
Q 5.609375 19.09375 5.609375 36.375 
Q 5.609375 53.65625 14.8125 63.9375 
Q 24.03125 74.21875 39.40625 74.21875 
z
" id="DejaVuSans-79"/>
      </defs>
      <use xlink:href="#DejaVuSans-79"/>
      <use x="78.710938" xlink:href="#DejaVuSans-99"/>
      <use x="133.691406" xlink:href="#DejaVuSans-101"/>
      <use x="195.214844" xlink:href="#DejaVuSans-97"/>
      <use x="256.494141" xlink:href="#DejaVuSans-110"/>
      <use x="319.873047" xlink:href="#DejaVuSans-105"/>
      <use x="347.65625" xlink:href="#DejaVuSans-97"/>
     </g>
    </g>
    <g id="line2d_34">
     <path d="M 50.98125 88.13375 
L 66.98125 88.13375 
" style="fill:none;stroke:#d3d3d3;stroke-linecap:square;stroke-width:2;"/>
    </g>
    <g id="line2d_35"/>
    <g id="text_23">
     <!-- Africa -->
     <g transform="translate(73.38125 90.93375)scale(0.08 -0.08)">
      <defs>
       <path d="M 37.109375 75.984375 
L 37.109375 68.5 
L 28.515625 68.5 
Q 23.6875 68.5 21.796875 66.546875 
Q 19.921875 64.59375 19.921875 59.515625 
L 19.921875 54.6875 
L 34.71875 54.6875 
L 34.71875 47.703125 
L 19.921875 47.703125 
L 19.921875 0 
L 10.890625 0 
L 10.890625 47.703125 
L 2.296875 47.703125 
L 2.296875 54.6875 
L 10.890625 54.6875 
L 10.890625 58.5 
Q 10.890625 67.625 15.140625 71.796875 
Q 19.390625 75.984375 28.609375 75.984375 
z
" id="DejaVuSans-102"/>
      </defs>
      <use xlink:href="#DejaVuSans-65"/>
      <use x="64.783203" xlink:href="#DejaVuSans-102"/>
      <use x="99.988281" xlink:href="#DejaVuSans-114"/>
      <use x="141.101562" xlink:href="#DejaVuSans-105"/>
      <use x="168.884766" xlink:href="#DejaVuSans-99"/>
      <use x="223.865234" xlink:href="#DejaVuSans-97"/>
     </g>
    </g>
   </g>
  </g>
 </g>
 <defs>
  <clipPath id="p4de0f26d50">
   <rect height="221.76" width="948.6" x="43.78125" y="7.2"/>
  </clipPath>
 </defs>
</svg>
