<?xml version="1.0" encoding="utf-8" standalone="no"?>
<!DOCTYPE svg PUBLIC "-//W3C//DTD SVG 1.1//EN"
  "http://www.w3.org/Graphics/SVG/1.1/DTD/svg11.dtd">
<!-- Created with matplotlib (https://matplotlib.org/) -->
<svg height="298.620937pt" version="1.1" viewBox="0 0 999.58125 298.620937" width="999.58125pt" xmlns="http://www.w3.org/2000/svg" xmlns:xlink="http://www.w3.org/1999/xlink">
 <metadata>
  <rdf:RDF xmlns:cc="http://creativecommons.org/ns#" xmlns:dc="http://purl.org/dc/elements/1.1/" xmlns:rdf="http://www.w3.org/1999/02/22-rdf-syntax-ns#">
   <cc:Work>
    <dc:type rdf:resource="http://purl.org/dc/dcmitype/StillImage"/>
    <dc:date>2021-04-03T07:11:26.905953</dc:date>
    <dc:format>image/svg+xml</dc:format>
    <dc:creator>
     <cc:Agent>
      <dc:title>Matplotlib v3.3.3, https://matplotlib.org/</dc:title>
     </cc:Agent>
    </dc:creator>
   </cc:Work>
  </rdf:RDF>
 </metadata>
 <defs>
  <style type="text/css">*{stroke-linecap:butt;stroke-linejoin:round;}</style>
 </defs>
 <g id="figure_1">
  <g id="patch_1">
   <path d="M 0 298.620937 
L 999.58125 298.620937 
L 999.58125 0 
L 0 0 
z
" style="fill:#ffffff;"/>
  </g>
  <g id="axes_1">
   <g id="patch_2">
    <path d="M 43.78125 228.96 
L 992.38125 228.96 
L 992.38125 7.2 
L 43.78125 7.2 
z
" style="fill:#ffffff;"/>
   </g>
   <g id="matplotlib.axis_1">
    <g id="xtick_1">
     <g id="line2d_1">
      <defs>
       <path d="M 0 0 
L 0 3.5 
" id="mea3234eece" style="stroke:#000000;stroke-width:0.8;"/>
      </defs>
      <g>
       <use style="stroke:#000000;stroke-width:0.8;" x="119.008716" xlink:href="#mea3234eece" y="228.96"/>
      </g>
     </g>
     <g id="text_1">
      <!-- 2020-10 -->
      <g transform="translate(121.768091 277.742812)rotate(-90)scale(0.1 -0.1)">
       <defs>
        <path d="M 19.1875 8.296875 
L 53.609375 8.296875 
L 53.609375 0 
L 7.328125 0 
L 7.328125 8.296875 
Q 12.9375 14.109375 22.625 23.890625 
Q 32.328125 33.6875 34.8125 36.53125 
Q 39.546875 41.84375 41.421875 45.53125 
Q 43.3125 49.21875 43.3125 52.78125 
Q 43.3125 58.59375 39.234375 62.25 
Q 35.15625 65.921875 28.609375 65.921875 
Q 23.96875 65.921875 18.8125 64.3125 
Q 13.671875 62.703125 7.8125 59.421875 
L 7.8125 69.390625 
Q 13.765625 71.78125 18.9375 73 
Q 24.125 74.21875 28.421875 74.21875 
Q 39.75 74.21875 46.484375 68.546875 
Q 53.21875 62.890625 53.21875 53.421875 
Q 53.21875 48.921875 51.53125 44.890625 
Q 49.859375 40.875 45.40625 35.40625 
Q 44.1875 33.984375 37.640625 27.21875 
Q 31.109375 20.453125 19.1875 8.296875 
z
" id="DejaVuSans-50"/>
        <path d="M 31.78125 66.40625 
Q 24.171875 66.40625 20.328125 58.90625 
Q 16.5 51.421875 16.5 36.375 
Q 16.5 21.390625 20.328125 13.890625 
Q 24.171875 6.390625 31.78125 6.390625 
Q 39.453125 6.390625 43.28125 13.890625 
Q 47.125 21.390625 47.125 36.375 
Q 47.125 51.421875 43.28125 58.90625 
Q 39.453125 66.40625 31.78125 66.40625 
z
M 31.78125 74.21875 
Q 44.046875 74.21875 50.515625 64.515625 
Q 56.984375 54.828125 56.984375 36.375 
Q 56.984375 17.96875 50.515625 8.265625 
Q 44.046875 -1.421875 31.78125 -1.421875 
Q 19.53125 -1.421875 13.0625 8.265625 
Q 6.59375 17.96875 6.59375 36.375 
Q 6.59375 54.828125 13.0625 64.515625 
Q 19.53125 74.21875 31.78125 74.21875 
z
" id="DejaVuSans-48"/>
        <path d="M 4.890625 31.390625 
L 31.203125 31.390625 
L 31.203125 23.390625 
L 4.890625 23.390625 
z
" id="DejaVuSans-45"/>
        <path d="M 12.40625 8.296875 
L 28.515625 8.296875 
L 28.515625 63.921875 
L 10.984375 60.40625 
L 10.984375 69.390625 
L 28.421875 72.90625 
L 38.28125 72.90625 
L 38.28125 8.296875 
L 54.390625 8.296875 
L 54.390625 0 
L 12.40625 0 
z
" id="DejaVuSans-49"/>
       </defs>
       <use xlink:href="#DejaVuSans-50"/>
       <use x="63.623047" xlink:href="#DejaVuSans-48"/>
       <use x="127.246094" xlink:href="#DejaVuSans-50"/>
       <use x="190.869141" xlink:href="#DejaVuSans-48"/>
       <use x="254.492188" xlink:href="#DejaVuSans-45"/>
       <use x="290.576172" xlink:href="#DejaVuSans-49"/>
       <use x="354.199219" xlink:href="#DejaVuSans-48"/>
      </g>
     </g>
    </g>
    <g id="xtick_2">
     <g id="line2d_2">
      <g>
       <use style="stroke:#000000;stroke-width:0.8;" x="261.206975" xlink:href="#mea3234eece" y="228.96"/>
      </g>
     </g>
     <g id="text_2">
      <!-- 2020-11 -->
      <g transform="translate(263.96635 277.742812)rotate(-90)scale(0.1 -0.1)">
       <use xlink:href="#DejaVuSans-50"/>
       <use x="63.623047" xlink:href="#DejaVuSans-48"/>
       <use x="127.246094" xlink:href="#DejaVuSans-50"/>
       <use x="190.869141" xlink:href="#DejaVuSans-48"/>
       <use x="254.492188" xlink:href="#DejaVuSans-45"/>
       <use x="290.576172" xlink:href="#DejaVuSans-49"/>
       <use x="354.199219" xlink:href="#DejaVuSans-49"/>
      </g>
     </g>
    </g>
    <g id="xtick_3">
     <g id="line2d_3">
      <g>
       <use style="stroke:#000000;stroke-width:0.8;" x="398.818194" xlink:href="#mea3234eece" y="228.96"/>
      </g>
     </g>
     <g id="text_3">
      <!-- 2020-12 -->
      <g transform="translate(401.577569 277.742812)rotate(-90)scale(0.1 -0.1)">
       <use xlink:href="#DejaVuSans-50"/>
       <use x="63.623047" xlink:href="#DejaVuSans-48"/>
       <use x="127.246094" xlink:href="#DejaVuSans-50"/>
       <use x="190.869141" xlink:href="#DejaVuSans-48"/>
       <use x="254.492188" xlink:href="#DejaVuSans-45"/>
       <use x="290.576172" xlink:href="#DejaVuSans-49"/>
       <use x="354.199219" xlink:href="#DejaVuSans-50"/>
      </g>
     </g>
    </g>
    <g id="xtick_4">
     <g id="line2d_4">
      <g>
       <use style="stroke:#000000;stroke-width:0.8;" x="541.016453" xlink:href="#mea3234eece" y="228.96"/>
      </g>
     </g>
     <g id="text_4">
      <!-- 2021-01 -->
      <g transform="translate(543.775828 277.742812)rotate(-90)scale(0.1 -0.1)">
       <use xlink:href="#DejaVuSans-50"/>
       <use x="63.623047" xlink:href="#DejaVuSans-48"/>
       <use x="127.246094" xlink:href="#DejaVuSans-50"/>
       <use x="190.869141" xlink:href="#DejaVuSans-49"/>
       <use x="254.492188" xlink:href="#DejaVuSans-45"/>
       <use x="290.576172" xlink:href="#DejaVuSans-48"/>
       <use x="354.199219" xlink:href="#DejaVuSans-49"/>
      </g>
     </g>
    </g>
    <g id="xtick_5">
     <g id="line2d_5">
      <g>
       <use style="stroke:#000000;stroke-width:0.8;" x="683.214712" xlink:href="#mea3234eece" y="228.96"/>
      </g>
     </g>
     <g id="text_5">
      <!-- 2021-02 -->
      <g transform="translate(685.974087 277.742812)rotate(-90)scale(0.1 -0.1)">
       <use xlink:href="#DejaVuSans-50"/>
       <use x="63.623047" xlink:href="#DejaVuSans-48"/>
       <use x="127.246094" xlink:href="#DejaVuSans-50"/>
       <use x="190.869141" xlink:href="#DejaVuSans-49"/>
       <use x="254.492188" xlink:href="#DejaVuSans-45"/>
       <use x="290.576172" xlink:href="#DejaVuSans-48"/>
       <use x="354.199219" xlink:href="#DejaVuSans-50"/>
      </g>
     </g>
    </g>
    <g id="xtick_6">
     <g id="line2d_6">
      <g>
       <use style="stroke:#000000;stroke-width:0.8;" x="811.65185" xlink:href="#mea3234eece" y="228.96"/>
      </g>
     </g>
     <g id="text_6">
      <!-- 2021-03 -->
      <g transform="translate(814.411225 277.742812)rotate(-90)scale(0.1 -0.1)">
       <defs>
        <path d="M 40.578125 39.3125 
Q 47.65625 37.796875 51.625 33 
Q 55.609375 28.21875 55.609375 21.1875 
Q 55.609375 10.40625 48.1875 4.484375 
Q 40.765625 -1.421875 27.09375 -1.421875 
Q 22.515625 -1.421875 17.65625 -0.515625 
Q 12.796875 0.390625 7.625 2.203125 
L 7.625 11.71875 
Q 11.71875 9.328125 16.59375 8.109375 
Q 21.484375 6.890625 26.8125 6.890625 
Q 36.078125 6.890625 40.9375 10.546875 
Q 45.796875 14.203125 45.796875 21.1875 
Q 45.796875 27.640625 41.28125 31.265625 
Q 36.765625 34.90625 28.71875 34.90625 
L 20.21875 34.90625 
L 20.21875 43.015625 
L 29.109375 43.015625 
Q 36.375 43.015625 40.234375 45.921875 
Q 44.09375 48.828125 44.09375 54.296875 
Q 44.09375 59.90625 40.109375 62.90625 
Q 36.140625 65.921875 28.71875 65.921875 
Q 24.65625 65.921875 20.015625 65.03125 
Q 15.375 64.15625 9.8125 62.3125 
L 9.8125 71.09375 
Q 15.4375 72.65625 20.34375 73.4375 
Q 25.25 74.21875 29.59375 74.21875 
Q 40.828125 74.21875 47.359375 69.109375 
Q 53.90625 64.015625 53.90625 55.328125 
Q 53.90625 49.265625 50.4375 45.09375 
Q 46.96875 40.921875 40.578125 39.3125 
z
" id="DejaVuSans-51"/>
       </defs>
       <use xlink:href="#DejaVuSans-50"/>
       <use x="63.623047" xlink:href="#DejaVuSans-48"/>
       <use x="127.246094" xlink:href="#DejaVuSans-50"/>
       <use x="190.869141" xlink:href="#DejaVuSans-49"/>
       <use x="254.492188" xlink:href="#DejaVuSans-45"/>
       <use x="290.576172" xlink:href="#DejaVuSans-48"/>
       <use x="354.199219" xlink:href="#DejaVuSans-51"/>
      </g>
     </g>
    </g>
    <g id="xtick_7">
     <g id="line2d_7">
      <g>
       <use style="stroke:#000000;stroke-width:0.8;" x="953.850109" xlink:href="#mea3234eece" y="228.96"/>
      </g>
     </g>
     <g id="text_7">
      <!-- 2021-04 -->
      <g transform="translate(956.609484 277.742812)rotate(-90)scale(0.1 -0.1)">
       <defs>
        <path d="M 37.796875 64.3125 
L 12.890625 25.390625 
L 37.796875 25.390625 
z
M 35.203125 72.90625 
L 47.609375 72.90625 
L 47.609375 25.390625 
L 58.015625 25.390625 
L 58.015625 17.1875 
L 47.609375 17.1875 
L 47.609375 0 
L 37.796875 0 
L 37.796875 17.1875 
L 4.890625 17.1875 
L 4.890625 26.703125 
z
" id="DejaVuSans-52"/>
       </defs>
       <use xlink:href="#DejaVuSans-50"/>
       <use x="63.623047" xlink:href="#DejaVuSans-48"/>
       <use x="127.246094" xlink:href="#DejaVuSans-50"/>
       <use x="190.869141" xlink:href="#DejaVuSans-49"/>
       <use x="254.492188" xlink:href="#DejaVuSans-45"/>
       <use x="290.576172" xlink:href="#DejaVuSans-48"/>
       <use x="354.199219" xlink:href="#DejaVuSans-52"/>
      </g>
     </g>
    </g>
    <g id="text_8">
     <!-- Date -->
     <g transform="translate(506.130469 289.34125)scale(0.1 -0.1)">
      <defs>
       <path d="M 19.671875 64.796875 
L 19.671875 8.109375 
L 31.59375 8.109375 
Q 46.6875 8.109375 53.6875 14.9375 
Q 60.6875 21.78125 60.6875 36.53125 
Q 60.6875 51.171875 53.6875 57.984375 
Q 46.6875 64.796875 31.59375 64.796875 
z
M 9.8125 72.90625 
L 30.078125 72.90625 
Q 51.265625 72.90625 61.171875 64.09375 
Q 71.09375 55.28125 71.09375 36.53125 
Q 71.09375 17.671875 61.125 8.828125 
Q 51.171875 0 30.078125 0 
L 9.8125 0 
z
" id="DejaVuSans-68"/>
       <path d="M 34.28125 27.484375 
Q 23.390625 27.484375 19.1875 25 
Q 14.984375 22.515625 14.984375 16.5 
Q 14.984375 11.71875 18.140625 8.90625 
Q 21.296875 6.109375 26.703125 6.109375 
Q 34.1875 6.109375 38.703125 11.40625 
Q 43.21875 16.703125 43.21875 25.484375 
L 43.21875 27.484375 
z
M 52.203125 31.203125 
L 52.203125 0 
L 43.21875 0 
L 43.21875 8.296875 
Q 40.140625 3.328125 35.546875 0.953125 
Q 30.953125 -1.421875 24.3125 -1.421875 
Q 15.921875 -1.421875 10.953125 3.296875 
Q 6 8.015625 6 15.921875 
Q 6 25.140625 12.171875 29.828125 
Q 18.359375 34.515625 30.609375 34.515625 
L 43.21875 34.515625 
L 43.21875 35.40625 
Q 43.21875 41.609375 39.140625 45 
Q 35.0625 48.390625 27.6875 48.390625 
Q 23 48.390625 18.546875 47.265625 
Q 14.109375 46.140625 10.015625 43.890625 
L 10.015625 52.203125 
Q 14.9375 54.109375 19.578125 55.046875 
Q 24.21875 56 28.609375 56 
Q 40.484375 56 46.34375 49.84375 
Q 52.203125 43.703125 52.203125 31.203125 
z
" id="DejaVuSans-97"/>
       <path d="M 18.3125 70.21875 
L 18.3125 54.6875 
L 36.8125 54.6875 
L 36.8125 47.703125 
L 18.3125 47.703125 
L 18.3125 18.015625 
Q 18.3125 11.328125 20.140625 9.421875 
Q 21.96875 7.515625 27.59375 7.515625 
L 36.8125 7.515625 
L 36.8125 0 
L 27.59375 0 
Q 17.1875 0 13.234375 3.875 
Q 9.28125 7.765625 9.28125 18.015625 
L 9.28125 47.703125 
L 2.6875 47.703125 
L 2.6875 54.6875 
L 9.28125 54.6875 
L 9.28125 70.21875 
z
" id="DejaVuSans-116"/>
       <path d="M 56.203125 29.59375 
L 56.203125 25.203125 
L 14.890625 25.203125 
Q 15.484375 15.921875 20.484375 11.0625 
Q 25.484375 6.203125 34.421875 6.203125 
Q 39.59375 6.203125 44.453125 7.46875 
Q 49.3125 8.734375 54.109375 11.28125 
L 54.109375 2.78125 
Q 49.265625 0.734375 44.1875 -0.34375 
Q 39.109375 -1.421875 33.890625 -1.421875 
Q 20.796875 -1.421875 13.15625 6.1875 
Q 5.515625 13.8125 5.515625 26.8125 
Q 5.515625 40.234375 12.765625 48.109375 
Q 20.015625 56 32.328125 56 
Q 43.359375 56 49.78125 48.890625 
Q 56.203125 41.796875 56.203125 29.59375 
z
M 47.21875 32.234375 
Q 47.125 39.59375 43.09375 43.984375 
Q 39.0625 48.390625 32.421875 48.390625 
Q 24.90625 48.390625 20.390625 44.140625 
Q 15.875 39.890625 15.1875 32.171875 
z
" id="DejaVuSans-101"/>
      </defs>
      <use xlink:href="#DejaVuSans-68"/>
      <use x="77.001953" xlink:href="#DejaVuSans-97"/>
      <use x="138.28125" xlink:href="#DejaVuSans-116"/>
      <use x="177.490234" xlink:href="#DejaVuSans-101"/>
     </g>
    </g>
   </g>
   <g id="matplotlib.axis_2">
    <g id="ytick_1">
     <g id="line2d_8">
      <defs>
       <path d="M 0 0 
L -3.5 0 
" id="md71e6394aa" style="stroke:#000000;stroke-width:0.8;"/>
      </defs>
      <g>
       <use style="stroke:#000000;stroke-width:0.8;" x="43.78125" xlink:href="#md71e6394aa" y="228.96"/>
      </g>
     </g>
     <g id="text_9">
      <!-- 0.0 -->
      <g transform="translate(20.878125 232.759219)scale(0.1 -0.1)">
       <defs>
        <path d="M 10.6875 12.40625 
L 21 12.40625 
L 21 0 
L 10.6875 0 
z
" id="DejaVuSans-46"/>
       </defs>
       <use xlink:href="#DejaVuSans-48"/>
       <use x="63.623047" xlink:href="#DejaVuSans-46"/>
       <use x="95.410156" xlink:href="#DejaVuSans-48"/>
      </g>
     </g>
    </g>
    <g id="ytick_2">
     <g id="line2d_9">
      <g>
       <use style="stroke:#000000;stroke-width:0.8;" x="43.78125" xlink:href="#md71e6394aa" y="186.014125"/>
      </g>
     </g>
     <g id="text_10">
      <!-- 0.2 -->
      <g transform="translate(20.878125 189.813344)scale(0.1 -0.1)">
       <use xlink:href="#DejaVuSans-48"/>
       <use x="63.623047" xlink:href="#DejaVuSans-46"/>
       <use x="95.410156" xlink:href="#DejaVuSans-50"/>
      </g>
     </g>
    </g>
    <g id="ytick_3">
     <g id="line2d_10">
      <g>
       <use style="stroke:#000000;stroke-width:0.8;" x="43.78125" xlink:href="#md71e6394aa" y="143.06825"/>
      </g>
     </g>
     <g id="text_11">
      <!-- 0.4 -->
      <g transform="translate(20.878125 146.867469)scale(0.1 -0.1)">
       <use xlink:href="#DejaVuSans-48"/>
       <use x="63.623047" xlink:href="#DejaVuSans-46"/>
       <use x="95.410156" xlink:href="#DejaVuSans-52"/>
      </g>
     </g>
    </g>
    <g id="ytick_4">
     <g id="line2d_11">
      <g>
       <use style="stroke:#000000;stroke-width:0.8;" x="43.78125" xlink:href="#md71e6394aa" y="100.122376"/>
      </g>
     </g>
     <g id="text_12">
      <!-- 0.6 -->
      <g transform="translate(20.878125 103.921594)scale(0.1 -0.1)">
       <defs>
        <path d="M 33.015625 40.375 
Q 26.375 40.375 22.484375 35.828125 
Q 18.609375 31.296875 18.609375 23.390625 
Q 18.609375 15.53125 22.484375 10.953125 
Q 26.375 6.390625 33.015625 6.390625 
Q 39.65625 6.390625 43.53125 10.953125 
Q 47.40625 15.53125 47.40625 23.390625 
Q 47.40625 31.296875 43.53125 35.828125 
Q 39.65625 40.375 33.015625 40.375 
z
M 52.59375 71.296875 
L 52.59375 62.3125 
Q 48.875 64.0625 45.09375 64.984375 
Q 41.3125 65.921875 37.59375 65.921875 
Q 27.828125 65.921875 22.671875 59.328125 
Q 17.53125 52.734375 16.796875 39.40625 
Q 19.671875 43.65625 24.015625 45.921875 
Q 28.375 48.1875 33.59375 48.1875 
Q 44.578125 48.1875 50.953125 41.515625 
Q 57.328125 34.859375 57.328125 23.390625 
Q 57.328125 12.15625 50.6875 5.359375 
Q 44.046875 -1.421875 33.015625 -1.421875 
Q 20.359375 -1.421875 13.671875 8.265625 
Q 6.984375 17.96875 6.984375 36.375 
Q 6.984375 53.65625 15.1875 63.9375 
Q 23.390625 74.21875 37.203125 74.21875 
Q 40.921875 74.21875 44.703125 73.484375 
Q 48.484375 72.75 52.59375 71.296875 
z
" id="DejaVuSans-54"/>
       </defs>
       <use xlink:href="#DejaVuSans-48"/>
       <use x="63.623047" xlink:href="#DejaVuSans-46"/>
       <use x="95.410156" xlink:href="#DejaVuSans-54"/>
      </g>
     </g>
    </g>
    <g id="ytick_5">
     <g id="line2d_12">
      <g>
       <use style="stroke:#000000;stroke-width:0.8;" x="43.78125" xlink:href="#md71e6394aa" y="57.176501"/>
      </g>
     </g>
     <g id="text_13">
      <!-- 0.8 -->
      <g transform="translate(20.878125 60.975719)scale(0.1 -0.1)">
       <defs>
        <path d="M 31.78125 34.625 
Q 24.75 34.625 20.71875 30.859375 
Q 16.703125 27.09375 16.703125 20.515625 
Q 16.703125 13.921875 20.71875 10.15625 
Q 24.75 6.390625 31.78125 6.390625 
Q 38.8125 6.390625 42.859375 10.171875 
Q 46.921875 13.96875 46.921875 20.515625 
Q 46.921875 27.09375 42.890625 30.859375 
Q 38.875 34.625 31.78125 34.625 
z
M 21.921875 38.8125 
Q 15.578125 40.375 12.03125 44.71875 
Q 8.5 49.078125 8.5 55.328125 
Q 8.5 64.0625 14.71875 69.140625 
Q 20.953125 74.21875 31.78125 74.21875 
Q 42.671875 74.21875 48.875 69.140625 
Q 55.078125 64.0625 55.078125 55.328125 
Q 55.078125 49.078125 51.53125 44.71875 
Q 48 40.375 41.703125 38.8125 
Q 48.828125 37.15625 52.796875 32.3125 
Q 56.78125 27.484375 56.78125 20.515625 
Q 56.78125 9.90625 50.3125 4.234375 
Q 43.84375 -1.421875 31.78125 -1.421875 
Q 19.734375 -1.421875 13.25 4.234375 
Q 6.78125 9.90625 6.78125 20.515625 
Q 6.78125 27.484375 10.78125 32.3125 
Q 14.796875 37.15625 21.921875 38.8125 
z
M 18.3125 54.390625 
Q 18.3125 48.734375 21.84375 45.5625 
Q 25.390625 42.390625 31.78125 42.390625 
Q 38.140625 42.390625 41.71875 45.5625 
Q 45.3125 48.734375 45.3125 54.390625 
Q 45.3125 60.0625 41.71875 63.234375 
Q 38.140625 66.40625 31.78125 66.40625 
Q 25.390625 66.40625 21.84375 63.234375 
Q 18.3125 60.0625 18.3125 54.390625 
z
" id="DejaVuSans-56"/>
       </defs>
       <use xlink:href="#DejaVuSans-48"/>
       <use x="63.623047" xlink:href="#DejaVuSans-46"/>
       <use x="95.410156" xlink:href="#DejaVuSans-56"/>
      </g>
     </g>
    </g>
    <g id="ytick_6">
     <g id="line2d_13">
      <g>
       <use style="stroke:#000000;stroke-width:0.8;" x="43.78125" xlink:href="#md71e6394aa" y="14.230626"/>
      </g>
     </g>
     <g id="text_14">
      <!-- 1.0 -->
      <g transform="translate(20.878125 18.029845)scale(0.1 -0.1)">
       <use xlink:href="#DejaVuSans-49"/>
       <use x="63.623047" xlink:href="#DejaVuSans-46"/>
       <use x="95.410156" xlink:href="#DejaVuSans-48"/>
      </g>
     </g>
    </g>
    <g id="text_15">
     <!-- Frequency (7 day rolling average) -->
     <g transform="translate(14.798437 202.529219)rotate(-90)scale(0.1 -0.1)">
      <defs>
       <path d="M 9.8125 72.90625 
L 51.703125 72.90625 
L 51.703125 64.59375 
L 19.671875 64.59375 
L 19.671875 43.109375 
L 48.578125 43.109375 
L 48.578125 34.8125 
L 19.671875 34.8125 
L 19.671875 0 
L 9.8125 0 
z
" id="DejaVuSans-70"/>
       <path d="M 41.109375 46.296875 
Q 39.59375 47.171875 37.8125 47.578125 
Q 36.03125 48 33.890625 48 
Q 26.265625 48 22.1875 43.046875 
Q 18.109375 38.09375 18.109375 28.8125 
L 18.109375 0 
L 9.078125 0 
L 9.078125 54.6875 
L 18.109375 54.6875 
L 18.109375 46.1875 
Q 20.953125 51.171875 25.484375 53.578125 
Q 30.03125 56 36.53125 56 
Q 37.453125 56 38.578125 55.875 
Q 39.703125 55.765625 41.0625 55.515625 
z
" id="DejaVuSans-114"/>
       <path d="M 14.796875 27.296875 
Q 14.796875 17.390625 18.875 11.75 
Q 22.953125 6.109375 30.078125 6.109375 
Q 37.203125 6.109375 41.296875 11.75 
Q 45.40625 17.390625 45.40625 27.296875 
Q 45.40625 37.203125 41.296875 42.84375 
Q 37.203125 48.484375 30.078125 48.484375 
Q 22.953125 48.484375 18.875 42.84375 
Q 14.796875 37.203125 14.796875 27.296875 
z
M 45.40625 8.203125 
Q 42.578125 3.328125 38.25 0.953125 
Q 33.9375 -1.421875 27.875 -1.421875 
Q 17.96875 -1.421875 11.734375 6.484375 
Q 5.515625 14.40625 5.515625 27.296875 
Q 5.515625 40.1875 11.734375 48.09375 
Q 17.96875 56 27.875 56 
Q 33.9375 56 38.25 53.625 
Q 42.578125 51.265625 45.40625 46.390625 
L 45.40625 54.6875 
L 54.390625 54.6875 
L 54.390625 -20.796875 
L 45.40625 -20.796875 
z
" id="DejaVuSans-113"/>
       <path d="M 8.5 21.578125 
L 8.5 54.6875 
L 17.484375 54.6875 
L 17.484375 21.921875 
Q 17.484375 14.15625 20.5 10.265625 
Q 23.53125 6.390625 29.59375 6.390625 
Q 36.859375 6.390625 41.078125 11.03125 
Q 45.3125 15.671875 45.3125 23.6875 
L 45.3125 54.6875 
L 54.296875 54.6875 
L 54.296875 0 
L 45.3125 0 
L 45.3125 8.40625 
Q 42.046875 3.421875 37.71875 1 
Q 33.40625 -1.421875 27.6875 -1.421875 
Q 18.265625 -1.421875 13.375 4.4375 
Q 8.5 10.296875 8.5 21.578125 
z
M 31.109375 56 
z
" id="DejaVuSans-117"/>
       <path d="M 54.890625 33.015625 
L 54.890625 0 
L 45.90625 0 
L 45.90625 32.71875 
Q 45.90625 40.484375 42.875 44.328125 
Q 39.84375 48.1875 33.796875 48.1875 
Q 26.515625 48.1875 22.3125 43.546875 
Q 18.109375 38.921875 18.109375 30.90625 
L 18.109375 0 
L 9.078125 0 
L 9.078125 54.6875 
L 18.109375 54.6875 
L 18.109375 46.1875 
Q 21.34375 51.125 25.703125 53.5625 
Q 30.078125 56 35.796875 56 
Q 45.21875 56 50.046875 50.171875 
Q 54.890625 44.34375 54.890625 33.015625 
z
" id="DejaVuSans-110"/>
       <path d="M 48.78125 52.59375 
L 48.78125 44.1875 
Q 44.96875 46.296875 41.140625 47.34375 
Q 37.3125 48.390625 33.40625 48.390625 
Q 24.65625 48.390625 19.8125 42.84375 
Q 14.984375 37.3125 14.984375 27.296875 
Q 14.984375 17.28125 19.8125 11.734375 
Q 24.65625 6.203125 33.40625 6.203125 
Q 37.3125 6.203125 41.140625 7.25 
Q 44.96875 8.296875 48.78125 10.40625 
L 48.78125 2.09375 
Q 45.015625 0.34375 40.984375 -0.53125 
Q 36.96875 -1.421875 32.421875 -1.421875 
Q 20.0625 -1.421875 12.78125 6.34375 
Q 5.515625 14.109375 5.515625 27.296875 
Q 5.515625 40.671875 12.859375 48.328125 
Q 20.21875 56 33.015625 56 
Q 37.15625 56 41.109375 55.140625 
Q 45.0625 54.296875 48.78125 52.59375 
z
" id="DejaVuSans-99"/>
       <path d="M 32.171875 -5.078125 
Q 28.375 -14.84375 24.75 -17.8125 
Q 21.140625 -20.796875 15.09375 -20.796875 
L 7.90625 -20.796875 
L 7.90625 -13.28125 
L 13.1875 -13.28125 
Q 16.890625 -13.28125 18.9375 -11.515625 
Q 21 -9.765625 23.484375 -3.21875 
L 25.09375 0.875 
L 2.984375 54.6875 
L 12.5 54.6875 
L 29.59375 11.921875 
L 46.6875 54.6875 
L 56.203125 54.6875 
z
" id="DejaVuSans-121"/>
       <path id="DejaVuSans-32"/>
       <path d="M 31 75.875 
Q 24.46875 64.65625 21.28125 53.65625 
Q 18.109375 42.671875 18.109375 31.390625 
Q 18.109375 20.125 21.3125 9.0625 
Q 24.515625 -2 31 -13.1875 
L 23.1875 -13.1875 
Q 15.875 -1.703125 12.234375 9.375 
Q 8.59375 20.453125 8.59375 31.390625 
Q 8.59375 42.28125 12.203125 53.3125 
Q 15.828125 64.359375 23.1875 75.875 
z
" id="DejaVuSans-40"/>
       <path d="M 8.203125 72.90625 
L 55.078125 72.90625 
L 55.078125 68.703125 
L 28.609375 0 
L 18.3125 0 
L 43.21875 64.59375 
L 8.203125 64.59375 
z
" id="DejaVuSans-55"/>
       <path d="M 45.40625 46.390625 
L 45.40625 75.984375 
L 54.390625 75.984375 
L 54.390625 0 
L 45.40625 0 
L 45.40625 8.203125 
Q 42.578125 3.328125 38.25 0.953125 
Q 33.9375 -1.421875 27.875 -1.421875 
Q 17.96875 -1.421875 11.734375 6.484375 
Q 5.515625 14.40625 5.515625 27.296875 
Q 5.515625 40.1875 11.734375 48.09375 
Q 17.96875 56 27.875 56 
Q 33.9375 56 38.25 53.625 
Q 42.578125 51.265625 45.40625 46.390625 
z
M 14.796875 27.296875 
Q 14.796875 17.390625 18.875 11.75 
Q 22.953125 6.109375 30.078125 6.109375 
Q 37.203125 6.109375 41.296875 11.75 
Q 45.40625 17.390625 45.40625 27.296875 
Q 45.40625 37.203125 41.296875 42.84375 
Q 37.203125 48.484375 30.078125 48.484375 
Q 22.953125 48.484375 18.875 42.84375 
Q 14.796875 37.203125 14.796875 27.296875 
z
" id="DejaVuSans-100"/>
       <path d="M 30.609375 48.390625 
Q 23.390625 48.390625 19.1875 42.75 
Q 14.984375 37.109375 14.984375 27.296875 
Q 14.984375 17.484375 19.15625 11.84375 
Q 23.34375 6.203125 30.609375 6.203125 
Q 37.796875 6.203125 41.984375 11.859375 
Q 46.1875 17.53125 46.1875 27.296875 
Q 46.1875 37.015625 41.984375 42.703125 
Q 37.796875 48.390625 30.609375 48.390625 
z
M 30.609375 56 
Q 42.328125 56 49.015625 48.375 
Q 55.71875 40.765625 55.71875 27.296875 
Q 55.71875 13.875 49.015625 6.21875 
Q 42.328125 -1.421875 30.609375 -1.421875 
Q 18.84375 -1.421875 12.171875 6.21875 
Q 5.515625 13.875 5.515625 27.296875 
Q 5.515625 40.765625 12.171875 48.375 
Q 18.84375 56 30.609375 56 
z
" id="DejaVuSans-111"/>
       <path d="M 9.421875 75.984375 
L 18.40625 75.984375 
L 18.40625 0 
L 9.421875 0 
z
" id="DejaVuSans-108"/>
       <path d="M 9.421875 54.6875 
L 18.40625 54.6875 
L 18.40625 0 
L 9.421875 0 
z
M 9.421875 75.984375 
L 18.40625 75.984375 
L 18.40625 64.59375 
L 9.421875 64.59375 
z
" id="DejaVuSans-105"/>
       <path d="M 45.40625 27.984375 
Q 45.40625 37.75 41.375 43.109375 
Q 37.359375 48.484375 30.078125 48.484375 
Q 22.859375 48.484375 18.828125 43.109375 
Q 14.796875 37.75 14.796875 27.984375 
Q 14.796875 18.265625 18.828125 12.890625 
Q 22.859375 7.515625 30.078125 7.515625 
Q 37.359375 7.515625 41.375 12.890625 
Q 45.40625 18.265625 45.40625 27.984375 
z
M 54.390625 6.78125 
Q 54.390625 -7.171875 48.1875 -13.984375 
Q 42 -20.796875 29.203125 -20.796875 
Q 24.46875 -20.796875 20.265625 -20.09375 
Q 16.0625 -19.390625 12.109375 -17.921875 
L 12.109375 -9.1875 
Q 16.0625 -11.328125 19.921875 -12.34375 
Q 23.78125 -13.375 27.78125 -13.375 
Q 36.625 -13.375 41.015625 -8.765625 
Q 45.40625 -4.15625 45.40625 5.171875 
L 45.40625 9.625 
Q 42.625 4.78125 38.28125 2.390625 
Q 33.9375 0 27.875 0 
Q 17.828125 0 11.671875 7.65625 
Q 5.515625 15.328125 5.515625 27.984375 
Q 5.515625 40.671875 11.671875 48.328125 
Q 17.828125 56 27.875 56 
Q 33.9375 56 38.28125 53.609375 
Q 42.625 51.21875 45.40625 46.390625 
L 45.40625 54.6875 
L 54.390625 54.6875 
z
" id="DejaVuSans-103"/>
       <path d="M 2.984375 54.6875 
L 12.5 54.6875 
L 29.59375 8.796875 
L 46.6875 54.6875 
L 56.203125 54.6875 
L 35.6875 0 
L 23.484375 0 
z
" id="DejaVuSans-118"/>
       <path d="M 8.015625 75.875 
L 15.828125 75.875 
Q 23.140625 64.359375 26.78125 53.3125 
Q 30.421875 42.28125 30.421875 31.390625 
Q 30.421875 20.453125 26.78125 9.375 
Q 23.140625 -1.703125 15.828125 -13.1875 
L 8.015625 -13.1875 
Q 14.5 -2 17.703125 9.0625 
Q 20.90625 20.125 20.90625 31.390625 
Q 20.90625 42.671875 17.703125 53.65625 
Q 14.5 64.65625 8.015625 75.875 
z
" id="DejaVuSans-41"/>
      </defs>
      <use xlink:href="#DejaVuSans-70"/>
      <use x="50.269531" xlink:href="#DejaVuSans-114"/>
      <use x="89.132812" xlink:href="#DejaVuSans-101"/>
      <use x="150.65625" xlink:href="#DejaVuSans-113"/>
      <use x="214.132812" xlink:href="#DejaVuSans-117"/>
      <use x="277.511719" xlink:href="#DejaVuSans-101"/>
      <use x="339.035156" xlink:href="#DejaVuSans-110"/>
      <use x="402.414062" xlink:href="#DejaVuSans-99"/>
      <use x="457.394531" xlink:href="#DejaVuSans-121"/>
      <use x="516.574219" xlink:href="#DejaVuSans-32"/>
      <use x="548.361328" xlink:href="#DejaVuSans-40"/>
      <use x="587.375" xlink:href="#DejaVuSans-55"/>
      <use x="650.998047" xlink:href="#DejaVuSans-32"/>
      <use x="682.785156" xlink:href="#DejaVuSans-100"/>
      <use x="746.261719" xlink:href="#DejaVuSans-97"/>
      <use x="807.541016" xlink:href="#DejaVuSans-121"/>
      <use x="866.720703" xlink:href="#DejaVuSans-32"/>
      <use x="898.507812" xlink:href="#DejaVuSans-114"/>
      <use x="937.371094" xlink:href="#DejaVuSans-111"/>
      <use x="998.552734" xlink:href="#DejaVuSans-108"/>
      <use x="1026.335938" xlink:href="#DejaVuSans-108"/>
      <use x="1054.119141" xlink:href="#DejaVuSans-105"/>
      <use x="1081.902344" xlink:href="#DejaVuSans-110"/>
      <use x="1145.28125" xlink:href="#DejaVuSans-103"/>
      <use x="1208.757812" xlink:href="#DejaVuSans-32"/>
      <use x="1240.544922" xlink:href="#DejaVuSans-97"/>
      <use x="1301.824219" xlink:href="#DejaVuSans-118"/>
      <use x="1361.003906" xlink:href="#DejaVuSans-101"/>
      <use x="1422.527344" xlink:href="#DejaVuSans-114"/>
      <use x="1463.640625" xlink:href="#DejaVuSans-97"/>
      <use x="1524.919922" xlink:href="#DejaVuSans-103"/>
      <use x="1588.396484" xlink:href="#DejaVuSans-101"/>
      <use x="1649.919922" xlink:href="#DejaVuSans-41"/>
     </g>
    </g>
   </g>
   <g id="line2d_14">
    <path clip-path="url(#p59160d16ee)" d="M 86.899432 228.74569 
L 96.073513 228.881488 
L 114.421676 228.788559 
L 132.769838 228.75886 
L 137.356879 228.9303 
L 146.53096 228.96 
L 169.466163 228.712888 
L 178.640244 228.76684 
L 183.227285 228.69083 
L 187.814325 228.88399 
L 206.162488 228.96 
L 210.749529 228.693137 
L 219.92361 228.350629 
L 224.51065 228.124122 
L 229.097691 228.011106 
L 242.858813 228.560032 
L 247.445853 228.062055 
L 256.619935 227.602099 
L 265.794016 225.752476 
L 270.381057 226.161514 
L 274.968097 226.330855 
L 279.555138 224.351481 
L 284.142178 224.131912 
L 288.729219 225.023907 
L 293.31626 223.035487 
L 297.9033 221.726487 
L 302.490341 223.141365 
L 307.077382 223.110709 
L 311.664422 219.527879 
L 316.251463 217.541872 
L 320.838503 216.314373 
L 325.425544 213.230913 
L 330.012585 213.063652 
L 334.599625 212.016793 
L 339.186666 214.07951 
L 343.773706 210.863633 
L 348.360747 213.265946 
L 352.947788 208.441128 
L 357.534828 204.61466 
L 362.121869 205.105706 
L 366.70891 207.978938 
L 371.29595 208.536242 
L 375.882991 207.898067 
L 380.470031 210.79989 
L 385.057072 203.506948 
L 389.644113 199.079423 
L 394.231153 195.999851 
L 398.818194 199.116653 
L 403.405235 199.213776 
L 407.992275 204.137228 
L 412.579316 199.028586 
L 417.166356 194.941947 
L 421.753397 194.836957 
L 426.340438 188.817253 
L 430.927478 181.23758 
L 435.514519 184.121263 
L 440.101559 173.954313 
L 444.6886 166.690042 
L 449.275641 165.274904 
L 453.862681 158.577677 
L 458.449722 152.283518 
L 463.036763 151.602206 
L 472.210844 134.023249 
L 476.797884 128.956363 
L 481.384925 126.126771 
L 485.971966 127.762179 
L 490.559006 128.77454 
L 495.146047 132.051519 
L 499.733088 133.600019 
L 504.320128 130.235367 
L 513.494209 112.957155 
L 518.08125 107.802866 
L 522.668291 104.493363 
L 527.255331 97.588933 
L 531.842372 94.147331 
L 536.429412 91.631172 
L 545.603494 73.876431 
L 550.190534 71.760858 
L 554.777575 70.484461 
L 559.364616 69.98054 
L 563.951656 72.264922 
L 568.538697 72.917198 
L 573.125737 69.888492 
L 577.712778 66.551756 
L 582.299819 64.100192 
L 586.886859 60.229227 
L 591.4739 60.088106 
L 596.060941 61.40538 
L 600.647981 60.741574 
L 605.235022 58.885746 
L 609.822062 57.262421 
L 614.409103 55.383636 
L 618.996144 52.229477 
L 623.583184 50.035209 
L 628.170225 48.963752 
L 632.757265 47.555733 
L 637.344306 45.137027 
L 641.931347 43.535996 
L 646.518387 41.790884 
L 651.105428 39.463232 
L 655.692469 37.414526 
L 660.279509 35.810056 
L 664.86655 33.463782 
L 669.45359 31.71037 
L 674.040631 30.414458 
L 678.627672 29.967674 
L 683.214712 30.220378 
L 687.801753 31.444507 
L 692.388794 32.844148 
L 696.975834 31.845745 
L 701.562875 30.659685 
L 706.149915 29.69231 
L 710.736956 28.31604 
L 715.323997 26.642166 
L 719.911037 26.392273 
L 724.498078 26.712963 
L 729.085118 25.73327 
L 733.672159 24.578268 
L 738.2592 24.191735 
L 742.84624 23.991899 
L 747.433281 22.957297 
L 752.020322 22.883497 
L 756.607362 23.032063 
L 761.194403 22.497133 
L 765.781443 22.093343 
L 770.368484 22.09925 
L 779.542565 21.278393 
L 784.129606 21.189105 
L 788.716647 20.714271 
L 793.303687 19.98036 
L 807.064809 19.648498 
L 811.65185 19.719145 
L 816.23889 20.045513 
L 825.412971 20.39889 
L 830.000012 20.251635 
L 834.587053 20.455392 
L 839.174093 20.870958 
L 843.761134 20.680076 
L 848.348175 20.075114 
L 857.522256 19.584028 
L 866.696337 18.812765 
L 871.283378 18.664891 
L 875.870418 18.632777 
L 880.457459 18.129121 
L 885.0445 17.844884 
L 889.63154 17.881655 
L 894.218581 18.199367 
L 898.805621 18.108892 
L 903.392662 17.860797 
L 907.979703 17.76 
L 912.566743 18.279566 
L 917.153784 20.531836 
L 921.740824 19.873332 
L 926.327865 19.571693 
L 926.327865 19.571693 
" style="fill:none;stroke:#947383;stroke-linecap:square;stroke-width:2;"/>
   </g>
   <g id="line2d_15">
    <path clip-path="url(#p59160d16ee)" d="M 389.644113 207.487063 
L 394.231153 228.96 
L 398.818194 228.96 
L 403.405235 228.96 
L 407.992275 228.96 
L 412.579316 228.96 
L 417.166356 228.96 
L 421.753397 228.96 
L 426.340438 228.96 
L 430.927478 228.96 
L 435.514519 228.96 
L 440.101559 214.644708 
L 444.6886 214.644708 
L 449.275641 214.644708 
L 453.862681 214.644708 
L 458.449722 200.329417 
L 463.036763 214.644708 
L 467.623803 214.644708 
L 472.210844 207.487063 
L 476.797884 207.487063 
L 481.384925 221.802354 
L 485.971966 221.802354 
L 490.559006 207.487063 
L 495.146047 214.644708 
L 499.733088 207.487063 
L 504.320128 207.487063 
L 508.907169 207.487063 
L 513.494209 221.802354 
L 518.08125 213.213179 
L 522.668291 198.897888 
L 527.255331 192.11696 
L 531.842372 177.801668 
L 536.429412 177.801668 
L 541.016453 175.654375 
L 545.603494 183.706726 
L 550.190534 183.706726 
L 554.777575 192.969562 
L 559.364616 185.500714 
L 563.951656 179.987392 
L 568.538697 170.503512 
L 573.125737 153.76646 
L 577.712778 146.971778 
L 582.299819 137.262276 
L 586.886859 145.280774 
L 591.4739 163.61653 
L 596.060941 178.27969 
L 600.647981 186.64473 
L 605.235022 190.515907 
L 609.822062 192.140142 
L 614.409103 196.708852 
L 618.996144 204.64993 
L 623.583184 206.11894 
L 628.170225 218.124722 
L 632.757265 224.73178 
L 637.344306 224.302321 
L 641.931347 223.784534 
L 646.518387 224.604681 
L 651.105428 225.152635 
L 655.692469 224.530231 
L 660.279509 222.408449 
L 664.86655 220.578267 
L 669.45359 220.489241 
L 674.040631 219.857327 
L 678.627672 220.479731 
L 683.214712 223.030971 
L 687.801753 226.292683 
L 692.388794 220.967592 
L 696.975834 211.616474 
L 701.562875 210.025886 
L 706.149915 210.025886 
L 710.736956 210.025886 
L 715.323997 212.728773 
L 719.911037 214.876067 
L 724.498078 198.06128 
L 729.085118 183.745988 
L 733.672159 173.009519 
L 738.2592 176.91369 
L 742.84624 185.502865 
L 747.433281 203.90824 
L 752.020322 218.223531 
L 756.607362 226.812706 
L 761.194403 226.812706 
L 765.781443 216.076238 
L 770.368484 209.941113 
L 774.955525 209.941113 
L 779.542565 212.088406 
L 784.129606 212.088406 
L 788.716647 222.824875 
L 793.303687 227.398332 
L 797.890728 227.398332 
L 802.477768 227.398332 
L 807.064809 227.398332 
L 811.65185 227.398332 
L 816.23889 228.96 
L 820.825931 227.528471 
L 825.412971 206.055533 
L 830.000012 206.055533 
L 834.587053 163.109659 
L 839.174093 163.109659 
L 843.761134 164.541188 
L 848.348175 186.014125 
L 852.935215 186.014125 
L 857.522256 207.487063 
L 862.109296 203.582892 
L 866.696337 182.109955 
L 871.283378 182.109955 
L 875.870418 139.16408 
L 880.457459 143.458667 
L 885.0445 134.479075 
L 889.63154 148.794367 
L 894.218581 105.848492 
" style="fill:none;stroke:#96c6ad;stroke-linecap:square;stroke-width:2;"/>
   </g>
   <g id="line2d_16">
    <path clip-path="url(#p59160d16ee)" d="M 155.705041 222.824875 
L 160.292082 228.96 
L 233.684732 228.96 
L 238.271772 227.617941 
L 256.619935 227.617941 
L 261.206975 228.96 
L 325.425544 228.96 
L 330.012585 225.656471 
L 343.773706 225.656471 
L 348.360747 220.884707 
L 352.947788 224.188236 
L 362.121869 224.188236 
L 366.70891 221.504119 
L 371.29595 226.275883 
L 385.057072 226.275883 
L 389.644113 228.96 
L 394.231153 228.96 
L 398.818194 228.711758 
L 421.753397 228.627086 
L 426.340438 228.392409 
L 430.927478 227.977473 
L 435.514519 227.977473 
L 440.101559 227.590574 
L 449.275641 228.158164 
L 453.862681 228.242747 
L 458.449722 228.037265 
L 463.036763 228.424164 
L 467.623803 228.150624 
L 472.210844 227.623681 
L 476.797884 227.678739 
L 481.384925 226.754067 
L 485.971966 224.405465 
L 490.559006 222.7703 
L 495.146047 220.781585 
L 499.733088 220.143137 
L 504.320128 214.16641 
L 508.907169 213.665523 
L 513.494209 210.802464 
L 518.08125 209.977888 
L 522.668291 207.44414 
L 527.255331 212.043234 
L 531.842372 213.69144 
L 536.429412 214.970618 
L 541.016453 217.075 
L 545.603494 219.340493 
L 550.190534 215.4064 
L 554.777575 208.572649 
L 559.364616 205.510853 
L 563.951656 203.734665 
L 568.538697 203.408024 
L 573.125737 208.38167 
L 577.712778 215.854095 
L 582.299819 221.963442 
L 586.886859 220.142346 
L 591.4739 217.650322 
L 596.060941 217.434405 
L 600.647981 212.584658 
L 605.235022 211.195705 
L 609.822062 214.136954 
L 614.409103 213.694938 
L 618.996144 212.27872 
L 623.583184 211.735915 
L 628.170225 206.091201 
L 632.757265 194.74492 
L 637.344306 193.783811 
L 641.931347 193.729965 
L 646.518387 195.034936 
L 651.105428 198.229014 
L 655.692469 194.760767 
L 660.279509 188.718841 
L 664.86655 182.288036 
L 669.45359 178.193592 
L 674.040631 177.744024 
L 678.627672 181.96108 
L 683.214712 182.586662 
L 687.801753 173.553021 
L 692.388794 172.903246 
L 696.975834 166.900969 
L 701.562875 175.781433 
L 706.149915 181.646269 
L 710.736956 175.581754 
L 715.323997 174.74709 
L 719.911037 173.752002 
L 724.498078 164.390669 
L 729.085118 159.821332 
L 733.672159 179.935799 
L 738.2592 185.436887 
L 742.84624 180.544234 
L 747.433281 185.588831 
L 752.020322 189.234938 
L 756.607362 189.93465 
L 761.194403 188.031288 
L 765.781443 200.530753 
L 770.368484 201.545556 
L 774.955525 191.134264 
L 779.542565 190.207276 
L 784.129606 194.365301 
L 788.716647 193.822016 
L 793.303687 198.084203 
L 797.890728 212.779956 
L 802.477768 212.744531 
L 807.064809 203.561117 
L 811.65185 198.853639 
L 816.23889 190.329372 
L 820.825931 187.781445 
L 825.412971 179.949329 
L 830.000012 172.770156 
L 834.587053 171.409196 
L 839.174093 172.765906 
L 843.761134 170.809072 
L 848.348175 166.294249 
L 852.935215 152.920753 
L 857.522256 155.848881 
L 862.109296 146.87626 
L 866.696337 142.238614 
L 871.283378 130.786381 
L 875.870418 162.995787 
L 880.457459 170.804128 
L 885.0445 182.435302 
L 889.63154 178.856479 
L 894.218581 186.014125 
L 898.805621 178.856479 
L 903.392662 166.586229 
L 907.979703 173.743875 
L 912.566743 188.059167 
L 917.153784 209.532104 
L 921.740824 216.68975 
L 926.327865 228.96 
L 930.914906 186.014125 
L 930.914906 186.014125 
" style="fill:none;stroke:#525886;stroke-linecap:square;stroke-width:2;"/>
   </g>
   <g id="line2d_17">
    <path clip-path="url(#p59160d16ee)" d="M 123.595757 207.487063 
L 128.182797 228.96 
L 288.729219 228.96 
L 293.31626 198.284375 
L 297.9033 197.809179 
L 307.077382 197.809179 
L 311.664422 197.312695 
L 316.251463 227.988319 
L 320.838503 228.463516 
L 330.012585 228.463516 
L 334.599625 228.96 
L 339.186666 228.96 
L 343.773706 228.624485 
L 362.121869 228.558313 
L 366.70891 228.893828 
L 380.470031 228.893828 
L 403.405235 227.67411 
L 412.579316 228.31279 
L 417.166356 228.117197 
L 421.753397 228.308068 
L 430.927478 228.378275 
L 440.101559 227.65461 
L 444.6886 227.526029 
L 449.275641 227.097307 
L 453.862681 224.784837 
L 458.449722 224.740639 
L 463.036763 224.91999 
L 467.623803 223.862221 
L 472.210844 223.368 
L 476.797884 224.232042 
L 481.384925 222.198953 
L 485.971966 219.467323 
L 490.559006 219.16725 
L 499.733088 213.239699 
L 504.320128 211.435918 
L 508.907169 212.101585 
L 513.494209 209.71816 
L 518.08125 210.635157 
L 522.668291 213.011382 
L 527.255331 210.324258 
L 531.842372 206.148679 
L 536.429412 202.799965 
L 541.016453 202.284323 
L 545.603494 198.818014 
L 550.190534 198.858737 
L 554.777575 203.00767 
L 559.364616 201.914127 
L 563.951656 197.448128 
L 568.538697 191.73702 
L 573.125737 189.288288 
L 577.712778 183.884393 
L 582.299819 180.977692 
L 586.886859 184.437423 
L 591.4739 187.104429 
L 600.647981 187.701784 
L 605.235022 189.466533 
L 609.822062 183.741211 
L 614.409103 181.818413 
L 618.996144 184.290271 
L 623.583184 181.204219 
L 628.170225 180.176945 
L 632.757265 180.082584 
L 637.344306 179.298439 
L 641.931347 173.155369 
L 646.518387 170.908017 
L 651.105428 172.278855 
L 655.692469 171.915416 
L 660.279509 172.314699 
L 664.86655 173.205501 
L 669.45359 173.451107 
L 678.627672 163.832114 
L 683.214712 161.241881 
L 687.801753 156.92934 
L 692.388794 150.857292 
L 696.975834 147.20616 
L 701.562875 146.290224 
L 706.149915 142.484287 
L 710.736956 137.134109 
L 715.323997 136.018302 
L 719.911037 133.931727 
L 724.498078 132.581579 
L 729.085118 130.02382 
L 733.672159 131.115921 
L 738.2592 131.231777 
L 742.84624 129.962637 
L 747.433281 123.431174 
L 752.020322 123.009469 
L 756.607362 121.460131 
L 761.194403 118.632523 
L 765.781443 118.504359 
L 770.368484 120.213468 
L 774.955525 115.030292 
L 779.542565 113.025951 
L 784.129606 111.360358 
L 788.716647 106.609463 
L 793.303687 106.379637 
L 797.890728 105.829749 
L 802.477768 104.199011 
L 807.064809 97.856927 
L 811.65185 95.808723 
L 816.23889 90.767017 
L 820.825931 86.136607 
L 825.412971 81.267624 
L 830.000012 81.846749 
L 834.587053 76.939129 
L 839.174093 72.335528 
L 848.348175 68.701862 
L 852.935215 64.40377 
L 857.522256 63.153837 
L 862.109296 62.643348 
L 871.283378 56.704028 
L 875.870418 56.136936 
L 880.457459 54.492763 
L 885.0445 50.873168 
L 889.63154 50.53622 
L 894.218581 49.791722 
L 898.805621 48.51773 
L 903.392662 49.18269 
L 907.979703 52.585276 
L 912.566743 53.389296 
L 917.153784 52.904618 
L 921.740824 56.31869 
L 926.327865 55.451847 
L 930.914906 48.512195 
L 935.501946 45.848158 
L 940.088987 53.474611 
L 940.088987 53.474611 
" style="fill:none;stroke:#937252;stroke-linecap:square;stroke-width:2;"/>
   </g>
   <g id="line2d_18">
    <path clip-path="url(#p59160d16ee)" d="M 508.907169 224.46395 
L 513.494209 226.159182 
L 518.08125 226.096942 
L 522.668291 226.096942 
L 527.255331 224.711591 
L 531.842372 218.104533 
L 536.429412 211.662652 
L 541.016453 214.52571 
L 545.603494 214.52571 
L 550.190534 212.843499 
L 554.777575 217.859968 
L 559.364616 222.256808 
L 563.951656 217.96222 
L 568.538697 214.894658 
L 573.125737 212.808715 
L 577.712778 209.62754 
L 582.299819 211.672581 
L 586.886859 213.440941 
L 591.4739 209.637163 
L 596.060941 212.530359 
L 600.647981 213.512781 
L 605.235022 210.209252 
L 609.822062 212.73548 
L 614.409103 219.60682 
L 618.996144 221.270659 
L 623.583184 222.838662 
L 628.170225 223.688141 
L 632.757265 218.635685 
L 637.344306 213.727585 
L 641.931347 212.892527 
L 646.518387 212.250807 
L 651.105428 213.728814 
L 655.692469 218.053374 
L 660.279509 221.660084 
L 664.86655 221.356426 
L 669.45359 224.219484 
L 674.040631 225.195527 
L 678.627672 225.923423 
L 683.214712 224.668511 
L 687.801753 226.403698 
L 692.388794 224.922806 
L 696.975834 222.396578 
L 701.562875 222.396578 
L 706.149915 224.95288 
L 710.736956 224.95288 
L 715.323997 224.23142 
L 719.911037 225.803295 
L 724.498078 225.062849 
L 729.085118 225.062849 
L 733.672159 222.151264 
L 738.2592 224.353616 
L 742.84624 225.307969 
L 747.433281 226.048415 
L 752.020322 219.441358 
L 756.607362 217.199437 
L 761.194403 204.474734 
L 765.781443 195.885559 
L 770.368484 193.359331 
L 774.955525 185.651097 
L 779.542565 181.044176 
L 784.129606 186.611234 
L 788.716647 192.429707 
L 793.303687 179.339253 
L 797.890728 184.890081 
L 802.477768 182.537568 
L 807.064809 181.106038 
L 811.65185 174.963445 
L 816.23889 184.978491 
L 820.825931 184.795898 
L 825.412971 186.172368 
L 830.000012 177.265076 
L 834.587053 174.248961 
L 839.174093 165.535305 
L 843.761134 169.503131 
L 848.348175 178.194558 
L 852.935215 184.128674 
L 857.522256 192.479261 
L 862.109296 206.794553 
L 866.696337 211.773785 
L 871.283378 208.76637 
L 875.870418 218.376636 
L 880.457459 221.955459 
L 885.0445 221.955459 
L 889.63154 217.183695 
L 894.218581 222.236151 
L 898.805621 220.609413 
L 903.392662 220.609413 
L 907.979703 177.663538 
" style="fill:none;stroke:#d18cad;stroke-linecap:square;stroke-width:2;"/>
   </g>
   <g id="line2d_19">
    <path clip-path="url(#p59160d16ee)" d="M 293.31626 228.9055 
L 307.077382 228.96 
L 458.449722 228.888424 
L 476.797884 228.578963 
L 481.384925 228.457647 
L 490.559006 227.80625 
L 499.733088 227.873679 
L 504.320128 227.812764 
L 508.907169 228.301897 
L 522.668291 227.82302 
L 527.255331 227.234921 
L 531.842372 226.531498 
L 536.429412 226.071966 
L 541.016453 225.732366 
L 550.190534 225.384924 
L 554.777575 225.724119 
L 559.364616 225.941183 
L 563.951656 225.912508 
L 568.538697 225.524359 
L 573.125737 225.838057 
L 582.299819 225.679814 
L 586.886859 225.326243 
L 591.4739 225.383244 
L 596.060941 225.303832 
L 600.647981 224.436688 
L 605.235022 224.560286 
L 609.822062 223.898177 
L 614.409103 223.532938 
L 618.996144 223.029486 
L 623.583184 223.495066 
L 628.170225 222.536723 
L 632.757265 223.008208 
L 637.344306 222.784215 
L 641.931347 221.356635 
L 646.518387 221.200218 
L 651.105428 221.393311 
L 655.692469 220.475139 
L 660.279509 219.368777 
L 664.86655 219.922665 
L 669.45359 218.897582 
L 674.040631 218.721965 
L 678.627672 219.015577 
L 683.214712 219.013882 
L 687.801753 219.282354 
L 692.388794 219.087813 
L 696.975834 217.370929 
L 701.562875 216.072051 
L 706.149915 215.476052 
L 710.736956 212.95994 
L 715.323997 211.832068 
L 719.911037 210.862274 
L 724.498078 210.265593 
L 729.085118 210.503723 
L 733.672159 209.310358 
L 738.2592 207.525693 
L 742.84624 206.444938 
L 747.433281 205.079436 
L 752.020322 202.695305 
L 756.607362 203.41621 
L 761.194403 203.094625 
L 765.781443 202.018717 
L 770.368484 201.711156 
L 774.955525 199.098189 
L 784.129606 196.946058 
L 788.716647 195.540375 
L 793.303687 193.256474 
L 797.890728 192.745976 
L 807.064809 186.560682 
L 811.65185 185.841177 
L 816.23889 184.933598 
L 820.825931 184.606814 
L 830.000012 185.761139 
L 834.587053 187.222962 
L 839.174093 189.157033 
L 843.761134 193.054069 
L 848.348175 196.557765 
L 852.935215 199.772363 
L 857.522256 200.852952 
L 862.109296 200.69222 
L 866.696337 198.796981 
L 871.283378 196.150682 
L 875.870418 190.49342 
L 880.457459 183.122765 
L 885.0445 177.347349 
L 889.63154 170.706254 
L 894.218581 161.43802 
L 898.805621 159.347726 
L 903.392662 158.794768 
L 907.979703 154.854757 
L 912.566743 152.262516 
L 917.153784 156.051858 
L 921.740824 135.401288 
L 926.327865 142.128399 
L 930.914906 115.625764 
L 935.501946 105.820423 
L 940.088987 106.462005 
L 940.088987 106.462005 
" style="fill:none;stroke:#a4a86f;stroke-linecap:square;stroke-width:2;"/>
   </g>
   <g id="line2d_20">
    <path clip-path="url(#p59160d16ee)" d="M 412.579316 221.802354 
L 417.166356 228.96 
L 421.753397 228.96 
L 426.340438 228.96 
L 430.927478 228.96 
L 435.514519 211.78165 
L 440.101559 211.78165 
L 444.6886 190.308713 
L 449.275641 190.308713 
L 453.862681 190.308713 
L 458.449722 207.487063 
L 463.036763 207.487063 
L 467.623803 226.812706 
L 472.210844 226.812706 
L 476.797884 226.812706 
L 481.384925 218.760355 
L 485.971966 213.39212 
L 490.559006 210.76765 
L 495.146047 205.995886 
L 499.733088 184.522949 
L 504.320128 188.996478 
L 508.907169 190.785889 
L 513.494209 187.749312 
L 518.08125 187.749312 
L 522.668291 207.074956 
L 527.255331 210.653779 
L 531.842372 210.929073 
L 536.429412 214.442826 
L 541.016453 204.405668 
L 545.603494 195.816493 
L 550.190534 195.816493 
L 554.777575 190.530846 
L 559.364616 173.352497 
L 563.951656 175.530279 
L 568.538697 177.677573 
L 573.125737 153.818754 
L 577.712778 149.193813 
L 582.299819 164.531626 
L 586.886859 162.847474 
L 591.4739 167.142061 
L 596.060941 174.896178 
L 600.647981 169.023237 
L 605.235022 165.053451 
L 609.822062 143.580513 
L 614.409103 140.717455 
L 618.996144 138.928043 
L 623.583184 147.27863 
L 628.170225 128.752959 
L 632.757265 140.000688 
L 637.344306 127.337161 
L 641.931347 109.443046 
L 646.518387 109.443046 
L 651.105428 123.758338 
L 655.692469 133.983546 
L 660.279509 132.331782 
L 664.86655 155.236248 
L 669.45359 123.026842 
L 674.040631 94.396259 
L 678.627672 94.396259 
L 683.214712 94.396259 
L 687.801753 100.122376 
L 692.388794 105.49061 
L 696.975834 148.436485 
L 701.562875 145.573426 
L 706.149915 167.046364 
L 710.736956 174.20401 
L 715.323997 190.308713 
L 719.911037 147.362838 
L 724.498078 164.541188 
L 729.085118 127.730438 
L 733.672159 100.889266 
L 738.2592 79.416329 
L 742.84624 79.416329 
L 747.433281 36.470454 
L 752.020322 47.513679 
L 756.607362 60.039559 
L 761.194403 81.512496 
L 765.781443 98.690846 
L 770.368484 127.32143 
L 774.955525 122.41333 
L 779.542565 128.139446 
L 784.129606 120.9818 
L 788.716647 130.644622 
L 793.303687 123.486976 
L 797.890728 111.216727 
L 802.477768 87.596495 
L 807.064809 107.637904 
L 811.65185 95.112023 
L 816.23889 95.112023 
L 820.825931 118.01649 
L 825.412971 118.01649 
L 830.000012 83.65979 
L 834.587053 100.020123 
L 839.174093 92.862478 
L 843.761134 91.430949 
L 848.348175 111.009215 
L 852.935215 125.324507 
L 857.522256 116.121819 
L 862.109296 118.324172 
L 866.696337 112.189047 
L 871.283378 96.189603 
L 875.870418 112.549936 
L 880.457459 114.935818 
L 885.0445 135.228924 
L 889.63154 143.749931 
L 894.218581 158.065223 
L 898.805621 158.065223 
L 903.392662 142.795578 
L 907.979703 130.525328 
L 912.566743 135.297092 
L 917.153784 128.139446 
L 921.740824 118.936759 
L 926.327865 131.820521 
L 930.914906 136.80531 
L 935.501946 108.174727 
L 940.088987 98.154023 
L 944.676028 119.62696 
L 949.263068 98.154023 
" style="fill:none;stroke:#d3d3d3;stroke-linecap:square;stroke-width:2;"/>
   </g>
   <g id="patch_3">
    <path d="M 43.78125 228.96 
L 43.78125 7.2 
" style="fill:none;stroke:#000000;stroke-linecap:square;stroke-linejoin:miter;stroke-width:0.8;"/>
   </g>
   <g id="patch_4">
    <path d="M 43.78125 228.96 
L 992.38125 228.96 
" style="fill:none;stroke:#000000;stroke-linecap:square;stroke-linejoin:miter;stroke-width:0.8;"/>
   </g>
   <g id="legend_1">
    <g id="line2d_21">
     <path d="M 50.98125 17.67875 
L 66.98125 17.67875 
" style="fill:none;stroke:#947383;stroke-linecap:square;stroke-width:2;"/>
    </g>
    <g id="line2d_22"/>
    <g id="text_16">
     <!-- United Kingdom -->
     <g transform="translate(73.38125 20.47875)scale(0.08 -0.08)">
      <defs>
       <path d="M 8.6875 72.90625 
L 18.609375 72.90625 
L 18.609375 28.609375 
Q 18.609375 16.890625 22.84375 11.734375 
Q 27.09375 6.59375 36.625 6.59375 
Q 46.09375 6.59375 50.34375 11.734375 
Q 54.59375 16.890625 54.59375 28.609375 
L 54.59375 72.90625 
L 64.5 72.90625 
L 64.5 27.390625 
Q 64.5 13.140625 57.4375 5.859375 
Q 50.390625 -1.421875 36.625 -1.421875 
Q 22.796875 -1.421875 15.734375 5.859375 
Q 8.6875 13.140625 8.6875 27.390625 
z
" id="DejaVuSans-85"/>
       <path d="M 9.8125 72.90625 
L 19.671875 72.90625 
L 19.671875 42.09375 
L 52.390625 72.90625 
L 65.09375 72.90625 
L 28.90625 38.921875 
L 67.671875 0 
L 54.6875 0 
L 19.671875 35.109375 
L 19.671875 0 
L 9.8125 0 
z
" id="DejaVuSans-75"/>
       <path d="M 52 44.1875 
Q 55.375 50.25 60.0625 53.125 
Q 64.75 56 71.09375 56 
Q 79.640625 56 84.28125 50.015625 
Q 88.921875 44.046875 88.921875 33.015625 
L 88.921875 0 
L 79.890625 0 
L 79.890625 32.71875 
Q 79.890625 40.578125 77.09375 44.375 
Q 74.3125 48.1875 68.609375 48.1875 
Q 61.625 48.1875 57.5625 43.546875 
Q 53.515625 38.921875 53.515625 30.90625 
L 53.515625 0 
L 44.484375 0 
L 44.484375 32.71875 
Q 44.484375 40.625 41.703125 44.40625 
Q 38.921875 48.1875 33.109375 48.1875 
Q 26.21875 48.1875 22.15625 43.53125 
Q 18.109375 38.875 18.109375 30.90625 
L 18.109375 0 
L 9.078125 0 
L 9.078125 54.6875 
L 18.109375 54.6875 
L 18.109375 46.1875 
Q 21.1875 51.21875 25.484375 53.609375 
Q 29.78125 56 35.6875 56 
Q 41.65625 56 45.828125 52.96875 
Q 50 49.953125 52 44.1875 
z
" id="DejaVuSans-109"/>
      </defs>
      <use xlink:href="#DejaVuSans-85"/>
      <use x="73.193359" xlink:href="#DejaVuSans-110"/>
      <use x="136.572266" xlink:href="#DejaVuSans-105"/>
      <use x="164.355469" xlink:href="#DejaVuSans-116"/>
      <use x="203.564453" xlink:href="#DejaVuSans-101"/>
      <use x="265.087891" xlink:href="#DejaVuSans-100"/>
      <use x="328.564453" xlink:href="#DejaVuSans-32"/>
      <use x="360.351562" xlink:href="#DejaVuSans-75"/>
      <use x="425.927734" xlink:href="#DejaVuSans-105"/>
      <use x="453.710938" xlink:href="#DejaVuSans-110"/>
      <use x="517.089844" xlink:href="#DejaVuSans-103"/>
      <use x="580.566406" xlink:href="#DejaVuSans-100"/>
      <use x="644.042969" xlink:href="#DejaVuSans-111"/>
      <use x="705.224609" xlink:href="#DejaVuSans-109"/>
     </g>
    </g>
    <g id="line2d_23">
     <path d="M 50.98125 29.42125 
L 66.98125 29.42125 
" style="fill:none;stroke:#96c6ad;stroke-linecap:square;stroke-width:2;"/>
    </g>
    <g id="line2d_24"/>
    <g id="text_17">
     <!-- Africa -->
     <g transform="translate(73.38125 32.22125)scale(0.08 -0.08)">
      <defs>
       <path d="M 34.1875 63.1875 
L 20.796875 26.90625 
L 47.609375 26.90625 
z
M 28.609375 72.90625 
L 39.796875 72.90625 
L 67.578125 0 
L 57.328125 0 
L 50.6875 18.703125 
L 17.828125 18.703125 
L 11.1875 0 
L 0.78125 0 
z
" id="DejaVuSans-65"/>
       <path d="M 37.109375 75.984375 
L 37.109375 68.5 
L 28.515625 68.5 
Q 23.6875 68.5 21.796875 66.546875 
Q 19.921875 64.59375 19.921875 59.515625 
L 19.921875 54.6875 
L 34.71875 54.6875 
L 34.71875 47.703125 
L 19.921875 47.703125 
L 19.921875 0 
L 10.890625 0 
L 10.890625 47.703125 
L 2.296875 47.703125 
L 2.296875 54.6875 
L 10.890625 54.6875 
L 10.890625 58.5 
Q 10.890625 67.625 15.140625 71.796875 
Q 19.390625 75.984375 28.609375 75.984375 
z
" id="DejaVuSans-102"/>
      </defs>
      <use xlink:href="#DejaVuSans-65"/>
      <use x="64.783203" xlink:href="#DejaVuSans-102"/>
      <use x="99.988281" xlink:href="#DejaVuSans-114"/>
      <use x="141.101562" xlink:href="#DejaVuSans-105"/>
      <use x="168.884766" xlink:href="#DejaVuSans-99"/>
      <use x="223.865234" xlink:href="#DejaVuSans-97"/>
     </g>
    </g>
    <g id="line2d_25">
     <path d="M 50.98125 41.16375 
L 66.98125 41.16375 
" style="fill:none;stroke:#525886;stroke-linecap:square;stroke-width:2;"/>
    </g>
    <g id="line2d_26"/>
    <g id="text_18">
     <!-- Asia -->
     <g transform="translate(73.38125 43.96375)scale(0.08 -0.08)">
      <defs>
       <path d="M 44.28125 53.078125 
L 44.28125 44.578125 
Q 40.484375 46.53125 36.375 47.5 
Q 32.28125 48.484375 27.875 48.484375 
Q 21.1875 48.484375 17.84375 46.4375 
Q 14.5 44.390625 14.5 40.28125 
Q 14.5 37.15625 16.890625 35.375 
Q 19.28125 33.59375 26.515625 31.984375 
L 29.59375 31.296875 
Q 39.15625 29.25 43.1875 25.515625 
Q 47.21875 21.78125 47.21875 15.09375 
Q 47.21875 7.46875 41.1875 3.015625 
Q 35.15625 -1.421875 24.609375 -1.421875 
Q 20.21875 -1.421875 15.453125 -0.5625 
Q 10.6875 0.296875 5.421875 2 
L 5.421875 11.28125 
Q 10.40625 8.6875 15.234375 7.390625 
Q 20.0625 6.109375 24.8125 6.109375 
Q 31.15625 6.109375 34.5625 8.28125 
Q 37.984375 10.453125 37.984375 14.40625 
Q 37.984375 18.0625 35.515625 20.015625 
Q 33.0625 21.96875 24.703125 23.78125 
L 21.578125 24.515625 
Q 13.234375 26.265625 9.515625 29.90625 
Q 5.8125 33.546875 5.8125 39.890625 
Q 5.8125 47.609375 11.28125 51.796875 
Q 16.75 56 26.8125 56 
Q 31.78125 56 36.171875 55.265625 
Q 40.578125 54.546875 44.28125 53.078125 
z
" id="DejaVuSans-115"/>
      </defs>
      <use xlink:href="#DejaVuSans-65"/>
      <use x="68.408203" xlink:href="#DejaVuSans-115"/>
      <use x="120.507812" xlink:href="#DejaVuSans-105"/>
      <use x="148.291016" xlink:href="#DejaVuSans-97"/>
     </g>
    </g>
    <g id="line2d_27">
     <path d="M 50.98125 52.90625 
L 66.98125 52.90625 
" style="fill:none;stroke:#937252;stroke-linecap:square;stroke-width:2;"/>
    </g>
    <g id="line2d_28"/>
    <g id="text_19">
     <!-- Europe -->
     <g transform="translate(73.38125 55.70625)scale(0.08 -0.08)">
      <defs>
       <path d="M 9.8125 72.90625 
L 55.90625 72.90625 
L 55.90625 64.59375 
L 19.671875 64.59375 
L 19.671875 43.015625 
L 54.390625 43.015625 
L 54.390625 34.71875 
L 19.671875 34.71875 
L 19.671875 8.296875 
L 56.78125 8.296875 
L 56.78125 0 
L 9.8125 0 
z
" id="DejaVuSans-69"/>
       <path d="M 18.109375 8.203125 
L 18.109375 -20.796875 
L 9.078125 -20.796875 
L 9.078125 54.6875 
L 18.109375 54.6875 
L 18.109375 46.390625 
Q 20.953125 51.265625 25.265625 53.625 
Q 29.59375 56 35.59375 56 
Q 45.5625 56 51.78125 48.09375 
Q 58.015625 40.1875 58.015625 27.296875 
Q 58.015625 14.40625 51.78125 6.484375 
Q 45.5625 -1.421875 35.59375 -1.421875 
Q 29.59375 -1.421875 25.265625 0.953125 
Q 20.953125 3.328125 18.109375 8.203125 
z
M 48.6875 27.296875 
Q 48.6875 37.203125 44.609375 42.84375 
Q 40.53125 48.484375 33.40625 48.484375 
Q 26.265625 48.484375 22.1875 42.84375 
Q 18.109375 37.203125 18.109375 27.296875 
Q 18.109375 17.390625 22.1875 11.75 
Q 26.265625 6.109375 33.40625 6.109375 
Q 40.53125 6.109375 44.609375 11.75 
Q 48.6875 17.390625 48.6875 27.296875 
z
" id="DejaVuSans-112"/>
      </defs>
      <use xlink:href="#DejaVuSans-69"/>
      <use x="63.183594" xlink:href="#DejaVuSans-117"/>
      <use x="126.5625" xlink:href="#DejaVuSans-114"/>
      <use x="165.425781" xlink:href="#DejaVuSans-111"/>
      <use x="226.607422" xlink:href="#DejaVuSans-112"/>
      <use x="290.083984" xlink:href="#DejaVuSans-101"/>
     </g>
    </g>
    <g id="line2d_29">
     <path d="M 50.98125 64.64875 
L 66.98125 64.64875 
" style="fill:none;stroke:#d18cad;stroke-linecap:square;stroke-width:2;"/>
    </g>
    <g id="line2d_30"/>
    <g id="text_20">
     <!-- South America -->
     <g transform="translate(73.38125 67.44875)scale(0.08 -0.08)">
      <defs>
       <path d="M 53.515625 70.515625 
L 53.515625 60.890625 
Q 47.90625 63.578125 42.921875 64.890625 
Q 37.9375 66.21875 33.296875 66.21875 
Q 25.25 66.21875 20.875 63.09375 
Q 16.5 59.96875 16.5 54.203125 
Q 16.5 49.359375 19.40625 46.890625 
Q 22.3125 44.4375 30.421875 42.921875 
L 36.375 41.703125 
Q 47.40625 39.59375 52.65625 34.296875 
Q 57.90625 29 57.90625 20.125 
Q 57.90625 9.515625 50.796875 4.046875 
Q 43.703125 -1.421875 29.984375 -1.421875 
Q 24.8125 -1.421875 18.96875 -0.25 
Q 13.140625 0.921875 6.890625 3.21875 
L 6.890625 13.375 
Q 12.890625 10.015625 18.65625 8.296875 
Q 24.421875 6.59375 29.984375 6.59375 
Q 38.421875 6.59375 43.015625 9.90625 
Q 47.609375 13.234375 47.609375 19.390625 
Q 47.609375 24.75 44.3125 27.78125 
Q 41.015625 30.8125 33.5 32.328125 
L 27.484375 33.5 
Q 16.453125 35.6875 11.515625 40.375 
Q 6.59375 45.0625 6.59375 53.421875 
Q 6.59375 63.09375 13.40625 68.65625 
Q 20.21875 74.21875 32.171875 74.21875 
Q 37.3125 74.21875 42.625 73.28125 
Q 47.953125 72.359375 53.515625 70.515625 
z
" id="DejaVuSans-83"/>
       <path d="M 54.890625 33.015625 
L 54.890625 0 
L 45.90625 0 
L 45.90625 32.71875 
Q 45.90625 40.484375 42.875 44.328125 
Q 39.84375 48.1875 33.796875 48.1875 
Q 26.515625 48.1875 22.3125 43.546875 
Q 18.109375 38.921875 18.109375 30.90625 
L 18.109375 0 
L 9.078125 0 
L 9.078125 75.984375 
L 18.109375 75.984375 
L 18.109375 46.1875 
Q 21.34375 51.125 25.703125 53.5625 
Q 30.078125 56 35.796875 56 
Q 45.21875 56 50.046875 50.171875 
Q 54.890625 44.34375 54.890625 33.015625 
z
" id="DejaVuSans-104"/>
      </defs>
      <use xlink:href="#DejaVuSans-83"/>
      <use x="63.476562" xlink:href="#DejaVuSans-111"/>
      <use x="124.658203" xlink:href="#DejaVuSans-117"/>
      <use x="188.037109" xlink:href="#DejaVuSans-116"/>
      <use x="227.246094" xlink:href="#DejaVuSans-104"/>
      <use x="290.625" xlink:href="#DejaVuSans-32"/>
      <use x="322.412109" xlink:href="#DejaVuSans-65"/>
      <use x="390.820312" xlink:href="#DejaVuSans-109"/>
      <use x="488.232422" xlink:href="#DejaVuSans-101"/>
      <use x="549.755859" xlink:href="#DejaVuSans-114"/>
      <use x="590.869141" xlink:href="#DejaVuSans-105"/>
      <use x="618.652344" xlink:href="#DejaVuSans-99"/>
      <use x="673.632812" xlink:href="#DejaVuSans-97"/>
     </g>
    </g>
    <g id="line2d_31">
     <path d="M 50.98125 76.39125 
L 66.98125 76.39125 
" style="fill:none;stroke:#a4a86f;stroke-linecap:square;stroke-width:2;"/>
    </g>
    <g id="line2d_32"/>
    <g id="text_21">
     <!-- North America -->
     <g transform="translate(73.38125 79.19125)scale(0.08 -0.08)">
      <defs>
       <path d="M 9.8125 72.90625 
L 23.09375 72.90625 
L 55.421875 11.921875 
L 55.421875 72.90625 
L 64.984375 72.90625 
L 64.984375 0 
L 51.703125 0 
L 19.390625 60.984375 
L 19.390625 0 
L 9.8125 0 
z
" id="DejaVuSans-78"/>
      </defs>
      <use xlink:href="#DejaVuSans-78"/>
      <use x="74.804688" xlink:href="#DejaVuSans-111"/>
      <use x="135.986328" xlink:href="#DejaVuSans-114"/>
      <use x="177.099609" xlink:href="#DejaVuSans-116"/>
      <use x="216.308594" xlink:href="#DejaVuSans-104"/>
      <use x="279.6875" xlink:href="#DejaVuSans-32"/>
      <use x="311.474609" xlink:href="#DejaVuSans-65"/>
      <use x="379.882812" xlink:href="#DejaVuSans-109"/>
      <use x="477.294922" xlink:href="#DejaVuSans-101"/>
      <use x="538.818359" xlink:href="#DejaVuSans-114"/>
      <use x="579.931641" xlink:href="#DejaVuSans-105"/>
      <use x="607.714844" xlink:href="#DejaVuSans-99"/>
      <use x="662.695312" xlink:href="#DejaVuSans-97"/>
     </g>
    </g>
    <g id="line2d_33">
     <path d="M 50.98125 88.13375 
L 66.98125 88.13375 
" style="fill:none;stroke:#d3d3d3;stroke-linecap:square;stroke-width:2;"/>
    </g>
    <g id="line2d_34"/>
    <g id="text_22">
     <!-- Oceania -->
     <g transform="translate(73.38125 90.93375)scale(0.08 -0.08)">
      <defs>
       <path d="M 39.40625 66.21875 
Q 28.65625 66.21875 22.328125 58.203125 
Q 16.015625 50.203125 16.015625 36.375 
Q 16.015625 22.609375 22.328125 14.59375 
Q 28.65625 6.59375 39.40625 6.59375 
Q 50.140625 6.59375 56.421875 14.59375 
Q 62.703125 22.609375 62.703125 36.375 
Q 62.703125 50.203125 56.421875 58.203125 
Q 50.140625 66.21875 39.40625 66.21875 
z
M 39.40625 74.21875 
Q 54.734375 74.21875 63.90625 63.9375 
Q 73.09375 53.65625 73.09375 36.375 
Q 73.09375 19.140625 63.90625 8.859375 
Q 54.734375 -1.421875 39.40625 -1.421875 
Q 24.03125 -1.421875 14.8125 8.828125 
Q 5.609375 19.09375 5.609375 36.375 
Q 5.609375 53.65625 14.8125 63.9375 
Q 24.03125 74.21875 39.40625 74.21875 
z
" id="DejaVuSans-79"/>
      </defs>
      <use xlink:href="#DejaVuSans-79"/>
      <use x="78.710938" xlink:href="#DejaVuSans-99"/>
      <use x="133.691406" xlink:href="#DejaVuSans-101"/>
      <use x="195.214844" xlink:href="#DejaVuSans-97"/>
      <use x="256.494141" xlink:href="#DejaVuSans-110"/>
      <use x="319.873047" xlink:href="#DejaVuSans-105"/>
      <use x="347.65625" xlink:href="#DejaVuSans-97"/>
     </g>
    </g>
   </g>
  </g>
 </g>
 <defs>
  <clipPath id="p59160d16ee">
   <rect height="221.76" width="948.6" x="43.78125" y="7.2"/>
  </clipPath>
 </defs>
</svg>
