<?xml version="1.0" encoding="utf-8" standalone="no"?>
<!DOCTYPE svg PUBLIC "-//W3C//DTD SVG 1.1//EN"
  "http://www.w3.org/Graphics/SVG/1.1/DTD/svg11.dtd">
<!-- Created with matplotlib (https://matplotlib.org/) -->
<svg height="298.620937pt" version="1.1" viewBox="0 0 999.58125 298.620937" width="999.58125pt" xmlns="http://www.w3.org/2000/svg" xmlns:xlink="http://www.w3.org/1999/xlink">
 <metadata>
  <rdf:RDF xmlns:cc="http://creativecommons.org/ns#" xmlns:dc="http://purl.org/dc/elements/1.1/" xmlns:rdf="http://www.w3.org/1999/02/22-rdf-syntax-ns#">
   <cc:Work>
    <dc:type rdf:resource="http://purl.org/dc/dcmitype/StillImage"/>
    <dc:date>2021-06-15T08:02:35.999772</dc:date>
    <dc:format>image/svg+xml</dc:format>
    <dc:creator>
     <cc:Agent>
      <dc:title>Matplotlib v3.3.3, https://matplotlib.org/</dc:title>
     </cc:Agent>
    </dc:creator>
   </cc:Work>
  </rdf:RDF>
 </metadata>
 <defs>
  <style type="text/css">*{stroke-linecap:butt;stroke-linejoin:round;}</style>
 </defs>
 <g id="figure_1">
  <g id="patch_1">
   <path d="M 0 298.620937 
L 999.58125 298.620937 
L 999.58125 0 
L 0 0 
z
" style="fill:#ffffff;"/>
  </g>
  <g id="axes_1">
   <g id="patch_2">
    <path d="M 43.78125 228.96 
L 992.38125 228.96 
L 992.38125 7.2 
L 43.78125 7.2 
z
" style="fill:#ffffff;"/>
   </g>
   <g id="matplotlib.axis_1">
    <g id="xtick_1">
     <g id="line2d_1">
      <defs>
       <path d="M 0 0 
L 0 3.5 
" id="mbe1f3c1bd5" style="stroke:#000000;stroke-width:0.8;"/>
      </defs>
      <g>
       <use style="stroke:#000000;stroke-width:0.8;" x="74.264067" xlink:href="#mbe1f3c1bd5" y="228.96"/>
      </g>
     </g>
     <g id="text_1">
      <!-- 2020-09 -->
      <g transform="translate(77.023442 277.742812)rotate(-90)scale(0.1 -0.1)">
       <defs>
        <path d="M 19.1875 8.296875 
L 53.609375 8.296875 
L 53.609375 0 
L 7.328125 0 
L 7.328125 8.296875 
Q 12.9375 14.109375 22.625 23.890625 
Q 32.328125 33.6875 34.8125 36.53125 
Q 39.546875 41.84375 41.421875 45.53125 
Q 43.3125 49.21875 43.3125 52.78125 
Q 43.3125 58.59375 39.234375 62.25 
Q 35.15625 65.921875 28.609375 65.921875 
Q 23.96875 65.921875 18.8125 64.3125 
Q 13.671875 62.703125 7.8125 59.421875 
L 7.8125 69.390625 
Q 13.765625 71.78125 18.9375 73 
Q 24.125 74.21875 28.421875 74.21875 
Q 39.75 74.21875 46.484375 68.546875 
Q 53.21875 62.890625 53.21875 53.421875 
Q 53.21875 48.921875 51.53125 44.890625 
Q 49.859375 40.875 45.40625 35.40625 
Q 44.1875 33.984375 37.640625 27.21875 
Q 31.109375 20.453125 19.1875 8.296875 
z
" id="DejaVuSans-50"/>
        <path d="M 31.78125 66.40625 
Q 24.171875 66.40625 20.328125 58.90625 
Q 16.5 51.421875 16.5 36.375 
Q 16.5 21.390625 20.328125 13.890625 
Q 24.171875 6.390625 31.78125 6.390625 
Q 39.453125 6.390625 43.28125 13.890625 
Q 47.125 21.390625 47.125 36.375 
Q 47.125 51.421875 43.28125 58.90625 
Q 39.453125 66.40625 31.78125 66.40625 
z
M 31.78125 74.21875 
Q 44.046875 74.21875 50.515625 64.515625 
Q 56.984375 54.828125 56.984375 36.375 
Q 56.984375 17.96875 50.515625 8.265625 
Q 44.046875 -1.421875 31.78125 -1.421875 
Q 19.53125 -1.421875 13.0625 8.265625 
Q 6.59375 17.96875 6.59375 36.375 
Q 6.59375 54.828125 13.0625 64.515625 
Q 19.53125 74.21875 31.78125 74.21875 
z
" id="DejaVuSans-48"/>
        <path d="M 4.890625 31.390625 
L 31.203125 31.390625 
L 31.203125 23.390625 
L 4.890625 23.390625 
z
" id="DejaVuSans-45"/>
        <path d="M 10.984375 1.515625 
L 10.984375 10.5 
Q 14.703125 8.734375 18.5 7.8125 
Q 22.3125 6.890625 25.984375 6.890625 
Q 35.75 6.890625 40.890625 13.453125 
Q 46.046875 20.015625 46.78125 33.40625 
Q 43.953125 29.203125 39.59375 26.953125 
Q 35.25 24.703125 29.984375 24.703125 
Q 19.046875 24.703125 12.671875 31.3125 
Q 6.296875 37.9375 6.296875 49.421875 
Q 6.296875 60.640625 12.9375 67.421875 
Q 19.578125 74.21875 30.609375 74.21875 
Q 43.265625 74.21875 49.921875 64.515625 
Q 56.59375 54.828125 56.59375 36.375 
Q 56.59375 19.140625 48.40625 8.859375 
Q 40.234375 -1.421875 26.421875 -1.421875 
Q 22.703125 -1.421875 18.890625 -0.6875 
Q 15.09375 0.046875 10.984375 1.515625 
z
M 30.609375 32.421875 
Q 37.25 32.421875 41.125 36.953125 
Q 45.015625 41.5 45.015625 49.421875 
Q 45.015625 57.28125 41.125 61.84375 
Q 37.25 66.40625 30.609375 66.40625 
Q 23.96875 66.40625 20.09375 61.84375 
Q 16.21875 57.28125 16.21875 49.421875 
Q 16.21875 41.5 20.09375 36.953125 
Q 23.96875 32.421875 30.609375 32.421875 
z
" id="DejaVuSans-57"/>
       </defs>
       <use xlink:href="#DejaVuSans-50"/>
       <use x="63.623047" xlink:href="#DejaVuSans-48"/>
       <use x="127.246094" xlink:href="#DejaVuSans-50"/>
       <use x="190.869141" xlink:href="#DejaVuSans-48"/>
       <use x="254.492188" xlink:href="#DejaVuSans-45"/>
       <use x="290.576172" xlink:href="#DejaVuSans-48"/>
       <use x="354.199219" xlink:href="#DejaVuSans-57"/>
      </g>
     </g>
    </g>
    <g id="xtick_2">
     <g id="line2d_2">
      <g>
       <use style="stroke:#000000;stroke-width:0.8;" x="169.029302" xlink:href="#mbe1f3c1bd5" y="228.96"/>
      </g>
     </g>
     <g id="text_2">
      <!-- 2020-10 -->
      <g transform="translate(171.788677 277.742812)rotate(-90)scale(0.1 -0.1)">
       <defs>
        <path d="M 12.40625 8.296875 
L 28.515625 8.296875 
L 28.515625 63.921875 
L 10.984375 60.40625 
L 10.984375 69.390625 
L 28.421875 72.90625 
L 38.28125 72.90625 
L 38.28125 8.296875 
L 54.390625 8.296875 
L 54.390625 0 
L 12.40625 0 
z
" id="DejaVuSans-49"/>
       </defs>
       <use xlink:href="#DejaVuSans-50"/>
       <use x="63.623047" xlink:href="#DejaVuSans-48"/>
       <use x="127.246094" xlink:href="#DejaVuSans-50"/>
       <use x="190.869141" xlink:href="#DejaVuSans-48"/>
       <use x="254.492188" xlink:href="#DejaVuSans-45"/>
       <use x="290.576172" xlink:href="#DejaVuSans-49"/>
       <use x="354.199219" xlink:href="#DejaVuSans-48"/>
      </g>
     </g>
    </g>
    <g id="xtick_3">
     <g id="line2d_3">
      <g>
       <use style="stroke:#000000;stroke-width:0.8;" x="266.953378" xlink:href="#mbe1f3c1bd5" y="228.96"/>
      </g>
     </g>
     <g id="text_3">
      <!-- 2020-11 -->
      <g transform="translate(269.712753 277.742812)rotate(-90)scale(0.1 -0.1)">
       <use xlink:href="#DejaVuSans-50"/>
       <use x="63.623047" xlink:href="#DejaVuSans-48"/>
       <use x="127.246094" xlink:href="#DejaVuSans-50"/>
       <use x="190.869141" xlink:href="#DejaVuSans-48"/>
       <use x="254.492188" xlink:href="#DejaVuSans-45"/>
       <use x="290.576172" xlink:href="#DejaVuSans-49"/>
       <use x="354.199219" xlink:href="#DejaVuSans-49"/>
      </g>
     </g>
    </g>
    <g id="xtick_4">
     <g id="line2d_4">
      <g>
       <use style="stroke:#000000;stroke-width:0.8;" x="361.718613" xlink:href="#mbe1f3c1bd5" y="228.96"/>
      </g>
     </g>
     <g id="text_4">
      <!-- 2020-12 -->
      <g transform="translate(364.477988 277.742812)rotate(-90)scale(0.1 -0.1)">
       <use xlink:href="#DejaVuSans-50"/>
       <use x="63.623047" xlink:href="#DejaVuSans-48"/>
       <use x="127.246094" xlink:href="#DejaVuSans-50"/>
       <use x="190.869141" xlink:href="#DejaVuSans-48"/>
       <use x="254.492188" xlink:href="#DejaVuSans-45"/>
       <use x="290.576172" xlink:href="#DejaVuSans-49"/>
       <use x="354.199219" xlink:href="#DejaVuSans-50"/>
      </g>
     </g>
    </g>
    <g id="xtick_5">
     <g id="line2d_5">
      <g>
       <use style="stroke:#000000;stroke-width:0.8;" x="459.642689" xlink:href="#mbe1f3c1bd5" y="228.96"/>
      </g>
     </g>
     <g id="text_5">
      <!-- 2021-01 -->
      <g transform="translate(462.402064 277.742812)rotate(-90)scale(0.1 -0.1)">
       <use xlink:href="#DejaVuSans-50"/>
       <use x="63.623047" xlink:href="#DejaVuSans-48"/>
       <use x="127.246094" xlink:href="#DejaVuSans-50"/>
       <use x="190.869141" xlink:href="#DejaVuSans-49"/>
       <use x="254.492188" xlink:href="#DejaVuSans-45"/>
       <use x="290.576172" xlink:href="#DejaVuSans-48"/>
       <use x="354.199219" xlink:href="#DejaVuSans-49"/>
      </g>
     </g>
    </g>
    <g id="xtick_6">
     <g id="line2d_6">
      <g>
       <use style="stroke:#000000;stroke-width:0.8;" x="557.566764" xlink:href="#mbe1f3c1bd5" y="228.96"/>
      </g>
     </g>
     <g id="text_6">
      <!-- 2021-02 -->
      <g transform="translate(560.326139 277.742812)rotate(-90)scale(0.1 -0.1)">
       <use xlink:href="#DejaVuSans-50"/>
       <use x="63.623047" xlink:href="#DejaVuSans-48"/>
       <use x="127.246094" xlink:href="#DejaVuSans-50"/>
       <use x="190.869141" xlink:href="#DejaVuSans-49"/>
       <use x="254.492188" xlink:href="#DejaVuSans-45"/>
       <use x="290.576172" xlink:href="#DejaVuSans-48"/>
       <use x="354.199219" xlink:href="#DejaVuSans-50"/>
      </g>
     </g>
    </g>
    <g id="xtick_7">
     <g id="line2d_7">
      <g>
       <use style="stroke:#000000;stroke-width:0.8;" x="646.014317" xlink:href="#mbe1f3c1bd5" y="228.96"/>
      </g>
     </g>
     <g id="text_7">
      <!-- 2021-03 -->
      <g transform="translate(648.773692 277.742812)rotate(-90)scale(0.1 -0.1)">
       <defs>
        <path d="M 40.578125 39.3125 
Q 47.65625 37.796875 51.625 33 
Q 55.609375 28.21875 55.609375 21.1875 
Q 55.609375 10.40625 48.1875 4.484375 
Q 40.765625 -1.421875 27.09375 -1.421875 
Q 22.515625 -1.421875 17.65625 -0.515625 
Q 12.796875 0.390625 7.625 2.203125 
L 7.625 11.71875 
Q 11.71875 9.328125 16.59375 8.109375 
Q 21.484375 6.890625 26.8125 6.890625 
Q 36.078125 6.890625 40.9375 10.546875 
Q 45.796875 14.203125 45.796875 21.1875 
Q 45.796875 27.640625 41.28125 31.265625 
Q 36.765625 34.90625 28.71875 34.90625 
L 20.21875 34.90625 
L 20.21875 43.015625 
L 29.109375 43.015625 
Q 36.375 43.015625 40.234375 45.921875 
Q 44.09375 48.828125 44.09375 54.296875 
Q 44.09375 59.90625 40.109375 62.90625 
Q 36.140625 65.921875 28.71875 65.921875 
Q 24.65625 65.921875 20.015625 65.03125 
Q 15.375 64.15625 9.8125 62.3125 
L 9.8125 71.09375 
Q 15.4375 72.65625 20.34375 73.4375 
Q 25.25 74.21875 29.59375 74.21875 
Q 40.828125 74.21875 47.359375 69.109375 
Q 53.90625 64.015625 53.90625 55.328125 
Q 53.90625 49.265625 50.4375 45.09375 
Q 46.96875 40.921875 40.578125 39.3125 
z
" id="DejaVuSans-51"/>
       </defs>
       <use xlink:href="#DejaVuSans-50"/>
       <use x="63.623047" xlink:href="#DejaVuSans-48"/>
       <use x="127.246094" xlink:href="#DejaVuSans-50"/>
       <use x="190.869141" xlink:href="#DejaVuSans-49"/>
       <use x="254.492188" xlink:href="#DejaVuSans-45"/>
       <use x="290.576172" xlink:href="#DejaVuSans-48"/>
       <use x="354.199219" xlink:href="#DejaVuSans-51"/>
      </g>
     </g>
    </g>
    <g id="xtick_8">
     <g id="line2d_8">
      <g>
       <use style="stroke:#000000;stroke-width:0.8;" x="743.938393" xlink:href="#mbe1f3c1bd5" y="228.96"/>
      </g>
     </g>
     <g id="text_8">
      <!-- 2021-04 -->
      <g transform="translate(746.697768 277.742812)rotate(-90)scale(0.1 -0.1)">
       <defs>
        <path d="M 37.796875 64.3125 
L 12.890625 25.390625 
L 37.796875 25.390625 
z
M 35.203125 72.90625 
L 47.609375 72.90625 
L 47.609375 25.390625 
L 58.015625 25.390625 
L 58.015625 17.1875 
L 47.609375 17.1875 
L 47.609375 0 
L 37.796875 0 
L 37.796875 17.1875 
L 4.890625 17.1875 
L 4.890625 26.703125 
z
" id="DejaVuSans-52"/>
       </defs>
       <use xlink:href="#DejaVuSans-50"/>
       <use x="63.623047" xlink:href="#DejaVuSans-48"/>
       <use x="127.246094" xlink:href="#DejaVuSans-50"/>
       <use x="190.869141" xlink:href="#DejaVuSans-49"/>
       <use x="254.492188" xlink:href="#DejaVuSans-45"/>
       <use x="290.576172" xlink:href="#DejaVuSans-48"/>
       <use x="354.199219" xlink:href="#DejaVuSans-52"/>
      </g>
     </g>
    </g>
    <g id="xtick_9">
     <g id="line2d_9">
      <g>
       <use style="stroke:#000000;stroke-width:0.8;" x="838.703628" xlink:href="#mbe1f3c1bd5" y="228.96"/>
      </g>
     </g>
     <g id="text_9">
      <!-- 2021-05 -->
      <g transform="translate(841.463003 277.742812)rotate(-90)scale(0.1 -0.1)">
       <defs>
        <path d="M 10.796875 72.90625 
L 49.515625 72.90625 
L 49.515625 64.59375 
L 19.828125 64.59375 
L 19.828125 46.734375 
Q 21.96875 47.46875 24.109375 47.828125 
Q 26.265625 48.1875 28.421875 48.1875 
Q 40.625 48.1875 47.75 41.5 
Q 54.890625 34.8125 54.890625 23.390625 
Q 54.890625 11.625 47.5625 5.09375 
Q 40.234375 -1.421875 26.90625 -1.421875 
Q 22.3125 -1.421875 17.546875 -0.640625 
Q 12.796875 0.140625 7.71875 1.703125 
L 7.71875 11.625 
Q 12.109375 9.234375 16.796875 8.0625 
Q 21.484375 6.890625 26.703125 6.890625 
Q 35.15625 6.890625 40.078125 11.328125 
Q 45.015625 15.765625 45.015625 23.390625 
Q 45.015625 31 40.078125 35.4375 
Q 35.15625 39.890625 26.703125 39.890625 
Q 22.75 39.890625 18.8125 39.015625 
Q 14.890625 38.140625 10.796875 36.28125 
z
" id="DejaVuSans-53"/>
       </defs>
       <use xlink:href="#DejaVuSans-50"/>
       <use x="63.623047" xlink:href="#DejaVuSans-48"/>
       <use x="127.246094" xlink:href="#DejaVuSans-50"/>
       <use x="190.869141" xlink:href="#DejaVuSans-49"/>
       <use x="254.492188" xlink:href="#DejaVuSans-45"/>
       <use x="290.576172" xlink:href="#DejaVuSans-48"/>
       <use x="354.199219" xlink:href="#DejaVuSans-53"/>
      </g>
     </g>
    </g>
    <g id="xtick_10">
     <g id="line2d_10">
      <g>
       <use style="stroke:#000000;stroke-width:0.8;" x="936.627704" xlink:href="#mbe1f3c1bd5" y="228.96"/>
      </g>
     </g>
     <g id="text_10">
      <!-- 2021-06 -->
      <g transform="translate(939.387079 277.742812)rotate(-90)scale(0.1 -0.1)">
       <defs>
        <path d="M 33.015625 40.375 
Q 26.375 40.375 22.484375 35.828125 
Q 18.609375 31.296875 18.609375 23.390625 
Q 18.609375 15.53125 22.484375 10.953125 
Q 26.375 6.390625 33.015625 6.390625 
Q 39.65625 6.390625 43.53125 10.953125 
Q 47.40625 15.53125 47.40625 23.390625 
Q 47.40625 31.296875 43.53125 35.828125 
Q 39.65625 40.375 33.015625 40.375 
z
M 52.59375 71.296875 
L 52.59375 62.3125 
Q 48.875 64.0625 45.09375 64.984375 
Q 41.3125 65.921875 37.59375 65.921875 
Q 27.828125 65.921875 22.671875 59.328125 
Q 17.53125 52.734375 16.796875 39.40625 
Q 19.671875 43.65625 24.015625 45.921875 
Q 28.375 48.1875 33.59375 48.1875 
Q 44.578125 48.1875 50.953125 41.515625 
Q 57.328125 34.859375 57.328125 23.390625 
Q 57.328125 12.15625 50.6875 5.359375 
Q 44.046875 -1.421875 33.015625 -1.421875 
Q 20.359375 -1.421875 13.671875 8.265625 
Q 6.984375 17.96875 6.984375 36.375 
Q 6.984375 53.65625 15.1875 63.9375 
Q 23.390625 74.21875 37.203125 74.21875 
Q 40.921875 74.21875 44.703125 73.484375 
Q 48.484375 72.75 52.59375 71.296875 
z
" id="DejaVuSans-54"/>
       </defs>
       <use xlink:href="#DejaVuSans-50"/>
       <use x="63.623047" xlink:href="#DejaVuSans-48"/>
       <use x="127.246094" xlink:href="#DejaVuSans-50"/>
       <use x="190.869141" xlink:href="#DejaVuSans-49"/>
       <use x="254.492188" xlink:href="#DejaVuSans-45"/>
       <use x="290.576172" xlink:href="#DejaVuSans-48"/>
       <use x="354.199219" xlink:href="#DejaVuSans-54"/>
      </g>
     </g>
    </g>
    <g id="text_11">
     <!-- Date -->
     <g transform="translate(506.130469 289.34125)scale(0.1 -0.1)">
      <defs>
       <path d="M 19.671875 64.796875 
L 19.671875 8.109375 
L 31.59375 8.109375 
Q 46.6875 8.109375 53.6875 14.9375 
Q 60.6875 21.78125 60.6875 36.53125 
Q 60.6875 51.171875 53.6875 57.984375 
Q 46.6875 64.796875 31.59375 64.796875 
z
M 9.8125 72.90625 
L 30.078125 72.90625 
Q 51.265625 72.90625 61.171875 64.09375 
Q 71.09375 55.28125 71.09375 36.53125 
Q 71.09375 17.671875 61.125 8.828125 
Q 51.171875 0 30.078125 0 
L 9.8125 0 
z
" id="DejaVuSans-68"/>
       <path d="M 34.28125 27.484375 
Q 23.390625 27.484375 19.1875 25 
Q 14.984375 22.515625 14.984375 16.5 
Q 14.984375 11.71875 18.140625 8.90625 
Q 21.296875 6.109375 26.703125 6.109375 
Q 34.1875 6.109375 38.703125 11.40625 
Q 43.21875 16.703125 43.21875 25.484375 
L 43.21875 27.484375 
z
M 52.203125 31.203125 
L 52.203125 0 
L 43.21875 0 
L 43.21875 8.296875 
Q 40.140625 3.328125 35.546875 0.953125 
Q 30.953125 -1.421875 24.3125 -1.421875 
Q 15.921875 -1.421875 10.953125 3.296875 
Q 6 8.015625 6 15.921875 
Q 6 25.140625 12.171875 29.828125 
Q 18.359375 34.515625 30.609375 34.515625 
L 43.21875 34.515625 
L 43.21875 35.40625 
Q 43.21875 41.609375 39.140625 45 
Q 35.0625 48.390625 27.6875 48.390625 
Q 23 48.390625 18.546875 47.265625 
Q 14.109375 46.140625 10.015625 43.890625 
L 10.015625 52.203125 
Q 14.9375 54.109375 19.578125 55.046875 
Q 24.21875 56 28.609375 56 
Q 40.484375 56 46.34375 49.84375 
Q 52.203125 43.703125 52.203125 31.203125 
z
" id="DejaVuSans-97"/>
       <path d="M 18.3125 70.21875 
L 18.3125 54.6875 
L 36.8125 54.6875 
L 36.8125 47.703125 
L 18.3125 47.703125 
L 18.3125 18.015625 
Q 18.3125 11.328125 20.140625 9.421875 
Q 21.96875 7.515625 27.59375 7.515625 
L 36.8125 7.515625 
L 36.8125 0 
L 27.59375 0 
Q 17.1875 0 13.234375 3.875 
Q 9.28125 7.765625 9.28125 18.015625 
L 9.28125 47.703125 
L 2.6875 47.703125 
L 2.6875 54.6875 
L 9.28125 54.6875 
L 9.28125 70.21875 
z
" id="DejaVuSans-116"/>
       <path d="M 56.203125 29.59375 
L 56.203125 25.203125 
L 14.890625 25.203125 
Q 15.484375 15.921875 20.484375 11.0625 
Q 25.484375 6.203125 34.421875 6.203125 
Q 39.59375 6.203125 44.453125 7.46875 
Q 49.3125 8.734375 54.109375 11.28125 
L 54.109375 2.78125 
Q 49.265625 0.734375 44.1875 -0.34375 
Q 39.109375 -1.421875 33.890625 -1.421875 
Q 20.796875 -1.421875 13.15625 6.1875 
Q 5.515625 13.8125 5.515625 26.8125 
Q 5.515625 40.234375 12.765625 48.109375 
Q 20.015625 56 32.328125 56 
Q 43.359375 56 49.78125 48.890625 
Q 56.203125 41.796875 56.203125 29.59375 
z
M 47.21875 32.234375 
Q 47.125 39.59375 43.09375 43.984375 
Q 39.0625 48.390625 32.421875 48.390625 
Q 24.90625 48.390625 20.390625 44.140625 
Q 15.875 39.890625 15.1875 32.171875 
z
" id="DejaVuSans-101"/>
      </defs>
      <use xlink:href="#DejaVuSans-68"/>
      <use x="77.001953" xlink:href="#DejaVuSans-97"/>
      <use x="138.28125" xlink:href="#DejaVuSans-116"/>
      <use x="177.490234" xlink:href="#DejaVuSans-101"/>
     </g>
    </g>
   </g>
   <g id="matplotlib.axis_2">
    <g id="ytick_1">
     <g id="line2d_11">
      <defs>
       <path d="M 0 0 
L -3.5 0 
" id="m6494840426" style="stroke:#000000;stroke-width:0.8;"/>
      </defs>
      <g>
       <use style="stroke:#000000;stroke-width:0.8;" x="43.78125" xlink:href="#m6494840426" y="228.96"/>
      </g>
     </g>
     <g id="text_12">
      <!-- 0.0 -->
      <g transform="translate(20.878125 232.759219)scale(0.1 -0.1)">
       <defs>
        <path d="M 10.6875 12.40625 
L 21 12.40625 
L 21 0 
L 10.6875 0 
z
" id="DejaVuSans-46"/>
       </defs>
       <use xlink:href="#DejaVuSans-48"/>
       <use x="63.623047" xlink:href="#DejaVuSans-46"/>
       <use x="95.410156" xlink:href="#DejaVuSans-48"/>
      </g>
     </g>
    </g>
    <g id="ytick_2">
     <g id="line2d_12">
      <g>
       <use style="stroke:#000000;stroke-width:0.8;" x="43.78125" xlink:href="#m6494840426" y="184.496842"/>
      </g>
     </g>
     <g id="text_13">
      <!-- 0.2 -->
      <g transform="translate(20.878125 188.296061)scale(0.1 -0.1)">
       <use xlink:href="#DejaVuSans-48"/>
       <use x="63.623047" xlink:href="#DejaVuSans-46"/>
       <use x="95.410156" xlink:href="#DejaVuSans-50"/>
      </g>
     </g>
    </g>
    <g id="ytick_3">
     <g id="line2d_13">
      <g>
       <use style="stroke:#000000;stroke-width:0.8;" x="43.78125" xlink:href="#m6494840426" y="140.033684"/>
      </g>
     </g>
     <g id="text_14">
      <!-- 0.4 -->
      <g transform="translate(20.878125 143.832903)scale(0.1 -0.1)">
       <use xlink:href="#DejaVuSans-48"/>
       <use x="63.623047" xlink:href="#DejaVuSans-46"/>
       <use x="95.410156" xlink:href="#DejaVuSans-52"/>
      </g>
     </g>
    </g>
    <g id="ytick_4">
     <g id="line2d_14">
      <g>
       <use style="stroke:#000000;stroke-width:0.8;" x="43.78125" xlink:href="#m6494840426" y="95.570526"/>
      </g>
     </g>
     <g id="text_15">
      <!-- 0.6 -->
      <g transform="translate(20.878125 99.369745)scale(0.1 -0.1)">
       <use xlink:href="#DejaVuSans-48"/>
       <use x="63.623047" xlink:href="#DejaVuSans-46"/>
       <use x="95.410156" xlink:href="#DejaVuSans-54"/>
      </g>
     </g>
    </g>
    <g id="ytick_5">
     <g id="line2d_15">
      <g>
       <use style="stroke:#000000;stroke-width:0.8;" x="43.78125" xlink:href="#m6494840426" y="51.107368"/>
      </g>
     </g>
     <g id="text_16">
      <!-- 0.8 -->
      <g transform="translate(20.878125 54.906587)scale(0.1 -0.1)">
       <defs>
        <path d="M 31.78125 34.625 
Q 24.75 34.625 20.71875 30.859375 
Q 16.703125 27.09375 16.703125 20.515625 
Q 16.703125 13.921875 20.71875 10.15625 
Q 24.75 6.390625 31.78125 6.390625 
Q 38.8125 6.390625 42.859375 10.171875 
Q 46.921875 13.96875 46.921875 20.515625 
Q 46.921875 27.09375 42.890625 30.859375 
Q 38.875 34.625 31.78125 34.625 
z
M 21.921875 38.8125 
Q 15.578125 40.375 12.03125 44.71875 
Q 8.5 49.078125 8.5 55.328125 
Q 8.5 64.0625 14.71875 69.140625 
Q 20.953125 74.21875 31.78125 74.21875 
Q 42.671875 74.21875 48.875 69.140625 
Q 55.078125 64.0625 55.078125 55.328125 
Q 55.078125 49.078125 51.53125 44.71875 
Q 48 40.375 41.703125 38.8125 
Q 48.828125 37.15625 52.796875 32.3125 
Q 56.78125 27.484375 56.78125 20.515625 
Q 56.78125 9.90625 50.3125 4.234375 
Q 43.84375 -1.421875 31.78125 -1.421875 
Q 19.734375 -1.421875 13.25 4.234375 
Q 6.78125 9.90625 6.78125 20.515625 
Q 6.78125 27.484375 10.78125 32.3125 
Q 14.796875 37.15625 21.921875 38.8125 
z
M 18.3125 54.390625 
Q 18.3125 48.734375 21.84375 45.5625 
Q 25.390625 42.390625 31.78125 42.390625 
Q 38.140625 42.390625 41.71875 45.5625 
Q 45.3125 48.734375 45.3125 54.390625 
Q 45.3125 60.0625 41.71875 63.234375 
Q 38.140625 66.40625 31.78125 66.40625 
Q 25.390625 66.40625 21.84375 63.234375 
Q 18.3125 60.0625 18.3125 54.390625 
z
" id="DejaVuSans-56"/>
       </defs>
       <use xlink:href="#DejaVuSans-48"/>
       <use x="63.623047" xlink:href="#DejaVuSans-46"/>
       <use x="95.410156" xlink:href="#DejaVuSans-56"/>
      </g>
     </g>
    </g>
    <g id="text_17">
     <!-- Frequency (7 day rolling average) -->
     <g transform="translate(14.798437 202.529219)rotate(-90)scale(0.1 -0.1)">
      <defs>
       <path d="M 9.8125 72.90625 
L 51.703125 72.90625 
L 51.703125 64.59375 
L 19.671875 64.59375 
L 19.671875 43.109375 
L 48.578125 43.109375 
L 48.578125 34.8125 
L 19.671875 34.8125 
L 19.671875 0 
L 9.8125 0 
z
" id="DejaVuSans-70"/>
       <path d="M 41.109375 46.296875 
Q 39.59375 47.171875 37.8125 47.578125 
Q 36.03125 48 33.890625 48 
Q 26.265625 48 22.1875 43.046875 
Q 18.109375 38.09375 18.109375 28.8125 
L 18.109375 0 
L 9.078125 0 
L 9.078125 54.6875 
L 18.109375 54.6875 
L 18.109375 46.1875 
Q 20.953125 51.171875 25.484375 53.578125 
Q 30.03125 56 36.53125 56 
Q 37.453125 56 38.578125 55.875 
Q 39.703125 55.765625 41.0625 55.515625 
z
" id="DejaVuSans-114"/>
       <path d="M 14.796875 27.296875 
Q 14.796875 17.390625 18.875 11.75 
Q 22.953125 6.109375 30.078125 6.109375 
Q 37.203125 6.109375 41.296875 11.75 
Q 45.40625 17.390625 45.40625 27.296875 
Q 45.40625 37.203125 41.296875 42.84375 
Q 37.203125 48.484375 30.078125 48.484375 
Q 22.953125 48.484375 18.875 42.84375 
Q 14.796875 37.203125 14.796875 27.296875 
z
M 45.40625 8.203125 
Q 42.578125 3.328125 38.25 0.953125 
Q 33.9375 -1.421875 27.875 -1.421875 
Q 17.96875 -1.421875 11.734375 6.484375 
Q 5.515625 14.40625 5.515625 27.296875 
Q 5.515625 40.1875 11.734375 48.09375 
Q 17.96875 56 27.875 56 
Q 33.9375 56 38.25 53.625 
Q 42.578125 51.265625 45.40625 46.390625 
L 45.40625 54.6875 
L 54.390625 54.6875 
L 54.390625 -20.796875 
L 45.40625 -20.796875 
z
" id="DejaVuSans-113"/>
       <path d="M 8.5 21.578125 
L 8.5 54.6875 
L 17.484375 54.6875 
L 17.484375 21.921875 
Q 17.484375 14.15625 20.5 10.265625 
Q 23.53125 6.390625 29.59375 6.390625 
Q 36.859375 6.390625 41.078125 11.03125 
Q 45.3125 15.671875 45.3125 23.6875 
L 45.3125 54.6875 
L 54.296875 54.6875 
L 54.296875 0 
L 45.3125 0 
L 45.3125 8.40625 
Q 42.046875 3.421875 37.71875 1 
Q 33.40625 -1.421875 27.6875 -1.421875 
Q 18.265625 -1.421875 13.375 4.4375 
Q 8.5 10.296875 8.5 21.578125 
z
M 31.109375 56 
z
" id="DejaVuSans-117"/>
       <path d="M 54.890625 33.015625 
L 54.890625 0 
L 45.90625 0 
L 45.90625 32.71875 
Q 45.90625 40.484375 42.875 44.328125 
Q 39.84375 48.1875 33.796875 48.1875 
Q 26.515625 48.1875 22.3125 43.546875 
Q 18.109375 38.921875 18.109375 30.90625 
L 18.109375 0 
L 9.078125 0 
L 9.078125 54.6875 
L 18.109375 54.6875 
L 18.109375 46.1875 
Q 21.34375 51.125 25.703125 53.5625 
Q 30.078125 56 35.796875 56 
Q 45.21875 56 50.046875 50.171875 
Q 54.890625 44.34375 54.890625 33.015625 
z
" id="DejaVuSans-110"/>
       <path d="M 48.78125 52.59375 
L 48.78125 44.1875 
Q 44.96875 46.296875 41.140625 47.34375 
Q 37.3125 48.390625 33.40625 48.390625 
Q 24.65625 48.390625 19.8125 42.84375 
Q 14.984375 37.3125 14.984375 27.296875 
Q 14.984375 17.28125 19.8125 11.734375 
Q 24.65625 6.203125 33.40625 6.203125 
Q 37.3125 6.203125 41.140625 7.25 
Q 44.96875 8.296875 48.78125 10.40625 
L 48.78125 2.09375 
Q 45.015625 0.34375 40.984375 -0.53125 
Q 36.96875 -1.421875 32.421875 -1.421875 
Q 20.0625 -1.421875 12.78125 6.34375 
Q 5.515625 14.109375 5.515625 27.296875 
Q 5.515625 40.671875 12.859375 48.328125 
Q 20.21875 56 33.015625 56 
Q 37.15625 56 41.109375 55.140625 
Q 45.0625 54.296875 48.78125 52.59375 
z
" id="DejaVuSans-99"/>
       <path d="M 32.171875 -5.078125 
Q 28.375 -14.84375 24.75 -17.8125 
Q 21.140625 -20.796875 15.09375 -20.796875 
L 7.90625 -20.796875 
L 7.90625 -13.28125 
L 13.1875 -13.28125 
Q 16.890625 -13.28125 18.9375 -11.515625 
Q 21 -9.765625 23.484375 -3.21875 
L 25.09375 0.875 
L 2.984375 54.6875 
L 12.5 54.6875 
L 29.59375 11.921875 
L 46.6875 54.6875 
L 56.203125 54.6875 
z
" id="DejaVuSans-121"/>
       <path id="DejaVuSans-32"/>
       <path d="M 31 75.875 
Q 24.46875 64.65625 21.28125 53.65625 
Q 18.109375 42.671875 18.109375 31.390625 
Q 18.109375 20.125 21.3125 9.0625 
Q 24.515625 -2 31 -13.1875 
L 23.1875 -13.1875 
Q 15.875 -1.703125 12.234375 9.375 
Q 8.59375 20.453125 8.59375 31.390625 
Q 8.59375 42.28125 12.203125 53.3125 
Q 15.828125 64.359375 23.1875 75.875 
z
" id="DejaVuSans-40"/>
       <path d="M 8.203125 72.90625 
L 55.078125 72.90625 
L 55.078125 68.703125 
L 28.609375 0 
L 18.3125 0 
L 43.21875 64.59375 
L 8.203125 64.59375 
z
" id="DejaVuSans-55"/>
       <path d="M 45.40625 46.390625 
L 45.40625 75.984375 
L 54.390625 75.984375 
L 54.390625 0 
L 45.40625 0 
L 45.40625 8.203125 
Q 42.578125 3.328125 38.25 0.953125 
Q 33.9375 -1.421875 27.875 -1.421875 
Q 17.96875 -1.421875 11.734375 6.484375 
Q 5.515625 14.40625 5.515625 27.296875 
Q 5.515625 40.1875 11.734375 48.09375 
Q 17.96875 56 27.875 56 
Q 33.9375 56 38.25 53.625 
Q 42.578125 51.265625 45.40625 46.390625 
z
M 14.796875 27.296875 
Q 14.796875 17.390625 18.875 11.75 
Q 22.953125 6.109375 30.078125 6.109375 
Q 37.203125 6.109375 41.296875 11.75 
Q 45.40625 17.390625 45.40625 27.296875 
Q 45.40625 37.203125 41.296875 42.84375 
Q 37.203125 48.484375 30.078125 48.484375 
Q 22.953125 48.484375 18.875 42.84375 
Q 14.796875 37.203125 14.796875 27.296875 
z
" id="DejaVuSans-100"/>
       <path d="M 30.609375 48.390625 
Q 23.390625 48.390625 19.1875 42.75 
Q 14.984375 37.109375 14.984375 27.296875 
Q 14.984375 17.484375 19.15625 11.84375 
Q 23.34375 6.203125 30.609375 6.203125 
Q 37.796875 6.203125 41.984375 11.859375 
Q 46.1875 17.53125 46.1875 27.296875 
Q 46.1875 37.015625 41.984375 42.703125 
Q 37.796875 48.390625 30.609375 48.390625 
z
M 30.609375 56 
Q 42.328125 56 49.015625 48.375 
Q 55.71875 40.765625 55.71875 27.296875 
Q 55.71875 13.875 49.015625 6.21875 
Q 42.328125 -1.421875 30.609375 -1.421875 
Q 18.84375 -1.421875 12.171875 6.21875 
Q 5.515625 13.875 5.515625 27.296875 
Q 5.515625 40.765625 12.171875 48.375 
Q 18.84375 56 30.609375 56 
z
" id="DejaVuSans-111"/>
       <path d="M 9.421875 75.984375 
L 18.40625 75.984375 
L 18.40625 0 
L 9.421875 0 
z
" id="DejaVuSans-108"/>
       <path d="M 9.421875 54.6875 
L 18.40625 54.6875 
L 18.40625 0 
L 9.421875 0 
z
M 9.421875 75.984375 
L 18.40625 75.984375 
L 18.40625 64.59375 
L 9.421875 64.59375 
z
" id="DejaVuSans-105"/>
       <path d="M 45.40625 27.984375 
Q 45.40625 37.75 41.375 43.109375 
Q 37.359375 48.484375 30.078125 48.484375 
Q 22.859375 48.484375 18.828125 43.109375 
Q 14.796875 37.75 14.796875 27.984375 
Q 14.796875 18.265625 18.828125 12.890625 
Q 22.859375 7.515625 30.078125 7.515625 
Q 37.359375 7.515625 41.375 12.890625 
Q 45.40625 18.265625 45.40625 27.984375 
z
M 54.390625 6.78125 
Q 54.390625 -7.171875 48.1875 -13.984375 
Q 42 -20.796875 29.203125 -20.796875 
Q 24.46875 -20.796875 20.265625 -20.09375 
Q 16.0625 -19.390625 12.109375 -17.921875 
L 12.109375 -9.1875 
Q 16.0625 -11.328125 19.921875 -12.34375 
Q 23.78125 -13.375 27.78125 -13.375 
Q 36.625 -13.375 41.015625 -8.765625 
Q 45.40625 -4.15625 45.40625 5.171875 
L 45.40625 9.625 
Q 42.625 4.78125 38.28125 2.390625 
Q 33.9375 0 27.875 0 
Q 17.828125 0 11.671875 7.65625 
Q 5.515625 15.328125 5.515625 27.984375 
Q 5.515625 40.671875 11.671875 48.328125 
Q 17.828125 56 27.875 56 
Q 33.9375 56 38.28125 53.609375 
Q 42.625 51.21875 45.40625 46.390625 
L 45.40625 54.6875 
L 54.390625 54.6875 
z
" id="DejaVuSans-103"/>
       <path d="M 2.984375 54.6875 
L 12.5 54.6875 
L 29.59375 8.796875 
L 46.6875 54.6875 
L 56.203125 54.6875 
L 35.6875 0 
L 23.484375 0 
z
" id="DejaVuSans-118"/>
       <path d="M 8.015625 75.875 
L 15.828125 75.875 
Q 23.140625 64.359375 26.78125 53.3125 
Q 30.421875 42.28125 30.421875 31.390625 
Q 30.421875 20.453125 26.78125 9.375 
Q 23.140625 -1.703125 15.828125 -13.1875 
L 8.015625 -13.1875 
Q 14.5 -2 17.703125 9.0625 
Q 20.90625 20.125 20.90625 31.390625 
Q 20.90625 42.671875 17.703125 53.65625 
Q 14.5 64.65625 8.015625 75.875 
z
" id="DejaVuSans-41"/>
      </defs>
      <use xlink:href="#DejaVuSans-70"/>
      <use x="50.269531" xlink:href="#DejaVuSans-114"/>
      <use x="89.132812" xlink:href="#DejaVuSans-101"/>
      <use x="150.65625" xlink:href="#DejaVuSans-113"/>
      <use x="214.132812" xlink:href="#DejaVuSans-117"/>
      <use x="277.511719" xlink:href="#DejaVuSans-101"/>
      <use x="339.035156" xlink:href="#DejaVuSans-110"/>
      <use x="402.414062" xlink:href="#DejaVuSans-99"/>
      <use x="457.394531" xlink:href="#DejaVuSans-121"/>
      <use x="516.574219" xlink:href="#DejaVuSans-32"/>
      <use x="548.361328" xlink:href="#DejaVuSans-40"/>
      <use x="587.375" xlink:href="#DejaVuSans-55"/>
      <use x="650.998047" xlink:href="#DejaVuSans-32"/>
      <use x="682.785156" xlink:href="#DejaVuSans-100"/>
      <use x="746.261719" xlink:href="#DejaVuSans-97"/>
      <use x="807.541016" xlink:href="#DejaVuSans-121"/>
      <use x="866.720703" xlink:href="#DejaVuSans-32"/>
      <use x="898.507812" xlink:href="#DejaVuSans-114"/>
      <use x="937.371094" xlink:href="#DejaVuSans-111"/>
      <use x="998.552734" xlink:href="#DejaVuSans-108"/>
      <use x="1026.335938" xlink:href="#DejaVuSans-108"/>
      <use x="1054.119141" xlink:href="#DejaVuSans-105"/>
      <use x="1081.902344" xlink:href="#DejaVuSans-110"/>
      <use x="1145.28125" xlink:href="#DejaVuSans-103"/>
      <use x="1208.757812" xlink:href="#DejaVuSans-32"/>
      <use x="1240.544922" xlink:href="#DejaVuSans-97"/>
      <use x="1301.824219" xlink:href="#DejaVuSans-118"/>
      <use x="1361.003906" xlink:href="#DejaVuSans-101"/>
      <use x="1422.527344" xlink:href="#DejaVuSans-114"/>
      <use x="1463.640625" xlink:href="#DejaVuSans-97"/>
      <use x="1524.919922" xlink:href="#DejaVuSans-103"/>
      <use x="1588.396484" xlink:href="#DejaVuSans-101"/>
      <use x="1649.919922" xlink:href="#DejaVuSans-41"/>
     </g>
    </g>
   </g>
   <g id="line2d_16">
    <path clip-path="url(#p902e727987)" d="M 431.213118 227.010996 
L 434.371959 226.502419 
L 437.5308 225.595008 
L 440.689642 226.396146 
L 443.848483 226.981187 
L 447.007324 226.684766 
L 450.166165 227.756168 
L 453.325006 228.663579 
L 459.642689 228.55945 
L 462.80153 228.824625 
L 472.278053 228.769809 
L 481.754577 228.842266 
L 513.342988 228.721712 
L 522.819512 228.834837 
L 538.613718 228.764947 
L 544.9314 228.62045 
L 551.249082 228.546834 
L 557.566764 228.683257 
L 563.884447 228.574529 
L 582.837494 228.600398 
L 589.155176 228.349824 
L 595.472858 228.052794 
L 598.6317 227.988293 
L 601.790541 228.070894 
L 604.949382 228.026156 
L 608.108223 228.206319 
L 611.267064 228.270289 
L 617.584747 227.982474 
L 620.743588 228.133889 
L 627.06127 227.994114 
L 633.378952 228.235587 
L 636.537793 228.07988 
L 642.855476 228.027588 
L 649.173158 227.776214 
L 658.649682 228.071689 
L 674.443887 227.73634 
L 677.602729 227.938716 
L 680.76157 227.98686 
L 683.920411 227.917706 
L 687.079252 228.04164 
L 690.238093 228.043207 
L 693.396934 227.910421 
L 699.714617 227.923997 
L 706.032299 227.608767 
L 709.19114 227.611591 
L 712.349981 227.493334 
L 721.826505 227.624085 
L 734.461869 227.387095 
L 740.779552 227.378586 
L 747.097234 227.424569 
L 750.256075 227.502829 
L 753.414916 227.717189 
L 762.89144 227.800194 
L 778.685646 227.32069 
L 781.844487 227.446732 
L 794.479851 227.28607 
L 797.638693 227.351764 
L 800.797534 227.25695 
L 810.274057 227.587712 
L 813.432898 227.475092 
L 816.59174 227.719395 
L 819.750581 227.808089 
L 832.385945 227.49808 
L 835.544786 227.282702 
L 838.703628 227.24435 
L 848.180151 227.427078 
L 854.497833 227.514887 
L 857.656675 227.383013 
L 863.974357 227.570054 
L 867.133198 227.662755 
L 870.292039 227.905518 
L 876.609722 227.939634 
L 886.086245 227.557313 
L 895.562768 227.652284 
L 908.198133 228.02655 
L 911.356974 227.795167 
L 914.515815 227.922672 
L 927.15118 227.839711 
L 930.310021 228.006448 
L 933.468862 227.130863 
L 939.786545 227.469655 
L 942.945386 227.949474 
L 946.104227 226.982883 
L 946.104227 226.982883 
" style="fill:none;stroke:#947383;stroke-linecap:square;stroke-width:2;"/>
   </g>
   <g id="line2d_17">
    <path clip-path="url(#p902e727987)" d="M 301.700631 200.376541 
L 304.859472 222.60812 
L 314.335995 222.60812 
L 317.494836 228.96 
L 399.624707 228.96 
L 409.10123 228.593833 
L 418.577753 228.563476 
L 424.895436 227.871483 
L 428.054277 227.312901 
L 434.371959 227.055857 
L 437.5308 227.644773 
L 443.848483 228.130384 
L 453.325006 227.728595 
L 459.642689 228.013621 
L 462.80153 227.692133 
L 469.119212 227.767036 
L 472.278053 227.61265 
L 475.436894 227.190499 
L 478.595736 227.635276 
L 481.754577 227.886107 
L 488.072259 227.319738 
L 491.2311 227.767018 
L 494.389941 227.435283 
L 497.548782 226.320611 
L 500.707624 225.498991 
L 503.866465 225.497694 
L 507.025306 224.703642 
L 510.184147 224.521214 
L 513.342988 225.59027 
L 516.501829 226.197529 
L 519.660671 225.82822 
L 522.819512 226.326843 
L 525.978353 226.416371 
L 529.137194 226.315063 
L 532.296035 226.435865 
L 535.454876 226.857357 
L 538.613718 226.557521 
L 541.772559 226.076012 
L 544.9314 225.964886 
L 548.090241 225.495273 
L 551.249082 224.760194 
L 554.407923 224.740935 
L 557.566764 225.509306 
L 563.884447 225.161998 
L 567.043288 225.266272 
L 570.202129 224.97573 
L 573.36097 224.075586 
L 576.519811 224.073124 
L 579.678653 224.395034 
L 585.996335 224.044205 
L 589.155176 223.923819 
L 592.314017 223.328046 
L 595.472858 222.616482 
L 598.6317 223.102915 
L 604.949382 223.509608 
L 611.267064 223.667744 
L 614.425905 223.197709 
L 617.584747 223.124655 
L 620.743588 222.868349 
L 627.06127 223.275209 
L 630.220111 223.117301 
L 633.378952 222.733529 
L 636.537793 222.498428 
L 642.855476 221.842826 
L 646.014317 222.06925 
L 649.173158 222.028518 
L 655.49084 222.678004 
L 658.649682 222.865619 
L 661.808523 223.417114 
L 668.126205 223.686079 
L 671.285046 223.315023 
L 674.443887 223.368428 
L 677.602729 222.716301 
L 680.76157 222.521468 
L 683.920411 222.089939 
L 687.079252 222.283477 
L 690.238093 222.609381 
L 693.396934 222.450586 
L 696.555775 222.581789 
L 699.714617 223.22527 
L 702.873458 223.05712 
L 706.032299 222.5481 
L 709.19114 222.681595 
L 712.349981 223.124556 
L 715.508822 222.614759 
L 721.826505 223.089289 
L 724.985346 223.426189 
L 728.144187 223.567298 
L 731.303028 224.029495 
L 734.461869 224.211264 
L 743.938393 223.382683 
L 747.097234 223.203153 
L 750.256075 223.303166 
L 753.414916 223.588006 
L 756.573757 224.198771 
L 759.732599 224.191425 
L 766.050281 224.478605 
L 769.209122 224.884491 
L 775.526804 225.107385 
L 778.685646 225.423496 
L 781.844487 225.119845 
L 788.162169 224.964477 
L 791.32101 225.141883 
L 794.479851 224.983435 
L 797.638693 225.518142 
L 803.956375 225.658106 
L 807.115216 225.55646 
L 810.274057 225.718279 
L 816.59174 225.880275 
L 819.750581 225.419406 
L 822.909422 225.575995 
L 826.068263 225.444302 
L 829.227104 225.148427 
L 832.385945 224.981147 
L 835.544786 225.461621 
L 838.703628 225.490868 
L 845.02131 226.027085 
L 851.338992 225.55756 
L 857.656675 225.678381 
L 860.815516 225.631851 
L 863.974357 226.17671 
L 867.133198 226.53315 
L 870.292039 225.781583 
L 882.927404 225.597563 
L 886.086245 226.422889 
L 889.245086 226.772627 
L 895.562768 227.019044 
L 898.72161 227.327947 
L 905.039292 227.200449 
L 911.356974 227.579319 
L 914.515815 227.041451 
L 920.833498 227.123079 
L 923.992339 226.988677 
L 927.15118 226.998581 
L 930.310021 227.146831 
L 942.945386 226.882408 
L 946.104227 227.016409 
L 949.263068 226.439512 
L 949.263068 226.439512 
" style="fill:none;stroke:#96c6ad;stroke-linecap:square;stroke-width:2;"/>
   </g>
   <g id="line2d_18">
    <path clip-path="url(#p902e727987)" d="M 86.899432 81.792552 
L 93.217114 81.792552 
L 96.375955 109.582026 
L 99.534796 130.505865 
L 102.693638 162.265263 
L 105.852479 184.496842 
L 109.01132 228.96 
L 156.393937 228.96 
L 159.552778 222.60812 
L 172.188143 222.60812 
L 175.346984 228.96 
L 263.794537 228.96 
L 266.953378 220.067368 
L 279.588743 220.067368 
L 282.747584 228.96 
L 409.10123 228.96 
L 412.260071 220.067368 
L 415.418912 220.067368 
L 418.577753 219.693728 
L 421.736595 219.693728 
L 424.895436 219.310425 
L 428.054277 228.203057 
L 431.213118 228.203057 
L 434.371959 228.576697 
L 437.5308 228.576697 
L 443.848483 227.631908 
L 447.007324 227.516118 
L 450.166165 226.927202 
L 453.325006 226.634682 
L 456.483847 227.211983 
L 459.642689 227.064048 
L 462.80153 226.624048 
L 465.960371 226.922987 
L 472.278053 227.167542 
L 475.436894 227.815064 
L 484.913418 227.22563 
L 488.072259 227.32084 
L 491.2311 226.691644 
L 494.389941 227.327977 
L 497.548782 226.629378 
L 500.707624 226.942499 
L 503.866465 225.762061 
L 510.184147 225.793441 
L 513.342988 226.947262 
L 516.501829 226.598075 
L 522.819512 227.539896 
L 529.137194 227.286657 
L 532.296035 227.635844 
L 535.454876 228.253075 
L 538.613718 227.841736 
L 541.772559 227.711042 
L 544.9314 226.594958 
L 548.090241 224.649695 
L 551.249082 223.941191 
L 554.407923 223.814537 
L 557.566764 223.137357 
L 560.725606 221.952143 
L 563.884447 223.056211 
L 567.043288 223.547039 
L 570.202129 223.581402 
L 573.36097 223.962605 
L 576.519811 225.190128 
L 579.678653 219.606746 
L 582.837494 219.467527 
L 585.996335 218.726474 
L 589.155176 211.068708 
L 592.314017 210.997313 
L 595.472858 216.415935 
L 598.6317 216.319265 
L 601.790541 215.432304 
L 604.949382 221.731606 
L 608.108223 221.718116 
L 611.267064 221.436978 
L 614.425905 220.853619 
L 617.584747 221.760691 
L 620.743588 220.595508 
L 627.06127 219.021042 
L 630.220111 218.305253 
L 633.378952 217.445798 
L 636.537793 219.194904 
L 639.696635 220.171983 
L 642.855476 221.387109 
L 646.014317 221.502281 
L 649.173158 221.878277 
L 652.331999 219.946736 
L 655.49084 219.232955 
L 658.649682 217.986252 
L 661.808523 216.904721 
L 664.967364 218.169878 
L 668.126205 218.17814 
L 674.443887 214.138136 
L 677.602729 213.693774 
L 680.76157 210.03749 
L 683.920411 206.948436 
L 687.079252 208.692251 
L 690.238093 209.734676 
L 693.396934 209.719913 
L 696.555775 212.017794 
L 699.714617 213.260397 
L 702.873458 211.02899 
L 706.032299 210.130333 
L 709.19114 210.58539 
L 712.349981 207.363574 
L 715.508822 206.067832 
L 721.826505 205.794836 
L 724.985346 207.443949 
L 728.144187 211.440781 
L 731.303028 216.745128 
L 734.461869 218.918903 
L 737.620711 222.653794 
L 743.938393 223.455878 
L 747.097234 224.2071 
L 750.256075 225.900226 
L 756.573757 226.152967 
L 759.732599 226.332661 
L 762.89144 225.865258 
L 766.050281 225.567206 
L 769.209122 225.020705 
L 772.367963 224.847854 
L 775.526804 224.267681 
L 778.685646 224.112861 
L 781.844487 223.358983 
L 785.003328 222.916602 
L 788.162169 221.819195 
L 791.32101 222.560757 
L 794.479851 220.770017 
L 800.797534 221.615533 
L 803.956375 222.934582 
L 807.115216 222.490859 
L 810.274057 225.014638 
L 813.432898 225.866921 
L 816.59174 225.964197 
L 819.750581 225.537038 
L 822.909422 225.453172 
L 826.068263 225.570963 
L 832.385945 224.61215 
L 835.544786 224.806524 
L 838.703628 225.558448 
L 841.862469 225.66289 
L 845.02131 226.035018 
L 848.180151 226.892317 
L 851.338992 226.82089 
L 854.497833 226.385087 
L 857.656675 225.698252 
L 860.815516 225.783272 
L 863.974357 224.431412 
L 867.133198 225.349756 
L 870.292039 225.434399 
L 873.45088 224.80151 
L 876.609722 221.897496 
L 879.768563 223.274528 
L 882.927404 221.368964 
L 886.086245 219.608964 
L 889.245086 216.014141 
L 892.403927 213.984061 
L 895.562768 208.455842 
L 898.72161 209.373336 
L 901.880451 209.817968 
L 905.039292 212.849547 
L 908.198133 218.321935 
L 911.356974 221.105926 
L 914.515815 220.025943 
L 917.674657 219.581311 
L 920.833498 220.294624 
L 923.992339 220.294624 
L 927.15118 223.361048 
L 930.310021 222.253162 
L 933.468862 220.030004 
L 936.627704 221.337744 
L 939.786545 218.997578 
L 939.786545 218.997578 
" style="fill:none;stroke:#525886;stroke-linecap:square;stroke-width:2;"/>
   </g>
   <g id="line2d_19">
    <path clip-path="url(#p902e727987)" d="M 396.465865 228.778815 
L 402.783548 228.783227 
L 418.577753 228.685674 
L 424.895436 228.785839 
L 443.848483 228.331636 
L 447.007324 228.016039 
L 450.166165 228.043077 
L 453.325006 228.236395 
L 456.483847 228.298801 
L 459.642689 227.967352 
L 462.80153 228.291789 
L 465.960371 228.346883 
L 469.119212 228.220267 
L 472.278053 228.222338 
L 475.436894 228.584597 
L 488.072259 228.619842 
L 494.389941 228.438233 
L 510.184147 228.439178 
L 516.501829 228.654982 
L 522.819512 228.695553 
L 535.454876 228.736719 
L 544.9314 228.731671 
L 557.566764 228.709598 
L 560.725606 228.777403 
L 570.202129 228.611051 
L 573.36097 228.687448 
L 576.519811 228.572926 
L 585.996335 228.546107 
L 589.155176 228.481039 
L 608.108223 228.722408 
L 630.220111 228.656747 
L 664.967364 228.335596 
L 668.126205 228.582971 
L 671.285046 228.696832 
L 680.76157 228.614291 
L 690.238093 228.285855 
L 693.396934 228.395529 
L 699.714617 228.373315 
L 706.032299 228.284344 
L 712.349981 228.262762 
L 715.508822 228.282474 
L 718.667664 228.188508 
L 721.826505 228.40099 
L 731.303028 228.410554 
L 734.461869 228.520457 
L 747.097234 228.395771 
L 753.414916 228.036323 
L 759.732599 228.094444 
L 762.89144 227.857544 
L 769.209122 227.867318 
L 772.367963 227.691877 
L 775.526804 227.749734 
L 778.685646 228.061842 
L 788.162169 228.48769 
L 791.32101 227.894239 
L 794.479851 227.80245 
L 797.638693 227.546349 
L 800.797534 227.689041 
L 803.956375 227.52444 
L 807.115216 227.975723 
L 813.432898 228.39264 
L 816.59174 228.300034 
L 819.750581 228.360769 
L 822.909422 228.299133 
L 826.068263 227.822742 
L 829.227104 227.924034 
L 832.385945 227.801436 
L 835.544786 227.81241 
L 841.862469 228.047889 
L 845.02131 227.924089 
L 848.180151 228.024972 
L 854.497833 227.92115 
L 857.656675 228.171197 
L 860.815516 227.935446 
L 863.974357 227.903156 
L 870.292039 228.024487 
L 873.45088 228.043929 
L 876.609722 228.437661 
L 886.086245 228.744634 
L 895.562768 228.901422 
L 917.674657 228.729682 
L 936.627704 228.933891 
L 942.945386 228.882151 
L 942.945386 228.882151 
" style="fill:none;stroke:#937252;stroke-linecap:square;stroke-width:2;"/>
   </g>
   <g id="line2d_20">
    <path clip-path="url(#p902e727987)" d="M 86.899432 197.653918 
L 90.058273 204.674416 
L 93.217114 210.395779 
L 96.375955 208.807809 
L 99.534796 200.67234 
L 102.693638 195.44138 
L 105.852479 184.708894 
L 109.01132 182.384023 
L 112.170161 195.087782 
L 115.329002 205.440723 
L 118.487843 182.088224 
L 121.646685 176.147026 
L 124.805526 146.504921 
L 131.123208 91.953484 
L 134.282049 120.536942 
L 137.44089 111.273784 
L 140.599732 123.624662 
L 143.758573 138.072074 
L 146.917414 160.303653 
L 150.076255 154.375232 
L 153.235096 177.841899 
L 156.393937 196.031373 
L 159.552778 193.415893 
L 162.71162 182.711799 
L 165.870461 181.229694 
L 169.029302 167.531448 
L 172.188143 140.449343 
L 175.346984 156.142222 
L 178.505825 174.256842 
L 181.664667 179.957247 
L 184.823508 196.125668 
L 187.982349 220.409393 
L 191.14119 211.048728 
L 194.300031 203.353181 
L 197.458872 190.24225 
L 200.617714 190.24225 
L 203.776555 184.211822 
L 206.935396 179.531489 
L 210.094237 175.370194 
L 213.253078 172.194254 
L 216.411919 159.490495 
L 219.57076 172.361409 
L 222.729602 180.844511 
L 229.047284 190.780461 
L 232.206125 176.31229 
L 235.364966 151.780893 
L 238.523807 119.989735 
L 241.682649 106.308763 
L 248.000331 132.795686 
L 251.159172 146.211294 
L 254.318013 157.623505 
L 257.476854 154.431278 
L 260.635696 136.880032 
L 263.794537 113.589806 
L 266.953378 109.884543 
L 270.112219 109.14349 
L 273.27106 110.17189 
L 276.429901 100.551207 
L 279.588743 115.372259 
L 282.747584 99.411126 
L 285.906425 107.367691 
L 289.065266 130.052975 
L 292.224107 144.256484 
L 295.382948 137.717784 
L 298.541789 133.702717 
L 301.700631 116.15147 
L 304.859472 80.580944 
L 308.018313 85.465154 
L 311.177154 99.41438 
L 314.335995 116.813007 
L 317.494836 122.769794 
L 320.653678 129.184151 
L 323.812519 106.981863 
L 326.97136 86.232389 
L 330.130201 64.725753 
L 333.289042 50.578385 
L 336.447883 46.387185 
L 339.606725 40.886264 
L 342.765566 48.558339 
L 345.924407 60.785707 
L 349.083248 74.680444 
L 352.242089 80.238339 
L 355.40093 91.324004 
L 358.559771 86.61614 
L 361.718613 73.094468 
L 364.877454 70.31552 
L 368.036295 61.978678 
L 371.195136 48.804409 
L 374.353977 48.648398 
L 377.512818 57.917073 
L 380.67166 55.477022 
L 383.830501 54.254285 
L 386.989342 55.217498 
L 390.148183 52.192405 
L 393.307024 47.072088 
L 396.465865 52.291087 
L 399.624707 58.515929 
L 402.783548 60.119761 
L 405.942389 54.180217 
L 409.10123 53.852479 
L 412.260071 47.804182 
L 415.418912 40.972038 
L 418.577753 43.944174 
L 421.736595 49.05442 
L 424.895436 49.862841 
L 428.054277 46.222376 
L 431.213118 44.946532 
L 434.371959 37.90172 
L 437.5308 36.642415 
L 440.689642 38.010512 
L 443.848483 50.805156 
L 447.007324 52.508818 
L 450.166165 55.002519 
L 453.325006 55.108763 
L 456.483847 53.184876 
L 459.642689 41.742152 
L 462.80153 39.937895 
L 465.960371 37.303041 
L 469.119212 37.670336 
L 472.278053 36.133741 
L 475.436894 51.957037 
L 478.595736 61.507904 
L 481.754577 69.906501 
L 484.913418 82.854249 
L 488.072259 90.474485 
L 491.2311 86.92258 
L 494.389941 92.125494 
L 497.548782 103.336756 
L 500.707624 105.784476 
L 503.866465 116.610022 
L 507.025306 115.781355 
L 510.184147 109.791947 
L 513.342988 99.533467 
L 516.501829 106.431644 
L 519.660671 113.829451 
L 522.819512 114.614095 
L 525.978353 121.933806 
L 529.137194 134.637566 
L 532.296035 116.78234 
L 535.454876 112.268256 
L 538.613718 124.798782 
L 541.772559 132.403048 
L 544.9314 131.456682 
L 548.090241 151.228382 
L 551.249082 155.765439 
L 554.407923 156.326842 
L 557.566764 138.499022 
L 560.725606 124.176446 
L 563.884447 114.795208 
L 567.043288 107.629327 
L 570.202129 98.779754 
L 573.36097 120.02465 
L 576.519811 127.353742 
L 579.678653 125.330705 
L 582.837494 117.198197 
L 585.996335 118.368747 
L 589.155176 111.874786 
L 592.314017 119.092831 
L 595.472858 133.018313 
L 598.6317 134.705531 
L 601.790541 133.168901 
L 604.949382 132.496725 
L 608.108223 127.767045 
L 611.267064 116.206624 
L 614.425905 124.559781 
L 617.584747 129.576137 
L 620.743588 141.693853 
L 623.902429 137.390665 
L 627.06127 133.34856 
L 630.220111 114.408937 
L 633.378952 102.552095 
L 636.537793 87.596305 
L 639.696635 86.048368 
L 642.855476 75.943105 
L 646.014317 80.442353 
L 649.173158 89.334985 
L 652.331999 86.556037 
L 655.49084 85.362014 
L 658.649682 98.296751 
L 661.808523 99.778856 
L 664.967364 86.439908 
L 668.126205 76.810533 
L 671.285046 78.059045 
L 674.443887 73.652706 
L 677.602729 69.542449 
L 680.76157 72.055584 
L 683.920411 72.272396 
L 687.079252 66.899765 
L 690.238093 65.514265 
L 693.396934 81.305852 
L 696.555775 83.980085 
L 699.714617 88.76107 
L 702.873458 90.087164 
L 706.032299 97.091634 
L 709.19114 96.091129 
L 712.349981 101.966617 
L 715.508822 102.611011 
L 718.667664 111.04444 
L 721.826505 107.339177 
L 724.985346 105.074594 
L 728.144187 112.855646 
L 731.303028 125.472194 
L 734.461869 121.506355 
L 737.620711 129.811256 
L 740.779552 112.175448 
L 743.938393 96.034201 
L 747.097234 87.007846 
L 750.256075 94.553109 
L 753.414916 91.663593 
L 756.573757 96.313335 
L 759.732599 99.750823 
L 762.89144 89.300957 
L 766.050281 79.815483 
L 769.209122 65.539686 
L 772.367963 62.49947 
L 775.526804 54.877215 
L 781.844487 70.291522 
L 785.003328 75.046102 
L 788.162169 100.317897 
L 791.32101 115.138949 
L 794.479851 126.009399 
L 797.638693 116.268588 
L 800.797534 112.963894 
L 803.956375 96.317059 
L 807.115216 81.209147 
L 810.274057 63.389113 
L 813.432898 58.210166 
L 816.59174 63.101113 
L 819.750581 56.528299 
L 822.909422 63.544717 
L 826.068263 80.513138 
L 829.227104 98.16241 
L 832.385945 99.256888 
L 835.544786 109.928046 
L 838.703628 112.091118 
L 841.862469 100.512171 
L 845.02131 83.76197 
L 848.180151 74.071282 
L 851.338992 71.79872 
L 854.497833 75.355773 
L 857.656675 79.987352 
L 860.815516 105.488281 
L 863.974357 112.898807 
L 867.133198 125.249684 
L 870.292039 135.666767 
L 873.45088 154.325414 
L 876.609722 135.799098 
L 882.927404 165.441203 
L 886.086245 133.681805 
L 889.245086 95.570526 
L 892.403927 91.865263 
L 895.562768 62.223158 
L 898.72161 17.76 
L 905.039292 17.76 
L 908.198133 51.107368 
L 911.356974 51.107368 
L 914.515815 72.168864 
L 917.674657 116.632022 
L 920.833498 116.632022 
L 920.833498 116.632022 
" style="fill:none;stroke:#d18cad;stroke-linecap:square;stroke-width:2;"/>
   </g>
   <g id="line2d_21">
    <path clip-path="url(#p902e727987)" d="M 402.783548 214.138947 
L 405.942389 228.96 
L 431.213118 228.96 
L 434.371959 220.875789 
L 437.5308 216.833684 
L 440.689642 208.749474 
L 447.007324 208.749474 
L 450.166165 211.498105 
L 453.325006 215.540211 
L 456.483847 222.142316 
L 462.80153 222.142316 
L 465.960371 227.477895 
L 469.119212 218.585263 
L 472.278053 220.067368 
L 475.436894 212.656842 
L 478.595736 212.656842 
L 481.754577 207.716491 
L 484.913418 213.18888 
L 488.072259 213.18888 
L 491.2311 215.659055 
L 494.389941 202.320108 
L 497.548782 207.260459 
L 500.707624 200.8 
L 503.866465 192.95356 
L 507.025306 197.893911 
L 510.184147 196.411806 
L 513.342988 192.706543 
L 516.501829 202.587245 
L 519.660671 210.433684 
L 522.819512 210.433684 
L 525.978353 221.834494 
L 529.137194 225.539757 
L 532.296035 214.423968 
L 538.613718 184.781862 
L 541.772559 179.309474 
L 544.9314 174.863158 
L 548.090241 185.978947 
L 554.407923 215.621053 
L 557.566764 224.513684 
L 560.725606 228.96 
L 563.884447 223.402105 
L 567.043288 223.402105 
L 570.202129 214.509474 
L 573.36097 214.509474 
L 576.519811 199.688421 
L 579.678653 205.246316 
L 582.837494 205.246316 
L 585.996335 199.317895 
L 589.155176 199.317895 
L 592.314017 214.138947 
L 598.6317 214.138947 
L 601.790541 228.96 
L 614.425905 228.96 
L 617.584747 214.138947 
L 620.743588 214.138947 
L 623.902429 205.246316 
L 630.220111 205.246316 
L 633.378952 220.067368 
L 636.537793 220.067368 
L 639.696635 228.96 
L 646.014317 228.96 
L 649.173158 221.549474 
L 652.331999 215.621053 
L 658.649682 215.621053 
L 661.808523 209.269173 
L 664.967364 216.679699 
L 668.126205 218.161805 
L 671.285046 212.930845 
L 674.443887 212.930845 
L 677.602729 219.282724 
L 680.76157 219.282724 
L 683.920411 223.72904 
L 687.079252 228.96 
L 690.238093 223.402105 
L 696.555775 223.402105 
L 699.714617 219.981862 
L 702.873458 210.101161 
L 706.032299 215.659055 
L 712.349981 215.659055 
L 715.508822 207.963509 
L 718.667664 213.397895 
L 721.826505 213.397895 
L 724.985346 202.282105 
L 728.144187 200.429474 
L 731.303028 211.545263 
L 734.461869 215.991579 
L 737.620711 215.991579 
L 740.779552 227.107368 
L 743.938393 228.96 
L 750.256075 228.96 
L 753.414916 224.019649 
L 756.573757 220.843709 
L 759.732599 215.285815 
L 766.050281 215.285815 
L 769.209122 212.815639 
L 772.367963 212.571336 
L 775.526804 214.087126 
L 778.685646 214.087126 
L 781.844487 211.969832 
L 785.003328 219.380359 
L 788.162169 222.800602 
L 791.32101 226.842707 
L 794.479851 223.422464 
L 797.638693 221.497652 
L 800.797534 221.497652 
L 803.956375 220.386073 
L 807.115216 217.607126 
L 810.274057 221.027368 
L 813.432898 213.953684 
L 816.59174 213.953684 
L 819.750581 213.41848 
L 822.909422 216.197427 
L 826.068263 213.581947 
L 829.227104 224.697736 
L 832.385945 224.697736 
L 835.544786 226.34452 
L 838.703628 222.924277 
L 841.862469 225.539757 
L 851.338992 225.539757 
L 854.497833 228.96 
L 863.974357 228.96 
L 867.133198 220.067368 
L 879.768563 220.067368 
L 882.927404 228.96 
L 886.086245 228.96 
L 892.403927 199.317895 
L 895.562768 199.317895 
L 898.72161 184.496842 
L 905.039292 184.496842 
L 908.198133 192.966015 
L 911.356974 192.966015 
L 914.515815 207.787068 
L 917.674657 207.787068 
L 920.833498 222.60812 
L 923.992339 228.96 
L 946.104227 228.96 
L 949.263068 225.254737 
L 949.263068 225.254737 
" style="fill:none;stroke:#a4a86f;stroke-linecap:square;stroke-width:2;"/>
   </g>
   <g id="line2d_22">
    <path clip-path="url(#p902e727987)" d="M 646.014317 221.055439 
L 649.173158 224.019649 
L 652.331999 228.96 
L 655.49084 228.96 
L 658.649682 228.96 
L 661.808523 228.96 
L 664.967364 227.689624 
L 668.126205 227.689624 
L 671.285046 227.378693 
L 674.443887 226.974482 
L 677.602729 226.974482 
L 680.76157 228.244858 
L 683.920411 228.244858 
L 687.079252 228.555789 
L 690.238093 228.96 
L 693.396934 228.96 
L 696.555775 228.96 
L 699.714617 228.96 
L 702.873458 227.313216 
L 706.032299 226.04284 
L 709.19114 226.04284 
L 712.349981 225.775794 
L 715.508822 225.775794 
L 718.667664 227.422578 
L 721.826505 228.692954 
L 724.985346 228.692954 
L 728.144187 228.96 
L 731.303028 228.96 
L 734.461869 228.96 
L 737.620711 228.96 
L 740.779552 228.53247 
L 743.938393 228.53247 
L 747.097234 228.53247 
L 750.256075 228.53247 
L 753.414916 228.53247 
L 756.573757 228.673141 
L 759.732599 228.176346 
L 762.89144 228.176346 
L 766.050281 228.176346 
L 769.209122 228.176346 
L 772.367963 227.095108 
L 775.526804 227.591903 
L 778.685646 227.591903 
L 781.844487 227.591903 
L 785.003328 227.591903 
L 788.162169 228.96 
L 791.32101 228.96 
L 794.479851 228.96 
L 797.638693 228.96 
L 800.797534 228.96 
L 803.956375 228.96 
L 807.115216 228.96 
L 810.274057 228.96 
L 813.432898 228.96 
L 816.59174 228.460414 
" style="fill:none;stroke:#d3d3d3;stroke-linecap:square;stroke-width:2;"/>
   </g>
   <g id="patch_3">
    <path d="M 43.78125 228.96 
L 43.78125 7.2 
" style="fill:none;stroke:#000000;stroke-linecap:square;stroke-linejoin:miter;stroke-width:0.8;"/>
   </g>
   <g id="patch_4">
    <path d="M 43.78125 228.96 
L 992.38125 228.96 
" style="fill:none;stroke:#000000;stroke-linecap:square;stroke-linejoin:miter;stroke-width:0.8;"/>
   </g>
   <g id="legend_1">
    <g id="line2d_23">
     <path d="M 898.57 82.26 
L 914.57 82.26 
" style="fill:none;stroke:#947383;stroke-linecap:square;stroke-width:2;"/>
    </g>
    <g id="line2d_24"/>
    <g id="text_18">
     <!-- North America -->
     <g transform="translate(920.97 85.06)scale(0.08 -0.08)">
      <defs>
       <path d="M 9.8125 72.90625 
L 23.09375 72.90625 
L 55.421875 11.921875 
L 55.421875 72.90625 
L 64.984375 72.90625 
L 64.984375 0 
L 51.703125 0 
L 19.390625 60.984375 
L 19.390625 0 
L 9.8125 0 
z
" id="DejaVuSans-78"/>
       <path d="M 54.890625 33.015625 
L 54.890625 0 
L 45.90625 0 
L 45.90625 32.71875 
Q 45.90625 40.484375 42.875 44.328125 
Q 39.84375 48.1875 33.796875 48.1875 
Q 26.515625 48.1875 22.3125 43.546875 
Q 18.109375 38.921875 18.109375 30.90625 
L 18.109375 0 
L 9.078125 0 
L 9.078125 75.984375 
L 18.109375 75.984375 
L 18.109375 46.1875 
Q 21.34375 51.125 25.703125 53.5625 
Q 30.078125 56 35.796875 56 
Q 45.21875 56 50.046875 50.171875 
Q 54.890625 44.34375 54.890625 33.015625 
z
" id="DejaVuSans-104"/>
       <path d="M 34.1875 63.1875 
L 20.796875 26.90625 
L 47.609375 26.90625 
z
M 28.609375 72.90625 
L 39.796875 72.90625 
L 67.578125 0 
L 57.328125 0 
L 50.6875 18.703125 
L 17.828125 18.703125 
L 11.1875 0 
L 0.78125 0 
z
" id="DejaVuSans-65"/>
       <path d="M 52 44.1875 
Q 55.375 50.25 60.0625 53.125 
Q 64.75 56 71.09375 56 
Q 79.640625 56 84.28125 50.015625 
Q 88.921875 44.046875 88.921875 33.015625 
L 88.921875 0 
L 79.890625 0 
L 79.890625 32.71875 
Q 79.890625 40.578125 77.09375 44.375 
Q 74.3125 48.1875 68.609375 48.1875 
Q 61.625 48.1875 57.5625 43.546875 
Q 53.515625 38.921875 53.515625 30.90625 
L 53.515625 0 
L 44.484375 0 
L 44.484375 32.71875 
Q 44.484375 40.625 41.703125 44.40625 
Q 38.921875 48.1875 33.109375 48.1875 
Q 26.21875 48.1875 22.15625 43.53125 
Q 18.109375 38.875 18.109375 30.90625 
L 18.109375 0 
L 9.078125 0 
L 9.078125 54.6875 
L 18.109375 54.6875 
L 18.109375 46.1875 
Q 21.1875 51.21875 25.484375 53.609375 
Q 29.78125 56 35.6875 56 
Q 41.65625 56 45.828125 52.96875 
Q 50 49.953125 52 44.1875 
z
" id="DejaVuSans-109"/>
      </defs>
      <use xlink:href="#DejaVuSans-78"/>
      <use x="74.804688" xlink:href="#DejaVuSans-111"/>
      <use x="135.986328" xlink:href="#DejaVuSans-114"/>
      <use x="177.099609" xlink:href="#DejaVuSans-116"/>
      <use x="216.308594" xlink:href="#DejaVuSans-104"/>
      <use x="279.6875" xlink:href="#DejaVuSans-32"/>
      <use x="311.474609" xlink:href="#DejaVuSans-65"/>
      <use x="379.882812" xlink:href="#DejaVuSans-109"/>
      <use x="477.294922" xlink:href="#DejaVuSans-101"/>
      <use x="538.818359" xlink:href="#DejaVuSans-114"/>
      <use x="579.931641" xlink:href="#DejaVuSans-105"/>
      <use x="607.714844" xlink:href="#DejaVuSans-99"/>
      <use x="662.695312" xlink:href="#DejaVuSans-97"/>
     </g>
    </g>
    <g id="line2d_25">
     <path d="M 898.57 94.0025 
L 914.57 94.0025 
" style="fill:none;stroke:#96c6ad;stroke-linecap:square;stroke-width:2;"/>
    </g>
    <g id="line2d_26"/>
    <g id="text_19">
     <!-- Europe -->
     <g transform="translate(920.97 96.8025)scale(0.08 -0.08)">
      <defs>
       <path d="M 9.8125 72.90625 
L 55.90625 72.90625 
L 55.90625 64.59375 
L 19.671875 64.59375 
L 19.671875 43.015625 
L 54.390625 43.015625 
L 54.390625 34.71875 
L 19.671875 34.71875 
L 19.671875 8.296875 
L 56.78125 8.296875 
L 56.78125 0 
L 9.8125 0 
z
" id="DejaVuSans-69"/>
       <path d="M 18.109375 8.203125 
L 18.109375 -20.796875 
L 9.078125 -20.796875 
L 9.078125 54.6875 
L 18.109375 54.6875 
L 18.109375 46.390625 
Q 20.953125 51.265625 25.265625 53.625 
Q 29.59375 56 35.59375 56 
Q 45.5625 56 51.78125 48.09375 
Q 58.015625 40.1875 58.015625 27.296875 
Q 58.015625 14.40625 51.78125 6.484375 
Q 45.5625 -1.421875 35.59375 -1.421875 
Q 29.59375 -1.421875 25.265625 0.953125 
Q 20.953125 3.328125 18.109375 8.203125 
z
M 48.6875 27.296875 
Q 48.6875 37.203125 44.609375 42.84375 
Q 40.53125 48.484375 33.40625 48.484375 
Q 26.265625 48.484375 22.1875 42.84375 
Q 18.109375 37.203125 18.109375 27.296875 
Q 18.109375 17.390625 22.1875 11.75 
Q 26.265625 6.109375 33.40625 6.109375 
Q 40.53125 6.109375 44.609375 11.75 
Q 48.6875 17.390625 48.6875 27.296875 
z
" id="DejaVuSans-112"/>
      </defs>
      <use xlink:href="#DejaVuSans-69"/>
      <use x="63.183594" xlink:href="#DejaVuSans-117"/>
      <use x="126.5625" xlink:href="#DejaVuSans-114"/>
      <use x="165.425781" xlink:href="#DejaVuSans-111"/>
      <use x="226.607422" xlink:href="#DejaVuSans-112"/>
      <use x="290.083984" xlink:href="#DejaVuSans-101"/>
     </g>
    </g>
    <g id="line2d_27">
     <path d="M 898.57 105.745 
L 914.57 105.745 
" style="fill:none;stroke:#525886;stroke-linecap:square;stroke-width:2;"/>
    </g>
    <g id="line2d_28"/>
    <g id="text_20">
     <!-- Asia -->
     <g transform="translate(920.97 108.545)scale(0.08 -0.08)">
      <defs>
       <path d="M 44.28125 53.078125 
L 44.28125 44.578125 
Q 40.484375 46.53125 36.375 47.5 
Q 32.28125 48.484375 27.875 48.484375 
Q 21.1875 48.484375 17.84375 46.4375 
Q 14.5 44.390625 14.5 40.28125 
Q 14.5 37.15625 16.890625 35.375 
Q 19.28125 33.59375 26.515625 31.984375 
L 29.59375 31.296875 
Q 39.15625 29.25 43.1875 25.515625 
Q 47.21875 21.78125 47.21875 15.09375 
Q 47.21875 7.46875 41.1875 3.015625 
Q 35.15625 -1.421875 24.609375 -1.421875 
Q 20.21875 -1.421875 15.453125 -0.5625 
Q 10.6875 0.296875 5.421875 2 
L 5.421875 11.28125 
Q 10.40625 8.6875 15.234375 7.390625 
Q 20.0625 6.109375 24.8125 6.109375 
Q 31.15625 6.109375 34.5625 8.28125 
Q 37.984375 10.453125 37.984375 14.40625 
Q 37.984375 18.0625 35.515625 20.015625 
Q 33.0625 21.96875 24.703125 23.78125 
L 21.578125 24.515625 
Q 13.234375 26.265625 9.515625 29.90625 
Q 5.8125 33.546875 5.8125 39.890625 
Q 5.8125 47.609375 11.28125 51.796875 
Q 16.75 56 26.8125 56 
Q 31.78125 56 36.171875 55.265625 
Q 40.578125 54.546875 44.28125 53.078125 
z
" id="DejaVuSans-115"/>
      </defs>
      <use xlink:href="#DejaVuSans-65"/>
      <use x="68.408203" xlink:href="#DejaVuSans-115"/>
      <use x="120.507812" xlink:href="#DejaVuSans-105"/>
      <use x="148.291016" xlink:href="#DejaVuSans-97"/>
     </g>
    </g>
    <g id="line2d_29">
     <path d="M 898.57 117.4875 
L 914.57 117.4875 
" style="fill:none;stroke:#937252;stroke-linecap:square;stroke-width:2;"/>
    </g>
    <g id="line2d_30"/>
    <g id="text_21">
     <!-- United Kingdom -->
     <g transform="translate(920.97 120.2875)scale(0.08 -0.08)">
      <defs>
       <path d="M 8.6875 72.90625 
L 18.609375 72.90625 
L 18.609375 28.609375 
Q 18.609375 16.890625 22.84375 11.734375 
Q 27.09375 6.59375 36.625 6.59375 
Q 46.09375 6.59375 50.34375 11.734375 
Q 54.59375 16.890625 54.59375 28.609375 
L 54.59375 72.90625 
L 64.5 72.90625 
L 64.5 27.390625 
Q 64.5 13.140625 57.4375 5.859375 
Q 50.390625 -1.421875 36.625 -1.421875 
Q 22.796875 -1.421875 15.734375 5.859375 
Q 8.6875 13.140625 8.6875 27.390625 
z
" id="DejaVuSans-85"/>
       <path d="M 9.8125 72.90625 
L 19.671875 72.90625 
L 19.671875 42.09375 
L 52.390625 72.90625 
L 65.09375 72.90625 
L 28.90625 38.921875 
L 67.671875 0 
L 54.6875 0 
L 19.671875 35.109375 
L 19.671875 0 
L 9.8125 0 
z
" id="DejaVuSans-75"/>
      </defs>
      <use xlink:href="#DejaVuSans-85"/>
      <use x="73.193359" xlink:href="#DejaVuSans-110"/>
      <use x="136.572266" xlink:href="#DejaVuSans-105"/>
      <use x="164.355469" xlink:href="#DejaVuSans-116"/>
      <use x="203.564453" xlink:href="#DejaVuSans-101"/>
      <use x="265.087891" xlink:href="#DejaVuSans-100"/>
      <use x="328.564453" xlink:href="#DejaVuSans-32"/>
      <use x="360.351562" xlink:href="#DejaVuSans-75"/>
      <use x="425.927734" xlink:href="#DejaVuSans-105"/>
      <use x="453.710938" xlink:href="#DejaVuSans-110"/>
      <use x="517.089844" xlink:href="#DejaVuSans-103"/>
      <use x="580.566406" xlink:href="#DejaVuSans-100"/>
      <use x="644.042969" xlink:href="#DejaVuSans-111"/>
      <use x="705.224609" xlink:href="#DejaVuSans-109"/>
     </g>
    </g>
    <g id="line2d_31">
     <path d="M 898.57 129.23 
L 914.57 129.23 
" style="fill:none;stroke:#d18cad;stroke-linecap:square;stroke-width:2;"/>
    </g>
    <g id="line2d_32"/>
    <g id="text_22">
     <!-- Africa -->
     <g transform="translate(920.97 132.03)scale(0.08 -0.08)">
      <defs>
       <path d="M 37.109375 75.984375 
L 37.109375 68.5 
L 28.515625 68.5 
Q 23.6875 68.5 21.796875 66.546875 
Q 19.921875 64.59375 19.921875 59.515625 
L 19.921875 54.6875 
L 34.71875 54.6875 
L 34.71875 47.703125 
L 19.921875 47.703125 
L 19.921875 0 
L 10.890625 0 
L 10.890625 47.703125 
L 2.296875 47.703125 
L 2.296875 54.6875 
L 10.890625 54.6875 
L 10.890625 58.5 
Q 10.890625 67.625 15.140625 71.796875 
Q 19.390625 75.984375 28.609375 75.984375 
z
" id="DejaVuSans-102"/>
      </defs>
      <use xlink:href="#DejaVuSans-65"/>
      <use x="64.783203" xlink:href="#DejaVuSans-102"/>
      <use x="99.988281" xlink:href="#DejaVuSans-114"/>
      <use x="141.101562" xlink:href="#DejaVuSans-105"/>
      <use x="168.884766" xlink:href="#DejaVuSans-99"/>
      <use x="223.865234" xlink:href="#DejaVuSans-97"/>
     </g>
    </g>
    <g id="line2d_33">
     <path d="M 898.57 140.9725 
L 914.57 140.9725 
" style="fill:none;stroke:#a4a86f;stroke-linecap:square;stroke-width:2;"/>
    </g>
    <g id="line2d_34"/>
    <g id="text_23">
     <!-- Oceania -->
     <g transform="translate(920.97 143.7725)scale(0.08 -0.08)">
      <defs>
       <path d="M 39.40625 66.21875 
Q 28.65625 66.21875 22.328125 58.203125 
Q 16.015625 50.203125 16.015625 36.375 
Q 16.015625 22.609375 22.328125 14.59375 
Q 28.65625 6.59375 39.40625 6.59375 
Q 50.140625 6.59375 56.421875 14.59375 
Q 62.703125 22.609375 62.703125 36.375 
Q 62.703125 50.203125 56.421875 58.203125 
Q 50.140625 66.21875 39.40625 66.21875 
z
M 39.40625 74.21875 
Q 54.734375 74.21875 63.90625 63.9375 
Q 73.09375 53.65625 73.09375 36.375 
Q 73.09375 19.140625 63.90625 8.859375 
Q 54.734375 -1.421875 39.40625 -1.421875 
Q 24.03125 -1.421875 14.8125 8.828125 
Q 5.609375 19.09375 5.609375 36.375 
Q 5.609375 53.65625 14.8125 63.9375 
Q 24.03125 74.21875 39.40625 74.21875 
z
" id="DejaVuSans-79"/>
      </defs>
      <use xlink:href="#DejaVuSans-79"/>
      <use x="78.710938" xlink:href="#DejaVuSans-99"/>
      <use x="133.691406" xlink:href="#DejaVuSans-101"/>
      <use x="195.214844" xlink:href="#DejaVuSans-97"/>
      <use x="256.494141" xlink:href="#DejaVuSans-110"/>
      <use x="319.873047" xlink:href="#DejaVuSans-105"/>
      <use x="347.65625" xlink:href="#DejaVuSans-97"/>
     </g>
    </g>
    <g id="line2d_35">
     <path d="M 898.57 152.715 
L 914.57 152.715 
" style="fill:none;stroke:#d3d3d3;stroke-linecap:square;stroke-width:2;"/>
    </g>
    <g id="line2d_36"/>
    <g id="text_24">
     <!-- South America -->
     <g transform="translate(920.97 155.515)scale(0.08 -0.08)">
      <defs>
       <path d="M 53.515625 70.515625 
L 53.515625 60.890625 
Q 47.90625 63.578125 42.921875 64.890625 
Q 37.9375 66.21875 33.296875 66.21875 
Q 25.25 66.21875 20.875 63.09375 
Q 16.5 59.96875 16.5 54.203125 
Q 16.5 49.359375 19.40625 46.890625 
Q 22.3125 44.4375 30.421875 42.921875 
L 36.375 41.703125 
Q 47.40625 39.59375 52.65625 34.296875 
Q 57.90625 29 57.90625 20.125 
Q 57.90625 9.515625 50.796875 4.046875 
Q 43.703125 -1.421875 29.984375 -1.421875 
Q 24.8125 -1.421875 18.96875 -0.25 
Q 13.140625 0.921875 6.890625 3.21875 
L 6.890625 13.375 
Q 12.890625 10.015625 18.65625 8.296875 
Q 24.421875 6.59375 29.984375 6.59375 
Q 38.421875 6.59375 43.015625 9.90625 
Q 47.609375 13.234375 47.609375 19.390625 
Q 47.609375 24.75 44.3125 27.78125 
Q 41.015625 30.8125 33.5 32.328125 
L 27.484375 33.5 
Q 16.453125 35.6875 11.515625 40.375 
Q 6.59375 45.0625 6.59375 53.421875 
Q 6.59375 63.09375 13.40625 68.65625 
Q 20.21875 74.21875 32.171875 74.21875 
Q 37.3125 74.21875 42.625 73.28125 
Q 47.953125 72.359375 53.515625 70.515625 
z
" id="DejaVuSans-83"/>
      </defs>
      <use xlink:href="#DejaVuSans-83"/>
      <use x="63.476562" xlink:href="#DejaVuSans-111"/>
      <use x="124.658203" xlink:href="#DejaVuSans-117"/>
      <use x="188.037109" xlink:href="#DejaVuSans-116"/>
      <use x="227.246094" xlink:href="#DejaVuSans-104"/>
      <use x="290.625" xlink:href="#DejaVuSans-32"/>
      <use x="322.412109" xlink:href="#DejaVuSans-65"/>
      <use x="390.820312" xlink:href="#DejaVuSans-109"/>
      <use x="488.232422" xlink:href="#DejaVuSans-101"/>
      <use x="549.755859" xlink:href="#DejaVuSans-114"/>
      <use x="590.869141" xlink:href="#DejaVuSans-105"/>
      <use x="618.652344" xlink:href="#DejaVuSans-99"/>
      <use x="673.632812" xlink:href="#DejaVuSans-97"/>
     </g>
    </g>
   </g>
  </g>
 </g>
 <defs>
  <clipPath id="p902e727987">
   <rect height="221.76" width="948.6" x="43.78125" y="7.2"/>
  </clipPath>
 </defs>
</svg>
