<?xml version="1.0" encoding="utf-8" standalone="no"?>
<!DOCTYPE svg PUBLIC "-//W3C//DTD SVG 1.1//EN"
  "http://www.w3.org/Graphics/SVG/1.1/DTD/svg11.dtd">
<!-- Created with matplotlib (https://matplotlib.org/) -->
<svg height="298.620937pt" version="1.1" viewBox="0 0 999.58125 298.620937" width="999.58125pt" xmlns="http://www.w3.org/2000/svg" xmlns:xlink="http://www.w3.org/1999/xlink">
 <metadata>
  <rdf:RDF xmlns:cc="http://creativecommons.org/ns#" xmlns:dc="http://purl.org/dc/elements/1.1/" xmlns:rdf="http://www.w3.org/1999/02/22-rdf-syntax-ns#">
   <cc:Work>
    <dc:type rdf:resource="http://purl.org/dc/dcmitype/StillImage"/>
    <dc:date>2021-04-29T02:31:19.840744</dc:date>
    <dc:format>image/svg+xml</dc:format>
    <dc:creator>
     <cc:Agent>
      <dc:title>Matplotlib v3.3.3, https://matplotlib.org/</dc:title>
     </cc:Agent>
    </dc:creator>
   </cc:Work>
  </rdf:RDF>
 </metadata>
 <defs>
  <style type="text/css">*{stroke-linecap:butt;stroke-linejoin:round;}</style>
 </defs>
 <g id="figure_1">
  <g id="patch_1">
   <path d="M 0 298.620937 
L 999.58125 298.620937 
L 999.58125 0 
L 0 0 
z
" style="fill:#ffffff;"/>
  </g>
  <g id="axes_1">
   <g id="patch_2">
    <path d="M 43.78125 228.96 
L 992.38125 228.96 
L 992.38125 7.2 
L 43.78125 7.2 
z
" style="fill:#ffffff;"/>
   </g>
   <g id="matplotlib.axis_1">
    <g id="xtick_1">
     <g id="line2d_1">
      <defs>
       <path d="M 0 0 
L 0 3.5 
" id="m29cb15bedf" style="stroke:#000000;stroke-width:0.8;"/>
      </defs>
      <g>
       <use style="stroke:#000000;stroke-width:0.8;" x="115.373703" xlink:href="#m29cb15bedf" y="228.96"/>
      </g>
     </g>
     <g id="text_1">
      <!-- 2020-10 -->
      <g transform="translate(118.133078 277.742812)rotate(-90)scale(0.1 -0.1)">
       <defs>
        <path d="M 19.1875 8.296875 
L 53.609375 8.296875 
L 53.609375 0 
L 7.328125 0 
L 7.328125 8.296875 
Q 12.9375 14.109375 22.625 23.890625 
Q 32.328125 33.6875 34.8125 36.53125 
Q 39.546875 41.84375 41.421875 45.53125 
Q 43.3125 49.21875 43.3125 52.78125 
Q 43.3125 58.59375 39.234375 62.25 
Q 35.15625 65.921875 28.609375 65.921875 
Q 23.96875 65.921875 18.8125 64.3125 
Q 13.671875 62.703125 7.8125 59.421875 
L 7.8125 69.390625 
Q 13.765625 71.78125 18.9375 73 
Q 24.125 74.21875 28.421875 74.21875 
Q 39.75 74.21875 46.484375 68.546875 
Q 53.21875 62.890625 53.21875 53.421875 
Q 53.21875 48.921875 51.53125 44.890625 
Q 49.859375 40.875 45.40625 35.40625 
Q 44.1875 33.984375 37.640625 27.21875 
Q 31.109375 20.453125 19.1875 8.296875 
z
" id="DejaVuSans-50"/>
        <path d="M 31.78125 66.40625 
Q 24.171875 66.40625 20.328125 58.90625 
Q 16.5 51.421875 16.5 36.375 
Q 16.5 21.390625 20.328125 13.890625 
Q 24.171875 6.390625 31.78125 6.390625 
Q 39.453125 6.390625 43.28125 13.890625 
Q 47.125 21.390625 47.125 36.375 
Q 47.125 51.421875 43.28125 58.90625 
Q 39.453125 66.40625 31.78125 66.40625 
z
M 31.78125 74.21875 
Q 44.046875 74.21875 50.515625 64.515625 
Q 56.984375 54.828125 56.984375 36.375 
Q 56.984375 17.96875 50.515625 8.265625 
Q 44.046875 -1.421875 31.78125 -1.421875 
Q 19.53125 -1.421875 13.0625 8.265625 
Q 6.59375 17.96875 6.59375 36.375 
Q 6.59375 54.828125 13.0625 64.515625 
Q 19.53125 74.21875 31.78125 74.21875 
z
" id="DejaVuSans-48"/>
        <path d="M 4.890625 31.390625 
L 31.203125 31.390625 
L 31.203125 23.390625 
L 4.890625 23.390625 
z
" id="DejaVuSans-45"/>
        <path d="M 12.40625 8.296875 
L 28.515625 8.296875 
L 28.515625 63.921875 
L 10.984375 60.40625 
L 10.984375 69.390625 
L 28.421875 72.90625 
L 38.28125 72.90625 
L 38.28125 8.296875 
L 54.390625 8.296875 
L 54.390625 0 
L 12.40625 0 
z
" id="DejaVuSans-49"/>
       </defs>
       <use xlink:href="#DejaVuSans-50"/>
       <use x="63.623047" xlink:href="#DejaVuSans-48"/>
       <use x="127.246094" xlink:href="#DejaVuSans-50"/>
       <use x="190.869141" xlink:href="#DejaVuSans-48"/>
       <use x="254.492188" xlink:href="#DejaVuSans-45"/>
       <use x="290.576172" xlink:href="#DejaVuSans-49"/>
       <use x="354.199219" xlink:href="#DejaVuSans-48"/>
      </g>
     </g>
    </g>
    <g id="xtick_2">
     <g id="line2d_2">
      <g>
       <use style="stroke:#000000;stroke-width:0.8;" x="241.474046" xlink:href="#m29cb15bedf" y="228.96"/>
      </g>
     </g>
     <g id="text_2">
      <!-- 2020-11 -->
      <g transform="translate(244.233421 277.742812)rotate(-90)scale(0.1 -0.1)">
       <use xlink:href="#DejaVuSans-50"/>
       <use x="63.623047" xlink:href="#DejaVuSans-48"/>
       <use x="127.246094" xlink:href="#DejaVuSans-50"/>
       <use x="190.869141" xlink:href="#DejaVuSans-48"/>
       <use x="254.492188" xlink:href="#DejaVuSans-45"/>
       <use x="290.576172" xlink:href="#DejaVuSans-49"/>
       <use x="354.199219" xlink:href="#DejaVuSans-49"/>
      </g>
     </g>
    </g>
    <g id="xtick_3">
     <g id="line2d_3">
      <g>
       <use style="stroke:#000000;stroke-width:0.8;" x="363.506636" xlink:href="#m29cb15bedf" y="228.96"/>
      </g>
     </g>
     <g id="text_3">
      <!-- 2020-12 -->
      <g transform="translate(366.266011 277.742812)rotate(-90)scale(0.1 -0.1)">
       <use xlink:href="#DejaVuSans-50"/>
       <use x="63.623047" xlink:href="#DejaVuSans-48"/>
       <use x="127.246094" xlink:href="#DejaVuSans-50"/>
       <use x="190.869141" xlink:href="#DejaVuSans-48"/>
       <use x="254.492188" xlink:href="#DejaVuSans-45"/>
       <use x="290.576172" xlink:href="#DejaVuSans-49"/>
       <use x="354.199219" xlink:href="#DejaVuSans-50"/>
      </g>
     </g>
    </g>
    <g id="xtick_4">
     <g id="line2d_4">
      <g>
       <use style="stroke:#000000;stroke-width:0.8;" x="489.606979" xlink:href="#m29cb15bedf" y="228.96"/>
      </g>
     </g>
     <g id="text_4">
      <!-- 2021-01 -->
      <g transform="translate(492.366354 277.742812)rotate(-90)scale(0.1 -0.1)">
       <use xlink:href="#DejaVuSans-50"/>
       <use x="63.623047" xlink:href="#DejaVuSans-48"/>
       <use x="127.246094" xlink:href="#DejaVuSans-50"/>
       <use x="190.869141" xlink:href="#DejaVuSans-49"/>
       <use x="254.492188" xlink:href="#DejaVuSans-45"/>
       <use x="290.576172" xlink:href="#DejaVuSans-48"/>
       <use x="354.199219" xlink:href="#DejaVuSans-49"/>
      </g>
     </g>
    </g>
    <g id="xtick_5">
     <g id="line2d_5">
      <g>
       <use style="stroke:#000000;stroke-width:0.8;" x="615.707322" xlink:href="#m29cb15bedf" y="228.96"/>
      </g>
     </g>
     <g id="text_5">
      <!-- 2021-02 -->
      <g transform="translate(618.466697 277.742812)rotate(-90)scale(0.1 -0.1)">
       <use xlink:href="#DejaVuSans-50"/>
       <use x="63.623047" xlink:href="#DejaVuSans-48"/>
       <use x="127.246094" xlink:href="#DejaVuSans-50"/>
       <use x="190.869141" xlink:href="#DejaVuSans-49"/>
       <use x="254.492188" xlink:href="#DejaVuSans-45"/>
       <use x="290.576172" xlink:href="#DejaVuSans-48"/>
       <use x="354.199219" xlink:href="#DejaVuSans-50"/>
      </g>
     </g>
    </g>
    <g id="xtick_6">
     <g id="line2d_6">
      <g>
       <use style="stroke:#000000;stroke-width:0.8;" x="729.604406" xlink:href="#m29cb15bedf" y="228.96"/>
      </g>
     </g>
     <g id="text_6">
      <!-- 2021-03 -->
      <g transform="translate(732.363781 277.742812)rotate(-90)scale(0.1 -0.1)">
       <defs>
        <path d="M 40.578125 39.3125 
Q 47.65625 37.796875 51.625 33 
Q 55.609375 28.21875 55.609375 21.1875 
Q 55.609375 10.40625 48.1875 4.484375 
Q 40.765625 -1.421875 27.09375 -1.421875 
Q 22.515625 -1.421875 17.65625 -0.515625 
Q 12.796875 0.390625 7.625 2.203125 
L 7.625 11.71875 
Q 11.71875 9.328125 16.59375 8.109375 
Q 21.484375 6.890625 26.8125 6.890625 
Q 36.078125 6.890625 40.9375 10.546875 
Q 45.796875 14.203125 45.796875 21.1875 
Q 45.796875 27.640625 41.28125 31.265625 
Q 36.765625 34.90625 28.71875 34.90625 
L 20.21875 34.90625 
L 20.21875 43.015625 
L 29.109375 43.015625 
Q 36.375 43.015625 40.234375 45.921875 
Q 44.09375 48.828125 44.09375 54.296875 
Q 44.09375 59.90625 40.109375 62.90625 
Q 36.140625 65.921875 28.71875 65.921875 
Q 24.65625 65.921875 20.015625 65.03125 
Q 15.375 64.15625 9.8125 62.3125 
L 9.8125 71.09375 
Q 15.4375 72.65625 20.34375 73.4375 
Q 25.25 74.21875 29.59375 74.21875 
Q 40.828125 74.21875 47.359375 69.109375 
Q 53.90625 64.015625 53.90625 55.328125 
Q 53.90625 49.265625 50.4375 45.09375 
Q 46.96875 40.921875 40.578125 39.3125 
z
" id="DejaVuSans-51"/>
       </defs>
       <use xlink:href="#DejaVuSans-50"/>
       <use x="63.623047" xlink:href="#DejaVuSans-48"/>
       <use x="127.246094" xlink:href="#DejaVuSans-50"/>
       <use x="190.869141" xlink:href="#DejaVuSans-49"/>
       <use x="254.492188" xlink:href="#DejaVuSans-45"/>
       <use x="290.576172" xlink:href="#DejaVuSans-48"/>
       <use x="354.199219" xlink:href="#DejaVuSans-51"/>
      </g>
     </g>
    </g>
    <g id="xtick_7">
     <g id="line2d_7">
      <g>
       <use style="stroke:#000000;stroke-width:0.8;" x="855.704749" xlink:href="#m29cb15bedf" y="228.96"/>
      </g>
     </g>
     <g id="text_7">
      <!-- 2021-04 -->
      <g transform="translate(858.464124 277.742812)rotate(-90)scale(0.1 -0.1)">
       <defs>
        <path d="M 37.796875 64.3125 
L 12.890625 25.390625 
L 37.796875 25.390625 
z
M 35.203125 72.90625 
L 47.609375 72.90625 
L 47.609375 25.390625 
L 58.015625 25.390625 
L 58.015625 17.1875 
L 47.609375 17.1875 
L 47.609375 0 
L 37.796875 0 
L 37.796875 17.1875 
L 4.890625 17.1875 
L 4.890625 26.703125 
z
" id="DejaVuSans-52"/>
       </defs>
       <use xlink:href="#DejaVuSans-50"/>
       <use x="63.623047" xlink:href="#DejaVuSans-48"/>
       <use x="127.246094" xlink:href="#DejaVuSans-50"/>
       <use x="190.869141" xlink:href="#DejaVuSans-49"/>
       <use x="254.492188" xlink:href="#DejaVuSans-45"/>
       <use x="290.576172" xlink:href="#DejaVuSans-48"/>
       <use x="354.199219" xlink:href="#DejaVuSans-52"/>
      </g>
     </g>
    </g>
    <g id="xtick_8">
     <g id="line2d_8">
      <g>
       <use style="stroke:#000000;stroke-width:0.8;" x="977.737339" xlink:href="#m29cb15bedf" y="228.96"/>
      </g>
     </g>
     <g id="text_8">
      <!-- 2021-05 -->
      <g transform="translate(980.496714 277.742812)rotate(-90)scale(0.1 -0.1)">
       <defs>
        <path d="M 10.796875 72.90625 
L 49.515625 72.90625 
L 49.515625 64.59375 
L 19.828125 64.59375 
L 19.828125 46.734375 
Q 21.96875 47.46875 24.109375 47.828125 
Q 26.265625 48.1875 28.421875 48.1875 
Q 40.625 48.1875 47.75 41.5 
Q 54.890625 34.8125 54.890625 23.390625 
Q 54.890625 11.625 47.5625 5.09375 
Q 40.234375 -1.421875 26.90625 -1.421875 
Q 22.3125 -1.421875 17.546875 -0.640625 
Q 12.796875 0.140625 7.71875 1.703125 
L 7.71875 11.625 
Q 12.109375 9.234375 16.796875 8.0625 
Q 21.484375 6.890625 26.703125 6.890625 
Q 35.15625 6.890625 40.078125 11.328125 
Q 45.015625 15.765625 45.015625 23.390625 
Q 45.015625 31 40.078125 35.4375 
Q 35.15625 39.890625 26.703125 39.890625 
Q 22.75 39.890625 18.8125 39.015625 
Q 14.890625 38.140625 10.796875 36.28125 
z
" id="DejaVuSans-53"/>
       </defs>
       <use xlink:href="#DejaVuSans-50"/>
       <use x="63.623047" xlink:href="#DejaVuSans-48"/>
       <use x="127.246094" xlink:href="#DejaVuSans-50"/>
       <use x="190.869141" xlink:href="#DejaVuSans-49"/>
       <use x="254.492188" xlink:href="#DejaVuSans-45"/>
       <use x="290.576172" xlink:href="#DejaVuSans-48"/>
       <use x="354.199219" xlink:href="#DejaVuSans-53"/>
      </g>
     </g>
    </g>
    <g id="text_9">
     <!-- Date -->
     <g transform="translate(506.130469 289.34125)scale(0.1 -0.1)">
      <defs>
       <path d="M 19.671875 64.796875 
L 19.671875 8.109375 
L 31.59375 8.109375 
Q 46.6875 8.109375 53.6875 14.9375 
Q 60.6875 21.78125 60.6875 36.53125 
Q 60.6875 51.171875 53.6875 57.984375 
Q 46.6875 64.796875 31.59375 64.796875 
z
M 9.8125 72.90625 
L 30.078125 72.90625 
Q 51.265625 72.90625 61.171875 64.09375 
Q 71.09375 55.28125 71.09375 36.53125 
Q 71.09375 17.671875 61.125 8.828125 
Q 51.171875 0 30.078125 0 
L 9.8125 0 
z
" id="DejaVuSans-68"/>
       <path d="M 34.28125 27.484375 
Q 23.390625 27.484375 19.1875 25 
Q 14.984375 22.515625 14.984375 16.5 
Q 14.984375 11.71875 18.140625 8.90625 
Q 21.296875 6.109375 26.703125 6.109375 
Q 34.1875 6.109375 38.703125 11.40625 
Q 43.21875 16.703125 43.21875 25.484375 
L 43.21875 27.484375 
z
M 52.203125 31.203125 
L 52.203125 0 
L 43.21875 0 
L 43.21875 8.296875 
Q 40.140625 3.328125 35.546875 0.953125 
Q 30.953125 -1.421875 24.3125 -1.421875 
Q 15.921875 -1.421875 10.953125 3.296875 
Q 6 8.015625 6 15.921875 
Q 6 25.140625 12.171875 29.828125 
Q 18.359375 34.515625 30.609375 34.515625 
L 43.21875 34.515625 
L 43.21875 35.40625 
Q 43.21875 41.609375 39.140625 45 
Q 35.0625 48.390625 27.6875 48.390625 
Q 23 48.390625 18.546875 47.265625 
Q 14.109375 46.140625 10.015625 43.890625 
L 10.015625 52.203125 
Q 14.9375 54.109375 19.578125 55.046875 
Q 24.21875 56 28.609375 56 
Q 40.484375 56 46.34375 49.84375 
Q 52.203125 43.703125 52.203125 31.203125 
z
" id="DejaVuSans-97"/>
       <path d="M 18.3125 70.21875 
L 18.3125 54.6875 
L 36.8125 54.6875 
L 36.8125 47.703125 
L 18.3125 47.703125 
L 18.3125 18.015625 
Q 18.3125 11.328125 20.140625 9.421875 
Q 21.96875 7.515625 27.59375 7.515625 
L 36.8125 7.515625 
L 36.8125 0 
L 27.59375 0 
Q 17.1875 0 13.234375 3.875 
Q 9.28125 7.765625 9.28125 18.015625 
L 9.28125 47.703125 
L 2.6875 47.703125 
L 2.6875 54.6875 
L 9.28125 54.6875 
L 9.28125 70.21875 
z
" id="DejaVuSans-116"/>
       <path d="M 56.203125 29.59375 
L 56.203125 25.203125 
L 14.890625 25.203125 
Q 15.484375 15.921875 20.484375 11.0625 
Q 25.484375 6.203125 34.421875 6.203125 
Q 39.59375 6.203125 44.453125 7.46875 
Q 49.3125 8.734375 54.109375 11.28125 
L 54.109375 2.78125 
Q 49.265625 0.734375 44.1875 -0.34375 
Q 39.109375 -1.421875 33.890625 -1.421875 
Q 20.796875 -1.421875 13.15625 6.1875 
Q 5.515625 13.8125 5.515625 26.8125 
Q 5.515625 40.234375 12.765625 48.109375 
Q 20.015625 56 32.328125 56 
Q 43.359375 56 49.78125 48.890625 
Q 56.203125 41.796875 56.203125 29.59375 
z
M 47.21875 32.234375 
Q 47.125 39.59375 43.09375 43.984375 
Q 39.0625 48.390625 32.421875 48.390625 
Q 24.90625 48.390625 20.390625 44.140625 
Q 15.875 39.890625 15.1875 32.171875 
z
" id="DejaVuSans-101"/>
      </defs>
      <use xlink:href="#DejaVuSans-68"/>
      <use x="77.001953" xlink:href="#DejaVuSans-97"/>
      <use x="138.28125" xlink:href="#DejaVuSans-116"/>
      <use x="177.490234" xlink:href="#DejaVuSans-101"/>
     </g>
    </g>
   </g>
   <g id="matplotlib.axis_2">
    <g id="ytick_1">
     <g id="line2d_9">
      <defs>
       <path d="M 0 0 
L -3.5 0 
" id="m6b9badb5f5" style="stroke:#000000;stroke-width:0.8;"/>
      </defs>
      <g>
       <use style="stroke:#000000;stroke-width:0.8;" x="43.78125" xlink:href="#m6b9badb5f5" y="228.96"/>
      </g>
     </g>
     <g id="text_10">
      <!-- 0.0 -->
      <g transform="translate(20.878125 232.759219)scale(0.1 -0.1)">
       <defs>
        <path d="M 10.6875 12.40625 
L 21 12.40625 
L 21 0 
L 10.6875 0 
z
" id="DejaVuSans-46"/>
       </defs>
       <use xlink:href="#DejaVuSans-48"/>
       <use x="63.623047" xlink:href="#DejaVuSans-46"/>
       <use x="95.410156" xlink:href="#DejaVuSans-48"/>
      </g>
     </g>
    </g>
    <g id="ytick_2">
     <g id="line2d_10">
      <g>
       <use style="stroke:#000000;stroke-width:0.8;" x="43.78125" xlink:href="#m6b9badb5f5" y="186.257337"/>
      </g>
     </g>
     <g id="text_11">
      <!-- 0.2 -->
      <g transform="translate(20.878125 190.056555)scale(0.1 -0.1)">
       <use xlink:href="#DejaVuSans-48"/>
       <use x="63.623047" xlink:href="#DejaVuSans-46"/>
       <use x="95.410156" xlink:href="#DejaVuSans-50"/>
      </g>
     </g>
    </g>
    <g id="ytick_3">
     <g id="line2d_11">
      <g>
       <use style="stroke:#000000;stroke-width:0.8;" x="43.78125" xlink:href="#m6b9badb5f5" y="143.554673"/>
      </g>
     </g>
     <g id="text_12">
      <!-- 0.4 -->
      <g transform="translate(20.878125 147.353892)scale(0.1 -0.1)">
       <use xlink:href="#DejaVuSans-48"/>
       <use x="63.623047" xlink:href="#DejaVuSans-46"/>
       <use x="95.410156" xlink:href="#DejaVuSans-52"/>
      </g>
     </g>
    </g>
    <g id="ytick_4">
     <g id="line2d_12">
      <g>
       <use style="stroke:#000000;stroke-width:0.8;" x="43.78125" xlink:href="#m6b9badb5f5" y="100.85201"/>
      </g>
     </g>
     <g id="text_13">
      <!-- 0.6 -->
      <g transform="translate(20.878125 104.651229)scale(0.1 -0.1)">
       <defs>
        <path d="M 33.015625 40.375 
Q 26.375 40.375 22.484375 35.828125 
Q 18.609375 31.296875 18.609375 23.390625 
Q 18.609375 15.53125 22.484375 10.953125 
Q 26.375 6.390625 33.015625 6.390625 
Q 39.65625 6.390625 43.53125 10.953125 
Q 47.40625 15.53125 47.40625 23.390625 
Q 47.40625 31.296875 43.53125 35.828125 
Q 39.65625 40.375 33.015625 40.375 
z
M 52.59375 71.296875 
L 52.59375 62.3125 
Q 48.875 64.0625 45.09375 64.984375 
Q 41.3125 65.921875 37.59375 65.921875 
Q 27.828125 65.921875 22.671875 59.328125 
Q 17.53125 52.734375 16.796875 39.40625 
Q 19.671875 43.65625 24.015625 45.921875 
Q 28.375 48.1875 33.59375 48.1875 
Q 44.578125 48.1875 50.953125 41.515625 
Q 57.328125 34.859375 57.328125 23.390625 
Q 57.328125 12.15625 50.6875 5.359375 
Q 44.046875 -1.421875 33.015625 -1.421875 
Q 20.359375 -1.421875 13.671875 8.265625 
Q 6.984375 17.96875 6.984375 36.375 
Q 6.984375 53.65625 15.1875 63.9375 
Q 23.390625 74.21875 37.203125 74.21875 
Q 40.921875 74.21875 44.703125 73.484375 
Q 48.484375 72.75 52.59375 71.296875 
z
" id="DejaVuSans-54"/>
       </defs>
       <use xlink:href="#DejaVuSans-48"/>
       <use x="63.623047" xlink:href="#DejaVuSans-46"/>
       <use x="95.410156" xlink:href="#DejaVuSans-54"/>
      </g>
     </g>
    </g>
    <g id="ytick_5">
     <g id="line2d_13">
      <g>
       <use style="stroke:#000000;stroke-width:0.8;" x="43.78125" xlink:href="#m6b9badb5f5" y="58.149347"/>
      </g>
     </g>
     <g id="text_14">
      <!-- 0.8 -->
      <g transform="translate(20.878125 61.948565)scale(0.1 -0.1)">
       <defs>
        <path d="M 31.78125 34.625 
Q 24.75 34.625 20.71875 30.859375 
Q 16.703125 27.09375 16.703125 20.515625 
Q 16.703125 13.921875 20.71875 10.15625 
Q 24.75 6.390625 31.78125 6.390625 
Q 38.8125 6.390625 42.859375 10.171875 
Q 46.921875 13.96875 46.921875 20.515625 
Q 46.921875 27.09375 42.890625 30.859375 
Q 38.875 34.625 31.78125 34.625 
z
M 21.921875 38.8125 
Q 15.578125 40.375 12.03125 44.71875 
Q 8.5 49.078125 8.5 55.328125 
Q 8.5 64.0625 14.71875 69.140625 
Q 20.953125 74.21875 31.78125 74.21875 
Q 42.671875 74.21875 48.875 69.140625 
Q 55.078125 64.0625 55.078125 55.328125 
Q 55.078125 49.078125 51.53125 44.71875 
Q 48 40.375 41.703125 38.8125 
Q 48.828125 37.15625 52.796875 32.3125 
Q 56.78125 27.484375 56.78125 20.515625 
Q 56.78125 9.90625 50.3125 4.234375 
Q 43.84375 -1.421875 31.78125 -1.421875 
Q 19.734375 -1.421875 13.25 4.234375 
Q 6.78125 9.90625 6.78125 20.515625 
Q 6.78125 27.484375 10.78125 32.3125 
Q 14.796875 37.15625 21.921875 38.8125 
z
M 18.3125 54.390625 
Q 18.3125 48.734375 21.84375 45.5625 
Q 25.390625 42.390625 31.78125 42.390625 
Q 38.140625 42.390625 41.71875 45.5625 
Q 45.3125 48.734375 45.3125 54.390625 
Q 45.3125 60.0625 41.71875 63.234375 
Q 38.140625 66.40625 31.78125 66.40625 
Q 25.390625 66.40625 21.84375 63.234375 
Q 18.3125 60.0625 18.3125 54.390625 
z
" id="DejaVuSans-56"/>
       </defs>
       <use xlink:href="#DejaVuSans-48"/>
       <use x="63.623047" xlink:href="#DejaVuSans-46"/>
       <use x="95.410156" xlink:href="#DejaVuSans-56"/>
      </g>
     </g>
    </g>
    <g id="ytick_6">
     <g id="line2d_14">
      <g>
       <use style="stroke:#000000;stroke-width:0.8;" x="43.78125" xlink:href="#m6b9badb5f5" y="15.446683"/>
      </g>
     </g>
     <g id="text_15">
      <!-- 1.0 -->
      <g transform="translate(20.878125 19.245902)scale(0.1 -0.1)">
       <use xlink:href="#DejaVuSans-49"/>
       <use x="63.623047" xlink:href="#DejaVuSans-46"/>
       <use x="95.410156" xlink:href="#DejaVuSans-48"/>
      </g>
     </g>
    </g>
    <g id="text_16">
     <!-- Frequency (7 day rolling average) -->
     <g transform="translate(14.798437 202.529219)rotate(-90)scale(0.1 -0.1)">
      <defs>
       <path d="M 9.8125 72.90625 
L 51.703125 72.90625 
L 51.703125 64.59375 
L 19.671875 64.59375 
L 19.671875 43.109375 
L 48.578125 43.109375 
L 48.578125 34.8125 
L 19.671875 34.8125 
L 19.671875 0 
L 9.8125 0 
z
" id="DejaVuSans-70"/>
       <path d="M 41.109375 46.296875 
Q 39.59375 47.171875 37.8125 47.578125 
Q 36.03125 48 33.890625 48 
Q 26.265625 48 22.1875 43.046875 
Q 18.109375 38.09375 18.109375 28.8125 
L 18.109375 0 
L 9.078125 0 
L 9.078125 54.6875 
L 18.109375 54.6875 
L 18.109375 46.1875 
Q 20.953125 51.171875 25.484375 53.578125 
Q 30.03125 56 36.53125 56 
Q 37.453125 56 38.578125 55.875 
Q 39.703125 55.765625 41.0625 55.515625 
z
" id="DejaVuSans-114"/>
       <path d="M 14.796875 27.296875 
Q 14.796875 17.390625 18.875 11.75 
Q 22.953125 6.109375 30.078125 6.109375 
Q 37.203125 6.109375 41.296875 11.75 
Q 45.40625 17.390625 45.40625 27.296875 
Q 45.40625 37.203125 41.296875 42.84375 
Q 37.203125 48.484375 30.078125 48.484375 
Q 22.953125 48.484375 18.875 42.84375 
Q 14.796875 37.203125 14.796875 27.296875 
z
M 45.40625 8.203125 
Q 42.578125 3.328125 38.25 0.953125 
Q 33.9375 -1.421875 27.875 -1.421875 
Q 17.96875 -1.421875 11.734375 6.484375 
Q 5.515625 14.40625 5.515625 27.296875 
Q 5.515625 40.1875 11.734375 48.09375 
Q 17.96875 56 27.875 56 
Q 33.9375 56 38.25 53.625 
Q 42.578125 51.265625 45.40625 46.390625 
L 45.40625 54.6875 
L 54.390625 54.6875 
L 54.390625 -20.796875 
L 45.40625 -20.796875 
z
" id="DejaVuSans-113"/>
       <path d="M 8.5 21.578125 
L 8.5 54.6875 
L 17.484375 54.6875 
L 17.484375 21.921875 
Q 17.484375 14.15625 20.5 10.265625 
Q 23.53125 6.390625 29.59375 6.390625 
Q 36.859375 6.390625 41.078125 11.03125 
Q 45.3125 15.671875 45.3125 23.6875 
L 45.3125 54.6875 
L 54.296875 54.6875 
L 54.296875 0 
L 45.3125 0 
L 45.3125 8.40625 
Q 42.046875 3.421875 37.71875 1 
Q 33.40625 -1.421875 27.6875 -1.421875 
Q 18.265625 -1.421875 13.375 4.4375 
Q 8.5 10.296875 8.5 21.578125 
z
M 31.109375 56 
z
" id="DejaVuSans-117"/>
       <path d="M 54.890625 33.015625 
L 54.890625 0 
L 45.90625 0 
L 45.90625 32.71875 
Q 45.90625 40.484375 42.875 44.328125 
Q 39.84375 48.1875 33.796875 48.1875 
Q 26.515625 48.1875 22.3125 43.546875 
Q 18.109375 38.921875 18.109375 30.90625 
L 18.109375 0 
L 9.078125 0 
L 9.078125 54.6875 
L 18.109375 54.6875 
L 18.109375 46.1875 
Q 21.34375 51.125 25.703125 53.5625 
Q 30.078125 56 35.796875 56 
Q 45.21875 56 50.046875 50.171875 
Q 54.890625 44.34375 54.890625 33.015625 
z
" id="DejaVuSans-110"/>
       <path d="M 48.78125 52.59375 
L 48.78125 44.1875 
Q 44.96875 46.296875 41.140625 47.34375 
Q 37.3125 48.390625 33.40625 48.390625 
Q 24.65625 48.390625 19.8125 42.84375 
Q 14.984375 37.3125 14.984375 27.296875 
Q 14.984375 17.28125 19.8125 11.734375 
Q 24.65625 6.203125 33.40625 6.203125 
Q 37.3125 6.203125 41.140625 7.25 
Q 44.96875 8.296875 48.78125 10.40625 
L 48.78125 2.09375 
Q 45.015625 0.34375 40.984375 -0.53125 
Q 36.96875 -1.421875 32.421875 -1.421875 
Q 20.0625 -1.421875 12.78125 6.34375 
Q 5.515625 14.109375 5.515625 27.296875 
Q 5.515625 40.671875 12.859375 48.328125 
Q 20.21875 56 33.015625 56 
Q 37.15625 56 41.109375 55.140625 
Q 45.0625 54.296875 48.78125 52.59375 
z
" id="DejaVuSans-99"/>
       <path d="M 32.171875 -5.078125 
Q 28.375 -14.84375 24.75 -17.8125 
Q 21.140625 -20.796875 15.09375 -20.796875 
L 7.90625 -20.796875 
L 7.90625 -13.28125 
L 13.1875 -13.28125 
Q 16.890625 -13.28125 18.9375 -11.515625 
Q 21 -9.765625 23.484375 -3.21875 
L 25.09375 0.875 
L 2.984375 54.6875 
L 12.5 54.6875 
L 29.59375 11.921875 
L 46.6875 54.6875 
L 56.203125 54.6875 
z
" id="DejaVuSans-121"/>
       <path id="DejaVuSans-32"/>
       <path d="M 31 75.875 
Q 24.46875 64.65625 21.28125 53.65625 
Q 18.109375 42.671875 18.109375 31.390625 
Q 18.109375 20.125 21.3125 9.0625 
Q 24.515625 -2 31 -13.1875 
L 23.1875 -13.1875 
Q 15.875 -1.703125 12.234375 9.375 
Q 8.59375 20.453125 8.59375 31.390625 
Q 8.59375 42.28125 12.203125 53.3125 
Q 15.828125 64.359375 23.1875 75.875 
z
" id="DejaVuSans-40"/>
       <path d="M 8.203125 72.90625 
L 55.078125 72.90625 
L 55.078125 68.703125 
L 28.609375 0 
L 18.3125 0 
L 43.21875 64.59375 
L 8.203125 64.59375 
z
" id="DejaVuSans-55"/>
       <path d="M 45.40625 46.390625 
L 45.40625 75.984375 
L 54.390625 75.984375 
L 54.390625 0 
L 45.40625 0 
L 45.40625 8.203125 
Q 42.578125 3.328125 38.25 0.953125 
Q 33.9375 -1.421875 27.875 -1.421875 
Q 17.96875 -1.421875 11.734375 6.484375 
Q 5.515625 14.40625 5.515625 27.296875 
Q 5.515625 40.1875 11.734375 48.09375 
Q 17.96875 56 27.875 56 
Q 33.9375 56 38.25 53.625 
Q 42.578125 51.265625 45.40625 46.390625 
z
M 14.796875 27.296875 
Q 14.796875 17.390625 18.875 11.75 
Q 22.953125 6.109375 30.078125 6.109375 
Q 37.203125 6.109375 41.296875 11.75 
Q 45.40625 17.390625 45.40625 27.296875 
Q 45.40625 37.203125 41.296875 42.84375 
Q 37.203125 48.484375 30.078125 48.484375 
Q 22.953125 48.484375 18.875 42.84375 
Q 14.796875 37.203125 14.796875 27.296875 
z
" id="DejaVuSans-100"/>
       <path d="M 30.609375 48.390625 
Q 23.390625 48.390625 19.1875 42.75 
Q 14.984375 37.109375 14.984375 27.296875 
Q 14.984375 17.484375 19.15625 11.84375 
Q 23.34375 6.203125 30.609375 6.203125 
Q 37.796875 6.203125 41.984375 11.859375 
Q 46.1875 17.53125 46.1875 27.296875 
Q 46.1875 37.015625 41.984375 42.703125 
Q 37.796875 48.390625 30.609375 48.390625 
z
M 30.609375 56 
Q 42.328125 56 49.015625 48.375 
Q 55.71875 40.765625 55.71875 27.296875 
Q 55.71875 13.875 49.015625 6.21875 
Q 42.328125 -1.421875 30.609375 -1.421875 
Q 18.84375 -1.421875 12.171875 6.21875 
Q 5.515625 13.875 5.515625 27.296875 
Q 5.515625 40.765625 12.171875 48.375 
Q 18.84375 56 30.609375 56 
z
" id="DejaVuSans-111"/>
       <path d="M 9.421875 75.984375 
L 18.40625 75.984375 
L 18.40625 0 
L 9.421875 0 
z
" id="DejaVuSans-108"/>
       <path d="M 9.421875 54.6875 
L 18.40625 54.6875 
L 18.40625 0 
L 9.421875 0 
z
M 9.421875 75.984375 
L 18.40625 75.984375 
L 18.40625 64.59375 
L 9.421875 64.59375 
z
" id="DejaVuSans-105"/>
       <path d="M 45.40625 27.984375 
Q 45.40625 37.75 41.375 43.109375 
Q 37.359375 48.484375 30.078125 48.484375 
Q 22.859375 48.484375 18.828125 43.109375 
Q 14.796875 37.75 14.796875 27.984375 
Q 14.796875 18.265625 18.828125 12.890625 
Q 22.859375 7.515625 30.078125 7.515625 
Q 37.359375 7.515625 41.375 12.890625 
Q 45.40625 18.265625 45.40625 27.984375 
z
M 54.390625 6.78125 
Q 54.390625 -7.171875 48.1875 -13.984375 
Q 42 -20.796875 29.203125 -20.796875 
Q 24.46875 -20.796875 20.265625 -20.09375 
Q 16.0625 -19.390625 12.109375 -17.921875 
L 12.109375 -9.1875 
Q 16.0625 -11.328125 19.921875 -12.34375 
Q 23.78125 -13.375 27.78125 -13.375 
Q 36.625 -13.375 41.015625 -8.765625 
Q 45.40625 -4.15625 45.40625 5.171875 
L 45.40625 9.625 
Q 42.625 4.78125 38.28125 2.390625 
Q 33.9375 0 27.875 0 
Q 17.828125 0 11.671875 7.65625 
Q 5.515625 15.328125 5.515625 27.984375 
Q 5.515625 40.671875 11.671875 48.328125 
Q 17.828125 56 27.875 56 
Q 33.9375 56 38.28125 53.609375 
Q 42.625 51.21875 45.40625 46.390625 
L 45.40625 54.6875 
L 54.390625 54.6875 
z
" id="DejaVuSans-103"/>
       <path d="M 2.984375 54.6875 
L 12.5 54.6875 
L 29.59375 8.796875 
L 46.6875 54.6875 
L 56.203125 54.6875 
L 35.6875 0 
L 23.484375 0 
z
" id="DejaVuSans-118"/>
       <path d="M 8.015625 75.875 
L 15.828125 75.875 
Q 23.140625 64.359375 26.78125 53.3125 
Q 30.421875 42.28125 30.421875 31.390625 
Q 30.421875 20.453125 26.78125 9.375 
Q 23.140625 -1.703125 15.828125 -13.1875 
L 8.015625 -13.1875 
Q 14.5 -2 17.703125 9.0625 
Q 20.90625 20.125 20.90625 31.390625 
Q 20.90625 42.671875 17.703125 53.65625 
Q 14.5 64.65625 8.015625 75.875 
z
" id="DejaVuSans-41"/>
      </defs>
      <use xlink:href="#DejaVuSans-70"/>
      <use x="50.269531" xlink:href="#DejaVuSans-114"/>
      <use x="89.132812" xlink:href="#DejaVuSans-101"/>
      <use x="150.65625" xlink:href="#DejaVuSans-113"/>
      <use x="214.132812" xlink:href="#DejaVuSans-117"/>
      <use x="277.511719" xlink:href="#DejaVuSans-101"/>
      <use x="339.035156" xlink:href="#DejaVuSans-110"/>
      <use x="402.414062" xlink:href="#DejaVuSans-99"/>
      <use x="457.394531" xlink:href="#DejaVuSans-121"/>
      <use x="516.574219" xlink:href="#DejaVuSans-32"/>
      <use x="548.361328" xlink:href="#DejaVuSans-40"/>
      <use x="587.375" xlink:href="#DejaVuSans-55"/>
      <use x="650.998047" xlink:href="#DejaVuSans-32"/>
      <use x="682.785156" xlink:href="#DejaVuSans-100"/>
      <use x="746.261719" xlink:href="#DejaVuSans-97"/>
      <use x="807.541016" xlink:href="#DejaVuSans-121"/>
      <use x="866.720703" xlink:href="#DejaVuSans-32"/>
      <use x="898.507812" xlink:href="#DejaVuSans-114"/>
      <use x="937.371094" xlink:href="#DejaVuSans-111"/>
      <use x="998.552734" xlink:href="#DejaVuSans-108"/>
      <use x="1026.335938" xlink:href="#DejaVuSans-108"/>
      <use x="1054.119141" xlink:href="#DejaVuSans-105"/>
      <use x="1081.902344" xlink:href="#DejaVuSans-110"/>
      <use x="1145.28125" xlink:href="#DejaVuSans-103"/>
      <use x="1208.757812" xlink:href="#DejaVuSans-32"/>
      <use x="1240.544922" xlink:href="#DejaVuSans-97"/>
      <use x="1301.824219" xlink:href="#DejaVuSans-118"/>
      <use x="1361.003906" xlink:href="#DejaVuSans-101"/>
      <use x="1422.527344" xlink:href="#DejaVuSans-114"/>
      <use x="1463.640625" xlink:href="#DejaVuSans-97"/>
      <use x="1524.919922" xlink:href="#DejaVuSans-103"/>
      <use x="1588.396484" xlink:href="#DejaVuSans-101"/>
      <use x="1649.919922" xlink:href="#DejaVuSans-41"/>
     </g>
    </g>
   </g>
   <g id="line2d_15">
    <path clip-path="url(#p559a44697e)" d="M 119.441456 207.608668 
L 123.509209 228.96 
L 221.135281 228.96 
L 225.203034 222.85962 
L 241.474046 222.85962 
L 245.541799 228.96 
L 265.880564 228.96 
L 269.948317 205.236298 
L 274.01607 204.774336 
L 282.151576 204.774336 
L 286.219329 204.2835 
L 290.287082 228.007202 
L 294.354835 228.469165 
L 302.490341 228.469165 
L 306.558094 228.96 
L 310.625847 228.96 
L 314.6936 228.648302 
L 330.964612 228.583699 
L 335.032365 228.895397 
L 347.235624 228.895397 
L 351.303377 228.349962 
L 359.438883 227.856191 
L 367.574389 227.451196 
L 371.642142 228.061234 
L 375.709895 228.359854 
L 379.777648 228.183678 
L 383.845401 228.341836 
L 387.913154 228.370314 
L 396.04866 227.958298 
L 400.116413 227.629581 
L 404.184166 227.508952 
L 408.251919 227.240208 
L 412.319672 226.094225 
L 416.387425 225.982579 
L 420.455178 224.89269 
L 424.522931 224.091679 
L 428.590684 223.769548 
L 432.658437 223.833513 
L 440.793943 221.296728 
L 444.861696 220.742934 
L 448.929449 217.641281 
L 452.997202 215.824916 
L 457.064955 214.786112 
L 461.132708 215.281617 
L 465.200461 213.227193 
L 469.268214 214.070122 
L 473.335967 215.180828 
L 477.40372 211.844504 
L 481.471473 208.11226 
L 485.539226 204.672054 
L 489.606979 204.097131 
L 493.674732 200.653673 
L 497.742485 200.728453 
L 501.810238 204.209724 
L 505.877991 203.135036 
L 509.945744 198.711147 
L 514.013497 192.714244 
L 518.08125 190.067045 
L 522.149003 184.720025 
L 526.216756 182.003978 
L 530.284509 185.363627 
L 534.352262 188.495156 
L 538.420015 188.218198 
L 542.487768 188.670787 
L 546.555521 190.226221 
L 550.623274 184.715204 
L 554.691027 182.665835 
L 558.75878 185.049384 
L 562.826533 181.95905 
L 566.894286 181.026745 
L 570.962039 181.245941 
L 575.029792 180.604606 
L 579.097545 175.080546 
L 583.165298 172.663481 
L 587.233051 173.774173 
L 591.300804 172.835046 
L 595.368557 173.05694 
L 599.43631 173.596719 
L 603.504063 173.927861 
L 607.571816 168.939606 
L 611.639569 164.375531 
L 615.707322 161.521922 
L 619.775075 156.977289 
L 623.842828 150.861251 
L 627.910581 147.836479 
L 631.978334 146.082611 
L 636.046087 142.032342 
L 640.11384 135.901394 
L 644.181593 134.204439 
L 648.249346 130.824431 
L 652.317099 128.926056 
L 656.384852 125.463189 
L 660.452605 127.08726 
L 664.520358 127.845463 
L 668.588111 127.389862 
L 672.655864 121.842884 
L 676.723617 122.084108 
L 680.79137 120.698858 
L 684.859123 116.763977 
L 688.926876 115.930255 
L 692.994629 118.872101 
L 697.062382 114.456537 
L 701.130135 112.597687 
L 705.197888 111.097662 
L 709.265641 106.088012 
L 713.333394 103.589459 
L 717.401147 101.661836 
L 721.4689 100.051248 
L 725.536653 94.57589 
L 729.604406 92.71404 
L 733.672159 88.361762 
L 737.739912 84.229532 
L 741.807665 79.207113 
L 745.875418 80.215414 
L 749.943171 76.471827 
L 754.010924 72.498188 
L 758.078677 71.384048 
L 762.14643 69.499105 
L 766.214183 66.447709 
L 770.281936 64.53821 
L 774.349689 63.537057 
L 778.417442 60.479948 
L 782.485195 57.916561 
L 786.552948 56.577777 
L 790.620701 55.873855 
L 794.688454 53.809946 
L 798.756207 53.38107 
L 802.82396 53.193908 
L 806.891713 52.091609 
L 810.959466 50.44358 
L 815.027219 49.07244 
L 819.094972 48.3361 
L 823.162725 46.777875 
L 827.230478 44.862983 
L 831.298231 43.382411 
L 835.365984 42.872233 
L 847.569243 40.363713 
L 855.704749 38.26845 
L 859.772502 36.551334 
L 863.840255 35.471938 
L 867.908008 35.368179 
L 876.043514 35.979634 
L 880.111267 36.113884 
L 884.17902 34.543209 
L 888.246773 33.24918 
L 892.314526 31.62914 
L 896.382279 29.608829 
L 900.450032 28.983907 
L 908.585538 28.728484 
L 912.653291 30.751551 
L 916.721044 29.62786 
L 920.788797 28.710935 
L 924.85655 29.026832 
L 928.924303 28.447029 
L 932.992056 25.72999 
L 937.059809 38.309172 
L 941.127562 39.058636 
L 941.127562 39.058636 
" style="fill:none;stroke:#947383;stroke-linecap:square;stroke-width:2;"/>
   </g>
   <g id="line2d_16">
    <path clip-path="url(#p559a44697e)" d="M 147.915727 222.85962 
L 151.98348 228.96 
L 217.067528 228.96 
L 221.135281 227.625542 
L 237.406293 227.625542 
L 241.474046 228.96 
L 298.422588 228.96 
L 302.490341 225.67518 
L 314.6936 225.67518 
L 318.761353 220.930439 
L 322.829106 224.21526 
L 330.964612 224.21526 
L 335.032365 223.029075 
L 339.100118 227.773815 
L 343.167871 227.773815 
L 351.303377 221.778613 
L 355.37113 222.964798 
L 359.438883 222.964798 
L 363.506636 222.728872 
L 371.642142 228.724074 
L 383.845401 228.64601 
L 387.913154 228.434611 
L 391.980907 228.039215 
L 396.04866 228.039215 
L 400.116413 227.674235 
L 408.251919 228.199625 
L 416.387425 227.812877 
L 420.455178 228.177857 
L 424.522931 227.950716 
L 428.590684 227.056419 
L 432.658437 227.431544 
L 436.72619 226.542372 
L 440.793943 224.26055 
L 444.861696 222.758839 
L 448.929449 221.122608 
L 452.997202 220.173608 
L 457.064955 214.267652 
L 461.132708 213.904176 
L 465.200461 211.021943 
L 469.268214 209.639924 
L 473.335967 207.458523 
L 477.40372 212.12955 
L 481.471473 213.643651 
L 485.539226 214.439802 
L 489.606979 213.705945 
L 493.674732 210.538954 
L 497.742485 202.096014 
L 501.810238 193.960927 
L 505.877991 190.568662 
L 509.945744 191.916148 
L 514.013497 194.016924 
L 518.08125 202.973263 
L 522.149003 211.218766 
L 526.216756 218.001065 
L 530.284509 216.724697 
L 534.352262 217.442806 
L 538.420015 217.372457 
L 542.487768 213.470123 
L 546.555521 212.214921 
L 550.623274 214.955326 
L 554.691027 214.297455 
L 558.75878 213.199477 
L 562.826533 211.776352 
L 566.894286 205.363184 
L 570.962039 194.245597 
L 575.029792 192.972479 
L 579.097545 192.713264 
L 583.165298 194.171849 
L 587.233051 198.10137 
L 591.300804 194.803352 
L 595.368557 187.406063 
L 599.43631 177.684601 
L 603.504063 170.718847 
L 607.571816 169.111969 
L 611.639569 165.523256 
L 615.707322 166.030148 
L 619.775075 160.872522 
L 623.842828 163.845866 
L 627.910581 158.94083 
L 631.978334 172.509007 
L 636.046087 180.261684 
L 640.11384 174.550373 
L 648.249346 172.66289 
L 652.317099 166.507209 
L 656.384852 162.595592 
L 660.452605 181.992988 
L 664.520358 186.871863 
L 668.588111 184.570664 
L 672.655864 188.863525 
L 676.723617 191.159504 
L 680.79137 191.368817 
L 684.859123 190.000245 
L 688.926876 198.150204 
L 692.994629 194.594489 
L 697.062382 190.427889 
L 701.130135 189.002814 
L 705.197888 191.548656 
L 709.265641 192.166371 
L 713.333394 199.476167 
L 717.401147 207.930135 
L 721.4689 208.640043 
L 725.536653 202.889648 
L 729.604406 201.31897 
L 733.672159 196.848438 
L 737.739912 194.61171 
L 741.807665 194.231552 
L 745.875418 198.140027 
L 749.943171 198.275732 
L 754.010924 201.132669 
L 758.078677 200.018452 
L 762.14643 197.974 
L 766.214183 197.201529 
L 770.281936 198.919935 
L 774.349689 194.237625 
L 778.417442 195.190867 
L 782.485195 197.814031 
L 786.552948 199.920078 
L 790.620701 200.111047 
L 794.688454 207.473575 
L 798.756207 203.715946 
L 802.82396 201.611044 
L 806.891713 198.063011 
L 810.959466 196.684841 
L 815.027219 191.457446 
L 819.094972 195.750952 
L 823.162725 196.934374 
L 827.230478 201.458707 
L 831.298231 203.591106 
L 835.365984 205.14393 
L 839.433737 204.005193 
L 843.50149 207.709046 
L 847.569243 209.673489 
L 851.636996 210.505359 
L 855.704749 215.522175 
L 859.772502 216.459959 
L 863.840255 209.114058 
L 867.908008 203.58378 
L 871.975761 198.525869 
L 876.043514 196.408209 
L 880.111267 197.544554 
L 884.17902 198.013648 
L 888.246773 193.901389 
L 892.314526 200.111594 
L 896.382279 197.27539 
L 900.450032 189.305539 
L 904.517785 185.896502 
L 908.585538 183.571962 
L 912.653291 179.369478 
L 916.721044 180.724322 
L 920.788797 180.604538 
L 924.85655 175.724234 
L 928.924303 180.528284 
L 932.992056 175.952998 
L 937.059809 172.982378 
L 937.059809 172.982378 
" style="fill:none;stroke:#96c6ad;stroke-linecap:square;stroke-width:2;"/>
   </g>
   <g id="line2d_17">
    <path clip-path="url(#p559a44697e)" d="M 461.132708 224.591888 
L 465.200461 226.234298 
L 469.268214 226.113156 
L 473.335967 226.113156 
L 477.40372 224.819136 
L 481.471473 218.249495 
L 485.539226 212.426405 
L 489.606979 215.273249 
L 493.674732 215.273249 
L 497.742485 214.533809 
L 501.810238 219.647677 
L 505.877991 223.499875 
L 509.945744 219.229609 
L 514.013497 216.429434 
L 518.08125 213.535664 
L 522.149003 210.72117 
L 526.216756 212.692062 
L 530.284509 214.791007 
L 534.352262 211.597825 
L 538.420015 214.441999 
L 542.487768 215.427445 
L 546.555521 212.224745 
L 550.623274 214.396067 
L 554.691027 219.440475 
L 558.75878 220.968952 
L 562.826533 222.220312 
L 566.894286 223.233132 
L 570.962039 218.352827 
L 575.029792 215.234855 
L 579.097545 214.454977 
L 583.165298 213.81952 
L 587.233051 215.081082 
L 591.300804 219.294157 
L 595.368557 221.052825 
L 599.43631 220.790922 
L 603.504063 223.459839 
L 607.571816 224.388158 
L 611.639569 225.055387 
L 615.707322 225.09222 
L 619.775075 225.593642 
L 623.842828 224.439516 
L 627.910581 222.91442 
L 631.978334 222.91442 
L 636.046087 225.185839 
L 640.11384 226.280779 
L 644.181593 225.61777 
L 648.249346 225.171973 
L 652.317099 223.463867 
L 656.384852 223.463867 
L 660.452605 220.690966 
L 664.520358 222.508101 
L 668.588111 224.478993 
L 672.655864 223.221637 
L 676.723617 218.341333 
L 680.79137 217.479964 
L 684.859123 208.745328 
L 688.926876 197.487353 
L 692.994629 198.927721 
L 697.062382 193.455864 
L 701.130135 192.547297 
L 705.197888 196.02622 
L 709.265641 205.298025 
L 713.333394 196.147454 
L 717.401147 201.037646 
L 721.4689 198.748057 
L 725.536653 197.903389 
L 729.604406 192.487764 
L 733.672159 199.87861 
L 737.739912 200.358601 
L 741.807665 203.013592 
L 745.875418 197.252122 
L 749.943171 198.883287 
L 754.010924 192.884919 
L 758.078677 188.788378 
L 762.14643 187.908918 
L 766.214183 188.533226 
L 770.281936 188.203476 
L 774.349689 192.521237 
L 778.417442 197.717696 
L 782.485195 196.884568 
L 786.552948 201.44982 
L 790.620701 197.242661 
L 794.688454 193.416362 
L 798.756207 188.563786 
L 802.82396 187.336698 
L 806.891713 183.333324 
L 810.959466 171.498741 
L 815.027219 163.643665 
L 819.094972 156.957895 
L 823.162725 162.463584 
L 827.230478 160.684306 
L 831.298231 181.989121 
L 835.365984 191.518811 
L 839.433737 203.278989 
L 843.50149 185.540766 
L 847.569243 168.736477 
L 851.636996 157.79374 
L 855.704749 150.676629 
L 859.772502 140.102636 
L 863.840255 152.88264 
L 867.908008 171.754738 
L 871.975761 177.036552 
L 876.043514 177.258961 
L 880.111267 191.493182 
L 884.17902 195.690453 
L 888.246773 193.51798 
L 892.314526 174.089595 
L 896.382279 169.985125 
L 900.450032 164.162034 
" style="fill:none;stroke:#525886;stroke-linecap:square;stroke-width:2;"/>
   </g>
   <g id="line2d_18">
    <path clip-path="url(#p559a44697e)" d="M 269.948317 228.816217 
L 282.151576 228.859048 
L 424.522931 228.852165 
L 436.72619 228.500004 
L 444.861696 227.929186 
L 448.929449 228.002085 
L 457.064955 227.901802 
L 461.132708 228.333142 
L 473.335967 227.899201 
L 485.539226 226.332741 
L 489.606979 225.961435 
L 497.742485 225.553635 
L 505.877991 225.985357 
L 509.945744 226.009036 
L 514.013497 225.636261 
L 518.08125 225.984655 
L 526.216756 225.823715 
L 530.284509 225.513025 
L 534.352262 225.585115 
L 538.420015 225.511805 
L 542.487768 224.67842 
L 546.555521 224.817206 
L 558.75878 223.423286 
L 562.826533 223.854997 
L 566.894286 222.977454 
L 570.962039 223.259133 
L 575.029792 223.108691 
L 579.097545 221.790494 
L 583.165298 221.55574 
L 587.233051 221.76019 
L 591.300804 220.930039 
L 595.368557 219.836192 
L 599.43631 220.271024 
L 603.504063 219.43179 
L 607.571816 219.034417 
L 611.639569 219.236898 
L 615.707322 219.264641 
L 619.775075 219.125538 
L 623.842828 218.758131 
L 631.978334 216.214393 
L 636.046087 215.557045 
L 640.11384 213.584006 
L 644.181593 212.729843 
L 648.249346 211.668821 
L 652.317099 210.938843 
L 656.384852 211.053767 
L 660.452605 209.841177 
L 664.520358 207.604864 
L 668.588111 206.081661 
L 672.655864 204.870796 
L 676.723617 202.215166 
L 680.79137 202.748452 
L 684.859123 202.827905 
L 688.926876 201.925193 
L 692.994629 201.660951 
L 697.062382 199.383532 
L 701.130135 197.861379 
L 705.197888 195.473995 
L 709.265641 194.11805 
L 713.333394 191.749825 
L 717.401147 191.152899 
L 721.4689 188.581663 
L 725.536653 186.696634 
L 729.604406 186.061951 
L 737.739912 184.053737 
L 741.807665 183.644686 
L 745.875418 182.273421 
L 749.943171 179.80026 
L 754.010924 175.707904 
L 758.078677 172.754638 
L 762.14643 170.536333 
L 766.214183 169.36484 
L 770.281936 166.313441 
L 774.349689 165.076595 
L 778.417442 162.796582 
L 782.485195 158.529661 
L 786.552948 155.274098 
L 790.620701 152.740195 
L 794.688454 151.052254 
L 798.756207 148.397396 
L 802.82396 146.96664 
L 806.891713 145.06375 
L 810.959466 144.055117 
L 815.027219 141.215006 
L 819.094972 139.484202 
L 823.162725 135.667416 
L 827.230478 132.820637 
L 831.298231 130.205112 
L 835.365984 127.386329 
L 839.433737 123.43413 
L 843.50149 123.581426 
L 847.569243 120.489832 
L 851.636996 116.882931 
L 855.704749 114.340898 
L 859.772502 114.102488 
L 863.840255 111.633334 
L 867.908008 108.990399 
L 871.975761 109.036308 
L 876.043514 108.922667 
L 880.111267 108.580716 
L 884.17902 107.312071 
L 888.246773 108.764131 
L 892.314526 108.008473 
L 896.382279 112.017901 
L 900.450032 113.896599 
L 904.517785 115.924101 
L 908.585538 117.320676 
L 912.653291 119.368178 
L 916.721044 122.851357 
L 920.788797 127.146323 
L 924.85655 128.936202 
L 928.924303 131.653756 
L 932.992056 135.393568 
L 937.059809 131.662012 
L 941.127562 130.54572 
L 941.127562 130.54572 
" style="fill:none;stroke:#937252;stroke-linecap:square;stroke-width:2;"/>
   </g>
   <g id="line2d_19">
    <path clip-path="url(#p559a44697e)" d="M 86.899432 228.747471 
L 95.034938 228.8825 
L 111.30595 228.78953 
L 127.576962 228.760039 
L 131.644715 228.930509 
L 139.780221 228.96 
L 160.118986 228.714287 
L 168.254492 228.767934 
L 172.322245 228.692443 
L 176.389998 228.884509 
L 192.66101 228.96 
L 196.728763 228.697906 
L 204.864269 228.357409 
L 208.932022 228.13313 
L 212.999775 228.020755 
L 225.203034 228.563328 
L 229.270787 228.068572 
L 237.406293 227.614546 
L 245.541799 225.781012 
L 249.609552 226.187697 
L 253.677305 226.356488 
L 257.745058 224.387819 
L 261.812811 224.172055 
L 265.880564 225.055558 
L 269.948317 223.077088 
L 274.01607 221.778456 
L 278.083823 223.185597 
L 282.151576 223.15188 
L 286.219329 219.573444 
L 290.287082 217.612686 
L 294.354835 216.388773 
L 298.422588 213.319595 
L 302.490341 213.068047 
L 306.558094 212.047734 
L 310.625847 214.087086 
L 314.6936 210.912138 
L 318.761353 213.303845 
L 322.829106 208.590085 
L 326.896859 204.786762 
L 330.964612 205.278202 
L 335.032365 208.112445 
L 339.100118 208.665137 
L 343.167871 208.070808 
L 347.235624 210.957356 
L 351.303377 203.700224 
L 355.37113 199.196282 
L 359.438883 196.141695 
L 363.506636 199.209259 
L 367.574389 199.31839 
L 371.642142 204.220145 
L 375.709895 199.261772 
L 379.777648 195.170257 
L 383.845401 195.015774 
L 387.913154 189.020077 
L 391.980907 181.543123 
L 396.04866 184.364272 
L 400.116413 174.266011 
L 404.184166 166.934339 
L 408.251919 165.414873 
L 412.319672 158.680456 
L 416.387425 152.408902 
L 420.455178 151.797195 
L 428.590684 134.722229 
L 432.658437 129.749502 
L 436.72619 126.926756 
L 440.793943 128.353365 
L 444.861696 129.31486 
L 448.929449 132.468352 
L 452.997202 134.057135 
L 457.064955 130.78937 
L 461.132708 122.449222 
L 465.200461 113.664152 
L 469.268214 108.53903 
L 473.335967 105.016392 
L 477.40372 98.083992 
L 481.471473 94.78608 
L 485.539226 92.337412 
L 493.674732 74.651312 
L 497.742485 72.557123 
L 501.810238 71.369704 
L 505.877991 71.096127 
L 509.945744 74.290763 
L 514.013497 75.021016 
L 518.08125 72.061169 
L 522.149003 68.508503 
L 526.216756 65.867081 
L 530.284509 61.586148 
L 534.352262 61.518504 
L 538.420015 62.809619 
L 542.487768 62.17989 
L 554.691027 56.7082 
L 558.75878 53.937585 
L 562.826533 51.869718 
L 566.894286 50.771363 
L 570.962039 49.275777 
L 575.029792 46.817412 
L 579.097545 44.858339 
L 583.165298 43.15702 
L 587.233051 40.82035 
L 591.300804 38.812052 
L 595.368557 37.211203 
L 599.43631 34.869873 
L 603.504063 32.983377 
L 607.571816 31.686887 
L 611.639569 31.220138 
L 615.707322 31.53418 
L 623.842828 34.421188 
L 627.910581 33.448792 
L 631.978334 32.23039 
L 636.046087 31.128893 
L 640.11384 29.561467 
L 644.181593 27.868517 
L 648.249346 27.593587 
L 652.317099 27.945124 
L 656.384852 27.006704 
L 660.452605 25.831126 
L 664.520358 25.426378 
L 668.588111 25.275676 
L 672.655864 24.265591 
L 676.723617 24.113829 
L 680.79137 24.238107 
L 688.926876 23.317215 
L 692.994629 23.231648 
L 701.130135 22.431596 
L 705.197888 22.291333 
L 709.265641 21.754656 
L 713.333394 21.104599 
L 721.4689 20.808077 
L 725.536653 20.729908 
L 729.604406 20.794984 
L 737.739912 21.327307 
L 741.807665 21.476816 
L 745.875418 21.275069 
L 749.943171 21.544201 
L 754.010924 22.051283 
L 758.078677 21.881992 
L 762.14643 21.32868 
L 766.214183 21.084026 
L 770.281936 20.705424 
L 774.349689 20.181161 
L 778.417442 19.862977 
L 782.485195 19.699431 
L 786.552948 19.728704 
L 790.620701 19.334242 
L 794.688454 19.132961 
L 802.82396 19.224544 
L 806.891713 19.338241 
L 819.094972 18.973834 
L 823.162725 18.83435 
L 827.230478 18.407791 
L 831.298231 18.329519 
L 843.50149 17.76 
L 859.772502 18.819872 
L 863.840255 19.528554 
L 867.908008 19.936673 
L 871.975761 20.038745 
L 880.111267 21.947449 
L 884.17902 22.087431 
L 888.246773 22.393339 
L 892.314526 23.078433 
L 904.517785 22.433521 
L 908.585538 23.241536 
L 912.653291 24.278448 
L 916.721044 25.599601 
L 920.788797 26.582128 
L 924.85655 28.453774 
L 928.924303 32.118857 
L 932.992056 30.777264 
L 937.059809 34.092688 
L 941.127562 40.081568 
L 941.127562 40.081568 
" style="fill:none;stroke:#d18cad;stroke-linecap:square;stroke-width:2;"/>
   </g>
   <g id="line2d_20">
    <path clip-path="url(#p559a44697e)" d="M 375.709895 221.842889 
L 379.777648 228.96 
L 391.980907 228.96 
L 396.04866 211.878935 
L 400.116413 211.878935 
L 404.184166 190.527603 
L 412.319672 190.527603 
L 416.387425 207.608668 
L 420.455178 207.608668 
L 424.522931 226.824867 
L 432.658437 226.824867 
L 436.72619 218.818117 
L 440.793943 213.480285 
L 444.861696 210.870677 
L 448.929449 206.125937 
L 452.997202 184.774605 
L 457.064955 189.222799 
L 461.132708 191.002077 
L 465.200461 187.982697 
L 469.268214 187.982697 
L 473.335967 207.198895 
L 477.40372 210.757451 
L 481.471473 211.031186 
L 485.539226 214.52504 
L 489.606979 204.544724 
L 493.674732 196.004191 
L 497.742485 196.004191 
L 501.810238 190.748479 
L 505.877991 173.667414 
L 514.013497 177.967996 
L 518.08125 154.244294 
L 522.149003 149.645546 
L 526.216756 164.896497 
L 530.284509 163.221883 
L 534.352262 167.492149 
L 538.420015 175.202352 
L 542.487768 169.362672 
L 546.555521 165.415367 
L 550.623274 144.064035 
L 554.691027 141.217191 
L 558.75878 139.437913 
L 562.826533 147.741209 
L 566.894286 129.320452 
L 570.962039 140.504483 
L 575.029792 127.912672 
L 579.097545 110.119896 
L 583.165298 110.119896 
L 587.233051 124.354117 
L 591.300804 134.521418 
L 595.368557 132.879008 
L 599.43631 155.653761 
L 603.504063 123.626764 
L 607.571816 95.158322 
L 615.707322 95.158322 
L 619.775075 100.85201 
L 623.842828 106.189843 
L 627.910581 148.892506 
L 631.978334 146.045662 
L 636.046087 167.396994 
L 640.11384 174.514104 
L 644.181593 190.527603 
L 648.249346 147.82494 
L 652.317099 164.906005 
L 656.384852 128.303722 
L 660.452605 101.614558 
L 664.520358 80.263226 
L 668.588111 80.263226 
L 672.655864 37.560563 
L 676.723617 48.541247 
L 680.79137 60.996191 
L 684.859123 82.347523 
L 688.926876 99.428588 
L 692.994629 127.89703 
L 697.062382 123.016726 
L 701.130135 128.710414 
L 705.197888 121.593304 
L 709.265641 131.201403 
L 713.333394 124.084292 
L 717.401147 111.883531 
L 721.4689 88.397067 
L 725.536653 108.324976 
L 729.604406 95.870033 
L 733.672159 95.870033 
L 737.739912 118.644786 
L 741.807665 118.644786 
L 745.875418 84.482656 
L 749.943171 100.750337 
L 754.010924 93.633226 
L 758.078677 92.209804 
L 762.14643 111.677195 
L 766.214183 111.677195 
L 770.281936 99.476434 
L 774.349689 101.666314 
L 778.417442 95.386511 
L 782.485195 82.32452 
L 786.552948 109.013684 
L 790.620701 112.063874 
L 794.688454 132.242056 
L 798.756207 136.879449 
L 802.82396 148.266826 
L 806.891713 148.266826 
L 810.959466 134.032605 
L 815.027219 111.664543 
L 819.094972 113.306954 
L 823.162725 106.189843 
L 827.230478 96.581744 
L 831.298231 117.933075 
L 835.365984 125.978505 
L 839.433737 104.627173 
L 843.50149 98.804083 
L 847.569243 105.446719 
L 851.636996 91.212498 
L 855.704749 90.284179 
L 859.772502 100.959845 
L 863.840255 105.140525 
L 867.908008 109.885266 
L 871.975761 111.179286 
L 876.043514 102.028715 
L 880.111267 112.704381 
L 884.17902 118.617057 
L 888.246773 115.770213 
L 892.314526 117.323037 
L 896.382279 122.203342 
L 900.450032 116.865509 
L 904.517785 119.712353 
L 908.585538 94.090755 
L 912.653291 103.698854 
L 916.721044 107.969121 
L 920.788797 103.601803 
L 924.85655 96.484692 
L 928.924303 130.646823 
L 932.992056 132.426101 
L 937.059809 153.777432 
L 941.127562 142.131251 
L 945.195315 120.77992 
L 949.263068 86.617789 
L 949.263068 86.617789 
" style="fill:none;stroke:#a4a86f;stroke-linecap:square;stroke-width:2;"/>
   </g>
   <g id="line2d_21">
    <path clip-path="url(#p559a44697e)" d="M 355.37113 207.608668 
L 359.438883 228.96 
L 396.04866 228.96 
L 400.116413 214.725779 
L 412.319672 214.725779 
L 416.387425 200.491558 
L 420.455178 214.725779 
L 424.522931 214.725779 
L 428.590684 207.608668 
L 432.658437 207.608668 
L 436.72619 221.842889 
L 440.793943 221.842889 
L 444.861696 200.491558 
L 448.929449 207.608668 
L 452.997202 203.726608 
L 461.132708 203.726608 
L 465.200461 225.07794 
L 473.335967 208.218706 
L 477.40372 200.454586 
L 481.471473 188.253825 
L 485.539226 188.253825 
L 489.606979 186.118692 
L 493.674732 184.97487 
L 497.742485 184.198458 
L 501.810238 191.375376 
L 505.877991 184.258266 
L 509.945744 178.776167 
L 514.013497 169.345996 
L 518.08125 158.476227 
L 522.149003 152.112693 
L 526.216756 142.623212 
L 530.284509 151.107842 
L 534.352262 169.654609 
L 538.420015 181.40033 
L 542.487768 189.311909 
L 546.555521 193.107701 
L 550.623274 190.73315 
L 554.691027 194.961137 
L 558.75878 200.525586 
L 562.826533 202.419804 
L 566.894286 214.481434 
L 570.962039 224.529119 
L 575.029792 223.487591 
L 579.097545 224.733669 
L 583.165298 224.006997 
L 587.233051 224.123534 
L 591.300804 222.286861 
L 595.368557 221.020137 
L 599.43631 218.995359 
L 603.504063 219.702261 
L 607.571816 219.211139 
L 611.639569 219.405402 
L 615.707322 221.713654 
L 619.775075 219.847745 
L 623.842828 217.788867 
L 627.910581 214.532861 
L 631.978334 212.293211 
L 636.046087 212.293211 
L 640.11384 217.037951 
L 644.181593 215.09783 
L 648.249346 216.19277 
L 652.317099 214.950511 
L 656.384852 212.578141 
L 660.452605 205.745715 
L 664.520358 211.346064 
L 668.588111 214.630884 
L 672.655864 217.086287 
L 676.723617 218.31992 
L 680.79137 222.267031 
L 684.859123 219.894661 
L 688.926876 215.236188 
L 692.994629 215.822048 
L 697.062382 214.825652 
L 701.130135 213.094463 
L 705.197888 215.466834 
L 709.265641 220.125306 
L 713.333394 219.696441 
L 717.401147 218.781384 
L 721.4689 214.857356 
L 725.536653 214.857356 
L 729.604406 213.332261 
L 733.672159 212.285627 
L 737.739912 210.211497 
L 741.807665 210.211497 
L 745.875418 202.784947 
L 749.943171 197.904643 
L 754.010924 191.295897 
L 758.078677 182.185996 
L 762.14643 172.160153 
L 766.214183 169.847499 
L 770.281936 169.135788 
L 774.349689 176.456245 
L 778.417442 165.068868 
L 782.485195 183.635243 
L 786.552948 181.417702 
L 790.620701 185.072434 
L 794.688454 169.236863 
L 798.756207 184.182795 
L 802.82396 169.948574 
L 806.891713 139.202656 
L 810.959466 99.962371 
L 815.027219 99.234485 
L 819.094972 92.829085 
L 823.162725 78.594864 
L 827.230478 92.829085 
L 831.298231 135.531749 
L 835.365984 112.239387 
L 839.433737 129.320452 
L 843.50149 157.788894 
L 847.569243 183.502326 
L 851.636996 183.502326 
L 855.704749 226.204989 
L 863.840255 226.204989 
L 867.908008 228.96 
L 871.975761 228.96 
L 876.043514 186.257337 
L 876.043514 186.257337 
" style="fill:none;stroke:#d3d3d3;stroke-linecap:square;stroke-width:2;"/>
   </g>
   <g id="patch_3">
    <path d="M 43.78125 228.96 
L 43.78125 7.2 
" style="fill:none;stroke:#000000;stroke-linecap:square;stroke-linejoin:miter;stroke-width:0.8;"/>
   </g>
   <g id="patch_4">
    <path d="M 43.78125 228.96 
L 992.38125 228.96 
" style="fill:none;stroke:#000000;stroke-linecap:square;stroke-linejoin:miter;stroke-width:0.8;"/>
   </g>
   <g id="legend_1">
    <g id="line2d_22">
     <path d="M 50.98125 17.67875 
L 66.98125 17.67875 
" style="fill:none;stroke:#947383;stroke-linecap:square;stroke-width:2;"/>
    </g>
    <g id="line2d_23"/>
    <g id="text_17">
     <!-- Europe -->
     <g transform="translate(73.38125 20.47875)scale(0.08 -0.08)">
      <defs>
       <path d="M 9.8125 72.90625 
L 55.90625 72.90625 
L 55.90625 64.59375 
L 19.671875 64.59375 
L 19.671875 43.015625 
L 54.390625 43.015625 
L 54.390625 34.71875 
L 19.671875 34.71875 
L 19.671875 8.296875 
L 56.78125 8.296875 
L 56.78125 0 
L 9.8125 0 
z
" id="DejaVuSans-69"/>
       <path d="M 18.109375 8.203125 
L 18.109375 -20.796875 
L 9.078125 -20.796875 
L 9.078125 54.6875 
L 18.109375 54.6875 
L 18.109375 46.390625 
Q 20.953125 51.265625 25.265625 53.625 
Q 29.59375 56 35.59375 56 
Q 45.5625 56 51.78125 48.09375 
Q 58.015625 40.1875 58.015625 27.296875 
Q 58.015625 14.40625 51.78125 6.484375 
Q 45.5625 -1.421875 35.59375 -1.421875 
Q 29.59375 -1.421875 25.265625 0.953125 
Q 20.953125 3.328125 18.109375 8.203125 
z
M 48.6875 27.296875 
Q 48.6875 37.203125 44.609375 42.84375 
Q 40.53125 48.484375 33.40625 48.484375 
Q 26.265625 48.484375 22.1875 42.84375 
Q 18.109375 37.203125 18.109375 27.296875 
Q 18.109375 17.390625 22.1875 11.75 
Q 26.265625 6.109375 33.40625 6.109375 
Q 40.53125 6.109375 44.609375 11.75 
Q 48.6875 17.390625 48.6875 27.296875 
z
" id="DejaVuSans-112"/>
      </defs>
      <use xlink:href="#DejaVuSans-69"/>
      <use x="63.183594" xlink:href="#DejaVuSans-117"/>
      <use x="126.5625" xlink:href="#DejaVuSans-114"/>
      <use x="165.425781" xlink:href="#DejaVuSans-111"/>
      <use x="226.607422" xlink:href="#DejaVuSans-112"/>
      <use x="290.083984" xlink:href="#DejaVuSans-101"/>
     </g>
    </g>
    <g id="line2d_24">
     <path d="M 50.98125 29.42125 
L 66.98125 29.42125 
" style="fill:none;stroke:#96c6ad;stroke-linecap:square;stroke-width:2;"/>
    </g>
    <g id="line2d_25"/>
    <g id="text_18">
     <!-- Asia -->
     <g transform="translate(73.38125 32.22125)scale(0.08 -0.08)">
      <defs>
       <path d="M 34.1875 63.1875 
L 20.796875 26.90625 
L 47.609375 26.90625 
z
M 28.609375 72.90625 
L 39.796875 72.90625 
L 67.578125 0 
L 57.328125 0 
L 50.6875 18.703125 
L 17.828125 18.703125 
L 11.1875 0 
L 0.78125 0 
z
" id="DejaVuSans-65"/>
       <path d="M 44.28125 53.078125 
L 44.28125 44.578125 
Q 40.484375 46.53125 36.375 47.5 
Q 32.28125 48.484375 27.875 48.484375 
Q 21.1875 48.484375 17.84375 46.4375 
Q 14.5 44.390625 14.5 40.28125 
Q 14.5 37.15625 16.890625 35.375 
Q 19.28125 33.59375 26.515625 31.984375 
L 29.59375 31.296875 
Q 39.15625 29.25 43.1875 25.515625 
Q 47.21875 21.78125 47.21875 15.09375 
Q 47.21875 7.46875 41.1875 3.015625 
Q 35.15625 -1.421875 24.609375 -1.421875 
Q 20.21875 -1.421875 15.453125 -0.5625 
Q 10.6875 0.296875 5.421875 2 
L 5.421875 11.28125 
Q 10.40625 8.6875 15.234375 7.390625 
Q 20.0625 6.109375 24.8125 6.109375 
Q 31.15625 6.109375 34.5625 8.28125 
Q 37.984375 10.453125 37.984375 14.40625 
Q 37.984375 18.0625 35.515625 20.015625 
Q 33.0625 21.96875 24.703125 23.78125 
L 21.578125 24.515625 
Q 13.234375 26.265625 9.515625 29.90625 
Q 5.8125 33.546875 5.8125 39.890625 
Q 5.8125 47.609375 11.28125 51.796875 
Q 16.75 56 26.8125 56 
Q 31.78125 56 36.171875 55.265625 
Q 40.578125 54.546875 44.28125 53.078125 
z
" id="DejaVuSans-115"/>
      </defs>
      <use xlink:href="#DejaVuSans-65"/>
      <use x="68.408203" xlink:href="#DejaVuSans-115"/>
      <use x="120.507812" xlink:href="#DejaVuSans-105"/>
      <use x="148.291016" xlink:href="#DejaVuSans-97"/>
     </g>
    </g>
    <g id="line2d_26">
     <path d="M 50.98125 41.16375 
L 66.98125 41.16375 
" style="fill:none;stroke:#525886;stroke-linecap:square;stroke-width:2;"/>
    </g>
    <g id="line2d_27"/>
    <g id="text_19">
     <!-- South America -->
     <g transform="translate(73.38125 43.96375)scale(0.08 -0.08)">
      <defs>
       <path d="M 53.515625 70.515625 
L 53.515625 60.890625 
Q 47.90625 63.578125 42.921875 64.890625 
Q 37.9375 66.21875 33.296875 66.21875 
Q 25.25 66.21875 20.875 63.09375 
Q 16.5 59.96875 16.5 54.203125 
Q 16.5 49.359375 19.40625 46.890625 
Q 22.3125 44.4375 30.421875 42.921875 
L 36.375 41.703125 
Q 47.40625 39.59375 52.65625 34.296875 
Q 57.90625 29 57.90625 20.125 
Q 57.90625 9.515625 50.796875 4.046875 
Q 43.703125 -1.421875 29.984375 -1.421875 
Q 24.8125 -1.421875 18.96875 -0.25 
Q 13.140625 0.921875 6.890625 3.21875 
L 6.890625 13.375 
Q 12.890625 10.015625 18.65625 8.296875 
Q 24.421875 6.59375 29.984375 6.59375 
Q 38.421875 6.59375 43.015625 9.90625 
Q 47.609375 13.234375 47.609375 19.390625 
Q 47.609375 24.75 44.3125 27.78125 
Q 41.015625 30.8125 33.5 32.328125 
L 27.484375 33.5 
Q 16.453125 35.6875 11.515625 40.375 
Q 6.59375 45.0625 6.59375 53.421875 
Q 6.59375 63.09375 13.40625 68.65625 
Q 20.21875 74.21875 32.171875 74.21875 
Q 37.3125 74.21875 42.625 73.28125 
Q 47.953125 72.359375 53.515625 70.515625 
z
" id="DejaVuSans-83"/>
       <path d="M 54.890625 33.015625 
L 54.890625 0 
L 45.90625 0 
L 45.90625 32.71875 
Q 45.90625 40.484375 42.875 44.328125 
Q 39.84375 48.1875 33.796875 48.1875 
Q 26.515625 48.1875 22.3125 43.546875 
Q 18.109375 38.921875 18.109375 30.90625 
L 18.109375 0 
L 9.078125 0 
L 9.078125 75.984375 
L 18.109375 75.984375 
L 18.109375 46.1875 
Q 21.34375 51.125 25.703125 53.5625 
Q 30.078125 56 35.796875 56 
Q 45.21875 56 50.046875 50.171875 
Q 54.890625 44.34375 54.890625 33.015625 
z
" id="DejaVuSans-104"/>
       <path d="M 52 44.1875 
Q 55.375 50.25 60.0625 53.125 
Q 64.75 56 71.09375 56 
Q 79.640625 56 84.28125 50.015625 
Q 88.921875 44.046875 88.921875 33.015625 
L 88.921875 0 
L 79.890625 0 
L 79.890625 32.71875 
Q 79.890625 40.578125 77.09375 44.375 
Q 74.3125 48.1875 68.609375 48.1875 
Q 61.625 48.1875 57.5625 43.546875 
Q 53.515625 38.921875 53.515625 30.90625 
L 53.515625 0 
L 44.484375 0 
L 44.484375 32.71875 
Q 44.484375 40.625 41.703125 44.40625 
Q 38.921875 48.1875 33.109375 48.1875 
Q 26.21875 48.1875 22.15625 43.53125 
Q 18.109375 38.875 18.109375 30.90625 
L 18.109375 0 
L 9.078125 0 
L 9.078125 54.6875 
L 18.109375 54.6875 
L 18.109375 46.1875 
Q 21.1875 51.21875 25.484375 53.609375 
Q 29.78125 56 35.6875 56 
Q 41.65625 56 45.828125 52.96875 
Q 50 49.953125 52 44.1875 
z
" id="DejaVuSans-109"/>
      </defs>
      <use xlink:href="#DejaVuSans-83"/>
      <use x="63.476562" xlink:href="#DejaVuSans-111"/>
      <use x="124.658203" xlink:href="#DejaVuSans-117"/>
      <use x="188.037109" xlink:href="#DejaVuSans-116"/>
      <use x="227.246094" xlink:href="#DejaVuSans-104"/>
      <use x="290.625" xlink:href="#DejaVuSans-32"/>
      <use x="322.412109" xlink:href="#DejaVuSans-65"/>
      <use x="390.820312" xlink:href="#DejaVuSans-109"/>
      <use x="488.232422" xlink:href="#DejaVuSans-101"/>
      <use x="549.755859" xlink:href="#DejaVuSans-114"/>
      <use x="590.869141" xlink:href="#DejaVuSans-105"/>
      <use x="618.652344" xlink:href="#DejaVuSans-99"/>
      <use x="673.632812" xlink:href="#DejaVuSans-97"/>
     </g>
    </g>
    <g id="line2d_28">
     <path d="M 50.98125 52.90625 
L 66.98125 52.90625 
" style="fill:none;stroke:#937252;stroke-linecap:square;stroke-width:2;"/>
    </g>
    <g id="line2d_29"/>
    <g id="text_20">
     <!-- North America -->
     <g transform="translate(73.38125 55.70625)scale(0.08 -0.08)">
      <defs>
       <path d="M 9.8125 72.90625 
L 23.09375 72.90625 
L 55.421875 11.921875 
L 55.421875 72.90625 
L 64.984375 72.90625 
L 64.984375 0 
L 51.703125 0 
L 19.390625 60.984375 
L 19.390625 0 
L 9.8125 0 
z
" id="DejaVuSans-78"/>
      </defs>
      <use xlink:href="#DejaVuSans-78"/>
      <use x="74.804688" xlink:href="#DejaVuSans-111"/>
      <use x="135.986328" xlink:href="#DejaVuSans-114"/>
      <use x="177.099609" xlink:href="#DejaVuSans-116"/>
      <use x="216.308594" xlink:href="#DejaVuSans-104"/>
      <use x="279.6875" xlink:href="#DejaVuSans-32"/>
      <use x="311.474609" xlink:href="#DejaVuSans-65"/>
      <use x="379.882812" xlink:href="#DejaVuSans-109"/>
      <use x="477.294922" xlink:href="#DejaVuSans-101"/>
      <use x="538.818359" xlink:href="#DejaVuSans-114"/>
      <use x="579.931641" xlink:href="#DejaVuSans-105"/>
      <use x="607.714844" xlink:href="#DejaVuSans-99"/>
      <use x="662.695312" xlink:href="#DejaVuSans-97"/>
     </g>
    </g>
    <g id="line2d_30">
     <path d="M 50.98125 64.64875 
L 66.98125 64.64875 
" style="fill:none;stroke:#d18cad;stroke-linecap:square;stroke-width:2;"/>
    </g>
    <g id="line2d_31"/>
    <g id="text_21">
     <!-- United Kingdom -->
     <g transform="translate(73.38125 67.44875)scale(0.08 -0.08)">
      <defs>
       <path d="M 8.6875 72.90625 
L 18.609375 72.90625 
L 18.609375 28.609375 
Q 18.609375 16.890625 22.84375 11.734375 
Q 27.09375 6.59375 36.625 6.59375 
Q 46.09375 6.59375 50.34375 11.734375 
Q 54.59375 16.890625 54.59375 28.609375 
L 54.59375 72.90625 
L 64.5 72.90625 
L 64.5 27.390625 
Q 64.5 13.140625 57.4375 5.859375 
Q 50.390625 -1.421875 36.625 -1.421875 
Q 22.796875 -1.421875 15.734375 5.859375 
Q 8.6875 13.140625 8.6875 27.390625 
z
" id="DejaVuSans-85"/>
       <path d="M 9.8125 72.90625 
L 19.671875 72.90625 
L 19.671875 42.09375 
L 52.390625 72.90625 
L 65.09375 72.90625 
L 28.90625 38.921875 
L 67.671875 0 
L 54.6875 0 
L 19.671875 35.109375 
L 19.671875 0 
L 9.8125 0 
z
" id="DejaVuSans-75"/>
      </defs>
      <use xlink:href="#DejaVuSans-85"/>
      <use x="73.193359" xlink:href="#DejaVuSans-110"/>
      <use x="136.572266" xlink:href="#DejaVuSans-105"/>
      <use x="164.355469" xlink:href="#DejaVuSans-116"/>
      <use x="203.564453" xlink:href="#DejaVuSans-101"/>
      <use x="265.087891" xlink:href="#DejaVuSans-100"/>
      <use x="328.564453" xlink:href="#DejaVuSans-32"/>
      <use x="360.351562" xlink:href="#DejaVuSans-75"/>
      <use x="425.927734" xlink:href="#DejaVuSans-105"/>
      <use x="453.710938" xlink:href="#DejaVuSans-110"/>
      <use x="517.089844" xlink:href="#DejaVuSans-103"/>
      <use x="580.566406" xlink:href="#DejaVuSans-100"/>
      <use x="644.042969" xlink:href="#DejaVuSans-111"/>
      <use x="705.224609" xlink:href="#DejaVuSans-109"/>
     </g>
    </g>
    <g id="line2d_32">
     <path d="M 50.98125 76.39125 
L 66.98125 76.39125 
" style="fill:none;stroke:#a4a86f;stroke-linecap:square;stroke-width:2;"/>
    </g>
    <g id="line2d_33"/>
    <g id="text_22">
     <!-- Oceania -->
     <g transform="translate(73.38125 79.19125)scale(0.08 -0.08)">
      <defs>
       <path d="M 39.40625 66.21875 
Q 28.65625 66.21875 22.328125 58.203125 
Q 16.015625 50.203125 16.015625 36.375 
Q 16.015625 22.609375 22.328125 14.59375 
Q 28.65625 6.59375 39.40625 6.59375 
Q 50.140625 6.59375 56.421875 14.59375 
Q 62.703125 22.609375 62.703125 36.375 
Q 62.703125 50.203125 56.421875 58.203125 
Q 50.140625 66.21875 39.40625 66.21875 
z
M 39.40625 74.21875 
Q 54.734375 74.21875 63.90625 63.9375 
Q 73.09375 53.65625 73.09375 36.375 
Q 73.09375 19.140625 63.90625 8.859375 
Q 54.734375 -1.421875 39.40625 -1.421875 
Q 24.03125 -1.421875 14.8125 8.828125 
Q 5.609375 19.09375 5.609375 36.375 
Q 5.609375 53.65625 14.8125 63.9375 
Q 24.03125 74.21875 39.40625 74.21875 
z
" id="DejaVuSans-79"/>
      </defs>
      <use xlink:href="#DejaVuSans-79"/>
      <use x="78.710938" xlink:href="#DejaVuSans-99"/>
      <use x="133.691406" xlink:href="#DejaVuSans-101"/>
      <use x="195.214844" xlink:href="#DejaVuSans-97"/>
      <use x="256.494141" xlink:href="#DejaVuSans-110"/>
      <use x="319.873047" xlink:href="#DejaVuSans-105"/>
      <use x="347.65625" xlink:href="#DejaVuSans-97"/>
     </g>
    </g>
    <g id="line2d_34">
     <path d="M 50.98125 88.13375 
L 66.98125 88.13375 
" style="fill:none;stroke:#d3d3d3;stroke-linecap:square;stroke-width:2;"/>
    </g>
    <g id="line2d_35"/>
    <g id="text_23">
     <!-- Africa -->
     <g transform="translate(73.38125 90.93375)scale(0.08 -0.08)">
      <defs>
       <path d="M 37.109375 75.984375 
L 37.109375 68.5 
L 28.515625 68.5 
Q 23.6875 68.5 21.796875 66.546875 
Q 19.921875 64.59375 19.921875 59.515625 
L 19.921875 54.6875 
L 34.71875 54.6875 
L 34.71875 47.703125 
L 19.921875 47.703125 
L 19.921875 0 
L 10.890625 0 
L 10.890625 47.703125 
L 2.296875 47.703125 
L 2.296875 54.6875 
L 10.890625 54.6875 
L 10.890625 58.5 
Q 10.890625 67.625 15.140625 71.796875 
Q 19.390625 75.984375 28.609375 75.984375 
z
" id="DejaVuSans-102"/>
      </defs>
      <use xlink:href="#DejaVuSans-65"/>
      <use x="64.783203" xlink:href="#DejaVuSans-102"/>
      <use x="99.988281" xlink:href="#DejaVuSans-114"/>
      <use x="141.101562" xlink:href="#DejaVuSans-105"/>
      <use x="168.884766" xlink:href="#DejaVuSans-99"/>
      <use x="223.865234" xlink:href="#DejaVuSans-97"/>
     </g>
    </g>
   </g>
  </g>
 </g>
 <defs>
  <clipPath id="p559a44697e">
   <rect height="221.76" width="948.6" x="43.78125" y="7.2"/>
  </clipPath>
 </defs>
</svg>
