<?xml version="1.0" encoding="utf-8" standalone="no"?>
<!DOCTYPE svg PUBLIC "-//W3C//DTD SVG 1.1//EN"
  "http://www.w3.org/Graphics/SVG/1.1/DTD/svg11.dtd">
<svg height="298.620937pt" version="1.1" viewBox="0 0 1166.98125 298.620937" width="1166.98125pt" xmlns="http://www.w3.org/2000/svg" xmlns:xlink="http://www.w3.org/1999/xlink">
 <metadata>
  <rdf:RDF xmlns:cc="http://creativecommons.org/ns#" xmlns:dc="http://purl.org/dc/elements/1.1/" xmlns:rdf="http://www.w3.org/1999/02/22-rdf-syntax-ns#">
   <cc:Work>
    <dc:type rdf:resource="http://purl.org/dc/dcmitype/StillImage"/>
    <dc:date>2021-07-06T16:15:45.062029</dc:date>
    <dc:format>image/svg+xml</dc:format>
    <dc:creator>
     <cc:Agent>
      <dc:title>Matplotlib v3.4.2, https://matplotlib.org/</dc:title>
     </cc:Agent>
    </dc:creator>
   </cc:Work>
  </rdf:RDF>
 </metadata>
 <defs>
  <style type="text/css">*{stroke-linecap:butt;stroke-linejoin:round;}</style>
 </defs>
 <g id="figure_1">
  <g id="patch_1">
   <path d="M 0 298.620937 
L 1166.98125 298.620937 
L 1166.98125 0 
L 0 0 
z
" style="fill:#ffffff;"/>
  </g>
  <g id="axes_1">
   <g id="patch_2">
    <path d="M 43.78125 228.96 
L 1159.78125 228.96 
L 1159.78125 7.2 
L 43.78125 7.2 
z
" style="fill:#ffffff;"/>
   </g>
   <g id="matplotlib.axis_1">
    <g id="xtick_1">
     <g id="line2d_1">
      <defs>
       <path d="M 0 0 
L 0 3.5 
" id="mf860099982" style="stroke:#000000;stroke-width:0.8;"/>
      </defs>
      <g>
       <use style="stroke:#000000;stroke-width:0.8;" x="124.988429" xlink:href="#mf860099982" y="228.96"/>
      </g>
     </g>
     <g id="text_1">
      <!-- 2020-11 -->
      <g transform="translate(127.747804 277.742812)rotate(-90)scale(0.1 -0.1)">
       <defs>
        <path d="M 1228 531 
L 3431 531 
L 3431 0 
L 469 0 
L 469 531 
Q 828 903 1448 1529 
Q 2069 2156 2228 2338 
Q 2531 2678 2651 2914 
Q 2772 3150 2772 3378 
Q 2772 3750 2511 3984 
Q 2250 4219 1831 4219 
Q 1534 4219 1204 4116 
Q 875 4013 500 3803 
L 500 4441 
Q 881 4594 1212 4672 
Q 1544 4750 1819 4750 
Q 2544 4750 2975 4387 
Q 3406 4025 3406 3419 
Q 3406 3131 3298 2873 
Q 3191 2616 2906 2266 
Q 2828 2175 2409 1742 
Q 1991 1309 1228 531 
z
" id="DejaVuSans-32" transform="scale(0.015625)"/>
        <path d="M 2034 4250 
Q 1547 4250 1301 3770 
Q 1056 3291 1056 2328 
Q 1056 1369 1301 889 
Q 1547 409 2034 409 
Q 2525 409 2770 889 
Q 3016 1369 3016 2328 
Q 3016 3291 2770 3770 
Q 2525 4250 2034 4250 
z
M 2034 4750 
Q 2819 4750 3233 4129 
Q 3647 3509 3647 2328 
Q 3647 1150 3233 529 
Q 2819 -91 2034 -91 
Q 1250 -91 836 529 
Q 422 1150 422 2328 
Q 422 3509 836 4129 
Q 1250 4750 2034 4750 
z
" id="DejaVuSans-30" transform="scale(0.015625)"/>
        <path d="M 313 2009 
L 1997 2009 
L 1997 1497 
L 313 1497 
L 313 2009 
z
" id="DejaVuSans-2d" transform="scale(0.015625)"/>
        <path d="M 794 531 
L 1825 531 
L 1825 4091 
L 703 3866 
L 703 4441 
L 1819 4666 
L 2450 4666 
L 2450 531 
L 3481 531 
L 3481 0 
L 794 0 
L 794 531 
z
" id="DejaVuSans-31" transform="scale(0.015625)"/>
       </defs>
       <use xlink:href="#DejaVuSans-32"/>
       <use x="63.623047" xlink:href="#DejaVuSans-30"/>
       <use x="127.246094" xlink:href="#DejaVuSans-32"/>
       <use x="190.869141" xlink:href="#DejaVuSans-30"/>
       <use x="254.492188" xlink:href="#DejaVuSans-2d"/>
       <use x="290.576172" xlink:href="#DejaVuSans-31"/>
       <use x="354.199219" xlink:href="#DejaVuSans-31"/>
      </g>
     </g>
    </g>
    <g id="xtick_2">
     <g id="line2d_2">
      <g>
       <use style="stroke:#000000;stroke-width:0.8;" x="255.616599" xlink:href="#mf860099982" y="228.96"/>
      </g>
     </g>
     <g id="text_2">
      <!-- 2020-12 -->
      <g transform="translate(258.375974 277.742812)rotate(-90)scale(0.1 -0.1)">
       <use xlink:href="#DejaVuSans-32"/>
       <use x="63.623047" xlink:href="#DejaVuSans-30"/>
       <use x="127.246094" xlink:href="#DejaVuSans-32"/>
       <use x="190.869141" xlink:href="#DejaVuSans-30"/>
       <use x="254.492188" xlink:href="#DejaVuSans-2d"/>
       <use x="290.576172" xlink:href="#DejaVuSans-31"/>
       <use x="354.199219" xlink:href="#DejaVuSans-32"/>
      </g>
     </g>
    </g>
    <g id="xtick_3">
     <g id="line2d_3">
      <g>
       <use style="stroke:#000000;stroke-width:0.8;" x="390.599042" xlink:href="#mf860099982" y="228.96"/>
      </g>
     </g>
     <g id="text_3">
      <!-- 2021-01 -->
      <g transform="translate(393.358417 277.742812)rotate(-90)scale(0.1 -0.1)">
       <use xlink:href="#DejaVuSans-32"/>
       <use x="63.623047" xlink:href="#DejaVuSans-30"/>
       <use x="127.246094" xlink:href="#DejaVuSans-32"/>
       <use x="190.869141" xlink:href="#DejaVuSans-31"/>
       <use x="254.492188" xlink:href="#DejaVuSans-2d"/>
       <use x="290.576172" xlink:href="#DejaVuSans-30"/>
       <use x="354.199219" xlink:href="#DejaVuSans-31"/>
      </g>
     </g>
    </g>
    <g id="xtick_4">
     <g id="line2d_4">
      <g>
       <use style="stroke:#000000;stroke-width:0.8;" x="525.581484" xlink:href="#mf860099982" y="228.96"/>
      </g>
     </g>
     <g id="text_4">
      <!-- 2021-02 -->
      <g transform="translate(528.340859 277.742812)rotate(-90)scale(0.1 -0.1)">
       <use xlink:href="#DejaVuSans-32"/>
       <use x="63.623047" xlink:href="#DejaVuSans-30"/>
       <use x="127.246094" xlink:href="#DejaVuSans-32"/>
       <use x="190.869141" xlink:href="#DejaVuSans-31"/>
       <use x="254.492188" xlink:href="#DejaVuSans-2d"/>
       <use x="290.576172" xlink:href="#DejaVuSans-30"/>
       <use x="354.199219" xlink:href="#DejaVuSans-32"/>
      </g>
     </g>
    </g>
    <g id="xtick_5">
     <g id="line2d_5">
      <g>
       <use style="stroke:#000000;stroke-width:0.8;" x="647.50111" xlink:href="#mf860099982" y="228.96"/>
      </g>
     </g>
     <g id="text_5">
      <!-- 2021-03 -->
      <g transform="translate(650.260485 277.742812)rotate(-90)scale(0.1 -0.1)">
       <defs>
        <path d="M 2597 2516 
Q 3050 2419 3304 2112 
Q 3559 1806 3559 1356 
Q 3559 666 3084 287 
Q 2609 -91 1734 -91 
Q 1441 -91 1130 -33 
Q 819 25 488 141 
L 488 750 
Q 750 597 1062 519 
Q 1375 441 1716 441 
Q 2309 441 2620 675 
Q 2931 909 2931 1356 
Q 2931 1769 2642 2001 
Q 2353 2234 1838 2234 
L 1294 2234 
L 1294 2753 
L 1863 2753 
Q 2328 2753 2575 2939 
Q 2822 3125 2822 3475 
Q 2822 3834 2567 4026 
Q 2313 4219 1838 4219 
Q 1578 4219 1281 4162 
Q 984 4106 628 3988 
L 628 4550 
Q 988 4650 1302 4700 
Q 1616 4750 1894 4750 
Q 2613 4750 3031 4423 
Q 3450 4097 3450 3541 
Q 3450 3153 3228 2886 
Q 3006 2619 2597 2516 
z
" id="DejaVuSans-33" transform="scale(0.015625)"/>
       </defs>
       <use xlink:href="#DejaVuSans-32"/>
       <use x="63.623047" xlink:href="#DejaVuSans-30"/>
       <use x="127.246094" xlink:href="#DejaVuSans-32"/>
       <use x="190.869141" xlink:href="#DejaVuSans-31"/>
       <use x="254.492188" xlink:href="#DejaVuSans-2d"/>
       <use x="290.576172" xlink:href="#DejaVuSans-30"/>
       <use x="354.199219" xlink:href="#DejaVuSans-33"/>
      </g>
     </g>
    </g>
    <g id="xtick_6">
     <g id="line2d_6">
      <g>
       <use style="stroke:#000000;stroke-width:0.8;" x="782.483552" xlink:href="#mf860099982" y="228.96"/>
      </g>
     </g>
     <g id="text_6">
      <!-- 2021-04 -->
      <g transform="translate(785.242927 277.742812)rotate(-90)scale(0.1 -0.1)">
       <defs>
        <path d="M 2419 4116 
L 825 1625 
L 2419 1625 
L 2419 4116 
z
M 2253 4666 
L 3047 4666 
L 3047 1625 
L 3713 1625 
L 3713 1100 
L 3047 1100 
L 3047 0 
L 2419 0 
L 2419 1100 
L 313 1100 
L 313 1709 
L 2253 4666 
z
" id="DejaVuSans-34" transform="scale(0.015625)"/>
       </defs>
       <use xlink:href="#DejaVuSans-32"/>
       <use x="63.623047" xlink:href="#DejaVuSans-30"/>
       <use x="127.246094" xlink:href="#DejaVuSans-32"/>
       <use x="190.869141" xlink:href="#DejaVuSans-31"/>
       <use x="254.492188" xlink:href="#DejaVuSans-2d"/>
       <use x="290.576172" xlink:href="#DejaVuSans-30"/>
       <use x="354.199219" xlink:href="#DejaVuSans-34"/>
      </g>
     </g>
    </g>
    <g id="xtick_7">
     <g id="line2d_7">
      <g>
       <use style="stroke:#000000;stroke-width:0.8;" x="913.111722" xlink:href="#mf860099982" y="228.96"/>
      </g>
     </g>
     <g id="text_7">
      <!-- 2021-05 -->
      <g transform="translate(915.871097 277.742812)rotate(-90)scale(0.1 -0.1)">
       <defs>
        <path d="M 691 4666 
L 3169 4666 
L 3169 4134 
L 1269 4134 
L 1269 2991 
Q 1406 3038 1543 3061 
Q 1681 3084 1819 3084 
Q 2600 3084 3056 2656 
Q 3513 2228 3513 1497 
Q 3513 744 3044 326 
Q 2575 -91 1722 -91 
Q 1428 -91 1123 -41 
Q 819 9 494 109 
L 494 744 
Q 775 591 1075 516 
Q 1375 441 1709 441 
Q 2250 441 2565 725 
Q 2881 1009 2881 1497 
Q 2881 1984 2565 2268 
Q 2250 2553 1709 2553 
Q 1456 2553 1204 2497 
Q 953 2441 691 2322 
L 691 4666 
z
" id="DejaVuSans-35" transform="scale(0.015625)"/>
       </defs>
       <use xlink:href="#DejaVuSans-32"/>
       <use x="63.623047" xlink:href="#DejaVuSans-30"/>
       <use x="127.246094" xlink:href="#DejaVuSans-32"/>
       <use x="190.869141" xlink:href="#DejaVuSans-31"/>
       <use x="254.492188" xlink:href="#DejaVuSans-2d"/>
       <use x="290.576172" xlink:href="#DejaVuSans-30"/>
       <use x="354.199219" xlink:href="#DejaVuSans-35"/>
      </g>
     </g>
    </g>
    <g id="xtick_8">
     <g id="line2d_8">
      <g>
       <use style="stroke:#000000;stroke-width:0.8;" x="1048.094165" xlink:href="#mf860099982" y="228.96"/>
      </g>
     </g>
     <g id="text_8">
      <!-- 2021-06 -->
      <g transform="translate(1050.85354 277.742812)rotate(-90)scale(0.1 -0.1)">
       <defs>
        <path d="M 2113 2584 
Q 1688 2584 1439 2293 
Q 1191 2003 1191 1497 
Q 1191 994 1439 701 
Q 1688 409 2113 409 
Q 2538 409 2786 701 
Q 3034 994 3034 1497 
Q 3034 2003 2786 2293 
Q 2538 2584 2113 2584 
z
M 3366 4563 
L 3366 3988 
Q 3128 4100 2886 4159 
Q 2644 4219 2406 4219 
Q 1781 4219 1451 3797 
Q 1122 3375 1075 2522 
Q 1259 2794 1537 2939 
Q 1816 3084 2150 3084 
Q 2853 3084 3261 2657 
Q 3669 2231 3669 1497 
Q 3669 778 3244 343 
Q 2819 -91 2113 -91 
Q 1303 -91 875 529 
Q 447 1150 447 2328 
Q 447 3434 972 4092 
Q 1497 4750 2381 4750 
Q 2619 4750 2861 4703 
Q 3103 4656 3366 4563 
z
" id="DejaVuSans-36" transform="scale(0.015625)"/>
       </defs>
       <use xlink:href="#DejaVuSans-32"/>
       <use x="63.623047" xlink:href="#DejaVuSans-30"/>
       <use x="127.246094" xlink:href="#DejaVuSans-32"/>
       <use x="190.869141" xlink:href="#DejaVuSans-31"/>
       <use x="254.492188" xlink:href="#DejaVuSans-2d"/>
       <use x="290.576172" xlink:href="#DejaVuSans-30"/>
       <use x="354.199219" xlink:href="#DejaVuSans-36"/>
      </g>
     </g>
    </g>
    <g id="text_9">
     <!-- Date -->
     <g transform="translate(589.830469 289.34125)scale(0.1 -0.1)">
      <defs>
       <path d="M 1259 4147 
L 1259 519 
L 2022 519 
Q 2988 519 3436 956 
Q 3884 1394 3884 2338 
Q 3884 3275 3436 3711 
Q 2988 4147 2022 4147 
L 1259 4147 
z
M 628 4666 
L 1925 4666 
Q 3281 4666 3915 4102 
Q 4550 3538 4550 2338 
Q 4550 1131 3912 565 
Q 3275 0 1925 0 
L 628 0 
L 628 4666 
z
" id="DejaVuSans-44" transform="scale(0.015625)"/>
       <path d="M 2194 1759 
Q 1497 1759 1228 1600 
Q 959 1441 959 1056 
Q 959 750 1161 570 
Q 1363 391 1709 391 
Q 2188 391 2477 730 
Q 2766 1069 2766 1631 
L 2766 1759 
L 2194 1759 
z
M 3341 1997 
L 3341 0 
L 2766 0 
L 2766 531 
Q 2569 213 2275 61 
Q 1981 -91 1556 -91 
Q 1019 -91 701 211 
Q 384 513 384 1019 
Q 384 1609 779 1909 
Q 1175 2209 1959 2209 
L 2766 2209 
L 2766 2266 
Q 2766 2663 2505 2880 
Q 2244 3097 1772 3097 
Q 1472 3097 1187 3025 
Q 903 2953 641 2809 
L 641 3341 
Q 956 3463 1253 3523 
Q 1550 3584 1831 3584 
Q 2591 3584 2966 3190 
Q 3341 2797 3341 1997 
z
" id="DejaVuSans-61" transform="scale(0.015625)"/>
       <path d="M 1172 4494 
L 1172 3500 
L 2356 3500 
L 2356 3053 
L 1172 3053 
L 1172 1153 
Q 1172 725 1289 603 
Q 1406 481 1766 481 
L 2356 481 
L 2356 0 
L 1766 0 
Q 1100 0 847 248 
Q 594 497 594 1153 
L 594 3053 
L 172 3053 
L 172 3500 
L 594 3500 
L 594 4494 
L 1172 4494 
z
" id="DejaVuSans-74" transform="scale(0.015625)"/>
       <path d="M 3597 1894 
L 3597 1613 
L 953 1613 
Q 991 1019 1311 708 
Q 1631 397 2203 397 
Q 2534 397 2845 478 
Q 3156 559 3463 722 
L 3463 178 
Q 3153 47 2828 -22 
Q 2503 -91 2169 -91 
Q 1331 -91 842 396 
Q 353 884 353 1716 
Q 353 2575 817 3079 
Q 1281 3584 2069 3584 
Q 2775 3584 3186 3129 
Q 3597 2675 3597 1894 
z
M 3022 2063 
Q 3016 2534 2758 2815 
Q 2500 3097 2075 3097 
Q 1594 3097 1305 2825 
Q 1016 2553 972 2059 
L 3022 2063 
z
" id="DejaVuSans-65" transform="scale(0.015625)"/>
      </defs>
      <use xlink:href="#DejaVuSans-44"/>
      <use x="77.001953" xlink:href="#DejaVuSans-61"/>
      <use x="138.28125" xlink:href="#DejaVuSans-74"/>
      <use x="177.490234" xlink:href="#DejaVuSans-65"/>
     </g>
    </g>
   </g>
   <g id="matplotlib.axis_2">
    <g id="ytick_1">
     <g id="line2d_9">
      <defs>
       <path d="M 0 0 
L -3.5 0 
" id="m5c773d88d5" style="stroke:#000000;stroke-width:0.8;"/>
      </defs>
      <g>
       <use style="stroke:#000000;stroke-width:0.8;" x="43.78125" xlink:href="#m5c773d88d5" y="228.96"/>
      </g>
     </g>
     <g id="text_10">
      <!-- 0.0 -->
      <g transform="translate(20.878125 232.759219)scale(0.1 -0.1)">
       <defs>
        <path d="M 684 794 
L 1344 794 
L 1344 0 
L 684 0 
L 684 794 
z
" id="DejaVuSans-2e" transform="scale(0.015625)"/>
       </defs>
       <use xlink:href="#DejaVuSans-30"/>
       <use x="63.623047" xlink:href="#DejaVuSans-2e"/>
       <use x="95.410156" xlink:href="#DejaVuSans-30"/>
      </g>
     </g>
    </g>
    <g id="ytick_2">
     <g id="line2d_10">
      <g>
       <use style="stroke:#000000;stroke-width:0.8;" x="43.78125" xlink:href="#m5c773d88d5" y="202.56"/>
      </g>
     </g>
     <g id="text_11">
      <!-- 0.1 -->
      <g transform="translate(20.878125 206.359219)scale(0.1 -0.1)">
       <use xlink:href="#DejaVuSans-30"/>
       <use x="63.623047" xlink:href="#DejaVuSans-2e"/>
       <use x="95.410156" xlink:href="#DejaVuSans-31"/>
      </g>
     </g>
    </g>
    <g id="ytick_3">
     <g id="line2d_11">
      <g>
       <use style="stroke:#000000;stroke-width:0.8;" x="43.78125" xlink:href="#m5c773d88d5" y="176.16"/>
      </g>
     </g>
     <g id="text_12">
      <!-- 0.2 -->
      <g transform="translate(20.878125 179.959219)scale(0.1 -0.1)">
       <use xlink:href="#DejaVuSans-30"/>
       <use x="63.623047" xlink:href="#DejaVuSans-2e"/>
       <use x="95.410156" xlink:href="#DejaVuSans-32"/>
      </g>
     </g>
    </g>
    <g id="ytick_4">
     <g id="line2d_12">
      <g>
       <use style="stroke:#000000;stroke-width:0.8;" x="43.78125" xlink:href="#m5c773d88d5" y="149.76"/>
      </g>
     </g>
     <g id="text_13">
      <!-- 0.3 -->
      <g transform="translate(20.878125 153.559219)scale(0.1 -0.1)">
       <use xlink:href="#DejaVuSans-30"/>
       <use x="63.623047" xlink:href="#DejaVuSans-2e"/>
       <use x="95.410156" xlink:href="#DejaVuSans-33"/>
      </g>
     </g>
    </g>
    <g id="ytick_5">
     <g id="line2d_13">
      <g>
       <use style="stroke:#000000;stroke-width:0.8;" x="43.78125" xlink:href="#m5c773d88d5" y="123.36"/>
      </g>
     </g>
     <g id="text_14">
      <!-- 0.4 -->
      <g transform="translate(20.878125 127.159219)scale(0.1 -0.1)">
       <use xlink:href="#DejaVuSans-30"/>
       <use x="63.623047" xlink:href="#DejaVuSans-2e"/>
       <use x="95.410156" xlink:href="#DejaVuSans-34"/>
      </g>
     </g>
    </g>
    <g id="ytick_6">
     <g id="line2d_14">
      <g>
       <use style="stroke:#000000;stroke-width:0.8;" x="43.78125" xlink:href="#m5c773d88d5" y="96.96"/>
      </g>
     </g>
     <g id="text_15">
      <!-- 0.5 -->
      <g transform="translate(20.878125 100.759219)scale(0.1 -0.1)">
       <use xlink:href="#DejaVuSans-30"/>
       <use x="63.623047" xlink:href="#DejaVuSans-2e"/>
       <use x="95.410156" xlink:href="#DejaVuSans-35"/>
      </g>
     </g>
    </g>
    <g id="ytick_7">
     <g id="line2d_15">
      <g>
       <use style="stroke:#000000;stroke-width:0.8;" x="43.78125" xlink:href="#m5c773d88d5" y="70.56"/>
      </g>
     </g>
     <g id="text_16">
      <!-- 0.6 -->
      <g transform="translate(20.878125 74.359219)scale(0.1 -0.1)">
       <use xlink:href="#DejaVuSans-30"/>
       <use x="63.623047" xlink:href="#DejaVuSans-2e"/>
       <use x="95.410156" xlink:href="#DejaVuSans-36"/>
      </g>
     </g>
    </g>
    <g id="ytick_8">
     <g id="line2d_16">
      <g>
       <use style="stroke:#000000;stroke-width:0.8;" x="43.78125" xlink:href="#m5c773d88d5" y="44.16"/>
      </g>
     </g>
     <g id="text_17">
      <!-- 0.7 -->
      <g transform="translate(20.878125 47.959219)scale(0.1 -0.1)">
       <defs>
        <path d="M 525 4666 
L 3525 4666 
L 3525 4397 
L 1831 0 
L 1172 0 
L 2766 4134 
L 525 4134 
L 525 4666 
z
" id="DejaVuSans-37" transform="scale(0.015625)"/>
       </defs>
       <use xlink:href="#DejaVuSans-30"/>
       <use x="63.623047" xlink:href="#DejaVuSans-2e"/>
       <use x="95.410156" xlink:href="#DejaVuSans-37"/>
      </g>
     </g>
    </g>
    <g id="ytick_9">
     <g id="line2d_17">
      <g>
       <use style="stroke:#000000;stroke-width:0.8;" x="43.78125" xlink:href="#m5c773d88d5" y="17.76"/>
      </g>
     </g>
     <g id="text_18">
      <!-- 0.8 -->
      <g transform="translate(20.878125 21.559219)scale(0.1 -0.1)">
       <defs>
        <path d="M 2034 2216 
Q 1584 2216 1326 1975 
Q 1069 1734 1069 1313 
Q 1069 891 1326 650 
Q 1584 409 2034 409 
Q 2484 409 2743 651 
Q 3003 894 3003 1313 
Q 3003 1734 2745 1975 
Q 2488 2216 2034 2216 
z
M 1403 2484 
Q 997 2584 770 2862 
Q 544 3141 544 3541 
Q 544 4100 942 4425 
Q 1341 4750 2034 4750 
Q 2731 4750 3128 4425 
Q 3525 4100 3525 3541 
Q 3525 3141 3298 2862 
Q 3072 2584 2669 2484 
Q 3125 2378 3379 2068 
Q 3634 1759 3634 1313 
Q 3634 634 3220 271 
Q 2806 -91 2034 -91 
Q 1263 -91 848 271 
Q 434 634 434 1313 
Q 434 1759 690 2068 
Q 947 2378 1403 2484 
z
M 1172 3481 
Q 1172 3119 1398 2916 
Q 1625 2713 2034 2713 
Q 2441 2713 2670 2916 
Q 2900 3119 2900 3481 
Q 2900 3844 2670 4047 
Q 2441 4250 2034 4250 
Q 1625 4250 1398 4047 
Q 1172 3844 1172 3481 
z
" id="DejaVuSans-38" transform="scale(0.015625)"/>
       </defs>
       <use xlink:href="#DejaVuSans-30"/>
       <use x="63.623047" xlink:href="#DejaVuSans-2e"/>
       <use x="95.410156" xlink:href="#DejaVuSans-38"/>
      </g>
     </g>
    </g>
    <g id="text_19">
     <!-- Frequency (7 day rolling average) -->
     <g transform="translate(14.798437 202.529219)rotate(-90)scale(0.1 -0.1)">
      <defs>
       <path d="M 628 4666 
L 3309 4666 
L 3309 4134 
L 1259 4134 
L 1259 2759 
L 3109 2759 
L 3109 2228 
L 1259 2228 
L 1259 0 
L 628 0 
L 628 4666 
z
" id="DejaVuSans-46" transform="scale(0.015625)"/>
       <path d="M 2631 2963 
Q 2534 3019 2420 3045 
Q 2306 3072 2169 3072 
Q 1681 3072 1420 2755 
Q 1159 2438 1159 1844 
L 1159 0 
L 581 0 
L 581 3500 
L 1159 3500 
L 1159 2956 
Q 1341 3275 1631 3429 
Q 1922 3584 2338 3584 
Q 2397 3584 2469 3576 
Q 2541 3569 2628 3553 
L 2631 2963 
z
" id="DejaVuSans-72" transform="scale(0.015625)"/>
       <path d="M 947 1747 
Q 947 1113 1208 752 
Q 1469 391 1925 391 
Q 2381 391 2643 752 
Q 2906 1113 2906 1747 
Q 2906 2381 2643 2742 
Q 2381 3103 1925 3103 
Q 1469 3103 1208 2742 
Q 947 2381 947 1747 
z
M 2906 525 
Q 2725 213 2448 61 
Q 2172 -91 1784 -91 
Q 1150 -91 751 415 
Q 353 922 353 1747 
Q 353 2572 751 3078 
Q 1150 3584 1784 3584 
Q 2172 3584 2448 3432 
Q 2725 3281 2906 2969 
L 2906 3500 
L 3481 3500 
L 3481 -1331 
L 2906 -1331 
L 2906 525 
z
" id="DejaVuSans-71" transform="scale(0.015625)"/>
       <path d="M 544 1381 
L 544 3500 
L 1119 3500 
L 1119 1403 
Q 1119 906 1312 657 
Q 1506 409 1894 409 
Q 2359 409 2629 706 
Q 2900 1003 2900 1516 
L 2900 3500 
L 3475 3500 
L 3475 0 
L 2900 0 
L 2900 538 
Q 2691 219 2414 64 
Q 2138 -91 1772 -91 
Q 1169 -91 856 284 
Q 544 659 544 1381 
z
M 1991 3584 
L 1991 3584 
z
" id="DejaVuSans-75" transform="scale(0.015625)"/>
       <path d="M 3513 2113 
L 3513 0 
L 2938 0 
L 2938 2094 
Q 2938 2591 2744 2837 
Q 2550 3084 2163 3084 
Q 1697 3084 1428 2787 
Q 1159 2491 1159 1978 
L 1159 0 
L 581 0 
L 581 3500 
L 1159 3500 
L 1159 2956 
Q 1366 3272 1645 3428 
Q 1925 3584 2291 3584 
Q 2894 3584 3203 3211 
Q 3513 2838 3513 2113 
z
" id="DejaVuSans-6e" transform="scale(0.015625)"/>
       <path d="M 3122 3366 
L 3122 2828 
Q 2878 2963 2633 3030 
Q 2388 3097 2138 3097 
Q 1578 3097 1268 2742 
Q 959 2388 959 1747 
Q 959 1106 1268 751 
Q 1578 397 2138 397 
Q 2388 397 2633 464 
Q 2878 531 3122 666 
L 3122 134 
Q 2881 22 2623 -34 
Q 2366 -91 2075 -91 
Q 1284 -91 818 406 
Q 353 903 353 1747 
Q 353 2603 823 3093 
Q 1294 3584 2113 3584 
Q 2378 3584 2631 3529 
Q 2884 3475 3122 3366 
z
" id="DejaVuSans-63" transform="scale(0.015625)"/>
       <path d="M 2059 -325 
Q 1816 -950 1584 -1140 
Q 1353 -1331 966 -1331 
L 506 -1331 
L 506 -850 
L 844 -850 
Q 1081 -850 1212 -737 
Q 1344 -625 1503 -206 
L 1606 56 
L 191 3500 
L 800 3500 
L 1894 763 
L 2988 3500 
L 3597 3500 
L 2059 -325 
z
" id="DejaVuSans-79" transform="scale(0.015625)"/>
       <path id="DejaVuSans-20" transform="scale(0.015625)"/>
       <path d="M 1984 4856 
Q 1566 4138 1362 3434 
Q 1159 2731 1159 2009 
Q 1159 1288 1364 580 
Q 1569 -128 1984 -844 
L 1484 -844 
Q 1016 -109 783 600 
Q 550 1309 550 2009 
Q 550 2706 781 3412 
Q 1013 4119 1484 4856 
L 1984 4856 
z
" id="DejaVuSans-28" transform="scale(0.015625)"/>
       <path d="M 2906 2969 
L 2906 4863 
L 3481 4863 
L 3481 0 
L 2906 0 
L 2906 525 
Q 2725 213 2448 61 
Q 2172 -91 1784 -91 
Q 1150 -91 751 415 
Q 353 922 353 1747 
Q 353 2572 751 3078 
Q 1150 3584 1784 3584 
Q 2172 3584 2448 3432 
Q 2725 3281 2906 2969 
z
M 947 1747 
Q 947 1113 1208 752 
Q 1469 391 1925 391 
Q 2381 391 2643 752 
Q 2906 1113 2906 1747 
Q 2906 2381 2643 2742 
Q 2381 3103 1925 3103 
Q 1469 3103 1208 2742 
Q 947 2381 947 1747 
z
" id="DejaVuSans-64" transform="scale(0.015625)"/>
       <path d="M 1959 3097 
Q 1497 3097 1228 2736 
Q 959 2375 959 1747 
Q 959 1119 1226 758 
Q 1494 397 1959 397 
Q 2419 397 2687 759 
Q 2956 1122 2956 1747 
Q 2956 2369 2687 2733 
Q 2419 3097 1959 3097 
z
M 1959 3584 
Q 2709 3584 3137 3096 
Q 3566 2609 3566 1747 
Q 3566 888 3137 398 
Q 2709 -91 1959 -91 
Q 1206 -91 779 398 
Q 353 888 353 1747 
Q 353 2609 779 3096 
Q 1206 3584 1959 3584 
z
" id="DejaVuSans-6f" transform="scale(0.015625)"/>
       <path d="M 603 4863 
L 1178 4863 
L 1178 0 
L 603 0 
L 603 4863 
z
" id="DejaVuSans-6c" transform="scale(0.015625)"/>
       <path d="M 603 3500 
L 1178 3500 
L 1178 0 
L 603 0 
L 603 3500 
z
M 603 4863 
L 1178 4863 
L 1178 4134 
L 603 4134 
L 603 4863 
z
" id="DejaVuSans-69" transform="scale(0.015625)"/>
       <path d="M 2906 1791 
Q 2906 2416 2648 2759 
Q 2391 3103 1925 3103 
Q 1463 3103 1205 2759 
Q 947 2416 947 1791 
Q 947 1169 1205 825 
Q 1463 481 1925 481 
Q 2391 481 2648 825 
Q 2906 1169 2906 1791 
z
M 3481 434 
Q 3481 -459 3084 -895 
Q 2688 -1331 1869 -1331 
Q 1566 -1331 1297 -1286 
Q 1028 -1241 775 -1147 
L 775 -588 
Q 1028 -725 1275 -790 
Q 1522 -856 1778 -856 
Q 2344 -856 2625 -561 
Q 2906 -266 2906 331 
L 2906 616 
Q 2728 306 2450 153 
Q 2172 0 1784 0 
Q 1141 0 747 490 
Q 353 981 353 1791 
Q 353 2603 747 3093 
Q 1141 3584 1784 3584 
Q 2172 3584 2450 3431 
Q 2728 3278 2906 2969 
L 2906 3500 
L 3481 3500 
L 3481 434 
z
" id="DejaVuSans-67" transform="scale(0.015625)"/>
       <path d="M 191 3500 
L 800 3500 
L 1894 563 
L 2988 3500 
L 3597 3500 
L 2284 0 
L 1503 0 
L 191 3500 
z
" id="DejaVuSans-76" transform="scale(0.015625)"/>
       <path d="M 513 4856 
L 1013 4856 
Q 1481 4119 1714 3412 
Q 1947 2706 1947 2009 
Q 1947 1309 1714 600 
Q 1481 -109 1013 -844 
L 513 -844 
Q 928 -128 1133 580 
Q 1338 1288 1338 2009 
Q 1338 2731 1133 3434 
Q 928 4138 513 4856 
z
" id="DejaVuSans-29" transform="scale(0.015625)"/>
      </defs>
      <use xlink:href="#DejaVuSans-46"/>
      <use x="50.269531" xlink:href="#DejaVuSans-72"/>
      <use x="89.132812" xlink:href="#DejaVuSans-65"/>
      <use x="150.65625" xlink:href="#DejaVuSans-71"/>
      <use x="214.132812" xlink:href="#DejaVuSans-75"/>
      <use x="277.511719" xlink:href="#DejaVuSans-65"/>
      <use x="339.035156" xlink:href="#DejaVuSans-6e"/>
      <use x="402.414062" xlink:href="#DejaVuSans-63"/>
      <use x="457.394531" xlink:href="#DejaVuSans-79"/>
      <use x="516.574219" xlink:href="#DejaVuSans-20"/>
      <use x="548.361328" xlink:href="#DejaVuSans-28"/>
      <use x="587.375" xlink:href="#DejaVuSans-37"/>
      <use x="650.998047" xlink:href="#DejaVuSans-20"/>
      <use x="682.785156" xlink:href="#DejaVuSans-64"/>
      <use x="746.261719" xlink:href="#DejaVuSans-61"/>
      <use x="807.541016" xlink:href="#DejaVuSans-79"/>
      <use x="866.720703" xlink:href="#DejaVuSans-20"/>
      <use x="898.507812" xlink:href="#DejaVuSans-72"/>
      <use x="937.371094" xlink:href="#DejaVuSans-6f"/>
      <use x="998.552734" xlink:href="#DejaVuSans-6c"/>
      <use x="1026.335938" xlink:href="#DejaVuSans-6c"/>
      <use x="1054.119141" xlink:href="#DejaVuSans-69"/>
      <use x="1081.902344" xlink:href="#DejaVuSans-6e"/>
      <use x="1145.28125" xlink:href="#DejaVuSans-67"/>
      <use x="1208.757812" xlink:href="#DejaVuSans-20"/>
      <use x="1240.544922" xlink:href="#DejaVuSans-61"/>
      <use x="1301.824219" xlink:href="#DejaVuSans-76"/>
      <use x="1361.003906" xlink:href="#DejaVuSans-65"/>
      <use x="1422.527344" xlink:href="#DejaVuSans-72"/>
      <use x="1463.640625" xlink:href="#DejaVuSans-61"/>
      <use x="1524.919922" xlink:href="#DejaVuSans-67"/>
      <use x="1588.396484" xlink:href="#DejaVuSans-65"/>
      <use x="1649.919922" xlink:href="#DejaVuSans-29"/>
     </g>
    </g>
   </g>
   <g id="line2d_18">
    <path clip-path="url(#p2ce737c7d0)" d="M 94.508523 193.76 
L 98.862795 220.16 
L 103.217067 228.96 
L 107.57134 218.4 
L 111.925612 205.2 
L 120.634157 205.2 
L 124.988429 178.8 
L 129.342701 189.36 
L 133.696974 202.56 
L 138.051246 176.16 
L 142.405518 176.16 
L 146.759791 192.96 
L 151.114063 192.96 
L 155.468335 188.56 
L 159.822608 214.96 
L 164.17688 206.16 
L 168.531152 204.644211 
L 172.885425 204.644211 
L 177.239697 180.244211 
L 181.593969 160.444211 
L 185.948242 169.244211 
L 190.302514 165.274286 
L 194.656786 160.874286 
L 199.011059 189.674286 
L 203.365331 209.474286 
L 207.719603 209.474286 
L 212.073876 224.56 
L 216.428148 228.96 
L 264.325144 228.96 
L 268.679416 215.76 
L 273.033689 215.76 
L 277.387961 162.96 
L 281.742233 162.96 
L 286.096506 129.017143 
L 290.450778 99.977143 
L 294.80505 78.857143 
L 299.159323 110.537143 
L 303.513595 92.937143 
L 307.867867 111.794286 
L 312.22214 132.914286 
L 316.576412 123.862857 
L 320.930684 137.44 
L 325.284957 144.982857 
L 329.639229 107.268571 
L 333.993501 128.388571 
L 338.347774 113.302857 
L 342.702046 90.674286 
L 347.056318 62.011429 
L 351.410591 114.811429 
L 355.764863 108.944762 
L 360.119135 154.201905 
L 364.473408 131.573333 
L 368.82768 145.041159 
L 373.181952 127.066691 
L 377.536225 114.568141 
L 381.890497 106.745918 
L 386.244769 140.537918 
L 390.599042 143.161521 
L 394.953314 143.535989 
L 399.307586 161.901206 
L 403.661859 158.85284 
L 408.016131 177.86084 
L 412.370403 197.66084 
L 416.724676 212.06084 
L 421.078948 207.032269 
L 425.43322 217.902857 
L 429.787493 217.902857 
L 434.141765 218.331429 
L 438.496037 218.231429 
L 442.85031 217.98 
L 447.204582 211.58 
L 451.558854 201.522857 
L 455.913127 200.151429 
L 460.267399 194.651429 
L 464.621671 194.754958 
L 468.975944 184.481274 
L 473.330216 187.498417 
L 477.684488 186.678541 
L 482.038761 192.503893 
L 486.393033 192.880364 
L 490.747305 204.604048 
L 495.101578 209.71234 
L 499.45585 213.01584 
L 503.810122 213.350488 
L 508.164395 214.850488 
L 512.518667 217.979798 
L 516.872939 209.351505 
L 521.227212 210.63931 
L 525.581484 213.27931 
L 529.935756 214.693596 
L 534.290029 215.16044 
L 538.644301 225.72044 
L 542.998573 225.72044 
L 547.352846 218.177582 
L 551.707118 212.52044 
L 556.06139 211.36 
L 560.415663 209.474286 
L 564.769935 204.562658 
L 573.47848 219.648372 
L 577.832752 217.571353 
L 582.187024 219.457068 
L 586.541297 224.368696 
L 590.895569 222.482981 
L 595.249841 222.482981 
L 599.604114 227.074286 
L 603.958386 225.253596 
L 608.312659 219.973596 
L 612.666931 221.85931 
L 617.021203 221.85931 
L 621.375476 219.828541 
L 625.729748 213.922402 
L 630.08402 217.316687 
L 634.438293 215.666687 
L 638.792565 208.626687 
L 643.146837 210.657456 
L 647.50111 218.384286 
L 651.855382 218.717059 
L 656.209654 217.167059 
L 660.563927 222.095059 
L 669.272471 222.095059 
L 673.626744 223.648 
L 677.981016 225.792 
L 682.335288 224.604 
L 686.689561 222.148186 
L 691.043833 222.148186 
L 695.398105 220.681519 
L 699.752378 221.737519 
L 704.10665 225.037519 
L 708.460922 227.493333 
L 712.815195 222.543333 
L 717.169467 221.714348 
L 721.523739 220.064348 
L 725.878012 217.550062 
L 730.232284 217.550062 
L 734.586556 222.500062 
L 738.940829 217.755714 
L 743.295101 215.805714 
L 747.649373 216.67 
L 752.003646 214.784286 
L 756.357918 214.784286 
L 760.71219 221.824286 
L 765.066463 222.645338 
L 769.420735 224.295338 
L 773.775007 221.152481 
L 782.483552 221.152481 
L 786.837824 223.931429 
L 791.192097 213.371429 
L 795.546369 218.4 
L 799.900641 218.4 
L 808.609186 210.71746 
L 812.963458 221.27746 
L 817.317731 221.27746 
L 821.672003 218.171578 
L 830.380548 225.854118 
L 834.73482 221.630118 
L 839.089092 221.630118 
L 843.443365 218.524235 
L 852.151909 218.524235 
L 856.506182 218.976807 
L 860.860454 218.976807 
L 865.214726 225.188571 
L 873.923271 225.188571 
L 878.277543 228.96 
L 882.631816 228.96 
L 886.986088 226.026667 
L 904.403177 226.026667 
L 908.75745 228.96 
L 917.465994 228.96 
L 921.820267 226.929231 
L 926.174539 226.929231 
L 930.528811 225.829231 
L 939.237356 225.829231 
L 943.591628 227.86 
L 947.945901 227.86 
L 952.300173 228.96 
L 956.654445 226.56 
L 969.717262 226.56 
L 974.071535 216 
L 978.425807 218.4 
L 991.488624 218.4 
L 995.842897 228.96 
L 1100.345433 228.96 
L 1104.699705 225.854118 
L 1109.053977 224.87634 
L 1109.053977 224.87634 
" style="fill:none;stroke:#947383;stroke-linecap:square;stroke-width:2;"/>
   </g>
   <g id="line2d_19">
    <path clip-path="url(#p2ce737c7d0)" d="M 394.953314 211.043832 
L 399.307586 228.643832 
L 408.016131 228.631873 
L 412.370403 228.948041 
L 421.078948 228.948041 
L 429.787493 228.612058 
L 442.85031 228.580078 
L 451.558854 228.928019 
L 455.913127 228.786885 
L 499.45585 228.694886 
L 503.810122 228.634474 
L 508.164395 228.725991 
L 512.518667 228.61232 
L 525.581484 228.72984 
L 529.935756 228.667674 
L 534.290029 228.733734 
L 547.352846 228.59504 
L 556.06139 228.741959 
L 564.769935 228.694966 
L 569.124207 228.786633 
L 582.187024 228.781873 
L 930.528811 228.945268 
L 930.528811 228.945268 
" style="fill:none;stroke:#96c6ad;stroke-linecap:square;stroke-width:2;"/>
   </g>
   <g id="line2d_20">
    <path clip-path="url(#p2ce737c7d0)" d="M 259.970872 70.56 
L 264.325144 70.56 
L 268.679416 70.56 
L 273.033689 17.76 
L 277.387961 17.76 
L 281.742233 70.56 
L 286.096506 123.36 
L 290.450778 176.16 
L 294.80505 228.96 
L 299.159323 228.96 
L 303.513595 228.96 
L 307.867867 215.76 
L 312.22214 215.76 
L 316.576412 215.76 
L 320.930684 215.76 
L 325.284957 215.76 
L 329.639229 228.96 
L 333.993501 228.96 
L 338.347774 228.96 
L 342.702046 228.96 
L 347.056318 228.96 
L 351.410591 228.96 
L 355.764863 228.96 
L 360.119135 228.96 
L 364.473408 226.889412 
L 368.82768 226.889412 
L 373.181952 225.716078 
L 377.536225 224.719852 
L 381.890497 224.719852 
L 386.244769 226.79044 
L 390.599042 226.79044 
L 394.953314 227.963774 
L 399.307586 228.96 
L 403.661859 228.96 
L 408.016131 228.96 
L 412.370403 228.96 
L 416.724676 228.96 
L 421.078948 227.963774 
L 425.43322 227.419444 
L 429.787493 227.419444 
L 434.141765 227.419444 
L 438.496037 227.419444 
L 442.85031 228.41567 
L 447.204582 228.274286 
L 451.558854 228.274286 
L 455.913127 228.274286 
L 460.267399 228.274286 
L 464.621671 227.907619 
L 468.975944 228.593333 
L 473.330216 228.037544 
L 477.684488 227.457324 
L 482.038761 226.562409 
L 486.393033 226.929075 
L 490.747305 226.929075 
L 495.101578 227.484865 
L 499.45585 228.065085 
L 503.810122 228.96 
L 508.164395 228.79131 
L 512.518667 228.79131 
L 516.872939 228.79131 
L 521.227212 228.79131 
L 525.581484 228.79131 
L 529.935756 228.804018 
L 534.290029 228.804018 
L 538.644301 228.804018 
L 542.998573 228.804018 
L 547.352846 228.804018 
L 551.707118 228.824267 
L 556.06139 228.824267 
L 560.415663 228.005663 
L 564.769935 227.160863 
L 569.124207 227.160863 
L 573.47848 227.296595 
L 577.832752 227.296595 
L 582.187024 228.1152 
L 586.541297 228.96 
L 590.895569 228.96 
L 595.249841 228.96 
L 599.604114 228.96 
L 603.958386 228.571765 
L 608.312659 228.571765 
L 612.666931 228.571765 
L 617.021203 228.571765 
L 621.375476 228.571765 
L 625.729748 228.96 
L 630.08402 228.96 
L 634.438293 228.96 
L 638.792565 228.96 
L 643.146837 228.96 
L 647.50111 228.96 
L 651.855382 228.96 
L 656.209654 228.96 
L 660.563927 228.794483 
L 664.918199 228.794483 
L 669.272471 228.590622 
L 673.626744 228.590622 
L 677.981016 228.590622 
L 682.335288 228.756139 
L 686.689561 228.756139 
L 691.043833 228.96 
L 695.398105 228.96 
L 699.752378 228.96 
L 704.10665 228.96 
L 708.460922 228.96 
L 712.815195 228.96 
L 717.169467 228.96 
L 721.523739 228.96 
L 725.878012 228.768 
L 730.232284 228.768 
L 734.586556 228.768 
L 738.940829 228.768 
L 743.295101 228.768 
L 747.649373 228.96 
L 752.003646 228.96 
L 756.357918 228.96 
L 760.71219 228.96 
L 765.066463 228.96 
L 769.420735 228.96 
L 773.775007 228.96 
L 778.12928 228.627925 
" style="fill:none;stroke:#525886;stroke-linecap:square;stroke-width:2;"/>
   </g>
   <g id="line2d_21">
    <path clip-path="url(#p2ce737c7d0)" d="M 255.616599 228.88777 
L 259.970872 228.96 
L 273.033689 228.670342 
L 277.387961 228.45276 
L 290.450778 228.475646 
L 299.159323 228.764114 
L 303.513595 228.660279 
L 307.867867 228.721603 
L 312.22214 228.581476 
L 316.576412 228.617773 
L 320.930684 228.439996 
L 325.284957 228.516809 
L 329.639229 228.461259 
L 333.993501 228.601387 
L 338.347774 228.463346 
L 347.056318 228.602315 
L 351.410591 228.657865 
L 355.764863 228.594019 
L 360.119135 228.763658 
L 386.244769 228.664994 
L 390.599042 228.751764 
L 403.661859 228.763647 
L 408.016131 228.879861 
L 425.43322 228.65314 
L 429.787493 228.457705 
L 434.141765 228.388831 
L 438.496037 228.124028 
L 455.913127 228.404037 
L 460.267399 228.577083 
L 477.684488 228.57723 
L 482.038761 228.68708 
L 486.393033 228.558708 
L 490.747305 228.651953 
L 503.810122 228.564202 
L 508.164395 228.65778 
L 516.872939 228.688217 
L 534.290029 228.80702 
L 560.415663 228.837229 
L 586.541297 228.814248 
L 595.249841 228.933184 
L 612.666931 228.906518 
L 638.792565 228.96 
L 660.563927 228.901454 
L 799.900641 228.879365 
L 1039.38562 228.93464 
L 1039.38562 228.93464 
" style="fill:none;stroke:#937252;stroke-linecap:square;stroke-width:2;"/>
   </g>
   <g id="line2d_22">
    <path clip-path="url(#p2ce737c7d0)" d="M 412.370403 224.56 
L 416.724676 228.96 
L 421.078948 228.96 
L 425.43322 228.96 
L 429.787493 228.96 
L 434.141765 228.96 
L 438.496037 228.96 
L 442.85031 228.96 
L 447.204582 228.96 
L 451.558854 228.96 
L 455.913127 228.96 
L 460.267399 228.96 
L 464.621671 228.96 
L 468.975944 228.96 
L 473.330216 228.96 
L 477.684488 228.96 
L 482.038761 228.96 
L 486.393033 228.96 
L 490.747305 228.96 
L 495.101578 228.96 
L 499.45585 228.96 
L 503.810122 228.96 
L 508.164395 228.96 
L 512.518667 228.96 
L 516.872939 228.96 
L 521.227212 228.96 
L 525.581484 228.96 
L 529.935756 228.96 
L 534.290029 228.96 
L 538.644301 228.96 
L 542.998573 228.96 
L 547.352846 228.96 
L 551.707118 228.96 
L 556.06139 218.4 
" style="fill:none;stroke:#d18cad;stroke-linecap:square;stroke-width:2;"/>
   </g>
   <g id="line2d_23">
    <path clip-path="url(#p2ce737c7d0)" d="M 277.387961 228.346047 
L 281.742233 228.96 
L 307.867867 228.96 
L 312.22214 228.627925 
L 329.639229 228.627925 
L 333.993501 228.96 
L 351.410591 228.96 
L 355.764863 228.316098 
L 360.119135 227.260098 
L 364.473408 227.260098 
L 368.82768 226.804925 
L 373.181952 226.760103 
L 377.536225 227.375603 
L 381.890497 228.397495 
L 386.244769 228.316202 
L 390.599042 228.707062 
L 394.953314 228.596361 
L 399.307586 228.245589 
L 416.724676 228.24869 
L 421.078948 228.599764 
L 442.85031 228.254945 
L 451.558854 228.300779 
L 455.913127 228.4029 
L 460.267399 228.197145 
L 468.975944 228.223899 
L 477.684488 228.147817 
L 499.45585 228.122084 
L 503.810122 228.295773 
L 508.164395 228.263107 
L 512.518667 228.471647 
L 521.227212 228.397969 
L 529.935756 228.582995 
L 534.290029 228.561107 
L 538.644301 228.74444 
L 542.998573 228.787561 
L 547.352846 228.530835 
L 564.769935 228.419851 
L 569.124207 228.587875 
L 573.47848 228.391683 
L 582.187024 228.316679 
L 590.895569 228.298285 
L 595.249841 228.470974 
L 599.604114 228.495797 
L 603.958386 228.357904 
L 625.729748 228.778799 
L 630.08402 228.597667 
L 638.792565 228.643921 
L 647.50111 228.562136 
L 656.209654 228.67609 
L 699.752378 228.702005 
L 765.066463 228.371019 
L 791.192097 228.86156 
L 812.963458 228.896068 
L 882.631816 228.645711 
L 895.694633 228.790767 
L 956.654445 228.944158 
L 956.654445 228.944158 
" style="fill:none;stroke:#a4a86f;stroke-linecap:square;stroke-width:2;"/>
   </g>
   <g id="patch_3">
    <path d="M 43.78125 228.96 
L 43.78125 7.2 
" style="fill:none;stroke:#000000;stroke-linecap:square;stroke-linejoin:miter;stroke-width:0.8;"/>
   </g>
   <g id="patch_4">
    <path d="M 43.78125 228.96 
L 1159.78125 228.96 
" style="fill:none;stroke:#000000;stroke-linecap:square;stroke-linejoin:miter;stroke-width:0.8;"/>
   </g>
   <g id="legend_1">
    <g id="line2d_24">
     <path d="M 1065.97 17.67875 
L 1081.97 17.67875 
" style="fill:none;stroke:#947383;stroke-linecap:square;stroke-width:2;"/>
    </g>
    <g id="line2d_25"/>
    <g id="text_20">
     <!-- Africa -->
     <g transform="translate(1088.37 20.47875)scale(0.08 -0.08)">
      <defs>
       <path d="M 2188 4044 
L 1331 1722 
L 3047 1722 
L 2188 4044 
z
M 1831 4666 
L 2547 4666 
L 4325 0 
L 3669 0 
L 3244 1197 
L 1141 1197 
L 716 0 
L 50 0 
L 1831 4666 
z
" id="DejaVuSans-41" transform="scale(0.015625)"/>
       <path d="M 2375 4863 
L 2375 4384 
L 1825 4384 
Q 1516 4384 1395 4259 
Q 1275 4134 1275 3809 
L 1275 3500 
L 2222 3500 
L 2222 3053 
L 1275 3053 
L 1275 0 
L 697 0 
L 697 3053 
L 147 3053 
L 147 3500 
L 697 3500 
L 697 3744 
Q 697 4328 969 4595 
Q 1241 4863 1831 4863 
L 2375 4863 
z
" id="DejaVuSans-66" transform="scale(0.015625)"/>
      </defs>
      <use xlink:href="#DejaVuSans-41"/>
      <use x="64.783203" xlink:href="#DejaVuSans-66"/>
      <use x="99.988281" xlink:href="#DejaVuSans-72"/>
      <use x="141.101562" xlink:href="#DejaVuSans-69"/>
      <use x="168.884766" xlink:href="#DejaVuSans-63"/>
      <use x="223.865234" xlink:href="#DejaVuSans-61"/>
     </g>
    </g>
    <g id="line2d_26">
     <path d="M 1065.97 29.42125 
L 1081.97 29.42125 
" style="fill:none;stroke:#96c6ad;stroke-linecap:square;stroke-width:2;"/>
    </g>
    <g id="line2d_27"/>
    <g id="text_21">
     <!-- Europe -->
     <g transform="translate(1088.37 32.22125)scale(0.08 -0.08)">
      <defs>
       <path d="M 628 4666 
L 3578 4666 
L 3578 4134 
L 1259 4134 
L 1259 2753 
L 3481 2753 
L 3481 2222 
L 1259 2222 
L 1259 531 
L 3634 531 
L 3634 0 
L 628 0 
L 628 4666 
z
" id="DejaVuSans-45" transform="scale(0.015625)"/>
       <path d="M 1159 525 
L 1159 -1331 
L 581 -1331 
L 581 3500 
L 1159 3500 
L 1159 2969 
Q 1341 3281 1617 3432 
Q 1894 3584 2278 3584 
Q 2916 3584 3314 3078 
Q 3713 2572 3713 1747 
Q 3713 922 3314 415 
Q 2916 -91 2278 -91 
Q 1894 -91 1617 61 
Q 1341 213 1159 525 
z
M 3116 1747 
Q 3116 2381 2855 2742 
Q 2594 3103 2138 3103 
Q 1681 3103 1420 2742 
Q 1159 2381 1159 1747 
Q 1159 1113 1420 752 
Q 1681 391 2138 391 
Q 2594 391 2855 752 
Q 3116 1113 3116 1747 
z
" id="DejaVuSans-70" transform="scale(0.015625)"/>
      </defs>
      <use xlink:href="#DejaVuSans-45"/>
      <use x="63.183594" xlink:href="#DejaVuSans-75"/>
      <use x="126.5625" xlink:href="#DejaVuSans-72"/>
      <use x="165.425781" xlink:href="#DejaVuSans-6f"/>
      <use x="226.607422" xlink:href="#DejaVuSans-70"/>
      <use x="290.083984" xlink:href="#DejaVuSans-65"/>
     </g>
    </g>
    <g id="line2d_28">
     <path d="M 1065.97 41.16375 
L 1081.97 41.16375 
" style="fill:none;stroke:#525886;stroke-linecap:square;stroke-width:2;"/>
    </g>
    <g id="line2d_29"/>
    <g id="text_22">
     <!-- Asia -->
     <g transform="translate(1088.37 43.96375)scale(0.08 -0.08)">
      <defs>
       <path d="M 2834 3397 
L 2834 2853 
Q 2591 2978 2328 3040 
Q 2066 3103 1784 3103 
Q 1356 3103 1142 2972 
Q 928 2841 928 2578 
Q 928 2378 1081 2264 
Q 1234 2150 1697 2047 
L 1894 2003 
Q 2506 1872 2764 1633 
Q 3022 1394 3022 966 
Q 3022 478 2636 193 
Q 2250 -91 1575 -91 
Q 1294 -91 989 -36 
Q 684 19 347 128 
L 347 722 
Q 666 556 975 473 
Q 1284 391 1588 391 
Q 1994 391 2212 530 
Q 2431 669 2431 922 
Q 2431 1156 2273 1281 
Q 2116 1406 1581 1522 
L 1381 1569 
Q 847 1681 609 1914 
Q 372 2147 372 2553 
Q 372 3047 722 3315 
Q 1072 3584 1716 3584 
Q 2034 3584 2315 3537 
Q 2597 3491 2834 3397 
z
" id="DejaVuSans-73" transform="scale(0.015625)"/>
      </defs>
      <use xlink:href="#DejaVuSans-41"/>
      <use x="68.408203" xlink:href="#DejaVuSans-73"/>
      <use x="120.507812" xlink:href="#DejaVuSans-69"/>
      <use x="148.291016" xlink:href="#DejaVuSans-61"/>
     </g>
    </g>
    <g id="line2d_30">
     <path d="M 1065.97 52.90625 
L 1081.97 52.90625 
" style="fill:none;stroke:#937252;stroke-linecap:square;stroke-width:2;"/>
    </g>
    <g id="line2d_31"/>
    <g id="text_23">
     <!-- United Kingdom -->
     <g transform="translate(1088.37 55.70625)scale(0.08 -0.08)">
      <defs>
       <path d="M 556 4666 
L 1191 4666 
L 1191 1831 
Q 1191 1081 1462 751 
Q 1734 422 2344 422 
Q 2950 422 3222 751 
Q 3494 1081 3494 1831 
L 3494 4666 
L 4128 4666 
L 4128 1753 
Q 4128 841 3676 375 
Q 3225 -91 2344 -91 
Q 1459 -91 1007 375 
Q 556 841 556 1753 
L 556 4666 
z
" id="DejaVuSans-55" transform="scale(0.015625)"/>
       <path d="M 628 4666 
L 1259 4666 
L 1259 2694 
L 3353 4666 
L 4166 4666 
L 1850 2491 
L 4331 0 
L 3500 0 
L 1259 2247 
L 1259 0 
L 628 0 
L 628 4666 
z
" id="DejaVuSans-4b" transform="scale(0.015625)"/>
       <path d="M 3328 2828 
Q 3544 3216 3844 3400 
Q 4144 3584 4550 3584 
Q 5097 3584 5394 3201 
Q 5691 2819 5691 2113 
L 5691 0 
L 5113 0 
L 5113 2094 
Q 5113 2597 4934 2840 
Q 4756 3084 4391 3084 
Q 3944 3084 3684 2787 
Q 3425 2491 3425 1978 
L 3425 0 
L 2847 0 
L 2847 2094 
Q 2847 2600 2669 2842 
Q 2491 3084 2119 3084 
Q 1678 3084 1418 2786 
Q 1159 2488 1159 1978 
L 1159 0 
L 581 0 
L 581 3500 
L 1159 3500 
L 1159 2956 
Q 1356 3278 1631 3431 
Q 1906 3584 2284 3584 
Q 2666 3584 2933 3390 
Q 3200 3197 3328 2828 
z
" id="DejaVuSans-6d" transform="scale(0.015625)"/>
      </defs>
      <use xlink:href="#DejaVuSans-55"/>
      <use x="73.193359" xlink:href="#DejaVuSans-6e"/>
      <use x="136.572266" xlink:href="#DejaVuSans-69"/>
      <use x="164.355469" xlink:href="#DejaVuSans-74"/>
      <use x="203.564453" xlink:href="#DejaVuSans-65"/>
      <use x="265.087891" xlink:href="#DejaVuSans-64"/>
      <use x="328.564453" xlink:href="#DejaVuSans-20"/>
      <use x="360.351562" xlink:href="#DejaVuSans-4b"/>
      <use x="425.927734" xlink:href="#DejaVuSans-69"/>
      <use x="453.710938" xlink:href="#DejaVuSans-6e"/>
      <use x="517.089844" xlink:href="#DejaVuSans-67"/>
      <use x="580.566406" xlink:href="#DejaVuSans-64"/>
      <use x="644.042969" xlink:href="#DejaVuSans-6f"/>
      <use x="705.224609" xlink:href="#DejaVuSans-6d"/>
     </g>
    </g>
    <g id="line2d_32">
     <path d="M 1065.97 64.64875 
L 1081.97 64.64875 
" style="fill:none;stroke:#d18cad;stroke-linecap:square;stroke-width:2;"/>
    </g>
    <g id="line2d_33"/>
    <g id="text_24">
     <!-- Oceania -->
     <g transform="translate(1088.37 67.44875)scale(0.08 -0.08)">
      <defs>
       <path d="M 2522 4238 
Q 1834 4238 1429 3725 
Q 1025 3213 1025 2328 
Q 1025 1447 1429 934 
Q 1834 422 2522 422 
Q 3209 422 3611 934 
Q 4013 1447 4013 2328 
Q 4013 3213 3611 3725 
Q 3209 4238 2522 4238 
z
M 2522 4750 
Q 3503 4750 4090 4092 
Q 4678 3434 4678 2328 
Q 4678 1225 4090 567 
Q 3503 -91 2522 -91 
Q 1538 -91 948 565 
Q 359 1222 359 2328 
Q 359 3434 948 4092 
Q 1538 4750 2522 4750 
z
" id="DejaVuSans-4f" transform="scale(0.015625)"/>
      </defs>
      <use xlink:href="#DejaVuSans-4f"/>
      <use x="78.710938" xlink:href="#DejaVuSans-63"/>
      <use x="133.691406" xlink:href="#DejaVuSans-65"/>
      <use x="195.214844" xlink:href="#DejaVuSans-61"/>
      <use x="256.494141" xlink:href="#DejaVuSans-6e"/>
      <use x="319.873047" xlink:href="#DejaVuSans-69"/>
      <use x="347.65625" xlink:href="#DejaVuSans-61"/>
     </g>
    </g>
    <g id="line2d_34">
     <path d="M 1065.97 76.39125 
L 1081.97 76.39125 
" style="fill:none;stroke:#a4a86f;stroke-linecap:square;stroke-width:2;"/>
    </g>
    <g id="line2d_35"/>
    <g id="text_25">
     <!-- North America -->
     <g transform="translate(1088.37 79.19125)scale(0.08 -0.08)">
      <defs>
       <path d="M 628 4666 
L 1478 4666 
L 3547 763 
L 3547 4666 
L 4159 4666 
L 4159 0 
L 3309 0 
L 1241 3903 
L 1241 0 
L 628 0 
L 628 4666 
z
" id="DejaVuSans-4e" transform="scale(0.015625)"/>
       <path d="M 3513 2113 
L 3513 0 
L 2938 0 
L 2938 2094 
Q 2938 2591 2744 2837 
Q 2550 3084 2163 3084 
Q 1697 3084 1428 2787 
Q 1159 2491 1159 1978 
L 1159 0 
L 581 0 
L 581 4863 
L 1159 4863 
L 1159 2956 
Q 1366 3272 1645 3428 
Q 1925 3584 2291 3584 
Q 2894 3584 3203 3211 
Q 3513 2838 3513 2113 
z
" id="DejaVuSans-68" transform="scale(0.015625)"/>
      </defs>
      <use xlink:href="#DejaVuSans-4e"/>
      <use x="74.804688" xlink:href="#DejaVuSans-6f"/>
      <use x="135.986328" xlink:href="#DejaVuSans-72"/>
      <use x="177.099609" xlink:href="#DejaVuSans-74"/>
      <use x="216.308594" xlink:href="#DejaVuSans-68"/>
      <use x="279.6875" xlink:href="#DejaVuSans-20"/>
      <use x="311.474609" xlink:href="#DejaVuSans-41"/>
      <use x="379.882812" xlink:href="#DejaVuSans-6d"/>
      <use x="477.294922" xlink:href="#DejaVuSans-65"/>
      <use x="538.818359" xlink:href="#DejaVuSans-72"/>
      <use x="579.931641" xlink:href="#DejaVuSans-69"/>
      <use x="607.714844" xlink:href="#DejaVuSans-63"/>
      <use x="662.695312" xlink:href="#DejaVuSans-61"/>
     </g>
    </g>
   </g>
  </g>
 </g>
 <defs>
  <clipPath id="p2ce737c7d0">
   <rect height="221.76" width="1116" x="43.78125" y="7.2"/>
  </clipPath>
 </defs>
</svg>
