<?xml version="1.0" encoding="utf-8" standalone="no"?>
<!DOCTYPE svg PUBLIC "-//W3C//DTD SVG 1.1//EN"
  "http://www.w3.org/Graphics/SVG/1.1/DTD/svg11.dtd">
<!-- Created with matplotlib (https://matplotlib.org/) -->
<svg height="298.620937pt" version="1.1" viewBox="0 0 999.58125 298.620937" width="999.58125pt" xmlns="http://www.w3.org/2000/svg" xmlns:xlink="http://www.w3.org/1999/xlink">
 <metadata>
  <rdf:RDF xmlns:cc="http://creativecommons.org/ns#" xmlns:dc="http://purl.org/dc/elements/1.1/" xmlns:rdf="http://www.w3.org/1999/02/22-rdf-syntax-ns#">
   <cc:Work>
    <dc:type rdf:resource="http://purl.org/dc/dcmitype/StillImage"/>
    <dc:date>2021-04-01T06:58:32.710101</dc:date>
    <dc:format>image/svg+xml</dc:format>
    <dc:creator>
     <cc:Agent>
      <dc:title>Matplotlib v3.3.3, https://matplotlib.org/</dc:title>
     </cc:Agent>
    </dc:creator>
   </cc:Work>
  </rdf:RDF>
 </metadata>
 <defs>
  <style type="text/css">*{stroke-linecap:butt;stroke-linejoin:round;}</style>
 </defs>
 <g id="figure_1">
  <g id="patch_1">
   <path d="M 0 298.620937 
L 999.58125 298.620937 
L 999.58125 0 
L 0 0 
z
" style="fill:#ffffff;"/>
  </g>
  <g id="axes_1">
   <g id="patch_2">
    <path d="M 43.78125 228.96 
L 992.38125 228.96 
L 992.38125 7.2 
L 43.78125 7.2 
z
" style="fill:#ffffff;"/>
   </g>
   <g id="matplotlib.axis_1">
    <g id="xtick_1">
     <g id="line2d_1">
      <defs>
       <path d="M 0 0 
L 0 3.5 
" id="me47990a294" style="stroke:#000000;stroke-width:0.8;"/>
      </defs>
      <g>
       <use style="stroke:#000000;stroke-width:0.8;" x="119.353977" xlink:href="#me47990a294" y="228.96"/>
      </g>
     </g>
     <g id="text_1">
      <!-- 2020-10 -->
      <g transform="translate(122.113352 277.742812)rotate(-90)scale(0.1 -0.1)">
       <defs>
        <path d="M 19.1875 8.296875 
L 53.609375 8.296875 
L 53.609375 0 
L 7.328125 0 
L 7.328125 8.296875 
Q 12.9375 14.109375 22.625 23.890625 
Q 32.328125 33.6875 34.8125 36.53125 
Q 39.546875 41.84375 41.421875 45.53125 
Q 43.3125 49.21875 43.3125 52.78125 
Q 43.3125 58.59375 39.234375 62.25 
Q 35.15625 65.921875 28.609375 65.921875 
Q 23.96875 65.921875 18.8125 64.3125 
Q 13.671875 62.703125 7.8125 59.421875 
L 7.8125 69.390625 
Q 13.765625 71.78125 18.9375 73 
Q 24.125 74.21875 28.421875 74.21875 
Q 39.75 74.21875 46.484375 68.546875 
Q 53.21875 62.890625 53.21875 53.421875 
Q 53.21875 48.921875 51.53125 44.890625 
Q 49.859375 40.875 45.40625 35.40625 
Q 44.1875 33.984375 37.640625 27.21875 
Q 31.109375 20.453125 19.1875 8.296875 
z
" id="DejaVuSans-50"/>
        <path d="M 31.78125 66.40625 
Q 24.171875 66.40625 20.328125 58.90625 
Q 16.5 51.421875 16.5 36.375 
Q 16.5 21.390625 20.328125 13.890625 
Q 24.171875 6.390625 31.78125 6.390625 
Q 39.453125 6.390625 43.28125 13.890625 
Q 47.125 21.390625 47.125 36.375 
Q 47.125 51.421875 43.28125 58.90625 
Q 39.453125 66.40625 31.78125 66.40625 
z
M 31.78125 74.21875 
Q 44.046875 74.21875 50.515625 64.515625 
Q 56.984375 54.828125 56.984375 36.375 
Q 56.984375 17.96875 50.515625 8.265625 
Q 44.046875 -1.421875 31.78125 -1.421875 
Q 19.53125 -1.421875 13.0625 8.265625 
Q 6.59375 17.96875 6.59375 36.375 
Q 6.59375 54.828125 13.0625 64.515625 
Q 19.53125 74.21875 31.78125 74.21875 
z
" id="DejaVuSans-48"/>
        <path d="M 4.890625 31.390625 
L 31.203125 31.390625 
L 31.203125 23.390625 
L 4.890625 23.390625 
z
" id="DejaVuSans-45"/>
        <path d="M 12.40625 8.296875 
L 28.515625 8.296875 
L 28.515625 63.921875 
L 10.984375 60.40625 
L 10.984375 69.390625 
L 28.421875 72.90625 
L 38.28125 72.90625 
L 38.28125 8.296875 
L 54.390625 8.296875 
L 54.390625 0 
L 12.40625 0 
z
" id="DejaVuSans-49"/>
       </defs>
       <use xlink:href="#DejaVuSans-50"/>
       <use x="63.623047" xlink:href="#DejaVuSans-48"/>
       <use x="127.246094" xlink:href="#DejaVuSans-50"/>
       <use x="190.869141" xlink:href="#DejaVuSans-48"/>
       <use x="254.492188" xlink:href="#DejaVuSans-45"/>
       <use x="290.576172" xlink:href="#DejaVuSans-49"/>
       <use x="354.199219" xlink:href="#DejaVuSans-48"/>
      </g>
     </g>
    </g>
    <g id="xtick_2">
     <g id="line2d_2">
      <g>
       <use style="stroke:#000000;stroke-width:0.8;" x="263.08125" xlink:href="#me47990a294" y="228.96"/>
      </g>
     </g>
     <g id="text_2">
      <!-- 2020-11 -->
      <g transform="translate(265.840625 277.742812)rotate(-90)scale(0.1 -0.1)">
       <use xlink:href="#DejaVuSans-50"/>
       <use x="63.623047" xlink:href="#DejaVuSans-48"/>
       <use x="127.246094" xlink:href="#DejaVuSans-50"/>
       <use x="190.869141" xlink:href="#DejaVuSans-48"/>
       <use x="254.492188" xlink:href="#DejaVuSans-45"/>
       <use x="290.576172" xlink:href="#DejaVuSans-49"/>
       <use x="354.199219" xlink:href="#DejaVuSans-49"/>
      </g>
     </g>
    </g>
    <g id="xtick_3">
     <g id="line2d_3">
      <g>
       <use style="stroke:#000000;stroke-width:0.8;" x="402.172159" xlink:href="#me47990a294" y="228.96"/>
      </g>
     </g>
     <g id="text_3">
      <!-- 2020-12 -->
      <g transform="translate(404.931534 277.742812)rotate(-90)scale(0.1 -0.1)">
       <use xlink:href="#DejaVuSans-50"/>
       <use x="63.623047" xlink:href="#DejaVuSans-48"/>
       <use x="127.246094" xlink:href="#DejaVuSans-50"/>
       <use x="190.869141" xlink:href="#DejaVuSans-48"/>
       <use x="254.492188" xlink:href="#DejaVuSans-45"/>
       <use x="290.576172" xlink:href="#DejaVuSans-49"/>
       <use x="354.199219" xlink:href="#DejaVuSans-50"/>
      </g>
     </g>
    </g>
    <g id="xtick_4">
     <g id="line2d_4">
      <g>
       <use style="stroke:#000000;stroke-width:0.8;" x="545.899432" xlink:href="#me47990a294" y="228.96"/>
      </g>
     </g>
     <g id="text_4">
      <!-- 2021-01 -->
      <g transform="translate(548.658807 277.742812)rotate(-90)scale(0.1 -0.1)">
       <use xlink:href="#DejaVuSans-50"/>
       <use x="63.623047" xlink:href="#DejaVuSans-48"/>
       <use x="127.246094" xlink:href="#DejaVuSans-50"/>
       <use x="190.869141" xlink:href="#DejaVuSans-49"/>
       <use x="254.492188" xlink:href="#DejaVuSans-45"/>
       <use x="290.576172" xlink:href="#DejaVuSans-48"/>
       <use x="354.199219" xlink:href="#DejaVuSans-49"/>
      </g>
     </g>
    </g>
    <g id="xtick_5">
     <g id="line2d_5">
      <g>
       <use style="stroke:#000000;stroke-width:0.8;" x="689.626705" xlink:href="#me47990a294" y="228.96"/>
      </g>
     </g>
     <g id="text_5">
      <!-- 2021-02 -->
      <g transform="translate(692.38608 277.742812)rotate(-90)scale(0.1 -0.1)">
       <use xlink:href="#DejaVuSans-50"/>
       <use x="63.623047" xlink:href="#DejaVuSans-48"/>
       <use x="127.246094" xlink:href="#DejaVuSans-50"/>
       <use x="190.869141" xlink:href="#DejaVuSans-49"/>
       <use x="254.492188" xlink:href="#DejaVuSans-45"/>
       <use x="290.576172" xlink:href="#DejaVuSans-48"/>
       <use x="354.199219" xlink:href="#DejaVuSans-50"/>
      </g>
     </g>
    </g>
    <g id="xtick_6">
     <g id="line2d_6">
      <g>
       <use style="stroke:#000000;stroke-width:0.8;" x="819.444886" xlink:href="#me47990a294" y="228.96"/>
      </g>
     </g>
     <g id="text_6">
      <!-- 2021-03 -->
      <g transform="translate(822.204261 277.742812)rotate(-90)scale(0.1 -0.1)">
       <defs>
        <path d="M 40.578125 39.3125 
Q 47.65625 37.796875 51.625 33 
Q 55.609375 28.21875 55.609375 21.1875 
Q 55.609375 10.40625 48.1875 4.484375 
Q 40.765625 -1.421875 27.09375 -1.421875 
Q 22.515625 -1.421875 17.65625 -0.515625 
Q 12.796875 0.390625 7.625 2.203125 
L 7.625 11.71875 
Q 11.71875 9.328125 16.59375 8.109375 
Q 21.484375 6.890625 26.8125 6.890625 
Q 36.078125 6.890625 40.9375 10.546875 
Q 45.796875 14.203125 45.796875 21.1875 
Q 45.796875 27.640625 41.28125 31.265625 
Q 36.765625 34.90625 28.71875 34.90625 
L 20.21875 34.90625 
L 20.21875 43.015625 
L 29.109375 43.015625 
Q 36.375 43.015625 40.234375 45.921875 
Q 44.09375 48.828125 44.09375 54.296875 
Q 44.09375 59.90625 40.109375 62.90625 
Q 36.140625 65.921875 28.71875 65.921875 
Q 24.65625 65.921875 20.015625 65.03125 
Q 15.375 64.15625 9.8125 62.3125 
L 9.8125 71.09375 
Q 15.4375 72.65625 20.34375 73.4375 
Q 25.25 74.21875 29.59375 74.21875 
Q 40.828125 74.21875 47.359375 69.109375 
Q 53.90625 64.015625 53.90625 55.328125 
Q 53.90625 49.265625 50.4375 45.09375 
Q 46.96875 40.921875 40.578125 39.3125 
z
" id="DejaVuSans-51"/>
       </defs>
       <use xlink:href="#DejaVuSans-50"/>
       <use x="63.623047" xlink:href="#DejaVuSans-48"/>
       <use x="127.246094" xlink:href="#DejaVuSans-50"/>
       <use x="190.869141" xlink:href="#DejaVuSans-49"/>
       <use x="254.492188" xlink:href="#DejaVuSans-45"/>
       <use x="290.576172" xlink:href="#DejaVuSans-48"/>
       <use x="354.199219" xlink:href="#DejaVuSans-51"/>
      </g>
     </g>
    </g>
    <g id="xtick_7">
     <g id="line2d_7">
      <g>
       <use style="stroke:#000000;stroke-width:0.8;" x="963.172159" xlink:href="#me47990a294" y="228.96"/>
      </g>
     </g>
     <g id="text_7">
      <!-- 2021-04 -->
      <g transform="translate(965.931534 277.742812)rotate(-90)scale(0.1 -0.1)">
       <defs>
        <path d="M 37.796875 64.3125 
L 12.890625 25.390625 
L 37.796875 25.390625 
z
M 35.203125 72.90625 
L 47.609375 72.90625 
L 47.609375 25.390625 
L 58.015625 25.390625 
L 58.015625 17.1875 
L 47.609375 17.1875 
L 47.609375 0 
L 37.796875 0 
L 37.796875 17.1875 
L 4.890625 17.1875 
L 4.890625 26.703125 
z
" id="DejaVuSans-52"/>
       </defs>
       <use xlink:href="#DejaVuSans-50"/>
       <use x="63.623047" xlink:href="#DejaVuSans-48"/>
       <use x="127.246094" xlink:href="#DejaVuSans-50"/>
       <use x="190.869141" xlink:href="#DejaVuSans-49"/>
       <use x="254.492188" xlink:href="#DejaVuSans-45"/>
       <use x="290.576172" xlink:href="#DejaVuSans-48"/>
       <use x="354.199219" xlink:href="#DejaVuSans-52"/>
      </g>
     </g>
    </g>
    <g id="text_8">
     <!-- Date -->
     <g transform="translate(506.130469 289.34125)scale(0.1 -0.1)">
      <defs>
       <path d="M 19.671875 64.796875 
L 19.671875 8.109375 
L 31.59375 8.109375 
Q 46.6875 8.109375 53.6875 14.9375 
Q 60.6875 21.78125 60.6875 36.53125 
Q 60.6875 51.171875 53.6875 57.984375 
Q 46.6875 64.796875 31.59375 64.796875 
z
M 9.8125 72.90625 
L 30.078125 72.90625 
Q 51.265625 72.90625 61.171875 64.09375 
Q 71.09375 55.28125 71.09375 36.53125 
Q 71.09375 17.671875 61.125 8.828125 
Q 51.171875 0 30.078125 0 
L 9.8125 0 
z
" id="DejaVuSans-68"/>
       <path d="M 34.28125 27.484375 
Q 23.390625 27.484375 19.1875 25 
Q 14.984375 22.515625 14.984375 16.5 
Q 14.984375 11.71875 18.140625 8.90625 
Q 21.296875 6.109375 26.703125 6.109375 
Q 34.1875 6.109375 38.703125 11.40625 
Q 43.21875 16.703125 43.21875 25.484375 
L 43.21875 27.484375 
z
M 52.203125 31.203125 
L 52.203125 0 
L 43.21875 0 
L 43.21875 8.296875 
Q 40.140625 3.328125 35.546875 0.953125 
Q 30.953125 -1.421875 24.3125 -1.421875 
Q 15.921875 -1.421875 10.953125 3.296875 
Q 6 8.015625 6 15.921875 
Q 6 25.140625 12.171875 29.828125 
Q 18.359375 34.515625 30.609375 34.515625 
L 43.21875 34.515625 
L 43.21875 35.40625 
Q 43.21875 41.609375 39.140625 45 
Q 35.0625 48.390625 27.6875 48.390625 
Q 23 48.390625 18.546875 47.265625 
Q 14.109375 46.140625 10.015625 43.890625 
L 10.015625 52.203125 
Q 14.9375 54.109375 19.578125 55.046875 
Q 24.21875 56 28.609375 56 
Q 40.484375 56 46.34375 49.84375 
Q 52.203125 43.703125 52.203125 31.203125 
z
" id="DejaVuSans-97"/>
       <path d="M 18.3125 70.21875 
L 18.3125 54.6875 
L 36.8125 54.6875 
L 36.8125 47.703125 
L 18.3125 47.703125 
L 18.3125 18.015625 
Q 18.3125 11.328125 20.140625 9.421875 
Q 21.96875 7.515625 27.59375 7.515625 
L 36.8125 7.515625 
L 36.8125 0 
L 27.59375 0 
Q 17.1875 0 13.234375 3.875 
Q 9.28125 7.765625 9.28125 18.015625 
L 9.28125 47.703125 
L 2.6875 47.703125 
L 2.6875 54.6875 
L 9.28125 54.6875 
L 9.28125 70.21875 
z
" id="DejaVuSans-116"/>
       <path d="M 56.203125 29.59375 
L 56.203125 25.203125 
L 14.890625 25.203125 
Q 15.484375 15.921875 20.484375 11.0625 
Q 25.484375 6.203125 34.421875 6.203125 
Q 39.59375 6.203125 44.453125 7.46875 
Q 49.3125 8.734375 54.109375 11.28125 
L 54.109375 2.78125 
Q 49.265625 0.734375 44.1875 -0.34375 
Q 39.109375 -1.421875 33.890625 -1.421875 
Q 20.796875 -1.421875 13.15625 6.1875 
Q 5.515625 13.8125 5.515625 26.8125 
Q 5.515625 40.234375 12.765625 48.109375 
Q 20.015625 56 32.328125 56 
Q 43.359375 56 49.78125 48.890625 
Q 56.203125 41.796875 56.203125 29.59375 
z
M 47.21875 32.234375 
Q 47.125 39.59375 43.09375 43.984375 
Q 39.0625 48.390625 32.421875 48.390625 
Q 24.90625 48.390625 20.390625 44.140625 
Q 15.875 39.890625 15.1875 32.171875 
z
" id="DejaVuSans-101"/>
      </defs>
      <use xlink:href="#DejaVuSans-68"/>
      <use x="77.001953" xlink:href="#DejaVuSans-97"/>
      <use x="138.28125" xlink:href="#DejaVuSans-116"/>
      <use x="177.490234" xlink:href="#DejaVuSans-101"/>
     </g>
    </g>
   </g>
   <g id="matplotlib.axis_2">
    <g id="ytick_1">
     <g id="line2d_8">
      <defs>
       <path d="M 0 0 
L -3.5 0 
" id="mcf574b70c5" style="stroke:#000000;stroke-width:0.8;"/>
      </defs>
      <g>
       <use style="stroke:#000000;stroke-width:0.8;" x="43.78125" xlink:href="#mcf574b70c5" y="228.96"/>
      </g>
     </g>
     <g id="text_9">
      <!-- 0.0 -->
      <g transform="translate(20.878125 232.759219)scale(0.1 -0.1)">
       <defs>
        <path d="M 10.6875 12.40625 
L 21 12.40625 
L 21 0 
L 10.6875 0 
z
" id="DejaVuSans-46"/>
       </defs>
       <use xlink:href="#DejaVuSans-48"/>
       <use x="63.623047" xlink:href="#DejaVuSans-46"/>
       <use x="95.410156" xlink:href="#DejaVuSans-48"/>
      </g>
     </g>
    </g>
    <g id="ytick_2">
     <g id="line2d_9">
      <g>
       <use style="stroke:#000000;stroke-width:0.8;" x="43.78125" xlink:href="#mcf574b70c5" y="186.19952"/>
      </g>
     </g>
     <g id="text_10">
      <!-- 0.2 -->
      <g transform="translate(20.878125 189.998739)scale(0.1 -0.1)">
       <use xlink:href="#DejaVuSans-48"/>
       <use x="63.623047" xlink:href="#DejaVuSans-46"/>
       <use x="95.410156" xlink:href="#DejaVuSans-50"/>
      </g>
     </g>
    </g>
    <g id="ytick_3">
     <g id="line2d_10">
      <g>
       <use style="stroke:#000000;stroke-width:0.8;" x="43.78125" xlink:href="#mcf574b70c5" y="143.43904"/>
      </g>
     </g>
     <g id="text_11">
      <!-- 0.4 -->
      <g transform="translate(20.878125 147.238258)scale(0.1 -0.1)">
       <use xlink:href="#DejaVuSans-48"/>
       <use x="63.623047" xlink:href="#DejaVuSans-46"/>
       <use x="95.410156" xlink:href="#DejaVuSans-52"/>
      </g>
     </g>
    </g>
    <g id="ytick_4">
     <g id="line2d_11">
      <g>
       <use style="stroke:#000000;stroke-width:0.8;" x="43.78125" xlink:href="#mcf574b70c5" y="100.678559"/>
      </g>
     </g>
     <g id="text_12">
      <!-- 0.6 -->
      <g transform="translate(20.878125 104.477778)scale(0.1 -0.1)">
       <defs>
        <path d="M 33.015625 40.375 
Q 26.375 40.375 22.484375 35.828125 
Q 18.609375 31.296875 18.609375 23.390625 
Q 18.609375 15.53125 22.484375 10.953125 
Q 26.375 6.390625 33.015625 6.390625 
Q 39.65625 6.390625 43.53125 10.953125 
Q 47.40625 15.53125 47.40625 23.390625 
Q 47.40625 31.296875 43.53125 35.828125 
Q 39.65625 40.375 33.015625 40.375 
z
M 52.59375 71.296875 
L 52.59375 62.3125 
Q 48.875 64.0625 45.09375 64.984375 
Q 41.3125 65.921875 37.59375 65.921875 
Q 27.828125 65.921875 22.671875 59.328125 
Q 17.53125 52.734375 16.796875 39.40625 
Q 19.671875 43.65625 24.015625 45.921875 
Q 28.375 48.1875 33.59375 48.1875 
Q 44.578125 48.1875 50.953125 41.515625 
Q 57.328125 34.859375 57.328125 23.390625 
Q 57.328125 12.15625 50.6875 5.359375 
Q 44.046875 -1.421875 33.015625 -1.421875 
Q 20.359375 -1.421875 13.671875 8.265625 
Q 6.984375 17.96875 6.984375 36.375 
Q 6.984375 53.65625 15.1875 63.9375 
Q 23.390625 74.21875 37.203125 74.21875 
Q 40.921875 74.21875 44.703125 73.484375 
Q 48.484375 72.75 52.59375 71.296875 
z
" id="DejaVuSans-54"/>
       </defs>
       <use xlink:href="#DejaVuSans-48"/>
       <use x="63.623047" xlink:href="#DejaVuSans-46"/>
       <use x="95.410156" xlink:href="#DejaVuSans-54"/>
      </g>
     </g>
    </g>
    <g id="ytick_5">
     <g id="line2d_12">
      <g>
       <use style="stroke:#000000;stroke-width:0.8;" x="43.78125" xlink:href="#mcf574b70c5" y="57.918079"/>
      </g>
     </g>
     <g id="text_13">
      <!-- 0.8 -->
      <g transform="translate(20.878125 61.717298)scale(0.1 -0.1)">
       <defs>
        <path d="M 31.78125 34.625 
Q 24.75 34.625 20.71875 30.859375 
Q 16.703125 27.09375 16.703125 20.515625 
Q 16.703125 13.921875 20.71875 10.15625 
Q 24.75 6.390625 31.78125 6.390625 
Q 38.8125 6.390625 42.859375 10.171875 
Q 46.921875 13.96875 46.921875 20.515625 
Q 46.921875 27.09375 42.890625 30.859375 
Q 38.875 34.625 31.78125 34.625 
z
M 21.921875 38.8125 
Q 15.578125 40.375 12.03125 44.71875 
Q 8.5 49.078125 8.5 55.328125 
Q 8.5 64.0625 14.71875 69.140625 
Q 20.953125 74.21875 31.78125 74.21875 
Q 42.671875 74.21875 48.875 69.140625 
Q 55.078125 64.0625 55.078125 55.328125 
Q 55.078125 49.078125 51.53125 44.71875 
Q 48 40.375 41.703125 38.8125 
Q 48.828125 37.15625 52.796875 32.3125 
Q 56.78125 27.484375 56.78125 20.515625 
Q 56.78125 9.90625 50.3125 4.234375 
Q 43.84375 -1.421875 31.78125 -1.421875 
Q 19.734375 -1.421875 13.25 4.234375 
Q 6.78125 9.90625 6.78125 20.515625 
Q 6.78125 27.484375 10.78125 32.3125 
Q 14.796875 37.15625 21.921875 38.8125 
z
M 18.3125 54.390625 
Q 18.3125 48.734375 21.84375 45.5625 
Q 25.390625 42.390625 31.78125 42.390625 
Q 38.140625 42.390625 41.71875 45.5625 
Q 45.3125 48.734375 45.3125 54.390625 
Q 45.3125 60.0625 41.71875 63.234375 
Q 38.140625 66.40625 31.78125 66.40625 
Q 25.390625 66.40625 21.84375 63.234375 
Q 18.3125 60.0625 18.3125 54.390625 
z
" id="DejaVuSans-56"/>
       </defs>
       <use xlink:href="#DejaVuSans-48"/>
       <use x="63.623047" xlink:href="#DejaVuSans-46"/>
       <use x="95.410156" xlink:href="#DejaVuSans-56"/>
      </g>
     </g>
    </g>
    <g id="ytick_6">
     <g id="line2d_13">
      <g>
       <use style="stroke:#000000;stroke-width:0.8;" x="43.78125" xlink:href="#mcf574b70c5" y="15.157599"/>
      </g>
     </g>
     <g id="text_14">
      <!-- 1.0 -->
      <g transform="translate(20.878125 18.956818)scale(0.1 -0.1)">
       <use xlink:href="#DejaVuSans-49"/>
       <use x="63.623047" xlink:href="#DejaVuSans-46"/>
       <use x="95.410156" xlink:href="#DejaVuSans-48"/>
      </g>
     </g>
    </g>
    <g id="text_15">
     <!-- Frequency (7 day rolling average) -->
     <g transform="translate(14.798437 202.529219)rotate(-90)scale(0.1 -0.1)">
      <defs>
       <path d="M 9.8125 72.90625 
L 51.703125 72.90625 
L 51.703125 64.59375 
L 19.671875 64.59375 
L 19.671875 43.109375 
L 48.578125 43.109375 
L 48.578125 34.8125 
L 19.671875 34.8125 
L 19.671875 0 
L 9.8125 0 
z
" id="DejaVuSans-70"/>
       <path d="M 41.109375 46.296875 
Q 39.59375 47.171875 37.8125 47.578125 
Q 36.03125 48 33.890625 48 
Q 26.265625 48 22.1875 43.046875 
Q 18.109375 38.09375 18.109375 28.8125 
L 18.109375 0 
L 9.078125 0 
L 9.078125 54.6875 
L 18.109375 54.6875 
L 18.109375 46.1875 
Q 20.953125 51.171875 25.484375 53.578125 
Q 30.03125 56 36.53125 56 
Q 37.453125 56 38.578125 55.875 
Q 39.703125 55.765625 41.0625 55.515625 
z
" id="DejaVuSans-114"/>
       <path d="M 14.796875 27.296875 
Q 14.796875 17.390625 18.875 11.75 
Q 22.953125 6.109375 30.078125 6.109375 
Q 37.203125 6.109375 41.296875 11.75 
Q 45.40625 17.390625 45.40625 27.296875 
Q 45.40625 37.203125 41.296875 42.84375 
Q 37.203125 48.484375 30.078125 48.484375 
Q 22.953125 48.484375 18.875 42.84375 
Q 14.796875 37.203125 14.796875 27.296875 
z
M 45.40625 8.203125 
Q 42.578125 3.328125 38.25 0.953125 
Q 33.9375 -1.421875 27.875 -1.421875 
Q 17.96875 -1.421875 11.734375 6.484375 
Q 5.515625 14.40625 5.515625 27.296875 
Q 5.515625 40.1875 11.734375 48.09375 
Q 17.96875 56 27.875 56 
Q 33.9375 56 38.25 53.625 
Q 42.578125 51.265625 45.40625 46.390625 
L 45.40625 54.6875 
L 54.390625 54.6875 
L 54.390625 -20.796875 
L 45.40625 -20.796875 
z
" id="DejaVuSans-113"/>
       <path d="M 8.5 21.578125 
L 8.5 54.6875 
L 17.484375 54.6875 
L 17.484375 21.921875 
Q 17.484375 14.15625 20.5 10.265625 
Q 23.53125 6.390625 29.59375 6.390625 
Q 36.859375 6.390625 41.078125 11.03125 
Q 45.3125 15.671875 45.3125 23.6875 
L 45.3125 54.6875 
L 54.296875 54.6875 
L 54.296875 0 
L 45.3125 0 
L 45.3125 8.40625 
Q 42.046875 3.421875 37.71875 1 
Q 33.40625 -1.421875 27.6875 -1.421875 
Q 18.265625 -1.421875 13.375 4.4375 
Q 8.5 10.296875 8.5 21.578125 
z
M 31.109375 56 
z
" id="DejaVuSans-117"/>
       <path d="M 54.890625 33.015625 
L 54.890625 0 
L 45.90625 0 
L 45.90625 32.71875 
Q 45.90625 40.484375 42.875 44.328125 
Q 39.84375 48.1875 33.796875 48.1875 
Q 26.515625 48.1875 22.3125 43.546875 
Q 18.109375 38.921875 18.109375 30.90625 
L 18.109375 0 
L 9.078125 0 
L 9.078125 54.6875 
L 18.109375 54.6875 
L 18.109375 46.1875 
Q 21.34375 51.125 25.703125 53.5625 
Q 30.078125 56 35.796875 56 
Q 45.21875 56 50.046875 50.171875 
Q 54.890625 44.34375 54.890625 33.015625 
z
" id="DejaVuSans-110"/>
       <path d="M 48.78125 52.59375 
L 48.78125 44.1875 
Q 44.96875 46.296875 41.140625 47.34375 
Q 37.3125 48.390625 33.40625 48.390625 
Q 24.65625 48.390625 19.8125 42.84375 
Q 14.984375 37.3125 14.984375 27.296875 
Q 14.984375 17.28125 19.8125 11.734375 
Q 24.65625 6.203125 33.40625 6.203125 
Q 37.3125 6.203125 41.140625 7.25 
Q 44.96875 8.296875 48.78125 10.40625 
L 48.78125 2.09375 
Q 45.015625 0.34375 40.984375 -0.53125 
Q 36.96875 -1.421875 32.421875 -1.421875 
Q 20.0625 -1.421875 12.78125 6.34375 
Q 5.515625 14.109375 5.515625 27.296875 
Q 5.515625 40.671875 12.859375 48.328125 
Q 20.21875 56 33.015625 56 
Q 37.15625 56 41.109375 55.140625 
Q 45.0625 54.296875 48.78125 52.59375 
z
" id="DejaVuSans-99"/>
       <path d="M 32.171875 -5.078125 
Q 28.375 -14.84375 24.75 -17.8125 
Q 21.140625 -20.796875 15.09375 -20.796875 
L 7.90625 -20.796875 
L 7.90625 -13.28125 
L 13.1875 -13.28125 
Q 16.890625 -13.28125 18.9375 -11.515625 
Q 21 -9.765625 23.484375 -3.21875 
L 25.09375 0.875 
L 2.984375 54.6875 
L 12.5 54.6875 
L 29.59375 11.921875 
L 46.6875 54.6875 
L 56.203125 54.6875 
z
" id="DejaVuSans-121"/>
       <path id="DejaVuSans-32"/>
       <path d="M 31 75.875 
Q 24.46875 64.65625 21.28125 53.65625 
Q 18.109375 42.671875 18.109375 31.390625 
Q 18.109375 20.125 21.3125 9.0625 
Q 24.515625 -2 31 -13.1875 
L 23.1875 -13.1875 
Q 15.875 -1.703125 12.234375 9.375 
Q 8.59375 20.453125 8.59375 31.390625 
Q 8.59375 42.28125 12.203125 53.3125 
Q 15.828125 64.359375 23.1875 75.875 
z
" id="DejaVuSans-40"/>
       <path d="M 8.203125 72.90625 
L 55.078125 72.90625 
L 55.078125 68.703125 
L 28.609375 0 
L 18.3125 0 
L 43.21875 64.59375 
L 8.203125 64.59375 
z
" id="DejaVuSans-55"/>
       <path d="M 45.40625 46.390625 
L 45.40625 75.984375 
L 54.390625 75.984375 
L 54.390625 0 
L 45.40625 0 
L 45.40625 8.203125 
Q 42.578125 3.328125 38.25 0.953125 
Q 33.9375 -1.421875 27.875 -1.421875 
Q 17.96875 -1.421875 11.734375 6.484375 
Q 5.515625 14.40625 5.515625 27.296875 
Q 5.515625 40.1875 11.734375 48.09375 
Q 17.96875 56 27.875 56 
Q 33.9375 56 38.25 53.625 
Q 42.578125 51.265625 45.40625 46.390625 
z
M 14.796875 27.296875 
Q 14.796875 17.390625 18.875 11.75 
Q 22.953125 6.109375 30.078125 6.109375 
Q 37.203125 6.109375 41.296875 11.75 
Q 45.40625 17.390625 45.40625 27.296875 
Q 45.40625 37.203125 41.296875 42.84375 
Q 37.203125 48.484375 30.078125 48.484375 
Q 22.953125 48.484375 18.875 42.84375 
Q 14.796875 37.203125 14.796875 27.296875 
z
" id="DejaVuSans-100"/>
       <path d="M 30.609375 48.390625 
Q 23.390625 48.390625 19.1875 42.75 
Q 14.984375 37.109375 14.984375 27.296875 
Q 14.984375 17.484375 19.15625 11.84375 
Q 23.34375 6.203125 30.609375 6.203125 
Q 37.796875 6.203125 41.984375 11.859375 
Q 46.1875 17.53125 46.1875 27.296875 
Q 46.1875 37.015625 41.984375 42.703125 
Q 37.796875 48.390625 30.609375 48.390625 
z
M 30.609375 56 
Q 42.328125 56 49.015625 48.375 
Q 55.71875 40.765625 55.71875 27.296875 
Q 55.71875 13.875 49.015625 6.21875 
Q 42.328125 -1.421875 30.609375 -1.421875 
Q 18.84375 -1.421875 12.171875 6.21875 
Q 5.515625 13.875 5.515625 27.296875 
Q 5.515625 40.765625 12.171875 48.375 
Q 18.84375 56 30.609375 56 
z
" id="DejaVuSans-111"/>
       <path d="M 9.421875 75.984375 
L 18.40625 75.984375 
L 18.40625 0 
L 9.421875 0 
z
" id="DejaVuSans-108"/>
       <path d="M 9.421875 54.6875 
L 18.40625 54.6875 
L 18.40625 0 
L 9.421875 0 
z
M 9.421875 75.984375 
L 18.40625 75.984375 
L 18.40625 64.59375 
L 9.421875 64.59375 
z
" id="DejaVuSans-105"/>
       <path d="M 45.40625 27.984375 
Q 45.40625 37.75 41.375 43.109375 
Q 37.359375 48.484375 30.078125 48.484375 
Q 22.859375 48.484375 18.828125 43.109375 
Q 14.796875 37.75 14.796875 27.984375 
Q 14.796875 18.265625 18.828125 12.890625 
Q 22.859375 7.515625 30.078125 7.515625 
Q 37.359375 7.515625 41.375 12.890625 
Q 45.40625 18.265625 45.40625 27.984375 
z
M 54.390625 6.78125 
Q 54.390625 -7.171875 48.1875 -13.984375 
Q 42 -20.796875 29.203125 -20.796875 
Q 24.46875 -20.796875 20.265625 -20.09375 
Q 16.0625 -19.390625 12.109375 -17.921875 
L 12.109375 -9.1875 
Q 16.0625 -11.328125 19.921875 -12.34375 
Q 23.78125 -13.375 27.78125 -13.375 
Q 36.625 -13.375 41.015625 -8.765625 
Q 45.40625 -4.15625 45.40625 5.171875 
L 45.40625 9.625 
Q 42.625 4.78125 38.28125 2.390625 
Q 33.9375 0 27.875 0 
Q 17.828125 0 11.671875 7.65625 
Q 5.515625 15.328125 5.515625 27.984375 
Q 5.515625 40.671875 11.671875 48.328125 
Q 17.828125 56 27.875 56 
Q 33.9375 56 38.28125 53.609375 
Q 42.625 51.21875 45.40625 46.390625 
L 45.40625 54.6875 
L 54.390625 54.6875 
z
" id="DejaVuSans-103"/>
       <path d="M 2.984375 54.6875 
L 12.5 54.6875 
L 29.59375 8.796875 
L 46.6875 54.6875 
L 56.203125 54.6875 
L 35.6875 0 
L 23.484375 0 
z
" id="DejaVuSans-118"/>
       <path d="M 8.015625 75.875 
L 15.828125 75.875 
Q 23.140625 64.359375 26.78125 53.3125 
Q 30.421875 42.28125 30.421875 31.390625 
Q 30.421875 20.453125 26.78125 9.375 
Q 23.140625 -1.703125 15.828125 -13.1875 
L 8.015625 -13.1875 
Q 14.5 -2 17.703125 9.0625 
Q 20.90625 20.125 20.90625 31.390625 
Q 20.90625 42.671875 17.703125 53.65625 
Q 14.5 64.65625 8.015625 75.875 
z
" id="DejaVuSans-41"/>
      </defs>
      <use xlink:href="#DejaVuSans-70"/>
      <use x="50.269531" xlink:href="#DejaVuSans-114"/>
      <use x="89.132812" xlink:href="#DejaVuSans-101"/>
      <use x="150.65625" xlink:href="#DejaVuSans-113"/>
      <use x="214.132812" xlink:href="#DejaVuSans-117"/>
      <use x="277.511719" xlink:href="#DejaVuSans-101"/>
      <use x="339.035156" xlink:href="#DejaVuSans-110"/>
      <use x="402.414062" xlink:href="#DejaVuSans-99"/>
      <use x="457.394531" xlink:href="#DejaVuSans-121"/>
      <use x="516.574219" xlink:href="#DejaVuSans-32"/>
      <use x="548.361328" xlink:href="#DejaVuSans-40"/>
      <use x="587.375" xlink:href="#DejaVuSans-55"/>
      <use x="650.998047" xlink:href="#DejaVuSans-32"/>
      <use x="682.785156" xlink:href="#DejaVuSans-100"/>
      <use x="746.261719" xlink:href="#DejaVuSans-97"/>
      <use x="807.541016" xlink:href="#DejaVuSans-121"/>
      <use x="866.720703" xlink:href="#DejaVuSans-32"/>
      <use x="898.507812" xlink:href="#DejaVuSans-114"/>
      <use x="937.371094" xlink:href="#DejaVuSans-111"/>
      <use x="998.552734" xlink:href="#DejaVuSans-108"/>
      <use x="1026.335938" xlink:href="#DejaVuSans-108"/>
      <use x="1054.119141" xlink:href="#DejaVuSans-105"/>
      <use x="1081.902344" xlink:href="#DejaVuSans-110"/>
      <use x="1145.28125" xlink:href="#DejaVuSans-103"/>
      <use x="1208.757812" xlink:href="#DejaVuSans-32"/>
      <use x="1240.544922" xlink:href="#DejaVuSans-97"/>
      <use x="1301.824219" xlink:href="#DejaVuSans-118"/>
      <use x="1361.003906" xlink:href="#DejaVuSans-101"/>
      <use x="1422.527344" xlink:href="#DejaVuSans-114"/>
      <use x="1463.640625" xlink:href="#DejaVuSans-97"/>
      <use x="1524.919922" xlink:href="#DejaVuSans-103"/>
      <use x="1588.396484" xlink:href="#DejaVuSans-101"/>
      <use x="1649.919922" xlink:href="#DejaVuSans-41"/>
     </g>
    </g>
   </g>
   <g id="line2d_14">
    <path clip-path="url(#p5c7cf5ec58)" d="M 86.899432 228.746616 
L 96.172159 228.881827 
L 114.717614 228.789299 
L 133.263068 228.759728 
L 137.899432 228.930428 
L 147.172159 228.96 
L 170.353977 228.713955 
L 179.626705 228.767674 
L 184.263068 228.691992 
L 188.899432 228.884318 
L 207.444886 228.96 
L 212.08125 228.694289 
L 221.353977 228.35326 
L 225.990341 228.12773 
L 230.626705 228.015202 
L 244.535795 228.561759 
L 249.172159 228.065931 
L 258.444886 227.607961 
L 267.717614 225.766323 
L 272.353977 226.173595 
L 276.990341 226.342205 
L 281.626705 224.371376 
L 286.263068 224.152754 
L 290.899432 225.040899 
L 295.535795 223.061063 
L 300.172159 221.757713 
L 304.808523 223.166484 
L 309.444886 223.13596 
L 314.08125 219.568596 
L 318.717614 217.591164 
L 323.353977 216.368963 
L 327.990341 213.298815 
L 332.626705 213.132275 
L 337.263068 212.089936 
L 341.899432 214.143749 
L 346.535795 210.941754 
L 351.172159 213.333697 
L 355.808523 208.529707 
L 360.444886 204.719757 
L 365.08125 205.208684 
L 369.717614 208.069512 
L 374.353977 208.62441 
L 378.990341 207.98899 
L 383.626705 210.878286 
L 388.263068 203.616827 
L 392.899432 199.208416 
L 397.535795 196.142138 
L 402.172159 199.245485 
L 406.808523 199.342189 
L 411.444886 204.244387 
L 416.08125 199.157798 
L 420.717614 195.0888 
L 425.353977 194.984264 
L 429.990341 188.990547 
L 434.626705 181.443594 
L 439.263068 184.314829 
L 443.899432 174.191769 
L 448.535795 166.958858 
L 453.172159 165.549829 
L 457.808523 158.881513 
L 462.444886 152.614526 
L 467.08125 151.936155 
L 476.353977 134.433085 
L 480.990341 129.388073 
L 485.626705 126.570695 
L 490.263068 128.199044 
L 494.899432 129.207034 
L 499.535795 132.469867 
L 504.172159 134.011682 
L 508.808523 130.661555 
L 518.08125 113.457932 
L 522.717614 108.325894 
L 527.353977 105.030677 
L 531.990341 98.156054 
L 536.626705 94.729309 
L 541.263068 92.224012 
L 550.535795 74.545917 
L 555.172159 72.439477 
L 559.808523 71.16859 
L 564.444886 70.666844 
L 569.08125 72.941365 
L 573.717614 73.590825 
L 578.353977 70.575194 
L 582.990341 67.252862 
L 587.626705 64.811881 
L 592.263068 60.957627 
L 596.899432 60.817115 
L 601.535795 62.128703 
L 606.172159 61.467762 
L 610.808523 59.619946 
L 615.444886 58.003629 
L 620.08125 56.132954 
L 624.717614 52.992412 
L 629.353977 50.807617 
L 633.990341 49.740785 
L 638.626705 48.338844 
L 643.263068 45.930579 
L 647.899432 44.33646 
L 652.535795 42.598881 
L 657.172159 40.281278 
L 661.808523 38.241416 
L 666.444886 36.643872 
L 671.08125 34.307727 
L 675.717614 32.561884 
L 680.353977 31.271567 
L 684.990341 30.826711 
L 689.626705 31.078324 
L 694.263068 32.297169 
L 698.899432 33.690768 
L 703.535795 32.696675 
L 708.172159 31.515735 
L 712.808523 30.552536 
L 717.444886 29.182207 
L 722.08125 27.51556 
L 726.717614 27.266745 
L 731.353977 27.586051 
L 735.990341 26.610587 
L 740.626705 25.460572 
L 745.263068 25.075707 
L 749.899432 24.876733 
L 754.535795 23.846598 
L 759.172159 23.773116 
L 763.808523 23.921041 
L 768.444886 23.388421 
L 773.08125 22.987127 
L 777.717614 22.993008 
L 786.990341 22.175695 
L 791.626705 22.087432 
L 796.263068 21.616595 
L 800.899432 20.89465 
L 814.808523 20.565511 
L 819.444886 20.633152 
L 824.08125 20.949313 
L 833.353977 21.338006 
L 837.990341 21.202755 
L 842.626705 21.423605 
L 847.263068 21.877489 
L 851.899432 21.688242 
L 856.535795 21.060814 
L 861.172159 20.792384 
L 865.808523 20.654861 
L 875.08125 20.111153 
L 879.717614 19.952941 
L 884.353977 19.923049 
L 888.990341 19.209095 
L 898.263068 18.155145 
L 902.899432 17.76 
L 907.535795 18.688743 
L 912.172159 20.903452 
L 916.808523 24.7359 
L 921.444886 27.388242 
L 921.444886 27.388242 
" style="fill:none;stroke:#947383;stroke-linecap:square;stroke-width:2;"/>
   </g>
   <g id="line2d_15">
    <path clip-path="url(#p5c7cf5ec58)" d="M 462.444886 200.453013 
L 467.08125 214.706507 
L 471.717614 214.706507 
L 476.353977 207.57976 
L 480.990341 207.57976 
L 485.626705 221.833253 
L 490.263068 221.833253 
L 494.899432 207.57976 
L 499.535795 214.706507 
L 504.172159 207.57976 
L 508.808523 207.57976 
L 513.444886 207.57976 
L 518.08125 221.833253 
L 522.717614 213.281157 
L 527.353977 199.027664 
L 531.990341 191.900917 
L 536.626705 177.647424 
L 541.263068 177.647424 
L 545.899432 174.796725 
L 550.535795 182.814315 
L 555.172159 183.189407 
L 559.808523 192.412256 
L 564.444886 183.86016 
L 569.08125 179.083313 
L 573.717614 168.853974 
L 578.353977 152.189176 
L 582.990341 145.423826 
L 587.626705 136.87173 
L 592.263068 144.855612 
L 596.899432 163.16853 
L 601.535795 176.975886 
L 606.172159 184.884565 
L 610.808523 188.549749 
L 615.444886 190.166972 
L 620.08125 195.446043 
L 624.717614 204.125564 
L 629.353977 206.008483 
L 633.990341 218.151719 
L 638.626705 224.730255 
L 643.263068 224.119391 
L 647.899432 223.189815 
L 652.535795 220.918165 
L 657.172159 221.422076 
L 661.808523 220.802359 
L 666.444886 218.872996 
L 671.08125 217.400162 
L 675.717614 220.380438 
L 680.353977 219.792928 
L 684.990341 220.412646 
L 689.626705 222.952872 
L 694.263068 226.284858 
L 698.899432 220.453883 
L 703.535795 209.005109 
L 708.172159 209.005109 
L 712.808523 209.005109 
L 717.444886 209.005109 
L 722.08125 212.24454 
L 726.717614 216.520588 
L 731.353977 198.194668 
L 735.990341 183.941174 
L 740.626705 173.251054 
L 745.263068 177.13837 
L 749.899432 185.690466 
L 754.535795 204.016387 
L 759.172159 218.26988 
L 763.808523 226.821976 
L 768.444886 226.821976 
L 773.08125 216.131856 
L 777.717614 210.023216 
L 782.353977 210.023216 
L 786.990341 212.16124 
L 791.626705 212.16124 
L 796.263068 222.85136 
L 800.899432 227.315366 
" style="fill:none;stroke:#96c6ad;stroke-linecap:square;stroke-width:2;"/>
   </g>
   <g id="line2d_16">
    <path clip-path="url(#p5c7cf5ec58)" d="M 351.172159 219.727624 
L 355.808523 223.61494 
L 360.444886 223.61494 
L 365.08125 223.61494 
L 369.717614 218.863776 
L 374.353977 224.208836 
L 378.990341 224.208836 
L 383.626705 224.208836 
L 388.263068 224.208836 
L 392.899432 228.96 
L 397.535795 228.96 
L 402.172159 228.656734 
L 406.808523 228.656734 
L 411.444886 228.656734 
L 416.08125 228.656734 
L 420.717614 228.656734 
L 425.353977 228.552757 
L 429.990341 228.242899 
L 434.626705 227.708393 
L 439.263068 227.708393 
L 443.899432 227.153062 
L 448.535795 227.560305 
L 453.172159 227.870163 
L 457.808523 227.895616 
L 462.444886 227.558919 
L 467.08125 228.11425 
L 471.717614 227.725518 
L 476.353977 227.057386 
L 480.990341 227.215943 
L 485.626705 226.150657 
L 490.263068 223.570283 
L 494.899432 221.200274 
L 499.535795 218.973166 
L 504.172159 218.135871 
L 508.808523 211.448033 
L 513.444886 210.527549 
L 518.08125 207.492934 
L 522.717614 206.704195 
L 527.353977 203.746233 
L 531.990341 209.02633 
L 536.626705 211.000028 
L 541.263068 212.670052 
L 545.899432 215.913202 
L 550.535795 218.313629 
L 555.172159 213.440961 
L 559.808523 202.81073 
L 564.444886 198.79536 
L 569.08125 194.817607 
L 573.717614 194.007525 
L 578.353977 199.573061 
L 582.990341 210.787207 
L 587.626705 218.529978 
L 592.263068 216.633722 
L 596.899432 212.037551 
L 601.535795 210.750587 
L 606.172159 201.449135 
L 610.808523 199.418938 
L 615.444886 201.801779 
L 620.08125 201.00672 
L 624.717614 198.465232 
L 629.353977 198.430968 
L 633.990341 188.725052 
L 638.626705 171.27681 
L 643.263068 164.079111 
L 647.899432 160.522089 
L 652.535795 154.114034 
L 657.172159 152.501638 
L 661.808523 146.553751 
L 666.444886 140.317848 
L 671.08125 134.372673 
L 675.717614 135.78809 
L 680.353977 135.738827 
L 684.990341 143.08542 
L 689.626705 143.211931 
L 694.263068 133.463457 
L 698.899432 132.531086 
L 703.535795 125.799759 
L 708.172159 134.785739 
L 712.808523 144.161558 
L 717.444886 142.342193 
L 722.08125 148.055859 
L 726.717614 153.908176 
L 731.353977 143.194561 
L 735.990341 145.732924 
L 740.626705 169.870157 
L 745.263068 172.137293 
L 749.899432 164.093501 
L 754.535795 176.800462 
L 759.172159 179.957772 
L 763.808523 178.724297 
L 768.444886 180.414615 
L 773.08125 200.832169 
L 777.717614 199.144256 
L 782.353977 193.109214 
L 786.990341 196.17786 
L 791.626705 201.692604 
L 796.263068 202.122244 
L 800.899432 211.800282 
L 805.535795 223.142667 
L 810.172159 216.639639 
L 814.808523 215.621532 
L 819.444886 211.592845 
L 824.08125 204.830295 
L 828.717614 205.351797 
L 833.353977 212.897764 
L 837.990341 214.933978 
L 842.626705 220.831975 
L 847.263068 228.606608 
L 851.899432 222.702369 
L 856.535795 208.448875 
L 861.172159 187.068635 
L 865.808523 187.068635 
L 870.444886 176.378515 
L 875.08125 175.5094 
L 879.717614 147.002413 
L 884.353977 168.382653 
L 888.990341 168.382653 
L 893.626705 171.946026 
L 898.263068 172.964133 
L 902.899432 194.344373 
L 907.535795 183.654253 
L 912.172159 171.436973 
" style="fill:none;stroke:#525886;stroke-linecap:square;stroke-width:2;"/>
   </g>
   <g id="line2d_17">
    <path clip-path="url(#p5c7cf5ec58)" d="M 123.990341 207.57976 
L 128.626705 228.96 
L 290.899432 228.96 
L 295.535795 198.4168 
L 300.172159 197.943 
L 309.444886 197.943 
L 314.08125 197.448659 
L 318.717614 227.991859 
L 323.353977 228.465659 
L 332.626705 228.465659 
L 337.263068 228.96 
L 341.899432 228.96 
L 346.535795 228.625934 
L 365.08125 228.555333 
L 369.717614 228.889399 
L 383.626705 228.889399 
L 392.899432 227.865166 
L 406.808523 227.161162 
L 411.444886 227.780879 
L 416.08125 228.255996 
L 420.717614 228.066092 
L 429.990341 228.380598 
L 434.626705 228.380598 
L 443.899432 227.647866 
L 448.535795 227.519456 
L 453.172159 227.089822 
L 457.808523 224.769486 
L 462.444886 224.728042 
L 467.08125 224.909372 
L 471.717614 223.846682 
L 476.353977 223.352758 
L 480.990341 224.221125 
L 485.626705 222.182594 
L 490.263068 219.469543 
L 494.899432 219.1762 
L 499.535795 216.117856 
L 504.172159 213.223932 
L 508.808523 211.442245 
L 513.444886 212.063147 
L 518.08125 209.677435 
L 522.717614 210.620974 
L 527.353977 212.984658 
L 531.990341 210.152879 
L 536.626705 206.030375 
L 541.263068 202.773782 
L 545.899432 202.200729 
L 550.535795 198.659709 
L 555.172159 198.849502 
L 559.808523 202.977362 
L 564.444886 201.52136 
L 569.08125 197.094096 
L 573.717614 191.315953 
L 578.353977 188.710026 
L 582.990341 182.793946 
L 587.626705 180.017312 
L 592.263068 183.547101 
L 596.899432 186.150122 
L 601.535795 186.460871 
L 606.172159 187.17623 
L 610.808523 188.921372 
L 615.444886 183.138514 
L 620.08125 181.351252 
L 624.717614 183.893008 
L 629.353977 180.989881 
L 633.990341 179.971169 
L 638.626705 179.845422 
L 643.263068 179.04276 
L 647.899432 172.972554 
L 652.535795 170.701368 
L 657.172159 172.287699 
L 661.808523 172.034374 
L 666.444886 172.651551 
L 671.08125 173.434082 
L 675.717614 173.671313 
L 684.990341 163.969036 
L 689.626705 161.312192 
L 694.263068 157.140321 
L 698.899432 151.431352 
L 703.535795 147.990549 
L 708.172159 147.224782 
L 712.808523 143.256818 
L 717.444886 137.614008 
L 722.08125 136.336557 
L 726.717614 134.354826 
L 731.353977 133.220657 
L 735.990341 131.182389 
L 740.626705 132.9751 
L 745.263068 132.950279 
L 749.899432 131.48128 
L 754.535795 124.738302 
L 759.172159 124.170621 
L 763.808523 122.562984 
L 768.444886 120.067978 
L 773.08125 120.414561 
L 777.717614 122.072415 
L 782.353977 116.730131 
L 786.990341 114.497359 
L 791.626705 112.754686 
L 796.263068 107.850235 
L 800.899432 107.771689 
L 805.535795 107.872335 
L 810.172159 106.154215 
L 814.808523 99.560234 
L 819.444886 97.055536 
L 828.717614 86.786283 
L 833.353977 82.515304 
L 837.990341 83.82023 
L 842.626705 79.364266 
L 847.263068 74.640251 
L 851.899432 73.045801 
L 856.535795 70.914184 
L 861.172159 66.804556 
L 865.808523 65.698077 
L 870.444886 65.603927 
L 875.08125 63.24099 
L 879.717614 59.957467 
L 884.353977 60.713035 
L 888.990341 61.194085 
L 893.626705 57.731109 
L 898.263068 57.821849 
L 902.899432 59.07104 
L 907.535795 58.01616 
L 912.172159 57.918366 
L 916.808523 64.23037 
L 921.444886 65.469288 
L 926.08125 73.713201 
L 930.717614 70.560881 
L 930.717614 70.560881 
" style="fill:none;stroke:#937252;stroke-linecap:square;stroke-width:2;"/>
   </g>
   <g id="line2d_18">
    <path clip-path="url(#p5c7cf5ec58)" d="M 513.444886 224.483359 
L 518.08125 226.171273 
L 522.717614 226.109301 
L 527.353977 226.109301 
L 531.990341 224.729931 
L 536.626705 218.151396 
L 541.263068 211.737324 
L 545.899432 214.588022 
L 550.535795 214.588022 
L 555.172159 212.913073 
L 559.808523 217.907886 
L 564.444886 222.285745 
L 569.08125 218.009697 
L 573.717614 214.955377 
L 578.353977 212.87844 
L 582.990341 209.710997 
L 587.626705 211.74721 
L 592.263068 213.507936 
L 596.899432 209.720579 
L 601.535795 212.601285 
L 606.172159 213.579466 
L 610.808523 210.290198 
L 615.444886 212.80552 
L 620.08125 219.647197 
L 624.717614 221.303853 
L 629.353977 222.865088 
L 633.990341 223.710899 
L 638.626705 218.680255 
L 643.263068 213.793343 
L 647.899432 212.961889 
L 652.535795 212.322939 
L 657.172159 213.794566 
L 661.808523 218.100457 
L 666.444886 221.691597 
L 671.08125 221.38925 
L 675.717614 224.239949 
L 680.353977 225.211778 
L 684.990341 225.936532 
L 689.626705 224.687037 
L 694.263068 226.414733 
L 698.899432 224.940234 
L 703.535795 222.424912 
L 708.172159 222.424912 
L 712.808523 224.970178 
L 717.444886 224.970178 
L 722.08125 224.251832 
L 726.717614 225.816922 
L 731.353977 225.079672 
L 735.990341 225.079672 
L 740.626705 222.180657 
L 745.263068 224.373502 
L 749.899432 225.323735 
L 754.535795 226.060984 
L 759.172159 219.482449 
L 763.808523 217.250207 
L 768.444886 204.580435 
L 773.08125 196.028339 
L 777.717614 193.513017 
L 782.353977 185.838059 
L 786.990341 181.251025 
L 791.626705 186.437713 
L 796.263068 191.822366 
L 800.899432 180.084195 
L 805.535795 180.975039 
L 810.172159 171.878718 
L 814.808523 165.999152 
L 819.444886 159.158823 
L 824.08125 163.909988 
L 828.717614 168.364204 
L 833.353977 176.143853 
L 837.990341 169.055839 
L 842.626705 167.185699 
L 847.263068 160.24169 
L 851.899432 158.460003 
L 856.535795 169.494966 
L 861.172159 177.861147 
L 865.808523 185.851742 
L 870.444886 202.29808 
L 875.08125 212.9882 
L 879.717614 212.9882 
L 884.353977 225.072684 
L 888.990341 228.96 
L 893.626705 228.96 
L 898.263068 223.61494 
L 902.899432 223.61494 
L 907.535795 218.863776 
L 912.172159 218.863776 
L 916.808523 176.103295 
" style="fill:none;stroke:#d18cad;stroke-linecap:square;stroke-width:2;"/>
   </g>
   <g id="line2d_19">
    <path clip-path="url(#p5c7cf5ec58)" d="M 295.535795 228.905666 
L 309.444886 228.96 
L 462.444886 228.96 
L 467.08125 228.838349 
L 471.717614 228.838349 
L 485.626705 228.454361 
L 494.899432 227.796976 
L 504.172159 227.867443 
L 508.808523 227.805747 
L 513.444886 228.300659 
L 527.353977 227.817344 
L 531.990341 227.222812 
L 536.626705 226.498704 
L 541.263068 226.036239 
L 545.899432 225.693952 
L 555.172159 225.342301 
L 559.808523 225.700224 
L 564.444886 225.91424 
L 569.08125 225.875354 
L 573.717614 225.484417 
L 578.353977 225.801745 
L 587.626705 225.645543 
L 592.263068 225.300505 
L 596.899432 225.362205 
L 601.535795 225.284155 
L 606.172159 224.408232 
L 610.808523 224.536746 
L 615.444886 223.881546 
L 620.08125 223.519379 
L 624.717614 223.005366 
L 629.353977 223.479831 
L 633.990341 222.517548 
L 638.626705 222.982038 
L 643.263068 222.736759 
L 647.899432 221.290633 
L 652.535795 221.177217 
L 657.172159 221.375114 
L 661.808523 220.46305 
L 666.444886 219.362719 
L 671.08125 219.962074 
L 675.717614 218.90921 
L 680.353977 218.727896 
L 684.990341 219.020426 
L 689.626705 218.981833 
L 694.263068 219.214023 
L 698.899432 219.020478 
L 703.535795 217.27819 
L 708.172159 215.987307 
L 712.808523 215.424199 
L 717.444886 212.929748 
L 722.08125 211.765418 
L 726.717614 210.826389 
L 731.353977 210.217811 
L 735.990341 210.50746 
L 740.626705 209.378864 
L 745.263068 207.626899 
L 749.899432 206.539539 
L 754.535795 205.190067 
L 759.172159 202.82464 
L 763.808523 203.387389 
L 768.444886 203.044354 
L 773.08125 202.025178 
L 777.717614 201.835253 
L 782.353977 199.229983 
L 786.990341 198.378478 
L 791.626705 197.707586 
L 796.263068 198.082857 
L 800.899432 197.05042 
L 805.535795 199.08867 
L 810.172159 199.228057 
L 814.808523 199.834991 
L 819.444886 200.011277 
L 824.08125 200.802032 
L 828.717614 201.407187 
L 833.353977 201.33701 
L 837.990341 200.258634 
L 842.626705 200.505624 
L 847.263068 199.717739 
L 851.899432 200.987635 
L 856.535795 202.062289 
L 861.172159 203.016254 
L 865.808523 203.515833 
L 870.444886 203.11532 
L 879.717614 199.614519 
L 884.353977 195.117143 
L 888.990341 187.578798 
L 893.626705 183.465898 
L 898.263068 177.879814 
L 902.899432 167.68919 
L 907.535795 165.375312 
L 912.172159 164.831087 
L 916.808523 161.067146 
L 921.444886 160.279093 
L 926.08125 165.337204 
L 930.717614 143.623765 
L 935.353977 148.184883 
L 939.990341 119.91156 
L 944.626705 99.867585 
L 949.263068 68.608199 
L 949.263068 68.608199 
" style="fill:none;stroke:#a4a86f;stroke-linecap:square;stroke-width:2;"/>
   </g>
   <g id="line2d_20">
    <path clip-path="url(#p5c7cf5ec58)" d="M 416.08125 221.833253 
L 420.717614 228.96 
L 425.353977 228.96 
L 429.990341 228.96 
L 434.626705 228.96 
L 439.263068 211.855808 
L 443.899432 211.855808 
L 448.535795 190.475568 
L 453.172159 190.475568 
L 457.808523 190.475568 
L 462.444886 207.57976 
L 467.08125 207.57976 
L 471.717614 226.821976 
L 476.353977 226.821976 
L 480.990341 226.821976 
L 485.626705 218.804386 
L 490.263068 213.459326 
L 494.899432 210.846185 
L 499.535795 206.095021 
L 504.172159 184.714781 
L 508.808523 189.168998 
L 513.444886 190.950684 
L 518.08125 187.927216 
L 522.717614 187.927216 
L 527.353977 207.169432 
L 531.990341 210.732805 
L 536.626705 211.006911 
L 541.263068 214.505496 
L 545.899432 204.511667 
L 550.535795 195.959571 
L 555.172159 195.959571 
L 559.808523 190.696743 
L 564.444886 173.592551 
L 569.08125 175.760932 
L 573.717614 177.898956 
L 578.353977 154.143134 
L 582.990341 149.538159 
L 587.626705 164.809759 
L 592.263068 163.132877 
L 596.899432 167.408925 
L 601.535795 175.129568 
L 606.172159 169.281981 
L 610.808523 165.329331 
L 615.444886 143.949091 
L 620.08125 141.098392 
L 624.717614 139.316706 
L 629.353977 147.631244 
L 633.990341 129.185546 
L 638.626705 140.38472 
L 643.263068 127.77586 
L 647.899432 109.958993 
L 652.535795 109.958993 
L 657.172159 124.212487 
L 661.808523 134.393553 
L 666.444886 132.74892 
L 671.08125 155.554509 
L 675.717614 123.484149 
L 680.353977 94.977162 
L 684.990341 94.977162 
L 689.626705 94.977162 
L 694.263068 100.678559 
L 698.899432 106.023619 
L 703.535795 148.7841 
L 708.172159 145.933401 
L 712.808523 167.313641 
L 717.444886 174.440388 
L 722.08125 190.475568 
L 726.717614 147.715088 
L 731.353977 164.81928 
L 735.990341 128.16744 
L 740.626705 101.442139 
L 745.263068 80.061899 
L 749.899432 80.061899 
L 754.535795 37.301419 
L 759.172159 48.296971 
L 763.808523 60.768778 
L 768.444886 82.149018 
L 773.08125 99.25321 
L 777.717614 127.760197 
L 782.353977 122.873285 
L 786.990341 128.574682 
L 791.626705 121.447936 
L 796.263068 131.069044 
L 800.899432 123.942297 
L 805.535795 111.725017 
L 810.172159 88.206753 
L 814.808523 108.161643 
L 819.444886 95.689837 
L 824.08125 95.689837 
L 828.717614 118.495426 
L 833.353977 118.495426 
L 837.990341 84.287042 
L 842.626705 100.576749 
L 847.263068 93.450002 
L 851.899432 92.024653 
L 856.535795 111.518401 
L 861.172159 125.771894 
L 865.808523 116.608934 
L 870.444886 118.80178 
L 875.08125 112.69314 
L 879.717614 96.762765 
L 884.353977 113.052471 
L 888.990341 115.428054 
L 893.626705 135.633555 
L 898.263068 144.117777 
L 902.899432 158.371271 
L 907.535795 158.371271 
L 912.172159 143.167545 
L 916.808523 130.950264 
L 921.444886 135.701429 
L 926.08125 124.298634 
L 930.717614 115.135674 
L 935.353977 149.344058 
L 939.990341 153.416485 
" style="fill:none;stroke:#d3d3d3;stroke-linecap:square;stroke-width:2;"/>
   </g>
   <g id="patch_3">
    <path d="M 43.78125 228.96 
L 43.78125 7.2 
" style="fill:none;stroke:#000000;stroke-linecap:square;stroke-linejoin:miter;stroke-width:0.8;"/>
   </g>
   <g id="patch_4">
    <path d="M 43.78125 228.96 
L 992.38125 228.96 
" style="fill:none;stroke:#000000;stroke-linecap:square;stroke-linejoin:miter;stroke-width:0.8;"/>
   </g>
   <g id="legend_1">
    <g id="line2d_21">
     <path d="M 50.98125 17.67875 
L 66.98125 17.67875 
" style="fill:none;stroke:#947383;stroke-linecap:square;stroke-width:2;"/>
    </g>
    <g id="line2d_22"/>
    <g id="text_16">
     <!-- United Kingdom -->
     <g transform="translate(73.38125 20.47875)scale(0.08 -0.08)">
      <defs>
       <path d="M 8.6875 72.90625 
L 18.609375 72.90625 
L 18.609375 28.609375 
Q 18.609375 16.890625 22.84375 11.734375 
Q 27.09375 6.59375 36.625 6.59375 
Q 46.09375 6.59375 50.34375 11.734375 
Q 54.59375 16.890625 54.59375 28.609375 
L 54.59375 72.90625 
L 64.5 72.90625 
L 64.5 27.390625 
Q 64.5 13.140625 57.4375 5.859375 
Q 50.390625 -1.421875 36.625 -1.421875 
Q 22.796875 -1.421875 15.734375 5.859375 
Q 8.6875 13.140625 8.6875 27.390625 
z
" id="DejaVuSans-85"/>
       <path d="M 9.8125 72.90625 
L 19.671875 72.90625 
L 19.671875 42.09375 
L 52.390625 72.90625 
L 65.09375 72.90625 
L 28.90625 38.921875 
L 67.671875 0 
L 54.6875 0 
L 19.671875 35.109375 
L 19.671875 0 
L 9.8125 0 
z
" id="DejaVuSans-75"/>
       <path d="M 52 44.1875 
Q 55.375 50.25 60.0625 53.125 
Q 64.75 56 71.09375 56 
Q 79.640625 56 84.28125 50.015625 
Q 88.921875 44.046875 88.921875 33.015625 
L 88.921875 0 
L 79.890625 0 
L 79.890625 32.71875 
Q 79.890625 40.578125 77.09375 44.375 
Q 74.3125 48.1875 68.609375 48.1875 
Q 61.625 48.1875 57.5625 43.546875 
Q 53.515625 38.921875 53.515625 30.90625 
L 53.515625 0 
L 44.484375 0 
L 44.484375 32.71875 
Q 44.484375 40.625 41.703125 44.40625 
Q 38.921875 48.1875 33.109375 48.1875 
Q 26.21875 48.1875 22.15625 43.53125 
Q 18.109375 38.875 18.109375 30.90625 
L 18.109375 0 
L 9.078125 0 
L 9.078125 54.6875 
L 18.109375 54.6875 
L 18.109375 46.1875 
Q 21.1875 51.21875 25.484375 53.609375 
Q 29.78125 56 35.6875 56 
Q 41.65625 56 45.828125 52.96875 
Q 50 49.953125 52 44.1875 
z
" id="DejaVuSans-109"/>
      </defs>
      <use xlink:href="#DejaVuSans-85"/>
      <use x="73.193359" xlink:href="#DejaVuSans-110"/>
      <use x="136.572266" xlink:href="#DejaVuSans-105"/>
      <use x="164.355469" xlink:href="#DejaVuSans-116"/>
      <use x="203.564453" xlink:href="#DejaVuSans-101"/>
      <use x="265.087891" xlink:href="#DejaVuSans-100"/>
      <use x="328.564453" xlink:href="#DejaVuSans-32"/>
      <use x="360.351562" xlink:href="#DejaVuSans-75"/>
      <use x="425.927734" xlink:href="#DejaVuSans-105"/>
      <use x="453.710938" xlink:href="#DejaVuSans-110"/>
      <use x="517.089844" xlink:href="#DejaVuSans-103"/>
      <use x="580.566406" xlink:href="#DejaVuSans-100"/>
      <use x="644.042969" xlink:href="#DejaVuSans-111"/>
      <use x="705.224609" xlink:href="#DejaVuSans-109"/>
     </g>
    </g>
    <g id="line2d_23">
     <path d="M 50.98125 29.42125 
L 66.98125 29.42125 
" style="fill:none;stroke:#96c6ad;stroke-linecap:square;stroke-width:2;"/>
    </g>
    <g id="line2d_24"/>
    <g id="text_17">
     <!-- Africa -->
     <g transform="translate(73.38125 32.22125)scale(0.08 -0.08)">
      <defs>
       <path d="M 34.1875 63.1875 
L 20.796875 26.90625 
L 47.609375 26.90625 
z
M 28.609375 72.90625 
L 39.796875 72.90625 
L 67.578125 0 
L 57.328125 0 
L 50.6875 18.703125 
L 17.828125 18.703125 
L 11.1875 0 
L 0.78125 0 
z
" id="DejaVuSans-65"/>
       <path d="M 37.109375 75.984375 
L 37.109375 68.5 
L 28.515625 68.5 
Q 23.6875 68.5 21.796875 66.546875 
Q 19.921875 64.59375 19.921875 59.515625 
L 19.921875 54.6875 
L 34.71875 54.6875 
L 34.71875 47.703125 
L 19.921875 47.703125 
L 19.921875 0 
L 10.890625 0 
L 10.890625 47.703125 
L 2.296875 47.703125 
L 2.296875 54.6875 
L 10.890625 54.6875 
L 10.890625 58.5 
Q 10.890625 67.625 15.140625 71.796875 
Q 19.390625 75.984375 28.609375 75.984375 
z
" id="DejaVuSans-102"/>
      </defs>
      <use xlink:href="#DejaVuSans-65"/>
      <use x="64.783203" xlink:href="#DejaVuSans-102"/>
      <use x="99.988281" xlink:href="#DejaVuSans-114"/>
      <use x="141.101562" xlink:href="#DejaVuSans-105"/>
      <use x="168.884766" xlink:href="#DejaVuSans-99"/>
      <use x="223.865234" xlink:href="#DejaVuSans-97"/>
     </g>
    </g>
    <g id="line2d_25">
     <path d="M 50.98125 41.16375 
L 66.98125 41.16375 
" style="fill:none;stroke:#525886;stroke-linecap:square;stroke-width:2;"/>
    </g>
    <g id="line2d_26"/>
    <g id="text_18">
     <!-- Asia -->
     <g transform="translate(73.38125 43.96375)scale(0.08 -0.08)">
      <defs>
       <path d="M 44.28125 53.078125 
L 44.28125 44.578125 
Q 40.484375 46.53125 36.375 47.5 
Q 32.28125 48.484375 27.875 48.484375 
Q 21.1875 48.484375 17.84375 46.4375 
Q 14.5 44.390625 14.5 40.28125 
Q 14.5 37.15625 16.890625 35.375 
Q 19.28125 33.59375 26.515625 31.984375 
L 29.59375 31.296875 
Q 39.15625 29.25 43.1875 25.515625 
Q 47.21875 21.78125 47.21875 15.09375 
Q 47.21875 7.46875 41.1875 3.015625 
Q 35.15625 -1.421875 24.609375 -1.421875 
Q 20.21875 -1.421875 15.453125 -0.5625 
Q 10.6875 0.296875 5.421875 2 
L 5.421875 11.28125 
Q 10.40625 8.6875 15.234375 7.390625 
Q 20.0625 6.109375 24.8125 6.109375 
Q 31.15625 6.109375 34.5625 8.28125 
Q 37.984375 10.453125 37.984375 14.40625 
Q 37.984375 18.0625 35.515625 20.015625 
Q 33.0625 21.96875 24.703125 23.78125 
L 21.578125 24.515625 
Q 13.234375 26.265625 9.515625 29.90625 
Q 5.8125 33.546875 5.8125 39.890625 
Q 5.8125 47.609375 11.28125 51.796875 
Q 16.75 56 26.8125 56 
Q 31.78125 56 36.171875 55.265625 
Q 40.578125 54.546875 44.28125 53.078125 
z
" id="DejaVuSans-115"/>
      </defs>
      <use xlink:href="#DejaVuSans-65"/>
      <use x="68.408203" xlink:href="#DejaVuSans-115"/>
      <use x="120.507812" xlink:href="#DejaVuSans-105"/>
      <use x="148.291016" xlink:href="#DejaVuSans-97"/>
     </g>
    </g>
    <g id="line2d_27">
     <path d="M 50.98125 52.90625 
L 66.98125 52.90625 
" style="fill:none;stroke:#937252;stroke-linecap:square;stroke-width:2;"/>
    </g>
    <g id="line2d_28"/>
    <g id="text_19">
     <!-- Europe -->
     <g transform="translate(73.38125 55.70625)scale(0.08 -0.08)">
      <defs>
       <path d="M 9.8125 72.90625 
L 55.90625 72.90625 
L 55.90625 64.59375 
L 19.671875 64.59375 
L 19.671875 43.015625 
L 54.390625 43.015625 
L 54.390625 34.71875 
L 19.671875 34.71875 
L 19.671875 8.296875 
L 56.78125 8.296875 
L 56.78125 0 
L 9.8125 0 
z
" id="DejaVuSans-69"/>
       <path d="M 18.109375 8.203125 
L 18.109375 -20.796875 
L 9.078125 -20.796875 
L 9.078125 54.6875 
L 18.109375 54.6875 
L 18.109375 46.390625 
Q 20.953125 51.265625 25.265625 53.625 
Q 29.59375 56 35.59375 56 
Q 45.5625 56 51.78125 48.09375 
Q 58.015625 40.1875 58.015625 27.296875 
Q 58.015625 14.40625 51.78125 6.484375 
Q 45.5625 -1.421875 35.59375 -1.421875 
Q 29.59375 -1.421875 25.265625 0.953125 
Q 20.953125 3.328125 18.109375 8.203125 
z
M 48.6875 27.296875 
Q 48.6875 37.203125 44.609375 42.84375 
Q 40.53125 48.484375 33.40625 48.484375 
Q 26.265625 48.484375 22.1875 42.84375 
Q 18.109375 37.203125 18.109375 27.296875 
Q 18.109375 17.390625 22.1875 11.75 
Q 26.265625 6.109375 33.40625 6.109375 
Q 40.53125 6.109375 44.609375 11.75 
Q 48.6875 17.390625 48.6875 27.296875 
z
" id="DejaVuSans-112"/>
      </defs>
      <use xlink:href="#DejaVuSans-69"/>
      <use x="63.183594" xlink:href="#DejaVuSans-117"/>
      <use x="126.5625" xlink:href="#DejaVuSans-114"/>
      <use x="165.425781" xlink:href="#DejaVuSans-111"/>
      <use x="226.607422" xlink:href="#DejaVuSans-112"/>
      <use x="290.083984" xlink:href="#DejaVuSans-101"/>
     </g>
    </g>
    <g id="line2d_29">
     <path d="M 50.98125 64.64875 
L 66.98125 64.64875 
" style="fill:none;stroke:#d18cad;stroke-linecap:square;stroke-width:2;"/>
    </g>
    <g id="line2d_30"/>
    <g id="text_20">
     <!-- South America -->
     <g transform="translate(73.38125 67.44875)scale(0.08 -0.08)">
      <defs>
       <path d="M 53.515625 70.515625 
L 53.515625 60.890625 
Q 47.90625 63.578125 42.921875 64.890625 
Q 37.9375 66.21875 33.296875 66.21875 
Q 25.25 66.21875 20.875 63.09375 
Q 16.5 59.96875 16.5 54.203125 
Q 16.5 49.359375 19.40625 46.890625 
Q 22.3125 44.4375 30.421875 42.921875 
L 36.375 41.703125 
Q 47.40625 39.59375 52.65625 34.296875 
Q 57.90625 29 57.90625 20.125 
Q 57.90625 9.515625 50.796875 4.046875 
Q 43.703125 -1.421875 29.984375 -1.421875 
Q 24.8125 -1.421875 18.96875 -0.25 
Q 13.140625 0.921875 6.890625 3.21875 
L 6.890625 13.375 
Q 12.890625 10.015625 18.65625 8.296875 
Q 24.421875 6.59375 29.984375 6.59375 
Q 38.421875 6.59375 43.015625 9.90625 
Q 47.609375 13.234375 47.609375 19.390625 
Q 47.609375 24.75 44.3125 27.78125 
Q 41.015625 30.8125 33.5 32.328125 
L 27.484375 33.5 
Q 16.453125 35.6875 11.515625 40.375 
Q 6.59375 45.0625 6.59375 53.421875 
Q 6.59375 63.09375 13.40625 68.65625 
Q 20.21875 74.21875 32.171875 74.21875 
Q 37.3125 74.21875 42.625 73.28125 
Q 47.953125 72.359375 53.515625 70.515625 
z
" id="DejaVuSans-83"/>
       <path d="M 54.890625 33.015625 
L 54.890625 0 
L 45.90625 0 
L 45.90625 32.71875 
Q 45.90625 40.484375 42.875 44.328125 
Q 39.84375 48.1875 33.796875 48.1875 
Q 26.515625 48.1875 22.3125 43.546875 
Q 18.109375 38.921875 18.109375 30.90625 
L 18.109375 0 
L 9.078125 0 
L 9.078125 75.984375 
L 18.109375 75.984375 
L 18.109375 46.1875 
Q 21.34375 51.125 25.703125 53.5625 
Q 30.078125 56 35.796875 56 
Q 45.21875 56 50.046875 50.171875 
Q 54.890625 44.34375 54.890625 33.015625 
z
" id="DejaVuSans-104"/>
      </defs>
      <use xlink:href="#DejaVuSans-83"/>
      <use x="63.476562" xlink:href="#DejaVuSans-111"/>
      <use x="124.658203" xlink:href="#DejaVuSans-117"/>
      <use x="188.037109" xlink:href="#DejaVuSans-116"/>
      <use x="227.246094" xlink:href="#DejaVuSans-104"/>
      <use x="290.625" xlink:href="#DejaVuSans-32"/>
      <use x="322.412109" xlink:href="#DejaVuSans-65"/>
      <use x="390.820312" xlink:href="#DejaVuSans-109"/>
      <use x="488.232422" xlink:href="#DejaVuSans-101"/>
      <use x="549.755859" xlink:href="#DejaVuSans-114"/>
      <use x="590.869141" xlink:href="#DejaVuSans-105"/>
      <use x="618.652344" xlink:href="#DejaVuSans-99"/>
      <use x="673.632812" xlink:href="#DejaVuSans-97"/>
     </g>
    </g>
    <g id="line2d_31">
     <path d="M 50.98125 76.39125 
L 66.98125 76.39125 
" style="fill:none;stroke:#a4a86f;stroke-linecap:square;stroke-width:2;"/>
    </g>
    <g id="line2d_32"/>
    <g id="text_21">
     <!-- North America -->
     <g transform="translate(73.38125 79.19125)scale(0.08 -0.08)">
      <defs>
       <path d="M 9.8125 72.90625 
L 23.09375 72.90625 
L 55.421875 11.921875 
L 55.421875 72.90625 
L 64.984375 72.90625 
L 64.984375 0 
L 51.703125 0 
L 19.390625 60.984375 
L 19.390625 0 
L 9.8125 0 
z
" id="DejaVuSans-78"/>
      </defs>
      <use xlink:href="#DejaVuSans-78"/>
      <use x="74.804688" xlink:href="#DejaVuSans-111"/>
      <use x="135.986328" xlink:href="#DejaVuSans-114"/>
      <use x="177.099609" xlink:href="#DejaVuSans-116"/>
      <use x="216.308594" xlink:href="#DejaVuSans-104"/>
      <use x="279.6875" xlink:href="#DejaVuSans-32"/>
      <use x="311.474609" xlink:href="#DejaVuSans-65"/>
      <use x="379.882812" xlink:href="#DejaVuSans-109"/>
      <use x="477.294922" xlink:href="#DejaVuSans-101"/>
      <use x="538.818359" xlink:href="#DejaVuSans-114"/>
      <use x="579.931641" xlink:href="#DejaVuSans-105"/>
      <use x="607.714844" xlink:href="#DejaVuSans-99"/>
      <use x="662.695312" xlink:href="#DejaVuSans-97"/>
     </g>
    </g>
    <g id="line2d_33">
     <path d="M 50.98125 88.13375 
L 66.98125 88.13375 
" style="fill:none;stroke:#d3d3d3;stroke-linecap:square;stroke-width:2;"/>
    </g>
    <g id="line2d_34"/>
    <g id="text_22">
     <!-- Oceania -->
     <g transform="translate(73.38125 90.93375)scale(0.08 -0.08)">
      <defs>
       <path d="M 39.40625 66.21875 
Q 28.65625 66.21875 22.328125 58.203125 
Q 16.015625 50.203125 16.015625 36.375 
Q 16.015625 22.609375 22.328125 14.59375 
Q 28.65625 6.59375 39.40625 6.59375 
Q 50.140625 6.59375 56.421875 14.59375 
Q 62.703125 22.609375 62.703125 36.375 
Q 62.703125 50.203125 56.421875 58.203125 
Q 50.140625 66.21875 39.40625 66.21875 
z
M 39.40625 74.21875 
Q 54.734375 74.21875 63.90625 63.9375 
Q 73.09375 53.65625 73.09375 36.375 
Q 73.09375 19.140625 63.90625 8.859375 
Q 54.734375 -1.421875 39.40625 -1.421875 
Q 24.03125 -1.421875 14.8125 8.828125 
Q 5.609375 19.09375 5.609375 36.375 
Q 5.609375 53.65625 14.8125 63.9375 
Q 24.03125 74.21875 39.40625 74.21875 
z
" id="DejaVuSans-79"/>
      </defs>
      <use xlink:href="#DejaVuSans-79"/>
      <use x="78.710938" xlink:href="#DejaVuSans-99"/>
      <use x="133.691406" xlink:href="#DejaVuSans-101"/>
      <use x="195.214844" xlink:href="#DejaVuSans-97"/>
      <use x="256.494141" xlink:href="#DejaVuSans-110"/>
      <use x="319.873047" xlink:href="#DejaVuSans-105"/>
      <use x="347.65625" xlink:href="#DejaVuSans-97"/>
     </g>
    </g>
   </g>
  </g>
 </g>
 <defs>
  <clipPath id="p5c7cf5ec58">
   <rect height="221.76" width="948.6" x="43.78125" y="7.2"/>
  </clipPath>
 </defs>
</svg>
