<?xml version="1.0" encoding="utf-8" standalone="no"?>
<!DOCTYPE svg PUBLIC "-//W3C//DTD SVG 1.1//EN"
  "http://www.w3.org/Graphics/SVG/1.1/DTD/svg11.dtd">
<!-- Created with matplotlib (https://matplotlib.org/) -->
<svg height="298.620937pt" version="1.1" viewBox="0 0 999.58125 298.620937" width="999.58125pt" xmlns="http://www.w3.org/2000/svg" xmlns:xlink="http://www.w3.org/1999/xlink">
 <metadata>
  <rdf:RDF xmlns:cc="http://creativecommons.org/ns#" xmlns:dc="http://purl.org/dc/elements/1.1/" xmlns:rdf="http://www.w3.org/1999/02/22-rdf-syntax-ns#">
   <cc:Work>
    <dc:type rdf:resource="http://purl.org/dc/dcmitype/StillImage"/>
    <dc:date>2021-05-02T02:19:10.370604</dc:date>
    <dc:format>image/svg+xml</dc:format>
    <dc:creator>
     <cc:Agent>
      <dc:title>Matplotlib v3.3.3, https://matplotlib.org/</dc:title>
     </cc:Agent>
    </dc:creator>
   </cc:Work>
  </rdf:RDF>
 </metadata>
 <defs>
  <style type="text/css">*{stroke-linecap:butt;stroke-linejoin:round;}</style>
 </defs>
 <g id="figure_1">
  <g id="patch_1">
   <path d="M 0 298.620937 
L 999.58125 298.620937 
L 999.58125 0 
L 0 0 
z
" style="fill:#ffffff;"/>
  </g>
  <g id="axes_1">
   <g id="patch_2">
    <path d="M 43.78125 228.96 
L 992.38125 228.96 
L 992.38125 7.2 
L 43.78125 7.2 
z
" style="fill:#ffffff;"/>
   </g>
   <g id="matplotlib.axis_1">
    <g id="xtick_1">
     <g id="line2d_1">
      <defs>
       <path d="M 0 0 
L 0 3.5 
" id="m3593bd03a2" style="stroke:#000000;stroke-width:0.8;"/>
      </defs>
      <g>
       <use style="stroke:#000000;stroke-width:0.8;" x="114.846402" xlink:href="#m3593bd03a2" y="228.96"/>
      </g>
     </g>
     <g id="text_1">
      <!-- 2020-10 -->
      <g transform="translate(117.605777 277.742812)rotate(-90)scale(0.1 -0.1)">
       <defs>
        <path d="M 19.1875 8.296875 
L 53.609375 8.296875 
L 53.609375 0 
L 7.328125 0 
L 7.328125 8.296875 
Q 12.9375 14.109375 22.625 23.890625 
Q 32.328125 33.6875 34.8125 36.53125 
Q 39.546875 41.84375 41.421875 45.53125 
Q 43.3125 49.21875 43.3125 52.78125 
Q 43.3125 58.59375 39.234375 62.25 
Q 35.15625 65.921875 28.609375 65.921875 
Q 23.96875 65.921875 18.8125 64.3125 
Q 13.671875 62.703125 7.8125 59.421875 
L 7.8125 69.390625 
Q 13.765625 71.78125 18.9375 73 
Q 24.125 74.21875 28.421875 74.21875 
Q 39.75 74.21875 46.484375 68.546875 
Q 53.21875 62.890625 53.21875 53.421875 
Q 53.21875 48.921875 51.53125 44.890625 
Q 49.859375 40.875 45.40625 35.40625 
Q 44.1875 33.984375 37.640625 27.21875 
Q 31.109375 20.453125 19.1875 8.296875 
z
" id="DejaVuSans-50"/>
        <path d="M 31.78125 66.40625 
Q 24.171875 66.40625 20.328125 58.90625 
Q 16.5 51.421875 16.5 36.375 
Q 16.5 21.390625 20.328125 13.890625 
Q 24.171875 6.390625 31.78125 6.390625 
Q 39.453125 6.390625 43.28125 13.890625 
Q 47.125 21.390625 47.125 36.375 
Q 47.125 51.421875 43.28125 58.90625 
Q 39.453125 66.40625 31.78125 66.40625 
z
M 31.78125 74.21875 
Q 44.046875 74.21875 50.515625 64.515625 
Q 56.984375 54.828125 56.984375 36.375 
Q 56.984375 17.96875 50.515625 8.265625 
Q 44.046875 -1.421875 31.78125 -1.421875 
Q 19.53125 -1.421875 13.0625 8.265625 
Q 6.59375 17.96875 6.59375 36.375 
Q 6.59375 54.828125 13.0625 64.515625 
Q 19.53125 74.21875 31.78125 74.21875 
z
" id="DejaVuSans-48"/>
        <path d="M 4.890625 31.390625 
L 31.203125 31.390625 
L 31.203125 23.390625 
L 4.890625 23.390625 
z
" id="DejaVuSans-45"/>
        <path d="M 12.40625 8.296875 
L 28.515625 8.296875 
L 28.515625 63.921875 
L 10.984375 60.40625 
L 10.984375 69.390625 
L 28.421875 72.90625 
L 38.28125 72.90625 
L 38.28125 8.296875 
L 54.390625 8.296875 
L 54.390625 0 
L 12.40625 0 
z
" id="DejaVuSans-49"/>
       </defs>
       <use xlink:href="#DejaVuSans-50"/>
       <use x="63.623047" xlink:href="#DejaVuSans-48"/>
       <use x="127.246094" xlink:href="#DejaVuSans-50"/>
       <use x="190.869141" xlink:href="#DejaVuSans-48"/>
       <use x="254.492188" xlink:href="#DejaVuSans-45"/>
       <use x="290.576172" xlink:href="#DejaVuSans-49"/>
       <use x="354.199219" xlink:href="#DejaVuSans-48"/>
      </g>
     </g>
    </g>
    <g id="xtick_2">
     <g id="line2d_2">
      <g>
       <use style="stroke:#000000;stroke-width:0.8;" x="238.611553" xlink:href="#m3593bd03a2" y="228.96"/>
      </g>
     </g>
     <g id="text_2">
      <!-- 2020-11 -->
      <g transform="translate(241.370928 277.742812)rotate(-90)scale(0.1 -0.1)">
       <use xlink:href="#DejaVuSans-50"/>
       <use x="63.623047" xlink:href="#DejaVuSans-48"/>
       <use x="127.246094" xlink:href="#DejaVuSans-50"/>
       <use x="190.869141" xlink:href="#DejaVuSans-48"/>
       <use x="254.492188" xlink:href="#DejaVuSans-45"/>
       <use x="290.576172" xlink:href="#DejaVuSans-49"/>
       <use x="354.199219" xlink:href="#DejaVuSans-49"/>
      </g>
     </g>
    </g>
    <g id="xtick_3">
     <g id="line2d_3">
      <g>
       <use style="stroke:#000000;stroke-width:0.8;" x="358.38428" xlink:href="#m3593bd03a2" y="228.96"/>
      </g>
     </g>
     <g id="text_3">
      <!-- 2020-12 -->
      <g transform="translate(361.143655 277.742812)rotate(-90)scale(0.1 -0.1)">
       <use xlink:href="#DejaVuSans-50"/>
       <use x="63.623047" xlink:href="#DejaVuSans-48"/>
       <use x="127.246094" xlink:href="#DejaVuSans-50"/>
       <use x="190.869141" xlink:href="#DejaVuSans-48"/>
       <use x="254.492188" xlink:href="#DejaVuSans-45"/>
       <use x="290.576172" xlink:href="#DejaVuSans-49"/>
       <use x="354.199219" xlink:href="#DejaVuSans-50"/>
      </g>
     </g>
    </g>
    <g id="xtick_4">
     <g id="line2d_4">
      <g>
       <use style="stroke:#000000;stroke-width:0.8;" x="482.149432" xlink:href="#m3593bd03a2" y="228.96"/>
      </g>
     </g>
     <g id="text_4">
      <!-- 2021-01 -->
      <g transform="translate(484.908807 277.742812)rotate(-90)scale(0.1 -0.1)">
       <use xlink:href="#DejaVuSans-50"/>
       <use x="63.623047" xlink:href="#DejaVuSans-48"/>
       <use x="127.246094" xlink:href="#DejaVuSans-50"/>
       <use x="190.869141" xlink:href="#DejaVuSans-49"/>
       <use x="254.492188" xlink:href="#DejaVuSans-45"/>
       <use x="290.576172" xlink:href="#DejaVuSans-48"/>
       <use x="354.199219" xlink:href="#DejaVuSans-49"/>
      </g>
     </g>
    </g>
    <g id="xtick_5">
     <g id="line2d_5">
      <g>
       <use style="stroke:#000000;stroke-width:0.8;" x="605.914583" xlink:href="#m3593bd03a2" y="228.96"/>
      </g>
     </g>
     <g id="text_5">
      <!-- 2021-02 -->
      <g transform="translate(608.673958 277.742812)rotate(-90)scale(0.1 -0.1)">
       <use xlink:href="#DejaVuSans-50"/>
       <use x="63.623047" xlink:href="#DejaVuSans-48"/>
       <use x="127.246094" xlink:href="#DejaVuSans-50"/>
       <use x="190.869141" xlink:href="#DejaVuSans-49"/>
       <use x="254.492188" xlink:href="#DejaVuSans-45"/>
       <use x="290.576172" xlink:href="#DejaVuSans-48"/>
       <use x="354.199219" xlink:href="#DejaVuSans-50"/>
      </g>
     </g>
    </g>
    <g id="xtick_6">
     <g id="line2d_6">
      <g>
       <use style="stroke:#000000;stroke-width:0.8;" x="717.702462" xlink:href="#m3593bd03a2" y="228.96"/>
      </g>
     </g>
     <g id="text_6">
      <!-- 2021-03 -->
      <g transform="translate(720.461837 277.742812)rotate(-90)scale(0.1 -0.1)">
       <defs>
        <path d="M 40.578125 39.3125 
Q 47.65625 37.796875 51.625 33 
Q 55.609375 28.21875 55.609375 21.1875 
Q 55.609375 10.40625 48.1875 4.484375 
Q 40.765625 -1.421875 27.09375 -1.421875 
Q 22.515625 -1.421875 17.65625 -0.515625 
Q 12.796875 0.390625 7.625 2.203125 
L 7.625 11.71875 
Q 11.71875 9.328125 16.59375 8.109375 
Q 21.484375 6.890625 26.8125 6.890625 
Q 36.078125 6.890625 40.9375 10.546875 
Q 45.796875 14.203125 45.796875 21.1875 
Q 45.796875 27.640625 41.28125 31.265625 
Q 36.765625 34.90625 28.71875 34.90625 
L 20.21875 34.90625 
L 20.21875 43.015625 
L 29.109375 43.015625 
Q 36.375 43.015625 40.234375 45.921875 
Q 44.09375 48.828125 44.09375 54.296875 
Q 44.09375 59.90625 40.109375 62.90625 
Q 36.140625 65.921875 28.71875 65.921875 
Q 24.65625 65.921875 20.015625 65.03125 
Q 15.375 64.15625 9.8125 62.3125 
L 9.8125 71.09375 
Q 15.4375 72.65625 20.34375 73.4375 
Q 25.25 74.21875 29.59375 74.21875 
Q 40.828125 74.21875 47.359375 69.109375 
Q 53.90625 64.015625 53.90625 55.328125 
Q 53.90625 49.265625 50.4375 45.09375 
Q 46.96875 40.921875 40.578125 39.3125 
z
" id="DejaVuSans-51"/>
       </defs>
       <use xlink:href="#DejaVuSans-50"/>
       <use x="63.623047" xlink:href="#DejaVuSans-48"/>
       <use x="127.246094" xlink:href="#DejaVuSans-50"/>
       <use x="190.869141" xlink:href="#DejaVuSans-49"/>
       <use x="254.492188" xlink:href="#DejaVuSans-45"/>
       <use x="290.576172" xlink:href="#DejaVuSans-48"/>
       <use x="354.199219" xlink:href="#DejaVuSans-51"/>
      </g>
     </g>
    </g>
    <g id="xtick_7">
     <g id="line2d_7">
      <g>
       <use style="stroke:#000000;stroke-width:0.8;" x="841.467614" xlink:href="#m3593bd03a2" y="228.96"/>
      </g>
     </g>
     <g id="text_7">
      <!-- 2021-04 -->
      <g transform="translate(844.226989 277.742812)rotate(-90)scale(0.1 -0.1)">
       <defs>
        <path d="M 37.796875 64.3125 
L 12.890625 25.390625 
L 37.796875 25.390625 
z
M 35.203125 72.90625 
L 47.609375 72.90625 
L 47.609375 25.390625 
L 58.015625 25.390625 
L 58.015625 17.1875 
L 47.609375 17.1875 
L 47.609375 0 
L 37.796875 0 
L 37.796875 17.1875 
L 4.890625 17.1875 
L 4.890625 26.703125 
z
" id="DejaVuSans-52"/>
       </defs>
       <use xlink:href="#DejaVuSans-50"/>
       <use x="63.623047" xlink:href="#DejaVuSans-48"/>
       <use x="127.246094" xlink:href="#DejaVuSans-50"/>
       <use x="190.869141" xlink:href="#DejaVuSans-49"/>
       <use x="254.492188" xlink:href="#DejaVuSans-45"/>
       <use x="290.576172" xlink:href="#DejaVuSans-48"/>
       <use x="354.199219" xlink:href="#DejaVuSans-52"/>
      </g>
     </g>
    </g>
    <g id="xtick_8">
     <g id="line2d_8">
      <g>
       <use style="stroke:#000000;stroke-width:0.8;" x="961.240341" xlink:href="#m3593bd03a2" y="228.96"/>
      </g>
     </g>
     <g id="text_8">
      <!-- 2021-05 -->
      <g transform="translate(963.999716 277.742812)rotate(-90)scale(0.1 -0.1)">
       <defs>
        <path d="M 10.796875 72.90625 
L 49.515625 72.90625 
L 49.515625 64.59375 
L 19.828125 64.59375 
L 19.828125 46.734375 
Q 21.96875 47.46875 24.109375 47.828125 
Q 26.265625 48.1875 28.421875 48.1875 
Q 40.625 48.1875 47.75 41.5 
Q 54.890625 34.8125 54.890625 23.390625 
Q 54.890625 11.625 47.5625 5.09375 
Q 40.234375 -1.421875 26.90625 -1.421875 
Q 22.3125 -1.421875 17.546875 -0.640625 
Q 12.796875 0.140625 7.71875 1.703125 
L 7.71875 11.625 
Q 12.109375 9.234375 16.796875 8.0625 
Q 21.484375 6.890625 26.703125 6.890625 
Q 35.15625 6.890625 40.078125 11.328125 
Q 45.015625 15.765625 45.015625 23.390625 
Q 45.015625 31 40.078125 35.4375 
Q 35.15625 39.890625 26.703125 39.890625 
Q 22.75 39.890625 18.8125 39.015625 
Q 14.890625 38.140625 10.796875 36.28125 
z
" id="DejaVuSans-53"/>
       </defs>
       <use xlink:href="#DejaVuSans-50"/>
       <use x="63.623047" xlink:href="#DejaVuSans-48"/>
       <use x="127.246094" xlink:href="#DejaVuSans-50"/>
       <use x="190.869141" xlink:href="#DejaVuSans-49"/>
       <use x="254.492188" xlink:href="#DejaVuSans-45"/>
       <use x="290.576172" xlink:href="#DejaVuSans-48"/>
       <use x="354.199219" xlink:href="#DejaVuSans-53"/>
      </g>
     </g>
    </g>
    <g id="text_9">
     <!-- Date -->
     <g transform="translate(506.130469 289.34125)scale(0.1 -0.1)">
      <defs>
       <path d="M 19.671875 64.796875 
L 19.671875 8.109375 
L 31.59375 8.109375 
Q 46.6875 8.109375 53.6875 14.9375 
Q 60.6875 21.78125 60.6875 36.53125 
Q 60.6875 51.171875 53.6875 57.984375 
Q 46.6875 64.796875 31.59375 64.796875 
z
M 9.8125 72.90625 
L 30.078125 72.90625 
Q 51.265625 72.90625 61.171875 64.09375 
Q 71.09375 55.28125 71.09375 36.53125 
Q 71.09375 17.671875 61.125 8.828125 
Q 51.171875 0 30.078125 0 
L 9.8125 0 
z
" id="DejaVuSans-68"/>
       <path d="M 34.28125 27.484375 
Q 23.390625 27.484375 19.1875 25 
Q 14.984375 22.515625 14.984375 16.5 
Q 14.984375 11.71875 18.140625 8.90625 
Q 21.296875 6.109375 26.703125 6.109375 
Q 34.1875 6.109375 38.703125 11.40625 
Q 43.21875 16.703125 43.21875 25.484375 
L 43.21875 27.484375 
z
M 52.203125 31.203125 
L 52.203125 0 
L 43.21875 0 
L 43.21875 8.296875 
Q 40.140625 3.328125 35.546875 0.953125 
Q 30.953125 -1.421875 24.3125 -1.421875 
Q 15.921875 -1.421875 10.953125 3.296875 
Q 6 8.015625 6 15.921875 
Q 6 25.140625 12.171875 29.828125 
Q 18.359375 34.515625 30.609375 34.515625 
L 43.21875 34.515625 
L 43.21875 35.40625 
Q 43.21875 41.609375 39.140625 45 
Q 35.0625 48.390625 27.6875 48.390625 
Q 23 48.390625 18.546875 47.265625 
Q 14.109375 46.140625 10.015625 43.890625 
L 10.015625 52.203125 
Q 14.9375 54.109375 19.578125 55.046875 
Q 24.21875 56 28.609375 56 
Q 40.484375 56 46.34375 49.84375 
Q 52.203125 43.703125 52.203125 31.203125 
z
" id="DejaVuSans-97"/>
       <path d="M 18.3125 70.21875 
L 18.3125 54.6875 
L 36.8125 54.6875 
L 36.8125 47.703125 
L 18.3125 47.703125 
L 18.3125 18.015625 
Q 18.3125 11.328125 20.140625 9.421875 
Q 21.96875 7.515625 27.59375 7.515625 
L 36.8125 7.515625 
L 36.8125 0 
L 27.59375 0 
Q 17.1875 0 13.234375 3.875 
Q 9.28125 7.765625 9.28125 18.015625 
L 9.28125 47.703125 
L 2.6875 47.703125 
L 2.6875 54.6875 
L 9.28125 54.6875 
L 9.28125 70.21875 
z
" id="DejaVuSans-116"/>
       <path d="M 56.203125 29.59375 
L 56.203125 25.203125 
L 14.890625 25.203125 
Q 15.484375 15.921875 20.484375 11.0625 
Q 25.484375 6.203125 34.421875 6.203125 
Q 39.59375 6.203125 44.453125 7.46875 
Q 49.3125 8.734375 54.109375 11.28125 
L 54.109375 2.78125 
Q 49.265625 0.734375 44.1875 -0.34375 
Q 39.109375 -1.421875 33.890625 -1.421875 
Q 20.796875 -1.421875 13.15625 6.1875 
Q 5.515625 13.8125 5.515625 26.8125 
Q 5.515625 40.234375 12.765625 48.109375 
Q 20.015625 56 32.328125 56 
Q 43.359375 56 49.78125 48.890625 
Q 56.203125 41.796875 56.203125 29.59375 
z
M 47.21875 32.234375 
Q 47.125 39.59375 43.09375 43.984375 
Q 39.0625 48.390625 32.421875 48.390625 
Q 24.90625 48.390625 20.390625 44.140625 
Q 15.875 39.890625 15.1875 32.171875 
z
" id="DejaVuSans-101"/>
      </defs>
      <use xlink:href="#DejaVuSans-68"/>
      <use x="77.001953" xlink:href="#DejaVuSans-97"/>
      <use x="138.28125" xlink:href="#DejaVuSans-116"/>
      <use x="177.490234" xlink:href="#DejaVuSans-101"/>
     </g>
    </g>
   </g>
   <g id="matplotlib.axis_2">
    <g id="ytick_1">
     <g id="line2d_9">
      <defs>
       <path d="M 0 0 
L -3.5 0 
" id="m635f07e431" style="stroke:#000000;stroke-width:0.8;"/>
      </defs>
      <g>
       <use style="stroke:#000000;stroke-width:0.8;" x="43.78125" xlink:href="#m635f07e431" y="228.96"/>
      </g>
     </g>
     <g id="text_10">
      <!-- 0.0 -->
      <g transform="translate(20.878125 232.759219)scale(0.1 -0.1)">
       <defs>
        <path d="M 10.6875 12.40625 
L 21 12.40625 
L 21 0 
L 10.6875 0 
z
" id="DejaVuSans-46"/>
       </defs>
       <use xlink:href="#DejaVuSans-48"/>
       <use x="63.623047" xlink:href="#DejaVuSans-46"/>
       <use x="95.410156" xlink:href="#DejaVuSans-48"/>
      </g>
     </g>
    </g>
    <g id="ytick_2">
     <g id="line2d_10">
      <g>
       <use style="stroke:#000000;stroke-width:0.8;" x="43.78125" xlink:href="#m635f07e431" y="186.257337"/>
      </g>
     </g>
     <g id="text_11">
      <!-- 0.2 -->
      <g transform="translate(20.878125 190.056555)scale(0.1 -0.1)">
       <use xlink:href="#DejaVuSans-48"/>
       <use x="63.623047" xlink:href="#DejaVuSans-46"/>
       <use x="95.410156" xlink:href="#DejaVuSans-50"/>
      </g>
     </g>
    </g>
    <g id="ytick_3">
     <g id="line2d_11">
      <g>
       <use style="stroke:#000000;stroke-width:0.8;" x="43.78125" xlink:href="#m635f07e431" y="143.554673"/>
      </g>
     </g>
     <g id="text_12">
      <!-- 0.4 -->
      <g transform="translate(20.878125 147.353892)scale(0.1 -0.1)">
       <use xlink:href="#DejaVuSans-48"/>
       <use x="63.623047" xlink:href="#DejaVuSans-46"/>
       <use x="95.410156" xlink:href="#DejaVuSans-52"/>
      </g>
     </g>
    </g>
    <g id="ytick_4">
     <g id="line2d_12">
      <g>
       <use style="stroke:#000000;stroke-width:0.8;" x="43.78125" xlink:href="#m635f07e431" y="100.85201"/>
      </g>
     </g>
     <g id="text_13">
      <!-- 0.6 -->
      <g transform="translate(20.878125 104.651229)scale(0.1 -0.1)">
       <defs>
        <path d="M 33.015625 40.375 
Q 26.375 40.375 22.484375 35.828125 
Q 18.609375 31.296875 18.609375 23.390625 
Q 18.609375 15.53125 22.484375 10.953125 
Q 26.375 6.390625 33.015625 6.390625 
Q 39.65625 6.390625 43.53125 10.953125 
Q 47.40625 15.53125 47.40625 23.390625 
Q 47.40625 31.296875 43.53125 35.828125 
Q 39.65625 40.375 33.015625 40.375 
z
M 52.59375 71.296875 
L 52.59375 62.3125 
Q 48.875 64.0625 45.09375 64.984375 
Q 41.3125 65.921875 37.59375 65.921875 
Q 27.828125 65.921875 22.671875 59.328125 
Q 17.53125 52.734375 16.796875 39.40625 
Q 19.671875 43.65625 24.015625 45.921875 
Q 28.375 48.1875 33.59375 48.1875 
Q 44.578125 48.1875 50.953125 41.515625 
Q 57.328125 34.859375 57.328125 23.390625 
Q 57.328125 12.15625 50.6875 5.359375 
Q 44.046875 -1.421875 33.015625 -1.421875 
Q 20.359375 -1.421875 13.671875 8.265625 
Q 6.984375 17.96875 6.984375 36.375 
Q 6.984375 53.65625 15.1875 63.9375 
Q 23.390625 74.21875 37.203125 74.21875 
Q 40.921875 74.21875 44.703125 73.484375 
Q 48.484375 72.75 52.59375 71.296875 
z
" id="DejaVuSans-54"/>
       </defs>
       <use xlink:href="#DejaVuSans-48"/>
       <use x="63.623047" xlink:href="#DejaVuSans-46"/>
       <use x="95.410156" xlink:href="#DejaVuSans-54"/>
      </g>
     </g>
    </g>
    <g id="ytick_5">
     <g id="line2d_13">
      <g>
       <use style="stroke:#000000;stroke-width:0.8;" x="43.78125" xlink:href="#m635f07e431" y="58.149347"/>
      </g>
     </g>
     <g id="text_14">
      <!-- 0.8 -->
      <g transform="translate(20.878125 61.948565)scale(0.1 -0.1)">
       <defs>
        <path d="M 31.78125 34.625 
Q 24.75 34.625 20.71875 30.859375 
Q 16.703125 27.09375 16.703125 20.515625 
Q 16.703125 13.921875 20.71875 10.15625 
Q 24.75 6.390625 31.78125 6.390625 
Q 38.8125 6.390625 42.859375 10.171875 
Q 46.921875 13.96875 46.921875 20.515625 
Q 46.921875 27.09375 42.890625 30.859375 
Q 38.875 34.625 31.78125 34.625 
z
M 21.921875 38.8125 
Q 15.578125 40.375 12.03125 44.71875 
Q 8.5 49.078125 8.5 55.328125 
Q 8.5 64.0625 14.71875 69.140625 
Q 20.953125 74.21875 31.78125 74.21875 
Q 42.671875 74.21875 48.875 69.140625 
Q 55.078125 64.0625 55.078125 55.328125 
Q 55.078125 49.078125 51.53125 44.71875 
Q 48 40.375 41.703125 38.8125 
Q 48.828125 37.15625 52.796875 32.3125 
Q 56.78125 27.484375 56.78125 20.515625 
Q 56.78125 9.90625 50.3125 4.234375 
Q 43.84375 -1.421875 31.78125 -1.421875 
Q 19.734375 -1.421875 13.25 4.234375 
Q 6.78125 9.90625 6.78125 20.515625 
Q 6.78125 27.484375 10.78125 32.3125 
Q 14.796875 37.15625 21.921875 38.8125 
z
M 18.3125 54.390625 
Q 18.3125 48.734375 21.84375 45.5625 
Q 25.390625 42.390625 31.78125 42.390625 
Q 38.140625 42.390625 41.71875 45.5625 
Q 45.3125 48.734375 45.3125 54.390625 
Q 45.3125 60.0625 41.71875 63.234375 
Q 38.140625 66.40625 31.78125 66.40625 
Q 25.390625 66.40625 21.84375 63.234375 
Q 18.3125 60.0625 18.3125 54.390625 
z
" id="DejaVuSans-56"/>
       </defs>
       <use xlink:href="#DejaVuSans-48"/>
       <use x="63.623047" xlink:href="#DejaVuSans-46"/>
       <use x="95.410156" xlink:href="#DejaVuSans-56"/>
      </g>
     </g>
    </g>
    <g id="ytick_6">
     <g id="line2d_14">
      <g>
       <use style="stroke:#000000;stroke-width:0.8;" x="43.78125" xlink:href="#m635f07e431" y="15.446683"/>
      </g>
     </g>
     <g id="text_15">
      <!-- 1.0 -->
      <g transform="translate(20.878125 19.245902)scale(0.1 -0.1)">
       <use xlink:href="#DejaVuSans-49"/>
       <use x="63.623047" xlink:href="#DejaVuSans-46"/>
       <use x="95.410156" xlink:href="#DejaVuSans-48"/>
      </g>
     </g>
    </g>
    <g id="text_16">
     <!-- Frequency (7 day rolling average) -->
     <g transform="translate(14.798437 202.529219)rotate(-90)scale(0.1 -0.1)">
      <defs>
       <path d="M 9.8125 72.90625 
L 51.703125 72.90625 
L 51.703125 64.59375 
L 19.671875 64.59375 
L 19.671875 43.109375 
L 48.578125 43.109375 
L 48.578125 34.8125 
L 19.671875 34.8125 
L 19.671875 0 
L 9.8125 0 
z
" id="DejaVuSans-70"/>
       <path d="M 41.109375 46.296875 
Q 39.59375 47.171875 37.8125 47.578125 
Q 36.03125 48 33.890625 48 
Q 26.265625 48 22.1875 43.046875 
Q 18.109375 38.09375 18.109375 28.8125 
L 18.109375 0 
L 9.078125 0 
L 9.078125 54.6875 
L 18.109375 54.6875 
L 18.109375 46.1875 
Q 20.953125 51.171875 25.484375 53.578125 
Q 30.03125 56 36.53125 56 
Q 37.453125 56 38.578125 55.875 
Q 39.703125 55.765625 41.0625 55.515625 
z
" id="DejaVuSans-114"/>
       <path d="M 14.796875 27.296875 
Q 14.796875 17.390625 18.875 11.75 
Q 22.953125 6.109375 30.078125 6.109375 
Q 37.203125 6.109375 41.296875 11.75 
Q 45.40625 17.390625 45.40625 27.296875 
Q 45.40625 37.203125 41.296875 42.84375 
Q 37.203125 48.484375 30.078125 48.484375 
Q 22.953125 48.484375 18.875 42.84375 
Q 14.796875 37.203125 14.796875 27.296875 
z
M 45.40625 8.203125 
Q 42.578125 3.328125 38.25 0.953125 
Q 33.9375 -1.421875 27.875 -1.421875 
Q 17.96875 -1.421875 11.734375 6.484375 
Q 5.515625 14.40625 5.515625 27.296875 
Q 5.515625 40.1875 11.734375 48.09375 
Q 17.96875 56 27.875 56 
Q 33.9375 56 38.25 53.625 
Q 42.578125 51.265625 45.40625 46.390625 
L 45.40625 54.6875 
L 54.390625 54.6875 
L 54.390625 -20.796875 
L 45.40625 -20.796875 
z
" id="DejaVuSans-113"/>
       <path d="M 8.5 21.578125 
L 8.5 54.6875 
L 17.484375 54.6875 
L 17.484375 21.921875 
Q 17.484375 14.15625 20.5 10.265625 
Q 23.53125 6.390625 29.59375 6.390625 
Q 36.859375 6.390625 41.078125 11.03125 
Q 45.3125 15.671875 45.3125 23.6875 
L 45.3125 54.6875 
L 54.296875 54.6875 
L 54.296875 0 
L 45.3125 0 
L 45.3125 8.40625 
Q 42.046875 3.421875 37.71875 1 
Q 33.40625 -1.421875 27.6875 -1.421875 
Q 18.265625 -1.421875 13.375 4.4375 
Q 8.5 10.296875 8.5 21.578125 
z
M 31.109375 56 
z
" id="DejaVuSans-117"/>
       <path d="M 54.890625 33.015625 
L 54.890625 0 
L 45.90625 0 
L 45.90625 32.71875 
Q 45.90625 40.484375 42.875 44.328125 
Q 39.84375 48.1875 33.796875 48.1875 
Q 26.515625 48.1875 22.3125 43.546875 
Q 18.109375 38.921875 18.109375 30.90625 
L 18.109375 0 
L 9.078125 0 
L 9.078125 54.6875 
L 18.109375 54.6875 
L 18.109375 46.1875 
Q 21.34375 51.125 25.703125 53.5625 
Q 30.078125 56 35.796875 56 
Q 45.21875 56 50.046875 50.171875 
Q 54.890625 44.34375 54.890625 33.015625 
z
" id="DejaVuSans-110"/>
       <path d="M 48.78125 52.59375 
L 48.78125 44.1875 
Q 44.96875 46.296875 41.140625 47.34375 
Q 37.3125 48.390625 33.40625 48.390625 
Q 24.65625 48.390625 19.8125 42.84375 
Q 14.984375 37.3125 14.984375 27.296875 
Q 14.984375 17.28125 19.8125 11.734375 
Q 24.65625 6.203125 33.40625 6.203125 
Q 37.3125 6.203125 41.140625 7.25 
Q 44.96875 8.296875 48.78125 10.40625 
L 48.78125 2.09375 
Q 45.015625 0.34375 40.984375 -0.53125 
Q 36.96875 -1.421875 32.421875 -1.421875 
Q 20.0625 -1.421875 12.78125 6.34375 
Q 5.515625 14.109375 5.515625 27.296875 
Q 5.515625 40.671875 12.859375 48.328125 
Q 20.21875 56 33.015625 56 
Q 37.15625 56 41.109375 55.140625 
Q 45.0625 54.296875 48.78125 52.59375 
z
" id="DejaVuSans-99"/>
       <path d="M 32.171875 -5.078125 
Q 28.375 -14.84375 24.75 -17.8125 
Q 21.140625 -20.796875 15.09375 -20.796875 
L 7.90625 -20.796875 
L 7.90625 -13.28125 
L 13.1875 -13.28125 
Q 16.890625 -13.28125 18.9375 -11.515625 
Q 21 -9.765625 23.484375 -3.21875 
L 25.09375 0.875 
L 2.984375 54.6875 
L 12.5 54.6875 
L 29.59375 11.921875 
L 46.6875 54.6875 
L 56.203125 54.6875 
z
" id="DejaVuSans-121"/>
       <path id="DejaVuSans-32"/>
       <path d="M 31 75.875 
Q 24.46875 64.65625 21.28125 53.65625 
Q 18.109375 42.671875 18.109375 31.390625 
Q 18.109375 20.125 21.3125 9.0625 
Q 24.515625 -2 31 -13.1875 
L 23.1875 -13.1875 
Q 15.875 -1.703125 12.234375 9.375 
Q 8.59375 20.453125 8.59375 31.390625 
Q 8.59375 42.28125 12.203125 53.3125 
Q 15.828125 64.359375 23.1875 75.875 
z
" id="DejaVuSans-40"/>
       <path d="M 8.203125 72.90625 
L 55.078125 72.90625 
L 55.078125 68.703125 
L 28.609375 0 
L 18.3125 0 
L 43.21875 64.59375 
L 8.203125 64.59375 
z
" id="DejaVuSans-55"/>
       <path d="M 45.40625 46.390625 
L 45.40625 75.984375 
L 54.390625 75.984375 
L 54.390625 0 
L 45.40625 0 
L 45.40625 8.203125 
Q 42.578125 3.328125 38.25 0.953125 
Q 33.9375 -1.421875 27.875 -1.421875 
Q 17.96875 -1.421875 11.734375 6.484375 
Q 5.515625 14.40625 5.515625 27.296875 
Q 5.515625 40.1875 11.734375 48.09375 
Q 17.96875 56 27.875 56 
Q 33.9375 56 38.25 53.625 
Q 42.578125 51.265625 45.40625 46.390625 
z
M 14.796875 27.296875 
Q 14.796875 17.390625 18.875 11.75 
Q 22.953125 6.109375 30.078125 6.109375 
Q 37.203125 6.109375 41.296875 11.75 
Q 45.40625 17.390625 45.40625 27.296875 
Q 45.40625 37.203125 41.296875 42.84375 
Q 37.203125 48.484375 30.078125 48.484375 
Q 22.953125 48.484375 18.875 42.84375 
Q 14.796875 37.203125 14.796875 27.296875 
z
" id="DejaVuSans-100"/>
       <path d="M 30.609375 48.390625 
Q 23.390625 48.390625 19.1875 42.75 
Q 14.984375 37.109375 14.984375 27.296875 
Q 14.984375 17.484375 19.15625 11.84375 
Q 23.34375 6.203125 30.609375 6.203125 
Q 37.796875 6.203125 41.984375 11.859375 
Q 46.1875 17.53125 46.1875 27.296875 
Q 46.1875 37.015625 41.984375 42.703125 
Q 37.796875 48.390625 30.609375 48.390625 
z
M 30.609375 56 
Q 42.328125 56 49.015625 48.375 
Q 55.71875 40.765625 55.71875 27.296875 
Q 55.71875 13.875 49.015625 6.21875 
Q 42.328125 -1.421875 30.609375 -1.421875 
Q 18.84375 -1.421875 12.171875 6.21875 
Q 5.515625 13.875 5.515625 27.296875 
Q 5.515625 40.765625 12.171875 48.375 
Q 18.84375 56 30.609375 56 
z
" id="DejaVuSans-111"/>
       <path d="M 9.421875 75.984375 
L 18.40625 75.984375 
L 18.40625 0 
L 9.421875 0 
z
" id="DejaVuSans-108"/>
       <path d="M 9.421875 54.6875 
L 18.40625 54.6875 
L 18.40625 0 
L 9.421875 0 
z
M 9.421875 75.984375 
L 18.40625 75.984375 
L 18.40625 64.59375 
L 9.421875 64.59375 
z
" id="DejaVuSans-105"/>
       <path d="M 45.40625 27.984375 
Q 45.40625 37.75 41.375 43.109375 
Q 37.359375 48.484375 30.078125 48.484375 
Q 22.859375 48.484375 18.828125 43.109375 
Q 14.796875 37.75 14.796875 27.984375 
Q 14.796875 18.265625 18.828125 12.890625 
Q 22.859375 7.515625 30.078125 7.515625 
Q 37.359375 7.515625 41.375 12.890625 
Q 45.40625 18.265625 45.40625 27.984375 
z
M 54.390625 6.78125 
Q 54.390625 -7.171875 48.1875 -13.984375 
Q 42 -20.796875 29.203125 -20.796875 
Q 24.46875 -20.796875 20.265625 -20.09375 
Q 16.0625 -19.390625 12.109375 -17.921875 
L 12.109375 -9.1875 
Q 16.0625 -11.328125 19.921875 -12.34375 
Q 23.78125 -13.375 27.78125 -13.375 
Q 36.625 -13.375 41.015625 -8.765625 
Q 45.40625 -4.15625 45.40625 5.171875 
L 45.40625 9.625 
Q 42.625 4.78125 38.28125 2.390625 
Q 33.9375 0 27.875 0 
Q 17.828125 0 11.671875 7.65625 
Q 5.515625 15.328125 5.515625 27.984375 
Q 5.515625 40.671875 11.671875 48.328125 
Q 17.828125 56 27.875 56 
Q 33.9375 56 38.28125 53.609375 
Q 42.625 51.21875 45.40625 46.390625 
L 45.40625 54.6875 
L 54.390625 54.6875 
z
" id="DejaVuSans-103"/>
       <path d="M 2.984375 54.6875 
L 12.5 54.6875 
L 29.59375 8.796875 
L 46.6875 54.6875 
L 56.203125 54.6875 
L 35.6875 0 
L 23.484375 0 
z
" id="DejaVuSans-118"/>
       <path d="M 8.015625 75.875 
L 15.828125 75.875 
Q 23.140625 64.359375 26.78125 53.3125 
Q 30.421875 42.28125 30.421875 31.390625 
Q 30.421875 20.453125 26.78125 9.375 
Q 23.140625 -1.703125 15.828125 -13.1875 
L 8.015625 -13.1875 
Q 14.5 -2 17.703125 9.0625 
Q 20.90625 20.125 20.90625 31.390625 
Q 20.90625 42.671875 17.703125 53.65625 
Q 14.5 64.65625 8.015625 75.875 
z
" id="DejaVuSans-41"/>
      </defs>
      <use xlink:href="#DejaVuSans-70"/>
      <use x="50.269531" xlink:href="#DejaVuSans-114"/>
      <use x="89.132812" xlink:href="#DejaVuSans-101"/>
      <use x="150.65625" xlink:href="#DejaVuSans-113"/>
      <use x="214.132812" xlink:href="#DejaVuSans-117"/>
      <use x="277.511719" xlink:href="#DejaVuSans-101"/>
      <use x="339.035156" xlink:href="#DejaVuSans-110"/>
      <use x="402.414062" xlink:href="#DejaVuSans-99"/>
      <use x="457.394531" xlink:href="#DejaVuSans-121"/>
      <use x="516.574219" xlink:href="#DejaVuSans-32"/>
      <use x="548.361328" xlink:href="#DejaVuSans-40"/>
      <use x="587.375" xlink:href="#DejaVuSans-55"/>
      <use x="650.998047" xlink:href="#DejaVuSans-32"/>
      <use x="682.785156" xlink:href="#DejaVuSans-100"/>
      <use x="746.261719" xlink:href="#DejaVuSans-97"/>
      <use x="807.541016" xlink:href="#DejaVuSans-121"/>
      <use x="866.720703" xlink:href="#DejaVuSans-32"/>
      <use x="898.507812" xlink:href="#DejaVuSans-114"/>
      <use x="937.371094" xlink:href="#DejaVuSans-111"/>
      <use x="998.552734" xlink:href="#DejaVuSans-108"/>
      <use x="1026.335938" xlink:href="#DejaVuSans-108"/>
      <use x="1054.119141" xlink:href="#DejaVuSans-105"/>
      <use x="1081.902344" xlink:href="#DejaVuSans-110"/>
      <use x="1145.28125" xlink:href="#DejaVuSans-103"/>
      <use x="1208.757812" xlink:href="#DejaVuSans-32"/>
      <use x="1240.544922" xlink:href="#DejaVuSans-97"/>
      <use x="1301.824219" xlink:href="#DejaVuSans-118"/>
      <use x="1361.003906" xlink:href="#DejaVuSans-101"/>
      <use x="1422.527344" xlink:href="#DejaVuSans-114"/>
      <use x="1463.640625" xlink:href="#DejaVuSans-97"/>
      <use x="1524.919922" xlink:href="#DejaVuSans-103"/>
      <use x="1588.396484" xlink:href="#DejaVuSans-101"/>
      <use x="1649.919922" xlink:href="#DejaVuSans-41"/>
     </g>
    </g>
   </g>
   <g id="line2d_15">
    <path clip-path="url(#p7b6916ac38)" d="M 266.558523 228.816906 
L 278.535795 228.859523 
L 418.270644 228.854821 
L 426.255492 228.554246 
L 430.247917 228.444188 
L 438.232765 227.88599 
L 442.225189 228.022951 
L 450.210038 227.878099 
L 454.202462 228.300898 
L 462.187311 227.99497 
L 466.179735 227.91598 
L 482.149432 225.915563 
L 490.13428 225.502369 
L 498.119129 226.00113 
L 502.111553 226.041036 
L 506.103977 225.713984 
L 510.096402 226.042587 
L 518.08125 225.899853 
L 522.073674 225.602354 
L 530.058523 225.647283 
L 534.050947 224.892798 
L 538.043371 225.029747 
L 542.035795 224.575331 
L 546.02822 224.267679 
L 550.020644 223.816012 
L 554.013068 224.198911 
L 558.005492 223.3518 
L 561.997917 223.299272 
L 565.990341 223.004392 
L 569.982765 221.477869 
L 573.975189 220.979576 
L 577.967614 221.103224 
L 581.960038 220.441525 
L 585.952462 219.323398 
L 589.944886 219.83425 
L 593.937311 219.233578 
L 597.929735 218.865413 
L 601.922159 219.167278 
L 605.914583 219.333957 
L 609.907008 219.130728 
L 613.899432 218.656801 
L 617.891856 217.230966 
L 621.88428 215.947909 
L 625.876705 215.144011 
L 629.869129 213.47076 
L 633.861553 212.749469 
L 641.846402 211.144347 
L 645.838826 211.265876 
L 649.83125 210.025947 
L 653.823674 207.693257 
L 657.816098 206.177988 
L 661.808523 204.991681 
L 665.800947 202.423432 
L 669.793371 202.767696 
L 673.785795 202.81439 
L 677.77822 201.873783 
L 681.770644 201.443807 
L 685.763068 198.937827 
L 689.755492 197.338951 
L 693.747917 194.85185 
L 697.740341 193.57948 
L 701.732765 191.142509 
L 705.725189 190.746648 
L 709.717614 188.276449 
L 713.710038 186.55287 
L 717.702462 185.864334 
L 725.687311 183.999548 
L 729.679735 183.462636 
L 733.672159 181.940101 
L 737.664583 179.436533 
L 741.657008 175.456796 
L 745.649432 172.459827 
L 749.641856 170.335838 
L 753.63428 169.288254 
L 757.626705 166.422772 
L 761.619129 165.076263 
L 765.611553 162.768866 
L 769.603977 158.381865 
L 773.596402 155.003155 
L 777.588826 152.099784 
L 781.58125 150.363108 
L 785.573674 147.704359 
L 789.566098 146.473005 
L 793.558523 144.760644 
L 797.550947 143.975897 
L 801.543371 141.462397 
L 805.535795 139.870548 
L 809.52822 136.090846 
L 821.505492 127.840924 
L 825.497917 123.783525 
L 829.490341 124.045645 
L 833.482765 120.927641 
L 837.475189 117.318719 
L 841.467614 114.526429 
L 845.460038 114.435629 
L 853.444886 109.595056 
L 857.437311 109.519205 
L 861.429735 108.630786 
L 865.422159 106.805792 
L 869.414583 104.632811 
L 873.407008 104.121751 
L 877.399432 102.021169 
L 881.391856 101.607032 
L 885.38428 102.318673 
L 889.376705 103.870704 
L 893.369129 106.727748 
L 897.361553 109.984681 
L 901.353977 112.985478 
L 905.346402 116.504032 
L 909.338826 119.526999 
L 913.33125 120.596159 
L 917.323674 123.685706 
L 921.316098 123.751586 
L 925.308523 126.295575 
L 929.300947 114.094273 
L 933.293371 104.170103 
L 937.285795 96.996636 
L 941.27822 81.477035 
L 945.270644 56.945718 
L 945.270644 56.945718 
" style="fill:none;stroke:#947383;stroke-linecap:square;stroke-width:2;"/>
   </g>
   <g id="line2d_16">
    <path clip-path="url(#p7b6916ac38)" d="M 118.838826 207.608668 
L 122.83125 228.96 
L 218.649432 228.96 
L 222.641856 222.85962 
L 238.611553 222.85962 
L 242.603977 228.96 
L 262.566098 228.96 
L 266.558523 205.236298 
L 270.550947 204.774336 
L 278.535795 204.774336 
L 282.52822 204.342996 
L 286.520644 228.066697 
L 290.513068 228.52866 
L 298.497917 228.52866 
L 302.490341 228.705817 
L 306.482765 228.705817 
L 310.475189 228.394119 
L 318.460038 228.394119 
L 322.452462 228.648302 
L 326.444886 228.583699 
L 330.437311 228.895397 
L 342.414583 228.895397 
L 346.407008 228.349962 
L 354.391856 227.856191 
L 362.376705 227.451196 
L 366.369129 228.061234 
L 370.361553 228.359854 
L 374.353977 228.183678 
L 378.346402 228.341836 
L 382.338826 228.370314 
L 390.323674 227.958298 
L 394.316098 227.629581 
L 398.308523 227.509292 
L 402.300947 227.240548 
L 406.293371 226.094564 
L 410.285795 225.982918 
L 414.27822 224.89303 
L 418.270644 224.091679 
L 422.263068 223.769548 
L 426.255492 223.835314 
L 434.240341 221.298529 
L 438.232765 220.744736 
L 442.225189 217.657549 
L 446.217614 215.854408 
L 450.210038 214.830908 
L 454.202462 215.540273 
L 458.194886 213.528039 
L 466.179735 215.675358 
L 470.172159 212.551101 
L 474.164583 208.801095 
L 478.157008 205.850766 
L 482.149432 204.972685 
L 486.141856 201.516868 
L 490.13428 201.364278 
L 494.126705 204.64945 
L 498.119129 203.051497 
L 502.111553 198.719949 
L 506.103977 192.687093 
L 510.096402 190.032182 
L 514.088826 184.769696 
L 518.08125 182.295238 
L 526.066098 189.024642 
L 530.058523 189.30151 
L 534.050947 189.760239 
L 538.043371 191.209964 
L 542.035795 186.657021 
L 546.02822 185.404516 
L 550.020644 187.410667 
L 554.013068 185.048885 
L 561.997917 184.558591 
L 565.990341 183.947544 
L 569.982765 179.967686 
L 573.975189 178.640914 
L 577.967614 179.166997 
L 581.960038 178.247672 
L 585.952462 177.604081 
L 589.944886 177.875942 
L 593.937311 177.677264 
L 597.929735 175.417681 
L 601.922159 173.003459 
L 605.914583 170.302197 
L 609.907008 164.822607 
L 613.899432 158.355802 
L 617.891856 152.93779 
L 621.88428 149.579683 
L 625.876705 146.80417 
L 629.869129 142.93996 
L 633.861553 140.719069 
L 637.853977 137.162942 
L 641.846402 134.652674 
L 645.838826 130.029669 
L 649.83125 129.312763 
L 653.823674 129.955057 
L 657.816098 129.921325 
L 661.808523 124.067089 
L 665.800947 123.910261 
L 669.793371 122.292981 
L 673.785795 118.916747 
L 677.77822 118.082968 
L 681.770644 121.923049 
L 685.763068 117.593672 
L 689.755492 115.412449 
L 693.747917 112.96113 
L 697.740341 106.916145 
L 701.732765 103.111735 
L 705.725189 101.2068 
L 709.717614 99.766325 
L 713.710038 94.650512 
L 717.702462 93.02393 
L 729.679735 81.440087 
L 733.672159 82.797501 
L 737.664583 80.557762 
L 741.657008 78.578202 
L 745.649432 77.692357 
L 749.641856 75.929603 
L 753.63428 73.639481 
L 761.619129 71.027987 
L 765.611553 69.594282 
L 769.603977 68.934301 
L 777.588826 65.68272 
L 781.58125 62.851015 
L 785.573674 61.909654 
L 793.558523 61.254807 
L 797.550947 62.504946 
L 801.543371 61.529946 
L 805.535795 60.950796 
L 809.52822 58.771519 
L 813.520644 57.133215 
L 817.513068 54.786206 
L 821.505492 57.421179 
L 825.497917 61.704846 
L 829.490341 60.899653 
L 833.482765 59.806625 
L 837.475189 55.827558 
L 841.467614 50.575491 
L 845.460038 42.24534 
L 849.452462 39.092305 
L 853.444886 37.06769 
L 857.437311 37.487415 
L 861.429735 38.099517 
L 865.422159 38.227307 
L 869.414583 36.965281 
L 873.407008 37.978703 
L 877.399432 39.617475 
L 881.391856 40.70486 
L 889.376705 44.297446 
L 897.361553 43.685341 
L 901.353977 39.153835 
L 905.346402 38.640559 
L 909.338826 41.045902 
L 913.33125 41.134569 
L 917.323674 39.370945 
L 921.316098 44.104222 
L 925.308523 44.025829 
L 929.300947 41.445435 
L 933.293371 43.196766 
L 937.285795 47.052897 
L 941.27822 44.870317 
L 945.270644 82.235147 
L 949.263068 88.07867 
L 949.263068 88.07867 
" style="fill:none;stroke:#96c6ad;stroke-linecap:square;stroke-width:2;"/>
   </g>
   <g id="line2d_17">
    <path clip-path="url(#p7b6916ac38)" d="M 146.785795 222.85962 
L 150.77822 228.96 
L 214.657008 228.96 
L 218.649432 227.625542 
L 234.619129 227.625542 
L 238.611553 228.96 
L 294.505492 228.96 
L 298.497917 225.67518 
L 310.475189 225.67518 
L 314.467614 220.930439 
L 318.460038 224.21526 
L 326.444886 224.21526 
L 330.437311 223.029075 
L 334.429735 227.773815 
L 338.422159 227.773815 
L 346.407008 221.778613 
L 350.399432 222.964798 
L 354.391856 222.964798 
L 358.38428 222.728872 
L 366.369129 228.724074 
L 378.346402 228.64601 
L 382.338826 228.434611 
L 386.33125 228.039215 
L 390.323674 228.039215 
L 394.316098 227.675789 
L 402.300947 228.201178 
L 410.285795 227.815019 
L 414.27822 228.178445 
L 418.270644 227.951304 
L 422.263068 227.057007 
L 426.255492 227.432132 
L 430.247917 226.542372 
L 434.240341 224.26055 
L 438.232765 222.758839 
L 442.225189 221.122608 
L 446.217614 220.173608 
L 450.210038 214.315173 
L 454.202462 213.96335 
L 458.194886 211.081117 
L 462.187311 209.709313 
L 466.179735 207.542698 
L 470.172159 212.110095 
L 474.164583 213.49187 
L 478.157008 214.28802 
L 482.149432 213.399322 
L 486.141856 209.361413 
L 490.13428 199.728541 
L 494.126705 191.223422 
L 498.119129 187.114152 
L 502.111553 188.529117 
L 506.103977 187.971745 
L 510.096402 195.257994 
L 514.088826 201.535506 
L 518.08125 206.447491 
L 522.073674 200.756552 
L 526.066098 202.956479 
L 530.058523 204.684298 
L 534.050947 202.984491 
L 538.043371 200.705027 
L 542.035795 204.415599 
L 546.02822 201.112045 
L 550.020644 197.543197 
L 554.013068 195.115118 
L 558.005492 190.544755 
L 561.997917 182.494537 
L 565.990341 183.860922 
L 569.982765 186.810343 
L 573.975189 189.17352 
L 577.967614 194.75579 
L 581.960038 189.758866 
L 585.952462 182.750707 
L 589.944886 168.575101 
L 593.937311 159.144379 
L 597.929735 156.769195 
L 601.922159 155.260852 
L 605.914583 157.46239 
L 609.907008 151.286498 
L 613.899432 156.204419 
L 617.891856 152.087536 
L 621.88428 164.882342 
L 625.876705 171.632683 
L 629.869129 171.055342 
L 633.861553 170.888472 
L 637.853977 170.134375 
L 645.838826 158.371103 
L 649.83125 177.037448 
L 653.823674 179.989443 
L 657.816098 177.442914 
L 661.808523 181.172586 
L 665.800947 182.418118 
L 669.793371 182.514166 
L 673.785795 177.542372 
L 677.77822 184.579536 
L 681.770644 182.040441 
L 685.763068 175.834498 
L 689.755492 162.617177 
L 693.747917 160.99507 
L 697.740341 162.919684 
L 701.732765 170.242387 
L 705.725189 184.73274 
L 709.717614 198.797848 
L 713.710038 202.13903 
L 717.702462 200.591001 
L 721.694886 196.305093 
L 725.687311 194.076148 
L 729.679735 193.716282 
L 733.672159 198.309743 
L 737.664583 198.422799 
L 741.657008 201.188964 
L 745.649432 199.984343 
L 749.641856 200.969789 
L 753.63428 200.176615 
L 757.626705 201.936635 
L 761.619129 197.369118 
L 765.611553 198.01057 
L 769.603977 197.583543 
L 773.596402 199.962322 
L 777.588826 200.138019 
L 781.58125 207.496193 
L 785.573674 204.291039 
L 789.566098 202.186138 
L 793.558523 198.567073 
L 797.550947 197.32734 
L 801.543371 192.451157 
L 805.535795 196.545589 
L 809.52822 194.431842 
L 813.520644 197.280333 
L 817.513068 200.593221 
L 821.505492 201.023865 
L 825.497917 199.18179 
L 829.490341 206.191361 
L 833.482765 209.693523 
L 837.475189 208.114396 
L 841.467614 213.791742 
L 845.460038 215.546866 
L 849.452462 208.192417 
L 853.444886 202.185888 
L 857.437311 197.151237 
L 861.429735 194.328973 
L 865.422159 195.523453 
L 869.414583 197.667161 
L 873.407008 192.786856 
L 877.399432 200.15815 
L 881.391856 194.784005 
L 885.38428 186.15429 
L 889.376705 181.884023 
L 893.369129 178.556543 
L 897.361553 172.909271 
L 901.353977 176.750251 
L 905.346402 176.334766 
L 909.338826 173.487921 
L 913.33125 178.340497 
L 917.323674 168.685982 
L 921.316098 160.778081 
L 925.308523 157.483875 
L 929.300947 157.483875 
L 933.293371 161.042431 
L 937.285795 166.477315 
L 941.27822 138.008873 
L 941.27822 138.008873 
" style="fill:none;stroke:#525886;stroke-linecap:square;stroke-width:2;"/>
   </g>
   <g id="line2d_18">
    <path clip-path="url(#p7b6916ac38)" d="M 454.202462 224.591888 
L 458.194886 226.234298 
L 462.187311 226.113156 
L 466.179735 226.113156 
L 470.172159 224.819136 
L 474.164583 218.249495 
L 478.157008 212.426405 
L 482.149432 215.273249 
L 486.141856 215.273249 
L 490.13428 214.533809 
L 494.126705 219.647677 
L 498.119129 223.499875 
L 502.111553 219.229609 
L 506.103977 216.429434 
L 510.096402 213.535664 
L 514.088826 210.72117 
L 518.08125 212.692062 
L 522.073674 214.791007 
L 526.066098 211.597825 
L 530.058523 214.441999 
L 534.050947 215.427445 
L 538.043371 212.224745 
L 542.035795 214.396067 
L 546.02822 219.440475 
L 550.020644 220.968952 
L 554.013068 222.220312 
L 558.005492 223.287879 
L 561.997917 218.407574 
L 565.990341 215.384181 
L 569.982765 214.604303 
L 573.975189 213.968847 
L 577.967614 215.195413 
L 581.960038 219.408488 
L 585.952462 221.190949 
L 589.944886 220.943827 
L 593.937311 223.612743 
L 597.929735 224.521311 
L 601.922159 225.18854 
L 605.914583 225.107002 
L 609.907008 225.593642 
L 613.899432 224.439516 
L 617.891856 222.96701 
L 621.88428 222.96701 
L 625.876705 225.238428 
L 629.869129 226.333368 
L 633.861553 225.67036 
L 637.853977 225.201835 
L 641.846402 223.493729 
L 645.838826 223.493729 
L 649.83125 220.720828 
L 653.823674 222.537963 
L 657.816098 224.478993 
L 661.808523 223.221637 
L 665.800947 218.341333 
L 669.793371 217.479964 
L 673.785795 208.745328 
L 677.77822 197.487353 
L 681.770644 198.927721 
L 685.763068 193.455864 
L 689.755492 192.732719 
L 693.747917 196.211642 
L 697.740341 205.483447 
L 701.732765 196.550747 
L 705.725189 201.565075 
L 709.717614 199.090063 
L 713.710038 198.245395 
L 717.702462 192.82977 
L 721.694886 200.002745 
L 725.687311 200.669974 
L 729.679735 203.499026 
L 733.672159 198.70587 
L 737.664583 200.769832 
L 741.657008 195.158264 
L 745.649432 190.821275 
L 749.641856 189.833429 
L 753.63428 189.635365 
L 757.626705 189.354426 
L 761.619129 193.506074 
L 765.611553 198.717875 
L 769.603977 198.199074 
L 773.596402 202.820574 
L 777.588826 198.131806 
L 781.58125 194.686995 
L 785.573674 189.397114 
L 789.566098 188.97621 
L 793.558523 187.910546 
L 797.550947 193.127702 
L 801.543371 193.508767 
L 805.535795 195.706913 
L 809.52822 199.329587 
L 813.520644 194.855227 
L 817.513068 197.943923 
L 821.505492 198.827654 
L 825.497917 202.054952 
L 829.490341 186.921271 
L 833.482765 172.151759 
L 837.475189 166.208765 
L 841.467614 160.19332 
L 845.460038 154.148397 
L 849.452462 165.48995 
L 853.444886 183.331819 
L 857.437311 185.237741 
L 861.429735 181.21387 
L 865.422159 182.083987 
L 869.414583 182.565596 
L 873.407008 179.105815 
L 877.399432 157.970153 
L 881.391856 156.954156 
L 885.38428 151.180384 
L 889.376705 128.330714 
L 893.369129 117.953507 
L 897.361553 115.236065 
L 901.353977 109.492432 
L 905.346402 124.101238 
L 909.338826 125.117968 
" style="fill:none;stroke:#937252;stroke-linecap:square;stroke-width:2;"/>
   </g>
   <g id="line2d_19">
    <path clip-path="url(#p7b6916ac38)" d="M 86.899432 228.747471 
L 94.88428 228.8825 
L 110.853977 228.78953 
L 126.823674 228.760039 
L 130.816098 228.930509 
L 138.800947 228.96 
L 158.763068 228.714287 
L 166.747917 228.767934 
L 170.740341 228.692443 
L 174.732765 228.884509 
L 190.702462 228.96 
L 194.694886 228.697906 
L 202.679735 228.357409 
L 206.672159 228.13313 
L 210.664583 228.020755 
L 222.641856 228.563328 
L 226.63428 228.068572 
L 234.619129 227.614546 
L 242.603977 225.781012 
L 246.596402 226.187697 
L 250.588826 226.356488 
L 254.58125 224.387819 
L 258.573674 224.172055 
L 262.566098 225.055558 
L 266.558523 223.077088 
L 270.550947 221.778456 
L 274.543371 223.185597 
L 278.535795 223.15188 
L 282.52822 219.573444 
L 286.520644 217.612686 
L 290.513068 216.388773 
L 294.505492 213.319595 
L 298.497917 213.068047 
L 302.490341 212.047734 
L 306.482765 214.087086 
L 310.475189 210.912138 
L 314.467614 213.303845 
L 318.460038 208.590085 
L 322.452462 204.786762 
L 326.444886 205.278202 
L 330.437311 208.112445 
L 334.429735 208.665137 
L 338.422159 208.070808 
L 342.414583 210.957356 
L 346.407008 203.700224 
L 350.399432 199.196282 
L 354.391856 196.141695 
L 358.38428 199.209259 
L 362.376705 199.31839 
L 366.369129 204.220145 
L 370.361553 199.261772 
L 374.353977 195.170257 
L 378.346402 195.015774 
L 382.338826 189.020077 
L 386.33125 181.543123 
L 390.323674 184.364272 
L 394.316098 174.266011 
L 398.308523 166.934339 
L 402.300947 165.414873 
L 406.293371 158.680456 
L 410.285795 152.408902 
L 414.27822 151.797195 
L 422.263068 134.722229 
L 426.255492 129.749502 
L 430.247917 126.926756 
L 434.240341 128.353365 
L 438.232765 129.31486 
L 442.225189 132.468352 
L 446.217614 134.057135 
L 450.210038 130.78937 
L 454.202462 122.449222 
L 458.194886 113.664152 
L 462.187311 108.53903 
L 466.179735 105.016392 
L 470.172159 98.083992 
L 474.164583 94.78608 
L 478.157008 92.337412 
L 486.141856 74.651312 
L 490.13428 72.557123 
L 494.126705 71.369704 
L 498.119129 71.096127 
L 502.111553 74.290763 
L 506.103977 75.021016 
L 510.096402 72.061169 
L 514.088826 68.508503 
L 518.08125 65.867081 
L 522.073674 61.586148 
L 526.066098 61.518504 
L 530.058523 62.809619 
L 534.050947 62.17989 
L 546.02822 56.7082 
L 550.020644 53.937585 
L 554.013068 51.869718 
L 558.005492 50.771363 
L 561.997917 49.275777 
L 565.990341 46.817412 
L 569.982765 44.858339 
L 573.975189 43.15702 
L 577.967614 40.82035 
L 581.960038 38.812052 
L 585.952462 37.211203 
L 589.944886 34.869873 
L 593.937311 32.983377 
L 597.929735 31.686887 
L 601.922159 31.220138 
L 605.914583 31.53418 
L 613.899432 34.421188 
L 617.891856 33.448792 
L 621.88428 32.23039 
L 625.876705 31.155678 
L 629.869129 29.588251 
L 633.861553 27.895302 
L 637.853977 27.620372 
L 641.846402 27.971909 
L 645.838826 27.006704 
L 649.83125 25.831126 
L 653.823674 25.426378 
L 657.816098 25.275676 
L 661.808523 24.27841 
L 665.800947 24.126648 
L 669.793371 24.250926 
L 677.77822 23.330034 
L 681.770644 23.231648 
L 689.755492 22.431596 
L 693.747917 22.291333 
L 697.740341 21.754656 
L 701.732765 21.104599 
L 709.717614 20.808077 
L 713.710038 20.729908 
L 717.702462 20.794984 
L 725.687311 21.320716 
L 729.679735 21.456603 
L 733.672159 21.254856 
L 737.664583 21.523988 
L 741.657008 22.03255 
L 745.649432 21.868369 
L 749.641856 21.32868 
L 753.63428 21.084026 
L 757.626705 20.705424 
L 761.619129 20.181161 
L 765.611553 19.862977 
L 769.603977 19.699091 
L 773.596402 19.728365 
L 777.588826 19.333903 
L 781.58125 19.132621 
L 789.566098 19.224544 
L 793.558523 19.338241 
L 805.535795 18.973834 
L 809.52822 18.83435 
L 813.520644 18.407791 
L 817.513068 18.329519 
L 829.490341 17.76 
L 845.460038 18.817069 
L 849.452462 19.520916 
L 853.444886 19.918143 
L 857.437311 20.035204 
L 865.422159 22.001638 
L 869.414583 22.131932 
L 873.407008 22.503682 
L 877.399432 23.266196 
L 885.38428 22.738908 
L 889.376705 22.544323 
L 897.361553 24.20194 
L 905.346402 27.157213 
L 909.338826 28.627775 
L 913.33125 29.05914 
L 917.323674 28.745098 
L 921.316098 28.297112 
L 925.308523 30.135345 
L 929.300947 36.128466 
L 929.300947 36.128466 
" style="fill:none;stroke:#d18cad;stroke-linecap:square;stroke-width:2;"/>
   </g>
   <g id="line2d_20">
    <path clip-path="url(#p7b6916ac38)" d="M 370.361553 221.842889 
L 374.353977 228.96 
L 386.33125 228.96 
L 390.323674 211.878935 
L 394.316098 211.878935 
L 398.308523 190.527603 
L 406.293371 190.527603 
L 410.285795 207.608668 
L 414.27822 207.608668 
L 418.270644 226.824867 
L 426.255492 226.824867 
L 430.247917 218.818117 
L 434.240341 213.480285 
L 438.232765 210.870677 
L 442.225189 206.125937 
L 446.217614 184.774605 
L 450.210038 189.222799 
L 454.202462 191.002077 
L 458.194886 187.982697 
L 462.187311 187.982697 
L 466.179735 207.198895 
L 470.172159 210.757451 
L 474.164583 211.031186 
L 478.157008 214.52504 
L 482.149432 204.544724 
L 486.141856 196.004191 
L 490.13428 196.004191 
L 494.126705 190.748479 
L 498.119129 173.667414 
L 506.103977 177.967996 
L 510.096402 154.244294 
L 514.088826 149.645546 
L 518.08125 164.896497 
L 522.073674 163.221883 
L 526.066098 167.492149 
L 530.058523 175.202352 
L 534.050947 169.362672 
L 538.043371 165.415367 
L 542.035795 144.064035 
L 546.02822 141.217191 
L 550.020644 139.437913 
L 554.013068 147.741209 
L 558.005492 129.320452 
L 561.997917 140.504483 
L 565.990341 127.912672 
L 569.982765 110.119896 
L 573.975189 110.119896 
L 577.967614 124.354117 
L 581.960038 134.521418 
L 585.952462 132.879008 
L 589.944886 155.653761 
L 593.937311 123.626764 
L 597.929735 95.158322 
L 605.914583 95.158322 
L 609.907008 100.85201 
L 613.899432 106.189843 
L 617.891856 148.892506 
L 621.88428 146.045662 
L 625.876705 167.396994 
L 629.869129 174.514104 
L 633.861553 190.527603 
L 637.853977 147.82494 
L 641.846402 164.906005 
L 645.838826 128.303722 
L 649.83125 101.614558 
L 653.823674 80.263226 
L 657.816098 80.263226 
L 661.808523 37.560563 
L 665.800947 48.541247 
L 669.793371 60.996191 
L 673.785795 82.347523 
L 677.77822 99.428588 
L 681.770644 127.89703 
L 685.763068 123.016726 
L 689.755492 128.710414 
L 693.747917 121.593304 
L 697.740341 131.201403 
L 701.732765 124.084292 
L 705.725189 111.883531 
L 709.717614 88.397067 
L 713.710038 109.748398 
L 717.702462 97.293455 
L 721.694886 97.293455 
L 725.687311 120.068209 
L 729.679735 120.068209 
L 733.672159 84.482656 
L 737.664583 100.750337 
L 741.657008 93.633226 
L 745.649432 92.209804 
L 749.641856 111.677195 
L 753.63428 111.677195 
L 757.626705 99.476434 
L 761.619129 101.666314 
L 765.611553 95.386511 
L 769.603977 82.32452 
L 773.596402 109.013684 
L 777.588826 112.063874 
L 781.58125 132.242056 
L 785.573674 136.879449 
L 789.566098 148.266826 
L 793.558523 148.266826 
L 797.550947 134.032605 
L 801.543371 111.664543 
L 805.535795 113.306954 
L 809.52822 106.189843 
L 813.520644 96.581744 
L 817.513068 117.933075 
L 821.505492 125.978505 
L 825.497917 104.627173 
L 829.490341 98.804083 
L 833.482765 105.446719 
L 837.475189 91.212498 
L 841.467614 90.284179 
L 845.460038 100.959845 
L 849.452462 105.140525 
L 853.444886 109.885266 
L 857.437311 111.179286 
L 861.429735 102.028715 
L 865.422159 112.704381 
L 869.414583 118.617057 
L 873.407008 115.770213 
L 877.399432 117.323037 
L 881.391856 122.203342 
L 885.38428 116.865509 
L 889.376705 119.712353 
L 893.369129 94.090755 
L 897.361553 103.698854 
L 901.353977 107.969121 
L 905.346402 103.601803 
L 909.338826 100.754959 
L 913.33125 137.357241 
L 917.323674 134.391779 
L 921.316098 155.74311 
L 925.308523 165.448261 
L 929.300947 168.295105 
L 933.293371 153.044154 
L 937.285795 172.023116 
L 941.27822 150.671784 
L 941.27822 150.671784 
" style="fill:none;stroke:#a4a86f;stroke-linecap:square;stroke-width:2;"/>
   </g>
   <g id="line2d_21">
    <path clip-path="url(#p7b6916ac38)" d="M 350.399432 207.608668 
L 354.391856 228.96 
L 390.323674 228.96 
L 394.316098 214.725779 
L 406.293371 214.725779 
L 410.285795 200.491558 
L 414.27822 214.725779 
L 418.270644 214.725779 
L 422.263068 207.608668 
L 426.255492 207.608668 
L 430.247917 221.842889 
L 434.240341 221.842889 
L 438.232765 200.491558 
L 442.225189 207.608668 
L 446.217614 203.726608 
L 454.202462 203.726608 
L 458.194886 225.07794 
L 462.187311 216.537407 
L 466.179735 204.405969 
L 470.172159 196.641848 
L 474.164583 184.441087 
L 478.157008 184.441087 
L 482.149432 182.305954 
L 486.141856 184.97487 
L 490.13428 184.198458 
L 494.126705 191.375376 
L 498.119129 184.258266 
L 502.111553 178.991604 
L 506.103977 169.934789 
L 510.096402 159.06502 
L 514.088826 152.701486 
L 518.08125 143.660832 
L 522.073674 151.989507 
L 526.066098 169.874276 
L 530.058523 181.619997 
L 534.050947 189.610571 
L 538.043371 192.957537 
L 542.035795 191.081709 
L 546.02822 195.598337 
L 550.020644 201.229457 
L 554.013068 203.04468 
L 558.005492 215.106309 
L 561.997917 224.59579 
L 565.990341 223.554262 
L 569.982765 224.733669 
L 573.975189 224.006997 
L 577.967614 224.179103 
L 581.960038 222.34243 
L 585.952462 221.155993 
L 589.944886 219.284344 
L 593.937311 220.049127 
L 597.929735 219.53125 
L 601.922159 219.725513 
L 605.914583 221.953478 
L 609.907008 220.29942 
L 613.899432 218.380511 
L 617.891856 215.503111 
L 621.88428 213.669723 
L 625.876705 213.669723 
L 629.869129 218.049483 
L 633.861553 216.413036 
L 637.853977 217.335186 
L 641.846402 216.235699 
L 645.838826 214.202239 
L 649.83125 207.369813 
L 653.823674 212.468638 
L 657.816098 215.518828 
L 661.808523 217.806471 
L 665.800947 218.772365 
L 669.793371 222.935874 
L 673.785795 220.648232 
L 677.77822 216.230715 
L 681.770644 216.484897 
L 685.763068 215.611434 
L 689.755492 214.010084 
L 693.747917 216.297726 
L 697.740341 220.715243 
L 701.732765 220.376333 
L 705.725189 219.267173 
L 709.717614 215.773319 
L 713.710038 215.773319 
L 717.702462 214.395814 
L 721.694886 213.379084 
L 725.687311 211.684533 
L 729.679735 212.331544 
L 733.672159 206.231163 
L 737.664583 202.681438 
L 741.657008 197.530006 
L 745.649432 197.098666 
L 749.641856 189.981555 
L 753.63428 187.128151 
L 757.626705 185.649982 
L 761.619129 191.343671 
L 765.611553 170.898153 
L 769.603977 185.132374 
L 773.596402 183.778619 
L 777.588826 186.72164 
L 781.58125 176.572022 
L 785.573674 191.517954 
L 789.566098 179.317193 
L 793.558523 164.003134 
L 797.550947 124.762849 
L 801.543371 122.508361 
L 805.535795 120.531386 
L 809.52822 108.330625 
L 813.520644 124.462742 
L 817.513068 167.165405 
L 821.505492 171.740691 
L 825.497917 184.393332 
L 829.490341 208.794853 
L 833.482765 215.976082 
L 837.475189 215.976082 
L 841.467614 226.651748 
L 849.452462 226.651748 
L 853.444886 228.96 
L 857.437311 228.96 
L 861.429735 226.712491 
L 861.429735 226.712491 
" style="fill:none;stroke:#d3d3d3;stroke-linecap:square;stroke-width:2;"/>
   </g>
   <g id="patch_3">
    <path d="M 43.78125 228.96 
L 43.78125 7.2 
" style="fill:none;stroke:#000000;stroke-linecap:square;stroke-linejoin:miter;stroke-width:0.8;"/>
   </g>
   <g id="patch_4">
    <path d="M 43.78125 228.96 
L 992.38125 228.96 
" style="fill:none;stroke:#000000;stroke-linecap:square;stroke-linejoin:miter;stroke-width:0.8;"/>
   </g>
   <g id="legend_1">
    <g id="line2d_22">
     <path d="M 50.98125 17.67875 
L 66.98125 17.67875 
" style="fill:none;stroke:#947383;stroke-linecap:square;stroke-width:2;"/>
    </g>
    <g id="line2d_23"/>
    <g id="text_17">
     <!-- North America -->
     <g transform="translate(73.38125 20.47875)scale(0.08 -0.08)">
      <defs>
       <path d="M 9.8125 72.90625 
L 23.09375 72.90625 
L 55.421875 11.921875 
L 55.421875 72.90625 
L 64.984375 72.90625 
L 64.984375 0 
L 51.703125 0 
L 19.390625 60.984375 
L 19.390625 0 
L 9.8125 0 
z
" id="DejaVuSans-78"/>
       <path d="M 54.890625 33.015625 
L 54.890625 0 
L 45.90625 0 
L 45.90625 32.71875 
Q 45.90625 40.484375 42.875 44.328125 
Q 39.84375 48.1875 33.796875 48.1875 
Q 26.515625 48.1875 22.3125 43.546875 
Q 18.109375 38.921875 18.109375 30.90625 
L 18.109375 0 
L 9.078125 0 
L 9.078125 75.984375 
L 18.109375 75.984375 
L 18.109375 46.1875 
Q 21.34375 51.125 25.703125 53.5625 
Q 30.078125 56 35.796875 56 
Q 45.21875 56 50.046875 50.171875 
Q 54.890625 44.34375 54.890625 33.015625 
z
" id="DejaVuSans-104"/>
       <path d="M 34.1875 63.1875 
L 20.796875 26.90625 
L 47.609375 26.90625 
z
M 28.609375 72.90625 
L 39.796875 72.90625 
L 67.578125 0 
L 57.328125 0 
L 50.6875 18.703125 
L 17.828125 18.703125 
L 11.1875 0 
L 0.78125 0 
z
" id="DejaVuSans-65"/>
       <path d="M 52 44.1875 
Q 55.375 50.25 60.0625 53.125 
Q 64.75 56 71.09375 56 
Q 79.640625 56 84.28125 50.015625 
Q 88.921875 44.046875 88.921875 33.015625 
L 88.921875 0 
L 79.890625 0 
L 79.890625 32.71875 
Q 79.890625 40.578125 77.09375 44.375 
Q 74.3125 48.1875 68.609375 48.1875 
Q 61.625 48.1875 57.5625 43.546875 
Q 53.515625 38.921875 53.515625 30.90625 
L 53.515625 0 
L 44.484375 0 
L 44.484375 32.71875 
Q 44.484375 40.625 41.703125 44.40625 
Q 38.921875 48.1875 33.109375 48.1875 
Q 26.21875 48.1875 22.15625 43.53125 
Q 18.109375 38.875 18.109375 30.90625 
L 18.109375 0 
L 9.078125 0 
L 9.078125 54.6875 
L 18.109375 54.6875 
L 18.109375 46.1875 
Q 21.1875 51.21875 25.484375 53.609375 
Q 29.78125 56 35.6875 56 
Q 41.65625 56 45.828125 52.96875 
Q 50 49.953125 52 44.1875 
z
" id="DejaVuSans-109"/>
      </defs>
      <use xlink:href="#DejaVuSans-78"/>
      <use x="74.804688" xlink:href="#DejaVuSans-111"/>
      <use x="135.986328" xlink:href="#DejaVuSans-114"/>
      <use x="177.099609" xlink:href="#DejaVuSans-116"/>
      <use x="216.308594" xlink:href="#DejaVuSans-104"/>
      <use x="279.6875" xlink:href="#DejaVuSans-32"/>
      <use x="311.474609" xlink:href="#DejaVuSans-65"/>
      <use x="379.882812" xlink:href="#DejaVuSans-109"/>
      <use x="477.294922" xlink:href="#DejaVuSans-101"/>
      <use x="538.818359" xlink:href="#DejaVuSans-114"/>
      <use x="579.931641" xlink:href="#DejaVuSans-105"/>
      <use x="607.714844" xlink:href="#DejaVuSans-99"/>
      <use x="662.695312" xlink:href="#DejaVuSans-97"/>
     </g>
    </g>
    <g id="line2d_24">
     <path d="M 50.98125 29.42125 
L 66.98125 29.42125 
" style="fill:none;stroke:#96c6ad;stroke-linecap:square;stroke-width:2;"/>
    </g>
    <g id="line2d_25"/>
    <g id="text_18">
     <!-- Europe -->
     <g transform="translate(73.38125 32.22125)scale(0.08 -0.08)">
      <defs>
       <path d="M 9.8125 72.90625 
L 55.90625 72.90625 
L 55.90625 64.59375 
L 19.671875 64.59375 
L 19.671875 43.015625 
L 54.390625 43.015625 
L 54.390625 34.71875 
L 19.671875 34.71875 
L 19.671875 8.296875 
L 56.78125 8.296875 
L 56.78125 0 
L 9.8125 0 
z
" id="DejaVuSans-69"/>
       <path d="M 18.109375 8.203125 
L 18.109375 -20.796875 
L 9.078125 -20.796875 
L 9.078125 54.6875 
L 18.109375 54.6875 
L 18.109375 46.390625 
Q 20.953125 51.265625 25.265625 53.625 
Q 29.59375 56 35.59375 56 
Q 45.5625 56 51.78125 48.09375 
Q 58.015625 40.1875 58.015625 27.296875 
Q 58.015625 14.40625 51.78125 6.484375 
Q 45.5625 -1.421875 35.59375 -1.421875 
Q 29.59375 -1.421875 25.265625 0.953125 
Q 20.953125 3.328125 18.109375 8.203125 
z
M 48.6875 27.296875 
Q 48.6875 37.203125 44.609375 42.84375 
Q 40.53125 48.484375 33.40625 48.484375 
Q 26.265625 48.484375 22.1875 42.84375 
Q 18.109375 37.203125 18.109375 27.296875 
Q 18.109375 17.390625 22.1875 11.75 
Q 26.265625 6.109375 33.40625 6.109375 
Q 40.53125 6.109375 44.609375 11.75 
Q 48.6875 17.390625 48.6875 27.296875 
z
" id="DejaVuSans-112"/>
      </defs>
      <use xlink:href="#DejaVuSans-69"/>
      <use x="63.183594" xlink:href="#DejaVuSans-117"/>
      <use x="126.5625" xlink:href="#DejaVuSans-114"/>
      <use x="165.425781" xlink:href="#DejaVuSans-111"/>
      <use x="226.607422" xlink:href="#DejaVuSans-112"/>
      <use x="290.083984" xlink:href="#DejaVuSans-101"/>
     </g>
    </g>
    <g id="line2d_26">
     <path d="M 50.98125 41.16375 
L 66.98125 41.16375 
" style="fill:none;stroke:#525886;stroke-linecap:square;stroke-width:2;"/>
    </g>
    <g id="line2d_27"/>
    <g id="text_19">
     <!-- Asia -->
     <g transform="translate(73.38125 43.96375)scale(0.08 -0.08)">
      <defs>
       <path d="M 44.28125 53.078125 
L 44.28125 44.578125 
Q 40.484375 46.53125 36.375 47.5 
Q 32.28125 48.484375 27.875 48.484375 
Q 21.1875 48.484375 17.84375 46.4375 
Q 14.5 44.390625 14.5 40.28125 
Q 14.5 37.15625 16.890625 35.375 
Q 19.28125 33.59375 26.515625 31.984375 
L 29.59375 31.296875 
Q 39.15625 29.25 43.1875 25.515625 
Q 47.21875 21.78125 47.21875 15.09375 
Q 47.21875 7.46875 41.1875 3.015625 
Q 35.15625 -1.421875 24.609375 -1.421875 
Q 20.21875 -1.421875 15.453125 -0.5625 
Q 10.6875 0.296875 5.421875 2 
L 5.421875 11.28125 
Q 10.40625 8.6875 15.234375 7.390625 
Q 20.0625 6.109375 24.8125 6.109375 
Q 31.15625 6.109375 34.5625 8.28125 
Q 37.984375 10.453125 37.984375 14.40625 
Q 37.984375 18.0625 35.515625 20.015625 
Q 33.0625 21.96875 24.703125 23.78125 
L 21.578125 24.515625 
Q 13.234375 26.265625 9.515625 29.90625 
Q 5.8125 33.546875 5.8125 39.890625 
Q 5.8125 47.609375 11.28125 51.796875 
Q 16.75 56 26.8125 56 
Q 31.78125 56 36.171875 55.265625 
Q 40.578125 54.546875 44.28125 53.078125 
z
" id="DejaVuSans-115"/>
      </defs>
      <use xlink:href="#DejaVuSans-65"/>
      <use x="68.408203" xlink:href="#DejaVuSans-115"/>
      <use x="120.507812" xlink:href="#DejaVuSans-105"/>
      <use x="148.291016" xlink:href="#DejaVuSans-97"/>
     </g>
    </g>
    <g id="line2d_28">
     <path d="M 50.98125 52.90625 
L 66.98125 52.90625 
" style="fill:none;stroke:#937252;stroke-linecap:square;stroke-width:2;"/>
    </g>
    <g id="line2d_29"/>
    <g id="text_20">
     <!-- South America -->
     <g transform="translate(73.38125 55.70625)scale(0.08 -0.08)">
      <defs>
       <path d="M 53.515625 70.515625 
L 53.515625 60.890625 
Q 47.90625 63.578125 42.921875 64.890625 
Q 37.9375 66.21875 33.296875 66.21875 
Q 25.25 66.21875 20.875 63.09375 
Q 16.5 59.96875 16.5 54.203125 
Q 16.5 49.359375 19.40625 46.890625 
Q 22.3125 44.4375 30.421875 42.921875 
L 36.375 41.703125 
Q 47.40625 39.59375 52.65625 34.296875 
Q 57.90625 29 57.90625 20.125 
Q 57.90625 9.515625 50.796875 4.046875 
Q 43.703125 -1.421875 29.984375 -1.421875 
Q 24.8125 -1.421875 18.96875 -0.25 
Q 13.140625 0.921875 6.890625 3.21875 
L 6.890625 13.375 
Q 12.890625 10.015625 18.65625 8.296875 
Q 24.421875 6.59375 29.984375 6.59375 
Q 38.421875 6.59375 43.015625 9.90625 
Q 47.609375 13.234375 47.609375 19.390625 
Q 47.609375 24.75 44.3125 27.78125 
Q 41.015625 30.8125 33.5 32.328125 
L 27.484375 33.5 
Q 16.453125 35.6875 11.515625 40.375 
Q 6.59375 45.0625 6.59375 53.421875 
Q 6.59375 63.09375 13.40625 68.65625 
Q 20.21875 74.21875 32.171875 74.21875 
Q 37.3125 74.21875 42.625 73.28125 
Q 47.953125 72.359375 53.515625 70.515625 
z
" id="DejaVuSans-83"/>
      </defs>
      <use xlink:href="#DejaVuSans-83"/>
      <use x="63.476562" xlink:href="#DejaVuSans-111"/>
      <use x="124.658203" xlink:href="#DejaVuSans-117"/>
      <use x="188.037109" xlink:href="#DejaVuSans-116"/>
      <use x="227.246094" xlink:href="#DejaVuSans-104"/>
      <use x="290.625" xlink:href="#DejaVuSans-32"/>
      <use x="322.412109" xlink:href="#DejaVuSans-65"/>
      <use x="390.820312" xlink:href="#DejaVuSans-109"/>
      <use x="488.232422" xlink:href="#DejaVuSans-101"/>
      <use x="549.755859" xlink:href="#DejaVuSans-114"/>
      <use x="590.869141" xlink:href="#DejaVuSans-105"/>
      <use x="618.652344" xlink:href="#DejaVuSans-99"/>
      <use x="673.632812" xlink:href="#DejaVuSans-97"/>
     </g>
    </g>
    <g id="line2d_30">
     <path d="M 50.98125 64.64875 
L 66.98125 64.64875 
" style="fill:none;stroke:#d18cad;stroke-linecap:square;stroke-width:2;"/>
    </g>
    <g id="line2d_31"/>
    <g id="text_21">
     <!-- United Kingdom -->
     <g transform="translate(73.38125 67.44875)scale(0.08 -0.08)">
      <defs>
       <path d="M 8.6875 72.90625 
L 18.609375 72.90625 
L 18.609375 28.609375 
Q 18.609375 16.890625 22.84375 11.734375 
Q 27.09375 6.59375 36.625 6.59375 
Q 46.09375 6.59375 50.34375 11.734375 
Q 54.59375 16.890625 54.59375 28.609375 
L 54.59375 72.90625 
L 64.5 72.90625 
L 64.5 27.390625 
Q 64.5 13.140625 57.4375 5.859375 
Q 50.390625 -1.421875 36.625 -1.421875 
Q 22.796875 -1.421875 15.734375 5.859375 
Q 8.6875 13.140625 8.6875 27.390625 
z
" id="DejaVuSans-85"/>
       <path d="M 9.8125 72.90625 
L 19.671875 72.90625 
L 19.671875 42.09375 
L 52.390625 72.90625 
L 65.09375 72.90625 
L 28.90625 38.921875 
L 67.671875 0 
L 54.6875 0 
L 19.671875 35.109375 
L 19.671875 0 
L 9.8125 0 
z
" id="DejaVuSans-75"/>
      </defs>
      <use xlink:href="#DejaVuSans-85"/>
      <use x="73.193359" xlink:href="#DejaVuSans-110"/>
      <use x="136.572266" xlink:href="#DejaVuSans-105"/>
      <use x="164.355469" xlink:href="#DejaVuSans-116"/>
      <use x="203.564453" xlink:href="#DejaVuSans-101"/>
      <use x="265.087891" xlink:href="#DejaVuSans-100"/>
      <use x="328.564453" xlink:href="#DejaVuSans-32"/>
      <use x="360.351562" xlink:href="#DejaVuSans-75"/>
      <use x="425.927734" xlink:href="#DejaVuSans-105"/>
      <use x="453.710938" xlink:href="#DejaVuSans-110"/>
      <use x="517.089844" xlink:href="#DejaVuSans-103"/>
      <use x="580.566406" xlink:href="#DejaVuSans-100"/>
      <use x="644.042969" xlink:href="#DejaVuSans-111"/>
      <use x="705.224609" xlink:href="#DejaVuSans-109"/>
     </g>
    </g>
    <g id="line2d_32">
     <path d="M 50.98125 76.39125 
L 66.98125 76.39125 
" style="fill:none;stroke:#a4a86f;stroke-linecap:square;stroke-width:2;"/>
    </g>
    <g id="line2d_33"/>
    <g id="text_22">
     <!-- Oceania -->
     <g transform="translate(73.38125 79.19125)scale(0.08 -0.08)">
      <defs>
       <path d="M 39.40625 66.21875 
Q 28.65625 66.21875 22.328125 58.203125 
Q 16.015625 50.203125 16.015625 36.375 
Q 16.015625 22.609375 22.328125 14.59375 
Q 28.65625 6.59375 39.40625 6.59375 
Q 50.140625 6.59375 56.421875 14.59375 
Q 62.703125 22.609375 62.703125 36.375 
Q 62.703125 50.203125 56.421875 58.203125 
Q 50.140625 66.21875 39.40625 66.21875 
z
M 39.40625 74.21875 
Q 54.734375 74.21875 63.90625 63.9375 
Q 73.09375 53.65625 73.09375 36.375 
Q 73.09375 19.140625 63.90625 8.859375 
Q 54.734375 -1.421875 39.40625 -1.421875 
Q 24.03125 -1.421875 14.8125 8.828125 
Q 5.609375 19.09375 5.609375 36.375 
Q 5.609375 53.65625 14.8125 63.9375 
Q 24.03125 74.21875 39.40625 74.21875 
z
" id="DejaVuSans-79"/>
      </defs>
      <use xlink:href="#DejaVuSans-79"/>
      <use x="78.710938" xlink:href="#DejaVuSans-99"/>
      <use x="133.691406" xlink:href="#DejaVuSans-101"/>
      <use x="195.214844" xlink:href="#DejaVuSans-97"/>
      <use x="256.494141" xlink:href="#DejaVuSans-110"/>
      <use x="319.873047" xlink:href="#DejaVuSans-105"/>
      <use x="347.65625" xlink:href="#DejaVuSans-97"/>
     </g>
    </g>
    <g id="line2d_34">
     <path d="M 50.98125 88.13375 
L 66.98125 88.13375 
" style="fill:none;stroke:#d3d3d3;stroke-linecap:square;stroke-width:2;"/>
    </g>
    <g id="line2d_35"/>
    <g id="text_23">
     <!-- Africa -->
     <g transform="translate(73.38125 90.93375)scale(0.08 -0.08)">
      <defs>
       <path d="M 37.109375 75.984375 
L 37.109375 68.5 
L 28.515625 68.5 
Q 23.6875 68.5 21.796875 66.546875 
Q 19.921875 64.59375 19.921875 59.515625 
L 19.921875 54.6875 
L 34.71875 54.6875 
L 34.71875 47.703125 
L 19.921875 47.703125 
L 19.921875 0 
L 10.890625 0 
L 10.890625 47.703125 
L 2.296875 47.703125 
L 2.296875 54.6875 
L 10.890625 54.6875 
L 10.890625 58.5 
Q 10.890625 67.625 15.140625 71.796875 
Q 19.390625 75.984375 28.609375 75.984375 
z
" id="DejaVuSans-102"/>
      </defs>
      <use xlink:href="#DejaVuSans-65"/>
      <use x="64.783203" xlink:href="#DejaVuSans-102"/>
      <use x="99.988281" xlink:href="#DejaVuSans-114"/>
      <use x="141.101562" xlink:href="#DejaVuSans-105"/>
      <use x="168.884766" xlink:href="#DejaVuSans-99"/>
      <use x="223.865234" xlink:href="#DejaVuSans-97"/>
     </g>
    </g>
   </g>
  </g>
 </g>
 <defs>
  <clipPath id="p7b6916ac38">
   <rect height="221.76" width="948.6" x="43.78125" y="7.2"/>
  </clipPath>
 </defs>
</svg>
