<?xml version="1.0" encoding="utf-8" standalone="no"?>
<!DOCTYPE svg PUBLIC "-//W3C//DTD SVG 1.1//EN"
  "http://www.w3.org/Graphics/SVG/1.1/DTD/svg11.dtd">
<svg height="298.620937pt" version="1.1" viewBox="0 0 1173.34375 298.620937" width="1173.34375pt" xmlns="http://www.w3.org/2000/svg" xmlns:xlink="http://www.w3.org/1999/xlink">
 <metadata>
  <rdf:RDF xmlns:cc="http://creativecommons.org/ns#" xmlns:dc="http://purl.org/dc/elements/1.1/" xmlns:rdf="http://www.w3.org/1999/02/22-rdf-syntax-ns#">
   <cc:Work>
    <dc:type rdf:resource="http://purl.org/dc/dcmitype/StillImage"/>
    <dc:date>2021-06-18T15:41:36.490913</dc:date>
    <dc:format>image/svg+xml</dc:format>
    <dc:creator>
     <cc:Agent>
      <dc:title>Matplotlib v3.4.2, https://matplotlib.org/</dc:title>
     </cc:Agent>
    </dc:creator>
   </cc:Work>
  </rdf:RDF>
 </metadata>
 <defs>
  <style type="text/css">*{stroke-linecap:butt;stroke-linejoin:round;}</style>
 </defs>
 <g id="figure_1">
  <g id="patch_1">
   <path d="M 0 298.620937 
L 1173.34375 298.620937 
L 1173.34375 0 
L 0 0 
z
" style="fill:#ffffff;"/>
  </g>
  <g id="axes_1">
   <g id="patch_2">
    <path d="M 50.14375 228.96 
L 1166.14375 228.96 
L 1166.14375 7.2 
L 50.14375 7.2 
z
" style="fill:#ffffff;"/>
   </g>
   <g id="matplotlib.axis_1">
    <g id="xtick_1">
     <g id="line2d_1">
      <defs>
       <path d="M 0 0 
L 0 3.5 
" id="ma6a005d77f" style="stroke:#000000;stroke-width:0.8;"/>
      </defs>
      <g>
       <use style="stroke:#000000;stroke-width:0.8;" x="199.426867" xlink:href="#ma6a005d77f" y="228.96"/>
      </g>
     </g>
     <g id="text_1">
      <!-- 2021-01 -->
      <g transform="translate(202.186242 277.742812)rotate(-90)scale(0.1 -0.1)">
       <defs>
        <path d="M 1228 531 
L 3431 531 
L 3431 0 
L 469 0 
L 469 531 
Q 828 903 1448 1529 
Q 2069 2156 2228 2338 
Q 2531 2678 2651 2914 
Q 2772 3150 2772 3378 
Q 2772 3750 2511 3984 
Q 2250 4219 1831 4219 
Q 1534 4219 1204 4116 
Q 875 4013 500 3803 
L 500 4441 
Q 881 4594 1212 4672 
Q 1544 4750 1819 4750 
Q 2544 4750 2975 4387 
Q 3406 4025 3406 3419 
Q 3406 3131 3298 2873 
Q 3191 2616 2906 2266 
Q 2828 2175 2409 1742 
Q 1991 1309 1228 531 
z
" id="DejaVuSans-32" transform="scale(0.015625)"/>
        <path d="M 2034 4250 
Q 1547 4250 1301 3770 
Q 1056 3291 1056 2328 
Q 1056 1369 1301 889 
Q 1547 409 2034 409 
Q 2525 409 2770 889 
Q 3016 1369 3016 2328 
Q 3016 3291 2770 3770 
Q 2525 4250 2034 4250 
z
M 2034 4750 
Q 2819 4750 3233 4129 
Q 3647 3509 3647 2328 
Q 3647 1150 3233 529 
Q 2819 -91 2034 -91 
Q 1250 -91 836 529 
Q 422 1150 422 2328 
Q 422 3509 836 4129 
Q 1250 4750 2034 4750 
z
" id="DejaVuSans-30" transform="scale(0.015625)"/>
        <path d="M 794 531 
L 1825 531 
L 1825 4091 
L 703 3866 
L 703 4441 
L 1819 4666 
L 2450 4666 
L 2450 531 
L 3481 531 
L 3481 0 
L 794 0 
L 794 531 
z
" id="DejaVuSans-31" transform="scale(0.015625)"/>
        <path d="M 313 2009 
L 1997 2009 
L 1997 1497 
L 313 1497 
L 313 2009 
z
" id="DejaVuSans-2d" transform="scale(0.015625)"/>
       </defs>
       <use xlink:href="#DejaVuSans-32"/>
       <use x="63.623047" xlink:href="#DejaVuSans-30"/>
       <use x="127.246094" xlink:href="#DejaVuSans-32"/>
       <use x="190.869141" xlink:href="#DejaVuSans-31"/>
       <use x="254.492188" xlink:href="#DejaVuSans-2d"/>
       <use x="290.576172" xlink:href="#DejaVuSans-30"/>
       <use x="354.199219" xlink:href="#DejaVuSans-31"/>
      </g>
     </g>
    </g>
    <g id="xtick_2">
     <g id="line2d_2">
      <g>
       <use style="stroke:#000000;stroke-width:0.8;" x="379.146347" xlink:href="#ma6a005d77f" y="228.96"/>
      </g>
     </g>
     <g id="text_2">
      <!-- 2021-02 -->
      <g transform="translate(381.905722 277.742812)rotate(-90)scale(0.1 -0.1)">
       <use xlink:href="#DejaVuSans-32"/>
       <use x="63.623047" xlink:href="#DejaVuSans-30"/>
       <use x="127.246094" xlink:href="#DejaVuSans-32"/>
       <use x="190.869141" xlink:href="#DejaVuSans-31"/>
       <use x="254.492188" xlink:href="#DejaVuSans-2d"/>
       <use x="290.576172" xlink:href="#DejaVuSans-30"/>
       <use x="354.199219" xlink:href="#DejaVuSans-32"/>
      </g>
     </g>
    </g>
    <g id="xtick_3">
     <g id="line2d_3">
      <g>
       <use style="stroke:#000000;stroke-width:0.8;" x="541.47362" xlink:href="#ma6a005d77f" y="228.96"/>
      </g>
     </g>
     <g id="text_3">
      <!-- 2021-03 -->
      <g transform="translate(544.232995 277.742812)rotate(-90)scale(0.1 -0.1)">
       <defs>
        <path d="M 2597 2516 
Q 3050 2419 3304 2112 
Q 3559 1806 3559 1356 
Q 3559 666 3084 287 
Q 2609 -91 1734 -91 
Q 1441 -91 1130 -33 
Q 819 25 488 141 
L 488 750 
Q 750 597 1062 519 
Q 1375 441 1716 441 
Q 2309 441 2620 675 
Q 2931 909 2931 1356 
Q 2931 1769 2642 2001 
Q 2353 2234 1838 2234 
L 1294 2234 
L 1294 2753 
L 1863 2753 
Q 2328 2753 2575 2939 
Q 2822 3125 2822 3475 
Q 2822 3834 2567 4026 
Q 2313 4219 1838 4219 
Q 1578 4219 1281 4162 
Q 984 4106 628 3988 
L 628 4550 
Q 988 4650 1302 4700 
Q 1616 4750 1894 4750 
Q 2613 4750 3031 4423 
Q 3450 4097 3450 3541 
Q 3450 3153 3228 2886 
Q 3006 2619 2597 2516 
z
" id="DejaVuSans-33" transform="scale(0.015625)"/>
       </defs>
       <use xlink:href="#DejaVuSans-32"/>
       <use x="63.623047" xlink:href="#DejaVuSans-30"/>
       <use x="127.246094" xlink:href="#DejaVuSans-32"/>
       <use x="190.869141" xlink:href="#DejaVuSans-31"/>
       <use x="254.492188" xlink:href="#DejaVuSans-2d"/>
       <use x="290.576172" xlink:href="#DejaVuSans-30"/>
       <use x="354.199219" xlink:href="#DejaVuSans-33"/>
      </g>
     </g>
    </g>
    <g id="xtick_4">
     <g id="line2d_4">
      <g>
       <use style="stroke:#000000;stroke-width:0.8;" x="721.193101" xlink:href="#ma6a005d77f" y="228.96"/>
      </g>
     </g>
     <g id="text_4">
      <!-- 2021-04 -->
      <g transform="translate(723.952476 277.742812)rotate(-90)scale(0.1 -0.1)">
       <defs>
        <path d="M 2419 4116 
L 825 1625 
L 2419 1625 
L 2419 4116 
z
M 2253 4666 
L 3047 4666 
L 3047 1625 
L 3713 1625 
L 3713 1100 
L 3047 1100 
L 3047 0 
L 2419 0 
L 2419 1100 
L 313 1100 
L 313 1709 
L 2253 4666 
z
" id="DejaVuSans-34" transform="scale(0.015625)"/>
       </defs>
       <use xlink:href="#DejaVuSans-32"/>
       <use x="63.623047" xlink:href="#DejaVuSans-30"/>
       <use x="127.246094" xlink:href="#DejaVuSans-32"/>
       <use x="190.869141" xlink:href="#DejaVuSans-31"/>
       <use x="254.492188" xlink:href="#DejaVuSans-2d"/>
       <use x="290.576172" xlink:href="#DejaVuSans-30"/>
       <use x="354.199219" xlink:href="#DejaVuSans-34"/>
      </g>
     </g>
    </g>
    <g id="xtick_5">
     <g id="line2d_5">
      <g>
       <use style="stroke:#000000;stroke-width:0.8;" x="895.115179" xlink:href="#ma6a005d77f" y="228.96"/>
      </g>
     </g>
     <g id="text_5">
      <!-- 2021-05 -->
      <g transform="translate(897.874554 277.742812)rotate(-90)scale(0.1 -0.1)">
       <defs>
        <path d="M 691 4666 
L 3169 4666 
L 3169 4134 
L 1269 4134 
L 1269 2991 
Q 1406 3038 1543 3061 
Q 1681 3084 1819 3084 
Q 2600 3084 3056 2656 
Q 3513 2228 3513 1497 
Q 3513 744 3044 326 
Q 2575 -91 1722 -91 
Q 1428 -91 1123 -41 
Q 819 9 494 109 
L 494 744 
Q 775 591 1075 516 
Q 1375 441 1709 441 
Q 2250 441 2565 725 
Q 2881 1009 2881 1497 
Q 2881 1984 2565 2268 
Q 2250 2553 1709 2553 
Q 1456 2553 1204 2497 
Q 953 2441 691 2322 
L 691 4666 
z
" id="DejaVuSans-35" transform="scale(0.015625)"/>
       </defs>
       <use xlink:href="#DejaVuSans-32"/>
       <use x="63.623047" xlink:href="#DejaVuSans-30"/>
       <use x="127.246094" xlink:href="#DejaVuSans-32"/>
       <use x="190.869141" xlink:href="#DejaVuSans-31"/>
       <use x="254.492188" xlink:href="#DejaVuSans-2d"/>
       <use x="290.576172" xlink:href="#DejaVuSans-30"/>
       <use x="354.199219" xlink:href="#DejaVuSans-35"/>
      </g>
     </g>
    </g>
    <g id="xtick_6">
     <g id="line2d_6">
      <g>
       <use style="stroke:#000000;stroke-width:0.8;" x="1074.834659" xlink:href="#ma6a005d77f" y="228.96"/>
      </g>
     </g>
     <g id="text_6">
      <!-- 2021-06 -->
      <g transform="translate(1077.594034 277.742812)rotate(-90)scale(0.1 -0.1)">
       <defs>
        <path d="M 2113 2584 
Q 1688 2584 1439 2293 
Q 1191 2003 1191 1497 
Q 1191 994 1439 701 
Q 1688 409 2113 409 
Q 2538 409 2786 701 
Q 3034 994 3034 1497 
Q 3034 2003 2786 2293 
Q 2538 2584 2113 2584 
z
M 3366 4563 
L 3366 3988 
Q 3128 4100 2886 4159 
Q 2644 4219 2406 4219 
Q 1781 4219 1451 3797 
Q 1122 3375 1075 2522 
Q 1259 2794 1537 2939 
Q 1816 3084 2150 3084 
Q 2853 3084 3261 2657 
Q 3669 2231 3669 1497 
Q 3669 778 3244 343 
Q 2819 -91 2113 -91 
Q 1303 -91 875 529 
Q 447 1150 447 2328 
Q 447 3434 972 4092 
Q 1497 4750 2381 4750 
Q 2619 4750 2861 4703 
Q 3103 4656 3366 4563 
z
" id="DejaVuSans-36" transform="scale(0.015625)"/>
       </defs>
       <use xlink:href="#DejaVuSans-32"/>
       <use x="63.623047" xlink:href="#DejaVuSans-30"/>
       <use x="127.246094" xlink:href="#DejaVuSans-32"/>
       <use x="190.869141" xlink:href="#DejaVuSans-31"/>
       <use x="254.492188" xlink:href="#DejaVuSans-2d"/>
       <use x="290.576172" xlink:href="#DejaVuSans-30"/>
       <use x="354.199219" xlink:href="#DejaVuSans-36"/>
      </g>
     </g>
    </g>
    <g id="text_7">
     <!-- Date -->
     <g transform="translate(596.192969 289.34125)scale(0.1 -0.1)">
      <defs>
       <path d="M 1259 4147 
L 1259 519 
L 2022 519 
Q 2988 519 3436 956 
Q 3884 1394 3884 2338 
Q 3884 3275 3436 3711 
Q 2988 4147 2022 4147 
L 1259 4147 
z
M 628 4666 
L 1925 4666 
Q 3281 4666 3915 4102 
Q 4550 3538 4550 2338 
Q 4550 1131 3912 565 
Q 3275 0 1925 0 
L 628 0 
L 628 4666 
z
" id="DejaVuSans-44" transform="scale(0.015625)"/>
       <path d="M 2194 1759 
Q 1497 1759 1228 1600 
Q 959 1441 959 1056 
Q 959 750 1161 570 
Q 1363 391 1709 391 
Q 2188 391 2477 730 
Q 2766 1069 2766 1631 
L 2766 1759 
L 2194 1759 
z
M 3341 1997 
L 3341 0 
L 2766 0 
L 2766 531 
Q 2569 213 2275 61 
Q 1981 -91 1556 -91 
Q 1019 -91 701 211 
Q 384 513 384 1019 
Q 384 1609 779 1909 
Q 1175 2209 1959 2209 
L 2766 2209 
L 2766 2266 
Q 2766 2663 2505 2880 
Q 2244 3097 1772 3097 
Q 1472 3097 1187 3025 
Q 903 2953 641 2809 
L 641 3341 
Q 956 3463 1253 3523 
Q 1550 3584 1831 3584 
Q 2591 3584 2966 3190 
Q 3341 2797 3341 1997 
z
" id="DejaVuSans-61" transform="scale(0.015625)"/>
       <path d="M 1172 4494 
L 1172 3500 
L 2356 3500 
L 2356 3053 
L 1172 3053 
L 1172 1153 
Q 1172 725 1289 603 
Q 1406 481 1766 481 
L 2356 481 
L 2356 0 
L 1766 0 
Q 1100 0 847 248 
Q 594 497 594 1153 
L 594 3053 
L 172 3053 
L 172 3500 
L 594 3500 
L 594 4494 
L 1172 4494 
z
" id="DejaVuSans-74" transform="scale(0.015625)"/>
       <path d="M 3597 1894 
L 3597 1613 
L 953 1613 
Q 991 1019 1311 708 
Q 1631 397 2203 397 
Q 2534 397 2845 478 
Q 3156 559 3463 722 
L 3463 178 
Q 3153 47 2828 -22 
Q 2503 -91 2169 -91 
Q 1331 -91 842 396 
Q 353 884 353 1716 
Q 353 2575 817 3079 
Q 1281 3584 2069 3584 
Q 2775 3584 3186 3129 
Q 3597 2675 3597 1894 
z
M 3022 2063 
Q 3016 2534 2758 2815 
Q 2500 3097 2075 3097 
Q 1594 3097 1305 2825 
Q 1016 2553 972 2059 
L 3022 2063 
z
" id="DejaVuSans-65" transform="scale(0.015625)"/>
      </defs>
      <use xlink:href="#DejaVuSans-44"/>
      <use x="77.001953" xlink:href="#DejaVuSans-61"/>
      <use x="138.28125" xlink:href="#DejaVuSans-74"/>
      <use x="177.490234" xlink:href="#DejaVuSans-65"/>
     </g>
    </g>
   </g>
   <g id="matplotlib.axis_2">
    <g id="ytick_1">
     <g id="line2d_7">
      <defs>
       <path d="M 0 0 
L -3.5 0 
" id="m7409942b7f" style="stroke:#000000;stroke-width:0.8;"/>
      </defs>
      <g>
       <use style="stroke:#000000;stroke-width:0.8;" x="50.14375" xlink:href="#m7409942b7f" y="228.96"/>
      </g>
     </g>
     <g id="text_8">
      <!-- 0.00 -->
      <g transform="translate(20.878125 232.759219)scale(0.1 -0.1)">
       <defs>
        <path d="M 684 794 
L 1344 794 
L 1344 0 
L 684 0 
L 684 794 
z
" id="DejaVuSans-2e" transform="scale(0.015625)"/>
       </defs>
       <use xlink:href="#DejaVuSans-30"/>
       <use x="63.623047" xlink:href="#DejaVuSans-2e"/>
       <use x="95.410156" xlink:href="#DejaVuSans-30"/>
       <use x="159.033203" xlink:href="#DejaVuSans-30"/>
      </g>
     </g>
    </g>
    <g id="ytick_2">
     <g id="line2d_8">
      <g>
       <use style="stroke:#000000;stroke-width:0.8;" x="50.14375" xlink:href="#m7409942b7f" y="203.273514"/>
      </g>
     </g>
     <g id="text_9">
      <!-- 0.05 -->
      <g transform="translate(20.878125 207.072732)scale(0.1 -0.1)">
       <use xlink:href="#DejaVuSans-30"/>
       <use x="63.623047" xlink:href="#DejaVuSans-2e"/>
       <use x="95.410156" xlink:href="#DejaVuSans-30"/>
       <use x="159.033203" xlink:href="#DejaVuSans-35"/>
      </g>
     </g>
    </g>
    <g id="ytick_3">
     <g id="line2d_9">
      <g>
       <use style="stroke:#000000;stroke-width:0.8;" x="50.14375" xlink:href="#m7409942b7f" y="177.587027"/>
      </g>
     </g>
     <g id="text_10">
      <!-- 0.10 -->
      <g transform="translate(20.878125 181.386246)scale(0.1 -0.1)">
       <use xlink:href="#DejaVuSans-30"/>
       <use x="63.623047" xlink:href="#DejaVuSans-2e"/>
       <use x="95.410156" xlink:href="#DejaVuSans-31"/>
       <use x="159.033203" xlink:href="#DejaVuSans-30"/>
      </g>
     </g>
    </g>
    <g id="ytick_4">
     <g id="line2d_10">
      <g>
       <use style="stroke:#000000;stroke-width:0.8;" x="50.14375" xlink:href="#m7409942b7f" y="151.900541"/>
      </g>
     </g>
     <g id="text_11">
      <!-- 0.15 -->
      <g transform="translate(20.878125 155.699759)scale(0.1 -0.1)">
       <use xlink:href="#DejaVuSans-30"/>
       <use x="63.623047" xlink:href="#DejaVuSans-2e"/>
       <use x="95.410156" xlink:href="#DejaVuSans-31"/>
       <use x="159.033203" xlink:href="#DejaVuSans-35"/>
      </g>
     </g>
    </g>
    <g id="ytick_5">
     <g id="line2d_11">
      <g>
       <use style="stroke:#000000;stroke-width:0.8;" x="50.14375" xlink:href="#m7409942b7f" y="126.214054"/>
      </g>
     </g>
     <g id="text_12">
      <!-- 0.20 -->
      <g transform="translate(20.878125 130.013273)scale(0.1 -0.1)">
       <use xlink:href="#DejaVuSans-30"/>
       <use x="63.623047" xlink:href="#DejaVuSans-2e"/>
       <use x="95.410156" xlink:href="#DejaVuSans-32"/>
       <use x="159.033203" xlink:href="#DejaVuSans-30"/>
      </g>
     </g>
    </g>
    <g id="ytick_6">
     <g id="line2d_12">
      <g>
       <use style="stroke:#000000;stroke-width:0.8;" x="50.14375" xlink:href="#m7409942b7f" y="100.527568"/>
      </g>
     </g>
     <g id="text_13">
      <!-- 0.25 -->
      <g transform="translate(20.878125 104.326786)scale(0.1 -0.1)">
       <use xlink:href="#DejaVuSans-30"/>
       <use x="63.623047" xlink:href="#DejaVuSans-2e"/>
       <use x="95.410156" xlink:href="#DejaVuSans-32"/>
       <use x="159.033203" xlink:href="#DejaVuSans-35"/>
      </g>
     </g>
    </g>
    <g id="ytick_7">
     <g id="line2d_13">
      <g>
       <use style="stroke:#000000;stroke-width:0.8;" x="50.14375" xlink:href="#m7409942b7f" y="74.841081"/>
      </g>
     </g>
     <g id="text_14">
      <!-- 0.30 -->
      <g transform="translate(20.878125 78.6403)scale(0.1 -0.1)">
       <use xlink:href="#DejaVuSans-30"/>
       <use x="63.623047" xlink:href="#DejaVuSans-2e"/>
       <use x="95.410156" xlink:href="#DejaVuSans-33"/>
       <use x="159.033203" xlink:href="#DejaVuSans-30"/>
      </g>
     </g>
    </g>
    <g id="ytick_8">
     <g id="line2d_14">
      <g>
       <use style="stroke:#000000;stroke-width:0.8;" x="50.14375" xlink:href="#m7409942b7f" y="49.154595"/>
      </g>
     </g>
     <g id="text_15">
      <!-- 0.35 -->
      <g transform="translate(20.878125 52.953813)scale(0.1 -0.1)">
       <use xlink:href="#DejaVuSans-30"/>
       <use x="63.623047" xlink:href="#DejaVuSans-2e"/>
       <use x="95.410156" xlink:href="#DejaVuSans-33"/>
       <use x="159.033203" xlink:href="#DejaVuSans-35"/>
      </g>
     </g>
    </g>
    <g id="ytick_9">
     <g id="line2d_15">
      <g>
       <use style="stroke:#000000;stroke-width:0.8;" x="50.14375" xlink:href="#m7409942b7f" y="23.468108"/>
      </g>
     </g>
     <g id="text_16">
      <!-- 0.40 -->
      <g transform="translate(20.878125 27.267327)scale(0.1 -0.1)">
       <use xlink:href="#DejaVuSans-30"/>
       <use x="63.623047" xlink:href="#DejaVuSans-2e"/>
       <use x="95.410156" xlink:href="#DejaVuSans-34"/>
       <use x="159.033203" xlink:href="#DejaVuSans-30"/>
      </g>
     </g>
    </g>
    <g id="text_17">
     <!-- Frequency (7 day rolling average) -->
     <g transform="translate(14.798438 202.529219)rotate(-90)scale(0.1 -0.1)">
      <defs>
       <path d="M 628 4666 
L 3309 4666 
L 3309 4134 
L 1259 4134 
L 1259 2759 
L 3109 2759 
L 3109 2228 
L 1259 2228 
L 1259 0 
L 628 0 
L 628 4666 
z
" id="DejaVuSans-46" transform="scale(0.015625)"/>
       <path d="M 2631 2963 
Q 2534 3019 2420 3045 
Q 2306 3072 2169 3072 
Q 1681 3072 1420 2755 
Q 1159 2438 1159 1844 
L 1159 0 
L 581 0 
L 581 3500 
L 1159 3500 
L 1159 2956 
Q 1341 3275 1631 3429 
Q 1922 3584 2338 3584 
Q 2397 3584 2469 3576 
Q 2541 3569 2628 3553 
L 2631 2963 
z
" id="DejaVuSans-72" transform="scale(0.015625)"/>
       <path d="M 947 1747 
Q 947 1113 1208 752 
Q 1469 391 1925 391 
Q 2381 391 2643 752 
Q 2906 1113 2906 1747 
Q 2906 2381 2643 2742 
Q 2381 3103 1925 3103 
Q 1469 3103 1208 2742 
Q 947 2381 947 1747 
z
M 2906 525 
Q 2725 213 2448 61 
Q 2172 -91 1784 -91 
Q 1150 -91 751 415 
Q 353 922 353 1747 
Q 353 2572 751 3078 
Q 1150 3584 1784 3584 
Q 2172 3584 2448 3432 
Q 2725 3281 2906 2969 
L 2906 3500 
L 3481 3500 
L 3481 -1331 
L 2906 -1331 
L 2906 525 
z
" id="DejaVuSans-71" transform="scale(0.015625)"/>
       <path d="M 544 1381 
L 544 3500 
L 1119 3500 
L 1119 1403 
Q 1119 906 1312 657 
Q 1506 409 1894 409 
Q 2359 409 2629 706 
Q 2900 1003 2900 1516 
L 2900 3500 
L 3475 3500 
L 3475 0 
L 2900 0 
L 2900 538 
Q 2691 219 2414 64 
Q 2138 -91 1772 -91 
Q 1169 -91 856 284 
Q 544 659 544 1381 
z
M 1991 3584 
L 1991 3584 
z
" id="DejaVuSans-75" transform="scale(0.015625)"/>
       <path d="M 3513 2113 
L 3513 0 
L 2938 0 
L 2938 2094 
Q 2938 2591 2744 2837 
Q 2550 3084 2163 3084 
Q 1697 3084 1428 2787 
Q 1159 2491 1159 1978 
L 1159 0 
L 581 0 
L 581 3500 
L 1159 3500 
L 1159 2956 
Q 1366 3272 1645 3428 
Q 1925 3584 2291 3584 
Q 2894 3584 3203 3211 
Q 3513 2838 3513 2113 
z
" id="DejaVuSans-6e" transform="scale(0.015625)"/>
       <path d="M 3122 3366 
L 3122 2828 
Q 2878 2963 2633 3030 
Q 2388 3097 2138 3097 
Q 1578 3097 1268 2742 
Q 959 2388 959 1747 
Q 959 1106 1268 751 
Q 1578 397 2138 397 
Q 2388 397 2633 464 
Q 2878 531 3122 666 
L 3122 134 
Q 2881 22 2623 -34 
Q 2366 -91 2075 -91 
Q 1284 -91 818 406 
Q 353 903 353 1747 
Q 353 2603 823 3093 
Q 1294 3584 2113 3584 
Q 2378 3584 2631 3529 
Q 2884 3475 3122 3366 
z
" id="DejaVuSans-63" transform="scale(0.015625)"/>
       <path d="M 2059 -325 
Q 1816 -950 1584 -1140 
Q 1353 -1331 966 -1331 
L 506 -1331 
L 506 -850 
L 844 -850 
Q 1081 -850 1212 -737 
Q 1344 -625 1503 -206 
L 1606 56 
L 191 3500 
L 800 3500 
L 1894 763 
L 2988 3500 
L 3597 3500 
L 2059 -325 
z
" id="DejaVuSans-79" transform="scale(0.015625)"/>
       <path id="DejaVuSans-20" transform="scale(0.015625)"/>
       <path d="M 1984 4856 
Q 1566 4138 1362 3434 
Q 1159 2731 1159 2009 
Q 1159 1288 1364 580 
Q 1569 -128 1984 -844 
L 1484 -844 
Q 1016 -109 783 600 
Q 550 1309 550 2009 
Q 550 2706 781 3412 
Q 1013 4119 1484 4856 
L 1984 4856 
z
" id="DejaVuSans-28" transform="scale(0.015625)"/>
       <path d="M 525 4666 
L 3525 4666 
L 3525 4397 
L 1831 0 
L 1172 0 
L 2766 4134 
L 525 4134 
L 525 4666 
z
" id="DejaVuSans-37" transform="scale(0.015625)"/>
       <path d="M 2906 2969 
L 2906 4863 
L 3481 4863 
L 3481 0 
L 2906 0 
L 2906 525 
Q 2725 213 2448 61 
Q 2172 -91 1784 -91 
Q 1150 -91 751 415 
Q 353 922 353 1747 
Q 353 2572 751 3078 
Q 1150 3584 1784 3584 
Q 2172 3584 2448 3432 
Q 2725 3281 2906 2969 
z
M 947 1747 
Q 947 1113 1208 752 
Q 1469 391 1925 391 
Q 2381 391 2643 752 
Q 2906 1113 2906 1747 
Q 2906 2381 2643 2742 
Q 2381 3103 1925 3103 
Q 1469 3103 1208 2742 
Q 947 2381 947 1747 
z
" id="DejaVuSans-64" transform="scale(0.015625)"/>
       <path d="M 1959 3097 
Q 1497 3097 1228 2736 
Q 959 2375 959 1747 
Q 959 1119 1226 758 
Q 1494 397 1959 397 
Q 2419 397 2687 759 
Q 2956 1122 2956 1747 
Q 2956 2369 2687 2733 
Q 2419 3097 1959 3097 
z
M 1959 3584 
Q 2709 3584 3137 3096 
Q 3566 2609 3566 1747 
Q 3566 888 3137 398 
Q 2709 -91 1959 -91 
Q 1206 -91 779 398 
Q 353 888 353 1747 
Q 353 2609 779 3096 
Q 1206 3584 1959 3584 
z
" id="DejaVuSans-6f" transform="scale(0.015625)"/>
       <path d="M 603 4863 
L 1178 4863 
L 1178 0 
L 603 0 
L 603 4863 
z
" id="DejaVuSans-6c" transform="scale(0.015625)"/>
       <path d="M 603 3500 
L 1178 3500 
L 1178 0 
L 603 0 
L 603 3500 
z
M 603 4863 
L 1178 4863 
L 1178 4134 
L 603 4134 
L 603 4863 
z
" id="DejaVuSans-69" transform="scale(0.015625)"/>
       <path d="M 2906 1791 
Q 2906 2416 2648 2759 
Q 2391 3103 1925 3103 
Q 1463 3103 1205 2759 
Q 947 2416 947 1791 
Q 947 1169 1205 825 
Q 1463 481 1925 481 
Q 2391 481 2648 825 
Q 2906 1169 2906 1791 
z
M 3481 434 
Q 3481 -459 3084 -895 
Q 2688 -1331 1869 -1331 
Q 1566 -1331 1297 -1286 
Q 1028 -1241 775 -1147 
L 775 -588 
Q 1028 -725 1275 -790 
Q 1522 -856 1778 -856 
Q 2344 -856 2625 -561 
Q 2906 -266 2906 331 
L 2906 616 
Q 2728 306 2450 153 
Q 2172 0 1784 0 
Q 1141 0 747 490 
Q 353 981 353 1791 
Q 353 2603 747 3093 
Q 1141 3584 1784 3584 
Q 2172 3584 2450 3431 
Q 2728 3278 2906 2969 
L 2906 3500 
L 3481 3500 
L 3481 434 
z
" id="DejaVuSans-67" transform="scale(0.015625)"/>
       <path d="M 191 3500 
L 800 3500 
L 1894 563 
L 2988 3500 
L 3597 3500 
L 2284 0 
L 1503 0 
L 191 3500 
z
" id="DejaVuSans-76" transform="scale(0.015625)"/>
       <path d="M 513 4856 
L 1013 4856 
Q 1481 4119 1714 3412 
Q 1947 2706 1947 2009 
Q 1947 1309 1714 600 
Q 1481 -109 1013 -844 
L 513 -844 
Q 928 -128 1133 580 
Q 1338 1288 1338 2009 
Q 1338 2731 1133 3434 
Q 928 4138 513 4856 
z
" id="DejaVuSans-29" transform="scale(0.015625)"/>
      </defs>
      <use xlink:href="#DejaVuSans-46"/>
      <use x="50.269531" xlink:href="#DejaVuSans-72"/>
      <use x="89.132812" xlink:href="#DejaVuSans-65"/>
      <use x="150.65625" xlink:href="#DejaVuSans-71"/>
      <use x="214.132812" xlink:href="#DejaVuSans-75"/>
      <use x="277.511719" xlink:href="#DejaVuSans-65"/>
      <use x="339.035156" xlink:href="#DejaVuSans-6e"/>
      <use x="402.414062" xlink:href="#DejaVuSans-63"/>
      <use x="457.394531" xlink:href="#DejaVuSans-79"/>
      <use x="516.574219" xlink:href="#DejaVuSans-20"/>
      <use x="548.361328" xlink:href="#DejaVuSans-28"/>
      <use x="587.375" xlink:href="#DejaVuSans-37"/>
      <use x="650.998047" xlink:href="#DejaVuSans-20"/>
      <use x="682.785156" xlink:href="#DejaVuSans-64"/>
      <use x="746.261719" xlink:href="#DejaVuSans-61"/>
      <use x="807.541016" xlink:href="#DejaVuSans-79"/>
      <use x="866.720703" xlink:href="#DejaVuSans-20"/>
      <use x="898.507812" xlink:href="#DejaVuSans-72"/>
      <use x="937.371094" xlink:href="#DejaVuSans-6f"/>
      <use x="998.552734" xlink:href="#DejaVuSans-6c"/>
      <use x="1026.335938" xlink:href="#DejaVuSans-6c"/>
      <use x="1054.119141" xlink:href="#DejaVuSans-69"/>
      <use x="1081.902344" xlink:href="#DejaVuSans-6e"/>
      <use x="1145.28125" xlink:href="#DejaVuSans-67"/>
      <use x="1208.757812" xlink:href="#DejaVuSans-20"/>
      <use x="1240.544922" xlink:href="#DejaVuSans-61"/>
      <use x="1301.824219" xlink:href="#DejaVuSans-76"/>
      <use x="1361.003906" xlink:href="#DejaVuSans-65"/>
      <use x="1422.527344" xlink:href="#DejaVuSans-72"/>
      <use x="1463.640625" xlink:href="#DejaVuSans-61"/>
      <use x="1524.919922" xlink:href="#DejaVuSans-67"/>
      <use x="1588.396484" xlink:href="#DejaVuSans-65"/>
      <use x="1649.919922" xlink:href="#DejaVuSans-29"/>
     </g>
    </g>
   </g>
   <g id="line2d_16">
    <path clip-path="url(#p22a4c9a463)" d="M 129.858036 226.325489 
L 135.655438 228.96 
L 222.616477 228.96 
L 228.41388 226.701847 
L 234.211282 226.100994 
L 251.60349 226.100994 
L 257.400893 228.313257 
L 263.198295 228.914111 
L 268.995698 228.361713 
L 274.793101 227.505497 
L 280.590503 227.092863 
L 292.185308 227.138752 
L 297.982711 227.484936 
L 303.780114 227.017106 
L 309.577516 226.706178 
L 315.374919 226.706178 
L 321.172321 226.426216 
L 326.969724 226.63243 
L 332.767127 227.956475 
L 338.564529 228.305696 
L 350.159334 227.98064 
L 355.956737 227.577263 
L 361.75414 227.463354 
L 367.551542 227.607066 
L 373.348945 227.444806 
L 379.146347 226.753771 
L 384.94375 226.973098 
L 390.741153 226.738209 
L 396.538555 226.77304 
L 402.335958 226.614786 
L 408.13336 227.626315 
L 413.930763 227.677789 
L 419.728166 227.332681 
L 425.525568 227.153838 
L 431.322971 227.35697 
L 442.917776 227.320033 
L 448.715179 227.658724 
L 454.512581 227.130768 
L 460.309984 226.461385 
L 471.904789 225.871682 
L 477.702192 225.896524 
L 489.296997 227.187293 
L 500.891802 225.954759 
L 506.689205 226.003856 
L 512.486607 225.703765 
L 518.28401 225.714016 
L 524.081412 226.780583 
L 529.878815 227.330207 
L 535.676218 227.44563 
L 541.47362 226.979712 
L 547.271023 227.087548 
L 553.068425 226.635392 
L 558.865828 226.30024 
L 564.663231 225.803588 
L 570.460633 225.762645 
L 576.258036 225.139954 
L 582.055438 224.835843 
L 599.447646 226.232114 
L 611.042451 226.516044 
L 616.839854 225.988801 
L 622.637256 224.470639 
L 628.434659 224.008008 
L 634.232062 224.218947 
L 640.029464 224.22392 
L 645.826867 224.61531 
L 651.624269 225.656625 
L 657.421672 225.366655 
L 663.219075 224.517885 
L 669.016477 224.33867 
L 674.81388 223.939868 
L 680.611282 224.289012 
L 686.408685 225.078473 
L 692.206088 225.376896 
L 698.00349 225.561139 
L 703.800893 225.391766 
L 709.598295 225.103576 
L 715.395698 224.581779 
L 721.193101 224.941941 
L 726.990503 224.554907 
L 744.382711 225.100914 
L 750.180114 225.001905 
L 755.977516 225.505112 
L 761.774919 225.753293 
L 767.572321 225.287658 
L 773.369724 225.269 
L 784.964529 224.825889 
L 802.356737 224.592862 
L 808.15414 225.083331 
L 813.951542 225.412932 
L 819.748945 225.488806 
L 825.546347 225.996105 
L 831.34375 225.900732 
L 837.141153 225.419698 
L 842.938555 225.090911 
L 848.735958 225.132645 
L 854.53336 225.311479 
L 866.128166 226.103706 
L 871.925568 226.007506 
L 883.520373 225.301978 
L 889.317776 225.189256 
L 895.115179 224.928127 
L 900.912581 225.235124 
L 906.709984 225.780017 
L 912.507386 225.592284 
L 924.102192 226.670752 
L 929.899594 226.261205 
L 935.696997 226.044528 
L 941.494399 226.690277 
L 947.291802 226.776702 
L 953.089205 226.362939 
L 958.886607 226.645542 
L 964.68401 226.597075 
L 970.481412 226.399659 
L 976.278815 225.909841 
L 982.076218 226.086754 
L 987.87362 226.509774 
L 999.468425 226.224092 
L 1005.265828 226.607927 
L 1011.063231 226.596132 
L 1016.860633 226.760741 
L 1022.658036 227.330619 
L 1028.455438 227.745309 
L 1034.252841 227.156175 
L 1040.050244 227.407419 
L 1051.645049 227.197894 
L 1057.442451 227.220847 
L 1063.239854 227.578265 
L 1069.037256 227.406078 
L 1074.834659 226.831116 
L 1080.632062 226.907539 
L 1086.429464 226.770086 
L 1098.024269 227.726742 
L 1103.821672 228.525877 
L 1109.619075 228.71001 
L 1115.416477 225.290502 
L 1115.416477 225.290502 
" style="fill:none;stroke:#947383;stroke-linecap:square;stroke-width:2;"/>
   </g>
   <g id="line2d_17">
    <path clip-path="url(#p22a4c9a463)" d="M 118.263231 225.557816 
L 124.060633 228.96 
L 245.806088 228.902342 
L 263.198295 228.612204 
L 292.185308 228.476323 
L 297.982711 228.532843 
L 309.577516 228.430229 
L 315.374919 228.486313 
L 321.172321 228.669461 
L 326.969724 228.597406 
L 332.767127 228.750018 
L 338.564529 228.747834 
L 344.361932 228.587377 
L 350.159334 228.542313 
L 355.956737 228.612044 
L 361.75414 228.4437 
L 379.146347 228.618689 
L 413.930763 228.107528 
L 419.728166 228.216893 
L 431.322971 228.207845 
L 437.120373 228.255223 
L 448.715179 227.70603 
L 454.512581 227.729246 
L 466.107386 227.197071 
L 477.702192 227.452917 
L 495.094399 226.972932 
L 512.486607 226.111061 
L 518.28401 225.937018 
L 524.081412 225.465985 
L 535.676218 225.349601 
L 541.47362 224.632992 
L 547.271023 224.627363 
L 553.068425 225.168991 
L 558.865828 225.324538 
L 564.663231 225.021542 
L 570.460633 225.49921 
L 582.055438 224.776638 
L 587.852841 224.917298 
L 593.650244 224.867263 
L 599.447646 224.567655 
L 605.245049 225.072417 
L 611.042451 225.441446 
L 616.839854 225.277295 
L 622.637256 225.697734 
L 628.434659 226.292889 
L 651.624269 226.907018 
L 657.421672 226.378313 
L 669.016477 224.657196 
L 674.81388 224.248797 
L 680.611282 223.276122 
L 686.408685 223.153991 
L 692.206088 223.263486 
L 698.00349 223.706002 
L 703.800893 223.3599 
L 709.598295 223.662703 
L 715.395698 223.785062 
L 721.193101 224.209034 
L 732.787906 223.768506 
L 738.585308 223.228301 
L 750.180114 223.047866 
L 755.977516 223.222089 
L 761.774919 223.88912 
L 767.572321 224.987423 
L 773.369724 225.260876 
L 779.167127 224.827384 
L 784.964529 224.815999 
L 790.761932 225.116299 
L 796.559334 225.195321 
L 808.15414 226.081494 
L 813.951542 226.462513 
L 819.748945 226.081082 
L 825.546347 226.173169 
L 831.34375 225.851066 
L 842.938555 225.995338 
L 848.735958 226.502576 
L 854.53336 226.546937 
L 866.128166 227.455599 
L 871.925568 227.450748 
L 877.722971 227.279087 
L 883.520373 226.938497 
L 889.317776 226.787362 
L 895.115179 226.322616 
L 900.912581 226.028462 
L 906.709984 225.930143 
L 918.304789 226.237879 
L 935.696997 227.498093 
L 941.494399 227.906714 
L 953.089205 227.831196 
L 958.886607 227.982657 
L 964.68401 227.964343 
L 970.481412 227.799656 
L 993.671023 228.017024 
L 1016.860633 227.943257 
L 1028.455438 228.155498 
L 1034.252841 228.526958 
L 1045.847646 228.663578 
L 1051.645049 228.502534 
L 1057.442451 227.865005 
L 1069.037256 227.865005 
L 1080.632062 228.144556 
L 1086.429464 228.96 
L 1092.226867 228.475349 
L 1092.226867 228.475349 
" style="fill:none;stroke:#96c6ad;stroke-linecap:square;stroke-width:2;"/>
   </g>
   <g id="line2d_18">
    <path clip-path="url(#p22a4c9a463)" d="M 124.060633 228.838876 
L 141.452841 228.96 
L 211.021672 228.96 
L 216.819075 228.758439 
L 240.008685 228.758439 
L 245.806088 228.9123 
L 268.995698 228.804524 
L 280.590503 228.570326 
L 292.185308 228.566221 
L 309.577516 228.509812 
L 321.172321 228.360897 
L 332.767127 228.55342 
L 338.564529 228.759324 
L 361.75414 228.576137 
L 367.551542 228.350074 
L 379.146347 228.601741 
L 390.741153 228.398802 
L 396.538555 228.624865 
L 402.335958 228.489048 
L 419.728166 228.438671 
L 425.525568 228.276611 
L 460.309984 228.606501 
L 466.107386 228.708079 
L 471.904789 228.49118 
L 489.296997 228.28989 
L 495.094399 228.085299 
L 500.891802 228.107103 
L 506.689205 227.773994 
L 512.486607 227.66669 
L 524.081412 227.761787 
L 529.878815 227.369711 
L 535.676218 227.531705 
L 541.47362 227.489897 
L 547.271023 227.205076 
L 553.068425 226.77912 
L 558.865828 227.118676 
L 564.663231 226.990015 
L 570.460633 226.59138 
L 593.650244 227.123408 
L 599.447646 227.486796 
L 616.839854 227.770316 
L 622.637256 227.719075 
L 628.434659 227.90193 
L 634.232062 227.804215 
L 640.029464 227.971049 
L 651.624269 227.247504 
L 657.421672 227.259889 
L 669.016477 227.477406 
L 674.81388 227.952766 
L 680.611282 228.196298 
L 692.206088 228.216587 
L 703.800893 228.304247 
L 715.395698 228.365165 
L 726.990503 227.493946 
L 732.787906 227.557779 
L 738.585308 227.7649 
L 744.382711 227.80326 
L 750.180114 228.167101 
L 755.977516 228.293604 
L 779.167127 228.251322 
L 784.964529 228.384194 
L 790.761932 228.315349 
L 796.559334 228.01408 
L 808.15414 227.815181 
L 819.748945 227.275796 
L 825.546347 227.691464 
L 831.34375 227.209183 
L 837.141153 227.006026 
L 842.938555 226.963384 
L 848.735958 227.371646 
L 854.53336 226.853382 
L 860.330763 226.919902 
L 871.925568 227.50372 
L 877.722971 227.108163 
L 895.115179 227.981738 
L 900.912581 227.452613 
L 906.709984 227.118614 
L 918.304789 227.076139 
L 924.102192 226.814699 
L 929.899594 227.321255 
L 935.696997 228.050812 
L 947.291802 228.194835 
L 953.089205 228.281537 
L 958.886607 228.223094 
L 970.481412 227.760364 
L 976.278815 227.78293 
L 993.671023 228.379794 
L 999.468425 228.682763 
L 1005.265828 228.815167 
L 1016.860633 228.616719 
L 1028.455438 228.706783 
L 1040.050244 228.806247 
L 1051.645049 228.905231 
L 1063.239854 228.96 
L 1069.037256 228.915015 
L 1069.037256 228.915015 
" style="fill:none;stroke:#525886;stroke-linecap:square;stroke-width:2;"/>
   </g>
   <g id="line2d_19">
    <path clip-path="url(#p22a4c9a463)" d="M 257.400893 181.134208 
L 263.198295 222.232587 
L 268.995698 222.232587 
L 274.793101 226.513668 
L 280.590503 228.650524 
L 303.780114 228.650524 
L 309.577516 228.193239 
L 315.374919 228.193239 
L 321.172321 227.851891 
L 332.767127 227.851891 
L 338.564529 228.618651 
L 344.361932 228.618651 
L 350.159334 228.96 
L 355.956737 228.96 
L 361.75414 228.585015 
L 367.551542 227.861452 
L 373.348945 226.619809 
L 379.146347 226.619809 
L 390.741153 226.445126 
L 396.538555 227.168689 
L 402.335958 228.410332 
L 408.13336 228.410332 
L 413.930763 228.545702 
L 419.728166 228.96 
L 425.525568 228.96 
L 437.120373 227.950206 
L 442.917776 225.85335 
L 448.715179 225.282539 
L 454.512581 225.282539 
L 466.107386 226.292333 
L 471.904789 228.389189 
L 477.702192 228.96 
L 483.499594 228.522783 
L 489.296997 226.795961 
L 495.094399 226.328934 
L 500.891802 226.328934 
L 512.486607 225.44332 
L 518.28401 226.930082 
L 524.081412 226.219987 
L 529.878815 226.219987 
L 535.676218 224.964326 
L 541.47362 225.217577 
L 547.271023 224.455238 
L 553.068425 224.56209 
L 558.865828 223.038315 
L 564.663231 224.404787 
L 570.460633 224.39121 
L 576.258036 224.732864 
L 582.055438 223.245768 
L 587.852841 224.40584 
L 593.650244 224.319046 
L 599.447646 223.564486 
L 605.245049 223.32867 
L 611.042451 225.886036 
L 616.839854 223.205414 
L 622.637256 222.633532 
L 628.434659 223.117177 
L 640.029464 221.820127 
L 645.826867 223.849175 
L 651.624269 224.327453 
L 657.421672 224.590153 
L 663.219075 226.004603 
L 669.016477 223.997261 
L 674.81388 222.390631 
L 680.611282 222.520565 
L 686.408685 221.776756 
L 692.206088 221.704114 
L 698.00349 223.971952 
L 703.800893 225.59076 
L 709.598295 225.209907 
L 715.395698 225.645413 
L 721.193101 225.705392 
L 726.990503 225.193457 
L 732.787906 226.018486 
L 738.585308 226.611623 
L 744.382711 227.054188 
L 750.180114 226.655273 
L 755.977516 227.105729 
L 761.774919 226.852696 
L 779.167127 227.579562 
L 784.964529 227.563274 
L 790.761932 227.854965 
L 802.356737 227.640861 
L 808.15414 227.619842 
L 813.951542 228.073967 
L 825.546347 227.895714 
L 837.141153 228.513257 
L 842.938555 228.513257 
L 848.735958 228.72911 
L 860.330763 228.746391 
L 866.128166 228.333757 
L 871.925568 228.150609 
L 883.520373 227.609859 
L 889.317776 227.609859 
L 895.115179 227.041625 
L 900.912581 226.301905 
L 906.709984 225.706072 
L 912.507386 225.653585 
L 918.304789 225.475516 
L 929.899594 227.379252 
L 935.696997 228.270757 
L 941.494399 227.384027 
L 947.291802 227.562096 
L 953.089205 227.562096 
L 958.886607 226.601853 
L 964.68401 226.601853 
L 970.481412 227.999758 
L 976.278815 227.999758 
L 982.076218 227.057134 
L 987.87362 228.017377 
L 1005.265828 228.017377 
L 1011.063231 228.96 
L 1057.442451 228.96 
L 1063.239854 223.690977 
L 1063.239854 223.690977 
" style="fill:none;stroke:#937252;stroke-linecap:square;stroke-width:2;"/>
   </g>
   <g id="line2d_20">
    <path clip-path="url(#p22a4c9a463)" d="M 100.871023 194.711351 
L 106.668425 228.96 
L 124.060633 228.96 
L 129.858036 177.587027 
L 141.452841 177.587027 
L 147.250244 151.900541 
L 153.047646 151.900541 
L 158.845049 203.273514 
L 164.642451 203.273514 
L 170.439854 151.900541 
L 176.237256 143.338378 
L 182.034659 96.635676 
L 193.629464 96.635676 
L 199.426867 148.008649 
L 205.224269 130.884324 
L 211.021672 148.231042 
L 216.819075 122.544556 
L 222.616477 76.879691 
L 228.41388 67.366178 
L 234.211282 98.189961 
L 240.008685 98.189961 
L 245.806088 123.876448 
L 251.60349 154.129421 
L 257.400893 153.36834 
L 263.198295 166.831602 
L 268.995698 160.226505 
L 274.793101 129.402721 
L 280.590503 138.185843 
L 286.387906 148.460437 
L 292.185308 104.173391 
L 297.982711 88.7615 
L 303.780114 73.920418 
L 309.577516 69.132973 
L 315.374919 17.76 
L 321.172321 46.300541 
L 326.969724 77.124324 
L 332.767127 122.789189 
L 338.564529 108.518919 
L 344.361932 102.810811 
L 350.159334 78.940541 
L 355.956737 77.472741 
L 361.75414 75.570039 
L 367.551542 98.045714 
L 373.348945 145.786255 
L 379.146347 171.939768 
L 384.94375 193.956757 
L 396.538555 151.255598 
L 402.335958 149.967248 
L 408.13336 136.267789 
L 413.930763 102.01914 
L 419.728166 98.732653 
L 425.525568 101.790568 
L 431.322971 91.87027 
L 437.120373 85.020541 
L 442.917776 95.558586 
L 448.715179 85.501443 
L 454.512581 86.35766 
L 460.309984 74.028146 
L 466.107386 101.953967 
L 471.904789 116.180329 
L 477.702192 148.846057 
L 483.499594 167.710886 
L 489.296997 189.774226 
L 495.094399 202.946784 
L 500.891802 198.25917 
L 506.689205 199.584582 
L 512.486607 193.929946 
L 518.28401 167.383146 
L 524.081412 167.383146 
L 529.878815 181.555001 
L 535.676218 184.258842 
L 541.47362 188.172973 
L 547.271023 213.792741 
L 558.865828 184.436757 
L 564.663231 167.312432 
L 570.460633 152.60566 
L 576.258036 156.444519 
L 582.055438 151.551855 
L 587.852841 152.530388 
L 593.650244 162.315716 
L 599.447646 173.481527 
L 605.245049 175.341182 
L 611.042451 166.371298 
L 616.839854 180.070757 
L 622.637256 178.552344 
L 628.434659 180.951685 
L 634.232062 186.995564 
L 640.029464 206.195564 
L 645.826867 206.195564 
L 651.624269 206.490811 
L 657.421672 211.057297 
L 663.219075 211.057297 
L 669.016477 216.854874 
L 674.81388 216.854874 
L 680.611282 225.417036 
L 686.408685 220.279739 
L 692.206088 215.812524 
L 698.00349 191.956569 
L 703.800893 186.819271 
L 709.598295 184.764353 
L 715.395698 189.90165 
L 721.193101 161.922777 
L 726.990503 184.854481 
L 732.787906 183.142048 
L 738.585308 159.510481 
L 744.382711 159.510481 
L 750.180114 191.956569 
L 755.977516 190.715676 
L 761.774919 197.565405 
L 767.572321 223.251892 
L 779.167127 223.251892 
L 784.964529 228.96 
L 802.356737 228.96 
L 808.15414 210.828362 
L 813.951542 189.197637 
L 819.748945 189.197637 
L 825.546347 179.857096 
L 831.34375 179.857096 
L 837.141153 197.988734 
L 842.938555 219.619459 
L 848.735958 219.619459 
L 854.53336 228.96 
L 866.128166 228.96 
L 871.925568 219.016844 
L 895.115179 219.016844 
L 900.912581 228.96 
L 924.102192 228.96 
L 929.899594 224.067336 
L 941.494399 224.067336 
L 947.291802 209.389344 
L 953.089205 209.389344 
L 958.886607 214.282008 
L 964.68401 214.282008 
L 970.481412 188.595521 
L 976.278815 203.273514 
L 982.076218 203.273514 
L 987.87362 191.857297 
L 987.87362 191.857297 
" style="fill:none;stroke:#d18cad;stroke-linecap:square;stroke-width:2;"/>
   </g>
   <g id="line2d_21">
    <path clip-path="url(#p22a4c9a463)" d="M 251.60349 219.619459 
L 257.400893 228.96 
L 373.348945 228.96 
L 379.146347 126.214054 
L 402.335958 126.214054 
L 408.13336 228.96 
L 425.525568 228.96 
L 431.322971 194.711351 
L 454.512581 194.711351 
L 460.309984 228.96 
L 553.068425 228.96 
L 558.865828 126.214054 
L 582.055438 126.214054 
L 587.852841 228.96 
L 599.447646 228.96 
L 605.245049 220.397838 
L 628.434659 220.397838 
L 634.232062 228.96 
L 669.016477 228.96 
L 674.81388 216.116757 
L 698.00349 216.116757 
L 703.800893 223.822703 
L 726.990503 223.822703 
L 732.787906 228.96 
L 755.977516 228.96 
L 761.774919 177.587027 
L 767.572321 177.587027 
L 773.369724 168.246486 
L 784.964529 168.246486 
L 790.761932 219.619459 
L 796.559334 219.619459 
L 802.356737 228.96 
L 924.102192 228.96 
L 929.899594 217.543784 
L 953.089205 217.543784 
L 958.886607 177.587027 
L 964.68401 177.587027 
L 970.481412 157.037838 
L 982.076218 157.037838 
L 987.87362 208.410811 
L 993.671023 208.410811 
L 999.468425 228.96 
L 1040.050244 228.96 
L 1045.847646 208.410811 
L 1063.239854 208.410811 
L 1069.037256 187.861622 
L 1069.037256 187.861622 
" style="fill:none;stroke:#a4a86f;stroke-linecap:square;stroke-width:2;"/>
   </g>
   <g id="line2d_22">
    <path clip-path="url(#p22a4c9a463)" d="M 483.499594 227.218543 
L 489.296997 228.96 
L 495.094399 228.96 
L 500.891802 228.96 
L 506.689205 228.96 
L 512.486607 228.96 
L 518.28401 228.96 
L 524.081412 228.96 
L 529.878815 228.96 
L 535.676218 228.96 
L 541.47362 228.96 
L 547.271023 228.96 
L 553.068425 228.96 
L 558.865828 228.96 
L 564.663231 228.96 
L 570.460633 228.96 
L 576.258036 228.96 
L 582.055438 228.96 
L 587.852841 228.96 
L 593.650244 228.96 
L 599.447646 228.96 
L 605.245049 228.96 
L 611.042451 228.96 
L 616.839854 228.96 
L 622.637256 228.96 
L 628.434659 228.96 
L 634.232062 228.96 
L 640.029464 228.96 
L 645.826867 228.96 
L 651.624269 228.96 
L 657.421672 228.96 
L 663.219075 228.96 
L 669.016477 228.96 
L 674.81388 228.96 
L 680.611282 228.96 
L 686.408685 228.96 
L 692.206088 228.96 
L 698.00349 228.96 
L 703.800893 228.96 
L 709.598295 228.96 
L 715.395698 228.96 
L 721.193101 228.96 
L 726.990503 228.96 
L 732.787906 228.96 
L 738.585308 228.96 
L 744.382711 228.96 
L 750.180114 228.96 
L 755.977516 228.96 
L 761.774919 228.96 
L 767.572321 228.96 
L 773.369724 228.96 
L 779.167127 228.96 
L 784.964529 228.96 
L 790.761932 228.96 
L 796.559334 228.96 
L 802.356737 228.96 
L 808.15414 228.96 
L 813.951542 228.96 
L 819.748945 228.96 
L 825.546347 228.96 
L 831.34375 228.96 
L 837.141153 228.96 
L 842.938555 228.96 
L 848.735958 228.96 
L 854.53336 228.96 
L 860.330763 228.96 
L 866.128166 228.96 
L 871.925568 228.96 
L 877.722971 228.96 
L 883.520373 228.96 
L 889.317776 228.96 
L 895.115179 228.96 
L 900.912581 228.96 
L 906.709984 228.96 
L 912.507386 227.900763 
" style="fill:none;stroke:#d3d3d3;stroke-linecap:square;stroke-width:2;"/>
   </g>
   <g id="patch_3">
    <path d="M 50.14375 228.96 
L 50.14375 7.2 
" style="fill:none;stroke:#000000;stroke-linecap:square;stroke-linejoin:miter;stroke-width:0.8;"/>
   </g>
   <g id="patch_4">
    <path d="M 50.14375 228.96 
L 1166.14375 228.96 
" style="fill:none;stroke:#000000;stroke-linecap:square;stroke-linejoin:miter;stroke-width:0.8;"/>
   </g>
   <g id="legend_1">
    <g id="line2d_23">
     <path d="M 1072.3325 17.67875 
L 1088.3325 17.67875 
" style="fill:none;stroke:#947383;stroke-linecap:square;stroke-width:2;"/>
    </g>
    <g id="line2d_24"/>
    <g id="text_18">
     <!-- Europe -->
     <g transform="translate(1094.7325 20.47875)scale(0.08 -0.08)">
      <defs>
       <path d="M 628 4666 
L 3578 4666 
L 3578 4134 
L 1259 4134 
L 1259 2753 
L 3481 2753 
L 3481 2222 
L 1259 2222 
L 1259 531 
L 3634 531 
L 3634 0 
L 628 0 
L 628 4666 
z
" id="DejaVuSans-45" transform="scale(0.015625)"/>
       <path d="M 1159 525 
L 1159 -1331 
L 581 -1331 
L 581 3500 
L 1159 3500 
L 1159 2969 
Q 1341 3281 1617 3432 
Q 1894 3584 2278 3584 
Q 2916 3584 3314 3078 
Q 3713 2572 3713 1747 
Q 3713 922 3314 415 
Q 2916 -91 2278 -91 
Q 1894 -91 1617 61 
Q 1341 213 1159 525 
z
M 3116 1747 
Q 3116 2381 2855 2742 
Q 2594 3103 2138 3103 
Q 1681 3103 1420 2742 
Q 1159 2381 1159 1747 
Q 1159 1113 1420 752 
Q 1681 391 2138 391 
Q 2594 391 2855 752 
Q 3116 1113 3116 1747 
z
" id="DejaVuSans-70" transform="scale(0.015625)"/>
      </defs>
      <use xlink:href="#DejaVuSans-45"/>
      <use x="63.183594" xlink:href="#DejaVuSans-75"/>
      <use x="126.5625" xlink:href="#DejaVuSans-72"/>
      <use x="165.425781" xlink:href="#DejaVuSans-6f"/>
      <use x="226.607422" xlink:href="#DejaVuSans-70"/>
      <use x="290.083984" xlink:href="#DejaVuSans-65"/>
     </g>
    </g>
    <g id="line2d_25">
     <path d="M 1072.3325 29.42125 
L 1088.3325 29.42125 
" style="fill:none;stroke:#96c6ad;stroke-linecap:square;stroke-width:2;"/>
    </g>
    <g id="line2d_26"/>
    <g id="text_19">
     <!-- North America -->
     <g transform="translate(1094.7325 32.22125)scale(0.08 -0.08)">
      <defs>
       <path d="M 628 4666 
L 1478 4666 
L 3547 763 
L 3547 4666 
L 4159 4666 
L 4159 0 
L 3309 0 
L 1241 3903 
L 1241 0 
L 628 0 
L 628 4666 
z
" id="DejaVuSans-4e" transform="scale(0.015625)"/>
       <path d="M 3513 2113 
L 3513 0 
L 2938 0 
L 2938 2094 
Q 2938 2591 2744 2837 
Q 2550 3084 2163 3084 
Q 1697 3084 1428 2787 
Q 1159 2491 1159 1978 
L 1159 0 
L 581 0 
L 581 4863 
L 1159 4863 
L 1159 2956 
Q 1366 3272 1645 3428 
Q 1925 3584 2291 3584 
Q 2894 3584 3203 3211 
Q 3513 2838 3513 2113 
z
" id="DejaVuSans-68" transform="scale(0.015625)"/>
       <path d="M 2188 4044 
L 1331 1722 
L 3047 1722 
L 2188 4044 
z
M 1831 4666 
L 2547 4666 
L 4325 0 
L 3669 0 
L 3244 1197 
L 1141 1197 
L 716 0 
L 50 0 
L 1831 4666 
z
" id="DejaVuSans-41" transform="scale(0.015625)"/>
       <path d="M 3328 2828 
Q 3544 3216 3844 3400 
Q 4144 3584 4550 3584 
Q 5097 3584 5394 3201 
Q 5691 2819 5691 2113 
L 5691 0 
L 5113 0 
L 5113 2094 
Q 5113 2597 4934 2840 
Q 4756 3084 4391 3084 
Q 3944 3084 3684 2787 
Q 3425 2491 3425 1978 
L 3425 0 
L 2847 0 
L 2847 2094 
Q 2847 2600 2669 2842 
Q 2491 3084 2119 3084 
Q 1678 3084 1418 2786 
Q 1159 2488 1159 1978 
L 1159 0 
L 581 0 
L 581 3500 
L 1159 3500 
L 1159 2956 
Q 1356 3278 1631 3431 
Q 1906 3584 2284 3584 
Q 2666 3584 2933 3390 
Q 3200 3197 3328 2828 
z
" id="DejaVuSans-6d" transform="scale(0.015625)"/>
      </defs>
      <use xlink:href="#DejaVuSans-4e"/>
      <use x="74.804688" xlink:href="#DejaVuSans-6f"/>
      <use x="135.986328" xlink:href="#DejaVuSans-72"/>
      <use x="177.099609" xlink:href="#DejaVuSans-74"/>
      <use x="216.308594" xlink:href="#DejaVuSans-68"/>
      <use x="279.6875" xlink:href="#DejaVuSans-20"/>
      <use x="311.474609" xlink:href="#DejaVuSans-41"/>
      <use x="379.882812" xlink:href="#DejaVuSans-6d"/>
      <use x="477.294922" xlink:href="#DejaVuSans-65"/>
      <use x="538.818359" xlink:href="#DejaVuSans-72"/>
      <use x="579.931641" xlink:href="#DejaVuSans-69"/>
      <use x="607.714844" xlink:href="#DejaVuSans-63"/>
      <use x="662.695312" xlink:href="#DejaVuSans-61"/>
     </g>
    </g>
    <g id="line2d_27">
     <path d="M 1072.3325 41.16375 
L 1088.3325 41.16375 
" style="fill:none;stroke:#525886;stroke-linecap:square;stroke-width:2;"/>
    </g>
    <g id="line2d_28"/>
    <g id="text_20">
     <!-- United Kingdom -->
     <g transform="translate(1094.7325 43.96375)scale(0.08 -0.08)">
      <defs>
       <path d="M 556 4666 
L 1191 4666 
L 1191 1831 
Q 1191 1081 1462 751 
Q 1734 422 2344 422 
Q 2950 422 3222 751 
Q 3494 1081 3494 1831 
L 3494 4666 
L 4128 4666 
L 4128 1753 
Q 4128 841 3676 375 
Q 3225 -91 2344 -91 
Q 1459 -91 1007 375 
Q 556 841 556 1753 
L 556 4666 
z
" id="DejaVuSans-55" transform="scale(0.015625)"/>
       <path d="M 628 4666 
L 1259 4666 
L 1259 2694 
L 3353 4666 
L 4166 4666 
L 1850 2491 
L 4331 0 
L 3500 0 
L 1259 2247 
L 1259 0 
L 628 0 
L 628 4666 
z
" id="DejaVuSans-4b" transform="scale(0.015625)"/>
      </defs>
      <use xlink:href="#DejaVuSans-55"/>
      <use x="73.193359" xlink:href="#DejaVuSans-6e"/>
      <use x="136.572266" xlink:href="#DejaVuSans-69"/>
      <use x="164.355469" xlink:href="#DejaVuSans-74"/>
      <use x="203.564453" xlink:href="#DejaVuSans-65"/>
      <use x="265.087891" xlink:href="#DejaVuSans-64"/>
      <use x="328.564453" xlink:href="#DejaVuSans-20"/>
      <use x="360.351562" xlink:href="#DejaVuSans-4b"/>
      <use x="425.927734" xlink:href="#DejaVuSans-69"/>
      <use x="453.710938" xlink:href="#DejaVuSans-6e"/>
      <use x="517.089844" xlink:href="#DejaVuSans-67"/>
      <use x="580.566406" xlink:href="#DejaVuSans-64"/>
      <use x="644.042969" xlink:href="#DejaVuSans-6f"/>
      <use x="705.224609" xlink:href="#DejaVuSans-6d"/>
     </g>
    </g>
    <g id="line2d_29">
     <path d="M 1072.3325 52.90625 
L 1088.3325 52.90625 
" style="fill:none;stroke:#937252;stroke-linecap:square;stroke-width:2;"/>
    </g>
    <g id="line2d_30"/>
    <g id="text_21">
     <!-- Asia -->
     <g transform="translate(1094.7325 55.70625)scale(0.08 -0.08)">
      <defs>
       <path d="M 2834 3397 
L 2834 2853 
Q 2591 2978 2328 3040 
Q 2066 3103 1784 3103 
Q 1356 3103 1142 2972 
Q 928 2841 928 2578 
Q 928 2378 1081 2264 
Q 1234 2150 1697 2047 
L 1894 2003 
Q 2506 1872 2764 1633 
Q 3022 1394 3022 966 
Q 3022 478 2636 193 
Q 2250 -91 1575 -91 
Q 1294 -91 989 -36 
Q 684 19 347 128 
L 347 722 
Q 666 556 975 473 
Q 1284 391 1588 391 
Q 1994 391 2212 530 
Q 2431 669 2431 922 
Q 2431 1156 2273 1281 
Q 2116 1406 1581 1522 
L 1381 1569 
Q 847 1681 609 1914 
Q 372 2147 372 2553 
Q 372 3047 722 3315 
Q 1072 3584 1716 3584 
Q 2034 3584 2315 3537 
Q 2597 3491 2834 3397 
z
" id="DejaVuSans-73" transform="scale(0.015625)"/>
      </defs>
      <use xlink:href="#DejaVuSans-41"/>
      <use x="68.408203" xlink:href="#DejaVuSans-73"/>
      <use x="120.507812" xlink:href="#DejaVuSans-69"/>
      <use x="148.291016" xlink:href="#DejaVuSans-61"/>
     </g>
    </g>
    <g id="line2d_31">
     <path d="M 1072.3325 64.64875 
L 1088.3325 64.64875 
" style="fill:none;stroke:#d18cad;stroke-linecap:square;stroke-width:2;"/>
    </g>
    <g id="line2d_32"/>
    <g id="text_22">
     <!-- Africa -->
     <g transform="translate(1094.7325 67.44875)scale(0.08 -0.08)">
      <defs>
       <path d="M 2375 4863 
L 2375 4384 
L 1825 4384 
Q 1516 4384 1395 4259 
Q 1275 4134 1275 3809 
L 1275 3500 
L 2222 3500 
L 2222 3053 
L 1275 3053 
L 1275 0 
L 697 0 
L 697 3053 
L 147 3053 
L 147 3500 
L 697 3500 
L 697 3744 
Q 697 4328 969 4595 
Q 1241 4863 1831 4863 
L 2375 4863 
z
" id="DejaVuSans-66" transform="scale(0.015625)"/>
      </defs>
      <use xlink:href="#DejaVuSans-41"/>
      <use x="64.783203" xlink:href="#DejaVuSans-66"/>
      <use x="99.988281" xlink:href="#DejaVuSans-72"/>
      <use x="141.101562" xlink:href="#DejaVuSans-69"/>
      <use x="168.884766" xlink:href="#DejaVuSans-63"/>
      <use x="223.865234" xlink:href="#DejaVuSans-61"/>
     </g>
    </g>
    <g id="line2d_33">
     <path d="M 1072.3325 76.39125 
L 1088.3325 76.39125 
" style="fill:none;stroke:#a4a86f;stroke-linecap:square;stroke-width:2;"/>
    </g>
    <g id="line2d_34"/>
    <g id="text_23">
     <!-- Oceania -->
     <g transform="translate(1094.7325 79.19125)scale(0.08 -0.08)">
      <defs>
       <path d="M 2522 4238 
Q 1834 4238 1429 3725 
Q 1025 3213 1025 2328 
Q 1025 1447 1429 934 
Q 1834 422 2522 422 
Q 3209 422 3611 934 
Q 4013 1447 4013 2328 
Q 4013 3213 3611 3725 
Q 3209 4238 2522 4238 
z
M 2522 4750 
Q 3503 4750 4090 4092 
Q 4678 3434 4678 2328 
Q 4678 1225 4090 567 
Q 3503 -91 2522 -91 
Q 1538 -91 948 565 
Q 359 1222 359 2328 
Q 359 3434 948 4092 
Q 1538 4750 2522 4750 
z
" id="DejaVuSans-4f" transform="scale(0.015625)"/>
      </defs>
      <use xlink:href="#DejaVuSans-4f"/>
      <use x="78.710938" xlink:href="#DejaVuSans-63"/>
      <use x="133.691406" xlink:href="#DejaVuSans-65"/>
      <use x="195.214844" xlink:href="#DejaVuSans-61"/>
      <use x="256.494141" xlink:href="#DejaVuSans-6e"/>
      <use x="319.873047" xlink:href="#DejaVuSans-69"/>
      <use x="347.65625" xlink:href="#DejaVuSans-61"/>
     </g>
    </g>
    <g id="line2d_35">
     <path d="M 1072.3325 88.13375 
L 1088.3325 88.13375 
" style="fill:none;stroke:#d3d3d3;stroke-linecap:square;stroke-width:2;"/>
    </g>
    <g id="line2d_36"/>
    <g id="text_24">
     <!-- South America -->
     <g transform="translate(1094.7325 90.93375)scale(0.08 -0.08)">
      <defs>
       <path d="M 3425 4513 
L 3425 3897 
Q 3066 4069 2747 4153 
Q 2428 4238 2131 4238 
Q 1616 4238 1336 4038 
Q 1056 3838 1056 3469 
Q 1056 3159 1242 3001 
Q 1428 2844 1947 2747 
L 2328 2669 
Q 3034 2534 3370 2195 
Q 3706 1856 3706 1288 
Q 3706 609 3251 259 
Q 2797 -91 1919 -91 
Q 1588 -91 1214 -16 
Q 841 59 441 206 
L 441 856 
Q 825 641 1194 531 
Q 1563 422 1919 422 
Q 2459 422 2753 634 
Q 3047 847 3047 1241 
Q 3047 1584 2836 1778 
Q 2625 1972 2144 2069 
L 1759 2144 
Q 1053 2284 737 2584 
Q 422 2884 422 3419 
Q 422 4038 858 4394 
Q 1294 4750 2059 4750 
Q 2388 4750 2728 4690 
Q 3069 4631 3425 4513 
z
" id="DejaVuSans-53" transform="scale(0.015625)"/>
      </defs>
      <use xlink:href="#DejaVuSans-53"/>
      <use x="63.476562" xlink:href="#DejaVuSans-6f"/>
      <use x="124.658203" xlink:href="#DejaVuSans-75"/>
      <use x="188.037109" xlink:href="#DejaVuSans-74"/>
      <use x="227.246094" xlink:href="#DejaVuSans-68"/>
      <use x="290.625" xlink:href="#DejaVuSans-20"/>
      <use x="322.412109" xlink:href="#DejaVuSans-41"/>
      <use x="390.820312" xlink:href="#DejaVuSans-6d"/>
      <use x="488.232422" xlink:href="#DejaVuSans-65"/>
      <use x="549.755859" xlink:href="#DejaVuSans-72"/>
      <use x="590.869141" xlink:href="#DejaVuSans-69"/>
      <use x="618.652344" xlink:href="#DejaVuSans-63"/>
      <use x="673.632812" xlink:href="#DejaVuSans-61"/>
     </g>
    </g>
   </g>
  </g>
 </g>
 <defs>
  <clipPath id="p22a4c9a463">
   <rect height="221.76" width="1116" x="50.14375" y="7.2"/>
  </clipPath>
 </defs>
</svg>
