<?xml version="1.0" encoding="utf-8" standalone="no"?>
<!DOCTYPE svg PUBLIC "-//W3C//DTD SVG 1.1//EN"
  "http://www.w3.org/Graphics/SVG/1.1/DTD/svg11.dtd">
<svg height="298.620937pt" version="1.1" viewBox="0 0 1166.98125 298.620937" width="1166.98125pt" xmlns="http://www.w3.org/2000/svg" xmlns:xlink="http://www.w3.org/1999/xlink">
 <metadata>
  <rdf:RDF xmlns:cc="http://creativecommons.org/ns#" xmlns:dc="http://purl.org/dc/elements/1.1/" xmlns:rdf="http://www.w3.org/1999/02/22-rdf-syntax-ns#">
   <cc:Work>
    <dc:type rdf:resource="http://purl.org/dc/dcmitype/StillImage"/>
    <dc:date>2021-07-03T16:05:43.540990</dc:date>
    <dc:format>image/svg+xml</dc:format>
    <dc:creator>
     <cc:Agent>
      <dc:title>Matplotlib v3.4.2, https://matplotlib.org/</dc:title>
     </cc:Agent>
    </dc:creator>
   </cc:Work>
  </rdf:RDF>
 </metadata>
 <defs>
  <style type="text/css">*{stroke-linecap:butt;stroke-linejoin:round;}</style>
 </defs>
 <g id="figure_1">
  <g id="patch_1">
   <path d="M 0 298.620937 
L 1166.98125 298.620937 
L 1166.98125 0 
L 0 0 
z
" style="fill:#ffffff;"/>
  </g>
  <g id="axes_1">
   <g id="patch_2">
    <path d="M 43.78125 228.96 
L 1159.78125 228.96 
L 1159.78125 7.2 
L 43.78125 7.2 
z
" style="fill:#ffffff;"/>
   </g>
   <g id="matplotlib.axis_1">
    <g id="xtick_1">
     <g id="line2d_1">
      <defs>
       <path d="M 0 0 
L 0 3.5 
" id="m26b5cba8af" style="stroke:#000000;stroke-width:0.8;"/>
      </defs>
      <g>
       <use style="stroke:#000000;stroke-width:0.8;" x="79.422345" xlink:href="#m26b5cba8af" y="228.96"/>
      </g>
     </g>
     <g id="text_1">
      <!-- 2020-10 -->
      <g transform="translate(82.18172 277.742812)rotate(-90)scale(0.1 -0.1)">
       <defs>
        <path d="M 1228 531 
L 3431 531 
L 3431 0 
L 469 0 
L 469 531 
Q 828 903 1448 1529 
Q 2069 2156 2228 2338 
Q 2531 2678 2651 2914 
Q 2772 3150 2772 3378 
Q 2772 3750 2511 3984 
Q 2250 4219 1831 4219 
Q 1534 4219 1204 4116 
Q 875 4013 500 3803 
L 500 4441 
Q 881 4594 1212 4672 
Q 1544 4750 1819 4750 
Q 2544 4750 2975 4387 
Q 3406 4025 3406 3419 
Q 3406 3131 3298 2873 
Q 3191 2616 2906 2266 
Q 2828 2175 2409 1742 
Q 1991 1309 1228 531 
z
" id="DejaVuSans-32" transform="scale(0.015625)"/>
        <path d="M 2034 4250 
Q 1547 4250 1301 3770 
Q 1056 3291 1056 2328 
Q 1056 1369 1301 889 
Q 1547 409 2034 409 
Q 2525 409 2770 889 
Q 3016 1369 3016 2328 
Q 3016 3291 2770 3770 
Q 2525 4250 2034 4250 
z
M 2034 4750 
Q 2819 4750 3233 4129 
Q 3647 3509 3647 2328 
Q 3647 1150 3233 529 
Q 2819 -91 2034 -91 
Q 1250 -91 836 529 
Q 422 1150 422 2328 
Q 422 3509 836 4129 
Q 1250 4750 2034 4750 
z
" id="DejaVuSans-30" transform="scale(0.015625)"/>
        <path d="M 313 2009 
L 1997 2009 
L 1997 1497 
L 313 1497 
L 313 2009 
z
" id="DejaVuSans-2d" transform="scale(0.015625)"/>
        <path d="M 794 531 
L 1825 531 
L 1825 4091 
L 703 3866 
L 703 4441 
L 1819 4666 
L 2450 4666 
L 2450 531 
L 3481 531 
L 3481 0 
L 794 0 
L 794 531 
z
" id="DejaVuSans-31" transform="scale(0.015625)"/>
       </defs>
       <use xlink:href="#DejaVuSans-32"/>
       <use x="63.623047" xlink:href="#DejaVuSans-30"/>
       <use x="127.246094" xlink:href="#DejaVuSans-32"/>
       <use x="190.869141" xlink:href="#DejaVuSans-30"/>
       <use x="254.492188" xlink:href="#DejaVuSans-2d"/>
       <use x="290.576172" xlink:href="#DejaVuSans-31"/>
       <use x="354.199219" xlink:href="#DejaVuSans-30"/>
      </g>
     </g>
    </g>
    <g id="xtick_2">
     <g id="line2d_2">
      <g>
       <use style="stroke:#000000;stroke-width:0.8;" x="196.340223" xlink:href="#m26b5cba8af" y="228.96"/>
      </g>
     </g>
     <g id="text_2">
      <!-- 2020-11 -->
      <g transform="translate(199.099598 277.742812)rotate(-90)scale(0.1 -0.1)">
       <use xlink:href="#DejaVuSans-32"/>
       <use x="63.623047" xlink:href="#DejaVuSans-30"/>
       <use x="127.246094" xlink:href="#DejaVuSans-32"/>
       <use x="190.869141" xlink:href="#DejaVuSans-30"/>
       <use x="254.492188" xlink:href="#DejaVuSans-2d"/>
       <use x="290.576172" xlink:href="#DejaVuSans-31"/>
       <use x="354.199219" xlink:href="#DejaVuSans-31"/>
      </g>
     </g>
    </g>
    <g id="xtick_3">
     <g id="line2d_3">
      <g>
       <use style="stroke:#000000;stroke-width:0.8;" x="309.486556" xlink:href="#m26b5cba8af" y="228.96"/>
      </g>
     </g>
     <g id="text_3">
      <!-- 2020-12 -->
      <g transform="translate(312.245931 277.742812)rotate(-90)scale(0.1 -0.1)">
       <use xlink:href="#DejaVuSans-32"/>
       <use x="63.623047" xlink:href="#DejaVuSans-30"/>
       <use x="127.246094" xlink:href="#DejaVuSans-32"/>
       <use x="190.869141" xlink:href="#DejaVuSans-30"/>
       <use x="254.492188" xlink:href="#DejaVuSans-2d"/>
       <use x="290.576172" xlink:href="#DejaVuSans-31"/>
       <use x="354.199219" xlink:href="#DejaVuSans-32"/>
      </g>
     </g>
    </g>
    <g id="xtick_4">
     <g id="line2d_4">
      <g>
       <use style="stroke:#000000;stroke-width:0.8;" x="426.404434" xlink:href="#m26b5cba8af" y="228.96"/>
      </g>
     </g>
     <g id="text_4">
      <!-- 2021-01 -->
      <g transform="translate(429.163809 277.742812)rotate(-90)scale(0.1 -0.1)">
       <use xlink:href="#DejaVuSans-32"/>
       <use x="63.623047" xlink:href="#DejaVuSans-30"/>
       <use x="127.246094" xlink:href="#DejaVuSans-32"/>
       <use x="190.869141" xlink:href="#DejaVuSans-31"/>
       <use x="254.492188" xlink:href="#DejaVuSans-2d"/>
       <use x="290.576172" xlink:href="#DejaVuSans-30"/>
       <use x="354.199219" xlink:href="#DejaVuSans-31"/>
      </g>
     </g>
    </g>
    <g id="xtick_5">
     <g id="line2d_5">
      <g>
       <use style="stroke:#000000;stroke-width:0.8;" x="543.322311" xlink:href="#m26b5cba8af" y="228.96"/>
      </g>
     </g>
     <g id="text_5">
      <!-- 2021-02 -->
      <g transform="translate(546.081686 277.742812)rotate(-90)scale(0.1 -0.1)">
       <use xlink:href="#DejaVuSans-32"/>
       <use x="63.623047" xlink:href="#DejaVuSans-30"/>
       <use x="127.246094" xlink:href="#DejaVuSans-32"/>
       <use x="190.869141" xlink:href="#DejaVuSans-31"/>
       <use x="254.492188" xlink:href="#DejaVuSans-2d"/>
       <use x="290.576172" xlink:href="#DejaVuSans-30"/>
       <use x="354.199219" xlink:href="#DejaVuSans-32"/>
      </g>
     </g>
    </g>
    <g id="xtick_6">
     <g id="line2d_6">
      <g>
       <use style="stroke:#000000;stroke-width:0.8;" x="648.925556" xlink:href="#m26b5cba8af" y="228.96"/>
      </g>
     </g>
     <g id="text_6">
      <!-- 2021-03 -->
      <g transform="translate(651.684931 277.742812)rotate(-90)scale(0.1 -0.1)">
       <defs>
        <path d="M 2597 2516 
Q 3050 2419 3304 2112 
Q 3559 1806 3559 1356 
Q 3559 666 3084 287 
Q 2609 -91 1734 -91 
Q 1441 -91 1130 -33 
Q 819 25 488 141 
L 488 750 
Q 750 597 1062 519 
Q 1375 441 1716 441 
Q 2309 441 2620 675 
Q 2931 909 2931 1356 
Q 2931 1769 2642 2001 
Q 2353 2234 1838 2234 
L 1294 2234 
L 1294 2753 
L 1863 2753 
Q 2328 2753 2575 2939 
Q 2822 3125 2822 3475 
Q 2822 3834 2567 4026 
Q 2313 4219 1838 4219 
Q 1578 4219 1281 4162 
Q 984 4106 628 3988 
L 628 4550 
Q 988 4650 1302 4700 
Q 1616 4750 1894 4750 
Q 2613 4750 3031 4423 
Q 3450 4097 3450 3541 
Q 3450 3153 3228 2886 
Q 3006 2619 2597 2516 
z
" id="DejaVuSans-33" transform="scale(0.015625)"/>
       </defs>
       <use xlink:href="#DejaVuSans-32"/>
       <use x="63.623047" xlink:href="#DejaVuSans-30"/>
       <use x="127.246094" xlink:href="#DejaVuSans-32"/>
       <use x="190.869141" xlink:href="#DejaVuSans-31"/>
       <use x="254.492188" xlink:href="#DejaVuSans-2d"/>
       <use x="290.576172" xlink:href="#DejaVuSans-30"/>
       <use x="354.199219" xlink:href="#DejaVuSans-33"/>
      </g>
     </g>
    </g>
    <g id="xtick_7">
     <g id="line2d_7">
      <g>
       <use style="stroke:#000000;stroke-width:0.8;" x="765.843433" xlink:href="#m26b5cba8af" y="228.96"/>
      </g>
     </g>
     <g id="text_7">
      <!-- 2021-04 -->
      <g transform="translate(768.602808 277.742812)rotate(-90)scale(0.1 -0.1)">
       <defs>
        <path d="M 2419 4116 
L 825 1625 
L 2419 1625 
L 2419 4116 
z
M 2253 4666 
L 3047 4666 
L 3047 1625 
L 3713 1625 
L 3713 1100 
L 3047 1100 
L 3047 0 
L 2419 0 
L 2419 1100 
L 313 1100 
L 313 1709 
L 2253 4666 
z
" id="DejaVuSans-34" transform="scale(0.015625)"/>
       </defs>
       <use xlink:href="#DejaVuSans-32"/>
       <use x="63.623047" xlink:href="#DejaVuSans-30"/>
       <use x="127.246094" xlink:href="#DejaVuSans-32"/>
       <use x="190.869141" xlink:href="#DejaVuSans-31"/>
       <use x="254.492188" xlink:href="#DejaVuSans-2d"/>
       <use x="290.576172" xlink:href="#DejaVuSans-30"/>
       <use x="354.199219" xlink:href="#DejaVuSans-34"/>
      </g>
     </g>
    </g>
    <g id="xtick_8">
     <g id="line2d_8">
      <g>
       <use style="stroke:#000000;stroke-width:0.8;" x="878.989766" xlink:href="#m26b5cba8af" y="228.96"/>
      </g>
     </g>
     <g id="text_8">
      <!-- 2021-05 -->
      <g transform="translate(881.749141 277.742812)rotate(-90)scale(0.1 -0.1)">
       <defs>
        <path d="M 691 4666 
L 3169 4666 
L 3169 4134 
L 1269 4134 
L 1269 2991 
Q 1406 3038 1543 3061 
Q 1681 3084 1819 3084 
Q 2600 3084 3056 2656 
Q 3513 2228 3513 1497 
Q 3513 744 3044 326 
Q 2575 -91 1722 -91 
Q 1428 -91 1123 -41 
Q 819 9 494 109 
L 494 744 
Q 775 591 1075 516 
Q 1375 441 1709 441 
Q 2250 441 2565 725 
Q 2881 1009 2881 1497 
Q 2881 1984 2565 2268 
Q 2250 2553 1709 2553 
Q 1456 2553 1204 2497 
Q 953 2441 691 2322 
L 691 4666 
z
" id="DejaVuSans-35" transform="scale(0.015625)"/>
       </defs>
       <use xlink:href="#DejaVuSans-32"/>
       <use x="63.623047" xlink:href="#DejaVuSans-30"/>
       <use x="127.246094" xlink:href="#DejaVuSans-32"/>
       <use x="190.869141" xlink:href="#DejaVuSans-31"/>
       <use x="254.492188" xlink:href="#DejaVuSans-2d"/>
       <use x="290.576172" xlink:href="#DejaVuSans-30"/>
       <use x="354.199219" xlink:href="#DejaVuSans-35"/>
      </g>
     </g>
    </g>
    <g id="xtick_9">
     <g id="line2d_9">
      <g>
       <use style="stroke:#000000;stroke-width:0.8;" x="995.907644" xlink:href="#m26b5cba8af" y="228.96"/>
      </g>
     </g>
     <g id="text_9">
      <!-- 2021-06 -->
      <g transform="translate(998.667019 277.742812)rotate(-90)scale(0.1 -0.1)">
       <defs>
        <path d="M 2113 2584 
Q 1688 2584 1439 2293 
Q 1191 2003 1191 1497 
Q 1191 994 1439 701 
Q 1688 409 2113 409 
Q 2538 409 2786 701 
Q 3034 994 3034 1497 
Q 3034 2003 2786 2293 
Q 2538 2584 2113 2584 
z
M 3366 4563 
L 3366 3988 
Q 3128 4100 2886 4159 
Q 2644 4219 2406 4219 
Q 1781 4219 1451 3797 
Q 1122 3375 1075 2522 
Q 1259 2794 1537 2939 
Q 1816 3084 2150 3084 
Q 2853 3084 3261 2657 
Q 3669 2231 3669 1497 
Q 3669 778 3244 343 
Q 2819 -91 2113 -91 
Q 1303 -91 875 529 
Q 447 1150 447 2328 
Q 447 3434 972 4092 
Q 1497 4750 2381 4750 
Q 2619 4750 2861 4703 
Q 3103 4656 3366 4563 
z
" id="DejaVuSans-36" transform="scale(0.015625)"/>
       </defs>
       <use xlink:href="#DejaVuSans-32"/>
       <use x="63.623047" xlink:href="#DejaVuSans-30"/>
       <use x="127.246094" xlink:href="#DejaVuSans-32"/>
       <use x="190.869141" xlink:href="#DejaVuSans-31"/>
       <use x="254.492188" xlink:href="#DejaVuSans-2d"/>
       <use x="290.576172" xlink:href="#DejaVuSans-30"/>
       <use x="354.199219" xlink:href="#DejaVuSans-36"/>
      </g>
     </g>
    </g>
    <g id="xtick_10">
     <g id="line2d_10">
      <g>
       <use style="stroke:#000000;stroke-width:0.8;" x="1109.053977" xlink:href="#m26b5cba8af" y="228.96"/>
      </g>
     </g>
     <g id="text_10">
      <!-- 2021-07 -->
      <g transform="translate(1111.813352 277.742812)rotate(-90)scale(0.1 -0.1)">
       <defs>
        <path d="M 525 4666 
L 3525 4666 
L 3525 4397 
L 1831 0 
L 1172 0 
L 2766 4134 
L 525 4134 
L 525 4666 
z
" id="DejaVuSans-37" transform="scale(0.015625)"/>
       </defs>
       <use xlink:href="#DejaVuSans-32"/>
       <use x="63.623047" xlink:href="#DejaVuSans-30"/>
       <use x="127.246094" xlink:href="#DejaVuSans-32"/>
       <use x="190.869141" xlink:href="#DejaVuSans-31"/>
       <use x="254.492188" xlink:href="#DejaVuSans-2d"/>
       <use x="290.576172" xlink:href="#DejaVuSans-30"/>
       <use x="354.199219" xlink:href="#DejaVuSans-37"/>
      </g>
     </g>
    </g>
    <g id="text_11">
     <!-- Date -->
     <g transform="translate(589.830469 289.34125)scale(0.1 -0.1)">
      <defs>
       <path d="M 1259 4147 
L 1259 519 
L 2022 519 
Q 2988 519 3436 956 
Q 3884 1394 3884 2338 
Q 3884 3275 3436 3711 
Q 2988 4147 2022 4147 
L 1259 4147 
z
M 628 4666 
L 1925 4666 
Q 3281 4666 3915 4102 
Q 4550 3538 4550 2338 
Q 4550 1131 3912 565 
Q 3275 0 1925 0 
L 628 0 
L 628 4666 
z
" id="DejaVuSans-44" transform="scale(0.015625)"/>
       <path d="M 2194 1759 
Q 1497 1759 1228 1600 
Q 959 1441 959 1056 
Q 959 750 1161 570 
Q 1363 391 1709 391 
Q 2188 391 2477 730 
Q 2766 1069 2766 1631 
L 2766 1759 
L 2194 1759 
z
M 3341 1997 
L 3341 0 
L 2766 0 
L 2766 531 
Q 2569 213 2275 61 
Q 1981 -91 1556 -91 
Q 1019 -91 701 211 
Q 384 513 384 1019 
Q 384 1609 779 1909 
Q 1175 2209 1959 2209 
L 2766 2209 
L 2766 2266 
Q 2766 2663 2505 2880 
Q 2244 3097 1772 3097 
Q 1472 3097 1187 3025 
Q 903 2953 641 2809 
L 641 3341 
Q 956 3463 1253 3523 
Q 1550 3584 1831 3584 
Q 2591 3584 2966 3190 
Q 3341 2797 3341 1997 
z
" id="DejaVuSans-61" transform="scale(0.015625)"/>
       <path d="M 1172 4494 
L 1172 3500 
L 2356 3500 
L 2356 3053 
L 1172 3053 
L 1172 1153 
Q 1172 725 1289 603 
Q 1406 481 1766 481 
L 2356 481 
L 2356 0 
L 1766 0 
Q 1100 0 847 248 
Q 594 497 594 1153 
L 594 3053 
L 172 3053 
L 172 3500 
L 594 3500 
L 594 4494 
L 1172 4494 
z
" id="DejaVuSans-74" transform="scale(0.015625)"/>
       <path d="M 3597 1894 
L 3597 1613 
L 953 1613 
Q 991 1019 1311 708 
Q 1631 397 2203 397 
Q 2534 397 2845 478 
Q 3156 559 3463 722 
L 3463 178 
Q 3153 47 2828 -22 
Q 2503 -91 2169 -91 
Q 1331 -91 842 396 
Q 353 884 353 1716 
Q 353 2575 817 3079 
Q 1281 3584 2069 3584 
Q 2775 3584 3186 3129 
Q 3597 2675 3597 1894 
z
M 3022 2063 
Q 3016 2534 2758 2815 
Q 2500 3097 2075 3097 
Q 1594 3097 1305 2825 
Q 1016 2553 972 2059 
L 3022 2063 
z
" id="DejaVuSans-65" transform="scale(0.015625)"/>
      </defs>
      <use xlink:href="#DejaVuSans-44"/>
      <use x="77.001953" xlink:href="#DejaVuSans-61"/>
      <use x="138.28125" xlink:href="#DejaVuSans-74"/>
      <use x="177.490234" xlink:href="#DejaVuSans-65"/>
     </g>
    </g>
   </g>
   <g id="matplotlib.axis_2">
    <g id="ytick_1">
     <g id="line2d_11">
      <defs>
       <path d="M 0 0 
L -3.5 0 
" id="m51e5383826" style="stroke:#000000;stroke-width:0.8;"/>
      </defs>
      <g>
       <use style="stroke:#000000;stroke-width:0.8;" x="43.78125" xlink:href="#m51e5383826" y="228.96"/>
      </g>
     </g>
     <g id="text_12">
      <!-- 0.0 -->
      <g transform="translate(20.878125 232.759219)scale(0.1 -0.1)">
       <defs>
        <path d="M 684 794 
L 1344 794 
L 1344 0 
L 684 0 
L 684 794 
z
" id="DejaVuSans-2e" transform="scale(0.015625)"/>
       </defs>
       <use xlink:href="#DejaVuSans-30"/>
       <use x="63.623047" xlink:href="#DejaVuSans-2e"/>
       <use x="95.410156" xlink:href="#DejaVuSans-30"/>
      </g>
     </g>
    </g>
    <g id="ytick_2">
     <g id="line2d_12">
      <g>
       <use style="stroke:#000000;stroke-width:0.8;" x="43.78125" xlink:href="#m51e5383826" y="204.1593"/>
      </g>
     </g>
     <g id="text_13">
      <!-- 0.1 -->
      <g transform="translate(20.878125 207.958519)scale(0.1 -0.1)">
       <use xlink:href="#DejaVuSans-30"/>
       <use x="63.623047" xlink:href="#DejaVuSans-2e"/>
       <use x="95.410156" xlink:href="#DejaVuSans-31"/>
      </g>
     </g>
    </g>
    <g id="ytick_3">
     <g id="line2d_13">
      <g>
       <use style="stroke:#000000;stroke-width:0.8;" x="43.78125" xlink:href="#m51e5383826" y="179.358601"/>
      </g>
     </g>
     <g id="text_14">
      <!-- 0.2 -->
      <g transform="translate(20.878125 183.15782)scale(0.1 -0.1)">
       <use xlink:href="#DejaVuSans-30"/>
       <use x="63.623047" xlink:href="#DejaVuSans-2e"/>
       <use x="95.410156" xlink:href="#DejaVuSans-32"/>
      </g>
     </g>
    </g>
    <g id="ytick_4">
     <g id="line2d_14">
      <g>
       <use style="stroke:#000000;stroke-width:0.8;" x="43.78125" xlink:href="#m51e5383826" y="154.557901"/>
      </g>
     </g>
     <g id="text_15">
      <!-- 0.3 -->
      <g transform="translate(20.878125 158.35712)scale(0.1 -0.1)">
       <use xlink:href="#DejaVuSans-30"/>
       <use x="63.623047" xlink:href="#DejaVuSans-2e"/>
       <use x="95.410156" xlink:href="#DejaVuSans-33"/>
      </g>
     </g>
    </g>
    <g id="ytick_5">
     <g id="line2d_15">
      <g>
       <use style="stroke:#000000;stroke-width:0.8;" x="43.78125" xlink:href="#m51e5383826" y="129.757202"/>
      </g>
     </g>
     <g id="text_16">
      <!-- 0.4 -->
      <g transform="translate(20.878125 133.556421)scale(0.1 -0.1)">
       <use xlink:href="#DejaVuSans-30"/>
       <use x="63.623047" xlink:href="#DejaVuSans-2e"/>
       <use x="95.410156" xlink:href="#DejaVuSans-34"/>
      </g>
     </g>
    </g>
    <g id="ytick_6">
     <g id="line2d_16">
      <g>
       <use style="stroke:#000000;stroke-width:0.8;" x="43.78125" xlink:href="#m51e5383826" y="104.956502"/>
      </g>
     </g>
     <g id="text_17">
      <!-- 0.5 -->
      <g transform="translate(20.878125 108.755721)scale(0.1 -0.1)">
       <use xlink:href="#DejaVuSans-30"/>
       <use x="63.623047" xlink:href="#DejaVuSans-2e"/>
       <use x="95.410156" xlink:href="#DejaVuSans-35"/>
      </g>
     </g>
    </g>
    <g id="ytick_7">
     <g id="line2d_17">
      <g>
       <use style="stroke:#000000;stroke-width:0.8;" x="43.78125" xlink:href="#m51e5383826" y="80.155803"/>
      </g>
     </g>
     <g id="text_18">
      <!-- 0.6 -->
      <g transform="translate(20.878125 83.955022)scale(0.1 -0.1)">
       <use xlink:href="#DejaVuSans-30"/>
       <use x="63.623047" xlink:href="#DejaVuSans-2e"/>
       <use x="95.410156" xlink:href="#DejaVuSans-36"/>
      </g>
     </g>
    </g>
    <g id="ytick_8">
     <g id="line2d_18">
      <g>
       <use style="stroke:#000000;stroke-width:0.8;" x="43.78125" xlink:href="#m51e5383826" y="55.355103"/>
      </g>
     </g>
     <g id="text_19">
      <!-- 0.7 -->
      <g transform="translate(20.878125 59.154322)scale(0.1 -0.1)">
       <use xlink:href="#DejaVuSans-30"/>
       <use x="63.623047" xlink:href="#DejaVuSans-2e"/>
       <use x="95.410156" xlink:href="#DejaVuSans-37"/>
      </g>
     </g>
    </g>
    <g id="ytick_9">
     <g id="line2d_19">
      <g>
       <use style="stroke:#000000;stroke-width:0.8;" x="43.78125" xlink:href="#m51e5383826" y="30.554404"/>
      </g>
     </g>
     <g id="text_20">
      <!-- 0.8 -->
      <g transform="translate(20.878125 34.353623)scale(0.1 -0.1)">
       <defs>
        <path d="M 2034 2216 
Q 1584 2216 1326 1975 
Q 1069 1734 1069 1313 
Q 1069 891 1326 650 
Q 1584 409 2034 409 
Q 2484 409 2743 651 
Q 3003 894 3003 1313 
Q 3003 1734 2745 1975 
Q 2488 2216 2034 2216 
z
M 1403 2484 
Q 997 2584 770 2862 
Q 544 3141 544 3541 
Q 544 4100 942 4425 
Q 1341 4750 2034 4750 
Q 2731 4750 3128 4425 
Q 3525 4100 3525 3541 
Q 3525 3141 3298 2862 
Q 3072 2584 2669 2484 
Q 3125 2378 3379 2068 
Q 3634 1759 3634 1313 
Q 3634 634 3220 271 
Q 2806 -91 2034 -91 
Q 1263 -91 848 271 
Q 434 634 434 1313 
Q 434 1759 690 2068 
Q 947 2378 1403 2484 
z
M 1172 3481 
Q 1172 3119 1398 2916 
Q 1625 2713 2034 2713 
Q 2441 2713 2670 2916 
Q 2900 3119 2900 3481 
Q 2900 3844 2670 4047 
Q 2441 4250 2034 4250 
Q 1625 4250 1398 4047 
Q 1172 3844 1172 3481 
z
" id="DejaVuSans-38" transform="scale(0.015625)"/>
       </defs>
       <use xlink:href="#DejaVuSans-30"/>
       <use x="63.623047" xlink:href="#DejaVuSans-2e"/>
       <use x="95.410156" xlink:href="#DejaVuSans-38"/>
      </g>
     </g>
    </g>
    <g id="text_21">
     <!-- Frequency (7 day rolling average) -->
     <g transform="translate(14.798437 202.529219)rotate(-90)scale(0.1 -0.1)">
      <defs>
       <path d="M 628 4666 
L 3309 4666 
L 3309 4134 
L 1259 4134 
L 1259 2759 
L 3109 2759 
L 3109 2228 
L 1259 2228 
L 1259 0 
L 628 0 
L 628 4666 
z
" id="DejaVuSans-46" transform="scale(0.015625)"/>
       <path d="M 2631 2963 
Q 2534 3019 2420 3045 
Q 2306 3072 2169 3072 
Q 1681 3072 1420 2755 
Q 1159 2438 1159 1844 
L 1159 0 
L 581 0 
L 581 3500 
L 1159 3500 
L 1159 2956 
Q 1341 3275 1631 3429 
Q 1922 3584 2338 3584 
Q 2397 3584 2469 3576 
Q 2541 3569 2628 3553 
L 2631 2963 
z
" id="DejaVuSans-72" transform="scale(0.015625)"/>
       <path d="M 947 1747 
Q 947 1113 1208 752 
Q 1469 391 1925 391 
Q 2381 391 2643 752 
Q 2906 1113 2906 1747 
Q 2906 2381 2643 2742 
Q 2381 3103 1925 3103 
Q 1469 3103 1208 2742 
Q 947 2381 947 1747 
z
M 2906 525 
Q 2725 213 2448 61 
Q 2172 -91 1784 -91 
Q 1150 -91 751 415 
Q 353 922 353 1747 
Q 353 2572 751 3078 
Q 1150 3584 1784 3584 
Q 2172 3584 2448 3432 
Q 2725 3281 2906 2969 
L 2906 3500 
L 3481 3500 
L 3481 -1331 
L 2906 -1331 
L 2906 525 
z
" id="DejaVuSans-71" transform="scale(0.015625)"/>
       <path d="M 544 1381 
L 544 3500 
L 1119 3500 
L 1119 1403 
Q 1119 906 1312 657 
Q 1506 409 1894 409 
Q 2359 409 2629 706 
Q 2900 1003 2900 1516 
L 2900 3500 
L 3475 3500 
L 3475 0 
L 2900 0 
L 2900 538 
Q 2691 219 2414 64 
Q 2138 -91 1772 -91 
Q 1169 -91 856 284 
Q 544 659 544 1381 
z
M 1991 3584 
L 1991 3584 
z
" id="DejaVuSans-75" transform="scale(0.015625)"/>
       <path d="M 3513 2113 
L 3513 0 
L 2938 0 
L 2938 2094 
Q 2938 2591 2744 2837 
Q 2550 3084 2163 3084 
Q 1697 3084 1428 2787 
Q 1159 2491 1159 1978 
L 1159 0 
L 581 0 
L 581 3500 
L 1159 3500 
L 1159 2956 
Q 1366 3272 1645 3428 
Q 1925 3584 2291 3584 
Q 2894 3584 3203 3211 
Q 3513 2838 3513 2113 
z
" id="DejaVuSans-6e" transform="scale(0.015625)"/>
       <path d="M 3122 3366 
L 3122 2828 
Q 2878 2963 2633 3030 
Q 2388 3097 2138 3097 
Q 1578 3097 1268 2742 
Q 959 2388 959 1747 
Q 959 1106 1268 751 
Q 1578 397 2138 397 
Q 2388 397 2633 464 
Q 2878 531 3122 666 
L 3122 134 
Q 2881 22 2623 -34 
Q 2366 -91 2075 -91 
Q 1284 -91 818 406 
Q 353 903 353 1747 
Q 353 2603 823 3093 
Q 1294 3584 2113 3584 
Q 2378 3584 2631 3529 
Q 2884 3475 3122 3366 
z
" id="DejaVuSans-63" transform="scale(0.015625)"/>
       <path d="M 2059 -325 
Q 1816 -950 1584 -1140 
Q 1353 -1331 966 -1331 
L 506 -1331 
L 506 -850 
L 844 -850 
Q 1081 -850 1212 -737 
Q 1344 -625 1503 -206 
L 1606 56 
L 191 3500 
L 800 3500 
L 1894 763 
L 2988 3500 
L 3597 3500 
L 2059 -325 
z
" id="DejaVuSans-79" transform="scale(0.015625)"/>
       <path id="DejaVuSans-20" transform="scale(0.015625)"/>
       <path d="M 1984 4856 
Q 1566 4138 1362 3434 
Q 1159 2731 1159 2009 
Q 1159 1288 1364 580 
Q 1569 -128 1984 -844 
L 1484 -844 
Q 1016 -109 783 600 
Q 550 1309 550 2009 
Q 550 2706 781 3412 
Q 1013 4119 1484 4856 
L 1984 4856 
z
" id="DejaVuSans-28" transform="scale(0.015625)"/>
       <path d="M 2906 2969 
L 2906 4863 
L 3481 4863 
L 3481 0 
L 2906 0 
L 2906 525 
Q 2725 213 2448 61 
Q 2172 -91 1784 -91 
Q 1150 -91 751 415 
Q 353 922 353 1747 
Q 353 2572 751 3078 
Q 1150 3584 1784 3584 
Q 2172 3584 2448 3432 
Q 2725 3281 2906 2969 
z
M 947 1747 
Q 947 1113 1208 752 
Q 1469 391 1925 391 
Q 2381 391 2643 752 
Q 2906 1113 2906 1747 
Q 2906 2381 2643 2742 
Q 2381 3103 1925 3103 
Q 1469 3103 1208 2742 
Q 947 2381 947 1747 
z
" id="DejaVuSans-64" transform="scale(0.015625)"/>
       <path d="M 1959 3097 
Q 1497 3097 1228 2736 
Q 959 2375 959 1747 
Q 959 1119 1226 758 
Q 1494 397 1959 397 
Q 2419 397 2687 759 
Q 2956 1122 2956 1747 
Q 2956 2369 2687 2733 
Q 2419 3097 1959 3097 
z
M 1959 3584 
Q 2709 3584 3137 3096 
Q 3566 2609 3566 1747 
Q 3566 888 3137 398 
Q 2709 -91 1959 -91 
Q 1206 -91 779 398 
Q 353 888 353 1747 
Q 353 2609 779 3096 
Q 1206 3584 1959 3584 
z
" id="DejaVuSans-6f" transform="scale(0.015625)"/>
       <path d="M 603 4863 
L 1178 4863 
L 1178 0 
L 603 0 
L 603 4863 
z
" id="DejaVuSans-6c" transform="scale(0.015625)"/>
       <path d="M 603 3500 
L 1178 3500 
L 1178 0 
L 603 0 
L 603 3500 
z
M 603 4863 
L 1178 4863 
L 1178 4134 
L 603 4134 
L 603 4863 
z
" id="DejaVuSans-69" transform="scale(0.015625)"/>
       <path d="M 2906 1791 
Q 2906 2416 2648 2759 
Q 2391 3103 1925 3103 
Q 1463 3103 1205 2759 
Q 947 2416 947 1791 
Q 947 1169 1205 825 
Q 1463 481 1925 481 
Q 2391 481 2648 825 
Q 2906 1169 2906 1791 
z
M 3481 434 
Q 3481 -459 3084 -895 
Q 2688 -1331 1869 -1331 
Q 1566 -1331 1297 -1286 
Q 1028 -1241 775 -1147 
L 775 -588 
Q 1028 -725 1275 -790 
Q 1522 -856 1778 -856 
Q 2344 -856 2625 -561 
Q 2906 -266 2906 331 
L 2906 616 
Q 2728 306 2450 153 
Q 2172 0 1784 0 
Q 1141 0 747 490 
Q 353 981 353 1791 
Q 353 2603 747 3093 
Q 1141 3584 1784 3584 
Q 2172 3584 2450 3431 
Q 2728 3278 2906 2969 
L 2906 3500 
L 3481 3500 
L 3481 434 
z
" id="DejaVuSans-67" transform="scale(0.015625)"/>
       <path d="M 191 3500 
L 800 3500 
L 1894 563 
L 2988 3500 
L 3597 3500 
L 2284 0 
L 1503 0 
L 191 3500 
z
" id="DejaVuSans-76" transform="scale(0.015625)"/>
       <path d="M 513 4856 
L 1013 4856 
Q 1481 4119 1714 3412 
Q 1947 2706 1947 2009 
Q 1947 1309 1714 600 
Q 1481 -109 1013 -844 
L 513 -844 
Q 928 -128 1133 580 
Q 1338 1288 1338 2009 
Q 1338 2731 1133 3434 
Q 928 4138 513 4856 
z
" id="DejaVuSans-29" transform="scale(0.015625)"/>
      </defs>
      <use xlink:href="#DejaVuSans-46"/>
      <use x="50.269531" xlink:href="#DejaVuSans-72"/>
      <use x="89.132812" xlink:href="#DejaVuSans-65"/>
      <use x="150.65625" xlink:href="#DejaVuSans-71"/>
      <use x="214.132812" xlink:href="#DejaVuSans-75"/>
      <use x="277.511719" xlink:href="#DejaVuSans-65"/>
      <use x="339.035156" xlink:href="#DejaVuSans-6e"/>
      <use x="402.414062" xlink:href="#DejaVuSans-63"/>
      <use x="457.394531" xlink:href="#DejaVuSans-79"/>
      <use x="516.574219" xlink:href="#DejaVuSans-20"/>
      <use x="548.361328" xlink:href="#DejaVuSans-28"/>
      <use x="587.375" xlink:href="#DejaVuSans-37"/>
      <use x="650.998047" xlink:href="#DejaVuSans-20"/>
      <use x="682.785156" xlink:href="#DejaVuSans-64"/>
      <use x="746.261719" xlink:href="#DejaVuSans-61"/>
      <use x="807.541016" xlink:href="#DejaVuSans-79"/>
      <use x="866.720703" xlink:href="#DejaVuSans-20"/>
      <use x="898.507812" xlink:href="#DejaVuSans-72"/>
      <use x="937.371094" xlink:href="#DejaVuSans-6f"/>
      <use x="998.552734" xlink:href="#DejaVuSans-6c"/>
      <use x="1026.335938" xlink:href="#DejaVuSans-6c"/>
      <use x="1054.119141" xlink:href="#DejaVuSans-69"/>
      <use x="1081.902344" xlink:href="#DejaVuSans-6e"/>
      <use x="1145.28125" xlink:href="#DejaVuSans-67"/>
      <use x="1208.757812" xlink:href="#DejaVuSans-20"/>
      <use x="1240.544922" xlink:href="#DejaVuSans-61"/>
      <use x="1301.824219" xlink:href="#DejaVuSans-76"/>
      <use x="1361.003906" xlink:href="#DejaVuSans-65"/>
      <use x="1422.527344" xlink:href="#DejaVuSans-72"/>
      <use x="1463.640625" xlink:href="#DejaVuSans-61"/>
      <use x="1524.919922" xlink:href="#DejaVuSans-67"/>
      <use x="1588.396484" xlink:href="#DejaVuSans-65"/>
      <use x="1649.919922" xlink:href="#DejaVuSans-29"/>
     </g>
    </g>
   </g>
   <g id="line2d_20">
    <path clip-path="url(#p7c8d67fd3e)" d="M 569.723122 228.905192 
L 573.494667 228.96 
L 577.266211 228.96 
L 581.037756 228.96 
L 584.8093 228.96 
L 588.580844 228.929325 
L 592.352389 228.929325 
L 596.123933 228.929325 
L 599.895478 228.891316 
L 603.667022 228.866125 
L 607.438567 228.8968 
L 611.210111 228.8968 
L 614.981656 228.8968 
L 618.7532 228.934809 
L 622.524744 228.96 
L 626.296289 228.96 
L 630.067833 228.96 
L 633.839378 228.96 
L 637.610922 228.936459 
L 641.382467 228.906214 
L 645.154011 228.906214 
L 648.925556 228.886026 
L 652.6971 228.864563 
L 656.468644 228.866761 
L 660.240189 228.868775 
L 664.011733 228.868775 
L 667.783278 228.855851 
L 671.554822 228.877314 
L 675.326367 228.856136 
L 679.097911 228.863725 
L 682.869455 228.863725 
L 686.641 228.833751 
L 690.412544 228.833751 
L 694.184089 228.854354 
L 697.955633 228.828268 
L 701.727178 228.813554 
L 705.498722 228.84116 
L 709.270267 228.84116 
L 713.041811 228.838764 
L 716.813355 228.885491 
L 720.5849 228.900205 
L 724.356444 228.935686 
L 728.127989 228.907228 
L 731.899533 228.931543 
L 735.671078 228.908494 
L 739.442622 228.908494 
L 743.214167 228.908494 
L 746.985711 228.936951 
L 750.757255 228.936951 
L 754.5288 228.96 
L 758.300344 228.96 
L 762.071889 228.93313 
L 765.843433 228.874011 
L 769.614978 228.738209 
L 773.386522 228.738209 
L 777.158066 228.658078 
L 780.929611 228.613579 
L 784.701155 228.608071 
L 788.4727 228.671725 
L 792.244244 228.574467 
L 796.015789 228.516561 
L 799.787333 228.521795 
L 803.558878 228.532683 
L 807.330422 228.523783 
L 811.101966 228.539526 
L 814.873511 228.638259 
L 818.645055 228.291432 
L 822.4166 228.19333 
L 826.188144 228.218332 
L 829.959689 228.040492 
L 833.731233 227.966723 
L 837.502778 228.24152 
L 841.274322 228.274222 
L 845.045866 228.289579 
L 848.817411 228.340304 
L 852.588955 228.381905 
L 856.3605 228.438355 
L 860.132044 228.519132 
L 863.903589 228.161596 
L 867.675133 228.323164 
L 871.446678 228.301662 
L 875.218222 228.283976 
L 878.989766 228.048675 
L 882.761311 228.360937 
L 886.532855 228.349436 
L 890.3044 228.316198 
L 894.075944 228.373349 
L 897.847489 228.605435 
L 901.619033 228.493587 
L 905.390577 228.489914 
L 909.162122 228.211767 
L 912.933666 228.142719 
L 916.705211 228.184296 
L 920.476755 228.339823 
L 924.2483 228.242225 
L 928.019844 228.590852 
L 931.791389 228.70215 
L 935.562933 228.70215 
L 939.334477 228.642375 
L 943.106022 228.802208 
L 946.877566 228.794713 
L 950.649111 228.794713 
L 954.420655 228.794713 
L 958.1922 228.853415 
L 961.963744 228.853415 
L 965.735289 228.916642 
L 969.506833 228.785352 
L 973.278377 228.665946 
L 977.049922 228.682693 
L 980.821466 228.682693 
L 984.593011 228.612303 
L 988.364555 228.71977 
L 992.1361 228.817741 
L 995.907644 228.829173 
L 999.679188 228.829173 
L 1003.450733 228.88487 
L 1007.222277 228.863286 
L 1010.993822 228.884721 
L 1014.765366 228.852358 
L 1018.536911 228.852358 
L 1022.308455 228.852576 
L 1026.08 228.897985 
L 1029.851544 228.832591 
" style="fill:none;stroke:#947383;stroke-linecap:square;stroke-width:2;"/>
   </g>
   <g id="line2d_21">
    <path clip-path="url(#p7c8d67fd3e)" d="M 482.9776 178.775055 
L 486.749145 228.376454 
L 490.520689 226.741243 
L 494.292233 226.645318 
L 498.063778 225.555177 
L 501.835322 224.636633 
L 505.606867 223.861611 
L 509.378411 225.496822 
L 513.149956 225.290554 
L 516.9215 225.842524 
L 520.693045 226.761068 
L 524.464589 227.312995 
L 528.236133 227.255917 
L 532.007678 227.939063 
L 535.779222 228.188854 
L 539.550767 227.960801 
L 543.322311 228.140156 
L 547.093856 228.121353 
L 558.408489 228.580683 
L 562.180033 228.382229 
L 565.951578 228.458111 
L 573.494667 228.321556 
L 588.580844 228.181007 
L 592.352389 227.796763 
L 599.895478 228.062423 
L 607.438567 228.097742 
L 611.210111 228.437964 
L 614.981656 228.293115 
L 618.7532 228.005305 
L 622.524744 228.091352 
L 633.839378 227.906001 
L 637.610922 228.145323 
L 641.382467 227.827693 
L 645.154011 227.826707 
L 648.925556 227.973932 
L 652.6971 227.724444 
L 656.468644 227.64544 
L 660.240189 227.836337 
L 664.011733 227.845221 
L 667.783278 227.473306 
L 679.097911 227.662336 
L 682.869455 227.649656 
L 686.641 227.88415 
L 690.412544 227.98133 
L 697.955633 227.175807 
L 701.727178 227.205699 
L 709.270267 226.972985 
L 713.041811 227.352439 
L 716.813355 227.402628 
L 720.5849 226.903769 
L 724.356444 226.612133 
L 728.127989 226.668933 
L 731.899533 226.507945 
L 735.671078 226.621087 
L 743.214167 227.211698 
L 746.985711 226.998589 
L 750.757255 226.405445 
L 758.300344 226.705373 
L 765.843433 226.54327 
L 769.614978 226.756487 
L 773.386522 226.204544 
L 777.158066 226.045919 
L 780.929611 226.21268 
L 788.4727 225.498221 
L 792.244244 225.584177 
L 796.015789 225.292804 
L 799.787333 224.607707 
L 803.558878 225.119129 
L 807.330422 225.914244 
L 811.101966 226.268247 
L 814.873511 226.279045 
L 818.645055 226.525692 
L 826.188144 225.863792 
L 829.959689 225.719734 
L 833.731233 226.071423 
L 845.045866 226.536947 
L 856.3605 226.244682 
L 860.132044 226.528952 
L 867.675133 226.64494 
L 875.218222 226.933248 
L 878.989766 226.287231 
L 882.761311 225.950125 
L 886.532855 226.117948 
L 890.3044 226.096361 
L 894.075944 225.757149 
L 901.619033 226.375895 
L 905.390577 225.747691 
L 909.162122 224.733489 
L 912.933666 225.15753 
L 916.705211 225.297995 
L 920.476755 224.885247 
L 924.2483 224.755291 
L 928.019844 225.497968 
L 935.562933 224.750883 
L 939.334477 225.174235 
L 943.106022 225.410082 
L 950.649111 225.01134 
L 954.420655 224.566441 
L 961.963744 223.305829 
L 965.735289 223.655888 
L 969.506833 223.71977 
L 973.278377 224.486215 
L 977.049922 224.593192 
L 980.821466 224.873615 
L 984.593011 224.858359 
L 988.364555 224.299673 
L 992.1361 224.29663 
L 995.907644 224.613517 
L 999.679188 224.586052 
L 1003.450733 223.807379 
L 1007.222277 223.411738 
L 1010.993822 222.749041 
L 1014.765366 221.690991 
L 1018.536911 222.22565 
L 1022.308455 222.545261 
L 1026.08 223.44934 
L 1029.851544 223.266975 
L 1033.623088 223.886067 
L 1037.394633 223.179628 
L 1041.166177 223.395642 
L 1048.709266 223.259205 
L 1052.480811 223.424713 
L 1060.0239 221.839369 
L 1063.795444 221.916553 
L 1067.566988 223.116024 
L 1071.338533 222.671173 
L 1078.881622 224.428212 
L 1082.653166 224.791891 
L 1086.424711 224.587501 
L 1090.196255 225.184222 
L 1097.739344 226.610974 
L 1105.282433 227.576731 
L 1109.053977 224.013275 
L 1109.053977 224.013275 
" style="fill:none;stroke:#96c6ad;stroke-linecap:square;stroke-width:2;"/>
   </g>
   <g id="line2d_22">
    <path clip-path="url(#p7c8d67fd3e)" d="M 471.662967 228.872374 
L 482.9776 228.96 
L 490.520689 228.872365 
L 501.835322 228.806751 
L 509.378411 228.894386 
L 520.693045 228.96 
L 543.322311 228.936636 
L 554.636944 228.939185 
L 581.037756 228.845415 
L 592.352389 228.887178 
L 603.667022 228.738276 
L 618.7532 228.816581 
L 645.154011 228.295854 
L 648.925556 228.316407 
L 656.468644 227.877835 
L 660.240189 227.796126 
L 664.011733 227.532083 
L 667.783278 227.402367 
L 671.554822 227.463693 
L 682.869455 227.277936 
L 686.641 226.781789 
L 694.184089 225.470245 
L 697.955633 225.321876 
L 701.727178 225.035227 
L 705.498722 225.028724 
L 713.041811 225.189779 
L 716.813355 224.476446 
L 720.5849 223.248222 
L 724.356444 221.857791 
L 731.899533 220.209732 
L 735.671078 219.167464 
L 739.442622 218.746634 
L 743.214167 218.153765 
L 750.757255 215.650509 
L 758.300344 216.008598 
L 765.843433 216.926531 
L 769.614978 217.069841 
L 773.386522 216.324046 
L 777.158066 214.80983 
L 780.929611 214.32966 
L 784.701155 214.506788 
L 788.4727 214.366908 
L 792.244244 214.492621 
L 796.015789 215.384595 
L 799.787333 215.07677 
L 803.558878 213.801063 
L 811.101966 213.370486 
L 818.645055 211.961076 
L 822.4166 211.548105 
L 826.188144 210.133377 
L 829.959689 208.21483 
L 833.731233 207.550228 
L 841.274322 207.731906 
L 845.045866 208.376889 
L 848.817411 209.343332 
L 852.588955 208.683511 
L 856.3605 207.876186 
L 860.132044 206.599689 
L 867.675133 205.817236 
L 871.446678 206.497521 
L 875.218222 206.55285 
L 878.989766 206.844752 
L 882.761311 205.323641 
L 894.075944 202.729419 
L 897.847489 203.220506 
L 901.619033 204.049904 
L 905.390577 204.248954 
L 912.933666 204.987552 
L 916.705211 204.541466 
L 928.019844 204.895739 
L 931.791389 204.339256 
L 935.562933 203.179628 
L 939.334477 202.822071 
L 943.106022 201.975612 
L 946.877566 200.970933 
L 950.649111 200.082465 
L 958.1922 199.096776 
L 961.963744 198.284702 
L 965.735289 197.947763 
L 969.506833 198.212367 
L 973.278377 198.133643 
L 977.049922 196.825558 
L 980.821466 196.709872 
L 984.593011 196.459056 
L 988.364555 195.770063 
L 995.907644 192.379155 
L 999.679188 191.095024 
L 1003.450733 188.374724 
L 1007.222277 186.773391 
L 1010.993822 187.420872 
L 1018.536911 184.273987 
L 1022.308455 185.722966 
L 1029.851544 190.334746 
L 1033.623088 193.974833 
L 1037.394633 196.504603 
L 1041.166177 196.955573 
L 1044.937722 196.777389 
L 1048.709266 197.89533 
L 1052.480811 200.813512 
L 1056.252355 201.55345 
L 1060.0239 204.221648 
L 1063.795444 205.301663 
L 1067.566988 206.090759 
L 1071.338533 204.043318 
L 1075.110077 202.835492 
L 1078.881622 202.731594 
L 1082.653166 203.135604 
L 1086.424711 193.594208 
L 1090.196255 199.371077 
L 1093.9678 206.779079 
L 1097.739344 209.561596 
L 1101.510888 210.710663 
L 1101.510888 210.710663 
" style="fill:none;stroke:#525886;stroke-linecap:square;stroke-width:2;"/>
   </g>
   <g id="line2d_23">
    <path clip-path="url(#p7c8d67fd3e)" d="M 94.508523 226.47993 
L 98.280067 228.96 
L 120.909334 228.96 
L 124.680878 226.47993 
L 139.767056 226.47993 
L 143.5386 228.96 
L 169.939412 228.96 
L 173.710956 226.042271 
L 188.797134 226.042271 
L 192.568678 228.96 
L 200.111767 228.96 
L 203.883312 227.30662 
L 218.969489 227.30662 
L 222.741034 228.96 
L 256.684934 228.96 
L 260.456478 222.759825 
L 264.228023 222.759825 
L 267.999567 220.603243 
L 275.542656 220.603243 
L 279.3142 226.803417 
L 283.085745 226.803417 
L 286.857289 228.96 
L 301.943467 228.96 
L 305.715011 225.417043 
L 313.2581 225.417043 
L 317.029645 223.816998 
L 320.801189 219.093055 
L 324.572734 222.636012 
L 328.344278 217.675872 
L 332.115822 212.951929 
L 335.887367 214.551975 
L 339.658911 219.275917 
L 343.430456 219.275917 
L 347.202 224.236057 
L 350.973545 228.96 
L 362.288178 228.96 
L 369.831267 208.827667 
L 373.602811 203.660855 
L 381.1459 203.660855 
L 384.917445 197.657066 
L 388.688989 201.245252 
L 392.460534 190.850841 
L 396.232078 185.339575 
L 400.003622 178.253661 
L 403.775167 189.509363 
L 407.546711 188.009656 
L 411.318256 191.340398 
L 415.0898 186.763244 
L 418.861345 179.67733 
L 422.632889 182.570745 
L 426.404434 187.302457 
L 430.175978 194.311739 
L 433.947522 197.930412 
L 437.719067 200.17279 
L 441.490611 191.956298 
L 445.262156 186.430055 
L 449.0337 183.627499 
L 452.805245 183.420135 
L 456.576789 191.806629 
L 460.348333 197.580627 
L 464.119878 197.485833 
L 467.891422 198.806697 
L 471.662967 190.052262 
L 475.434511 184.236464 
L 479.206056 173.130427 
L 482.9776 178.799158 
L 486.749145 175.58177 
L 490.520689 180.084195 
L 494.292233 164.892762 
L 498.063778 167.568522 
L 501.835322 160.099407 
L 505.606867 157.799052 
L 509.378411 148.304068 
L 513.149956 162.933976 
L 516.9215 161.530898 
L 520.693045 158.477287 
L 524.464589 150.857362 
L 528.236133 153.920978 
L 532.007678 149.669429 
L 535.779222 141.966936 
L 539.550767 146.52362 
L 547.093856 156.053589 
L 550.8654 155.001225 
L 554.636944 164.025924 
L 558.408489 153.434505 
L 562.180033 147.863333 
L 565.951578 142.723551 
L 569.723122 138.107183 
L 573.494667 132.015084 
L 577.266211 136.248506 
L 581.037756 129.860447 
L 584.8093 125.340123 
L 588.580844 128.174488 
L 592.352389 125.051844 
L 596.123933 113.401874 
L 599.895478 117.911092 
L 603.667022 116.015792 
L 607.438567 101.413251 
L 611.210111 106.886509 
L 614.981656 107.984908 
L 618.7532 107.147482 
L 622.524744 101.294957 
L 626.296289 107.660123 
L 630.067833 97.124561 
L 633.839378 97.543274 
L 637.610922 96.395664 
L 641.382467 101.971561 
L 645.154011 98.037837 
L 648.925556 102.567396 
L 652.6971 95.223812 
L 656.468644 94.722457 
L 660.240189 82.48702 
L 664.011733 79.031814 
L 667.783278 77.990998 
L 671.554822 84.63936 
L 675.326367 79.635439 
L 679.097911 82.838768 
L 682.869455 88.206922 
L 686.641 78.792015 
L 690.412544 70.517507 
L 694.184089 66.048588 
L 697.955633 71.486944 
L 701.727178 68.934718 
L 705.498722 68.035348 
L 709.270267 71.566488 
L 713.041811 73.594703 
L 716.813355 68.156347 
L 720.5849 63.251939 
L 724.356444 59.02329 
L 728.127989 53.289207 
L 731.899533 48.382008 
L 735.671078 46.135079 
L 739.442622 43.529752 
L 743.214167 41.78441 
L 746.985711 48.8536 
L 754.5288 57.847524 
L 758.300344 61.746799 
L 762.071889 64.722691 
L 765.843433 60.930443 
L 769.614978 61.811367 
L 773.386522 66.297551 
L 777.158066 62.592807 
L 780.929611 65.146508 
L 784.701155 70.911057 
L 788.4727 66.163478 
L 792.244244 56.323524 
L 796.015789 57.448356 
L 799.787333 67.933864 
L 803.558878 66.93848 
L 807.330422 70.363421 
L 811.101966 79.641787 
L 814.873511 80.52949 
L 818.645055 69.374135 
L 822.4166 63.214983 
L 826.188144 67.321261 
L 829.959689 61.443043 
L 833.731233 58.7502 
L 837.502778 59.345146 
L 841.274322 60.665322 
L 845.045866 55.712732 
L 848.817411 53.283017 
L 852.588955 62.04285 
L 856.3605 58.42116 
L 860.132044 52.566276 
L 863.903589 48.157263 
L 867.675133 54.53947 
L 871.446678 48.765204 
L 875.218222 49.900607 
L 878.989766 59.705685 
L 882.761311 65.497185 
L 886.532855 60.307912 
L 890.3044 55.714367 
L 894.075944 56.16447 
L 897.847489 52.112781 
L 901.619033 52.208315 
L 905.390577 61.792649 
L 909.162122 70.15792 
L 912.933666 68.231486 
L 916.705211 68.655862 
L 920.476755 65.600478 
L 924.2483 53.541423 
L 928.019844 43.485142 
L 931.791389 49.317652 
L 935.562933 46.079796 
L 939.334477 36.559715 
L 943.106022 31.36262 
L 946.877566 31.873317 
L 954.420655 17.76 
L 958.1922 25.523799 
L 961.963744 36.875021 
L 965.735289 32.688248 
L 969.506833 31.754682 
L 973.278377 33.687361 
L 977.049922 29.654727 
L 980.821466 21.596236 
L 984.593011 31.81271 
L 988.364555 48.668677 
L 992.1361 55.261887 
L 995.907644 63.730419 
L 999.679188 65.147602 
L 1003.450733 71.496788 
L 1007.222277 58.296416 
L 1010.993822 65.01547 
L 1014.765366 69.930924 
L 1018.536911 79.242287 
L 1022.308455 79.801454 
L 1026.08 82.663073 
L 1029.851544 94.236733 
L 1033.623088 86.959307 
L 1037.394633 78.446481 
L 1041.166177 70.285568 
L 1044.937722 104.624998 
L 1048.709266 81.477678 
L 1052.480811 78.328383 
L 1056.252355 86.533126 
L 1060.0239 89.288759 
L 1063.795444 39.68736 
L 1067.566988 49.60764 
L 1067.566988 49.60764 
" style="fill:none;stroke:#937252;stroke-linecap:square;stroke-width:2;"/>
   </g>
   <g id="line2d_24">
    <path clip-path="url(#p7c8d67fd3e)" d="M 445.262156 227.887537 
L 449.0337 228.96 
L 456.576789 228.96 
L 460.348333 228.694752 
L 475.434511 228.694752 
L 479.206056 228.96 
L 524.464589 228.96 
L 528.236133 228.12496 
L 543.322311 228.12496 
L 547.093856 228.96 
L 550.8654 228.661196 
L 565.951578 228.661196 
L 569.723122 228.96 
L 573.494667 228.214114 
L 581.037756 228.214114 
L 584.8093 227.929049 
L 588.580844 227.309031 
L 592.352389 228.054917 
L 599.895478 228.054917 
L 607.438567 228.587057 
L 614.981656 228.587057 
L 618.7532 227.823959 
L 622.524744 227.452413 
L 626.296289 227.825355 
L 630.067833 226.770007 
L 633.839378 226.770007 
L 637.610922 227.422634 
L 641.382467 227.79418 
L 645.154011 227.114709 
L 648.925556 228.170058 
L 660.240189 228.280529 
L 664.011733 228.616738 
L 671.554822 228.616738 
L 675.326367 228.406562 
L 679.097911 227.300799 
L 682.869455 226.494994 
L 686.641 225.551489 
L 690.412544 225.271255 
L 694.184089 224.17613 
L 697.955633 224.334097 
L 705.498722 225.255165 
L 709.270267 225.535399 
L 713.041811 226.66033 
L 716.813355 226.852009 
L 720.5849 227.555575 
L 728.127989 227.386828 
L 731.899533 227.153851 
L 735.671078 227.90997 
L 739.442622 227.452111 
L 746.985711 227.757014 
L 750.757255 228.170359 
L 754.5288 228.077819 
L 762.071889 228.797402 
L 765.843433 228.674929 
L 769.614978 228.674929 
L 773.386522 226.95108 
L 788.4727 226.27199 
L 792.244244 227.975134 
L 796.015789 227.950134 
L 799.787333 228.037461 
L 803.558878 227.40462 
L 807.330422 227.631629 
L 811.101966 227.529683 
L 814.873511 227.772233 
L 818.645055 227.672632 
L 822.4166 228.555024 
L 826.188144 228.181144 
L 829.959689 228.396335 
L 837.502778 228.495936 
L 848.817411 228.674118 
L 852.588955 228.300238 
L 860.132044 228.233926 
L 863.903589 227.936719 
L 867.675133 227.816187 
L 871.446678 228.049553 
L 875.218222 227.973243 
L 878.989766 228.039555 
L 882.761311 228.411722 
L 894.075944 228.252183 
L 901.619033 228.306384 
L 905.390577 228.602218 
L 920.476755 228.96 
L 931.791389 228.849035 
L 935.562933 228.663262 
L 939.334477 228.663262 
L 943.106022 228.53705 
L 946.877566 228.648015 
L 950.649111 228.515035 
L 969.506833 228.817876 
L 973.278377 228.96 
L 1018.536911 228.96 
L 1022.308455 228.041456 
L 1029.851544 228.041456 
L 1033.623088 222.820256 
L 1037.394633 222.820256 
L 1041.166177 222.557814 
L 1041.166177 222.557814 
" style="fill:none;stroke:#d18cad;stroke-linecap:square;stroke-width:2;"/>
   </g>
   <g id="line2d_25">
    <path clip-path="url(#p7c8d67fd3e)" d="M 664.011733 204.1593 
L 667.783278 221.874086 
L 671.554822 221.874086 
L 675.326367 221.874086 
L 679.097911 218.773998 
L 682.869455 218.773998 
L 686.641 225.859913 
L 690.412544 225.859913 
L 694.184089 225.859913 
L 697.955633 228.96 
L 701.727178 228.96 
L 705.498722 228.96 
L 709.270267 228.96 
L 713.041811 225.144508 
L 716.813355 225.144508 
L 720.5849 225.144508 
L 724.356444 225.144508 
L 728.127989 225.144508 
L 731.899533 228.96 
L 735.671078 228.96 
L 739.442622 228.96 
L 743.214167 228.96 
L 746.985711 226.598029 
L 750.757255 226.598029 
L 754.5288 226.598029 
L 758.300344 226.598029 
L 762.071889 226.598029 
L 765.843433 228.96 
L 769.614978 228.96 
L 773.386522 228.96 
L 777.158066 228.96 
L 780.929611 224.450782 
L 784.701155 224.450782 
L 788.4727 224.450782 
L 792.244244 217.364868 
L 796.015789 217.364868 
L 799.787333 221.874086 
L 803.558878 221.874086 
L 807.330422 221.874086 
L 811.101966 226.598029 
L 814.873511 226.598029 
L 818.645055 226.598029 
L 822.4166 226.598029 
L 826.188144 226.598029 
L 829.959689 228.96 
L 833.731233 228.96 
L 837.502778 228.96 
L 841.274322 228.96 
L 845.045866 224.82655 
L 848.817411 224.82655 
L 852.588955 224.82655 
L 856.3605 224.82655 
L 860.132044 224.82655 
L 863.903589 228.96 
L 867.675133 228.96 
L 871.446678 228.96 
L 875.218222 223.448733 
L 878.989766 223.448733 
L 882.761311 223.448733 
L 886.532855 223.448733 
L 890.3044 223.448733 
L 894.075944 228.96 
L 897.847489 228.96 
L 901.619033 228.96 
L 905.390577 228.96 
L 909.162122 228.96 
L 912.933666 228.96 
L 916.705211 228.96 
L 920.476755 228.96 
L 924.2483 219.03972 
L 928.019844 219.03972 
L 931.791389 219.03972 
L 935.562933 219.03972 
L 939.334477 219.03972 
L 943.106022 228.96 
L 946.877566 228.96 
L 950.649111 228.96 
L 954.420655 228.96 
L 958.1922 228.96 
L 961.963744 228.96 
L 965.735289 228.96 
L 969.506833 228.96 
L 973.278377 228.96 
L 977.049922 228.96 
L 980.821466 228.96 
L 984.593011 228.96 
L 988.364555 228.96 
L 992.1361 220.6931 
" style="fill:none;stroke:#a4a86f;stroke-linecap:square;stroke-width:2;"/>
   </g>
   <g id="patch_3">
    <path d="M 43.78125 228.96 
L 43.78125 7.2 
" style="fill:none;stroke:#000000;stroke-linecap:square;stroke-linejoin:miter;stroke-width:0.8;"/>
   </g>
   <g id="patch_4">
    <path d="M 43.78125 228.96 
L 1159.78125 228.96 
" style="fill:none;stroke:#000000;stroke-linecap:square;stroke-linejoin:miter;stroke-width:0.8;"/>
   </g>
   <g id="legend_1">
    <g id="line2d_26">
     <path d="M 50.98125 17.67875 
L 66.98125 17.67875 
" style="fill:none;stroke:#947383;stroke-linecap:square;stroke-width:2;"/>
    </g>
    <g id="line2d_27"/>
    <g id="text_22">
     <!-- United Kingdom -->
     <g transform="translate(73.38125 20.47875)scale(0.08 -0.08)">
      <defs>
       <path d="M 556 4666 
L 1191 4666 
L 1191 1831 
Q 1191 1081 1462 751 
Q 1734 422 2344 422 
Q 2950 422 3222 751 
Q 3494 1081 3494 1831 
L 3494 4666 
L 4128 4666 
L 4128 1753 
Q 4128 841 3676 375 
Q 3225 -91 2344 -91 
Q 1459 -91 1007 375 
Q 556 841 556 1753 
L 556 4666 
z
" id="DejaVuSans-55" transform="scale(0.015625)"/>
       <path d="M 628 4666 
L 1259 4666 
L 1259 2694 
L 3353 4666 
L 4166 4666 
L 1850 2491 
L 4331 0 
L 3500 0 
L 1259 2247 
L 1259 0 
L 628 0 
L 628 4666 
z
" id="DejaVuSans-4b" transform="scale(0.015625)"/>
       <path d="M 3328 2828 
Q 3544 3216 3844 3400 
Q 4144 3584 4550 3584 
Q 5097 3584 5394 3201 
Q 5691 2819 5691 2113 
L 5691 0 
L 5113 0 
L 5113 2094 
Q 5113 2597 4934 2840 
Q 4756 3084 4391 3084 
Q 3944 3084 3684 2787 
Q 3425 2491 3425 1978 
L 3425 0 
L 2847 0 
L 2847 2094 
Q 2847 2600 2669 2842 
Q 2491 3084 2119 3084 
Q 1678 3084 1418 2786 
Q 1159 2488 1159 1978 
L 1159 0 
L 581 0 
L 581 3500 
L 1159 3500 
L 1159 2956 
Q 1356 3278 1631 3431 
Q 1906 3584 2284 3584 
Q 2666 3584 2933 3390 
Q 3200 3197 3328 2828 
z
" id="DejaVuSans-6d" transform="scale(0.015625)"/>
      </defs>
      <use xlink:href="#DejaVuSans-55"/>
      <use x="73.193359" xlink:href="#DejaVuSans-6e"/>
      <use x="136.572266" xlink:href="#DejaVuSans-69"/>
      <use x="164.355469" xlink:href="#DejaVuSans-74"/>
      <use x="203.564453" xlink:href="#DejaVuSans-65"/>
      <use x="265.087891" xlink:href="#DejaVuSans-64"/>
      <use x="328.564453" xlink:href="#DejaVuSans-20"/>
      <use x="360.351562" xlink:href="#DejaVuSans-4b"/>
      <use x="425.927734" xlink:href="#DejaVuSans-69"/>
      <use x="453.710938" xlink:href="#DejaVuSans-6e"/>
      <use x="517.089844" xlink:href="#DejaVuSans-67"/>
      <use x="580.566406" xlink:href="#DejaVuSans-64"/>
      <use x="644.042969" xlink:href="#DejaVuSans-6f"/>
      <use x="705.224609" xlink:href="#DejaVuSans-6d"/>
     </g>
    </g>
    <g id="line2d_28">
     <path d="M 50.98125 29.42125 
L 66.98125 29.42125 
" style="fill:none;stroke:#96c6ad;stroke-linecap:square;stroke-width:2;"/>
    </g>
    <g id="line2d_29"/>
    <g id="text_23">
     <!-- Europe -->
     <g transform="translate(73.38125 32.22125)scale(0.08 -0.08)">
      <defs>
       <path d="M 628 4666 
L 3578 4666 
L 3578 4134 
L 1259 4134 
L 1259 2753 
L 3481 2753 
L 3481 2222 
L 1259 2222 
L 1259 531 
L 3634 531 
L 3634 0 
L 628 0 
L 628 4666 
z
" id="DejaVuSans-45" transform="scale(0.015625)"/>
       <path d="M 1159 525 
L 1159 -1331 
L 581 -1331 
L 581 3500 
L 1159 3500 
L 1159 2969 
Q 1341 3281 1617 3432 
Q 1894 3584 2278 3584 
Q 2916 3584 3314 3078 
Q 3713 2572 3713 1747 
Q 3713 922 3314 415 
Q 2916 -91 2278 -91 
Q 1894 -91 1617 61 
Q 1341 213 1159 525 
z
M 3116 1747 
Q 3116 2381 2855 2742 
Q 2594 3103 2138 3103 
Q 1681 3103 1420 2742 
Q 1159 2381 1159 1747 
Q 1159 1113 1420 752 
Q 1681 391 2138 391 
Q 2594 391 2855 752 
Q 3116 1113 3116 1747 
z
" id="DejaVuSans-70" transform="scale(0.015625)"/>
      </defs>
      <use xlink:href="#DejaVuSans-45"/>
      <use x="63.183594" xlink:href="#DejaVuSans-75"/>
      <use x="126.5625" xlink:href="#DejaVuSans-72"/>
      <use x="165.425781" xlink:href="#DejaVuSans-6f"/>
      <use x="226.607422" xlink:href="#DejaVuSans-70"/>
      <use x="290.083984" xlink:href="#DejaVuSans-65"/>
     </g>
    </g>
    <g id="line2d_30">
     <path d="M 50.98125 41.16375 
L 66.98125 41.16375 
" style="fill:none;stroke:#525886;stroke-linecap:square;stroke-width:2;"/>
    </g>
    <g id="line2d_31"/>
    <g id="text_24">
     <!-- North America -->
     <g transform="translate(73.38125 43.96375)scale(0.08 -0.08)">
      <defs>
       <path d="M 628 4666 
L 1478 4666 
L 3547 763 
L 3547 4666 
L 4159 4666 
L 4159 0 
L 3309 0 
L 1241 3903 
L 1241 0 
L 628 0 
L 628 4666 
z
" id="DejaVuSans-4e" transform="scale(0.015625)"/>
       <path d="M 3513 2113 
L 3513 0 
L 2938 0 
L 2938 2094 
Q 2938 2591 2744 2837 
Q 2550 3084 2163 3084 
Q 1697 3084 1428 2787 
Q 1159 2491 1159 1978 
L 1159 0 
L 581 0 
L 581 4863 
L 1159 4863 
L 1159 2956 
Q 1366 3272 1645 3428 
Q 1925 3584 2291 3584 
Q 2894 3584 3203 3211 
Q 3513 2838 3513 2113 
z
" id="DejaVuSans-68" transform="scale(0.015625)"/>
       <path d="M 2188 4044 
L 1331 1722 
L 3047 1722 
L 2188 4044 
z
M 1831 4666 
L 2547 4666 
L 4325 0 
L 3669 0 
L 3244 1197 
L 1141 1197 
L 716 0 
L 50 0 
L 1831 4666 
z
" id="DejaVuSans-41" transform="scale(0.015625)"/>
      </defs>
      <use xlink:href="#DejaVuSans-4e"/>
      <use x="74.804688" xlink:href="#DejaVuSans-6f"/>
      <use x="135.986328" xlink:href="#DejaVuSans-72"/>
      <use x="177.099609" xlink:href="#DejaVuSans-74"/>
      <use x="216.308594" xlink:href="#DejaVuSans-68"/>
      <use x="279.6875" xlink:href="#DejaVuSans-20"/>
      <use x="311.474609" xlink:href="#DejaVuSans-41"/>
      <use x="379.882812" xlink:href="#DejaVuSans-6d"/>
      <use x="477.294922" xlink:href="#DejaVuSans-65"/>
      <use x="538.818359" xlink:href="#DejaVuSans-72"/>
      <use x="579.931641" xlink:href="#DejaVuSans-69"/>
      <use x="607.714844" xlink:href="#DejaVuSans-63"/>
      <use x="662.695312" xlink:href="#DejaVuSans-61"/>
     </g>
    </g>
    <g id="line2d_32">
     <path d="M 50.98125 52.90625 
L 66.98125 52.90625 
" style="fill:none;stroke:#937252;stroke-linecap:square;stroke-width:2;"/>
    </g>
    <g id="line2d_33"/>
    <g id="text_25">
     <!-- South America -->
     <g transform="translate(73.38125 55.70625)scale(0.08 -0.08)">
      <defs>
       <path d="M 3425 4513 
L 3425 3897 
Q 3066 4069 2747 4153 
Q 2428 4238 2131 4238 
Q 1616 4238 1336 4038 
Q 1056 3838 1056 3469 
Q 1056 3159 1242 3001 
Q 1428 2844 1947 2747 
L 2328 2669 
Q 3034 2534 3370 2195 
Q 3706 1856 3706 1288 
Q 3706 609 3251 259 
Q 2797 -91 1919 -91 
Q 1588 -91 1214 -16 
Q 841 59 441 206 
L 441 856 
Q 825 641 1194 531 
Q 1563 422 1919 422 
Q 2459 422 2753 634 
Q 3047 847 3047 1241 
Q 3047 1584 2836 1778 
Q 2625 1972 2144 2069 
L 1759 2144 
Q 1053 2284 737 2584 
Q 422 2884 422 3419 
Q 422 4038 858 4394 
Q 1294 4750 2059 4750 
Q 2388 4750 2728 4690 
Q 3069 4631 3425 4513 
z
" id="DejaVuSans-53" transform="scale(0.015625)"/>
      </defs>
      <use xlink:href="#DejaVuSans-53"/>
      <use x="63.476562" xlink:href="#DejaVuSans-6f"/>
      <use x="124.658203" xlink:href="#DejaVuSans-75"/>
      <use x="188.037109" xlink:href="#DejaVuSans-74"/>
      <use x="227.246094" xlink:href="#DejaVuSans-68"/>
      <use x="290.625" xlink:href="#DejaVuSans-20"/>
      <use x="322.412109" xlink:href="#DejaVuSans-41"/>
      <use x="390.820312" xlink:href="#DejaVuSans-6d"/>
      <use x="488.232422" xlink:href="#DejaVuSans-65"/>
      <use x="549.755859" xlink:href="#DejaVuSans-72"/>
      <use x="590.869141" xlink:href="#DejaVuSans-69"/>
      <use x="618.652344" xlink:href="#DejaVuSans-63"/>
      <use x="673.632812" xlink:href="#DejaVuSans-61"/>
     </g>
    </g>
    <g id="line2d_34">
     <path d="M 50.98125 64.64875 
L 66.98125 64.64875 
" style="fill:none;stroke:#d18cad;stroke-linecap:square;stroke-width:2;"/>
    </g>
    <g id="line2d_35"/>
    <g id="text_26">
     <!-- Asia -->
     <g transform="translate(73.38125 67.44875)scale(0.08 -0.08)">
      <defs>
       <path d="M 2834 3397 
L 2834 2853 
Q 2591 2978 2328 3040 
Q 2066 3103 1784 3103 
Q 1356 3103 1142 2972 
Q 928 2841 928 2578 
Q 928 2378 1081 2264 
Q 1234 2150 1697 2047 
L 1894 2003 
Q 2506 1872 2764 1633 
Q 3022 1394 3022 966 
Q 3022 478 2636 193 
Q 2250 -91 1575 -91 
Q 1294 -91 989 -36 
Q 684 19 347 128 
L 347 722 
Q 666 556 975 473 
Q 1284 391 1588 391 
Q 1994 391 2212 530 
Q 2431 669 2431 922 
Q 2431 1156 2273 1281 
Q 2116 1406 1581 1522 
L 1381 1569 
Q 847 1681 609 1914 
Q 372 2147 372 2553 
Q 372 3047 722 3315 
Q 1072 3584 1716 3584 
Q 2034 3584 2315 3537 
Q 2597 3491 2834 3397 
z
" id="DejaVuSans-73" transform="scale(0.015625)"/>
      </defs>
      <use xlink:href="#DejaVuSans-41"/>
      <use x="68.408203" xlink:href="#DejaVuSans-73"/>
      <use x="120.507812" xlink:href="#DejaVuSans-69"/>
      <use x="148.291016" xlink:href="#DejaVuSans-61"/>
     </g>
    </g>
    <g id="line2d_36">
     <path d="M 50.98125 76.39125 
L 66.98125 76.39125 
" style="fill:none;stroke:#a4a86f;stroke-linecap:square;stroke-width:2;"/>
    </g>
    <g id="line2d_37"/>
    <g id="text_27">
     <!-- Oceania -->
     <g transform="translate(73.38125 79.19125)scale(0.08 -0.08)">
      <defs>
       <path d="M 2522 4238 
Q 1834 4238 1429 3725 
Q 1025 3213 1025 2328 
Q 1025 1447 1429 934 
Q 1834 422 2522 422 
Q 3209 422 3611 934 
Q 4013 1447 4013 2328 
Q 4013 3213 3611 3725 
Q 3209 4238 2522 4238 
z
M 2522 4750 
Q 3503 4750 4090 4092 
Q 4678 3434 4678 2328 
Q 4678 1225 4090 567 
Q 3503 -91 2522 -91 
Q 1538 -91 948 565 
Q 359 1222 359 2328 
Q 359 3434 948 4092 
Q 1538 4750 2522 4750 
z
" id="DejaVuSans-4f" transform="scale(0.015625)"/>
      </defs>
      <use xlink:href="#DejaVuSans-4f"/>
      <use x="78.710938" xlink:href="#DejaVuSans-63"/>
      <use x="133.691406" xlink:href="#DejaVuSans-65"/>
      <use x="195.214844" xlink:href="#DejaVuSans-61"/>
      <use x="256.494141" xlink:href="#DejaVuSans-6e"/>
      <use x="319.873047" xlink:href="#DejaVuSans-69"/>
      <use x="347.65625" xlink:href="#DejaVuSans-61"/>
     </g>
    </g>
   </g>
  </g>
 </g>
 <defs>
  <clipPath id="p7c8d67fd3e">
   <rect height="221.76" width="1116" x="43.78125" y="7.2"/>
  </clipPath>
 </defs>
</svg>
