<?xml version="1.0" encoding="utf-8" standalone="no"?>
<!DOCTYPE svg PUBLIC "-//W3C//DTD SVG 1.1//EN"
  "http://www.w3.org/Graphics/SVG/1.1/DTD/svg11.dtd">
<!-- Created with matplotlib (https://matplotlib.org/) -->
<svg height="298.620937pt" version="1.1" viewBox="0 0 999.58125 298.620937" width="999.58125pt" xmlns="http://www.w3.org/2000/svg" xmlns:xlink="http://www.w3.org/1999/xlink">
 <metadata>
  <rdf:RDF xmlns:cc="http://creativecommons.org/ns#" xmlns:dc="http://purl.org/dc/elements/1.1/" xmlns:rdf="http://www.w3.org/1999/02/22-rdf-syntax-ns#">
   <cc:Work>
    <dc:type rdf:resource="http://purl.org/dc/dcmitype/StillImage"/>
    <dc:date>2021-06-04T16:07:47.748757</dc:date>
    <dc:format>image/svg+xml</dc:format>
    <dc:creator>
     <cc:Agent>
      <dc:title>Matplotlib v3.3.3, https://matplotlib.org/</dc:title>
     </cc:Agent>
    </dc:creator>
   </cc:Work>
  </rdf:RDF>
 </metadata>
 <defs>
  <style type="text/css">*{stroke-linecap:butt;stroke-linejoin:round;}</style>
 </defs>
 <g id="figure_1">
  <g id="patch_1">
   <path d="M 0 298.620937 
L 999.58125 298.620937 
L 999.58125 0 
L 0 0 
z
" style="fill:#ffffff;"/>
  </g>
  <g id="axes_1">
   <g id="patch_2">
    <path d="M 43.78125 228.96 
L 992.38125 228.96 
L 992.38125 7.2 
L 43.78125 7.2 
z
" style="fill:#ffffff;"/>
   </g>
   <g id="matplotlib.axis_1">
    <g id="xtick_1">
     <g id="line2d_1">
      <defs>
       <path d="M 0 0 
L 0 3.5 
" id="m982e6ccb34" style="stroke:#000000;stroke-width:0.8;"/>
      </defs>
      <g>
       <use style="stroke:#000000;stroke-width:0.8;" x="72.466568" xlink:href="#m982e6ccb34" y="228.96"/>
      </g>
     </g>
     <g id="text_1">
      <!-- 2020-10 -->
      <g transform="translate(75.225943 277.742812)rotate(-90)scale(0.1 -0.1)">
       <defs>
        <path d="M 19.1875 8.296875 
L 53.609375 8.296875 
L 53.609375 0 
L 7.328125 0 
L 7.328125 8.296875 
Q 12.9375 14.109375 22.625 23.890625 
Q 32.328125 33.6875 34.8125 36.53125 
Q 39.546875 41.84375 41.421875 45.53125 
Q 43.3125 49.21875 43.3125 52.78125 
Q 43.3125 58.59375 39.234375 62.25 
Q 35.15625 65.921875 28.609375 65.921875 
Q 23.96875 65.921875 18.8125 64.3125 
Q 13.671875 62.703125 7.8125 59.421875 
L 7.8125 69.390625 
Q 13.765625 71.78125 18.9375 73 
Q 24.125 74.21875 28.421875 74.21875 
Q 39.75 74.21875 46.484375 68.546875 
Q 53.21875 62.890625 53.21875 53.421875 
Q 53.21875 48.921875 51.53125 44.890625 
Q 49.859375 40.875 45.40625 35.40625 
Q 44.1875 33.984375 37.640625 27.21875 
Q 31.109375 20.453125 19.1875 8.296875 
z
" id="DejaVuSans-50"/>
        <path d="M 31.78125 66.40625 
Q 24.171875 66.40625 20.328125 58.90625 
Q 16.5 51.421875 16.5 36.375 
Q 16.5 21.390625 20.328125 13.890625 
Q 24.171875 6.390625 31.78125 6.390625 
Q 39.453125 6.390625 43.28125 13.890625 
Q 47.125 21.390625 47.125 36.375 
Q 47.125 51.421875 43.28125 58.90625 
Q 39.453125 66.40625 31.78125 66.40625 
z
M 31.78125 74.21875 
Q 44.046875 74.21875 50.515625 64.515625 
Q 56.984375 54.828125 56.984375 36.375 
Q 56.984375 17.96875 50.515625 8.265625 
Q 44.046875 -1.421875 31.78125 -1.421875 
Q 19.53125 -1.421875 13.0625 8.265625 
Q 6.59375 17.96875 6.59375 36.375 
Q 6.59375 54.828125 13.0625 64.515625 
Q 19.53125 74.21875 31.78125 74.21875 
z
" id="DejaVuSans-48"/>
        <path d="M 4.890625 31.390625 
L 31.203125 31.390625 
L 31.203125 23.390625 
L 4.890625 23.390625 
z
" id="DejaVuSans-45"/>
        <path d="M 12.40625 8.296875 
L 28.515625 8.296875 
L 28.515625 63.921875 
L 10.984375 60.40625 
L 10.984375 69.390625 
L 28.421875 72.90625 
L 38.28125 72.90625 
L 38.28125 8.296875 
L 54.390625 8.296875 
L 54.390625 0 
L 12.40625 0 
z
" id="DejaVuSans-49"/>
       </defs>
       <use xlink:href="#DejaVuSans-50"/>
       <use x="63.623047" xlink:href="#DejaVuSans-48"/>
       <use x="127.246094" xlink:href="#DejaVuSans-50"/>
       <use x="190.869141" xlink:href="#DejaVuSans-48"/>
       <use x="254.492188" xlink:href="#DejaVuSans-45"/>
       <use x="290.576172" xlink:href="#DejaVuSans-49"/>
       <use x="354.199219" xlink:href="#DejaVuSans-48"/>
      </g>
     </g>
    </g>
    <g id="xtick_2">
     <g id="line2d_2">
      <g>
       <use style="stroke:#000000;stroke-width:0.8;" x="184.321265" xlink:href="#m982e6ccb34" y="228.96"/>
      </g>
     </g>
     <g id="text_2">
      <!-- 2020-11 -->
      <g transform="translate(187.08064 277.742812)rotate(-90)scale(0.1 -0.1)">
       <use xlink:href="#DejaVuSans-50"/>
       <use x="63.623047" xlink:href="#DejaVuSans-48"/>
       <use x="127.246094" xlink:href="#DejaVuSans-50"/>
       <use x="190.869141" xlink:href="#DejaVuSans-48"/>
       <use x="254.492188" xlink:href="#DejaVuSans-45"/>
       <use x="290.576172" xlink:href="#DejaVuSans-49"/>
       <use x="354.199219" xlink:href="#DejaVuSans-49"/>
      </g>
     </g>
    </g>
    <g id="xtick_3">
     <g id="line2d_3">
      <g>
       <use style="stroke:#000000;stroke-width:0.8;" x="292.567747" xlink:href="#m982e6ccb34" y="228.96"/>
      </g>
     </g>
     <g id="text_3">
      <!-- 2020-12 -->
      <g transform="translate(295.327122 277.742812)rotate(-90)scale(0.1 -0.1)">
       <use xlink:href="#DejaVuSans-50"/>
       <use x="63.623047" xlink:href="#DejaVuSans-48"/>
       <use x="127.246094" xlink:href="#DejaVuSans-50"/>
       <use x="190.869141" xlink:href="#DejaVuSans-48"/>
       <use x="254.492188" xlink:href="#DejaVuSans-45"/>
       <use x="290.576172" xlink:href="#DejaVuSans-49"/>
       <use x="354.199219" xlink:href="#DejaVuSans-50"/>
      </g>
     </g>
    </g>
    <g id="xtick_4">
     <g id="line2d_4">
      <g>
       <use style="stroke:#000000;stroke-width:0.8;" x="404.422444" xlink:href="#m982e6ccb34" y="228.96"/>
      </g>
     </g>
     <g id="text_4">
      <!-- 2021-01 -->
      <g transform="translate(407.181819 277.742812)rotate(-90)scale(0.1 -0.1)">
       <use xlink:href="#DejaVuSans-50"/>
       <use x="63.623047" xlink:href="#DejaVuSans-48"/>
       <use x="127.246094" xlink:href="#DejaVuSans-50"/>
       <use x="190.869141" xlink:href="#DejaVuSans-49"/>
       <use x="254.492188" xlink:href="#DejaVuSans-45"/>
       <use x="290.576172" xlink:href="#DejaVuSans-48"/>
       <use x="354.199219" xlink:href="#DejaVuSans-49"/>
      </g>
     </g>
    </g>
    <g id="xtick_5">
     <g id="line2d_5">
      <g>
       <use style="stroke:#000000;stroke-width:0.8;" x="516.277142" xlink:href="#m982e6ccb34" y="228.96"/>
      </g>
     </g>
     <g id="text_5">
      <!-- 2021-02 -->
      <g transform="translate(519.036517 277.742812)rotate(-90)scale(0.1 -0.1)">
       <use xlink:href="#DejaVuSans-50"/>
       <use x="63.623047" xlink:href="#DejaVuSans-48"/>
       <use x="127.246094" xlink:href="#DejaVuSans-50"/>
       <use x="190.869141" xlink:href="#DejaVuSans-49"/>
       <use x="254.492188" xlink:href="#DejaVuSans-45"/>
       <use x="290.576172" xlink:href="#DejaVuSans-48"/>
       <use x="354.199219" xlink:href="#DejaVuSans-50"/>
      </g>
     </g>
    </g>
    <g id="xtick_6">
     <g id="line2d_6">
      <g>
       <use style="stroke:#000000;stroke-width:0.8;" x="617.307191" xlink:href="#m982e6ccb34" y="228.96"/>
      </g>
     </g>
     <g id="text_6">
      <!-- 2021-03 -->
      <g transform="translate(620.066566 277.742812)rotate(-90)scale(0.1 -0.1)">
       <defs>
        <path d="M 40.578125 39.3125 
Q 47.65625 37.796875 51.625 33 
Q 55.609375 28.21875 55.609375 21.1875 
Q 55.609375 10.40625 48.1875 4.484375 
Q 40.765625 -1.421875 27.09375 -1.421875 
Q 22.515625 -1.421875 17.65625 -0.515625 
Q 12.796875 0.390625 7.625 2.203125 
L 7.625 11.71875 
Q 11.71875 9.328125 16.59375 8.109375 
Q 21.484375 6.890625 26.8125 6.890625 
Q 36.078125 6.890625 40.9375 10.546875 
Q 45.796875 14.203125 45.796875 21.1875 
Q 45.796875 27.640625 41.28125 31.265625 
Q 36.765625 34.90625 28.71875 34.90625 
L 20.21875 34.90625 
L 20.21875 43.015625 
L 29.109375 43.015625 
Q 36.375 43.015625 40.234375 45.921875 
Q 44.09375 48.828125 44.09375 54.296875 
Q 44.09375 59.90625 40.109375 62.90625 
Q 36.140625 65.921875 28.71875 65.921875 
Q 24.65625 65.921875 20.015625 65.03125 
Q 15.375 64.15625 9.8125 62.3125 
L 9.8125 71.09375 
Q 15.4375 72.65625 20.34375 73.4375 
Q 25.25 74.21875 29.59375 74.21875 
Q 40.828125 74.21875 47.359375 69.109375 
Q 53.90625 64.015625 53.90625 55.328125 
Q 53.90625 49.265625 50.4375 45.09375 
Q 46.96875 40.921875 40.578125 39.3125 
z
" id="DejaVuSans-51"/>
       </defs>
       <use xlink:href="#DejaVuSans-50"/>
       <use x="63.623047" xlink:href="#DejaVuSans-48"/>
       <use x="127.246094" xlink:href="#DejaVuSans-50"/>
       <use x="190.869141" xlink:href="#DejaVuSans-49"/>
       <use x="254.492188" xlink:href="#DejaVuSans-45"/>
       <use x="290.576172" xlink:href="#DejaVuSans-48"/>
       <use x="354.199219" xlink:href="#DejaVuSans-51"/>
      </g>
     </g>
    </g>
    <g id="xtick_7">
     <g id="line2d_7">
      <g>
       <use style="stroke:#000000;stroke-width:0.8;" x="729.161889" xlink:href="#m982e6ccb34" y="228.96"/>
      </g>
     </g>
     <g id="text_7">
      <!-- 2021-04 -->
      <g transform="translate(731.921264 277.742812)rotate(-90)scale(0.1 -0.1)">
       <defs>
        <path d="M 37.796875 64.3125 
L 12.890625 25.390625 
L 37.796875 25.390625 
z
M 35.203125 72.90625 
L 47.609375 72.90625 
L 47.609375 25.390625 
L 58.015625 25.390625 
L 58.015625 17.1875 
L 47.609375 17.1875 
L 47.609375 0 
L 37.796875 0 
L 37.796875 17.1875 
L 4.890625 17.1875 
L 4.890625 26.703125 
z
" id="DejaVuSans-52"/>
       </defs>
       <use xlink:href="#DejaVuSans-50"/>
       <use x="63.623047" xlink:href="#DejaVuSans-48"/>
       <use x="127.246094" xlink:href="#DejaVuSans-50"/>
       <use x="190.869141" xlink:href="#DejaVuSans-49"/>
       <use x="254.492188" xlink:href="#DejaVuSans-45"/>
       <use x="290.576172" xlink:href="#DejaVuSans-48"/>
       <use x="354.199219" xlink:href="#DejaVuSans-52"/>
      </g>
     </g>
    </g>
    <g id="xtick_8">
     <g id="line2d_8">
      <g>
       <use style="stroke:#000000;stroke-width:0.8;" x="837.408371" xlink:href="#m982e6ccb34" y="228.96"/>
      </g>
     </g>
     <g id="text_8">
      <!-- 2021-05 -->
      <g transform="translate(840.167746 277.742812)rotate(-90)scale(0.1 -0.1)">
       <defs>
        <path d="M 10.796875 72.90625 
L 49.515625 72.90625 
L 49.515625 64.59375 
L 19.828125 64.59375 
L 19.828125 46.734375 
Q 21.96875 47.46875 24.109375 47.828125 
Q 26.265625 48.1875 28.421875 48.1875 
Q 40.625 48.1875 47.75 41.5 
Q 54.890625 34.8125 54.890625 23.390625 
Q 54.890625 11.625 47.5625 5.09375 
Q 40.234375 -1.421875 26.90625 -1.421875 
Q 22.3125 -1.421875 17.546875 -0.640625 
Q 12.796875 0.140625 7.71875 1.703125 
L 7.71875 11.625 
Q 12.109375 9.234375 16.796875 8.0625 
Q 21.484375 6.890625 26.703125 6.890625 
Q 35.15625 6.890625 40.078125 11.328125 
Q 45.015625 15.765625 45.015625 23.390625 
Q 45.015625 31 40.078125 35.4375 
Q 35.15625 39.890625 26.703125 39.890625 
Q 22.75 39.890625 18.8125 39.015625 
Q 14.890625 38.140625 10.796875 36.28125 
z
" id="DejaVuSans-53"/>
       </defs>
       <use xlink:href="#DejaVuSans-50"/>
       <use x="63.623047" xlink:href="#DejaVuSans-48"/>
       <use x="127.246094" xlink:href="#DejaVuSans-50"/>
       <use x="190.869141" xlink:href="#DejaVuSans-49"/>
       <use x="254.492188" xlink:href="#DejaVuSans-45"/>
       <use x="290.576172" xlink:href="#DejaVuSans-48"/>
       <use x="354.199219" xlink:href="#DejaVuSans-53"/>
      </g>
     </g>
    </g>
    <g id="xtick_9">
     <g id="line2d_9">
      <g>
       <use style="stroke:#000000;stroke-width:0.8;" x="949.263068" xlink:href="#m982e6ccb34" y="228.96"/>
      </g>
     </g>
     <g id="text_9">
      <!-- 2021-06 -->
      <g transform="translate(952.022443 277.742812)rotate(-90)scale(0.1 -0.1)">
       <defs>
        <path d="M 33.015625 40.375 
Q 26.375 40.375 22.484375 35.828125 
Q 18.609375 31.296875 18.609375 23.390625 
Q 18.609375 15.53125 22.484375 10.953125 
Q 26.375 6.390625 33.015625 6.390625 
Q 39.65625 6.390625 43.53125 10.953125 
Q 47.40625 15.53125 47.40625 23.390625 
Q 47.40625 31.296875 43.53125 35.828125 
Q 39.65625 40.375 33.015625 40.375 
z
M 52.59375 71.296875 
L 52.59375 62.3125 
Q 48.875 64.0625 45.09375 64.984375 
Q 41.3125 65.921875 37.59375 65.921875 
Q 27.828125 65.921875 22.671875 59.328125 
Q 17.53125 52.734375 16.796875 39.40625 
Q 19.671875 43.65625 24.015625 45.921875 
Q 28.375 48.1875 33.59375 48.1875 
Q 44.578125 48.1875 50.953125 41.515625 
Q 57.328125 34.859375 57.328125 23.390625 
Q 57.328125 12.15625 50.6875 5.359375 
Q 44.046875 -1.421875 33.015625 -1.421875 
Q 20.359375 -1.421875 13.671875 8.265625 
Q 6.984375 17.96875 6.984375 36.375 
Q 6.984375 53.65625 15.1875 63.9375 
Q 23.390625 74.21875 37.203125 74.21875 
Q 40.921875 74.21875 44.703125 73.484375 
Q 48.484375 72.75 52.59375 71.296875 
z
" id="DejaVuSans-54"/>
       </defs>
       <use xlink:href="#DejaVuSans-50"/>
       <use x="63.623047" xlink:href="#DejaVuSans-48"/>
       <use x="127.246094" xlink:href="#DejaVuSans-50"/>
       <use x="190.869141" xlink:href="#DejaVuSans-49"/>
       <use x="254.492188" xlink:href="#DejaVuSans-45"/>
       <use x="290.576172" xlink:href="#DejaVuSans-48"/>
       <use x="354.199219" xlink:href="#DejaVuSans-54"/>
      </g>
     </g>
    </g>
    <g id="text_10">
     <!-- Date -->
     <g transform="translate(506.130469 289.34125)scale(0.1 -0.1)">
      <defs>
       <path d="M 19.671875 64.796875 
L 19.671875 8.109375 
L 31.59375 8.109375 
Q 46.6875 8.109375 53.6875 14.9375 
Q 60.6875 21.78125 60.6875 36.53125 
Q 60.6875 51.171875 53.6875 57.984375 
Q 46.6875 64.796875 31.59375 64.796875 
z
M 9.8125 72.90625 
L 30.078125 72.90625 
Q 51.265625 72.90625 61.171875 64.09375 
Q 71.09375 55.28125 71.09375 36.53125 
Q 71.09375 17.671875 61.125 8.828125 
Q 51.171875 0 30.078125 0 
L 9.8125 0 
z
" id="DejaVuSans-68"/>
       <path d="M 34.28125 27.484375 
Q 23.390625 27.484375 19.1875 25 
Q 14.984375 22.515625 14.984375 16.5 
Q 14.984375 11.71875 18.140625 8.90625 
Q 21.296875 6.109375 26.703125 6.109375 
Q 34.1875 6.109375 38.703125 11.40625 
Q 43.21875 16.703125 43.21875 25.484375 
L 43.21875 27.484375 
z
M 52.203125 31.203125 
L 52.203125 0 
L 43.21875 0 
L 43.21875 8.296875 
Q 40.140625 3.328125 35.546875 0.953125 
Q 30.953125 -1.421875 24.3125 -1.421875 
Q 15.921875 -1.421875 10.953125 3.296875 
Q 6 8.015625 6 15.921875 
Q 6 25.140625 12.171875 29.828125 
Q 18.359375 34.515625 30.609375 34.515625 
L 43.21875 34.515625 
L 43.21875 35.40625 
Q 43.21875 41.609375 39.140625 45 
Q 35.0625 48.390625 27.6875 48.390625 
Q 23 48.390625 18.546875 47.265625 
Q 14.109375 46.140625 10.015625 43.890625 
L 10.015625 52.203125 
Q 14.9375 54.109375 19.578125 55.046875 
Q 24.21875 56 28.609375 56 
Q 40.484375 56 46.34375 49.84375 
Q 52.203125 43.703125 52.203125 31.203125 
z
" id="DejaVuSans-97"/>
       <path d="M 18.3125 70.21875 
L 18.3125 54.6875 
L 36.8125 54.6875 
L 36.8125 47.703125 
L 18.3125 47.703125 
L 18.3125 18.015625 
Q 18.3125 11.328125 20.140625 9.421875 
Q 21.96875 7.515625 27.59375 7.515625 
L 36.8125 7.515625 
L 36.8125 0 
L 27.59375 0 
Q 17.1875 0 13.234375 3.875 
Q 9.28125 7.765625 9.28125 18.015625 
L 9.28125 47.703125 
L 2.6875 47.703125 
L 2.6875 54.6875 
L 9.28125 54.6875 
L 9.28125 70.21875 
z
" id="DejaVuSans-116"/>
       <path d="M 56.203125 29.59375 
L 56.203125 25.203125 
L 14.890625 25.203125 
Q 15.484375 15.921875 20.484375 11.0625 
Q 25.484375 6.203125 34.421875 6.203125 
Q 39.59375 6.203125 44.453125 7.46875 
Q 49.3125 8.734375 54.109375 11.28125 
L 54.109375 2.78125 
Q 49.265625 0.734375 44.1875 -0.34375 
Q 39.109375 -1.421875 33.890625 -1.421875 
Q 20.796875 -1.421875 13.15625 6.1875 
Q 5.515625 13.8125 5.515625 26.8125 
Q 5.515625 40.234375 12.765625 48.109375 
Q 20.015625 56 32.328125 56 
Q 43.359375 56 49.78125 48.890625 
Q 56.203125 41.796875 56.203125 29.59375 
z
M 47.21875 32.234375 
Q 47.125 39.59375 43.09375 43.984375 
Q 39.0625 48.390625 32.421875 48.390625 
Q 24.90625 48.390625 20.390625 44.140625 
Q 15.875 39.890625 15.1875 32.171875 
z
" id="DejaVuSans-101"/>
      </defs>
      <use xlink:href="#DejaVuSans-68"/>
      <use x="77.001953" xlink:href="#DejaVuSans-97"/>
      <use x="138.28125" xlink:href="#DejaVuSans-116"/>
      <use x="177.490234" xlink:href="#DejaVuSans-101"/>
     </g>
    </g>
   </g>
   <g id="matplotlib.axis_2">
    <g id="ytick_1">
     <g id="line2d_10">
      <defs>
       <path d="M 0 0 
L -3.5 0 
" id="m2cf4dcb1b1" style="stroke:#000000;stroke-width:0.8;"/>
      </defs>
      <g>
       <use style="stroke:#000000;stroke-width:0.8;" x="43.78125" xlink:href="#m2cf4dcb1b1" y="228.96"/>
      </g>
     </g>
     <g id="text_11">
      <!-- 0.0 -->
      <g transform="translate(20.878125 232.759219)scale(0.1 -0.1)">
       <defs>
        <path d="M 10.6875 12.40625 
L 21 12.40625 
L 21 0 
L 10.6875 0 
z
" id="DejaVuSans-46"/>
       </defs>
       <use xlink:href="#DejaVuSans-48"/>
       <use x="63.623047" xlink:href="#DejaVuSans-46"/>
       <use x="95.410156" xlink:href="#DejaVuSans-48"/>
      </g>
     </g>
    </g>
    <g id="ytick_2">
     <g id="line2d_11">
      <g>
       <use style="stroke:#000000;stroke-width:0.8;" x="43.78125" xlink:href="#m2cf4dcb1b1" y="199.892201"/>
      </g>
     </g>
     <g id="text_12">
      <!-- 0.1 -->
      <g transform="translate(20.878125 203.69142)scale(0.1 -0.1)">
       <use xlink:href="#DejaVuSans-48"/>
       <use x="63.623047" xlink:href="#DejaVuSans-46"/>
       <use x="95.410156" xlink:href="#DejaVuSans-49"/>
      </g>
     </g>
    </g>
    <g id="ytick_3">
     <g id="line2d_12">
      <g>
       <use style="stroke:#000000;stroke-width:0.8;" x="43.78125" xlink:href="#m2cf4dcb1b1" y="170.824403"/>
      </g>
     </g>
     <g id="text_13">
      <!-- 0.2 -->
      <g transform="translate(20.878125 174.623621)scale(0.1 -0.1)">
       <use xlink:href="#DejaVuSans-48"/>
       <use x="63.623047" xlink:href="#DejaVuSans-46"/>
       <use x="95.410156" xlink:href="#DejaVuSans-50"/>
      </g>
     </g>
    </g>
    <g id="ytick_4">
     <g id="line2d_13">
      <g>
       <use style="stroke:#000000;stroke-width:0.8;" x="43.78125" xlink:href="#m2cf4dcb1b1" y="141.756604"/>
      </g>
     </g>
     <g id="text_14">
      <!-- 0.3 -->
      <g transform="translate(20.878125 145.555823)scale(0.1 -0.1)">
       <use xlink:href="#DejaVuSans-48"/>
       <use x="63.623047" xlink:href="#DejaVuSans-46"/>
       <use x="95.410156" xlink:href="#DejaVuSans-51"/>
      </g>
     </g>
    </g>
    <g id="ytick_5">
     <g id="line2d_14">
      <g>
       <use style="stroke:#000000;stroke-width:0.8;" x="43.78125" xlink:href="#m2cf4dcb1b1" y="112.688805"/>
      </g>
     </g>
     <g id="text_15">
      <!-- 0.4 -->
      <g transform="translate(20.878125 116.488024)scale(0.1 -0.1)">
       <use xlink:href="#DejaVuSans-48"/>
       <use x="63.623047" xlink:href="#DejaVuSans-46"/>
       <use x="95.410156" xlink:href="#DejaVuSans-52"/>
      </g>
     </g>
    </g>
    <g id="ytick_6">
     <g id="line2d_15">
      <g>
       <use style="stroke:#000000;stroke-width:0.8;" x="43.78125" xlink:href="#m2cf4dcb1b1" y="83.621007"/>
      </g>
     </g>
     <g id="text_16">
      <!-- 0.5 -->
      <g transform="translate(20.878125 87.420226)scale(0.1 -0.1)">
       <use xlink:href="#DejaVuSans-48"/>
       <use x="63.623047" xlink:href="#DejaVuSans-46"/>
       <use x="95.410156" xlink:href="#DejaVuSans-53"/>
      </g>
     </g>
    </g>
    <g id="ytick_7">
     <g id="line2d_16">
      <g>
       <use style="stroke:#000000;stroke-width:0.8;" x="43.78125" xlink:href="#m2cf4dcb1b1" y="54.553208"/>
      </g>
     </g>
     <g id="text_17">
      <!-- 0.6 -->
      <g transform="translate(20.878125 58.352427)scale(0.1 -0.1)">
       <use xlink:href="#DejaVuSans-48"/>
       <use x="63.623047" xlink:href="#DejaVuSans-46"/>
       <use x="95.410156" xlink:href="#DejaVuSans-54"/>
      </g>
     </g>
    </g>
    <g id="ytick_8">
     <g id="line2d_17">
      <g>
       <use style="stroke:#000000;stroke-width:0.8;" x="43.78125" xlink:href="#m2cf4dcb1b1" y="25.485409"/>
      </g>
     </g>
     <g id="text_18">
      <!-- 0.7 -->
      <g transform="translate(20.878125 29.284628)scale(0.1 -0.1)">
       <defs>
        <path d="M 8.203125 72.90625 
L 55.078125 72.90625 
L 55.078125 68.703125 
L 28.609375 0 
L 18.3125 0 
L 43.21875 64.59375 
L 8.203125 64.59375 
z
" id="DejaVuSans-55"/>
       </defs>
       <use xlink:href="#DejaVuSans-48"/>
       <use x="63.623047" xlink:href="#DejaVuSans-46"/>
       <use x="95.410156" xlink:href="#DejaVuSans-55"/>
      </g>
     </g>
    </g>
    <g id="text_19">
     <!-- Frequency (7 day rolling average) -->
     <g transform="translate(14.798437 202.529219)rotate(-90)scale(0.1 -0.1)">
      <defs>
       <path d="M 9.8125 72.90625 
L 51.703125 72.90625 
L 51.703125 64.59375 
L 19.671875 64.59375 
L 19.671875 43.109375 
L 48.578125 43.109375 
L 48.578125 34.8125 
L 19.671875 34.8125 
L 19.671875 0 
L 9.8125 0 
z
" id="DejaVuSans-70"/>
       <path d="M 41.109375 46.296875 
Q 39.59375 47.171875 37.8125 47.578125 
Q 36.03125 48 33.890625 48 
Q 26.265625 48 22.1875 43.046875 
Q 18.109375 38.09375 18.109375 28.8125 
L 18.109375 0 
L 9.078125 0 
L 9.078125 54.6875 
L 18.109375 54.6875 
L 18.109375 46.1875 
Q 20.953125 51.171875 25.484375 53.578125 
Q 30.03125 56 36.53125 56 
Q 37.453125 56 38.578125 55.875 
Q 39.703125 55.765625 41.0625 55.515625 
z
" id="DejaVuSans-114"/>
       <path d="M 14.796875 27.296875 
Q 14.796875 17.390625 18.875 11.75 
Q 22.953125 6.109375 30.078125 6.109375 
Q 37.203125 6.109375 41.296875 11.75 
Q 45.40625 17.390625 45.40625 27.296875 
Q 45.40625 37.203125 41.296875 42.84375 
Q 37.203125 48.484375 30.078125 48.484375 
Q 22.953125 48.484375 18.875 42.84375 
Q 14.796875 37.203125 14.796875 27.296875 
z
M 45.40625 8.203125 
Q 42.578125 3.328125 38.25 0.953125 
Q 33.9375 -1.421875 27.875 -1.421875 
Q 17.96875 -1.421875 11.734375 6.484375 
Q 5.515625 14.40625 5.515625 27.296875 
Q 5.515625 40.1875 11.734375 48.09375 
Q 17.96875 56 27.875 56 
Q 33.9375 56 38.25 53.625 
Q 42.578125 51.265625 45.40625 46.390625 
L 45.40625 54.6875 
L 54.390625 54.6875 
L 54.390625 -20.796875 
L 45.40625 -20.796875 
z
" id="DejaVuSans-113"/>
       <path d="M 8.5 21.578125 
L 8.5 54.6875 
L 17.484375 54.6875 
L 17.484375 21.921875 
Q 17.484375 14.15625 20.5 10.265625 
Q 23.53125 6.390625 29.59375 6.390625 
Q 36.859375 6.390625 41.078125 11.03125 
Q 45.3125 15.671875 45.3125 23.6875 
L 45.3125 54.6875 
L 54.296875 54.6875 
L 54.296875 0 
L 45.3125 0 
L 45.3125 8.40625 
Q 42.046875 3.421875 37.71875 1 
Q 33.40625 -1.421875 27.6875 -1.421875 
Q 18.265625 -1.421875 13.375 4.4375 
Q 8.5 10.296875 8.5 21.578125 
z
M 31.109375 56 
z
" id="DejaVuSans-117"/>
       <path d="M 54.890625 33.015625 
L 54.890625 0 
L 45.90625 0 
L 45.90625 32.71875 
Q 45.90625 40.484375 42.875 44.328125 
Q 39.84375 48.1875 33.796875 48.1875 
Q 26.515625 48.1875 22.3125 43.546875 
Q 18.109375 38.921875 18.109375 30.90625 
L 18.109375 0 
L 9.078125 0 
L 9.078125 54.6875 
L 18.109375 54.6875 
L 18.109375 46.1875 
Q 21.34375 51.125 25.703125 53.5625 
Q 30.078125 56 35.796875 56 
Q 45.21875 56 50.046875 50.171875 
Q 54.890625 44.34375 54.890625 33.015625 
z
" id="DejaVuSans-110"/>
       <path d="M 48.78125 52.59375 
L 48.78125 44.1875 
Q 44.96875 46.296875 41.140625 47.34375 
Q 37.3125 48.390625 33.40625 48.390625 
Q 24.65625 48.390625 19.8125 42.84375 
Q 14.984375 37.3125 14.984375 27.296875 
Q 14.984375 17.28125 19.8125 11.734375 
Q 24.65625 6.203125 33.40625 6.203125 
Q 37.3125 6.203125 41.140625 7.25 
Q 44.96875 8.296875 48.78125 10.40625 
L 48.78125 2.09375 
Q 45.015625 0.34375 40.984375 -0.53125 
Q 36.96875 -1.421875 32.421875 -1.421875 
Q 20.0625 -1.421875 12.78125 6.34375 
Q 5.515625 14.109375 5.515625 27.296875 
Q 5.515625 40.671875 12.859375 48.328125 
Q 20.21875 56 33.015625 56 
Q 37.15625 56 41.109375 55.140625 
Q 45.0625 54.296875 48.78125 52.59375 
z
" id="DejaVuSans-99"/>
       <path d="M 32.171875 -5.078125 
Q 28.375 -14.84375 24.75 -17.8125 
Q 21.140625 -20.796875 15.09375 -20.796875 
L 7.90625 -20.796875 
L 7.90625 -13.28125 
L 13.1875 -13.28125 
Q 16.890625 -13.28125 18.9375 -11.515625 
Q 21 -9.765625 23.484375 -3.21875 
L 25.09375 0.875 
L 2.984375 54.6875 
L 12.5 54.6875 
L 29.59375 11.921875 
L 46.6875 54.6875 
L 56.203125 54.6875 
z
" id="DejaVuSans-121"/>
       <path id="DejaVuSans-32"/>
       <path d="M 31 75.875 
Q 24.46875 64.65625 21.28125 53.65625 
Q 18.109375 42.671875 18.109375 31.390625 
Q 18.109375 20.125 21.3125 9.0625 
Q 24.515625 -2 31 -13.1875 
L 23.1875 -13.1875 
Q 15.875 -1.703125 12.234375 9.375 
Q 8.59375 20.453125 8.59375 31.390625 
Q 8.59375 42.28125 12.203125 53.3125 
Q 15.828125 64.359375 23.1875 75.875 
z
" id="DejaVuSans-40"/>
       <path d="M 45.40625 46.390625 
L 45.40625 75.984375 
L 54.390625 75.984375 
L 54.390625 0 
L 45.40625 0 
L 45.40625 8.203125 
Q 42.578125 3.328125 38.25 0.953125 
Q 33.9375 -1.421875 27.875 -1.421875 
Q 17.96875 -1.421875 11.734375 6.484375 
Q 5.515625 14.40625 5.515625 27.296875 
Q 5.515625 40.1875 11.734375 48.09375 
Q 17.96875 56 27.875 56 
Q 33.9375 56 38.25 53.625 
Q 42.578125 51.265625 45.40625 46.390625 
z
M 14.796875 27.296875 
Q 14.796875 17.390625 18.875 11.75 
Q 22.953125 6.109375 30.078125 6.109375 
Q 37.203125 6.109375 41.296875 11.75 
Q 45.40625 17.390625 45.40625 27.296875 
Q 45.40625 37.203125 41.296875 42.84375 
Q 37.203125 48.484375 30.078125 48.484375 
Q 22.953125 48.484375 18.875 42.84375 
Q 14.796875 37.203125 14.796875 27.296875 
z
" id="DejaVuSans-100"/>
       <path d="M 30.609375 48.390625 
Q 23.390625 48.390625 19.1875 42.75 
Q 14.984375 37.109375 14.984375 27.296875 
Q 14.984375 17.484375 19.15625 11.84375 
Q 23.34375 6.203125 30.609375 6.203125 
Q 37.796875 6.203125 41.984375 11.859375 
Q 46.1875 17.53125 46.1875 27.296875 
Q 46.1875 37.015625 41.984375 42.703125 
Q 37.796875 48.390625 30.609375 48.390625 
z
M 30.609375 56 
Q 42.328125 56 49.015625 48.375 
Q 55.71875 40.765625 55.71875 27.296875 
Q 55.71875 13.875 49.015625 6.21875 
Q 42.328125 -1.421875 30.609375 -1.421875 
Q 18.84375 -1.421875 12.171875 6.21875 
Q 5.515625 13.875 5.515625 27.296875 
Q 5.515625 40.765625 12.171875 48.375 
Q 18.84375 56 30.609375 56 
z
" id="DejaVuSans-111"/>
       <path d="M 9.421875 75.984375 
L 18.40625 75.984375 
L 18.40625 0 
L 9.421875 0 
z
" id="DejaVuSans-108"/>
       <path d="M 9.421875 54.6875 
L 18.40625 54.6875 
L 18.40625 0 
L 9.421875 0 
z
M 9.421875 75.984375 
L 18.40625 75.984375 
L 18.40625 64.59375 
L 9.421875 64.59375 
z
" id="DejaVuSans-105"/>
       <path d="M 45.40625 27.984375 
Q 45.40625 37.75 41.375 43.109375 
Q 37.359375 48.484375 30.078125 48.484375 
Q 22.859375 48.484375 18.828125 43.109375 
Q 14.796875 37.75 14.796875 27.984375 
Q 14.796875 18.265625 18.828125 12.890625 
Q 22.859375 7.515625 30.078125 7.515625 
Q 37.359375 7.515625 41.375 12.890625 
Q 45.40625 18.265625 45.40625 27.984375 
z
M 54.390625 6.78125 
Q 54.390625 -7.171875 48.1875 -13.984375 
Q 42 -20.796875 29.203125 -20.796875 
Q 24.46875 -20.796875 20.265625 -20.09375 
Q 16.0625 -19.390625 12.109375 -17.921875 
L 12.109375 -9.1875 
Q 16.0625 -11.328125 19.921875 -12.34375 
Q 23.78125 -13.375 27.78125 -13.375 
Q 36.625 -13.375 41.015625 -8.765625 
Q 45.40625 -4.15625 45.40625 5.171875 
L 45.40625 9.625 
Q 42.625 4.78125 38.28125 2.390625 
Q 33.9375 0 27.875 0 
Q 17.828125 0 11.671875 7.65625 
Q 5.515625 15.328125 5.515625 27.984375 
Q 5.515625 40.671875 11.671875 48.328125 
Q 17.828125 56 27.875 56 
Q 33.9375 56 38.28125 53.609375 
Q 42.625 51.21875 45.40625 46.390625 
L 45.40625 54.6875 
L 54.390625 54.6875 
z
" id="DejaVuSans-103"/>
       <path d="M 2.984375 54.6875 
L 12.5 54.6875 
L 29.59375 8.796875 
L 46.6875 54.6875 
L 56.203125 54.6875 
L 35.6875 0 
L 23.484375 0 
z
" id="DejaVuSans-118"/>
       <path d="M 8.015625 75.875 
L 15.828125 75.875 
Q 23.140625 64.359375 26.78125 53.3125 
Q 30.421875 42.28125 30.421875 31.390625 
Q 30.421875 20.453125 26.78125 9.375 
Q 23.140625 -1.703125 15.828125 -13.1875 
L 8.015625 -13.1875 
Q 14.5 -2 17.703125 9.0625 
Q 20.90625 20.125 20.90625 31.390625 
Q 20.90625 42.671875 17.703125 53.65625 
Q 14.5 64.65625 8.015625 75.875 
z
" id="DejaVuSans-41"/>
      </defs>
      <use xlink:href="#DejaVuSans-70"/>
      <use x="50.269531" xlink:href="#DejaVuSans-114"/>
      <use x="89.132812" xlink:href="#DejaVuSans-101"/>
      <use x="150.65625" xlink:href="#DejaVuSans-113"/>
      <use x="214.132812" xlink:href="#DejaVuSans-117"/>
      <use x="277.511719" xlink:href="#DejaVuSans-101"/>
      <use x="339.035156" xlink:href="#DejaVuSans-110"/>
      <use x="402.414062" xlink:href="#DejaVuSans-99"/>
      <use x="457.394531" xlink:href="#DejaVuSans-121"/>
      <use x="516.574219" xlink:href="#DejaVuSans-32"/>
      <use x="548.361328" xlink:href="#DejaVuSans-40"/>
      <use x="587.375" xlink:href="#DejaVuSans-55"/>
      <use x="650.998047" xlink:href="#DejaVuSans-32"/>
      <use x="682.785156" xlink:href="#DejaVuSans-100"/>
      <use x="746.261719" xlink:href="#DejaVuSans-97"/>
      <use x="807.541016" xlink:href="#DejaVuSans-121"/>
      <use x="866.720703" xlink:href="#DejaVuSans-32"/>
      <use x="898.507812" xlink:href="#DejaVuSans-114"/>
      <use x="937.371094" xlink:href="#DejaVuSans-111"/>
      <use x="998.552734" xlink:href="#DejaVuSans-108"/>
      <use x="1026.335938" xlink:href="#DejaVuSans-108"/>
      <use x="1054.119141" xlink:href="#DejaVuSans-105"/>
      <use x="1081.902344" xlink:href="#DejaVuSans-110"/>
      <use x="1145.28125" xlink:href="#DejaVuSans-103"/>
      <use x="1208.757812" xlink:href="#DejaVuSans-32"/>
      <use x="1240.544922" xlink:href="#DejaVuSans-97"/>
      <use x="1301.824219" xlink:href="#DejaVuSans-118"/>
      <use x="1361.003906" xlink:href="#DejaVuSans-101"/>
      <use x="1422.527344" xlink:href="#DejaVuSans-114"/>
      <use x="1463.640625" xlink:href="#DejaVuSans-97"/>
      <use x="1524.919922" xlink:href="#DejaVuSans-103"/>
      <use x="1588.396484" xlink:href="#DejaVuSans-101"/>
      <use x="1649.919922" xlink:href="#DejaVuSans-41"/>
     </g>
    </g>
   </g>
   <g id="line2d_18">
    <path clip-path="url(#p3f99d8f1de)" d="M 447.721037 228.861248 
L 462.153901 228.827955 
L 487.411414 228.934768 
L 498.236062 228.934127 
L 512.668926 228.908796 
L 527.10179 228.935049 
L 555.967519 228.801547 
L 563.183951 228.798352 
L 574.008599 228.718169 
L 588.441463 228.733357 
L 602.874327 228.444604 
L 606.482543 228.396874 
L 613.698975 228.489749 
L 617.307191 228.503795 
L 631.740056 227.684955 
L 635.348272 227.603488 
L 642.564704 227.817481 
L 646.17292 227.581722 
L 649.781136 227.688015 
L 653.389352 227.582407 
L 660.605784 226.593121 
L 664.214 226.708591 
L 671.430432 225.988099 
L 675.038648 226.191113 
L 678.646864 226.235766 
L 682.25508 225.616357 
L 685.863296 225.157624 
L 689.471512 224.579369 
L 700.296161 223.42867 
L 703.904377 223.249224 
L 707.512593 222.953392 
L 721.945457 220.967163 
L 725.553673 220.38942 
L 732.770105 218.423345 
L 736.378321 217.97696 
L 739.986537 217.162546 
L 743.594753 216.706147 
L 747.202969 216.747486 
L 750.811185 216.321782 
L 758.027617 215.684748 
L 761.635833 215.061676 
L 765.24405 214.09602 
L 768.852266 213.65804 
L 776.068698 213.187142 
L 783.28513 213.324433 
L 786.893346 213.123923 
L 790.501562 212.247641 
L 794.109778 210.994837 
L 797.717994 210.782619 
L 801.32621 210.343077 
L 812.150858 209.539121 
L 819.36729 208.178054 
L 822.975506 207.841203 
L 826.583722 208.061443 
L 830.191938 208.553617 
L 833.800155 208.324616 
L 837.408371 208.330333 
L 841.016587 207.978788 
L 844.624803 207.24506 
L 851.841235 206.537669 
L 855.449451 206.516185 
L 859.057667 206.768446 
L 862.665883 206.33079 
L 869.882315 206.446376 
L 873.490531 205.624273 
L 877.098747 205.316892 
L 880.706963 204.806993 
L 884.315179 204.450771 
L 887.923395 204.496113 
L 891.531611 202.937245 
L 895.139827 201.699032 
L 898.748043 200.620629 
L 902.35626 199.065597 
L 905.964476 196.959764 
L 909.572692 196.759981 
L 913.180908 195.769068 
L 916.789124 195.577872 
L 920.39734 192.739353 
L 924.005556 197.48001 
L 927.613772 197.931724 
L 931.221988 200.236297 
L 934.830204 198.160026 
L 938.43842 207.402095 
L 942.046636 209.308181 
L 945.654852 215.767691 
L 949.263068 162.104063 
L 949.263068 162.104063 
" style="fill:none;stroke:#947383;stroke-linecap:square;stroke-width:2;"/>
   </g>
   <g id="line2d_19">
    <path clip-path="url(#p3f99d8f1de)" d="M 86.899432 223.14644 
L 90.507648 228.96 
L 159.063753 228.96 
L 162.671969 226.80683 
L 177.104833 226.80683 
L 180.713049 228.96 
L 187.929481 228.96 
L 191.537697 226.883729 
L 205.970562 226.883729 
L 209.578778 228.96 
L 242.052722 228.96 
L 245.660938 220.016062 
L 260.093802 220.016062 
L 263.702018 228.96 
L 285.351315 228.96 
L 288.959531 225.730245 
L 299.784179 225.730245 
L 303.392395 222.310504 
L 307.000611 225.540259 
L 317.825259 225.540259 
L 321.433475 228.96 
L 343.082771 228.96 
L 346.690988 222.675071 
L 350.299204 210.705977 
L 353.90742 206.452153 
L 361.123852 206.452153 
L 364.732068 198.203183 
L 368.340284 206.019734 
L 371.9485 196.857651 
L 375.556716 185.230531 
L 379.164932 170.696632 
L 382.773148 181.81079 
L 386.381364 174.336214 
L 389.98958 167.472261 
L 393.597796 169.920076 
L 397.206012 159.975829 
L 400.814228 159.762095 
L 404.422444 169.817982 
L 408.03066 190.097842 
L 411.638876 192.010197 
L 415.247093 205.339051 
L 418.855309 197.026855 
L 422.463525 190.090439 
L 426.071741 179.831216 
L 429.679957 175.678673 
L 433.288173 183.59821 
L 436.896389 190.699248 
L 440.504605 188.723428 
L 444.112821 192.006379 
L 447.721037 191.798752 
L 451.329253 188.268554 
L 454.937469 174.679949 
L 458.545685 181.809441 
L 462.153901 187.599272 
L 465.762117 186.687341 
L 469.370333 161.736968 
L 472.978549 169.735612 
L 476.586765 161.198216 
L 480.194981 150.356603 
L 483.803198 135.904126 
L 487.411414 160.031548 
L 491.01963 154.963316 
L 494.627846 152.127003 
L 498.236062 153.819841 
L 501.844278 163.014757 
L 505.452494 157.678639 
L 509.06071 157.144059 
L 512.668926 163.566658 
L 516.277142 161.263702 
L 519.885358 166.521263 
L 523.493574 161.4711 
L 527.10179 167.81924 
L 530.710006 159.130843 
L 534.318222 154.812801 
L 537.926438 149.911172 
L 541.534654 149.937271 
L 545.14287 144.164942 
L 548.751086 146.251861 
L 552.359302 144.181881 
L 555.967519 147.088661 
L 559.575735 148.421576 
L 563.183951 149.349272 
L 566.792167 141.94799 
L 570.400383 142.080116 
L 574.008599 140.84843 
L 577.616815 132.697142 
L 581.225031 134.469569 
L 584.833247 139.01376 
L 588.441463 145.796246 
L 592.049679 139.599495 
L 595.657895 144.29033 
L 599.266111 128.371575 
L 602.874327 126.756697 
L 606.482543 113.897285 
L 610.090759 111.011342 
L 613.698975 102.014167 
L 617.307191 116.160495 
L 620.915407 104.595887 
L 624.523624 108.148504 
L 628.13184 107.333322 
L 631.740056 111.342673 
L 635.348272 105.655495 
L 638.956488 114.547202 
L 642.564704 108.219045 
L 646.17292 101.655165 
L 649.781136 103.165016 
L 653.389352 90.165752 
L 656.997568 86.546922 
L 660.605784 87.378828 
L 664.214 90.076978 
L 667.822216 83.717666 
L 671.430432 86.160338 
L 675.038648 83.255478 
L 678.646864 81.102307 
L 682.25508 79.676182 
L 685.863296 75.274557 
L 689.471512 62.251434 
L 693.079729 51.708723 
L 696.687945 39.101003 
L 700.296161 29.922101 
L 703.904377 20.374955 
L 707.512593 18.731725 
L 711.120809 28.781761 
L 714.729025 35.426856 
L 718.337241 39.38227 
L 721.945457 44.580252 
L 725.553673 46.96087 
L 729.161889 36.060446 
L 732.770105 39.254709 
L 736.378321 41.189258 
L 739.986537 37.029521 
L 743.594753 39.280563 
L 747.202969 48.95277 
L 750.811185 35.865969 
L 754.419401 28.460842 
L 758.027617 30.848611 
L 761.635833 47.485776 
L 765.24405 46.533907 
L 768.852266 54.852974 
L 772.460482 67.900887 
L 776.068698 70.337422 
L 779.676914 53.788192 
L 783.28513 49.834705 
L 786.893346 51.557241 
L 790.501562 43.372345 
L 794.109778 38.489058 
L 797.717994 40.456422 
L 801.32621 37.834633 
L 804.934426 33.881413 
L 808.542642 30.295837 
L 812.150858 41.780031 
L 815.759074 35.558503 
L 819.36729 28.534201 
L 822.975506 23.015329 
L 826.583722 26.291224 
L 830.191938 17.76 
L 833.800155 22.451645 
L 837.408371 33.759338 
L 841.016587 43.231431 
L 844.624803 43.916236 
L 851.841235 34.711503 
L 855.449451 35.307766 
L 859.057667 37.329874 
L 862.665883 47.095634 
L 866.274099 71.459752 
L 869.882315 91.127516 
L 873.490531 105.143152 
L 877.098747 109.580555 
L 880.706963 118.429426 
L 884.315179 92.142025 
L 887.923395 59.169597 
L 891.531611 38.129243 
L 895.139827 62.079121 
L 898.748043 79.875733 
L 902.35626 126.384211 
L 905.964476 184.519808 
L 909.572692 224.488031 
L 913.180908 228.96 
L 916.789124 228.96 
L 920.39734 170.824403 
L 927.613772 170.824403 
L 931.221988 112.688805 
L 931.221988 112.688805 
" style="fill:none;stroke:#96c6ad;stroke-linecap:square;stroke-width:2;"/>
   </g>
   <g id="line2d_20">
    <path clip-path="url(#p3f99d8f1de)" d="M 458.545685 170.205939 
L 462.153901 228.341536 
L 465.762117 225.984688 
L 469.370333 225.650109 
L 472.978549 225.650109 
L 476.586765 225.106786 
L 480.194981 224.056142 
L 483.803198 226.412991 
L 487.411414 226.363695 
L 491.01963 225.740814 
L 494.627846 226.284137 
L 498.236062 227.06227 
L 501.844278 226.987353 
L 505.452494 227.728603 
L 509.06071 228.007995 
L 512.668926 227.723713 
L 516.277142 227.938891 
L 519.885358 227.890312 
L 530.710006 228.471909 
L 534.318222 228.246481 
L 537.926438 228.369977 
L 545.14287 228.178033 
L 559.575735 228.122699 
L 563.183951 227.781847 
L 566.792167 227.950954 
L 577.616815 227.939568 
L 581.225031 228.216318 
L 588.441463 227.925688 
L 592.049679 228.013748 
L 602.874327 227.807521 
L 606.482543 227.946189 
L 610.090759 227.643755 
L 613.698975 227.651141 
L 617.307191 227.832285 
L 624.523624 227.681498 
L 628.13184 227.832137 
L 631.740056 227.784534 
L 635.348272 227.359075 
L 638.956488 227.365963 
L 646.17292 227.602366 
L 649.781136 227.612691 
L 653.389352 227.899626 
L 656.997568 227.845184 
L 660.605784 227.417818 
L 664.214 227.221715 
L 667.822216 227.249203 
L 671.430432 227.064512 
L 675.038648 227.058029 
L 678.646864 227.412495 
L 682.25508 227.2753 
L 685.863296 226.672274 
L 689.471512 226.535312 
L 693.079729 226.561492 
L 696.687945 226.430266 
L 700.296161 226.42984 
L 703.904377 226.777938 
L 707.512593 226.93901 
L 711.120809 226.685067 
L 714.729025 226.144121 
L 721.945457 226.477138 
L 725.553673 226.567544 
L 729.161889 226.474514 
L 732.770105 226.708276 
L 736.378321 226.402434 
L 739.986537 226.208389 
L 743.594753 226.229462 
L 747.202969 225.828228 
L 758.027617 225.145954 
L 761.635833 224.655446 
L 768.852266 225.868464 
L 772.460482 226.273184 
L 776.068698 226.168338 
L 779.676914 226.252468 
L 786.893346 225.468802 
L 790.501562 225.316664 
L 794.109778 225.72694 
L 797.717994 225.788587 
L 804.934426 226.11996 
L 812.150858 226.009203 
L 815.759074 225.871261 
L 819.36729 226.159715 
L 826.583722 226.174688 
L 830.191938 226.306721 
L 833.800155 226.608787 
L 837.408371 225.710914 
L 841.016587 225.09102 
L 844.624803 225.344503 
L 848.233019 225.205269 
L 851.841235 224.919412 
L 859.057667 226.025606 
L 862.665883 225.677299 
L 866.274099 225.150417 
L 869.882315 225.579476 
L 873.490531 225.782749 
L 877.098747 225.349204 
L 880.706963 224.774801 
L 884.315179 225.085783 
L 887.923395 224.649633 
L 891.531611 224.745829 
L 895.139827 225.41267 
L 898.748043 225.924222 
L 905.964476 225.351586 
L 909.572692 224.786549 
L 913.180908 224.37344 
L 916.789124 222.218987 
L 924.005556 220.279977 
L 927.613772 220.750785 
L 931.221988 220.350151 
L 934.830204 222.841332 
L 934.830204 222.841332 
" style="fill:none;stroke:#525886;stroke-linecap:square;stroke-width:2;"/>
   </g>
   <g id="line2d_21">
    <path clip-path="url(#p3f99d8f1de)" d="M 541.534654 228.895974 
L 545.14287 228.96 
L 548.751086 228.96 
L 552.359302 228.96 
L 555.967519 228.96 
L 559.575735 228.924487 
L 563.183951 228.924487 
L 566.792167 228.924487 
L 570.400383 228.880394 
L 574.008599 228.850973 
L 577.616815 228.886487 
L 581.225031 228.886487 
L 584.833247 228.886487 
L 588.441463 228.930579 
L 592.049679 228.96 
L 595.657895 228.96 
L 599.266111 228.96 
L 602.874327 228.96 
L 606.482543 228.932277 
L 610.090759 228.89685 
L 613.698975 228.89685 
L 617.307191 228.873323 
L 620.915407 228.848307 
L 624.523624 228.851154 
L 628.13184 228.886581 
L 631.740056 228.886581 
L 635.348272 228.8713 
L 638.956488 228.896315 
L 642.564704 228.871545 
L 646.17292 228.847502 
L 649.781136 228.847502 
L 653.389352 228.812347 
L 656.997568 228.812347 
L 660.605784 228.836417 
L 664.214 228.778694 
L 667.822216 228.761468 
L 671.430432 228.793921 
L 675.038648 228.793921 
L 678.646864 228.790874 
L 682.25508 228.87264 
L 685.863296 228.889865 
L 689.471512 228.931376 
L 693.079729 228.881474 
L 696.687945 228.910098 
L 700.296161 228.883096 
L 703.904377 228.883096 
L 707.512593 228.883096 
L 711.120809 228.932998 
L 714.729025 228.932998 
L 718.337241 228.96 
L 721.945457 228.96 
L 725.553673 228.928267 
L 729.161889 228.858097 
L 732.770105 228.858097 
L 736.378321 228.858097 
L 739.986537 228.764781 
L 743.594753 228.754721 
L 747.202969 228.749242 
L 750.811185 228.664681 
L 754.419401 228.550466 
L 758.027617 228.482144 
L 761.635833 228.445694 
L 765.24405 228.458561 
L 768.852266 228.448745 
L 772.460482 228.4675 
L 776.068698 228.582961 
L 779.676914 228.173582 
L 783.28513 228.057301 
L 786.893346 228.084077 
L 790.501562 227.875561 
L 794.109778 227.787475 
L 797.717994 228.166231 
L 801.32621 228.20532 
L 804.934426 228.225423 
L 808.542642 228.287168 
L 812.150858 228.338734 
L 815.759074 228.352609 
L 819.36729 228.447794 
L 822.975506 228.02307 
L 826.583722 228.209987 
L 830.191938 228.183303 
L 833.800155 228.157432 
L 837.408371 227.800176 
L 841.016587 228.170046 
L 844.624803 228.156315 
L 848.233019 228.119258 
L 851.841235 228.240122 
L 855.449451 228.593024 
L 859.057667 228.519916 
L 862.665883 228.514903 
L 866.274099 228.162322 
L 869.882315 228.028369 
L 873.490531 228.077511 
L 877.098747 228.199782 
L 880.706963 228.077657 
L 884.315179 228.508759 
L 887.923395 228.642712 
L 891.531611 228.642712 
L 895.139827 228.576527 
L 898.748043 228.77271 
L 902.35626 228.765369 
L 905.964476 228.765369 
L 909.572692 228.765369 
L 913.180908 228.884744 
L 916.789124 228.884744 
L 920.39734 228.96 
L 924.005556 228.909315 
L 927.613772 228.805502 
" style="fill:none;stroke:#937252;stroke-linecap:square;stroke-width:2;"/>
   </g>
   <g id="line2d_22">
    <path clip-path="url(#p3f99d8f1de)" d="M 631.740056 199.892201 
L 635.348272 224.807457 
L 638.956488 224.807457 
L 642.564704 224.807457 
L 646.17292 221.387716 
L 649.781136 221.387716 
L 653.389352 225.540259 
L 656.997568 225.540259 
L 660.605784 222.120518 
L 664.214 225.540259 
L 667.822216 225.540259 
L 671.430432 225.540259 
L 675.038648 225.540259 
L 678.646864 224.488031 
L 682.25508 224.488031 
L 685.863296 224.488031 
L 689.471512 224.488031 
L 693.079729 224.488031 
L 696.687945 228.96 
L 700.296161 228.96 
L 703.904377 228.96 
L 707.512593 228.96 
L 711.120809 226.537683 
L 714.729025 226.537683 
L 718.337241 226.537683 
L 721.945457 226.537683 
L 725.553673 226.537683 
L 729.161889 228.96 
L 732.770105 228.96 
L 736.378321 228.96 
L 739.986537 228.96 
L 743.594753 224.115367 
L 747.202969 224.115367 
L 750.811185 224.115367 
L 754.419401 214.426101 
L 758.027617 214.426101 
L 761.635833 219.270734 
L 765.24405 219.270734 
L 768.852266 219.270734 
L 772.460482 228.96 
L 776.068698 228.96 
L 779.676914 228.96 
L 783.28513 228.96 
L 786.893346 228.96 
L 790.501562 228.96 
L 794.109778 228.96 
L 797.717994 228.96 
L 801.32621 228.96 
L 804.934426 223.674946 
L 808.542642 223.674946 
L 812.150858 223.674946 
L 815.759074 219.799239 
" style="fill:none;stroke:#d18cad;stroke-linecap:square;stroke-width:2;"/>
   </g>
   <g id="line2d_23">
    <path clip-path="url(#p3f99d8f1de)" d="M 422.463525 227.703014 
L 426.071741 228.96 
L 429.679957 228.96 
L 433.288173 228.96 
L 436.896389 228.649114 
L 440.504605 228.649114 
L 444.112821 228.649114 
L 447.721037 228.649114 
L 451.329253 228.649114 
L 454.937469 228.96 
L 458.545685 228.96 
L 462.153901 228.96 
L 465.762117 228.96 
L 469.370333 228.96 
L 472.978549 228.96 
L 476.586765 228.96 
L 480.194981 228.96 
L 483.803198 228.96 
L 487.411414 228.96 
L 491.01963 228.96 
L 494.627846 228.96 
L 498.236062 228.96 
L 501.844278 227.987833 
L 505.452494 227.987833 
L 509.06071 227.987833 
L 512.668926 227.987833 
L 516.277142 227.987833 
L 519.885358 228.96 
L 523.493574 228.616002 
L 527.10179 228.616002 
L 530.710006 228.616002 
L 534.318222 228.616002 
L 537.926438 228.616002 
L 541.534654 228.96 
L 545.14287 228.098732 
L 548.751086 228.098732 
L 552.359302 228.098732 
L 555.967519 227.781051 
L 559.575735 227.127842 
L 563.183951 227.98911 
L 566.792167 227.98911 
L 570.400383 227.98911 
L 574.008599 228.306791 
L 577.616815 228.572429 
L 581.225031 228.572429 
L 584.833247 228.572429 
L 588.441463 227.880339 
L 592.049679 227.497868 
L 595.657895 227.885439 
L 599.266111 226.726589 
L 602.874327 226.726589 
L 606.482543 227.293925 
L 610.090759 227.676396 
L 613.698975 227.057933 
L 617.307191 228.216782 
L 620.915407 228.216782 
L 624.523624 228.341536 
L 628.13184 228.341536 
L 631.740056 228.596653 
L 635.348272 228.596653 
L 638.956488 228.596653 
L 642.564704 228.359848 
L 646.17292 227.12292 
L 649.781136 226.429257 
L 653.389352 225.263631 
L 656.997568 224.947676 
L 660.605784 223.885362 
L 664.214 224.125679 
L 667.822216 224.407549 
L 671.430432 225.066178 
L 675.038648 225.382132 
L 678.646864 226.483512 
L 682.25508 226.817608 
L 685.863296 227.592749 
L 689.471512 227.292307 
L 693.079729 227.292307 
L 696.687945 227.019948 
L 700.296161 227.488999 
L 703.904377 227.103143 
L 707.512593 227.691203 
L 711.120809 227.691203 
L 714.729025 228.161302 
L 718.337241 228.354765 
L 721.945457 228.641243 
L 725.553673 228.860623 
L 729.161889 228.763568 
L 732.770105 228.763568 
L 736.378321 227.278769 
L 739.986537 227.208655 
L 743.594753 227.132161 
L 747.202969 226.978631 
L 750.811185 226.786764 
L 754.419401 228.176102 
L 758.027617 228.141609 
L 761.635833 228.218104 
L 765.24405 228.468688 
L 768.852266 228.660555 
L 772.460482 228.516281 
L 776.068698 228.720266 
L 779.676914 228.617005 
L 783.28513 228.515547 
L 786.893346 228.132235 
L 790.501562 228.37197 
L 794.109778 228.37197 
L 797.717994 228.47523 
L 801.32621 228.576688 
L 804.934426 228.841598 
L 808.542642 228.741536 
L 812.150858 228.459325 
L 815.759074 228.459325 
L 819.36729 228.375192 
L 822.975506 227.806413 
L 826.583722 227.617721 
L 830.191938 227.729447 
L 833.800155 227.603884 
L 837.408371 227.688017 
L 841.016587 228.179456 
L 844.624803 227.996839 
L 848.233019 227.974183 
L 851.841235 227.887959 
L 855.449451 227.887959 
L 859.057667 227.961053 
" style="fill:none;stroke:#a4a86f;stroke-linecap:square;stroke-width:2;"/>
   </g>
   <g id="patch_3">
    <path d="M 43.78125 228.96 
L 43.78125 7.2 
" style="fill:none;stroke:#000000;stroke-linecap:square;stroke-linejoin:miter;stroke-width:0.8;"/>
   </g>
   <g id="patch_4">
    <path d="M 43.78125 228.96 
L 992.38125 228.96 
" style="fill:none;stroke:#000000;stroke-linecap:square;stroke-linejoin:miter;stroke-width:0.8;"/>
   </g>
   <g id="legend_1">
    <g id="line2d_24">
     <path d="M 50.98125 17.67875 
L 66.98125 17.67875 
" style="fill:none;stroke:#947383;stroke-linecap:square;stroke-width:2;"/>
    </g>
    <g id="line2d_25"/>
    <g id="text_20">
     <!-- North America -->
     <g transform="translate(73.38125 20.47875)scale(0.08 -0.08)">
      <defs>
       <path d="M 9.8125 72.90625 
L 23.09375 72.90625 
L 55.421875 11.921875 
L 55.421875 72.90625 
L 64.984375 72.90625 
L 64.984375 0 
L 51.703125 0 
L 19.390625 60.984375 
L 19.390625 0 
L 9.8125 0 
z
" id="DejaVuSans-78"/>
       <path d="M 54.890625 33.015625 
L 54.890625 0 
L 45.90625 0 
L 45.90625 32.71875 
Q 45.90625 40.484375 42.875 44.328125 
Q 39.84375 48.1875 33.796875 48.1875 
Q 26.515625 48.1875 22.3125 43.546875 
Q 18.109375 38.921875 18.109375 30.90625 
L 18.109375 0 
L 9.078125 0 
L 9.078125 75.984375 
L 18.109375 75.984375 
L 18.109375 46.1875 
Q 21.34375 51.125 25.703125 53.5625 
Q 30.078125 56 35.796875 56 
Q 45.21875 56 50.046875 50.171875 
Q 54.890625 44.34375 54.890625 33.015625 
z
" id="DejaVuSans-104"/>
       <path d="M 34.1875 63.1875 
L 20.796875 26.90625 
L 47.609375 26.90625 
z
M 28.609375 72.90625 
L 39.796875 72.90625 
L 67.578125 0 
L 57.328125 0 
L 50.6875 18.703125 
L 17.828125 18.703125 
L 11.1875 0 
L 0.78125 0 
z
" id="DejaVuSans-65"/>
       <path d="M 52 44.1875 
Q 55.375 50.25 60.0625 53.125 
Q 64.75 56 71.09375 56 
Q 79.640625 56 84.28125 50.015625 
Q 88.921875 44.046875 88.921875 33.015625 
L 88.921875 0 
L 79.890625 0 
L 79.890625 32.71875 
Q 79.890625 40.578125 77.09375 44.375 
Q 74.3125 48.1875 68.609375 48.1875 
Q 61.625 48.1875 57.5625 43.546875 
Q 53.515625 38.921875 53.515625 30.90625 
L 53.515625 0 
L 44.484375 0 
L 44.484375 32.71875 
Q 44.484375 40.625 41.703125 44.40625 
Q 38.921875 48.1875 33.109375 48.1875 
Q 26.21875 48.1875 22.15625 43.53125 
Q 18.109375 38.875 18.109375 30.90625 
L 18.109375 0 
L 9.078125 0 
L 9.078125 54.6875 
L 18.109375 54.6875 
L 18.109375 46.1875 
Q 21.1875 51.21875 25.484375 53.609375 
Q 29.78125 56 35.6875 56 
Q 41.65625 56 45.828125 52.96875 
Q 50 49.953125 52 44.1875 
z
" id="DejaVuSans-109"/>
      </defs>
      <use xlink:href="#DejaVuSans-78"/>
      <use x="74.804688" xlink:href="#DejaVuSans-111"/>
      <use x="135.986328" xlink:href="#DejaVuSans-114"/>
      <use x="177.099609" xlink:href="#DejaVuSans-116"/>
      <use x="216.308594" xlink:href="#DejaVuSans-104"/>
      <use x="279.6875" xlink:href="#DejaVuSans-32"/>
      <use x="311.474609" xlink:href="#DejaVuSans-65"/>
      <use x="379.882812" xlink:href="#DejaVuSans-109"/>
      <use x="477.294922" xlink:href="#DejaVuSans-101"/>
      <use x="538.818359" xlink:href="#DejaVuSans-114"/>
      <use x="579.931641" xlink:href="#DejaVuSans-105"/>
      <use x="607.714844" xlink:href="#DejaVuSans-99"/>
      <use x="662.695312" xlink:href="#DejaVuSans-97"/>
     </g>
    </g>
    <g id="line2d_26">
     <path d="M 50.98125 29.42125 
L 66.98125 29.42125 
" style="fill:none;stroke:#96c6ad;stroke-linecap:square;stroke-width:2;"/>
    </g>
    <g id="line2d_27"/>
    <g id="text_21">
     <!-- South America -->
     <g transform="translate(73.38125 32.22125)scale(0.08 -0.08)">
      <defs>
       <path d="M 53.515625 70.515625 
L 53.515625 60.890625 
Q 47.90625 63.578125 42.921875 64.890625 
Q 37.9375 66.21875 33.296875 66.21875 
Q 25.25 66.21875 20.875 63.09375 
Q 16.5 59.96875 16.5 54.203125 
Q 16.5 49.359375 19.40625 46.890625 
Q 22.3125 44.4375 30.421875 42.921875 
L 36.375 41.703125 
Q 47.40625 39.59375 52.65625 34.296875 
Q 57.90625 29 57.90625 20.125 
Q 57.90625 9.515625 50.796875 4.046875 
Q 43.703125 -1.421875 29.984375 -1.421875 
Q 24.8125 -1.421875 18.96875 -0.25 
Q 13.140625 0.921875 6.890625 3.21875 
L 6.890625 13.375 
Q 12.890625 10.015625 18.65625 8.296875 
Q 24.421875 6.59375 29.984375 6.59375 
Q 38.421875 6.59375 43.015625 9.90625 
Q 47.609375 13.234375 47.609375 19.390625 
Q 47.609375 24.75 44.3125 27.78125 
Q 41.015625 30.8125 33.5 32.328125 
L 27.484375 33.5 
Q 16.453125 35.6875 11.515625 40.375 
Q 6.59375 45.0625 6.59375 53.421875 
Q 6.59375 63.09375 13.40625 68.65625 
Q 20.21875 74.21875 32.171875 74.21875 
Q 37.3125 74.21875 42.625 73.28125 
Q 47.953125 72.359375 53.515625 70.515625 
z
" id="DejaVuSans-83"/>
      </defs>
      <use xlink:href="#DejaVuSans-83"/>
      <use x="63.476562" xlink:href="#DejaVuSans-111"/>
      <use x="124.658203" xlink:href="#DejaVuSans-117"/>
      <use x="188.037109" xlink:href="#DejaVuSans-116"/>
      <use x="227.246094" xlink:href="#DejaVuSans-104"/>
      <use x="290.625" xlink:href="#DejaVuSans-32"/>
      <use x="322.412109" xlink:href="#DejaVuSans-65"/>
      <use x="390.820312" xlink:href="#DejaVuSans-109"/>
      <use x="488.232422" xlink:href="#DejaVuSans-101"/>
      <use x="549.755859" xlink:href="#DejaVuSans-114"/>
      <use x="590.869141" xlink:href="#DejaVuSans-105"/>
      <use x="618.652344" xlink:href="#DejaVuSans-99"/>
      <use x="673.632812" xlink:href="#DejaVuSans-97"/>
     </g>
    </g>
    <g id="line2d_28">
     <path d="M 50.98125 41.16375 
L 66.98125 41.16375 
" style="fill:none;stroke:#525886;stroke-linecap:square;stroke-width:2;"/>
    </g>
    <g id="line2d_29"/>
    <g id="text_22">
     <!-- Europe -->
     <g transform="translate(73.38125 43.96375)scale(0.08 -0.08)">
      <defs>
       <path d="M 9.8125 72.90625 
L 55.90625 72.90625 
L 55.90625 64.59375 
L 19.671875 64.59375 
L 19.671875 43.015625 
L 54.390625 43.015625 
L 54.390625 34.71875 
L 19.671875 34.71875 
L 19.671875 8.296875 
L 56.78125 8.296875 
L 56.78125 0 
L 9.8125 0 
z
" id="DejaVuSans-69"/>
       <path d="M 18.109375 8.203125 
L 18.109375 -20.796875 
L 9.078125 -20.796875 
L 9.078125 54.6875 
L 18.109375 54.6875 
L 18.109375 46.390625 
Q 20.953125 51.265625 25.265625 53.625 
Q 29.59375 56 35.59375 56 
Q 45.5625 56 51.78125 48.09375 
Q 58.015625 40.1875 58.015625 27.296875 
Q 58.015625 14.40625 51.78125 6.484375 
Q 45.5625 -1.421875 35.59375 -1.421875 
Q 29.59375 -1.421875 25.265625 0.953125 
Q 20.953125 3.328125 18.109375 8.203125 
z
M 48.6875 27.296875 
Q 48.6875 37.203125 44.609375 42.84375 
Q 40.53125 48.484375 33.40625 48.484375 
Q 26.265625 48.484375 22.1875 42.84375 
Q 18.109375 37.203125 18.109375 27.296875 
Q 18.109375 17.390625 22.1875 11.75 
Q 26.265625 6.109375 33.40625 6.109375 
Q 40.53125 6.109375 44.609375 11.75 
Q 48.6875 17.390625 48.6875 27.296875 
z
" id="DejaVuSans-112"/>
      </defs>
      <use xlink:href="#DejaVuSans-69"/>
      <use x="63.183594" xlink:href="#DejaVuSans-117"/>
      <use x="126.5625" xlink:href="#DejaVuSans-114"/>
      <use x="165.425781" xlink:href="#DejaVuSans-111"/>
      <use x="226.607422" xlink:href="#DejaVuSans-112"/>
      <use x="290.083984" xlink:href="#DejaVuSans-101"/>
     </g>
    </g>
    <g id="line2d_30">
     <path d="M 50.98125 52.90625 
L 66.98125 52.90625 
" style="fill:none;stroke:#937252;stroke-linecap:square;stroke-width:2;"/>
    </g>
    <g id="line2d_31"/>
    <g id="text_23">
     <!-- United Kingdom -->
     <g transform="translate(73.38125 55.70625)scale(0.08 -0.08)">
      <defs>
       <path d="M 8.6875 72.90625 
L 18.609375 72.90625 
L 18.609375 28.609375 
Q 18.609375 16.890625 22.84375 11.734375 
Q 27.09375 6.59375 36.625 6.59375 
Q 46.09375 6.59375 50.34375 11.734375 
Q 54.59375 16.890625 54.59375 28.609375 
L 54.59375 72.90625 
L 64.5 72.90625 
L 64.5 27.390625 
Q 64.5 13.140625 57.4375 5.859375 
Q 50.390625 -1.421875 36.625 -1.421875 
Q 22.796875 -1.421875 15.734375 5.859375 
Q 8.6875 13.140625 8.6875 27.390625 
z
" id="DejaVuSans-85"/>
       <path d="M 9.8125 72.90625 
L 19.671875 72.90625 
L 19.671875 42.09375 
L 52.390625 72.90625 
L 65.09375 72.90625 
L 28.90625 38.921875 
L 67.671875 0 
L 54.6875 0 
L 19.671875 35.109375 
L 19.671875 0 
L 9.8125 0 
z
" id="DejaVuSans-75"/>
      </defs>
      <use xlink:href="#DejaVuSans-85"/>
      <use x="73.193359" xlink:href="#DejaVuSans-110"/>
      <use x="136.572266" xlink:href="#DejaVuSans-105"/>
      <use x="164.355469" xlink:href="#DejaVuSans-116"/>
      <use x="203.564453" xlink:href="#DejaVuSans-101"/>
      <use x="265.087891" xlink:href="#DejaVuSans-100"/>
      <use x="328.564453" xlink:href="#DejaVuSans-32"/>
      <use x="360.351562" xlink:href="#DejaVuSans-75"/>
      <use x="425.927734" xlink:href="#DejaVuSans-105"/>
      <use x="453.710938" xlink:href="#DejaVuSans-110"/>
      <use x="517.089844" xlink:href="#DejaVuSans-103"/>
      <use x="580.566406" xlink:href="#DejaVuSans-100"/>
      <use x="644.042969" xlink:href="#DejaVuSans-111"/>
      <use x="705.224609" xlink:href="#DejaVuSans-109"/>
     </g>
    </g>
    <g id="line2d_32">
     <path d="M 50.98125 64.64875 
L 66.98125 64.64875 
" style="fill:none;stroke:#d18cad;stroke-linecap:square;stroke-width:2;"/>
    </g>
    <g id="line2d_33"/>
    <g id="text_24">
     <!-- Oceania -->
     <g transform="translate(73.38125 67.44875)scale(0.08 -0.08)">
      <defs>
       <path d="M 39.40625 66.21875 
Q 28.65625 66.21875 22.328125 58.203125 
Q 16.015625 50.203125 16.015625 36.375 
Q 16.015625 22.609375 22.328125 14.59375 
Q 28.65625 6.59375 39.40625 6.59375 
Q 50.140625 6.59375 56.421875 14.59375 
Q 62.703125 22.609375 62.703125 36.375 
Q 62.703125 50.203125 56.421875 58.203125 
Q 50.140625 66.21875 39.40625 66.21875 
z
M 39.40625 74.21875 
Q 54.734375 74.21875 63.90625 63.9375 
Q 73.09375 53.65625 73.09375 36.375 
Q 73.09375 19.140625 63.90625 8.859375 
Q 54.734375 -1.421875 39.40625 -1.421875 
Q 24.03125 -1.421875 14.8125 8.828125 
Q 5.609375 19.09375 5.609375 36.375 
Q 5.609375 53.65625 14.8125 63.9375 
Q 24.03125 74.21875 39.40625 74.21875 
z
" id="DejaVuSans-79"/>
      </defs>
      <use xlink:href="#DejaVuSans-79"/>
      <use x="78.710938" xlink:href="#DejaVuSans-99"/>
      <use x="133.691406" xlink:href="#DejaVuSans-101"/>
      <use x="195.214844" xlink:href="#DejaVuSans-97"/>
      <use x="256.494141" xlink:href="#DejaVuSans-110"/>
      <use x="319.873047" xlink:href="#DejaVuSans-105"/>
      <use x="347.65625" xlink:href="#DejaVuSans-97"/>
     </g>
    </g>
    <g id="line2d_34">
     <path d="M 50.98125 76.39125 
L 66.98125 76.39125 
" style="fill:none;stroke:#a4a86f;stroke-linecap:square;stroke-width:2;"/>
    </g>
    <g id="line2d_35"/>
    <g id="text_25">
     <!-- Asia -->
     <g transform="translate(73.38125 79.19125)scale(0.08 -0.08)">
      <defs>
       <path d="M 44.28125 53.078125 
L 44.28125 44.578125 
Q 40.484375 46.53125 36.375 47.5 
Q 32.28125 48.484375 27.875 48.484375 
Q 21.1875 48.484375 17.84375 46.4375 
Q 14.5 44.390625 14.5 40.28125 
Q 14.5 37.15625 16.890625 35.375 
Q 19.28125 33.59375 26.515625 31.984375 
L 29.59375 31.296875 
Q 39.15625 29.25 43.1875 25.515625 
Q 47.21875 21.78125 47.21875 15.09375 
Q 47.21875 7.46875 41.1875 3.015625 
Q 35.15625 -1.421875 24.609375 -1.421875 
Q 20.21875 -1.421875 15.453125 -0.5625 
Q 10.6875 0.296875 5.421875 2 
L 5.421875 11.28125 
Q 10.40625 8.6875 15.234375 7.390625 
Q 20.0625 6.109375 24.8125 6.109375 
Q 31.15625 6.109375 34.5625 8.28125 
Q 37.984375 10.453125 37.984375 14.40625 
Q 37.984375 18.0625 35.515625 20.015625 
Q 33.0625 21.96875 24.703125 23.78125 
L 21.578125 24.515625 
Q 13.234375 26.265625 9.515625 29.90625 
Q 5.8125 33.546875 5.8125 39.890625 
Q 5.8125 47.609375 11.28125 51.796875 
Q 16.75 56 26.8125 56 
Q 31.78125 56 36.171875 55.265625 
Q 40.578125 54.546875 44.28125 53.078125 
z
" id="DejaVuSans-115"/>
      </defs>
      <use xlink:href="#DejaVuSans-65"/>
      <use x="68.408203" xlink:href="#DejaVuSans-115"/>
      <use x="120.507812" xlink:href="#DejaVuSans-105"/>
      <use x="148.291016" xlink:href="#DejaVuSans-97"/>
     </g>
    </g>
   </g>
  </g>
 </g>
 <defs>
  <clipPath id="p3f99d8f1de">
   <rect height="221.76" width="948.6" x="43.78125" y="7.2"/>
  </clipPath>
 </defs>
</svg>
